<?xml version="1.0" encoding="UTF-8" standalone="no"?>
<!DOCTYPE svg PUBLIC "-//W3C//DTD SVG 1.1//EN"
 "http://www.w3.org/Graphics/SVG/1.1/DTD/svg11.dtd">
<!-- Generated by graphviz version 2.43.0 (0)
 -->
<!-- Title: all.hpp Pages: 1 -->
<svg width="1691pt" height="467pt"
 viewBox="0.00 0.00 1691.00 467.00" xmlns="http://www.w3.org/2000/svg" xmlns:xlink="http://www.w3.org/1999/xlink">
<g id="graph0" class="graph" transform="scale(1 1) rotate(0) translate(4 463)">
<title>all.hpp</title>
<!-- Node1 -->
<g id="node1" class="node">
<title>Node1</title>
<g id="a_node1"><a xlink:title=" ">
<polygon fill="#bfbfbf" stroke="black" points="407,-459 357,-459 357,-440 407,-440 407,-459"/>
<text text-anchor="middle" x="382" y="-447" font-family="Helvetica,sans-Serif" font-size="10.00">all.hpp</text>
</a>
</g>
</g>
<!-- Node2 -->
<g id="node2" class="node">
<title>Node2</title>
<g id="a_node2"><a xlink:href="cmd__line_8hpp.html" target="_top" xlink:title=" ">
<polygon fill="none" stroke="black" points="1162,-404 1080,-404 1080,-385 1162,-385 1162,-404"/>
<text text-anchor="middle" x="1121" y="-392" font-family="Helvetica,sans-Serif" font-size="10.00">cmd_line.hpp</text>
</a>
</g>
</g>
<!-- Node1&#45;&gt;Node2 -->
<g id="edge1" class="edge">
<title>Node1&#45;&gt;Node2</title>
<path fill="none" stroke="midnightblue" d="M407.01,-446.71C512.76,-439.12 924.41,-409.6 1069.8,-399.17"/>
<polygon fill="midnightblue" stroke="midnightblue" points="1070.07,-402.66 1079.8,-398.46 1069.57,-395.68 1070.07,-402.66"/>
</g>
<!-- Node4 -->
<g id="node4" class="node">
<title>Node4</title>
<g id="a_node4"><a xlink:href="types_8hpp.html" target="_top" xlink:title=" ">
<polygon fill="none" stroke="black" points="553.5,-74 488.5,-74 488.5,-55 553.5,-55 553.5,-74"/>
<text text-anchor="middle" x="521" y="-62" font-family="Helvetica,sans-Serif" font-size="10.00">types.hpp</text>
</a>
</g>
</g>
<!-- Node1&#45;&gt;Node4 -->
<g id="edge88" class="edge">
<title>Node1&#45;&gt;Node4</title>
<path fill="none" stroke="midnightblue" d="M356.94,-446.87C271.95,-440.65 0,-414.93 0,-340.5 0,-340.5 0,-340.5 0,-173.5 0,-76.11 353.45,-65.88 478.11,-65.31"/>
<polygon fill="midnightblue" stroke="midnightblue" points="478.42,-68.8 488.41,-65.28 478.4,-61.8 478.42,-68.8"/>
</g>
<!-- Node3 -->
<g id="node3" class="node">
<title>Node3</title>
<g id="a_node3"><a xlink:href="api_8hpp.html" target="_top" xlink:title=" ">
<polygon fill="none" stroke="black" points="696.5,-349 643.5,-349 643.5,-330 696.5,-330 696.5,-349"/>
<text text-anchor="middle" x="670" y="-337" font-family="Helvetica,sans-Serif" font-size="10.00">api.hpp</text>
</a>
</g>
</g>
<!-- Node2&#45;&gt;Node3 -->
<g id="edge2" class="edge">
<title>Node2&#45;&gt;Node3</title>
<path fill="none" stroke="midnightblue" d="M1079.83,-390.8C1006.76,-385.64 849.48,-372.85 706.9,-348.93"/>
<polygon fill="midnightblue" stroke="midnightblue" points="707.11,-345.41 696.66,-347.19 705.93,-352.31 707.11,-345.41"/>
</g>
<!-- Node7 -->
<g id="node7" class="node">
<title>Node7</title>
<g id="a_node7"><a xlink:title=" ">
<polygon fill="none" stroke="#bfbfbf" points="1516.5,-19 1469.5,-19 1469.5,0 1516.5,0 1516.5,-19"/>
<text text-anchor="middle" x="1493" y="-7" font-family="Helvetica,sans-Serif" font-size="10.00">vector</text>
</a>
</g>
</g>
<!-- Node2&#45;&gt;Node7 -->
<g id="edge73" class="edge">
<title>Node2&#45;&gt;Node7</title>
<path fill="none" stroke="midnightblue" d="M1162.33,-389.94C1292.11,-378.23 1683,-338.53 1683,-285.5 1683,-285.5 1683,-285.5 1683,-118.5 1683,-47.39 1581.16,-22.51 1526.6,-14.29"/>
<polygon fill="midnightblue" stroke="midnightblue" points="1527.07,-10.82 1516.68,-12.9 1526.1,-17.75 1527.07,-10.82"/>
</g>
<!-- Node10 -->
<g id="node10" class="node">
<title>Node10</title>
<g id="a_node10"><a xlink:href="utils_8hpp.html" target="_top" xlink:title=" ">
<polygon fill="none" stroke="black" points="1018.5,-129 959.5,-129 959.5,-110 1018.5,-110 1018.5,-129"/>
<text text-anchor="middle" x="989" y="-117" font-family="Helvetica,sans-Serif" font-size="10.00">utils.hpp</text>
</a>
</g>
</g>
<!-- Node2&#45;&gt;Node10 -->
<g id="edge59" class="edge">
<title>Node2&#45;&gt;Node10</title>
<path fill="none" stroke="midnightblue" d="M1162.13,-391.95C1217.85,-388.76 1319.71,-378.96 1401,-349 1449.59,-331.09 1499.78,-326.04 1491,-275 1482.21,-223.88 1492.88,-196.92 1452,-165 1418.96,-139.2 1134.98,-125.98 1028.82,-121.9"/>
<polygon fill="midnightblue" stroke="midnightblue" points="1028.65,-118.39 1018.53,-121.52 1028.39,-125.39 1028.65,-118.39"/>
</g>
<!-- Node11 -->
<g id="node11" class="node">
<title>Node11</title>
<g id="a_node11"><a xlink:title=" ">
<polygon fill="none" stroke="#bfbfbf" points="1297,-74 1233,-74 1233,-55 1297,-55 1297,-74"/>
<text text-anchor="middle" x="1265" y="-62" font-family="Helvetica,sans-Serif" font-size="10.00">algorithm</text>
</a>
</g>
</g>
<!-- Node2&#45;&gt;Node11 -->
<g id="edge74" class="edge">
<title>Node2&#45;&gt;Node11</title>
<path fill="none" stroke="midnightblue" d="M1162.23,-390.73C1237.27,-385.2 1392.92,-371.38 1442,-349 1475.82,-333.58 1486.65,-326.32 1505,-294 1533.65,-243.55 1546.45,-218.91 1525,-165 1512.56,-133.74 1502.32,-126.48 1473,-110 1420.7,-80.6 1351,-70.59 1307.06,-67.21"/>
<polygon fill="midnightblue" stroke="midnightblue" points="1307.23,-63.71 1297.01,-66.51 1306.74,-70.69 1307.23,-63.71"/>
</g>
<!-- Node14 -->
<g id="node14" class="node">
<title>Node14</title>
<g id="a_node14"><a xlink:href="context_8hpp.html" target="_top" xlink:title=" ">
<polygon fill="none" stroke="black" points="379,-184 305,-184 305,-165 379,-165 379,-184"/>
<text text-anchor="middle" x="342" y="-172" font-family="Helvetica,sans-Serif" font-size="10.00">context.hpp</text>
</a>
</g>
</g>
<!-- Node2&#45;&gt;Node14 -->
<g id="edge60" class="edge">
<title>Node2&#45;&gt;Node14</title>
<path fill="none" stroke="midnightblue" d="M1079.84,-391.95C915.61,-385.34 313.4,-356.93 259,-294 228.69,-258.94 285.19,-212.86 319.11,-189.86"/>
<polygon fill="midnightblue" stroke="midnightblue" points="321.16,-192.7 327.58,-184.27 317.31,-186.85 321.16,-192.7"/>
</g>
<!-- Node16 -->
<g id="node16" class="node">
<title>Node16</title>
<g id="a_node16"><a xlink:href="exceptions_8hpp.html" target="_top" xlink:title=" ">
<polygon fill="none" stroke="black" points="210.5,-129 119.5,-129 119.5,-110 210.5,-110 210.5,-129"/>
<text text-anchor="middle" x="165" y="-117" font-family="Helvetica,sans-Serif" font-size="10.00">exceptions.hpp</text>
</a>
</g>
</g>
<!-- Node2&#45;&gt;Node16 -->
<g id="edge61" class="edge">
<title>Node2&#45;&gt;Node16</title>
<path fill="none" stroke="midnightblue" d="M1079.71,-393.65C885.93,-393.79 76,-388.27 76,-285.5 76,-285.5 76,-285.5 76,-228.5 76,-187.03 115.57,-152.84 141.94,-134.67"/>
<polygon fill="midnightblue" stroke="midnightblue" points="143.9,-137.57 150.3,-129.13 140.03,-131.73 143.9,-137.57"/>
</g>
<!-- Node22 -->
<g id="node22" class="node">
<title>Node22</title>
<g id="a_node22"><a xlink:title=" ">
<polygon fill="none" stroke="#bfbfbf" points="1427,-184 1369,-184 1369,-165 1427,-165 1427,-184"/>
<text text-anchor="middle" x="1398" y="-172" font-family="Helvetica,sans-Serif" font-size="10.00">memory</text>
</a>
</g>
</g>
<!-- Node2&#45;&gt;Node22 -->
<g id="edge75" class="edge">
<title>Node2&#45;&gt;Node22</title>
<path fill="none" stroke="midnightblue" d="M1162.26,-388.1C1247.05,-376.06 1436.13,-344.1 1474,-294 1500.96,-258.33 1450.58,-213.13 1419.62,-190.23"/>
<polygon fill="midnightblue" stroke="midnightblue" points="1421.29,-187.11 1411.12,-184.13 1417.21,-192.8 1421.29,-187.11"/>
</g>
<!-- Node23 -->
<g id="node23" class="node">
<title>Node23</title>
<g id="a_node23"><a xlink:href="command_8hpp.html" target="_top" xlink:title=" ">
<polygon fill="none" stroke="black" points="750,-294 664,-294 664,-275 750,-275 750,-294"/>
<text text-anchor="middle" x="707" y="-282" font-family="Helvetica,sans-Serif" font-size="10.00">command.hpp</text>
</a>
</g>
</g>
<!-- Node2&#45;&gt;Node23 -->
<g id="edge62" class="edge">
<title>Node2&#45;&gt;Node23</title>
<path fill="none" stroke="midnightblue" d="M1088.17,-384.94C1013.81,-365.54 832.6,-318.26 749.68,-296.63"/>
<polygon fill="midnightblue" stroke="midnightblue" points="750.39,-293.2 739.84,-294.07 748.63,-299.98 750.39,-293.2"/>
</g>
<!-- Node24 -->
<g id="node24" class="node">
<title>Node24</title>
<g id="a_node24"><a xlink:href="help_8hpp.html" target="_top" xlink:title=" ">
<polygon fill="none" stroke="black" points="773.5,-349 714.5,-349 714.5,-330 773.5,-330 773.5,-349"/>
<text text-anchor="middle" x="744" y="-337" font-family="Helvetica,sans-Serif" font-size="10.00">help.hpp</text>
</a>
</g>
</g>
<!-- Node2&#45;&gt;Node24 -->
<g id="edge63" class="edge">
<title>Node2&#45;&gt;Node24</title>
<path fill="none" stroke="midnightblue" d="M1079.94,-387.73C1007,-377.47 855.75,-356.21 783.76,-346.09"/>
<polygon fill="midnightblue" stroke="midnightblue" points="784.12,-342.61 773.73,-344.68 783.15,-349.54 784.12,-342.61"/>
</g>
<!-- Node26 -->
<g id="node26" class="node">
<title>Node26</title>
<g id="a_node26"><a xlink:href="help__printer_8hpp.html" target="_top" xlink:title=" ">
<polygon fill="none" stroke="black" points="1270.5,-349 1175.5,-349 1175.5,-330 1270.5,-330 1270.5,-349"/>
<text text-anchor="middle" x="1223" y="-337" font-family="Helvetica,sans-Serif" font-size="10.00">help_printer.hpp</text>
</a>
</g>
</g>
<!-- Node2&#45;&gt;Node26 -->
<g id="edge76" class="edge">
<title>Node2&#45;&gt;Node26</title>
<path fill="none" stroke="midnightblue" d="M1132.27,-384.98C1146.74,-376.5 1171.78,-363.35 1191.99,-353.54"/>
<polygon fill="midnightblue" stroke="midnightblue" points="1193.64,-356.63 1201.17,-349.17 1190.63,-350.31 1193.64,-356.63"/>
</g>
<!-- Node3&#45;&gt;Node4 -->
<g id="edge3" class="edge">
<title>Node3&#45;&gt;Node4</title>
<path fill="none" stroke="midnightblue" d="M643.34,-337.47C545.06,-333.5 206.55,-318.18 165,-294 139.32,-279.06 137.99,-266.6 127,-239 105.61,-185.27 71.37,-153.04 110,-110 134.31,-82.92 378.08,-70.82 478.31,-66.96"/>
<polygon fill="midnightblue" stroke="midnightblue" points="478.53,-70.45 488.4,-66.58 478.27,-63.46 478.53,-70.45"/>
</g>
<!-- Node8 -->
<g id="node8" class="node">
<title>Node8</title>
<g id="a_node8"><a xlink:href="arg_8hpp.html" target="_top" xlink:title=" ">
<polygon fill="none" stroke="black" points="575.5,-239 522.5,-239 522.5,-220 575.5,-220 575.5,-239"/>
<text text-anchor="middle" x="549" y="-227" font-family="Helvetica,sans-Serif" font-size="10.00">arg.hpp</text>
</a>
</g>
</g>
<!-- Node3&#45;&gt;Node8 -->
<g id="edge7" class="edge">
<title>Node3&#45;&gt;Node8</title>
<path fill="none" stroke="midnightblue" d="M643.26,-331.03C623.12,-324.23 595.99,-312.39 578,-294 565.83,-281.56 558.19,-263.09 553.82,-249.28"/>
<polygon fill="midnightblue" stroke="midnightblue" points="557.11,-248.05 551,-239.4 550.38,-249.97 557.11,-248.05"/>
</g>
<!-- Node19 -->
<g id="node19" class="node">
<title>Node19</title>
<g id="a_node19"><a xlink:href="multi__arg_8hpp.html" target="_top" xlink:title=" ">
<polygon fill="none" stroke="black" points="352,-294 268,-294 268,-275 352,-275 352,-294"/>
<text text-anchor="middle" x="310" y="-282" font-family="Helvetica,sans-Serif" font-size="10.00">multi_arg.hpp</text>
</a>
</g>
</g>
<!-- Node3&#45;&gt;Node19 -->
<g id="edge30" class="edge">
<title>Node3&#45;&gt;Node19</title>
<path fill="none" stroke="midnightblue" d="M643.15,-334.62C590.16,-326.95 468.35,-309.26 366,-294 364.74,-293.81 363.47,-293.62 362.18,-293.43"/>
<polygon fill="midnightblue" stroke="midnightblue" points="362.6,-289.95 352.19,-291.93 361.56,-296.88 362.6,-289.95"/>
</g>
<!-- Node20 -->
<g id="node20" class="node">
<title>Node20</title>
<g id="a_node20"><a xlink:href="groups_8hpp.html" target="_top" xlink:title=" ">
<polygon fill="none" stroke="black" points="1226.5,-294 1155.5,-294 1155.5,-275 1226.5,-275 1226.5,-294"/>
<text text-anchor="middle" x="1191" y="-282" font-family="Helvetica,sans-Serif" font-size="10.00">groups.hpp</text>
</a>
</g>
</g>
<!-- Node3&#45;&gt;Node20 -->
<g id="edge38" class="edge">
<title>Node3&#45;&gt;Node20</title>
<path fill="none" stroke="midnightblue" d="M696.65,-331.74C699.79,-331.08 702.96,-330.48 706,-330 897.02,-299.83 950.4,-319.99 1145.05,-294.13"/>
<polygon fill="midnightblue" stroke="midnightblue" points="1145.59,-297.59 1155.03,-292.78 1144.66,-290.65 1145.59,-297.59"/>
</g>
<!-- Node3&#45;&gt;Node23 -->
<g id="edge51" class="edge">
<title>Node3&#45;&gt;Node23</title>
<path fill="none" stroke="midnightblue" d="M670.94,-329.75C674.6,-322.18 682,-311.05 689.3,-301.84"/>
<polygon fill="midnightblue" stroke="midnightblue" points="692.08,-303.98 695.87,-294.09 686.74,-299.46 692.08,-303.98"/>
</g>
<!-- Node5 -->
<g id="node5" class="node">
<title>Node5</title>
<g id="a_node5"><a xlink:title=" ">
<polygon fill="none" stroke="#bfbfbf" points="578,-19 534,-19 534,0 578,0 578,-19"/>
<text text-anchor="middle" x="556" y="-7" font-family="Helvetica,sans-Serif" font-size="10.00">string</text>
</a>
</g>
</g>
<!-- Node4&#45;&gt;Node5 -->
<g id="edge4" class="edge">
<title>Node4&#45;&gt;Node5</title>
<path fill="none" stroke="midnightblue" d="M526.78,-54.75C531.62,-47.42 538.68,-36.73 544.64,-27.7"/>
<polygon fill="midnightblue" stroke="midnightblue" points="547.74,-29.36 550.33,-19.09 541.9,-25.5 547.74,-29.36"/>
</g>
<!-- Node6 -->
<g id="node6" class="node">
<title>Node6</title>
<g id="a_node6"><a xlink:title=" ">
<polygon fill="none" stroke="#bfbfbf" points="516,-19 456,-19 456,0 516,0 516,-19"/>
<text text-anchor="middle" x="486" y="-7" font-family="Helvetica,sans-Serif" font-size="10.00">iostream</text>
</a>
</g>
</g>
<!-- Node4&#45;&gt;Node6 -->
<g id="edge5" class="edge">
<title>Node4&#45;&gt;Node6</title>
<path fill="none" stroke="midnightblue" d="M515.22,-54.75C510.38,-47.42 503.32,-36.73 497.36,-27.7"/>
<polygon fill="midnightblue" stroke="midnightblue" points="500.1,-25.5 491.67,-19.09 494.26,-29.36 500.1,-25.5"/>
</g>
<!-- Node4&#45;&gt;Node7 -->
<g id="edge6" class="edge">
<title>Node4&#45;&gt;Node7</title>
<path fill="none" stroke="midnightblue" d="M553.62,-61.72C701.61,-53.65 1309.18,-20.52 1459.33,-12.34"/>
<polygon fill="midnightblue" stroke="midnightblue" points="1459.54,-15.83 1469.34,-11.79 1459.16,-8.84 1459.54,-15.83"/>
</g>
<!-- Node8&#45;&gt;Node4 -->
<g id="edge28" class="edge">
<title>Node8&#45;&gt;Node4</title>
<path fill="none" stroke="midnightblue" d="M536.79,-219.86C526.65,-211.88 512.96,-199.01 507,-184 493.67,-150.44 504.98,-107.65 513.56,-83.75"/>
<polygon fill="midnightblue" stroke="midnightblue" points="516.91,-84.79 517.21,-74.2 510.37,-82.29 516.91,-84.79"/>
</g>
<!-- Node9 -->
<g id="node9" class="node">
<title>Node9</title>
<g id="a_node9"><a xlink:href="arg__iface_8hpp.html" target="_top" xlink:title=" ">
<polygon fill="none" stroke="black" points="856.5,-184 773.5,-184 773.5,-165 856.5,-165 856.5,-184"/>
<text text-anchor="middle" x="815" y="-172" font-family="Helvetica,sans-Serif" font-size="10.00">arg_iface.hpp</text>
</a>
</g>
</g>
<!-- Node8&#45;&gt;Node9 -->
<g id="edge8" class="edge">
<title>Node8&#45;&gt;Node9</title>
<path fill="none" stroke="midnightblue" d="M575.97,-223.13C619.74,-214.41 706.98,-197.02 763.08,-185.84"/>
<polygon fill="midnightblue" stroke="midnightblue" points="764.06,-189.22 773.18,-183.83 762.69,-182.35 764.06,-189.22"/>
</g>
<!-- Node8&#45;&gt;Node10 -->
<g id="edge15" class="edge">
<title>Node8&#45;&gt;Node10</title>
<path fill="none" stroke="midnightblue" d="M575.55,-227.77C630.86,-225.61 761.94,-217.11 866,-184 885.84,-177.69 935.16,-150.84 964.97,-134.14"/>
<polygon fill="midnightblue" stroke="midnightblue" points="966.91,-137.06 973.9,-129.11 963.47,-130.96 966.91,-137.06"/>
</g>
<!-- Node8&#45;&gt;Node11 -->
<g id="edge29" class="edge">
<title>Node8&#45;&gt;Node11</title>
<path fill="none" stroke="midnightblue" d="M575.63,-226.82C634.53,-222.72 780.04,-210.58 899,-184 1025.89,-155.65 1171.43,-101.9 1233.89,-77.77"/>
<polygon fill="midnightblue" stroke="midnightblue" points="1235.48,-80.9 1243.53,-74.02 1232.94,-74.38 1235.48,-80.9"/>
</g>
<!-- Node8&#45;&gt;Node14 -->
<g id="edge16" class="edge">
<title>Node8&#45;&gt;Node14</title>
<path fill="none" stroke="midnightblue" d="M522.36,-221.68C487.66,-212.79 426.55,-197.15 385.18,-186.56"/>
<polygon fill="midnightblue" stroke="midnightblue" points="385.94,-183.14 375.38,-184.05 384.2,-189.92 385.94,-183.14"/>
</g>
<!-- Node8&#45;&gt;Node16 -->
<g id="edge20" class="edge">
<title>Node8&#45;&gt;Node16</title>
<path fill="none" stroke="midnightblue" d="M530.54,-219.96C501.01,-206.59 441.04,-180.61 388,-165 332.02,-148.52 266.33,-136.23 220.82,-128.79"/>
<polygon fill="midnightblue" stroke="midnightblue" points="221.28,-125.32 210.85,-127.19 220.17,-132.23 221.28,-125.32"/>
</g>
<!-- Node18 -->
<g id="node18" class="node">
<title>Node18</title>
<g id="a_node18"><a xlink:href="value__utils_8hpp.html" target="_top" xlink:title=" ">
<polygon fill="none" stroke="black" points="678.5,-184 587.5,-184 587.5,-165 678.5,-165 678.5,-184"/>
<text text-anchor="middle" x="633" y="-172" font-family="Helvetica,sans-Serif" font-size="10.00">value_utils.hpp</text>
</a>
</g>
</g>
<!-- Node8&#45;&gt;Node18 -->
<g id="edge23" class="edge">
<title>Node8&#45;&gt;Node18</title>
<path fill="none" stroke="midnightblue" d="M562.5,-219.98C575.4,-211.84 595.1,-199.41 610.4,-189.76"/>
<polygon fill="midnightblue" stroke="midnightblue" points="612.67,-192.47 619.26,-184.17 608.93,-186.55 612.67,-192.47"/>
</g>
<!-- Node9&#45;&gt;Node4 -->
<g id="edge13" class="edge">
<title>Node9&#45;&gt;Node4</title>
<path fill="none" stroke="midnightblue" d="M810.58,-164.88C802.93,-150.89 785.82,-123.47 763,-110 700.66,-73.2 614.83,-65.62 563.91,-64.7"/>
<polygon fill="midnightblue" stroke="midnightblue" points="563.63,-61.2 553.59,-64.6 563.56,-68.2 563.63,-61.2"/>
</g>
<!-- Node9&#45;&gt;Node10 -->
<g id="edge9" class="edge">
<title>Node9&#45;&gt;Node10</title>
<path fill="none" stroke="midnightblue" d="M842.96,-164.98C872.3,-156.05 918.6,-141.94 951.19,-132.02"/>
<polygon fill="midnightblue" stroke="midnightblue" points="952.28,-135.34 960.82,-129.08 950.24,-128.65 952.28,-135.34"/>
</g>
<!-- Node13 -->
<g id="node13" class="node">
<title>Node13</title>
<g id="a_node13"><a xlink:href="enums_8hpp.html" target="_top" xlink:title=" ">
<polygon fill="none" stroke="black" points="753.5,-129 682.5,-129 682.5,-110 753.5,-110 753.5,-129"/>
<text text-anchor="middle" x="718" y="-117" font-family="Helvetica,sans-Serif" font-size="10.00">enums.hpp</text>
</a>
</g>
</g>
<!-- Node9&#45;&gt;Node13 -->
<g id="edge14" class="edge">
<title>Node9&#45;&gt;Node13</title>
<path fill="none" stroke="midnightblue" d="M799.42,-164.98C784.23,-156.69 760.9,-143.94 743.1,-134.22"/>
<polygon fill="midnightblue" stroke="midnightblue" points="744.32,-130.89 733.87,-129.17 740.97,-137.04 744.32,-130.89"/>
</g>
<!-- Node10&#45;&gt;Node4 -->
<g id="edge10" class="edge">
<title>Node10&#45;&gt;Node4</title>
<path fill="none" stroke="midnightblue" d="M959.37,-115.14C879.09,-106.05 657.18,-80.92 563.55,-70.32"/>
<polygon fill="midnightblue" stroke="midnightblue" points="563.91,-66.84 553.58,-69.19 563.12,-73.79 563.91,-66.84"/>
</g>
<!-- Node10&#45;&gt;Node11 -->
<g id="edge11" class="edge">
<title>Node10&#45;&gt;Node11</title>
<path fill="none" stroke="midnightblue" d="M1018.54,-112.83C1067.63,-103.4 1166.2,-84.47 1222.67,-73.63"/>
<polygon fill="midnightblue" stroke="midnightblue" points="1223.55,-77.02 1232.71,-71.7 1222.23,-70.15 1223.55,-77.02"/>
</g>
<!-- Node12 -->
<g id="node12" class="node">
<title>Node12</title>
<g id="a_node12"><a xlink:title=" ">
<polygon fill="none" stroke="#bfbfbf" points="1118.5,-74 1049.5,-74 1049.5,-55 1118.5,-55 1118.5,-74"/>
<text text-anchor="middle" x="1084" y="-62" font-family="Helvetica,sans-Serif" font-size="10.00">type_traits</text>
</a>
</g>
</g>
<!-- Node10&#45;&gt;Node12 -->
<g id="edge12" class="edge">
<title>Node10&#45;&gt;Node12</title>
<path fill="none" stroke="midnightblue" d="M1004.26,-109.98C1019.13,-101.69 1041.98,-88.94 1059.42,-79.22"/>
<polygon fill="midnightblue" stroke="midnightblue" points="1061.43,-82.1 1068.46,-74.17 1058.02,-75.99 1061.43,-82.1"/>
</g>
<!-- Node14&#45;&gt;Node4 -->
<g id="edge19" class="edge">
<title>Node14&#45;&gt;Node4</title>
<path fill="none" stroke="midnightblue" d="M352.85,-164.89C369.24,-152.08 401.52,-127.65 431,-110 450.81,-98.14 474.22,-86.64 492.19,-78.3"/>
<polygon fill="midnightblue" stroke="midnightblue" points="493.93,-81.36 501.57,-74.01 491.02,-74.99 493.93,-81.36"/>
</g>
<!-- Node14&#45;&gt;Node10 -->
<g id="edge18" class="edge">
<title>Node14&#45;&gt;Node10</title>
<path fill="none" stroke="midnightblue" d="M379.11,-170.46C492.25,-161.19 832.21,-133.34 949.05,-123.77"/>
<polygon fill="midnightblue" stroke="midnightblue" points="949.65,-127.24 959.33,-122.93 949.08,-120.26 949.65,-127.24"/>
</g>
<!-- Node15 -->
<g id="node15" class="node">
<title>Node15</title>
<g id="a_node15"><a xlink:title=" ">
<polygon fill="none" stroke="#bfbfbf" points="364.5,-129 319.5,-129 319.5,-110 364.5,-110 364.5,-129"/>
<text text-anchor="middle" x="342" y="-117" font-family="Helvetica,sans-Serif" font-size="10.00">utility</text>
</a>
</g>
</g>
<!-- Node14&#45;&gt;Node15 -->
<g id="edge17" class="edge">
<title>Node14&#45;&gt;Node15</title>
<path fill="none" stroke="midnightblue" d="M342,-164.75C342,-157.8 342,-147.85 342,-139.13"/>
<polygon fill="midnightblue" stroke="midnightblue" points="345.5,-139.09 342,-129.09 338.5,-139.09 345.5,-139.09"/>
</g>
<!-- Node16&#45;&gt;Node4 -->
<g id="edge22" class="edge">
<title>Node16&#45;&gt;Node4</title>
<path fill="none" stroke="midnightblue" d="M210.81,-111.68C279.98,-101.38 410.14,-82 477.76,-71.94"/>
<polygon fill="midnightblue" stroke="midnightblue" points="478.68,-75.34 488.05,-70.41 477.65,-68.42 478.68,-75.34"/>
</g>
<!-- Node17 -->
<g id="node17" class="node">
<title>Node17</title>
<g id="a_node17"><a xlink:title=" ">
<polygon fill="none" stroke="#bfbfbf" points="197.5,-74 132.5,-74 132.5,-55 197.5,-55 197.5,-74"/>
<text text-anchor="middle" x="165" y="-62" font-family="Helvetica,sans-Serif" font-size="10.00">stdexcept</text>
</a>
</g>
</g>
<!-- Node16&#45;&gt;Node17 -->
<g id="edge21" class="edge">
<title>Node16&#45;&gt;Node17</title>
<path fill="none" stroke="midnightblue" d="M165,-109.75C165,-102.8 165,-92.85 165,-84.13"/>
<polygon fill="midnightblue" stroke="midnightblue" points="168.5,-84.09 165,-74.09 161.5,-84.09 168.5,-84.09"/>
</g>
<!-- Node18&#45;&gt;Node4 -->
<g id="edge26" class="edge">
<title>Node18&#45;&gt;Node4</title>
<path fill="none" stroke="midnightblue" d="M623.83,-164.66C604.87,-146.38 561.11,-104.18 537.25,-81.17"/>
<polygon fill="midnightblue" stroke="midnightblue" points="539.61,-78.58 529.98,-74.16 534.75,-83.62 539.61,-78.58"/>
</g>
<!-- Node18&#45;&gt;Node10 -->
<g id="edge24" class="edge">
<title>Node18&#45;&gt;Node10</title>
<path fill="none" stroke="midnightblue" d="M678.81,-166.68C749.22,-156.2 882.85,-136.3 949.35,-126.4"/>
<polygon fill="midnightblue" stroke="midnightblue" points="950.05,-129.84 959.43,-124.9 949.02,-122.91 950.05,-129.84"/>
</g>
<!-- Node18&#45;&gt;Node11 -->
<g id="edge27" class="edge">
<title>Node18&#45;&gt;Node11</title>
<path fill="none" stroke="midnightblue" d="M635.81,-164.65C640.88,-150.34 653.02,-122.47 674,-110 685.8,-102.99 1088.86,-76.73 1222.46,-68.2"/>
<polygon fill="midnightblue" stroke="midnightblue" points="1222.95,-71.67 1232.71,-67.54 1222.51,-64.69 1222.95,-71.67"/>
</g>
<!-- Node18&#45;&gt;Node16 -->
<g id="edge25" class="edge">
<title>Node18&#45;&gt;Node16</title>
<path fill="none" stroke="midnightblue" d="M587.48,-166.9C582.6,-166.23 577.7,-165.59 573,-165 447.32,-149.25 299.45,-133.91 220.81,-126.01"/>
<polygon fill="midnightblue" stroke="midnightblue" points="220.94,-122.51 210.64,-125 220.24,-129.48 220.94,-122.51"/>
</g>
<!-- Node19&#45;&gt;Node4 -->
<g id="edge36" class="edge">
<title>Node19&#45;&gt;Node4</title>
<path fill="none" stroke="midnightblue" d="M303.9,-274.8C298.25,-266.17 290.25,-252.35 287,-239 273.24,-182.41 265.13,-147.13 310,-110 335.2,-89.15 424.3,-76.03 478.33,-69.8"/>
<polygon fill="midnightblue" stroke="midnightblue" points="478.77,-73.27 488.32,-68.68 477.99,-66.32 478.77,-73.27"/>
</g>
<!-- Node19&#45;&gt;Node8 -->
<g id="edge31" class="edge">
<title>Node19&#45;&gt;Node8</title>
<path fill="none" stroke="midnightblue" d="M348.4,-274.98C393.57,-264.97 468.02,-248.46 512.4,-238.62"/>
<polygon fill="midnightblue" stroke="midnightblue" points="513.19,-242.03 522.19,-236.45 511.67,-235.19 513.19,-242.03"/>
</g>
<!-- Node19&#45;&gt;Node10 -->
<g id="edge35" class="edge">
<title>Node19&#45;&gt;Node10</title>
<path fill="none" stroke="midnightblue" d="M352.11,-282.8C451.29,-279.81 705.78,-264.25 899,-184 926.97,-172.38 954.78,-150.83 971.92,-136.09"/>
<polygon fill="midnightblue" stroke="midnightblue" points="974.68,-138.33 979.86,-129.09 970.05,-133.08 974.68,-138.33"/>
</g>
<!-- Node19&#45;&gt;Node14 -->
<g id="edge32" class="edge">
<title>Node19&#45;&gt;Node14</title>
<path fill="none" stroke="midnightblue" d="M312.62,-274.66C317.82,-257.09 329.57,-217.45 336.53,-193.95"/>
<polygon fill="midnightblue" stroke="midnightblue" points="339.95,-194.74 339.43,-184.16 333.24,-192.75 339.95,-194.74"/>
</g>
<!-- Node19&#45;&gt;Node15 -->
<g id="edge37" class="edge">
<title>Node19&#45;&gt;Node15</title>
<path fill="none" stroke="midnightblue" d="M306.09,-274.75C297.65,-254.52 279.75,-203.34 296,-165 300.98,-153.25 310.75,-143.09 320.01,-135.45"/>
<polygon fill="midnightblue" stroke="midnightblue" points="322.4,-138.03 328.22,-129.18 318.15,-132.47 322.4,-138.03"/>
</g>
<!-- Node19&#45;&gt;Node16 -->
<g id="edge33" class="edge">
<title>Node19&#45;&gt;Node16</title>
<path fill="none" stroke="midnightblue" d="M296.7,-274.91C284.36,-266.58 265.85,-253.15 252,-239 220.3,-206.62 190.73,-162.16 175.57,-137.95"/>
<polygon fill="midnightblue" stroke="midnightblue" points="178.39,-135.85 170.17,-129.18 172.44,-139.52 178.39,-135.85"/>
</g>
<!-- Node19&#45;&gt;Node18 -->
<g id="edge34" class="edge">
<title>Node19&#45;&gt;Node18</title>
<path fill="none" stroke="midnightblue" d="M335.62,-274.94C392.98,-255.76 531.86,-209.32 597.5,-187.37"/>
<polygon fill="midnightblue" stroke="midnightblue" points="599.01,-190.56 607.38,-184.07 596.79,-183.92 599.01,-190.56"/>
</g>
<!-- Node20&#45;&gt;Node4 -->
<g id="edge49" class="edge">
<title>Node20&#45;&gt;Node4</title>
<path fill="none" stroke="midnightblue" d="M1178.12,-274.69C1166.12,-266.21 1148.02,-252.67 1134,-239 1080.88,-187.19 1093.64,-144.61 1028,-110 947.92,-67.77 671.17,-64.64 563.93,-65.06"/>
<polygon fill="midnightblue" stroke="midnightblue" points="563.77,-61.57 553.79,-65.12 563.81,-68.57 563.77,-61.57"/>
</g>
<!-- Node20&#45;&gt;Node11 -->
<g id="edge50" class="edge">
<title>Node20&#45;&gt;Node11</title>
<path fill="none" stroke="midnightblue" d="M1206.65,-274.97C1219.39,-267.23 1236.88,-254.64 1247,-239 1278.87,-189.74 1281.47,-168.31 1275,-110 1274.04,-101.34 1272.06,-91.91 1270.11,-83.97"/>
<polygon fill="midnightblue" stroke="midnightblue" points="1273.49,-83.06 1267.57,-74.27 1266.72,-84.83 1273.49,-83.06"/>
</g>
<!-- Node21 -->
<g id="node21" class="node">
<title>Node21</title>
<g id="a_node21"><a xlink:href="group__iface_8hpp.html" target="_top" xlink:title=" ">
<polygon fill="none" stroke="black" points="1237.5,-239 1142.5,-239 1142.5,-220 1237.5,-220 1237.5,-239"/>
<text text-anchor="middle" x="1190" y="-227" font-family="Helvetica,sans-Serif" font-size="10.00">group_iface.hpp</text>
</a>
</g>
</g>
<!-- Node20&#45;&gt;Node21 -->
<g id="edge39" class="edge">
<title>Node20&#45;&gt;Node21</title>
<path fill="none" stroke="midnightblue" d="M1190.83,-274.75C1190.7,-267.8 1190.52,-257.85 1190.35,-249.13"/>
<polygon fill="midnightblue" stroke="midnightblue" points="1193.85,-249.02 1190.16,-239.09 1186.85,-249.15 1193.85,-249.02"/>
</g>
<!-- Node21&#45;&gt;Node4 -->
<g id="edge43" class="edge">
<title>Node21&#45;&gt;Node4</title>
<path fill="none" stroke="midnightblue" d="M1185.79,-219.93C1174.12,-197.21 1138.85,-135.42 1089,-110 1042.6,-86.34 688.1,-71.49 563.86,-66.97"/>
<polygon fill="midnightblue" stroke="midnightblue" points="563.71,-63.46 553.59,-66.6 563.46,-70.46 563.71,-63.46"/>
</g>
<!-- Node21&#45;&gt;Node7 -->
<g id="edge44" class="edge">
<title>Node21&#45;&gt;Node7</title>
<path fill="none" stroke="midnightblue" d="M1203.92,-219.9C1217.98,-211.12 1240.25,-196.98 1259,-184 1340.58,-127.54 1434.53,-55.73 1473.99,-25.25"/>
<polygon fill="midnightblue" stroke="midnightblue" points="1476.22,-27.96 1481.98,-19.07 1471.93,-22.42 1476.22,-27.96"/>
</g>
<!-- Node21&#45;&gt;Node9 -->
<g id="edge40" class="edge">
<title>Node21&#45;&gt;Node9</title>
<path fill="none" stroke="midnightblue" d="M1142.13,-221.73C1071.46,-211.75 939.74,-193.13 866.86,-182.83"/>
<polygon fill="midnightblue" stroke="midnightblue" points="866.94,-179.31 856.55,-181.37 865.96,-186.24 866.94,-179.31"/>
</g>
<!-- Node21&#45;&gt;Node10 -->
<g id="edge41" class="edge">
<title>Node21&#45;&gt;Node10</title>
<path fill="none" stroke="midnightblue" d="M1177.59,-219.89C1158.87,-207.08 1122.08,-182.64 1089,-165 1066.38,-152.93 1039.82,-141.23 1019.77,-132.85"/>
<polygon fill="midnightblue" stroke="midnightblue" points="1021.07,-129.6 1010.49,-129.02 1018.4,-136.07 1021.07,-129.6"/>
</g>
<!-- Node21&#45;&gt;Node11 -->
<g id="edge46" class="edge">
<title>Node21&#45;&gt;Node11</title>
<path fill="none" stroke="midnightblue" d="M1204.43,-219.77C1216.15,-211.9 1232.14,-199.24 1241,-184 1259.4,-152.35 1263.87,-108.84 1264.85,-84.3"/>
<polygon fill="midnightblue" stroke="midnightblue" points="1268.35,-84.28 1265.09,-74.2 1261.35,-84.11 1268.35,-84.28"/>
</g>
<!-- Node21&#45;&gt;Node12 -->
<g id="edge45" class="edge">
<title>Node21&#45;&gt;Node12</title>
<path fill="none" stroke="midnightblue" d="M1195.02,-219.89C1201.67,-207.29 1211.58,-183.35 1203,-165 1184.15,-124.67 1140.02,-94.93 1111.12,-78.93"/>
<polygon fill="midnightblue" stroke="midnightblue" points="1112.43,-75.66 1101.97,-74.03 1109.13,-81.83 1112.43,-75.66"/>
</g>
<!-- Node21&#45;&gt;Node15 -->
<g id="edge47" class="edge">
<title>Node21&#45;&gt;Node15</title>
<path fill="none" stroke="midnightblue" d="M1142.22,-225.65C1063.25,-220.46 900.74,-207.74 765,-184 730.28,-177.93 722.65,-171.48 688,-165 574,-143.68 436.94,-129.35 375.11,-123.49"/>
<polygon fill="midnightblue" stroke="midnightblue" points="375.09,-119.97 364.81,-122.53 374.44,-126.94 375.09,-119.97"/>
</g>
<!-- Node21&#45;&gt;Node16 -->
<g id="edge42" class="edge">
<title>Node21&#45;&gt;Node16</title>
<path fill="none" stroke="midnightblue" d="M1142.27,-226.33C1039.07,-221.36 787.6,-207.69 578,-184 449.68,-169.49 300.13,-144.46 220.91,-130.55"/>
<polygon fill="midnightblue" stroke="midnightblue" points="221.13,-127.04 210.68,-128.75 219.92,-133.93 221.13,-127.04"/>
</g>
<!-- Node21&#45;&gt;Node22 -->
<g id="edge48" class="edge">
<title>Node21&#45;&gt;Node22</title>
<path fill="none" stroke="midnightblue" d="M1223.42,-219.98C1260.39,-210.56 1319.9,-195.4 1358.99,-185.44"/>
<polygon fill="midnightblue" stroke="midnightblue" points="1359.87,-188.83 1368.7,-182.97 1358.14,-182.04 1359.87,-188.83"/>
</g>
<!-- Node23&#45;&gt;Node3 -->
<g id="edge52" class="edge">
<title>Node23&#45;&gt;Node3</title>
<path fill="none" stroke="midnightblue" d="M706.13,-294.09C702.53,-301.6 695.16,-312.72 687.86,-321.96"/>
<polygon fill="midnightblue" stroke="midnightblue" points="685.05,-319.85 681.28,-329.75 690.4,-324.37 685.05,-319.85"/>
</g>
<!-- Node23&#45;&gt;Node4 -->
<g id="edge58" class="edge">
<title>Node23&#45;&gt;Node4</title>
<path fill="none" stroke="midnightblue" d="M691.62,-274.91C665.36,-259.61 611.48,-225.31 578,-184 552.7,-152.78 535.24,-108.46 526.8,-83.82"/>
<polygon fill="midnightblue" stroke="midnightblue" points="530.02,-82.41 523.57,-74 523.37,-84.6 530.02,-82.41"/>
</g>
<!-- Node23&#45;&gt;Node10 -->
<g id="edge54" class="edge">
<title>Node23&#45;&gt;Node10</title>
<path fill="none" stroke="midnightblue" d="M750.17,-279.92C808.57,-274.28 908.72,-261.6 937,-239 968.48,-213.84 981.38,-165.76 986.27,-139.23"/>
<polygon fill="midnightblue" stroke="midnightblue" points="989.74,-139.75 987.91,-129.31 982.83,-138.61 989.74,-139.75"/>
</g>
<!-- Node23&#45;&gt;Node13 -->
<g id="edge57" class="edge">
<title>Node23&#45;&gt;Node13</title>
<path fill="none" stroke="midnightblue" d="M707.59,-274.74C709.31,-249.31 714.32,-175.08 716.7,-139.69"/>
<polygon fill="midnightblue" stroke="midnightblue" points="720.22,-139.52 717.41,-129.31 713.24,-139.05 720.22,-139.52"/>
</g>
<!-- Node23&#45;&gt;Node14 -->
<g id="edge55" class="edge">
<title>Node23&#45;&gt;Node14</title>
<path fill="none" stroke="midnightblue" d="M663.82,-275.27C624.22,-267.34 564.15,-254.29 513,-239 462.6,-223.93 405.61,-201.68 371.81,-187.92"/>
<polygon fill="midnightblue" stroke="midnightblue" points="373.08,-184.66 362.5,-184.1 370.43,-191.13 373.08,-184.66"/>
</g>
<!-- Node23&#45;&gt;Node18 -->
<g id="edge56" class="edge">
<title>Node23&#45;&gt;Node18</title>
<path fill="none" stroke="midnightblue" d="M700.94,-274.66C688.69,-256.77 660.75,-216 644.78,-192.69"/>
<polygon fill="midnightblue" stroke="midnightblue" points="647.47,-190.43 638.93,-184.16 641.7,-194.39 647.47,-190.43"/>
</g>
<!-- Node23&#45;&gt;Node21 -->
<g id="edge53" class="edge">
<title>Node23&#45;&gt;Node21</title>
<path fill="none" stroke="midnightblue" d="M750.29,-278.75C837.51,-269.18 1034.38,-247.58 1132.36,-236.82"/>
<polygon fill="midnightblue" stroke="midnightblue" points="1132.82,-240.3 1142.38,-235.73 1132.06,-233.34 1132.82,-240.3"/>
</g>
<!-- Node24&#45;&gt;Node4 -->
<g id="edge70" class="edge">
<title>Node24&#45;&gt;Node4</title>
<path fill="none" stroke="midnightblue" d="M715.41,-329.93C659.64,-312.63 539.46,-272.35 513,-239 477.16,-193.82 485.88,-166.16 499,-110 501.2,-100.57 505.71,-90.85 510.07,-82.91"/>
<polygon fill="midnightblue" stroke="midnightblue" points="513.12,-84.64 515.16,-74.24 507.08,-81.09 513.12,-84.64"/>
</g>
<!-- Node24&#45;&gt;Node8 -->
<g id="edge64" class="edge">
<title>Node24&#45;&gt;Node8</title>
<path fill="none" stroke="midnightblue" d="M725.72,-329.86C707.58,-321.18 679.08,-307.21 655,-294 625.51,-277.82 592.38,-257.64 571.13,-244.43"/>
<polygon fill="midnightblue" stroke="midnightblue" points="572.86,-241.39 562.53,-239.06 569.16,-247.32 572.86,-241.39"/>
</g>
<!-- Node24&#45;&gt;Node10 -->
<g id="edge68" class="edge">
<title>Node24&#45;&gt;Node10</title>
<path fill="none" stroke="midnightblue" d="M773.63,-331C818.33,-318.43 903.65,-289.4 959,-239 979.91,-219.96 983.63,-211.3 991,-184 993.2,-175.85 991.19,-173.44 991,-165 990.81,-156.49 990.41,-147.06 990.02,-139.09"/>
<polygon fill="midnightblue" stroke="midnightblue" points="993.51,-138.83 989.5,-129.03 986.52,-139.2 993.51,-138.83"/>
</g>
<!-- Node24&#45;&gt;Node14 -->
<g id="edge67" class="edge">
<title>Node24&#45;&gt;Node14</title>
<path fill="none" stroke="midnightblue" d="M714.17,-331.64C711.41,-331.06 708.66,-330.51 706,-330 606.1,-310.89 572.29,-336.75 480,-294 426.97,-269.44 378.49,-218.45 355.69,-192.09"/>
<polygon fill="midnightblue" stroke="midnightblue" points="358.12,-189.53 348.98,-184.17 352.78,-194.06 358.12,-189.53"/>
</g>
<!-- Node24&#45;&gt;Node16 -->
<g id="edge69" class="edge">
<title>Node24&#45;&gt;Node16</title>
<path fill="none" stroke="midnightblue" d="M714.21,-331.4C711.44,-330.87 708.68,-330.39 706,-330 489.1,-297.98 419.98,-369.13 214,-294 174.83,-279.71 156.96,-276.13 138,-239 123.04,-209.71 129.14,-196.67 138,-165 140.76,-155.12 146.39,-145.25 151.79,-137.32"/>
<polygon fill="midnightblue" stroke="midnightblue" points="154.78,-139.17 157.85,-129.03 149.13,-135.04 154.78,-139.17"/>
</g>
<!-- Node24&#45;&gt;Node22 -->
<g id="edge72" class="edge">
<title>Node24&#45;&gt;Node22</title>
<path fill="none" stroke="midnightblue" d="M773.75,-337.89C866.69,-335.64 1150.54,-326.25 1236,-294 1297.16,-270.92 1355.68,-218.03 1382.58,-191.42"/>
<polygon fill="midnightblue" stroke="midnightblue" points="1385.32,-193.63 1389.88,-184.06 1380.35,-188.69 1385.32,-193.63"/>
</g>
<!-- Node24&#45;&gt;Node23 -->
<g id="edge71" class="edge">
<title>Node24&#45;&gt;Node23</title>
<path fill="none" stroke="midnightblue" d="M737.89,-329.75C732.72,-322.34 725.15,-311.5 718.81,-302.41"/>
<polygon fill="midnightblue" stroke="midnightblue" points="721.59,-300.29 713,-294.09 715.85,-304.29 721.59,-300.29"/>
</g>
<!-- Node25 -->
<g id="node25" class="node">
<title>Node25</title>
<g id="a_node25"><a xlink:href="help__printer__iface_8hpp.html" target="_top" xlink:title=" ">
<polygon fill="none" stroke="black" points="1137.5,-294 1012.5,-294 1012.5,-275 1137.5,-275 1137.5,-294"/>
<text text-anchor="middle" x="1075" y="-282" font-family="Helvetica,sans-Serif" font-size="10.00">help_printer_iface.hpp</text>
</a>
</g>
</g>
<!-- Node24&#45;&gt;Node25 -->
<g id="edge65" class="edge">
<title>Node24&#45;&gt;Node25</title>
<path fill="none" stroke="midnightblue" d="M773.67,-333.75C826.98,-325.21 940.08,-307.1 1011.54,-295.66"/>
<polygon fill="midnightblue" stroke="midnightblue" points="1012.45,-299.06 1021.77,-294.02 1011.35,-292.15 1012.45,-299.06"/>
</g>
<!-- Node25&#45;&gt;Node10 -->
<g id="edge66" class="edge">
<title>Node25&#45;&gt;Node10</title>
<path fill="none" stroke="midnightblue" d="M1075.32,-274.97C1075.67,-254.33 1074.14,-200.78 1051,-165 1042.63,-152.06 1029.06,-141.69 1016.75,-134.22"/>
<polygon fill="midnightblue" stroke="midnightblue" points="1018.11,-130.97 1007.69,-129.09 1014.66,-137.06 1018.11,-130.97"/>
</g>
<!-- Node26&#45;&gt;Node2 -->
<g id="edge87" class="edge">
<title>Node26&#45;&gt;Node2</title>
<path fill="none" stroke="midnightblue" d="M1211.46,-349.17C1196.87,-357.71 1171.8,-370.87 1151.65,-380.63"/>
<polygon fill="midnightblue" stroke="midnightblue" points="1150.03,-377.53 1142.5,-384.98 1153.04,-383.85 1150.03,-377.53"/>
</g>
<!-- Node26&#45;&gt;Node4 -->
<g id="edge85" class="edge">
<title>Node26&#45;&gt;Node4</title>
<path fill="none" stroke="midnightblue" d="M1249.82,-329.98C1289.43,-316.26 1364.05,-285.97 1412,-239 1438.71,-212.84 1476.21,-193.49 1452,-165 1393.69,-96.37 738.74,-72 563.76,-66.69"/>
<polygon fill="midnightblue" stroke="midnightblue" points="563.75,-63.19 553.65,-66.39 563.54,-70.18 563.75,-63.19"/>
</g>
<!-- Node26&#45;&gt;Node7 -->
<g id="edge77" class="edge">
<title>Node26&#45;&gt;Node7</title>
<path fill="none" stroke="midnightblue" d="M1270.64,-338.03C1327,-335.87 1422.57,-327.07 1497,-294 1574.01,-259.79 1645,-259.76 1645,-175.5 1645,-175.5 1645,-175.5 1645,-118.5 1645,-60.84 1571.41,-31.13 1526.64,-18.39"/>
<polygon fill="midnightblue" stroke="midnightblue" points="1527.32,-14.95 1516.75,-15.72 1525.49,-21.71 1527.32,-14.95"/>
</g>
<!-- Node26&#45;&gt;Node10 -->
<g id="edge80" class="edge">
<title>Node26&#45;&gt;Node10</title>
<path fill="none" stroke="midnightblue" d="M1239.51,-329.91C1295.17,-300.45 1470.57,-203.18 1436,-165 1408.89,-135.06 1133.01,-124.44 1028.68,-121.47"/>
<polygon fill="midnightblue" stroke="midnightblue" points="1028.64,-117.97 1018.55,-121.19 1028.45,-124.97 1028.64,-117.97"/>
</g>
<!-- Node26&#45;&gt;Node11 -->
<g id="edge78" class="edge">
<title>Node26&#45;&gt;Node11</title>
<path fill="none" stroke="midnightblue" d="M1270.74,-334.75C1334.1,-328.98 1441.74,-316.21 1474,-294 1497.48,-277.84 1499.39,-266.47 1507,-239 1515.78,-207.3 1525.31,-192.32 1507,-165 1462.25,-98.21 1363.71,-76.21 1307.14,-69"/>
<polygon fill="midnightblue" stroke="midnightblue" points="1307.43,-65.51 1297.09,-67.81 1306.61,-72.46 1307.43,-65.51"/>
</g>
<!-- Node26&#45;&gt;Node16 -->
<g id="edge81" class="edge">
<title>Node26&#45;&gt;Node16</title>
<path fill="none" stroke="midnightblue" d="M1175.47,-337.53C986.78,-333.54 298.85,-317.44 259,-294 201.19,-260 176.83,-176.56 168.56,-139.16"/>
<polygon fill="midnightblue" stroke="midnightblue" points="171.94,-138.22 166.5,-129.14 165.09,-139.64 171.94,-138.22"/>
</g>
<!-- Node26&#45;&gt;Node20 -->
<g id="edge83" class="edge">
<title>Node26&#45;&gt;Node20</title>
<path fill="none" stroke="midnightblue" d="M1217.72,-329.75C1213.29,-322.42 1206.84,-311.73 1201.38,-302.7"/>
<polygon fill="midnightblue" stroke="midnightblue" points="1204.35,-300.84 1196.19,-294.09 1198.36,-304.46 1204.35,-300.84"/>
</g>
<!-- Node26&#45;&gt;Node21 -->
<g id="edge82" class="edge">
<title>Node26&#45;&gt;Node21</title>
<path fill="none" stroke="midnightblue" d="M1227.85,-329.96C1234.27,-317.47 1243.91,-293.65 1236,-275 1231.02,-263.25 1221.25,-253.09 1211.99,-245.45"/>
<polygon fill="midnightblue" stroke="midnightblue" points="1213.85,-242.47 1203.78,-239.18 1209.6,-248.03 1213.85,-242.47"/>
</g>
<!-- Node26&#45;&gt;Node23 -->
<g id="edge84" class="edge">
<title>Node26&#45;&gt;Node23</title>
<path fill="none" stroke="midnightblue" d="M1175.38,-333.61C1078.9,-323.7 860.96,-301.31 760.08,-290.95"/>
<polygon fill="midnightblue" stroke="midnightblue" points="760.41,-287.47 750.11,-289.93 759.7,-294.43 760.41,-287.47"/>
</g>
<!-- Node26&#45;&gt;Node25 -->
<g id="edge86" class="edge">
<title>Node26&#45;&gt;Node25</title>
<path fill="none" stroke="midnightblue" d="M1199.22,-329.98C1174.77,-321.23 1136.47,-307.51 1108.85,-297.62"/>
<polygon fill="midnightblue" stroke="midnightblue" points="1109.81,-294.25 1099.21,-294.17 1107.45,-300.84 1109.81,-294.25"/>
</g>
<!-- Node27 -->
<g id="node27" class="node">
<title>Node27</title>
<g id="a_node27"><a xlink:title=" ">
<polygon fill="none" stroke="#bfbfbf" points="1464.5,-294 1399.5,-294 1399.5,-275 1464.5,-275 1464.5,-294"/>
<text text-anchor="middle" x="1432" y="-282" font-family="Helvetica,sans-Serif" font-size="10.00">functional</text>
</a>
</g>
</g>
<!-- Node26&#45;&gt;Node27 -->
<g id="edge79" class="edge">
<title>Node26&#45;&gt;Node27</title>
<path fill="none" stroke="midnightblue" d="M1256.58,-329.98C1292.67,-320.83 1350.13,-306.26 1389.38,-296.31"/>
<polygon fill="midnightblue" stroke="midnightblue" points="1390.36,-299.67 1399.19,-293.82 1388.64,-292.89 1390.36,-299.67"/>
</g>
</g>
</svg>
