<?xml version="1.0" encoding="UTF-8" standalone="no"?>
<!DOCTYPE svg PUBLIC "-//W3C//DTD SVG 1.1//EN"
 "http://www.w3.org/Graphics/SVG/1.1/DTD/svg11.dtd">
<!-- Generated by graphviz version 2.38.0 (20140413.2041)
 -->
<!-- Title: all.hpp Pages: 1 -->
<svg width="1802pt" height="476pt"
 viewBox="0.00 0.00 1802.00 476.00" xmlns="http://www.w3.org/2000/svg" xmlns:xlink="http://www.w3.org/1999/xlink">
<g id="graph0" class="graph" transform="scale(1 1) rotate(0) translate(4 472)">
<title>all.hpp</title>
<!-- Node1 -->
<g id="node1" class="node"><title>Node1</title>
<polygon fill="#bfbfbf" stroke="black" points="438.5,-448.5 438.5,-467.5 483.5,-467.5 483.5,-448.5 438.5,-448.5"/>
<text text-anchor="middle" x="461" y="-455.5" font-family="Helvetica,sans-Serif" font-size="10.00">all.hpp</text>
</g>
<!-- Node2 -->
<g id="node2" class="node"><title>Node2</title>
<g id="a_node2"><a xlink:href="cmd__line_8hpp.html" target="_top" xlink:title="cmd_line.hpp">
<polygon fill="none" stroke="black" points="960,-392.5 960,-411.5 1034,-411.5 1034,-392.5 960,-392.5"/>
<text text-anchor="middle" x="997" y="-399.5" font-family="Helvetica,sans-Serif" font-size="10.00">cmd_line.hpp</text>
</a>
</g>
</g>
<!-- Node1&#45;&gt;Node2 -->
<g id="edge1" class="edge"><title>Node1&#45;&gt;Node2</title>
<path fill="none" stroke="midnightblue" d="M483.689,-454.714C564.376,-446.585 838.516,-418.967 949.637,-407.772"/>
<polygon fill="midnightblue" stroke="midnightblue" points="950.271,-411.226 959.869,-406.741 949.569,-404.261 950.271,-411.226"/>
</g>
<!-- Node4 -->
<g id="node4" class="node"><title>Node4</title>
<g id="a_node4"><a xlink:href="types_8hpp.html" target="_top" xlink:title="types.hpp">
<polygon fill="none" stroke="black" points="736.5,-56.5 736.5,-75.5 795.5,-75.5 795.5,-56.5 736.5,-56.5"/>
<text text-anchor="middle" x="766" y="-63.5" font-family="Helvetica,sans-Serif" font-size="10.00">types.hpp</text>
</a>
</g>
</g>
<!-- Node1&#45;&gt;Node4 -->
<g id="edge92" class="edge"><title>Node1&#45;&gt;Node4</title>
<path fill="none" stroke="midnightblue" d="M438.453,-456.519C345.898,-453.946 0,-438.23 0,-347 0,-347 0,-347 0,-177 0,-101.889 82.9396,-129.432 156,-112 264.929,-86.0104 608.431,-72.3002 726.041,-68.2772"/>
<polygon fill="midnightblue" stroke="midnightblue" points="726.505,-71.7637 736.382,-67.9287 726.27,-64.7677 726.505,-71.7637"/>
</g>
<!-- Node3 -->
<g id="node3" class="node"><title>Node3</title>
<g id="a_node3"><a xlink:href="api_8hpp.html" target="_top" xlink:title="api.hpp">
<polygon fill="none" stroke="black" points="572,-336.5 572,-355.5 620,-355.5 620,-336.5 572,-336.5"/>
<text text-anchor="middle" x="596" y="-343.5" font-family="Helvetica,sans-Serif" font-size="10.00">api.hpp</text>
</a>
</g>
</g>
<!-- Node2&#45;&gt;Node3 -->
<g id="edge2" class="edge"><title>Node2&#45;&gt;Node3</title>
<path fill="none" stroke="midnightblue" d="M959.817,-396.03C897.996,-387.761 770.163,-370.639 662,-356 651.708,-354.607 640.516,-353.084 630.32,-351.693"/>
<polygon fill="midnightblue" stroke="midnightblue" points="630.517,-348.188 620.136,-350.303 629.571,-355.123 630.517,-348.188"/>
</g>
<!-- Node7 -->
<g id="node7" class="node"><title>Node7</title>
<polygon fill="none" stroke="#bfbfbf" points="1696,-0.5 1696,-19.5 1740,-19.5 1740,-0.5 1696,-0.5"/>
<text text-anchor="middle" x="1718" y="-7.5" font-family="Helvetica,sans-Serif" font-size="10.00">vector</text>
</g>
<!-- Node2&#45;&gt;Node7 -->
<g id="edge78" class="edge"><title>Node2&#45;&gt;Node7</title>
<path fill="none" stroke="midnightblue" d="M1034.13,-399.865C1151.91,-396.031 1516.18,-382.298 1631,-356 1707.02,-338.588 1794,-368.992 1794,-291 1794,-291 1794,-291 1794,-121 1794,-81.2757 1760.04,-45.5045 1737.52,-26.1536"/>
<polygon fill="midnightblue" stroke="midnightblue" points="1739.48,-23.2364 1729.54,-19.5672 1735.02,-28.6337 1739.48,-23.2364"/>
</g>
<!-- Node10 -->
<g id="node10" class="node"><title>Node10</title>
<g id="a_node10"><a xlink:href="utils_8hpp.html" target="_top" xlink:title="utils.hpp">
<polygon fill="none" stroke="black" points="1051.5,-112.5 1051.5,-131.5 1104.5,-131.5 1104.5,-112.5 1051.5,-112.5"/>
<text text-anchor="middle" x="1078" y="-119.5" font-family="Helvetica,sans-Serif" font-size="10.00">utils.hpp</text>
</a>
</g>
</g>
<!-- Node2&#45;&gt;Node10 -->
<g id="edge59" class="edge"><title>Node2&#45;&gt;Node10</title>
<path fill="none" stroke="midnightblue" d="M1034.06,-398.236C1165.85,-387.918 1604,-349.235 1604,-291 1604,-291 1604,-291 1604,-233 1604,-132.929 1234.63,-123.33 1114.94,-122.846"/>
<polygon fill="midnightblue" stroke="midnightblue" points="1114.81,-119.346 1104.81,-122.825 1114.8,-126.346 1114.81,-119.346"/>
</g>
<!-- Node12 -->
<g id="node12" class="node"><title>Node12</title>
<polygon fill="none" stroke="#bfbfbf" points="1500,-56.5 1500,-75.5 1556,-75.5 1556,-56.5 1500,-56.5"/>
<text text-anchor="middle" x="1528" y="-63.5" font-family="Helvetica,sans-Serif" font-size="10.00">algorithm</text>
</g>
<!-- Node2&#45;&gt;Node12 -->
<g id="edge79" class="edge"><title>Node2&#45;&gt;Node12</title>
<path fill="none" stroke="midnightblue" d="M1034.12,-399.584C1186.51,-393.286 1756,-364.814 1756,-291 1756,-291 1756,-291 1756,-233 1756,-140.279 1631.24,-93.9 1566.3,-76.0387"/>
<polygon fill="midnightblue" stroke="midnightblue" points="1566.98,-72.5986 1556.42,-73.4142 1565.18,-79.364 1566.98,-72.5986"/>
</g>
<!-- Node15 -->
<g id="node15" class="node"><title>Node15</title>
<g id="a_node15"><a xlink:href="context_8hpp.html" target="_top" xlink:title="context.hpp">
<polygon fill="none" stroke="black" points="654,-168.5 654,-187.5 722,-187.5 722,-168.5 654,-168.5"/>
<text text-anchor="middle" x="688" y="-175.5" font-family="Helvetica,sans-Serif" font-size="10.00">context.hpp</text>
</a>
</g>
</g>
<!-- Node2&#45;&gt;Node15 -->
<g id="edge60" class="edge"><title>Node2&#45;&gt;Node15</title>
<path fill="none" stroke="midnightblue" d="M959.843,-393.107C909.68,-380.808 819.919,-352.807 762,-300 729.374,-270.254 706.15,-222.821 695.162,-197.067"/>
<polygon fill="midnightblue" stroke="midnightblue" points="698.372,-195.671 691.325,-187.76 691.901,-198.339 698.372,-195.671"/>
</g>
<!-- Node17 -->
<g id="node17" class="node"><title>Node17</title>
<g id="a_node17"><a xlink:href="exceptions_8hpp.html" target="_top" xlink:title="exceptions.hpp">
<polygon fill="none" stroke="black" points="186.5,-112.5 186.5,-131.5 269.5,-131.5 269.5,-112.5 186.5,-112.5"/>
<text text-anchor="middle" x="228" y="-119.5" font-family="Helvetica,sans-Serif" font-size="10.00">exceptions.hpp</text>
</a>
</g>
</g>
<!-- Node2&#45;&gt;Node17 -->
<g id="edge61" class="edge"><title>Node2&#45;&gt;Node17</title>
<path fill="none" stroke="midnightblue" d="M959.755,-400.536C787.451,-397.91 76,-381.581 76,-291 76,-291 76,-291 76,-233 76,-179.437 138.712,-149.3 183.573,-134.593"/>
<polygon fill="midnightblue" stroke="midnightblue" points="184.63,-137.93 193.128,-131.602 182.539,-131.25 184.63,-137.93"/>
</g>
<!-- Node23 -->
<g id="node23" class="node"><title>Node23</title>
<polygon fill="none" stroke="#bfbfbf" points="1144,-168.5 1144,-187.5 1196,-187.5 1196,-168.5 1144,-168.5"/>
<text text-anchor="middle" x="1170" y="-175.5" font-family="Helvetica,sans-Serif" font-size="10.00">memory</text>
</g>
<!-- Node2&#45;&gt;Node23 -->
<g id="edge80" class="edge"><title>Node2&#45;&gt;Node23</title>
<path fill="none" stroke="midnightblue" d="M1005.34,-392.408C1021.7,-375.375 1058.9,-335.867 1087,-300 1114.75,-264.574 1143.73,-220.42 1159.02,-196.455"/>
<polygon fill="midnightblue" stroke="midnightblue" points="1162.13,-198.094 1164.53,-187.774 1156.21,-194.346 1162.13,-198.094"/>
</g>
<!-- Node25 -->
<g id="node25" class="node"><title>Node25</title>
<g id="a_node25"><a xlink:href="command_8hpp.html" target="_top" xlink:title="command.hpp">
<polygon fill="none" stroke="black" points="1000,-280.5 1000,-299.5 1078,-299.5 1078,-280.5 1000,-280.5"/>
<text text-anchor="middle" x="1039" y="-287.5" font-family="Helvetica,sans-Serif" font-size="10.00">command.hpp</text>
</a>
</g>
</g>
<!-- Node2&#45;&gt;Node25 -->
<g id="edge62" class="edge"><title>Node2&#45;&gt;Node25</title>
<path fill="none" stroke="midnightblue" d="M1000.3,-392.368C1007.13,-374.456 1022.99,-332.923 1032.15,-308.948"/>
<polygon fill="midnightblue" stroke="midnightblue" points="1035.42,-310.182 1035.72,-299.591 1028.88,-307.685 1035.42,-310.182"/>
</g>
<!-- Node26 -->
<g id="node26" class="node"><title>Node26</title>
<g id="a_node26"><a xlink:href="help_8hpp.html" target="_top" xlink:title="help.hpp">
<polygon fill="none" stroke="black" points="771.5,-280.5 771.5,-299.5 824.5,-299.5 824.5,-280.5 771.5,-280.5"/>
<text text-anchor="middle" x="798" y="-287.5" font-family="Helvetica,sans-Serif" font-size="10.00">help.hpp</text>
</a>
</g>
</g>
<!-- Node2&#45;&gt;Node26 -->
<g id="edge69" class="edge"><title>Node2&#45;&gt;Node26</title>
<path fill="none" stroke="midnightblue" d="M981.385,-392.368C946.873,-373.292 863.891,-327.422 822.433,-304.505"/>
<polygon fill="midnightblue" stroke="midnightblue" points="823.988,-301.366 813.543,-299.591 820.601,-307.492 823.988,-301.366"/>
</g>
<!-- Node28 -->
<g id="node28" class="node"><title>Node28</title>
<g id="a_node28"><a xlink:href="help__printer_8hpp.html" target="_top" xlink:title="help_printer.hpp">
<polygon fill="none" stroke="black" points="1290,-336.5 1290,-355.5 1376,-355.5 1376,-336.5 1290,-336.5"/>
<text text-anchor="middle" x="1333" y="-343.5" font-family="Helvetica,sans-Serif" font-size="10.00">help_printer.hpp</text>
</a>
</g>
</g>
<!-- Node2&#45;&gt;Node28 -->
<g id="edge81" class="edge"><title>Node2&#45;&gt;Node28</title>
<path fill="none" stroke="midnightblue" d="M1034.24,-395.015C1093.89,-385.429 1211.08,-366.595 1279.62,-355.579"/>
<polygon fill="midnightblue" stroke="midnightblue" points="1280.46,-358.989 1289.78,-353.947 1279.35,-352.078 1280.46,-358.989"/>
</g>
<!-- Node3&#45;&gt;Node4 -->
<g id="edge3" class="edge"><title>Node3&#45;&gt;Node4</title>
<path fill="none" stroke="midnightblue" d="M571.844,-343.368C486.842,-337.076 203.764,-311.301 150,-244 145.266,-238.075 141.721,-212.34 152,-168 158.155,-141.448 154.715,-127.694 177,-112 221.708,-80.5133 600.758,-70.2568 726.01,-67.7106"/>
<polygon fill="midnightblue" stroke="midnightblue" points="726.371,-71.2042 736.3,-67.5073 726.233,-64.2056 726.371,-71.2042"/>
</g>
<!-- Node8 -->
<g id="node8" class="node"><title>Node8</title>
<g id="a_node8"><a xlink:href="arg_8hpp.html" target="_top" xlink:title="arg.hpp">
<polygon fill="none" stroke="black" points="598.5,-224.5 598.5,-243.5 647.5,-243.5 647.5,-224.5 598.5,-224.5"/>
<text text-anchor="middle" x="623" y="-231.5" font-family="Helvetica,sans-Serif" font-size="10.00">arg.hpp</text>
</a>
</g>
</g>
<!-- Node3&#45;&gt;Node8 -->
<g id="edge7" class="edge"><title>Node3&#45;&gt;Node8</title>
<path fill="none" stroke="midnightblue" d="M598.67,-336.421C601.432,-327.402 605.783,-312.775 609,-300 612.881,-284.589 616.636,-266.955 619.279,-253.946"/>
<polygon fill="midnightblue" stroke="midnightblue" points="622.764,-254.368 621.29,-243.876 615.899,-252.997 622.764,-254.368"/>
</g>
<!-- Node20 -->
<g id="node20" class="node"><title>Node20</title>
<g id="a_node20"><a xlink:href="multi__arg_8hpp.html" target="_top" xlink:title="multi_arg.hpp">
<polygon fill="none" stroke="black" points="525.5,-280.5 525.5,-299.5 600.5,-299.5 600.5,-280.5 525.5,-280.5"/>
<text text-anchor="middle" x="563" y="-287.5" font-family="Helvetica,sans-Serif" font-size="10.00">multi_arg.hpp</text>
</a>
</g>
</g>
<!-- Node3&#45;&gt;Node20 -->
<g id="edge31" class="edge"><title>Node3&#45;&gt;Node20</title>
<path fill="none" stroke="midnightblue" d="M590.551,-336.083C585.986,-328.613 579.332,-317.724 573.707,-308.52"/>
<polygon fill="midnightblue" stroke="midnightblue" points="576.549,-306.459 568.348,-299.751 570.576,-310.109 576.549,-306.459"/>
</g>
<!-- Node21 -->
<g id="node21" class="node"><title>Node21</title>
<g id="a_node21"><a xlink:href="groups_8hpp.html" target="_top" xlink:title="groups.hpp">
<polygon fill="none" stroke="black" points="1300.5,-280.5 1300.5,-299.5 1365.5,-299.5 1365.5,-280.5 1300.5,-280.5"/>
<text text-anchor="middle" x="1333" y="-287.5" font-family="Helvetica,sans-Serif" font-size="10.00">groups.hpp</text>
</a>
</g>
</g>
<!-- Node3&#45;&gt;Node21 -->
<g id="edge39" class="edge"><title>Node3&#45;&gt;Node21</title>
<path fill="none" stroke="midnightblue" d="M620.102,-343.234C726.244,-335.457 1152.82,-304.202 1290.16,-294.139"/>
<polygon fill="midnightblue" stroke="midnightblue" points="1290.58,-297.618 1300.3,-293.396 1290.07,-290.636 1290.58,-297.618"/>
</g>
<!-- Node24 -->
<g id="node24" class="node"><title>Node24</title>
<g id="a_node24"><a xlink:href="arg__as__command_8hpp.html" target="_top" xlink:title="arg_as_command.hpp">
<polygon fill="none" stroke="black" points="238.5,-224.5 238.5,-243.5 351.5,-243.5 351.5,-224.5 238.5,-224.5"/>
<text text-anchor="middle" x="295" y="-231.5" font-family="Helvetica,sans-Serif" font-size="10.00">arg_as_command.hpp</text>
</a>
</g>
</g>
<!-- Node3&#45;&gt;Node24 -->
<g id="edge52" class="edge"><title>Node3&#45;&gt;Node24</title>
<path fill="none" stroke="midnightblue" d="M572.381,-336.368C519.081,-316.89 389.347,-269.479 328.08,-247.089"/>
<polygon fill="midnightblue" stroke="midnightblue" points="329.103,-243.737 318.509,-243.591 326.7,-250.311 329.103,-243.737"/>
</g>
<!-- Node5 -->
<g id="node5" class="node"><title>Node5</title>
<polygon fill="none" stroke="#bfbfbf" points="712.5,-0.5 712.5,-19.5 753.5,-19.5 753.5,-0.5 712.5,-0.5"/>
<text text-anchor="middle" x="733" y="-7.5" font-family="Helvetica,sans-Serif" font-size="10.00">string</text>
</g>
<!-- Node4&#45;&gt;Node5 -->
<g id="edge4" class="edge"><title>Node4&#45;&gt;Node5</title>
<path fill="none" stroke="midnightblue" d="M760.551,-56.083C755.986,-48.6127 749.332,-37.7244 743.707,-28.5199"/>
<polygon fill="midnightblue" stroke="midnightblue" points="746.549,-26.4588 738.348,-19.7511 740.576,-30.109 746.549,-26.4588"/>
</g>
<!-- Node6 -->
<g id="node6" class="node"><title>Node6</title>
<polygon fill="none" stroke="#bfbfbf" points="772,-0.5 772,-19.5 826,-19.5 826,-0.5 772,-0.5"/>
<text text-anchor="middle" x="799" y="-7.5" font-family="Helvetica,sans-Serif" font-size="10.00">iostream</text>
</g>
<!-- Node4&#45;&gt;Node6 -->
<g id="edge5" class="edge"><title>Node4&#45;&gt;Node6</title>
<path fill="none" stroke="midnightblue" d="M771.449,-56.083C776.014,-48.6127 782.668,-37.7244 788.293,-28.5199"/>
<polygon fill="midnightblue" stroke="midnightblue" points="791.424,-30.109 793.652,-19.7511 785.451,-26.4588 791.424,-30.109"/>
</g>
<!-- Node4&#45;&gt;Node7 -->
<g id="edge6" class="edge"><title>Node4&#45;&gt;Node7</title>
<path fill="none" stroke="midnightblue" d="M795.535,-63.3247C936.378,-55.3357 1539.01,-21.1526 1685.71,-12.8314"/>
<polygon fill="midnightblue" stroke="midnightblue" points="1686.07,-16.3169 1695.85,-12.2561 1685.67,-9.32817 1686.07,-16.3169"/>
</g>
<!-- Node8&#45;&gt;Node4 -->
<g id="edge29" class="edge"><title>Node8&#45;&gt;Node4</title>
<path fill="none" stroke="midnightblue" d="M599.945,-224.432C583.726,-217.199 562.872,-205.239 551,-188 531.642,-159.891 518.351,-138.385 540,-112 563.102,-83.8451 667.657,-72.9765 726.12,-69.047"/>
<polygon fill="midnightblue" stroke="midnightblue" points="726.367,-72.5385 736.125,-68.412 725.923,-65.5526 726.367,-72.5385"/>
</g>
<!-- Node9 -->
<g id="node9" class="node"><title>Node9</title>
<g id="a_node9"><a xlink:href="arg__iface_8hpp.html" target="_top" xlink:title="arg_iface.hpp">
<polygon fill="none" stroke="black" points="560.5,-168.5 560.5,-187.5 635.5,-187.5 635.5,-168.5 560.5,-168.5"/>
<text text-anchor="middle" x="598" y="-175.5" font-family="Helvetica,sans-Serif" font-size="10.00">arg_iface.hpp</text>
</a>
</g>
</g>
<!-- Node8&#45;&gt;Node9 -->
<g id="edge8" class="edge"><title>Node8&#45;&gt;Node9</title>
<path fill="none" stroke="midnightblue" d="M618.872,-224.083C615.486,-216.77 610.584,-206.181 606.381,-197.103"/>
<polygon fill="midnightblue" stroke="midnightblue" points="609.429,-195.355 602.051,-187.751 603.077,-198.296 609.429,-195.355"/>
</g>
<!-- Node8&#45;&gt;Node10 -->
<g id="edge16" class="edge"><title>Node8&#45;&gt;Node10</title>
<path fill="none" stroke="midnightblue" d="M647.805,-232.185C702.592,-229.817 837.581,-220.843 945,-188 950.542,-186.306 1014.31,-154.728 1051.49,-136.22"/>
<polygon fill="midnightblue" stroke="midnightblue" points="1053.37,-139.194 1060.76,-131.603 1050.25,-132.928 1053.37,-139.194"/>
</g>
<!-- Node8&#45;&gt;Node12 -->
<g id="edge30" class="edge"><title>Node8&#45;&gt;Node12</title>
<path fill="none" stroke="midnightblue" d="M647.717,-230.66C705.778,-224.992 855.309,-209.402 979,-188 1172.57,-154.506 1401.14,-98.8801 1490.01,-76.6306"/>
<polygon fill="midnightblue" stroke="midnightblue" points="1491.05,-79.9779 1499.89,-74.1482 1489.34,-73.1886 1491.05,-79.9779"/>
</g>
<!-- Node8&#45;&gt;Node15 -->
<g id="edge17" class="edge"><title>Node8&#45;&gt;Node15</title>
<path fill="none" stroke="midnightblue" d="M633.443,-224.324C643.146,-216.263 657.815,-204.077 669.5,-194.369"/>
<polygon fill="midnightblue" stroke="midnightblue" points="671.911,-196.916 677.367,-187.834 667.438,-191.532 671.911,-196.916"/>
</g>
<!-- Node8&#45;&gt;Node17 -->
<g id="edge21" class="edge"><title>Node8&#45;&gt;Node17</title>
<path fill="none" stroke="midnightblue" d="M598.403,-229.194C557.573,-222.599 473.42,-207.828 404,-188 351.406,-172.978 292.082,-149.695 257.487,-135.453"/>
<polygon fill="midnightblue" stroke="midnightblue" points="258.573,-132.115 247.995,-131.516 255.892,-138.581 258.573,-132.115"/>
</g>
<!-- Node19 -->
<g id="node19" class="node"><title>Node19</title>
<g id="a_node19"><a xlink:href="value__utils_8hpp.html" target="_top" xlink:title="value_utils.hpp">
<polygon fill="none" stroke="black" points="854,-168.5 854,-187.5 936,-187.5 936,-168.5 854,-168.5"/>
<text text-anchor="middle" x="895" y="-175.5" font-family="Helvetica,sans-Serif" font-size="10.00">value_utils.hpp</text>
</a>
</g>
</g>
<!-- Node8&#45;&gt;Node19 -->
<g id="edge24" class="edge"><title>Node8&#45;&gt;Node19</title>
<path fill="none" stroke="midnightblue" d="M647.618,-228.113C691.659,-219.369 784.796,-200.879 843.385,-189.247"/>
<polygon fill="midnightblue" stroke="midnightblue" points="844.42,-192.61 853.547,-187.23 843.057,-185.744 844.42,-192.61"/>
</g>
<!-- Node9&#45;&gt;Node4 -->
<g id="edge14" class="edge"><title>Node9&#45;&gt;Node4</title>
<path fill="none" stroke="midnightblue" d="M604.636,-168.376C615.416,-154.844 637.963,-128.472 662,-112 682.595,-97.8876 708.327,-86.7087 729.043,-79.0228"/>
<polygon fill="midnightblue" stroke="midnightblue" points="730.24,-82.3117 738.468,-75.6362 727.873,-75.7241 730.24,-82.3117"/>
</g>
<!-- Node9&#45;&gt;Node10 -->
<g id="edge9" class="edge"><title>Node9&#45;&gt;Node10</title>
<path fill="none" stroke="midnightblue" d="M635.662,-169.494C638.815,-168.955 641.959,-168.448 645,-168 790.738,-146.514 965.563,-131.659 1040.7,-125.794"/>
<polygon fill="midnightblue" stroke="midnightblue" points="1041.34,-129.254 1051.04,-124.994 1040.8,-122.275 1041.34,-129.254"/>
</g>
<!-- Node14 -->
<g id="node14" class="node"><title>Node14</title>
<g id="a_node14"><a xlink:href="enums_8hpp.html" target="_top" xlink:title="enums.hpp">
<polygon fill="none" stroke="black" points="549.5,-112.5 549.5,-131.5 614.5,-131.5 614.5,-112.5 549.5,-112.5"/>
<text text-anchor="middle" x="582" y="-119.5" font-family="Helvetica,sans-Serif" font-size="10.00">enums.hpp</text>
</a>
</g>
</g>
<!-- Node9&#45;&gt;Node14 -->
<g id="edge15" class="edge"><title>Node9&#45;&gt;Node14</title>
<path fill="none" stroke="midnightblue" d="M595.358,-168.083C593.214,-160.849 590.121,-150.409 587.451,-141.397"/>
<polygon fill="midnightblue" stroke="midnightblue" points="590.79,-140.345 584.593,-131.751 584.078,-142.333 590.79,-140.345"/>
</g>
<!-- Node10&#45;&gt;Node4 -->
<g id="edge11" class="edge"><title>Node10&#45;&gt;Node4</title>
<path fill="none" stroke="midnightblue" d="M1051.4,-116.396C996.539,-106.901 870.573,-85.0992 805.907,-73.9069"/>
<polygon fill="midnightblue" stroke="midnightblue" points="806.15,-70.3971 795.7,-72.1403 804.956,-77.2945 806.15,-70.3971"/>
</g>
<!-- Node11 -->
<g id="node11" class="node"><title>Node11</title>
<polygon fill="none" stroke="#bfbfbf" points="1057.5,-56.5 1057.5,-75.5 1098.5,-75.5 1098.5,-56.5 1057.5,-56.5"/>
<text text-anchor="middle" x="1078" y="-63.5" font-family="Helvetica,sans-Serif" font-size="10.00">regex</text>
</g>
<!-- Node10&#45;&gt;Node11 -->
<g id="edge10" class="edge"><title>Node10&#45;&gt;Node11</title>
<path fill="none" stroke="midnightblue" d="M1078,-112.083C1078,-105.006 1078,-94.8611 1078,-85.9865"/>
<polygon fill="midnightblue" stroke="midnightblue" points="1081.5,-85.751 1078,-75.7511 1074.5,-85.7511 1081.5,-85.751"/>
</g>
<!-- Node10&#45;&gt;Node12 -->
<g id="edge12" class="edge"><title>Node10&#45;&gt;Node12</title>
<path fill="none" stroke="midnightblue" d="M1104.8,-117.784C1181.26,-108.609 1400.62,-82.2853 1489.71,-71.5952"/>
<polygon fill="midnightblue" stroke="midnightblue" points="1490.39,-75.0378 1499.91,-70.3712 1489.56,-68.0877 1490.39,-75.0378"/>
</g>
<!-- Node13 -->
<g id="node13" class="node"><title>Node13</title>
<polygon fill="none" stroke="#bfbfbf" points="1269,-56.5 1269,-75.5 1331,-75.5 1331,-56.5 1269,-56.5"/>
<text text-anchor="middle" x="1300" y="-63.5" font-family="Helvetica,sans-Serif" font-size="10.00">type_traits</text>
</g>
<!-- Node10&#45;&gt;Node13 -->
<g id="edge13" class="edge"><title>Node10&#45;&gt;Node13</title>
<path fill="none" stroke="midnightblue" d="M1104.78,-114.486C1143.16,-105.15 1214.14,-87.8856 1259.11,-76.9457"/>
<polygon fill="midnightblue" stroke="midnightblue" points="1259.96,-80.3427 1268.85,-74.5782 1258.3,-73.541 1259.96,-80.3427"/>
</g>
<!-- Node15&#45;&gt;Node4 -->
<g id="edge20" class="edge"><title>Node15&#45;&gt;Node4</title>
<path fill="none" stroke="midnightblue" d="M694.14,-168.377C700.587,-159.322 711.014,-144.666 720,-132 731.457,-115.849 744.494,-97.4233 753.756,-84.324"/>
<polygon fill="midnightblue" stroke="midnightblue" points="756.842,-86.0219 759.756,-75.8359 751.126,-81.9812 756.842,-86.0219"/>
</g>
<!-- Node15&#45;&gt;Node10 -->
<g id="edge19" class="edge"><title>Node15&#45;&gt;Node10</title>
<path fill="none" stroke="midnightblue" d="M722.268,-172.255C795.408,-162.128 966.24,-138.474 1041.4,-128.067"/>
<polygon fill="midnightblue" stroke="midnightblue" points="1041.93,-131.528 1051.35,-126.689 1040.97,-124.594 1041.93,-131.528"/>
</g>
<!-- Node16 -->
<g id="node16" class="node"><title>Node16</title>
<polygon fill="none" stroke="#bfbfbf" points="671,-112.5 671,-131.5 711,-131.5 711,-112.5 671,-112.5"/>
<text text-anchor="middle" x="691" y="-119.5" font-family="Helvetica,sans-Serif" font-size="10.00">utility</text>
</g>
<!-- Node15&#45;&gt;Node16 -->
<g id="edge18" class="edge"><title>Node15&#45;&gt;Node16</title>
<path fill="none" stroke="midnightblue" d="M688.495,-168.083C688.889,-161.006 689.452,-150.861 689.945,-141.986"/>
<polygon fill="midnightblue" stroke="midnightblue" points="693.454,-141.93 690.514,-131.751 686.464,-141.542 693.454,-141.93"/>
</g>
<!-- Node17&#45;&gt;Node4 -->
<g id="edge23" class="edge"><title>Node17&#45;&gt;Node4</title>
<path fill="none" stroke="midnightblue" d="M269.65,-114.663C276.444,-113.713 283.412,-112.789 290,-112 451.468,-92.6604 644.572,-76.5667 726.326,-70.0772"/>
<polygon fill="midnightblue" stroke="midnightblue" points="726.729,-73.5564 736.422,-69.2798 726.178,-66.5781 726.729,-73.5564"/>
</g>
<!-- Node18 -->
<g id="node18" class="node"><title>Node18</title>
<polygon fill="none" stroke="#bfbfbf" points="198.5,-56.5 198.5,-75.5 257.5,-75.5 257.5,-56.5 198.5,-56.5"/>
<text text-anchor="middle" x="228" y="-63.5" font-family="Helvetica,sans-Serif" font-size="10.00">stdexcept</text>
</g>
<!-- Node17&#45;&gt;Node18 -->
<g id="edge22" class="edge"><title>Node17&#45;&gt;Node18</title>
<path fill="none" stroke="midnightblue" d="M228,-112.083C228,-105.006 228,-94.8611 228,-85.9865"/>
<polygon fill="midnightblue" stroke="midnightblue" points="231.5,-85.751 228,-75.7511 224.5,-85.7511 231.5,-85.751"/>
</g>
<!-- Node19&#45;&gt;Node4 -->
<g id="edge27" class="edge"><title>Node19&#45;&gt;Node4</title>
<path fill="none" stroke="midnightblue" d="M888.996,-168.229C879.62,-154.962 860.448,-129.485 840,-112 825.563,-99.6553 807.355,-88.536 792.613,-80.4388"/>
<polygon fill="midnightblue" stroke="midnightblue" points="793.97,-77.1956 783.5,-75.5717 790.672,-83.3701 793.97,-77.1956"/>
</g>
<!-- Node19&#45;&gt;Node10 -->
<g id="edge25" class="edge"><title>Node19&#45;&gt;Node10</title>
<path fill="none" stroke="midnightblue" d="M923.997,-168.444C955.827,-159.051 1006.99,-143.955 1041.52,-133.765"/>
<polygon fill="midnightblue" stroke="midnightblue" points="1042.62,-137.089 1051.22,-130.902 1040.64,-130.375 1042.62,-137.089"/>
</g>
<!-- Node19&#45;&gt;Node12 -->
<g id="edge28" class="edge"><title>Node19&#45;&gt;Node12</title>
<path fill="none" stroke="midnightblue" d="M909.858,-168.472C935.749,-154.067 991.227,-125.199 1042,-112 1126.57,-90.0161 1390.29,-74.2478 1489.63,-68.9481"/>
<polygon fill="midnightblue" stroke="midnightblue" points="1490.02,-72.4327 1499.82,-68.4107 1489.65,-65.4425 1490.02,-72.4327"/>
</g>
<!-- Node19&#45;&gt;Node17 -->
<g id="edge26" class="edge"><title>Node19&#45;&gt;Node17</title>
<path fill="none" stroke="midnightblue" d="M853.78,-173.663C737.751,-164.269 408.495,-137.613 280.139,-127.221"/>
<polygon fill="midnightblue" stroke="midnightblue" points="280.049,-123.702 269.799,-126.384 279.484,-130.68 280.049,-123.702"/>
</g>
<!-- Node20&#45;&gt;Node4 -->
<g id="edge37" class="edge"><title>Node20&#45;&gt;Node4</title>
<path fill="none" stroke="midnightblue" d="M556.875,-280.445C537.777,-252.649 483.095,-163.697 526,-112 550.953,-81.9333 664.408,-71.8344 725.973,-68.5364"/>
<polygon fill="midnightblue" stroke="midnightblue" points="726.297,-72.0247 736.11,-68.0298 725.948,-65.0334 726.297,-72.0247"/>
</g>
<!-- Node20&#45;&gt;Node8 -->
<g id="edge32" class="edge"><title>Node20&#45;&gt;Node8</title>
<path fill="none" stroke="midnightblue" d="M572.64,-280.324C581.51,-272.341 594.875,-260.313 605.608,-250.653"/>
<polygon fill="midnightblue" stroke="midnightblue" points="608.093,-253.125 613.185,-243.834 603.41,-247.922 608.093,-253.125"/>
</g>
<!-- Node20&#45;&gt;Node10 -->
<g id="edge36" class="edge"><title>Node20&#45;&gt;Node10</title>
<path fill="none" stroke="midnightblue" d="M600.532,-284.28C675.158,-273.959 846.403,-245.564 979,-188 995.055,-181.03 1033.54,-154.583 1057.52,-137.647"/>
<polygon fill="midnightblue" stroke="midnightblue" points="1059.8,-140.325 1065.93,-131.682 1055.75,-134.616 1059.8,-140.325"/>
</g>
<!-- Node20&#45;&gt;Node15 -->
<g id="edge33" class="edge"><title>Node20&#45;&gt;Node15</title>
<path fill="none" stroke="midnightblue" d="M564.348,-280.305C566.881,-266.677 573.556,-240.174 589,-224 603.878,-208.419 625.163,-197.788 644.186,-190.789"/>
<polygon fill="midnightblue" stroke="midnightblue" points="645.565,-194.016 653.882,-187.453 643.287,-187.397 645.565,-194.016"/>
</g>
<!-- Node20&#45;&gt;Node16 -->
<g id="edge38" class="edge"><title>Node20&#45;&gt;Node16</title>
<path fill="none" stroke="midnightblue" d="M558.576,-280.358C548.315,-258.974 525.632,-202.8 551,-168 564.003,-150.162 623.322,-135.889 660.45,-128.505"/>
<polygon fill="midnightblue" stroke="midnightblue" points="661.574,-131.853 670.731,-126.523 660.249,-124.979 661.574,-131.853"/>
</g>
<!-- Node20&#45;&gt;Node17 -->
<g id="edge34" class="edge"><title>Node20&#45;&gt;Node17</title>
<path fill="none" stroke="midnightblue" d="M525.448,-287.421C432.778,-283.139 199.025,-269.858 176,-244 153.537,-218.774 161.958,-198.721 176,-168 181.777,-155.36 193.052,-144.911 203.631,-137.274"/>
<polygon fill="midnightblue" stroke="midnightblue" points="205.849,-140.001 212.217,-131.533 201.958,-134.182 205.849,-140.001"/>
</g>
<!-- Node20&#45;&gt;Node19 -->
<g id="edge35" class="edge"><title>Node20&#45;&gt;Node19</title>
<path fill="none" stroke="midnightblue" d="M588.775,-280.46C647.61,-260.966 791.902,-213.159 859.268,-190.839"/>
<polygon fill="midnightblue" stroke="midnightblue" points="860.621,-194.078 869.012,-187.61 858.419,-187.433 860.621,-194.078"/>
</g>
<!-- Node21&#45;&gt;Node4 -->
<g id="edge50" class="edge"><title>Node21&#45;&gt;Node4</title>
<path fill="none" stroke="midnightblue" d="M1348.83,-280.353C1368.46,-268.437 1397.86,-245.943 1385,-224 1330.52,-131.046 1273.49,-141.987 1170,-112 1040.46,-74.4644 879.194,-67.8926 805.753,-66.9728"/>
<polygon fill="midnightblue" stroke="midnightblue" points="805.602,-63.4713 795.569,-66.8751 805.534,-70.471 805.602,-63.4713"/>
</g>
<!-- Node21&#45;&gt;Node12 -->
<g id="edge51" class="edge"><title>Node21&#45;&gt;Node12</title>
<path fill="none" stroke="midnightblue" d="M1356.72,-280.427C1375.04,-272.929 1400.18,-260.632 1418,-244 1469.06,-196.353 1505.66,-119.926 1520.58,-85.2103"/>
<polygon fill="midnightblue" stroke="midnightblue" points="1523.86,-86.4292 1524.5,-75.8538 1517.41,-83.7214 1523.86,-86.4292"/>
</g>
<!-- Node22 -->
<g id="node22" class="node"><title>Node22</title>
<g id="a_node22"><a xlink:href="group__iface_8hpp.html" target="_top" xlink:title="group_iface.hpp">
<polygon fill="none" stroke="black" points="1290,-224.5 1290,-243.5 1376,-243.5 1376,-224.5 1290,-224.5"/>
<text text-anchor="middle" x="1333" y="-231.5" font-family="Helvetica,sans-Serif" font-size="10.00">group_iface.hpp</text>
</a>
</g>
</g>
<!-- Node21&#45;&gt;Node22 -->
<g id="edge40" class="edge"><title>Node21&#45;&gt;Node22</title>
<path fill="none" stroke="midnightblue" d="M1333,-280.083C1333,-273.006 1333,-262.861 1333,-253.986"/>
<polygon fill="midnightblue" stroke="midnightblue" points="1336.5,-253.751 1333,-243.751 1329.5,-253.751 1336.5,-253.751"/>
</g>
<!-- Node22&#45;&gt;Node4 -->
<g id="edge44" class="edge"><title>Node22&#45;&gt;Node4</title>
<path fill="none" stroke="midnightblue" d="M1324.85,-224.36C1311.68,-210.806 1284.41,-184.403 1257,-168 1108.09,-78.8993 893.278,-67.3241 805.561,-66.5616"/>
<polygon fill="midnightblue" stroke="midnightblue" points="805.522,-63.0615 795.506,-66.5177 805.491,-70.0614 805.522,-63.0615"/>
</g>
<!-- Node22&#45;&gt;Node7 -->
<g id="edge45" class="edge"><title>Node22&#45;&gt;Node7</title>
<path fill="none" stroke="midnightblue" d="M1348.09,-224.297C1407.03,-190.31 1622,-66.3564 1694.18,-24.7351"/>
<polygon fill="midnightblue" stroke="midnightblue" points="1696.1,-27.6699 1703.01,-19.6425 1692.6,-21.6058 1696.1,-27.6699"/>
</g>
<!-- Node22&#45;&gt;Node9 -->
<g id="edge41" class="edge"><title>Node22&#45;&gt;Node9</title>
<path fill="none" stroke="midnightblue" d="M1289.92,-225.152C1286.91,-224.724 1283.91,-224.333 1281,-224 1003.01,-192.182 927.741,-221.984 645.759,-187.903"/>
<polygon fill="midnightblue" stroke="midnightblue" points="645.992,-184.405 635.64,-186.663 645.141,-191.353 645.992,-184.405"/>
</g>
<!-- Node22&#45;&gt;Node10 -->
<g id="edge42" class="edge"><title>Node22&#45;&gt;Node10</title>
<path fill="none" stroke="midnightblue" d="M1320.77,-224.376C1301.15,-210.843 1261.04,-184.47 1224,-168 1188.01,-151.999 1144.65,-139.421 1114.58,-131.677"/>
<polygon fill="midnightblue" stroke="midnightblue" points="1115.08,-128.195 1104.53,-129.142 1113.37,-134.982 1115.08,-128.195"/>
</g>
<!-- Node22&#45;&gt;Node12 -->
<g id="edge47" class="edge"><title>Node22&#45;&gt;Node12</title>
<path fill="none" stroke="midnightblue" d="M1343.21,-224.309C1374.67,-197.528 1470.4,-116.035 1510.27,-82.09"/>
<polygon fill="midnightblue" stroke="midnightblue" points="1512.55,-84.7524 1517.89,-75.6051 1508.01,-79.4222 1512.55,-84.7524"/>
</g>
<!-- Node22&#45;&gt;Node13 -->
<g id="edge46" class="edge"><title>Node22&#45;&gt;Node13</title>
<path fill="none" stroke="midnightblue" d="M1337.88,-224.372C1342.56,-215.552 1349.31,-201.299 1352,-188 1358.7,-154.894 1366.04,-142.721 1352,-112 1346.22,-99.3602 1334.95,-88.911 1324.37,-81.2737"/>
<polygon fill="midnightblue" stroke="midnightblue" points="1326.04,-78.1817 1315.78,-75.5333 1322.15,-84.0009 1326.04,-78.1817"/>
</g>
<!-- Node22&#45;&gt;Node16 -->
<g id="edge48" class="edge"><title>Node22&#45;&gt;Node16</title>
<path fill="none" stroke="midnightblue" d="M1313.42,-224.436C1294.01,-215.778 1263.55,-201.749 1238,-188 1222.9,-179.874 1221.3,-173.331 1205,-168 1114.1,-138.272 817.262,-126.829 721.253,-123.85"/>
<polygon fill="midnightblue" stroke="midnightblue" points="721.171,-120.346 711.07,-123.543 720.96,-127.343 721.171,-120.346"/>
</g>
<!-- Node22&#45;&gt;Node17 -->
<g id="edge43" class="edge"><title>Node22&#45;&gt;Node17</title>
<path fill="none" stroke="midnightblue" d="M1289.93,-225.128C1286.91,-224.706 1283.91,-224.323 1281,-224 958.136,-188.234 873.347,-228.154 551,-188 449.915,-175.408 333.161,-148.88 271.456,-133.899"/>
<polygon fill="midnightblue" stroke="midnightblue" points="272.22,-130.482 261.675,-131.508 270.558,-137.282 272.22,-130.482"/>
</g>
<!-- Node22&#45;&gt;Node23 -->
<g id="edge49" class="edge"><title>Node22&#45;&gt;Node23</title>
<path fill="none" stroke="midnightblue" d="M1307.17,-224.444C1279.75,-215.359 1236.22,-200.939 1205.57,-190.783"/>
<polygon fill="midnightblue" stroke="midnightblue" points="1206.3,-187.339 1195.71,-187.516 1204.1,-193.984 1206.3,-187.339"/>
</g>
<!-- Node24&#45;&gt;Node2 -->
<g id="edge56" class="edge"><title>Node24&#45;&gt;Node2</title>
<path fill="none" stroke="midnightblue" d="M309.454,-243.657C331.678,-256.775 375.787,-282.06 415,-300 478.954,-329.259 494.564,-339.794 563,-356 700.916,-388.659 869.06,-397.617 949.58,-400.073"/>
<polygon fill="midnightblue" stroke="midnightblue" points="949.789,-403.58 959.885,-400.366 949.988,-396.583 949.789,-403.58"/>
</g>
<!-- Node24&#45;&gt;Node4 -->
<g id="edge58" class="edge"><title>Node24&#45;&gt;Node4</title>
<path fill="none" stroke="midnightblue" d="M297.161,-224.417C303.393,-201.627 323.72,-139.465 366,-112 424.778,-73.818 637.039,-67.8434 726.162,-67.0457"/>
<polygon fill="midnightblue" stroke="midnightblue" points="726.427,-70.544 736.402,-66.9723 726.377,-63.5442 726.427,-70.544"/>
</g>
<!-- Node24&#45;&gt;Node9 -->
<g id="edge53" class="edge"><title>Node24&#45;&gt;Node9</title>
<path fill="none" stroke="midnightblue" d="M343.011,-224.444C399.722,-214.337 493.491,-197.625 550.137,-187.53"/>
<polygon fill="midnightblue" stroke="midnightblue" points="551.034,-190.925 560.265,-185.725 549.806,-184.034 551.034,-190.925"/>
</g>
<!-- Node24&#45;&gt;Node10 -->
<g id="edge54" class="edge"><title>Node24&#45;&gt;Node10</title>
<path fill="none" stroke="midnightblue" d="M322.339,-224.484C368.821,-210.363 466.443,-182.246 551,-168 733.541,-137.245 955.387,-127.022 1041.44,-124.066"/>
<polygon fill="midnightblue" stroke="midnightblue" points="1041.61,-127.563 1051.49,-123.733 1041.38,-120.567 1041.61,-127.563"/>
</g>
<!-- Node24&#45;&gt;Node14 -->
<g id="edge57" class="edge"><title>Node24&#45;&gt;Node14</title>
<path fill="none" stroke="midnightblue" d="M317.52,-224.368C368.237,-204.93 491.531,-157.674 550.096,-135.228"/>
<polygon fill="midnightblue" stroke="midnightblue" points="551.499,-138.439 559.584,-131.591 548.994,-131.902 551.499,-138.439"/>
</g>
<!-- Node24&#45;&gt;Node17 -->
<g id="edge55" class="edge"><title>Node24&#45;&gt;Node17</title>
<path fill="none" stroke="midnightblue" d="M284.529,-224.31C274.943,-215.881 260.928,-202.298 252,-188 243.04,-173.651 236.682,-155.453 232.771,-141.964"/>
<polygon fill="midnightblue" stroke="midnightblue" points="236.046,-140.669 230.057,-131.929 229.289,-142.496 236.046,-140.669"/>
</g>
<!-- Node25&#45;&gt;Node4 -->
<g id="edge68" class="edge"><title>Node25&#45;&gt;Node4</title>
<path fill="none" stroke="midnightblue" d="M1023.58,-280.368C1000.85,-267.707 956.934,-243.489 919,-224 886.468,-207.286 872.434,-212.188 845,-188 827.248,-172.349 792.752,-114.044 775.835,-84.4583"/>
<polygon fill="midnightblue" stroke="midnightblue" points="778.803,-82.5966 770.822,-75.629 772.716,-86.0531 778.803,-82.5966"/>
</g>
<!-- Node25&#45;&gt;Node10 -->
<g id="edge64" class="edge"><title>Node25&#45;&gt;Node10</title>
<path fill="none" stroke="midnightblue" d="M1045.39,-280.402C1057.38,-263.67 1082.85,-225.108 1092,-188 1095.88,-172.258 1091.29,-154.224 1086.35,-141.151"/>
<polygon fill="midnightblue" stroke="midnightblue" points="1089.56,-139.748 1082.48,-131.869 1083.1,-142.446 1089.56,-139.748"/>
</g>
<!-- Node25&#45;&gt;Node14 -->
<g id="edge67" class="edge"><title>Node25&#45;&gt;Node14</title>
<path fill="none" stroke="midnightblue" d="M1019.03,-280.494C970.303,-259.882 841.207,-206.153 731,-168 694.637,-155.412 652.625,-142.904 622.499,-134.282"/>
<polygon fill="midnightblue" stroke="midnightblue" points="623.34,-130.883 612.764,-131.513 621.424,-137.616 623.34,-130.883"/>
</g>
<!-- Node25&#45;&gt;Node15 -->
<g id="edge65" class="edge"><title>Node25&#45;&gt;Node15</title>
<path fill="none" stroke="midnightblue" d="M1010.11,-280.443C980.057,-271.502 931.662,-256.993 890,-244 831.64,-225.799 764.066,-203.884 723.743,-190.716"/>
<polygon fill="midnightblue" stroke="midnightblue" points="724.693,-187.345 714.101,-187.565 722.519,-193.998 724.693,-187.345"/>
</g>
<!-- Node25&#45;&gt;Node19 -->
<g id="edge66" class="edge"><title>Node25&#45;&gt;Node19</title>
<path fill="none" stroke="midnightblue" d="M1040.77,-280.32C1043.01,-266.711 1045.14,-240.234 1032,-224 1011.36,-198.497 975.952,-187.312 946.303,-182.469"/>
<polygon fill="midnightblue" stroke="midnightblue" points="946.484,-178.96 936.089,-181.008 945.493,-185.889 946.484,-178.96"/>
</g>
<!-- Node25&#45;&gt;Node22 -->
<g id="edge63" class="edge"><title>Node25&#45;&gt;Node22</title>
<path fill="none" stroke="midnightblue" d="M1078.04,-281.829C1129.91,-272.302 1221.74,-255.435 1279.88,-244.756"/>
<polygon fill="midnightblue" stroke="midnightblue" points="1280.77,-248.152 1289.97,-242.903 1279.51,-241.267 1280.77,-248.152"/>
</g>
<!-- Node26&#45;&gt;Node4 -->
<g id="edge76" class="edge"><title>Node26&#45;&gt;Node4</title>
<path fill="none" stroke="midnightblue" d="M796.746,-280.297C792.037,-247.633 775.35,-131.866 768.733,-85.9573"/>
<polygon fill="midnightblue" stroke="midnightblue" points="772.172,-85.2821 767.281,-75.8837 765.243,-86.2808 772.172,-85.2821"/>
</g>
<!-- Node26&#45;&gt;Node8 -->
<g id="edge70" class="edge"><title>Node26&#45;&gt;Node8</title>
<path fill="none" stroke="midnightblue" d="M771.421,-280.799C740.92,-271.387 690.811,-255.924 657.367,-245.605"/>
<polygon fill="midnightblue" stroke="midnightblue" points="658.151,-242.184 647.563,-242.58 656.087,-248.873 658.151,-242.184"/>
</g>
<!-- Node26&#45;&gt;Node10 -->
<g id="edge74" class="edge"><title>Node26&#45;&gt;Node10</title>
<path fill="none" stroke="midnightblue" d="M819.144,-280.397C866.964,-260.751 981.917,-212.406 1016,-188 1035.32,-174.165 1053.61,-153.771 1065.24,-139.528"/>
<polygon fill="midnightblue" stroke="midnightblue" points="1068.09,-141.572 1071.58,-131.568 1062.62,-137.212 1068.09,-141.572"/>
</g>
<!-- Node26&#45;&gt;Node15 -->
<g id="edge73" class="edge"><title>Node26&#45;&gt;Node15</title>
<path fill="none" stroke="midnightblue" d="M789.368,-280.368C770.894,-261.894 727.293,-218.293 703.744,-194.744"/>
<polygon fill="midnightblue" stroke="midnightblue" points="706.137,-192.188 696.591,-187.591 701.188,-197.137 706.137,-192.188"/>
</g>
<!-- Node26&#45;&gt;Node17 -->
<g id="edge75" class="edge"><title>Node26&#45;&gt;Node17</title>
<path fill="none" stroke="midnightblue" d="M771.428,-287.385C660.334,-280.572 238.383,-254.071 229,-244 203.198,-216.307 213.22,-167.658 221.42,-141.269"/>
<polygon fill="midnightblue" stroke="midnightblue" points="224.754,-142.336 224.608,-131.742 218.116,-140.115 224.754,-142.336"/>
</g>
<!-- Node26&#45;&gt;Node23 -->
<g id="edge77" class="edge"><title>Node26&#45;&gt;Node23</title>
<path fill="none" stroke="midnightblue" d="M824.599,-281.577C856.033,-272.769 909.896,-257.566 956,-244 1018.76,-225.532 1091.61,-203.217 1134.08,-190.119"/>
<polygon fill="midnightblue" stroke="midnightblue" points="1135.17,-193.447 1143.69,-187.153 1133.1,-186.758 1135.17,-193.447"/>
</g>
<!-- Node27 -->
<g id="node27" class="node"><title>Node27</title>
<g id="a_node27"><a xlink:href="help__printer__iface_8hpp.html" target="_top" xlink:title="help_printer_iface.hpp">
<polygon fill="none" stroke="black" points="1160,-224.5 1160,-243.5 1272,-243.5 1272,-224.5 1160,-224.5"/>
<text text-anchor="middle" x="1216" y="-231.5" font-family="Helvetica,sans-Serif" font-size="10.00">help_printer_iface.hpp</text>
</a>
</g>
</g>
<!-- Node26&#45;&gt;Node27 -->
<g id="edge71" class="edge"><title>Node26&#45;&gt;Node27</title>
<path fill="none" stroke="midnightblue" d="M824.784,-285.54C889.545,-277.174 1056.16,-255.649 1149.72,-243.563"/>
<polygon fill="midnightblue" stroke="midnightblue" points="1150.18,-247.032 1159.65,-242.28 1149.28,-240.09 1150.18,-247.032"/>
</g>
<!-- Node27&#45;&gt;Node10 -->
<g id="edge72" class="edge"><title>Node27&#45;&gt;Node10</title>
<path fill="none" stroke="midnightblue" d="M1217.09,-224.293C1218.3,-210.647 1218.55,-184.121 1205,-168 1182.68,-141.446 1143.61,-130.556 1114.68,-126.093"/>
<polygon fill="midnightblue" stroke="midnightblue" points="1114.9,-122.592 1104.53,-124.722 1113.97,-129.529 1114.9,-122.592"/>
</g>
<!-- Node28&#45;&gt;Node4 -->
<g id="edge90" class="edge"><title>Node28&#45;&gt;Node4</title>
<path fill="none" stroke="midnightblue" d="M1342.32,-336.349C1351.23,-327.736 1364.65,-313.838 1374,-300 1389.47,-277.104 1394.85,-270.937 1401,-244 1409.37,-207.376 1393.09,-191.767 1364,-168 1312.42,-125.864 1289.69,-127.855 1225,-112 1073.36,-74.8331 886.421,-68.1779 805.939,-67.1165"/>
<polygon fill="midnightblue" stroke="midnightblue" points="805.793,-63.6148 795.755,-67.0052 805.716,-70.6144 805.793,-63.6148"/>
</g>
<!-- Node28&#45;&gt;Node7 -->
<g id="edge82" class="edge"><title>Node28&#45;&gt;Node7</title>
<path fill="none" stroke="midnightblue" d="M1376.31,-344.289C1418.93,-341.612 1484.11,-332.024 1530,-300 1632.66,-228.353 1693.06,-80.8712 1711.73,-29.2936"/>
<polygon fill="midnightblue" stroke="midnightblue" points="1715.14,-30.1517 1715.17,-19.5569 1708.54,-27.8225 1715.14,-30.1517"/>
</g>
<!-- Node28&#45;&gt;Node10 -->
<g id="edge85" class="edge"><title>Node28&#45;&gt;Node10</title>
<path fill="none" stroke="midnightblue" d="M1376.3,-343.042C1431.53,-338.707 1516.86,-324.775 1490,-280 1410.5,-147.501 1200.2,-126.342 1114.81,-123.318"/>
<polygon fill="midnightblue" stroke="midnightblue" points="1114.66,-119.812 1104.56,-123.022 1114.46,-126.809 1114.66,-119.812"/>
</g>
<!-- Node28&#45;&gt;Node12 -->
<g id="edge83" class="edge"><title>Node28&#45;&gt;Node12</title>
<path fill="none" stroke="midnightblue" d="M1376.01,-344.068C1414.44,-341.075 1470.19,-331.13 1507,-300 1570.18,-246.566 1546.1,-130.61 1533.63,-85.4886"/>
<polygon fill="midnightblue" stroke="midnightblue" points="1536.92,-84.2548 1530.77,-75.6246 1530.2,-86.2036 1536.92,-84.2548"/>
</g>
<!-- Node28&#45;&gt;Node17 -->
<g id="edge86" class="edge"><title>Node28&#45;&gt;Node17</title>
<path fill="none" stroke="midnightblue" d="M1289.9,-344.765C1087.25,-343.21 235.758,-331.476 161,-244 152.707,-234.296 145.221,-201.91 164,-168 171.572,-154.327 185.268,-143.854 198.052,-136.466"/>
<polygon fill="midnightblue" stroke="midnightblue" points="199.93,-139.431 207.1,-131.631 196.63,-133.258 199.93,-139.431"/>
</g>
<!-- Node28&#45;&gt;Node21 -->
<g id="edge88" class="edge"><title>Node28&#45;&gt;Node21</title>
<path fill="none" stroke="midnightblue" d="M1333,-336.083C1333,-329.006 1333,-318.861 1333,-309.986"/>
<polygon fill="midnightblue" stroke="midnightblue" points="1336.5,-309.751 1333,-299.751 1329.5,-309.751 1336.5,-309.751"/>
</g>
<!-- Node28&#45;&gt;Node22 -->
<g id="edge87" class="edge"><title>Node28&#45;&gt;Node22</title>
<path fill="none" stroke="midnightblue" d="M1320.79,-336.236C1310.65,-328.143 1296.96,-315.112 1291,-300 1283.75,-281.61 1298.71,-262.889 1312.74,-250.291"/>
<polygon fill="midnightblue" stroke="midnightblue" points="1315.28,-252.726 1320.72,-243.631 1310.8,-247.352 1315.28,-252.726"/>
</g>
<!-- Node28&#45;&gt;Node25 -->
<g id="edge89" class="edge"><title>Node28&#45;&gt;Node25</title>
<path fill="none" stroke="midnightblue" d="M1289.94,-337.09C1236.33,-327.245 1144.98,-310.465 1088.53,-300.097"/>
<polygon fill="midnightblue" stroke="midnightblue" points="1088.88,-296.603 1078.41,-298.239 1087.62,-303.488 1088.88,-296.603"/>
</g>
<!-- Node28&#45;&gt;Node27 -->
<g id="edge91" class="edge"><title>Node28&#45;&gt;Node27</title>
<path fill="none" stroke="midnightblue" d="M1323.82,-336.368C1304.17,-317.894 1257.79,-274.293 1232.75,-250.744"/>
<polygon fill="midnightblue" stroke="midnightblue" points="1234.82,-247.891 1225.14,-243.591 1230.03,-252.991 1234.82,-247.891"/>
</g>
<!-- Node29 -->
<g id="node29" class="node"><title>Node29</title>
<polygon fill="none" stroke="#bfbfbf" points="1422.5,-280.5 1422.5,-299.5 1481.5,-299.5 1481.5,-280.5 1422.5,-280.5"/>
<text text-anchor="middle" x="1452" y="-287.5" font-family="Helvetica,sans-Serif" font-size="10.00">functional</text>
</g>
<!-- Node28&#45;&gt;Node29 -->
<g id="edge84" class="edge"><title>Node28&#45;&gt;Node29</title>
<path fill="none" stroke="midnightblue" d="M1351.86,-336.444C1371.27,-327.636 1401.73,-313.812 1423.96,-303.722"/>
<polygon fill="midnightblue" stroke="midnightblue" points="1425.57,-306.836 1433.23,-299.516 1422.68,-300.462 1425.57,-306.836"/>
</g>
</g>
</svg>
