<?xml version="1.0" encoding="UTF-8" standalone="no"?>
<!DOCTYPE svg PUBLIC "-//W3C//DTD SVG 1.1//EN"
 "http://www.w3.org/Graphics/SVG/1.1/DTD/svg11.dtd">
<!-- Generated by graphviz version 2.43.0 (0)
 -->
<!-- Title: all.hpp Pages: 1 -->
<!--zoomable 476 -->
<svg id="main" version="1.1" xmlns="http://www.w3.org/2000/svg" xmlns:xlink="http://www.w3.org/1999/xlink" xml:space="preserve" onload="init(evt)">
<style type="text/css"><![CDATA[
.edge:hover path { stroke: red; }
.edge:hover polygon { stroke: red; fill: red; }
]]></style>
<script type="text/javascript"><![CDATA[
var edges = document.getElementsByTagName('g');
if (edges && edges.length) {
  for (var i=0;i<edges.length;i++) {
    if (edges[i].id.substr(0,4)=='edge') {
      edges[i].setAttribute('class','edge');
    }
  }
}
]]></script>
        <defs>
                <circle id="rim" cx="0" cy="0" r="7"/>
                <circle id="rim2" cx="0" cy="0" r="3.5"/>
                <g id="zoomPlus">
                        <use xlink:href="#rim" fill="#404040">
                                <set attributeName="fill" to="#808080" begin="zoomplus.mouseover" end="zoomplus.mouseout"/>
                        </use>
                        <path d="M-4,0h8M0,-4v8" fill="none" stroke="white" stroke-width="1.5" pointer-events="none"/>
                </g>
                <g id="zoomMin">
                        <use xlink:href="#rim" fill="#404040">
                                <set attributeName="fill" to="#808080" begin="zoomminus.mouseover" end="zoomminus.mouseout"/>
                        </use>
                        <path d="M-4,0h8" fill="none" stroke="white" stroke-width="1.5" pointer-events="none"/>
                </g>
                <g id="dirArrow">
                        <path fill="none" stroke="white" stroke-width="1.5" d="M0,-3.0v7 M-2.5,-0.5L0,-3.0L2.5,-0.5"/>
                </g>
               <g id="resetDef">
                       <use xlink:href="#rim2" fill="#404040">
                               <set attributeName="fill" to="#808080" begin="reset.mouseover" end="reset.mouseout"/>
                       </use>
               </g>
        </defs>

<script type="text/javascript">
var viewWidth = 1691;
var viewHeight = 476;
var sectionId = 'dynsection-0';
</script>
<script xlink:href="svgpan.js"/>
<svg id="graph" class="graph">
<g id="viewport">
<title>all.hpp</title>
<!-- Node1 -->
<g id="node1" class="node">
<title>Node1</title>
<g id="a_node1"><a xlink:title=" ">
<polygon fill="#bfbfbf" stroke="black" points="357,-448.5 357,-467.5 407,-467.5 407,-448.5 357,-448.5"/>
<text text-anchor="middle" x="382" y="-455.5" font-family="Helvetica,sans-Serif" font-size="10.00">all.hpp</text>
</a>
</g>
</g>
<!-- Node2 -->
<g id="node2" class="node">
<title>Node2</title>
<g id="a_node2"><a xlink:href="cmd__line_8hpp.html" target="_top" xlink:title=" ">
<polygon fill="none" stroke="black" points="1080,-392.5 1080,-411.5 1162,-411.5 1162,-392.5 1080,-392.5"/>
<text text-anchor="middle" x="1121" y="-399.5" font-family="Helvetica,sans-Serif" font-size="10.00">cmd_line.hpp</text>
</a>
</g>
</g>
<!-- Node1&#45;&gt;Node2 -->
<g id="edge1" class="edge">
<title>Node1&#45;&gt;Node2</title>
<path fill="none" stroke="midnightblue" d="M407.01,-455.17C512.76,-447.44 924.41,-417.37 1069.8,-406.74"/>
<polygon fill="midnightblue" stroke="midnightblue" points="1070.08,-410.23 1079.8,-406.01 1069.57,-403.25 1070.08,-410.23"/>
</g>
<!-- Node4 -->
<g id="node4" class="node">
<title>Node4</title>
<g id="a_node4"><a xlink:href="types_8hpp.html" target="_top" xlink:title=" ">
<polygon fill="none" stroke="black" points="488.5,-56.5 488.5,-75.5 553.5,-75.5 553.5,-56.5 488.5,-56.5"/>
<text text-anchor="middle" x="521" y="-63.5" font-family="Helvetica,sans-Serif" font-size="10.00">types.hpp</text>
</a>
</g>
</g>
<!-- Node1&#45;&gt;Node4 -->
<g id="edge88" class="edge">
<title>Node1&#45;&gt;Node4</title>
<path fill="none" stroke="midnightblue" d="M356.94,-455.24C271.95,-448.6 0,-421.54 0,-347 0,-347 0,-347 0,-177 0,-79.54 353.45,-68 478.11,-66.96"/>
<polygon fill="midnightblue" stroke="midnightblue" points="478.43,-70.46 488.41,-66.9 478.39,-63.46 478.43,-70.46"/>
</g>
<!-- Node3 -->
<g id="node3" class="node">
<title>Node3</title>
<g id="a_node3"><a xlink:href="api_8hpp.html" target="_top" xlink:title=" ">
<polygon fill="none" stroke="black" points="643.5,-336.5 643.5,-355.5 696.5,-355.5 696.5,-336.5 643.5,-336.5"/>
<text text-anchor="middle" x="670" y="-343.5" font-family="Helvetica,sans-Serif" font-size="10.00">api.hpp</text>
</a>
</g>
</g>
<!-- Node2&#45;&gt;Node3 -->
<g id="edge2" class="edge">
<title>Node2&#45;&gt;Node3</title>
<path fill="none" stroke="midnightblue" d="M1079.8,-398.41C1006.68,-393.41 849.34,-380.82 706.88,-355.91"/>
<polygon fill="midnightblue" stroke="midnightblue" points="707.11,-352.39 696.65,-354.09 705.88,-359.29 707.11,-352.39"/>
</g>
<!-- Node7 -->
<g id="node7" class="node">
<title>Node7</title>
<g id="a_node7"><a xlink:title=" ">
<polygon fill="none" stroke="#bfbfbf" points="1469.5,-0.5 1469.5,-19.5 1516.5,-19.5 1516.5,-0.5 1469.5,-0.5"/>
<text text-anchor="middle" x="1493" y="-7.5" font-family="Helvetica,sans-Serif" font-size="10.00">vector</text>
</a>
</g>
</g>
<!-- Node2&#45;&gt;Node7 -->
<g id="edge73" class="edge">
<title>Node2&#45;&gt;Node7</title>
<path fill="none" stroke="midnightblue" d="M1162.33,-401.69C1292.11,-402.75 1683,-397.13 1683,-291 1683,-291 1683,-291 1683,-121 1683,-49.56 1581.16,-23.77 1526.6,-15.07"/>
<polygon fill="midnightblue" stroke="midnightblue" points="1527.09,-11.61 1516.68,-13.6 1526.06,-18.53 1527.09,-11.61"/>
</g>
<!-- Node10 -->
<g id="node10" class="node">
<title>Node10</title>
<g id="a_node10"><a xlink:href="utils_8hpp.html" target="_top" xlink:title=" ">
<polygon fill="none" stroke="black" points="959.5,-112.5 959.5,-131.5 1018.5,-131.5 1018.5,-112.5 959.5,-112.5"/>
<text text-anchor="middle" x="989" y="-119.5" font-family="Helvetica,sans-Serif" font-size="10.00">utils.hpp</text>
</a>
</g>
</g>
<!-- Node2&#45;&gt;Node10 -->
<g id="edge59" class="edge">
<title>Node2&#45;&gt;Node10</title>
<path fill="none" stroke="midnightblue" d="M1162.16,-399.46C1217.93,-396.25 1319.84,-386.36 1401,-356 1450.04,-337.66 1499.73,-331.62 1491,-280 1482.21,-228.03 1493.44,-200.58 1452,-168 1419.05,-142.09 1135.01,-128.61 1028.83,-124.44"/>
<polygon fill="midnightblue" stroke="midnightblue" points="1028.66,-120.93 1018.53,-124.04 1028.39,-127.92 1028.66,-120.93"/>
</g>
<!-- Node11 -->
<g id="node11" class="node">
<title>Node11</title>
<g id="a_node11"><a xlink:title=" ">
<polygon fill="none" stroke="#bfbfbf" points="1233,-56.5 1233,-75.5 1297,-75.5 1297,-56.5 1233,-56.5"/>
<text text-anchor="middle" x="1265" y="-63.5" font-family="Helvetica,sans-Serif" font-size="10.00">algorithm</text>
</a>
</g>
</g>
<!-- Node2&#45;&gt;Node11 -->
<g id="edge74" class="edge">
<title>Node2&#45;&gt;Node11</title>
<path fill="none" stroke="midnightblue" d="M1162.25,-398.2C1237.32,-392.61 1393.03,-378.64 1442,-356 1476.01,-340.28 1486.7,-332.69 1505,-300 1533.99,-248.23 1547.21,-223.02 1525,-168 1512.06,-135.94 1501.19,-128.86 1471,-112 1419.33,-83.14 1350.76,-72.79 1307.25,-69.07"/>
<polygon fill="midnightblue" stroke="midnightblue" points="1307.26,-65.56 1297.02,-68.28 1306.72,-72.54 1307.26,-65.56"/>
</g>
<!-- Node14 -->
<g id="node14" class="node">
<title>Node14</title>
<g id="a_node14"><a xlink:href="context_8hpp.html" target="_top" xlink:title=" ">
<polygon fill="none" stroke="black" points="305,-168.5 305,-187.5 379,-187.5 379,-168.5 305,-168.5"/>
<text text-anchor="middle" x="342" y="-175.5" font-family="Helvetica,sans-Serif" font-size="10.00">context.hpp</text>
</a>
</g>
</g>
<!-- Node2&#45;&gt;Node14 -->
<g id="edge60" class="edge">
<title>Node2&#45;&gt;Node14</title>
<path fill="none" stroke="midnightblue" d="M1079.84,-399.38C915.59,-392.48 313.33,-363.02 259,-300 228.16,-264.22 285.54,-216.79 319.52,-193.36"/>
<polygon fill="midnightblue" stroke="midnightblue" points="321.64,-196.16 327.99,-187.68 317.74,-190.34 321.64,-196.16"/>
</g>
<!-- Node16 -->
<g id="node16" class="node">
<title>Node16</title>
<g id="a_node16"><a xlink:href="exceptions_8hpp.html" target="_top" xlink:title=" ">
<polygon fill="none" stroke="black" points="119.5,-112.5 119.5,-131.5 210.5,-131.5 210.5,-112.5 119.5,-112.5"/>
<text text-anchor="middle" x="165" y="-119.5" font-family="Helvetica,sans-Serif" font-size="10.00">exceptions.hpp</text>
</a>
</g>
</g>
<!-- Node2&#45;&gt;Node16 -->
<g id="edge61" class="edge">
<title>Node2&#45;&gt;Node16</title>
<path fill="none" stroke="midnightblue" d="M1079.71,-401.07C885.93,-400.85 76,-393.79 76,-291 76,-291 76,-291 76,-233 76,-190.85 115.99,-155.78 142.36,-137.24"/>
<polygon fill="midnightblue" stroke="midnightblue" points="144.38,-140.1 150.7,-131.6 140.46,-134.3 144.38,-140.1"/>
</g>
<!-- Node22 -->
<g id="node22" class="node">
<title>Node22</title>
<g id="a_node22"><a xlink:title=" ">
<polygon fill="none" stroke="#bfbfbf" points="1369,-168.5 1369,-187.5 1427,-187.5 1427,-168.5 1369,-168.5"/>
<text text-anchor="middle" x="1398" y="-175.5" font-family="Helvetica,sans-Serif" font-size="10.00">memory</text>
</a>
</g>
</g>
<!-- Node2&#45;&gt;Node22 -->
<g id="edge75" class="edge">
<title>Node2&#45;&gt;Node22</title>
<path fill="none" stroke="midnightblue" d="M1162.27,-395.42C1247.09,-383.02 1436.21,-350.24 1474,-300 1501.53,-263.4 1449.81,-216.65 1418.84,-193.43"/>
<polygon fill="midnightblue" stroke="midnightblue" points="1420.88,-190.59 1410.74,-187.53 1416.77,-196.25 1420.88,-190.59"/>
</g>
<!-- Node23 -->
<g id="node23" class="node">
<title>Node23</title>
<g id="a_node23"><a xlink:href="command_8hpp.html" target="_top" xlink:title=" ">
<polygon fill="none" stroke="black" points="664,-280.5 664,-299.5 750,-299.5 750,-280.5 664,-280.5"/>
<text text-anchor="middle" x="707" y="-287.5" font-family="Helvetica,sans-Serif" font-size="10.00">command.hpp</text>
</a>
</g>
</g>
<!-- Node2&#45;&gt;Node23 -->
<g id="edge62" class="edge">
<title>Node2&#45;&gt;Node23</title>
<path fill="none" stroke="midnightblue" d="M1088.86,-392.46C1014.72,-372.76 831.78,-324.15 748.95,-302.15"/>
<polygon fill="midnightblue" stroke="midnightblue" points="749.68,-298.72 739.12,-299.53 747.89,-305.49 749.68,-298.72"/>
</g>
<!-- Node24 -->
<g id="node24" class="node">
<title>Node24</title>
<g id="a_node24"><a xlink:href="help_8hpp.html" target="_top" xlink:title=" ">
<polygon fill="none" stroke="black" points="714.5,-336.5 714.5,-355.5 773.5,-355.5 773.5,-336.5 714.5,-336.5"/>
<text text-anchor="middle" x="744" y="-343.5" font-family="Helvetica,sans-Serif" font-size="10.00">help.hpp</text>
</a>
</g>
</g>
<!-- Node2&#45;&gt;Node24 -->
<g id="edge63" class="edge">
<title>Node2&#45;&gt;Node24</title>
<path fill="none" stroke="midnightblue" d="M1079.94,-395.12C1007,-384.67 855.75,-363.01 783.76,-352.7"/>
<polygon fill="midnightblue" stroke="midnightblue" points="784.13,-349.21 773.73,-351.26 783.13,-356.14 784.13,-349.21"/>
</g>
<!-- Node26 -->
<g id="node26" class="node">
<title>Node26</title>
<g id="a_node26"><a xlink:href="help__printer_8hpp.html" target="_top" xlink:title=" ">
<polygon fill="none" stroke="black" points="1175.5,-336.5 1175.5,-355.5 1270.5,-355.5 1270.5,-336.5 1175.5,-336.5"/>
<text text-anchor="middle" x="1223" y="-343.5" font-family="Helvetica,sans-Serif" font-size="10.00">help_printer.hpp</text>
</a>
</g>
</g>
<!-- Node2&#45;&gt;Node26 -->
<g id="edge76" class="edge">
<title>Node2&#45;&gt;Node26</title>
<path fill="none" stroke="midnightblue" d="M1132.27,-392.32C1146.82,-383.62 1172.07,-370.12 1192.35,-360.11"/>
<polygon fill="midnightblue" stroke="midnightblue" points="1194.07,-363.17 1201.54,-355.65 1191.02,-356.87 1194.07,-363.17"/>
</g>
<!-- Node3&#45;&gt;Node4 -->
<g id="edge3" class="edge">
<title>Node3&#45;&gt;Node4</title>
<path fill="none" stroke="midnightblue" d="M643.27,-343.97C544.74,-340.01 205.37,-324.68 164,-300 138.38,-284.72 137.71,-271.84 127,-244 105.76,-188.79 70.52,-156.04 110,-112 134.3,-84.9 378.08,-72.49 478.31,-68.51"/>
<polygon fill="midnightblue" stroke="midnightblue" points="478.54,-72 488.39,-68.12 478.27,-65.01 478.54,-72"/>
</g>
<!-- Node8 -->
<g id="node8" class="node">
<title>Node8</title>
<g id="a_node8"><a xlink:href="arg_8hpp.html" target="_top" xlink:title=" ">
<polygon fill="none" stroke="black" points="522.5,-224.5 522.5,-243.5 575.5,-243.5 575.5,-224.5 522.5,-224.5"/>
<text text-anchor="middle" x="549" y="-231.5" font-family="Helvetica,sans-Serif" font-size="10.00">arg.hpp</text>
</a>
</g>
</g>
<!-- Node3&#45;&gt;Node8 -->
<g id="edge7" class="edge">
<title>Node3&#45;&gt;Node8</title>
<path fill="none" stroke="midnightblue" d="M643.21,-337.42C623.04,-330.52 595.91,-318.55 578,-300 565.42,-286.96 557.73,-267.54 553.47,-253.32"/>
<polygon fill="midnightblue" stroke="midnightblue" points="556.84,-252.39 550.84,-243.65 550.08,-254.22 556.84,-252.39"/>
</g>
<!-- Node19 -->
<g id="node19" class="node">
<title>Node19</title>
<g id="a_node19"><a xlink:href="multi__arg_8hpp.html" target="_top" xlink:title=" ">
<polygon fill="none" stroke="black" points="268,-280.5 268,-299.5 352,-299.5 352,-280.5 268,-280.5"/>
<text text-anchor="middle" x="310" y="-287.5" font-family="Helvetica,sans-Serif" font-size="10.00">multi_arg.hpp</text>
</a>
</g>
</g>
<!-- Node3&#45;&gt;Node19 -->
<g id="edge30" class="edge">
<title>Node3&#45;&gt;Node19</title>
<path fill="none" stroke="midnightblue" d="M643.14,-341.14C590.13,-333.49 468.29,-315.79 366,-300 364.74,-299.81 363.47,-299.61 362.18,-299.41"/>
<polygon fill="midnightblue" stroke="midnightblue" points="362.61,-295.93 352.19,-297.84 361.52,-302.85 362.61,-295.93"/>
</g>
<!-- Node20 -->
<g id="node20" class="node">
<title>Node20</title>
<g id="a_node20"><a xlink:href="groups_8hpp.html" target="_top" xlink:title=" ">
<polygon fill="none" stroke="black" points="1155.5,-280.5 1155.5,-299.5 1226.5,-299.5 1226.5,-280.5 1155.5,-280.5"/>
<text text-anchor="middle" x="1191" y="-287.5" font-family="Helvetica,sans-Serif" font-size="10.00">groups.hpp</text>
</a>
</g>
</g>
<!-- Node3&#45;&gt;Node20 -->
<g id="edge38" class="edge">
<title>Node3&#45;&gt;Node20</title>
<path fill="none" stroke="midnightblue" d="M696.63,-337.83C699.78,-337.13 702.95,-336.5 706,-336 896.82,-304.58 950.54,-326.98 1145.07,-300.12"/>
<polygon fill="midnightblue" stroke="midnightblue" points="1145.63,-303.58 1155.04,-298.72 1144.65,-296.65 1145.63,-303.58"/>
</g>
<!-- Node3&#45;&gt;Node23 -->
<g id="edge51" class="edge">
<title>Node3&#45;&gt;Node23</title>
<path fill="none" stroke="midnightblue" d="M670.94,-336.08C674.6,-328.38 682,-317.03 689.3,-307.65"/>
<polygon fill="midnightblue" stroke="midnightblue" points="692.17,-309.68 695.87,-299.75 686.79,-305.2 692.17,-309.68"/>
</g>
<!-- Node5 -->
<g id="node5" class="node">
<title>Node5</title>
<g id="a_node5"><a xlink:title=" ">
<polygon fill="none" stroke="#bfbfbf" points="534,-0.5 534,-19.5 578,-19.5 578,-0.5 534,-0.5"/>
<text text-anchor="middle" x="556" y="-7.5" font-family="Helvetica,sans-Serif" font-size="10.00">string</text>
</a>
</g>
</g>
<!-- Node4&#45;&gt;Node5 -->
<g id="edge4" class="edge">
<title>Node4&#45;&gt;Node5</title>
<path fill="none" stroke="midnightblue" d="M526.78,-56.08C531.67,-48.53 538.83,-37.49 544.83,-28.23"/>
<polygon fill="midnightblue" stroke="midnightblue" points="547.83,-30.05 550.33,-19.75 541.95,-26.24 547.83,-30.05"/>
</g>
<!-- Node6 -->
<g id="node6" class="node">
<title>Node6</title>
<g id="a_node6"><a xlink:title=" ">
<polygon fill="none" stroke="#bfbfbf" points="456,-0.5 456,-19.5 516,-19.5 516,-0.5 456,-0.5"/>
<text text-anchor="middle" x="486" y="-7.5" font-family="Helvetica,sans-Serif" font-size="10.00">iostream</text>
</a>
</g>
</g>
<!-- Node4&#45;&gt;Node6 -->
<g id="edge5" class="edge">
<title>Node4&#45;&gt;Node6</title>
<path fill="none" stroke="midnightblue" d="M515.22,-56.08C510.33,-48.53 503.17,-37.49 497.17,-28.23"/>
<polygon fill="midnightblue" stroke="midnightblue" points="500.05,-26.24 491.67,-19.75 494.17,-30.05 500.05,-26.24"/>
</g>
<!-- Node4&#45;&gt;Node7 -->
<g id="edge6" class="edge">
<title>Node4&#45;&gt;Node7</title>
<path fill="none" stroke="midnightblue" d="M553.62,-63.19C701.61,-54.97 1309.18,-21.21 1459.33,-12.87"/>
<polygon fill="midnightblue" stroke="midnightblue" points="1459.55,-16.36 1469.34,-12.31 1459.16,-9.37 1459.55,-16.36"/>
</g>
<!-- Node8&#45;&gt;Node4 -->
<g id="edge28" class="edge">
<title>Node8&#45;&gt;Node4</title>
<path fill="none" stroke="midnightblue" d="M536.79,-224.24C526.65,-216.14 512.96,-203.11 507,-188 493.35,-153.38 505.08,-109.19 513.75,-84.94"/>
<polygon fill="midnightblue" stroke="midnightblue" points="517.03,-86.17 517.3,-75.58 510.48,-83.68 517.03,-86.17"/>
</g>
<!-- Node9 -->
<g id="node9" class="node">
<title>Node9</title>
<g id="a_node9"><a xlink:href="arg__iface_8hpp.html" target="_top" xlink:title=" ">
<polygon fill="none" stroke="black" points="773.5,-168.5 773.5,-187.5 856.5,-187.5 856.5,-168.5 773.5,-168.5"/>
<text text-anchor="middle" x="815" y="-175.5" font-family="Helvetica,sans-Serif" font-size="10.00">arg_iface.hpp</text>
</a>
</g>
</g>
<!-- Node8&#45;&gt;Node9 -->
<g id="edge8" class="edge">
<title>Node8&#45;&gt;Node9</title>
<path fill="none" stroke="midnightblue" d="M575.97,-227.53C619.74,-218.64 706.98,-200.93 763.08,-189.54"/>
<polygon fill="midnightblue" stroke="midnightblue" points="764.08,-192.91 773.18,-187.49 762.69,-186.05 764.08,-192.91"/>
</g>
<!-- Node8&#45;&gt;Node10 -->
<g id="edge15" class="edge">
<title>Node8&#45;&gt;Node10</title>
<path fill="none" stroke="midnightblue" d="M575.57,-232.3C630.93,-230.18 762.1,-221.69 866,-188 886.01,-181.51 935.71,-153.77 965.46,-136.69"/>
<polygon fill="midnightblue" stroke="midnightblue" points="967.43,-139.59 974.35,-131.57 963.94,-133.53 967.43,-139.59"/>
</g>
<!-- Node8&#45;&gt;Node11 -->
<g id="edge29" class="edge">
<title>Node8&#45;&gt;Node11</title>
<path fill="none" stroke="midnightblue" d="M575.8,-231.35C635.07,-227.32 781.46,-215.24 901,-188 1027.7,-159.13 1172.74,-103.97 1234.54,-79.37"/>
<polygon fill="midnightblue" stroke="midnightblue" points="1236.09,-82.52 1244.07,-75.56 1233.49,-76.02 1236.09,-82.52"/>
</g>
<!-- Node8&#45;&gt;Node14 -->
<g id="edge16" class="edge">
<title>Node8&#45;&gt;Node14</title>
<path fill="none" stroke="midnightblue" d="M522.36,-226.05C487.46,-216.95 425.84,-200.87 384.46,-190.08"/>
<polygon fill="midnightblue" stroke="midnightblue" points="385.23,-186.66 374.67,-187.52 383.46,-193.43 385.23,-186.66"/>
</g>
<!-- Node8&#45;&gt;Node16 -->
<g id="edge20" class="edge">
<title>Node8&#45;&gt;Node16</title>
<path fill="none" stroke="midnightblue" d="M531.04,-224.47C501.71,-210.83 441.41,-184.02 388,-168 332.08,-151.23 266.39,-138.82 220.85,-131.33"/>
<polygon fill="midnightblue" stroke="midnightblue" points="221.31,-127.86 210.88,-129.71 220.19,-134.77 221.31,-127.86"/>
</g>
<!-- Node18 -->
<g id="node18" class="node">
<title>Node18</title>
<g id="a_node18"><a xlink:href="value__utils_8hpp.html" target="_top" xlink:title=" ">
<polygon fill="none" stroke="black" points="587.5,-168.5 587.5,-187.5 678.5,-187.5 678.5,-168.5 587.5,-168.5"/>
<text text-anchor="middle" x="633" y="-175.5" font-family="Helvetica,sans-Serif" font-size="10.00">value_utils.hpp</text>
</a>
</g>
</g>
<!-- Node8&#45;&gt;Node18 -->
<g id="edge23" class="edge">
<title>Node8&#45;&gt;Node18</title>
<path fill="none" stroke="midnightblue" d="M562.5,-224.32C575.6,-215.9 595.71,-202.97 611.11,-193.07"/>
<polygon fill="midnightblue" stroke="midnightblue" points="613.02,-196.01 619.54,-187.65 609.23,-190.12 613.02,-196.01"/>
</g>
<!-- Node9&#45;&gt;Node4 -->
<g id="edge13" class="edge">
<title>Node9&#45;&gt;Node4</title>
<path fill="none" stroke="midnightblue" d="M810.63,-168.18C803.06,-153.87 786.06,-125.82 763,-112 700.76,-74.7 614.62,-67.08 563.66,-66.18"/>
<polygon fill="midnightblue" stroke="midnightblue" points="563.69,-62.68 553.65,-66.08 563.62,-69.68 563.69,-62.68"/>
</g>
<!-- Node9&#45;&gt;Node10 -->
<g id="edge9" class="edge">
<title>Node9&#45;&gt;Node10</title>
<path fill="none" stroke="midnightblue" d="M842.57,-168.44C872.1,-159.28 919.12,-144.69 951.88,-134.52"/>
<polygon fill="midnightblue" stroke="midnightblue" points="953.04,-137.82 961.56,-131.52 950.97,-131.14 953.04,-137.82"/>
</g>
<!-- Node13 -->
<g id="node13" class="node">
<title>Node13</title>
<g id="a_node13"><a xlink:href="enums_8hpp.html" target="_top" xlink:title=" ">
<polygon fill="none" stroke="black" points="682.5,-112.5 682.5,-131.5 753.5,-131.5 753.5,-112.5 682.5,-112.5"/>
<text text-anchor="middle" x="718" y="-119.5" font-family="Helvetica,sans-Serif" font-size="10.00">enums.hpp</text>
</a>
</g>
</g>
<!-- Node9&#45;&gt;Node13 -->
<g id="edge14" class="edge">
<title>Node9&#45;&gt;Node13</title>
<path fill="none" stroke="midnightblue" d="M799.42,-168.32C784,-159.74 760.19,-146.49 742.29,-136.52"/>
<polygon fill="midnightblue" stroke="midnightblue" points="743.99,-133.46 733.55,-131.65 740.58,-139.58 743.99,-133.46"/>
</g>
<!-- Node10&#45;&gt;Node4 -->
<g id="edge10" class="edge">
<title>Node10&#45;&gt;Node4</title>
<path fill="none" stroke="midnightblue" d="M959.37,-117.58C879.09,-108.32 657.18,-82.71 563.55,-71.91"/>
<polygon fill="midnightblue" stroke="midnightblue" points="563.91,-68.43 553.58,-70.76 563.11,-75.38 563.91,-68.43"/>
</g>
<!-- Node10&#45;&gt;Node11 -->
<g id="edge11" class="edge">
<title>Node10&#45;&gt;Node11</title>
<path fill="none" stroke="midnightblue" d="M1018.54,-115.22C1067.63,-105.62 1166.2,-86.33 1222.67,-75.28"/>
<polygon fill="midnightblue" stroke="midnightblue" points="1223.56,-78.67 1232.71,-73.32 1222.22,-71.8 1223.56,-78.67"/>
</g>
<!-- Node12 -->
<g id="node12" class="node">
<title>Node12</title>
<g id="a_node12"><a xlink:title=" ">
<polygon fill="none" stroke="#bfbfbf" points="1049.5,-56.5 1049.5,-75.5 1118.5,-75.5 1118.5,-56.5 1049.5,-56.5"/>
<text text-anchor="middle" x="1084" y="-63.5" font-family="Helvetica,sans-Serif" font-size="10.00">type_traits</text>
</a>
</g>
</g>
<!-- Node10&#45;&gt;Node12 -->
<g id="edge12" class="edge">
<title>Node10&#45;&gt;Node12</title>
<path fill="none" stroke="midnightblue" d="M1004.26,-112.32C1019.22,-103.82 1042.25,-90.73 1059.73,-80.8"/>
<polygon fill="midnightblue" stroke="midnightblue" points="1061.81,-83.64 1068.77,-75.65 1058.35,-77.55 1061.81,-83.64"/>
</g>
<!-- Node14&#45;&gt;Node4 -->
<g id="edge19" class="edge">
<title>Node14&#45;&gt;Node4</title>
<path fill="none" stroke="midnightblue" d="M352.56,-168.39C368.82,-155.33 401.26,-130.12 431,-112 450.76,-99.96 474.17,-88.33 492.16,-79.91"/>
<polygon fill="midnightblue" stroke="midnightblue" points="493.93,-82.95 501.54,-75.58 490.99,-76.59 493.93,-82.95"/>
</g>
<!-- Node14&#45;&gt;Node10 -->
<g id="edge18" class="edge">
<title>Node14&#45;&gt;Node10</title>
<path fill="none" stroke="midnightblue" d="M379.11,-173.9C492.25,-164.46 832.21,-136.09 949.05,-126.33"/>
<polygon fill="midnightblue" stroke="midnightblue" points="949.65,-129.8 959.33,-125.48 949.07,-122.82 949.65,-129.8"/>
</g>
<!-- Node15 -->
<g id="node15" class="node">
<title>Node15</title>
<g id="a_node15"><a xlink:title=" ">
<polygon fill="none" stroke="#bfbfbf" points="319.5,-112.5 319.5,-131.5 364.5,-131.5 364.5,-112.5 319.5,-112.5"/>
<text text-anchor="middle" x="342" y="-119.5" font-family="Helvetica,sans-Serif" font-size="10.00">utility</text>
</a>
</g>
</g>
<!-- Node14&#45;&gt;Node15 -->
<g id="edge17" class="edge">
<title>Node14&#45;&gt;Node15</title>
<path fill="none" stroke="midnightblue" d="M342,-168.08C342,-161.01 342,-150.86 342,-141.99"/>
<polygon fill="midnightblue" stroke="midnightblue" points="345.5,-141.75 342,-131.75 338.5,-141.75 345.5,-141.75"/>
</g>
<!-- Node16&#45;&gt;Node4 -->
<g id="edge22" class="edge">
<title>Node16&#45;&gt;Node4</title>
<path fill="none" stroke="midnightblue" d="M210.81,-114.05C279.98,-103.56 410.14,-83.82 477.76,-73.56"/>
<polygon fill="midnightblue" stroke="midnightblue" points="478.69,-76.96 488.05,-72 477.64,-70.04 478.69,-76.96"/>
</g>
<!-- Node17 -->
<g id="node17" class="node">
<title>Node17</title>
<g id="a_node17"><a xlink:title=" ">
<polygon fill="none" stroke="#bfbfbf" points="132.5,-56.5 132.5,-75.5 197.5,-75.5 197.5,-56.5 132.5,-56.5"/>
<text text-anchor="middle" x="165" y="-63.5" font-family="Helvetica,sans-Serif" font-size="10.00">stdexcept</text>
</a>
</g>
</g>
<!-- Node16&#45;&gt;Node17 -->
<g id="edge21" class="edge">
<title>Node16&#45;&gt;Node17</title>
<path fill="none" stroke="midnightblue" d="M165,-112.08C165,-105.01 165,-94.86 165,-85.99"/>
<polygon fill="midnightblue" stroke="midnightblue" points="168.5,-85.75 165,-75.75 161.5,-85.75 168.5,-85.75"/>
</g>
<!-- Node18&#45;&gt;Node4 -->
<g id="edge26" class="edge">
<title>Node18&#45;&gt;Node4</title>
<path fill="none" stroke="midnightblue" d="M624.21,-168.37C605.4,-149.89 561.01,-106.29 537.03,-82.74"/>
<polygon fill="midnightblue" stroke="midnightblue" points="539.33,-80.1 529.75,-75.59 534.43,-85.1 539.33,-80.1"/>
</g>
<!-- Node18&#45;&gt;Node10 -->
<g id="edge24" class="edge">
<title>Node18&#45;&gt;Node10</title>
<path fill="none" stroke="midnightblue" d="M678.81,-170.05C749.22,-159.37 882.85,-139.1 949.35,-129.01"/>
<polygon fill="midnightblue" stroke="midnightblue" points="950.07,-132.45 959.43,-127.49 949.02,-125.52 950.07,-132.45"/>
</g>
<!-- Node18&#45;&gt;Node11 -->
<g id="edge27" class="edge">
<title>Node18&#45;&gt;Node11</title>
<path fill="none" stroke="midnightblue" d="M635.59,-168.42C640.47,-153.93 652.51,-124.94 674,-112 679.89,-108.45 1087.82,-79.47 1222.43,-69.99"/>
<polygon fill="midnightblue" stroke="midnightblue" points="1223.02,-73.45 1232.75,-69.26 1222.53,-66.47 1223.02,-73.45"/>
</g>
<!-- Node18&#45;&gt;Node16 -->
<g id="edge25" class="edge">
<title>Node18&#45;&gt;Node16</title>
<path fill="none" stroke="midnightblue" d="M587.49,-169.98C582.6,-169.29 577.7,-168.61 573,-168 447.38,-151.66 299.48,-136.31 220.82,-128.46"/>
<polygon fill="midnightblue" stroke="midnightblue" points="220.95,-124.96 210.66,-127.45 220.26,-131.92 220.95,-124.96"/>
</g>
<!-- Node19&#45;&gt;Node4 -->
<g id="edge36" class="edge">
<title>Node19&#45;&gt;Node4</title>
<path fill="none" stroke="midnightblue" d="M303.9,-280.19C298.25,-271.46 290.24,-257.48 287,-244 273.06,-186.1 264.29,-150.16 310,-112 335.12,-91.03 424.25,-77.72 478.31,-71.38"/>
<polygon fill="midnightblue" stroke="midnightblue" points="478.76,-74.86 488.3,-70.25 477.97,-67.9 478.76,-74.86"/>
</g>
<!-- Node19&#45;&gt;Node8 -->
<g id="edge31" class="edge">
<title>Node19&#45;&gt;Node8</title>
<path fill="none" stroke="midnightblue" d="M347.87,-280.44C393.05,-270.24 468.05,-253.29 512.58,-243.23"/>
<polygon fill="midnightblue" stroke="midnightblue" points="513.42,-246.63 522.41,-241.01 511.88,-239.8 513.42,-246.63"/>
</g>
<!-- Node19&#45;&gt;Node10 -->
<g id="edge35" class="edge">
<title>Node19&#45;&gt;Node10</title>
<path fill="none" stroke="midnightblue" d="M352,-288.49C451.52,-285.88 707.79,-270.95 901,-188 928.64,-176.13 955.77,-154.07 972.43,-138.97"/>
<polygon fill="midnightblue" stroke="midnightblue" points="975.2,-141.17 980.14,-131.8 970.44,-136.04 975.2,-141.17"/>
</g>
<!-- Node19&#45;&gt;Node14 -->
<g id="edge32" class="edge">
<title>Node19&#45;&gt;Node14</title>
<path fill="none" stroke="midnightblue" d="M312.51,-280.37C317.7,-262.54 329.7,-221.3 336.68,-197.27"/>
<polygon fill="midnightblue" stroke="midnightblue" points="340.07,-198.17 339.5,-187.59 333.35,-196.22 340.07,-198.17"/>
</g>
<!-- Node19&#45;&gt;Node15 -->
<g id="edge37" class="edge">
<title>Node19&#45;&gt;Node15</title>
<path fill="none" stroke="midnightblue" d="M306.18,-280.38C297.73,-259.95 279.44,-207.38 296,-168 301.03,-156.05 310.94,-145.69 320.29,-137.93"/>
<polygon fill="midnightblue" stroke="midnightblue" points="322.44,-140.69 328.21,-131.81 318.16,-135.15 322.44,-140.69"/>
</g>
<!-- Node19&#45;&gt;Node16 -->
<g id="edge33" class="edge">
<title>Node19&#45;&gt;Node16</title>
<path fill="none" stroke="midnightblue" d="M296.68,-280.32C284.32,-271.89 265.8,-258.31 252,-244 219.96,-210.77 190.32,-165.08 175.3,-140.45"/>
<polygon fill="midnightblue" stroke="midnightblue" points="178.1,-138.32 169.96,-131.55 172.1,-141.92 178.1,-138.32"/>
</g>
<!-- Node19&#45;&gt;Node18 -->
<g id="edge34" class="edge">
<title>Node19&#45;&gt;Node18</title>
<path fill="none" stroke="midnightblue" d="M335.08,-280.46C392.32,-260.97 532.7,-213.16 598.24,-190.84"/>
<polygon fill="midnightblue" stroke="midnightblue" points="599.38,-194.15 607.72,-187.61 597.12,-187.52 599.38,-194.15"/>
</g>
<!-- Node20&#45;&gt;Node4 -->
<g id="edge49" class="edge">
<title>Node20&#45;&gt;Node4</title>
<path fill="none" stroke="midnightblue" d="M1178.55,-280.43C1166.54,-271.88 1148.14,-258.03 1134,-244 1080.58,-191.02 1094.34,-147.5 1028,-112 948.17,-69.28 671.27,-66.12 563.96,-66.56"/>
<polygon fill="midnightblue" stroke="midnightblue" points="563.79,-63.06 553.81,-66.61 563.83,-70.06 563.79,-63.06"/>
</g>
<!-- Node20&#45;&gt;Node11 -->
<g id="edge50" class="edge">
<title>Node20&#45;&gt;Node11</title>
<path fill="none" stroke="midnightblue" d="M1206.66,-280.35C1219.42,-272.5 1236.91,-259.76 1247,-244 1279.33,-193.49 1281.54,-171.61 1275,-112 1274.03,-103.14 1272.01,-93.47 1270.04,-85.38"/>
<polygon fill="midnightblue" stroke="midnightblue" points="1273.38,-84.33 1267.48,-75.53 1266.61,-86.09 1273.38,-84.33"/>
</g>
<!-- Node21 -->
<g id="node21" class="node">
<title>Node21</title>
<g id="a_node21"><a xlink:href="group__iface_8hpp.html" target="_top" xlink:title=" ">
<polygon fill="none" stroke="black" points="1142.5,-224.5 1142.5,-243.5 1237.5,-243.5 1237.5,-224.5 1142.5,-224.5"/>
<text text-anchor="middle" x="1190" y="-231.5" font-family="Helvetica,sans-Serif" font-size="10.00">group_iface.hpp</text>
</a>
</g>
</g>
<!-- Node20&#45;&gt;Node21 -->
<g id="edge39" class="edge">
<title>Node20&#45;&gt;Node21</title>
<path fill="none" stroke="midnightblue" d="M1190.83,-280.08C1190.7,-273.01 1190.52,-262.86 1190.35,-253.99"/>
<polygon fill="midnightblue" stroke="midnightblue" points="1193.85,-253.68 1190.16,-243.75 1186.85,-253.81 1193.85,-253.68"/>
</g>
<!-- Node21&#45;&gt;Node4 -->
<g id="edge43" class="edge">
<title>Node21&#45;&gt;Node4</title>
<path fill="none" stroke="midnightblue" d="M1185.85,-224.26C1174.3,-201.07 1139.32,-138.01 1089,-112 1042.73,-88.08 688.15,-73.06 563.87,-68.49"/>
<polygon fill="midnightblue" stroke="midnightblue" points="563.72,-64.98 553.6,-68.11 563.47,-71.97 563.72,-64.98"/>
</g>
<!-- Node21&#45;&gt;Node7 -->
<g id="edge44" class="edge">
<title>Node21&#45;&gt;Node7</title>
<path fill="none" stroke="midnightblue" d="M1203.67,-224.48C1217.73,-215.63 1240.16,-201.24 1259,-188 1340.74,-130.53 1434.61,-57.21 1474.02,-26.07"/>
<polygon fill="midnightblue" stroke="midnightblue" points="1476.33,-28.71 1482,-19.75 1471.99,-23.22 1476.33,-28.71"/>
</g>
<!-- Node21&#45;&gt;Node9 -->
<g id="edge40" class="edge">
<title>Node21&#45;&gt;Node9</title>
<path fill="none" stroke="midnightblue" d="M1142.13,-226.11C1071.46,-215.93 939.74,-196.96 866.86,-186.47"/>
<polygon fill="midnightblue" stroke="midnightblue" points="866.94,-182.94 856.55,-184.98 865.94,-189.87 866.94,-182.94"/>
</g>
<!-- Node21&#45;&gt;Node10 -->
<g id="edge41" class="edge">
<title>Node21&#45;&gt;Node10</title>
<path fill="none" stroke="midnightblue" d="M1177.92,-224.38C1159.33,-211.32 1122.35,-186.11 1089,-168 1066.43,-155.75 1039.87,-143.91 1019.8,-135.45"/>
<polygon fill="midnightblue" stroke="midnightblue" points="1021.09,-132.2 1010.51,-131.59 1018.4,-138.66 1021.09,-132.2"/>
</g>
<!-- Node21&#45;&gt;Node11 -->
<g id="edge46" class="edge">
<title>Node21&#45;&gt;Node11</title>
<path fill="none" stroke="midnightblue" d="M1203.98,-224.46C1215.75,-216.51 1232.05,-203.56 1241,-188 1259.71,-155.46 1264.05,-110.77 1264.93,-85.81"/>
<polygon fill="midnightblue" stroke="midnightblue" points="1268.43,-85.63 1265.13,-75.57 1261.43,-85.5 1268.43,-85.63"/>
</g>
<!-- Node21&#45;&gt;Node12 -->
<g id="edge45" class="edge">
<title>Node21&#45;&gt;Node12</title>
<path fill="none" stroke="midnightblue" d="M1195.06,-224.19C1201.74,-211.3 1211.7,-186.8 1203,-168 1184.1,-127.17 1139.66,-96.82 1110.76,-80.53"/>
<polygon fill="midnightblue" stroke="midnightblue" points="1112.43,-77.45 1101.97,-75.74 1109.08,-83.6 1112.43,-77.45"/>
</g>
<!-- Node21&#45;&gt;Node15 -->
<g id="edge47" class="edge">
<title>Node21&#45;&gt;Node15</title>
<path fill="none" stroke="midnightblue" d="M1142.19,-230.26C1063.17,-225.22 900.6,-212.65 765,-188 730.21,-181.68 722.71,-174.74 688,-168 574.12,-145.89 437,-131.68 375.14,-125.92"/>
<polygon fill="midnightblue" stroke="midnightblue" points="375.11,-122.4 364.83,-124.97 374.47,-129.37 375.11,-122.4"/>
</g>
<!-- Node21&#45;&gt;Node16 -->
<g id="edge42" class="edge">
<title>Node21&#45;&gt;Node16</title>
<path fill="none" stroke="midnightblue" d="M1142.26,-230.84C1039.06,-225.86 787.56,-212.15 578,-188 509.82,-180.14 317,-148.42 220.89,-132.38"/>
<polygon fill="midnightblue" stroke="midnightblue" points="221.22,-128.89 210.78,-130.7 220.07,-135.8 221.22,-128.89"/>
</g>
<!-- Node21&#45;&gt;Node22 -->
<g id="edge48" class="edge">
<title>Node21&#45;&gt;Node22</title>
<path fill="none" stroke="midnightblue" d="M1222.96,-224.44C1259.95,-214.84 1319.9,-199.28 1359.14,-189.09"/>
<polygon fill="midnightblue" stroke="midnightblue" points="1360.09,-192.46 1368.89,-186.56 1358.33,-185.68 1360.09,-192.46"/>
</g>
<!-- Node23&#45;&gt;Node3 -->
<g id="edge52" class="edge">
<title>Node23&#45;&gt;Node3</title>
<path fill="none" stroke="midnightblue" d="M706.13,-299.75C702.53,-307.4 695.16,-318.74 687.86,-328.14"/>
<polygon fill="midnightblue" stroke="midnightblue" points="684.96,-326.15 681.28,-336.08 690.35,-330.62 684.96,-326.15"/>
</g>
<!-- Node23&#45;&gt;Node4 -->
<g id="edge58" class="edge">
<title>Node23&#45;&gt;Node4</title>
<path fill="none" stroke="midnightblue" d="M691.59,-280.26C665.29,-264.68 611.35,-229.8 578,-188 552.39,-155.9 534.96,-110.41 526.63,-85.35"/>
<polygon fill="midnightblue" stroke="midnightblue" points="529.92,-84.13 523.54,-75.67 523.25,-86.26 529.92,-84.13"/>
</g>
<!-- Node23&#45;&gt;Node10 -->
<g id="edge54" class="edge">
<title>Node23&#45;&gt;Node10</title>
<path fill="none" stroke="midnightblue" d="M750.2,-285.35C808.63,-279.61 908.82,-266.74 937,-244 969.07,-218.12 981.76,-168.69 986.46,-141.71"/>
<polygon fill="midnightblue" stroke="midnightblue" points="989.95,-142.08 988.02,-131.66 983.03,-141 989.95,-142.08"/>
</g>
<!-- Node23&#45;&gt;Node13 -->
<g id="edge57" class="edge">
<title>Node23&#45;&gt;Node13</title>
<path fill="none" stroke="midnightblue" d="M707.59,-280.08C709.32,-253.95 714.41,-177.21 716.77,-141.58"/>
<polygon fill="midnightblue" stroke="midnightblue" points="720.26,-141.78 717.43,-131.57 713.28,-141.31 720.26,-141.78"/>
</g>
<!-- Node23&#45;&gt;Node14 -->
<g id="edge55" class="edge">
<title>Node23&#45;&gt;Node14</title>
<path fill="none" stroke="midnightblue" d="M663.79,-280.73C624.18,-272.73 564.1,-259.56 513,-244 462.26,-228.55 404.94,-205.59 371.23,-191.5"/>
<polygon fill="midnightblue" stroke="midnightblue" points="372.54,-188.25 361.96,-187.6 369.82,-194.71 372.54,-188.25"/>
</g>
<!-- Node23&#45;&gt;Node18 -->
<g id="edge56" class="edge">
<title>Node23&#45;&gt;Node18</title>
<path fill="none" stroke="midnightblue" d="M701.19,-280.37C688.98,-262.22 660.45,-219.8 644.43,-195.99"/>
<polygon fill="midnightblue" stroke="midnightblue" points="647.27,-193.94 638.78,-187.59 641.46,-197.84 647.27,-193.94"/>
</g>
<!-- Node23&#45;&gt;Node21 -->
<g id="edge53" class="edge">
<title>Node23&#45;&gt;Node21</title>
<path fill="none" stroke="midnightblue" d="M750.29,-284.16C837.51,-274.41 1034.38,-252.4 1132.36,-241.44"/>
<polygon fill="midnightblue" stroke="midnightblue" points="1132.83,-244.91 1142.38,-240.32 1132.05,-237.96 1132.83,-244.91"/>
</g>
<!-- Node24&#45;&gt;Node4 -->
<g id="edge70" class="edge">
<title>Node24&#45;&gt;Node4</title>
<path fill="none" stroke="midnightblue" d="M715.82,-336.39C660.19,-318.82 539.4,-277.67 513,-244 476.6,-197.57 485.7,-169.48 499,-112 501.23,-102.36 505.82,-92.41 510.24,-84.31"/>
<polygon fill="midnightblue" stroke="midnightblue" points="513.35,-85.92 515.36,-75.52 507.3,-82.4 513.35,-85.92"/>
</g>
<!-- Node24&#45;&gt;Node8 -->
<g id="edge64" class="edge">
<title>Node24&#45;&gt;Node8</title>
<path fill="none" stroke="midnightblue" d="M726.04,-336.46C707.91,-327.7 679.19,-313.5 655,-300 625.28,-283.41 591.96,-262.6 570.75,-249.06"/>
<polygon fill="midnightblue" stroke="midnightblue" points="572.49,-246.02 562.18,-243.56 568.71,-251.91 572.49,-246.02"/>
</g>
<!-- Node24&#45;&gt;Node10 -->
<g id="edge68" class="edge">
<title>Node24&#45;&gt;Node10</title>
<path fill="none" stroke="midnightblue" d="M773.68,-337.32C818.45,-324.48 903.85,-294.91 959,-244 980.06,-224.56 983.64,-215.71 991,-188 993.28,-179.41 991.2,-176.89 991,-168 990.81,-159.39 990.41,-149.86 990.02,-141.8"/>
<polygon fill="midnightblue" stroke="midnightblue" points="993.51,-141.43 989.5,-131.62 986.52,-141.79 993.51,-141.43"/>
</g>
<!-- Node24&#45;&gt;Node14 -->
<g id="edge67" class="edge">
<title>Node24&#45;&gt;Node14</title>
<path fill="none" stroke="midnightblue" d="M714.18,-337.71C711.42,-337.11 708.66,-336.53 706,-336 606.22,-316.27 572.07,-343.22 480,-300 426.36,-274.82 377.82,-222.36 355.29,-195.55"/>
<polygon fill="midnightblue" stroke="midnightblue" points="357.73,-193.01 348.67,-187.52 352.33,-197.47 357.73,-193.01"/>
</g>
<!-- Node24&#45;&gt;Node16 -->
<g id="edge69" class="edge">
<title>Node24&#45;&gt;Node16</title>
<path fill="none" stroke="midnightblue" d="M714.22,-337.47C711.45,-336.92 708.68,-336.41 706,-336 489.3,-302.63 419.65,-376.01 214,-300 174.65,-285.45 156.92,-281.45 138,-244 122.77,-213.85 128.98,-200.55 138,-168 140.79,-157.92 146.51,-147.83 151.97,-139.77"/>
<polygon fill="midnightblue" stroke="midnightblue" points="154.82,-141.79 157.85,-131.64 149.15,-137.69 154.82,-141.79"/>
</g>
<!-- Node24&#45;&gt;Node22 -->
<g id="edge72" class="edge">
<title>Node24&#45;&gt;Node22</title>
<path fill="none" stroke="midnightblue" d="M773.76,-344.39C866.75,-342.15 1150.71,-332.72 1236,-300 1297.48,-276.41 1355.85,-222.42 1382.65,-195.25"/>
<polygon fill="midnightblue" stroke="midnightblue" points="1385.48,-197.36 1389.92,-187.74 1380.45,-192.49 1385.48,-197.36"/>
</g>
<!-- Node24&#45;&gt;Node23 -->
<g id="edge71" class="edge">
<title>Node24&#45;&gt;Node23</title>
<path fill="none" stroke="midnightblue" d="M737.89,-336.08C732.72,-328.53 725.15,-317.49 718.81,-308.23"/>
<polygon fill="midnightblue" stroke="midnightblue" points="721.54,-306.02 713,-299.75 715.76,-309.98 721.54,-306.02"/>
</g>
<!-- Node25 -->
<g id="node25" class="node">
<title>Node25</title>
<g id="a_node25"><a xlink:href="help__printer__iface_8hpp.html" target="_top" xlink:title=" ">
<polygon fill="none" stroke="black" points="1012.5,-280.5 1012.5,-299.5 1137.5,-299.5 1137.5,-280.5 1012.5,-280.5"/>
<text text-anchor="middle" x="1075" y="-287.5" font-family="Helvetica,sans-Serif" font-size="10.00">help_printer_iface.hpp</text>
</a>
</g>
</g>
<!-- Node24&#45;&gt;Node25 -->
<g id="edge65" class="edge">
<title>Node24&#45;&gt;Node25</title>
<path fill="none" stroke="midnightblue" d="M773.67,-340.16C827.21,-331.43 941.04,-312.85 1012.45,-301.2"/>
<polygon fill="midnightblue" stroke="midnightblue" points="1013.36,-304.6 1022.67,-299.54 1012.24,-297.69 1013.36,-304.6"/>
</g>
<!-- Node25&#45;&gt;Node10 -->
<g id="edge66" class="edge">
<title>Node25&#45;&gt;Node10</title>
<path fill="none" stroke="midnightblue" d="M1075.35,-280.3C1075.8,-259.25 1074.44,-204.62 1051,-168 1042.52,-154.75 1028.64,-144.14 1016.16,-136.55"/>
<polygon fill="midnightblue" stroke="midnightblue" points="1017.84,-133.48 1007.42,-131.57 1014.37,-139.56 1017.84,-133.48"/>
</g>
<!-- Node26&#45;&gt;Node2 -->
<g id="edge87" class="edge">
<title>Node26&#45;&gt;Node2</title>
<path fill="none" stroke="midnightblue" d="M1211.99,-355.52C1197.45,-364.23 1171.93,-377.88 1151.51,-387.96"/>
<polygon fill="midnightblue" stroke="midnightblue" points="1149.72,-384.93 1142.25,-392.44 1152.78,-391.23 1149.72,-384.93"/>
</g>
<!-- Node26&#45;&gt;Node4 -->
<g id="edge85" class="edge">
<title>Node26&#45;&gt;Node4</title>
<path fill="none" stroke="midnightblue" d="M1249.55,-336.43C1289.16,-322.51 1364.17,-291.66 1412,-244 1439.04,-217.06 1476.67,-197.12 1452,-168 1393.78,-99.28 738.76,-73.85 563.77,-68.26"/>
<polygon fill="midnightblue" stroke="midnightblue" points="563.76,-64.76 553.65,-67.94 563.54,-71.75 563.76,-64.76"/>
</g>
<!-- Node26&#45;&gt;Node7 -->
<g id="edge77" class="edge">
<title>Node26&#45;&gt;Node7</title>
<path fill="none" stroke="midnightblue" d="M1270.64,-344.64C1327.25,-342.57 1423.42,-333.79 1498,-300 1575.08,-265.08 1645,-263.62 1645,-179 1645,-179 1645,-179 1645,-121 1645,-62.98 1571.41,-32.44 1526.64,-19.24"/>
<polygon fill="midnightblue" stroke="midnightblue" points="1527.32,-15.79 1516.75,-16.46 1525.43,-22.53 1527.32,-15.79"/>
</g>
<!-- Node26&#45;&gt;Node10 -->
<g id="edge80" class="edge">
<title>Node26&#45;&gt;Node10</title>
<path fill="none" stroke="midnightblue" d="M1239.14,-336.42C1294.43,-306.51 1470.91,-206.6 1436,-168 1408.91,-138.04 1133.01,-127.1 1028.68,-124.02"/>
<polygon fill="midnightblue" stroke="midnightblue" points="1028.65,-120.52 1018.55,-123.73 1028.45,-127.51 1028.65,-120.52"/>
</g>
<!-- Node26&#45;&gt;Node11 -->
<g id="edge78" class="edge">
<title>Node26&#45;&gt;Node11</title>
<path fill="none" stroke="midnightblue" d="M1270.77,-341.18C1334.16,-335.32 1441.84,-322.38 1474,-300 1497.71,-283.5 1499.4,-271.87 1507,-244 1515.89,-211.41 1525.73,-196.11 1507,-168 1462.33,-100.95 1363.76,-78.33 1307.16,-70.76"/>
<polygon fill="midnightblue" stroke="midnightblue" points="1307.46,-67.27 1297.11,-69.52 1306.6,-74.22 1307.46,-67.27"/>
</g>
<!-- Node26&#45;&gt;Node16 -->
<g id="edge81" class="edge">
<title>Node26&#45;&gt;Node16</title>
<path fill="none" stroke="midnightblue" d="M1175.46,-344.02C986.75,-339.96 298.75,-323.61 259,-300 200.44,-265.22 176.47,-180.14 168.44,-142.02"/>
<polygon fill="midnightblue" stroke="midnightblue" points="171.79,-140.94 166.43,-131.8 164.92,-142.29 171.79,-140.94"/>
</g>
<!-- Node26&#45;&gt;Node20 -->
<g id="edge83" class="edge">
<title>Node26&#45;&gt;Node20</title>
<path fill="none" stroke="midnightblue" d="M1217.72,-336.08C1213.29,-328.61 1206.84,-317.72 1201.38,-308.52"/>
<polygon fill="midnightblue" stroke="midnightblue" points="1204.29,-306.57 1196.19,-299.75 1198.27,-310.14 1204.29,-306.57"/>
</g>
<!-- Node26&#45;&gt;Node21 -->
<g id="edge82" class="edge">
<title>Node26&#45;&gt;Node21</title>
<path fill="none" stroke="midnightblue" d="M1227.88,-336.26C1234.34,-323.47 1244.03,-299.09 1236,-280 1230.97,-268.05 1221.06,-257.69 1211.71,-249.93"/>
<polygon fill="midnightblue" stroke="midnightblue" points="1213.84,-247.15 1203.79,-243.81 1209.56,-252.69 1213.84,-247.15"/>
</g>
<!-- Node26&#45;&gt;Node23 -->
<g id="edge84" class="edge">
<title>Node26&#45;&gt;Node23</title>
<path fill="none" stroke="midnightblue" d="M1175.38,-340.02C1078.9,-329.92 860.96,-307.11 760.08,-296.55"/>
<polygon fill="midnightblue" stroke="midnightblue" points="760.42,-293.07 750.11,-295.51 759.69,-300.03 760.42,-293.07"/>
</g>
<!-- Node26&#45;&gt;Node25 -->
<g id="edge86" class="edge">
<title>Node26&#45;&gt;Node25</title>
<path fill="none" stroke="midnightblue" d="M1199.55,-336.44C1174.87,-327.44 1135.81,-313.19 1108.02,-303.05"/>
<polygon fill="midnightblue" stroke="midnightblue" points="1108.94,-299.66 1098.34,-299.52 1106.54,-306.23 1108.94,-299.66"/>
</g>
<!-- Node27 -->
<g id="node27" class="node">
<title>Node27</title>
<g id="a_node27"><a xlink:title=" ">
<polygon fill="none" stroke="#bfbfbf" points="1399.5,-280.5 1399.5,-299.5 1464.5,-299.5 1464.5,-280.5 1399.5,-280.5"/>
<text text-anchor="middle" x="1432" y="-287.5" font-family="Helvetica,sans-Serif" font-size="10.00">functional</text>
</a>
</g>
</g>
<!-- Node26&#45;&gt;Node27 -->
<g id="edge79" class="edge">
<title>Node26&#45;&gt;Node27</title>
<path fill="none" stroke="midnightblue" d="M1256.12,-336.44C1292.22,-327.11 1350.11,-312.16 1389.53,-301.97"/>
<polygon fill="midnightblue" stroke="midnightblue" points="1390.58,-305.32 1399.38,-299.43 1388.82,-298.54 1390.58,-305.32"/>
</g>
</g>
</svg>
        <g id="navigator" transform="translate(0 0)" fill="#404254">
                <rect fill="#f2f5e9" fill-opacity="0.5" stroke="#606060" stroke-width=".5" x="0" y="0" width="60" height="60"/>
                <use id="zoomplus" xlink:href="#zoomPlus" x="17" y="9" onmousedown="handleZoom(evt,'in')"/>
                <use id="zoomminus" xlink:href="#zoomMin" x="42" y="9" onmousedown="handleZoom(evt,'out')"/>
                <use id="reset" xlink:href="#resetDef" x="30" y="36" onmousedown="handleReset()"/>
                <g id="arrowUp" xlink:href="#dirArrow" transform="translate(30 24)" onmousedown="handlePan(0,-1)">
                  <use xlink:href="#rim" fill="#404040">
                        <set attributeName="fill" to="#808080" begin="arrowUp.mouseover" end="arrowUp.mouseout"/>
                  </use>
                  <path fill="none" stroke="white" stroke-width="1.5" d="M0,-3.0v7 M-2.5,-0.5L0,-3.0L2.5,-0.5"/>
                </g>
                <g id="arrowRight" xlink:href="#dirArrow" transform="rotate(90) translate(36 -43)" onmousedown="handlePan(1,0)">
                  <use xlink:href="#rim" fill="#404040">
                        <set attributeName="fill" to="#808080" begin="arrowRight.mouseover" end="arrowRight.mouseout"/>
                  </use>
                  <path fill="none" stroke="white" stroke-width="1.5" d="M0,-3.0v7 M-2.5,-0.5L0,-3.0L2.5,-0.5"/>
                </g>
                <g id="arrowDown" xlink:href="#dirArrow" transform="rotate(180) translate(-30 -48)" onmousedown="handlePan(0,1)">
                  <use xlink:href="#rim" fill="#404040">
                        <set attributeName="fill" to="#808080" begin="arrowDown.mouseover" end="arrowDown.mouseout"/>
                  </use>
                  <path fill="none" stroke="white" stroke-width="1.5" d="M0,-3.0v7 M-2.5,-0.5L0,-3.0L2.5,-0.5"/>
                </g>
                <g id="arrowLeft" xlink:href="#dirArrow" transform="rotate(270) translate(-36 17)" onmousedown="handlePan(-1,0)">
                  <use xlink:href="#rim" fill="#404040">
                        <set attributeName="fill" to="#808080" begin="arrowLeft.mouseover" end="arrowLeft.mouseout"/>
                  </use>
                  <path fill="none" stroke="white" stroke-width="1.5" d="M0,-3.0v7 M-2.5,-0.5L0,-3.0L2.5,-0.5"/>
                </g>
        </g>
        <svg viewBox="0 0 15 15" width="100%" height="30px" preserveAspectRatio="xMaxYMin meet">
         <g id="arrow_out" transform="scale(0.3 0.3)">
          <a xlink:href="all_8hpp__incl_org.svg" target="_base">
           <rect id="button" ry="5" rx="5" y="6" x="6" height="38" width="38"
                fill="#f2f5e9" fill-opacity="0.5" stroke="#606060" stroke-width="1.0"/>
           <path id="arrow"
             d="M 11.500037,31.436501 C 11.940474,20.09759 22.043105,11.32322 32.158766,21.979434 L 37.068811,17.246167 C 37.068811,17.246167 37.088388,32 37.088388,32 L 22.160133,31.978069 C 22.160133,31.978069 26.997745,27.140456 26.997745,27.140456 C 18.528582,18.264221 13.291696,25.230495 11.500037,31.436501 z"
             style="fill:#404040;"/>
          </a>
         </g>
        </svg>
</svg>
