<?xml version="1.0" encoding="UTF-8" standalone="no"?>
<!DOCTYPE svg PUBLIC "-//W3C//DTD SVG 1.1//EN"
 "http://www.w3.org/Graphics/SVG/1.1/DTD/svg11.dtd">
<!-- Generated by graphviz version 2.43.0 (0)
 -->
<!-- Title: all.hpp Pages: 1 -->
<svg width="1691pt" height="476pt"
 viewBox="0.00 0.00 1691.00 476.00" xmlns="http://www.w3.org/2000/svg" xmlns:xlink="http://www.w3.org/1999/xlink">
<g id="graph0" class="graph" transform="scale(1 1) rotate(0) translate(4 472)">
<title>all.hpp</title>
<!-- Node1 -->
<g id="node1" class="node">
<title>Node1</title>
<g id="a_node1"><a xlink:title=" ">
<polygon fill="#bfbfbf" stroke="black" points="357,-448.5 357,-467.5 407,-467.5 407,-448.5 357,-448.5"/>
<text text-anchor="middle" x="382" y="-455.5" font-family="Helvetica,sans-Serif" font-size="10.00">all.hpp</text>
</a>
</g>
</g>
<!-- Node2 -->
<g id="node2" class="node">
<title>Node2</title>
<g id="a_node2"><a xlink:href="cmd__line_8hpp.html" target="_top" xlink:title=" ">
<polygon fill="none" stroke="black" points="1082,-392.5 1082,-411.5 1164,-411.5 1164,-392.5 1082,-392.5"/>
<text text-anchor="middle" x="1123" y="-399.5" font-family="Helvetica,sans-Serif" font-size="10.00">cmd_line.hpp</text>
</a>
</g>
</g>
<!-- Node1&#45;&gt;Node2 -->
<g id="edge1" class="edge">
<title>Node1&#45;&gt;Node2</title>
<path fill="none" stroke="midnightblue" d="M407.08,-455.17C513.12,-447.44 925.87,-417.37 1071.66,-406.74"/>
<polygon fill="midnightblue" stroke="midnightblue" points="1071.96,-410.23 1081.68,-406.01 1071.46,-403.25 1071.96,-410.23"/>
</g>
<!-- Node4 -->
<g id="node4" class="node">
<title>Node4</title>
<g id="a_node4"><a xlink:href="types_8hpp.html" target="_top" xlink:title=" ">
<polygon fill="none" stroke="black" points="488.5,-56.5 488.5,-75.5 553.5,-75.5 553.5,-56.5 488.5,-56.5"/>
<text text-anchor="middle" x="521" y="-63.5" font-family="Helvetica,sans-Serif" font-size="10.00">types.hpp</text>
</a>
</g>
</g>
<!-- Node1&#45;&gt;Node4 -->
<g id="edge89" class="edge">
<title>Node1&#45;&gt;Node4</title>
<path fill="none" stroke="midnightblue" d="M356.94,-455.24C271.95,-448.6 0,-421.54 0,-347 0,-347 0,-347 0,-177 0,-79.54 353.45,-68 478.11,-66.96"/>
<polygon fill="midnightblue" stroke="midnightblue" points="478.43,-70.46 488.41,-66.9 478.39,-63.46 478.43,-70.46"/>
</g>
<!-- Node3 -->
<g id="node3" class="node">
<title>Node3</title>
<g id="a_node3"><a xlink:href="api_8hpp.html" target="_top" xlink:title=" ">
<polygon fill="none" stroke="black" points="643.5,-336.5 643.5,-355.5 696.5,-355.5 696.5,-336.5 643.5,-336.5"/>
<text text-anchor="middle" x="670" y="-343.5" font-family="Helvetica,sans-Serif" font-size="10.00">api.hpp</text>
</a>
</g>
</g>
<!-- Node2&#45;&gt;Node3 -->
<g id="edge2" class="edge">
<title>Node2&#45;&gt;Node3</title>
<path fill="none" stroke="midnightblue" d="M1081.89,-398.45C1008.48,-393.48 849.9,-380.9 706.51,-355.84"/>
<polygon fill="midnightblue" stroke="midnightblue" points="707.11,-352.39 696.65,-354.1 705.88,-359.29 707.11,-352.39"/>
</g>
<!-- Node7 -->
<g id="node7" class="node">
<title>Node7</title>
<g id="a_node7"><a xlink:title=" ">
<polygon fill="none" stroke="#bfbfbf" points="1526.5,-0.5 1526.5,-19.5 1573.5,-19.5 1573.5,-0.5 1526.5,-0.5"/>
<text text-anchor="middle" x="1550" y="-7.5" font-family="Helvetica,sans-Serif" font-size="10.00">vector</text>
</a>
</g>
</g>
<!-- Node2&#45;&gt;Node7 -->
<g id="edge74" class="edge">
<title>Node2&#45;&gt;Node7</title>
<path fill="none" stroke="midnightblue" d="M1164.18,-401.66C1293.5,-402.63 1683,-396.77 1683,-291 1683,-291 1683,-291 1683,-121 1683,-69.34 1622.69,-37.38 1583.29,-22.01"/>
<polygon fill="midnightblue" stroke="midnightblue" points="1584.37,-18.67 1573.78,-18.45 1581.92,-25.23 1584.37,-18.67"/>
</g>
<!-- Node10 -->
<g id="node10" class="node">
<title>Node10</title>
<g id="a_node10"><a xlink:href="utils_8hpp.html" target="_top" xlink:title=" ">
<polygon fill="none" stroke="black" points="969.5,-112.5 969.5,-131.5 1028.5,-131.5 1028.5,-112.5 969.5,-112.5"/>
<text text-anchor="middle" x="999" y="-119.5" font-family="Helvetica,sans-Serif" font-size="10.00">utils.hpp</text>
</a>
</g>
</g>
<!-- Node2&#45;&gt;Node10 -->
<g id="edge60" class="edge">
<title>Node2&#45;&gt;Node10</title>
<path fill="none" stroke="midnightblue" d="M1164.02,-399.43C1219.59,-396.19 1321.13,-386.28 1402,-356 1446.12,-339.48 1469.12,-341.18 1492,-300 1520.75,-248.24 1518.24,-207.36 1474,-168 1441.77,-139.33 1147.47,-127.52 1038.95,-124.12"/>
<polygon fill="midnightblue" stroke="midnightblue" points="1038.85,-120.61 1028.74,-123.81 1038.63,-127.61 1038.85,-120.61"/>
</g>
<!-- Node12 -->
<g id="node12" class="node">
<title>Node12</title>
<g id="a_node12"><a xlink:title=" ">
<polygon fill="none" stroke="#bfbfbf" points="1271,-56.5 1271,-75.5 1335,-75.5 1335,-56.5 1271,-56.5"/>
<text text-anchor="middle" x="1303" y="-63.5" font-family="Helvetica,sans-Serif" font-size="10.00">algorithm</text>
</a>
</g>
</g>
<!-- Node2&#45;&gt;Node12 -->
<g id="edge75" class="edge">
<title>Node2&#45;&gt;Node12</title>
<path fill="none" stroke="midnightblue" d="M1164.4,-401.07C1287.86,-400.16 1645,-389.06 1645,-291 1645,-291 1645,-291 1645,-177 1645,-114.69 1436.68,-82.64 1345.21,-71.57"/>
<polygon fill="midnightblue" stroke="midnightblue" points="1345.52,-68.08 1335.17,-70.38 1344.69,-75.03 1345.52,-68.08"/>
</g>
<!-- Node15 -->
<g id="node15" class="node">
<title>Node15</title>
<g id="a_node15"><a xlink:href="context_8hpp.html" target="_top" xlink:title=" ">
<polygon fill="none" stroke="black" points="305,-168.5 305,-187.5 379,-187.5 379,-168.5 305,-168.5"/>
<text text-anchor="middle" x="342" y="-175.5" font-family="Helvetica,sans-Serif" font-size="10.00">context.hpp</text>
</a>
</g>
</g>
<!-- Node2&#45;&gt;Node15 -->
<g id="edge61" class="edge">
<title>Node2&#45;&gt;Node15</title>
<path fill="none" stroke="midnightblue" d="M1081.74,-399.38C917.11,-392.52 313.45,-363.16 259,-300 228.16,-264.22 285.54,-216.79 319.52,-193.36"/>
<polygon fill="midnightblue" stroke="midnightblue" points="321.64,-196.16 327.99,-187.68 317.74,-190.34 321.64,-196.16"/>
</g>
<!-- Node17 -->
<g id="node17" class="node">
<title>Node17</title>
<g id="a_node17"><a xlink:href="exceptions_8hpp.html" target="_top" xlink:title=" ">
<polygon fill="none" stroke="black" points="119.5,-112.5 119.5,-131.5 210.5,-131.5 210.5,-112.5 119.5,-112.5"/>
<text text-anchor="middle" x="165" y="-119.5" font-family="Helvetica,sans-Serif" font-size="10.00">exceptions.hpp</text>
</a>
</g>
</g>
<!-- Node2&#45;&gt;Node17 -->
<g id="edge62" class="edge">
<title>Node2&#45;&gt;Node17</title>
<path fill="none" stroke="midnightblue" d="M1081.96,-401.08C888.38,-400.9 76,-394.04 76,-291 76,-291 76,-291 76,-233 76,-190.85 115.99,-155.78 142.36,-137.24"/>
<polygon fill="midnightblue" stroke="midnightblue" points="144.38,-140.1 150.7,-131.6 140.46,-134.3 144.38,-140.1"/>
</g>
<!-- Node23 -->
<g id="node23" class="node">
<title>Node23</title>
<g id="a_node23"><a xlink:title=" ">
<polygon fill="none" stroke="#bfbfbf" points="1407,-168.5 1407,-187.5 1465,-187.5 1465,-168.5 1407,-168.5"/>
<text text-anchor="middle" x="1436" y="-175.5" font-family="Helvetica,sans-Serif" font-size="10.00">memory</text>
</a>
</g>
</g>
<!-- Node2&#45;&gt;Node23 -->
<g id="edge76" class="edge">
<title>Node2&#45;&gt;Node23</title>
<path fill="none" stroke="midnightblue" d="M1164.16,-395.47C1248.73,-383.17 1437.21,-350.57 1474,-300 1497.42,-267.81 1468.8,-220.73 1449.97,-195.86"/>
<polygon fill="midnightblue" stroke="midnightblue" points="1452.53,-193.45 1443.59,-187.76 1447.04,-197.78 1452.53,-193.45"/>
</g>
<!-- Node24 -->
<g id="node24" class="node">
<title>Node24</title>
<g id="a_node24"><a xlink:href="command_8hpp.html" target="_top" xlink:title=" ">
<polygon fill="none" stroke="black" points="664,-280.5 664,-299.5 750,-299.5 750,-280.5 664,-280.5"/>
<text text-anchor="middle" x="707" y="-287.5" font-family="Helvetica,sans-Serif" font-size="10.00">command.hpp</text>
</a>
</g>
</g>
<!-- Node2&#45;&gt;Node24 -->
<g id="edge63" class="edge">
<title>Node2&#45;&gt;Node24</title>
<path fill="none" stroke="midnightblue" d="M1090.7,-392.46C1016.21,-372.76 832.38,-324.15 749.15,-302.15"/>
<polygon fill="midnightblue" stroke="midnightblue" points="749.84,-298.71 739.28,-299.53 748.05,-305.47 749.84,-298.71"/>
</g>
<!-- Node25 -->
<g id="node25" class="node">
<title>Node25</title>
<g id="a_node25"><a xlink:href="help_8hpp.html" target="_top" xlink:title=" ">
<polygon fill="none" stroke="black" points="714.5,-336.5 714.5,-355.5 773.5,-355.5 773.5,-336.5 714.5,-336.5"/>
<text text-anchor="middle" x="744" y="-343.5" font-family="Helvetica,sans-Serif" font-size="10.00">help.hpp</text>
</a>
</g>
</g>
<!-- Node2&#45;&gt;Node25 -->
<g id="edge64" class="edge">
<title>Node2&#45;&gt;Node25</title>
<path fill="none" stroke="midnightblue" d="M1081.72,-395.12C1008.3,-384.66 855.97,-362.95 783.7,-352.66"/>
<polygon fill="midnightblue" stroke="midnightblue" points="784.03,-349.17 773.64,-351.22 783.04,-356.1 784.03,-349.17"/>
</g>
<!-- Node27 -->
<g id="node27" class="node">
<title>Node27</title>
<g id="a_node27"><a xlink:href="help__printer_8hpp.html" target="_top" xlink:title=" ">
<polygon fill="none" stroke="black" points="1196.5,-336.5 1196.5,-355.5 1291.5,-355.5 1291.5,-336.5 1196.5,-336.5"/>
<text text-anchor="middle" x="1244" y="-343.5" font-family="Helvetica,sans-Serif" font-size="10.00">help_printer.hpp</text>
</a>
</g>
</g>
<!-- Node2&#45;&gt;Node27 -->
<g id="edge77" class="edge">
<title>Node2&#45;&gt;Node27</title>
<path fill="none" stroke="midnightblue" d="M1137.33,-392.32C1155.25,-383.47 1186.03,-369.63 1210.02,-359.57"/>
<polygon fill="midnightblue" stroke="midnightblue" points="1211.59,-362.71 1219.5,-355.65 1208.92,-356.24 1211.59,-362.71"/>
</g>
<!-- Node3&#45;&gt;Node4 -->
<g id="edge3" class="edge">
<title>Node3&#45;&gt;Node4</title>
<path fill="none" stroke="midnightblue" d="M643.27,-343.97C544.74,-340.01 205.37,-324.68 164,-300 138.38,-284.72 137.71,-271.84 127,-244 105.76,-188.79 70.52,-156.04 110,-112 134.3,-84.9 378.08,-72.49 478.31,-68.51"/>
<polygon fill="midnightblue" stroke="midnightblue" points="478.54,-72 488.39,-68.12 478.27,-65.01 478.54,-72"/>
</g>
<!-- Node8 -->
<g id="node8" class="node">
<title>Node8</title>
<g id="a_node8"><a xlink:href="arg_8hpp.html" target="_top" xlink:title=" ">
<polygon fill="none" stroke="black" points="522.5,-224.5 522.5,-243.5 575.5,-243.5 575.5,-224.5 522.5,-224.5"/>
<text text-anchor="middle" x="549" y="-231.5" font-family="Helvetica,sans-Serif" font-size="10.00">arg.hpp</text>
</a>
</g>
</g>
<!-- Node3&#45;&gt;Node8 -->
<g id="edge7" class="edge">
<title>Node3&#45;&gt;Node8</title>
<path fill="none" stroke="midnightblue" d="M643.21,-337.42C623.04,-330.52 595.91,-318.55 578,-300 565.42,-286.96 557.73,-267.54 553.47,-253.32"/>
<polygon fill="midnightblue" stroke="midnightblue" points="556.84,-252.39 550.84,-243.65 550.08,-254.22 556.84,-252.39"/>
</g>
<!-- Node20 -->
<g id="node20" class="node">
<title>Node20</title>
<g id="a_node20"><a xlink:href="multi__arg_8hpp.html" target="_top" xlink:title=" ">
<polygon fill="none" stroke="black" points="268,-280.5 268,-299.5 352,-299.5 352,-280.5 268,-280.5"/>
<text text-anchor="middle" x="310" y="-287.5" font-family="Helvetica,sans-Serif" font-size="10.00">multi_arg.hpp</text>
</a>
</g>
</g>
<!-- Node3&#45;&gt;Node20 -->
<g id="edge31" class="edge">
<title>Node3&#45;&gt;Node20</title>
<path fill="none" stroke="midnightblue" d="M643.14,-341.14C590.13,-333.49 468.29,-315.79 366,-300 364.74,-299.81 363.47,-299.61 362.18,-299.41"/>
<polygon fill="midnightblue" stroke="midnightblue" points="362.61,-295.93 352.19,-297.84 361.52,-302.85 362.61,-295.93"/>
</g>
<!-- Node21 -->
<g id="node21" class="node">
<title>Node21</title>
<g id="a_node21"><a xlink:href="groups_8hpp.html" target="_top" xlink:title=" ">
<polygon fill="none" stroke="black" points="1157.5,-280.5 1157.5,-299.5 1228.5,-299.5 1228.5,-280.5 1157.5,-280.5"/>
<text text-anchor="middle" x="1193" y="-287.5" font-family="Helvetica,sans-Serif" font-size="10.00">groups.hpp</text>
</a>
</g>
</g>
<!-- Node3&#45;&gt;Node21 -->
<g id="edge39" class="edge">
<title>Node3&#45;&gt;Node21</title>
<path fill="none" stroke="midnightblue" d="M696.63,-337.82C699.78,-337.13 702.95,-336.5 706,-336 897.68,-304.47 951.65,-327.07 1147.03,-300.13"/>
<polygon fill="midnightblue" stroke="midnightblue" points="1147.63,-303.58 1157.04,-298.72 1146.65,-296.65 1147.63,-303.58"/>
</g>
<!-- Node3&#45;&gt;Node24 -->
<g id="edge52" class="edge">
<title>Node3&#45;&gt;Node24</title>
<path fill="none" stroke="midnightblue" d="M670.94,-336.08C674.6,-328.38 682,-317.03 689.3,-307.65"/>
<polygon fill="midnightblue" stroke="midnightblue" points="692.17,-309.68 695.87,-299.75 686.79,-305.2 692.17,-309.68"/>
</g>
<!-- Node5 -->
<g id="node5" class="node">
<title>Node5</title>
<g id="a_node5"><a xlink:title=" ">
<polygon fill="none" stroke="#bfbfbf" points="464,-0.5 464,-19.5 508,-19.5 508,-0.5 464,-0.5"/>
<text text-anchor="middle" x="486" y="-7.5" font-family="Helvetica,sans-Serif" font-size="10.00">string</text>
</a>
</g>
</g>
<!-- Node4&#45;&gt;Node5 -->
<g id="edge4" class="edge">
<title>Node4&#45;&gt;Node5</title>
<path fill="none" stroke="midnightblue" d="M515.22,-56.08C510.33,-48.53 503.17,-37.49 497.17,-28.23"/>
<polygon fill="midnightblue" stroke="midnightblue" points="500.05,-26.24 491.67,-19.75 494.17,-30.05 500.05,-26.24"/>
</g>
<!-- Node6 -->
<g id="node6" class="node">
<title>Node6</title>
<g id="a_node6"><a xlink:title=" ">
<polygon fill="none" stroke="#bfbfbf" points="526,-0.5 526,-19.5 586,-19.5 586,-0.5 526,-0.5"/>
<text text-anchor="middle" x="556" y="-7.5" font-family="Helvetica,sans-Serif" font-size="10.00">iostream</text>
</a>
</g>
</g>
<!-- Node4&#45;&gt;Node6 -->
<g id="edge5" class="edge">
<title>Node4&#45;&gt;Node6</title>
<path fill="none" stroke="midnightblue" d="M526.78,-56.08C531.67,-48.53 538.83,-37.49 544.83,-28.23"/>
<polygon fill="midnightblue" stroke="midnightblue" points="547.83,-30.05 550.33,-19.75 541.95,-26.24 547.83,-30.05"/>
</g>
<!-- Node4&#45;&gt;Node7 -->
<g id="edge6" class="edge">
<title>Node4&#45;&gt;Node7</title>
<path fill="none" stroke="midnightblue" d="M553.78,-63.28C707.78,-55.2 1358.43,-21.05 1515.68,-12.8"/>
<polygon fill="midnightblue" stroke="midnightblue" points="1516.34,-16.27 1526.14,-12.25 1515.97,-9.28 1516.34,-16.27"/>
</g>
<!-- Node8&#45;&gt;Node4 -->
<g id="edge29" class="edge">
<title>Node8&#45;&gt;Node4</title>
<path fill="none" stroke="midnightblue" d="M536.79,-224.24C526.65,-216.14 512.96,-203.11 507,-188 493.35,-153.38 505.08,-109.19 513.75,-84.94"/>
<polygon fill="midnightblue" stroke="midnightblue" points="517.03,-86.17 517.3,-75.58 510.48,-83.68 517.03,-86.17"/>
</g>
<!-- Node9 -->
<g id="node9" class="node">
<title>Node9</title>
<g id="a_node9"><a xlink:href="arg__iface_8hpp.html" target="_top" xlink:title=" ">
<polygon fill="none" stroke="black" points="773.5,-168.5 773.5,-187.5 856.5,-187.5 856.5,-168.5 773.5,-168.5"/>
<text text-anchor="middle" x="815" y="-175.5" font-family="Helvetica,sans-Serif" font-size="10.00">arg_iface.hpp</text>
</a>
</g>
</g>
<!-- Node8&#45;&gt;Node9 -->
<g id="edge8" class="edge">
<title>Node8&#45;&gt;Node9</title>
<path fill="none" stroke="midnightblue" d="M575.97,-227.53C619.74,-218.64 706.98,-200.93 763.08,-189.54"/>
<polygon fill="midnightblue" stroke="midnightblue" points="764.08,-192.91 773.18,-187.49 762.69,-186.05 764.08,-192.91"/>
</g>
<!-- Node8&#45;&gt;Node10 -->
<g id="edge16" class="edge">
<title>Node8&#45;&gt;Node10</title>
<path fill="none" stroke="midnightblue" d="M575.91,-232.01C631.36,-229.36 761.85,-219.97 866,-188 871.54,-186.3 935.3,-154.72 972.49,-136.22"/>
<polygon fill="midnightblue" stroke="midnightblue" points="974.37,-139.19 981.76,-131.6 971.25,-132.93 974.37,-139.19"/>
</g>
<!-- Node8&#45;&gt;Node12 -->
<g id="edge30" class="edge">
<title>Node8&#45;&gt;Node12</title>
<path fill="none" stroke="midnightblue" d="M575.59,-231.07C634.4,-226.48 779.75,-213.35 899,-188 1038.99,-158.25 1200.73,-103.39 1269.4,-79.11"/>
<polygon fill="midnightblue" stroke="midnightblue" points="1270.97,-82.26 1279.22,-75.62 1268.63,-75.67 1270.97,-82.26"/>
</g>
<!-- Node8&#45;&gt;Node15 -->
<g id="edge17" class="edge">
<title>Node8&#45;&gt;Node15</title>
<path fill="none" stroke="midnightblue" d="M522.36,-226.05C487.46,-216.95 425.84,-200.87 384.46,-190.08"/>
<polygon fill="midnightblue" stroke="midnightblue" points="385.23,-186.66 374.67,-187.52 383.46,-193.43 385.23,-186.66"/>
</g>
<!-- Node8&#45;&gt;Node17 -->
<g id="edge21" class="edge">
<title>Node8&#45;&gt;Node17</title>
<path fill="none" stroke="midnightblue" d="M531.04,-224.47C501.71,-210.83 441.41,-184.02 388,-168 332.08,-151.23 266.39,-138.82 220.85,-131.33"/>
<polygon fill="midnightblue" stroke="midnightblue" points="221.31,-127.86 210.88,-129.71 220.19,-134.77 221.31,-127.86"/>
</g>
<!-- Node19 -->
<g id="node19" class="node">
<title>Node19</title>
<g id="a_node19"><a xlink:href="value__utils_8hpp.html" target="_top" xlink:title=" ">
<polygon fill="none" stroke="black" points="587.5,-168.5 587.5,-187.5 678.5,-187.5 678.5,-168.5 587.5,-168.5"/>
<text text-anchor="middle" x="633" y="-175.5" font-family="Helvetica,sans-Serif" font-size="10.00">value_utils.hpp</text>
</a>
</g>
</g>
<!-- Node8&#45;&gt;Node19 -->
<g id="edge24" class="edge">
<title>Node8&#45;&gt;Node19</title>
<path fill="none" stroke="midnightblue" d="M562.5,-224.32C575.6,-215.9 595.71,-202.97 611.11,-193.07"/>
<polygon fill="midnightblue" stroke="midnightblue" points="613.02,-196.01 619.54,-187.65 609.23,-190.12 613.02,-196.01"/>
</g>
<!-- Node9&#45;&gt;Node4 -->
<g id="edge14" class="edge">
<title>Node9&#45;&gt;Node4</title>
<path fill="none" stroke="midnightblue" d="M814.32,-168.27C812.72,-154.09 807.42,-126.22 790,-112 756.14,-84.36 631.21,-73.18 564.18,-69.1"/>
<polygon fill="midnightblue" stroke="midnightblue" points="564.13,-65.59 553.94,-68.5 563.72,-72.58 564.13,-65.59"/>
</g>
<!-- Node9&#45;&gt;Node10 -->
<g id="edge9" class="edge">
<title>Node9&#45;&gt;Node10</title>
<path fill="none" stroke="midnightblue" d="M844.16,-168.44C875.51,-159.24 925.53,-144.56 960.2,-134.39"/>
<polygon fill="midnightblue" stroke="midnightblue" points="961.37,-137.69 969.98,-131.52 959.4,-130.97 961.37,-137.69"/>
</g>
<!-- Node14 -->
<g id="node14" class="node">
<title>Node14</title>
<g id="a_node14"><a xlink:href="enums_8hpp.html" target="_top" xlink:title=" ">
<polygon fill="none" stroke="black" points="709.5,-112.5 709.5,-131.5 780.5,-131.5 780.5,-112.5 709.5,-112.5"/>
<text text-anchor="middle" x="745" y="-119.5" font-family="Helvetica,sans-Serif" font-size="10.00">enums.hpp</text>
</a>
</g>
</g>
<!-- Node9&#45;&gt;Node14 -->
<g id="edge15" class="edge">
<title>Node9&#45;&gt;Node14</title>
<path fill="none" stroke="midnightblue" d="M803.75,-168.32C793.2,-160.18 777.2,-147.84 764.56,-138.09"/>
<polygon fill="midnightblue" stroke="midnightblue" points="766.51,-135.17 756.45,-131.83 762.23,-140.71 766.51,-135.17"/>
</g>
<!-- Node10&#45;&gt;Node4 -->
<g id="edge11" class="edge">
<title>Node10&#45;&gt;Node4</title>
<path fill="none" stroke="midnightblue" d="M969.46,-117.66C887.94,-108.45 659.57,-82.65 563.95,-71.85"/>
<polygon fill="midnightblue" stroke="midnightblue" points="564.1,-68.35 553.77,-70.7 563.32,-75.3 564.1,-68.35"/>
</g>
<!-- Node11 -->
<g id="node11" class="node">
<title>Node11</title>
<g id="a_node11"><a xlink:title=" ">
<polygon fill="none" stroke="#bfbfbf" points="977,-56.5 977,-75.5 1021,-75.5 1021,-56.5 977,-56.5"/>
<text text-anchor="middle" x="999" y="-63.5" font-family="Helvetica,sans-Serif" font-size="10.00">regex</text>
</a>
</g>
</g>
<!-- Node10&#45;&gt;Node11 -->
<g id="edge10" class="edge">
<title>Node10&#45;&gt;Node11</title>
<path fill="none" stroke="midnightblue" d="M999,-112.08C999,-105.01 999,-94.86 999,-85.99"/>
<polygon fill="midnightblue" stroke="midnightblue" points="1002.5,-85.75 999,-75.75 995.5,-85.75 1002.5,-85.75"/>
</g>
<!-- Node10&#45;&gt;Node12 -->
<g id="edge12" class="edge">
<title>Node10&#45;&gt;Node12</title>
<path fill="none" stroke="midnightblue" d="M1028.7,-115.72C1083.05,-106.07 1198.62,-85.54 1261,-74.46"/>
<polygon fill="midnightblue" stroke="midnightblue" points="1261.66,-77.9 1270.9,-72.7 1260.44,-71.01 1261.66,-77.9"/>
</g>
<!-- Node13 -->
<g id="node13" class="node">
<title>Node13</title>
<g id="a_node13"><a xlink:title=" ">
<polygon fill="none" stroke="#bfbfbf" points="1092.5,-56.5 1092.5,-75.5 1161.5,-75.5 1161.5,-56.5 1092.5,-56.5"/>
<text text-anchor="middle" x="1127" y="-63.5" font-family="Helvetica,sans-Serif" font-size="10.00">type_traits</text>
</a>
</g>
</g>
<!-- Node10&#45;&gt;Node13 -->
<g id="edge13" class="edge">
<title>Node10&#45;&gt;Node13</title>
<path fill="none" stroke="midnightblue" d="M1019.28,-112.44C1040.35,-103.56 1073.52,-89.56 1097.49,-79.45"/>
<polygon fill="midnightblue" stroke="midnightblue" points="1098.96,-82.63 1106.81,-75.52 1096.24,-76.18 1098.96,-82.63"/>
</g>
<!-- Node15&#45;&gt;Node4 -->
<g id="edge20" class="edge">
<title>Node15&#45;&gt;Node4</title>
<path fill="none" stroke="midnightblue" d="M352.56,-168.39C368.82,-155.33 401.26,-130.12 431,-112 450.76,-99.96 474.17,-88.33 492.16,-79.91"/>
<polygon fill="midnightblue" stroke="midnightblue" points="493.93,-82.95 501.54,-75.58 490.99,-76.59 493.93,-82.95"/>
</g>
<!-- Node15&#45;&gt;Node10 -->
<g id="edge19" class="edge">
<title>Node15&#45;&gt;Node10</title>
<path fill="none" stroke="midnightblue" d="M379.21,-173.94C493.83,-164.52 840.95,-135.99 959.11,-126.28"/>
<polygon fill="midnightblue" stroke="midnightblue" points="959.49,-129.76 969.17,-125.45 958.92,-122.78 959.49,-129.76"/>
</g>
<!-- Node16 -->
<g id="node16" class="node">
<title>Node16</title>
<g id="a_node16"><a xlink:title=" ">
<polygon fill="none" stroke="#bfbfbf" points="319.5,-112.5 319.5,-131.5 364.5,-131.5 364.5,-112.5 319.5,-112.5"/>
<text text-anchor="middle" x="342" y="-119.5" font-family="Helvetica,sans-Serif" font-size="10.00">utility</text>
</a>
</g>
</g>
<!-- Node15&#45;&gt;Node16 -->
<g id="edge18" class="edge">
<title>Node15&#45;&gt;Node16</title>
<path fill="none" stroke="midnightblue" d="M342,-168.08C342,-161.01 342,-150.86 342,-141.99"/>
<polygon fill="midnightblue" stroke="midnightblue" points="345.5,-141.75 342,-131.75 338.5,-141.75 345.5,-141.75"/>
</g>
<!-- Node17&#45;&gt;Node4 -->
<g id="edge23" class="edge">
<title>Node17&#45;&gt;Node4</title>
<path fill="none" stroke="midnightblue" d="M210.81,-114.05C279.98,-103.56 410.14,-83.82 477.76,-73.56"/>
<polygon fill="midnightblue" stroke="midnightblue" points="478.69,-76.96 488.05,-72 477.64,-70.04 478.69,-76.96"/>
</g>
<!-- Node18 -->
<g id="node18" class="node">
<title>Node18</title>
<g id="a_node18"><a xlink:title=" ">
<polygon fill="none" stroke="#bfbfbf" points="132.5,-56.5 132.5,-75.5 197.5,-75.5 197.5,-56.5 132.5,-56.5"/>
<text text-anchor="middle" x="165" y="-63.5" font-family="Helvetica,sans-Serif" font-size="10.00">stdexcept</text>
</a>
</g>
</g>
<!-- Node17&#45;&gt;Node18 -->
<g id="edge22" class="edge">
<title>Node17&#45;&gt;Node18</title>
<path fill="none" stroke="midnightblue" d="M165,-112.08C165,-105.01 165,-94.86 165,-85.99"/>
<polygon fill="midnightblue" stroke="midnightblue" points="168.5,-85.75 165,-75.75 161.5,-85.75 168.5,-85.75"/>
</g>
<!-- Node19&#45;&gt;Node4 -->
<g id="edge27" class="edge">
<title>Node19&#45;&gt;Node4</title>
<path fill="none" stroke="midnightblue" d="M624.21,-168.37C605.4,-149.89 561.01,-106.29 537.03,-82.74"/>
<polygon fill="midnightblue" stroke="midnightblue" points="539.33,-80.1 529.75,-75.59 534.43,-85.1 539.33,-80.1"/>
</g>
<!-- Node19&#45;&gt;Node10 -->
<g id="edge25" class="edge">
<title>Node19&#45;&gt;Node10</title>
<path fill="none" stroke="midnightblue" d="M678.61,-170.27C750.98,-159.59 890.87,-138.95 959.33,-128.85"/>
<polygon fill="midnightblue" stroke="midnightblue" points="959.9,-132.31 969.28,-127.38 958.88,-125.38 959.9,-132.31"/>
</g>
<!-- Node19&#45;&gt;Node12 -->
<g id="edge28" class="edge">
<title>Node19&#45;&gt;Node12</title>
<path fill="none" stroke="midnightblue" d="M638.91,-168.32C649.43,-153.69 672.95,-124.48 701,-112 707.41,-109.15 1124.44,-79.57 1260.55,-69.98"/>
<polygon fill="midnightblue" stroke="midnightblue" points="1260.87,-73.47 1270.6,-69.28 1260.38,-66.49 1260.87,-73.47"/>
</g>
<!-- Node19&#45;&gt;Node17 -->
<g id="edge26" class="edge">
<title>Node19&#45;&gt;Node17</title>
<path fill="none" stroke="midnightblue" d="M587.49,-169.98C582.6,-169.29 577.7,-168.61 573,-168 447.38,-151.66 299.48,-136.31 220.82,-128.46"/>
<polygon fill="midnightblue" stroke="midnightblue" points="220.95,-124.96 210.66,-127.45 220.26,-131.92 220.95,-124.96"/>
</g>
<!-- Node20&#45;&gt;Node4 -->
<g id="edge37" class="edge">
<title>Node20&#45;&gt;Node4</title>
<path fill="none" stroke="midnightblue" d="M303.9,-280.19C298.25,-271.46 290.24,-257.48 287,-244 273.06,-186.1 264.29,-150.16 310,-112 335.12,-91.03 424.25,-77.72 478.31,-71.38"/>
<polygon fill="midnightblue" stroke="midnightblue" points="478.76,-74.86 488.3,-70.25 477.97,-67.9 478.76,-74.86"/>
</g>
<!-- Node20&#45;&gt;Node8 -->
<g id="edge32" class="edge">
<title>Node20&#45;&gt;Node8</title>
<path fill="none" stroke="midnightblue" d="M347.87,-280.44C393.05,-270.24 468.05,-253.29 512.58,-243.23"/>
<polygon fill="midnightblue" stroke="midnightblue" points="513.42,-246.63 522.41,-241.01 511.88,-239.8 513.42,-246.63"/>
</g>
<!-- Node20&#45;&gt;Node10 -->
<g id="edge36" class="edge">
<title>Node20&#45;&gt;Node10</title>
<path fill="none" stroke="midnightblue" d="M352.28,-287.66C451.3,-283.27 704.56,-264.8 899,-188 930.23,-175.67 962.02,-152.88 981.13,-137.83"/>
<polygon fill="midnightblue" stroke="midnightblue" points="983.37,-140.51 988.97,-131.52 978.98,-135.06 983.37,-140.51"/>
</g>
<!-- Node20&#45;&gt;Node15 -->
<g id="edge33" class="edge">
<title>Node20&#45;&gt;Node15</title>
<path fill="none" stroke="midnightblue" d="M312.51,-280.37C317.7,-262.54 329.7,-221.3 336.68,-197.27"/>
<polygon fill="midnightblue" stroke="midnightblue" points="340.07,-198.17 339.5,-187.59 333.35,-196.22 340.07,-198.17"/>
</g>
<!-- Node20&#45;&gt;Node16 -->
<g id="edge38" class="edge">
<title>Node20&#45;&gt;Node16</title>
<path fill="none" stroke="midnightblue" d="M306.18,-280.38C297.73,-259.95 279.44,-207.38 296,-168 301.03,-156.05 310.94,-145.69 320.29,-137.93"/>
<polygon fill="midnightblue" stroke="midnightblue" points="322.44,-140.69 328.21,-131.81 318.16,-135.15 322.44,-140.69"/>
</g>
<!-- Node20&#45;&gt;Node17 -->
<g id="edge34" class="edge">
<title>Node20&#45;&gt;Node17</title>
<path fill="none" stroke="midnightblue" d="M296.68,-280.32C284.32,-271.89 265.8,-258.31 252,-244 219.96,-210.77 190.32,-165.08 175.3,-140.45"/>
<polygon fill="midnightblue" stroke="midnightblue" points="178.1,-138.32 169.96,-131.55 172.1,-141.92 178.1,-138.32"/>
</g>
<!-- Node20&#45;&gt;Node19 -->
<g id="edge35" class="edge">
<title>Node20&#45;&gt;Node19</title>
<path fill="none" stroke="midnightblue" d="M335.08,-280.46C392.32,-260.97 532.7,-213.16 598.24,-190.84"/>
<polygon fill="midnightblue" stroke="midnightblue" points="599.38,-194.15 607.72,-187.61 597.12,-187.52 599.38,-194.15"/>
</g>
<!-- Node21&#45;&gt;Node4 -->
<g id="edge50" class="edge">
<title>Node21&#45;&gt;Node4</title>
<path fill="none" stroke="midnightblue" d="M1179.71,-280.28C1167.38,-271.84 1148.87,-258.24 1135,-244 1084.2,-191.85 1101.47,-147.66 1038,-112 957.33,-66.67 673.26,-65.11 564.14,-66.27"/>
<polygon fill="midnightblue" stroke="midnightblue" points="563.79,-62.77 553.83,-66.39 563.88,-69.77 563.79,-62.77"/>
</g>
<!-- Node21&#45;&gt;Node12 -->
<g id="edge51" class="edge">
<title>Node21&#45;&gt;Node12</title>
<path fill="none" stroke="midnightblue" d="M1207.67,-280.45C1220.09,-272.5 1237.52,-259.55 1248,-244 1282.26,-193.18 1295.99,-120 1300.77,-85.87"/>
<polygon fill="midnightblue" stroke="midnightblue" points="1304.25,-86.24 1302.06,-75.88 1297.31,-85.34 1304.25,-86.24"/>
</g>
<!-- Node22 -->
<g id="node22" class="node">
<title>Node22</title>
<g id="a_node22"><a xlink:href="group__iface_8hpp.html" target="_top" xlink:title=" ">
<polygon fill="none" stroke="black" points="1143.5,-224.5 1143.5,-243.5 1238.5,-243.5 1238.5,-224.5 1143.5,-224.5"/>
<text text-anchor="middle" x="1191" y="-231.5" font-family="Helvetica,sans-Serif" font-size="10.00">group_iface.hpp</text>
</a>
</g>
</g>
<!-- Node21&#45;&gt;Node22 -->
<g id="edge40" class="edge">
<title>Node21&#45;&gt;Node22</title>
<path fill="none" stroke="midnightblue" d="M1192.67,-280.08C1192.41,-273.01 1192.03,-262.86 1191.7,-253.99"/>
<polygon fill="midnightblue" stroke="midnightblue" points="1195.19,-253.61 1191.32,-243.75 1188.2,-253.87 1195.19,-253.61"/>
</g>
<!-- Node22&#45;&gt;Node4 -->
<g id="edge44" class="edge">
<title>Node22&#45;&gt;Node4</title>
<path fill="none" stroke="midnightblue" d="M1189.39,-224.36C1184.6,-201.42 1168.17,-138.93 1127,-112 1080.14,-81.35 694.3,-70.59 563.88,-67.81"/>
<polygon fill="midnightblue" stroke="midnightblue" points="563.57,-64.3 553.5,-67.59 563.43,-71.3 563.57,-64.3"/>
</g>
<!-- Node22&#45;&gt;Node7 -->
<g id="edge45" class="edge">
<title>Node22&#45;&gt;Node7</title>
<path fill="none" stroke="midnightblue" d="M1205.07,-224.3C1259.92,-190.38 1459.66,-66.86 1527.37,-24.99"/>
<polygon fill="midnightblue" stroke="midnightblue" points="1529.36,-27.88 1536.02,-19.64 1525.68,-21.93 1529.36,-27.88"/>
</g>
<!-- Node22&#45;&gt;Node9 -->
<g id="edge41" class="edge">
<title>Node22&#45;&gt;Node9</title>
<path fill="none" stroke="midnightblue" d="M1143.38,-226.16C1072.51,-215.98 939.81,-196.92 866.67,-186.42"/>
<polygon fill="midnightblue" stroke="midnightblue" points="867.15,-182.95 856.75,-185 866.15,-189.88 867.15,-182.95"/>
</g>
<!-- Node22&#45;&gt;Node10 -->
<g id="edge42" class="edge">
<title>Node22&#45;&gt;Node10</title>
<path fill="none" stroke="midnightblue" d="M1178.38,-224.36C1159.36,-211.47 1122.07,-186.74 1089,-168 1068.61,-156.45 1044.87,-144.64 1026.9,-136.03"/>
<polygon fill="midnightblue" stroke="midnightblue" points="1028.1,-132.72 1017.56,-131.59 1025.09,-139.04 1028.1,-132.72"/>
</g>
<!-- Node22&#45;&gt;Node12 -->
<g id="edge47" class="edge">
<title>Node22&#45;&gt;Node12</title>
<path fill="none" stroke="midnightblue" d="M1197.02,-224.08C1214.88,-197.61 1267.77,-119.21 1291.39,-84.21"/>
<polygon fill="midnightblue" stroke="midnightblue" points="1294.53,-85.82 1297.22,-75.57 1288.72,-81.9 1294.53,-85.82"/>
</g>
<!-- Node22&#45;&gt;Node13 -->
<g id="edge46" class="edge">
<title>Node22&#45;&gt;Node13</title>
<path fill="none" stroke="midnightblue" d="M1195.15,-224.44C1200.67,-211.86 1209.07,-187.74 1203,-168 1192.28,-133.13 1163.43,-100.95 1144.52,-82.68"/>
<polygon fill="midnightblue" stroke="midnightblue" points="1146.8,-80.01 1137.11,-75.73 1142.01,-85.12 1146.8,-80.01"/>
</g>
<!-- Node22&#45;&gt;Node16 -->
<g id="edge48" class="edge">
<title>Node22&#45;&gt;Node16</title>
<path fill="none" stroke="midnightblue" d="M1143.39,-230.29C1064.31,-225.27 901.1,-212.72 765,-188 730.21,-181.68 722.71,-174.74 688,-168 574.12,-145.89 437,-131.68 375.14,-125.92"/>
<polygon fill="midnightblue" stroke="midnightblue" points="375.11,-122.4 364.83,-124.97 374.47,-129.37 375.11,-122.4"/>
</g>
<!-- Node22&#45;&gt;Node17 -->
<g id="edge43" class="edge">
<title>Node22&#45;&gt;Node17</title>
<path fill="none" stroke="midnightblue" d="M1143.18,-230.84C1039.81,-225.88 787.9,-212.18 578,-188 509.82,-180.15 317,-148.43 220.89,-132.39"/>
<polygon fill="midnightblue" stroke="midnightblue" points="221.22,-128.89 210.78,-130.7 220.07,-135.8 221.22,-128.89"/>
</g>
<!-- Node22&#45;&gt;Node23 -->
<g id="edge49" class="edge">
<title>Node22&#45;&gt;Node23</title>
<path fill="none" stroke="midnightblue" d="M1229.82,-224.44C1275.61,-214.35 1351.27,-197.68 1397.09,-187.58"/>
<polygon fill="midnightblue" stroke="midnightblue" points="1397.94,-190.97 1406.95,-185.4 1396.43,-184.14 1397.94,-190.97"/>
</g>
<!-- Node24&#45;&gt;Node3 -->
<g id="edge53" class="edge">
<title>Node24&#45;&gt;Node3</title>
<path fill="none" stroke="midnightblue" d="M706.13,-299.75C702.53,-307.4 695.16,-318.74 687.86,-328.14"/>
<polygon fill="midnightblue" stroke="midnightblue" points="684.96,-326.15 681.28,-336.08 690.35,-330.62 684.96,-326.15"/>
</g>
<!-- Node24&#45;&gt;Node4 -->
<g id="edge59" class="edge">
<title>Node24&#45;&gt;Node4</title>
<path fill="none" stroke="midnightblue" d="M691.59,-280.26C665.29,-264.68 611.35,-229.8 578,-188 552.39,-155.9 534.96,-110.41 526.63,-85.35"/>
<polygon fill="midnightblue" stroke="midnightblue" points="529.92,-84.13 523.54,-75.67 523.25,-86.26 529.92,-84.13"/>
</g>
<!-- Node24&#45;&gt;Node10 -->
<g id="edge55" class="edge">
<title>Node24&#45;&gt;Node10</title>
<path fill="none" stroke="midnightblue" d="M750.48,-285.03C808.73,-278.95 908.15,-265.72 937,-244 971.14,-218.3 988,-168.43 994.95,-141.43"/>
<polygon fill="midnightblue" stroke="midnightblue" points="998.35,-142.24 997.27,-131.7 991.55,-140.61 998.35,-142.24"/>
</g>
<!-- Node24&#45;&gt;Node14 -->
<g id="edge58" class="edge">
<title>Node24&#45;&gt;Node14</title>
<path fill="none" stroke="midnightblue" d="M709.04,-280.08C715.02,-253.95 732.59,-177.21 740.75,-141.58"/>
<polygon fill="midnightblue" stroke="midnightblue" points="744.22,-142.1 743.04,-131.57 737.4,-140.53 744.22,-142.1"/>
</g>
<!-- Node24&#45;&gt;Node15 -->
<g id="edge56" class="edge">
<title>Node24&#45;&gt;Node15</title>
<path fill="none" stroke="midnightblue" d="M663.79,-280.73C624.18,-272.73 564.1,-259.56 513,-244 462.26,-228.55 404.94,-205.59 371.23,-191.5"/>
<polygon fill="midnightblue" stroke="midnightblue" points="372.54,-188.25 361.96,-187.6 369.82,-194.71 372.54,-188.25"/>
</g>
<!-- Node24&#45;&gt;Node19 -->
<g id="edge57" class="edge">
<title>Node24&#45;&gt;Node19</title>
<path fill="none" stroke="midnightblue" d="M701.19,-280.37C688.98,-262.22 660.45,-219.8 644.43,-195.99"/>
<polygon fill="midnightblue" stroke="midnightblue" points="647.27,-193.94 638.78,-187.59 641.46,-197.84 647.27,-193.94"/>
</g>
<!-- Node24&#45;&gt;Node22 -->
<g id="edge54" class="edge">
<title>Node24&#45;&gt;Node22</title>
<path fill="none" stroke="midnightblue" d="M750.38,-284.16C837.78,-274.41 1035.06,-252.4 1133.24,-241.44"/>
<polygon fill="midnightblue" stroke="midnightblue" points="1133.73,-244.91 1143.28,-240.32 1132.96,-237.95 1133.73,-244.91"/>
</g>
<!-- Node25&#45;&gt;Node4 -->
<g id="edge71" class="edge">
<title>Node25&#45;&gt;Node4</title>
<path fill="none" stroke="midnightblue" d="M715.82,-336.39C660.19,-318.82 539.4,-277.67 513,-244 476.6,-197.57 485.7,-169.48 499,-112 501.23,-102.36 505.82,-92.41 510.24,-84.31"/>
<polygon fill="midnightblue" stroke="midnightblue" points="513.35,-85.92 515.36,-75.52 507.3,-82.4 513.35,-85.92"/>
</g>
<!-- Node25&#45;&gt;Node8 -->
<g id="edge65" class="edge">
<title>Node25&#45;&gt;Node8</title>
<path fill="none" stroke="midnightblue" d="M726.04,-336.46C707.91,-327.7 679.19,-313.5 655,-300 625.28,-283.41 591.96,-262.6 570.75,-249.06"/>
<polygon fill="midnightblue" stroke="midnightblue" points="572.49,-246.02 562.18,-243.56 568.71,-251.91 572.49,-246.02"/>
</g>
<!-- Node25&#45;&gt;Node10 -->
<g id="edge69" class="edge">
<title>Node25&#45;&gt;Node10</title>
<path fill="none" stroke="midnightblue" d="M773.86,-336.88C818.5,-323.55 903.43,-293.45 960,-244 982.28,-224.53 987.01,-216.19 996,-188 1000.78,-173.02 1001.25,-155.11 1000.68,-141.88"/>
<polygon fill="midnightblue" stroke="midnightblue" points="1004.16,-141.41 1000,-131.66 997.17,-141.87 1004.16,-141.41"/>
</g>
<!-- Node25&#45;&gt;Node15 -->
<g id="edge68" class="edge">
<title>Node25&#45;&gt;Node15</title>
<path fill="none" stroke="midnightblue" d="M714.18,-337.71C711.42,-337.11 708.66,-336.53 706,-336 606.22,-316.27 572.07,-343.22 480,-300 426.36,-274.82 377.82,-222.36 355.29,-195.55"/>
<polygon fill="midnightblue" stroke="midnightblue" points="357.73,-193.01 348.67,-187.52 352.33,-197.47 357.73,-193.01"/>
</g>
<!-- Node25&#45;&gt;Node17 -->
<g id="edge70" class="edge">
<title>Node25&#45;&gt;Node17</title>
<path fill="none" stroke="midnightblue" d="M714.22,-337.47C711.45,-336.92 708.68,-336.41 706,-336 489.3,-302.63 419.65,-376.01 214,-300 174.65,-285.45 156.92,-281.45 138,-244 122.77,-213.85 128.98,-200.55 138,-168 140.79,-157.92 146.51,-147.83 151.97,-139.77"/>
<polygon fill="midnightblue" stroke="midnightblue" points="154.82,-141.79 157.85,-131.64 149.15,-137.69 154.82,-141.79"/>
</g>
<!-- Node25&#45;&gt;Node23 -->
<g id="edge73" class="edge">
<title>Node25&#45;&gt;Node23</title>
<path fill="none" stroke="midnightblue" d="M773.75,-344.02C866.71,-340.67 1150.77,-328.33 1238,-300 1310.81,-276.35 1384.62,-221.14 1417.83,-194.26"/>
<polygon fill="midnightblue" stroke="midnightblue" points="1420.22,-196.82 1425.73,-187.77 1415.78,-191.41 1420.22,-196.82"/>
</g>
<!-- Node25&#45;&gt;Node24 -->
<g id="edge72" class="edge">
<title>Node25&#45;&gt;Node24</title>
<path fill="none" stroke="midnightblue" d="M737.89,-336.08C732.72,-328.53 725.15,-317.49 718.81,-308.23"/>
<polygon fill="midnightblue" stroke="midnightblue" points="721.54,-306.02 713,-299.75 715.76,-309.98 721.54,-306.02"/>
</g>
<!-- Node26 -->
<g id="node26" class="node">
<title>Node26</title>
<g id="a_node26"><a xlink:href="help__printer__iface_8hpp.html" target="_top" xlink:title=" ">
<polygon fill="none" stroke="black" points="1014.5,-280.5 1014.5,-299.5 1139.5,-299.5 1139.5,-280.5 1014.5,-280.5"/>
<text text-anchor="middle" x="1077" y="-287.5" font-family="Helvetica,sans-Serif" font-size="10.00">help_printer_iface.hpp</text>
</a>
</g>
</g>
<!-- Node25&#45;&gt;Node26 -->
<g id="edge66" class="edge">
<title>Node25&#45;&gt;Node26</title>
<path fill="none" stroke="midnightblue" d="M773.55,-340.21C827.33,-331.49 942.28,-312.85 1014.25,-301.18"/>
<polygon fill="midnightblue" stroke="midnightblue" points="1015.23,-304.56 1024.54,-299.51 1014.11,-297.65 1015.23,-304.56"/>
</g>
<!-- Node26&#45;&gt;Node10 -->
<g id="edge67" class="edge">
<title>Node26&#45;&gt;Node10</title>
<path fill="none" stroke="midnightblue" d="M1076.98,-280.41C1076.55,-259.63 1073.22,-205.53 1051,-168 1043.78,-155.8 1032.07,-145.24 1021.59,-137.41"/>
<polygon fill="midnightblue" stroke="midnightblue" points="1023.39,-134.4 1013.2,-131.51 1019.36,-140.13 1023.39,-134.4"/>
</g>
<!-- Node27&#45;&gt;Node2 -->
<g id="edge88" class="edge">
<title>Node27&#45;&gt;Node2</title>
<path fill="none" stroke="midnightblue" d="M1230,-355.52C1212.07,-364.39 1180.96,-378.38 1156.8,-388.5"/>
<polygon fill="midnightblue" stroke="midnightblue" points="1155.17,-385.39 1147.26,-392.44 1157.84,-391.86 1155.17,-385.39"/>
</g>
<!-- Node27&#45;&gt;Node4 -->
<g id="edge86" class="edge">
<title>Node27&#45;&gt;Node4</title>
<path fill="none" stroke="midnightblue" d="M1261.66,-336.44C1321.21,-307.02 1509.04,-209.64 1474,-168 1414.52,-97.32 741.08,-73.26 563.64,-68.13"/>
<polygon fill="midnightblue" stroke="midnightblue" points="563.73,-64.63 553.63,-67.84 563.53,-71.63 563.73,-64.63"/>
</g>
<!-- Node27&#45;&gt;Node7 -->
<g id="edge78" class="edge">
<title>Node27&#45;&gt;Node7</title>
<path fill="none" stroke="midnightblue" d="M1291.83,-344.41C1390.4,-340.41 1607,-316.04 1607,-179 1607,-179 1607,-179 1607,-121 1607,-84.3 1581.68,-47.66 1564.79,-27.3"/>
<polygon fill="midnightblue" stroke="midnightblue" points="1567.35,-24.9 1558.17,-19.62 1562.05,-29.48 1567.35,-24.9"/>
</g>
<!-- Node27&#45;&gt;Node10 -->
<g id="edge81" class="edge">
<title>Node27&#45;&gt;Node10</title>
<path fill="none" stroke="midnightblue" d="M1247.58,-336.32C1255.8,-314.86 1273.45,-258.51 1248,-224 1198.22,-156.49 1095.53,-133.99 1038.81,-126.57"/>
<polygon fill="midnightblue" stroke="midnightblue" points="1039.13,-123.09 1028.78,-125.36 1038.28,-130.04 1039.13,-123.09"/>
</g>
<!-- Node27&#45;&gt;Node12 -->
<g id="edge79" class="edge">
<title>Node27&#45;&gt;Node12</title>
<path fill="none" stroke="midnightblue" d="M1291.62,-341.44C1350.98,-336.06 1447.83,-323.84 1474,-300 1512.37,-265.06 1499.59,-239.36 1507,-188 1508.27,-179.2 1511.69,-175.55 1507,-168 1471.68,-111.11 1393.74,-85.28 1345.08,-74.32"/>
<polygon fill="midnightblue" stroke="midnightblue" points="1345.67,-70.87 1335.16,-72.2 1344.21,-77.71 1345.67,-70.87"/>
</g>
<!-- Node27&#45;&gt;Node17 -->
<g id="edge82" class="edge">
<title>Node27&#45;&gt;Node17</title>
<path fill="none" stroke="midnightblue" d="M1196.41,-344.07C1004.99,-340.15 299.7,-324.14 259,-300 200.42,-265.25 176.47,-180.15 168.44,-142.02"/>
<polygon fill="midnightblue" stroke="midnightblue" points="171.79,-140.95 166.43,-131.81 164.92,-142.29 171.79,-140.95"/>
</g>
<!-- Node27&#45;&gt;Node21 -->
<g id="edge84" class="edge">
<title>Node27&#45;&gt;Node21</title>
<path fill="none" stroke="midnightblue" d="M1235.58,-336.08C1228.15,-328.22 1217.15,-316.57 1208.19,-307.08"/>
<polygon fill="midnightblue" stroke="midnightblue" points="1210.68,-304.62 1201.26,-299.75 1205.59,-309.42 1210.68,-304.62"/>
</g>
<!-- Node27&#45;&gt;Node22 -->
<g id="edge83" class="edge">
<title>Node27&#45;&gt;Node22</title>
<path fill="none" stroke="midnightblue" d="M1245.07,-336.07C1246.23,-323.04 1246.87,-298.37 1238,-280 1232.23,-268.04 1221.85,-257.57 1212.3,-249.75"/>
<polygon fill="midnightblue" stroke="midnightblue" points="1214.34,-246.9 1204.27,-243.59 1210.08,-252.45 1214.34,-246.9"/>
</g>
<!-- Node27&#45;&gt;Node24 -->
<g id="edge85" class="edge">
<title>Node27&#45;&gt;Node24</title>
<path fill="none" stroke="midnightblue" d="M1196.34,-340.21C1096.23,-330.14 864.7,-306.86 760.05,-296.33"/>
<polygon fill="midnightblue" stroke="midnightblue" points="760.33,-292.84 750.03,-295.33 759.63,-299.81 760.33,-292.84"/>
</g>
<!-- Node27&#45;&gt;Node26 -->
<g id="edge87" class="edge">
<title>Node27&#45;&gt;Node26</title>
<path fill="none" stroke="midnightblue" d="M1217.54,-336.44C1189.32,-327.32 1144.46,-312.81 1113.03,-302.65"/>
<polygon fill="midnightblue" stroke="midnightblue" points="1113.93,-299.26 1103.34,-299.52 1111.78,-305.92 1113.93,-299.26"/>
</g>
<!-- Node28 -->
<g id="node28" class="node">
<title>Node28</title>
<g id="a_node28"><a xlink:title=" ">
<polygon fill="none" stroke="#bfbfbf" points="1399.5,-280.5 1399.5,-299.5 1464.5,-299.5 1464.5,-280.5 1399.5,-280.5"/>
<text text-anchor="middle" x="1432" y="-287.5" font-family="Helvetica,sans-Serif" font-size="10.00">functional</text>
</a>
</g>
</g>
<!-- Node27&#45;&gt;Node28 -->
<g id="edge80" class="edge">
<title>Node27&#45;&gt;Node28</title>
<path fill="none" stroke="midnightblue" d="M1273.79,-336.44C1305.83,-327.24 1356.93,-312.56 1392.35,-302.39"/>
<polygon fill="midnightblue" stroke="midnightblue" points="1393.71,-305.64 1402.35,-299.52 1391.77,-298.91 1393.71,-305.64"/>
</g>
</g>
</svg>
