<?xml version="1.0" encoding="UTF-8" standalone="no"?>
<!DOCTYPE svg PUBLIC "-//W3C//DTD SVG 1.1//EN"
 "http://www.w3.org/Graphics/SVG/1.1/DTD/svg11.dtd">
<!-- Generated by graphviz version 2.38.0 (20140413.2041)
 -->
<!-- Title: all.hpp Pages: 1 -->
<svg width="1796pt" height="476pt"
 viewBox="0.00 0.00 1796.00 476.00" xmlns="http://www.w3.org/2000/svg" xmlns:xlink="http://www.w3.org/1999/xlink">
<g id="graph0" class="graph" transform="scale(1 1) rotate(0) translate(4 472)">
<title>all.hpp</title>
<!-- Node1 -->
<g id="node1" class="node"><title>Node1</title>
<polygon fill="#bfbfbf" stroke="black" points="438,-448.5 438,-467.5 482,-467.5 482,-448.5 438,-448.5"/>
<text text-anchor="middle" x="460" y="-455.5" font-family="FreeSans" font-size="10.00">all.hpp</text>
</g>
<!-- Node2 -->
<g id="node2" class="node"><title>Node2</title>
<g id="a_node2"><a xlink:href="cmd__line_8hpp.html" target="_top" xlink:title="cmd_line.hpp">
<polygon fill="none" stroke="black" points="958,-392.5 958,-411.5 1032,-411.5 1032,-392.5 958,-392.5"/>
<text text-anchor="middle" x="995" y="-399.5" font-family="FreeSans" font-size="10.00">cmd_line.hpp</text>
</a>
</g>
</g>
<!-- Node1&#45;&gt;Node2 -->
<g id="edge1" class="edge"><title>Node1&#45;&gt;Node2</title>
<path fill="none" stroke="midnightblue" d="M482.307,-454.748C562.387,-446.666 836.494,-418.999 947.627,-407.782"/>
<polygon fill="midnightblue" stroke="midnightblue" points="948.263,-411.235 957.861,-406.749 947.56,-404.271 948.263,-411.235"/>
</g>
<!-- Node4 -->
<g id="node4" class="node"><title>Node4</title>
<g id="a_node4"><a xlink:href="types_8hpp.html" target="_top" xlink:title="types.hpp">
<polygon fill="none" stroke="black" points="733.5,-56.5 733.5,-75.5 790.5,-75.5 790.5,-56.5 733.5,-56.5"/>
<text text-anchor="middle" x="762" y="-63.5" font-family="FreeSans" font-size="10.00">types.hpp</text>
</a>
</g>
</g>
<!-- Node1&#45;&gt;Node4 -->
<g id="edge92" class="edge"><title>Node1&#45;&gt;Node4</title>
<path fill="none" stroke="midnightblue" d="M437.813,-456.518C345.927,-453.932 0,-438.145 0,-347 0,-347 0,-347 0,-177 0,-101.068 84.1077,-129.483 158,-112 266.159,-86.4095 607.564,-72.3971 723.239,-68.2914"/>
<polygon fill="midnightblue" stroke="midnightblue" points="723.527,-71.7836 733.399,-67.9358 723.282,-64.7879 723.527,-71.7836"/>
</g>
<!-- Node3 -->
<g id="node3" class="node"><title>Node3</title>
<g id="a_node3"><a xlink:href="api_8hpp.html" target="_top" xlink:title="api.hpp">
<polygon fill="none" stroke="black" points="571.5,-336.5 571.5,-355.5 618.5,-355.5 618.5,-336.5 571.5,-336.5"/>
<text text-anchor="middle" x="595" y="-343.5" font-family="FreeSans" font-size="10.00">api.hpp</text>
</a>
</g>
</g>
<!-- Node2&#45;&gt;Node3 -->
<g id="edge2" class="edge"><title>Node2&#45;&gt;Node3</title>
<path fill="none" stroke="midnightblue" d="M957.814,-396.055C895.987,-387.822 768.147,-370.751 660,-356 649.863,-354.617 638.839,-353.097 628.798,-351.706"/>
<polygon fill="midnightblue" stroke="midnightblue" points="629.155,-348.222 618.769,-350.315 628.193,-355.156 629.155,-348.222"/>
</g>
<!-- Node7 -->
<g id="node7" class="node"><title>Node7</title>
<polygon fill="none" stroke="#bfbfbf" points="1690.5,-0.5 1690.5,-19.5 1733.5,-19.5 1733.5,-0.5 1690.5,-0.5"/>
<text text-anchor="middle" x="1712" y="-7.5" font-family="FreeSans" font-size="10.00">vector</text>
</g>
<!-- Node2&#45;&gt;Node7 -->
<g id="edge78" class="edge"><title>Node2&#45;&gt;Node7</title>
<path fill="none" stroke="midnightblue" d="M1032.3,-399.84C1149.78,-395.952 1511.04,-382.128 1625,-356 1701.02,-338.571 1788,-368.992 1788,-291 1788,-291 1788,-291 1788,-121 1788,-81.2757 1754.04,-45.5045 1731.52,-26.1536"/>
<polygon fill="midnightblue" stroke="midnightblue" points="1733.48,-23.2364 1723.54,-19.5672 1729.02,-28.6337 1733.48,-23.2364"/>
</g>
<!-- Node10 -->
<g id="node10" class="node"><title>Node10</title>
<g id="a_node10"><a xlink:href="utils_8hpp.html" target="_top" xlink:title="utils.hpp">
<polygon fill="none" stroke="black" points="1046,-112.5 1046,-131.5 1098,-131.5 1098,-112.5 1046,-112.5"/>
<text text-anchor="middle" x="1072" y="-119.5" font-family="FreeSans" font-size="10.00">utils.hpp</text>
</a>
</g>
</g>
<!-- Node2&#45;&gt;Node10 -->
<g id="edge59" class="edge"><title>Node2&#45;&gt;Node10</title>
<path fill="none" stroke="midnightblue" d="M1032.27,-398.175C1163.73,-387.717 1598,-348.797 1598,-291 1598,-291 1598,-291 1598,-233 1598,-132.703 1226.96,-123.287 1108.14,-122.843"/>
<polygon fill="midnightblue" stroke="midnightblue" points="1108.09,-119.343 1098.08,-122.825 1108.08,-126.343 1108.09,-119.343"/>
</g>
<!-- Node12 -->
<g id="node12" class="node"><title>Node12</title>
<polygon fill="none" stroke="#bfbfbf" points="1494,-56.5 1494,-75.5 1550,-75.5 1550,-56.5 1494,-56.5"/>
<text text-anchor="middle" x="1522" y="-63.5" font-family="FreeSans" font-size="10.00">algorithm</text>
</g>
<!-- Node2&#45;&gt;Node12 -->
<g id="edge79" class="edge"><title>Node2&#45;&gt;Node12</title>
<path fill="none" stroke="midnightblue" d="M1032.18,-399.552C1184.15,-393.152 1750,-364.391 1750,-291 1750,-291 1750,-291 1750,-233 1750,-140.279 1625.24,-93.9 1560.3,-76.0387"/>
<polygon fill="midnightblue" stroke="midnightblue" points="1560.98,-72.5986 1550.42,-73.4142 1559.18,-79.364 1560.98,-72.5986"/>
</g>
<!-- Node15 -->
<g id="node15" class="node"><title>Node15</title>
<g id="a_node15"><a xlink:href="context_8hpp.html" target="_top" xlink:title="context.hpp">
<polygon fill="none" stroke="black" points="652,-168.5 652,-187.5 718,-187.5 718,-168.5 652,-168.5"/>
<text text-anchor="middle" x="685" y="-175.5" font-family="FreeSans" font-size="10.00">context.hpp</text>
</a>
</g>
</g>
<!-- Node2&#45;&gt;Node15 -->
<g id="edge60" class="edge"><title>Node2&#45;&gt;Node15</title>
<path fill="none" stroke="midnightblue" d="M957.889,-393.056C907.778,-380.7 818.077,-352.633 760,-300 727.165,-270.243 703.534,-222.814 692.321,-197.064"/>
<polygon fill="midnightblue" stroke="midnightblue" points="695.509,-195.616 688.402,-187.758 689.058,-198.333 695.509,-195.616"/>
</g>
<!-- Node17 -->
<g id="node17" class="node"><title>Node17</title>
<g id="a_node17"><a xlink:href="exceptions_8hpp.html" target="_top" xlink:title="exceptions.hpp">
<polygon fill="none" stroke="black" points="188,-112.5 188,-131.5 268,-131.5 268,-112.5 188,-112.5"/>
<text text-anchor="middle" x="228" y="-119.5" font-family="FreeSans" font-size="10.00">exceptions.hpp</text>
</a>
</g>
</g>
<!-- Node2&#45;&gt;Node17 -->
<g id="edge61" class="edge"><title>Node2&#45;&gt;Node17</title>
<path fill="none" stroke="midnightblue" d="M957.836,-400.528C785.906,-397.863 76,-381.387 76,-291 76,-291 76,-291 76,-233 76,-179.437 138.712,-149.3 183.573,-134.593"/>
<polygon fill="midnightblue" stroke="midnightblue" points="184.63,-137.93 193.128,-131.602 182.539,-131.25 184.63,-137.93"/>
</g>
<!-- Node23 -->
<g id="node23" class="node"><title>Node23</title>
<polygon fill="none" stroke="#bfbfbf" points="1138.5,-168.5 1138.5,-187.5 1189.5,-187.5 1189.5,-168.5 1138.5,-168.5"/>
<text text-anchor="middle" x="1164" y="-175.5" font-family="FreeSans" font-size="10.00">memory</text>
</g>
<!-- Node2&#45;&gt;Node23 -->
<g id="edge80" class="edge"><title>Node2&#45;&gt;Node23</title>
<path fill="none" stroke="midnightblue" d="M1003.28,-392.433C1019.54,-375.442 1056.44,-336.005 1084,-300 1111.04,-264.671 1138.86,-220.48 1153.5,-196.482"/>
<polygon fill="midnightblue" stroke="midnightblue" points="1156.58,-198.156 1158.77,-187.789 1150.59,-194.528 1156.58,-198.156"/>
</g>
<!-- Node25 -->
<g id="node25" class="node"><title>Node25</title>
<g id="a_node25"><a xlink:href="command_8hpp.html" target="_top" xlink:title="command.hpp">
<polygon fill="none" stroke="black" points="998.5,-280.5 998.5,-299.5 1075.5,-299.5 1075.5,-280.5 998.5,-280.5"/>
<text text-anchor="middle" x="1037" y="-287.5" font-family="FreeSans" font-size="10.00">command.hpp</text>
</a>
</g>
</g>
<!-- Node2&#45;&gt;Node25 -->
<g id="edge62" class="edge"><title>Node2&#45;&gt;Node25</title>
<path fill="none" stroke="midnightblue" d="M998.296,-392.368C1005.13,-374.456 1020.99,-332.923 1030.15,-308.948"/>
<polygon fill="midnightblue" stroke="midnightblue" points="1033.42,-310.182 1033.72,-299.591 1026.88,-307.685 1033.42,-310.182"/>
</g>
<!-- Node26 -->
<g id="node26" class="node"><title>Node26</title>
<g id="a_node26"><a xlink:href="help_8hpp.html" target="_top" xlink:title="help.hpp">
<polygon fill="none" stroke="black" points="769.5,-280.5 769.5,-299.5 822.5,-299.5 822.5,-280.5 769.5,-280.5"/>
<text text-anchor="middle" x="796" y="-287.5" font-family="FreeSans" font-size="10.00">help.hpp</text>
</a>
</g>
</g>
<!-- Node2&#45;&gt;Node26 -->
<g id="edge69" class="edge"><title>Node2&#45;&gt;Node26</title>
<path fill="none" stroke="midnightblue" d="M979.385,-392.368C944.873,-373.292 861.891,-327.422 820.433,-304.505"/>
<polygon fill="midnightblue" stroke="midnightblue" points="821.988,-301.366 811.543,-299.591 818.601,-307.492 821.988,-301.366"/>
</g>
<!-- Node28 -->
<g id="node28" class="node"><title>Node28</title>
<g id="a_node28"><a xlink:href="help__printer_8hpp.html" target="_top" xlink:title="help_printer.hpp">
<polygon fill="none" stroke="black" points="1287.5,-336.5 1287.5,-355.5 1372.5,-355.5 1372.5,-336.5 1287.5,-336.5"/>
<text text-anchor="middle" x="1330" y="-343.5" font-family="FreeSans" font-size="10.00">help_printer.hpp</text>
</a>
</g>
</g>
<!-- Node2&#45;&gt;Node28 -->
<g id="edge81" class="edge"><title>Node2&#45;&gt;Node28</title>
<path fill="none" stroke="midnightblue" d="M1032.13,-395.015C1091.76,-385.403 1209.08,-366.492 1277.33,-355.489"/>
<polygon fill="midnightblue" stroke="midnightblue" points="1278.13,-358.907 1287.44,-353.86 1277.01,-351.996 1278.13,-358.907"/>
</g>
<!-- Node3&#45;&gt;Node4 -->
<g id="edge3" class="edge"><title>Node3&#45;&gt;Node4</title>
<path fill="none" stroke="midnightblue" d="M571.481,-343.402C487.386,-337.156 203.757,-311.325 150,-244 145.079,-237.837 141.197,-211.675 152,-168 158.634,-141.178 156.184,-127.585 179,-112 223.799,-81.3986 600.299,-70.5259 723.297,-67.7715"/>
<polygon fill="midnightblue" stroke="midnightblue" points="723.469,-71.2686 733.391,-67.551 723.317,-64.2703 723.469,-71.2686"/>
</g>
<!-- Node8 -->
<g id="node8" class="node"><title>Node8</title>
<g id="a_node8"><a xlink:href="arg_8hpp.html" target="_top" xlink:title="arg.hpp">
<polygon fill="none" stroke="black" points="598,-224.5 598,-243.5 646,-243.5 646,-224.5 598,-224.5"/>
<text text-anchor="middle" x="622" y="-231.5" font-family="FreeSans" font-size="10.00">arg.hpp</text>
</a>
</g>
</g>
<!-- Node3&#45;&gt;Node8 -->
<g id="edge7" class="edge"><title>Node3&#45;&gt;Node8</title>
<path fill="none" stroke="midnightblue" d="M597.953,-336.449C600.99,-327.453 605.727,-312.844 609,-300 612.912,-284.647 616.376,-267.009 618.743,-253.983"/>
<polygon fill="midnightblue" stroke="midnightblue" points="622.231,-254.354 620.524,-243.897 615.338,-253.136 622.231,-254.354"/>
</g>
<!-- Node20 -->
<g id="node20" class="node"><title>Node20</title>
<g id="a_node20"><a xlink:href="multi__arg_8hpp.html" target="_top" xlink:title="multi_arg.hpp">
<polygon fill="none" stroke="black" points="526,-280.5 526,-299.5 600,-299.5 600,-280.5 526,-280.5"/>
<text text-anchor="middle" x="563" y="-287.5" font-family="FreeSans" font-size="10.00">multi_arg.hpp</text>
</a>
</g>
</g>
<!-- Node3&#45;&gt;Node20 -->
<g id="edge31" class="edge"><title>Node3&#45;&gt;Node20</title>
<path fill="none" stroke="midnightblue" d="M589.716,-336.083C585.289,-328.613 578.837,-317.724 573.382,-308.52"/>
<polygon fill="midnightblue" stroke="midnightblue" points="576.295,-306.57 568.186,-299.751 570.273,-310.138 576.295,-306.57"/>
</g>
<!-- Node21 -->
<g id="node21" class="node"><title>Node21</title>
<g id="a_node21"><a xlink:href="groups_8hpp.html" target="_top" xlink:title="groups.hpp">
<polygon fill="none" stroke="black" points="1298.5,-280.5 1298.5,-299.5 1361.5,-299.5 1361.5,-280.5 1298.5,-280.5"/>
<text text-anchor="middle" x="1330" y="-287.5" font-family="FreeSans" font-size="10.00">groups.hpp</text>
</a>
</g>
</g>
<!-- Node3&#45;&gt;Node21 -->
<g id="edge39" class="edge"><title>Node3&#45;&gt;Node21</title>
<path fill="none" stroke="midnightblue" d="M618.622,-343.264C723.992,-335.523 1151.89,-304.086 1288.12,-294.077"/>
<polygon fill="midnightblue" stroke="midnightblue" points="1288.45,-297.562 1298.17,-293.339 1287.94,-290.581 1288.45,-297.562"/>
</g>
<!-- Node24 -->
<g id="node24" class="node"><title>Node24</title>
<g id="a_node24"><a xlink:href="arg__as__command_8hpp.html" target="_top" xlink:title="arg_as_command.hpp">
<polygon fill="none" stroke="black" points="240.5,-224.5 240.5,-243.5 351.5,-243.5 351.5,-224.5 240.5,-224.5"/>
<text text-anchor="middle" x="296" y="-231.5" font-family="FreeSans" font-size="10.00">arg_as_command.hpp</text>
</a>
</g>
</g>
<!-- Node3&#45;&gt;Node24 -->
<g id="edge52" class="edge"><title>Node3&#45;&gt;Node24</title>
<path fill="none" stroke="midnightblue" d="M571.538,-336.368C518.592,-316.89 389.72,-269.479 328.86,-247.089"/>
<polygon fill="midnightblue" stroke="midnightblue" points="329.947,-243.759 319.353,-243.591 327.53,-250.329 329.947,-243.759"/>
</g>
<!-- Node5 -->
<g id="node5" class="node"><title>Node5</title>
<polygon fill="none" stroke="#bfbfbf" points="710,-0.5 710,-19.5 750,-19.5 750,-0.5 710,-0.5"/>
<text text-anchor="middle" x="730" y="-7.5" font-family="FreeSans" font-size="10.00">string</text>
</g>
<!-- Node4&#45;&gt;Node5 -->
<g id="edge4" class="edge"><title>Node4&#45;&gt;Node5</title>
<path fill="none" stroke="midnightblue" d="M756.716,-56.083C752.289,-48.6127 745.837,-37.7244 740.382,-28.5199"/>
<polygon fill="midnightblue" stroke="midnightblue" points="743.295,-26.5697 735.186,-19.7511 737.273,-30.1383 743.295,-26.5697"/>
</g>
<!-- Node6 -->
<g id="node6" class="node"><title>Node6</title>
<polygon fill="none" stroke="#bfbfbf" points="768.5,-0.5 768.5,-19.5 821.5,-19.5 821.5,-0.5 768.5,-0.5"/>
<text text-anchor="middle" x="795" y="-7.5" font-family="FreeSans" font-size="10.00">iostream</text>
</g>
<!-- Node4&#45;&gt;Node6 -->
<g id="edge5" class="edge"><title>Node4&#45;&gt;Node6</title>
<path fill="none" stroke="midnightblue" d="M767.449,-56.083C772.014,-48.6127 778.668,-37.7244 784.293,-28.5199"/>
<polygon fill="midnightblue" stroke="midnightblue" points="787.424,-30.109 789.652,-19.7511 781.451,-26.4588 787.424,-30.109"/>
</g>
<!-- Node4&#45;&gt;Node7 -->
<g id="edge6" class="edge"><title>Node4&#45;&gt;Node7</title>
<path fill="none" stroke="midnightblue" d="M790.69,-63.3692C929.891,-55.4567 1534.15,-21.1094 1680.16,-12.8101"/>
<polygon fill="midnightblue" stroke="midnightblue" points="1680.46,-16.2987 1690.24,-12.2368 1680.06,-9.31002 1680.46,-16.2987"/>
</g>
<!-- Node8&#45;&gt;Node4 -->
<g id="edge29" class="edge"><title>Node8&#45;&gt;Node4</title>
<path fill="none" stroke="midnightblue" d="M599.685,-224.446C583.685,-217.158 562.929,-205.123 551,-188 531.452,-159.942 517.343,-138.464 539,-112 561.841,-84.0889 665.589,-73.099 723.179,-69.0923"/>
<polygon fill="midnightblue" stroke="midnightblue" points="723.616,-72.5712 733.365,-68.4229 723.157,-65.5862 723.616,-72.5712"/>
</g>
<!-- Node9 -->
<g id="node9" class="node"><title>Node9</title>
<g id="a_node9"><a xlink:href="arg__iface_8hpp.html" target="_top" xlink:title="arg_iface.hpp">
<polygon fill="none" stroke="black" points="560,-168.5 560,-187.5 634,-187.5 634,-168.5 560,-168.5"/>
<text text-anchor="middle" x="597" y="-175.5" font-family="FreeSans" font-size="10.00">arg_iface.hpp</text>
</a>
</g>
</g>
<!-- Node8&#45;&gt;Node9 -->
<g id="edge8" class="edge"><title>Node8&#45;&gt;Node9</title>
<path fill="none" stroke="midnightblue" d="M617.872,-224.083C614.486,-216.77 609.584,-206.181 605.381,-197.103"/>
<polygon fill="midnightblue" stroke="midnightblue" points="608.429,-195.355 601.051,-187.751 602.077,-198.296 608.429,-195.355"/>
</g>
<!-- Node8&#45;&gt;Node10 -->
<g id="edge16" class="edge"><title>Node8&#45;&gt;Node10</title>
<path fill="none" stroke="midnightblue" d="M646.016,-232.147C699.69,-229.691 832.986,-220.538 939,-188 944.54,-186.3 1008.3,-154.724 1045.49,-136.219"/>
<polygon fill="midnightblue" stroke="midnightblue" points="1047.37,-139.192 1054.76,-131.602 1044.25,-132.926 1047.37,-139.192"/>
</g>
<!-- Node8&#45;&gt;Node12 -->
<g id="edge30" class="edge"><title>Node8&#45;&gt;Node12</title>
<path fill="none" stroke="midnightblue" d="M646.368,-230.634C703.612,-224.912 851.037,-209.215 973,-188 1166.54,-154.334 1395.13,-98.8067 1484,-76.6071"/>
<polygon fill="midnightblue" stroke="midnightblue" points="1485.04,-79.9551 1493.89,-74.1304 1483.34,-73.1648 1485.04,-79.9551"/>
</g>
<!-- Node8&#45;&gt;Node15 -->
<g id="edge17" class="edge"><title>Node8&#45;&gt;Node15</title>
<path fill="none" stroke="midnightblue" d="M632.122,-224.324C641.526,-216.263 655.744,-204.077 667.069,-194.369"/>
<polygon fill="midnightblue" stroke="midnightblue" points="669.379,-196.999 674.694,-187.834 664.823,-191.684 669.379,-196.999"/>
</g>
<!-- Node8&#45;&gt;Node17 -->
<g id="edge21" class="edge"><title>Node8&#45;&gt;Node17</title>
<path fill="none" stroke="midnightblue" d="M597.843,-229.235C557.324,-222.648 473.293,-207.826 404,-188 351.413,-172.954 292.087,-149.679 257.49,-135.445"/>
<polygon fill="midnightblue" stroke="midnightblue" points="258.575,-132.106 247.997,-131.51 255.895,-138.573 258.575,-132.106"/>
</g>
<!-- Node19 -->
<g id="node19" class="node"><title>Node19</title>
<g id="a_node19"><a xlink:href="value__utils_8hpp.html" target="_top" xlink:title="value_utils.hpp">
<polygon fill="none" stroke="black" points="850,-168.5 850,-187.5 930,-187.5 930,-168.5 850,-168.5"/>
<text text-anchor="middle" x="890" y="-175.5" font-family="FreeSans" font-size="10.00">value_utils.hpp</text>
</a>
</g>
</g>
<!-- Node8&#45;&gt;Node19 -->
<g id="edge24" class="edge"><title>Node8&#45;&gt;Node19</title>
<path fill="none" stroke="midnightblue" d="M646.256,-228.113C689.771,-219.345 781.931,-200.775 839.629,-189.149"/>
<polygon fill="midnightblue" stroke="midnightblue" points="840.519,-192.54 849.631,-187.134 839.136,-185.678 840.519,-192.54"/>
</g>
<!-- Node9&#45;&gt;Node4 -->
<g id="edge14" class="edge"><title>Node9&#45;&gt;Node4</title>
<path fill="none" stroke="midnightblue" d="M603.375,-168.371C613.745,-154.832 635.488,-128.449 659,-112 679.199,-97.8685 704.545,-86.7259 725.039,-79.0635"/>
<polygon fill="midnightblue" stroke="midnightblue" points="726.451,-82.2747 734.666,-75.5837 724.072,-75.6915 726.451,-82.2747"/>
</g>
<!-- Node9&#45;&gt;Node10 -->
<g id="edge9" class="edge"><title>Node9&#45;&gt;Node10</title>
<path fill="none" stroke="midnightblue" d="M634.108,-169.447C637.111,-168.925 640.103,-168.434 643,-168 787.705,-146.298 961.43,-131.51 1035.58,-125.723"/>
<polygon fill="midnightblue" stroke="midnightblue" points="1036.08,-129.195 1045.78,-124.935 1035.54,-122.216 1036.08,-129.195"/>
</g>
<!-- Node14 -->
<g id="node14" class="node"><title>Node14</title>
<g id="a_node14"><a xlink:href="enums_8hpp.html" target="_top" xlink:title="enums.hpp">
<polygon fill="none" stroke="black" points="548.5,-112.5 548.5,-131.5 611.5,-131.5 611.5,-112.5 548.5,-112.5"/>
<text text-anchor="middle" x="580" y="-119.5" font-family="FreeSans" font-size="10.00">enums.hpp</text>
</a>
</g>
</g>
<!-- Node9&#45;&gt;Node14 -->
<g id="edge15" class="edge"><title>Node9&#45;&gt;Node14</title>
<path fill="none" stroke="midnightblue" d="M594.193,-168.083C591.915,-160.849 588.629,-150.409 585.792,-141.397"/>
<polygon fill="midnightblue" stroke="midnightblue" points="589.096,-140.239 582.755,-131.751 582.419,-142.341 589.096,-140.239"/>
</g>
<!-- Node10&#45;&gt;Node4 -->
<g id="edge11" class="edge"><title>Node10&#45;&gt;Node4</title>
<path fill="none" stroke="midnightblue" d="M1045.84,-116.443C991.219,-106.928 864.842,-84.9144 800.759,-73.7516"/>
<polygon fill="midnightblue" stroke="midnightblue" points="801.111,-70.2603 790.659,-71.9922 799.91,-77.1564 801.111,-70.2603"/>
</g>
<!-- Node11 -->
<g id="node11" class="node"><title>Node11</title>
<polygon fill="none" stroke="#bfbfbf" points="1052,-56.5 1052,-75.5 1092,-75.5 1092,-56.5 1052,-56.5"/>
<text text-anchor="middle" x="1072" y="-63.5" font-family="FreeSans" font-size="10.00">regex</text>
</g>
<!-- Node10&#45;&gt;Node11 -->
<g id="edge10" class="edge"><title>Node10&#45;&gt;Node11</title>
<path fill="none" stroke="midnightblue" d="M1072,-112.083C1072,-105.006 1072,-94.8611 1072,-85.9865"/>
<polygon fill="midnightblue" stroke="midnightblue" points="1075.5,-85.751 1072,-75.7511 1068.5,-85.7511 1075.5,-85.751"/>
</g>
<!-- Node10&#45;&gt;Node12 -->
<g id="edge12" class="edge"><title>Node10&#45;&gt;Node12</title>
<path fill="none" stroke="midnightblue" d="M1098.14,-117.863C1174.01,-108.759 1394.54,-82.2949 1483.82,-71.5822"/>
<polygon fill="midnightblue" stroke="midnightblue" points="1484.27,-75.0525 1493.78,-70.3858 1483.44,-68.1023 1484.27,-75.0525"/>
</g>
<!-- Node13 -->
<g id="node13" class="node"><title>Node13</title>
<polygon fill="none" stroke="#bfbfbf" points="1262.5,-56.5 1262.5,-75.5 1323.5,-75.5 1323.5,-56.5 1262.5,-56.5"/>
<text text-anchor="middle" x="1293" y="-63.5" font-family="FreeSans" font-size="10.00">type_traits</text>
</g>
<!-- Node10&#45;&gt;Node13 -->
<g id="edge13" class="edge"><title>Node10&#45;&gt;Node13</title>
<path fill="none" stroke="midnightblue" d="M1098.22,-114.593C1136.38,-105.269 1207.56,-87.8771 1252.49,-76.8979"/>
<polygon fill="midnightblue" stroke="midnightblue" points="1253.33,-80.2968 1262.21,-74.5231 1251.67,-73.4968 1253.33,-80.2968"/>
</g>
<!-- Node15&#45;&gt;Node4 -->
<g id="edge20" class="edge"><title>Node15&#45;&gt;Node4</title>
<path fill="none" stroke="midnightblue" d="M691.042,-168.368C703.749,-150.215 733.439,-107.802 750.107,-83.9902"/>
<polygon fill="midnightblue" stroke="midnightblue" points="753.119,-85.7909 755.986,-75.5914 747.384,-81.7766 753.119,-85.7909"/>
</g>
<!-- Node15&#45;&gt;Node10 -->
<g id="edge19" class="edge"><title>Node15&#45;&gt;Node10</title>
<path fill="none" stroke="midnightblue" d="M718.33,-172.349C790.502,-162.279 960.752,-138.523 1035.61,-128.078"/>
<polygon fill="midnightblue" stroke="midnightblue" points="1036.52,-131.485 1045.94,-126.637 1035.55,-124.552 1036.52,-131.485"/>
</g>
<!-- Node16 -->
<g id="node16" class="node"><title>Node16</title>
<polygon fill="none" stroke="#bfbfbf" points="668.5,-112.5 668.5,-131.5 707.5,-131.5 707.5,-112.5 668.5,-112.5"/>
<text text-anchor="middle" x="688" y="-119.5" font-family="FreeSans" font-size="10.00">utility</text>
</g>
<!-- Node15&#45;&gt;Node16 -->
<g id="edge18" class="edge"><title>Node15&#45;&gt;Node16</title>
<path fill="none" stroke="midnightblue" d="M685.495,-168.083C685.889,-161.006 686.452,-150.861 686.945,-141.986"/>
<polygon fill="midnightblue" stroke="midnightblue" points="690.454,-141.93 687.514,-131.751 683.464,-141.542 690.454,-141.93"/>
</g>
<!-- Node17&#45;&gt;Node4 -->
<g id="edge23" class="edge"><title>Node17&#45;&gt;Node4</title>
<path fill="none" stroke="midnightblue" d="M268.317,-114.855C275.529,-113.839 282.981,-112.844 290,-112 450.539,-92.707 642.607,-76.5271 723.301,-70.0418"/>
<polygon fill="midnightblue" stroke="midnightblue" points="723.794,-73.5137 733.483,-69.2275 723.236,-66.5359 723.794,-73.5137"/>
</g>
<!-- Node18 -->
<g id="node18" class="node"><title>Node18</title>
<polygon fill="none" stroke="#bfbfbf" points="199,-56.5 199,-75.5 257,-75.5 257,-56.5 199,-56.5"/>
<text text-anchor="middle" x="228" y="-63.5" font-family="FreeSans" font-size="10.00">stdexcept</text>
</g>
<!-- Node17&#45;&gt;Node18 -->
<g id="edge22" class="edge"><title>Node17&#45;&gt;Node18</title>
<path fill="none" stroke="midnightblue" d="M228,-112.083C228,-105.006 228,-94.8611 228,-85.9865"/>
<polygon fill="midnightblue" stroke="midnightblue" points="231.5,-85.751 228,-75.7511 224.5,-85.7511 231.5,-85.751"/>
</g>
<!-- Node19&#45;&gt;Node4 -->
<g id="edge27" class="edge"><title>Node19&#45;&gt;Node4</title>
<path fill="none" stroke="midnightblue" d="M884.14,-168.219C874.98,-154.938 856.215,-129.444 836,-112 821.619,-99.5902 803.412,-88.47 788.656,-80.3887"/>
<polygon fill="midnightblue" stroke="midnightblue" points="790.005,-77.1418 779.532,-75.5339 786.716,-83.3214 790.005,-77.1418"/>
</g>
<!-- Node19&#45;&gt;Node10 -->
<g id="edge25" class="edge"><title>Node19&#45;&gt;Node10</title>
<path fill="none" stroke="midnightblue" d="M918.838,-168.444C950.677,-158.997 1001.96,-143.781 1036.31,-133.59"/>
<polygon fill="midnightblue" stroke="midnightblue" points="1037.36,-136.929 1045.95,-130.729 1035.37,-130.218 1037.36,-136.929"/>
</g>
<!-- Node19&#45;&gt;Node12 -->
<g id="edge28" class="edge"><title>Node19&#45;&gt;Node12</title>
<path fill="none" stroke="midnightblue" d="M904.859,-168.473C930.75,-154.069 986.228,-125.204 1037,-112 1121.39,-90.053 1384.58,-74.2622 1483.71,-68.9523"/>
<polygon fill="midnightblue" stroke="midnightblue" points="1484.08,-72.4379 1493.88,-68.4138 1483.71,-65.4477 1484.08,-72.4379"/>
</g>
<!-- Node19&#45;&gt;Node17 -->
<g id="edge26" class="edge"><title>Node19&#45;&gt;Node17</title>
<path fill="none" stroke="midnightblue" d="M849.585,-173.703C734.496,-164.315 405.176,-137.452 278.499,-127.119"/>
<polygon fill="midnightblue" stroke="midnightblue" points="278.557,-123.612 268.305,-126.288 277.988,-130.589 278.557,-123.612"/>
</g>
<!-- Node20&#45;&gt;Node4 -->
<g id="edge37" class="edge"><title>Node20&#45;&gt;Node4</title>
<path fill="none" stroke="midnightblue" d="M556.803,-280.454C537.479,-252.685 482.105,-163.805 525,-112 549.693,-82.1774 662.35,-71.9594 723.023,-68.5841"/>
<polygon fill="midnightblue" stroke="midnightblue" points="723.555,-72.0613 733.36,-68.0474 723.192,-65.0707 723.555,-72.0613"/>
</g>
<!-- Node20&#45;&gt;Node8 -->
<g id="edge32" class="edge"><title>Node20&#45;&gt;Node8</title>
<path fill="none" stroke="midnightblue" d="M572.479,-280.324C581.201,-272.341 594.343,-260.313 604.898,-250.653"/>
<polygon fill="midnightblue" stroke="midnightblue" points="607.334,-253.167 612.348,-243.834 602.608,-248.004 607.334,-253.167"/>
</g>
<!-- Node20&#45;&gt;Node10 -->
<g id="edge36" class="edge"><title>Node20&#45;&gt;Node10</title>
<path fill="none" stroke="midnightblue" d="M600.273,-284.142C673.968,-273.614 842.472,-244.926 973,-188 989.043,-181.003 1027.53,-154.565 1051.52,-137.638"/>
<polygon fill="midnightblue" stroke="midnightblue" points="1053.79,-140.317 1059.92,-131.677 1049.74,-134.607 1053.79,-140.317"/>
</g>
<!-- Node20&#45;&gt;Node15 -->
<g id="edge33" class="edge"><title>Node20&#45;&gt;Node15</title>
<path fill="none" stroke="midnightblue" d="M564.371,-280.327C566.934,-266.728 573.65,-240.264 589,-224 603.524,-208.611 624.363,-197.968 642.916,-190.913"/>
<polygon fill="midnightblue" stroke="midnightblue" points="644.121,-194.199 652.365,-187.544 641.77,-187.606 644.121,-194.199"/>
</g>
<!-- Node20&#45;&gt;Node16 -->
<g id="edge38" class="edge"><title>Node20&#45;&gt;Node16</title>
<path fill="none" stroke="midnightblue" d="M558.59,-280.368C548.36,-259.006 525.743,-202.88 551,-168 563.729,-150.421 622.059,-136.012 658.382,-128.543"/>
<polygon fill="midnightblue" stroke="midnightblue" points="659.309,-131.927 668.43,-126.537 657.939,-125.062 659.309,-131.927"/>
</g>
<!-- Node20&#45;&gt;Node17 -->
<g id="edge34" class="edge"><title>Node20&#45;&gt;Node17</title>
<path fill="none" stroke="midnightblue" d="M525.787,-287.436C433.349,-283.172 199.053,-269.889 176,-244 153.537,-218.774 161.958,-198.721 176,-168 181.777,-155.36 193.052,-144.911 203.631,-137.274"/>
<polygon fill="midnightblue" stroke="midnightblue" points="205.849,-140.001 212.217,-131.533 201.958,-134.182 205.849,-140.001"/>
</g>
<!-- Node20&#45;&gt;Node19 -->
<g id="edge35" class="edge"><title>Node20&#45;&gt;Node19</title>
<path fill="none" stroke="midnightblue" d="M588.387,-280.46C646.336,-260.966 788.454,-213.159 854.806,-190.839"/>
<polygon fill="midnightblue" stroke="midnightblue" points="856.042,-194.116 864.404,-187.61 853.81,-187.481 856.042,-194.116"/>
</g>
<!-- Node21&#45;&gt;Node4 -->
<g id="edge50" class="edge"><title>Node21&#45;&gt;Node4</title>
<path fill="none" stroke="midnightblue" d="M1345.58,-280.297C1364.9,-268.318 1393.81,-245.752 1381,-224 1326.12,-130.822 1268.86,-142.111 1165,-112 1035.46,-74.4451 874.112,-67.8974 801.108,-66.9802"/>
<polygon fill="midnightblue" stroke="midnightblue" points="801.026,-63.4793 790.992,-66.8827 800.958,-70.479 801.026,-63.4793"/>
</g>
<!-- Node21&#45;&gt;Node12 -->
<g id="edge51" class="edge"><title>Node21&#45;&gt;Node12</title>
<path fill="none" stroke="midnightblue" d="M1353.78,-280.488C1372.12,-273.024 1397.28,-260.741 1415,-244 1465.38,-196.401 1500.62,-119.949 1514.91,-85.2189"/>
<polygon fill="midnightblue" stroke="midnightblue" points="1518.19,-86.4424 1518.66,-75.8582 1511.69,-83.8364 1518.19,-86.4424"/>
</g>
<!-- Node22 -->
<g id="node22" class="node"><title>Node22</title>
<g id="a_node22"><a xlink:href="group__iface_8hpp.html" target="_top" xlink:title="group_iface.hpp">
<polygon fill="none" stroke="black" points="1287.5,-224.5 1287.5,-243.5 1372.5,-243.5 1372.5,-224.5 1287.5,-224.5"/>
<text text-anchor="middle" x="1330" y="-231.5" font-family="FreeSans" font-size="10.00">group_iface.hpp</text>
</a>
</g>
</g>
<!-- Node21&#45;&gt;Node22 -->
<g id="edge40" class="edge"><title>Node21&#45;&gt;Node22</title>
<path fill="none" stroke="midnightblue" d="M1330,-280.083C1330,-273.006 1330,-262.861 1330,-253.986"/>
<polygon fill="midnightblue" stroke="midnightblue" points="1333.5,-253.751 1330,-243.751 1326.5,-253.751 1333.5,-253.751"/>
</g>
<!-- Node22&#45;&gt;Node4 -->
<g id="edge44" class="edge"><title>Node22&#45;&gt;Node4</title>
<path fill="none" stroke="midnightblue" d="M1321.6,-224.369C1308.02,-210.828 1279.96,-184.443 1252,-168 1102.33,-79.9728 887.607,-67.8363 800.703,-66.7437"/>
<polygon fill="midnightblue" stroke="midnightblue" points="800.538,-63.2424 790.51,-66.66 800.481,-70.2421 800.538,-63.2424"/>
</g>
<!-- Node22&#45;&gt;Node7 -->
<g id="edge45" class="edge"><title>Node22&#45;&gt;Node7</title>
<path fill="none" stroke="midnightblue" d="M1344.97,-224.297C1403.46,-190.31 1616.75,-66.3564 1688.37,-24.7351"/>
<polygon fill="midnightblue" stroke="midnightblue" points="1690.24,-27.6933 1697.13,-19.6425 1686.72,-21.6411 1690.24,-27.6933"/>
</g>
<!-- Node22&#45;&gt;Node9 -->
<g id="edge41" class="edge"><title>Node22&#45;&gt;Node9</title>
<path fill="none" stroke="midnightblue" d="M1287.49,-225.234C1284.28,-224.773 1281.09,-224.354 1278,-224 1000.45,-192.22 925.228,-222.494 644.172,-187.963"/>
<polygon fill="midnightblue" stroke="midnightblue" points="644.443,-184.47 634.087,-186.707 643.578,-191.416 644.443,-184.47"/>
</g>
<!-- Node22&#45;&gt;Node10 -->
<g id="edge42" class="edge"><title>Node22&#45;&gt;Node10</title>
<path fill="none" stroke="midnightblue" d="M1317.4,-224.402C1297.18,-210.906 1255.9,-184.581 1218,-168 1181.81,-152.166 1138.31,-139.524 1108.26,-131.72"/>
<polygon fill="midnightblue" stroke="midnightblue" points="1108.78,-128.241 1098.22,-129.164 1107.05,-135.024 1108.78,-128.241"/>
</g>
<!-- Node22&#45;&gt;Node12 -->
<g id="edge47" class="edge"><title>Node22&#45;&gt;Node12</title>
<path fill="none" stroke="midnightblue" d="M1340.05,-224.309C1370.9,-197.64 1464.5,-116.716 1504.05,-82.5186"/>
<polygon fill="midnightblue" stroke="midnightblue" points="1506.77,-84.7931 1512.05,-75.6051 1502.19,-79.4978 1506.77,-84.7931"/>
</g>
<!-- Node22&#45;&gt;Node13 -->
<g id="edge46" class="edge"><title>Node22&#45;&gt;Node13</title>
<path fill="none" stroke="midnightblue" d="M1334.23,-224.305C1343.62,-203.725 1363.98,-150.845 1346,-112 1340.08,-99.2072 1328.53,-88.7216 1317.72,-81.1003"/>
<polygon fill="midnightblue" stroke="midnightblue" points="1319.62,-78.1581 1309.33,-75.613 1315.79,-84.0161 1319.62,-78.1581"/>
</g>
<!-- Node22&#45;&gt;Node16 -->
<g id="edge48" class="edge"><title>Node22&#45;&gt;Node16</title>
<path fill="none" stroke="midnightblue" d="M1309.82,-224.447C1289.8,-215.798 1258.39,-201.775 1232,-188 1216.46,-179.887 1214.7,-173.346 1198,-168 1107.52,-139.031 812.553,-127.065 717.68,-123.905"/>
<polygon fill="midnightblue" stroke="midnightblue" points="717.734,-120.405 707.626,-123.578 717.507,-127.401 717.734,-120.405"/>
</g>
<!-- Node22&#45;&gt;Node17 -->
<g id="edge43" class="edge"><title>Node22&#45;&gt;Node17</title>
<path fill="none" stroke="midnightblue" d="M1287.49,-225.209C1284.29,-224.754 1281.1,-224.343 1278,-224 956.463,-188.348 872.022,-228.022 551,-188 449.916,-175.398 333.162,-148.874 271.456,-133.896"/>
<polygon fill="midnightblue" stroke="midnightblue" points="272.22,-130.479 261.675,-131.506 270.558,-137.279 272.22,-130.479"/>
</g>
<!-- Node22&#45;&gt;Node23 -->
<g id="edge49" class="edge"><title>Node22&#45;&gt;Node23</title>
<path fill="none" stroke="midnightblue" d="M1303.7,-224.444C1275.48,-215.266 1230.53,-200.642 1199.27,-190.472"/>
<polygon fill="midnightblue" stroke="midnightblue" points="1200.23,-187.104 1189.63,-187.339 1198.06,-193.761 1200.23,-187.104"/>
</g>
<!-- Node24&#45;&gt;Node2 -->
<g id="edge56" class="edge"><title>Node24&#45;&gt;Node2</title>
<path fill="none" stroke="midnightblue" d="M310.328,-243.658C332.359,-256.777 376.091,-282.063 415,-300 478.492,-329.269 493.988,-339.805 562,-356 699.561,-388.756 867.335,-397.669 947.681,-400.094"/>
<polygon fill="midnightblue" stroke="midnightblue" points="947.869,-403.6 957.964,-400.383 948.066,-396.603 947.869,-403.6"/>
</g>
<!-- Node24&#45;&gt;Node4 -->
<g id="edge58" class="edge"><title>Node24&#45;&gt;Node4</title>
<path fill="none" stroke="midnightblue" d="M298.093,-224.423C304.143,-201.648 323.972,-139.52 366,-112 424.198,-73.892 635.28,-67.886 723.174,-67.0629"/>
<polygon fill="midnightblue" stroke="midnightblue" points="723.291,-70.5622 733.264,-66.9864 723.238,-63.5624 723.291,-70.5622"/>
</g>
<!-- Node24&#45;&gt;Node9 -->
<g id="edge53" class="edge"><title>Node24&#45;&gt;Node9</title>
<path fill="none" stroke="midnightblue" d="M343.694,-224.444C400.187,-214.309 493.698,-197.533 549.92,-187.446"/>
<polygon fill="midnightblue" stroke="midnightblue" points="550.742,-190.855 559.967,-185.644 549.506,-183.965 550.742,-190.855"/>
</g>
<!-- Node24&#45;&gt;Node10 -->
<g id="edge54" class="edge"><title>Node24&#45;&gt;Node10</title>
<path fill="none" stroke="midnightblue" d="M323.231,-224.49C369.529,-210.378 466.767,-182.275 551,-168 731.265,-137.451 950.331,-127.118 1035.6,-124.099"/>
<polygon fill="midnightblue" stroke="midnightblue" points="1035.91,-127.59 1045.79,-123.751 1035.67,-120.595 1035.91,-127.59"/>
</g>
<!-- Node24&#45;&gt;Node14 -->
<g id="edge57" class="edge"><title>Node24&#45;&gt;Node14</title>
<path fill="none" stroke="midnightblue" d="M318.285,-224.368C368.471,-204.93 490.477,-157.674 548.43,-135.228"/>
<polygon fill="midnightblue" stroke="midnightblue" points="549.758,-138.467 557.819,-131.591 547.229,-131.94 549.758,-138.467"/>
</g>
<!-- Node24&#45;&gt;Node17 -->
<g id="edge55" class="edge"><title>Node24&#45;&gt;Node17</title>
<path fill="none" stroke="midnightblue" d="M285.274,-224.36C275.457,-215.965 261.111,-202.406 252,-188 242.858,-173.544 236.467,-155.095 232.592,-141.547"/>
<polygon fill="midnightblue" stroke="midnightblue" points="235.877,-140.279 229.923,-131.515 229.112,-142.079 235.877,-140.279"/>
</g>
<!-- Node25&#45;&gt;Node4 -->
<g id="edge68" class="edge"><title>Node25&#45;&gt;Node4</title>
<path fill="none" stroke="midnightblue" d="M1021.46,-280.357C998.54,-267.682 954.264,-243.448 916,-224 883.039,-207.247 868.799,-212.379 841,-188 823.206,-172.395 788.73,-114.069 771.827,-84.468"/>
<polygon fill="midnightblue" stroke="midnightblue" points="774.794,-82.6063 766.817,-75.634 768.705,-86.0592 774.794,-82.6063"/>
</g>
<!-- Node25&#45;&gt;Node10 -->
<g id="edge64" class="edge"><title>Node25&#45;&gt;Node10</title>
<path fill="none" stroke="midnightblue" d="M1042.91,-280.321C1054,-263.449 1077.58,-224.659 1086,-188 1089.63,-172.199 1085.06,-154.17 1080.2,-141.115"/>
<polygon fill="midnightblue" stroke="midnightblue" points="1083.43,-139.765 1076.39,-131.848 1076.96,-142.428 1083.43,-139.765"/>
</g>
<!-- Node25&#45;&gt;Node14 -->
<g id="edge67" class="edge"><title>Node25&#45;&gt;Node14</title>
<path fill="none" stroke="midnightblue" d="M1016.53,-280.363C967.185,-259.686 837.573,-206.222 727,-168 691.122,-155.598 649.735,-143.086 620.035,-134.415"/>
<polygon fill="midnightblue" stroke="midnightblue" points="620.625,-130.942 610.046,-131.515 618.673,-137.664 620.625,-130.942"/>
</g>
<!-- Node25&#45;&gt;Node15 -->
<g id="edge65" class="edge"><title>Node25&#45;&gt;Node15</title>
<path fill="none" stroke="midnightblue" d="M1008.11,-280.431C978.064,-271.48 929.671,-256.963 888,-244 829.365,-225.76 761.452,-203.856 720.925,-190.702"/>
<polygon fill="midnightblue" stroke="midnightblue" points="721.826,-187.314 711.234,-187.553 719.663,-193.972 721.826,-187.314"/>
</g>
<!-- Node25&#45;&gt;Node19 -->
<g id="edge66" class="edge"><title>Node25&#45;&gt;Node19</title>
<path fill="none" stroke="midnightblue" d="M1038.78,-280.31C1041.04,-266.687 1043.19,-240.192 1030,-224 1008.34,-197.412 970.873,-186.337 940.144,-181.815"/>
<polygon fill="midnightblue" stroke="midnightblue" points="940.377,-178.316 930.014,-180.519 939.489,-185.26 940.377,-178.316"/>
</g>
<!-- Node25&#45;&gt;Node22 -->
<g id="edge63" class="edge"><title>Node25&#45;&gt;Node22</title>
<path fill="none" stroke="midnightblue" d="M1075.61,-281.885C1127.21,-272.375 1218.88,-255.479 1276.94,-244.778"/>
<polygon fill="midnightblue" stroke="midnightblue" points="1277.82,-248.175 1287.02,-242.921 1276.55,-241.291 1277.82,-248.175"/>
</g>
<!-- Node26&#45;&gt;Node4 -->
<g id="edge76" class="edge"><title>Node26&#45;&gt;Node4</title>
<path fill="none" stroke="midnightblue" d="M794.667,-280.297C789.664,-247.633 771.934,-131.866 764.903,-85.9573"/>
<polygon fill="midnightblue" stroke="midnightblue" points="768.334,-85.2386 763.361,-75.8837 761.415,-86.2984 768.334,-85.2386"/>
</g>
<!-- Node26&#45;&gt;Node8 -->
<g id="edge70" class="edge"><title>Node26&#45;&gt;Node8</title>
<path fill="none" stroke="midnightblue" d="M769.194,-280.681C738.698,-271.216 688.847,-255.745 655.733,-245.469"/>
<polygon fill="midnightblue" stroke="midnightblue" points="656.621,-242.08 646.033,-242.459 654.547,-248.765 656.621,-242.08"/>
</g>
<!-- Node26&#45;&gt;Node10 -->
<g id="edge74" class="edge"><title>Node26&#45;&gt;Node10</title>
<path fill="none" stroke="midnightblue" d="M821.689,-280.384C863.598,-265.59 948.197,-232.589 1010,-188 1029.27,-174.097 1047.57,-153.716 1059.22,-139.494"/>
<polygon fill="midnightblue" stroke="midnightblue" points="1062.06,-141.546 1065.57,-131.549 1056.59,-137.177 1062.06,-141.546"/>
</g>
<!-- Node26&#45;&gt;Node15 -->
<g id="edge73" class="edge"><title>Node26&#45;&gt;Node15</title>
<path fill="none" stroke="midnightblue" d="M787.29,-280.368C768.648,-261.894 724.65,-218.293 700.887,-194.744"/>
<polygon fill="midnightblue" stroke="midnightblue" points="703.236,-192.144 693.67,-187.591 698.309,-197.117 703.236,-192.144"/>
</g>
<!-- Node26&#45;&gt;Node17 -->
<g id="edge75" class="edge"><title>Node26&#45;&gt;Node17</title>
<path fill="none" stroke="midnightblue" d="M769.246,-287.354C658.381,-280.474 240.387,-253.915 231,-244 204.97,-216.506 214.094,-167.776 221.783,-141.321"/>
<polygon fill="midnightblue" stroke="midnightblue" points="225.126,-142.358 224.784,-131.769 218.448,-140.26 225.126,-142.358"/>
</g>
<!-- Node26&#45;&gt;Node23 -->
<g id="edge77" class="edge"><title>Node26&#45;&gt;Node23</title>
<path fill="none" stroke="midnightblue" d="M822.611,-281.62C854.058,-272.852 907.932,-257.688 954,-244 1015.51,-225.723 1086.81,-203.416 1128.51,-190.256"/>
<polygon fill="midnightblue" stroke="midnightblue" points="1129.71,-193.545 1138.19,-187.195 1127.6,-186.87 1129.71,-193.545"/>
</g>
<!-- Node27 -->
<g id="node27" class="node"><title>Node27</title>
<g id="a_node27"><a xlink:href="help__printer__iface_8hpp.html" target="_top" xlink:title="help_printer_iface.hpp">
<polygon fill="none" stroke="black" points="1158.5,-224.5 1158.5,-243.5 1269.5,-243.5 1269.5,-224.5 1158.5,-224.5"/>
<text text-anchor="middle" x="1214" y="-231.5" font-family="FreeSans" font-size="10.00">help_printer_iface.hpp</text>
</a>
</g>
</g>
<!-- Node26&#45;&gt;Node27 -->
<g id="edge71" class="edge"><title>Node26&#45;&gt;Node27</title>
<path fill="none" stroke="midnightblue" d="M822.784,-285.54C887.653,-277.16 1054.71,-255.578 1148.19,-243.502"/>
<polygon fill="midnightblue" stroke="midnightblue" points="1148.91,-246.938 1158.38,-242.185 1148.01,-239.995 1148.91,-246.938"/>
</g>
<!-- Node27&#45;&gt;Node10 -->
<g id="edge72" class="edge"><title>Node27&#45;&gt;Node10</title>
<path fill="none" stroke="midnightblue" d="M1214.32,-224.233C1214.33,-210.506 1212.33,-183.869 1198,-168 1174.98,-142.514 1136.53,-131.457 1108.14,-126.663"/>
<polygon fill="midnightblue" stroke="midnightblue" points="1108.6,-123.192 1098.19,-125.165 1107.55,-130.114 1108.6,-123.192"/>
</g>
<!-- Node28&#45;&gt;Node4 -->
<g id="edge90" class="edge"><title>Node28&#45;&gt;Node4</title>
<path fill="none" stroke="midnightblue" d="M1339.07,-336.307C1347.75,-327.663 1360.84,-313.742 1370,-300 1385.33,-277.009 1390.85,-270.937 1397,-244 1405.37,-207.376 1389.09,-191.767 1360,-168 1308.42,-125.864 1285.69,-127.855 1221,-112 1068.61,-74.6507 880.585,-68.1133 800.762,-67.1013"/>
<polygon fill="midnightblue" stroke="midnightblue" points="800.713,-63.6007 790.677,-66.9961 800.64,-70.6003 800.713,-63.6007"/>
</g>
<!-- Node28&#45;&gt;Node7 -->
<g id="edge82" class="edge"><title>Node28&#45;&gt;Node7</title>
<path fill="none" stroke="midnightblue" d="M1372.73,-344.307C1415.15,-341.658 1480.29,-332.106 1526,-300 1628.12,-228.273 1687.53,-80.8419 1705.85,-29.2856"/>
<polygon fill="midnightblue" stroke="midnightblue" points="1709.26,-30.1478 1709.22,-19.553 1702.64,-27.8571 1709.26,-30.1478"/>
</g>
<!-- Node28&#45;&gt;Node10 -->
<g id="edge85" class="edge"><title>Node28&#45;&gt;Node10</title>
<path fill="none" stroke="midnightblue" d="M1372.57,-343.01C1427.44,-338.636 1512.79,-324.657 1486,-280 1405.97,-146.623 1193.81,-126.006 1108.39,-123.222"/>
<polygon fill="midnightblue" stroke="midnightblue" points="1108.23,-119.717 1098.14,-122.956 1108.05,-126.715 1108.23,-119.717"/>
</g>
<!-- Node28&#45;&gt;Node12 -->
<g id="edge83" class="edge"><title>Node28&#45;&gt;Node12</title>
<path fill="none" stroke="midnightblue" d="M1372.66,-343.873C1410.79,-340.747 1466.18,-330.716 1503,-300 1566.63,-246.917 1540.85,-130.306 1527.8,-85.2598"/>
<polygon fill="midnightblue" stroke="midnightblue" points="1531.14,-84.2085 1524.89,-75.6527 1524.44,-86.238 1531.14,-84.2085"/>
</g>
<!-- Node28&#45;&gt;Node17 -->
<g id="edge86" class="edge"><title>Node28&#45;&gt;Node17</title>
<path fill="none" stroke="midnightblue" d="M1287.35,-344.758C1085.83,-343.166 235.629,-331.286 161,-244 152.705,-234.299 145.217,-201.917 164,-168 171.572,-154.327 185.268,-143.854 198.052,-136.466"/>
<polygon fill="midnightblue" stroke="midnightblue" points="199.93,-139.431 207.1,-131.631 196.63,-133.258 199.93,-139.431"/>
</g>
<!-- Node28&#45;&gt;Node21 -->
<g id="edge88" class="edge"><title>Node28&#45;&gt;Node21</title>
<path fill="none" stroke="midnightblue" d="M1330,-336.083C1330,-329.006 1330,-318.861 1330,-309.986"/>
<polygon fill="midnightblue" stroke="midnightblue" points="1333.5,-309.751 1330,-299.751 1326.5,-309.751 1333.5,-309.751"/>
</g>
<!-- Node28&#45;&gt;Node22 -->
<g id="edge87" class="edge"><title>Node28&#45;&gt;Node22</title>
<path fill="none" stroke="midnightblue" d="M1318.01,-336.34C1303.08,-324.409 1280.52,-301.898 1289,-280 1293.45,-268.498 1302.37,-258.131 1310.75,-250.255"/>
<polygon fill="midnightblue" stroke="midnightblue" points="1313.24,-252.729 1318.46,-243.51 1308.63,-247.46 1313.24,-252.729"/>
</g>
<!-- Node28&#45;&gt;Node25 -->
<g id="edge89" class="edge"><title>Node28&#45;&gt;Node25</title>
<path fill="none" stroke="midnightblue" d="M1287.4,-337.148C1233.9,-327.289 1142.34,-310.414 1086,-300.031"/>
<polygon fill="midnightblue" stroke="midnightblue" points="1086.38,-296.542 1075.91,-298.171 1085.11,-303.426 1086.38,-296.542"/>
</g>
<!-- Node28&#45;&gt;Node27 -->
<g id="edge91" class="edge"><title>Node28&#45;&gt;Node27</title>
<path fill="none" stroke="midnightblue" d="M1320.9,-336.368C1301.42,-317.894 1255.44,-274.293 1230.6,-250.744"/>
<polygon fill="midnightblue" stroke="midnightblue" points="1232.72,-247.933 1223.06,-243.591 1227.91,-253.012 1232.72,-247.933"/>
</g>
<!-- Node29 -->
<g id="node29" class="node"><title>Node29</title>
<polygon fill="none" stroke="#bfbfbf" points="1418.5,-280.5 1418.5,-299.5 1477.5,-299.5 1477.5,-280.5 1418.5,-280.5"/>
<text text-anchor="middle" x="1448" y="-287.5" font-family="FreeSans" font-size="10.00">functional</text>
</g>
<!-- Node28&#45;&gt;Node29 -->
<g id="edge84" class="edge"><title>Node28&#45;&gt;Node29</title>
<path fill="none" stroke="midnightblue" d="M1348.7,-336.444C1367.94,-327.636 1398.15,-313.812 1420.2,-303.722"/>
<polygon fill="midnightblue" stroke="midnightblue" points="1421.75,-306.86 1429.39,-299.516 1418.84,-300.495 1421.75,-306.86"/>
</g>
</g>
</svg>
