<?xml version="1.0" encoding="UTF-8" standalone="no"?>
<!DOCTYPE svg PUBLIC "-//W3C//DTD SVG 1.1//EN"
 "http://www.w3.org/Graphics/SVG/1.1/DTD/svg11.dtd">
<!-- Generated by graphviz version 2.40.1 (20161225.0304)
 -->
<!-- Title: api.hpp Pages: 1 -->
<svg width="1804pt" height="532pt"
 viewBox="0.00 0.00 1803.77 532.00" xmlns="http://www.w3.org/2000/svg" xmlns:xlink="http://www.w3.org/1999/xlink">
<g id="graph0" class="graph" transform="scale(1 1) rotate(0) translate(4 528)">
<title>api.hpp</title>
<!-- Node0 -->
<g id="node1" class="node">
<title>Node0</title>
<polygon fill="#bfbfbf" stroke="#000000" points="511,-504.5 511,-523.5 559,-523.5 559,-504.5 511,-504.5"/>
<text text-anchor="middle" x="535" y="-511.5" font-family="Helvetica,sans-Serif" font-size="10.00" fill="#000000">api.hpp</text>
</g>
<!-- Node1 -->
<g id="node2" class="node">
<title>Node1</title>
<g id="a_node2"><a xlink:href="types_8hpp.html" target="_top" xlink:title="types.hpp">
<polygon fill="none" stroke="#000000" points="577.5,-56.5 577.5,-75.5 636.5,-75.5 636.5,-56.5 577.5,-56.5"/>
<text text-anchor="middle" x="607" y="-63.5" font-family="Helvetica,sans-Serif" font-size="10.00" fill="#000000">types.hpp</text>
</a>
</g>
</g>
<!-- Node0&#45;&gt;Node1 -->
<g id="edge1" class="edge">
<title>Node0&#45;&gt;Node1</title>
<path fill="none" stroke="#191970" d="M510.9728,-511.5704C406.871,-500.728 0,-454.9635 0,-402 0,-402 0,-402 0,-178 0,-137.7538 25.7678,-129.5209 62,-112 107.1721,-90.1559 449.2902,-73.0243 567.2026,-67.715"/>
<polygon fill="#191970" stroke="#191970" points="567.4177,-71.209 577.2518,-67.2668 567.1057,-64.2159 567.4177,-71.209"/>
</g>
<!-- Node5 -->
<g id="node6" class="node">
<title>Node5</title>
<g id="a_node6"><a xlink:href="arg_8hpp.html" target="_top" xlink:title="arg.hpp">
<polygon fill="none" stroke="#000000" points="544.5,-224.5 544.5,-243.5 593.5,-243.5 593.5,-224.5 544.5,-224.5"/>
<text text-anchor="middle" x="569" y="-231.5" font-family="Helvetica,sans-Serif" font-size="10.00" fill="#000000">arg.hpp</text>
</a>
</g>
</g>
<!-- Node0&#45;&gt;Node5 -->
<g id="edge5" class="edge">
<title>Node0&#45;&gt;Node5</title>
<path fill="none" stroke="#191970" d="M510.8047,-504.5231C475.4938,-488.9172 414,-454.2402 414,-402 414,-402 414,-402 414,-346 414,-286.8929 488.9658,-255.829 534.6275,-242.3902"/>
<polygon fill="#191970" stroke="#191970" points="535.756,-245.7088 544.4398,-239.639 533.8662,-238.9687 535.756,-245.7088"/>
</g>
<!-- Node17 -->
<g id="node18" class="node">
<title>Node17</title>
<g id="a_node18"><a xlink:href="multi__arg_8hpp.html" target="_top" xlink:title="multi_arg.hpp">
<polygon fill="none" stroke="#000000" points="571.5,-280.5 571.5,-299.5 646.5,-299.5 646.5,-280.5 571.5,-280.5"/>
<text text-anchor="middle" x="609" y="-287.5" font-family="Helvetica,sans-Serif" font-size="10.00" fill="#000000">multi_arg.hpp</text>
</a>
</g>
</g>
<!-- Node0&#45;&gt;Node17 -->
<g id="edge29" class="edge">
<title>Node0&#45;&gt;Node17</title>
<path fill="none" stroke="#191970" d="M538.1797,-504.375C549.4229,-470.3415 587.4402,-355.262 602.6416,-309.247"/>
<polygon fill="#191970" stroke="#191970" points="606.0186,-310.1823 605.8322,-299.5891 599.3719,-307.9865 606.0186,-310.1823"/>
</g>
<!-- Node18 -->
<g id="node19" class="node">
<title>Node18</title>
<g id="a_node19"><a xlink:href="groups_8hpp.html" target="_top" xlink:title="groups.hpp">
<polygon fill="none" stroke="#000000" points="1472.5,-280.5 1472.5,-299.5 1537.5,-299.5 1537.5,-280.5 1472.5,-280.5"/>
<text text-anchor="middle" x="1505" y="-287.5" font-family="Helvetica,sans-Serif" font-size="10.00" fill="#000000">groups.hpp</text>
</a>
</g>
</g>
<!-- Node0&#45;&gt;Node18 -->
<g id="edge37" class="edge">
<title>Node0&#45;&gt;Node18</title>
<path fill="none" stroke="#191970" d="M559.0296,-513.0146C663.2151,-508.0536 1084.884,-480.8479 1402,-356 1433.5022,-343.5976 1465.7101,-321.0496 1485.5298,-305.8002"/>
<polygon fill="#191970" stroke="#191970" points="1487.7669,-308.4937 1493.4724,-299.5663 1483.445,-302.9872 1487.7669,-308.4937"/>
</g>
<!-- Node21 -->
<g id="node22" class="node">
<title>Node21</title>
<g id="a_node22"><a xlink:href="arg__as__command_8hpp.html" target="_top" xlink:title="arg_as_command.hpp">
<polygon fill="none" stroke="#000000" points="272.5,-448.5 272.5,-467.5 385.5,-467.5 385.5,-448.5 272.5,-448.5"/>
<text text-anchor="middle" x="329" y="-455.5" font-family="Helvetica,sans-Serif" font-size="10.00" fill="#000000">arg_as_command.hpp</text>
</a>
</g>
</g>
<!-- Node0&#45;&gt;Node21 -->
<g id="edge50" class="edge">
<title>Node0&#45;&gt;Node21</title>
<path fill="none" stroke="#191970" d="M510.966,-507.4665C477.4605,-498.3582 416.0937,-481.676 373.9613,-470.2225"/>
<polygon fill="#191970" stroke="#191970" points="374.7913,-466.8212 364.2234,-467.5753 372.955,-473.576 374.7913,-466.8212"/>
</g>
<!-- Node2 -->
<g id="node3" class="node">
<title>Node2</title>
<polygon fill="none" stroke="#bfbfbf" points="553.5,-.5 553.5,-19.5 594.5,-19.5 594.5,-.5 553.5,-.5"/>
<text text-anchor="middle" x="574" y="-7.5" font-family="Helvetica,sans-Serif" font-size="10.00" fill="#000000">string</text>
</g>
<!-- Node1&#45;&gt;Node2 -->
<g id="edge2" class="edge">
<title>Node1&#45;&gt;Node2</title>
<path fill="none" stroke="#191970" d="M601.2518,-56.2455C596.7565,-48.617 590.3752,-37.7881 584.9175,-28.5267"/>
<polygon fill="#191970" stroke="#191970" points="587.7747,-26.4811 579.6823,-19.6427 581.7439,-30.035 587.7747,-26.4811"/>
</g>
<!-- Node3 -->
<g id="node4" class="node">
<title>Node3</title>
<polygon fill="none" stroke="#bfbfbf" points="613,-.5 613,-19.5 667,-19.5 667,-.5 613,-.5"/>
<text text-anchor="middle" x="640" y="-7.5" font-family="Helvetica,sans-Serif" font-size="10.00" fill="#000000">iostream</text>
</g>
<!-- Node1&#45;&gt;Node3 -->
<g id="edge3" class="edge">
<title>Node1&#45;&gt;Node3</title>
<path fill="none" stroke="#191970" d="M612.7482,-56.2455C617.2435,-48.617 623.6248,-37.7881 629.0825,-28.5267"/>
<polygon fill="#191970" stroke="#191970" points="632.2561,-30.035 634.3177,-19.6427 626.2253,-26.4811 632.2561,-30.035"/>
</g>
<!-- Node4 -->
<g id="node5" class="node">
<title>Node4</title>
<polygon fill="none" stroke="#bfbfbf" points="1563,-.5 1563,-19.5 1607,-19.5 1607,-.5 1563,-.5"/>
<text text-anchor="middle" x="1585" y="-7.5" font-family="Helvetica,sans-Serif" font-size="10.00" fill="#000000">vector</text>
</g>
<!-- Node1&#45;&gt;Node4 -->
<g id="edge4" class="edge">
<title>Node1&#45;&gt;Node4</title>
<path fill="none" stroke="#191970" d="M636.536,-64.3088C779.8393,-56.1033 1401.9075,-20.4838 1552.2173,-11.8771"/>
<polygon fill="#191970" stroke="#191970" points="1552.8171,-15.3486 1562.6006,-11.2826 1552.4168,-8.3601 1552.8171,-15.3486"/>
</g>
<!-- Node5&#45;&gt;Node1 -->
<g id="edge27" class="edge">
<title>Node5&#45;&gt;Node1</title>
<path fill="none" stroke="#191970" d="M563.0625,-224.1848C556.0268,-211.3143 545.8663,-188.0179 551,-168 559.1881,-136.0722 579.6865,-103.4092 593.4774,-83.9175"/>
<polygon fill="#191970" stroke="#191970" points="596.4,-85.8495 599.4494,-75.703 590.7381,-81.7333 596.4,-85.8495"/>
</g>
<!-- Node6 -->
<g id="node7" class="node">
<title>Node6</title>
<g id="a_node7"><a xlink:href="arg__iface_8hpp.html" target="_top" xlink:title="arg_iface.hpp">
<polygon fill="none" stroke="#000000" points="560.5,-168.5 560.5,-187.5 635.5,-187.5 635.5,-168.5 560.5,-168.5"/>
<text text-anchor="middle" x="598" y="-175.5" font-family="Helvetica,sans-Serif" font-size="10.00" fill="#000000">arg_iface.hpp</text>
</a>
</g>
</g>
<!-- Node5&#45;&gt;Node6 -->
<g id="edge6" class="edge">
<title>Node5&#45;&gt;Node6</title>
<path fill="none" stroke="#191970" d="M574.0514,-224.2455C578.0019,-216.617 583.6097,-205.7881 588.4058,-196.5267"/>
<polygon fill="#191970" stroke="#191970" points="591.5159,-198.1321 593.0065,-187.6427 585.2999,-194.9131 591.5159,-198.1321"/>
</g>
<!-- Node7 -->
<g id="node8" class="node">
<title>Node7</title>
<g id="a_node8"><a xlink:href="utils_8hpp.html" target="_top" xlink:title="utils.hpp">
<polygon fill="none" stroke="#000000" points="1030.5,-112.5 1030.5,-131.5 1083.5,-131.5 1083.5,-112.5 1030.5,-112.5"/>
<text text-anchor="middle" x="1057" y="-119.5" font-family="Helvetica,sans-Serif" font-size="10.00" fill="#000000">utils.hpp</text>
</a>
</g>
</g>
<!-- Node5&#45;&gt;Node7 -->
<g id="edge14" class="edge">
<title>Node5&#45;&gt;Node7</title>
<path fill="none" stroke="#191970" d="M593.7783,-227.5378C627.8506,-218.6486 691.0813,-202.1408 745,-188 778.7852,-179.1395 786.9519,-175.7896 821,-168 891.1761,-151.9449 973.9036,-136.6455 1020.4245,-128.3698"/>
<polygon fill="#191970" stroke="#191970" points="1021.1003,-131.8046 1030.3373,-126.6153 1019.8803,-124.9118 1021.1003,-131.8046"/>
</g>
<!-- Node9 -->
<g id="node10" class="node">
<title>Node9</title>
<polygon fill="none" stroke="#bfbfbf" points="1500,-56.5 1500,-75.5 1556,-75.5 1556,-56.5 1500,-56.5"/>
<text text-anchor="middle" x="1528" y="-63.5" font-family="Helvetica,sans-Serif" font-size="10.00" fill="#000000">algorithm</text>
</g>
<!-- Node5&#45;&gt;Node9 -->
<g id="edge28" class="edge">
<title>Node5&#45;&gt;Node9</title>
<path fill="none" stroke="#191970" d="M593.8148,-232.6727C688.0864,-227.5198 1023.9725,-208.1279 1129,-188 1267.3267,-161.4906 1425.7015,-104.8716 1493.8735,-79.1734"/>
<polygon fill="#191970" stroke="#191970" points="1495.1541,-82.431 1503.2641,-75.6134 1492.6727,-75.8856 1495.1541,-82.431"/>
</g>
<!-- Node12 -->
<g id="node13" class="node">
<title>Node12</title>
<g id="a_node13"><a xlink:href="context_8hpp.html" target="_top" xlink:title="context.hpp">
<polygon fill="none" stroke="#000000" points="830,-168.5 830,-187.5 898,-187.5 898,-168.5 830,-168.5"/>
<text text-anchor="middle" x="864" y="-175.5" font-family="Helvetica,sans-Serif" font-size="10.00" fill="#000000">context.hpp</text>
</a>
</g>
</g>
<!-- Node5&#45;&gt;Node12 -->
<g id="edge15" class="edge">
<title>Node5&#45;&gt;Node12</title>
<path fill="none" stroke="#191970" d="M593.5737,-229.6023C638.0166,-221.609 734.6903,-204.0392 816,-188 817.2684,-187.7498 818.5552,-187.4941 819.8538,-187.2344"/>
<polygon fill="#191970" stroke="#191970" points="820.8248,-190.6088 829.9297,-185.1912 819.4336,-183.7485 820.8248,-190.6088"/>
</g>
<!-- Node14 -->
<g id="node15" class="node">
<title>Node14</title>
<g id="a_node15"><a xlink:href="exceptions_8hpp.html" target="_top" xlink:title="exceptions.hpp">
<polygon fill="none" stroke="#000000" points="186.5,-112.5 186.5,-131.5 269.5,-131.5 269.5,-112.5 186.5,-112.5"/>
<text text-anchor="middle" x="228" y="-119.5" font-family="Helvetica,sans-Serif" font-size="10.00" fill="#000000">exceptions.hpp</text>
</a>
</g>
</g>
<!-- Node5&#45;&gt;Node14 -->
<g id="edge19" class="edge">
<title>Node5&#45;&gt;Node14</title>
<path fill="none" stroke="#191970" d="M544.4486,-230.2591C505.7783,-223.9641 428.6359,-209.7678 366,-188 325.3837,-173.8847 280.9429,-151.2236 253.762,-136.4728"/>
<polygon fill="#191970" stroke="#191970" points="255.353,-133.3535 244.9022,-131.6121 251.986,-139.4906 255.353,-133.3535"/>
</g>
<!-- Node16 -->
<g id="node17" class="node">
<title>Node16</title>
<g id="a_node17"><a xlink:href="value__utils_8hpp.html" target="_top" xlink:title="value_utils.hpp">
<polygon fill="none" stroke="#000000" points="654,-168.5 654,-187.5 736,-187.5 736,-168.5 654,-168.5"/>
<text text-anchor="middle" x="695" y="-175.5" font-family="Helvetica,sans-Serif" font-size="10.00" fill="#000000">value_utils.hpp</text>
</a>
</g>
</g>
<!-- Node5&#45;&gt;Node16 -->
<g id="edge22" class="edge">
<title>Node5&#45;&gt;Node16</title>
<path fill="none" stroke="#191970" d="M590.6602,-224.3733C610.9772,-215.3435 641.564,-201.7494 664.375,-191.6111"/>
<polygon fill="#191970" stroke="#191970" points="665.9059,-194.7609 673.6225,-187.5011 663.0628,-188.3642 665.9059,-194.7609"/>
</g>
<!-- Node6&#45;&gt;Node1 -->
<g id="edge12" class="edge">
<title>Node6&#45;&gt;Node1</title>
<path fill="none" stroke="#191970" d="M598.7673,-168.4509C600.2352,-150.184 603.4679,-109.9553 605.4172,-85.6976"/>
<polygon fill="#191970" stroke="#191970" points="608.9223,-85.7731 606.2346,-75.5249 601.9448,-85.2124 608.9223,-85.7731"/>
</g>
<!-- Node6&#45;&gt;Node7 -->
<g id="edge7" class="edge">
<title>Node6&#45;&gt;Node7</title>
<path fill="none" stroke="#191970" d="M635.6487,-169.6487C638.8049,-169.0524 641.953,-168.493 645,-168 782.5233,-145.748 947.6216,-130.8477 1019.9737,-124.9032"/>
<polygon fill="#191970" stroke="#191970" points="1020.683,-128.3571 1030.3667,-124.0587 1020.1161,-121.3801 1020.683,-128.3571"/>
</g>
<!-- Node11 -->
<g id="node12" class="node">
<title>Node11</title>
<g id="a_node12"><a xlink:href="enums_8hpp.html" target="_top" xlink:title="enums.hpp">
<polygon fill="none" stroke="#000000" points="475.5,-112.5 475.5,-131.5 540.5,-131.5 540.5,-112.5 475.5,-112.5"/>
<text text-anchor="middle" x="508" y="-119.5" font-family="Helvetica,sans-Serif" font-size="10.00" fill="#000000">enums.hpp</text>
</a>
</g>
</g>
<!-- Node6&#45;&gt;Node11 -->
<g id="edge13" class="edge">
<title>Node6&#45;&gt;Node11</title>
<path fill="none" stroke="#191970" d="M582.3232,-168.2455C568.5144,-159.6534 548.1807,-147.0014 532.2708,-137.1018"/>
<polygon fill="#191970" stroke="#191970" points="533.8368,-133.954 523.4972,-131.6427 530.1387,-139.8974 533.8368,-133.954"/>
</g>
<!-- Node7&#45;&gt;Node1 -->
<g id="edge9" class="edge">
<title>Node7&#45;&gt;Node1</title>
<path fill="none" stroke="#191970" d="M1030.1974,-114.945C1025.488,-113.8539 1020.617,-112.8193 1016,-112 881.717,-88.1724 720.3195,-74.3051 646.881,-68.7909"/>
<polygon fill="#191970" stroke="#191970" points="646.9287,-65.2849 636.6977,-68.0377 646.4123,-72.2658 646.9287,-65.2849"/>
</g>
<!-- Node8 -->
<g id="node9" class="node">
<title>Node8</title>
<polygon fill="none" stroke="#bfbfbf" points="1036.5,-56.5 1036.5,-75.5 1077.5,-75.5 1077.5,-56.5 1036.5,-56.5"/>
<text text-anchor="middle" x="1057" y="-63.5" font-family="Helvetica,sans-Serif" font-size="10.00" fill="#000000">regex</text>
</g>
<!-- Node7&#45;&gt;Node8 -->
<g id="edge8" class="edge">
<title>Node7&#45;&gt;Node8</title>
<path fill="none" stroke="#191970" d="M1057,-112.2455C1057,-104.9382 1057,-94.6944 1057,-85.7046"/>
<polygon fill="#191970" stroke="#191970" points="1060.5001,-85.6426 1057,-75.6427 1053.5001,-85.6427 1060.5001,-85.6426"/>
</g>
<!-- Node7&#45;&gt;Node9 -->
<g id="edge10" class="edge">
<title>Node7&#45;&gt;Node9</title>
<path fill="none" stroke="#191970" d="M1083.6725,-118.8287C1162.9351,-109.4047 1397.2776,-81.5424 1489.8031,-70.5415"/>
<polygon fill="#191970" stroke="#191970" points="1490.3351,-74.003 1499.8519,-69.3467 1489.5085,-67.0519 1490.3351,-74.003"/>
</g>
<!-- Node10 -->
<g id="node11" class="node">
<title>Node10</title>
<polygon fill="none" stroke="#bfbfbf" points="1229,-56.5 1229,-75.5 1291,-75.5 1291,-56.5 1229,-56.5"/>
<text text-anchor="middle" x="1260" y="-63.5" font-family="Helvetica,sans-Serif" font-size="10.00" fill="#000000">type_traits</text>
</g>
<!-- Node7&#45;&gt;Node10 -->
<g id="edge11" class="edge">
<title>Node7&#45;&gt;Node10</title>
<path fill="none" stroke="#191970" d="M1083.5387,-114.679C1118.017,-105.1677 1178.5687,-88.4638 1218.9827,-77.3151"/>
<polygon fill="#191970" stroke="#191970" points="1220.0863,-80.6415 1228.7954,-74.6082 1218.2247,-73.8935 1220.0863,-80.6415"/>
</g>
<!-- Node12&#45;&gt;Node1 -->
<g id="edge18" class="edge">
<title>Node12&#45;&gt;Node1</title>
<path fill="none" stroke="#191970" d="M864.1696,-168.3148C863.862,-153.8247 861.0152,-126.6442 845,-112 816.5804,-86.0134 707.1606,-73.6728 647.0773,-68.7483"/>
<polygon fill="#191970" stroke="#191970" points="647.0606,-65.2363 636.8166,-67.9402 646.5109,-72.2147 647.0606,-65.2363"/>
</g>
<!-- Node12&#45;&gt;Node7 -->
<g id="edge17" class="edge">
<title>Node12&#45;&gt;Node7</title>
<path fill="none" stroke="#191970" d="M897.1779,-168.3733C931.5106,-158.4114 984.9891,-142.8944 1020.4989,-132.591"/>
<polygon fill="#191970" stroke="#191970" points="1021.8251,-135.8506 1030.4537,-129.7026 1019.8745,-129.1279 1021.8251,-135.8506"/>
</g>
<!-- Node13 -->
<g id="node14" class="node">
<title>Node13</title>
<polygon fill="none" stroke="#bfbfbf" points="796,-112.5 796,-131.5 836,-131.5 836,-112.5 796,-112.5"/>
<text text-anchor="middle" x="816" y="-119.5" font-family="Helvetica,sans-Serif" font-size="10.00" fill="#000000">utility</text>
</g>
<!-- Node12&#45;&gt;Node13 -->
<g id="edge16" class="edge">
<title>Node12&#45;&gt;Node13</title>
<path fill="none" stroke="#191970" d="M855.639,-168.2455C848.825,-160.2958 839.0319,-148.8706 830.8848,-139.3656"/>
<polygon fill="#191970" stroke="#191970" points="833.4305,-136.9575 824.2651,-131.6427 828.1157,-141.513 833.4305,-136.9575"/>
</g>
<!-- Node14&#45;&gt;Node1 -->
<g id="edge21" class="edge">
<title>Node14&#45;&gt;Node1</title>
<path fill="none" stroke="#191970" d="M269.6737,-115.1858C276.4645,-114.102 283.4259,-113.0071 290,-112 389.5642,-96.7477 506.9263,-80.0511 567.0613,-71.5891"/>
<polygon fill="#191970" stroke="#191970" points="567.8424,-75.0138 577.2579,-70.156 566.8681,-68.0819 567.8424,-75.0138"/>
</g>
<!-- Node15 -->
<g id="node16" class="node">
<title>Node15</title>
<polygon fill="none" stroke="#bfbfbf" points="198.5,-56.5 198.5,-75.5 257.5,-75.5 257.5,-56.5 198.5,-56.5"/>
<text text-anchor="middle" x="228" y="-63.5" font-family="Helvetica,sans-Serif" font-size="10.00" fill="#000000">stdexcept</text>
</g>
<!-- Node14&#45;&gt;Node15 -->
<g id="edge20" class="edge">
<title>Node14&#45;&gt;Node15</title>
<path fill="none" stroke="#191970" d="M228,-112.2455C228,-104.9382 228,-94.6944 228,-85.7046"/>
<polygon fill="#191970" stroke="#191970" points="231.5001,-85.6426 228,-75.6427 224.5001,-85.6427 231.5001,-85.6426"/>
</g>
<!-- Node16&#45;&gt;Node1 -->
<g id="edge25" class="edge">
<title>Node16&#45;&gt;Node1</title>
<path fill="none" stroke="#191970" d="M687.4972,-168.4509C672.6899,-149.6054 639.5167,-107.3849 620.7043,-83.4419"/>
<polygon fill="#191970" stroke="#191970" points="623.4142,-81.2257 614.4838,-75.5249 617.91,-85.5505 623.4142,-81.2257"/>
</g>
<!-- Node16&#45;&gt;Node7 -->
<g id="edge23" class="edge">
<title>Node16&#45;&gt;Node7</title>
<path fill="none" stroke="#191970" d="M736.1736,-171.6306C807.2379,-160.6372 951.8294,-138.2695 1019.939,-127.7332"/>
<polygon fill="#191970" stroke="#191970" points="1020.8432,-131.135 1030.1906,-126.1473 1019.773,-124.2173 1020.8432,-131.135"/>
</g>
<!-- Node16&#45;&gt;Node9 -->
<g id="edge26" class="edge">
<title>Node16&#45;&gt;Node9</title>
<path fill="none" stroke="#191970" d="M704.6529,-168.1543C720.3068,-152.9218 752.9273,-124.1353 787,-112 820.3533,-100.1209 1342.4535,-74.7407 1489.6422,-67.7912"/>
<polygon fill="#191970" stroke="#191970" points="1490.1502,-71.2712 1499.9745,-67.3046 1489.8208,-64.279 1490.1502,-71.2712"/>
</g>
<!-- Node16&#45;&gt;Node14 -->
<g id="edge24" class="edge">
<title>Node16&#45;&gt;Node14</title>
<path fill="none" stroke="#191970" d="M653.8558,-169.6264C650.5271,-169.0424 647.2108,-168.4914 644,-168 513.5664,-148.0366 358.8532,-133.2488 279.9399,-126.3393"/>
<polygon fill="#191970" stroke="#191970" points="280.0436,-122.8352 269.7782,-125.4566 279.4377,-129.809 280.0436,-122.8352"/>
</g>
<!-- Node17&#45;&gt;Node1 -->
<g id="edge35" class="edge">
<title>Node17&#45;&gt;Node1</title>
<path fill="none" stroke="#191970" d="M571.2065,-282.4424C478.2235,-262.2529 251.3066,-202.3736 328,-112 343.3079,-93.9616 493.7599,-77.0064 567.1476,-69.7312"/>
<polygon fill="#191970" stroke="#191970" points="567.7792,-73.1862 577.3908,-68.7291 567.0975,-66.2195 567.7792,-73.1862"/>
</g>
<!-- Node17&#45;&gt;Node5 -->
<g id="edge30" class="edge">
<title>Node17&#45;&gt;Node5</title>
<path fill="none" stroke="#191970" d="M602.0325,-280.2455C596.4689,-272.4564 588.522,-261.3308 581.8171,-251.9439"/>
<polygon fill="#191970" stroke="#191970" points="584.5481,-249.7457 575.8876,-243.6427 578.852,-253.8144 584.5481,-249.7457"/>
</g>
<!-- Node17&#45;&gt;Node7 -->
<g id="edge34" class="edge">
<title>Node17&#45;&gt;Node7</title>
<path fill="none" stroke="#191970" d="M639.2849,-280.4924C668.0964,-271.3759 712.6192,-257.1019 751,-244 820.7152,-220.2017 839.1282,-216.6354 907,-188 925.6801,-180.1188 929.5423,-176.3891 948,-168 973.2962,-156.5028 1002.2956,-144.3112 1024.0204,-135.3698"/>
<polygon fill="#191970" stroke="#191970" points="1025.5253,-138.5356 1033.4507,-131.5044 1022.8704,-132.0586 1025.5253,-138.5356"/>
</g>
<!-- Node17&#45;&gt;Node12 -->
<g id="edge31" class="edge">
<title>Node17&#45;&gt;Node12</title>
<path fill="none" stroke="#191970" d="M630.7412,-280.4509C676.0009,-260.5722 780.4758,-214.6852 832.8637,-191.6756"/>
<polygon fill="#191970" stroke="#191970" points="834.5656,-194.7508 842.3139,-187.5249 831.7506,-188.3418 834.5656,-194.7508"/>
</g>
<!-- Node17&#45;&gt;Node13 -->
<g id="edge36" class="edge">
<title>Node17&#45;&gt;Node13</title>
<path fill="none" stroke="#191970" d="M622.8781,-280.3278C647.9001,-262.7291 701.9738,-223.9626 745,-188 763.9982,-172.1208 784.61,-152.6943 798.7059,-139.0426"/>
<polygon fill="#191970" stroke="#191970" points="801.4757,-141.2302 806.191,-131.7425 796.5882,-136.219 801.4757,-141.2302"/>
</g>
<!-- Node17&#45;&gt;Node14 -->
<g id="edge32" class="edge">
<title>Node17&#45;&gt;Node14</title>
<path fill="none" stroke="#191970" d="M571.3596,-289.0083C490.8398,-286.2767 304.8981,-276.532 252,-244 226.3793,-228.2434 222.8341,-216.7515 214,-188 209.2224,-172.4506 213.7483,-154.3489 218.8897,-141.04"/>
<polygon fill="#191970" stroke="#191970" points="222.2423,-142.1035 222.9791,-131.5343 215.8121,-139.3372 222.2423,-142.1035"/>
</g>
<!-- Node17&#45;&gt;Node16 -->
<g id="edge33" class="edge">
<title>Node17&#45;&gt;Node16</title>
<path fill="none" stroke="#191970" d="M613.1985,-280.4811C619.3315,-267.1299 631.591,-242.4149 646,-224 654.4532,-213.1967 665.4761,-202.6148 674.9259,-194.3293"/>
<polygon fill="#191970" stroke="#191970" points="677.3767,-196.8394 682.7212,-187.6913 672.8384,-191.5099 677.3767,-196.8394"/>
</g>
<!-- Node18&#45;&gt;Node1 -->
<g id="edge48" class="edge">
<title>Node18&#45;&gt;Node1</title>
<path fill="none" stroke="#191970" d="M1491.8075,-280.434C1472.6533,-266.807 1435.7386,-241.5197 1402,-224 1285.2445,-163.3716 1255.8486,-143.0224 1128,-112 1036.6088,-89.8239 752.0208,-73.4188 646.7095,-67.9642"/>
<polygon fill="#191970" stroke="#191970" points="646.6749,-64.4579 636.5087,-67.4411 646.3164,-71.4487 646.6749,-64.4579"/>
</g>
<!-- Node18&#45;&gt;Node9 -->
<g id="edge49" class="edge">
<title>Node18&#45;&gt;Node9</title>
<path fill="none" stroke="#191970" d="M1515.7775,-280.3274C1533.4735,-263.6054 1567.9279,-227.2901 1580,-188 1591.8647,-149.3849 1563.0405,-106.3943 1543.7277,-83.1642"/>
<polygon fill="#191970" stroke="#191970" points="1546.3253,-80.8173 1537.1357,-75.5446 1541.0315,-85.3972 1546.3253,-80.8173"/>
</g>
<!-- Node19 -->
<g id="node20" class="node">
<title>Node19</title>
<g id="a_node20"><a xlink:href="group__iface_8hpp.html" target="_top" xlink:title="group_iface.hpp">
<polygon fill="none" stroke="#000000" points="1236,-224.5 1236,-243.5 1322,-243.5 1322,-224.5 1236,-224.5"/>
<text text-anchor="middle" x="1279" y="-231.5" font-family="Helvetica,sans-Serif" font-size="10.00" fill="#000000">group_iface.hpp</text>
</a>
</g>
</g>
<!-- Node18&#45;&gt;Node19 -->
<g id="edge38" class="edge">
<title>Node18&#45;&gt;Node19</title>
<path fill="none" stroke="#191970" d="M1472.1377,-281.8571C1434.0897,-272.4293 1371.0684,-256.8134 1327.4115,-245.9958"/>
<polygon fill="#191970" stroke="#191970" points="1328.1313,-242.5683 1317.583,-243.5604 1326.4476,-249.3629 1328.1313,-242.5683"/>
</g>
<!-- Node19&#45;&gt;Node1 -->
<g id="edge42" class="edge">
<title>Node19&#45;&gt;Node1</title>
<path fill="none" stroke="#191970" d="M1268.6712,-224.3857C1241.9617,-200.2127 1167.4143,-137.0481 1092,-112 1009.5337,-84.6097 746.9911,-71.5537 646.577,-67.4673"/>
<polygon fill="#191970" stroke="#191970" points="646.6722,-63.9684 636.5406,-67.0669 646.3931,-70.9628 646.6722,-63.9684"/>
</g>
<!-- Node19&#45;&gt;Node4 -->
<g id="edge43" class="edge">
<title>Node19&#45;&gt;Node4</title>
<path fill="none" stroke="#191970" d="M1322.112,-225.5422C1348.1909,-218.7617 1380.9385,-207.1295 1405,-188 1459.8087,-144.4257 1438.5547,-102.3919 1491,-56 1509.1611,-39.9351 1533.9323,-28.1188 1553.4866,-20.4872"/>
<polygon fill="#191970" stroke="#191970" points="1554.7484,-23.7522 1562.8939,-16.9772 1552.3013,-17.1938 1554.7484,-23.7522"/>
</g>
<!-- Node19&#45;&gt;Node6 -->
<g id="edge39" class="edge">
<title>Node19&#45;&gt;Node6</title>
<path fill="none" stroke="#191970" d="M1235.9379,-225.278C1232.92,-224.8026 1229.9185,-224.3693 1227,-224 973.1537,-191.8753 903.5381,-222.2705 645.6658,-187.8761"/>
<polygon fill="#191970" stroke="#191970" points="646.0031,-184.3899 635.624,-186.5169 645.0641,-191.3266 646.0031,-184.3899"/>
</g>
<!-- Node19&#45;&gt;Node7 -->
<g id="edge40" class="edge">
<title>Node19&#45;&gt;Node7</title>
<path fill="none" stroke="#191970" d="M1260.2405,-224.3013C1235.1689,-211.3625 1189.3279,-187.7857 1150,-168 1128.4867,-157.1767 1104.0789,-145.1122 1085.6675,-136.0548"/>
<polygon fill="#191970" stroke="#191970" points="1087.1517,-132.8844 1076.6332,-131.615 1084.0643,-139.1668 1087.1517,-132.8844"/>
</g>
<!-- Node19&#45;&gt;Node9 -->
<g id="edge45" class="edge">
<title>Node19&#45;&gt;Node9</title>
<path fill="none" stroke="#191970" d="M1322.3531,-227.0422C1370.0532,-218.7499 1443.016,-203.9922 1466,-188 1500.9671,-163.67 1517.3667,-113.5758 1524.0549,-85.7413"/>
<polygon fill="#191970" stroke="#191970" points="1527.5491,-86.1494 1526.2894,-75.6297 1520.714,-84.6388 1527.5491,-86.1494"/>
</g>
<!-- Node19&#45;&gt;Node10 -->
<g id="edge44" class="edge">
<title>Node19&#45;&gt;Node10</title>
<path fill="none" stroke="#191970" d="M1322.2516,-227.9265C1346.5473,-222.059 1374.9359,-210.5492 1390,-188 1394.9378,-180.6087 1392.6107,-176.4969 1390,-168 1381.1659,-139.2485 1374.6303,-131.8132 1352,-112 1336.1291,-98.1048 1315.3166,-87.2387 1297.502,-79.5649"/>
<polygon fill="#191970" stroke="#191970" points="1298.543,-76.2083 1287.9639,-75.6311 1295.874,-82.6795 1298.543,-76.2083"/>
</g>
<!-- Node19&#45;&gt;Node13 -->
<g id="edge46" class="edge">
<title>Node19&#45;&gt;Node13</title>
<path fill="none" stroke="#191970" d="M1250.5243,-224.3429C1226.4658,-215.8226 1191.3398,-202.5265 1162,-188 1146.6306,-180.3904 1145.1372,-173.8064 1129,-168 1077.1234,-149.334 914.1176,-131.6545 846.1857,-124.8938"/>
<polygon fill="#191970" stroke="#191970" points="846.4257,-121.4006 836.1309,-123.904 845.7399,-128.367 846.4257,-121.4006"/>
</g>
<!-- Node19&#45;&gt;Node14 -->
<g id="edge41" class="edge">
<title>Node19&#45;&gt;Node14</title>
<path fill="none" stroke="#191970" d="M1235.9415,-225.2493C1232.9227,-224.7807 1229.9201,-224.3568 1227,-224 928.3514,-187.5054 849.4325,-226.2219 551,-188 452.0493,-175.3268 338.1116,-149.3162 275.4635,-134.0043"/>
<polygon fill="#191970" stroke="#191970" points="276.0356,-130.5407 265.489,-131.5506 274.3634,-137.3381 276.0356,-130.5407"/>
</g>
<!-- Node20 -->
<g id="node21" class="node">
<title>Node20</title>
<polygon fill="none" stroke="#bfbfbf" points="1068,-168.5 1068,-187.5 1120,-187.5 1120,-168.5 1068,-168.5"/>
<text text-anchor="middle" x="1094" y="-175.5" font-family="Helvetica,sans-Serif" font-size="10.00" fill="#000000">memory</text>
</g>
<!-- Node19&#45;&gt;Node20 -->
<g id="edge47" class="edge">
<title>Node19&#45;&gt;Node20</title>
<path fill="none" stroke="#191970" d="M1247.1974,-224.3733C1214.6163,-214.5109 1164.0475,-199.2036 1130.0125,-188.9011"/>
<polygon fill="#191970" stroke="#191970" points="1130.6041,-185.4234 1120.0189,-185.876 1128.576,-192.1232 1130.6041,-185.4234"/>
</g>
<!-- Node21&#45;&gt;Node1 -->
<g id="edge90" class="edge">
<title>Node21&#45;&gt;Node1</title>
<path fill="none" stroke="#191970" d="M292.1446,-448.4997C213.8406,-425.8529 38,-360.8725 38,-234 38,-234 38,-234 38,-178 38,-109.6119 111.1803,-130.5664 177,-112 249.9694,-91.4168 475.4403,-74.6801 567.3694,-68.5319"/>
<polygon fill="#191970" stroke="#191970" points="567.6398,-72.0217 577.3867,-67.8686 567.1773,-65.037 567.6398,-72.0217"/>
</g>
<!-- Node21&#45;&gt;Node6 -->
<g id="edge51" class="edge">
<title>Node21&#45;&gt;Node6</title>
<path fill="none" stroke="#191970" d="M332.4243,-448.4196C343.0273,-419.8322 377.7767,-333.7892 430,-280 469.6012,-239.2114 528.8158,-208.3108 565.3401,-191.7044"/>
<polygon fill="#191970" stroke="#191970" points="566.8475,-194.8646 574.5579,-187.5981 563.999,-188.4703 566.8475,-194.8646"/>
</g>
<!-- Node21&#45;&gt;Node7 -->
<g id="edge52" class="edge">
<title>Node21&#45;&gt;Node7</title>
<path fill="none" stroke="#191970" d="M385.7059,-457.3891C507.551,-455.4162 803.1527,-447.0889 1048,-412 1272.9967,-379.7559 1404.9631,-477.4507 1547,-300 1637.3139,-187.1683 2178.4259,-446.2687 1305,-168 1231.9218,-144.7177 1142.7528,-131.7614 1093.7182,-125.8998"/>
<polygon fill="#191970" stroke="#191970" points="1093.9322,-122.4012 1083.5948,-124.7228 1093.1237,-129.3543 1093.9322,-122.4012"/>
</g>
<!-- Node21&#45;&gt;Node11 -->
<g id="edge89" class="edge">
<title>Node21&#45;&gt;Node11</title>
<path fill="none" stroke="#191970" d="M310.475,-448.3812C281.3172,-431.7571 228,-394.7005 228,-346 228,-346 228,-346 228,-290 228,-180.6784 386.8841,-140.7277 465.2812,-127.6691"/>
<polygon fill="#191970" stroke="#191970" points="466.0071,-131.0977 475.3325,-126.069 464.9065,-124.1848 466.0071,-131.0977"/>
</g>
<!-- Node21&#45;&gt;Node14 -->
<g id="edge53" class="edge">
<title>Node21&#45;&gt;Node14</title>
<path fill="none" stroke="#191970" d="M286.6535,-448.4672C214.6306,-431.0156 76,-391.5132 76,-346 76,-346 76,-346 76,-234 76,-180.8635 136.9479,-150.1127 181.6564,-134.7035"/>
<polygon fill="#191970" stroke="#191970" points="182.8031,-138.0108 191.205,-131.5566 180.612,-131.3626 182.8031,-138.0108"/>
</g>
<!-- Node22 -->
<g id="node23" class="node">
<title>Node22</title>
<g id="a_node23"><a xlink:href="cmd__line_8hpp.html" target="_top" xlink:title="cmd_line.hpp">
<polygon fill="none" stroke="#000000" points="965,-392.5 965,-411.5 1039,-411.5 1039,-392.5 965,-392.5"/>
<text text-anchor="middle" x="1002" y="-399.5" font-family="Helvetica,sans-Serif" font-size="10.00" fill="#000000">cmd_line.hpp</text>
</a>
</g>
</g>
<!-- Node21&#45;&gt;Node22 -->
<g id="edge54" class="edge">
<title>Node21&#45;&gt;Node22</title>
<path fill="none" stroke="#191970" d="M385.5105,-453.2978C515.5603,-442.4764 834.1035,-415.9706 954.6945,-405.9363"/>
<polygon fill="#191970" stroke="#191970" points="955.0493,-409.4189 964.7246,-405.1017 954.4688,-402.443 955.0493,-409.4189"/>
</g>
<!-- Node22&#45;&gt;Node0 -->
<g id="edge55" class="edge">
<title>Node22&#45;&gt;Node0</title>
<path fill="none" stroke="#191970" d="M964.7163,-410.9417C876.1638,-432.1791 654.2583,-485.3984 569.053,-505.8331"/>
<polygon fill="#191970" stroke="#191970" points="568.0325,-502.4785 559.1246,-508.2142 569.6651,-509.2855 568.0325,-502.4785"/>
</g>
<!-- Node22&#45;&gt;Node4 -->
<g id="edge75" class="edge">
<title>Node22&#45;&gt;Node4</title>
<path fill="none" stroke="#191970" d="M1039.056,-400.0332C1141.0285,-394.4053 1424.2381,-377.2667 1515,-356 1581.8584,-340.3342 1601.4911,-337.5257 1659,-300 1717.0138,-262.1448 1756,-247.2721 1756,-178 1756,-178 1756,-178 1756,-122 1756,-56.2333 1666.3907,-26.9921 1616.9084,-15.8586"/>
<polygon fill="#191970" stroke="#191970" points="1617.5147,-12.4094 1607.0052,-13.7511 1616.0576,-19.256 1617.5147,-12.4094"/>
</g>
<!-- Node22&#45;&gt;Node7 -->
<g id="edge56" class="edge">
<title>Node22&#45;&gt;Node7</title>
<path fill="none" stroke="#191970" d="M1039.2125,-398.2008C1102.206,-391.3282 1226.825,-375.6986 1266,-356 1321.1172,-328.2851 1336.0548,-304.5255 1348,-244 1357.4957,-195.8859 1312.9249,-187.6695 1268,-168 1237.1541,-154.4947 1145.7139,-137.2946 1093.8989,-128.2338"/>
<polygon fill="#191970" stroke="#191970" points="1094.2376,-124.7403 1083.7867,-126.4808 1093.0419,-131.6375 1094.2376,-124.7403"/>
</g>
<!-- Node22&#45;&gt;Node9 -->
<g id="edge76" class="edge">
<title>Node22&#45;&gt;Node9</title>
<path fill="none" stroke="#191970" d="M1039.418,-400.845C1181.5532,-395.4609 1680,-367.0917 1680,-234 1680,-234 1680,-234 1680,-178 1680,-121.4704 1611.0196,-90.2766 1565.9976,-75.9374"/>
<polygon fill="#191970" stroke="#191970" points="1566.8195,-72.5292 1556.2338,-72.9695 1564.7836,-79.2266 1566.8195,-72.5292"/>
</g>
<!-- Node22&#45;&gt;Node12 -->
<g id="edge57" class="edge">
<title>Node22&#45;&gt;Node12</title>
<path fill="none" stroke="#191970" d="M996.0703,-392.375C974.9705,-358.1261 903.3066,-241.802 875.3244,-196.3817"/>
<polygon fill="#191970" stroke="#191970" points="878.1328,-194.2673 869.9076,-187.5891 872.173,-197.939 878.1328,-194.2673"/>
</g>
<!-- Node22&#45;&gt;Node14 -->
<g id="edge58" class="edge">
<title>Node22&#45;&gt;Node14</title>
<path fill="none" stroke="#191970" d="M964.8886,-399.462C834.936,-390.1648 401.4478,-355.5845 275,-300 239.1586,-284.2447 225.5742,-278.465 207,-244 190.9253,-214.1729 192.1131,-200.6967 201,-168 203.7176,-158.0015 209.2175,-147.9556 214.5484,-139.8139"/>
<polygon fill="#191970" stroke="#191970" points="217.4755,-141.7354 220.3381,-131.5346 211.739,-137.7239 217.4755,-141.7354"/>
</g>
<!-- Node22&#45;&gt;Node20 -->
<g id="edge77" class="edge">
<title>Node22&#45;&gt;Node20</title>
<path fill="none" stroke="#191970" d="M1006.9434,-392.2905C1016.0111,-374.3143 1035.6849,-334.5313 1050,-300 1064.8051,-264.2865 1079.544,-221.5974 1087.6453,-197.356"/>
<polygon fill="#191970" stroke="#191970" points="1091.0524,-198.2009 1090.8768,-187.6075 1084.408,-195.9983 1091.0524,-198.2009"/>
</g>
<!-- Node23 -->
<g id="node24" class="node">
<title>Node23</title>
<g id="a_node24"><a xlink:href="command_8hpp.html" target="_top" xlink:title="command.hpp">
<polygon fill="none" stroke="#000000" points="963,-280.5 963,-299.5 1041,-299.5 1041,-280.5 963,-280.5"/>
<text text-anchor="middle" x="1002" y="-287.5" font-family="Helvetica,sans-Serif" font-size="10.00" fill="#000000">command.hpp</text>
</a>
</g>
</g>
<!-- Node22&#45;&gt;Node23 -->
<g id="edge59" class="edge">
<title>Node22&#45;&gt;Node23</title>
<path fill="none" stroke="#191970" d="M1002,-392.4509C1002,-374.184 1002,-333.9553 1002,-309.6976"/>
<polygon fill="#191970" stroke="#191970" points="1005.5001,-309.5249 1002,-299.5249 998.5001,-309.5249 1005.5001,-309.5249"/>
</g>
<!-- Node24 -->
<g id="node25" class="node">
<title>Node24</title>
<g id="a_node25"><a xlink:href="help_8hpp.html" target="_top" xlink:title="help.hpp">
<polygon fill="none" stroke="#000000" points="747.5,-280.5 747.5,-299.5 800.5,-299.5 800.5,-280.5 747.5,-280.5"/>
<text text-anchor="middle" x="774" y="-287.5" font-family="Helvetica,sans-Serif" font-size="10.00" fill="#000000">help.hpp</text>
</a>
</g>
</g>
<!-- Node22&#45;&gt;Node24 -->
<g id="edge66" class="edge">
<title>Node22&#45;&gt;Node24</title>
<path fill="none" stroke="#191970" d="M982.5608,-392.4509C942.2616,-372.6548 849.4564,-327.0663 802.4262,-303.9638"/>
<polygon fill="#191970" stroke="#191970" points="803.9087,-300.7925 793.3899,-299.5249 800.8223,-307.0754 803.9087,-300.7925"/>
</g>
<!-- Node26 -->
<g id="node27" class="node">
<title>Node26</title>
<g id="a_node27"><a xlink:href="help__printer_8hpp.html" target="_top" xlink:title="help_printer.hpp">
<polygon fill="none" stroke="#000000" points="1171,-336.5 1171,-355.5 1257,-355.5 1257,-336.5 1171,-336.5"/>
<text text-anchor="middle" x="1214" y="-343.5" font-family="Helvetica,sans-Serif" font-size="10.00" fill="#000000">help_printer.hpp</text>
</a>
</g>
</g>
<!-- Node22&#45;&gt;Node26 -->
<g id="edge78" class="edge">
<title>Node22&#45;&gt;Node26</title>
<path fill="none" stroke="#191970" d="M1038.4441,-392.3733C1074.3069,-382.9001 1129.1878,-368.4032 1168.0282,-358.1435"/>
<polygon fill="#191970" stroke="#191970" points="1169.257,-361.439 1178.0315,-355.5011 1167.4692,-354.6712 1169.257,-361.439"/>
</g>
<!-- Node23&#45;&gt;Node1 -->
<g id="edge65" class="edge">
<title>Node23&#45;&gt;Node1</title>
<path fill="none" stroke="#191970" d="M998.08,-280.4874C984.8508,-249.7484 938.5796,-152.727 866,-112 829.0277,-91.2535 709.4528,-76.4044 646.5375,-69.8109"/>
<polygon fill="#191970" stroke="#191970" points="646.8864,-66.3284 636.5808,-68.7869 646.1702,-73.2917 646.8864,-66.3284"/>
</g>
<!-- Node23&#45;&gt;Node7 -->
<g id="edge61" class="edge">
<title>Node23&#45;&gt;Node7</title>
<path fill="none" stroke="#191970" d="M1005.1146,-280.4862C1013.8465,-253.8144 1038.6956,-177.9117 1050.5522,-141.695"/>
<polygon fill="#191970" stroke="#191970" points="1053.9974,-142.4205 1053.7825,-131.8279 1047.3449,-140.2426 1053.9974,-142.4205"/>
</g>
<!-- Node23&#45;&gt;Node11 -->
<g id="edge64" class="edge">
<title>Node23&#45;&gt;Node11</title>
<path fill="none" stroke="#191970" d="M962.9535,-287.3995C853.5537,-279.9498 550.9606,-258.1572 535,-244 506.045,-218.3167 504.3353,-169.1737 505.9583,-141.7465"/>
<polygon fill="#191970" stroke="#191970" points="509.4482,-142.0119 506.7565,-131.7648 502.4705,-141.454 509.4482,-142.0119"/>
</g>
<!-- Node23&#45;&gt;Node12 -->
<g id="edge62" class="edge">
<title>Node23&#45;&gt;Node12</title>
<path fill="none" stroke="#191970" d="M994.298,-280.2558C983.2292,-266.6369 961.7512,-241.6059 940,-224 925.1085,-211.9465 906.7746,-200.7599 891.8451,-192.4368"/>
<polygon fill="#191970" stroke="#191970" points="893.506,-189.3559 883.0506,-187.6424 890.1554,-195.5019 893.506,-189.3559"/>
</g>
<!-- Node23&#45;&gt;Node16 -->
<g id="edge63" class="edge">
<title>Node23&#45;&gt;Node16</title>
<path fill="none" stroke="#191970" d="M975.8254,-280.4509C920.7698,-260.3655 792.934,-213.7284 730.5393,-190.9655"/>
<polygon fill="#191970" stroke="#191970" points="731.7023,-187.6642 721.1084,-187.5249 729.3032,-194.2402 731.7023,-187.6642"/>
</g>
<!-- Node23&#45;&gt;Node19 -->
<g id="edge60" class="edge">
<title>Node23&#45;&gt;Node19</title>
<path fill="none" stroke="#191970" d="M1041.0998,-282.0953C1089.2949,-272.3519 1171.4301,-255.747 1225.4585,-244.8243"/>
<polygon fill="#191970" stroke="#191970" points="1226.4298,-248.1988 1235.5379,-242.7866 1225.0426,-241.3376 1226.4298,-248.1988"/>
</g>
<!-- Node24&#45;&gt;Node1 -->
<g id="edge73" class="edge">
<title>Node24&#45;&gt;Node1</title>
<path fill="none" stroke="#191970" d="M747.1887,-288.3196C688.8397,-284.1771 552.7101,-271.7322 517,-244 467.3266,-205.424 429.0627,-162.9037 466,-112 478.0604,-95.3794 529.8292,-81.6126 567.1428,-73.5957"/>
<polygon fill="#191970" stroke="#191970" points="568.1644,-76.958 577.2388,-71.4894 566.7348,-70.1055 568.1644,-76.958"/>
</g>
<!-- Node24&#45;&gt;Node5 -->
<g id="edge67" class="edge">
<title>Node24&#45;&gt;Node5</title>
<path fill="none" stroke="#191970" d="M747.1998,-282.679C710.2808,-272.5938 643.7578,-254.4216 603.2654,-243.3603"/>
<polygon fill="#191970" stroke="#191970" points="604.1344,-239.9695 593.5655,-240.7106 602.2897,-246.7221 604.1344,-239.9695"/>
</g>
<!-- Node24&#45;&gt;Node7 -->
<g id="edge71" class="edge">
<title>Node24&#45;&gt;Node7</title>
<path fill="none" stroke="#191970" d="M790.0262,-280.4862C837.0997,-252.5415 975.2082,-170.5549 1032.0848,-136.7906"/>
<polygon fill="#191970" stroke="#191970" points="1033.9865,-139.732 1040.7988,-131.6177 1030.4132,-133.7127 1033.9865,-139.732"/>
</g>
<!-- Node24&#45;&gt;Node12 -->
<g id="edge70" class="edge">
<title>Node24&#45;&gt;Node12</title>
<path fill="none" stroke="#191970" d="M775.6424,-280.1442C778.3363,-266.3928 784.7722,-241.2053 798,-224 807.8643,-211.1696 822.3208,-200.5298 835.1913,-192.7261"/>
<polygon fill="#191970" stroke="#191970" points="837.2666,-195.5704 844.1943,-187.5543 833.7798,-189.5006 837.2666,-195.5704"/>
</g>
<!-- Node24&#45;&gt;Node14 -->
<g id="edge72" class="edge">
<title>Node24&#45;&gt;Node14</title>
<path fill="none" stroke="#191970" d="M747.3003,-287.2773C679.0546,-280.162 499.5649,-260.4254 442,-244 383.0702,-227.1851 368.8476,-219.0256 316,-188 290.8965,-173.2623 264.4886,-152.6758 247.2297,-138.4306"/>
<polygon fill="#191970" stroke="#191970" points="249.0094,-135.3562 239.0938,-131.6239 244.5177,-140.7251 249.0094,-135.3562"/>
</g>
<!-- Node24&#45;&gt;Node20 -->
<g id="edge74" class="edge">
<title>Node24&#45;&gt;Node20</title>
<path fill="none" stroke="#191970" d="M800.7326,-280.6436C858.0516,-260.582 992.8279,-213.4102 1057.7682,-190.6811"/>
<polygon fill="#191970" stroke="#191970" points="1059.2862,-193.8581 1067.5685,-187.251 1056.9737,-187.2511 1059.2862,-193.8581"/>
</g>
<!-- Node25 -->
<g id="node26" class="node">
<title>Node25</title>
<g id="a_node26"><a xlink:href="help__printer__iface_8hpp.html" target="_top" xlink:title="help_printer_iface.hpp">
<polygon fill="none" stroke="#000000" points="1106,-224.5 1106,-243.5 1218,-243.5 1218,-224.5 1106,-224.5"/>
<text text-anchor="middle" x="1162" y="-231.5" font-family="Helvetica,sans-Serif" font-size="10.00" fill="#000000">help_printer_iface.hpp</text>
</a>
</g>
</g>
<!-- Node24&#45;&gt;Node25 -->
<g id="edge68" class="edge">
<title>Node24&#45;&gt;Node25</title>
<path fill="none" stroke="#191970" d="M800.6688,-286.1509C860.9456,-277.4512 1009.1717,-256.0577 1095.8961,-243.5408"/>
<polygon fill="#191970" stroke="#191970" points="1096.5014,-246.9898 1105.8988,-242.0971 1095.5014,-240.0616 1096.5014,-246.9898"/>
</g>
<!-- Node25&#45;&gt;Node7 -->
<g id="edge69" class="edge">
<title>Node25&#45;&gt;Node7</title>
<path fill="none" stroke="#191970" d="M1158.9254,-224.0723C1154.2514,-210.2356 1144.257,-184.9473 1129,-168 1117.2766,-154.9778 1101.0424,-144.1791 1086.9562,-136.3246"/>
<polygon fill="#191970" stroke="#191970" points="1088.55,-133.208 1078.0788,-131.5944 1085.2583,-139.3858 1088.55,-133.208"/>
</g>
<!-- Node26&#45;&gt;Node1 -->
<g id="edge87" class="edge">
<title>Node26&#45;&gt;Node1</title>
<path fill="none" stroke="#191970" d="M1170.7336,-344.4086C1034.2658,-339.1866 618.5617,-321.6614 562,-300 471.5956,-265.3779 392.7223,-188.5363 452,-112 466.1417,-93.7409 526.1462,-79.9491 567.2099,-72.4258"/>
<polygon fill="#191970" stroke="#191970" points="567.9694,-75.8457 577.2023,-70.6492 566.744,-68.9538 567.9694,-75.8457"/>
</g>
<!-- Node26&#45;&gt;Node4 -->
<g id="edge79" class="edge">
<title>Node26&#45;&gt;Node4</title>
<path fill="none" stroke="#191970" d="M1257.2142,-343.4479C1339.5137,-338.0963 1515.4892,-324.1555 1571,-300 1648.8514,-266.1229 1718,-262.9028 1718,-178 1718,-178 1718,-178 1718,-122 1718,-69.2649 1656.0653,-36.3475 1616.7248,-20.7578"/>
<polygon fill="#191970" stroke="#191970" points="1617.8525,-17.4423 1607.2612,-17.1662 1615.3686,-23.9868 1617.8525,-17.4423"/>
</g>
<!-- Node26&#45;&gt;Node7 -->
<g id="edge82" class="edge">
<title>Node26&#45;&gt;Node7</title>
<path fill="none" stroke="#191970" d="M1236.6207,-336.3975C1279.0246,-317.0053 1363.3895,-270.9991 1331,-224 1303.1923,-183.6495 1161.456,-146.1407 1093.4718,-130.1419"/>
<polygon fill="#191970" stroke="#191970" points="1094.1431,-126.7048 1083.6105,-127.8507 1092.5588,-133.5231 1094.1431,-126.7048"/>
</g>
<!-- Node26&#45;&gt;Node9 -->
<g id="edge80" class="edge">
<title>Node26&#45;&gt;Node9</title>
<path fill="none" stroke="#191970" d="M1257.0572,-345.2013C1336.5529,-342.9099 1502.3356,-334.066 1547,-300 1596.6356,-262.1424 1601.5765,-230.0777 1595,-168 1592.3184,-142.6877 1596.1453,-133.7968 1583,-112 1575.594,-99.7198 1563.7155,-89.1766 1552.8896,-81.2939"/>
<polygon fill="#191970" stroke="#191970" points="1554.7637,-78.3351 1544.5387,-75.5602 1550.8015,-84.1058 1554.7637,-78.3351"/>
</g>
<!-- Node26&#45;&gt;Node14 -->
<g id="edge83" class="edge">
<title>Node26&#45;&gt;Node14</title>
<path fill="none" stroke="#191970" d="M1170.701,-344.5691C1029.1376,-339.7125 580.9236,-322.8788 438,-300 341.7711,-284.5959 296.7036,-311.0693 226,-244 200.816,-220.1105 200.9316,-201.9849 208,-168 209.9414,-158.6655 213.8804,-148.9017 217.7531,-140.783"/>
<polygon fill="#191970" stroke="#191970" points="220.8903,-142.3353 222.3055,-131.8354 214.6514,-139.161 220.8903,-142.3353"/>
</g>
<!-- Node26&#45;&gt;Node18 -->
<g id="edge85" class="edge">
<title>Node26&#45;&gt;Node18</title>
<path fill="none" stroke="#191970" d="M1257.2514,-337.6767C1312.4344,-327.0573 1407.2945,-308.8024 1462.2404,-298.2286"/>
<polygon fill="#191970" stroke="#191970" points="1463.187,-301.6108 1472.3454,-296.284 1461.8642,-294.7369 1463.187,-301.6108"/>
</g>
<!-- Node26&#45;&gt;Node19 -->
<g id="edge84" class="edge">
<title>Node26&#45;&gt;Node19</title>
<path fill="none" stroke="#191970" d="M1201.2099,-336.4433C1185.445,-323.4639 1162.2182,-299.6298 1175,-280 1186.5199,-262.3082 1206.5619,-251.3704 1225.9964,-244.6309"/>
<polygon fill="#191970" stroke="#191970" points="1227.2621,-247.902 1235.7508,-241.5623 1225.1614,-241.2246 1227.2621,-247.902"/>
</g>
<!-- Node26&#45;&gt;Node23 -->
<g id="edge86" class="edge">
<title>Node26&#45;&gt;Node23</title>
<path fill="none" stroke="#191970" d="M1177.5559,-336.3733C1141.6931,-326.9001 1086.8122,-312.4032 1047.9718,-302.1435"/>
<polygon fill="#191970" stroke="#191970" points="1048.5308,-298.6712 1037.9685,-299.5011 1046.743,-305.439 1048.5308,-298.6712"/>
</g>
<!-- Node26&#45;&gt;Node25 -->
<g id="edge88" class="edge">
<title>Node26&#45;&gt;Node25</title>
<path fill="none" stroke="#191970" d="M1226.907,-336.3175C1242.4965,-323.3965 1265.2015,-299.8396 1253,-280 1243.6199,-264.7479 1227.4458,-254.3672 1211.311,-247.3894"/>
<polygon fill="#191970" stroke="#191970" points="1212.4539,-244.0778 1201.8672,-243.6631 1209.8846,-250.5893 1212.4539,-244.0778"/>
</g>
<!-- Node27 -->
<g id="node28" class="node">
<title>Node27</title>
<polygon fill="none" stroke="#bfbfbf" points="1184.5,-280.5 1184.5,-299.5 1243.5,-299.5 1243.5,-280.5 1184.5,-280.5"/>
<text text-anchor="middle" x="1214" y="-287.5" font-family="Helvetica,sans-Serif" font-size="10.00" fill="#000000">functional</text>
</g>
<!-- Node26&#45;&gt;Node27 -->
<g id="edge81" class="edge">
<title>Node26&#45;&gt;Node27</title>
<path fill="none" stroke="#191970" d="M1214,-336.2455C1214,-328.9382 1214,-318.6944 1214,-309.7046"/>
<polygon fill="#191970" stroke="#191970" points="1217.5001,-309.6426 1214,-299.6427 1210.5001,-309.6427 1217.5001,-309.6426"/>
</g>
</g>
</svg>
