<?xml version="1.0" encoding="UTF-8" standalone="no"?>
<!DOCTYPE svg PUBLIC "-//W3C//DTD SVG 1.1//EN"
 "http://www.w3.org/Graphics/SVG/1.1/DTD/svg11.dtd">
<!-- Generated by graphviz version 2.43.0 (0)
 -->
<!-- Title: api.hpp Pages: 1 -->
<svg width="1052pt" height="364pt"
 viewBox="0.00 0.00 1052.28 364.00" xmlns="http://www.w3.org/2000/svg" xmlns:xlink="http://www.w3.org/1999/xlink">
<g id="graph0" class="graph" transform="scale(1 1) rotate(0) translate(4 360)">
<title>api.hpp</title>
<!-- Node1 -->
<g id="node1" class="node">
<title>Node1</title>
<g id="a_node1"><a xlink:title=" ">
<polygon fill="#bfbfbf" stroke="black" points="405.47,-336.5 405.47,-355.5 458.47,-355.5 458.47,-336.5 405.47,-336.5"/>
<text text-anchor="middle" x="431.97" y="-343.5" font-family="Helvetica,sans-Serif" font-size="10.00">api.hpp</text>
</a>
</g>
</g>
<!-- Node2 -->
<g id="node2" class="node">
<title>Node2</title>
<g id="a_node2"><a xlink:href="types_8hpp.html" target="_top" xlink:title=" ">
<polygon fill="none" stroke="black" points="344.47,-56.5 344.47,-75.5 409.47,-75.5 409.47,-56.5 344.47,-56.5"/>
<text text-anchor="middle" x="376.97" y="-63.5" font-family="Helvetica,sans-Serif" font-size="10.00">types.hpp</text>
</a>
</g>
</g>
<!-- Node1&#45;&gt;Node2 -->
<g id="edge1" class="edge">
<title>Node1&#45;&gt;Node2</title>
<path fill="none" stroke="midnightblue" d="M405.21,-343.5C315.2,-337.73 28.97,-313.24 28.97,-235 28.97,-235 28.97,-235 28.97,-177 28.97,-143.76 38.5,-130.73 65.97,-112 108.8,-82.79 259.45,-72.15 334.22,-68.6"/>
<polygon fill="midnightblue" stroke="midnightblue" points="334.42,-72.1 344.25,-68.15 334.1,-65.11 334.42,-72.1"/>
</g>
<!-- Node6 -->
<g id="node6" class="node">
<title>Node6</title>
<g id="a_node6"><a xlink:href="arg_8hpp.html" target="_top" xlink:title=" ">
<polygon fill="none" stroke="black" points="301.47,-224.5 301.47,-243.5 354.47,-243.5 354.47,-224.5 301.47,-224.5"/>
<text text-anchor="middle" x="327.97" y="-231.5" font-family="Helvetica,sans-Serif" font-size="10.00">arg.hpp</text>
</a>
</g>
</g>
<!-- Node1&#45;&gt;Node6 -->
<g id="edge5" class="edge">
<title>Node1&#45;&gt;Node6</title>
<path fill="none" stroke="midnightblue" d="M423.81,-336.37C406.41,-317.97 365.47,-274.67 343.14,-251.05"/>
<polygon fill="midnightblue" stroke="midnightblue" points="345.5,-248.45 336.09,-243.59 340.42,-253.26 345.5,-248.45"/>
</g>
<!-- Node17 -->
<g id="node17" class="node">
<title>Node17</title>
<g id="a_node17"><a xlink:href="multi__arg_8hpp.html" target="_top" xlink:title=" ">
<polygon fill="none" stroke="black" points="203.97,-280.5 203.97,-299.5 287.97,-299.5 287.97,-280.5 203.97,-280.5"/>
<text text-anchor="middle" x="245.97" y="-287.5" font-family="Helvetica,sans-Serif" font-size="10.00">multi_arg.hpp</text>
</a>
</g>
</g>
<!-- Node1&#45;&gt;Node17 -->
<g id="edge28" class="edge">
<title>Node1&#45;&gt;Node17</title>
<path fill="none" stroke="midnightblue" d="M405.32,-337.26C373.82,-328.12 321.15,-312.83 285.04,-302.34"/>
<polygon fill="midnightblue" stroke="midnightblue" points="285.91,-298.95 275.33,-299.52 283.96,-305.67 285.91,-298.95"/>
</g>
<!-- Node18 -->
<g id="node18" class="node">
<title>Node18</title>
<g id="a_node18"><a xlink:href="groups_8hpp.html" target="_top" xlink:title=" ">
<polygon fill="none" stroke="black" points="914.47,-280.5 914.47,-299.5 985.47,-299.5 985.47,-280.5 914.47,-280.5"/>
<text text-anchor="middle" x="949.97" y="-287.5" font-family="Helvetica,sans-Serif" font-size="10.00">groups.hpp</text>
</a>
</g>
</g>
<!-- Node1&#45;&gt;Node18 -->
<g id="edge36" class="edge">
<title>Node1&#45;&gt;Node18</title>
<path fill="none" stroke="midnightblue" d="M458.73,-342.21C542.33,-333.49 799.33,-306.7 904.44,-295.75"/>
<polygon fill="midnightblue" stroke="midnightblue" points="904.84,-299.22 914.43,-294.7 904.12,-292.26 904.84,-299.22"/>
</g>
<!-- Node21 -->
<g id="node21" class="node">
<title>Node21</title>
<g id="a_node21"><a xlink:href="command_8hpp.html" target="_top" xlink:title=" ">
<polygon fill="none" stroke="black" points="434.97,-280.5 434.97,-299.5 520.97,-299.5 520.97,-280.5 434.97,-280.5"/>
<text text-anchor="middle" x="477.97" y="-287.5" font-family="Helvetica,sans-Serif" font-size="10.00">command.hpp</text>
</a>
</g>
</g>
<!-- Node1&#45;&gt;Node21 -->
<g id="edge49" class="edge">
<title>Node1&#45;&gt;Node21</title>
<path fill="none" stroke="midnightblue" d="M434.4,-336.08C439.44,-328.22 449,-316.57 458.03,-307.08"/>
<polygon fill="midnightblue" stroke="midnightblue" points="460.77,-309.29 465.38,-299.75 455.83,-304.34 460.77,-309.29"/>
</g>
<!-- Node3 -->
<g id="node3" class="node">
<title>Node3</title>
<g id="a_node3"><a xlink:title=" ">
<polygon fill="none" stroke="#bfbfbf" points="389.97,-0.5 389.97,-19.5 433.97,-19.5 433.97,-0.5 389.97,-0.5"/>
<text text-anchor="middle" x="411.97" y="-7.5" font-family="Helvetica,sans-Serif" font-size="10.00">string</text>
</a>
</g>
</g>
<!-- Node2&#45;&gt;Node3 -->
<g id="edge2" class="edge">
<title>Node2&#45;&gt;Node3</title>
<path fill="none" stroke="midnightblue" d="M382.75,-56.08C387.64,-48.53 394.79,-37.49 400.8,-28.23"/>
<polygon fill="midnightblue" stroke="midnightblue" points="403.79,-30.05 406.29,-19.75 397.92,-26.24 403.79,-30.05"/>
</g>
<!-- Node4 -->
<g id="node4" class="node">
<title>Node4</title>
<g id="a_node4"><a xlink:title=" ">
<polygon fill="none" stroke="#bfbfbf" points="311.97,-0.5 311.97,-19.5 371.97,-19.5 371.97,-0.5 311.97,-0.5"/>
<text text-anchor="middle" x="341.97" y="-7.5" font-family="Helvetica,sans-Serif" font-size="10.00">iostream</text>
</a>
</g>
</g>
<!-- Node2&#45;&gt;Node4 -->
<g id="edge3" class="edge">
<title>Node2&#45;&gt;Node4</title>
<path fill="none" stroke="midnightblue" d="M371.19,-56.08C366.29,-48.53 359.14,-37.49 353.13,-28.23"/>
<polygon fill="midnightblue" stroke="midnightblue" points="356.01,-26.24 347.64,-19.75 350.14,-30.05 356.01,-26.24"/>
</g>
<!-- Node5 -->
<g id="node5" class="node">
<title>Node5</title>
<g id="a_node5"><a xlink:title=" ">
<polygon fill="none" stroke="#bfbfbf" points="774.47,-0.5 774.47,-19.5 821.47,-19.5 821.47,-0.5 774.47,-0.5"/>
<text text-anchor="middle" x="797.97" y="-7.5" font-family="Helvetica,sans-Serif" font-size="10.00">vector</text>
</a>
</g>
</g>
<!-- Node2&#45;&gt;Node5 -->
<g id="edge4" class="edge">
<title>Node2&#45;&gt;Node5</title>
<path fill="none" stroke="midnightblue" d="M409.65,-60.81C487.86,-50.78 685.15,-25.47 764.33,-15.32"/>
<polygon fill="midnightblue" stroke="midnightblue" points="764.78,-18.79 774.25,-14.04 763.89,-11.84 764.78,-18.79"/>
</g>
<!-- Node6&#45;&gt;Node2 -->
<g id="edge26" class="edge">
<title>Node6&#45;&gt;Node2</title>
<path fill="none" stroke="midnightblue" d="M301.11,-227.59C279.89,-221.75 251.65,-210.14 237.97,-188 233.29,-180.44 236.45,-176.76 237.97,-168 242.48,-141.96 239.45,-130.86 257.97,-112 278.3,-91.29 309.11,-79.98 334.28,-73.88"/>
<polygon fill="midnightblue" stroke="midnightblue" points="335.33,-77.24 344.33,-71.65 333.81,-70.41 335.33,-77.24"/>
</g>
<!-- Node7 -->
<g id="node7" class="node">
<title>Node7</title>
<g id="a_node7"><a xlink:href="arg__iface_8hpp.html" target="_top" xlink:title=" ">
<polygon fill="none" stroke="black" points="563.47,-168.5 563.47,-187.5 646.47,-187.5 646.47,-168.5 563.47,-168.5"/>
<text text-anchor="middle" x="604.97" y="-175.5" font-family="Helvetica,sans-Serif" font-size="10.00">arg_iface.hpp</text>
</a>
</g>
</g>
<!-- Node6&#45;&gt;Node7 -->
<g id="edge6" class="edge">
<title>Node6&#45;&gt;Node7</title>
<path fill="none" stroke="midnightblue" d="M354.85,-226.99C359.55,-225.97 364.4,-224.94 368.97,-224 432.16,-211.04 505.13,-197.32 553,-188.48"/>
<polygon fill="midnightblue" stroke="midnightblue" points="553.92,-191.87 563.12,-186.62 552.65,-184.99 553.92,-191.87"/>
</g>
<!-- Node8 -->
<g id="node8" class="node">
<title>Node8</title>
<g id="a_node8"><a xlink:href="utils_8hpp.html" target="_top" xlink:title=" ">
<polygon fill="none" stroke="black" points="645.47,-112.5 645.47,-131.5 704.47,-131.5 704.47,-112.5 645.47,-112.5"/>
<text text-anchor="middle" x="674.97" y="-119.5" font-family="Helvetica,sans-Serif" font-size="10.00">utils.hpp</text>
</a>
</g>
</g>
<!-- Node6&#45;&gt;Node8 -->
<g id="edge13" class="edge">
<title>Node6&#45;&gt;Node8</title>
<path fill="none" stroke="midnightblue" d="M354.8,-226.74C359.51,-225.75 364.37,-224.79 368.97,-224 432.09,-213.12 605.92,-229.21 654.97,-188 668.36,-176.74 672.95,-156.73 674.44,-141.88"/>
<polygon fill="midnightblue" stroke="midnightblue" points="677.94,-141.95 675.07,-131.75 670.96,-141.52 677.94,-141.95"/>
</g>
<!-- Node9 -->
<g id="node9" class="node">
<title>Node9</title>
<g id="a_node9"><a xlink:title=" ">
<polygon fill="none" stroke="#bfbfbf" points="738.97,-56.5 738.97,-75.5 802.97,-75.5 802.97,-56.5 738.97,-56.5"/>
<text text-anchor="middle" x="770.97" y="-63.5" font-family="Helvetica,sans-Serif" font-size="10.00">algorithm</text>
</a>
</g>
</g>
<!-- Node6&#45;&gt;Node9 -->
<g id="edge27" class="edge">
<title>Node6&#45;&gt;Node9</title>
<path fill="none" stroke="midnightblue" d="M354.53,-232.14C426.05,-229.42 620.95,-219.27 675.97,-188 718.58,-163.77 748.93,-112.08 762.69,-84.77"/>
<polygon fill="midnightblue" stroke="midnightblue" points="765.92,-86.12 767.14,-75.6 759.62,-83.07 765.92,-86.12"/>
</g>
<!-- Node12 -->
<g id="node12" class="node">
<title>Node12</title>
<g id="a_node12"><a xlink:href="context_8hpp.html" target="_top" xlink:title=" ">
<polygon fill="none" stroke="black" points="246.97,-168.5 246.97,-187.5 320.97,-187.5 320.97,-168.5 246.97,-168.5"/>
<text text-anchor="middle" x="283.97" y="-175.5" font-family="Helvetica,sans-Serif" font-size="10.00">context.hpp</text>
</a>
</g>
</g>
<!-- Node6&#45;&gt;Node12 -->
<g id="edge14" class="edge">
<title>Node6&#45;&gt;Node12</title>
<path fill="none" stroke="midnightblue" d="M320.7,-224.08C314.42,-216.38 305.18,-205.03 297.54,-195.65"/>
<polygon fill="midnightblue" stroke="midnightblue" points="300.13,-193.29 291.1,-187.75 294.7,-197.71 300.13,-193.29"/>
</g>
<!-- Node14 -->
<g id="node14" class="node">
<title>Node14</title>
<g id="a_node14"><a xlink:href="exceptions_8hpp.html" target="_top" xlink:title=" ">
<polygon fill="none" stroke="black" points="75.47,-112.5 75.47,-131.5 166.47,-131.5 166.47,-112.5 75.47,-112.5"/>
<text text-anchor="middle" x="120.97" y="-119.5" font-family="Helvetica,sans-Serif" font-size="10.00">exceptions.hpp</text>
</a>
</g>
</g>
<!-- Node6&#45;&gt;Node14 -->
<g id="edge18" class="edge">
<title>Node6&#45;&gt;Node14</title>
<path fill="none" stroke="midnightblue" d="M301.41,-231.03C267.45,-227.36 208.13,-217 166.97,-188 149.89,-175.97 136.94,-155.49 129.2,-140.73"/>
<polygon fill="midnightblue" stroke="midnightblue" points="132.26,-139.01 124.69,-131.6 125.98,-142.12 132.26,-139.01"/>
</g>
<!-- Node16 -->
<g id="node16" class="node">
<title>Node16</title>
<g id="a_node16"><a xlink:href="value__utils_8hpp.html" target="_top" xlink:title=" ">
<polygon fill="none" stroke="black" points="377.47,-168.5 377.47,-187.5 468.47,-187.5 468.47,-168.5 377.47,-168.5"/>
<text text-anchor="middle" x="422.97" y="-175.5" font-family="Helvetica,sans-Serif" font-size="10.00">value_utils.hpp</text>
</a>
</g>
</g>
<!-- Node6&#45;&gt;Node16 -->
<g id="edge21" class="edge">
<title>Node6&#45;&gt;Node16</title>
<path fill="none" stroke="midnightblue" d="M343.23,-224.32C358.19,-215.82 381.22,-202.73 398.69,-192.8"/>
<polygon fill="midnightblue" stroke="midnightblue" points="400.78,-195.64 407.74,-187.65 397.32,-189.55 400.78,-195.64"/>
</g>
<!-- Node7&#45;&gt;Node2 -->
<g id="edge11" class="edge">
<title>Node7&#45;&gt;Node2</title>
<path fill="none" stroke="midnightblue" d="M604.2,-168.37C602.48,-154.34 597.01,-126.67 579.97,-112 556.31,-91.63 471.95,-78.24 419.71,-71.7"/>
<polygon fill="midnightblue" stroke="midnightblue" points="420.07,-68.22 409.72,-70.49 419.22,-75.17 420.07,-68.22"/>
</g>
<!-- Node7&#45;&gt;Node8 -->
<g id="edge7" class="edge">
<title>Node7&#45;&gt;Node8</title>
<path fill="none" stroke="midnightblue" d="M616.21,-168.32C626.76,-160.18 642.77,-147.84 655.41,-138.09"/>
<polygon fill="midnightblue" stroke="midnightblue" points="657.73,-140.71 663.51,-131.83 653.46,-135.17 657.73,-140.71"/>
</g>
<!-- Node11 -->
<g id="node11" class="node">
<title>Node11</title>
<g id="a_node11"><a xlink:href="enums_8hpp.html" target="_top" xlink:title=" ">
<polygon fill="none" stroke="black" points="500.47,-112.5 500.47,-131.5 571.47,-131.5 571.47,-112.5 500.47,-112.5"/>
<text text-anchor="middle" x="535.97" y="-119.5" font-family="Helvetica,sans-Serif" font-size="10.00">enums.hpp</text>
</a>
</g>
</g>
<!-- Node7&#45;&gt;Node11 -->
<g id="edge12" class="edge">
<title>Node7&#45;&gt;Node11</title>
<path fill="none" stroke="midnightblue" d="M593.88,-168.32C583.48,-160.18 567.71,-147.84 555.24,-138.09"/>
<polygon fill="midnightblue" stroke="midnightblue" points="557.29,-135.24 547.25,-131.83 552.97,-140.75 557.29,-135.24"/>
</g>
<!-- Node8&#45;&gt;Node2 -->
<g id="edge8" class="edge">
<title>Node8&#45;&gt;Node2</title>
<path fill="none" stroke="midnightblue" d="M645.3,-115.62C592.28,-106.02 481.07,-85.86 419.78,-74.76"/>
<polygon fill="midnightblue" stroke="midnightblue" points="420.12,-71.26 409.66,-72.92 418.88,-78.15 420.12,-71.26"/>
</g>
<!-- Node8&#45;&gt;Node9 -->
<g id="edge9" class="edge">
<title>Node8&#45;&gt;Node9</title>
<path fill="none" stroke="midnightblue" d="M690.39,-112.32C705.51,-103.82 728.78,-90.73 746.44,-80.8"/>
<polygon fill="midnightblue" stroke="midnightblue" points="748.58,-83.61 755.58,-75.65 745.15,-77.51 748.58,-83.61"/>
</g>
<!-- Node10 -->
<g id="node10" class="node">
<title>Node10</title>
<g id="a_node10"><a xlink:title=" ">
<polygon fill="none" stroke="#bfbfbf" points="921.47,-56.5 921.47,-75.5 990.47,-75.5 990.47,-56.5 921.47,-56.5"/>
<text text-anchor="middle" x="955.97" y="-63.5" font-family="Helvetica,sans-Serif" font-size="10.00">type_traits</text>
</a>
</g>
</g>
<!-- Node8&#45;&gt;Node10 -->
<g id="edge10" class="edge">
<title>Node8&#45;&gt;Node10</title>
<path fill="none" stroke="midnightblue" d="M704.51,-115.32C753.82,-105.85 853.22,-86.75 911.18,-75.61"/>
<polygon fill="midnightblue" stroke="midnightblue" points="911.99,-79.01 921.15,-73.69 910.67,-72.14 911.99,-79.01"/>
</g>
<!-- Node12&#45;&gt;Node2 -->
<g id="edge17" class="edge">
<title>Node12&#45;&gt;Node2</title>
<path fill="none" stroke="midnightblue" d="M277.34,-168.28C268.18,-155.07 254.06,-129.67 265.97,-112 281.23,-89.34 310.07,-78.09 334.52,-72.5"/>
<polygon fill="midnightblue" stroke="midnightblue" points="335.24,-75.93 344.34,-70.5 333.84,-69.07 335.24,-75.93"/>
</g>
<!-- Node12&#45;&gt;Node8 -->
<g id="edge16" class="edge">
<title>Node12&#45;&gt;Node8</title>
<path fill="none" stroke="midnightblue" d="M321.1,-171.87C394.93,-161.68 559.54,-138.94 635.35,-128.47"/>
<polygon fill="midnightblue" stroke="midnightblue" points="636.01,-131.91 645.44,-127.08 635.05,-124.98 636.01,-131.91"/>
</g>
<!-- Node13 -->
<g id="node13" class="node">
<title>Node13</title>
<g id="a_node13"><a xlink:title=" ">
<polygon fill="none" stroke="#bfbfbf" points="275.47,-112.5 275.47,-131.5 320.47,-131.5 320.47,-112.5 275.47,-112.5"/>
<text text-anchor="middle" x="297.97" y="-119.5" font-family="Helvetica,sans-Serif" font-size="10.00">utility</text>
</a>
</g>
</g>
<!-- Node12&#45;&gt;Node13 -->
<g id="edge15" class="edge">
<title>Node12&#45;&gt;Node13</title>
<path fill="none" stroke="midnightblue" d="M286.28,-168.08C288.13,-160.93 290.8,-150.64 293.12,-141.69"/>
<polygon fill="midnightblue" stroke="midnightblue" points="296.58,-142.31 295.7,-131.75 289.8,-140.55 296.58,-142.31"/>
</g>
<!-- Node14&#45;&gt;Node2 -->
<g id="edge20" class="edge">
<title>Node14&#45;&gt;Node2</title>
<path fill="none" stroke="midnightblue" d="M161.53,-112.44C208.68,-102.5 286.16,-86.15 334.23,-76.02"/>
<polygon fill="midnightblue" stroke="midnightblue" points="335.25,-79.38 344.31,-73.89 333.8,-72.53 335.25,-79.38"/>
</g>
<!-- Node15 -->
<g id="node15" class="node">
<title>Node15</title>
<g id="a_node15"><a xlink:title=" ">
<polygon fill="none" stroke="#bfbfbf" points="88.47,-56.5 88.47,-75.5 153.47,-75.5 153.47,-56.5 88.47,-56.5"/>
<text text-anchor="middle" x="120.97" y="-63.5" font-family="Helvetica,sans-Serif" font-size="10.00">stdexcept</text>
</a>
</g>
</g>
<!-- Node14&#45;&gt;Node15 -->
<g id="edge19" class="edge">
<title>Node14&#45;&gt;Node15</title>
<path fill="none" stroke="midnightblue" d="M120.97,-112.08C120.97,-105.01 120.97,-94.86 120.97,-85.99"/>
<polygon fill="midnightblue" stroke="midnightblue" points="124.47,-85.75 120.97,-75.75 117.47,-85.75 124.47,-85.75"/>
</g>
<!-- Node16&#45;&gt;Node2 -->
<g id="edge24" class="edge">
<title>Node16&#45;&gt;Node2</title>
<path fill="none" stroke="midnightblue" d="M419.36,-168.37C411.87,-150.46 394.5,-108.92 384.47,-84.95"/>
<polygon fill="midnightblue" stroke="midnightblue" points="387.65,-83.47 380.56,-75.59 381.19,-86.17 387.65,-83.47"/>
</g>
<!-- Node16&#45;&gt;Node8 -->
<g id="edge22" class="edge">
<title>Node16&#45;&gt;Node8</title>
<path fill="none" stroke="midnightblue" d="M462.9,-168.44C510.22,-158.3 588.57,-141.51 635.63,-131.43"/>
<polygon fill="midnightblue" stroke="midnightblue" points="636.41,-134.84 645.46,-129.32 634.95,-128 636.41,-134.84"/>
</g>
<!-- Node16&#45;&gt;Node9 -->
<g id="edge25" class="edge">
<title>Node16&#45;&gt;Node9</title>
<path fill="none" stroke="midnightblue" d="M429.34,-168.11C440.19,-153.7 463.76,-125.52 490.97,-112 568.59,-73.44 671.86,-66.63 728.8,-66.14"/>
<polygon fill="midnightblue" stroke="midnightblue" points="728.89,-69.64 738.88,-66.12 728.87,-62.64 728.89,-69.64"/>
</g>
<!-- Node16&#45;&gt;Node14 -->
<g id="edge23" class="edge">
<title>Node16&#45;&gt;Node14</title>
<path fill="none" stroke="midnightblue" d="M377.43,-168.86C323.8,-159.27 234.72,-143.34 176.93,-133.01"/>
<polygon fill="midnightblue" stroke="midnightblue" points="177.34,-129.52 166.88,-131.21 176.1,-136.41 177.34,-129.52"/>
</g>
<!-- Node17&#45;&gt;Node2 -->
<g id="edge34" class="edge">
<title>Node17&#45;&gt;Node2</title>
<path fill="none" stroke="midnightblue" d="M215.65,-280.48C138.56,-257.41 -54.11,-190.19 14.97,-112 35.83,-88.38 243.16,-74.28 334.33,-69.18"/>
<polygon fill="midnightblue" stroke="midnightblue" points="334.54,-72.68 344.33,-68.63 334.16,-65.69 334.54,-72.68"/>
</g>
<!-- Node17&#45;&gt;Node6 -->
<g id="edge29" class="edge">
<title>Node17&#45;&gt;Node6</title>
<path fill="none" stroke="midnightblue" d="M259.14,-280.32C271.81,-271.98 291.2,-259.21 306.17,-249.35"/>
<polygon fill="midnightblue" stroke="midnightblue" points="308.4,-252.08 314.82,-243.65 304.55,-246.23 308.4,-252.08"/>
</g>
<!-- Node17&#45;&gt;Node8 -->
<g id="edge33" class="edge">
<title>Node17&#45;&gt;Node8</title>
<path fill="none" stroke="midnightblue" d="M288.14,-285.58C386.76,-276.63 627.75,-248.86 675.97,-188 686.24,-175.03 684.42,-155.59 680.99,-141.35"/>
<polygon fill="midnightblue" stroke="midnightblue" points="684.33,-140.32 678.22,-131.67 677.6,-142.25 684.33,-140.32"/>
</g>
<!-- Node17&#45;&gt;Node12 -->
<g id="edge30" class="edge">
<title>Node17&#45;&gt;Node12</title>
<path fill="none" stroke="midnightblue" d="M246.83,-280.36C248.3,-267.68 251.82,-243.44 258.97,-224 262.51,-214.35 267.92,-204.29 272.8,-196.14"/>
<polygon fill="midnightblue" stroke="midnightblue" points="275.81,-197.91 278.14,-187.58 269.87,-194.21 275.81,-197.91"/>
</g>
<!-- Node17&#45;&gt;Node13 -->
<g id="edge35" class="edge">
<title>Node17&#45;&gt;Node13</title>
<path fill="none" stroke="midnightblue" d="M242.51,-280.2C234.92,-259.38 218.95,-206.04 237.97,-168 244.69,-154.54 257.57,-144.07 269.68,-136.62"/>
<polygon fill="midnightblue" stroke="midnightblue" points="271.7,-139.5 278.67,-131.52 268.25,-133.41 271.7,-139.5"/>
</g>
<!-- Node17&#45;&gt;Node14 -->
<g id="edge31" class="edge">
<title>Node17&#45;&gt;Node14</title>
<path fill="none" stroke="midnightblue" d="M239.25,-280.08C219.23,-253.49 159.77,-174.54 133.59,-139.76"/>
<polygon fill="midnightblue" stroke="midnightblue" points="136.23,-137.45 127.42,-131.57 130.64,-141.66 136.23,-137.45"/>
</g>
<!-- Node17&#45;&gt;Node16 -->
<g id="edge32" class="edge">
<title>Node17&#45;&gt;Node16</title>
<path fill="none" stroke="midnightblue" d="M250,-280.09C256.75,-266.16 271.61,-239.25 291.97,-224 313.96,-207.53 342.41,-196.79 367.18,-189.96"/>
<polygon fill="midnightblue" stroke="midnightblue" points="368.39,-193.26 377.18,-187.35 366.63,-186.49 368.39,-193.26"/>
</g>
<!-- Node18&#45;&gt;Node2 -->
<g id="edge47" class="edge">
<title>Node18&#45;&gt;Node2</title>
<path fill="none" stroke="midnightblue" d="M952.01,-280.48C956.66,-258.87 965.56,-201.33 937.97,-168 871.96,-88.27 539.24,-71.4 419.76,-67.9"/>
<polygon fill="midnightblue" stroke="midnightblue" points="419.63,-64.39 409.54,-67.62 419.44,-71.39 419.63,-64.39"/>
</g>
<!-- Node18&#45;&gt;Node9 -->
<g id="edge48" class="edge">
<title>Node18&#45;&gt;Node9</title>
<path fill="none" stroke="midnightblue" d="M980.99,-280.44C999,-273.69 1020.2,-262.3 1030.97,-244 1048.1,-214.89 1049.16,-196.46 1030.97,-168 983.88,-94.33 873.88,-74.33 813.13,-68.95"/>
<polygon fill="midnightblue" stroke="midnightblue" points="813.35,-65.46 803.11,-68.15 812.8,-72.43 813.35,-65.46"/>
</g>
<!-- Node19 -->
<g id="node19" class="node">
<title>Node19</title>
<g id="a_node19"><a xlink:href="group__iface_8hpp.html" target="_top" xlink:title=" ">
<polygon fill="none" stroke="black" points="836.47,-224.5 836.47,-243.5 931.47,-243.5 931.47,-224.5 836.47,-224.5"/>
<text text-anchor="middle" x="883.97" y="-231.5" font-family="Helvetica,sans-Serif" font-size="10.00">group_iface.hpp</text>
</a>
</g>
</g>
<!-- Node18&#45;&gt;Node19 -->
<g id="edge37" class="edge">
<title>Node18&#45;&gt;Node19</title>
<path fill="none" stroke="midnightblue" d="M939.36,-280.32C929.51,-272.26 914.62,-260.08 902.75,-250.37"/>
<polygon fill="midnightblue" stroke="midnightblue" points="904.72,-247.46 894.76,-243.83 900.29,-252.88 904.72,-247.46"/>
</g>
<!-- Node19&#45;&gt;Node2 -->
<g id="edge41" class="edge">
<title>Node19&#45;&gt;Node2</title>
<path fill="none" stroke="midnightblue" d="M875.27,-224.42C851.59,-201.65 783.03,-139.54 712.97,-112 613.34,-72.85 485.68,-66.61 420.11,-66.29"/>
<polygon fill="midnightblue" stroke="midnightblue" points="419.75,-62.79 409.75,-66.28 419.75,-69.79 419.75,-62.79"/>
</g>
<!-- Node19&#45;&gt;Node5 -->
<g id="edge42" class="edge">
<title>Node19&#45;&gt;Node5</title>
<path fill="none" stroke="midnightblue" d="M931.63,-229.36C959.69,-224.48 993.08,-213.31 1010.97,-188 1044.94,-139.92 1040.7,-98.5 999.97,-56 977.12,-32.16 882.92,-19.35 831.62,-14.03"/>
<polygon fill="midnightblue" stroke="midnightblue" points="831.97,-10.54 821.67,-13.03 831.27,-17.51 831.97,-10.54"/>
</g>
<!-- Node19&#45;&gt;Node7 -->
<g id="edge38" class="edge">
<title>Node19&#45;&gt;Node7</title>
<path fill="none" stroke="midnightblue" d="M839.76,-224.44C790.06,-214.82 709.46,-199.22 656.83,-189.04"/>
<polygon fill="midnightblue" stroke="midnightblue" points="657.17,-185.54 646.69,-187.08 655.84,-192.41 657.17,-185.54"/>
</g>
<!-- Node19&#45;&gt;Node8 -->
<g id="edge39" class="edge">
<title>Node19&#45;&gt;Node8</title>
<path fill="none" stroke="midnightblue" d="M895.48,-224.43C911.57,-211.41 937.21,-186.27 921.97,-168 896.1,-136.99 778.29,-127.3 715.18,-124.31"/>
<polygon fill="midnightblue" stroke="midnightblue" points="714.94,-120.79 704.8,-123.85 714.64,-127.79 714.94,-120.79"/>
</g>
<!-- Node19&#45;&gt;Node9 -->
<g id="edge44" class="edge">
<title>Node19&#45;&gt;Node9</title>
<path fill="none" stroke="midnightblue" d="M900.55,-224.31C920.71,-212.53 950.58,-190.36 937.97,-168 911.14,-120.42 851.87,-92.71 811.67,-78.72"/>
<polygon fill="midnightblue" stroke="midnightblue" points="812.73,-75.38 802.14,-75.53 810.51,-82.02 812.73,-75.38"/>
</g>
<!-- Node19&#45;&gt;Node10 -->
<g id="edge43" class="edge">
<title>Node19&#45;&gt;Node10</title>
<path fill="none" stroke="midnightblue" d="M931.72,-225.76C954.29,-219.68 979.25,-208.5 992.97,-188 1011.75,-159.93 1004.36,-143.8 992.97,-112 989.03,-101 981.11,-90.77 973.61,-82.85"/>
<polygon fill="midnightblue" stroke="midnightblue" points="975.99,-80.28 966.4,-75.76 971.07,-85.27 975.99,-80.28"/>
</g>
<!-- Node19&#45;&gt;Node13 -->
<g id="edge45" class="edge">
<title>Node19&#45;&gt;Node13</title>
<path fill="none" stroke="midnightblue" d="M836.4,-228.31C772.01,-221.54 653.67,-207.67 553.97,-188 519.28,-181.15 511.22,-176.75 476.97,-168 425.82,-154.93 366.38,-140.05 330.49,-131.1"/>
<polygon fill="midnightblue" stroke="midnightblue" points="331.14,-127.65 320.59,-128.63 329.44,-134.44 331.14,-127.65"/>
</g>
<!-- Node19&#45;&gt;Node14 -->
<g id="edge40" class="edge">
<title>Node19&#45;&gt;Node14</title>
<path fill="none" stroke="midnightblue" d="M836.17,-232.35C706.46,-230.17 350.06,-221.25 237.97,-188 201.16,-177.08 163.12,-153.18 140.78,-137.6"/>
<polygon fill="midnightblue" stroke="midnightblue" points="142.66,-134.64 132.48,-131.69 138.6,-140.34 142.66,-134.64"/>
</g>
<!-- Node20 -->
<g id="node20" class="node">
<title>Node20</title>
<g id="a_node20"><a xlink:title=" ">
<polygon fill="none" stroke="#bfbfbf" points="854.97,-168.5 854.97,-187.5 912.97,-187.5 912.97,-168.5 854.97,-168.5"/>
<text text-anchor="middle" x="883.97" y="-175.5" font-family="Helvetica,sans-Serif" font-size="10.00">memory</text>
</a>
</g>
</g>
<!-- Node19&#45;&gt;Node20 -->
<g id="edge46" class="edge">
<title>Node19&#45;&gt;Node20</title>
<path fill="none" stroke="midnightblue" d="M883.97,-224.08C883.97,-217.01 883.97,-206.86 883.97,-197.99"/>
<polygon fill="midnightblue" stroke="midnightblue" points="887.47,-197.75 883.97,-187.75 880.47,-197.75 887.47,-197.75"/>
</g>
<!-- Node21&#45;&gt;Node1 -->
<g id="edge50" class="edge">
<title>Node21&#45;&gt;Node1</title>
<path fill="none" stroke="midnightblue" d="M475.59,-299.83C470.51,-307.79 460.73,-319.67 451.58,-329.25"/>
<polygon fill="midnightblue" stroke="midnightblue" points="449.09,-326.79 444.47,-336.32 454.03,-331.75 449.09,-326.79"/>
</g>
<!-- Node21&#45;&gt;Node2 -->
<g id="edge56" class="edge">
<title>Node21&#45;&gt;Node2</title>
<path fill="none" stroke="midnightblue" d="M466.37,-280.32C440.28,-260.51 378.45,-211.85 367.97,-188 353.12,-154.22 362.81,-110.01 370.4,-85.47"/>
<polygon fill="midnightblue" stroke="midnightblue" points="373.82,-86.27 373.65,-75.68 367.18,-84.07 373.82,-86.27"/>
</g>
<!-- Node21&#45;&gt;Node8 -->
<g id="edge52" class="edge">
<title>Node21&#45;&gt;Node8</title>
<path fill="none" stroke="midnightblue" d="M521.29,-285.65C579.47,-278.55 680.84,-256.49 726.97,-188 739.3,-169.68 718.39,-150.08 699.52,-137.24"/>
<polygon fill="midnightblue" stroke="midnightblue" points="701.16,-134.14 690.85,-131.69 697.38,-140.03 701.16,-134.14"/>
</g>
<!-- Node21&#45;&gt;Node11 -->
<g id="edge55" class="edge">
<title>Node21&#45;&gt;Node11</title>
<path fill="none" stroke="midnightblue" d="M481.08,-280.08C490.25,-253.83 517.26,-176.55 529.64,-141.12"/>
<polygon fill="midnightblue" stroke="midnightblue" points="532.98,-142.16 532.97,-131.57 526.37,-139.85 532.98,-142.16"/>
</g>
<!-- Node21&#45;&gt;Node12 -->
<g id="edge53" class="edge">
<title>Node21&#45;&gt;Node12</title>
<path fill="none" stroke="midnightblue" d="M462.74,-280.37C429.17,-261.33 348.54,-215.62 308.04,-192.65"/>
<polygon fill="midnightblue" stroke="midnightblue" points="309.54,-189.48 299.12,-187.59 306.09,-195.57 309.54,-189.48"/>
</g>
<!-- Node21&#45;&gt;Node16 -->
<g id="edge54" class="edge">
<title>Node21&#45;&gt;Node16</title>
<path fill="none" stroke="midnightblue" d="M479.23,-280.48C480.75,-267.54 482.06,-242.48 472.97,-224 466.92,-211.72 455.93,-201.25 445.8,-193.51"/>
<polygon fill="midnightblue" stroke="midnightblue" points="447.78,-190.63 437.61,-187.67 443.71,-196.33 447.78,-190.63"/>
</g>
<!-- Node21&#45;&gt;Node19 -->
<g id="edge51" class="edge">
<title>Node21&#45;&gt;Node19</title>
<path fill="none" stroke="midnightblue" d="M521.03,-283.27C594.5,-273.5 744.07,-253.61 826.41,-242.65"/>
<polygon fill="midnightblue" stroke="midnightblue" points="826.9,-246.12 836.35,-241.33 825.98,-239.18 826.9,-246.12"/>
</g>
</g>
</svg>
