<?xml version="1.0" encoding="UTF-8" standalone="no"?>
<!DOCTYPE svg PUBLIC "-//W3C//DTD SVG 1.1//EN"
 "http://www.w3.org/Graphics/SVG/1.1/DTD/svg11.dtd">
<!-- Generated by graphviz version 2.40.1 (20161225.0304)
 -->
<!-- Title: api.hpp Pages: 1 -->
<svg width="184pt" height="140pt"
 viewBox="0.00 0.00 184.00 140.00" xmlns="http://www.w3.org/2000/svg" xmlns:xlink="http://www.w3.org/1999/xlink">
<g id="graph0" class="graph" transform="scale(1 1) rotate(0) translate(4 136)">
<title>api.hpp</title>
<!-- Node28 -->
<g id="node1" class="node">
<title>Node28</title>
<polygon fill="#bfbfbf" stroke="#000000" points="62.5,-112.5 62.5,-131.5 110.5,-131.5 110.5,-112.5 62.5,-112.5"/>
<text text-anchor="middle" x="86.5" y="-119.5" font-family="Helvetica,sans-Serif" font-size="10.00" fill="#000000">api.hpp</text>
</g>
<!-- Node29 -->
<g id="node2" class="node">
<title>Node29</title>
<g id="a_node2"><a xlink:href="cmd__line_8hpp.html" target="_top" xlink:title="cmd_line.hpp">
<polygon fill="none" stroke="#000000" points="17.5,-56.5 17.5,-75.5 91.5,-75.5 91.5,-56.5 17.5,-56.5"/>
<text text-anchor="middle" x="54.5" y="-63.5" font-family="Helvetica,sans-Serif" font-size="10.00" fill="#000000">cmd_line.hpp</text>
</a>
</g>
</g>
<!-- Node28&#45;&gt;Node29 -->
<g id="edge1" class="edge">
<title>Node28&#45;&gt;Node29</title>
<path fill="none" stroke="#191970" d="M75.8355,-103.3372C70.5346,-94.0605 64.3513,-83.2398 60.0101,-75.6427"/>
<polygon fill="#191970" stroke="#191970" points="72.9257,-105.2996 80.926,-112.2455 79.0034,-101.8266 72.9257,-105.2996"/>
</g>
<!-- Node30 -->
<g id="node3" class="node">
<title>Node30</title>
<g id="a_node3"><a xlink:href="all_8hpp.html" target="_top" xlink:title="all.hpp">
<polygon fill="none" stroke="#000000" points="0,-.5 0,-19.5 45,-19.5 45,-.5 0,-.5"/>
<text text-anchor="middle" x="22.5" y="-7.5" font-family="Helvetica,sans-Serif" font-size="10.00" fill="#000000">all.hpp</text>
</a>
</g>
</g>
<!-- Node29&#45;&gt;Node30 -->
<g id="edge2" class="edge">
<title>Node29&#45;&gt;Node30</title>
<path fill="none" stroke="#191970" d="M43.8355,-47.3372C38.5346,-38.0605 32.3513,-27.2398 28.0101,-19.6427"/>
<polygon fill="#191970" stroke="#191970" points="40.9257,-49.2996 48.926,-56.2455 47.0034,-45.8266 40.9257,-49.2996"/>
</g>
<!-- Node31 -->
<g id="node4" class="node">
<title>Node31</title>
<g id="a_node4"><a xlink:href="arg__as__command_8hpp.html" target="_top" xlink:title="arg_as_command.hpp">
<polygon fill="none" stroke="#000000" points="63,-.5 63,-19.5 176,-19.5 176,-.5 63,-.5"/>
<text text-anchor="middle" x="119.5" y="-7.5" font-family="Helvetica,sans-Serif" font-size="10.00" fill="#000000">arg_as_command.hpp</text>
</a>
</g>
</g>
<!-- Node29&#45;&gt;Node31 -->
<g id="edge3" class="edge">
<title>Node29&#45;&gt;Node31</title>
<path fill="none" stroke="#191970" d="M73.4835,-49.645C84.7879,-39.9058 98.747,-27.8795 108.3076,-19.6427"/>
<polygon fill="#191970" stroke="#191970" points="71.1138,-47.0668 65.8221,-56.2455 75.6827,-52.3701 71.1138,-47.0668"/>
</g>
<!-- Node31&#45;&gt;Node28 -->
<g id="edge4" class="edge">
<title>Node31&#45;&gt;Node28</title>
<path fill="none" stroke="#191970" d="M113.9191,-29.6789C110.1738,-42.8122 105.1018,-60.4582 100.5,-76 96.7554,-88.6468 92.3001,-103.205 89.4378,-112.4979"/>
<polygon fill="#191970" stroke="#191970" points="117.3444,-30.4296 116.7137,-19.8535 110.6114,-28.5145 117.3444,-30.4296"/>
</g>
</g>
</svg>
