<?xml version="1.0" encoding="UTF-8" standalone="no"?>
<!DOCTYPE svg PUBLIC "-//W3C//DTD SVG 1.1//EN"
 "http://www.w3.org/Graphics/SVG/1.1/DTD/svg11.dtd">
<!-- Generated by graphviz version 2.38.0 (20140413.2041)
 -->
<!-- Title: api.hpp Pages: 1 -->
<!--zoomable 532 -->
<svg id="main" version="1.1" xmlns="http://www.w3.org/2000/svg" xmlns:xlink="http://www.w3.org/1999/xlink" xml:space="preserve" onload="init(evt)">
<style type="text/css"><![CDATA[
.edge:hover path { stroke: red; }
.edge:hover polygon { stroke: red; fill: red; }
]]></style>
<script type="text/javascript"><![CDATA[
var edges = document.getElementsByTagName('g');
if (edges && edges.length) {
  for (var i=0;i<edges.length;i++) {
    if (edges[i].id.substr(0,4)=='edge') {
      edges[i].setAttribute('class','edge');
    }
  }
}
]]></script>
        <defs>
                <circle id="rim" cx="0" cy="0" r="7"/>
                <circle id="rim2" cx="0" cy="0" r="3.5"/>
                <g id="zoomPlus">
                        <use xlink:href="#rim" fill="#404040">
                                <set attributeName="fill" to="#808080" begin="zoomplus.mouseover" end="zoomplus.mouseout"/>
                        </use>
                        <path d="M-4,0h8M0,-4v8" fill="none" stroke="white" stroke-width="1.5" pointer-events="none"/>
                </g>
                <g id="zoomMin">
                        <use xlink:href="#rim" fill="#404040">
                                <set attributeName="fill" to="#808080" begin="zoomminus.mouseover" end="zoomminus.mouseout"/>
                        </use>
                        <path d="M-4,0h8" fill="none" stroke="white" stroke-width="1.5" pointer-events="none"/>
                </g>
                <g id="dirArrow">
                        <path fill="none" stroke="white" stroke-width="1.5" d="M0,-3.0v7 M-2.5,-0.5L0,-3.0L2.5,-0.5"/>
                </g>
               <g id="resetDef">
                       <use xlink:href="#rim2" fill="#404040">
                               <set attributeName="fill" to="#808080" begin="reset.mouseover" end="reset.mouseout"/>
                       </use>
               </g>
        </defs>

<script type="text/javascript">
var viewWidth = 1758;
var viewHeight = 532;
var sectionId = 'dynsection-0';
</script>
<script xlink:href="svgpan.js"/>
<svg id="graph" class="graph">
<g id="viewport">
<title>api.hpp</title>
<!-- Node1 -->
<g id="node1" class="node"><title>Node1</title>
<polygon fill="#bfbfbf" stroke="black" points="449.5,-504.5 449.5,-523.5 496.5,-523.5 496.5,-504.5 449.5,-504.5"/>
<text text-anchor="middle" x="473" y="-511.5" font-family="FreeSans" font-size="10.00">api.hpp</text>
</g>
<!-- Node2 -->
<g id="node2" class="node"><title>Node2</title>
<g id="a_node2"><a xlink:href="types_8hpp.html" target="_top" xlink:title="types.hpp">
<polygon fill="none" stroke="black" points="576.5,-56.5 576.5,-75.5 633.5,-75.5 633.5,-56.5 576.5,-56.5"/>
<text text-anchor="middle" x="605" y="-63.5" font-family="FreeSans" font-size="10.00">types.hpp</text>
</a>
</g>
</g>
<!-- Node1&#45;&gt;Node2 -->
<g id="edge1" class="edge"><title>Node1&#45;&gt;Node2</title>
<path fill="none" stroke="midnightblue" d="M449.22,-512.625C353.303,-510.484 0,-496.267 0,-403 0,-403 0,-403 0,-177 0,-136.145 27.9372,-129.19 65,-112 154.2,-70.6292 457.781,-66.8172 566.158,-66.8108"/>
<polygon fill="midnightblue" stroke="midnightblue" points="566.316,-70.3109 576.32,-66.8216 566.324,-63.3109 566.316,-70.3109"/>
</g>
<!-- Node6 -->
<g id="node6" class="node"><title>Node6</title>
<g id="a_node6"><a xlink:href="arg_8hpp.html" target="_top" xlink:title="arg.hpp">
<polygon fill="none" stroke="black" points="540,-224.5 540,-243.5 588,-243.5 588,-224.5 540,-224.5"/>
<text text-anchor="middle" x="564" y="-231.5" font-family="FreeSans" font-size="10.00">arg.hpp</text>
</a>
</g>
</g>
<!-- Node1&#45;&gt;Node6 -->
<g id="edge5" class="edge"><title>Node1&#45;&gt;Node6</title>
<path fill="none" stroke="midnightblue" d="M465.693,-504.231C451.591,-486.385 422,-444.047 422,-403 422,-403 422,-403 422,-345 422,-290.436 488.336,-259.073 530.328,-244.685"/>
<polygon fill="midnightblue" stroke="midnightblue" points="531.496,-247.985 539.912,-241.549 529.319,-241.333 531.496,-247.985"/>
</g>
<!-- Node18 -->
<g id="node18" class="node"><title>Node18</title>
<g id="a_node18"><a xlink:href="multi__arg_8hpp.html" target="_top" xlink:title="multi_arg.hpp">
<polygon fill="none" stroke="black" points="553,-280.5 553,-299.5 627,-299.5 627,-280.5 553,-280.5"/>
<text text-anchor="middle" x="590" y="-287.5" font-family="FreeSans" font-size="10.00">multi_arg.hpp</text>
</a>
</g>
</g>
<!-- Node1&#45;&gt;Node18 -->
<g id="edge29" class="edge"><title>Node1&#45;&gt;Node18</title>
<path fill="none" stroke="midnightblue" d="M477.587,-504.297C494.948,-471.356 556.851,-353.898 580.616,-308.805"/>
<polygon fill="midnightblue" stroke="midnightblue" points="583.752,-310.362 585.318,-299.884 577.559,-307.098 583.752,-310.362"/>
</g>
<!-- Node19 -->
<g id="node19" class="node"><title>Node19</title>
<g id="a_node19"><a xlink:href="groups_8hpp.html" target="_top" xlink:title="groups.hpp">
<polygon fill="none" stroke="black" points="1468.5,-280.5 1468.5,-299.5 1531.5,-299.5 1531.5,-280.5 1468.5,-280.5"/>
<text text-anchor="middle" x="1500" y="-287.5" font-family="FreeSans" font-size="10.00">groups.hpp</text>
</a>
</g>
</g>
<!-- Node1&#45;&gt;Node19 -->
<g id="edge37" class="edge"><title>Node1&#45;&gt;Node19</title>
<path fill="none" stroke="midnightblue" d="M496.642,-509.227C544.369,-501.593 655.64,-483.704 749,-468 1036.36,-419.665 1122.59,-459.465 1395,-356 1427.65,-343.6 1461.26,-320.663 1481.39,-305.619"/>
<polygon fill="midnightblue" stroke="midnightblue" points="1483.56,-308.364 1489.4,-299.518 1479.32,-302.796 1483.56,-308.364"/>
</g>
<!-- Node22 -->
<g id="node22" class="node"><title>Node22</title>
<g id="a_node22"><a xlink:href="arg__as__command_8hpp.html" target="_top" xlink:title="arg_as_command.hpp">
<polygon fill="none" stroke="black" points="282.5,-448.5 282.5,-467.5 393.5,-467.5 393.5,-448.5 282.5,-448.5"/>
<text text-anchor="middle" x="338" y="-455.5" font-family="FreeSans" font-size="10.00">arg_as_command.hpp</text>
</a>
</g>
</g>
<!-- Node1&#45;&gt;Node22 -->
<g id="edge50" class="edge"><title>Node1&#45;&gt;Node22</title>
<path fill="none" stroke="midnightblue" d="M451.609,-504.444C429.293,-495.517 394.097,-481.439 368.792,-471.317"/>
<polygon fill="midnightblue" stroke="midnightblue" points="369.876,-467.981 359.291,-467.516 367.276,-474.48 369.876,-467.981"/>
</g>
<!-- Node3 -->
<g id="node3" class="node"><title>Node3</title>
<polygon fill="none" stroke="#bfbfbf" points="553,-0.5 553,-19.5 593,-19.5 593,-0.5 553,-0.5"/>
<text text-anchor="middle" x="573" y="-7.5" font-family="FreeSans" font-size="10.00">string</text>
</g>
<!-- Node2&#45;&gt;Node3 -->
<g id="edge2" class="edge"><title>Node2&#45;&gt;Node3</title>
<path fill="none" stroke="midnightblue" d="M599.716,-56.083C595.289,-48.6127 588.837,-37.7244 583.382,-28.5199"/>
<polygon fill="midnightblue" stroke="midnightblue" points="586.295,-26.5697 578.186,-19.7511 580.273,-30.1383 586.295,-26.5697"/>
</g>
<!-- Node4 -->
<g id="node4" class="node"><title>Node4</title>
<polygon fill="none" stroke="#bfbfbf" points="611.5,-0.5 611.5,-19.5 664.5,-19.5 664.5,-0.5 611.5,-0.5"/>
<text text-anchor="middle" x="638" y="-7.5" font-family="FreeSans" font-size="10.00">iostream</text>
</g>
<!-- Node2&#45;&gt;Node4 -->
<g id="edge3" class="edge"><title>Node2&#45;&gt;Node4</title>
<path fill="none" stroke="midnightblue" d="M610.449,-56.083C615.014,-48.6127 621.668,-37.7244 627.293,-28.5199"/>
<polygon fill="midnightblue" stroke="midnightblue" points="630.424,-30.109 632.652,-19.7511 624.451,-26.4588 630.424,-30.109"/>
</g>
<!-- Node5 -->
<g id="node5" class="node"><title>Node5</title>
<polygon fill="none" stroke="#bfbfbf" points="1557.5,-0.5 1557.5,-19.5 1600.5,-19.5 1600.5,-0.5 1557.5,-0.5"/>
<text text-anchor="middle" x="1579" y="-7.5" font-family="FreeSans" font-size="10.00">vector</text>
</g>
<!-- Node2&#45;&gt;Node5 -->
<g id="edge4" class="edge"><title>Node2&#45;&gt;Node5</title>
<path fill="none" stroke="midnightblue" d="M633.622,-63.4131C775.096,-55.5696 1398.79,-20.9908 1547.22,-12.7619"/>
<polygon fill="midnightblue" stroke="midnightblue" points="1547.66,-16.2428 1557.46,-12.1945 1547.28,-9.25349 1547.66,-16.2428"/>
</g>
<!-- Node6&#45;&gt;Node2 -->
<g id="edge27" class="edge"><title>Node6&#45;&gt;Node2</title>
<path fill="none" stroke="midnightblue" d="M559.728,-224.108C554.251,-211.533 546.022,-187.87 551,-168 559.015,-136.01 579.311,-103.076 592.611,-83.8497"/>
<polygon fill="midnightblue" stroke="midnightblue" points="595.551,-85.7546 598.493,-75.5765 589.846,-81.6983 595.551,-85.7546"/>
</g>
<!-- Node7 -->
<g id="node7" class="node"><title>Node7</title>
<g id="a_node7"><a xlink:href="arg__iface_8hpp.html" target="_top" xlink:title="arg_iface.hpp">
<polygon fill="none" stroke="black" points="560,-168.5 560,-187.5 634,-187.5 634,-168.5 560,-168.5"/>
<text text-anchor="middle" x="597" y="-175.5" font-family="FreeSans" font-size="10.00">arg_iface.hpp</text>
</a>
</g>
</g>
<!-- Node6&#45;&gt;Node7 -->
<g id="edge6" class="edge"><title>Node6&#45;&gt;Node7</title>
<path fill="none" stroke="midnightblue" d="M569.449,-224.083C574.014,-216.613 580.668,-205.724 586.293,-196.52"/>
<polygon fill="midnightblue" stroke="midnightblue" points="589.424,-198.109 591.652,-187.751 583.451,-194.459 589.424,-198.109"/>
</g>
<!-- Node8 -->
<g id="node8" class="node"><title>Node8</title>
<g id="a_node8"><a xlink:href="utils_8hpp.html" target="_top" xlink:title="utils.hpp">
<polygon fill="none" stroke="black" points="1024,-112.5 1024,-131.5 1076,-131.5 1076,-112.5 1024,-112.5"/>
<text text-anchor="middle" x="1050" y="-119.5" font-family="FreeSans" font-size="10.00">utils.hpp</text>
</a>
</g>
</g>
<!-- Node6&#45;&gt;Node8 -->
<g id="edge14" class="edge"><title>Node6&#45;&gt;Node8</title>
<path fill="none" stroke="midnightblue" d="M588.065,-226.95C622.132,-218.369 686.361,-202.135 741,-188 774.815,-179.252 782.945,-175.76 817,-168 886.129,-152.247 967.611,-137.338 1013.6,-129.257"/>
<polygon fill="midnightblue" stroke="midnightblue" points="1014.43,-132.665 1023.67,-127.495 1013.22,-125.769 1014.43,-132.665"/>
</g>
<!-- Node10 -->
<g id="node10" class="node"><title>Node10</title>
<polygon fill="none" stroke="#bfbfbf" points="1494,-56.5 1494,-75.5 1550,-75.5 1550,-56.5 1494,-56.5"/>
<text text-anchor="middle" x="1522" y="-63.5" font-family="FreeSans" font-size="10.00">algorithm</text>
</g>
<!-- Node6&#45;&gt;Node10 -->
<g id="edge28" class="edge"><title>Node6&#45;&gt;Node10</title>
<path fill="none" stroke="midnightblue" d="M588.174,-232.883C666.2,-232.115 918.122,-226.599 1122,-188 1262.36,-161.427 1423.43,-104.154 1490.32,-79.1229"/>
<polygon fill="midnightblue" stroke="midnightblue" points="1491.74,-82.3297 1499.86,-75.5315 1489.27,-75.7784 1491.74,-82.3297"/>
</g>
<!-- Node13 -->
<g id="node13" class="node"><title>Node13</title>
<g id="a_node13"><a xlink:href="context_8hpp.html" target="_top" xlink:title="context.hpp">
<polygon fill="none" stroke="black" points="826,-168.5 826,-187.5 892,-187.5 892,-168.5 826,-168.5"/>
<text text-anchor="middle" x="859" y="-175.5" font-family="FreeSans" font-size="10.00">context.hpp</text>
</a>
</g>
</g>
<!-- Node6&#45;&gt;Node13 -->
<g id="edge15" class="edge"><title>Node6&#45;&gt;Node13</title>
<path fill="none" stroke="midnightblue" d="M588.304,-228.671C632.737,-220.738 730.052,-203.28 812,-188 813.263,-187.764 814.546,-187.524 815.84,-187.281"/>
<polygon fill="midnightblue" stroke="midnightblue" points="816.708,-190.68 825.884,-185.383 815.407,-183.801 816.708,-190.68"/>
</g>
<!-- Node15 -->
<g id="node15" class="node"><title>Node15</title>
<g id="a_node15"><a xlink:href="exceptions_8hpp.html" target="_top" xlink:title="exceptions.hpp">
<polygon fill="none" stroke="black" points="188,-112.5 188,-131.5 268,-131.5 268,-112.5 188,-112.5"/>
<text text-anchor="middle" x="228" y="-119.5" font-family="FreeSans" font-size="10.00">exceptions.hpp</text>
</a>
</g>
</g>
<!-- Node6&#45;&gt;Node15 -->
<g id="edge19" class="edge"><title>Node6&#45;&gt;Node15</title>
<path fill="none" stroke="midnightblue" d="M539.76,-229.236C501.962,-222.981 426.991,-209.016 366,-188 324.746,-173.785 279.43,-150.942 252.37,-136.466"/>
<polygon fill="midnightblue" stroke="midnightblue" points="253.729,-133.222 243.268,-131.543 250.398,-139.379 253.729,-133.222"/>
</g>
<!-- Node17 -->
<g id="node17" class="node"><title>Node17</title>
<g id="a_node17"><a xlink:href="value__utils_8hpp.html" target="_top" xlink:title="value_utils.hpp">
<polygon fill="none" stroke="black" points="652,-168.5 652,-187.5 732,-187.5 732,-168.5 652,-168.5"/>
<text text-anchor="middle" x="692" y="-175.5" font-family="FreeSans" font-size="10.00">value_utils.hpp</text>
</a>
</g>
</g>
<!-- Node6&#45;&gt;Node17 -->
<g id="edge22" class="edge"><title>Node6&#45;&gt;Node17</title>
<path fill="none" stroke="midnightblue" d="M584.282,-224.444C605.347,-215.557 638.517,-201.563 662.486,-191.451"/>
<polygon fill="midnightblue" stroke="midnightblue" points="663.96,-194.628 671.813,-187.516 661.239,-188.179 663.96,-194.628"/>
</g>
<!-- Node7&#45;&gt;Node2 -->
<g id="edge12" class="edge"><title>Node7&#45;&gt;Node2</title>
<path fill="none" stroke="midnightblue" d="M597.628,-168.368C598.919,-150.617 601.897,-109.666 603.647,-85.5974"/>
<polygon fill="midnightblue" stroke="midnightblue" points="607.141,-85.819 604.375,-75.5914 600.159,-85.3112 607.141,-85.819"/>
</g>
<!-- Node7&#45;&gt;Node8 -->
<g id="edge7" class="edge"><title>Node7&#45;&gt;Node8</title>
<path fill="none" stroke="midnightblue" d="M634.111,-169.464C637.113,-168.939 640.104,-168.443 643,-168 779.025,-147.21 942.032,-132.133 1013.45,-126.015"/>
<polygon fill="midnightblue" stroke="midnightblue" points="1014.04,-129.477 1023.71,-125.144 1013.45,-122.502 1014.04,-129.477"/>
</g>
<!-- Node12 -->
<g id="node12" class="node"><title>Node12</title>
<g id="a_node12"><a xlink:href="enums_8hpp.html" target="_top" xlink:title="enums.hpp">
<polygon fill="none" stroke="black" points="475.5,-112.5 475.5,-131.5 538.5,-131.5 538.5,-112.5 475.5,-112.5"/>
<text text-anchor="middle" x="507" y="-119.5" font-family="FreeSans" font-size="10.00">enums.hpp</text>
</a>
</g>
</g>
<!-- Node7&#45;&gt;Node12 -->
<g id="edge13" class="edge"><title>Node7&#45;&gt;Node12</title>
<path fill="none" stroke="midnightblue" d="M582.54,-168.324C568.5,-159.9 546.952,-146.971 530.457,-137.074"/>
<polygon fill="midnightblue" stroke="midnightblue" points="531.8,-133.798 521.424,-131.655 528.198,-139.801 531.8,-133.798"/>
</g>
<!-- Node8&#45;&gt;Node2 -->
<g id="edge9" class="edge"><title>Node8&#45;&gt;Node2</title>
<path fill="none" stroke="midnightblue" d="M1023.83,-114.676C1019.24,-113.692 1014.49,-112.753 1010,-112 876.33,-89.6067 715.912,-75.5282 643.639,-69.8606"/>
<polygon fill="midnightblue" stroke="midnightblue" points="643.87,-66.368 633.629,-69.0854 643.329,-73.3471 643.87,-66.368"/>
</g>
<!-- Node9 -->
<g id="node9" class="node"><title>Node9</title>
<polygon fill="none" stroke="#bfbfbf" points="1030,-56.5 1030,-75.5 1070,-75.5 1070,-56.5 1030,-56.5"/>
<text text-anchor="middle" x="1050" y="-63.5" font-family="FreeSans" font-size="10.00">regex</text>
</g>
<!-- Node8&#45;&gt;Node9 -->
<g id="edge8" class="edge"><title>Node8&#45;&gt;Node9</title>
<path fill="none" stroke="midnightblue" d="M1050,-112.083C1050,-105.006 1050,-94.8611 1050,-85.9865"/>
<polygon fill="midnightblue" stroke="midnightblue" points="1053.5,-85.751 1050,-75.7511 1046.5,-85.7511 1053.5,-85.751"/>
</g>
<!-- Node8&#45;&gt;Node10 -->
<g id="edge10" class="edge"><title>Node8&#45;&gt;Node10</title>
<path fill="none" stroke="midnightblue" d="M1076.05,-118.02C1154.86,-109.004 1391.02,-81.9855 1483.89,-71.3603"/>
<polygon fill="midnightblue" stroke="midnightblue" points="1484.43,-74.8208 1493.97,-70.2068 1483.64,-67.8662 1484.43,-74.8208"/>
</g>
<!-- Node11 -->
<g id="node11" class="node"><title>Node11</title>
<polygon fill="none" stroke="#bfbfbf" points="1222.5,-56.5 1222.5,-75.5 1283.5,-75.5 1283.5,-56.5 1222.5,-56.5"/>
<text text-anchor="middle" x="1253" y="-63.5" font-family="FreeSans" font-size="10.00">type_traits</text>
</g>
<!-- Node8&#45;&gt;Node11 -->
<g id="edge11" class="edge"><title>Node8&#45;&gt;Node11</title>
<path fill="none" stroke="midnightblue" d="M1076.12,-114.051C1110.67,-104.86 1171.92,-88.5674 1212.5,-77.774"/>
<polygon fill="midnightblue" stroke="midnightblue" points="1213.58,-81.1092 1222.34,-75.1561 1211.78,-74.3445 1213.58,-81.1092"/>
</g>
<!-- Node13&#45;&gt;Node2 -->
<g id="edge18" class="edge"><title>Node13&#45;&gt;Node2</title>
<path fill="none" stroke="midnightblue" d="M858.999,-168.367C858.498,-154.332 855.348,-126.664 839,-112 810.747,-86.658 702.787,-74.5261 643.89,-69.6865"/>
<polygon fill="midnightblue" stroke="midnightblue" points="644.085,-66.191 633.84,-68.8923 643.533,-73.1692 644.085,-66.191"/>
</g>
<!-- Node13&#45;&gt;Node8 -->
<g id="edge17" class="edge"><title>Node13&#45;&gt;Node8</title>
<path fill="none" stroke="midnightblue" d="M889.265,-168.444C923.205,-158.848 978.204,-143.298 1014.24,-133.11"/>
<polygon fill="midnightblue" stroke="midnightblue" points="1015.2,-136.477 1023.87,-130.388 1013.29,-129.741 1015.2,-136.477"/>
</g>
<!-- Node14 -->
<g id="node14" class="node"><title>Node14</title>
<polygon fill="none" stroke="#bfbfbf" points="791.5,-112.5 791.5,-131.5 830.5,-131.5 830.5,-112.5 791.5,-112.5"/>
<text text-anchor="middle" x="811" y="-119.5" font-family="FreeSans" font-size="10.00">utility</text>
</g>
<!-- Node13&#45;&gt;Node14 -->
<g id="edge16" class="edge"><title>Node13&#45;&gt;Node14</title>
<path fill="none" stroke="midnightblue" d="M851.074,-168.083C844.154,-160.298 833.935,-148.801 825.548,-139.367"/>
<polygon fill="midnightblue" stroke="midnightblue" points="828.038,-136.9 818.779,-131.751 822.806,-141.55 828.038,-136.9"/>
</g>
<!-- Node15&#45;&gt;Node2 -->
<g id="edge21" class="edge"><title>Node15&#45;&gt;Node2</title>
<path fill="none" stroke="midnightblue" d="M268.02,-115.177C275.332,-114.117 282.895,-113.023 290,-112 389.553,-97.6635 506.831,-80.9579 566.268,-72.5045"/>
<polygon fill="midnightblue" stroke="midnightblue" points="566.924,-75.9465 576.332,-71.0734 565.938,-69.0162 566.924,-75.9465"/>
</g>
<!-- Node16 -->
<g id="node16" class="node"><title>Node16</title>
<polygon fill="none" stroke="#bfbfbf" points="199,-56.5 199,-75.5 257,-75.5 257,-56.5 199,-56.5"/>
<text text-anchor="middle" x="228" y="-63.5" font-family="FreeSans" font-size="10.00">stdexcept</text>
</g>
<!-- Node15&#45;&gt;Node16 -->
<g id="edge20" class="edge"><title>Node15&#45;&gt;Node16</title>
<path fill="none" stroke="midnightblue" d="M228,-112.083C228,-105.006 228,-94.8611 228,-85.9865"/>
<polygon fill="midnightblue" stroke="midnightblue" points="231.5,-85.751 228,-75.7511 224.5,-85.7511 231.5,-85.751"/>
</g>
<!-- Node17&#45;&gt;Node2 -->
<g id="edge25" class="edge"><title>Node17&#45;&gt;Node2</title>
<path fill="none" stroke="midnightblue" d="M685.173,-168.368C670.752,-150.135 636.973,-107.426 618.189,-83.6752"/>
<polygon fill="midnightblue" stroke="midnightblue" points="620.744,-81.2636 611.795,-75.5914 615.253,-85.606 620.744,-81.2636"/>
</g>
<!-- Node17&#45;&gt;Node8 -->
<g id="edge23" class="edge"><title>Node17&#45;&gt;Node8</title>
<path fill="none" stroke="midnightblue" d="M732.025,-170.963C802.168,-160.382 946.243,-138.651 1013.68,-128.478"/>
<polygon fill="midnightblue" stroke="midnightblue" points="1014.46,-131.901 1023.82,-126.948 1013.41,-124.979 1014.46,-131.901"/>
</g>
<!-- Node17&#45;&gt;Node10 -->
<g id="edge26" class="edge"><title>Node17&#45;&gt;Node10</title>
<path fill="none" stroke="midnightblue" d="M700.454,-168.258C715.335,-153.531 747.877,-124.19 782,-112 815.257,-100.119 1335.54,-75.5279 1483.2,-68.7583"/>
<polygon fill="midnightblue" stroke="midnightblue" points="1483.74,-72.2373 1493.57,-68.2841 1483.42,-65.2446 1483.74,-72.2373"/>
</g>
<!-- Node17&#45;&gt;Node15 -->
<g id="edge24" class="edge"><title>Node17&#45;&gt;Node15</title>
<path fill="none" stroke="midnightblue" d="M651.928,-169.392C648.911,-168.895 645.91,-168.424 643,-168 511.915,-148.881 356.443,-134.122 278.243,-127.245"/>
<polygon fill="midnightblue" stroke="midnightblue" points="278.453,-123.75 268.186,-126.366 277.844,-130.723 278.453,-123.75"/>
</g>
<!-- Node18&#45;&gt;Node2 -->
<g id="edge35" class="edge"><title>Node18&#45;&gt;Node2</title>
<path fill="none" stroke="midnightblue" d="M552.98,-280.616C464.896,-259.048 255.442,-197.296 328,-112 358.102,-76.6135 497.08,-68.9766 566.012,-67.3829"/>
<polygon fill="midnightblue" stroke="midnightblue" points="566.122,-70.8815 576.05,-67.1823 565.982,-63.8829 566.122,-70.8815"/>
</g>
<!-- Node18&#45;&gt;Node6 -->
<g id="edge30" class="edge"><title>Node18&#45;&gt;Node6</title>
<path fill="none" stroke="midnightblue" d="M585.707,-280.083C582.148,-272.691 576.978,-261.953 572.576,-252.811"/>
<polygon fill="midnightblue" stroke="midnightblue" points="575.705,-251.243 568.213,-243.751 569.398,-254.279 575.705,-251.243"/>
</g>
<!-- Node18&#45;&gt;Node8 -->
<g id="edge34" class="edge"><title>Node18&#45;&gt;Node8</title>
<path fill="none" stroke="midnightblue" d="M619.509,-280.462C649.647,-271.654 697.738,-257.357 739,-244 811.478,-220.538 830.781,-217.542 901,-188 919.321,-180.292 922.913,-176.242 941,-168 966.849,-156.221 996.697,-143.991 1018.62,-135.259"/>
<polygon fill="midnightblue" stroke="midnightblue" points="1020.08,-138.445 1028.09,-131.508 1017.5,-131.937 1020.08,-138.445"/>
</g>
<!-- Node18&#45;&gt;Node13 -->
<g id="edge31" class="edge"><title>Node18&#45;&gt;Node13</title>
<path fill="none" stroke="midnightblue" d="M611.108,-280.368C658.447,-261.01 773.251,-214.065 828.414,-191.507"/>
<polygon fill="midnightblue" stroke="midnightblue" points="830.059,-194.616 837.99,-187.591 827.409,-188.137 830.059,-194.616"/>
</g>
<!-- Node18&#45;&gt;Node14 -->
<g id="edge36" class="edge"><title>Node18&#45;&gt;Node14</title>
<path fill="none" stroke="midnightblue" d="M604.687,-280.26C632.311,-263.59 693.496,-225.554 741,-188 760.576,-172.524 781.322,-152.785 795.101,-139.141"/>
<polygon fill="midnightblue" stroke="midnightblue" points="797.754,-141.438 802.347,-131.89 792.802,-136.49 797.754,-141.438"/>
</g>
<!-- Node18&#45;&gt;Node15 -->
<g id="edge32" class="edge"><title>Node18&#45;&gt;Node15</title>
<path fill="none" stroke="midnightblue" d="M552.907,-287.838C475.902,-284.827 301.731,-274.729 252,-244 226.413,-228.189 222.834,-216.752 214,-188 209.185,-172.328 214.022,-154.038 219.283,-140.859"/>
<polygon fill="midnightblue" stroke="midnightblue" points="222.564,-142.094 223.417,-131.533 216.165,-139.257 222.564,-142.094"/>
</g>
<!-- Node18&#45;&gt;Node17 -->
<g id="edge33" class="edge"><title>Node18&#45;&gt;Node17</title>
<path fill="none" stroke="midnightblue" d="M595.953,-280.143C604.836,-267.2 622.409,-242.636 640,-224 650.116,-213.283 662.566,-202.439 672.748,-194.082"/>
<polygon fill="midnightblue" stroke="midnightblue" points="675.074,-196.703 680.666,-187.704 670.682,-191.251 675.074,-196.703"/>
</g>
<!-- Node19&#45;&gt;Node2 -->
<g id="edge48" class="edge"><title>Node19&#45;&gt;Node2</title>
<path fill="none" stroke="midnightblue" d="M1487.47,-280.286C1468.17,-267.093 1429.77,-241.712 1395,-224 1277.78,-164.282 1248.87,-142.954 1121,-112 946.699,-69.805 730.815,-66.0424 643.918,-66.4398"/>
<polygon fill="midnightblue" stroke="midnightblue" points="643.707,-62.9411 633.731,-66.5088 643.754,-69.9409 643.707,-62.9411"/>
</g>
<!-- Node19&#45;&gt;Node10 -->
<g id="edge49" class="edge"><title>Node19&#45;&gt;Node10</title>
<path fill="none" stroke="midnightblue" d="M1509.53,-280.448C1526.62,-264.376 1561.81,-227.687 1574,-188 1585.91,-149.239 1556.36,-106.113 1537.08,-83.2716"/>
<polygon fill="midnightblue" stroke="midnightblue" points="1539.54,-80.7607 1530.3,-75.5618 1534.28,-85.3829 1539.54,-80.7607"/>
</g>
<!-- Node20 -->
<g id="node20" class="node"><title>Node20</title>
<g id="a_node20"><a xlink:href="group__iface_8hpp.html" target="_top" xlink:title="group_iface.hpp">
<polygon fill="none" stroke="black" points="1229.5,-224.5 1229.5,-243.5 1314.5,-243.5 1314.5,-224.5 1229.5,-224.5"/>
<text text-anchor="middle" x="1272" y="-231.5" font-family="FreeSans" font-size="10.00">group_iface.hpp</text>
</a>
</g>
</g>
<!-- Node19&#45;&gt;Node20 -->
<g id="edge38" class="edge"><title>Node19&#45;&gt;Node20</title>
<path fill="none" stroke="midnightblue" d="M1468.3,-281.492C1429.17,-272.223 1362.33,-256.394 1317.67,-245.817"/>
<polygon fill="midnightblue" stroke="midnightblue" points="1318.48,-242.411 1307.94,-243.512 1316.86,-249.222 1318.48,-242.411"/>
</g>
<!-- Node20&#45;&gt;Node2 -->
<g id="edge42" class="edge"><title>Node20&#45;&gt;Node2</title>
<path fill="none" stroke="midnightblue" d="M1262.8,-224.484C1237.1,-201.302 1161.41,-137.128 1085,-112 1003.2,-85.0988 742.825,-72.3712 643.763,-68.4112"/>
<polygon fill="midnightblue" stroke="midnightblue" points="643.723,-64.9071 633.594,-68.013 643.449,-71.9017 643.723,-64.9071"/>
</g>
<!-- Node20&#45;&gt;Node5 -->
<g id="edge43" class="edge"><title>Node20&#45;&gt;Node5</title>
<path fill="none" stroke="midnightblue" d="M1314.62,-225.408C1341.32,-218.973 1375.23,-207.561 1400,-188 1454.76,-144.758 1432.66,-102.146 1485,-56 1503.23,-39.9294 1528.2,-28.3352 1547.83,-20.9438"/>
<polygon fill="midnightblue" stroke="midnightblue" points="1549.03,-24.2308 1557.26,-17.556 1546.66,-17.6429 1549.03,-24.2308"/>
</g>
<!-- Node20&#45;&gt;Node7 -->
<g id="edge39" class="edge"><title>Node20&#45;&gt;Node7</title>
<path fill="none" stroke="midnightblue" d="M1229.49,-225.253C1226.28,-224.789 1223.09,-224.363 1220,-224 968.049,-194.426 899.579,-220.07 644.04,-187.957"/>
<polygon fill="midnightblue" stroke="midnightblue" points="644.451,-184.481 634.089,-186.689 643.567,-191.425 644.451,-184.481"/>
</g>
<!-- Node20&#45;&gt;Node8 -->
<g id="edge40" class="edge"><title>Node20&#45;&gt;Node8</title>
<path fill="none" stroke="midnightblue" d="M1255.49,-224.462C1231.17,-211.917 1184.23,-187.843 1144,-168 1121.61,-156.96 1096.06,-144.751 1077.25,-135.838"/>
<polygon fill="midnightblue" stroke="midnightblue" points="1078.62,-132.614 1068.08,-131.502 1075.62,-138.942 1078.62,-132.614"/>
</g>
<!-- Node20&#45;&gt;Node10 -->
<g id="edge45" class="edge"><title>Node20&#45;&gt;Node10</title>
<path fill="none" stroke="midnightblue" d="M1314.77,-231.489C1355.38,-228.16 1416.52,-218.054 1460,-188 1495.33,-163.583 1511.76,-112.759 1518.3,-85.3933"/>
<polygon fill="midnightblue" stroke="midnightblue" points="1521.74,-86.0674 1520.47,-75.5486 1514.9,-84.5619 1521.74,-86.0674"/>
</g>
<!-- Node20&#45;&gt;Node11 -->
<g id="edge44" class="edge"><title>Node20&#45;&gt;Node11</title>
<path fill="none" stroke="midnightblue" d="M1314.75,-227.622C1339.44,-222.08 1368.57,-210.83 1384,-188 1388.98,-180.636 1386.61,-176.497 1384,-168 1375.17,-139.248 1368.76,-131.666 1346,-112 1329.43,-97.6852 1307.52,-86.7907 1289.13,-79.3092"/>
<polygon fill="midnightblue" stroke="midnightblue" points="1290.19,-75.9677 1279.6,-75.6061 1287.66,-82.4919 1290.19,-75.9677"/>
</g>
<!-- Node20&#45;&gt;Node14 -->
<g id="edge46" class="edge"><title>Node20&#45;&gt;Node14</title>
<path fill="none" stroke="midnightblue" d="M1246.61,-224.487C1222.77,-216.182 1186.33,-202.684 1156,-188 1140.22,-180.36 1138.54,-173.809 1122,-168 1022.87,-133.188 896.879,-125.286 840.545,-123.508"/>
<polygon fill="midnightblue" stroke="midnightblue" points="840.639,-120.009 830.547,-123.234 840.448,-127.006 840.639,-120.009"/>
</g>
<!-- Node20&#45;&gt;Node15 -->
<g id="edge41" class="edge"><title>Node20&#45;&gt;Node15</title>
<path fill="none" stroke="midnightblue" d="M1229.49,-225.224C1226.29,-224.766 1223.1,-224.35 1220,-224 924.121,-190.552 846.397,-225.47 551,-188 450.212,-175.215 333.799,-148.883 271.957,-133.955"/>
<polygon fill="midnightblue" stroke="midnightblue" points="272.692,-130.532 262.149,-131.572 271.04,-137.334 272.692,-130.532"/>
</g>
<!-- Node21 -->
<g id="node21" class="node"><title>Node21</title>
<polygon fill="none" stroke="#bfbfbf" points="1062.5,-168.5 1062.5,-187.5 1113.5,-187.5 1113.5,-168.5 1062.5,-168.5"/>
<text text-anchor="middle" x="1088" y="-175.5" font-family="FreeSans" font-size="10.00">memory</text>
</g>
<!-- Node20&#45;&gt;Node21 -->
<g id="edge47" class="edge"><title>Node20&#45;&gt;Node21</title>
<path fill="none" stroke="midnightblue" d="M1242.84,-224.444C1210.47,-214.943 1158.21,-199.606 1123.49,-189.415"/>
<polygon fill="midnightblue" stroke="midnightblue" points="1124.33,-186.016 1113.75,-186.558 1122.36,-192.732 1124.33,-186.016"/>
</g>
<!-- Node22&#45;&gt;Node2 -->
<g id="edge90" class="edge"><title>Node22&#45;&gt;Node2</title>
<path fill="none" stroke="midnightblue" d="M301.514,-448.46C221.564,-427.348 38,-364.748 38,-235 38,-235 38,-235 38,-177 38,-69.1063 438.671,-64.8774 566.385,-66.2699"/>
<polygon fill="midnightblue" stroke="midnightblue" points="566.45,-69.7709 576.494,-66.3985 566.539,-62.7715 566.45,-69.7709"/>
</g>
<!-- Node22&#45;&gt;Node7 -->
<g id="edge51" class="edge"><title>Node22&#45;&gt;Node7</title>
<path fill="none" stroke="midnightblue" d="M341.012,-448.295C350.877,-420.784 384.561,-334.328 436,-280 474.57,-239.264 532.92,-208.088 567.766,-191.742"/>
<polygon fill="midnightblue" stroke="midnightblue" points="569.31,-194.884 576.935,-187.529 566.387,-188.524 569.31,-194.884"/>
</g>
<!-- Node22&#45;&gt;Node8 -->
<g id="edge52" class="edge"><title>Node22&#45;&gt;Node8</title>
<path fill="none" stroke="midnightblue" d="M393.524,-456.414C512.829,-454.507 802.268,-446.401 1042,-412 1266.56,-379.776 1398.27,-477.143 1540,-300 1663.51,-145.624 1218.88,-125.832 1086.26,-123.345"/>
<polygon fill="midnightblue" stroke="midnightblue" points="1086.25,-119.844 1076.19,-123.178 1086.13,-126.843 1086.25,-119.844"/>
</g>
<!-- Node22&#45;&gt;Node12 -->
<g id="edge89" class="edge"><title>Node22&#45;&gt;Node12</title>
<path fill="none" stroke="midnightblue" d="M318.587,-448.464C287.009,-433.108 228,-397.639 228,-347 228,-347 228,-347 228,-289 228,-179.905 387.497,-140.883 465.303,-128.339"/>
<polygon fill="midnightblue" stroke="midnightblue" points="465.916,-131.785 475.267,-126.805 464.851,-124.867 465.916,-131.785"/>
</g>
<!-- Node22&#45;&gt;Node15 -->
<g id="edge53" class="edge"><title>Node22&#45;&gt;Node15</title>
<path fill="none" stroke="midnightblue" d="M282.437,-457.151C205.529,-454.106 76,-435.798 76,-347 76,-347 76,-347 76,-233 76,-179.437 138.712,-149.3 183.573,-134.593"/>
<polygon fill="midnightblue" stroke="midnightblue" points="184.63,-137.93 193.128,-131.602 182.539,-131.25 184.63,-137.93"/>
</g>
<!-- Node23 -->
<g id="node23" class="node"><title>Node23</title>
<g id="a_node23"><a xlink:href="cmd__line_8hpp.html" target="_top" xlink:title="cmd_line.hpp">
<polygon fill="none" stroke="black" points="959,-392.5 959,-411.5 1033,-411.5 1033,-392.5 959,-392.5"/>
<text text-anchor="middle" x="996" y="-399.5" font-family="FreeSans" font-size="10.00">cmd_line.hpp</text>
</a>
</g>
</g>
<!-- Node22&#45;&gt;Node23 -->
<g id="edge54" class="edge"><title>Node22&#45;&gt;Node23</title>
<path fill="none" stroke="midnightblue" d="M393.534,-452.443C520.453,-442.027 829.931,-416.629 948.604,-406.89"/>
<polygon fill="midnightblue" stroke="midnightblue" points="949.138,-410.358 958.818,-406.051 948.565,-403.381 949.138,-410.358"/>
</g>
<!-- Node23&#45;&gt;Node1 -->
<g id="edge55" class="edge"><title>Node23&#45;&gt;Node1</title>
<path fill="none" stroke="midnightblue" d="M958.702,-410.845C861.289,-431.333 600.32,-486.221 506.87,-505.876"/>
<polygon fill="midnightblue" stroke="midnightblue" points="505.897,-502.504 496.831,-507.988 507.338,-509.354 505.897,-502.504"/>
</g>
<!-- Node23&#45;&gt;Node5 -->
<g id="edge75" class="edge"><title>Node23&#45;&gt;Node5</title>
<path fill="none" stroke="midnightblue" d="M1033.02,-401.323C1118.33,-401.301 1334.87,-396.84 1510,-356 1576.87,-340.405 1596.49,-337.526 1654,-300 1711.49,-262.486 1750,-247.648 1750,-179 1750,-179 1750,-179 1750,-121 1750,-55.4189 1659.94,-27.0911 1610.54,-16.4853"/>
<polygon fill="midnightblue" stroke="midnightblue" points="1611.15,-13.0394 1600.66,-14.4841 1609.76,-19.9001 1611.15,-13.0394"/>
</g>
<!-- Node23&#45;&gt;Node8 -->
<g id="edge56" class="edge"><title>Node23&#45;&gt;Node8</title>
<path fill="none" stroke="midnightblue" d="M1033.43,-401.393C1086.47,-400.492 1185.23,-393.349 1259,-356 1314.04,-328.134 1328.6,-304.433 1341,-244 1349.28,-203.661 1324.14,-187.739 1288,-168 1270.51,-158.449 1148.46,-138.374 1086.26,-128.593"/>
<polygon fill="midnightblue" stroke="midnightblue" points="1086.52,-125.091 1076.1,-127.003 1085.44,-132.007 1086.52,-125.091"/>
</g>
<!-- Node23&#45;&gt;Node10 -->
<g id="edge76" class="edge"><title>Node23&#45;&gt;Node10</title>
<path fill="none" stroke="midnightblue" d="M1033.42,-399.95C1175.55,-394.965 1674,-368.001 1674,-235 1674,-235 1674,-235 1674,-177 1674,-120.824 1605.02,-90.4148 1560,-76.5503"/>
<polygon fill="midnightblue" stroke="midnightblue" points="1560.81,-73.1425 1550.23,-73.6844 1558.84,-79.8592 1560.81,-73.1425"/>
</g>
<!-- Node23&#45;&gt;Node13 -->
<g id="edge57" class="edge"><title>Node23&#45;&gt;Node13</title>
<path fill="none" stroke="midnightblue" d="M990.629,-392.297C970.258,-359.286 897.511,-241.404 869.813,-196.522"/>
<polygon fill="midnightblue" stroke="midnightblue" points="872.713,-194.556 864.482,-187.884 866.756,-198.232 872.713,-194.556"/>
</g>
<!-- Node23&#45;&gt;Node15 -->
<g id="edge58" class="edge"><title>Node23&#45;&gt;Node15</title>
<path fill="none" stroke="midnightblue" d="M958.748,-398.46C829.324,-389.224 400.262,-355.047 275,-300 239.157,-284.249 225.269,-278.628 207,-244 191.205,-214.06 193.234,-200.696 202,-168 204.654,-158.103 210.069,-148.131 215.274,-140.099"/>
<polygon fill="midnightblue" stroke="midnightblue" points="218.289,-141.894 221.11,-131.681 212.536,-137.906 218.289,-141.894"/>
</g>
<!-- Node23&#45;&gt;Node21 -->
<g id="edge77" class="edge"><title>Node23&#45;&gt;Node21</title>
<path fill="none" stroke="midnightblue" d="M1000.26,-392.456C1008.8,-375.185 1028.46,-334.798 1043,-300 1058.06,-263.954 1073.47,-220.899 1081.78,-197.09"/>
<polygon fill="midnightblue" stroke="midnightblue" points="1085.1,-198.194 1085.07,-187.6 1078.49,-195.903 1085.1,-198.194"/>
</g>
<!-- Node24 -->
<g id="node24" class="node"><title>Node24</title>
<g id="a_node24"><a xlink:href="command_8hpp.html" target="_top" xlink:title="command.hpp">
<polygon fill="none" stroke="black" points="957.5,-280.5 957.5,-299.5 1034.5,-299.5 1034.5,-280.5 957.5,-280.5"/>
<text text-anchor="middle" x="996" y="-287.5" font-family="FreeSans" font-size="10.00">command.hpp</text>
</a>
</g>
</g>
<!-- Node23&#45;&gt;Node24 -->
<g id="edge59" class="edge"><title>Node23&#45;&gt;Node24</title>
<path fill="none" stroke="midnightblue" d="M996,-392.368C996,-374.617 996,-333.666 996,-309.597"/>
<polygon fill="midnightblue" stroke="midnightblue" points="999.5,-309.591 996,-299.591 992.5,-309.591 999.5,-309.591"/>
</g>
<!-- Node25 -->
<g id="node25" class="node"><title>Node25</title>
<g id="a_node25"><a xlink:href="help_8hpp.html" target="_top" xlink:title="help.hpp">
<polygon fill="none" stroke="black" points="741.5,-280.5 741.5,-299.5 794.5,-299.5 794.5,-280.5 741.5,-280.5"/>
<text text-anchor="middle" x="768" y="-287.5" font-family="FreeSans" font-size="10.00">help.hpp</text>
</a>
</g>
</g>
<!-- Node23&#45;&gt;Node25 -->
<g id="edge66" class="edge"><title>Node23&#45;&gt;Node25</title>
<path fill="none" stroke="midnightblue" d="M978.109,-392.368C938.318,-373.171 842.29,-326.842 795.099,-304.074"/>
<polygon fill="midnightblue" stroke="midnightblue" points="796.335,-300.784 785.808,-299.591 793.293,-307.089 796.335,-300.784"/>
</g>
<!-- Node27 -->
<g id="node27" class="node"><title>Node27</title>
<g id="a_node27"><a xlink:href="help__printer_8hpp.html" target="_top" xlink:title="help_printer.hpp">
<polygon fill="none" stroke="black" points="1165.5,-336.5 1165.5,-355.5 1250.5,-355.5 1250.5,-336.5 1165.5,-336.5"/>
<text text-anchor="middle" x="1208" y="-343.5" font-family="FreeSans" font-size="10.00">help_printer.hpp</text>
</a>
</g>
</g>
<!-- Node23&#45;&gt;Node27 -->
<g id="edge78" class="edge"><title>Node23&#45;&gt;Node27</title>
<path fill="none" stroke="midnightblue" d="M1029.59,-392.444C1066.19,-383.122 1124.84,-368.183 1164.83,-357.997"/>
<polygon fill="midnightblue" stroke="midnightblue" points="1165.74,-361.377 1174.57,-355.516 1164.01,-354.593 1165.74,-361.377"/>
</g>
<!-- Node24&#45;&gt;Node2 -->
<g id="edge65" class="edge"><title>Node24&#45;&gt;Node2</title>
<path fill="none" stroke="midnightblue" d="M992.425,-280.384C979.639,-250.797 933.021,-152.922 860,-112 791.025,-73.3455 696.461,-66.5643 644.027,-66.1058"/>
<polygon fill="midnightblue" stroke="midnightblue" points="643.816,-62.6056 633.812,-66.0927 643.807,-69.6056 643.816,-62.6056"/>
</g>
<!-- Node24&#45;&gt;Node8 -->
<g id="edge61" class="edge"><title>Node24&#45;&gt;Node8</title>
<path fill="none" stroke="midnightblue" d="M998.903,-280.075C1007.44,-253.832 1032.58,-176.545 1044.11,-141.117"/>
<polygon fill="midnightblue" stroke="midnightblue" points="1047.45,-142.16 1047.21,-131.568 1040.79,-139.995 1047.45,-142.16"/>
</g>
<!-- Node24&#45;&gt;Node12 -->
<g id="edge64" class="edge"><title>Node24&#45;&gt;Node12</title>
<path fill="none" stroke="midnightblue" d="M957.496,-286.522C848.856,-279.366 546.765,-258.272 531,-244 502.382,-218.093 502.166,-168.681 504.544,-141.708"/>
<polygon fill="midnightblue" stroke="midnightblue" points="508.035,-141.978 505.646,-131.656 501.077,-141.215 508.035,-141.978"/>
</g>
<!-- Node24&#45;&gt;Node13 -->
<g id="edge62" class="edge"><title>Node24&#45;&gt;Node13</title>
<path fill="none" stroke="midnightblue" d="M989.009,-280.291C978.15,-267.103 956.164,-241.73 934,-224 918.923,-211.939 900.322,-200.758 885.416,-192.558"/>
<polygon fill="midnightblue" stroke="midnightblue" points="886.694,-189.272 876.228,-187.621 883.38,-195.438 886.694,-189.272"/>
</g>
<!-- Node24&#45;&gt;Node17 -->
<g id="edge63" class="edge"><title>Node24&#45;&gt;Node17</title>
<path fill="none" stroke="midnightblue" d="M972.399,-280.46C918.747,-261.047 787.487,-213.551 725.482,-191.115"/>
<polygon fill="midnightblue" stroke="midnightblue" points="726.39,-187.722 715.796,-187.61 724.008,-194.304 726.39,-187.722"/>
</g>
<!-- Node24&#45;&gt;Node20 -->
<g id="edge60" class="edge"><title>Node24&#45;&gt;Node20</title>
<path fill="none" stroke="midnightblue" d="M1034.67,-281.435C1082.75,-272.027 1165.06,-255.922 1219,-245.369"/>
<polygon fill="midnightblue" stroke="midnightblue" points="1219.92,-248.757 1229.06,-243.401 1218.57,-241.887 1219.92,-248.757"/>
</g>
<!-- Node25&#45;&gt;Node2 -->
<g id="edge73" class="edge"><title>Node25&#45;&gt;Node2</title>
<path fill="none" stroke="midnightblue" d="M741.339,-287.482C683.327,-283.683 548.035,-271.989 513,-244 464.346,-205.13 429.369,-162.362 466,-112 488.753,-80.7188 533.722,-70.7373 566.365,-67.7795"/>
<polygon fill="midnightblue" stroke="midnightblue" points="566.765,-71.2598 576.487,-67.0478 566.261,-64.278 566.765,-71.2598"/>
</g>
<!-- Node25&#45;&gt;Node6 -->
<g id="edge67" class="edge"><title>Node25&#45;&gt;Node6</title>
<path fill="none" stroke="midnightblue" d="M741.331,-281.94C704.57,-272.21 638.316,-254.672 598.028,-244.007"/>
<polygon fill="midnightblue" stroke="midnightblue" points="598.696,-240.564 588.133,-241.388 596.905,-247.331 598.696,-240.564"/>
</g>
<!-- Node25&#45;&gt;Node8 -->
<g id="edge71" class="edge"><title>Node25&#45;&gt;Node8</title>
<path fill="none" stroke="midnightblue" d="M782.764,-280.309C828.83,-253.192 970.19,-169.98 1026.5,-136.834"/>
<polygon fill="midnightblue" stroke="midnightblue" points="1028.54,-139.694 1035.38,-131.605 1024.99,-133.662 1028.54,-139.694"/>
</g>
<!-- Node25&#45;&gt;Node13 -->
<g id="edge70" class="edge"><title>Node25&#45;&gt;Node13</title>
<path fill="none" stroke="midnightblue" d="M769.464,-280.16C772.044,-266.801 778.464,-241.208 792,-224 802.417,-210.757 817.831,-200.026 831.249,-192.369"/>
<polygon fill="midnightblue" stroke="midnightblue" points="833.001,-195.401 840.133,-187.567 829.672,-189.243 833.001,-195.401"/>
</g>
<!-- Node25&#45;&gt;Node15 -->
<g id="edge72" class="edge"><title>Node25&#45;&gt;Node15</title>
<path fill="none" stroke="midnightblue" d="M741.282,-287.848C684.943,-284.871 550.242,-274.856 442,-244 383.066,-227.2 368.961,-218.832 316,-188 290.42,-173.108 263.374,-152.26 246.125,-138.226"/>
<polygon fill="midnightblue" stroke="midnightblue" points="248.001,-135.236 238.058,-131.576 243.548,-140.638 248.001,-135.236"/>
</g>
<!-- Node25&#45;&gt;Node21 -->
<g id="edge74" class="edge"><title>Node25&#45;&gt;Node21</title>
<path fill="none" stroke="midnightblue" d="M792.844,-280.46C849.436,-261.006 988.057,-213.355 1053.16,-190.977"/>
<polygon fill="midnightblue" stroke="midnightblue" points="1054.63,-194.171 1062.95,-187.61 1052.36,-187.551 1054.63,-194.171"/>
</g>
<!-- Node26 -->
<g id="node26" class="node"><title>Node26</title>
<g id="a_node26"><a xlink:href="help__printer__iface_8hpp.html" target="_top" xlink:title="help_printer_iface.hpp">
<polygon fill="none" stroke="black" points="1100.5,-224.5 1100.5,-243.5 1211.5,-243.5 1211.5,-224.5 1100.5,-224.5"/>
<text text-anchor="middle" x="1156" y="-231.5" font-family="FreeSans" font-size="10.00">help_printer_iface.hpp</text>
</a>
</g>
</g>
<!-- Node25&#45;&gt;Node26 -->
<g id="edge68" class="edge"><title>Node25&#45;&gt;Node26</title>
<path fill="none" stroke="midnightblue" d="M794.669,-285.288C855.028,-276.888 1003.58,-256.214 1090.25,-244.151"/>
<polygon fill="midnightblue" stroke="midnightblue" points="1090.82,-247.605 1100.25,-242.76 1089.86,-240.672 1090.82,-247.605"/>
</g>
<!-- Node26&#45;&gt;Node8 -->
<g id="edge69" class="edge"><title>Node26&#45;&gt;Node8</title>
<path fill="none" stroke="midnightblue" d="M1153.07,-224.109C1148.29,-210.684 1137.75,-185.006 1122,-168 1109.76,-154.781 1092.79,-143.927 1078.41,-136.193"/>
<polygon fill="midnightblue" stroke="midnightblue" points="1079.89,-133.022 1069.4,-131.567 1076.7,-139.249 1079.89,-133.022"/>
</g>
<!-- Node27&#45;&gt;Node2 -->
<g id="edge87" class="edge"><title>Node27&#45;&gt;Node2</title>
<path fill="none" stroke="midnightblue" d="M1165.28,-343.823C1027.5,-339.789 600.455,-325.354 544,-300 459.141,-261.89 394.297,-184.964 452,-112 478.965,-77.9038 530.402,-68.7037 566.152,-66.6871"/>
<polygon fill="midnightblue" stroke="midnightblue" points="566.39,-70.1805 576.242,-66.2828 566.11,-63.1861 566.39,-70.1805"/>
</g>
<!-- Node27&#45;&gt;Node5 -->
<g id="edge79" class="edge"><title>Node27&#45;&gt;Node5</title>
<path fill="none" stroke="midnightblue" d="M1250.69,-342.627C1332.94,-337.57 1510.17,-324.17 1566,-300 1643.34,-266.519 1712,-263.277 1712,-179 1712,-179 1712,-179 1712,-121 1712,-68.3774 1649.41,-36.1872 1610.1,-21.1603"/>
<polygon fill="midnightblue" stroke="midnightblue" points="1611.26,-17.8559 1600.66,-17.7077 1608.85,-24.43 1611.26,-17.8559"/>
</g>
<!-- Node27&#45;&gt;Node8 -->
<g id="edge82" class="edge"><title>Node27&#45;&gt;Node8</title>
<path fill="none" stroke="midnightblue" d="M1228.03,-336.469C1268.91,-317.826 1355.45,-271.324 1323,-224 1269.35,-145.761 1147.58,-127.957 1086.44,-124.025"/>
<polygon fill="midnightblue" stroke="midnightblue" points="1086.29,-120.512 1076.12,-123.457 1085.91,-127.501 1086.29,-120.512"/>
</g>
<!-- Node27&#45;&gt;Node10 -->
<g id="edge80" class="edge"><title>Node27&#45;&gt;Node10</title>
<path fill="none" stroke="midnightblue" d="M1250.57,-344.27C1329.62,-342.116 1495.13,-333.604 1540,-300 1590.21,-262.394 1596.61,-230.385 1590,-168 1587.32,-142.688 1591.36,-133.667 1578,-112 1570.25,-99.4342 1557.7,-88.8686 1546.44,-81.1397"/>
<polygon fill="midnightblue" stroke="midnightblue" points="1548.1,-78.0478 1537.8,-75.5654 1544.31,-83.9291 1548.1,-78.0478"/>
</g>
<!-- Node27&#45;&gt;Node15 -->
<g id="edge83" class="edge"><title>Node27&#45;&gt;Node15</title>
<path fill="none" stroke="midnightblue" d="M1165.15,-345.313C1048.78,-345.551 717.397,-342.162 446,-300 346.3,-284.511 298.948,-313.703 226,-244 200.975,-220.088 202.132,-201.924 209,-168 210.893,-158.649 214.792,-148.827 218.567,-140.753"/>
<polygon fill="midnightblue" stroke="midnightblue" points="221.788,-142.138 223.124,-131.628 215.525,-139.011 221.788,-142.138"/>
</g>
<!-- Node27&#45;&gt;Node19 -->
<g id="edge85" class="edge"><title>Node27&#45;&gt;Node19</title>
<path fill="none" stroke="midnightblue" d="M1250.77,-337.09C1306.43,-326.797 1403.07,-308.926 1458.23,-298.725"/>
<polygon fill="midnightblue" stroke="midnightblue" points="1459.16,-302.112 1468.36,-296.852 1457.89,-295.229 1459.16,-302.112"/>
</g>
<!-- Node27&#45;&gt;Node20 -->
<g id="edge84" class="edge"><title>Node27&#45;&gt;Node20</title>
<path fill="none" stroke="midnightblue" d="M1196.3,-336.456C1180.58,-323.904 1156.03,-299.821 1169,-280 1180.47,-262.469 1200.44,-251.728 1219.75,-245.165"/>
<polygon fill="midnightblue" stroke="midnightblue" points="1220.92,-248.469 1229.45,-242.183 1218.86,-241.779 1220.92,-248.469"/>
</g>
<!-- Node27&#45;&gt;Node24 -->
<g id="edge86" class="edge"><title>Node27&#45;&gt;Node24</title>
<path fill="none" stroke="midnightblue" d="M1174.41,-336.444C1137.81,-327.122 1079.16,-312.183 1039.17,-301.997"/>
<polygon fill="midnightblue" stroke="midnightblue" points="1039.99,-298.593 1029.43,-299.516 1038.26,-305.377 1039.99,-298.593"/>
</g>
<!-- Node27&#45;&gt;Node26 -->
<g id="edge88" class="edge"><title>Node27&#45;&gt;Node26</title>
<path fill="none" stroke="midnightblue" d="M1219.58,-336.298C1234.82,-323.752 1258.3,-299.904 1246,-280 1236.33,-264.348 1219.38,-253.958 1202.78,-247.15"/>
<polygon fill="midnightblue" stroke="midnightblue" points="1203.69,-243.756 1193.1,-243.542 1201.25,-250.315 1203.69,-243.756"/>
</g>
<!-- Node28 -->
<g id="node28" class="node"><title>Node28</title>
<polygon fill="none" stroke="#bfbfbf" points="1178.5,-280.5 1178.5,-299.5 1237.5,-299.5 1237.5,-280.5 1178.5,-280.5"/>
<text text-anchor="middle" x="1208" y="-287.5" font-family="FreeSans" font-size="10.00">functional</text>
</g>
<!-- Node27&#45;&gt;Node28 -->
<g id="edge81" class="edge"><title>Node27&#45;&gt;Node28</title>
<path fill="none" stroke="midnightblue" d="M1208,-336.083C1208,-329.006 1208,-318.861 1208,-309.986"/>
<polygon fill="midnightblue" stroke="midnightblue" points="1211.5,-309.751 1208,-299.751 1204.5,-309.751 1211.5,-309.751"/>
</g>
</g>
</svg>
        <g id="navigator" transform="translate(0 0)" fill="#404254">
                <rect fill="#f2f5e9" fill-opacity="0.5" stroke="#606060" stroke-width=".5" x="0" y="0" width="60" height="60"/>
                <use id="zoomplus" xlink:href="#zoomPlus" x="17" y="9" onmousedown="handleZoom(evt,'in')"/>
                <use id="zoomminus" xlink:href="#zoomMin" x="42" y="9" onmousedown="handleZoom(evt,'out')"/>
                <use id="reset" xlink:href="#resetDef" x="30" y="36" onmousedown="handleReset()"/>
                <g id="arrowUp" xlink:href="#dirArrow" transform="translate(30 24)" onmousedown="handlePan(0,-1)">
                  <use xlink:href="#rim" fill="#404040">
                        <set attributeName="fill" to="#808080" begin="arrowUp.mouseover" end="arrowUp.mouseout"/>
                  </use>
                  <path fill="none" stroke="white" stroke-width="1.5" d="M0,-3.0v7 M-2.5,-0.5L0,-3.0L2.5,-0.5"/>
                </g>
                <g id="arrowRight" xlink:href="#dirArrow" transform="rotate(90) translate(36 -43)" onmousedown="handlePan(1,0)">
                  <use xlink:href="#rim" fill="#404040">
                        <set attributeName="fill" to="#808080" begin="arrowRight.mouseover" end="arrowRight.mouseout"/>
                  </use>
                  <path fill="none" stroke="white" stroke-width="1.5" d="M0,-3.0v7 M-2.5,-0.5L0,-3.0L2.5,-0.5"/>
                </g>
                <g id="arrowDown" xlink:href="#dirArrow" transform="rotate(180) translate(-30 -48)" onmousedown="handlePan(0,1)">
                  <use xlink:href="#rim" fill="#404040">
                        <set attributeName="fill" to="#808080" begin="arrowDown.mouseover" end="arrowDown.mouseout"/>
                  </use>
                  <path fill="none" stroke="white" stroke-width="1.5" d="M0,-3.0v7 M-2.5,-0.5L0,-3.0L2.5,-0.5"/>
                </g>
                <g id="arrowLeft" xlink:href="#dirArrow" transform="rotate(270) translate(-36 17)" onmousedown="handlePan(-1,0)">
                  <use xlink:href="#rim" fill="#404040">
                        <set attributeName="fill" to="#808080" begin="arrowLeft.mouseover" end="arrowLeft.mouseout"/>
                  </use>
                  <path fill="none" stroke="white" stroke-width="1.5" d="M0,-3.0v7 M-2.5,-0.5L0,-3.0L2.5,-0.5"/>
                </g>
        </g>
        <svg viewBox="0 0 15 15" width="100%" height="30px" preserveAspectRatio="xMaxYMin meet">
         <g id="arrow_out" transform="scale(0.3 0.3)">
          <a xlink:href="api_8hpp__incl_org.svg" target="_base">
           <rect id="button" ry="5" rx="5" y="6" x="6" height="38" width="38"
                fill="#f2f5e9" fill-opacity="0.5" stroke="#606060" stroke-width="1.0"/>
           <path id="arrow"
             d="M 11.500037,31.436501 C 11.940474,20.09759 22.043105,11.32322 32.158766,21.979434 L 37.068811,17.246167 C 37.068811,17.246167 37.088388,32 37.088388,32 L 22.160133,31.978069 C 22.160133,31.978069 26.997745,27.140456 26.997745,27.140456 C 18.528582,18.264221 13.291696,25.230495 11.500037,31.436501 z"
             style="fill:#404040;"/>
          </a>
         </g>
        </svg>
</svg>
