<?xml version="1.0" encoding="UTF-8" standalone="no"?>
<!DOCTYPE svg PUBLIC "-//W3C//DTD SVG 1.1//EN"
 "http://www.w3.org/Graphics/SVG/1.1/DTD/svg11.dtd">
<!-- Generated by graphviz version 2.43.0 (0)
 -->
<!-- Title: api.hpp Pages: 1 -->
<svg width="1052pt" height="357pt"
 viewBox="0.00 0.00 1051.83 357.00" xmlns="http://www.w3.org/2000/svg" xmlns:xlink="http://www.w3.org/1999/xlink">
<g id="graph0" class="graph" transform="scale(1 1) rotate(0) translate(4 353)">
<title>api.hpp</title>
<!-- Node1 -->
<g id="Node000001" class="node">
<title>Node1</title>
<g id="a_Node000001"><a xlink:title=" ">
<polygon fill="#999999" stroke="#666666" points="458.31,-349 405.31,-349 405.31,-330 458.31,-330 458.31,-349"/>
<text text-anchor="middle" x="431.81" y="-337" font-family="Helvetica,sans-Serif" font-size="10.00">api.hpp</text>
</a>
</g>
</g>
<!-- Node2 -->
<g id="Node000002" class="node">
<title>Node2</title>
<g id="a_Node000002"><a xlink:href="types_8hpp.html" target="_top" xlink:title=" ">
<polygon fill="white" stroke="#666666" points="409.31,-74 344.31,-74 344.31,-55 409.31,-55 409.31,-74"/>
<text text-anchor="middle" x="376.81" y="-62" font-family="Helvetica,sans-Serif" font-size="10.00">types.hpp</text>
</a>
</g>
</g>
<!-- Node1&#45;&gt;Node2 -->
<g id="edge1_Node000001_Node000002" class="edge">
<title>Node1&#45;&gt;Node2</title>
<g id="a_edge1_Node000001_Node000002"><a xlink:title=" ">
<path fill="none" stroke="#63b8ff" d="M405.05,-337.12C315.05,-331.78 28.81,-308.64 28.81,-230.5 28.81,-230.5 28.81,-230.5 28.81,-173.5 28.81,-140.84 38.72,-128.25 65.81,-110 108.8,-81.05 259.38,-70.56 334.09,-67.07"/>
<polygon fill="#63b8ff" stroke="#63b8ff" points="334.28,-70.57 344.12,-66.63 333.97,-63.58 334.28,-70.57"/>
</a>
</g>
</g>
<!-- Node6 -->
<g id="Node000006" class="node">
<title>Node6</title>
<g id="a_Node000006"><a xlink:href="arg_8hpp.html" target="_top" xlink:title=" ">
<polygon fill="white" stroke="#666666" points="354.31,-239 301.31,-239 301.31,-220 354.31,-220 354.31,-239"/>
<text text-anchor="middle" x="327.81" y="-227" font-family="Helvetica,sans-Serif" font-size="10.00">arg.hpp</text>
</a>
</g>
</g>
<!-- Node1&#45;&gt;Node6 -->
<g id="edge5_Node000001_Node000006" class="edge">
<title>Node1&#45;&gt;Node6</title>
<g id="a_edge5_Node000001_Node000006"><a xlink:title=" ">
<path fill="none" stroke="#63b8ff" d="M423.3,-329.66C405.77,-311.46 365.41,-269.55 343.18,-246.47"/>
<polygon fill="#63b8ff" stroke="#63b8ff" points="345.6,-243.93 336.15,-239.16 340.56,-248.79 345.6,-243.93"/>
</a>
</g>
</g>
<!-- Node17 -->
<g id="Node000017" class="node">
<title>Node17</title>
<g id="a_Node000017"><a xlink:href="multi__arg_8hpp.html" target="_top" xlink:title=" ">
<polygon fill="white" stroke="#666666" points="287.81,-294 203.81,-294 203.81,-275 287.81,-275 287.81,-294"/>
<text text-anchor="middle" x="245.81" y="-282" font-family="Helvetica,sans-Serif" font-size="10.00">multi_arg.hpp</text>
</a>
</g>
</g>
<!-- Node1&#45;&gt;Node17 -->
<g id="edge28_Node000001_Node000017" class="edge">
<title>Node1&#45;&gt;Node17</title>
<g id="a_edge28_Node000001_Node000017"><a xlink:title=" ">
<path fill="none" stroke="#63b8ff" d="M405.16,-330.91C373.85,-321.98 321.6,-307.1 285.52,-296.81"/>
<polygon fill="#63b8ff" stroke="#63b8ff" points="286.37,-293.42 275.8,-294.05 284.46,-300.15 286.37,-293.42"/>
</a>
</g>
</g>
<!-- Node18 -->
<g id="Node000018" class="node">
<title>Node18</title>
<g id="a_Node000018"><a xlink:href="groups_8hpp.html" target="_top" xlink:title=" ">
<polygon fill="white" stroke="#666666" points="985.31,-294 914.31,-294 914.31,-275 985.31,-275 985.31,-294"/>
<text text-anchor="middle" x="949.81" y="-282" font-family="Helvetica,sans-Serif" font-size="10.00">groups.hpp</text>
</a>
</g>
</g>
<!-- Node1&#45;&gt;Node18 -->
<g id="edge36_Node000001_Node000018" class="edge">
<title>Node1&#45;&gt;Node18</title>
<g id="a_edge36_Node000001_Node000018"><a xlink:title=" ">
<path fill="none" stroke="#63b8ff" d="M458.57,-335.76C542.17,-327.21 799.18,-300.91 904.29,-290.16"/>
<polygon fill="#63b8ff" stroke="#63b8ff" points="904.68,-293.64 914.27,-289.14 903.97,-286.67 904.68,-293.64"/>
</a>
</g>
</g>
<!-- Node21 -->
<g id="Node000021" class="node">
<title>Node21</title>
<g id="a_Node000021"><a xlink:href="command_8hpp.html" target="_top" xlink:title=" ">
<polygon fill="white" stroke="#666666" points="520.81,-294 434.81,-294 434.81,-275 520.81,-275 520.81,-294"/>
<text text-anchor="middle" x="477.81" y="-282" font-family="Helvetica,sans-Serif" font-size="10.00">command.hpp</text>
</a>
</g>
</g>
<!-- Node1&#45;&gt;Node21 -->
<g id="edge49_Node000001_Node000021" class="edge">
<title>Node1&#45;&gt;Node21</title>
<g id="a_edge49_Node000001_Node000021"><a xlink:title=" ">
<path fill="none" stroke="#63b8ff" d="M434.24,-329.75C439.28,-322.03 448.85,-310.6 457.88,-301.28"/>
<polygon fill="#63b8ff" stroke="#63b8ff" points="460.53,-303.59 465.22,-294.09 455.63,-298.59 460.53,-303.59"/>
</a>
</g>
</g>
<!-- Node3 -->
<g id="Node000003" class="node">
<title>Node3</title>
<g id="a_Node000003"><a xlink:title=" ">
<polygon fill="#e0e0e0" stroke="#999999" points="433.81,-19 389.81,-19 389.81,0 433.81,0 433.81,-19"/>
<text text-anchor="middle" x="411.81" y="-7" font-family="Helvetica,sans-Serif" font-size="10.00">string</text>
</a>
</g>
</g>
<!-- Node2&#45;&gt;Node3 -->
<g id="edge2_Node000002_Node000003" class="edge">
<title>Node2&#45;&gt;Node3</title>
<g id="a_edge2_Node000002_Node000003"><a xlink:title=" ">
<path fill="none" stroke="#63b8ff" d="M382.59,-54.75C387.43,-47.42 394.49,-36.73 400.45,-27.7"/>
<polygon fill="#63b8ff" stroke="#63b8ff" points="403.55,-29.36 406.14,-19.09 397.71,-25.5 403.55,-29.36"/>
</a>
</g>
</g>
<!-- Node4 -->
<g id="Node000004" class="node">
<title>Node4</title>
<g id="a_Node000004"><a xlink:title=" ">
<polygon fill="#e0e0e0" stroke="#999999" points="371.81,-19 311.81,-19 311.81,0 371.81,0 371.81,-19"/>
<text text-anchor="middle" x="341.81" y="-7" font-family="Helvetica,sans-Serif" font-size="10.00">iostream</text>
</a>
</g>
</g>
<!-- Node2&#45;&gt;Node4 -->
<g id="edge3_Node000002_Node000004" class="edge">
<title>Node2&#45;&gt;Node4</title>
<g id="a_edge3_Node000002_Node000004"><a xlink:title=" ">
<path fill="none" stroke="#63b8ff" d="M371.03,-54.75C366.19,-47.42 359.13,-36.73 353.16,-27.7"/>
<polygon fill="#63b8ff" stroke="#63b8ff" points="355.91,-25.5 347.48,-19.09 350.07,-29.36 355.91,-25.5"/>
</a>
</g>
</g>
<!-- Node5 -->
<g id="Node000005" class="node">
<title>Node5</title>
<g id="a_Node000005"><a xlink:title=" ">
<polygon fill="#e0e0e0" stroke="#999999" points="821.31,-19 774.31,-19 774.31,0 821.31,0 821.31,-19"/>
<text text-anchor="middle" x="797.81" y="-7" font-family="Helvetica,sans-Serif" font-size="10.00">vector</text>
</a>
</g>
</g>
<!-- Node2&#45;&gt;Node5 -->
<g id="edge4_Node000002_Node000005" class="edge">
<title>Node2&#45;&gt;Node5</title>
<g id="a_edge4_Node000002_Node000005"><a xlink:title=" ">
<path fill="none" stroke="#63b8ff" d="M409.49,-59.39C487.7,-49.54 685,-24.7 764.17,-14.74"/>
<polygon fill="#63b8ff" stroke="#63b8ff" points="764.61,-18.21 774.1,-13.49 763.74,-11.26 764.61,-18.21"/>
</a>
</g>
</g>
<!-- Node6&#45;&gt;Node2 -->
<g id="edge26_Node000006_Node000002" class="edge">
<title>Node6&#45;&gt;Node2</title>
<g id="a_edge26_Node000006_Node000002"><a xlink:title=" ">
<path fill="none" stroke="#63b8ff" d="M300.97,-223.24C279.75,-217.52 251.51,-206.06 237.81,-184 233.35,-176.83 236.34,-173.32 237.81,-165 242.32,-139.38 239.5,-128.48 257.81,-110 278.21,-89.41 309.02,-78.24 334.18,-72.23"/>
<polygon fill="#63b8ff" stroke="#63b8ff" points="335.19,-75.59 344.21,-70.04 333.69,-68.76 335.19,-75.59"/>
</a>
</g>
</g>
<!-- Node7 -->
<g id="Node000007" class="node">
<title>Node7</title>
<g id="a_Node000007"><a xlink:href="arg__iface_8hpp.html" target="_top" xlink:title=" ">
<polygon fill="white" stroke="#666666" points="646.31,-184 563.31,-184 563.31,-165 646.31,-165 646.31,-184"/>
<text text-anchor="middle" x="604.81" y="-172" font-family="Helvetica,sans-Serif" font-size="10.00">arg_iface.hpp</text>
</a>
</g>
</g>
<!-- Node6&#45;&gt;Node7 -->
<g id="edge6_Node000006_Node000007" class="edge">
<title>Node6&#45;&gt;Node7</title>
<g id="a_edge6_Node000006_Node000007"><a xlink:title=" ">
<path fill="none" stroke="#63b8ff" d="M354.7,-222.85C359.4,-221.89 364.24,-220.9 368.81,-220 432.06,-207.48 505.02,-193.85 552.87,-185.01"/>
<polygon fill="#63b8ff" stroke="#63b8ff" points="553.79,-188.41 562.99,-183.15 552.52,-181.52 553.79,-188.41"/>
</a>
</g>
</g>
<!-- Node8 -->
<g id="Node000008" class="node">
<title>Node8</title>
<g id="a_Node000008"><a xlink:href="utils_8hpp.html" target="_top" xlink:title=" ">
<polygon fill="white" stroke="#666666" points="704.31,-129 645.31,-129 645.31,-110 704.31,-110 704.31,-129"/>
<text text-anchor="middle" x="674.81" y="-117" font-family="Helvetica,sans-Serif" font-size="10.00">utils.hpp</text>
</a>
</g>
</g>
<!-- Node6&#45;&gt;Node8 -->
<g id="edge13_Node000006_Node000008" class="edge">
<title>Node6&#45;&gt;Node8</title>
<g id="a_edge13_Node000006_Node000008"><a xlink:title=" ">
<path fill="none" stroke="#63b8ff" d="M354.66,-222.62C359.36,-221.68 364.22,-220.76 368.81,-220 432,-209.49 605.63,-225.04 654.81,-184 667.83,-173.13 672.5,-153.85 674.11,-139.38"/>
<polygon fill="#63b8ff" stroke="#63b8ff" points="677.62,-139.28 674.84,-129.06 670.64,-138.78 677.62,-139.28"/>
</a>
</g>
</g>
<!-- Node9 -->
<g id="Node000009" class="node">
<title>Node9</title>
<g id="a_Node000009"><a xlink:title=" ">
<polygon fill="#e0e0e0" stroke="#999999" points="802.81,-74 738.81,-74 738.81,-55 802.81,-55 802.81,-74"/>
<text text-anchor="middle" x="770.81" y="-62" font-family="Helvetica,sans-Serif" font-size="10.00">algorithm</text>
</a>
</g>
</g>
<!-- Node6&#45;&gt;Node9 -->
<g id="edge27_Node000006_Node000009" class="edge">
<title>Node6&#45;&gt;Node9</title>
<g id="a_edge27_Node000006_Node000009"><a xlink:title=" ">
<path fill="none" stroke="#63b8ff" d="M354.35,-227.65C425.82,-224.97 620.63,-214.95 675.81,-184 717.82,-160.44 748.24,-110.17 762.23,-83.3"/>
<polygon fill="#63b8ff" stroke="#63b8ff" points="765.41,-84.76 766.77,-74.25 759.16,-81.62 765.41,-84.76"/>
</a>
</g>
</g>
<!-- Node12 -->
<g id="Node000012" class="node">
<title>Node12</title>
<g id="a_Node000012"><a xlink:href="context_8hpp.html" target="_top" xlink:title=" ">
<polygon fill="white" stroke="#666666" points="320.81,-184 246.81,-184 246.81,-165 320.81,-165 320.81,-184"/>
<text text-anchor="middle" x="283.81" y="-172" font-family="Helvetica,sans-Serif" font-size="10.00">context.hpp</text>
</a>
</g>
</g>
<!-- Node6&#45;&gt;Node12 -->
<g id="edge14_Node000006_Node000012" class="edge">
<title>Node6&#45;&gt;Node12</title>
<g id="a_edge14_Node000006_Node000012"><a xlink:title=" ">
<path fill="none" stroke="#63b8ff" d="M320.54,-219.75C314.26,-212.18 305.02,-201.05 297.38,-191.84"/>
<polygon fill="#63b8ff" stroke="#63b8ff" points="300.02,-189.55 290.94,-184.09 294.63,-194.02 300.02,-189.55"/>
</a>
</g>
</g>
<!-- Node14 -->
<g id="Node000014" class="node">
<title>Node14</title>
<g id="a_Node000014"><a xlink:href="exceptions_8hpp.html" target="_top" xlink:title=" ">
<polygon fill="white" stroke="#666666" points="166.31,-129 75.31,-129 75.31,-110 166.31,-110 166.31,-129"/>
<text text-anchor="middle" x="120.81" y="-117" font-family="Helvetica,sans-Serif" font-size="10.00">exceptions.hpp</text>
</a>
</g>
</g>
<!-- Node6&#45;&gt;Node14 -->
<g id="edge18_Node000006_Node000014" class="edge">
<title>Node6&#45;&gt;Node14</title>
<g id="a_edge18_Node000006_Node000014"><a xlink:title=" ">
<path fill="none" stroke="#63b8ff" d="M301.3,-226.55C267.4,-222.93 208.14,-212.69 166.81,-184 150.09,-172.4 137.21,-152.69 129.39,-138.3"/>
<polygon fill="#63b8ff" stroke="#63b8ff" points="132.48,-136.65 124.79,-129.35 126.25,-139.85 132.48,-136.65"/>
</a>
</g>
</g>
<!-- Node16 -->
<g id="Node000016" class="node">
<title>Node16</title>
<g id="a_Node000016"><a xlink:href="value__utils_8hpp.html" target="_top" xlink:title=" ">
<polygon fill="white" stroke="#666666" points="468.31,-184 377.31,-184 377.31,-165 468.31,-165 468.31,-184"/>
<text text-anchor="middle" x="422.81" y="-172" font-family="Helvetica,sans-Serif" font-size="10.00">value_utils.hpp</text>
</a>
</g>
</g>
<!-- Node6&#45;&gt;Node16 -->
<g id="edge21_Node000006_Node000016" class="edge">
<title>Node6&#45;&gt;Node16</title>
<g id="a_edge21_Node000006_Node000016"><a xlink:title=" ">
<path fill="none" stroke="#63b8ff" d="M343.07,-219.98C357.94,-211.69 380.79,-198.94 398.22,-189.22"/>
<polygon fill="#63b8ff" stroke="#63b8ff" points="400.24,-192.1 407.27,-184.17 396.83,-185.99 400.24,-192.1"/>
</a>
</g>
</g>
<!-- Node7&#45;&gt;Node2 -->
<g id="edge11_Node000007_Node000002" class="edge">
<title>Node7&#45;&gt;Node2</title>
<g id="a_edge11_Node000007_Node000002"><a xlink:title=" ">
<path fill="none" stroke="#63b8ff" d="M603.93,-164.61C602.06,-150.76 596.4,-124.14 579.81,-110 556.06,-89.76 471.73,-76.56 419.53,-70.12"/>
<polygon fill="#63b8ff" stroke="#63b8ff" points="419.89,-66.64 409.54,-68.92 419.05,-73.59 419.89,-66.64"/>
</a>
</g>
</g>
<!-- Node7&#45;&gt;Node8 -->
<g id="edge7_Node000007_Node000008" class="edge">
<title>Node7&#45;&gt;Node8</title>
<g id="a_edge7_Node000007_Node000008"><a xlink:title=" ">
<path fill="none" stroke="#63b8ff" d="M616.06,-164.98C626.61,-157 642.61,-144.88 655.25,-135.31"/>
<polygon fill="#63b8ff" stroke="#63b8ff" points="657.5,-138 663.36,-129.17 653.27,-132.42 657.5,-138"/>
</a>
</g>
</g>
<!-- Node11 -->
<g id="Node000011" class="node">
<title>Node11</title>
<g id="a_Node000011"><a xlink:href="enums_8hpp.html" target="_top" xlink:title=" ">
<polygon fill="white" stroke="#666666" points="571.31,-129 500.31,-129 500.31,-110 571.31,-110 571.31,-129"/>
<text text-anchor="middle" x="535.81" y="-117" font-family="Helvetica,sans-Serif" font-size="10.00">enums.hpp</text>
</a>
</g>
</g>
<!-- Node7&#45;&gt;Node11 -->
<g id="edge12_Node000007_Node000011" class="edge">
<title>Node7&#45;&gt;Node11</title>
<g id="a_edge12_Node000007_Node000011"><a xlink:title=" ">
<path fill="none" stroke="#63b8ff" d="M593.72,-164.98C583.32,-157 567.55,-144.88 555.09,-135.31"/>
<polygon fill="#63b8ff" stroke="#63b8ff" points="557.16,-132.49 547.1,-129.17 552.89,-138.04 557.16,-132.49"/>
</a>
</g>
</g>
<!-- Node8&#45;&gt;Node2 -->
<g id="edge8_Node000008_Node000002" class="edge">
<title>Node8&#45;&gt;Node2</title>
<g id="a_edge8_Node000008_Node000002"><a xlink:title=" ">
<path fill="none" stroke="#63b8ff" d="M645.15,-113.22C592.12,-103.79 480.91,-84.02 419.62,-73.11"/>
<polygon fill="#63b8ff" stroke="#63b8ff" points="419.96,-69.62 409.5,-71.31 418.74,-76.51 419.96,-69.62"/>
</a>
</g>
</g>
<!-- Node8&#45;&gt;Node9 -->
<g id="edge9_Node000008_Node000009" class="edge">
<title>Node8&#45;&gt;Node9</title>
<g id="a_edge9_Node000008_Node000009"><a xlink:title=" ">
<path fill="none" stroke="#63b8ff" d="M690.23,-109.98C705.26,-101.69 728.35,-88.94 745.97,-79.22"/>
<polygon fill="#63b8ff" stroke="#63b8ff" points="748.04,-82.07 755.1,-74.17 744.66,-75.94 748.04,-82.07"/>
</a>
</g>
</g>
<!-- Node10 -->
<g id="Node000010" class="node">
<title>Node10</title>
<g id="a_Node000010"><a xlink:title=" ">
<polygon fill="#e0e0e0" stroke="#999999" points="990.31,-74 921.31,-74 921.31,-55 990.31,-55 990.31,-74"/>
<text text-anchor="middle" x="955.81" y="-62" font-family="Helvetica,sans-Serif" font-size="10.00">type_traits</text>
</a>
</g>
</g>
<!-- Node8&#45;&gt;Node10 -->
<g id="edge10_Node000008_Node000010" class="edge">
<title>Node8&#45;&gt;Node10</title>
<g id="a_edge10_Node000008_Node000010"><a xlink:title=" ">
<path fill="none" stroke="#63b8ff" d="M704.35,-112.93C753.67,-103.63 853.06,-84.88 911.02,-73.95"/>
<polygon fill="#63b8ff" stroke="#63b8ff" points="911.82,-77.36 920.99,-72.07 910.52,-70.48 911.82,-77.36"/>
</a>
</g>
</g>
<!-- Node12&#45;&gt;Node2 -->
<g id="edge17_Node000012_Node000002" class="edge">
<title>Node12&#45;&gt;Node2</title>
<g id="a_edge17_Node000012_Node000002"><a xlink:title=" ">
<path fill="none" stroke="#63b8ff" d="M277.24,-164.98C268.15,-152.08 254.12,-127.27 265.81,-110 281.09,-87.4 309.93,-76.28 334.38,-70.81"/>
<polygon fill="#63b8ff" stroke="#63b8ff" points="335.07,-74.24 344.19,-68.85 333.7,-67.37 335.07,-74.24"/>
</a>
</g>
</g>
<!-- Node12&#45;&gt;Node8 -->
<g id="edge16_Node000012_Node000008" class="edge">
<title>Node12&#45;&gt;Node8</title>
<g id="a_edge16_Node000012_Node000008"><a xlink:title=" ">
<path fill="none" stroke="#63b8ff" d="M320.95,-168.47C394.77,-158.46 559.38,-136.15 635.19,-125.87"/>
<polygon fill="#63b8ff" stroke="#63b8ff" points="635.84,-129.31 645.28,-124.5 634.9,-122.38 635.84,-129.31"/>
</a>
</g>
</g>
<!-- Node13 -->
<g id="Node000013" class="node">
<title>Node13</title>
<g id="a_Node000013"><a xlink:title=" ">
<polygon fill="#e0e0e0" stroke="#999999" points="320.31,-129 275.31,-129 275.31,-110 320.31,-110 320.31,-129"/>
<text text-anchor="middle" x="297.81" y="-117" font-family="Helvetica,sans-Serif" font-size="10.00">utility</text>
</a>
</g>
</g>
<!-- Node12&#45;&gt;Node13 -->
<g id="edge15_Node000012_Node000013" class="edge">
<title>Node12&#45;&gt;Node13</title>
<g id="a_edge15_Node000012_Node000013"><a xlink:title=" ">
<path fill="none" stroke="#63b8ff" d="M286.12,-164.75C287.98,-157.72 290.64,-147.62 292.96,-138.84"/>
<polygon fill="#63b8ff" stroke="#63b8ff" points="296.37,-139.65 295.54,-129.09 289.6,-137.86 296.37,-139.65"/>
</a>
</g>
</g>
<!-- Node14&#45;&gt;Node2 -->
<g id="edge20_Node000014_Node000002" class="edge">
<title>Node14&#45;&gt;Node2</title>
<g id="a_edge20_Node000014_Node000002"><a xlink:title=" ">
<path fill="none" stroke="#63b8ff" d="M161.94,-109.98C209.21,-100.2 286.41,-84.21 334.27,-74.31"/>
<polygon fill="#63b8ff" stroke="#63b8ff" points="335.22,-77.68 344.31,-72.23 333.81,-70.83 335.22,-77.68"/>
</a>
</g>
</g>
<!-- Node15 -->
<g id="Node000015" class="node">
<title>Node15</title>
<g id="a_Node000015"><a xlink:title=" ">
<polygon fill="#e0e0e0" stroke="#999999" points="153.31,-74 88.31,-74 88.31,-55 153.31,-55 153.31,-74"/>
<text text-anchor="middle" x="120.81" y="-62" font-family="Helvetica,sans-Serif" font-size="10.00">stdexcept</text>
</a>
</g>
</g>
<!-- Node14&#45;&gt;Node15 -->
<g id="edge19_Node000014_Node000015" class="edge">
<title>Node14&#45;&gt;Node15</title>
<g id="a_edge19_Node000014_Node000015"><a xlink:title=" ">
<path fill="none" stroke="#63b8ff" d="M120.81,-109.75C120.81,-102.8 120.81,-92.85 120.81,-84.13"/>
<polygon fill="#63b8ff" stroke="#63b8ff" points="124.31,-84.09 120.81,-74.09 117.31,-84.09 124.31,-84.09"/>
</a>
</g>
</g>
<!-- Node16&#45;&gt;Node2 -->
<g id="edge24_Node000016_Node000002" class="edge">
<title>Node16&#45;&gt;Node2</title>
<g id="a_edge24_Node000016_Node000002"><a xlink:title=" ">
<path fill="none" stroke="#63b8ff" d="M419.04,-164.66C411.53,-147.01 394.52,-107.09 384.53,-83.64"/>
<polygon fill="#63b8ff" stroke="#63b8ff" points="387.64,-81.99 380.5,-74.16 381.2,-84.73 387.64,-81.99"/>
</a>
</g>
</g>
<!-- Node16&#45;&gt;Node8 -->
<g id="edge22_Node000016_Node000008" class="edge">
<title>Node16&#45;&gt;Node8</title>
<g id="a_edge22_Node000016_Node000008"><a xlink:title=" ">
<path fill="none" stroke="#63b8ff" d="M463.3,-164.98C510.61,-155.03 588.37,-138.68 635.27,-128.82"/>
<polygon fill="#63b8ff" stroke="#63b8ff" points="636.01,-132.24 645.07,-126.75 634.57,-125.39 636.01,-132.24"/>
</a>
</g>
</g>
<!-- Node16&#45;&gt;Node9 -->
<g id="edge25_Node000016_Node000009" class="edge">
<title>Node16&#45;&gt;Node9</title>
<g id="a_edge25_Node000016_Node000009"><a xlink:title=" ">
<path fill="none" stroke="#63b8ff" d="M429.23,-164.81C440.15,-150.73 463.81,-123.19 490.81,-110 568.67,-71.97 671.85,-65.2 728.71,-64.68"/>
<polygon fill="#63b8ff" stroke="#63b8ff" points="728.79,-68.18 738.77,-64.65 728.76,-61.18 728.79,-68.18"/>
</a>
</g>
</g>
<!-- Node16&#45;&gt;Node14 -->
<g id="edge23_Node000016_Node000014" class="edge">
<title>Node16&#45;&gt;Node14</title>
<g id="a_edge23_Node000016_Node000014"><a xlink:title=" ">
<path fill="none" stroke="#63b8ff" d="M377.27,-165.51C323.64,-156.1 234.56,-140.46 176.78,-130.32"/>
<polygon fill="#63b8ff" stroke="#63b8ff" points="177.17,-126.84 166.72,-128.56 175.96,-133.73 177.17,-126.84"/>
</a>
</g>
</g>
<!-- Node17&#45;&gt;Node2 -->
<g id="edge34_Node000017_Node000002" class="edge">
<title>Node17&#45;&gt;Node2</title>
<g id="a_edge34_Node000017_Node000002"><a xlink:title=" ">
<path fill="none" stroke="#63b8ff" d="M214.42,-274.92C136.72,-252.26 -53.48,-187.2 14.81,-110 35.69,-86.4 243.01,-72.59 334.17,-67.62"/>
<polygon fill="#63b8ff" stroke="#63b8ff" points="334.38,-71.11 344.18,-67.09 334,-64.12 334.38,-71.11"/>
</a>
</g>
</g>
<!-- Node17&#45;&gt;Node6 -->
<g id="edge29_Node000017_Node000006" class="edge">
<title>Node17&#45;&gt;Node6</title>
<g id="a_edge29_Node000017_Node000006"><a xlink:title=" ">
<path fill="none" stroke="#63b8ff" d="M258.98,-274.98C271.58,-266.84 290.81,-254.41 305.75,-244.76"/>
<polygon fill="#63b8ff" stroke="#63b8ff" points="307.9,-247.54 314.39,-239.17 304.1,-241.66 307.9,-247.54"/>
</a>
</g>
</g>
<!-- Node17&#45;&gt;Node8 -->
<g id="edge33_Node000017_Node000008" class="edge">
<title>Node17&#45;&gt;Node8</title>
<g id="a_edge33_Node000017_Node000008"><a xlink:title=" ">
<path fill="none" stroke="#63b8ff" d="M287.97,-280.24C386.58,-271.64 627.53,-244.73 675.81,-184 685.66,-171.61 684.15,-153.13 680.92,-139.3"/>
<polygon fill="#63b8ff" stroke="#63b8ff" points="684.21,-138.1 678.14,-129.41 677.47,-139.99 684.21,-138.1"/>
</a>
</g>
</g>
<!-- Node17&#45;&gt;Node12 -->
<g id="edge30_Node000017_Node000012" class="edge">
<title>Node17&#45;&gt;Node12</title>
<g id="a_edge30_Node000017_Node000012"><a xlink:title=" ">
<path fill="none" stroke="#63b8ff" d="M246.74,-274.63C248.26,-262.14 251.81,-238.77 258.81,-220 262.29,-210.67 267.53,-200.96 272.31,-193"/>
<polygon fill="#63b8ff" stroke="#63b8ff" points="275.42,-194.63 277.77,-184.3 269.49,-190.91 275.42,-194.63"/>
</a>
</g>
</g>
<!-- Node17&#45;&gt;Node13 -->
<g id="edge35_Node000017_Node000013" class="edge">
<title>Node17&#45;&gt;Node13</title>
<g id="a_edge35_Node000017_Node000013"><a xlink:title=" ">
<path fill="none" stroke="#63b8ff" d="M242.39,-274.87C234.89,-254.48 219.08,-202.2 237.81,-165 244.5,-151.71 257.25,-141.39 269.28,-134.05"/>
<polygon fill="#63b8ff" stroke="#63b8ff" points="271.22,-136.97 278.23,-129.02 267.79,-130.87 271.22,-136.97"/>
</a>
</g>
</g>
<!-- Node17&#45;&gt;Node14 -->
<g id="edge31_Node000017_Node000014" class="edge">
<title>Node17&#45;&gt;Node14</title>
<g id="a_edge31_Node000017_Node000014"><a xlink:title=" ">
<path fill="none" stroke="#63b8ff" d="M239.09,-274.74C219.16,-248.76 160.17,-171.83 133.8,-137.44"/>
<polygon fill="#63b8ff" stroke="#63b8ff" points="136.43,-135.11 127.56,-129.31 130.87,-139.37 136.43,-135.11"/>
</a>
</g>
</g>
<!-- Node17&#45;&gt;Node16 -->
<g id="edge32_Node000017_Node000016" class="edge">
<title>Node17&#45;&gt;Node16</title>
<g id="a_edge32_Node000017_Node000016"><a xlink:title=" ">
<path fill="none" stroke="#63b8ff" d="M249.89,-274.79C256.71,-261.17 271.65,-234.87 291.81,-220 313.89,-203.71 342.36,-193.09 367.11,-186.33"/>
<polygon fill="#63b8ff" stroke="#63b8ff" points="368.3,-189.64 377.1,-183.76 366.55,-182.87 368.3,-189.64"/>
</a>
</g>
</g>
<!-- Node18&#45;&gt;Node2 -->
<g id="edge47_Node000018_Node000002" class="edge">
<title>Node18&#45;&gt;Node2</title>
<g id="a_edge47_Node000018_Node000002"><a xlink:title=" ">
<path fill="none" stroke="#63b8ff" d="M951.87,-274.82C956.42,-253.4 964.87,-197.36 937.81,-165 871.45,-85.63 538.95,-69.53 419.57,-66.3"/>
<polygon fill="#63b8ff" stroke="#63b8ff" points="419.44,-62.8 409.36,-66.04 419.26,-69.8 419.44,-62.8"/>
</a>
</g>
</g>
<!-- Node18&#45;&gt;Node9 -->
<g id="edge48_Node000018_Node000009" class="edge">
<title>Node18&#45;&gt;Node9</title>
<g id="a_edge48_Node000018_Node000009"><a xlink:title=" ">
<path fill="none" stroke="#63b8ff" d="M981.23,-274.97C999.15,-268.32 1020.11,-257.09 1030.81,-239 1047.55,-210.69 1048.61,-192.65 1030.81,-165 983.56,-91.63 873.63,-72.26 812.93,-67.21"/>
<polygon fill="#63b8ff" stroke="#63b8ff" points="813.15,-63.72 802.92,-66.48 812.63,-70.7 813.15,-63.72"/>
</a>
</g>
</g>
<!-- Node19 -->
<g id="Node000019" class="node">
<title>Node19</title>
<g id="a_Node000019"><a xlink:href="group__iface_8hpp.html" target="_top" xlink:title=" ">
<polygon fill="white" stroke="#666666" points="931.31,-239 836.31,-239 836.31,-220 931.31,-220 931.31,-239"/>
<text text-anchor="middle" x="883.81" y="-227" font-family="Helvetica,sans-Serif" font-size="10.00">group_iface.hpp</text>
</a>
</g>
</g>
<!-- Node18&#45;&gt;Node19 -->
<g id="edge37_Node000018_Node000019" class="edge">
<title>Node18&#45;&gt;Node19</title>
<g id="a_edge37_Node000018_Node000019"><a xlink:title=" ">
<path fill="none" stroke="#63b8ff" d="M939.2,-274.98C929.35,-267.07 914.46,-255.11 902.59,-245.58"/>
<polygon fill="#63b8ff" stroke="#63b8ff" points="904.59,-242.7 894.61,-239.17 900.21,-248.16 904.59,-242.7"/>
</a>
</g>
</g>
<!-- Node19&#45;&gt;Node2 -->
<g id="edge41_Node000019_Node000002" class="edge">
<title>Node19&#45;&gt;Node2</title>
<g id="a_edge41_Node000019_Node000002"><a xlink:title=" ">
<path fill="none" stroke="#63b8ff" d="M874.73,-219.77C850.64,-197.21 782.21,-136.83 712.81,-110 612.99,-71.42 485.41,-65.2 419.9,-64.83"/>
<polygon fill="#63b8ff" stroke="#63b8ff" points="419.55,-61.33 409.55,-64.82 419.55,-68.33 419.55,-61.33"/>
</a>
</g>
</g>
<!-- Node19&#45;&gt;Node5 -->
<g id="edge42_Node000019_Node000005" class="edge">
<title>Node19&#45;&gt;Node5</title>
<g id="a_edge42_Node000019_Node000005"><a xlink:title=" ">
<path fill="none" stroke="#63b8ff" d="M931.46,-225.05C959.51,-220.28 992.9,-209.25 1010.81,-184 1044.1,-137.06 1039.74,-96.43 999.81,-55 976.95,-31.28 883.12,-18.71 831.78,-13.48"/>
<polygon fill="#63b8ff" stroke="#63b8ff" points="831.8,-9.97 821.5,-12.48 831.12,-16.93 831.8,-9.97"/>
</a>
</g>
</g>
<!-- Node19&#45;&gt;Node7 -->
<g id="edge38_Node000019_Node000007" class="edge">
<title>Node19&#45;&gt;Node7</title>
<g id="a_edge38_Node000019_Node000007"><a xlink:title=" ">
<path fill="none" stroke="#63b8ff" d="M838.98,-219.98C789.16,-210.52 708.84,-195.26 656.43,-185.31"/>
<polygon fill="#63b8ff" stroke="#63b8ff" points="656.81,-181.82 646.34,-183.39 655.51,-188.69 656.81,-181.82"/>
</a>
</g>
</g>
<!-- Node19&#45;&gt;Node8 -->
<g id="edge39_Node000019_Node000008" class="edge">
<title>Node19&#45;&gt;Node8</title>
<g id="a_edge39_Node000019_Node000008"><a xlink:title=" ">
<path fill="none" stroke="#63b8ff" d="M895.52,-219.94C911.55,-207.2 936.72,-182.84 921.81,-165 895.92,-134.03 778.12,-124.58 715.01,-121.72"/>
<polygon fill="#63b8ff" stroke="#63b8ff" points="714.78,-118.21 704.64,-121.29 714.49,-125.2 714.78,-118.21"/>
</a>
</g>
</g>
<!-- Node19&#45;&gt;Node9 -->
<g id="edge44_Node000019_Node000009" class="edge">
<title>Node19&#45;&gt;Node9</title>
<g id="a_edge44_Node000019_Node000009"><a xlink:title=" ">
<path fill="none" stroke="#63b8ff" d="M900.71,-219.87C920.83,-208.36 950.25,-186.89 937.81,-165 911.16,-118.1 852.7,-90.98 812.53,-77.22"/>
<polygon fill="#63b8ff" stroke="#63b8ff" points="813.59,-73.89 802.99,-74.09 811.4,-80.54 813.59,-73.89"/>
</a>
</g>
</g>
<!-- Node19&#45;&gt;Node10 -->
<g id="edge43_Node000019_Node000010" class="edge">
<title>Node19&#45;&gt;Node10</title>
<g id="a_edge43_Node000019_Node000010"><a xlink:title=" ">
<path fill="none" stroke="#63b8ff" d="M931.55,-221.48C954.12,-215.5 979.07,-204.44 992.81,-184 1011.15,-156.7 1003.99,-140.93 992.81,-110 988.86,-99.09 980.95,-88.96 973.45,-81.14"/>
<polygon fill="#63b8ff" stroke="#63b8ff" points="975.85,-78.6 966.24,-74.13 970.97,-83.61 975.85,-78.6"/>
</a>
</g>
</g>
<!-- Node19&#45;&gt;Node13 -->
<g id="edge45_Node000019_Node000013" class="edge">
<title>Node19&#45;&gt;Node13</title>
<g id="a_edge45_Node000019_Node000013"><a xlink:title=" ">
<path fill="none" stroke="#63b8ff" d="M836.28,-223.74C771.91,-216.92 653.61,-203.05 553.81,-184 551.02,-183.47 398.92,-145.65 330.52,-128.64"/>
<polygon fill="#63b8ff" stroke="#63b8ff" points="331.22,-125.21 320.68,-126.19 329.54,-132 331.22,-125.21"/>
</a>
</g>
</g>
<!-- Node19&#45;&gt;Node14 -->
<g id="edge40_Node000019_Node000014" class="edge">
<title>Node19&#45;&gt;Node14</title>
<g id="a_edge40_Node000019_Node000014"><a xlink:title=" ">
<path fill="none" stroke="#63b8ff" d="M836.03,-227.84C706.37,-225.62 350.07,-216.65 237.81,-184 201.34,-173.39 163.47,-150.23 141.03,-135.01"/>
<polygon fill="#63b8ff" stroke="#63b8ff" points="142.89,-132.04 132.68,-129.22 138.91,-137.79 142.89,-132.04"/>
</a>
</g>
</g>
<!-- Node20 -->
<g id="Node000020" class="node">
<title>Node20</title>
<g id="a_Node000020"><a xlink:title=" ">
<polygon fill="#e0e0e0" stroke="#999999" points="912.81,-184 854.81,-184 854.81,-165 912.81,-165 912.81,-184"/>
<text text-anchor="middle" x="883.81" y="-172" font-family="Helvetica,sans-Serif" font-size="10.00">memory</text>
</a>
</g>
</g>
<!-- Node19&#45;&gt;Node20 -->
<g id="edge46_Node000019_Node000020" class="edge">
<title>Node19&#45;&gt;Node20</title>
<g id="a_edge46_Node000019_Node000020"><a xlink:title=" ">
<path fill="none" stroke="#63b8ff" d="M883.81,-219.75C883.81,-212.8 883.81,-202.85 883.81,-194.13"/>
<polygon fill="#63b8ff" stroke="#63b8ff" points="887.31,-194.09 883.81,-184.09 880.31,-194.09 887.31,-194.09"/>
</a>
</g>
</g>
<!-- Node21&#45;&gt;Node1 -->
<g id="edge50_Node000021_Node000001" class="edge">
<title>Node21&#45;&gt;Node1</title>
<g id="a_edge50_Node000021_Node000001"><a xlink:title=" ">
<path fill="none" stroke="#63b8ff" d="M475.43,-294.17C470.4,-301.9 460.77,-313.41 451.69,-322.76"/>
<polygon fill="#63b8ff" stroke="#63b8ff" points="449.01,-320.49 444.31,-329.98 453.91,-325.49 449.01,-320.49"/>
</a>
</g>
</g>
<!-- Node21&#45;&gt;Node2 -->
<g id="edge56_Node000021_Node000002" class="edge">
<title>Node21&#45;&gt;Node2</title>
<g id="a_edge56_Node000021_Node000002"><a xlink:title=" ">
<path fill="none" stroke="#63b8ff" d="M466.21,-274.97C440.13,-255.5 378.31,-207.65 367.81,-184 353.15,-150.97 362.76,-107.66 370.3,-83.6"/>
<polygon fill="#63b8ff" stroke="#63b8ff" points="373.65,-84.6 373.52,-74.01 367.02,-82.37 373.65,-84.6"/>
</a>
</g>
</g>
<!-- Node21&#45;&gt;Node8 -->
<g id="edge52_Node000021_Node000008" class="edge">
<title>Node21&#45;&gt;Node8</title>
<g id="a_edge52_Node000021_Node000008"><a xlink:title=" ">
<path fill="none" stroke="#63b8ff" d="M521.11,-280.41C579.26,-273.67 680.6,-252.22 726.81,-184 738.95,-166.07 718.36,-147.06 699.62,-134.56"/>
<polygon fill="#63b8ff" stroke="#63b8ff" points="701.32,-131.5 690.99,-129.14 697.6,-137.43 701.32,-131.5"/>
</a>
</g>
</g>
<!-- Node21&#45;&gt;Node11 -->
<g id="edge55_Node000021_Node000011" class="edge">
<title>Node21&#45;&gt;Node11</title>
<g id="a_edge55_Node000021_Node000011"><a xlink:title=" ">
<path fill="none" stroke="#63b8ff" d="M480.93,-274.74C490.05,-249.09 516.85,-173.78 529.31,-138.78"/>
<polygon fill="#63b8ff" stroke="#63b8ff" points="532.62,-139.9 532.67,-129.31 526.03,-137.55 532.62,-139.9"/>
</a>
</g>
</g>
<!-- Node21&#45;&gt;Node12 -->
<g id="edge53_Node000021_Node000012" class="edge">
<title>Node21&#45;&gt;Node12</title>
<g id="a_edge53_Node000021_Node000012"><a xlink:title=" ">
<path fill="none" stroke="#63b8ff" d="M462.26,-274.84C428.55,-256.08 348.51,-211.52 308.08,-189.01"/>
<polygon fill="#63b8ff" stroke="#63b8ff" points="309.6,-185.85 299.16,-184.05 306.2,-191.97 309.6,-185.85"/>
</a>
</g>
</g>
<!-- Node21&#45;&gt;Node16 -->
<g id="edge54_Node000021_Node000016" class="edge">
<title>Node21&#45;&gt;Node16</title>
<g id="a_edge54_Node000021_Node000016"><a xlink:title=" ">
<path fill="none" stroke="#63b8ff" d="M479.09,-274.75C480.54,-261.98 481.66,-237.83 472.81,-220 466.75,-207.8 455.76,-197.45 445.62,-189.8"/>
<polygon fill="#63b8ff" stroke="#63b8ff" points="447.63,-186.94 437.44,-184.04 443.6,-192.66 447.63,-186.94"/>
</a>
</g>
</g>
<!-- Node21&#45;&gt;Node19 -->
<g id="edge51_Node000021_Node000019" class="edge">
<title>Node21&#45;&gt;Node19</title>
<g id="a_edge51_Node000021_Node000019"><a xlink:title=" ">
<path fill="none" stroke="#63b8ff" d="M520.87,-277.88C594.34,-268.29 743.91,-248.76 826.25,-238.01"/>
<polygon fill="#63b8ff" stroke="#63b8ff" points="826.73,-241.48 836.2,-236.72 825.83,-234.54 826.73,-241.48"/>
</a>
</g>
</g>
</g>
</svg>
