<?xml version="1.0" encoding="UTF-8" standalone="no"?>
<!DOCTYPE svg PUBLIC "-//W3C//DTD SVG 1.1//EN"
 "http://www.w3.org/Graphics/SVG/1.1/DTD/svg11.dtd">
<!-- Generated by graphviz version 2.43.0 (0)
 -->
<!-- Title: api.hpp Pages: 1 -->
<svg width="1151pt" height="364pt"
 viewBox="0.00 0.00 1151.44 364.00" xmlns="http://www.w3.org/2000/svg" xmlns:xlink="http://www.w3.org/1999/xlink">
<g id="graph0" class="graph" transform="scale(1 1) rotate(0) translate(4 360)">
<title>api.hpp</title>
<!-- Node1 -->
<g id="node1" class="node">
<title>Node1</title>
<g id="a_node1"><a xlink:title=" ">
<polygon fill="#bfbfbf" stroke="black" points="468.5,-336.5 468.5,-355.5 521.5,-355.5 521.5,-336.5 468.5,-336.5"/>
<text text-anchor="middle" x="495" y="-343.5" font-family="Helvetica,sans-Serif" font-size="10.00">api.hpp</text>
</a>
</g>
</g>
<!-- Node2 -->
<g id="node2" class="node">
<title>Node2</title>
<g id="a_node2"><a xlink:href="types_8hpp.html" target="_top" xlink:title=" ">
<polygon fill="none" stroke="black" points="383.5,-56.5 383.5,-75.5 448.5,-75.5 448.5,-56.5 383.5,-56.5"/>
<text text-anchor="middle" x="416" y="-63.5" font-family="Helvetica,sans-Serif" font-size="10.00">types.hpp</text>
</a>
</g>
</g>
<!-- Node1&#45;&gt;Node2 -->
<g id="edge1" class="edge">
<title>Node1&#45;&gt;Node2</title>
<path fill="none" stroke="midnightblue" d="M468.39,-344.83C365.57,-343.47 0,-331.84 0,-235 0,-235 0,-235 0,-177 0,-54.61 242.27,-93.17 359,-76 363.71,-75.31 368.63,-74.56 373.53,-73.81"/>
<polygon fill="midnightblue" stroke="midnightblue" points="374.12,-77.26 383.46,-72.26 373.04,-70.34 374.12,-77.26"/>
</g>
<!-- Node6 -->
<g id="node6" class="node">
<title>Node6</title>
<g id="a_node6"><a xlink:href="arg_8hpp.html" target="_top" xlink:title=" ">
<polygon fill="none" stroke="black" points="403.5,-224.5 403.5,-243.5 456.5,-243.5 456.5,-224.5 403.5,-224.5"/>
<text text-anchor="middle" x="430" y="-231.5" font-family="Helvetica,sans-Serif" font-size="10.00">arg.hpp</text>
</a>
</g>
</g>
<!-- Node1&#45;&gt;Node6 -->
<g id="edge5" class="edge">
<title>Node1&#45;&gt;Node6</title>
<path fill="none" stroke="midnightblue" d="M489.9,-336.37C479.22,-318.3 454.33,-276.18 440.23,-252.31"/>
<polygon fill="midnightblue" stroke="midnightblue" points="443.18,-250.42 435.08,-243.59 437.15,-253.98 443.18,-250.42"/>
</g>
<!-- Node18 -->
<g id="node18" class="node">
<title>Node18</title>
<g id="a_node18"><a xlink:href="multi__arg_8hpp.html" target="_top" xlink:title=" ">
<polygon fill="none" stroke="black" points="183,-280.5 183,-299.5 267,-299.5 267,-280.5 183,-280.5"/>
<text text-anchor="middle" x="225" y="-287.5" font-family="Helvetica,sans-Serif" font-size="10.00">multi_arg.hpp</text>
</a>
</g>
</g>
<!-- Node1&#45;&gt;Node18 -->
<g id="edge29" class="edge">
<title>Node1&#45;&gt;Node18</title>
<path fill="none" stroke="midnightblue" d="M468.12,-339.62C423.71,-330.74 334.22,-312.84 277.08,-301.42"/>
<polygon fill="midnightblue" stroke="midnightblue" points="277.65,-297.96 267.16,-299.43 276.27,-304.82 277.65,-297.96"/>
</g>
<!-- Node19 -->
<g id="node19" class="node">
<title>Node19</title>
<g id="a_node19"><a xlink:href="groups_8hpp.html" target="_top" xlink:title=" ">
<polygon fill="none" stroke="black" points="971.5,-280.5 971.5,-299.5 1042.5,-299.5 1042.5,-280.5 971.5,-280.5"/>
<text text-anchor="middle" x="1007" y="-287.5" font-family="Helvetica,sans-Serif" font-size="10.00">groups.hpp</text>
</a>
</g>
</g>
<!-- Node1&#45;&gt;Node19 -->
<g id="edge37" class="edge">
<title>Node1&#45;&gt;Node19</title>
<path fill="none" stroke="midnightblue" d="M521.81,-342.17C604.56,-333.44 856.69,-306.85 961.04,-295.85"/>
<polygon fill="midnightblue" stroke="midnightblue" points="961.67,-299.3 971.25,-294.77 960.94,-292.34 961.67,-299.3"/>
</g>
<!-- Node22 -->
<g id="node22" class="node">
<title>Node22</title>
<g id="a_node22"><a xlink:href="command_8hpp.html" target="_top" xlink:title=" ">
<polygon fill="none" stroke="black" points="547,-280.5 547,-299.5 633,-299.5 633,-280.5 547,-280.5"/>
<text text-anchor="middle" x="590" y="-287.5" font-family="Helvetica,sans-Serif" font-size="10.00">command.hpp</text>
</a>
</g>
</g>
<!-- Node1&#45;&gt;Node22 -->
<g id="edge50" class="edge">
<title>Node1&#45;&gt;Node22</title>
<path fill="none" stroke="midnightblue" d="M505.15,-336.32C518.45,-327.7 541.65,-314.36 560.53,-304.39"/>
<polygon fill="midnightblue" stroke="midnightblue" points="562.39,-307.36 569.66,-299.65 559.18,-301.15 562.39,-307.36"/>
</g>
<!-- Node3 -->
<g id="node3" class="node">
<title>Node3</title>
<g id="a_node3"><a xlink:title=" ">
<polygon fill="none" stroke="#bfbfbf" points="359,-0.5 359,-19.5 403,-19.5 403,-0.5 359,-0.5"/>
<text text-anchor="middle" x="381" y="-7.5" font-family="Helvetica,sans-Serif" font-size="10.00">string</text>
</a>
</g>
</g>
<!-- Node2&#45;&gt;Node3 -->
<g id="edge2" class="edge">
<title>Node2&#45;&gt;Node3</title>
<path fill="none" stroke="midnightblue" d="M410.22,-56.08C405.33,-48.53 398.17,-37.49 392.17,-28.23"/>
<polygon fill="midnightblue" stroke="midnightblue" points="395.05,-26.24 386.67,-19.75 389.17,-30.05 395.05,-26.24"/>
</g>
<!-- Node4 -->
<g id="node4" class="node">
<title>Node4</title>
<g id="a_node4"><a xlink:title=" ">
<polygon fill="none" stroke="#bfbfbf" points="421,-0.5 421,-19.5 481,-19.5 481,-0.5 421,-0.5"/>
<text text-anchor="middle" x="451" y="-7.5" font-family="Helvetica,sans-Serif" font-size="10.00">iostream</text>
</a>
</g>
</g>
<!-- Node2&#45;&gt;Node4 -->
<g id="edge3" class="edge">
<title>Node2&#45;&gt;Node4</title>
<path fill="none" stroke="midnightblue" d="M421.78,-56.08C426.67,-48.53 433.83,-37.49 439.83,-28.23"/>
<polygon fill="midnightblue" stroke="midnightblue" points="442.83,-30.05 445.33,-19.75 436.95,-26.24 442.83,-30.05"/>
</g>
<!-- Node5 -->
<g id="node5" class="node">
<title>Node5</title>
<g id="a_node5"><a xlink:title=" ">
<polygon fill="none" stroke="#bfbfbf" points="780.5,-0.5 780.5,-19.5 827.5,-19.5 827.5,-0.5 780.5,-0.5"/>
<text text-anchor="middle" x="804" y="-7.5" font-family="Helvetica,sans-Serif" font-size="10.00">vector</text>
</a>
</g>
</g>
<!-- Node2&#45;&gt;Node5 -->
<g id="edge4" class="edge">
<title>Node2&#45;&gt;Node5</title>
<path fill="none" stroke="midnightblue" d="M448.75,-60.44C521.53,-50.31 696.15,-26.01 770.05,-15.73"/>
<polygon fill="midnightblue" stroke="midnightblue" points="770.77,-19.16 780.2,-14.31 769.81,-12.22 770.77,-19.16"/>
</g>
<!-- Node6&#45;&gt;Node2 -->
<g id="edge27" class="edge">
<title>Node6&#45;&gt;Node2</title>
<path fill="none" stroke="midnightblue" d="M429.25,-224.08C427.04,-197.95 420.57,-121.21 417.57,-85.58"/>
<polygon fill="midnightblue" stroke="midnightblue" points="421.05,-85.24 416.72,-75.57 414.08,-85.83 421.05,-85.24"/>
</g>
<!-- Node7 -->
<g id="node7" class="node">
<title>Node7</title>
<g id="a_node7"><a xlink:href="arg__iface_8hpp.html" target="_top" xlink:title=" ">
<polygon fill="none" stroke="black" points="724.5,-168.5 724.5,-187.5 807.5,-187.5 807.5,-168.5 724.5,-168.5"/>
<text text-anchor="middle" x="766" y="-175.5" font-family="Helvetica,sans-Serif" font-size="10.00">arg_iface.hpp</text>
</a>
</g>
</g>
<!-- Node6&#45;&gt;Node7 -->
<g id="edge6" class="edge">
<title>Node6&#45;&gt;Node7</title>
<path fill="none" stroke="midnightblue" d="M456.65,-228.72C512.27,-219.78 641.59,-198.99 714.18,-187.33"/>
<polygon fill="midnightblue" stroke="midnightblue" points="715.15,-190.72 724.47,-185.67 714.04,-183.81 715.15,-190.72"/>
</g>
<!-- Node8 -->
<g id="node8" class="node">
<title>Node8</title>
<g id="a_node8"><a xlink:href="utils_8hpp.html" target="_top" xlink:title=" ">
<polygon fill="none" stroke="black" points="590.5,-112.5 590.5,-131.5 649.5,-131.5 649.5,-112.5 590.5,-112.5"/>
<text text-anchor="middle" x="620" y="-119.5" font-family="Helvetica,sans-Serif" font-size="10.00">utils.hpp</text>
</a>
</g>
</g>
<!-- Node6&#45;&gt;Node8 -->
<g id="edge14" class="edge">
<title>Node6&#45;&gt;Node8</title>
<path fill="none" stroke="midnightblue" d="M444.91,-224.37C477.79,-205.33 556.76,-159.62 596.42,-136.65"/>
<polygon fill="midnightblue" stroke="midnightblue" points="598.26,-139.63 605.16,-131.59 594.75,-133.57 598.26,-139.63"/>
</g>
<!-- Node10 -->
<g id="node10" class="node">
<title>Node10</title>
<g id="a_node10"><a xlink:title=" ">
<polygon fill="none" stroke="#bfbfbf" points="552,-56.5 552,-75.5 616,-75.5 616,-56.5 552,-56.5"/>
<text text-anchor="middle" x="584" y="-63.5" font-family="Helvetica,sans-Serif" font-size="10.00">algorithm</text>
</a>
</g>
</g>
<!-- Node6&#45;&gt;Node10 -->
<g id="edge28" class="edge">
<title>Node6&#45;&gt;Node10</title>
<path fill="none" stroke="midnightblue" d="M438.28,-224.08C463.05,-197.38 536.81,-117.87 568.86,-83.32"/>
<polygon fill="midnightblue" stroke="midnightblue" points="571.82,-85.28 576.05,-75.57 566.68,-80.52 571.82,-85.28"/>
</g>
<!-- Node13 -->
<g id="node13" class="node">
<title>Node13</title>
<g id="a_node13"><a xlink:href="context_8hpp.html" target="_top" xlink:title=" ">
<polygon fill="none" stroke="black" points="142,-168.5 142,-187.5 216,-187.5 216,-168.5 142,-168.5"/>
<text text-anchor="middle" x="179" y="-175.5" font-family="Helvetica,sans-Serif" font-size="10.00">context.hpp</text>
</a>
</g>
</g>
<!-- Node6&#45;&gt;Node13 -->
<g id="edge15" class="edge">
<title>Node6&#45;&gt;Node13</title>
<path fill="none" stroke="midnightblue" d="M403.14,-227.22C360.93,-218.14 278.51,-200.41 226.24,-189.16"/>
<polygon fill="midnightblue" stroke="midnightblue" points="226.72,-185.69 216.2,-187 225.24,-192.53 226.72,-185.69"/>
</g>
<!-- Node15 -->
<g id="node15" class="node">
<title>Node15</title>
<g id="a_node15"><a xlink:href="exceptions_8hpp.html" target="_top" xlink:title=" ">
<polygon fill="none" stroke="black" points="272.5,-112.5 272.5,-131.5 363.5,-131.5 363.5,-112.5 272.5,-112.5"/>
<text text-anchor="middle" x="318" y="-119.5" font-family="Helvetica,sans-Serif" font-size="10.00">exceptions.hpp</text>
</a>
</g>
</g>
<!-- Node6&#45;&gt;Node15 -->
<g id="edge19" class="edge">
<title>Node6&#45;&gt;Node15</title>
<path fill="none" stroke="midnightblue" d="M403.47,-232.26C373,-229.82 324.21,-220.68 301,-188 291.01,-173.94 298.24,-154.43 306.12,-140.47"/>
<polygon fill="midnightblue" stroke="midnightblue" points="309.19,-142.16 311.48,-131.82 303.24,-138.47 309.19,-142.16"/>
</g>
<!-- Node17 -->
<g id="node17" class="node">
<title>Node17</title>
<g id="a_node17"><a xlink:href="value__utils_8hpp.html" target="_top" xlink:title=" ">
<polygon fill="none" stroke="black" points="310.5,-168.5 310.5,-187.5 401.5,-187.5 401.5,-168.5 310.5,-168.5"/>
<text text-anchor="middle" x="356" y="-175.5" font-family="Helvetica,sans-Serif" font-size="10.00">value_utils.hpp</text>
</a>
</g>
</g>
<!-- Node6&#45;&gt;Node17 -->
<g id="edge22" class="edge">
<title>Node6&#45;&gt;Node17</title>
<path fill="none" stroke="midnightblue" d="M418.11,-224.32C406.85,-216.11 389.71,-203.6 376.29,-193.81"/>
<polygon fill="midnightblue" stroke="midnightblue" points="378.25,-190.9 368.11,-187.83 374.12,-196.56 378.25,-190.9"/>
</g>
<!-- Node7&#45;&gt;Node2 -->
<g id="edge12" class="edge">
<title>Node7&#45;&gt;Node2</title>
<path fill="none" stroke="midnightblue" d="M754.73,-168.32C735.82,-154.21 696.05,-126.45 658,-112 591.05,-86.58 508.05,-75.16 458.7,-70.3"/>
<polygon fill="midnightblue" stroke="midnightblue" points="458.99,-66.81 448.7,-69.36 458.33,-73.78 458.99,-66.81"/>
</g>
<!-- Node7&#45;&gt;Node8 -->
<g id="edge7" class="edge">
<title>Node7&#45;&gt;Node8</title>
<path fill="none" stroke="midnightblue" d="M742.87,-168.44C718.52,-159.44 679.99,-145.19 652.58,-135.05"/>
<polygon fill="midnightblue" stroke="midnightblue" points="653.62,-131.7 643.03,-131.52 651.19,-138.27 653.62,-131.7"/>
</g>
<!-- Node12 -->
<g id="node12" class="node">
<title>Node12</title>
<g id="a_node12"><a xlink:href="enums_8hpp.html" target="_top" xlink:title=" ">
<polygon fill="none" stroke="black" points="757.5,-112.5 757.5,-131.5 828.5,-131.5 828.5,-112.5 757.5,-112.5"/>
<text text-anchor="middle" x="793" y="-119.5" font-family="Helvetica,sans-Serif" font-size="10.00">enums.hpp</text>
</a>
</g>
</g>
<!-- Node7&#45;&gt;Node12 -->
<g id="edge13" class="edge">
<title>Node7&#45;&gt;Node12</title>
<path fill="none" stroke="midnightblue" d="M770.46,-168.08C774.15,-160.69 779.52,-149.95 784.09,-140.81"/>
<polygon fill="midnightblue" stroke="midnightblue" points="787.28,-142.26 788.62,-131.75 781.02,-139.13 787.28,-142.26"/>
</g>
<!-- Node8&#45;&gt;Node2 -->
<g id="edge9" class="edge">
<title>Node8&#45;&gt;Node2</title>
<path fill="none" stroke="midnightblue" d="M590.34,-113.15C555.57,-103.95 497.7,-88.63 458.25,-78.18"/>
<polygon fill="midnightblue" stroke="midnightblue" points="458.96,-74.75 448.4,-75.58 457.17,-81.52 458.96,-74.75"/>
</g>
<!-- Node9 -->
<g id="node9" class="node">
<title>Node9</title>
<g id="a_node9"><a xlink:title=" ">
<polygon fill="none" stroke="#bfbfbf" points="634,-56.5 634,-75.5 678,-75.5 678,-56.5 634,-56.5"/>
<text text-anchor="middle" x="656" y="-63.5" font-family="Helvetica,sans-Serif" font-size="10.00">regex</text>
</a>
</g>
</g>
<!-- Node8&#45;&gt;Node9 -->
<g id="edge8" class="edge">
<title>Node8&#45;&gt;Node9</title>
<path fill="none" stroke="midnightblue" d="M625.94,-112.08C630.98,-104.53 638.34,-93.49 644.51,-84.23"/>
<polygon fill="midnightblue" stroke="midnightblue" points="647.53,-86.01 650.17,-75.75 641.71,-82.13 647.53,-86.01"/>
</g>
<!-- Node8&#45;&gt;Node10 -->
<g id="edge10" class="edge">
<title>Node8&#45;&gt;Node10</title>
<path fill="none" stroke="midnightblue" d="M614.06,-112.08C609.02,-104.53 601.66,-93.49 595.49,-84.23"/>
<polygon fill="midnightblue" stroke="midnightblue" points="598.29,-82.13 589.83,-75.75 592.47,-86.01 598.29,-82.13"/>
</g>
<!-- Node11 -->
<g id="node11" class="node">
<title>Node11</title>
<g id="a_node11"><a xlink:title=" ">
<polygon fill="none" stroke="#bfbfbf" points="849.5,-56.5 849.5,-75.5 918.5,-75.5 918.5,-56.5 849.5,-56.5"/>
<text text-anchor="middle" x="884" y="-63.5" font-family="Helvetica,sans-Serif" font-size="10.00">type_traits</text>
</a>
</g>
</g>
<!-- Node8&#45;&gt;Node11 -->
<g id="edge11" class="edge">
<title>Node8&#45;&gt;Node11</title>
<path fill="none" stroke="midnightblue" d="M649.52,-114.96C695.65,-105.53 785.17,-87.22 839.26,-76.15"/>
<polygon fill="midnightblue" stroke="midnightblue" points="840.16,-79.54 849.26,-74.11 838.76,-72.68 840.16,-79.54"/>
</g>
<!-- Node13&#45;&gt;Node2 -->
<g id="edge18" class="edge">
<title>Node13&#45;&gt;Node2</title>
<path fill="none" stroke="midnightblue" d="M183.32,-168.31C190.81,-154.2 207.56,-126.43 230,-112 253.43,-96.93 325.98,-82.3 373.24,-73.99"/>
<polygon fill="midnightblue" stroke="midnightblue" points="373.95,-77.42 383.2,-72.27 372.75,-70.52 373.95,-77.42"/>
</g>
<!-- Node13&#45;&gt;Node8 -->
<g id="edge17" class="edge">
<title>Node13&#45;&gt;Node8</title>
<path fill="none" stroke="midnightblue" d="M216.22,-172.44C298.65,-162.35 495.96,-138.19 580.48,-127.84"/>
<polygon fill="midnightblue" stroke="midnightblue" points="580.95,-131.31 590.45,-126.62 580.1,-124.36 580.95,-131.31"/>
</g>
<!-- Node14 -->
<g id="node14" class="node">
<title>Node14</title>
<g id="a_node14"><a xlink:title=" ">
<polygon fill="none" stroke="#bfbfbf" points="132.5,-112.5 132.5,-131.5 177.5,-131.5 177.5,-112.5 132.5,-112.5"/>
<text text-anchor="middle" x="155" y="-119.5" font-family="Helvetica,sans-Serif" font-size="10.00">utility</text>
</a>
</g>
</g>
<!-- Node13&#45;&gt;Node14 -->
<g id="edge16" class="edge">
<title>Node13&#45;&gt;Node14</title>
<path fill="none" stroke="midnightblue" d="M175.04,-168.08C171.79,-160.77 167.08,-150.18 163.05,-141.1"/>
<polygon fill="midnightblue" stroke="midnightblue" points="166.15,-139.47 158.89,-131.75 159.75,-142.31 166.15,-139.47"/>
</g>
<!-- Node15&#45;&gt;Node2 -->
<g id="edge21" class="edge">
<title>Node15&#45;&gt;Node2</title>
<path fill="none" stroke="midnightblue" d="M333.75,-112.32C349.32,-103.74 373.38,-90.49 391.46,-80.52"/>
<polygon fill="midnightblue" stroke="midnightblue" points="393.22,-83.55 400.29,-75.65 389.85,-77.42 393.22,-83.55"/>
</g>
<!-- Node16 -->
<g id="node16" class="node">
<title>Node16</title>
<g id="a_node16"><a xlink:title=" ">
<polygon fill="none" stroke="#bfbfbf" points="285.5,-56.5 285.5,-75.5 350.5,-75.5 350.5,-56.5 285.5,-56.5"/>
<text text-anchor="middle" x="318" y="-63.5" font-family="Helvetica,sans-Serif" font-size="10.00">stdexcept</text>
</a>
</g>
</g>
<!-- Node15&#45;&gt;Node16 -->
<g id="edge20" class="edge">
<title>Node15&#45;&gt;Node16</title>
<path fill="none" stroke="midnightblue" d="M318,-112.08C318,-105.01 318,-94.86 318,-85.99"/>
<polygon fill="midnightblue" stroke="midnightblue" points="321.5,-85.75 318,-75.75 314.5,-85.75 321.5,-85.75"/>
</g>
<!-- Node17&#45;&gt;Node2 -->
<g id="edge25" class="edge">
<title>Node17&#45;&gt;Node2</title>
<path fill="none" stroke="midnightblue" d="M360.71,-168.37C370.52,-150.38 393.34,-108.55 406.39,-84.63"/>
<polygon fill="midnightblue" stroke="midnightblue" points="409.6,-86.05 411.31,-75.59 403.45,-82.69 409.6,-86.05"/>
</g>
<!-- Node17&#45;&gt;Node8 -->
<g id="edge23" class="edge">
<title>Node17&#45;&gt;Node8</title>
<path fill="none" stroke="midnightblue" d="M397.83,-168.44C447.92,-158.2 531.18,-141.17 580.3,-131.12"/>
<polygon fill="midnightblue" stroke="midnightblue" points="581.15,-134.52 590.24,-129.09 579.75,-127.66 581.15,-134.52"/>
</g>
<!-- Node17&#45;&gt;Node10 -->
<g id="edge26" class="edge">
<title>Node17&#45;&gt;Node10</title>
<path fill="none" stroke="midnightblue" d="M373.89,-168.37C413.68,-149.17 509.71,-102.84 556.9,-80.07"/>
<polygon fill="midnightblue" stroke="midnightblue" points="558.71,-83.09 566.19,-75.59 555.66,-76.78 558.71,-83.09"/>
</g>
<!-- Node17&#45;&gt;Node15 -->
<g id="edge24" class="edge">
<title>Node17&#45;&gt;Node15</title>
<path fill="none" stroke="midnightblue" d="M349.73,-168.08C344.36,-160.46 336.48,-149.26 329.92,-139.94"/>
<polygon fill="midnightblue" stroke="midnightblue" points="332.78,-137.91 324.16,-131.75 327.05,-141.94 332.78,-137.91"/>
</g>
<!-- Node18&#45;&gt;Node2 -->
<g id="edge35" class="edge">
<title>Node18&#45;&gt;Node2</title>
<path fill="none" stroke="midnightblue" d="M182.79,-287.87C150.51,-284.52 107.93,-274.15 86,-244 50.16,-194.73 72.1,-145.48 123,-112 211.65,-53.7 254.15,-92.27 359,-76 363.7,-75.27 368.62,-74.5 373.52,-73.73"/>
<polygon fill="midnightblue" stroke="midnightblue" points="374.12,-77.18 383.45,-72.17 373.03,-70.27 374.12,-77.18"/>
</g>
<!-- Node18&#45;&gt;Node6 -->
<g id="edge30" class="edge">
<title>Node18&#45;&gt;Node6</title>
<path fill="none" stroke="midnightblue" d="M257.48,-280.44C294.48,-270.7 354.79,-254.81 393.42,-244.64"/>
<polygon fill="midnightblue" stroke="midnightblue" points="394.44,-247.99 403.22,-242.05 392.66,-241.22 394.44,-247.99"/>
</g>
<!-- Node18&#45;&gt;Node8 -->
<g id="edge34" class="edge">
<title>Node18&#45;&gt;Node8</title>
<path fill="none" stroke="midnightblue" d="M267.05,-286.95C316.37,-283.25 399.68,-272.9 465,-244 523.28,-218.21 578.99,-165.69 604.88,-139.14"/>
<polygon fill="midnightblue" stroke="midnightblue" points="607.53,-141.43 611.93,-131.79 602.48,-136.58 607.53,-141.43"/>
</g>
<!-- Node18&#45;&gt;Node13 -->
<g id="edge31" class="edge">
<title>Node18&#45;&gt;Node13</title>
<path fill="none" stroke="midnightblue" d="M216.91,-280.42C209.3,-271.87 198.17,-258.01 192,-244 185.54,-229.34 182.26,-211.4 180.61,-198.09"/>
<polygon fill="midnightblue" stroke="midnightblue" points="184.06,-197.36 179.55,-187.77 177.1,-198.08 184.06,-197.36"/>
</g>
<!-- Node18&#45;&gt;Node14 -->
<g id="edge36" class="edge">
<title>Node18&#45;&gt;Node14</title>
<path fill="none" stroke="midnightblue" d="M182.7,-285.93C154.21,-281.4 118.57,-270.42 100,-244 80.58,-216.36 85.54,-198.52 100,-168 106.13,-155.07 117.99,-144.62 129.14,-137.05"/>
<polygon fill="midnightblue" stroke="midnightblue" points="131.19,-139.9 137.8,-131.61 127.47,-133.97 131.19,-139.9"/>
</g>
<!-- Node18&#45;&gt;Node15 -->
<g id="edge32" class="edge">
<title>Node18&#45;&gt;Node15</title>
<path fill="none" stroke="midnightblue" d="M209.55,-280.42C175.63,-260.51 100.22,-209.7 133,-168 148.87,-147.8 213.68,-135.54 262.14,-129.03"/>
<polygon fill="midnightblue" stroke="midnightblue" points="262.74,-132.48 272.21,-127.72 261.84,-125.53 262.74,-132.48"/>
</g>
<!-- Node18&#45;&gt;Node17 -->
<g id="edge33" class="edge">
<title>Node18&#45;&gt;Node17</title>
<path fill="none" stroke="midnightblue" d="M235.28,-280.37C257.47,-261.73 310.11,-217.53 337.98,-194.13"/>
<polygon fill="midnightblue" stroke="midnightblue" points="340.36,-196.7 345.77,-187.59 335.86,-191.34 340.36,-196.7"/>
</g>
<!-- Node19&#45;&gt;Node2 -->
<g id="edge48" class="edge">
<title>Node19&#45;&gt;Node2</title>
<path fill="none" stroke="midnightblue" d="M1006.51,-280.31C1004.86,-258.81 997.88,-202.4 969,-168 934.24,-126.59 912.82,-127.44 861,-112 823.05,-100.69 563.02,-78.83 458.93,-70.42"/>
<polygon fill="midnightblue" stroke="midnightblue" points="459.03,-66.91 448.78,-69.6 458.46,-73.89 459.03,-66.91"/>
</g>
<!-- Node19&#45;&gt;Node10 -->
<g id="edge49" class="edge">
<title>Node19&#45;&gt;Node10</title>
<path fill="none" stroke="midnightblue" d="M1042.71,-284.61C1067.84,-279.44 1099.78,-268.25 1116,-244 1148.62,-195.24 1155.94,-154.97 1116,-112 1080.4,-73.69 713.55,-82.93 626.34,-75.63"/>
<polygon fill="midnightblue" stroke="midnightblue" points="626.47,-72.12 616.15,-74.51 625.71,-79.08 626.47,-72.12"/>
</g>
<!-- Node20 -->
<g id="node20" class="node">
<title>Node20</title>
<g id="a_node20"><a xlink:href="group__iface_8hpp.html" target="_top" xlink:title=" ">
<polygon fill="none" stroke="black" points="864.5,-224.5 864.5,-243.5 959.5,-243.5 959.5,-224.5 864.5,-224.5"/>
<text text-anchor="middle" x="912" y="-231.5" font-family="Helvetica,sans-Serif" font-size="10.00">group_iface.hpp</text>
</a>
</g>
</g>
<!-- Node19&#45;&gt;Node20 -->
<g id="edge38" class="edge">
<title>Node19&#45;&gt;Node20</title>
<path fill="none" stroke="midnightblue" d="M991.74,-280.32C976.78,-271.82 953.75,-258.73 936.27,-248.8"/>
<polygon fill="midnightblue" stroke="midnightblue" points="937.65,-245.55 927.23,-243.65 934.19,-251.64 937.65,-245.55"/>
</g>
<!-- Node20&#45;&gt;Node2 -->
<g id="edge42" class="edge">
<title>Node20&#45;&gt;Node2</title>
<path fill="none" stroke="midnightblue" d="M907.91,-224.38C895.71,-199.08 859.07,-125.88 837,-112 821.11,-102.01 562.62,-79.32 458.73,-70.55"/>
<polygon fill="midnightblue" stroke="midnightblue" points="458.85,-67.05 448.59,-69.7 458.26,-74.02 458.85,-67.05"/>
</g>
<!-- Node20&#45;&gt;Node5 -->
<g id="edge43" class="edge">
<title>Node20&#45;&gt;Node5</title>
<path fill="none" stroke="midnightblue" d="M959.73,-225.38C981.92,-219.21 1006.36,-208.08 1020,-188 1038.99,-160.06 1037.62,-141.41 1021,-112 983.59,-45.8 888.79,-22.64 837.76,-14.81"/>
<polygon fill="midnightblue" stroke="midnightblue" points="837.96,-11.3 827.57,-13.36 836.98,-18.23 837.96,-11.3"/>
</g>
<!-- Node20&#45;&gt;Node7 -->
<g id="edge39" class="edge">
<title>Node20&#45;&gt;Node7</title>
<path fill="none" stroke="midnightblue" d="M888.87,-224.44C864.52,-215.44 825.99,-201.19 798.58,-191.05"/>
<polygon fill="midnightblue" stroke="midnightblue" points="799.62,-187.7 789.03,-187.52 797.19,-194.27 799.62,-187.7"/>
</g>
<!-- Node20&#45;&gt;Node8 -->
<g id="edge40" class="edge">
<title>Node20&#45;&gt;Node8</title>
<path fill="none" stroke="midnightblue" d="M864.26,-227.21C823.35,-221.07 763.53,-209.23 715,-188 685.73,-175.2 655.98,-153.04 637.75,-138.2"/>
<polygon fill="midnightblue" stroke="midnightblue" points="639.71,-135.28 629.79,-131.58 635.24,-140.67 639.71,-135.28"/>
</g>
<!-- Node20&#45;&gt;Node10 -->
<g id="edge45" class="edge">
<title>Node20&#45;&gt;Node10</title>
<path fill="none" stroke="midnightblue" d="M929.53,-224.38C950.44,-212.85 981.13,-191.13 969,-168 948.68,-129.24 928.8,-127.85 888,-112 781.03,-70.45 743.23,-95.22 626.24,-76.04"/>
<polygon fill="midnightblue" stroke="midnightblue" points="626.63,-72.56 616.18,-74.32 625.45,-79.46 626.63,-72.56"/>
</g>
<!-- Node20&#45;&gt;Node11 -->
<g id="edge44" class="edge">
<title>Node20&#45;&gt;Node11</title>
<path fill="none" stroke="midnightblue" d="M949.1,-224.46C968.44,-217.92 990.43,-206.72 1002,-188 1019.76,-159.27 1021.16,-139.82 1002,-112 985.58,-88.17 954.73,-76.95 928.69,-71.67"/>
<polygon fill="midnightblue" stroke="midnightblue" points="929.08,-68.19 918.62,-69.87 927.85,-75.08 929.08,-68.19"/>
</g>
<!-- Node20&#45;&gt;Node14 -->
<g id="edge46" class="edge">
<title>Node20&#45;&gt;Node14</title>
<path fill="none" stroke="midnightblue" d="M864.36,-226.08C722.84,-205.51 307.35,-145.14 187.63,-127.74"/>
<polygon fill="midnightblue" stroke="midnightblue" points="188.01,-124.26 177.61,-126.29 187.01,-131.19 188.01,-124.26"/>
</g>
<!-- Node20&#45;&gt;Node15 -->
<g id="edge41" class="edge">
<title>Node20&#45;&gt;Node15</title>
<path fill="none" stroke="midnightblue" d="M865.88,-224.46C758.19,-204.52 490.48,-154.94 373.82,-133.34"/>
<polygon fill="midnightblue" stroke="midnightblue" points="374.15,-129.84 363.68,-131.46 372.87,-136.72 374.15,-129.84"/>
</g>
<!-- Node21 -->
<g id="node21" class="node">
<title>Node21</title>
<g id="a_node21"><a xlink:title=" ">
<polygon fill="none" stroke="#bfbfbf" points="902,-168.5 902,-187.5 960,-187.5 960,-168.5 902,-168.5"/>
<text text-anchor="middle" x="931" y="-175.5" font-family="Helvetica,sans-Serif" font-size="10.00">memory</text>
</a>
</g>
</g>
<!-- Node20&#45;&gt;Node21 -->
<g id="edge47" class="edge">
<title>Node20&#45;&gt;Node21</title>
<path fill="none" stroke="midnightblue" d="M915.14,-224.08C917.68,-216.85 921.36,-206.41 924.53,-197.4"/>
<polygon fill="midnightblue" stroke="midnightblue" points="927.9,-198.35 927.92,-187.75 921.3,-196.02 927.9,-198.35"/>
</g>
<!-- Node22&#45;&gt;Node1 -->
<g id="edge51" class="edge">
<title>Node22&#45;&gt;Node1</title>
<path fill="none" stroke="midnightblue" d="M579.88,-299.65C566.6,-308.27 543.41,-321.61 524.52,-331.59"/>
<polygon fill="midnightblue" stroke="midnightblue" points="522.65,-328.62 515.38,-336.32 525.87,-334.83 522.65,-328.62"/>
</g>
<!-- Node22&#45;&gt;Node2 -->
<g id="edge57" class="edge">
<title>Node22&#45;&gt;Node2</title>
<path fill="none" stroke="midnightblue" d="M546.81,-286.2C482.68,-279.74 362.39,-258.4 293,-188 267.51,-162.14 241.24,-141.08 263,-112 276.3,-94.22 333.01,-81.05 373.5,-73.7"/>
<polygon fill="midnightblue" stroke="midnightblue" points="374.16,-77.14 383.4,-71.96 372.95,-70.24 374.16,-77.14"/>
</g>
<!-- Node22&#45;&gt;Node8 -->
<g id="edge53" class="edge">
<title>Node22&#45;&gt;Node8</title>
<path fill="none" stroke="midnightblue" d="M595.16,-280.49C605.07,-263.6 626.43,-224.33 634,-188 637.27,-172.28 632.86,-154.46 628.14,-141.46"/>
<polygon fill="midnightblue" stroke="midnightblue" points="631.25,-139.8 624.27,-131.82 624.75,-142.41 631.25,-139.8"/>
</g>
<!-- Node22&#45;&gt;Node12 -->
<g id="edge56" class="edge">
<title>Node22&#45;&gt;Node12</title>
<path fill="none" stroke="midnightblue" d="M633.11,-283.71C686.56,-274.58 775.55,-250.38 816,-188 825.72,-173.01 816.28,-153.39 806.72,-139.65"/>
<polygon fill="midnightblue" stroke="midnightblue" points="809.44,-137.44 800.63,-131.57 803.86,-141.66 809.44,-137.44"/>
</g>
<!-- Node22&#45;&gt;Node13 -->
<g id="edge54" class="edge">
<title>Node22&#45;&gt;Node13</title>
<path fill="none" stroke="midnightblue" d="M546.88,-287.68C463.42,-284.47 283.31,-274.17 230,-244 210.75,-233.11 196.18,-211.75 187.64,-196.49"/>
<polygon fill="midnightblue" stroke="midnightblue" points="190.67,-194.73 182.92,-187.51 184.48,-197.99 190.67,-194.73"/>
</g>
<!-- Node22&#45;&gt;Node17 -->
<g id="edge55" class="edge">
<title>Node22&#45;&gt;Node17</title>
<path fill="none" stroke="midnightblue" d="M574.44,-280.34C551.01,-267.44 505.14,-242.68 465,-224 439.41,-212.09 409.76,-199.96 387.86,-191.29"/>
<polygon fill="midnightblue" stroke="midnightblue" points="388.96,-187.97 378.38,-187.57 386.41,-194.48 388.96,-187.97"/>
</g>
<!-- Node22&#45;&gt;Node20 -->
<g id="edge52" class="edge">
<title>Node22&#45;&gt;Node20</title>
<path fill="none" stroke="midnightblue" d="M633.09,-281.77C690.07,-272.22 790.67,-255.35 854.2,-244.69"/>
<polygon fill="midnightblue" stroke="midnightblue" points="855.17,-248.08 864.45,-242.97 854.01,-241.18 855.17,-248.08"/>
</g>
</g>
</svg>
