<?xml version="1.0" encoding="UTF-8" standalone="no"?>
<!DOCTYPE svg PUBLIC "-//W3C//DTD SVG 1.1//EN"
 "http://www.w3.org/Graphics/SVG/1.1/DTD/svg11.dtd">
<!-- Generated by graphviz version 2.43.0 (0)
 -->
<!-- Title: api.hpp Pages: 1 -->
<svg width="177pt" height="247pt"
 viewBox="0.00 0.00 176.50 247.00" xmlns="http://www.w3.org/2000/svg" xmlns:xlink="http://www.w3.org/1999/xlink">
<g id="graph0" class="graph" transform="scale(1 1) rotate(0) translate(4 243)">
<title>api.hpp</title>
<!-- Node1 -->
<g id="node1" class="node">
<title>Node1</title>
<g id="a_node1"><a xlink:title=" ">
<polygon fill="#bfbfbf" stroke="black" points="94.5,-239 41.5,-239 41.5,-220 94.5,-220 94.5,-239"/>
<text text-anchor="middle" x="68" y="-227" font-family="Helvetica,sans-Serif" font-size="10.00">api.hpp</text>
</a>
</g>
</g>
<!-- Node2 -->
<g id="node2" class="node">
<title>Node2</title>
<g id="a_node2"><a xlink:href="cmd__line_8hpp.html" target="_top" xlink:title=" ">
<polygon fill="none" stroke="black" points="82,-74 0,-74 0,-55 82,-55 82,-74"/>
<text text-anchor="middle" x="41" y="-62" font-family="Helvetica,sans-Serif" font-size="10.00">cmd_line.hpp</text>
</a>
</g>
</g>
<!-- Node1&#45;&gt;Node2 -->
<g id="edge1" class="edge">
<title>Node1&#45;&gt;Node2</title>
<path fill="none" stroke="midnightblue" d="M43.42,-214.29C32.91,-206.76 21.75,-196.48 16,-184 -1.67,-145.61 23.82,-94.45 35.59,-74.24"/>
<polygon fill="midnightblue" stroke="midnightblue" points="41.7,-217.35 51.97,-219.95 45.57,-211.51 41.7,-217.35"/>
</g>
<!-- Node5 -->
<g id="node5" class="node">
<title>Node5</title>
<g id="a_node5"><a xlink:href="command_8hpp.html" target="_top" xlink:title=" ">
<polygon fill="none" stroke="black" points="111,-184 25,-184 25,-165 111,-165 111,-184"/>
<text text-anchor="middle" x="68" y="-172" font-family="Helvetica,sans-Serif" font-size="10.00">command.hpp</text>
</a>
</g>
</g>
<!-- Node1&#45;&gt;Node5 -->
<g id="edge5" class="edge">
<title>Node1&#45;&gt;Node5</title>
<path fill="none" stroke="midnightblue" d="M61.51,-209.66C60.91,-200.93 61.36,-190.99 62.87,-184.09"/>
<polygon fill="midnightblue" stroke="midnightblue" points="58.06,-210.29 62.83,-219.75 65,-209.38 58.06,-210.29"/>
</g>
<!-- Node3 -->
<g id="node3" class="node">
<title>Node3</title>
<g id="a_node3"><a xlink:href="all_8hpp.html" target="_top" xlink:title=" ">
<polygon fill="none" stroke="black" points="55,-19 5,-19 5,0 55,0 55,-19"/>
<text text-anchor="middle" x="30" y="-7" font-family="Helvetica,sans-Serif" font-size="10.00">all.hpp</text>
</a>
</g>
</g>
<!-- Node2&#45;&gt;Node3 -->
<g id="edge2" class="edge">
<title>Node2&#45;&gt;Node3</title>
<path fill="none" stroke="midnightblue" d="M37.15,-44.95C35.32,-36.15 33.23,-26.06 31.78,-19.09"/>
<polygon fill="midnightblue" stroke="midnightblue" points="33.72,-45.67 39.18,-54.75 40.58,-44.25 33.72,-45.67"/>
</g>
<!-- Node4 -->
<g id="node4" class="node">
<title>Node4</title>
<g id="a_node4"><a xlink:href="help__printer_8hpp.html" target="_top" xlink:title=" ">
<polygon fill="none" stroke="black" points="168.5,-19 73.5,-19 73.5,0 168.5,0 168.5,-19"/>
<text text-anchor="middle" x="121" y="-7" font-family="Helvetica,sans-Serif" font-size="10.00">help_printer.hpp</text>
</a>
</g>
</g>
<!-- Node2&#45;&gt;Node4 -->
<g id="edge3" class="edge">
<title>Node2&#45;&gt;Node4</title>
<path fill="none" stroke="midnightblue" d="M56.97,-48.88C70.26,-39.34 88.88,-27.21 102.76,-19.17"/>
<polygon fill="midnightblue" stroke="midnightblue" points="54.68,-46.21 48.74,-54.98 58.85,-51.83 54.68,-46.21"/>
</g>
<!-- Node4&#45;&gt;Node2 -->
<g id="edge4" class="edge">
<title>Node4&#45;&gt;Node2</title>
<path fill="none" stroke="midnightblue" d="M104.78,-25.31C91.42,-34.88 72.79,-47 58.97,-54.98"/>
<polygon fill="midnightblue" stroke="midnightblue" points="107.11,-27.94 113.06,-19.17 102.94,-22.31 107.11,-27.94"/>
</g>
<!-- Node5&#45;&gt;Node1 -->
<g id="edge6" class="edge">
<title>Node5&#45;&gt;Node1</title>
<path fill="none" stroke="midnightblue" d="M74.48,-194.13C75.1,-202.85 74.66,-212.8 73.17,-219.75"/>
<polygon fill="midnightblue" stroke="midnightblue" points="77.93,-193.53 73.13,-184.09 70.99,-194.47 77.93,-193.53"/>
</g>
<!-- Node5&#45;&gt;Node2 -->
<g id="edge7" class="edge">
<title>Node5&#45;&gt;Node2</title>
<path fill="none" stroke="midnightblue" d="M55.35,-156.59C50.16,-148.65 44.73,-138.79 42,-129 36.72,-110.1 38.3,-86.78 39.75,-74.33"/>
<polygon fill="midnightblue" stroke="midnightblue" points="52.56,-158.72 61.16,-164.92 58.3,-154.71 52.56,-158.72"/>
</g>
<!-- Node5&#45;&gt;Node4 -->
<g id="edge10" class="edge">
<title>Node5&#45;&gt;Node4</title>
<path fill="none" stroke="midnightblue" d="M92.53,-159.27C103.03,-151.74 114.2,-141.46 120,-129 137.54,-91.32 128.02,-39.32 123.23,-19.06"/>
<polygon fill="midnightblue" stroke="midnightblue" points="90.39,-156.49 83.99,-164.93 94.26,-162.32 90.39,-156.49"/>
</g>
<!-- Node6 -->
<g id="node6" class="node">
<title>Node6</title>
<g id="a_node6"><a xlink:href="help_8hpp.html" target="_top" xlink:title=" ">
<polygon fill="none" stroke="black" points="110.5,-129 51.5,-129 51.5,-110 110.5,-110 110.5,-129"/>
<text text-anchor="middle" x="81" y="-117" font-family="Helvetica,sans-Serif" font-size="10.00">help.hpp</text>
</a>
</g>
</g>
<!-- Node5&#45;&gt;Node6 -->
<g id="edge8" class="edge">
<title>Node5&#45;&gt;Node6</title>
<path fill="none" stroke="midnightblue" d="M72.55,-154.95C74.71,-146.15 77.18,-136.06 78.89,-129.09"/>
<polygon fill="midnightblue" stroke="midnightblue" points="69.13,-154.2 70.15,-164.75 75.93,-155.87 69.13,-154.2"/>
</g>
<!-- Node6&#45;&gt;Node2 -->
<g id="edge9" class="edge">
<title>Node6&#45;&gt;Node2</title>
<path fill="none" stroke="midnightblue" d="M68.3,-101.67C61.37,-92.5 53.09,-81.52 47.48,-74.09"/>
<polygon fill="midnightblue" stroke="midnightblue" points="65.58,-103.87 74.39,-109.75 71.16,-99.66 65.58,-103.87"/>
</g>
</g>
</svg>
