<?xml version="1.0" encoding="UTF-8" standalone="no"?>
<!DOCTYPE svg PUBLIC "-//W3C//DTD SVG 1.1//EN"
 "http://www.w3.org/Graphics/SVG/1.1/DTD/svg11.dtd">
<!-- Generated by graphviz version 14.1.2 (0)
 -->
<!-- Title: api.hpp Pages: 1 -->
<svg width="1069pt" height="364pt"
 viewBox="0.00 0.00 1069.00 364.00" xmlns="http://www.w3.org/2000/svg" xmlns:xlink="http://www.w3.org/1999/xlink">
<g id="graph0" class="graph" transform="scale(1 1) rotate(0) translate(4 360)">
<title>api.hpp</title>
<!-- Node1 -->
<g id="Node000001" class="node">
<title>Node1</title>
<g id="a_Node000001"><a xlink:title=" ">
<polygon fill="#999999" stroke="#666666" points="623.54,-356 576.04,-356 576.04,-336 623.54,-336 623.54,-356"/>
<text xml:space="preserve" text-anchor="middle" x="599.79" y="-342.5" font-family="Helvetica,sans-Serif" font-size="10.00">api.hpp</text>
</a>
</g>
</g>
<!-- Node2 -->
<g id="Node000002" class="node">
<title>Node2</title>
<g id="a_Node000002"><a xlink:href="arg_8hpp.html" target="_top" xlink:title=" ">
<polygon fill="white" stroke="#666666" points="663.92,-244 615.67,-244 615.67,-224 663.92,-224 663.92,-244"/>
<text xml:space="preserve" text-anchor="middle" x="639.79" y="-230.5" font-family="Helvetica,sans-Serif" font-size="10.00">arg.hpp</text>
</a>
</g>
</g>
<!-- Node1&#45;&gt;Node2 -->
<g id="edge1_Node000001_Node000002" class="edge">
<title>Node1&#45;&gt;Node2</title>
<g id="a_edge1_Node000001_Node000002"><a xlink:title=" ">
<path fill="none" stroke="#63b8ff" d="M603.2,-335.62C609.67,-317.84 623.84,-278.88 632.52,-255"/>
<polygon fill="#63b8ff" stroke="#63b8ff" points="635.75,-256.37 635.87,-245.78 629.17,-253.98 635.75,-256.37"/>
</a>
</g>
</g>
<!-- Node5 -->
<g id="Node000005" class="node">
<title>Node5</title>
<g id="a_Node000005"><a xlink:href="types_8hpp.html" target="_top" xlink:title=" ">
<polygon fill="white" stroke="#666666" points="625.17,-76 566.42,-76 566.42,-56 625.17,-56 625.17,-76"/>
<text xml:space="preserve" text-anchor="middle" x="595.79" y="-62.5" font-family="Helvetica,sans-Serif" font-size="10.00">types.hpp</text>
</a>
</g>
</g>
<!-- Node1&#45;&gt;Node5 -->
<g id="edge56_Node000001_Node000005" class="edge">
<title>Node1&#45;&gt;Node5</title>
<g id="a_edge56_Node000001_Node000005"><a xlink:title=" ">
<path fill="none" stroke="#63b8ff" d="M623.93,-344.47C718.78,-341.77 1060.79,-325.72 1060.79,-235 1060.79,-235 1060.79,-235 1060.79,-177 1060.79,-119.83 1003.91,-130.42 949.79,-112 892.57,-92.52 716.87,-76.59 636.58,-70.12"/>
<polygon fill="#63b8ff" stroke="#63b8ff" points="637.21,-66.66 626.97,-69.35 636.66,-73.63 637.21,-66.66"/>
</a>
</g>
</g>
<!-- Node17 -->
<g id="Node000017" class="node">
<title>Node17</title>
<g id="a_Node000017"><a xlink:href="command_8hpp.html" target="_top" xlink:title=" ">
<polygon fill="white" stroke="#666666" points="566.54,-300 489.04,-300 489.04,-280 566.54,-280 566.54,-300"/>
<text xml:space="preserve" text-anchor="middle" x="527.79" y="-286.5" font-family="Helvetica,sans-Serif" font-size="10.00">command.hpp</text>
</a>
</g>
</g>
<!-- Node1&#45;&gt;Node17 -->
<g id="edge27_Node000001_Node000017" class="edge">
<title>Node1&#45;&gt;Node17</title>
<g id="a_edge27_Node000001_Node000017"><a xlink:title=" ">
<path fill="none" stroke="#63b8ff" d="M581.99,-335.59C570.11,-327.85 554.89,-316.69 543.48,-307.47"/>
<polygon fill="#63b8ff" stroke="#63b8ff" points="546.01,-305.02 536.1,-301.27 541.51,-310.38 546.01,-305.02"/>
</a>
</g>
</g>
<!-- Node20 -->
<g id="Node000020" class="node">
<title>Node20</title>
<g id="a_Node000020"><a xlink:href="groups_8hpp.html" target="_top" xlink:title=" ">
<polygon fill="white" stroke="#666666" points="152.79,-300 88.79,-300 88.79,-280 152.79,-280 152.79,-300"/>
<text xml:space="preserve" text-anchor="middle" x="120.79" y="-286.5" font-family="Helvetica,sans-Serif" font-size="10.00">groups.hpp</text>
</a>
</g>
</g>
<!-- Node1&#45;&gt;Node20 -->
<g id="edge44_Node000001_Node000020" class="edge">
<title>Node1&#45;&gt;Node20</title>
<g id="a_edge44_Node000001_Node000020"><a xlink:title=" ">
<path fill="none" stroke="#63b8ff" d="M575.71,-342.29C499.51,-333.69 262.88,-307.02 164.45,-295.92"/>
<polygon fill="#63b8ff" stroke="#63b8ff" points="164.98,-292.46 154.65,-294.82 164.19,-299.42 164.98,-292.46"/>
</a>
</g>
</g>
<!-- Node21 -->
<g id="Node000021" class="node">
<title>Node21</title>
<g id="a_Node000021"><a xlink:href="multi__arg_8hpp.html" target="_top" xlink:title=" ">
<polygon fill="white" stroke="#666666" points="840.04,-300 765.54,-300 765.54,-280 840.04,-280 840.04,-300"/>
<text xml:space="preserve" text-anchor="middle" x="802.79" y="-286.5" font-family="Helvetica,sans-Serif" font-size="10.00">multi_arg.hpp</text>
</a>
</g>
</g>
<!-- Node1&#45;&gt;Node21 -->
<g id="edge48_Node000001_Node000021" class="edge">
<title>Node1&#45;&gt;Node21</title>
<g id="a_edge48_Node000001_Node000021"><a xlink:title=" ">
<path fill="none" stroke="#63b8ff" d="M623.88,-338.59C656.39,-329.94 715.01,-314.35 756.27,-303.38"/>
<polygon fill="#63b8ff" stroke="#63b8ff" points="756.92,-306.82 765.68,-300.87 755.12,-300.06 756.92,-306.82"/>
</a>
</g>
</g>
<!-- Node3 -->
<g id="Node000003" class="node">
<title>Node3</title>
<g id="a_Node000003"><a xlink:href="arg__iface_8hpp.html" target="_top" xlink:title=" ">
<polygon fill="white" stroke="#666666" points="391.04,-188 316.54,-188 316.54,-168 391.04,-168 391.04,-188"/>
<text xml:space="preserve" text-anchor="middle" x="353.79" y="-174.5" font-family="Helvetica,sans-Serif" font-size="10.00">arg_iface.hpp</text>
</a>
</g>
</g>
<!-- Node2&#45;&gt;Node3 -->
<g id="edge2_Node000002_Node000003" class="edge">
<title>Node2&#45;&gt;Node3</title>
<g id="a_edge2_Node000002_Node000003"><a xlink:title=" ">
<path fill="none" stroke="#63b8ff" d="M615.41,-228.4C568.36,-219.51 464.24,-199.85 402.48,-188.19"/>
<polygon fill="#63b8ff" stroke="#63b8ff" points="403.43,-184.81 392.96,-186.39 402.13,-191.69 403.43,-184.81"/>
</a>
</g>
</g>
<!-- Node2&#45;&gt;Node5 -->
<g id="edge19_Node000002_Node000005" class="edge">
<title>Node2&#45;&gt;Node5</title>
<g id="a_edge19_Node000002_Node000005"><a xlink:title=" ">
<path fill="none" stroke="#63b8ff" d="M656.2,-223.52C667.99,-215.68 682.95,-203.36 689.79,-188 693.41,-179.88 693.05,-176.27 689.79,-168 675.6,-131.92 641.77,-101.08 618.81,-83.29"/>
<polygon fill="#63b8ff" stroke="#63b8ff" points="621.04,-80.58 610.94,-77.39 616.85,-86.19 621.04,-80.58"/>
</a>
</g>
</g>
<!-- Node9 -->
<g id="Node000009" class="node">
<title>Node9</title>
<g id="a_Node000009"><a xlink:href="utils_8hpp.html" target="_top" xlink:title=" ">
<polygon fill="white" stroke="#666666" points="483.17,-132 430.42,-132 430.42,-112 483.17,-112 483.17,-132"/>
<text xml:space="preserve" text-anchor="middle" x="456.79" y="-118.5" font-family="Helvetica,sans-Serif" font-size="10.00">utils.hpp</text>
</a>
</g>
</g>
<!-- Node2&#45;&gt;Node9 -->
<g id="edge20_Node000002_Node000009" class="edge">
<title>Node2&#45;&gt;Node9</title>
<g id="a_edge20_Node000002_Node000009"><a xlink:title=" ">
<path fill="none" stroke="#63b8ff" d="M621.43,-223.58C604.45,-214.75 578.63,-200.99 556.79,-188 529.97,-172.05 500.07,-152.35 480.01,-138.84"/>
<polygon fill="#63b8ff" stroke="#63b8ff" points="481.98,-135.95 471.74,-133.25 478.06,-141.75 481.98,-135.95"/>
</a>
</g>
</g>
<!-- Node10 -->
<g id="Node000010" class="node">
<title>Node10</title>
<g id="a_Node000010"><a xlink:title=" ">
<polygon fill="#e0e0e0" stroke="#999999" points="484.67,-76 428.92,-76 428.92,-56 484.67,-56 484.67,-76"/>
<text xml:space="preserve" text-anchor="middle" x="456.79" y="-62.5" font-family="Helvetica,sans-Serif" font-size="10.00">algorithm</text>
</a>
</g>
</g>
<!-- Node2&#45;&gt;Node10 -->
<g id="edge26_Node000002_Node000010" class="edge">
<title>Node2&#45;&gt;Node10</title>
<g id="a_edge26_Node000002_Node000010"><a xlink:title=" ">
<path fill="none" stroke="#63b8ff" d="M629.44,-223.71C619.31,-214.62 603.48,-200.38 589.79,-188 548.98,-151.07 501.28,-107.6 475.55,-84.13"/>
<polygon fill="#63b8ff" stroke="#63b8ff" points="477.99,-81.61 468.24,-77.45 473.27,-86.78 477.99,-81.61"/>
</a>
</g>
</g>
<!-- Node12 -->
<g id="Node000012" class="node">
<title>Node12</title>
<g id="a_Node000012"><a xlink:href="context_8hpp.html" target="_top" xlink:title=" ">
<polygon fill="white" stroke="#666666" points="918.29,-188 851.29,-188 851.29,-168 918.29,-168 918.29,-188"/>
<text xml:space="preserve" text-anchor="middle" x="884.79" y="-174.5" font-family="Helvetica,sans-Serif" font-size="10.00">context.hpp</text>
</a>
</g>
</g>
<!-- Node2&#45;&gt;Node12 -->
<g id="edge12_Node000002_Node000012" class="edge">
<title>Node2&#45;&gt;Node12</title>
<g id="a_edge12_Node000002_Node000012"><a xlink:title=" ">
<path fill="none" stroke="#63b8ff" d="M664.18,-227.62C705.14,-218.6 788.33,-200.26 840.03,-188.87"/>
<polygon fill="#63b8ff" stroke="#63b8ff" points="840.7,-192.3 849.71,-186.73 839.2,-185.47 840.7,-192.3"/>
</a>
</g>
</g>
<!-- Node14 -->
<g id="Node000014" class="node">
<title>Node14</title>
<g id="a_Node000014"><a xlink:href="exceptions_8hpp.html" target="_top" xlink:title=" ">
<polygon fill="white" stroke="#666666" points="818.79,-132 736.79,-132 736.79,-112 818.79,-112 818.79,-132"/>
<text xml:space="preserve" text-anchor="middle" x="777.79" y="-118.5" font-family="Helvetica,sans-Serif" font-size="10.00">exceptions.hpp</text>
</a>
</g>
</g>
<!-- Node2&#45;&gt;Node14 -->
<g id="edge16_Node000002_Node000014" class="edge">
<title>Node2&#45;&gt;Node14</title>
<g id="a_edge16_Node000002_Node000014"><a xlink:title=" ">
<path fill="none" stroke="#63b8ff" d="M664.39,-230.53C691.84,-226.45 735.69,-215.76 760.79,-188 771.7,-175.95 775.77,-157.76 777.21,-143.68"/>
<polygon fill="#63b8ff" stroke="#63b8ff" points="780.7,-143.91 777.83,-133.72 773.72,-143.48 780.7,-143.91"/>
</a>
</g>
</g>
<!-- Node16 -->
<g id="Node000016" class="node">
<title>Node16</title>
<g id="a_Node000016"><a xlink:href="value__utils_8hpp.html" target="_top" xlink:title=" ">
<polygon fill="white" stroke="#666666" points="680.42,-188 599.17,-188 599.17,-168 680.42,-168 680.42,-188"/>
<text xml:space="preserve" text-anchor="middle" x="639.79" y="-174.5" font-family="Helvetica,sans-Serif" font-size="10.00">value_utils.hpp</text>
</a>
</g>
</g>
<!-- Node2&#45;&gt;Node16 -->
<g id="edge21_Node000002_Node000016" class="edge">
<title>Node2&#45;&gt;Node16</title>
<g id="a_edge21_Node000002_Node000016"><a xlink:title=" ">
<path fill="none" stroke="#63b8ff" d="M639.79,-223.59C639.79,-217.01 639.79,-207.96 639.79,-199.73"/>
<polygon fill="#63b8ff" stroke="#63b8ff" points="643.29,-199.81 639.79,-189.81 636.29,-199.81 643.29,-199.81"/>
</a>
</g>
</g>
<!-- Node4 -->
<g id="Node000004" class="node">
<title>Node4</title>
<g id="a_Node000004"><a xlink:href="enums_8hpp.html" target="_top" xlink:title=" ">
<polygon fill="white" stroke="#666666" points="350.79,-132 286.79,-132 286.79,-112 350.79,-112 350.79,-132"/>
<text xml:space="preserve" text-anchor="middle" x="318.79" y="-118.5" font-family="Helvetica,sans-Serif" font-size="10.00">enums.hpp</text>
</a>
</g>
</g>
<!-- Node3&#45;&gt;Node4 -->
<g id="edge3_Node000003_Node000004" class="edge">
<title>Node3&#45;&gt;Node4</title>
<g id="a_edge3_Node000003_Node000004"><a xlink:title=" ">
<path fill="none" stroke="#63b8ff" d="M347.7,-167.59C343.08,-160.47 336.59,-150.45 330.92,-141.72"/>
<polygon fill="#63b8ff" stroke="#63b8ff" points="334.02,-140.06 325.64,-133.57 328.15,-143.86 334.02,-140.06"/>
</a>
</g>
</g>
<!-- Node3&#45;&gt;Node5 -->
<g id="edge4_Node000003_Node000005" class="edge">
<title>Node3&#45;&gt;Node5</title>
<g id="a_edge4_Node000003_Node000005"><a xlink:title=" ">
<path fill="none" stroke="#63b8ff" d="M360.67,-167.94C371.9,-153.8 395.54,-126.62 421.79,-112 463.74,-88.65 518.11,-77.11 554.82,-71.62"/>
<polygon fill="#63b8ff" stroke="#63b8ff" points="555.17,-75.11 564.59,-70.26 554.2,-68.18 555.17,-75.11"/>
</a>
</g>
</g>
<!-- Node3&#45;&gt;Node9 -->
<g id="edge8_Node000003_Node000009" class="edge">
<title>Node3&#45;&gt;Node9</title>
<g id="a_edge8_Node000003_Node000009"><a xlink:title=" ">
<path fill="none" stroke="#63b8ff" d="M371.73,-167.59C387.44,-159.36 410.53,-147.26 428.68,-137.74"/>
<polygon fill="#63b8ff" stroke="#63b8ff" points="430.14,-140.93 437.37,-133.18 426.89,-134.73 430.14,-140.93"/>
</a>
</g>
</g>
<!-- Node6 -->
<g id="Node000006" class="node">
<title>Node6</title>
<g id="a_Node000006"><a xlink:title=" ">
<polygon fill="#e0e0e0" stroke="#999999" points="589.54,-20 536.04,-20 536.04,0 589.54,0 589.54,-20"/>
<text xml:space="preserve" text-anchor="middle" x="562.79" y="-6.5" font-family="Helvetica,sans-Serif" font-size="10.00">iostream</text>
</a>
</g>
</g>
<!-- Node5&#45;&gt;Node6 -->
<g id="edge5_Node000005_Node000006" class="edge">
<title>Node5&#45;&gt;Node6</title>
<g id="a_edge5_Node000005_Node000006"><a xlink:title=" ">
<path fill="none" stroke="#63b8ff" d="M590.05,-55.59C585.74,-48.55 579.7,-38.67 574.41,-30"/>
<polygon fill="#63b8ff" stroke="#63b8ff" points="577.47,-28.3 569.26,-21.59 571.49,-31.95 577.47,-28.3"/>
</a>
</g>
</g>
<!-- Node7 -->
<g id="Node000007" class="node">
<title>Node7</title>
<g id="a_Node000007"><a xlink:title=" ">
<polygon fill="#e0e0e0" stroke="#999999" points="647.79,-20 607.79,-20 607.79,0 647.79,0 647.79,-20"/>
<text xml:space="preserve" text-anchor="middle" x="627.79" y="-6.5" font-family="Helvetica,sans-Serif" font-size="10.00">string</text>
</a>
</g>
</g>
<!-- Node5&#45;&gt;Node7 -->
<g id="edge6_Node000005_Node000007" class="edge">
<title>Node5&#45;&gt;Node7</title>
<g id="a_edge6_Node000005_Node000007"><a xlink:title=" ">
<path fill="none" stroke="#63b8ff" d="M601.37,-55.59C605.54,-48.55 611.4,-38.67 616.53,-30"/>
<polygon fill="#63b8ff" stroke="#63b8ff" points="619.42,-31.99 621.51,-21.6 613.4,-28.42 619.42,-31.99"/>
</a>
</g>
</g>
<!-- Node8 -->
<g id="Node000008" class="node">
<title>Node8</title>
<g id="a_Node000008"><a xlink:title=" ">
<polygon fill="#e0e0e0" stroke="#999999" points="286.29,-20 243.29,-20 243.29,0 286.29,0 286.29,-20"/>
<text xml:space="preserve" text-anchor="middle" x="264.79" y="-6.5" font-family="Helvetica,sans-Serif" font-size="10.00">vector</text>
</a>
</g>
</g>
<!-- Node5&#45;&gt;Node8 -->
<g id="edge7_Node000005_Node000008" class="edge">
<title>Node5&#45;&gt;Node8</title>
<g id="a_edge7_Node000005_Node000008"><a xlink:title=" ">
<path fill="none" stroke="#63b8ff" d="M566.13,-60.16C504.28,-50.07 361.99,-26.86 297.55,-16.34"/>
<polygon fill="#63b8ff" stroke="#63b8ff" points="298.39,-12.94 287.96,-14.78 297.27,-19.84 298.39,-12.94"/>
</a>
</g>
</g>
<!-- Node9&#45;&gt;Node5 -->
<g id="edge9_Node000009_Node000005" class="edge">
<title>Node9&#45;&gt;Node5</title>
<g id="a_edge9_Node000009_Node000005"><a xlink:title=" ">
<path fill="none" stroke="#63b8ff" d="M481.01,-111.59C503.09,-103.01 535.99,-90.23 560.91,-80.55"/>
<polygon fill="#63b8ff" stroke="#63b8ff" points="561.93,-83.91 569.98,-77.03 559.39,-77.39 561.93,-83.91"/>
</a>
</g>
</g>
<!-- Node9&#45;&gt;Node10 -->
<g id="edge10_Node000009_Node000010" class="edge">
<title>Node9&#45;&gt;Node10</title>
<g id="a_edge10_Node000009_Node000010"><a xlink:title=" ">
<path fill="none" stroke="#63b8ff" d="M456.79,-111.59C456.79,-105.01 456.79,-95.96 456.79,-87.73"/>
<polygon fill="#63b8ff" stroke="#63b8ff" points="460.29,-87.81 456.79,-77.81 453.29,-87.81 460.29,-87.81"/>
</a>
</g>
</g>
<!-- Node11 -->
<g id="Node000011" class="node">
<title>Node11</title>
<g id="a_Node000011"><a xlink:title=" ">
<polygon fill="#e0e0e0" stroke="#999999" points="254.67,-76 192.92,-76 192.92,-56 254.67,-56 254.67,-76"/>
<text xml:space="preserve" text-anchor="middle" x="223.79" y="-62.5" font-family="Helvetica,sans-Serif" font-size="10.00">type_traits</text>
</a>
</g>
</g>
<!-- Node9&#45;&gt;Node11 -->
<g id="edge11_Node000009_Node000011" class="edge">
<title>Node9&#45;&gt;Node11</title>
<g id="a_edge11_Node000009_Node000011"><a xlink:title=" ">
<path fill="none" stroke="#63b8ff" d="M430.07,-114.81C389.98,-105.52 313.91,-87.89 266.2,-76.83"/>
<polygon fill="#63b8ff" stroke="#63b8ff" points="267.02,-73.42 256.48,-74.58 265.44,-80.24 267.02,-73.42"/>
</a>
</g>
</g>
<!-- Node12&#45;&gt;Node5 -->
<g id="edge14_Node000012_Node000005" class="edge">
<title>Node12&#45;&gt;Node5</title>
<g id="a_edge14_Node000012_Node000005"><a xlink:title=" ">
<path fill="none" stroke="#63b8ff" d="M879.49,-167.73C870.71,-153.31 851.74,-125.75 827.79,-112 767.48,-77.37 685.31,-68.87 636.68,-67.08"/>
<polygon fill="#63b8ff" stroke="#63b8ff" points="636.97,-63.59 626.88,-66.81 636.78,-70.58 636.97,-63.59"/>
</a>
</g>
</g>
<!-- Node12&#45;&gt;Node9 -->
<g id="edge15_Node000012_Node000009" class="edge">
<title>Node12&#45;&gt;Node9</title>
<g id="a_edge15_Node000012_Node000009"><a xlink:title=" ">
<path fill="none" stroke="#63b8ff" d="M850.85,-172.72C772.08,-162.78 577.3,-138.2 494.74,-127.79"/>
<polygon fill="#63b8ff" stroke="#63b8ff" points="495.27,-124.33 484.91,-126.55 494.39,-131.27 495.27,-124.33"/>
</a>
</g>
</g>
<!-- Node13 -->
<g id="Node000013" class="node">
<title>Node13</title>
<g id="a_Node000013"><a xlink:title=" ">
<polygon fill="#e0e0e0" stroke="#999999" points="914.42,-132 875.17,-132 875.17,-112 914.42,-112 914.42,-132"/>
<text xml:space="preserve" text-anchor="middle" x="894.79" y="-118.5" font-family="Helvetica,sans-Serif" font-size="10.00">utility</text>
</a>
</g>
</g>
<!-- Node12&#45;&gt;Node13 -->
<g id="edge13_Node000012_Node000013" class="edge">
<title>Node12&#45;&gt;Node13</title>
<g id="a_edge13_Node000012_Node000013"><a xlink:title=" ">
<path fill="none" stroke="#63b8ff" d="M886.54,-167.59C887.77,-160.93 889.47,-151.75 891.01,-143.44"/>
<polygon fill="#63b8ff" stroke="#63b8ff" points="894.42,-144.26 892.8,-133.79 887.53,-142.98 894.42,-144.26"/>
</a>
</g>
</g>
<!-- Node14&#45;&gt;Node5 -->
<g id="edge18_Node000014_Node000005" class="edge">
<title>Node14&#45;&gt;Node5</title>
<g id="a_edge18_Node000014_Node000005"><a xlink:title=" ">
<path fill="none" stroke="#63b8ff" d="M746.09,-111.59C715.62,-102.55 669.44,-88.85 636.32,-79.02"/>
<polygon fill="#63b8ff" stroke="#63b8ff" points="637.66,-75.77 627.08,-76.28 635.67,-82.48 637.66,-75.77"/>
</a>
</g>
</g>
<!-- Node15 -->
<g id="Node000015" class="node">
<title>Node15</title>
<g id="a_Node000015"><a xlink:title=" ">
<polygon fill="#e0e0e0" stroke="#999999" points="807.17,-76 748.42,-76 748.42,-56 807.17,-56 807.17,-76"/>
<text xml:space="preserve" text-anchor="middle" x="777.79" y="-62.5" font-family="Helvetica,sans-Serif" font-size="10.00">stdexcept</text>
</a>
</g>
</g>
<!-- Node14&#45;&gt;Node15 -->
<g id="edge17_Node000014_Node000015" class="edge">
<title>Node14&#45;&gt;Node15</title>
<g id="a_edge17_Node000014_Node000015"><a xlink:title=" ">
<path fill="none" stroke="#63b8ff" d="M777.79,-111.59C777.79,-105.01 777.79,-95.96 777.79,-87.73"/>
<polygon fill="#63b8ff" stroke="#63b8ff" points="781.29,-87.81 777.79,-77.81 774.29,-87.81 781.29,-87.81"/>
</a>
</g>
</g>
<!-- Node16&#45;&gt;Node5 -->
<g id="edge23_Node000016_Node000005" class="edge">
<title>Node16&#45;&gt;Node5</title>
<g id="a_edge23_Node000016_Node000005"><a xlink:title=" ">
<path fill="none" stroke="#63b8ff" d="M636.04,-167.62C628.93,-149.84 613.35,-110.88 603.79,-87"/>
<polygon fill="#63b8ff" stroke="#63b8ff" points="607.06,-85.74 600.1,-77.76 600.56,-88.34 607.06,-85.74"/>
</a>
</g>
</g>
<!-- Node16&#45;&gt;Node9 -->
<g id="edge24_Node000016_Node000009" class="edge">
<title>Node16&#45;&gt;Node9</title>
<g id="a_edge24_Node000016_Node000009"><a xlink:title=" ">
<path fill="none" stroke="#63b8ff" d="M607.92,-167.59C576.27,-158.25 527.76,-143.94 494.28,-134.06"/>
<polygon fill="#63b8ff" stroke="#63b8ff" points="495.58,-130.8 485,-131.32 493.6,-137.51 495.58,-130.8"/>
</a>
</g>
</g>
<!-- Node16&#45;&gt;Node10 -->
<g id="edge25_Node000016_Node000010" class="edge">
<title>Node16&#45;&gt;Node10</title>
<g id="a_edge25_Node000016_Node000010"><a xlink:title=" ">
<path fill="none" stroke="#63b8ff" d="M624.06,-167.52C603.03,-154.86 564.62,-131.73 531.79,-112 515.35,-102.12 496.87,-91.03 482.37,-82.33"/>
<polygon fill="#63b8ff" stroke="#63b8ff" points="484.27,-79.39 473.9,-77.25 480.67,-85.4 484.27,-79.39"/>
</a>
</g>
</g>
<!-- Node16&#45;&gt;Node14 -->
<g id="edge22_Node000016_Node000014" class="edge">
<title>Node16&#45;&gt;Node14</title>
<g id="a_edge22_Node000016_Node000014"><a xlink:title=" ">
<path fill="none" stroke="#63b8ff" d="M663.83,-167.59C685.76,-159.01 718.42,-146.23 743.16,-136.55"/>
<polygon fill="#63b8ff" stroke="#63b8ff" points="744.12,-139.93 752.16,-133.03 741.57,-133.42 744.12,-139.93"/>
</a>
</g>
</g>
<!-- Node17&#45;&gt;Node1 -->
<g id="edge28_Node000017_Node000001" class="edge">
<title>Node17&#45;&gt;Node1</title>
<g id="a_edge28_Node000017_Node000001"><a xlink:title=" ">
<path fill="none" stroke="#63b8ff" d="M545.71,-300.48C557.54,-308.2 572.64,-319.28 584.01,-328.45"/>
<polygon fill="#63b8ff" stroke="#63b8ff" points="581.45,-330.87 591.36,-334.62 585.95,-325.51 581.45,-330.87"/>
</a>
</g>
</g>
<!-- Node17&#45;&gt;Node4 -->
<g id="edge30_Node000017_Node000004" class="edge">
<title>Node17&#45;&gt;Node4</title>
<g id="a_edge30_Node000017_Node000004"><a xlink:title=" ">
<path fill="none" stroke="#63b8ff" d="M488.91,-283.89C437.24,-274.79 347.83,-250.44 307.79,-188 299.11,-174.45 303.28,-156.17 308.81,-142.45"/>
<polygon fill="#63b8ff" stroke="#63b8ff" points="311.89,-144.12 312.89,-133.57 305.53,-141.2 311.89,-144.12"/>
</a>
</g>
</g>
<!-- Node17&#45;&gt;Node5 -->
<g id="edge41_Node000017_Node000005" class="edge">
<title>Node17&#45;&gt;Node5</title>
<g id="a_edge41_Node000017_Node000005"><a xlink:title=" ">
<path fill="none" stroke="#63b8ff" d="M530.63,-279.74C540.78,-246.6 575.47,-133.35 589.66,-87.01"/>
<polygon fill="#63b8ff" stroke="#63b8ff" points="592.92,-88.33 592.5,-77.74 586.23,-86.28 592.92,-88.33"/>
</a>
</g>
</g>
<!-- Node17&#45;&gt;Node9 -->
<g id="edge42_Node000017_Node000009" class="edge">
<title>Node17&#45;&gt;Node9</title>
<g id="a_edge42_Node000017_Node000009"><a xlink:title=" ">
<path fill="none" stroke="#63b8ff" d="M491.82,-279.59C473.75,-272.85 453.47,-261.74 442.79,-244 423.87,-212.56 437.03,-168.15 447.48,-142.8"/>
<polygon fill="#63b8ff" stroke="#63b8ff" points="450.66,-144.26 451.49,-133.7 444.25,-141.44 450.66,-144.26"/>
</a>
</g>
</g>
<!-- Node17&#45;&gt;Node12 -->
<g id="edge29_Node000017_Node000012" class="edge">
<title>Node17&#45;&gt;Node12</title>
<g id="a_edge29_Node000017_Node000012"><a xlink:title=" ">
<path fill="none" stroke="#63b8ff" d="M558.54,-279.53C622.6,-259.79 770.41,-214.24 843.01,-191.87"/>
<polygon fill="#63b8ff" stroke="#63b8ff" points="844.02,-195.23 852.55,-188.94 841.96,-188.54 844.02,-195.23"/>
</a>
</g>
</g>
<!-- Node17&#45;&gt;Node16 -->
<g id="edge43_Node000017_Node000016" class="edge">
<title>Node17&#45;&gt;Node16</title>
<g id="a_edge43_Node000017_Node000016"><a xlink:title=" ">
<path fill="none" stroke="#63b8ff" d="M537.34,-279.62C556.19,-261.11 598.41,-219.65 622.35,-196.13"/>
<polygon fill="#63b8ff" stroke="#63b8ff" points="624.51,-198.92 629.19,-189.42 619.6,-193.93 624.51,-198.92"/>
</a>
</g>
</g>
<!-- Node18 -->
<g id="Node000018" class="node">
<title>Node18</title>
<g id="a_Node000018"><a xlink:href="group__iface_8hpp.html" target="_top" xlink:title=" ">
<polygon fill="white" stroke="#666666" points="255.29,-244 170.29,-244 170.29,-224 255.29,-224 255.29,-244"/>
<text xml:space="preserve" text-anchor="middle" x="212.79" y="-230.5" font-family="Helvetica,sans-Serif" font-size="10.00">group_iface.hpp</text>
</a>
</g>
</g>
<!-- Node17&#45;&gt;Node18 -->
<g id="edge31_Node000017_Node000018" class="edge">
<title>Node17&#45;&gt;Node18</title>
<g id="a_edge31_Node000017_Node000018"><a xlink:title=" ">
<path fill="none" stroke="#63b8ff" d="M488.85,-282.32C433.07,-272.76 330.18,-255.12 266.99,-244.29"/>
<polygon fill="#63b8ff" stroke="#63b8ff" points="267.61,-240.85 257.16,-242.61 266.43,-247.75 267.61,-240.85"/>
</a>
</g>
</g>
<!-- Node18&#45;&gt;Node3 -->
<g id="edge32_Node000018_Node000003" class="edge">
<title>Node18&#45;&gt;Node3</title>
<g id="a_edge32_Node000018_Node000003"><a xlink:title=" ">
<path fill="none" stroke="#63b8ff" d="M237.35,-223.59C259.76,-215.01 293.13,-202.23 318.41,-192.55"/>
<polygon fill="#63b8ff" stroke="#63b8ff" points="319.54,-195.87 327.63,-189.02 317.04,-189.33 319.54,-195.87"/>
</a>
</g>
</g>
<!-- Node18&#45;&gt;Node5 -->
<g id="edge34_Node000018_Node000005" class="edge">
<title>Node18&#45;&gt;Node5</title>
<g id="a_edge34_Node000018_Node000005"><a xlink:title=" ">
<path fill="none" stroke="#63b8ff" d="M214.73,-223.84C220.14,-200.74 237.7,-139.97 277.79,-112 300.13,-96.41 473.69,-78.4 554.56,-70.75"/>
<polygon fill="#63b8ff" stroke="#63b8ff" points="554.89,-74.23 564.52,-69.82 554.23,-67.26 554.89,-74.23"/>
</a>
</g>
</g>
<!-- Node18&#45;&gt;Node8 -->
<g id="edge40_Node000018_Node000008" class="edge">
<title>Node18&#45;&gt;Node8</title>
<g id="a_edge40_Node000018_Node000008"><a xlink:title=" ">
<path fill="none" stroke="#63b8ff" d="M169.97,-226.18C147.4,-220.18 121.6,-208.94 107.79,-188 102.9,-180.58 105.94,-176.69 107.79,-168 120.33,-109.16 136.63,-93.34 183.79,-56 198.96,-43.99 217.75,-33.34 233.41,-25.41"/>
<polygon fill="#63b8ff" stroke="#63b8ff" points="234.88,-28.59 242.32,-21.05 231.8,-22.31 234.88,-28.59"/>
</a>
</g>
</g>
<!-- Node18&#45;&gt;Node9 -->
<g id="edge35_Node000018_Node000009" class="edge">
<title>Node18&#45;&gt;Node9</title>
<g id="a_edge35_Node000018_Node000009"><a xlink:title=" ">
<path fill="none" stroke="#63b8ff" d="M180.08,-223.52C146.78,-212.27 102.83,-191.99 123.79,-168 133.44,-156.96 333.31,-135.51 418.68,-126.8"/>
<polygon fill="#63b8ff" stroke="#63b8ff" points="418.83,-130.31 428.43,-125.82 418.12,-123.34 418.83,-130.31"/>
</a>
</g>
</g>
<!-- Node18&#45;&gt;Node10 -->
<g id="edge36_Node000018_Node000010" class="edge">
<title>Node18&#45;&gt;Node10</title>
<g id="a_edge36_Node000018_Node000010"><a xlink:title=" ">
<path fill="none" stroke="#63b8ff" d="M211.51,-223.55C209.01,-200.85 206.14,-142.83 236.79,-112 261.62,-87.03 360.96,-74.89 417.29,-69.91"/>
<polygon fill="#63b8ff" stroke="#63b8ff" points="417.43,-73.41 427.1,-69.08 416.84,-66.43 417.43,-73.41"/>
</a>
</g>
</g>
<!-- Node18&#45;&gt;Node11 -->
<g id="edge38_Node000018_Node000011" class="edge">
<title>Node18&#45;&gt;Node11</title>
<g id="a_edge38_Node000018_Node000011"><a xlink:title=" ">
<path fill="none" stroke="#63b8ff" d="M169.98,-224.57C149.58,-218.17 127.02,-207.07 114.79,-188 110,-180.52 111.8,-176.37 114.79,-168 128.83,-128.8 168.49,-98.89 195.88,-82.13"/>
<polygon fill="#63b8ff" stroke="#63b8ff" points="197.55,-85.21 204.4,-77.12 194,-79.17 197.55,-85.21"/>
</a>
</g>
</g>
<!-- Node18&#45;&gt;Node13 -->
<g id="edge39_Node000018_Node000013" class="edge">
<title>Node18&#45;&gt;Node13</title>
<g id="a_edge39_Node000018_Node000013"><a xlink:title=" ">
<path fill="none" stroke="#63b8ff" d="M255.63,-233.1C343.95,-232.47 552.25,-226.59 721.79,-188 773.74,-176.18 831.07,-152.35 864.96,-137.06"/>
<polygon fill="#63b8ff" stroke="#63b8ff" points="866.08,-140.39 873.72,-133.05 863.17,-134.03 866.08,-140.39"/>
</a>
</g>
</g>
<!-- Node18&#45;&gt;Node14 -->
<g id="edge33_Node000018_Node000014" class="edge">
<title>Node18&#45;&gt;Node14</title>
<g id="a_edge33_Node000018_Node000014"><a xlink:title=" ">
<path fill="none" stroke="#63b8ff" d="M255.52,-231.89C357.2,-228.78 610.93,-218.15 689.79,-188 717.64,-177.36 744.41,-155.33 760.97,-139.89"/>
<polygon fill="#63b8ff" stroke="#63b8ff" points="763.19,-142.6 767.96,-133.14 758.34,-137.56 763.19,-142.6"/>
</a>
</g>
</g>
<!-- Node19 -->
<g id="Node000019" class="node">
<title>Node19</title>
<g id="a_Node000019"><a xlink:title=" ">
<polygon fill="#e0e0e0" stroke="#999999" points="184.42,-188 133.17,-188 133.17,-168 184.42,-168 184.42,-188"/>
<text xml:space="preserve" text-anchor="middle" x="158.79" y="-174.5" font-family="Helvetica,sans-Serif" font-size="10.00">memory</text>
</a>
</g>
</g>
<!-- Node18&#45;&gt;Node19 -->
<g id="edge37_Node000018_Node000019" class="edge">
<title>Node18&#45;&gt;Node19</title>
<g id="a_edge37_Node000018_Node000019"><a xlink:title=" ">
<path fill="none" stroke="#63b8ff" d="M203.39,-223.59C195.88,-216.08 185.15,-205.35 176.1,-196.3"/>
<polygon fill="#63b8ff" stroke="#63b8ff" points="178.71,-193.96 169.16,-189.37 173.76,-198.91 178.71,-193.96"/>
</a>
</g>
</g>
<!-- Node20&#45;&gt;Node5 -->
<g id="edge46_Node000020_Node000005" class="edge">
<title>Node20&#45;&gt;Node5</title>
<g id="a_edge46_Node000020_Node000005"><a xlink:title=" ">
<path fill="none" stroke="#63b8ff" d="M116.81,-279.5C108.35,-257.66 91.18,-203.07 114.79,-168 151.77,-113.1 188.79,-128.89 252.79,-112 309.07,-97.15 476.71,-79 554.85,-71.05"/>
<polygon fill="#63b8ff" stroke="#63b8ff" points="555.05,-74.55 564.65,-70.06 554.35,-67.58 555.05,-74.55"/>
</a>
</g>
</g>
<!-- Node20&#45;&gt;Node10 -->
<g id="edge47_Node000020_Node000010" class="edge">
<title>Node20&#45;&gt;Node10</title>
<g id="a_edge47_Node000020_Node000010"><a xlink:title=" ">
<path fill="none" stroke="#63b8ff" d="M88.33,-284.8C63.56,-279.71 31.01,-268.51 14.79,-244 -3.85,-215.83 -5.7,-194.85 14.79,-168 63.79,-103.82 318.13,-77.64 417.22,-69.77"/>
<polygon fill="#63b8ff" stroke="#63b8ff" points="417.3,-73.28 427,-69.02 416.76,-66.3 417.3,-73.28"/>
</a>
</g>
</g>
<!-- Node20&#45;&gt;Node18 -->
<g id="edge45_Node000020_Node000018" class="edge">
<title>Node20&#45;&gt;Node18</title>
<g id="a_edge45_Node000020_Node000018"><a xlink:title=" ">
<path fill="none" stroke="#63b8ff" d="M136.82,-279.59C150.59,-271.51 170.7,-259.71 186.77,-250.27"/>
<polygon fill="#63b8ff" stroke="#63b8ff" points="188.49,-253.33 195.34,-245.25 184.94,-247.29 188.49,-253.33"/>
</a>
</g>
</g>
<!-- Node21&#45;&gt;Node2 -->
<g id="edge49_Node000021_Node000002" class="edge">
<title>Node21&#45;&gt;Node2</title>
<g id="a_edge49_Node000021_Node000002"><a xlink:title=" ">
<path fill="none" stroke="#63b8ff" d="M774.4,-279.59C746.82,-270.46 704.87,-256.56 675.14,-246.71"/>
<polygon fill="#63b8ff" stroke="#63b8ff" points="676.43,-243.45 665.84,-243.63 674.23,-250.1 676.43,-243.45"/>
</a>
</g>
</g>
<!-- Node21&#45;&gt;Node5 -->
<g id="edge52_Node000021_Node000005" class="edge">
<title>Node21&#45;&gt;Node5</title>
<g id="a_edge52_Node000021_Node000005"><a xlink:title=" ">
<path fill="none" stroke="#63b8ff" d="M840.46,-285.99C871.66,-281.58 915.19,-270.73 942.79,-244 967.88,-219.7 973.25,-201.32 962.79,-168 953.71,-139.06 949.66,-127.84 923.79,-112 899.73,-97.27 719.64,-78.66 637.01,-70.79"/>
<polygon fill="#63b8ff" stroke="#63b8ff" points="637.35,-67.31 627.06,-69.85 636.69,-74.28 637.35,-67.31"/>
</a>
</g>
</g>
<!-- Node21&#45;&gt;Node9 -->
<g id="edge53_Node000021_Node000009" class="edge">
<title>Node21&#45;&gt;Node9</title>
<g id="a_edge53_Node000021_Node000009"><a xlink:title=" ">
<path fill="none" stroke="#63b8ff" d="M765.07,-284.41C724.67,-278.58 659.28,-266.45 606.79,-244 565.2,-226.21 556.86,-216.59 521.79,-188 503.9,-173.42 485.48,-154.56 472.84,-140.92"/>
<polygon fill="#63b8ff" stroke="#63b8ff" points="475.43,-138.57 466.11,-133.54 470.26,-143.29 475.43,-138.57"/>
</a>
</g>
</g>
<!-- Node21&#45;&gt;Node12 -->
<g id="edge50_Node000021_Node000012" class="edge">
<title>Node21&#45;&gt;Node12</title>
<g id="a_edge50_Node000021_Node000012"><a xlink:title=" ">
<path fill="none" stroke="#63b8ff" d="M809.78,-279.62C823.34,-261.44 853.41,-221.09 871.09,-197.38"/>
<polygon fill="#63b8ff" stroke="#63b8ff" points="873.74,-199.68 876.92,-189.57 868.13,-195.49 873.74,-199.68"/>
</a>
</g>
</g>
<!-- Node21&#45;&gt;Node13 -->
<g id="edge55_Node000021_Node000013" class="edge">
<title>Node21&#45;&gt;Node13</title>
<g id="a_edge55_Node000021_Node000013"><a xlink:title=" ">
<path fill="none" stroke="#63b8ff" d="M840.47,-282.2C865.57,-275.98 897.85,-264.51 919.79,-244 945.87,-219.62 960.48,-200.54 945.79,-168 940.49,-156.25 930.44,-146.35 920.66,-138.84"/>
<polygon fill="#63b8ff" stroke="#63b8ff" points="922.95,-136.17 912.76,-133.28 918.92,-141.9 922.95,-136.17"/>
</a>
</g>
</g>
<!-- Node21&#45;&gt;Node14 -->
<g id="edge51_Node000021_Node000014" class="edge">
<title>Node21&#45;&gt;Node14</title>
<g id="a_edge51_Node000021_Node000014"><a xlink:title=" ">
<path fill="none" stroke="#63b8ff" d="M827.04,-279.57C872.49,-260.49 962.86,-215.13 927.79,-168 915.9,-152.02 868.48,-139.59 830.09,-131.88"/>
<polygon fill="#63b8ff" stroke="#63b8ff" points="831,-128.49 820.52,-130.03 829.67,-135.36 831,-128.49"/>
</a>
</g>
</g>
<!-- Node21&#45;&gt;Node16 -->
<g id="edge54_Node000021_Node000016" class="edge">
<title>Node21&#45;&gt;Node16</title>
<g id="a_edge54_Node000021_Node000016"><a xlink:title=" ">
<path fill="none" stroke="#63b8ff" d="M788.9,-279.62C760.87,-260.71 697.31,-217.82 662.92,-194.61"/>
<polygon fill="#63b8ff" stroke="#63b8ff" points="665.16,-191.89 654.91,-189.2 661.24,-197.7 665.16,-191.89"/>
</a>
</g>
</g>
</g>
</svg>
