<?xml version="1.0" encoding="UTF-8" standalone="no"?>
<!DOCTYPE svg PUBLIC "-//W3C//DTD SVG 1.1//EN"
 "http://www.w3.org/Graphics/SVG/1.1/DTD/svg11.dtd">
<!-- Generated by graphviz version 2.43.0 (0)
 -->
<!-- Title: api.hpp Pages: 1 -->
<svg width="177pt" height="252pt"
 viewBox="0.00 0.00 176.50 252.00" xmlns="http://www.w3.org/2000/svg" xmlns:xlink="http://www.w3.org/1999/xlink">
<g id="graph0" class="graph" transform="scale(1 1) rotate(0) translate(4 248)">
<title>api.hpp</title>
<!-- Node1 -->
<g id="node1" class="node">
<title>Node1</title>
<g id="a_node1"><a xlink:title=" ">
<polygon fill="#bfbfbf" stroke="black" points="41.5,-224.5 41.5,-243.5 94.5,-243.5 94.5,-224.5 41.5,-224.5"/>
<text text-anchor="middle" x="68" y="-231.5" font-family="Helvetica,sans-Serif" font-size="10.00">api.hpp</text>
</a>
</g>
</g>
<!-- Node2 -->
<g id="node2" class="node">
<title>Node2</title>
<g id="a_node2"><a xlink:href="cmd__line_8hpp.html" target="_top" xlink:title=" ">
<polygon fill="none" stroke="black" points="0,-56.5 0,-75.5 82,-75.5 82,-56.5 0,-56.5"/>
<text text-anchor="middle" x="41" y="-63.5" font-family="Helvetica,sans-Serif" font-size="10.00">cmd_line.hpp</text>
</a>
</g>
</g>
<!-- Node1&#45;&gt;Node2 -->
<g id="edge1" class="edge">
<title>Node1&#45;&gt;Node2</title>
<path fill="none" stroke="midnightblue" d="M43.63,-218.73C33.05,-211.09 21.78,-200.64 16,-188 -2.01,-148.59 23.97,-96.04 35.73,-75.62"/>
<polygon fill="midnightblue" stroke="midnightblue" points="41.96,-221.82 52.22,-224.47 45.85,-216 41.96,-221.82"/>
</g>
<!-- Node5 -->
<g id="node5" class="node">
<title>Node5</title>
<g id="a_node5"><a xlink:href="command_8hpp.html" target="_top" xlink:title=" ">
<polygon fill="none" stroke="black" points="25,-168.5 25,-187.5 111,-187.5 111,-168.5 25,-168.5"/>
<text text-anchor="middle" x="68" y="-175.5" font-family="Helvetica,sans-Serif" font-size="10.00">command.hpp</text>
</a>
</g>
</g>
<!-- Node1&#45;&gt;Node5 -->
<g id="edge5" class="edge">
<title>Node1&#45;&gt;Node5</title>
<path fill="none" stroke="midnightblue" d="M61.53,-214.1C60.9,-205.14 61.34,-194.86 62.87,-187.75"/>
<polygon fill="midnightblue" stroke="midnightblue" points="58.07,-214.62 62.83,-224.08 65.01,-213.71 58.07,-214.62"/>
</g>
<!-- Node3 -->
<g id="node3" class="node">
<title>Node3</title>
<g id="a_node3"><a xlink:href="all_8hpp.html" target="_top" xlink:title=" ">
<polygon fill="none" stroke="black" points="5,-0.5 5,-19.5 55,-19.5 55,-0.5 5,-0.5"/>
<text text-anchor="middle" x="30" y="-7.5" font-family="Helvetica,sans-Serif" font-size="10.00">all.hpp</text>
</a>
</g>
</g>
<!-- Node2&#45;&gt;Node3 -->
<g id="edge2" class="edge">
<title>Node2&#45;&gt;Node3</title>
<path fill="none" stroke="midnightblue" d="M37.15,-46.1C35.32,-37.14 33.23,-26.86 31.78,-19.75"/>
<polygon fill="midnightblue" stroke="midnightblue" points="33.76,-46.98 39.18,-56.08 40.62,-45.59 33.76,-46.98"/>
</g>
<!-- Node4 -->
<g id="node4" class="node">
<title>Node4</title>
<g id="a_node4"><a xlink:href="help__printer_8hpp.html" target="_top" xlink:title=" ">
<polygon fill="none" stroke="black" points="73.5,-0.5 73.5,-19.5 168.5,-19.5 168.5,-0.5 73.5,-0.5"/>
<text text-anchor="middle" x="121" y="-7.5" font-family="Helvetica,sans-Serif" font-size="10.00">help_printer.hpp</text>
</a>
</g>
</g>
<!-- Node2&#45;&gt;Node4 -->
<g id="edge3" class="edge">
<title>Node2&#45;&gt;Node4</title>
<path fill="none" stroke="midnightblue" d="M57.02,-50.06C70.41,-40.28 89.17,-27.83 103.07,-19.65"/>
<polygon fill="midnightblue" stroke="midnightblue" points="54.6,-47.5 48.74,-56.32 58.83,-53.08 54.6,-47.5"/>
</g>
<!-- Node4&#45;&gt;Node2 -->
<g id="edge4" class="edge">
<title>Node4&#45;&gt;Node2</title>
<path fill="none" stroke="midnightblue" d="M104.78,-26.09C91.42,-35.84 72.79,-48.18 58.97,-56.32"/>
<polygon fill="midnightblue" stroke="midnightblue" points="107.19,-28.65 113.06,-19.83 102.97,-23.07 107.19,-28.65"/>
</g>
<!-- Node5&#45;&gt;Node1 -->
<g id="edge6" class="edge">
<title>Node5&#45;&gt;Node1</title>
<path fill="none" stroke="midnightblue" d="M74.46,-197.69C75.11,-206.64 74.68,-216.93 73.17,-224.08"/>
<polygon fill="midnightblue" stroke="midnightblue" points="77.92,-197.2 73.13,-187.75 70.98,-198.13 77.92,-197.2"/>
</g>
<!-- Node5&#45;&gt;Node2 -->
<g id="edge7" class="edge">
<title>Node5&#45;&gt;Node2</title>
<path fill="none" stroke="midnightblue" d="M55.34,-159.88C50.15,-151.85 44.73,-141.88 42,-132 36.59,-112.42 38.29,-88.24 39.78,-75.61"/>
<polygon fill="midnightblue" stroke="midnightblue" points="52.6,-162.06 61.16,-168.31 58.36,-158.09 52.6,-162.06"/>
</g>
<!-- Node5&#45;&gt;Node4 -->
<g id="edge10" class="edge">
<title>Node5&#45;&gt;Node4</title>
<path fill="none" stroke="midnightblue" d="M92.54,-162.55C103.04,-154.92 114.21,-144.53 120,-132 137.8,-93.48 128.13,-40.41 123.26,-19.74"/>
<polygon fill="midnightblue" stroke="midnightblue" points="90.34,-159.81 84,-168.29 94.25,-165.62 90.34,-159.81"/>
</g>
<!-- Node6 -->
<g id="node6" class="node">
<title>Node6</title>
<g id="a_node6"><a xlink:href="help_8hpp.html" target="_top" xlink:title=" ">
<polygon fill="none" stroke="black" points="51.5,-112.5 51.5,-131.5 110.5,-131.5 110.5,-112.5 51.5,-112.5"/>
<text text-anchor="middle" x="81" y="-119.5" font-family="Helvetica,sans-Serif" font-size="10.00">help.hpp</text>
</a>
</g>
</g>
<!-- Node5&#45;&gt;Node6 -->
<g id="edge8" class="edge">
<title>Node5&#45;&gt;Node6</title>
<path fill="none" stroke="midnightblue" d="M72.55,-158.1C74.71,-149.14 77.18,-138.86 78.89,-131.75"/>
<polygon fill="midnightblue" stroke="midnightblue" points="69.08,-157.54 70.15,-168.08 75.89,-159.18 69.08,-157.54"/>
</g>
<!-- Node6&#45;&gt;Node2 -->
<g id="edge9" class="edge">
<title>Node6&#45;&gt;Node2</title>
<path fill="none" stroke="midnightblue" d="M68.3,-103.86C61.37,-94.5 53.09,-83.33 47.48,-75.75"/>
<polygon fill="midnightblue" stroke="midnightblue" points="65.63,-106.13 74.39,-112.08 71.25,-101.96 65.63,-106.13"/>
</g>
</g>
</svg>
