<?xml version="1.0" encoding="UTF-8" standalone="no"?>
<!DOCTYPE svg PUBLIC "-//W3C//DTD SVG 1.1//EN"
 "http://www.w3.org/Graphics/SVG/1.1/DTD/svg11.dtd">
<!-- Generated by graphviz version 2.38.0 (20140413.2041)
 -->
<!-- Title: api.hpp Pages: 1 -->
<!--zoomable 532 -->
<svg id="main" version="1.1" xmlns="http://www.w3.org/2000/svg" xmlns:xlink="http://www.w3.org/1999/xlink" xml:space="preserve" onload="init(evt)">
<style type="text/css"><![CDATA[
.edge:hover path { stroke: red; }
.edge:hover polygon { stroke: red; fill: red; }
]]></style>
<script type="text/javascript"><![CDATA[
var edges = document.getElementsByTagName('g');
if (edges && edges.length) {
  for (var i=0;i<edges.length;i++) {
    if (edges[i].id.substr(0,4)=='edge') {
      edges[i].setAttribute('class','edge');
    }
  }
}
]]></script>
        <defs>
                <circle id="rim" cx="0" cy="0" r="7"/>
                <circle id="rim2" cx="0" cy="0" r="3.5"/>
                <g id="zoomPlus">
                        <use xlink:href="#rim" fill="#404040">
                                <set attributeName="fill" to="#808080" begin="zoomplus.mouseover" end="zoomplus.mouseout"/>
                        </use>
                        <path d="M-4,0h8M0,-4v8" fill="none" stroke="white" stroke-width="1.5" pointer-events="none"/>
                </g>
                <g id="zoomMin">
                        <use xlink:href="#rim" fill="#404040">
                                <set attributeName="fill" to="#808080" begin="zoomminus.mouseover" end="zoomminus.mouseout"/>
                        </use>
                        <path d="M-4,0h8" fill="none" stroke="white" stroke-width="1.5" pointer-events="none"/>
                </g>
                <g id="dirArrow">
                        <path fill="none" stroke="white" stroke-width="1.5" d="M0,-3.0v7 M-2.5,-0.5L0,-3.0L2.5,-0.5"/>
                </g>
               <g id="resetDef">
                       <use xlink:href="#rim2" fill="#404040">
                               <set attributeName="fill" to="#808080" begin="reset.mouseover" end="reset.mouseout"/>
                       </use>
               </g>
        </defs>

<script type="text/javascript">
var viewWidth = 1764;
var viewHeight = 532;
var sectionId = 'dynsection-0';
</script>
<script xlink:href="svgpan.js"/>
<svg id="graph" class="graph">
<g id="viewport">
<title>api.hpp</title>
<!-- Node1 -->
<g id="node1" class="node"><title>Node1</title>
<polygon fill="#bfbfbf" stroke="black" points="451,-504.5 451,-523.5 499,-523.5 499,-504.5 451,-504.5"/>
<text text-anchor="middle" x="475" y="-511.5" font-family="Helvetica,sans-Serif" font-size="10.00">api.hpp</text>
</g>
<!-- Node2 -->
<g id="node2" class="node"><title>Node2</title>
<g id="a_node2"><a xlink:href="types_8hpp.html" target="_top" xlink:title="types.hpp">
<polygon fill="none" stroke="black" points="577.5,-56.5 577.5,-75.5 636.5,-75.5 636.5,-56.5 577.5,-56.5"/>
<text text-anchor="middle" x="607" y="-63.5" font-family="Helvetica,sans-Serif" font-size="10.00">types.hpp</text>
</a>
</g>
</g>
<!-- Node1&#45;&gt;Node2 -->
<g id="edge1" class="edge"><title>Node1&#45;&gt;Node2</title>
<path fill="none" stroke="midnightblue" d="M450.792,-512.639C353.996,-510.554 0,-496.536 0,-403 0,-403 0,-403 0,-177 0,-136.145 27.9346,-129.184 65,-112 154.223,-70.6349 457.124,-66.7927 566.874,-66.7967"/>
<polygon fill="midnightblue" stroke="midnightblue" points="567.176,-70.2969 577.18,-66.8086 567.184,-63.2969 567.176,-70.2969"/>
</g>
<!-- Node6 -->
<g id="node6" class="node"><title>Node6</title>
<g id="a_node6"><a xlink:href="arg_8hpp.html" target="_top" xlink:title="arg.hpp">
<polygon fill="none" stroke="black" points="544.5,-224.5 544.5,-243.5 593.5,-243.5 593.5,-224.5 544.5,-224.5"/>
<text text-anchor="middle" x="569" y="-231.5" font-family="Helvetica,sans-Serif" font-size="10.00">arg.hpp</text>
</a>
</g>
</g>
<!-- Node1&#45;&gt;Node6 -->
<g id="edge5" class="edge"><title>Node1&#45;&gt;Node6</title>
<path fill="none" stroke="midnightblue" d="M467.406,-504.281C452.751,-486.523 422,-444.337 422,-403 422,-403 422,-403 422,-345 422,-288.962 491.327,-258.014 534.762,-244.123"/>
<polygon fill="midnightblue" stroke="midnightblue" points="535.852,-247.45 544.396,-241.184 533.809,-240.755 535.852,-247.45"/>
</g>
<!-- Node18 -->
<g id="node18" class="node"><title>Node18</title>
<g id="a_node18"><a xlink:href="multi__arg_8hpp.html" target="_top" xlink:title="multi_arg.hpp">
<polygon fill="none" stroke="black" points="558.5,-280.5 558.5,-299.5 633.5,-299.5 633.5,-280.5 558.5,-280.5"/>
<text text-anchor="middle" x="596" y="-287.5" font-family="Helvetica,sans-Serif" font-size="10.00">multi_arg.hpp</text>
</a>
</g>
</g>
<!-- Node1&#45;&gt;Node18 -->
<g id="edge29" class="edge"><title>Node1&#45;&gt;Node18</title>
<path fill="none" stroke="midnightblue" d="M479.743,-504.297C497.698,-471.356 561.718,-353.898 586.295,-308.805"/>
<polygon fill="midnightblue" stroke="midnightblue" points="589.445,-310.339 591.158,-299.884 583.299,-306.989 589.445,-310.339"/>
</g>
<!-- Node19 -->
<g id="node19" class="node"><title>Node19</title>
<g id="a_node19"><a xlink:href="groups_8hpp.html" target="_top" xlink:title="groups.hpp">
<polygon fill="none" stroke="black" points="1472.5,-280.5 1472.5,-299.5 1537.5,-299.5 1537.5,-280.5 1472.5,-280.5"/>
<text text-anchor="middle" x="1505" y="-287.5" font-family="Helvetica,sans-Serif" font-size="10.00">groups.hpp</text>
</a>
</g>
</g>
<!-- Node1&#45;&gt;Node19 -->
<g id="edge37" class="edge"><title>Node1&#45;&gt;Node19</title>
<path fill="none" stroke="midnightblue" d="M499.185,-509.172C547.462,-501.512 659.207,-483.684 753,-468 1041.7,-419.724 1128.78,-461.007 1402,-356 1434.01,-343.699 1466.79,-320.9 1486.53,-305.839"/>
<polygon fill="midnightblue" stroke="midnightblue" points="1488.89,-308.436 1494.63,-299.529 1484.59,-302.914 1488.89,-308.436"/>
</g>
<!-- Node22 -->
<g id="node22" class="node"><title>Node22</title>
<g id="a_node22"><a xlink:href="arg__as__command_8hpp.html" target="_top" xlink:title="arg_as_command.hpp">
<polygon fill="none" stroke="black" points="280.5,-448.5 280.5,-467.5 393.5,-467.5 393.5,-448.5 280.5,-448.5"/>
<text text-anchor="middle" x="337" y="-455.5" font-family="Helvetica,sans-Serif" font-size="10.00">arg_as_command.hpp</text>
</a>
</g>
</g>
<!-- Node1&#45;&gt;Node22 -->
<g id="edge50" class="edge"><title>Node1&#45;&gt;Node22</title>
<path fill="none" stroke="midnightblue" d="M453.133,-504.444C430.221,-495.478 394.025,-481.314 368.134,-471.183"/>
<polygon fill="midnightblue" stroke="midnightblue" points="369.352,-467.901 358.764,-467.516 366.801,-474.42 369.352,-467.901"/>
</g>
<!-- Node3 -->
<g id="node3" class="node"><title>Node3</title>
<polygon fill="none" stroke="#bfbfbf" points="553.5,-0.5 553.5,-19.5 594.5,-19.5 594.5,-0.5 553.5,-0.5"/>
<text text-anchor="middle" x="574" y="-7.5" font-family="Helvetica,sans-Serif" font-size="10.00">string</text>
</g>
<!-- Node2&#45;&gt;Node3 -->
<g id="edge2" class="edge"><title>Node2&#45;&gt;Node3</title>
<path fill="none" stroke="midnightblue" d="M601.551,-56.083C596.986,-48.6127 590.332,-37.7244 584.707,-28.5199"/>
<polygon fill="midnightblue" stroke="midnightblue" points="587.549,-26.4588 579.348,-19.7511 581.576,-30.109 587.549,-26.4588"/>
</g>
<!-- Node4 -->
<g id="node4" class="node"><title>Node4</title>
<polygon fill="none" stroke="#bfbfbf" points="613,-0.5 613,-19.5 667,-19.5 667,-0.5 613,-0.5"/>
<text text-anchor="middle" x="640" y="-7.5" font-family="Helvetica,sans-Serif" font-size="10.00">iostream</text>
</g>
<!-- Node2&#45;&gt;Node4 -->
<g id="edge3" class="edge"><title>Node2&#45;&gt;Node4</title>
<path fill="none" stroke="midnightblue" d="M612.449,-56.083C617.014,-48.6127 623.668,-37.7244 629.293,-28.5199"/>
<polygon fill="midnightblue" stroke="midnightblue" points="632.424,-30.109 634.652,-19.7511 626.451,-26.4588 632.424,-30.109"/>
</g>
<!-- Node5 -->
<g id="node5" class="node"><title>Node5</title>
<polygon fill="none" stroke="#bfbfbf" points="1563,-0.5 1563,-19.5 1607,-19.5 1607,-0.5 1563,-0.5"/>
<text text-anchor="middle" x="1585" y="-7.5" font-family="Helvetica,sans-Serif" font-size="10.00">vector</text>
</g>
<!-- Node2&#45;&gt;Node5 -->
<g id="edge4" class="edge"><title>Node2&#45;&gt;Node5</title>
<path fill="none" stroke="midnightblue" d="M636.536,-63.3692C779.839,-55.4567 1401.91,-21.1094 1552.22,-12.8101"/>
<polygon fill="midnightblue" stroke="midnightblue" points="1552.81,-16.2829 1562.6,-12.2368 1552.42,-9.2935 1552.81,-16.2829"/>
</g>
<!-- Node6&#45;&gt;Node2 -->
<g id="edge27" class="edge"><title>Node6&#45;&gt;Node2</title>
<path fill="none" stroke="midnightblue" d="M563.552,-224.194C556.521,-211.721 545.78,-188.179 551,-168 559.328,-135.805 580.371,-102.932 594.158,-83.7736"/>
<polygon fill="midnightblue" stroke="midnightblue" points="597.121,-85.6537 600.255,-75.5333 591.494,-81.4899 597.121,-85.6537"/>
</g>
<!-- Node7 -->
<g id="node7" class="node"><title>Node7</title>
<g id="a_node7"><a xlink:href="arg__iface_8hpp.html" target="_top" xlink:title="arg_iface.hpp">
<polygon fill="none" stroke="black" points="560.5,-168.5 560.5,-187.5 635.5,-187.5 635.5,-168.5 560.5,-168.5"/>
<text text-anchor="middle" x="598" y="-175.5" font-family="Helvetica,sans-Serif" font-size="10.00">arg_iface.hpp</text>
</a>
</g>
</g>
<!-- Node6&#45;&gt;Node7 -->
<g id="edge6" class="edge"><title>Node6&#45;&gt;Node7</title>
<path fill="none" stroke="midnightblue" d="M573.789,-224.083C577.758,-216.691 583.525,-205.953 588.435,-196.811"/>
<polygon fill="midnightblue" stroke="midnightblue" points="591.653,-198.217 593.3,-187.751 585.486,-194.905 591.653,-198.217"/>
</g>
<!-- Node8 -->
<g id="node8" class="node"><title>Node8</title>
<g id="a_node8"><a xlink:href="utils_8hpp.html" target="_top" xlink:title="utils.hpp">
<polygon fill="none" stroke="black" points="1030.5,-112.5 1030.5,-131.5 1083.5,-131.5 1083.5,-112.5 1030.5,-112.5"/>
<text text-anchor="middle" x="1057" y="-119.5" font-family="Helvetica,sans-Serif" font-size="10.00">utils.hpp</text>
</a>
</g>
</g>
<!-- Node6&#45;&gt;Node8 -->
<g id="edge14" class="edge"><title>Node6&#45;&gt;Node8</title>
<path fill="none" stroke="midnightblue" d="M593.789,-226.72C627.873,-218.072 691.118,-201.978 745,-188 778.809,-179.229 786.936,-175.72 821,-168 891.153,-152.101 973.889,-137.201 1020.42,-129.17"/>
<polygon fill="midnightblue" stroke="midnightblue" points="1021.07,-132.609 1030.33,-127.468 1019.88,-125.71 1021.07,-132.609"/>
</g>
<!-- Node10 -->
<g id="node10" class="node"><title>Node10</title>
<polygon fill="none" stroke="#bfbfbf" points="1500,-56.5 1500,-75.5 1556,-75.5 1556,-56.5 1500,-56.5"/>
<text text-anchor="middle" x="1528" y="-63.5" font-family="Helvetica,sans-Serif" font-size="10.00">algorithm</text>
</g>
<!-- Node6&#45;&gt;Node10 -->
<g id="edge28" class="edge"><title>Node6&#45;&gt;Node10</title>
<path fill="none" stroke="midnightblue" d="M593.537,-232.895C672.163,-232.162 924.644,-226.733 1129,-188 1269.03,-161.459 1429.68,-104.169 1496.41,-79.1281"/>
<polygon fill="midnightblue" stroke="midnightblue" points="1497.8,-82.3415 1505.92,-75.5352 1495.33,-75.7926 1497.8,-82.3415"/>
</g>
<!-- Node13 -->
<g id="node13" class="node"><title>Node13</title>
<g id="a_node13"><a xlink:href="context_8hpp.html" target="_top" xlink:title="context.hpp">
<polygon fill="none" stroke="black" points="830,-168.5 830,-187.5 898,-187.5 898,-168.5 830,-168.5"/>
<text text-anchor="middle" x="864" y="-175.5" font-family="Helvetica,sans-Serif" font-size="10.00">context.hpp</text>
</a>
</g>
</g>
<!-- Node6&#45;&gt;Node13 -->
<g id="edge15" class="edge"><title>Node6&#45;&gt;Node13</title>
<path fill="none" stroke="midnightblue" d="M593.548,-228.571C637.951,-220.55 734.563,-203.053 816,-188 817.266,-187.766 818.551,-187.528 819.848,-187.287"/>
<polygon fill="midnightblue" stroke="midnightblue" points="820.725,-190.684 829.916,-185.413 819.444,-183.803 820.725,-190.684"/>
</g>
<!-- Node15 -->
<g id="node15" class="node"><title>Node15</title>
<g id="a_node15"><a xlink:href="exceptions_8hpp.html" target="_top" xlink:title="exceptions.hpp">
<polygon fill="none" stroke="black" points="186.5,-112.5 186.5,-131.5 269.5,-131.5 269.5,-112.5 186.5,-112.5"/>
<text text-anchor="middle" x="228" y="-119.5" font-family="Helvetica,sans-Serif" font-size="10.00">exceptions.hpp</text>
</a>
</g>
</g>
<!-- Node6&#45;&gt;Node15 -->
<g id="edge19" class="edge"><title>Node6&#45;&gt;Node15</title>
<path fill="none" stroke="midnightblue" d="M544.46,-229.369C505.806,-223.249 428.685,-209.413 366,-188 324.708,-173.895 279.403,-151.021 252.356,-136.508"/>
<polygon fill="midnightblue" stroke="midnightblue" points="253.717,-133.265 243.258,-131.571 250.378,-139.417 253.717,-133.265"/>
</g>
<!-- Node17 -->
<g id="node17" class="node"><title>Node17</title>
<g id="a_node17"><a xlink:href="value__utils_8hpp.html" target="_top" xlink:title="value_utils.hpp">
<polygon fill="none" stroke="black" points="654,-168.5 654,-187.5 736,-187.5 736,-168.5 654,-168.5"/>
<text text-anchor="middle" x="695" y="-175.5" font-family="Helvetica,sans-Serif" font-size="10.00">value_utils.hpp</text>
</a>
</g>
</g>
<!-- Node6&#45;&gt;Node17 -->
<g id="edge22" class="edge"><title>Node6&#45;&gt;Node17</title>
<path fill="none" stroke="midnightblue" d="M588.965,-224.444C609.609,-215.596 642.063,-201.687 665.632,-191.586"/>
<polygon fill="midnightblue" stroke="midnightblue" points="667.316,-194.673 675.128,-187.516 664.558,-188.239 667.316,-194.673"/>
</g>
<!-- Node7&#45;&gt;Node2 -->
<g id="edge12" class="edge"><title>Node7&#45;&gt;Node2</title>
<path fill="none" stroke="midnightblue" d="M598.706,-168.368C600.159,-150.617 603.509,-109.666 605.478,-85.5974"/>
<polygon fill="midnightblue" stroke="midnightblue" points="608.97,-85.8436 606.297,-75.5914 601.993,-85.2727 608.97,-85.8436"/>
</g>
<!-- Node7&#45;&gt;Node8 -->
<g id="edge7" class="edge"><title>Node7&#45;&gt;Node8</title>
<path fill="none" stroke="midnightblue" d="M635.664,-169.511C638.817,-168.969 641.96,-168.456 645,-168 782.732,-147.325 947.723,-132.189 1020.01,-126.035"/>
<polygon fill="midnightblue" stroke="midnightblue" points="1020.72,-129.488 1030.39,-125.159 1020.14,-122.512 1020.72,-129.488"/>
</g>
<!-- Node12 -->
<g id="node12" class="node"><title>Node12</title>
<g id="a_node12"><a xlink:href="enums_8hpp.html" target="_top" xlink:title="enums.hpp">
<polygon fill="none" stroke="black" points="475.5,-112.5 475.5,-131.5 540.5,-131.5 540.5,-112.5 475.5,-112.5"/>
<text text-anchor="middle" x="508" y="-119.5" font-family="Helvetica,sans-Serif" font-size="10.00">enums.hpp</text>
</a>
</g>
</g>
<!-- Node7&#45;&gt;Node12 -->
<g id="edge13" class="edge"><title>Node7&#45;&gt;Node12</title>
<path fill="none" stroke="midnightblue" d="M583.54,-168.324C569.5,-159.9 547.952,-146.971 531.457,-137.074"/>
<polygon fill="midnightblue" stroke="midnightblue" points="532.8,-133.798 522.424,-131.655 529.198,-139.801 532.8,-133.798"/>
</g>
<!-- Node8&#45;&gt;Node2 -->
<g id="edge9" class="edge"><title>Node8&#45;&gt;Node2</title>
<path fill="none" stroke="midnightblue" d="M1030.17,-114.682C1025.47,-113.697 1020.6,-112.756 1016,-112 881.46,-89.8965 720.189,-75.7383 646.831,-69.9644"/>
<polygon fill="midnightblue" stroke="midnightblue" points="646.901,-66.4594 636.659,-69.1734 646.358,-73.4383 646.901,-66.4594"/>
</g>
<!-- Node9 -->
<g id="node9" class="node"><title>Node9</title>
<polygon fill="none" stroke="#bfbfbf" points="1036.5,-56.5 1036.5,-75.5 1077.5,-75.5 1077.5,-56.5 1036.5,-56.5"/>
<text text-anchor="middle" x="1057" y="-63.5" font-family="Helvetica,sans-Serif" font-size="10.00">regex</text>
</g>
<!-- Node8&#45;&gt;Node9 -->
<g id="edge8" class="edge"><title>Node8&#45;&gt;Node9</title>
<path fill="none" stroke="midnightblue" d="M1057,-112.083C1057,-105.006 1057,-94.8611 1057,-85.9865"/>
<polygon fill="midnightblue" stroke="midnightblue" points="1060.5,-85.751 1057,-75.7511 1053.5,-85.7511 1060.5,-85.751"/>
</g>
<!-- Node8&#45;&gt;Node10 -->
<g id="edge10" class="edge"><title>Node8&#45;&gt;Node10</title>
<path fill="none" stroke="midnightblue" d="M1083.67,-117.942C1162.94,-108.855 1397.28,-81.9873 1489.8,-71.3793"/>
<polygon fill="midnightblue" stroke="midnightblue" points="1490.32,-74.8435 1499.85,-70.2272 1489.52,-67.8891 1490.32,-74.8435"/>
</g>
<!-- Node11 -->
<g id="node11" class="node"><title>Node11</title>
<polygon fill="none" stroke="#bfbfbf" points="1229,-56.5 1229,-75.5 1291,-75.5 1291,-56.5 1229,-56.5"/>
<text text-anchor="middle" x="1260" y="-63.5" font-family="Helvetica,sans-Serif" font-size="10.00">type_traits</text>
</g>
<!-- Node8&#45;&gt;Node11 -->
<g id="edge11" class="edge"><title>Node8&#45;&gt;Node11</title>
<path fill="none" stroke="midnightblue" d="M1083.54,-113.94C1118.02,-104.769 1178.57,-88.6615 1218.98,-77.911"/>
<polygon fill="midnightblue" stroke="midnightblue" points="1220.03,-81.2539 1228.8,-75.3007 1218.23,-74.4891 1220.03,-81.2539"/>
</g>
<!-- Node13&#45;&gt;Node2 -->
<g id="edge18" class="edge"><title>Node13&#45;&gt;Node2</title>
<path fill="none" stroke="midnightblue" d="M864.148,-168.373C863.888,-154.347 861.198,-126.691 845,-112 816.497,-86.1493 707.113,-74.2614 647.057,-69.584"/>
<polygon fill="midnightblue" stroke="midnightblue" points="647.034,-66.0726 636.801,-68.818 646.513,-73.0532 647.034,-66.0726"/>
</g>
<!-- Node13&#45;&gt;Node8 -->
<g id="edge17" class="edge"><title>Node13&#45;&gt;Node8</title>
<path fill="none" stroke="midnightblue" d="M894.581,-168.444C928.78,-158.875 984.137,-143.386 1020.55,-133.197"/>
<polygon fill="midnightblue" stroke="midnightblue" points="1021.6,-136.538 1030.29,-130.473 1019.72,-129.797 1021.6,-136.538"/>
</g>
<!-- Node14 -->
<g id="node14" class="node"><title>Node14</title>
<polygon fill="none" stroke="#bfbfbf" points="796,-112.5 796,-131.5 836,-131.5 836,-112.5 796,-112.5"/>
<text text-anchor="middle" x="816" y="-119.5" font-family="Helvetica,sans-Serif" font-size="10.00">utility</text>
</g>
<!-- Node13&#45;&gt;Node14 -->
<g id="edge16" class="edge"><title>Node13&#45;&gt;Node14</title>
<path fill="none" stroke="midnightblue" d="M856.074,-168.083C849.154,-160.298 838.935,-148.801 830.548,-139.367"/>
<polygon fill="midnightblue" stroke="midnightblue" points="833.038,-136.9 823.779,-131.751 827.806,-141.55 833.038,-136.9"/>
</g>
<!-- Node15&#45;&gt;Node2 -->
<g id="edge21" class="edge"><title>Node15&#45;&gt;Node2</title>
<path fill="none" stroke="midnightblue" d="M269.685,-114.931C276.475,-113.947 283.433,-112.943 290,-112 389.659,-97.6931 506.982,-81.1047 567.086,-72.6251"/>
<polygon fill="midnightblue" stroke="midnightblue" points="567.864,-76.0501 577.277,-71.1876 566.886,-69.1187 567.864,-76.0501"/>
</g>
<!-- Node16 -->
<g id="node16" class="node"><title>Node16</title>
<polygon fill="none" stroke="#bfbfbf" points="198.5,-56.5 198.5,-75.5 257.5,-75.5 257.5,-56.5 198.5,-56.5"/>
<text text-anchor="middle" x="228" y="-63.5" font-family="Helvetica,sans-Serif" font-size="10.00">stdexcept</text>
</g>
<!-- Node15&#45;&gt;Node16 -->
<g id="edge20" class="edge"><title>Node15&#45;&gt;Node16</title>
<path fill="none" stroke="midnightblue" d="M228,-112.083C228,-105.006 228,-94.8611 228,-85.9865"/>
<polygon fill="midnightblue" stroke="midnightblue" points="231.5,-85.751 228,-75.7511 224.5,-85.7511 231.5,-85.751"/>
</g>
<!-- Node17&#45;&gt;Node2 -->
<g id="edge25" class="edge"><title>Node17&#45;&gt;Node2</title>
<path fill="none" stroke="midnightblue" d="M688.095,-168.368C673.508,-150.135 639.341,-107.426 620.34,-83.6752"/>
<polygon fill="midnightblue" stroke="midnightblue" points="622.853,-81.2137 613.873,-75.5914 617.387,-85.5866 622.853,-81.2137"/>
</g>
<!-- Node17&#45;&gt;Node8 -->
<g id="edge23" class="edge"><title>Node17&#45;&gt;Node8</title>
<path fill="none" stroke="midnightblue" d="M736.174,-170.858C807.238,-160.257 951.829,-138.688 1019.94,-128.528"/>
<polygon fill="midnightblue" stroke="midnightblue" points="1020.82,-131.936 1030.19,-126.999 1019.78,-125.013 1020.82,-131.936"/>
</g>
<!-- Node17&#45;&gt;Node10 -->
<g id="edge26" class="edge"><title>Node17&#45;&gt;Node10</title>
<path fill="none" stroke="midnightblue" d="M703.683,-168.258C718.956,-153.529 752.312,-124.187 787,-112 820.401,-100.265 1342.47,-75.5182 1489.65,-68.7454"/>
<polygon fill="midnightblue" stroke="midnightblue" points="1490.15,-72.2261 1499.98,-68.2712 1489.83,-65.2334 1490.15,-72.2261"/>
</g>
<!-- Node17&#45;&gt;Node15 -->
<g id="edge24" class="edge"><title>Node17&#45;&gt;Node15</title>
<path fill="none" stroke="midnightblue" d="M653.842,-169.493C650.516,-168.961 647.205,-168.456 644,-168 513.395,-149.433 358.753,-134.564 279.896,-127.489"/>
<polygon fill="midnightblue" stroke="midnightblue" points="280.014,-123.986 269.742,-126.584 279.392,-130.958 280.014,-123.986"/>
</g>
<!-- Node18&#45;&gt;Node2 -->
<g id="edge35" class="edge"><title>Node18&#45;&gt;Node2</title>
<path fill="none" stroke="midnightblue" d="M558.19,-280.777C468.221,-259.578 254.248,-198.6 328,-112 358.258,-76.4706 497.611,-68.8961 567.212,-67.3492"/>
<polygon fill="midnightblue" stroke="midnightblue" points="567.424,-70.8459 577.356,-67.1556 567.291,-63.8472 567.424,-70.8459"/>
</g>
<!-- Node18&#45;&gt;Node6 -->
<g id="edge30" class="edge"><title>Node18&#45;&gt;Node6</title>
<path fill="none" stroke="midnightblue" d="M591.541,-280.083C587.846,-272.691 582.477,-261.953 577.906,-252.811"/>
<polygon fill="midnightblue" stroke="midnightblue" points="580.978,-251.13 573.376,-243.751 574.717,-254.261 580.978,-251.13"/>
</g>
<!-- Node18&#45;&gt;Node8 -->
<g id="edge34" class="edge"><title>Node18&#45;&gt;Node8</title>
<path fill="none" stroke="midnightblue" d="M625.301,-280.427C655.229,-271.592 702.991,-257.274 744,-244 816.878,-220.41 836.221,-217.292 907,-188 925.734,-180.247 929.51,-176.317 948,-168 973.906,-156.347 1003.75,-144.107 1025.65,-135.339"/>
<polygon fill="midnightblue" stroke="midnightblue" points="1027.12,-138.522 1035.11,-131.569 1024.53,-132.019 1027.12,-138.522"/>
</g>
<!-- Node18&#45;&gt;Node13 -->
<g id="edge31" class="edge"><title>Node18&#45;&gt;Node13</title>
<path fill="none" stroke="midnightblue" d="M617.03,-280.368C664.193,-261.01 778.57,-214.065 833.528,-191.507"/>
<polygon fill="midnightblue" stroke="midnightblue" points="835.146,-194.626 843.068,-187.591 832.488,-188.151 835.146,-194.626"/>
</g>
<!-- Node18&#45;&gt;Node14 -->
<g id="edge36" class="edge"><title>Node18&#45;&gt;Node14</title>
<path fill="none" stroke="midnightblue" d="M610.03,-280.452C637.016,-263.806 697.668,-225.384 745,-188 764.733,-172.414 785.798,-152.694 799.811,-139.085"/>
<polygon fill="midnightblue" stroke="midnightblue" points="802.495,-141.356 807.184,-131.855 797.594,-136.357 802.495,-141.356"/>
</g>
<!-- Node18&#45;&gt;Node15 -->
<g id="edge32" class="edge"><title>Node18&#45;&gt;Node15</title>
<path fill="none" stroke="midnightblue" d="M558.252,-287.913C479.886,-285.046 302.634,-275.207 252,-244 226.394,-228.219 222.834,-216.752 214,-188 209.185,-172.328 214.022,-154.038 219.283,-140.859"/>
<polygon fill="midnightblue" stroke="midnightblue" points="222.564,-142.094 223.417,-131.533 216.165,-139.257 222.564,-142.094"/>
</g>
<!-- Node18&#45;&gt;Node17 -->
<g id="edge33" class="edge"><title>Node18&#45;&gt;Node17</title>
<path fill="none" stroke="midnightblue" d="M602.026,-280.211C611,-267.353 628.686,-242.893 646,-224 655.536,-213.594 667.134,-202.869 676.651,-194.5"/>
<polygon fill="midnightblue" stroke="midnightblue" points="679.102,-197.008 684.376,-187.82 674.523,-191.714 679.102,-197.008"/>
</g>
<!-- Node19&#45;&gt;Node2 -->
<g id="edge48" class="edge"><title>Node19&#45;&gt;Node2</title>
<path fill="none" stroke="midnightblue" d="M1493.04,-280.479C1474.25,-267.317 1436.4,-241.714 1402,-224 1285.04,-163.776 1255.88,-142.901 1128,-112 952.25,-69.5315 734.639,-65.9054 646.662,-66.3891"/>
<polygon fill="midnightblue" stroke="midnightblue" points="646.56,-62.8896 636.587,-66.4661 646.613,-69.8894 646.56,-62.8896"/>
</g>
<!-- Node19&#45;&gt;Node10 -->
<g id="edge49" class="edge"><title>Node19&#45;&gt;Node10</title>
<path fill="none" stroke="midnightblue" d="M1514.68,-280.485C1532.03,-264.472 1567.75,-227.876 1580,-188 1591.91,-149.239 1562.36,-106.113 1543.08,-83.2716"/>
<polygon fill="midnightblue" stroke="midnightblue" points="1545.54,-80.7607 1536.3,-75.5618 1540.28,-85.3829 1545.54,-80.7607"/>
</g>
<!-- Node20 -->
<g id="node20" class="node"><title>Node20</title>
<g id="a_node20"><a xlink:href="group__iface_8hpp.html" target="_top" xlink:title="group_iface.hpp">
<polygon fill="none" stroke="black" points="1236,-224.5 1236,-243.5 1322,-243.5 1322,-224.5 1236,-224.5"/>
<text text-anchor="middle" x="1279" y="-231.5" font-family="Helvetica,sans-Serif" font-size="10.00">group_iface.hpp</text>
</a>
</g>
</g>
<!-- Node19&#45;&gt;Node20 -->
<g id="edge38" class="edge"><title>Node19&#45;&gt;Node20</title>
<path fill="none" stroke="midnightblue" d="M1472.14,-281.148C1433.29,-271.867 1368.42,-256.367 1324.7,-245.92"/>
<polygon fill="midnightblue" stroke="midnightblue" points="1325.43,-242.495 1314.89,-243.576 1323.8,-249.304 1325.43,-242.495"/>
</g>
<!-- Node20&#45;&gt;Node2 -->
<g id="edge42" class="edge"><title>Node20&#45;&gt;Node2</title>
<path fill="none" stroke="midnightblue" d="M1269.8,-224.499C1244.08,-201.357 1168.36,-137.275 1092,-112 1009.52,-84.6992 746.986,-72.2333 646.576,-68.3762"/>
<polygon fill="midnightblue" stroke="midnightblue" points="646.664,-64.8772 636.54,-67.9988 646.401,-71.8722 646.664,-64.8772"/>
</g>
<!-- Node20&#45;&gt;Node5 -->
<g id="edge43" class="edge"><title>Node20&#45;&gt;Node5</title>
<path fill="none" stroke="midnightblue" d="M1322.19,-225.117C1348.53,-218.616 1381.7,-207.237 1406,-188 1460.71,-144.69 1438.66,-102.146 1491,-56 1509.11,-40.0317 1533.89,-28.483 1553.45,-21.0855"/>
<polygon fill="midnightblue" stroke="midnightblue" points="1554.65,-24.3752 1562.87,-17.6903 1552.27,-17.7903 1554.65,-24.3752"/>
</g>
<!-- Node20&#45;&gt;Node7 -->
<g id="edge39" class="edge"><title>Node20&#45;&gt;Node7</title>
<path fill="none" stroke="midnightblue" d="M1235.92,-225.17C1232.91,-224.737 1229.91,-224.341 1227,-224 972.866,-194.239 903.867,-219.771 645.696,-187.904"/>
<polygon fill="midnightblue" stroke="midnightblue" points="646,-184.414 635.643,-186.646 645.131,-191.36 646,-184.414"/>
</g>
<!-- Node20&#45;&gt;Node8 -->
<g id="edge40" class="edge"><title>Node20&#45;&gt;Node8</title>
<path fill="none" stroke="midnightblue" d="M1261.93,-224.291C1237.28,-211.736 1190.25,-187.877 1150,-168 1127.81,-157.044 1102.53,-144.828 1083.93,-135.892"/>
<polygon fill="midnightblue" stroke="midnightblue" points="1085.4,-132.713 1074.87,-131.542 1082.37,-139.024 1085.4,-132.713"/>
</g>
<!-- Node20&#45;&gt;Node10 -->
<g id="edge45" class="edge"><title>Node20&#45;&gt;Node10</title>
<path fill="none" stroke="midnightblue" d="M1322.31,-231.368C1362.71,-227.935 1423.03,-217.739 1466,-188 1501.31,-163.562 1517.75,-112.746 1524.3,-85.388"/>
<polygon fill="midnightblue" stroke="midnightblue" points="1527.74,-86.065 1526.47,-75.546 1520.9,-84.5579 1527.74,-86.065"/>
</g>
<!-- Node20&#45;&gt;Node11 -->
<g id="edge44" class="edge"><title>Node20&#45;&gt;Node11</title>
<path fill="none" stroke="midnightblue" d="M1322.22,-227.321C1346.51,-221.674 1374.9,-210.42 1390,-188 1394.97,-180.628 1392.61,-176.497 1390,-168 1381.17,-139.248 1374.72,-131.714 1352,-112 1335.49,-97.6761 1313.63,-86.7335 1295.36,-79.2271"/>
<polygon fill="midnightblue" stroke="midnightblue" points="1296.49,-75.9128 1285.91,-75.5132 1293.93,-82.4279 1296.49,-75.9128"/>
</g>
<!-- Node20&#45;&gt;Node14 -->
<g id="edge46" class="edge"><title>Node20&#45;&gt;Node14</title>
<path fill="none" stroke="midnightblue" d="M1252.88,-224.45C1228.79,-216.218 1192.29,-202.855 1162,-188 1146.6,-180.448 1145.15,-173.781 1129,-168 1029.7,-132.446 903.163,-124.912 846.194,-123.366"/>
<polygon fill="midnightblue" stroke="midnightblue" points="846.149,-119.864 836.072,-123.136 845.99,-126.863 846.149,-119.864"/>
</g>
<!-- Node20&#45;&gt;Node15 -->
<g id="edge41" class="edge"><title>Node20&#45;&gt;Node15</title>
<path fill="none" stroke="midnightblue" d="M1235.93,-225.141C1232.91,-224.716 1229.91,-224.329 1227,-224 928.025,-190.286 849.489,-225.778 551,-188 450.209,-175.243 333.797,-148.9 271.956,-133.963"/>
<polygon fill="midnightblue" stroke="midnightblue" points="272.692,-130.54 262.148,-131.578 271.038,-137.342 272.692,-130.54"/>
</g>
<!-- Node21 -->
<g id="node21" class="node"><title>Node21</title>
<polygon fill="none" stroke="#bfbfbf" points="1068,-168.5 1068,-187.5 1120,-187.5 1120,-168.5 1068,-168.5"/>
<text text-anchor="middle" x="1094" y="-175.5" font-family="Helvetica,sans-Serif" font-size="10.00">memory</text>
</g>
<!-- Node20&#45;&gt;Node21 -->
<g id="edge47" class="edge"><title>Node20&#45;&gt;Node21</title>
<path fill="none" stroke="midnightblue" d="M1249.69,-224.444C1217.23,-214.97 1164.89,-199.693 1129.98,-189.502"/>
<polygon fill="midnightblue" stroke="midnightblue" points="1130.77,-186.086 1120.19,-186.643 1128.8,-192.805 1130.77,-186.086"/>
</g>
<!-- Node22&#45;&gt;Node2 -->
<g id="edge90" class="edge"><title>Node22&#45;&gt;Node2</title>
<path fill="none" stroke="midnightblue" d="M300.934,-448.5C221.409,-427.383 38,-364.63 38,-235 38,-235 38,-235 38,-177 38,-69.1065 437.363,-64.7886 566.936,-66.2271"/>
<polygon fill="midnightblue" stroke="midnightblue" points="567.165,-69.7302 577.209,-66.3599 567.255,-62.7308 567.165,-69.7302"/>
</g>
<!-- Node22&#45;&gt;Node7 -->
<g id="edge51" class="edge"><title>Node22&#45;&gt;Node7</title>
<path fill="none" stroke="midnightblue" d="M340.122,-448.298C350.33,-420.797 385.079,-334.367 437,-280 475.745,-239.43 534.038,-208.2 568.825,-191.798"/>
<polygon fill="midnightblue" stroke="midnightblue" points="570.368,-194.941 577.978,-187.569 567.432,-188.586 570.368,-194.941"/>
</g>
<!-- Node22&#45;&gt;Node8 -->
<g id="edge52" class="edge"><title>Node22&#45;&gt;Node8</title>
<path fill="none" stroke="midnightblue" d="M393.534,-456.448C514.306,-454.607 806.189,-446.622 1048,-412 1272.57,-379.846 1404.27,-477.143 1546,-300 1669.15,-146.075 1226.54,-125.958 1093.63,-123.371"/>
<polygon fill="midnightblue" stroke="midnightblue" points="1093.6,-119.87 1083.54,-123.197 1093.47,-126.869 1093.6,-119.87"/>
</g>
<!-- Node22&#45;&gt;Node12 -->
<g id="edge89" class="edge"><title>Node22&#45;&gt;Node12</title>
<path fill="none" stroke="midnightblue" d="M317.764,-448.415C286.472,-432.986 228,-397.41 228,-347 228,-347 228,-347 228,-289 228,-180.021 386.884,-141.032 465.281,-128.427"/>
<polygon fill="midnightblue" stroke="midnightblue" points="465.979,-131.861 475.332,-126.884 464.917,-124.942 465.979,-131.861"/>
</g>
<!-- Node22&#45;&gt;Node15 -->
<g id="edge53" class="edge"><title>Node22&#45;&gt;Node15</title>
<path fill="none" stroke="midnightblue" d="M280.367,-457.021C203.605,-453.728 76,-435.019 76,-347 76,-347 76,-347 76,-233 76,-179.437 138.712,-149.3 183.573,-134.593"/>
<polygon fill="midnightblue" stroke="midnightblue" points="184.63,-137.93 193.128,-131.602 182.539,-131.25 184.63,-137.93"/>
</g>
<!-- Node23 -->
<g id="node23" class="node"><title>Node23</title>
<g id="a_node23"><a xlink:href="cmd__line_8hpp.html" target="_top" xlink:title="cmd_line.hpp">
<polygon fill="none" stroke="black" points="965,-392.5 965,-411.5 1039,-411.5 1039,-392.5 965,-392.5"/>
<text text-anchor="middle" x="1002" y="-399.5" font-family="Helvetica,sans-Serif" font-size="10.00">cmd_line.hpp</text>
</a>
</g>
</g>
<!-- Node22&#45;&gt;Node23 -->
<g id="edge54" class="edge"><title>Node22&#45;&gt;Node23</title>
<path fill="none" stroke="midnightblue" d="M393.698,-452.396C522.514,-441.936 835.268,-416.539 954.632,-406.846"/>
<polygon fill="midnightblue" stroke="midnightblue" points="955.216,-410.311 964.9,-406.013 954.65,-403.334 955.216,-410.311"/>
</g>
<!-- Node23&#45;&gt;Node1 -->
<g id="edge55" class="edge"><title>Node23&#45;&gt;Node1</title>
<path fill="none" stroke="midnightblue" d="M964.783,-410.768C866.82,-431.216 602.901,-486.303 508.856,-505.933"/>
<polygon fill="midnightblue" stroke="midnightblue" points="508.087,-502.518 499.014,-507.988 509.518,-509.371 508.087,-502.518"/>
</g>
<!-- Node23&#45;&gt;Node5 -->
<g id="edge75" class="edge"><title>Node23&#45;&gt;Node5</title>
<path fill="none" stroke="midnightblue" d="M1039.02,-401.323C1124.33,-401.301 1340.87,-396.84 1516,-356 1582.87,-340.405 1602.49,-337.526 1660,-300 1717.49,-262.486 1756,-247.648 1756,-179 1756,-179 1756,-179 1756,-121 1756,-55.5836 1666.39,-27.2337 1616.91,-16.5656"/>
<polygon fill="midnightblue" stroke="midnightblue" points="1617.5,-13.1147 1607.01,-14.5505 1616.11,-19.9742 1617.5,-13.1147"/>
</g>
<!-- Node23&#45;&gt;Node8 -->
<g id="edge56" class="edge"><title>Node23&#45;&gt;Node8</title>
<path fill="none" stroke="midnightblue" d="M1039.09,-401.346C1092.16,-400.41 1191.58,-393.251 1266,-356 1321.4,-328.269 1336.54,-304.691 1349,-244 1357.28,-203.661 1332.15,-187.725 1296,-168 1278.48,-158.441 1156.48,-138.457 1093.88,-128.66"/>
<polygon fill="midnightblue" stroke="midnightblue" points="1094.07,-125.147 1083.65,-127.066 1092.99,-132.063 1094.07,-125.147"/>
</g>
<!-- Node23&#45;&gt;Node10 -->
<g id="edge76" class="edge"><title>Node23&#45;&gt;Node10</title>
<path fill="none" stroke="midnightblue" d="M1039.42,-399.95C1181.55,-394.965 1680,-368.001 1680,-235 1680,-235 1680,-235 1680,-177 1680,-120.824 1611.02,-90.4148 1566,-76.5503"/>
<polygon fill="midnightblue" stroke="midnightblue" points="1566.81,-73.1425 1556.23,-73.6844 1564.84,-79.8592 1566.81,-73.1425"/>
</g>
<!-- Node23&#45;&gt;Node13 -->
<g id="edge57" class="edge"><title>Node23&#45;&gt;Node13</title>
<path fill="none" stroke="midnightblue" d="M996.59,-392.297C976.07,-359.286 902.792,-241.404 874.892,-196.522"/>
<polygon fill="midnightblue" stroke="midnightblue" points="877.774,-194.529 869.522,-187.884 871.829,-198.224 877.774,-194.529"/>
</g>
<!-- Node23&#45;&gt;Node15 -->
<g id="edge58" class="edge"><title>Node23&#45;&gt;Node15</title>
<path fill="none" stroke="midnightblue" d="M964.89,-398.519C834.94,-389.419 401.461,-355.489 275,-300 239.148,-284.269 225.269,-278.628 207,-244 191.205,-214.06 193.234,-200.696 202,-168 204.654,-158.103 210.069,-148.131 215.274,-140.099"/>
<polygon fill="midnightblue" stroke="midnightblue" points="218.289,-141.894 221.11,-131.681 212.536,-137.906 218.289,-141.894"/>
</g>
<!-- Node23&#45;&gt;Node21 -->
<g id="edge77" class="edge"><title>Node23&#45;&gt;Node21</title>
<path fill="none" stroke="midnightblue" d="M1006.39,-392.478C1015.19,-375.246 1035.39,-334.925 1050,-300 1065.04,-264.057 1080,-220.964 1088.01,-197.121"/>
<polygon fill="midnightblue" stroke="midnightblue" points="1091.34,-198.21 1091.18,-187.616 1084.7,-195.995 1091.34,-198.21"/>
</g>
<!-- Node24 -->
<g id="node24" class="node"><title>Node24</title>
<g id="a_node24"><a xlink:href="command_8hpp.html" target="_top" xlink:title="command.hpp">
<polygon fill="none" stroke="black" points="963,-280.5 963,-299.5 1041,-299.5 1041,-280.5 963,-280.5"/>
<text text-anchor="middle" x="1002" y="-287.5" font-family="Helvetica,sans-Serif" font-size="10.00">command.hpp</text>
</a>
</g>
</g>
<!-- Node23&#45;&gt;Node24 -->
<g id="edge59" class="edge"><title>Node23&#45;&gt;Node24</title>
<path fill="none" stroke="midnightblue" d="M1002,-392.368C1002,-374.617 1002,-333.666 1002,-309.597"/>
<polygon fill="midnightblue" stroke="midnightblue" points="1005.5,-309.591 1002,-299.591 998.5,-309.591 1005.5,-309.591"/>
</g>
<!-- Node25 -->
<g id="node25" class="node"><title>Node25</title>
<g id="a_node25"><a xlink:href="help_8hpp.html" target="_top" xlink:title="help.hpp">
<polygon fill="none" stroke="black" points="747.5,-280.5 747.5,-299.5 800.5,-299.5 800.5,-280.5 747.5,-280.5"/>
<text text-anchor="middle" x="774" y="-287.5" font-family="Helvetica,sans-Serif" font-size="10.00">help.hpp</text>
</a>
</g>
</g>
<!-- Node23&#45;&gt;Node25 -->
<g id="edge66" class="edge"><title>Node23&#45;&gt;Node25</title>
<path fill="none" stroke="midnightblue" d="M984.109,-392.368C944.318,-373.171 848.29,-326.842 801.099,-304.074"/>
<polygon fill="midnightblue" stroke="midnightblue" points="802.335,-300.784 791.808,-299.591 799.293,-307.089 802.335,-300.784"/>
</g>
<!-- Node27 -->
<g id="node27" class="node"><title>Node27</title>
<g id="a_node27"><a xlink:href="help__printer_8hpp.html" target="_top" xlink:title="help_printer.hpp">
<polygon fill="none" stroke="black" points="1171,-336.5 1171,-355.5 1257,-355.5 1257,-336.5 1171,-336.5"/>
<text text-anchor="middle" x="1214" y="-343.5" font-family="Helvetica,sans-Serif" font-size="10.00">help_printer.hpp</text>
</a>
</g>
</g>
<!-- Node23&#45;&gt;Node27 -->
<g id="edge78" class="edge"><title>Node23&#45;&gt;Node27</title>
<path fill="none" stroke="midnightblue" d="M1035.59,-392.444C1072.19,-383.122 1130.84,-368.183 1170.83,-357.997"/>
<polygon fill="midnightblue" stroke="midnightblue" points="1171.74,-361.377 1180.57,-355.516 1170.01,-354.593 1171.74,-361.377"/>
</g>
<!-- Node24&#45;&gt;Node2 -->
<g id="edge65" class="edge"><title>Node24&#45;&gt;Node2</title>
<path fill="none" stroke="midnightblue" d="M998.429,-280.377C985.656,-250.767 939.075,-152.825 866,-112 829.013,-91.3364 709.445,-76.9759 646.534,-70.6447"/>
<polygon fill="midnightblue" stroke="midnightblue" points="646.874,-67.1612 636.578,-69.6622 646.186,-74.1274 646.874,-67.1612"/>
</g>
<!-- Node24&#45;&gt;Node8 -->
<g id="edge61" class="edge"><title>Node24&#45;&gt;Node8</title>
<path fill="none" stroke="midnightblue" d="M1004.96,-280.075C1013.65,-253.832 1039.26,-176.545 1051,-141.117"/>
<polygon fill="midnightblue" stroke="midnightblue" points="1054.34,-142.161 1054.16,-131.568 1047.69,-139.96 1054.34,-142.161"/>
</g>
<!-- Node24&#45;&gt;Node12 -->
<g id="edge64" class="edge"><title>Node24&#45;&gt;Node12</title>
<path fill="none" stroke="midnightblue" d="M962.956,-286.483C853.562,-279.268 550.985,-258.123 535,-244 505.927,-218.312 504.409,-168.811 506.056,-141.766"/>
<polygon fill="midnightblue" stroke="midnightblue" points="509.554,-141.938 506.885,-131.685 502.577,-141.364 509.554,-141.938"/>
</g>
<!-- Node24&#45;&gt;Node13 -->
<g id="edge62" class="edge"><title>Node24&#45;&gt;Node13</title>
<path fill="none" stroke="midnightblue" d="M995.022,-280.275C984.18,-267.066 962.215,-241.666 940,-224 924.595,-211.75 905.531,-200.471 890.351,-192.269"/>
<polygon fill="midnightblue" stroke="midnightblue" points="891.945,-189.153 881.468,-187.579 888.677,-195.343 891.945,-189.153"/>
</g>
<!-- Node24&#45;&gt;Node17 -->
<g id="edge63" class="edge"><title>Node24&#45;&gt;Node17</title>
<path fill="none" stroke="midnightblue" d="M978.166,-280.46C923.984,-261.047 791.429,-213.551 728.813,-191.115"/>
<polygon fill="midnightblue" stroke="midnightblue" points="729.625,-187.689 719.031,-187.61 727.264,-194.278 729.625,-187.689"/>
</g>
<!-- Node24&#45;&gt;Node20 -->
<g id="edge60" class="edge"><title>Node24&#45;&gt;Node20</title>
<path fill="none" stroke="midnightblue" d="M1041.1,-281.378C1089.29,-271.982 1171.43,-255.97 1225.46,-245.438"/>
<polygon fill="midnightblue" stroke="midnightblue" points="1226.39,-248.822 1235.54,-243.473 1225.05,-241.951 1226.39,-248.822"/>
</g>
<!-- Node25&#45;&gt;Node2 -->
<g id="edge73" class="edge"><title>Node25&#45;&gt;Node2</title>
<path fill="none" stroke="midnightblue" d="M747.193,-287.432C688.852,-283.532 552.738,-271.646 517,-244 467.254,-205.518 428.899,-162.785 466,-112 488.978,-80.5464 534.185,-70.5645 567.238,-67.6543"/>
<polygon fill="midnightblue" stroke="midnightblue" points="567.766,-71.1261 577.498,-66.9397 567.279,-64.143 567.766,-71.1261"/>
</g>
<!-- Node25&#45;&gt;Node6 -->
<g id="edge67" class="edge"><title>Node25&#45;&gt;Node6</title>
<path fill="none" stroke="midnightblue" d="M747.2,-281.94C710.281,-272.215 643.758,-254.692 603.265,-244.026"/>
<polygon fill="midnightblue" stroke="midnightblue" points="604.127,-240.634 593.565,-241.471 602.344,-247.403 604.127,-240.634"/>
</g>
<!-- Node25&#45;&gt;Node8 -->
<g id="edge71" class="edge"><title>Node25&#45;&gt;Node8</title>
<path fill="none" stroke="midnightblue" d="M788.817,-280.309C835.046,-253.192 976.907,-169.98 1033.41,-136.834"/>
<polygon fill="midnightblue" stroke="midnightblue" points="1035.48,-139.684 1042.33,-131.605 1031.93,-133.646 1035.48,-139.684"/>
</g>
<!-- Node25&#45;&gt;Node13 -->
<g id="edge70" class="edge"><title>Node25&#45;&gt;Node13</title>
<path fill="none" stroke="midnightblue" d="M775.479,-280.172C778.079,-266.829 784.524,-241.255 798,-224 808.166,-210.983 823.157,-200.339 836.284,-192.676"/>
<polygon fill="midnightblue" stroke="midnightblue" points="838.355,-195.531 845.417,-187.632 834.971,-189.403 838.355,-195.531"/>
</g>
<!-- Node25&#45;&gt;Node15 -->
<g id="edge72" class="edge"><title>Node25&#45;&gt;Node15</title>
<path fill="none" stroke="midnightblue" d="M747.226,-287.937C690.111,-285.115 552.515,-275.357 442,-244 383.045,-227.272 368.961,-218.832 316,-188 290.42,-173.108 263.374,-152.26 246.125,-138.226"/>
<polygon fill="midnightblue" stroke="midnightblue" points="248.001,-135.236 238.058,-131.576 243.548,-140.638 248.001,-135.236"/>
</g>
<!-- Node25&#45;&gt;Node21 -->
<g id="edge74" class="edge"><title>Node25&#45;&gt;Node21</title>
<path fill="none" stroke="midnightblue" d="M798.844,-280.46C855.436,-261.006 994.057,-213.355 1059.16,-190.977"/>
<polygon fill="midnightblue" stroke="midnightblue" points="1060.63,-194.171 1068.95,-187.61 1058.36,-187.551 1060.63,-194.171"/>
</g>
<!-- Node26 -->
<g id="node26" class="node"><title>Node26</title>
<g id="a_node26"><a xlink:href="help__printer__iface_8hpp.html" target="_top" xlink:title="help_printer_iface.hpp">
<polygon fill="none" stroke="black" points="1106,-224.5 1106,-243.5 1218,-243.5 1218,-224.5 1106,-224.5"/>
<text text-anchor="middle" x="1162" y="-231.5" font-family="Helvetica,sans-Serif" font-size="10.00">help_printer_iface.hpp</text>
</a>
</g>
</g>
<!-- Node25&#45;&gt;Node26 -->
<g id="edge68" class="edge"><title>Node25&#45;&gt;Node26</title>
<path fill="none" stroke="midnightblue" d="M800.669,-285.288C860.946,-276.899 1009.17,-256.27 1095.9,-244.2"/>
<polygon fill="midnightblue" stroke="midnightblue" points="1096.48,-247.653 1105.9,-242.808 1095.51,-240.72 1096.48,-247.653"/>
</g>
<!-- Node26&#45;&gt;Node8 -->
<g id="edge69" class="edge"><title>Node26&#45;&gt;Node8</title>
<path fill="none" stroke="midnightblue" d="M1159.22,-224.106C1154.67,-210.678 1144.55,-184.994 1129,-168 1116.84,-154.707 1099.88,-143.849 1085.47,-136.132"/>
<polygon fill="midnightblue" stroke="midnightblue" points="1086.95,-132.956 1076.45,-131.52 1083.76,-139.188 1086.95,-132.956"/>
</g>
<!-- Node27&#45;&gt;Node2 -->
<g id="edge87" class="edge"><title>Node27&#45;&gt;Node2</title>
<path fill="none" stroke="midnightblue" d="M1170.75,-343.772C1032.3,-339.607 605.692,-324.872 549,-300 462.9,-262.225 394.207,-186.163 452,-112 478.963,-77.3994 530.911,-68.2886 567.205,-66.4317"/>
<polygon fill="midnightblue" stroke="midnightblue" points="567.583,-69.9208 577.456,-66.0763 567.34,-62.925 567.583,-69.9208"/>
</g>
<!-- Node27&#45;&gt;Node5 -->
<g id="edge79" class="edge"><title>Node27&#45;&gt;Node5</title>
<path fill="none" stroke="midnightblue" d="M1257.01,-342.608C1339.4,-337.535 1516.24,-324.139 1572,-300 1649.34,-266.519 1718,-263.277 1718,-179 1718,-179 1718,-179 1718,-121 1718,-68.6536 1656.07,-36.5257 1616.72,-21.3984"/>
<polygon fill="midnightblue" stroke="midnightblue" points="1617.85,-18.0848 1607.26,-17.9168 1615.44,-24.6543 1617.85,-18.0848"/>
</g>
<!-- Node27&#45;&gt;Node8 -->
<g id="edge82" class="edge"><title>Node27&#45;&gt;Node8</title>
<path fill="none" stroke="midnightblue" d="M1234.67,-336.377C1276.33,-317.736 1363.75,-271.521 1331,-224 1277.02,-145.667 1154.96,-127.904 1093.63,-124.003"/>
<polygon fill="midnightblue" stroke="midnightblue" points="1093.79,-120.507 1083.62,-123.456 1093.41,-127.496 1093.79,-120.507"/>
</g>
<!-- Node27&#45;&gt;Node10 -->
<g id="edge80" class="edge"><title>Node27&#45;&gt;Node10</title>
<path fill="none" stroke="midnightblue" d="M1257.19,-344.254C1336.47,-342.071 1501.25,-333.517 1546,-300 1596.21,-262.394 1602.61,-230.385 1596,-168 1593.32,-142.688 1597.36,-133.667 1584,-112 1576.25,-99.4342 1563.7,-88.8686 1552.44,-81.1397"/>
<polygon fill="midnightblue" stroke="midnightblue" points="1554.1,-78.0478 1543.8,-75.5654 1550.31,-83.9291 1554.1,-78.0478"/>
</g>
<!-- Node27&#45;&gt;Node15 -->
<g id="edge83" class="edge"><title>Node27&#45;&gt;Node15</title>
<path fill="none" stroke="midnightblue" d="M1170.81,-345.342C1053.53,-345.653 719.536,-342.43 446,-300 346.297,-284.534 298.948,-313.703 226,-244 200.975,-220.088 202.132,-201.924 209,-168 210.893,-158.649 214.792,-148.827 218.567,-140.753"/>
<polygon fill="midnightblue" stroke="midnightblue" points="221.788,-142.138 223.124,-131.628 215.525,-139.011 221.788,-142.138"/>
</g>
<!-- Node27&#45;&gt;Node19 -->
<g id="edge85" class="edge"><title>Node27&#45;&gt;Node19</title>
<path fill="none" stroke="midnightblue" d="M1257.25,-336.974C1312.43,-326.734 1407.29,-309.131 1462.24,-298.935"/>
<polygon fill="midnightblue" stroke="midnightblue" points="1463.15,-302.325 1472.35,-297.06 1461.87,-295.443 1463.15,-302.325"/>
</g>
<!-- Node27&#45;&gt;Node20 -->
<g id="edge84" class="edge"><title>Node27&#45;&gt;Node20</title>
<path fill="none" stroke="midnightblue" d="M1202.29,-336.45C1186.56,-323.89 1161.99,-299.799 1175,-280 1186.55,-262.417 1206.6,-251.672 1226.03,-245.119"/>
<polygon fill="midnightblue" stroke="midnightblue" points="1227.24,-248.41 1235.78,-242.145 1225.19,-241.715 1227.24,-248.41"/>
</g>
<!-- Node27&#45;&gt;Node24 -->
<g id="edge86" class="edge"><title>Node27&#45;&gt;Node24</title>
<path fill="none" stroke="midnightblue" d="M1180.41,-336.444C1143.81,-327.122 1085.16,-312.183 1045.17,-301.997"/>
<polygon fill="midnightblue" stroke="midnightblue" points="1045.99,-298.593 1035.43,-299.516 1044.26,-305.377 1045.99,-298.593"/>
</g>
<!-- Node27&#45;&gt;Node26 -->
<g id="edge88" class="edge"><title>Node27&#45;&gt;Node26</title>
<path fill="none" stroke="midnightblue" d="M1225.58,-336.298C1240.82,-323.752 1264.3,-299.904 1252,-280 1242.33,-264.348 1225.38,-253.958 1208.78,-247.15"/>
<polygon fill="midnightblue" stroke="midnightblue" points="1209.69,-243.756 1199.1,-243.542 1207.25,-250.315 1209.69,-243.756"/>
</g>
<!-- Node28 -->
<g id="node28" class="node"><title>Node28</title>
<polygon fill="none" stroke="#bfbfbf" points="1184.5,-280.5 1184.5,-299.5 1243.5,-299.5 1243.5,-280.5 1184.5,-280.5"/>
<text text-anchor="middle" x="1214" y="-287.5" font-family="Helvetica,sans-Serif" font-size="10.00">functional</text>
</g>
<!-- Node27&#45;&gt;Node28 -->
<g id="edge81" class="edge"><title>Node27&#45;&gt;Node28</title>
<path fill="none" stroke="midnightblue" d="M1214,-336.083C1214,-329.006 1214,-318.861 1214,-309.986"/>
<polygon fill="midnightblue" stroke="midnightblue" points="1217.5,-309.751 1214,-299.751 1210.5,-309.751 1217.5,-309.751"/>
</g>
</g>
</svg>
        <g id="navigator" transform="translate(0 0)" fill="#404254">
                <rect fill="#f2f5e9" fill-opacity="0.5" stroke="#606060" stroke-width=".5" x="0" y="0" width="60" height="60"/>
                <use id="zoomplus" xlink:href="#zoomPlus" x="17" y="9" onmousedown="handleZoom(evt,'in')"/>
                <use id="zoomminus" xlink:href="#zoomMin" x="42" y="9" onmousedown="handleZoom(evt,'out')"/>
                <use id="reset" xlink:href="#resetDef" x="30" y="36" onmousedown="handleReset()"/>
                <g id="arrowUp" xlink:href="#dirArrow" transform="translate(30 24)" onmousedown="handlePan(0,-1)">
                  <use xlink:href="#rim" fill="#404040">
                        <set attributeName="fill" to="#808080" begin="arrowUp.mouseover" end="arrowUp.mouseout"/>
                  </use>
                  <path fill="none" stroke="white" stroke-width="1.5" d="M0,-3.0v7 M-2.5,-0.5L0,-3.0L2.5,-0.5"/>
                </g>
                <g id="arrowRight" xlink:href="#dirArrow" transform="rotate(90) translate(36 -43)" onmousedown="handlePan(1,0)">
                  <use xlink:href="#rim" fill="#404040">
                        <set attributeName="fill" to="#808080" begin="arrowRight.mouseover" end="arrowRight.mouseout"/>
                  </use>
                  <path fill="none" stroke="white" stroke-width="1.5" d="M0,-3.0v7 M-2.5,-0.5L0,-3.0L2.5,-0.5"/>
                </g>
                <g id="arrowDown" xlink:href="#dirArrow" transform="rotate(180) translate(-30 -48)" onmousedown="handlePan(0,1)">
                  <use xlink:href="#rim" fill="#404040">
                        <set attributeName="fill" to="#808080" begin="arrowDown.mouseover" end="arrowDown.mouseout"/>
                  </use>
                  <path fill="none" stroke="white" stroke-width="1.5" d="M0,-3.0v7 M-2.5,-0.5L0,-3.0L2.5,-0.5"/>
                </g>
                <g id="arrowLeft" xlink:href="#dirArrow" transform="rotate(270) translate(-36 17)" onmousedown="handlePan(-1,0)">
                  <use xlink:href="#rim" fill="#404040">
                        <set attributeName="fill" to="#808080" begin="arrowLeft.mouseover" end="arrowLeft.mouseout"/>
                  </use>
                  <path fill="none" stroke="white" stroke-width="1.5" d="M0,-3.0v7 M-2.5,-0.5L0,-3.0L2.5,-0.5"/>
                </g>
        </g>
        <svg viewBox="0 0 15 15" width="100%" height="30px" preserveAspectRatio="xMaxYMin meet">
         <g id="arrow_out" transform="scale(0.3 0.3)">
          <a xlink:href="api_8hpp__incl_org.svg" target="_base">
           <rect id="button" ry="5" rx="5" y="6" x="6" height="38" width="38"
                fill="#f2f5e9" fill-opacity="0.5" stroke="#606060" stroke-width="1.0"/>
           <path id="arrow"
             d="M 11.500037,31.436501 C 11.940474,20.09759 22.043105,11.32322 32.158766,21.979434 L 37.068811,17.246167 C 37.068811,17.246167 37.088388,32 37.088388,32 L 22.160133,31.978069 C 22.160133,31.978069 26.997745,27.140456 26.997745,27.140456 C 18.528582,18.264221 13.291696,25.230495 11.500037,31.436501 z"
             style="fill:#404040;"/>
          </a>
         </g>
        </svg>
</svg>
