<?xml version="1.0" encoding="UTF-8" standalone="no"?>
<!DOCTYPE svg PUBLIC "-//W3C//DTD SVG 1.1//EN"
 "http://www.w3.org/Graphics/SVG/1.1/DTD/svg11.dtd">
<!-- Generated by graphviz version 2.40.1 (20161225.0304)
 -->
<!-- Title: arg_iface.hpp Pages: 1 -->
<svg width="338pt" height="196pt"
 viewBox="0.00 0.00 337.50 196.00" xmlns="http://www.w3.org/2000/svg" xmlns:xlink="http://www.w3.org/1999/xlink">
<g id="graph0" class="graph" transform="scale(1 1) rotate(0) translate(4 192)">
<title>arg_iface.hpp</title>
<!-- Node0 -->
<g id="node1" class="node">
<title>Node0</title>
<polygon fill="#bfbfbf" stroke="#000000" points="117,-168.5 117,-187.5 192,-187.5 192,-168.5 117,-168.5"/>
<text text-anchor="middle" x="154.5" y="-175.5" font-family="Helvetica,sans-Serif" font-size="10.00" fill="#000000">arg_iface.hpp</text>
</g>
<!-- Node1 -->
<g id="node2" class="node">
<title>Node1</title>
<g id="a_node2"><a xlink:href="utils_8hpp.html" target="_top" xlink:title="utils.hpp">
<polygon fill="none" stroke="#000000" points="128,-112.5 128,-131.5 181,-131.5 181,-112.5 128,-112.5"/>
<text text-anchor="middle" x="154.5" y="-119.5" font-family="Helvetica,sans-Serif" font-size="10.00" fill="#000000">utils.hpp</text>
</a>
</g>
</g>
<!-- Node0&#45;&gt;Node1 -->
<g id="edge1" class="edge">
<title>Node0&#45;&gt;Node1</title>
<path fill="none" stroke="#191970" d="M154.5,-168.2455C154.5,-160.9382 154.5,-150.6944 154.5,-141.7046"/>
<polygon fill="#191970" stroke="#191970" points="158.0001,-141.6426 154.5,-131.6427 151.0001,-141.6427 158.0001,-141.6426"/>
</g>
<!-- Node3 -->
<g id="node4" class="node">
<title>Node3</title>
<g id="a_node4"><a xlink:href="types_8hpp.html" target="_top" xlink:title="types.hpp">
<polygon fill="none" stroke="#000000" points="57,-56.5 57,-75.5 116,-75.5 116,-56.5 57,-56.5"/>
<text text-anchor="middle" x="86.5" y="-63.5" font-family="Helvetica,sans-Serif" font-size="10.00" fill="#000000">types.hpp</text>
</a>
</g>
</g>
<!-- Node0&#45;&gt;Node3 -->
<g id="edge9" class="edge">
<title>Node0&#45;&gt;Node3</title>
<path fill="none" stroke="#191970" d="M146.1497,-168.1588C138.6762,-159.0995 127.67,-145.1176 119.5,-132 110.0013,-116.749 101.0057,-98.3992 94.8129,-84.9235"/>
<polygon fill="#191970" stroke="#191970" points="97.9577,-83.3829 90.6616,-75.7006 91.5745,-86.2561 97.9577,-83.3829"/>
</g>
<!-- Node9 -->
<g id="node10" class="node">
<title>Node9</title>
<g id="a_node10"><a xlink:href="enums_8hpp.html" target="_top" xlink:title="enums.hpp">
<polygon fill="none" stroke="#000000" points="199,-112.5 199,-131.5 264,-131.5 264,-112.5 199,-112.5"/>
<text text-anchor="middle" x="231.5" y="-119.5" font-family="Helvetica,sans-Serif" font-size="10.00" fill="#000000">enums.hpp</text>
</a>
</g>
</g>
<!-- Node0&#45;&gt;Node9 -->
<g id="edge10" class="edge">
<title>Node0&#45;&gt;Node9</title>
<path fill="none" stroke="#191970" d="M167.9124,-168.2455C179.5057,-159.814 196.4748,-147.4729 209.9678,-137.6598"/>
<polygon fill="#191970" stroke="#191970" points="212.2126,-140.355 218.2413,-131.6427 208.0953,-134.6938 212.2126,-140.355"/>
</g>
<!-- Node2 -->
<g id="node3" class="node">
<title>Node2</title>
<polygon fill="none" stroke="#bfbfbf" points="134,-56.5 134,-75.5 175,-75.5 175,-56.5 134,-56.5"/>
<text text-anchor="middle" x="154.5" y="-63.5" font-family="Helvetica,sans-Serif" font-size="10.00" fill="#000000">regex</text>
</g>
<!-- Node1&#45;&gt;Node2 -->
<g id="edge2" class="edge">
<title>Node1&#45;&gt;Node2</title>
<path fill="none" stroke="#191970" d="M154.5,-112.2455C154.5,-104.9382 154.5,-94.6944 154.5,-85.7046"/>
<polygon fill="#191970" stroke="#191970" points="158.0001,-85.6426 154.5,-75.6427 151.0001,-85.6427 158.0001,-85.6426"/>
</g>
<!-- Node1&#45;&gt;Node3 -->
<g id="edge3" class="edge">
<title>Node1&#45;&gt;Node3</title>
<path fill="none" stroke="#191970" d="M142.6553,-112.2455C132.612,-103.9746 118.0005,-91.9416 106.1996,-82.2232"/>
<polygon fill="#191970" stroke="#191970" points="108.1533,-79.298 98.209,-75.6427 103.7033,-84.7015 108.1533,-79.298"/>
</g>
<!-- Node7 -->
<g id="node8" class="node">
<title>Node7</title>
<polygon fill="none" stroke="#bfbfbf" points="193.5,-56.5 193.5,-75.5 249.5,-75.5 249.5,-56.5 193.5,-56.5"/>
<text text-anchor="middle" x="221.5" y="-63.5" font-family="Helvetica,sans-Serif" font-size="10.00" fill="#000000">algorithm</text>
</g>
<!-- Node1&#45;&gt;Node7 -->
<g id="edge7" class="edge">
<title>Node1&#45;&gt;Node7</title>
<path fill="none" stroke="#191970" d="M166.1705,-112.2455C176.0661,-103.9746 190.4627,-91.9416 202.0901,-82.2232"/>
<polygon fill="#191970" stroke="#191970" points="204.535,-84.7413 209.9632,-75.6427 200.0458,-79.3703 204.535,-84.7413"/>
</g>
<!-- Node8 -->
<g id="node9" class="node">
<title>Node8</title>
<polygon fill="none" stroke="#bfbfbf" points="267.5,-56.5 267.5,-75.5 329.5,-75.5 329.5,-56.5 267.5,-56.5"/>
<text text-anchor="middle" x="298.5" y="-63.5" font-family="Helvetica,sans-Serif" font-size="10.00" fill="#000000">type_traits</text>
</g>
<!-- Node1&#45;&gt;Node8 -->
<g id="edge8" class="edge">
<title>Node1&#45;&gt;Node8</title>
<path fill="none" stroke="#191970" d="M179.2545,-112.3733C202.7849,-103.2226 238.3687,-89.3844 264.5426,-79.2057"/>
<polygon fill="#191970" stroke="#191970" points="266.0171,-82.3877 274.0685,-75.5011 263.4799,-75.8636 266.0171,-82.3877"/>
</g>
<!-- Node4 -->
<g id="node5" class="node">
<title>Node4</title>
<polygon fill="none" stroke="#bfbfbf" points="0,-.5 0,-19.5 41,-19.5 41,-.5 0,-.5"/>
<text text-anchor="middle" x="20.5" y="-7.5" font-family="Helvetica,sans-Serif" font-size="10.00" fill="#000000">string</text>
</g>
<!-- Node3&#45;&gt;Node4 -->
<g id="edge4" class="edge">
<title>Node3&#45;&gt;Node4</title>
<path fill="none" stroke="#191970" d="M75.0037,-56.2455C65.2558,-47.9746 51.0741,-35.9416 39.6202,-26.2232"/>
<polygon fill="#191970" stroke="#191970" points="41.7541,-23.4437 31.8646,-19.6427 37.2253,-28.7813 41.7541,-23.4437"/>
</g>
<!-- Node5 -->
<g id="node6" class="node">
<title>Node5</title>
<polygon fill="none" stroke="#bfbfbf" points="59.5,-.5 59.5,-19.5 113.5,-19.5 113.5,-.5 59.5,-.5"/>
<text text-anchor="middle" x="86.5" y="-7.5" font-family="Helvetica,sans-Serif" font-size="10.00" fill="#000000">iostream</text>
</g>
<!-- Node3&#45;&gt;Node5 -->
<g id="edge5" class="edge">
<title>Node3&#45;&gt;Node5</title>
<path fill="none" stroke="#191970" d="M86.5,-56.2455C86.5,-48.9382 86.5,-38.6944 86.5,-29.7046"/>
<polygon fill="#191970" stroke="#191970" points="90.0001,-29.6426 86.5,-19.6427 83.0001,-29.6427 90.0001,-29.6426"/>
</g>
<!-- Node6 -->
<g id="node7" class="node">
<title>Node6</title>
<polygon fill="none" stroke="#bfbfbf" points="131.5,-.5 131.5,-19.5 175.5,-19.5 175.5,-.5 131.5,-.5"/>
<text text-anchor="middle" x="153.5" y="-7.5" font-family="Helvetica,sans-Serif" font-size="10.00" fill="#000000">vector</text>
</g>
<!-- Node3&#45;&gt;Node6 -->
<g id="edge6" class="edge">
<title>Node3&#45;&gt;Node6</title>
<path fill="none" stroke="#191970" d="M98.1705,-56.2455C108.0661,-47.9746 122.4627,-35.9416 134.0901,-26.2232"/>
<polygon fill="#191970" stroke="#191970" points="136.535,-28.7413 141.9632,-19.6427 132.0458,-23.3703 136.535,-28.7413"/>
</g>
</g>
</svg>
