<?xml version="1.0" encoding="UTF-8" standalone="no"?>
<!DOCTYPE svg PUBLIC "-//W3C//DTD SVG 1.1//EN"
 "http://www.w3.org/Graphics/SVG/1.1/DTD/svg11.dtd">
<!-- Generated by graphviz version 2.43.0 (0)
 -->
<!-- Title: arg.hpp Pages: 1 -->
<svg width="204pt" height="364pt"
 viewBox="0.00 0.00 204.00 364.00" xmlns="http://www.w3.org/2000/svg" xmlns:xlink="http://www.w3.org/1999/xlink">
<g id="graph0" class="graph" transform="scale(1 1) rotate(0) translate(4 360)">
<title>arg.hpp</title>
<!-- Node1 -->
<g id="node1" class="node">
<title>Node1</title>
<g id="a_node1"><a xlink:title=" ">
<polygon fill="#bfbfbf" stroke="black" points="85.5,-336.5 85.5,-355.5 138.5,-355.5 138.5,-336.5 85.5,-336.5"/>
<text text-anchor="middle" x="112" y="-343.5" font-family="Helvetica,sans-Serif" font-size="10.00">arg.hpp</text>
</a>
</g>
</g>
<!-- Node2 -->
<g id="node2" class="node">
<title>Node2</title>
<g id="a_node2"><a xlink:href="api_8hpp.html" target="_top" xlink:title=" ">
<polygon fill="none" stroke="black" points="52.5,-224.5 52.5,-243.5 105.5,-243.5 105.5,-224.5 52.5,-224.5"/>
<text text-anchor="middle" x="79" y="-231.5" font-family="Helvetica,sans-Serif" font-size="10.00">api.hpp</text>
</a>
</g>
</g>
<!-- Node1&#45;&gt;Node2 -->
<g id="edge1" class="edge">
<title>Node1&#45;&gt;Node2</title>
<path fill="none" stroke="midnightblue" d="M106.68,-326.5C102.92,-313.48 97.72,-295.65 93,-280 89.17,-267.31 84.58,-252.66 81.73,-243.61"/>
<polygon fill="midnightblue" stroke="midnightblue" points="103.33,-327.51 109.47,-336.15 110.06,-325.58 103.33,-327.51"/>
</g>
<!-- Node7 -->
<g id="node7" class="node">
<title>Node7</title>
<g id="a_node7"><a xlink:href="help_8hpp.html" target="_top" xlink:title=" ">
<polygon fill="none" stroke="black" points="112.5,-112.5 112.5,-131.5 171.5,-131.5 171.5,-112.5 112.5,-112.5"/>
<text text-anchor="middle" x="142" y="-119.5" font-family="Helvetica,sans-Serif" font-size="10.00">help.hpp</text>
</a>
</g>
</g>
<!-- Node1&#45;&gt;Node7 -->
<g id="edge14" class="edge">
<title>Node1&#45;&gt;Node7</title>
<path fill="none" stroke="midnightblue" d="M114.53,-326.3C120.7,-280.64 136.34,-164.85 140.8,-131.88"/>
<polygon fill="midnightblue" stroke="midnightblue" points="111.05,-325.92 113.18,-336.3 117.98,-326.86 111.05,-325.92"/>
</g>
<!-- Node8 -->
<g id="node8" class="node">
<title>Node8</title>
<g id="a_node8"><a xlink:href="multi__arg_8hpp.html" target="_top" xlink:title=" ">
<polygon fill="none" stroke="black" points="0,-280.5 0,-299.5 84,-299.5 84,-280.5 0,-280.5"/>
<text text-anchor="middle" x="42" y="-287.5" font-family="Helvetica,sans-Serif" font-size="10.00">multi_arg.hpp</text>
</a>
</g>
</g>
<!-- Node1&#45;&gt;Node8 -->
<g id="edge12" class="edge">
<title>Node1&#45;&gt;Node8</title>
<path fill="none" stroke="midnightblue" d="M92.69,-330.1C80.09,-320.38 64.07,-308.03 53.45,-299.83"/>
<polygon fill="midnightblue" stroke="midnightblue" points="90.7,-332.99 100.75,-336.32 94.97,-327.44 90.7,-332.99"/>
</g>
<!-- Node3 -->
<g id="node3" class="node">
<title>Node3</title>
<g id="a_node3"><a xlink:href="cmd__line_8hpp.html" target="_top" xlink:title=" ">
<polygon fill="none" stroke="black" points="74,-56.5 74,-75.5 156,-75.5 156,-56.5 74,-56.5"/>
<text text-anchor="middle" x="115" y="-63.5" font-family="Helvetica,sans-Serif" font-size="10.00">cmd_line.hpp</text>
</a>
</g>
</g>
<!-- Node2&#45;&gt;Node3 -->
<g id="edge2" class="edge">
<title>Node2&#45;&gt;Node3</title>
<path fill="none" stroke="midnightblue" d="M54.63,-218.73C44.05,-211.09 32.78,-200.64 27,-188 23.3,-179.92 23.88,-176.32 27,-168 42.42,-126.84 83.03,-91.4 103.24,-75.67"/>
<polygon fill="midnightblue" stroke="midnightblue" points="52.96,-221.82 63.22,-224.47 56.85,-216 52.96,-221.82"/>
</g>
<!-- Node6 -->
<g id="node6" class="node">
<title>Node6</title>
<g id="a_node6"><a xlink:href="command_8hpp.html" target="_top" xlink:title=" ">
<polygon fill="none" stroke="black" points="36,-168.5 36,-187.5 122,-187.5 122,-168.5 36,-168.5"/>
<text text-anchor="middle" x="79" y="-175.5" font-family="Helvetica,sans-Serif" font-size="10.00">command.hpp</text>
</a>
</g>
</g>
<!-- Node2&#45;&gt;Node6 -->
<g id="edge6" class="edge">
<title>Node2&#45;&gt;Node6</title>
<path fill="none" stroke="midnightblue" d="M72.53,-214.1C71.9,-205.14 72.34,-194.86 73.87,-187.75"/>
<polygon fill="midnightblue" stroke="midnightblue" points="69.07,-214.62 73.83,-224.08 76.01,-213.71 69.07,-214.62"/>
</g>
<!-- Node4 -->
<g id="node4" class="node">
<title>Node4</title>
<g id="a_node4"><a xlink:href="all_8hpp.html" target="_top" xlink:title=" ">
<polygon fill="none" stroke="black" points="146,-0.5 146,-19.5 196,-19.5 196,-0.5 146,-0.5"/>
<text text-anchor="middle" x="171" y="-7.5" font-family="Helvetica,sans-Serif" font-size="10.00">all.hpp</text>
</a>
</g>
</g>
<!-- Node3&#45;&gt;Node4 -->
<g id="edge3" class="edge">
<title>Node3&#45;&gt;Node4</title>
<path fill="none" stroke="midnightblue" d="M131.33,-49.25C141.26,-39.67 153.59,-27.79 161.84,-19.83"/>
<polygon fill="midnightblue" stroke="midnightblue" points="128.77,-46.86 124,-56.32 133.63,-51.9 128.77,-46.86"/>
</g>
<!-- Node5 -->
<g id="node5" class="node">
<title>Node5</title>
<g id="a_node5"><a xlink:href="help__printer_8hpp.html" target="_top" xlink:title=" ">
<polygon fill="none" stroke="black" points="32.5,-0.5 32.5,-19.5 127.5,-19.5 127.5,-0.5 32.5,-0.5"/>
<text text-anchor="middle" x="80" y="-7.5" font-family="Helvetica,sans-Serif" font-size="10.00">help_printer.hpp</text>
</a>
</g>
</g>
<!-- Node3&#45;&gt;Node5 -->
<g id="edge4" class="edge">
<title>Node3&#45;&gt;Node5</title>
<path fill="none" stroke="midnightblue" d="M97.77,-48.14C90.81,-38.74 83.86,-27.4 80.54,-19.75"/>
<polygon fill="midnightblue" stroke="midnightblue" points="95.1,-50.42 104.05,-56.08 100.59,-46.07 95.1,-50.42"/>
</g>
<!-- Node5&#45;&gt;Node3 -->
<g id="edge5" class="edge">
<title>Node5&#45;&gt;Node3</title>
<path fill="none" stroke="midnightblue" d="M97.08,-27.65C104.04,-37.03 111.02,-48.38 114.39,-56.08"/>
<polygon fill="midnightblue" stroke="midnightblue" points="99.76,-25.4 90.8,-19.75 94.28,-29.76 99.76,-25.4"/>
</g>
<!-- Node6&#45;&gt;Node2 -->
<g id="edge7" class="edge">
<title>Node6&#45;&gt;Node2</title>
<path fill="none" stroke="midnightblue" d="M85.46,-197.69C86.11,-206.64 85.68,-216.93 84.17,-224.08"/>
<polygon fill="midnightblue" stroke="midnightblue" points="88.92,-197.2 84.13,-187.75 81.98,-198.13 88.92,-197.2"/>
</g>
<!-- Node6&#45;&gt;Node3 -->
<g id="edge8" class="edge">
<title>Node6&#45;&gt;Node3</title>
<path fill="none" stroke="midnightblue" d="M85,-158.67C92.87,-134.62 106.36,-93.39 112.19,-75.59"/>
<polygon fill="midnightblue" stroke="midnightblue" points="81.61,-157.78 81.82,-168.37 88.26,-159.95 81.61,-157.78"/>
</g>
<!-- Node6&#45;&gt;Node5 -->
<g id="edge11" class="edge">
<title>Node6&#45;&gt;Node5</title>
<path fill="none" stroke="midnightblue" d="M73.75,-158.69C67.64,-134.93 59.12,-92.22 65,-56 67.11,-42.99 72.44,-28.67 76.14,-19.75"/>
<polygon fill="midnightblue" stroke="midnightblue" points="70.4,-159.72 76.4,-168.45 77.15,-157.89 70.4,-159.72"/>
</g>
<!-- Node6&#45;&gt;Node7 -->
<g id="edge9" class="edge">
<title>Node6&#45;&gt;Node7</title>
<path fill="none" stroke="midnightblue" d="M97.04,-161.54C108.27,-151.91 122.32,-139.87 131.69,-131.83"/>
<polygon fill="midnightblue" stroke="midnightblue" points="94.44,-159.16 89.12,-168.32 98.99,-164.47 94.44,-159.16"/>
</g>
<!-- Node7&#45;&gt;Node3 -->
<g id="edge10" class="edge">
<title>Node7&#45;&gt;Node3</title>
<path fill="none" stroke="midnightblue" d="M132.99,-102.98C128.41,-93.82 123.05,-83.09 119.38,-75.75"/>
<polygon fill="midnightblue" stroke="midnightblue" points="129.94,-104.7 137.54,-112.08 136.2,-101.57 129.94,-104.7"/>
</g>
<!-- Node8&#45;&gt;Node2 -->
<g id="edge13" class="edge">
<title>Node8&#45;&gt;Node2</title>
<path fill="none" stroke="midnightblue" d="M53.95,-271.57C60.31,-262.27 67.87,-251.25 73,-243.75"/>
<polygon fill="midnightblue" stroke="midnightblue" points="50.87,-269.86 48.11,-280.08 56.65,-273.81 50.87,-269.86"/>
</g>
</g>
</svg>
