<?xml version="1.0" encoding="UTF-8" standalone="no"?>
<!DOCTYPE svg PUBLIC "-//W3C//DTD SVG 1.1//EN"
 "http://www.w3.org/Graphics/SVG/1.1/DTD/svg11.dtd">
<!-- Generated by graphviz version 2.43.0 (0)
 -->
<!-- Title: arg.hpp Pages: 1 -->
<!--zoomable 252 -->
<svg id="main" version="1.1" xmlns="http://www.w3.org/2000/svg" xmlns:xlink="http://www.w3.org/1999/xlink" xml:space="preserve" onload="init(evt)">
<style type="text/css"><![CDATA[
.edge:hover path { stroke: red; }
.edge:hover polygon { stroke: red; fill: red; }
]]></style>
<script type="text/javascript"><![CDATA[
var edges = document.getElementsByTagName('g');
if (edges && edges.length) {
  for (var i=0;i<edges.length;i++) {
    if (edges[i].id.substr(0,4)=='edge') {
      edges[i].setAttribute('class','edge');
    }
  }
}
]]></script>
        <defs>
                <circle id="rim" cx="0" cy="0" r="7"/>
                <circle id="rim2" cx="0" cy="0" r="3.5"/>
                <g id="zoomPlus">
                        <use xlink:href="#rim" fill="#404040">
                                <set attributeName="fill" to="#808080" begin="zoomplus.mouseover" end="zoomplus.mouseout"/>
                        </use>
                        <path d="M-4,0h8M0,-4v8" fill="none" stroke="white" stroke-width="1.5" pointer-events="none"/>
                </g>
                <g id="zoomMin">
                        <use xlink:href="#rim" fill="#404040">
                                <set attributeName="fill" to="#808080" begin="zoomminus.mouseover" end="zoomminus.mouseout"/>
                        </use>
                        <path d="M-4,0h8" fill="none" stroke="white" stroke-width="1.5" pointer-events="none"/>
                </g>
                <g id="dirArrow">
                        <path fill="none" stroke="white" stroke-width="1.5" d="M0,-3.0v7 M-2.5,-0.5L0,-3.0L2.5,-0.5"/>
                </g>
               <g id="resetDef">
                       <use xlink:href="#rim2" fill="#404040">
                               <set attributeName="fill" to="#808080" begin="reset.mouseover" end="reset.mouseout"/>
                       </use>
               </g>
        </defs>

<script type="text/javascript">
var viewWidth = 517;
var viewHeight = 252;
var sectionId = 'dynsection-0';
</script>
<script xlink:href="svgpan.js"/>
<svg id="graph" class="graph">
<g id="viewport">
<title>arg.hpp</title>
<!-- Node1 -->
<g id="node1" class="node">
<title>Node1</title>
<g id="a_node1"><a xlink:title=" ">
<polygon fill="#bfbfbf" stroke="black" points="223.34,-224.5 223.34,-243.5 276.34,-243.5 276.34,-224.5 223.34,-224.5"/>
<text text-anchor="middle" x="249.84" y="-231.5" font-family="Helvetica,sans-Serif" font-size="10.00">arg.hpp</text>
</a>
</g>
</g>
<!-- Node2 -->
<g id="node2" class="node">
<title>Node2</title>
<g id="a_node2"><a xlink:href="arg__iface_8hpp.html" target="_top" xlink:title=" ">
<polygon fill="none" stroke="black" points="73.34,-168.5 73.34,-187.5 156.34,-187.5 156.34,-168.5 73.34,-168.5"/>
<text text-anchor="middle" x="114.84" y="-175.5" font-family="Helvetica,sans-Serif" font-size="10.00">arg_iface.hpp</text>
</a>
</g>
</g>
<!-- Node1&#45;&gt;Node2 -->
<g id="edge1" class="edge">
<title>Node1&#45;&gt;Node2</title>
<path fill="none" stroke="midnightblue" d="M228.45,-224.44C206.13,-215.52 170.94,-201.44 145.63,-191.32"/>
<polygon fill="midnightblue" stroke="midnightblue" points="146.72,-187.98 136.13,-187.52 144.12,-194.48 146.72,-187.98"/>
</g>
<!-- Node3 -->
<g id="node3" class="node">
<title>Node3</title>
<g id="a_node3"><a xlink:href="utils_8hpp.html" target="_top" xlink:title=" ">
<polygon fill="none" stroke="black" points="149.34,-112.5 149.34,-131.5 208.34,-131.5 208.34,-112.5 149.34,-112.5"/>
<text text-anchor="middle" x="178.84" y="-119.5" font-family="Helvetica,sans-Serif" font-size="10.00">utils.hpp</text>
</a>
</g>
</g>
<!-- Node1&#45;&gt;Node3 -->
<g id="edge11" class="edge">
<title>Node1&#45;&gt;Node3</title>
<path fill="none" stroke="midnightblue" d="M238.65,-224.43C228.4,-216.09 213.42,-202.56 203.84,-188 194.3,-173.49 187.59,-154.81 183.55,-141.2"/>
<polygon fill="midnightblue" stroke="midnightblue" points="186.92,-140.24 180.87,-131.55 180.17,-142.12 186.92,-140.24"/>
</g>
<!-- Node4 -->
<g id="node4" class="node">
<title>Node4</title>
<g id="a_node4"><a xlink:href="types_8hpp.html" target="_top" xlink:title=" ">
<polygon fill="none" stroke="black" points="204.34,-56.5 204.34,-75.5 269.34,-75.5 269.34,-56.5 204.34,-56.5"/>
<text text-anchor="middle" x="236.84" y="-63.5" font-family="Helvetica,sans-Serif" font-size="10.00">types.hpp</text>
</a>
</g>
</g>
<!-- Node1&#45;&gt;Node4 -->
<g id="edge24" class="edge">
<title>Node1&#45;&gt;Node4</title>
<path fill="none" stroke="midnightblue" d="M223.29,-229.93C149.3,-220.36 -49.92,-187.09 11.84,-112 62.54,-50.35 109.99,-89.52 194.37,-75.85"/>
<polygon fill="midnightblue" stroke="midnightblue" points="195.09,-79.28 204.29,-74.03 193.82,-72.4 195.09,-79.28"/>
</g>
<!-- Node8 -->
<g id="node8" class="node">
<title>Node8</title>
<g id="a_node8"><a xlink:title=" ">
<polygon fill="none" stroke="#bfbfbf" points="339.84,-56.5 339.84,-75.5 403.84,-75.5 403.84,-56.5 339.84,-56.5"/>
<text text-anchor="middle" x="371.84" y="-63.5" font-family="Helvetica,sans-Serif" font-size="10.00">algorithm</text>
</a>
</g>
</g>
<!-- Node1&#45;&gt;Node8 -->
<g id="edge25" class="edge">
<title>Node1&#45;&gt;Node8</title>
<path fill="none" stroke="midnightblue" d="M276.74,-232.8C333.37,-230.68 463.17,-216.43 505.84,-132 509.85,-124.07 511.03,-119.22 505.84,-112 500.18,-104.14 450.53,-88.85 413.31,-78.3"/>
<polygon fill="midnightblue" stroke="midnightblue" points="414.24,-74.92 403.66,-75.59 412.34,-81.66 414.24,-74.92"/>
</g>
<!-- Node11 -->
<g id="node11" class="node">
<title>Node11</title>
<g id="a_node11"><a xlink:href="context_8hpp.html" target="_top" xlink:title=" ">
<polygon fill="none" stroke="black" points="212.84,-168.5 212.84,-187.5 286.84,-187.5 286.84,-168.5 212.84,-168.5"/>
<text text-anchor="middle" x="249.84" y="-175.5" font-family="Helvetica,sans-Serif" font-size="10.00">context.hpp</text>
</a>
</g>
</g>
<!-- Node1&#45;&gt;Node11 -->
<g id="edge12" class="edge">
<title>Node1&#45;&gt;Node11</title>
<path fill="none" stroke="midnightblue" d="M249.84,-224.08C249.84,-217.01 249.84,-206.86 249.84,-197.99"/>
<polygon fill="midnightblue" stroke="midnightblue" points="253.34,-197.75 249.84,-187.75 246.34,-197.75 253.34,-197.75"/>
</g>
<!-- Node13 -->
<g id="node13" class="node">
<title>Node13</title>
<g id="a_node13"><a xlink:href="exceptions_8hpp.html" target="_top" xlink:title=" ">
<polygon fill="none" stroke="black" points="405.34,-112.5 405.34,-131.5 496.34,-131.5 496.34,-112.5 405.34,-112.5"/>
<text text-anchor="middle" x="450.84" y="-119.5" font-family="Helvetica,sans-Serif" font-size="10.00">exceptions.hpp</text>
</a>
</g>
</g>
<!-- Node1&#45;&gt;Node13 -->
<g id="edge16" class="edge">
<title>Node1&#45;&gt;Node13</title>
<path fill="none" stroke="midnightblue" d="M276.56,-230.64C309.43,-226.6 365.69,-215.87 404.84,-188 421.86,-175.88 434.81,-155.42 442.57,-140.69"/>
<polygon fill="midnightblue" stroke="midnightblue" points="445.79,-142.09 447.1,-131.58 439.52,-138.97 445.79,-142.09"/>
</g>
<!-- Node15 -->
<g id="node15" class="node">
<title>Node15</title>
<g id="a_node15"><a xlink:href="value__utils_8hpp.html" target="_top" xlink:title=" ">
<polygon fill="none" stroke="black" points="305.34,-168.5 305.34,-187.5 396.34,-187.5 396.34,-168.5 305.34,-168.5"/>
<text text-anchor="middle" x="350.84" y="-175.5" font-family="Helvetica,sans-Serif" font-size="10.00">value_utils.hpp</text>
</a>
</g>
</g>
<!-- Node1&#45;&gt;Node15 -->
<g id="edge19" class="edge">
<title>Node1&#45;&gt;Node15</title>
<path fill="none" stroke="midnightblue" d="M266.07,-224.32C282.19,-215.7 307.14,-202.36 325.8,-192.39"/>
<polygon fill="midnightblue" stroke="midnightblue" points="327.48,-195.46 334.65,-187.65 324.18,-189.28 327.48,-195.46"/>
</g>
<!-- Node2&#45;&gt;Node3 -->
<g id="edge2" class="edge">
<title>Node2&#45;&gt;Node3</title>
<path fill="none" stroke="midnightblue" d="M125.12,-168.32C134.68,-160.26 149.12,-148.08 160.62,-138.37"/>
<polygon fill="midnightblue" stroke="midnightblue" points="162.98,-140.96 168.37,-131.83 158.47,-135.61 162.98,-140.96"/>
</g>
<!-- Node2&#45;&gt;Node4 -->
<g id="edge9" class="edge">
<title>Node2&#45;&gt;Node4</title>
<path fill="none" stroke="midnightblue" d="M116.05,-168.32C118.38,-154.72 124.65,-128.25 139.84,-112 154.52,-96.3 175.77,-85.59 194.64,-78.58"/>
<polygon fill="midnightblue" stroke="midnightblue" points="195.95,-81.83 204.25,-75.24 193.65,-75.21 195.95,-81.83"/>
</g>
<!-- Node10 -->
<g id="node10" class="node">
<title>Node10</title>
<g id="a_node10"><a xlink:href="enums_8hpp.html" target="_top" xlink:title=" ">
<polygon fill="none" stroke="black" points="21.34,-112.5 21.34,-131.5 92.34,-131.5 92.34,-112.5 21.34,-112.5"/>
<text text-anchor="middle" x="56.84" y="-119.5" font-family="Helvetica,sans-Serif" font-size="10.00">enums.hpp</text>
</a>
</g>
</g>
<!-- Node2&#45;&gt;Node10 -->
<g id="edge10" class="edge">
<title>Node2&#45;&gt;Node10</title>
<path fill="none" stroke="midnightblue" d="M105.52,-168.32C96.95,-160.34 84.03,-148.31 73.65,-138.65"/>
<polygon fill="midnightblue" stroke="midnightblue" points="76.03,-136.09 66.33,-131.83 71.26,-141.21 76.03,-136.09"/>
</g>
<!-- Node3&#45;&gt;Node4 -->
<g id="edge3" class="edge">
<title>Node3&#45;&gt;Node4</title>
<path fill="none" stroke="midnightblue" d="M188.16,-112.32C196.73,-104.34 209.65,-92.31 220.03,-82.65"/>
<polygon fill="midnightblue" stroke="midnightblue" points="222.42,-85.21 227.35,-75.83 217.65,-80.09 222.42,-85.21"/>
</g>
<!-- Node3&#45;&gt;Node8 -->
<g id="edge7" class="edge">
<title>Node3&#45;&gt;Node8</title>
<path fill="none" stroke="midnightblue" d="M208.57,-112.68C241.53,-103.46 294.87,-88.54 331.56,-78.27"/>
<polygon fill="midnightblue" stroke="midnightblue" points="332.75,-81.57 341.44,-75.51 330.86,-74.83 332.75,-81.57"/>
</g>
<!-- Node9 -->
<g id="node9" class="node">
<title>Node9</title>
<g id="a_node9"><a xlink:title=" ">
<polygon fill="none" stroke="#bfbfbf" points="117.34,-56.5 117.34,-75.5 186.34,-75.5 186.34,-56.5 117.34,-56.5"/>
<text text-anchor="middle" x="151.84" y="-63.5" font-family="Helvetica,sans-Serif" font-size="10.00">type_traits</text>
</a>
</g>
</g>
<!-- Node3&#45;&gt;Node9 -->
<g id="edge8" class="edge">
<title>Node3&#45;&gt;Node9</title>
<path fill="none" stroke="midnightblue" d="M174.38,-112.08C170.69,-104.69 165.32,-93.95 160.75,-84.81"/>
<polygon fill="midnightblue" stroke="midnightblue" points="163.82,-83.13 156.22,-75.75 157.56,-86.26 163.82,-83.13"/>
</g>
<!-- Node5 -->
<g id="node5" class="node">
<title>Node5</title>
<g id="a_node5"><a xlink:title=" ">
<polygon fill="none" stroke="#bfbfbf" points="144.84,-0.5 144.84,-19.5 188.84,-19.5 188.84,-0.5 144.84,-0.5"/>
<text text-anchor="middle" x="166.84" y="-7.5" font-family="Helvetica,sans-Serif" font-size="10.00">string</text>
</a>
</g>
</g>
<!-- Node4&#45;&gt;Node5 -->
<g id="edge4" class="edge">
<title>Node4&#45;&gt;Node5</title>
<path fill="none" stroke="midnightblue" d="M225.59,-56.32C215.04,-48.18 199.04,-35.84 186.4,-26.09"/>
<polygon fill="midnightblue" stroke="midnightblue" points="188.35,-23.17 178.29,-19.83 184.07,-28.71 188.35,-23.17"/>
</g>
<!-- Node6 -->
<g id="node6" class="node">
<title>Node6</title>
<g id="a_node6"><a xlink:title=" ">
<polygon fill="none" stroke="#bfbfbf" points="206.84,-0.5 206.84,-19.5 266.84,-19.5 266.84,-0.5 206.84,-0.5"/>
<text text-anchor="middle" x="236.84" y="-7.5" font-family="Helvetica,sans-Serif" font-size="10.00">iostream</text>
</a>
</g>
</g>
<!-- Node4&#45;&gt;Node6 -->
<g id="edge5" class="edge">
<title>Node4&#45;&gt;Node6</title>
<path fill="none" stroke="midnightblue" d="M236.84,-56.08C236.84,-49.01 236.84,-38.86 236.84,-29.99"/>
<polygon fill="midnightblue" stroke="midnightblue" points="240.34,-29.75 236.84,-19.75 233.34,-29.75 240.34,-29.75"/>
</g>
<!-- Node7 -->
<g id="node7" class="node">
<title>Node7</title>
<g id="a_node7"><a xlink:title=" ">
<polygon fill="none" stroke="#bfbfbf" points="285.34,-0.5 285.34,-19.5 332.34,-19.5 332.34,-0.5 285.34,-0.5"/>
<text text-anchor="middle" x="308.84" y="-7.5" font-family="Helvetica,sans-Serif" font-size="10.00">vector</text>
</a>
</g>
</g>
<!-- Node4&#45;&gt;Node7 -->
<g id="edge6" class="edge">
<title>Node4&#45;&gt;Node7</title>
<path fill="none" stroke="midnightblue" d="M248.41,-56.32C259.26,-48.18 275.72,-35.84 288.72,-26.09"/>
<polygon fill="midnightblue" stroke="midnightblue" points="291.16,-28.63 297.06,-19.83 286.96,-23.03 291.16,-28.63"/>
</g>
<!-- Node11&#45;&gt;Node3 -->
<g id="edge14" class="edge">
<title>Node11&#45;&gt;Node3</title>
<path fill="none" stroke="midnightblue" d="M238.43,-168.32C227.73,-160.18 211.5,-147.84 198.68,-138.09"/>
<polygon fill="midnightblue" stroke="midnightblue" points="200.53,-135.1 190.45,-131.83 196.3,-140.67 200.53,-135.1"/>
</g>
<!-- Node11&#45;&gt;Node4 -->
<g id="edge15" class="edge">
<title>Node11&#45;&gt;Node4</title>
<path fill="none" stroke="midnightblue" d="M248.82,-168.37C246.72,-150.62 241.88,-109.67 239.04,-85.6"/>
<polygon fill="midnightblue" stroke="midnightblue" points="242.5,-85.11 237.86,-75.59 235.55,-85.93 242.5,-85.11"/>
</g>
<!-- Node12 -->
<g id="node12" class="node">
<title>Node12</title>
<g id="a_node12"><a xlink:title=" ">
<polygon fill="none" stroke="#bfbfbf" points="265.34,-112.5 265.34,-131.5 310.34,-131.5 310.34,-112.5 265.34,-112.5"/>
<text text-anchor="middle" x="287.84" y="-119.5" font-family="Helvetica,sans-Serif" font-size="10.00">utility</text>
</a>
</g>
</g>
<!-- Node11&#45;&gt;Node12 -->
<g id="edge13" class="edge">
<title>Node11&#45;&gt;Node12</title>
<path fill="none" stroke="midnightblue" d="M256.11,-168.08C261.48,-160.46 269.36,-149.26 275.92,-139.94"/>
<polygon fill="midnightblue" stroke="midnightblue" points="278.79,-141.94 281.68,-131.75 273.06,-137.91 278.79,-141.94"/>
</g>
<!-- Node13&#45;&gt;Node4 -->
<g id="edge18" class="edge">
<title>Node13&#45;&gt;Node4</title>
<path fill="none" stroke="midnightblue" d="M416.93,-112.44C379.66,-103.04 319.74,-87.92 279.36,-77.73"/>
<polygon fill="midnightblue" stroke="midnightblue" points="280.09,-74.3 269.54,-75.25 278.38,-81.09 280.09,-74.3"/>
</g>
<!-- Node14 -->
<g id="node14" class="node">
<title>Node14</title>
<g id="a_node14"><a xlink:title=" ">
<polygon fill="none" stroke="#bfbfbf" points="422.34,-56.5 422.34,-75.5 487.34,-75.5 487.34,-56.5 422.34,-56.5"/>
<text text-anchor="middle" x="454.84" y="-63.5" font-family="Helvetica,sans-Serif" font-size="10.00">stdexcept</text>
</a>
</g>
</g>
<!-- Node13&#45;&gt;Node14 -->
<g id="edge17" class="edge">
<title>Node13&#45;&gt;Node14</title>
<path fill="none" stroke="midnightblue" d="M451.5,-112.08C452.02,-105.01 452.78,-94.86 453.43,-85.99"/>
<polygon fill="midnightblue" stroke="midnightblue" points="456.94,-85.98 454.19,-75.75 449.96,-85.47 456.94,-85.98"/>
</g>
<!-- Node15&#45;&gt;Node3 -->
<g id="edge20" class="edge">
<title>Node15&#45;&gt;Node3</title>
<path fill="none" stroke="midnightblue" d="M323.59,-168.44C294.4,-159.28 247.92,-144.69 215.53,-134.52"/>
<polygon fill="midnightblue" stroke="midnightblue" points="216.56,-131.17 205.97,-131.52 214.46,-137.85 216.56,-131.17"/>
</g>
<!-- Node15&#45;&gt;Node4 -->
<g id="edge22" class="edge">
<title>Node15&#45;&gt;Node4</title>
<path fill="none" stroke="midnightblue" d="M348.47,-168.44C344.37,-154.99 334.84,-128.72 318.84,-112 305.33,-97.87 286.39,-87.08 270.12,-79.61"/>
<polygon fill="midnightblue" stroke="midnightblue" points="271.48,-76.39 260.91,-75.6 268.68,-82.8 271.48,-76.39"/>
</g>
<!-- Node15&#45;&gt;Node8 -->
<g id="edge23" class="edge">
<title>Node15&#45;&gt;Node8</title>
<path fill="none" stroke="midnightblue" d="M352.49,-168.37C355.88,-150.62 363.69,-109.67 368.29,-85.6"/>
<polygon fill="midnightblue" stroke="midnightblue" points="371.76,-86.07 370.2,-75.59 364.89,-84.76 371.76,-86.07"/>
</g>
<!-- Node15&#45;&gt;Node13 -->
<g id="edge21" class="edge">
<title>Node15&#45;&gt;Node13</title>
<path fill="none" stroke="midnightblue" d="M366.91,-168.32C382.8,-159.74 407.35,-146.49 425.8,-136.52"/>
<polygon fill="midnightblue" stroke="midnightblue" points="427.68,-139.49 434.81,-131.65 424.35,-133.33 427.68,-139.49"/>
</g>
</g>
</svg>
        <g id="navigator" transform="translate(0 0)" fill="#404254">
                <rect fill="#f2f5e9" fill-opacity="0.5" stroke="#606060" stroke-width=".5" x="0" y="0" width="60" height="60"/>
                <use id="zoomplus" xlink:href="#zoomPlus" x="17" y="9" onmousedown="handleZoom(evt,'in')"/>
                <use id="zoomminus" xlink:href="#zoomMin" x="42" y="9" onmousedown="handleZoom(evt,'out')"/>
                <use id="reset" xlink:href="#resetDef" x="30" y="36" onmousedown="handleReset()"/>
                <g id="arrowUp" xlink:href="#dirArrow" transform="translate(30 24)" onmousedown="handlePan(0,-1)">
                  <use xlink:href="#rim" fill="#404040">
                        <set attributeName="fill" to="#808080" begin="arrowUp.mouseover" end="arrowUp.mouseout"/>
                  </use>
                  <path fill="none" stroke="white" stroke-width="1.5" d="M0,-3.0v7 M-2.5,-0.5L0,-3.0L2.5,-0.5"/>
                </g>
                <g id="arrowRight" xlink:href="#dirArrow" transform="rotate(90) translate(36 -43)" onmousedown="handlePan(1,0)">
                  <use xlink:href="#rim" fill="#404040">
                        <set attributeName="fill" to="#808080" begin="arrowRight.mouseover" end="arrowRight.mouseout"/>
                  </use>
                  <path fill="none" stroke="white" stroke-width="1.5" d="M0,-3.0v7 M-2.5,-0.5L0,-3.0L2.5,-0.5"/>
                </g>
                <g id="arrowDown" xlink:href="#dirArrow" transform="rotate(180) translate(-30 -48)" onmousedown="handlePan(0,1)">
                  <use xlink:href="#rim" fill="#404040">
                        <set attributeName="fill" to="#808080" begin="arrowDown.mouseover" end="arrowDown.mouseout"/>
                  </use>
                  <path fill="none" stroke="white" stroke-width="1.5" d="M0,-3.0v7 M-2.5,-0.5L0,-3.0L2.5,-0.5"/>
                </g>
                <g id="arrowLeft" xlink:href="#dirArrow" transform="rotate(270) translate(-36 17)" onmousedown="handlePan(-1,0)">
                  <use xlink:href="#rim" fill="#404040">
                        <set attributeName="fill" to="#808080" begin="arrowLeft.mouseover" end="arrowLeft.mouseout"/>
                  </use>
                  <path fill="none" stroke="white" stroke-width="1.5" d="M0,-3.0v7 M-2.5,-0.5L0,-3.0L2.5,-0.5"/>
                </g>
        </g>
        <svg viewBox="0 0 15 15" width="100%" height="30px" preserveAspectRatio="xMaxYMin meet">
         <g id="arrow_out" transform="scale(0.3 0.3)">
          <a xlink:href="arg_8hpp__incl_org.svg" target="_base">
           <rect id="button" ry="5" rx="5" y="6" x="6" height="38" width="38"
                fill="#f2f5e9" fill-opacity="0.5" stroke="#606060" stroke-width="1.0"/>
           <path id="arrow"
             d="M 11.500037,31.436501 C 11.940474,20.09759 22.043105,11.32322 32.158766,21.979434 L 37.068811,17.246167 C 37.068811,17.246167 37.088388,32 37.088388,32 L 22.160133,31.978069 C 22.160133,31.978069 26.997745,27.140456 26.997745,27.140456 C 18.528582,18.264221 13.291696,25.230495 11.500037,31.436501 z"
             style="fill:#404040;"/>
          </a>
         </g>
        </svg>
</svg>
