<?xml version="1.0" encoding="UTF-8" standalone="no"?>
<!DOCTYPE svg PUBLIC "-//W3C//DTD SVG 1.1//EN"
 "http://www.w3.org/Graphics/SVG/1.1/DTD/svg11.dtd">
<!-- Generated by graphviz version 2.38.0 (20140413.2041)
 -->
<!-- Title: arg_as_command.hpp Pages: 1 -->
<!--zoomable 476 -->
<svg id="main" version="1.1" xmlns="http://www.w3.org/2000/svg" xmlns:xlink="http://www.w3.org/1999/xlink" xml:space="preserve" onload="init(evt)">
<style type="text/css"><![CDATA[
.edge:hover path { stroke: red; }
.edge:hover polygon { stroke: red; fill: red; }
]]></style>
<script type="text/javascript"><![CDATA[
var edges = document.getElementsByTagName('g');
if (edges && edges.length) {
  for (var i=0;i<edges.length;i++) {
    if (edges[i].id.substr(0,4)=='edge') {
      edges[i].setAttribute('class','edge');
    }
  }
}
]]></script>
        <defs>
                <circle id="rim" cx="0" cy="0" r="7"/>
                <circle id="rim2" cx="0" cy="0" r="3.5"/>
                <g id="zoomPlus">
                        <use xlink:href="#rim" fill="#404040">
                                <set attributeName="fill" to="#808080" begin="zoomplus.mouseover" end="zoomplus.mouseout"/>
                        </use>
                        <path d="M-4,0h8M0,-4v8" fill="none" stroke="white" stroke-width="1.5" pointer-events="none"/>
                </g>
                <g id="zoomMin">
                        <use xlink:href="#rim" fill="#404040">
                                <set attributeName="fill" to="#808080" begin="zoomminus.mouseover" end="zoomminus.mouseout"/>
                        </use>
                        <path d="M-4,0h8" fill="none" stroke="white" stroke-width="1.5" pointer-events="none"/>
                </g>
                <g id="dirArrow">
                        <path fill="none" stroke="white" stroke-width="1.5" d="M0,-3.0v7 M-2.5,-0.5L0,-3.0L2.5,-0.5"/>
                </g>
               <g id="resetDef">
                       <use xlink:href="#rim2" fill="#404040">
                               <set attributeName="fill" to="#808080" begin="reset.mouseover" end="reset.mouseout"/>
                       </use>
               </g>
        </defs>

<script type="text/javascript">
var viewWidth = 1758;
var viewHeight = 476;
var sectionId = 'dynsection-0';
</script>
<script xlink:href="svgpan.js"/>
<svg id="graph" class="graph">
<g id="viewport">
<title>arg_as_command.hpp</title>
<!-- Node1 -->
<g id="node1" class="node"><title>Node1</title>
<polygon fill="#bfbfbf" stroke="black" points="721.5,-448.5 721.5,-467.5 832.5,-467.5 832.5,-448.5 721.5,-448.5"/>
<text text-anchor="middle" x="777" y="-455.5" font-family="FreeSans" font-size="10.00">arg_as_command.hpp</text>
</g>
<!-- Node2 -->
<g id="node2" class="node"><title>Node2</title>
<g id="a_node2"><a xlink:href="arg__iface_8hpp.html" target="_top" xlink:title="arg_iface.hpp">
<polygon fill="none" stroke="black" points="1116,-168.5 1116,-187.5 1190,-187.5 1190,-168.5 1116,-168.5"/>
<text text-anchor="middle" x="1153" y="-175.5" font-family="FreeSans" font-size="10.00">arg_iface.hpp</text>
</a>
</g>
</g>
<!-- Node1&#45;&gt;Node2 -->
<g id="edge1" class="edge"><title>Node1&#45;&gt;Node2</title>
<path fill="none" stroke="midnightblue" d="M832.684,-455.044C1011.57,-448.029 1560,-420.527 1560,-347 1560,-347 1560,-347 1560,-289 1560,-215.242 1307.75,-189.442 1200.42,-181.803"/>
<polygon fill="midnightblue" stroke="midnightblue" points="1200.41,-178.294 1190.2,-181.099 1199.93,-185.277 1200.41,-178.294"/>
</g>
<!-- Node3 -->
<g id="node3" class="node"><title>Node3</title>
<g id="a_node3"><a xlink:href="utils_8hpp.html" target="_top" xlink:title="utils.hpp">
<polygon fill="none" stroke="black" points="1133,-112.5 1133,-131.5 1185,-131.5 1185,-112.5 1133,-112.5"/>
<text text-anchor="middle" x="1159" y="-119.5" font-family="FreeSans" font-size="10.00">utils.hpp</text>
</a>
</g>
</g>
<!-- Node1&#45;&gt;Node3 -->
<g id="edge12" class="edge"><title>Node1&#45;&gt;Node3</title>
<path fill="none" stroke="midnightblue" d="M832.538,-455.802C971.741,-452.394 1332.7,-440.958 1449,-412 1508.07,-397.292 1540.9,-407.093 1574,-356 1609.04,-301.913 1566.99,-260.68 1514,-224 1467.91,-192.096 1454.17,-185.737 1401,-168 1330.15,-144.365 1243.24,-132.027 1195.22,-126.577"/>
<polygon fill="midnightblue" stroke="midnightblue" points="1195.34,-123.069 1185.02,-125.457 1194.58,-130.028 1195.34,-123.069"/>
</g>
<!-- Node5 -->
<g id="node5" class="node"><title>Node5</title>
<g id="a_node5"><a xlink:href="types_8hpp.html" target="_top" xlink:title="types.hpp">
<polygon fill="none" stroke="black" points="544.5,-56.5 544.5,-75.5 601.5,-75.5 601.5,-56.5 544.5,-56.5"/>
<text text-anchor="middle" x="573" y="-63.5" font-family="FreeSans" font-size="10.00">types.hpp</text>
</a>
</g>
</g>
<!-- Node1&#45;&gt;Node5 -->
<g id="edge90" class="edge"><title>Node1&#45;&gt;Node5</title>
<path fill="none" stroke="midnightblue" d="M721.107,-456.036C584.602,-453.216 237.288,-443.116 126,-412 65.315,-395.032 0,-410.012 0,-347 0,-347 0,-347 0,-177 0,-115.169 63.803,-129.853 123,-112 199.633,-88.8885 439.649,-74.0463 534.183,-68.9616"/>
<polygon fill="midnightblue" stroke="midnightblue" points="534.646,-72.4421 544.447,-68.4173 534.275,-65.4519 534.646,-72.4421"/>
</g>
<!-- Node11 -->
<g id="node11" class="node"><title>Node11</title>
<g id="a_node11"><a xlink:href="enums_8hpp.html" target="_top" xlink:title="enums.hpp">
<polygon fill="none" stroke="black" points="1430.5,-112.5 1430.5,-131.5 1493.5,-131.5 1493.5,-112.5 1430.5,-112.5"/>
<text text-anchor="middle" x="1462" y="-119.5" font-family="FreeSans" font-size="10.00">enums.hpp</text>
</a>
</g>
</g>
<!-- Node1&#45;&gt;Node11 -->
<g id="edge89" class="edge"><title>Node1&#45;&gt;Node11</title>
<path fill="none" stroke="midnightblue" d="M832.807,-456.596C1039.56,-454.373 1750,-439.969 1750,-347 1750,-347 1750,-347 1750,-233 1750,-180.945 1583.73,-144.488 1503.86,-129.979"/>
<polygon fill="midnightblue" stroke="midnightblue" points="1504.1,-126.468 1493.64,-128.158 1502.88,-133.359 1504.1,-126.468"/>
</g>
<!-- Node12 -->
<g id="node12" class="node"><title>Node12</title>
<g id="a_node12"><a xlink:href="exceptions_8hpp.html" target="_top" xlink:title="exceptions.hpp">
<polygon fill="none" stroke="black" points="158,-112.5 158,-131.5 238,-131.5 238,-112.5 158,-112.5"/>
<text text-anchor="middle" x="198" y="-119.5" font-family="FreeSans" font-size="10.00">exceptions.hpp</text>
</a>
</g>
</g>
<!-- Node1&#45;&gt;Node12 -->
<g id="edge13" class="edge"><title>Node1&#45;&gt;Node12</title>
<path fill="none" stroke="midnightblue" d="M721.455,-454.578C549.592,-446.354 38,-416.072 38,-347 38,-347 38,-347 38,-233 38,-178.241 102.425,-148.685 149.513,-134.395"/>
<polygon fill="midnightblue" stroke="midnightblue" points="150.634,-137.714 159.268,-131.574 148.69,-130.99 150.634,-137.714"/>
</g>
<!-- Node14 -->
<g id="node14" class="node"><title>Node14</title>
<g id="a_node14"><a xlink:href="cmd__line_8hpp.html" target="_top" xlink:title="cmd_line.hpp">
<polygon fill="none" stroke="black" points="740,-392.5 740,-411.5 814,-411.5 814,-392.5 740,-392.5"/>
<text text-anchor="middle" x="777" y="-399.5" font-family="FreeSans" font-size="10.00">cmd_line.hpp</text>
</a>
</g>
</g>
<!-- Node1&#45;&gt;Node14 -->
<g id="edge16" class="edge"><title>Node1&#45;&gt;Node14</title>
<path fill="none" stroke="midnightblue" d="M777,-448.083C777,-441.006 777,-430.861 777,-421.986"/>
<polygon fill="midnightblue" stroke="midnightblue" points="780.5,-421.751 777,-411.751 773.5,-421.751 780.5,-421.751"/>
</g>
<!-- Node2&#45;&gt;Node3 -->
<g id="edge2" class="edge"><title>Node2&#45;&gt;Node3</title>
<path fill="none" stroke="midnightblue" d="M1153.99,-168.083C1154.79,-160.927 1155.93,-150.635 1156.92,-141.691"/>
<polygon fill="midnightblue" stroke="midnightblue" points="1160.4,-142.076 1158.03,-131.751 1153.44,-141.303 1160.4,-142.076"/>
</g>
<!-- Node2&#45;&gt;Node5 -->
<g id="edge10" class="edge"><title>Node2&#45;&gt;Node5</title>
<path fill="none" stroke="midnightblue" d="M1133.45,-168.484C1100.16,-154.361 1030.05,-126.244 968,-112 839.709,-82.5487 683.35,-72.004 611.939,-68.5411"/>
<polygon fill="midnightblue" stroke="midnightblue" points="611.78,-65.03 601.628,-68.0622 611.455,-72.0225 611.78,-65.03"/>
</g>
<!-- Node2&#45;&gt;Node11 -->
<g id="edge11" class="edge"><title>Node2&#45;&gt;Node11</title>
<path fill="none" stroke="midnightblue" d="M1190.27,-170.486C1248.24,-160.357 1359.6,-140.894 1420.21,-130.303"/>
<polygon fill="midnightblue" stroke="midnightblue" points="1420.95,-133.726 1430.2,-128.557 1419.75,-126.831 1420.95,-133.726"/>
</g>
<!-- Node4 -->
<g id="node4" class="node"><title>Node4</title>
<polygon fill="none" stroke="#bfbfbf" points="1134,-56.5 1134,-75.5 1174,-75.5 1174,-56.5 1134,-56.5"/>
<text text-anchor="middle" x="1154" y="-63.5" font-family="FreeSans" font-size="10.00">regex</text>
</g>
<!-- Node3&#45;&gt;Node4 -->
<g id="edge3" class="edge"><title>Node3&#45;&gt;Node4</title>
<path fill="none" stroke="midnightblue" d="M1158.17,-112.083C1157.52,-105.006 1156.58,-94.8611 1155.76,-85.9865"/>
<polygon fill="midnightblue" stroke="midnightblue" points="1159.22,-85.3858 1154.81,-75.7511 1152.25,-86.0312 1159.22,-85.3858"/>
</g>
<!-- Node3&#45;&gt;Node5 -->
<g id="edge4" class="edge"><title>Node3&#45;&gt;Node5</title>
<path fill="none" stroke="midnightblue" d="M1132.68,-118.575C1039.16,-109.956 722.521,-80.7784 611.695,-70.5658"/>
<polygon fill="midnightblue" stroke="midnightblue" points="611.906,-67.0704 601.627,-69.638 611.264,-74.0409 611.906,-67.0704"/>
</g>
<!-- Node9 -->
<g id="node9" class="node"><title>Node9</title>
<polygon fill="none" stroke="#bfbfbf" points="1060,-56.5 1060,-75.5 1116,-75.5 1116,-56.5 1060,-56.5"/>
<text text-anchor="middle" x="1088" y="-63.5" font-family="FreeSans" font-size="10.00">algorithm</text>
</g>
<!-- Node3&#45;&gt;Node9 -->
<g id="edge8" class="edge"><title>Node3&#45;&gt;Node9</title>
<path fill="none" stroke="midnightblue" d="M1147.59,-112.324C1136.89,-104.185 1120.66,-91.8395 1107.84,-82.0874"/>
<polygon fill="midnightblue" stroke="midnightblue" points="1109.69,-79.1018 1099.61,-75.8339 1105.46,-84.6734 1109.69,-79.1018"/>
</g>
<!-- Node10 -->
<g id="node10" class="node"><title>Node10</title>
<polygon fill="none" stroke="#bfbfbf" points="1192.5,-56.5 1192.5,-75.5 1253.5,-75.5 1253.5,-56.5 1192.5,-56.5"/>
<text text-anchor="middle" x="1223" y="-63.5" font-family="FreeSans" font-size="10.00">type_traits</text>
</g>
<!-- Node3&#45;&gt;Node10 -->
<g id="edge9" class="edge"><title>Node3&#45;&gt;Node10</title>
<path fill="none" stroke="midnightblue" d="M1169.28,-112.324C1178.84,-104.263 1193.28,-92.0765 1204.78,-82.3695"/>
<polygon fill="midnightblue" stroke="midnightblue" points="1207.14,-84.9577 1212.53,-75.8339 1202.63,-79.6076 1207.14,-84.9577"/>
</g>
<!-- Node6 -->
<g id="node6" class="node"><title>Node6</title>
<polygon fill="none" stroke="#bfbfbf" points="586,-0.5 586,-19.5 626,-19.5 626,-0.5 586,-0.5"/>
<text text-anchor="middle" x="606" y="-7.5" font-family="FreeSans" font-size="10.00">string</text>
</g>
<!-- Node5&#45;&gt;Node6 -->
<g id="edge5" class="edge"><title>Node5&#45;&gt;Node6</title>
<path fill="none" stroke="midnightblue" d="M578.449,-56.083C583.014,-48.6127 589.668,-37.7244 595.293,-28.5199"/>
<polygon fill="midnightblue" stroke="midnightblue" points="598.424,-30.109 600.652,-19.7511 592.451,-26.4588 598.424,-30.109"/>
</g>
<!-- Node7 -->
<g id="node7" class="node"><title>Node7</title>
<polygon fill="none" stroke="#bfbfbf" points="514.5,-0.5 514.5,-19.5 567.5,-19.5 567.5,-0.5 514.5,-0.5"/>
<text text-anchor="middle" x="541" y="-7.5" font-family="FreeSans" font-size="10.00">iostream</text>
</g>
<!-- Node5&#45;&gt;Node7 -->
<g id="edge6" class="edge"><title>Node5&#45;&gt;Node7</title>
<path fill="none" stroke="midnightblue" d="M567.716,-56.083C563.289,-48.6127 556.837,-37.7244 551.382,-28.5199"/>
<polygon fill="midnightblue" stroke="midnightblue" points="554.295,-26.5697 546.186,-19.7511 548.273,-30.1383 554.295,-26.5697"/>
</g>
<!-- Node8 -->
<g id="node8" class="node"><title>Node8</title>
<polygon fill="none" stroke="#bfbfbf" points="1311.5,-0.5 1311.5,-19.5 1354.5,-19.5 1354.5,-0.5 1311.5,-0.5"/>
<text text-anchor="middle" x="1333" y="-7.5" font-family="FreeSans" font-size="10.00">vector</text>
</g>
<!-- Node5&#45;&gt;Node8 -->
<g id="edge7" class="edge"><title>Node5&#45;&gt;Node8</title>
<path fill="none" stroke="midnightblue" d="M601.865,-62.9491C721.344,-54.4598 1176.74,-22.1029 1301.33,-13.2504"/>
<polygon fill="midnightblue" stroke="midnightblue" points="1301.64,-16.7374 1311.36,-12.5374 1301.14,-9.75505 1301.64,-16.7374"/>
</g>
<!-- Node12&#45;&gt;Node5 -->
<g id="edge15" class="edge"><title>Node12&#45;&gt;Node5</title>
<path fill="none" stroke="midnightblue" d="M238.086,-114.201C242.774,-113.44 247.491,-112.692 252,-112 353.535,-96.4245 473.48,-80.1815 533.956,-72.1421"/>
<polygon fill="midnightblue" stroke="midnightblue" points="534.736,-75.5693 544.189,-70.7846 533.816,-68.6301 534.736,-75.5693"/>
</g>
<!-- Node13 -->
<g id="node13" class="node"><title>Node13</title>
<polygon fill="none" stroke="#bfbfbf" points="169,-56.5 169,-75.5 227,-75.5 227,-56.5 169,-56.5"/>
<text text-anchor="middle" x="198" y="-63.5" font-family="FreeSans" font-size="10.00">stdexcept</text>
</g>
<!-- Node12&#45;&gt;Node13 -->
<g id="edge14" class="edge"><title>Node12&#45;&gt;Node13</title>
<path fill="none" stroke="midnightblue" d="M198,-112.083C198,-105.006 198,-94.8611 198,-85.9865"/>
<polygon fill="midnightblue" stroke="midnightblue" points="201.5,-85.751 198,-75.7511 194.5,-85.7511 201.5,-85.751"/>
</g>
<!-- Node14&#45;&gt;Node3 -->
<g id="edge56" class="edge"><title>Node14&#45;&gt;Node3</title>
<path fill="none" stroke="midnightblue" d="M814.069,-399.76C911.33,-396.146 1171.91,-384.056 1253,-356 1326.35,-330.622 1360.45,-316.936 1387,-244 1393.25,-226.825 1394.58,-181.157 1383,-168 1358.69,-140.394 1252.05,-129.169 1195.12,-125.079"/>
<polygon fill="midnightblue" stroke="midnightblue" points="1195.31,-121.584 1185.1,-124.396 1194.83,-128.568 1195.31,-121.584"/>
</g>
<!-- Node14&#45;&gt;Node8 -->
<g id="edge75" class="edge"><title>Node14&#45;&gt;Node8</title>
<path fill="none" stroke="midnightblue" d="M814.23,-400.604C988.129,-398.273 1712,-383.04 1712,-291 1712,-291 1712,-291 1712,-121 1712,-48.9169 1455.95,-21.0151 1364.77,-13.3644"/>
<polygon fill="midnightblue" stroke="midnightblue" points="1364.99,-9.87091 1354.74,-12.5493 1364.42,-16.8479 1364.99,-9.87091"/>
</g>
<!-- Node14&#45;&gt;Node9 -->
<g id="edge76" class="edge"><title>Node14&#45;&gt;Node9</title>
<path fill="none" stroke="midnightblue" d="M814.31,-400.54C899.814,-398.882 1116.18,-391.237 1293,-356 1373.92,-339.874 1402.16,-346.971 1470,-300 1519.87,-265.468 1531.65,-246.416 1548,-188 1553.96,-166.695 1542.5,-115.25 1539,-112 1506.9,-82.1537 1203.77,-83.2701 1126.57,-75.6317"/>
<polygon fill="midnightblue" stroke="midnightblue" points="1126.55,-72.1021 1116.19,-74.3246 1125.68,-79.0472 1126.55,-72.1021"/>
</g>
<!-- Node14&#45;&gt;Node12 -->
<g id="edge58" class="edge"><title>Node14&#45;&gt;Node12</title>
<path fill="none" stroke="midnightblue" d="M739.806,-399.132C594.884,-391.368 76,-358.832 76,-291 76,-291 76,-291 76,-233 76,-184.568 129.688,-151.986 165.834,-135.538"/>
<polygon fill="midnightblue" stroke="midnightblue" points="167.287,-138.723 175.053,-131.515 164.487,-132.307 167.287,-138.723"/>
</g>
<!-- Node15 -->
<g id="node15" class="node"><title>Node15</title>
<g id="a_node15"><a xlink:href="api_8hpp.html" target="_top" xlink:title="api.hpp">
<polygon fill="none" stroke="black" points="427.5,-336.5 427.5,-355.5 474.5,-355.5 474.5,-336.5 427.5,-336.5"/>
<text text-anchor="middle" x="451" y="-343.5" font-family="FreeSans" font-size="10.00">api.hpp</text>
</a>
</g>
</g>
<!-- Node14&#45;&gt;Node15 -->
<g id="edge17" class="edge"><title>Node14&#45;&gt;Node15</title>
<path fill="none" stroke="midnightblue" d="M739.557,-396.095C684.456,-388.662 578.387,-373.541 489,-356 487.545,-355.714 486.061,-355.412 484.563,-355.097"/>
<polygon fill="midnightblue" stroke="midnightblue" points="485.175,-351.648 474.655,-352.902 483.661,-358.483 485.175,-351.648"/>
</g>
<!-- Node17 -->
<g id="node17" class="node"><title>Node17</title>
<g id="a_node17"><a xlink:href="context_8hpp.html" target="_top" xlink:title="context.hpp">
<polygon fill="none" stroke="black" points="446,-168.5 446,-187.5 512,-187.5 512,-168.5 446,-168.5"/>
<text text-anchor="middle" x="479" y="-175.5" font-family="FreeSans" font-size="10.00">context.hpp</text>
</a>
</g>
</g>
<!-- Node14&#45;&gt;Node17 -->
<g id="edge57" class="edge"><title>Node14&#45;&gt;Node17</title>
<path fill="none" stroke="midnightblue" d="M752.512,-392.436C712.614,-377.714 632.286,-344.814 575,-300 536.795,-270.112 504.65,-222.048 489.076,-196.417"/>
<polygon fill="midnightblue" stroke="midnightblue" points="492.059,-194.585 483.941,-187.777 486.041,-198.162 492.059,-194.585"/>
</g>
<!-- Node23 -->
<g id="node23" class="node"><title>Node23</title>
<polygon fill="none" stroke="#bfbfbf" points="666.5,-168.5 666.5,-187.5 717.5,-187.5 717.5,-168.5 666.5,-168.5"/>
<text text-anchor="middle" x="692" y="-175.5" font-family="FreeSans" font-size="10.00">memory</text>
</g>
<!-- Node14&#45;&gt;Node23 -->
<g id="edge77" class="edge"><title>Node14&#45;&gt;Node23</title>
<path fill="none" stroke="midnightblue" d="M773.668,-392.297C761.108,-359.494 716.46,-242.884 699.036,-197.377"/>
<polygon fill="midnightblue" stroke="midnightblue" points="702.246,-195.971 695.401,-187.884 695.709,-198.474 702.246,-195.971"/>
</g>
<!-- Node24 -->
<g id="node24" class="node"><title>Node24</title>
<g id="a_node24"><a xlink:href="command_8hpp.html" target="_top" xlink:title="command.hpp">
<polygon fill="none" stroke="black" points="859.5,-280.5 859.5,-299.5 936.5,-299.5 936.5,-280.5 859.5,-280.5"/>
<text text-anchor="middle" x="898" y="-287.5" font-family="FreeSans" font-size="10.00">command.hpp</text>
</a>
</g>
</g>
<!-- Node14&#45;&gt;Node24 -->
<g id="edge59" class="edge"><title>Node14&#45;&gt;Node24</title>
<path fill="none" stroke="midnightblue" d="M786.495,-392.368C806.905,-373.814 855.196,-329.913 881.019,-306.438"/>
<polygon fill="midnightblue" stroke="midnightblue" points="883.504,-308.908 888.549,-299.591 878.796,-303.728 883.504,-308.908"/>
</g>
<!-- Node25 -->
<g id="node25" class="node"><title>Node25</title>
<g id="a_node25"><a xlink:href="help_8hpp.html" target="_top" xlink:title="help.hpp">
<polygon fill="none" stroke="black" points="584.5,-280.5 584.5,-299.5 637.5,-299.5 637.5,-280.5 584.5,-280.5"/>
<text text-anchor="middle" x="611" y="-287.5" font-family="FreeSans" font-size="10.00">help.hpp</text>
</a>
</g>
</g>
<!-- Node14&#45;&gt;Node25 -->
<g id="edge66" class="edge"><title>Node14&#45;&gt;Node25</title>
<path fill="none" stroke="midnightblue" d="M763.519,-392.468C749.378,-383.486 726.535,-368.89 707,-356 680.894,-338.775 651.11,-318.512 631.732,-305.246"/>
<polygon fill="midnightblue" stroke="midnightblue" points="633.591,-302.277 623.364,-299.509 629.633,-308.05 633.591,-302.277"/>
</g>
<!-- Node27 -->
<g id="node27" class="node"><title>Node27</title>
<g id="a_node27"><a xlink:href="help__printer_8hpp.html" target="_top" xlink:title="help_printer.hpp">
<polygon fill="none" stroke="black" points="1159.5,-336.5 1159.5,-355.5 1244.5,-355.5 1244.5,-336.5 1159.5,-336.5"/>
<text text-anchor="middle" x="1202" y="-343.5" font-family="FreeSans" font-size="10.00">help_printer.hpp</text>
</a>
</g>
</g>
<!-- Node14&#45;&gt;Node27 -->
<g id="edge78" class="edge"><title>Node14&#45;&gt;Node27</title>
<path fill="none" stroke="midnightblue" d="M814.343,-396.255C890.136,-386.625 1062.2,-364.763 1149.33,-353.692"/>
<polygon fill="midnightblue" stroke="midnightblue" points="1149.79,-357.161 1159.27,-352.429 1148.91,-350.217 1149.79,-357.161"/>
</g>
<!-- Node15&#45;&gt;Node1 -->
<g id="edge55" class="edge"><title>Node15&#45;&gt;Node1</title>
<path fill="none" stroke="midnightblue" d="M474.744,-355.012C531.519,-374.169 675.357,-422.703 742.052,-445.208"/>
<polygon fill="midnightblue" stroke="midnightblue" points="741.096,-448.579 751.691,-448.46 743.334,-441.947 741.096,-448.579"/>
</g>
<!-- Node15&#45;&gt;Node5 -->
<g id="edge18" class="edge"><title>Node15&#45;&gt;Node5</title>
<path fill="none" stroke="midnightblue" d="M427.303,-342.469C350.594,-333.627 114,-301.007 114,-235 114,-235 114,-235 114,-177 114,-144.189 121.76,-130.29 149,-112 211.431,-70.082 441.825,-66.3556 534.258,-66.6028"/>
<polygon fill="midnightblue" stroke="midnightblue" points="534.297,-70.1029 544.312,-66.6471 534.328,-63.103 534.297,-70.1029"/>
</g>
<!-- Node16 -->
<g id="node16" class="node"><title>Node16</title>
<g id="a_node16"><a xlink:href="arg_8hpp.html" target="_top" xlink:title="arg.hpp">
<polygon fill="none" stroke="black" points="531,-224.5 531,-243.5 579,-243.5 579,-224.5 531,-224.5"/>
<text text-anchor="middle" x="555" y="-231.5" font-family="FreeSans" font-size="10.00">arg.hpp</text>
</a>
</g>
</g>
<!-- Node15&#45;&gt;Node16 -->
<g id="edge19" class="edge"><title>Node15&#45;&gt;Node16</title>
<path fill="none" stroke="midnightblue" d="M459.161,-336.368C476.552,-317.974 517.493,-274.671 539.824,-251.052"/>
<polygon fill="midnightblue" stroke="midnightblue" points="542.55,-253.262 546.877,-243.591 537.464,-248.453 542.55,-253.262"/>
</g>
<!-- Node20 -->
<g id="node20" class="node"><title>Node20</title>
<g id="a_node20"><a xlink:href="multi__arg_8hpp.html" target="_top" xlink:title="multi_arg.hpp">
<polygon fill="none" stroke="black" points="371,-280.5 371,-299.5 445,-299.5 445,-280.5 371,-280.5"/>
<text text-anchor="middle" x="408" y="-287.5" font-family="FreeSans" font-size="10.00">multi_arg.hpp</text>
</a>
</g>
</g>
<!-- Node15&#45;&gt;Node20 -->
<g id="edge34" class="edge"><title>Node15&#45;&gt;Node20</title>
<path fill="none" stroke="midnightblue" d="M443.899,-336.083C437.763,-328.377 428.73,-317.033 421.261,-307.653"/>
<polygon fill="midnightblue" stroke="midnightblue" points="423.936,-305.394 414.968,-299.751 418.46,-309.754 423.936,-305.394"/>
</g>
<!-- Node21 -->
<g id="node21" class="node"><title>Node21</title>
<g id="a_node21"><a xlink:href="groups_8hpp.html" target="_top" xlink:title="groups.hpp">
<polygon fill="none" stroke="black" points="954.5,-280.5 954.5,-299.5 1017.5,-299.5 1017.5,-280.5 954.5,-280.5"/>
<text text-anchor="middle" x="986" y="-287.5" font-family="FreeSans" font-size="10.00">groups.hpp</text>
</a>
</g>
</g>
<!-- Node15&#45;&gt;Node21 -->
<g id="edge42" class="edge"><title>Node15&#45;&gt;Node21</title>
<path fill="none" stroke="midnightblue" d="M474.526,-343.905C544.504,-340.427 757.542,-328.248 944.292,-299.909"/>
<polygon fill="midnightblue" stroke="midnightblue" points="944.938,-303.351 954.29,-298.372 943.874,-296.432 944.938,-303.351"/>
</g>
<!-- Node16&#45;&gt;Node2 -->
<g id="edge20" class="edge"><title>Node16&#45;&gt;Node2</title>
<path fill="none" stroke="midnightblue" d="M579.183,-230.816C669.101,-222.697 985.15,-194.157 1105.75,-183.267"/>
<polygon fill="midnightblue" stroke="midnightblue" points="1106.14,-186.746 1115.79,-182.36 1105.51,-179.774 1106.14,-186.746"/>
</g>
<!-- Node16&#45;&gt;Node3 -->
<g id="edge21" class="edge"><title>Node16&#45;&gt;Node3</title>
<path fill="none" stroke="midnightblue" d="M579.05,-228.62C672.36,-211.626 1010.79,-149.992 1122.75,-129.601"/>
<polygon fill="midnightblue" stroke="midnightblue" points="1123.66,-132.994 1132.87,-127.759 1122.4,-126.108 1123.66,-132.994"/>
</g>
<!-- Node16&#45;&gt;Node5 -->
<g id="edge32" class="edge"><title>Node16&#45;&gt;Node5</title>
<path fill="none" stroke="midnightblue" d="M530.691,-230.353C492.015,-224.88 422.256,-209.177 437,-168 453.176,-122.823 503.977,-94.2057 538.696,-79.3908"/>
<polygon fill="midnightblue" stroke="midnightblue" points="540.09,-82.6021 548.02,-75.576 537.439,-76.1234 540.09,-82.6021"/>
</g>
<!-- Node16&#45;&gt;Node9 -->
<g id="edge33" class="edge"><title>Node16&#45;&gt;Node9</title>
<path fill="none" stroke="midnightblue" d="M567.435,-224.266C590.286,-208.354 638.322,-175.584 657,-168 730.17,-138.291 754.035,-149.686 831,-132 909.261,-114.016 1000.23,-90.3524 1050.22,-77.105"/>
<polygon fill="midnightblue" stroke="midnightblue" points="1051.19,-80.4699 1059.96,-74.5207 1049.39,-73.7044 1051.19,-80.4699"/>
</g>
<!-- Node16&#45;&gt;Node12 -->
<g id="edge26" class="edge"><title>Node16&#45;&gt;Node12</title>
<path fill="none" stroke="midnightblue" d="M530.904,-225.948C501.07,-217.188 448.72,-201.718 404,-188 344.38,-169.712 275.295,-147.756 234.198,-134.615"/>
<polygon fill="midnightblue" stroke="midnightblue" points="235.215,-131.265 224.624,-131.551 233.081,-137.932 235.215,-131.265"/>
</g>
<!-- Node16&#45;&gt;Node17 -->
<g id="edge22" class="edge"><title>Node16&#45;&gt;Node17</title>
<path fill="none" stroke="midnightblue" d="M542.789,-224.324C531.224,-216.107 513.625,-203.602 499.839,-193.807"/>
<polygon fill="midnightblue" stroke="midnightblue" points="501.612,-190.773 491.433,-187.834 497.557,-196.479 501.612,-190.773"/>
</g>
<!-- Node19 -->
<g id="node19" class="node"><title>Node19</title>
<g id="a_node19"><a xlink:href="value__utils_8hpp.html" target="_top" xlink:title="value_utils.hpp">
<polygon fill="none" stroke="black" points="530,-168.5 530,-187.5 610,-187.5 610,-168.5 530,-168.5"/>
<text text-anchor="middle" x="570" y="-175.5" font-family="FreeSans" font-size="10.00">value_utils.hpp</text>
</a>
</g>
</g>
<!-- Node16&#45;&gt;Node19 -->
<g id="edge27" class="edge"><title>Node16&#45;&gt;Node19</title>
<path fill="none" stroke="midnightblue" d="M557.477,-224.083C559.486,-216.849 562.386,-206.409 564.89,-197.397"/>
<polygon fill="midnightblue" stroke="midnightblue" points="568.265,-198.323 567.569,-187.751 561.52,-196.449 568.265,-198.323"/>
</g>
<!-- Node17&#45;&gt;Node3 -->
<g id="edge24" class="edge"><title>Node17&#45;&gt;Node3</title>
<path fill="none" stroke="midnightblue" d="M512.395,-169.401C515.296,-168.875 518.194,-168.398 521,-168 748.302,-135.793 1024.59,-126.257 1122.48,-123.78"/>
<polygon fill="midnightblue" stroke="midnightblue" points="1122.82,-127.273 1132.73,-123.53 1122.65,-120.275 1122.82,-127.273"/>
</g>
<!-- Node17&#45;&gt;Node5 -->
<g id="edge25" class="edge"><title>Node17&#45;&gt;Node5</title>
<path fill="none" stroke="midnightblue" d="M479.225,-168.086C479.991,-154.632 483.172,-128.915 496,-112 506.925,-97.5948 523.903,-86.9686 539.14,-79.671"/>
<polygon fill="midnightblue" stroke="midnightblue" points="540.636,-82.8356 548.332,-75.5533 537.775,-76.4473 540.636,-82.8356"/>
</g>
<!-- Node18 -->
<g id="node18" class="node"><title>Node18</title>
<polygon fill="none" stroke="#bfbfbf" points="505.5,-112.5 505.5,-131.5 544.5,-131.5 544.5,-112.5 505.5,-112.5"/>
<text text-anchor="middle" x="525" y="-119.5" font-family="FreeSans" font-size="10.00">utility</text>
</g>
<!-- Node17&#45;&gt;Node18 -->
<g id="edge23" class="edge"><title>Node17&#45;&gt;Node18</title>
<path fill="none" stroke="midnightblue" d="M486.596,-168.083C493.227,-160.298 503.021,-148.801 511.058,-139.367"/>
<polygon fill="midnightblue" stroke="midnightblue" points="513.725,-141.633 517.545,-131.751 508.396,-137.094 513.725,-141.633"/>
</g>
<!-- Node19&#45;&gt;Node3 -->
<g id="edge28" class="edge"><title>Node19&#45;&gt;Node3</title>
<path fill="none" stroke="midnightblue" d="M610.271,-172.718C624.972,-171.186 641.734,-169.474 657,-168 831.389,-151.164 1040.07,-133.137 1122.73,-126.08"/>
<polygon fill="midnightblue" stroke="midnightblue" points="1123.19,-129.553 1132.86,-125.216 1122.6,-122.579 1123.19,-129.553"/>
</g>
<!-- Node19&#45;&gt;Node5 -->
<g id="edge30" class="edge"><title>Node19&#45;&gt;Node5</title>
<path fill="none" stroke="midnightblue" d="M570.235,-168.368C570.72,-150.617 571.836,-109.666 572.493,-85.5974"/>
<polygon fill="midnightblue" stroke="midnightblue" points="575.992,-85.6832 572.766,-75.5914 568.994,-85.4922 575.992,-85.6832"/>
</g>
<!-- Node19&#45;&gt;Node9 -->
<g id="edge31" class="edge"><title>Node19&#45;&gt;Node9</title>
<path fill="none" stroke="midnightblue" d="M606.558,-168.49C661.486,-155.776 768.617,-131.256 860,-112 926.661,-97.9534 1004.57,-82.86 1049.9,-74.2113"/>
<polygon fill="midnightblue" stroke="midnightblue" points="1050.7,-77.6203 1059.87,-72.3111 1049.39,-70.7439 1050.7,-77.6203"/>
</g>
<!-- Node19&#45;&gt;Node12 -->
<g id="edge29" class="edge"><title>Node19&#45;&gt;Node12</title>
<path fill="none" stroke="midnightblue" d="M529.913,-169.491C526.899,-168.972 523.903,-168.469 521,-168 424.769,-152.467 311.885,-137.473 248.27,-129.319"/>
<polygon fill="midnightblue" stroke="midnightblue" points="248.478,-125.818 238.116,-128.022 247.591,-132.761 248.478,-125.818"/>
</g>
<!-- Node20&#45;&gt;Node3 -->
<g id="edge39" class="edge"><title>Node20&#45;&gt;Node3</title>
<path fill="none" stroke="midnightblue" d="M445.105,-286.861C570.467,-279.561 973.64,-255.444 1031,-244 1040.65,-242.075 1193.25,-195.981 1199,-188 1210.88,-171.523 1194.19,-151.475 1178.89,-138.039"/>
<polygon fill="midnightblue" stroke="midnightblue" points="1181.11,-135.335 1171.17,-131.669 1176.65,-140.734 1181.11,-135.335"/>
</g>
<!-- Node20&#45;&gt;Node5 -->
<g id="edge40" class="edge"><title>Node20&#45;&gt;Node5</title>
<path fill="none" stroke="midnightblue" d="M405.27,-280.486C402.549,-271.52 398.558,-256.935 397,-244 389.638,-182.877 394.717,-154.769 439,-112 464.817,-87.0656 504.872,-75.934 534.47,-70.9723"/>
<polygon fill="midnightblue" stroke="midnightblue" points="535.098,-74.4172 544.463,-69.462 534.052,-67.4958 535.098,-74.4172"/>
</g>
<!-- Node20&#45;&gt;Node12 -->
<g id="edge37" class="edge"><title>Node20&#45;&gt;Node12</title>
<path fill="none" stroke="midnightblue" d="M370.826,-285.496C337.091,-280.744 287.362,-269.66 252,-244 218.277,-219.53 205.242,-169.115 200.502,-141.718"/>
<polygon fill="midnightblue" stroke="midnightblue" points="203.915,-140.883 198.942,-131.528 196.995,-141.943 203.915,-140.883"/>
</g>
<!-- Node20&#45;&gt;Node16 -->
<g id="edge35" class="edge"><title>Node20&#45;&gt;Node16</title>
<path fill="none" stroke="midnightblue" d="M431.293,-280.444C455.807,-271.438 494.596,-257.189 522.2,-247.049"/>
<polygon fill="midnightblue" stroke="midnightblue" points="523.637,-250.25 531.816,-243.516 521.223,-243.679 523.637,-250.25"/>
</g>
<!-- Node20&#45;&gt;Node17 -->
<g id="edge36" class="edge"><title>Node20&#45;&gt;Node17</title>
<path fill="none" stroke="midnightblue" d="M406.426,-280.316C404.508,-267.161 402.683,-241.829 413,-224 421.07,-210.053 435.41,-199.497 448.666,-192.126"/>
<polygon fill="midnightblue" stroke="midnightblue" points="450.296,-195.224 457.58,-187.53 447.088,-189.002 450.296,-195.224"/>
</g>
<!-- Node20&#45;&gt;Node18 -->
<g id="edge41" class="edge"><title>Node20&#45;&gt;Node18</title>
<path fill="none" stroke="midnightblue" d="M405.488,-280.403C402.213,-267.784 397.511,-243.619 403,-224 410.846,-195.96 415.674,-187.824 437,-168 453.939,-152.254 477.433,-140.615 495.886,-133.123"/>
<polygon fill="midnightblue" stroke="midnightblue" points="497.218,-136.36 505.279,-129.485 494.69,-129.833 497.218,-136.36"/>
</g>
<!-- Node20&#45;&gt;Node19 -->
<g id="edge38" class="edge"><title>Node20&#45;&gt;Node19</title>
<path fill="none" stroke="midnightblue" d="M420.712,-280.368C448.511,-261.492 514.942,-216.385 549.033,-193.237"/>
<polygon fill="midnightblue" stroke="midnightblue" points="551.04,-196.105 557.347,-187.591 547.108,-190.313 551.04,-196.105"/>
</g>
<!-- Node21&#45;&gt;Node5 -->
<g id="edge53" class="edge"><title>Node21&#45;&gt;Node5</title>
<path fill="none" stroke="midnightblue" d="M970.063,-280.433C907.085,-246.581 675.249,-121.962 598.133,-80.5096"/>
<polygon fill="midnightblue" stroke="midnightblue" points="599.578,-77.3127 589.112,-75.6608 596.263,-83.4784 599.578,-77.3127"/>
</g>
<!-- Node21&#45;&gt;Node9 -->
<g id="edge54" class="edge"><title>Node21&#45;&gt;Node9</title>
<path fill="none" stroke="midnightblue" d="M1017.75,-287.868C1099.37,-284.564 1314.6,-273.25 1379,-244 1446.32,-213.427 1472.12,-199.626 1502,-132 1535.1,-57.1018 1229.88,-87.8353 1126.15,-75.7068"/>
<polygon fill="midnightblue" stroke="midnightblue" points="1126.59,-72.2341 1116.2,-74.2996 1125.61,-79.1652 1126.59,-72.2341"/>
</g>
<!-- Node22 -->
<g id="node22" class="node"><title>Node22</title>
<g id="a_node22"><a xlink:href="group__iface_8hpp.html" target="_top" xlink:title="group_iface.hpp">
<polygon fill="none" stroke="black" points="937.5,-224.5 937.5,-243.5 1022.5,-243.5 1022.5,-224.5 937.5,-224.5"/>
<text text-anchor="middle" x="980" y="-231.5" font-family="FreeSans" font-size="10.00">group_iface.hpp</text>
</a>
</g>
</g>
<!-- Node21&#45;&gt;Node22 -->
<g id="edge43" class="edge"><title>Node21&#45;&gt;Node22</title>
<path fill="none" stroke="midnightblue" d="M985.009,-280.083C984.214,-272.927 983.071,-262.635 982.077,-253.691"/>
<polygon fill="midnightblue" stroke="midnightblue" points="985.555,-253.303 980.972,-243.751 978.598,-254.076 985.555,-253.303"/>
</g>
<!-- Node22&#45;&gt;Node2 -->
<g id="edge44" class="edge"><title>Node22&#45;&gt;Node2</title>
<path fill="none" stroke="midnightblue" d="M1007.41,-224.444C1036.77,-215.28 1083.52,-200.688 1116.1,-190.519"/>
<polygon fill="midnightblue" stroke="midnightblue" points="1117.21,-193.837 1125.72,-187.516 1115.13,-187.155 1117.21,-193.837"/>
</g>
<!-- Node22&#45;&gt;Node3 -->
<g id="edge45" class="edge"><title>Node22&#45;&gt;Node3</title>
<path fill="none" stroke="midnightblue" d="M994.046,-224.368C1024.89,-205.412 1098.79,-160.001 1136.31,-136.942"/>
<polygon fill="midnightblue" stroke="midnightblue" points="1138.33,-139.809 1145.02,-131.591 1134.67,-133.845 1138.33,-139.809"/>
</g>
<!-- Node22&#45;&gt;Node5 -->
<g id="edge47" class="edge"><title>Node22&#45;&gt;Node5</title>
<path fill="none" stroke="midnightblue" d="M973.858,-224.435C957.021,-201.692 907.531,-139.636 850,-112 771.404,-74.245 667.323,-67.2855 611.801,-66.5158"/>
<polygon fill="midnightblue" stroke="midnightblue" points="611.718,-63.0151 601.691,-66.4375 611.664,-70.0149 611.718,-63.0151"/>
</g>
<!-- Node22&#45;&gt;Node8 -->
<g id="edge48" class="edge"><title>Node22&#45;&gt;Node8</title>
<path fill="none" stroke="midnightblue" d="M980.599,-224.251C983.098,-195.066 995.359,-100.4 1051,-56 1089.18,-25.5363 1235.64,-15.3091 1301.08,-12.2139"/>
<polygon fill="midnightblue" stroke="midnightblue" points="1301.39,-15.7036 1311.23,-11.761 1301.08,-8.71056 1301.39,-15.7036"/>
</g>
<!-- Node22&#45;&gt;Node9 -->
<g id="edge50" class="edge"><title>Node22&#45;&gt;Node9</title>
<path fill="none" stroke="midnightblue" d="M985.807,-224.075C1003.03,-197.606 1054.03,-119.209 1076.8,-84.2097"/>
<polygon fill="midnightblue" stroke="midnightblue" points="1079.91,-85.859 1082.43,-75.5681 1074.04,-82.0415 1079.91,-85.859"/>
</g>
<!-- Node22&#45;&gt;Node10 -->
<g id="edge49" class="edge"><title>Node22&#45;&gt;Node10</title>
<path fill="none" stroke="midnightblue" d="M1022.78,-229.752C1079.37,-224.555 1174.79,-212.373 1199,-188 1225.95,-160.865 1226.98,-112.71 1225.14,-86.0632"/>
<polygon fill="midnightblue" stroke="midnightblue" points="1228.59,-85.4276 1224.21,-75.7845 1221.62,-86.0597 1228.59,-85.4276"/>
</g>
<!-- Node22&#45;&gt;Node12 -->
<g id="edge46" class="edge"><title>Node22&#45;&gt;Node12</title>
<path fill="none" stroke="midnightblue" d="M944.009,-224.422C907.238,-215.583 848.529,-201.262 798,-188 765.876,-179.569 758.687,-173.88 726,-168 552.325,-136.758 342.493,-127.07 248.184,-124.176"/>
<polygon fill="midnightblue" stroke="midnightblue" points="248.172,-120.674 238.073,-123.879 247.966,-127.671 248.172,-120.674"/>
</g>
<!-- Node22&#45;&gt;Node18 -->
<g id="edge51" class="edge"><title>Node22&#45;&gt;Node18</title>
<path fill="none" stroke="midnightblue" d="M959.903,-224.474C926.748,-210.716 858.254,-183.591 798,-168 711.134,-145.523 605.686,-131.889 555.022,-126.16"/>
<polygon fill="midnightblue" stroke="midnightblue" points="555.108,-122.648 544.783,-125.026 554.337,-129.606 555.108,-122.648"/>
</g>
<!-- Node22&#45;&gt;Node23 -->
<g id="edge52" class="edge"><title>Node22&#45;&gt;Node23</title>
<path fill="none" stroke="midnightblue" d="M937.194,-224.974C880.344,-214.314 780.942,-195.677 727.841,-185.72"/>
<polygon fill="midnightblue" stroke="midnightblue" points="728.338,-182.253 717.865,-183.85 727.048,-189.133 728.338,-182.253"/>
</g>
<!-- Node24&#45;&gt;Node3 -->
<g id="edge61" class="edge"><title>Node24&#45;&gt;Node3</title>
<path fill="none" stroke="midnightblue" d="M936.725,-281.564C939.525,-281.032 942.306,-280.507 945,-280 1031.61,-263.712 1054.66,-265.988 1140,-244 1159.05,-239.091 1296.5,-203.962 1308,-188 1338.32,-145.93 1248.35,-130.766 1195.15,-125.557"/>
<polygon fill="midnightblue" stroke="midnightblue" points="1195.32,-122.058 1185.05,-124.643 1194.69,-129.03 1195.32,-122.058"/>
</g>
<!-- Node24&#45;&gt;Node5 -->
<g id="edge65" class="edge"><title>Node24&#45;&gt;Node5</title>
<path fill="none" stroke="midnightblue" d="M893.934,-280.326C879.894,-251.379 830.423,-157.374 760,-112 714.52,-82.697 651.704,-72.4604 611.713,-68.8937"/>
<polygon fill="midnightblue" stroke="midnightblue" points="611.813,-65.3907 601.568,-68.0884 611.259,-72.3687 611.813,-65.3907"/>
</g>
<!-- Node24&#45;&gt;Node11 -->
<g id="edge64" class="edge"><title>Node24&#45;&gt;Node11</title>
<path fill="none" stroke="midnightblue" d="M936.677,-281.274C939.489,-280.811 942.285,-280.38 945,-280 1034.48,-267.488 1268.89,-283.816 1350,-244 1397.37,-220.745 1434.6,-168.231 1451.73,-140.661"/>
<polygon fill="midnightblue" stroke="midnightblue" points="1454.94,-142.104 1457.11,-131.732 1448.95,-138.49 1454.94,-142.104"/>
</g>
<!-- Node24&#45;&gt;Node17 -->
<g id="edge62" class="edge"><title>Node24&#45;&gt;Node17</title>
<path fill="none" stroke="midnightblue" d="M859.33,-280.888C819.486,-272.361 755.66,-258.231 701,-244 635.379,-226.915 559.745,-204.091 515.854,-190.531"/>
<polygon fill="midnightblue" stroke="midnightblue" points="516.782,-187.154 506.194,-187.537 514.71,-193.841 516.782,-187.154"/>
</g>
<!-- Node24&#45;&gt;Node19 -->
<g id="edge63" class="edge"><title>Node24&#45;&gt;Node19</title>
<path fill="none" stroke="midnightblue" d="M872.535,-280.46C814.409,-260.966 671.856,-213.159 605.302,-190.839"/>
<polygon fill="midnightblue" stroke="midnightblue" points="606.269,-187.472 595.675,-187.61 604.043,-194.108 606.269,-187.472"/>
</g>
<!-- Node24&#45;&gt;Node22 -->
<g id="edge60" class="edge"><title>Node24&#45;&gt;Node22</title>
<path fill="none" stroke="midnightblue" d="M911.175,-280.324C923.847,-271.979 943.233,-259.212 958.206,-249.352"/>
<polygon fill="midnightblue" stroke="midnightblue" points="960.431,-252.078 966.858,-243.655 956.581,-246.231 960.431,-252.078"/>
</g>
<!-- Node25&#45;&gt;Node3 -->
<g id="edge71" class="edge"><title>Node25&#45;&gt;Node3</title>
<path fill="none" stroke="midnightblue" d="M637.648,-287.931C726.751,-284.143 1013.67,-270.162 1102,-244 1120.3,-238.58 1122.26,-231.032 1140,-224 1195.74,-201.912 1233.7,-235.715 1270,-188 1293.12,-157.606 1235.82,-138.814 1195.23,-129.686"/>
<polygon fill="midnightblue" stroke="midnightblue" points="1195.83,-126.237 1185.32,-127.572 1194.37,-133.083 1195.83,-126.237"/>
</g>
<!-- Node25&#45;&gt;Node5 -->
<g id="edge73" class="edge"><title>Node25&#45;&gt;Node5</title>
<path fill="none" stroke="midnightblue" d="M584.267,-283.271C542.509,-272.699 463.25,-245.713 431,-188 416.709,-162.425 451.291,-117.351 457,-112 478.47,-91.8747 509.938,-80.4255 534.684,-74.1176"/>
<polygon fill="midnightblue" stroke="midnightblue" points="535.563,-77.5063 544.486,-71.7938 533.948,-70.6951 535.563,-77.5063"/>
</g>
<!-- Node25&#45;&gt;Node12 -->
<g id="edge72" class="edge"><title>Node25&#45;&gt;Node12</title>
<path fill="none" stroke="midnightblue" d="M584.449,-283.853C527.954,-272.227 392.615,-240.761 290,-188 262.499,-173.86 233.871,-152.389 216.001,-138.038"/>
<polygon fill="midnightblue" stroke="midnightblue" points="218.105,-135.238 208.144,-131.628 213.68,-140.662 218.105,-135.238"/>
</g>
<!-- Node25&#45;&gt;Node16 -->
<g id="edge67" class="edge"><title>Node25&#45;&gt;Node16</title>
<path fill="none" stroke="midnightblue" d="M602.003,-280.324C593.806,-272.42 581.494,-260.548 571.528,-250.938"/>
<polygon fill="midnightblue" stroke="midnightblue" points="573.789,-248.256 564.161,-243.834 568.93,-253.295 573.789,-248.256"/>
</g>
<!-- Node25&#45;&gt;Node17 -->
<g id="edge70" class="edge"><title>Node25&#45;&gt;Node17</title>
<path fill="none" stroke="midnightblue" d="M610.165,-280.257C608.414,-266.562 603.169,-239.97 588,-224 577.703,-213.159 543.673,-200.04 516.344,-190.771"/>
<polygon fill="midnightblue" stroke="midnightblue" points="517.228,-187.377 506.635,-187.542 515.019,-194.019 517.228,-187.377"/>
</g>
<!-- Node25&#45;&gt;Node23 -->
<g id="edge74" class="edge"><title>Node25&#45;&gt;Node23</title>
<path fill="none" stroke="midnightblue" d="M617.356,-280.368C630.782,-262.135 662.232,-219.426 679.721,-195.675"/>
<polygon fill="midnightblue" stroke="midnightblue" points="682.562,-197.719 685.674,-187.591 676.926,-193.568 682.562,-197.719"/>
</g>
<!-- Node26 -->
<g id="node26" class="node"><title>Node26</title>
<g id="a_node26"><a xlink:href="help__printer__iface_8hpp.html" target="_top" xlink:title="help_printer_iface.hpp">
<polygon fill="none" stroke="black" points="1230.5,-224.5 1230.5,-243.5 1341.5,-243.5 1341.5,-224.5 1230.5,-224.5"/>
<text text-anchor="middle" x="1286" y="-231.5" font-family="FreeSans" font-size="10.00">help_printer_iface.hpp</text>
</a>
</g>
</g>
<!-- Node25&#45;&gt;Node26 -->
<g id="edge68" class="edge"><title>Node25&#45;&gt;Node26</title>
<path fill="none" stroke="midnightblue" d="M637.877,-286.85C735.873,-279.01 1075.79,-251.817 1220.24,-240.261"/>
<polygon fill="midnightblue" stroke="midnightblue" points="1220.6,-243.743 1230.29,-239.457 1220.05,-236.765 1220.6,-243.743"/>
</g>
<!-- Node26&#45;&gt;Node3 -->
<g id="edge69" class="edge"><title>Node26&#45;&gt;Node3</title>
<path fill="none" stroke="midnightblue" d="M1304.42,-224.35C1327.7,-212.251 1362.82,-189.352 1346,-168 1327.61,-144.664 1244.44,-132.027 1195.43,-126.491"/>
<polygon fill="midnightblue" stroke="midnightblue" points="1195.55,-122.984 1185.23,-125.386 1194.79,-129.943 1195.55,-122.984"/>
</g>
<!-- Node27&#45;&gt;Node3 -->
<g id="edge82" class="edge"><title>Node27&#45;&gt;Node3</title>
<path fill="none" stroke="midnightblue" d="M1239.73,-336.436C1263.34,-329.613 1293.28,-318.133 1315,-300 1362.92,-259.996 1402.1,-216.664 1363,-168 1342.34,-142.289 1248.07,-130.398 1195.21,-125.667"/>
<polygon fill="midnightblue" stroke="midnightblue" points="1195.49,-122.178 1185.22,-124.814 1194.89,-129.152 1195.49,-122.178"/>
</g>
<!-- Node27&#45;&gt;Node5 -->
<g id="edge87" class="edge"><title>Node27&#45;&gt;Node5</title>
<path fill="none" stroke="midnightblue" d="M1193.54,-336.342C1158.77,-301.329 1021.96,-169.363 881,-112 789.631,-74.8185 671.965,-67.7817 611.959,-66.8048"/>
<polygon fill="midnightblue" stroke="midnightblue" points="611.831,-63.3032 601.792,-66.6892 611.751,-70.3028 611.831,-63.3032"/>
</g>
<!-- Node27&#45;&gt;Node8 -->
<g id="edge79" class="edge"><title>Node27&#45;&gt;Node8</title>
<path fill="none" stroke="midnightblue" d="M1244.8,-338.055C1354.29,-319.084 1636,-262.192 1636,-179 1636,-179 1636,-179 1636,-121 1636,-63.8091 1442.86,-27.8228 1364.98,-15.6368"/>
<polygon fill="midnightblue" stroke="midnightblue" points="1365.21,-12.1302 1354.79,-14.0756 1364.15,-19.0495 1365.21,-12.1302"/>
</g>
<!-- Node27&#45;&gt;Node9 -->
<g id="edge80" class="edge"><title>Node27&#45;&gt;Node9</title>
<path fill="none" stroke="midnightblue" d="M1234.38,-336.468C1332.78,-309.115 1615.75,-219.116 1518,-112 1489.94,-81.2552 1200.02,-82.9295 1126.13,-75.5751"/>
<polygon fill="midnightblue" stroke="midnightblue" points="1126.56,-72.1017 1116.19,-74.3109 1125.67,-79.0457 1126.56,-72.1017"/>
</g>
<!-- Node27&#45;&gt;Node12 -->
<g id="edge83" class="edge"><title>Node27&#45;&gt;Node12</title>
<path fill="none" stroke="midnightblue" d="M1159.44,-344.65C1010.9,-343.126 516.159,-335.449 362,-300 299.494,-285.627 275.164,-288.525 229,-244 201.127,-217.117 197.056,-168.862 197.143,-142.132"/>
<polygon fill="midnightblue" stroke="midnightblue" points="200.649,-141.9 197.391,-131.819 193.651,-141.732 200.649,-141.9"/>
</g>
<!-- Node27&#45;&gt;Node21 -->
<g id="edge85" class="edge"><title>Node27&#45;&gt;Node21</title>
<path fill="none" stroke="midnightblue" d="M1167.77,-336.444C1129.72,-326.93 1068.26,-311.565 1027.5,-301.374"/>
<polygon fill="midnightblue" stroke="midnightblue" points="1028.16,-297.931 1017.61,-298.902 1026.46,-304.722 1028.16,-297.931"/>
</g>
<!-- Node27&#45;&gt;Node22 -->
<g id="edge84" class="edge"><title>Node27&#45;&gt;Node22</title>
<path fill="none" stroke="midnightblue" d="M1184.58,-336.368C1145.84,-317.171 1052.34,-270.842 1006.39,-248.074"/>
<polygon fill="midnightblue" stroke="midnightblue" points="1007.85,-244.895 997.339,-243.591 1004.75,-251.167 1007.85,-244.895"/>
</g>
<!-- Node27&#45;&gt;Node24 -->
<g id="edge86" class="edge"><title>Node27&#45;&gt;Node24</title>
<path fill="none" stroke="midnightblue" d="M1159.22,-337.722C1110.27,-329.35 1027.44,-315.036 947.022,-300.351"/>
<polygon fill="midnightblue" stroke="midnightblue" points="947.186,-296.823 936.72,-298.465 945.926,-303.708 947.186,-296.823"/>
</g>
<!-- Node27&#45;&gt;Node26 -->
<g id="edge88" class="edge"><title>Node27&#45;&gt;Node26</title>
<path fill="none" stroke="midnightblue" d="M1243.47,-336.497C1263.59,-330.06 1285.95,-318.952 1298,-300 1307.02,-285.817 1301.79,-266.588 1295.66,-252.729"/>
<polygon fill="midnightblue" stroke="midnightblue" points="1298.79,-251.162 1291.24,-243.735 1292.51,-254.253 1298.79,-251.162"/>
</g>
<!-- Node28 -->
<g id="node28" class="node"><title>Node28</title>
<polygon fill="none" stroke="#bfbfbf" points="1230.5,-280.5 1230.5,-299.5 1289.5,-299.5 1289.5,-280.5 1230.5,-280.5"/>
<text text-anchor="middle" x="1260" y="-287.5" font-family="FreeSans" font-size="10.00">functional</text>
</g>
<!-- Node27&#45;&gt;Node28 -->
<g id="edge81" class="edge"><title>Node27&#45;&gt;Node28</title>
<path fill="none" stroke="midnightblue" d="M1211.32,-336.324C1219.89,-328.341 1232.81,-316.313 1243.19,-306.653"/>
<polygon fill="midnightblue" stroke="midnightblue" points="1245.58,-309.21 1250.51,-299.834 1240.81,-304.086 1245.58,-309.21"/>
</g>
</g>
</svg>
        <g id="navigator" transform="translate(0 0)" fill="#404254">
                <rect fill="#f2f5e9" fill-opacity="0.5" stroke="#606060" stroke-width=".5" x="0" y="0" width="60" height="60"/>
                <use id="zoomplus" xlink:href="#zoomPlus" x="17" y="9" onmousedown="handleZoom(evt,'in')"/>
                <use id="zoomminus" xlink:href="#zoomMin" x="42" y="9" onmousedown="handleZoom(evt,'out')"/>
                <use id="reset" xlink:href="#resetDef" x="30" y="36" onmousedown="handleReset()"/>
                <g id="arrowUp" xlink:href="#dirArrow" transform="translate(30 24)" onmousedown="handlePan(0,-1)">
                  <use xlink:href="#rim" fill="#404040">
                        <set attributeName="fill" to="#808080" begin="arrowUp.mouseover" end="arrowUp.mouseout"/>
                  </use>
                  <path fill="none" stroke="white" stroke-width="1.5" d="M0,-3.0v7 M-2.5,-0.5L0,-3.0L2.5,-0.5"/>
                </g>
                <g id="arrowRight" xlink:href="#dirArrow" transform="rotate(90) translate(36 -43)" onmousedown="handlePan(1,0)">
                  <use xlink:href="#rim" fill="#404040">
                        <set attributeName="fill" to="#808080" begin="arrowRight.mouseover" end="arrowRight.mouseout"/>
                  </use>
                  <path fill="none" stroke="white" stroke-width="1.5" d="M0,-3.0v7 M-2.5,-0.5L0,-3.0L2.5,-0.5"/>
                </g>
                <g id="arrowDown" xlink:href="#dirArrow" transform="rotate(180) translate(-30 -48)" onmousedown="handlePan(0,1)">
                  <use xlink:href="#rim" fill="#404040">
                        <set attributeName="fill" to="#808080" begin="arrowDown.mouseover" end="arrowDown.mouseout"/>
                  </use>
                  <path fill="none" stroke="white" stroke-width="1.5" d="M0,-3.0v7 M-2.5,-0.5L0,-3.0L2.5,-0.5"/>
                </g>
                <g id="arrowLeft" xlink:href="#dirArrow" transform="rotate(270) translate(-36 17)" onmousedown="handlePan(-1,0)">
                  <use xlink:href="#rim" fill="#404040">
                        <set attributeName="fill" to="#808080" begin="arrowLeft.mouseover" end="arrowLeft.mouseout"/>
                  </use>
                  <path fill="none" stroke="white" stroke-width="1.5" d="M0,-3.0v7 M-2.5,-0.5L0,-3.0L2.5,-0.5"/>
                </g>
        </g>
        <svg viewBox="0 0 15 15" width="100%" height="30px" preserveAspectRatio="xMaxYMin meet">
         <g id="arrow_out" transform="scale(0.3 0.3)">
          <a xlink:href="arg__as__command_8hpp__incl_org.svg" target="_base">
           <rect id="button" ry="5" rx="5" y="6" x="6" height="38" width="38"
                fill="#f2f5e9" fill-opacity="0.5" stroke="#606060" stroke-width="1.0"/>
           <path id="arrow"
             d="M 11.500037,31.436501 C 11.940474,20.09759 22.043105,11.32322 32.158766,21.979434 L 37.068811,17.246167 C 37.068811,17.246167 37.088388,32 37.088388,32 L 22.160133,31.978069 C 22.160133,31.978069 26.997745,27.140456 26.997745,27.140456 C 18.528582,18.264221 13.291696,25.230495 11.500037,31.436501 z"
             style="fill:#404040;"/>
          </a>
         </g>
        </svg>
</svg>
