<?xml version="1.0" encoding="UTF-8" standalone="no"?>
<!DOCTYPE svg PUBLIC "-//W3C//DTD SVG 1.1//EN"
 "http://www.w3.org/Graphics/SVG/1.1/DTD/svg11.dtd">
<!-- Generated by graphviz version 2.38.0 (20140413.2041)
 -->
<!-- Title: arg.hpp Pages: 1 -->
<svg width="181pt" height="252pt"
 viewBox="0.00 0.00 180.50 252.00" xmlns="http://www.w3.org/2000/svg" xmlns:xlink="http://www.w3.org/1999/xlink">
<g id="graph0" class="graph" transform="scale(1 1) rotate(0) translate(4 248)">
<title>arg.hpp</title>
<!-- Node1 -->
<g id="node1" class="node"><title>Node1</title>
<polygon fill="#bfbfbf" stroke="black" points="34.5,-224.5 34.5,-243.5 82.5,-243.5 82.5,-224.5 34.5,-224.5"/>
<text text-anchor="middle" x="58.5" y="-231.5" font-family="FreeSans" font-size="10.00">arg.hpp</text>
</g>
<!-- Node2 -->
<g id="node2" class="node"><title>Node2</title>
<g id="a_node2"><a xlink:href="api_8hpp.html" target="_top" xlink:title="api.hpp">
<polygon fill="none" stroke="black" points="32,-112.5 32,-131.5 79,-131.5 79,-112.5 32,-112.5"/>
<text text-anchor="middle" x="55.5" y="-119.5" font-family="FreeSans" font-size="10.00">api.hpp</text>
</a>
</g>
</g>
<!-- Node1&#45;&gt;Node2 -->
<g id="edge1" class="edge"><title>Node1&#45;&gt;Node2</title>
<path fill="none" stroke="midnightblue" d="M36.7875,-218.066C27.4437,-210.308 17.5258,-199.947 12.5,-188 3.26614,-166.049 27.0531,-143.558 42.8216,-131.645"/>
<polygon fill="midnightblue" stroke="midnightblue" points="34.66,-220.845 44.7135,-224.189 38.9392,-215.306 34.66,-220.845"/>
</g>
<!-- Node6 -->
<g id="node6" class="node"><title>Node6</title>
<g id="a_node6"><a xlink:href="multi__arg_8hpp.html" target="_top" xlink:title="multi_arg.hpp">
<polygon fill="none" stroke="black" points="21.5,-168.5 21.5,-187.5 95.5,-187.5 95.5,-168.5 21.5,-168.5"/>
<text text-anchor="middle" x="58.5" y="-175.5" font-family="FreeSans" font-size="10.00">multi_arg.hpp</text>
</a>
</g>
</g>
<!-- Node1&#45;&gt;Node6 -->
<g id="edge6" class="edge"><title>Node1&#45;&gt;Node6</title>
<path fill="none" stroke="midnightblue" d="M58.5,-213.805C58.5,-204.91 58.5,-194.78 58.5,-187.751"/>
<polygon fill="midnightblue" stroke="midnightblue" points="55.0001,-214.083 58.5,-224.083 62.0001,-214.083 55.0001,-214.083"/>
</g>
<!-- Node7 -->
<g id="node7" class="node"><title>Node7</title>
<g id="a_node7"><a xlink:href="help_8hpp.html" target="_top" xlink:title="help.hpp">
<polygon fill="none" stroke="black" points="97,-112.5 97,-131.5 150,-131.5 150,-112.5 97,-112.5"/>
<text text-anchor="middle" x="123.5" y="-119.5" font-family="FreeSans" font-size="10.00">help.hpp</text>
</a>
</g>
</g>
<!-- Node1&#45;&gt;Node7 -->
<g id="edge8" class="edge"><title>Node1&#45;&gt;Node7</title>
<path fill="none" stroke="midnightblue" d="M78.2991,-217.705C87.431,-209.732 97.7232,-199.296 104.5,-188 115.508,-169.651 120.467,-144.539 122.415,-131.554"/>
<polygon fill="midnightblue" stroke="midnightblue" points="75.8295,-215.206 70.3731,-224.288 80.302,-220.591 75.8295,-215.206"/>
</g>
<!-- Node3 -->
<g id="node3" class="node"><title>Node3</title>
<g id="a_node3"><a xlink:href="cmd__line_8hpp.html" target="_top" xlink:title="cmd_line.hpp">
<polygon fill="none" stroke="black" points="84.5,-56.5 84.5,-75.5 158.5,-75.5 158.5,-56.5 84.5,-56.5"/>
<text text-anchor="middle" x="121.5" y="-63.5" font-family="FreeSans" font-size="10.00">cmd_line.hpp</text>
</a>
</g>
</g>
<!-- Node2&#45;&gt;Node3 -->
<g id="edge2" class="edge"><title>Node2&#45;&gt;Node3</title>
<path fill="none" stroke="midnightblue" d="M74.0537,-105.82C85.8781,-96.1452 100.786,-83.9481 110.703,-75.8339"/>
<polygon fill="midnightblue" stroke="midnightblue" points="71.6273,-103.283 66.104,-112.324 76.06,-108.7 71.6273,-103.283"/>
</g>
<!-- Node4 -->
<g id="node4" class="node"><title>Node4</title>
<g id="a_node4"><a xlink:href="all_8hpp.html" target="_top" xlink:title="all.hpp">
<polygon fill="none" stroke="black" points="128.5,-0.5 128.5,-19.5 172.5,-19.5 172.5,-0.5 128.5,-0.5"/>
<text text-anchor="middle" x="150.5" y="-7.5" font-family="FreeSans" font-size="10.00">all.hpp</text>
</a>
</g>
</g>
<!-- Node3&#45;&gt;Node4 -->
<g id="edge3" class="edge"><title>Node3&#45;&gt;Node4</title>
<path fill="none" stroke="midnightblue" d="M131.176,-46.9827C136.098,-37.8168 141.858,-27.0922 145.8,-19.7511"/>
<polygon fill="midnightblue" stroke="midnightblue" points="127.937,-45.6171 126.289,-56.083 134.104,-48.929 127.937,-45.6171"/>
</g>
<!-- Node5 -->
<g id="node5" class="node"><title>Node5</title>
<g id="a_node5"><a xlink:href="arg__as__command_8hpp.html" target="_top" xlink:title="arg_as_command.hpp">
<polygon fill="none" stroke="black" points="-7.10543e-15,-0.5 -7.10543e-15,-19.5 111,-19.5 111,-0.5 -7.10543e-15,-0.5"/>
<text text-anchor="middle" x="55.5" y="-7.5" font-family="FreeSans" font-size="10.00">arg_as_command.hpp</text>
</a>
</g>
</g>
<!-- Node3&#45;&gt;Node5 -->
<g id="edge4" class="edge"><title>Node3&#45;&gt;Node5</title>
<path fill="none" stroke="midnightblue" d="M102.946,-49.8197C91.1219,-40.1452 76.2144,-27.9481 66.297,-19.8339"/>
<polygon fill="midnightblue" stroke="midnightblue" points="100.94,-52.7004 110.896,-56.324 105.373,-47.2827 100.94,-52.7004"/>
</g>
<!-- Node5&#45;&gt;Node2 -->
<g id="edge5" class="edge"><title>Node5&#45;&gt;Node2</title>
<path fill="none" stroke="midnightblue" d="M55.5,-29.5974C55.5,-53.6664 55.5,-94.617 55.5,-112.368"/>
<polygon fill="midnightblue" stroke="midnightblue" points="59.0001,-29.5914 55.5,-19.5914 52.0001,-29.5915 59.0001,-29.5914"/>
</g>
<!-- Node6&#45;&gt;Node2 -->
<g id="edge7" class="edge"><title>Node6&#45;&gt;Node2</title>
<path fill="none" stroke="midnightblue" d="M57.4336,-157.805C56.9395,-148.91 56.3767,-138.78 55.9862,-131.751"/>
<polygon fill="midnightblue" stroke="midnightblue" points="53.9552,-158.293 58.0046,-168.083 60.9444,-157.904 53.9552,-158.293"/>
</g>
<!-- Node7&#45;&gt;Node3 -->
<g id="edge9" class="edge"><title>Node7&#45;&gt;Node3</title>
<path fill="none" stroke="midnightblue" d="M122.789,-101.805C122.46,-92.9102 122.084,-82.7798 121.824,-75.7511"/>
<polygon fill="midnightblue" stroke="midnightblue" points="119.302,-102.219 123.17,-112.083 126.297,-101.96 119.302,-102.219"/>
</g>
</g>
</svg>
