<?xml version="1.0" encoding="UTF-8" standalone="no"?>
<!DOCTYPE svg PUBLIC "-//W3C//DTD SVG 1.1//EN"
 "http://www.w3.org/Graphics/SVG/1.1/DTD/svg11.dtd">
<!-- Generated by graphviz version 2.43.0 (0)
 -->
<!-- Title: arg_iface.hpp Pages: 1 -->
<svg width="309pt" height="412pt"
 viewBox="0.00 0.00 308.97 412.00" xmlns="http://www.w3.org/2000/svg" xmlns:xlink="http://www.w3.org/1999/xlink">
<g id="graph0" class="graph" transform="scale(1 1) rotate(0) translate(4 408)">
<title>arg_iface.hpp</title>
<!-- Node1 -->
<g id="node1" class="node">
<title>Node1</title>
<g id="a_node1"><a xlink:title=" ">
<polygon fill="#bfbfbf" stroke="black" points="191.47,-404 108.47,-404 108.47,-385 191.47,-385 191.47,-404"/>
<text text-anchor="middle" x="149.97" y="-392" font-family="Helvetica,sans-Serif" font-size="10.00">arg_iface.hpp</text>
</a>
</g>
</g>
<!-- Node2 -->
<g id="node2" class="node">
<title>Node2</title>
<g id="a_node2"><a xlink:href="arg_8hpp.html" target="_top" xlink:title=" ">
<polygon fill="none" stroke="black" points="130.47,-349 77.47,-349 77.47,-330 130.47,-330 130.47,-349"/>
<text text-anchor="middle" x="103.97" y="-337" font-family="Helvetica,sans-Serif" font-size="10.00">arg.hpp</text>
</a>
</g>
</g>
<!-- Node1&#45;&gt;Node2 -->
<g id="edge1" class="edge">
<title>Node1&#45;&gt;Node2</title>
<path fill="none" stroke="midnightblue" d="M135.62,-376.96C127.6,-367.72 117.95,-356.6 111.43,-349.09"/>
<polygon fill="midnightblue" stroke="midnightblue" points="133.18,-379.49 142.38,-384.75 138.47,-374.9 133.18,-379.49"/>
</g>
<!-- Node10 -->
<g id="node10" class="node">
<title>Node10</title>
<g id="a_node10"><a xlink:href="group__iface_8hpp.html" target="_top" xlink:title=" ">
<polygon fill="none" stroke="black" points="251.47,-349 156.47,-349 156.47,-330 251.47,-330 251.47,-349"/>
<text text-anchor="middle" x="203.97" y="-337" font-family="Helvetica,sans-Serif" font-size="10.00">group_iface.hpp</text>
</a>
</g>
</g>
<!-- Node1&#45;&gt;Node10 -->
<g id="edge16" class="edge">
<title>Node1&#45;&gt;Node10</title>
<path fill="none" stroke="midnightblue" d="M166.26,-377.52C175.77,-368.18 187.41,-356.75 195.22,-349.09"/>
<polygon fill="midnightblue" stroke="midnightblue" points="163.58,-375.25 158.89,-384.75 168.48,-380.24 163.58,-375.25"/>
</g>
<!-- Node3 -->
<g id="node3" class="node">
<title>Node3</title>
<g id="a_node3"><a xlink:href="api_8hpp.html" target="_top" xlink:title=" ">
<polygon fill="none" stroke="black" points="144.47,-239 91.47,-239 91.47,-220 144.47,-220 144.47,-239"/>
<text text-anchor="middle" x="117.97" y="-227" font-family="Helvetica,sans-Serif" font-size="10.00">api.hpp</text>
</a>
</g>
</g>
<!-- Node2&#45;&gt;Node3 -->
<g id="edge2" class="edge">
<title>Node2&#45;&gt;Node3</title>
<path fill="none" stroke="midnightblue" d="M109.97,-320.08C112.28,-312.15 114.68,-302.71 115.97,-294 118.86,-274.58 118.7,-251.47 118.33,-239.18"/>
<polygon fill="midnightblue" stroke="midnightblue" points="106.59,-319.17 106.98,-329.76 113.27,-321.24 106.59,-319.17"/>
</g>
<!-- Node8 -->
<g id="node8" class="node">
<title>Node8</title>
<g id="a_node8"><a xlink:href="help_8hpp.html" target="_top" xlink:title=" ">
<polygon fill="none" stroke="black" points="66.47,-129 7.47,-129 7.47,-110 66.47,-110 66.47,-129"/>
<text text-anchor="middle" x="36.97" y="-117" font-family="Helvetica,sans-Serif" font-size="10.00">help.hpp</text>
</a>
</g>
</g>
<!-- Node2&#45;&gt;Node8 -->
<g id="edge13" class="edge">
<title>Node2&#45;&gt;Node8</title>
<path fill="none" stroke="midnightblue" d="M67.29,-330.3C47.85,-323.88 25.64,-312.79 13.97,-294 -20.01,-239.28 18.06,-156.21 32.16,-129.26"/>
<polygon fill="midnightblue" stroke="midnightblue" points="66.55,-333.73 77.13,-333.24 68.55,-327.02 66.55,-333.73"/>
</g>
<!-- Node9 -->
<g id="node9" class="node">
<title>Node9</title>
<g id="a_node9"><a xlink:href="multi__arg_8hpp.html" target="_top" xlink:title=" ">
<polygon fill="none" stroke="black" points="106.97,-294 22.97,-294 22.97,-275 106.97,-275 106.97,-294"/>
<text text-anchor="middle" x="64.97" y="-282" font-family="Helvetica,sans-Serif" font-size="10.00">multi_arg.hpp</text>
</a>
</g>
</g>
<!-- Node2&#45;&gt;Node9 -->
<g id="edge14" class="edge">
<title>Node2&#45;&gt;Node9</title>
<path fill="none" stroke="midnightblue" d="M91.59,-321.67C84.84,-312.5 76.77,-301.52 71.29,-294.09"/>
<polygon fill="midnightblue" stroke="midnightblue" points="88.79,-323.77 97.53,-329.75 94.43,-319.62 88.79,-323.77"/>
</g>
<!-- Node4 -->
<g id="node4" class="node">
<title>Node4</title>
<g id="a_node4"><a xlink:href="cmd__line_8hpp.html" target="_top" xlink:title=" ">
<polygon fill="none" stroke="black" points="160.97,-74 78.97,-74 78.97,-55 160.97,-55 160.97,-74"/>
<text text-anchor="middle" x="119.97" y="-62" font-family="Helvetica,sans-Serif" font-size="10.00">cmd_line.hpp</text>
</a>
</g>
</g>
<!-- Node3&#45;&gt;Node4 -->
<g id="edge3" class="edge">
<title>Node3&#45;&gt;Node4</title>
<path fill="none" stroke="midnightblue" d="M115.93,-209.93C115.15,-201.96 114.36,-192.53 113.97,-184 112.13,-142.84 116.83,-93.67 118.97,-74.12"/>
<polygon fill="midnightblue" stroke="midnightblue" points="112.46,-210.4 116.98,-219.98 119.42,-209.68 112.46,-210.4"/>
</g>
<!-- Node7 -->
<g id="node7" class="node">
<title>Node7</title>
<g id="a_node7"><a xlink:href="command_8hpp.html" target="_top" xlink:title=" ">
<polygon fill="none" stroke="black" points="208.97,-184 122.97,-184 122.97,-165 208.97,-165 208.97,-184"/>
<text text-anchor="middle" x="165.97" y="-172" font-family="Helvetica,sans-Serif" font-size="10.00">command.hpp</text>
</a>
</g>
</g>
<!-- Node3&#45;&gt;Node7 -->
<g id="edge7" class="edge">
<title>Node3&#45;&gt;Node7</title>
<path fill="none" stroke="midnightblue" d="M126.88,-211.67C134.37,-202.5 144.7,-191.52 153.06,-184.09"/>
<polygon fill="midnightblue" stroke="midnightblue" points="124.01,-209.67 120.73,-219.75 129.58,-213.91 124.01,-209.67"/>
</g>
<!-- Node5 -->
<g id="node5" class="node">
<title>Node5</title>
<g id="a_node5"><a xlink:href="all_8hpp.html" target="_top" xlink:title=" ">
<polygon fill="none" stroke="black" points="133.97,-19 83.97,-19 83.97,0 133.97,0 133.97,-19"/>
<text text-anchor="middle" x="108.97" y="-7" font-family="Helvetica,sans-Serif" font-size="10.00">all.hpp</text>
</a>
</g>
</g>
<!-- Node4&#45;&gt;Node5 -->
<g id="edge4" class="edge">
<title>Node4&#45;&gt;Node5</title>
<path fill="none" stroke="midnightblue" d="M116.12,-44.95C114.3,-36.15 112.2,-26.06 110.76,-19.09"/>
<polygon fill="midnightblue" stroke="midnightblue" points="112.7,-45.67 118.16,-54.75 119.55,-44.25 112.7,-45.67"/>
</g>
<!-- Node6 -->
<g id="node6" class="node">
<title>Node6</title>
<g id="a_node6"><a xlink:href="help__printer_8hpp.html" target="_top" xlink:title=" ">
<polygon fill="none" stroke="black" points="247.47,-19 152.47,-19 152.47,0 247.47,0 247.47,-19"/>
<text text-anchor="middle" x="199.97" y="-7" font-family="Helvetica,sans-Serif" font-size="10.00">help_printer.hpp</text>
</a>
</g>
</g>
<!-- Node4&#45;&gt;Node6 -->
<g id="edge5" class="edge">
<title>Node4&#45;&gt;Node6</title>
<path fill="none" stroke="midnightblue" d="M135.94,-48.88C149.23,-39.34 167.86,-27.21 181.74,-19.17"/>
<polygon fill="midnightblue" stroke="midnightblue" points="133.66,-46.21 127.71,-54.98 137.83,-51.83 133.66,-46.21"/>
</g>
<!-- Node6&#45;&gt;Node4 -->
<g id="edge6" class="edge">
<title>Node6&#45;&gt;Node4</title>
<path fill="none" stroke="midnightblue" d="M183.75,-25.31C170.39,-34.88 151.76,-47 137.94,-54.98"/>
<polygon fill="midnightblue" stroke="midnightblue" points="186.08,-27.94 192.04,-19.17 181.92,-22.31 186.08,-27.94"/>
</g>
<!-- Node7&#45;&gt;Node3 -->
<g id="edge8" class="edge">
<title>Node7&#45;&gt;Node3</title>
<path fill="none" stroke="midnightblue" d="M157.11,-192.27C149.6,-201.49 139.19,-212.53 130.8,-219.98"/>
<polygon fill="midnightblue" stroke="midnightblue" points="160.01,-194.25 163.27,-184.17 154.43,-190.01 160.01,-194.25"/>
</g>
<!-- Node7&#45;&gt;Node4 -->
<g id="edge9" class="edge">
<title>Node7&#45;&gt;Node4</title>
<path fill="none" stroke="midnightblue" d="M158.28,-155.44C148.26,-131.92 131.15,-91.73 123.66,-74.16"/>
<polygon fill="midnightblue" stroke="midnightblue" points="155.07,-156.83 162.21,-164.66 161.51,-154.09 155.07,-156.83"/>
</g>
<!-- Node7&#45;&gt;Node6 -->
<g id="edge12" class="edge">
<title>Node7&#45;&gt;Node6</title>
<path fill="none" stroke="midnightblue" d="M169.87,-154.83C177.2,-119.67 192.8,-44.9 198.14,-19.31"/>
<polygon fill="midnightblue" stroke="midnightblue" points="166.42,-154.23 167.8,-164.74 173.27,-155.66 166.42,-154.23"/>
</g>
<!-- Node7&#45;&gt;Node8 -->
<g id="edge10" class="edge">
<title>Node7&#45;&gt;Node8</title>
<path fill="none" stroke="midnightblue" d="M135.94,-161.16C112.06,-151.35 79.25,-137.87 58.08,-129.17"/>
<polygon fill="midnightblue" stroke="midnightblue" points="134.67,-164.42 145.25,-164.98 137.33,-157.95 134.67,-164.42"/>
</g>
<!-- Node8&#45;&gt;Node4 -->
<g id="edge11" class="edge">
<title>Node8&#45;&gt;Node4</title>
<path fill="none" stroke="midnightblue" d="M59.02,-104.42C74.08,-94.81 93.56,-82.37 106.4,-74.17"/>
<polygon fill="midnightblue" stroke="midnightblue" points="56.85,-101.65 50.31,-109.98 60.62,-107.55 56.85,-101.65"/>
</g>
<!-- Node9&#45;&gt;Node3 -->
<g id="edge15" class="edge">
<title>Node9&#45;&gt;Node3</title>
<path fill="none" stroke="midnightblue" d="M80.95,-267.52C90.3,-258.18 101.72,-246.75 109.39,-239.09"/>
<polygon fill="midnightblue" stroke="midnightblue" points="78.32,-265.2 73.73,-274.75 83.27,-270.15 78.32,-265.2"/>
</g>
<!-- Node10&#45;&gt;Node6 -->
<g id="edge21" class="edge">
<title>Node10&#45;&gt;Node6</title>
<path fill="none" stroke="midnightblue" d="M238.37,-325.82C253.67,-318.61 270.73,-308.15 281.97,-294 300.3,-270.94 300.97,-259.96 300.97,-230.5 300.97,-230.5 300.97,-230.5 300.97,-118.5 300.97,-70.24 246.5,-34.62 217.57,-19.1"/>
<polygon fill="midnightblue" stroke="midnightblue" points="236.88,-322.66 229.14,-329.89 239.7,-329.06 236.88,-322.66"/>
</g>
<!-- Node10&#45;&gt;Node7 -->
<g id="edge17" class="edge">
<title>Node10&#45;&gt;Node7</title>
<path fill="none" stroke="midnightblue" d="M199.37,-320.2C197.37,-312.17 195.02,-302.62 192.97,-294 183.22,-252.94 172.23,-203.71 167.88,-184.14"/>
<polygon fill="midnightblue" stroke="midnightblue" points="196,-321.13 201.82,-329.98 202.79,-319.43 196,-321.13"/>
</g>
<!-- Node11 -->
<g id="node11" class="node">
<title>Node11</title>
<g id="a_node11"><a xlink:href="groups_8hpp.html" target="_top" xlink:title=" ">
<polygon fill="none" stroke="black" points="272.47,-294 201.47,-294 201.47,-275 272.47,-275 272.47,-294"/>
<text text-anchor="middle" x="236.97" y="-282" font-family="Helvetica,sans-Serif" font-size="10.00">groups.hpp</text>
</a>
</g>
</g>
<!-- Node10&#45;&gt;Node11 -->
<g id="edge18" class="edge">
<title>Node10&#45;&gt;Node11</title>
<path fill="none" stroke="midnightblue" d="M214.81,-321.1C220.45,-312.04 227.09,-301.37 231.63,-294.09"/>
<polygon fill="midnightblue" stroke="midnightblue" points="211.74,-319.41 209.42,-329.75 217.68,-323.11 211.74,-319.41"/>
</g>
<!-- Node11&#45;&gt;Node3 -->
<g id="edge19" class="edge">
<title>Node11&#45;&gt;Node3</title>
<path fill="none" stroke="midnightblue" d="M208.68,-270.9C186.7,-261.11 156.8,-247.79 137.44,-239.17"/>
<polygon fill="midnightblue" stroke="midnightblue" points="207.3,-274.11 217.85,-274.98 210.14,-267.72 207.3,-274.11"/>
</g>
<!-- Node11&#45;&gt;Node6 -->
<g id="edge20" class="edge">
<title>Node11&#45;&gt;Node6</title>
<path fill="none" stroke="midnightblue" d="M236.97,-264.77C236.97,-243.23 236.97,-206.81 236.97,-175.5 236.97,-175.5 236.97,-175.5 236.97,-118.5 236.97,-79.65 215.29,-36.98 205.12,-19.12"/>
<polygon fill="midnightblue" stroke="midnightblue" points="233.47,-264.82 236.97,-274.82 240.47,-264.82 233.47,-264.82"/>
</g>
</g>
</svg>
