<?xml version="1.0" encoding="UTF-8" standalone="no"?>
<!DOCTYPE svg PUBLIC "-//W3C//DTD SVG 1.1//EN"
 "http://www.w3.org/Graphics/SVG/1.1/DTD/svg11.dtd">
<!-- Generated by graphviz version 2.40.1 (20161225.0304)
 -->
<!-- Title: arg_iface.hpp Pages: 1 -->
<svg width="406pt" height="308pt"
 viewBox="0.00 0.00 406.00 308.00" xmlns="http://www.w3.org/2000/svg" xmlns:xlink="http://www.w3.org/1999/xlink">
<g id="graph0" class="graph" transform="scale(1 1) rotate(0) translate(4 304)">
<title>arg_iface.hpp</title>
<!-- Node10 -->
<g id="node1" class="node">
<title>Node10</title>
<polygon fill="#bfbfbf" stroke="#000000" points="94.5,-280.5 94.5,-299.5 169.5,-299.5 169.5,-280.5 94.5,-280.5"/>
<text text-anchor="middle" x="132" y="-287.5" font-family="Helvetica,sans-Serif" font-size="10.00" fill="#000000">arg_iface.hpp</text>
</g>
<!-- Node11 -->
<g id="node2" class="node">
<title>Node11</title>
<g id="a_node2"><a xlink:href="arg_8hpp.html" target="_top" xlink:title="arg.hpp">
<polygon fill="none" stroke="#000000" points="107.5,-224.5 107.5,-243.5 156.5,-243.5 156.5,-224.5 107.5,-224.5"/>
<text text-anchor="middle" x="132" y="-231.5" font-family="Helvetica,sans-Serif" font-size="10.00" fill="#000000">arg.hpp</text>
</a>
</g>
</g>
<!-- Node10&#45;&gt;Node11 -->
<g id="edge1" class="edge">
<title>Node10&#45;&gt;Node11</title>
<path fill="none" stroke="#191970" d="M132,-270.1575C132,-261.155 132,-250.9199 132,-243.6427"/>
<polygon fill="#191970" stroke="#191970" points="128.5001,-270.2455 132,-280.2455 135.5001,-270.2456 128.5001,-270.2455"/>
</g>
<!-- Node15 -->
<g id="node6" class="node">
<title>Node15</title>
<g id="a_node6"><a xlink:href="arg__as__command_8hpp.html" target="_top" xlink:title="arg_as_command.hpp">
<polygon fill="none" stroke="#000000" points="56.5,-.5 56.5,-19.5 169.5,-19.5 169.5,-.5 56.5,-.5"/>
<text text-anchor="middle" x="113" y="-7.5" font-family="Helvetica,sans-Serif" font-size="10.00" fill="#000000">arg_as_command.hpp</text>
</a>
</g>
</g>
<!-- Node10&#45;&gt;Node15 -->
<g id="edge20" class="edge">
<title>Node10&#45;&gt;Node15</title>
<path fill="none" stroke="#191970" d="M94.1575,-276.5467C55.1527,-259.968 0,-227.7328 0,-178 0,-178 0,-178 0,-122 0,-71.1762 58.376,-35.5522 91.2125,-19.534"/>
<polygon fill="#191970" stroke="#191970" points="93.1011,-279.8955 103.6827,-280.4254 95.7411,-273.4124 93.1011,-279.8955"/>
</g>
<!-- Node18 -->
<g id="node9" class="node">
<title>Node18</title>
<g id="a_node9"><a xlink:href="group__iface_8hpp.html" target="_top" xlink:title="group_iface.hpp">
<polygon fill="none" stroke="#000000" points="218,-224.5 218,-243.5 304,-243.5 304,-224.5 218,-224.5"/>
<text text-anchor="middle" x="261" y="-231.5" font-family="Helvetica,sans-Serif" font-size="10.00" fill="#000000">group_iface.hpp</text>
</a>
</g>
</g>
<!-- Node10&#45;&gt;Node18 -->
<g id="edge11" class="edge">
<title>Node10&#45;&gt;Node18</title>
<path fill="none" stroke="#191970" d="M163.3671,-276.3833C186.8284,-266.1985 218.3185,-252.5284 239.1135,-243.5011"/>
<polygon fill="#191970" stroke="#191970" points="161.9551,-273.1806 154.1759,-280.3733 164.7426,-279.6017 161.9551,-273.1806"/>
</g>
<!-- Node12 -->
<g id="node3" class="node">
<title>Node12</title>
<g id="a_node3"><a xlink:href="api_8hpp.html" target="_top" xlink:title="api.hpp">
<polygon fill="none" stroke="#000000" points="107,-112.5 107,-131.5 155,-131.5 155,-112.5 107,-112.5"/>
<text text-anchor="middle" x="131" y="-119.5" font-family="Helvetica,sans-Serif" font-size="10.00" fill="#000000">api.hpp</text>
</a>
</g>
</g>
<!-- Node11&#45;&gt;Node12 -->
<g id="edge2" class="edge">
<title>Node11&#45;&gt;Node12</title>
<path fill="none" stroke="#191970" d="M131.8238,-214.2702C131.6071,-189.9985 131.248,-149.7725 131.085,-131.5249"/>
<polygon fill="#191970" stroke="#191970" points="128.3255,-214.4826 131.9147,-224.4509 135.3252,-214.4201 128.3255,-214.4826"/>
</g>
<!-- Node16 -->
<g id="node7" class="node">
<title>Node16</title>
<g id="a_node7"><a xlink:href="multi__arg_8hpp.html" target="_top" xlink:title="multi_arg.hpp">
<polygon fill="none" stroke="#000000" points="28.5,-168.5 28.5,-187.5 103.5,-187.5 103.5,-168.5 28.5,-168.5"/>
<text text-anchor="middle" x="66" y="-175.5" font-family="Helvetica,sans-Serif" font-size="10.00" fill="#000000">multi_arg.hpp</text>
</a>
</g>
</g>
<!-- Node11&#45;&gt;Node16 -->
<g id="edge7" class="edge">
<title>Node11&#45;&gt;Node16</title>
<path fill="none" stroke="#191970" d="M112.7245,-217.645C101.2462,-207.9058 87.0723,-195.8795 77.3646,-187.6427"/>
<polygon fill="#191970" stroke="#191970" points="110.6141,-220.4445 120.5037,-224.2455 115.143,-215.1069 110.6141,-220.4445"/>
</g>
<!-- Node17 -->
<g id="node8" class="node">
<title>Node17</title>
<g id="a_node8"><a xlink:href="help_8hpp.html" target="_top" xlink:title="help.hpp">
<polygon fill="none" stroke="#000000" points="173.5,-112.5 173.5,-131.5 226.5,-131.5 226.5,-112.5 173.5,-112.5"/>
<text text-anchor="middle" x="200" y="-119.5" font-family="Helvetica,sans-Serif" font-size="10.00" fill="#000000">help.hpp</text>
</a>
</g>
</g>
<!-- Node11&#45;&gt;Node17 -->
<g id="edge9" class="edge">
<title>Node11&#45;&gt;Node17</title>
<path fill="none" stroke="#191970" d="M142.9937,-215.8927C157.6033,-191.8299 182.8875,-150.1853 194.217,-131.5249"/>
<polygon fill="#191970" stroke="#191970" points="139.9957,-214.0866 137.7976,-224.4509 145.9792,-217.7195 139.9957,-214.0866"/>
</g>
<!-- Node13 -->
<g id="node4" class="node">
<title>Node13</title>
<g id="a_node4"><a xlink:href="cmd__line_8hpp.html" target="_top" xlink:title="cmd_line.hpp">
<polygon fill="none" stroke="#000000" points="166,-56.5 166,-75.5 240,-75.5 240,-56.5 166,-56.5"/>
<text text-anchor="middle" x="203" y="-63.5" font-family="Helvetica,sans-Serif" font-size="10.00" fill="#000000">cmd_line.hpp</text>
</a>
</g>
</g>
<!-- Node12&#45;&gt;Node13 -->
<g id="edge3" class="edge">
<title>Node12&#45;&gt;Node13</title>
<path fill="none" stroke="#191970" d="M151.664,-105.928C164.2489,-96.1397 179.9092,-83.9595 190.6023,-75.6427"/>
<polygon fill="#191970" stroke="#191970" points="149.2862,-103.3434 143.5414,-112.2455 153.5838,-108.8688 149.2862,-103.3434"/>
</g>
<!-- Node14 -->
<g id="node5" class="node">
<title>Node14</title>
<g id="a_node5"><a xlink:href="all_8hpp.html" target="_top" xlink:title="all.hpp">
<polygon fill="none" stroke="#000000" points="187.5,-.5 187.5,-19.5 232.5,-19.5 232.5,-.5 187.5,-.5"/>
<text text-anchor="middle" x="210" y="-7.5" font-family="Helvetica,sans-Serif" font-size="10.00" fill="#000000">all.hpp</text>
</a>
</g>
</g>
<!-- Node13&#45;&gt;Node14 -->
<g id="edge4" class="edge">
<title>Node13&#45;&gt;Node14</title>
<path fill="none" stroke="#191970" d="M205.4803,-46.1575C206.6056,-37.155 207.885,-26.9199 208.7947,-19.6427"/>
<polygon fill="#191970" stroke="#191970" points="201.9868,-45.8886 204.2193,-56.2455 208.9327,-46.7569 201.9868,-45.8886"/>
</g>
<!-- Node13&#45;&gt;Node15 -->
<g id="edge5" class="edge">
<title>Node13&#45;&gt;Node15</title>
<path fill="none" stroke="#191970" d="M178.5216,-50.769C162.5734,-40.8456 142.249,-28.1994 128.4972,-19.6427"/>
<polygon fill="#191970" stroke="#191970" points="176.9835,-53.9342 187.3232,-56.2455 180.6817,-47.9908 176.9835,-53.9342"/>
</g>
<!-- Node15&#45;&gt;Node12 -->
<g id="edge6" class="edge">
<title>Node15&#45;&gt;Node12</title>
<path fill="none" stroke="#191970" d="M116.1657,-29.6976C120.0642,-53.9553 126.5296,-94.184 129.4653,-112.4509"/>
<polygon fill="#191970" stroke="#191970" points="119.5733,-28.8428 114.5308,-19.5249 112.662,-29.9536 119.5733,-28.8428"/>
</g>
<!-- Node16&#45;&gt;Node12 -->
<g id="edge8" class="edge">
<title>Node16&#45;&gt;Node12</title>
<path fill="none" stroke="#191970" d="M84.9835,-161.645C96.2879,-151.9058 110.247,-139.8795 119.8076,-131.6427"/>
<polygon fill="#191970" stroke="#191970" points="82.6138,-159.0668 77.3221,-168.2455 87.1827,-164.3701 82.6138,-159.0668"/>
</g>
<!-- Node17&#45;&gt;Node13 -->
<g id="edge10" class="edge">
<title>Node17&#45;&gt;Node13</title>
<path fill="none" stroke="#191970" d="M201.063,-102.1575C201.5453,-93.155 202.0936,-82.9199 202.4834,-75.6427"/>
<polygon fill="#191970" stroke="#191970" points="197.5626,-102.0726 200.5226,-112.2455 204.5526,-102.4471 197.5626,-102.0726"/>
</g>
<!-- Node19 -->
<g id="node10" class="node">
<title>Node19</title>
<g id="a_node10"><a xlink:href="groups_8hpp.html" target="_top" xlink:title="groups.hpp">
<polygon fill="none" stroke="#000000" points="198.5,-168.5 198.5,-187.5 263.5,-187.5 263.5,-168.5 198.5,-168.5"/>
<text text-anchor="middle" x="231" y="-175.5" font-family="Helvetica,sans-Serif" font-size="10.00" fill="#000000">groups.hpp</text>
</a>
</g>
</g>
<!-- Node18&#45;&gt;Node19 -->
<g id="edge12" class="edge">
<title>Node18&#45;&gt;Node19</title>
<path fill="none" stroke="#191970" d="M251.002,-215.3372C246.0324,-206.0605 240.2356,-195.2398 236.1657,-187.6427"/>
<polygon fill="#191970" stroke="#191970" points="247.9669,-217.0835 255.7744,-224.2455 254.1373,-213.7779 247.9669,-217.0835"/>
</g>
<!-- Node20 -->
<g id="node11" class="node">
<title>Node20</title>
<g id="a_node11"><a xlink:href="help__printer_8hpp.html" target="_top" xlink:title="help_printer.hpp">
<polygon fill="none" stroke="#000000" points="245,-112.5 245,-131.5 331,-131.5 331,-112.5 245,-112.5"/>
<text text-anchor="middle" x="288" y="-119.5" font-family="Helvetica,sans-Serif" font-size="10.00" fill="#000000">help_printer.hpp</text>
</a>
</g>
</g>
<!-- Node18&#45;&gt;Node20 -->
<g id="edge19" class="edge">
<title>Node18&#45;&gt;Node20</title>
<path fill="none" stroke="#191970" d="M266.2482,-214.4419C268.3997,-206.2825 270.8778,-196.6972 273,-188 277.8467,-168.1368 283.0346,-144.7848 285.8607,-131.8629"/>
<polygon fill="#191970" stroke="#191970" points="262.8536,-213.5887 263.6655,-224.1523 269.6184,-215.388 262.8536,-213.5887"/>
</g>
<!-- Node21 -->
<g id="node12" class="node">
<title>Node21</title>
<g id="a_node12"><a xlink:href="command_8hpp.html" target="_top" xlink:title="command.hpp">
<polygon fill="none" stroke="#000000" points="320,-168.5 320,-187.5 398,-187.5 398,-168.5 320,-168.5"/>
<text text-anchor="middle" x="359" y="-175.5" font-family="Helvetica,sans-Serif" font-size="10.00" fill="#000000">command.hpp</text>
</a>
</g>
</g>
<!-- Node18&#45;&gt;Node21 -->
<g id="edge16" class="edge">
<title>Node18&#45;&gt;Node21</title>
<path fill="none" stroke="#191970" d="M287.1686,-219.0465C304.6058,-209.0824 327.0111,-196.2794 342.1253,-187.6427"/>
<polygon fill="#191970" stroke="#191970" points="285.0162,-216.2453 278.0703,-224.2455 288.4892,-222.323 285.0162,-216.2453"/>
</g>
<!-- Node19&#45;&gt;Node12 -->
<g id="edge13" class="edge">
<title>Node19&#45;&gt;Node12</title>
<path fill="none" stroke="#191970" d="M204.7902,-163.3225C186.9283,-153.3198 163.7845,-140.3593 148.2191,-131.6427"/>
<polygon fill="#191970" stroke="#191970" points="203.1461,-166.4132 213.5813,-168.2455 206.5664,-160.3057 203.1461,-166.4132"/>
</g>
<!-- Node19&#45;&gt;Node20 -->
<g id="edge14" class="edge">
<title>Node19&#45;&gt;Node20</title>
<path fill="none" stroke="#191970" d="M248.2271,-161.0751C258.0341,-151.4402 269.964,-139.7196 278.1851,-131.6427"/>
<polygon fill="#191970" stroke="#191970" points="245.6091,-158.7406 240.9286,-168.2455 250.5149,-163.734 245.6091,-158.7406"/>
</g>
<!-- Node20&#45;&gt;Node13 -->
<g id="edge15" class="edge">
<title>Node20&#45;&gt;Node13</title>
<path fill="none" stroke="#191970" d="M264.4581,-106.49C249.461,-96.6096 230.5027,-84.1194 217.6362,-75.6427"/>
<polygon fill="#191970" stroke="#191970" points="262.9179,-109.6666 273.1941,-112.2455 266.7691,-103.8212 262.9179,-109.6666"/>
</g>
<!-- Node21&#45;&gt;Node13 -->
<g id="edge17" class="edge">
<title>Node21&#45;&gt;Node13</title>
<path fill="none" stroke="#191970" d="M358.0699,-158.1067C356.3654,-143.5846 351.8269,-124.3547 340,-112 326.0768,-97.4556 275.7614,-83.0673 240.1589,-74.3563"/>
<polygon fill="#191970" stroke="#191970" points="354.5841,-158.4241 358.8948,-168.1024 361.5604,-157.8484 354.5841,-158.4241"/>
</g>
<!-- Node21&#45;&gt;Node20 -->
<g id="edge18" class="edge">
<title>Node21&#45;&gt;Node20</title>
<path fill="none" stroke="#191970" d="M338.623,-161.928C326.2129,-152.1397 310.77,-139.9595 300.2255,-131.6427"/>
<polygon fill="#191970" stroke="#191970" points="336.6136,-164.8007 346.6327,-168.2455 340.9486,-159.3046 336.6136,-164.8007"/>
</g>
</g>
</svg>
