<?xml version="1.0" encoding="UTF-8" standalone="no"?>
<!DOCTYPE svg PUBLIC "-//W3C//DTD SVG 1.1//EN"
 "http://www.w3.org/Graphics/SVG/1.1/DTD/svg11.dtd">
<!-- Generated by graphviz version 2.38.0 (20140413.2041)
 -->
<!-- Title: arg_as_command.hpp Pages: 1 -->
<svg width="1764pt" height="476pt"
 viewBox="0.00 0.00 1764.00 476.00" xmlns="http://www.w3.org/2000/svg" xmlns:xlink="http://www.w3.org/1999/xlink">
<g id="graph0" class="graph" transform="scale(1 1) rotate(0) translate(4 472)">
<title>arg_as_command.hpp</title>
<!-- Node1 -->
<g id="node1" class="node"><title>Node1</title>
<polygon fill="#bfbfbf" stroke="black" points="723.5,-448.5 723.5,-467.5 836.5,-467.5 836.5,-448.5 723.5,-448.5"/>
<text text-anchor="middle" x="780" y="-455.5" font-family="Helvetica,sans-Serif" font-size="10.00">arg_as_command.hpp</text>
</g>
<!-- Node2 -->
<g id="node2" class="node"><title>Node2</title>
<g id="a_node2"><a xlink:href="arg__iface_8hpp.html" target="_top" xlink:title="arg_iface.hpp">
<polygon fill="none" stroke="black" points="1120.5,-168.5 1120.5,-187.5 1195.5,-187.5 1195.5,-168.5 1120.5,-168.5"/>
<text text-anchor="middle" x="1158" y="-175.5" font-family="Helvetica,sans-Serif" font-size="10.00">arg_iface.hpp</text>
</a>
</g>
</g>
<!-- Node1&#45;&gt;Node2 -->
<g id="edge1" class="edge"><title>Node1&#45;&gt;Node2</title>
<path fill="none" stroke="midnightblue" d="M836.527,-455.042C1016.75,-448.055 1566,-420.717 1566,-347 1566,-347 1566,-347 1566,-289 1566,-215.162 1313.74,-189.432 1205.93,-181.807"/>
<polygon fill="midnightblue" stroke="midnightblue" points="1205.87,-178.295 1195.65,-181.104 1205.39,-185.279 1205.87,-178.295"/>
</g>
<!-- Node3 -->
<g id="node3" class="node"><title>Node3</title>
<g id="a_node3"><a xlink:href="utils_8hpp.html" target="_top" xlink:title="utils.hpp">
<polygon fill="none" stroke="black" points="1138.5,-112.5 1138.5,-131.5 1191.5,-131.5 1191.5,-112.5 1138.5,-112.5"/>
<text text-anchor="middle" x="1165" y="-119.5" font-family="Helvetica,sans-Serif" font-size="10.00">utils.hpp</text>
</a>
</g>
</g>
<!-- Node1&#45;&gt;Node3 -->
<g id="edge12" class="edge"><title>Node1&#45;&gt;Node3</title>
<path fill="none" stroke="midnightblue" d="M836.555,-455.796C976.935,-452.397 1338.39,-441.016 1455,-412 1514.07,-397.3 1546.9,-407.093 1580,-356 1615.04,-301.913 1572.99,-260.68 1520,-224 1473.91,-192.096 1460.17,-185.737 1407,-168 1336.38,-144.441 1249.8,-132.107 1201.69,-126.63"/>
<polygon fill="midnightblue" stroke="midnightblue" points="1202.07,-123.151 1191.74,-125.534 1201.3,-130.109 1202.07,-123.151"/>
</g>
<!-- Node5 -->
<g id="node5" class="node"><title>Node5</title>
<g id="a_node5"><a xlink:href="types_8hpp.html" target="_top" xlink:title="types.hpp">
<polygon fill="none" stroke="black" points="545.5,-56.5 545.5,-75.5 604.5,-75.5 604.5,-56.5 545.5,-56.5"/>
<text text-anchor="middle" x="575" y="-63.5" font-family="Helvetica,sans-Serif" font-size="10.00">types.hpp</text>
</a>
</g>
</g>
<!-- Node1&#45;&gt;Node5 -->
<g id="edge90" class="edge"><title>Node1&#45;&gt;Node5</title>
<path fill="none" stroke="midnightblue" d="M723.344,-456.041C585.862,-453.243 237.666,-443.203 126,-412 65.3123,-395.042 0,-410.012 0,-347 0,-347 0,-347 0,-177 0,-115.954 62.6066,-129.8 121,-112 198.043,-88.5156 439.208,-73.9441 535.101,-68.9457"/>
<polygon fill="midnightblue" stroke="midnightblue" points="535.449,-72.4325 545.257,-68.424 535.09,-65.4418 535.449,-72.4325"/>
</g>
<!-- Node11 -->
<g id="node11" class="node"><title>Node11</title>
<g id="a_node11"><a xlink:href="enums_8hpp.html" target="_top" xlink:title="enums.hpp">
<polygon fill="none" stroke="black" points="1434.5,-112.5 1434.5,-131.5 1499.5,-131.5 1499.5,-112.5 1434.5,-112.5"/>
<text text-anchor="middle" x="1467" y="-119.5" font-family="Helvetica,sans-Serif" font-size="10.00">enums.hpp</text>
</a>
</g>
</g>
<!-- Node1&#45;&gt;Node11 -->
<g id="edge89" class="edge"><title>Node1&#45;&gt;Node11</title>
<path fill="none" stroke="midnightblue" d="M836.693,-456.607C1044.99,-454.422 1756,-440.145 1756,-347 1756,-347 1756,-347 1756,-233 1756,-180.979 1590.38,-144.681 1509.89,-130.113"/>
<polygon fill="midnightblue" stroke="midnightblue" points="1510.05,-126.586 1499.59,-128.283 1508.82,-133.478 1510.05,-126.586"/>
</g>
<!-- Node12 -->
<g id="node12" class="node"><title>Node12</title>
<g id="a_node12"><a xlink:href="exceptions_8hpp.html" target="_top" xlink:title="exceptions.hpp">
<polygon fill="none" stroke="black" points="154.5,-112.5 154.5,-131.5 237.5,-131.5 237.5,-112.5 154.5,-112.5"/>
<text text-anchor="middle" x="196" y="-119.5" font-family="Helvetica,sans-Serif" font-size="10.00">exceptions.hpp</text>
</a>
</g>
</g>
<!-- Node1&#45;&gt;Node12 -->
<g id="edge13" class="edge"><title>Node1&#45;&gt;Node12</title>
<path fill="none" stroke="midnightblue" d="M723.315,-454.558C549.862,-446.34 38,-416.224 38,-347 38,-347 38,-347 38,-233 38,-178.393 102.353,-148.683 148.919,-134.334"/>
<polygon fill="midnightblue" stroke="midnightblue" points="149.949,-137.679 158.556,-131.501 147.975,-130.963 149.949,-137.679"/>
</g>
<!-- Node14 -->
<g id="node14" class="node"><title>Node14</title>
<g id="a_node14"><a xlink:href="cmd__line_8hpp.html" target="_top" xlink:title="cmd_line.hpp">
<polygon fill="none" stroke="black" points="743,-392.5 743,-411.5 817,-411.5 817,-392.5 743,-392.5"/>
<text text-anchor="middle" x="780" y="-399.5" font-family="Helvetica,sans-Serif" font-size="10.00">cmd_line.hpp</text>
</a>
</g>
</g>
<!-- Node1&#45;&gt;Node14 -->
<g id="edge16" class="edge"><title>Node1&#45;&gt;Node14</title>
<path fill="none" stroke="midnightblue" d="M780,-448.083C780,-441.006 780,-430.861 780,-421.986"/>
<polygon fill="midnightblue" stroke="midnightblue" points="783.5,-421.751 780,-411.751 776.5,-421.751 783.5,-421.751"/>
</g>
<!-- Node2&#45;&gt;Node3 -->
<g id="edge2" class="edge"><title>Node2&#45;&gt;Node3</title>
<path fill="none" stroke="midnightblue" d="M1159.16,-168.083C1160.08,-160.927 1161.42,-150.635 1162.58,-141.691"/>
<polygon fill="midnightblue" stroke="midnightblue" points="1166.05,-142.118 1163.87,-131.751 1159.11,-141.218 1166.05,-142.118"/>
</g>
<!-- Node2&#45;&gt;Node5 -->
<g id="edge10" class="edge"><title>Node2&#45;&gt;Node5</title>
<path fill="none" stroke="midnightblue" d="M1138.9,-168.457C1106.36,-154.295 1037.82,-126.12 977,-112 846.597,-81.7249 687.5,-71.586 614.746,-68.382"/>
<polygon fill="midnightblue" stroke="midnightblue" points="614.791,-64.8808 604.652,-67.958 614.497,-71.8747 614.791,-64.8808"/>
</g>
<!-- Node2&#45;&gt;Node11 -->
<g id="edge11" class="edge"><title>Node2&#45;&gt;Node11</title>
<path fill="none" stroke="midnightblue" d="M1195.58,-170.433C1253.36,-160.336 1363.67,-141.059 1424.35,-130.453"/>
<polygon fill="midnightblue" stroke="midnightblue" points="1425.12,-133.872 1434.37,-128.703 1423.91,-126.977 1425.12,-133.872"/>
</g>
<!-- Node4 -->
<g id="node4" class="node"><title>Node4</title>
<polygon fill="none" stroke="#bfbfbf" points="1143.5,-56.5 1143.5,-75.5 1184.5,-75.5 1184.5,-56.5 1143.5,-56.5"/>
<text text-anchor="middle" x="1164" y="-63.5" font-family="Helvetica,sans-Serif" font-size="10.00">regex</text>
</g>
<!-- Node3&#45;&gt;Node4 -->
<g id="edge3" class="edge"><title>Node3&#45;&gt;Node4</title>
<path fill="none" stroke="midnightblue" d="M1164.83,-112.083C1164.7,-105.006 1164.52,-94.8611 1164.35,-85.9865"/>
<polygon fill="midnightblue" stroke="midnightblue" points="1167.85,-85.6845 1164.16,-75.7511 1160.85,-85.8142 1167.85,-85.6845"/>
</g>
<!-- Node3&#45;&gt;Node5 -->
<g id="edge4" class="edge"><title>Node3&#45;&gt;Node5</title>
<path fill="none" stroke="midnightblue" d="M1138.12,-118.539C1043.77,-109.905 727.432,-80.9514 615.04,-70.6647"/>
<polygon fill="midnightblue" stroke="midnightblue" points="615.092,-67.1549 604.815,-69.7288 614.454,-74.1258 615.092,-67.1549"/>
</g>
<!-- Node9 -->
<g id="node9" class="node"><title>Node9</title>
<polygon fill="none" stroke="#bfbfbf" points="1069,-56.5 1069,-75.5 1125,-75.5 1125,-56.5 1069,-56.5"/>
<text text-anchor="middle" x="1097" y="-63.5" font-family="Helvetica,sans-Serif" font-size="10.00">algorithm</text>
</g>
<!-- Node3&#45;&gt;Node9 -->
<g id="edge8" class="edge"><title>Node3&#45;&gt;Node9</title>
<path fill="none" stroke="midnightblue" d="M1154.07,-112.324C1143.83,-104.185 1128.28,-91.8395 1116,-82.0874"/>
<polygon fill="midnightblue" stroke="midnightblue" points="1118.13,-79.3119 1108.12,-75.8339 1113.78,-84.7937 1118.13,-79.3119"/>
</g>
<!-- Node10 -->
<g id="node10" class="node"><title>Node10</title>
<polygon fill="none" stroke="#bfbfbf" points="1203,-56.5 1203,-75.5 1265,-75.5 1265,-56.5 1203,-56.5"/>
<text text-anchor="middle" x="1234" y="-63.5" font-family="Helvetica,sans-Serif" font-size="10.00">type_traits</text>
</g>
<!-- Node3&#45;&gt;Node10 -->
<g id="edge9" class="edge"><title>Node3&#45;&gt;Node10</title>
<path fill="none" stroke="midnightblue" d="M1176.09,-112.324C1186.49,-104.185 1202.26,-91.8395 1214.72,-82.0874"/>
<polygon fill="midnightblue" stroke="midnightblue" points="1216.99,-84.7533 1222.71,-75.8339 1212.68,-79.2407 1216.99,-84.7533"/>
</g>
<!-- Node6 -->
<g id="node6" class="node"><title>Node6</title>
<polygon fill="none" stroke="#bfbfbf" points="587.5,-0.5 587.5,-19.5 628.5,-19.5 628.5,-0.5 587.5,-0.5"/>
<text text-anchor="middle" x="608" y="-7.5" font-family="Helvetica,sans-Serif" font-size="10.00">string</text>
</g>
<!-- Node5&#45;&gt;Node6 -->
<g id="edge5" class="edge"><title>Node5&#45;&gt;Node6</title>
<path fill="none" stroke="midnightblue" d="M580.449,-56.083C585.014,-48.6127 591.668,-37.7244 597.293,-28.5199"/>
<polygon fill="midnightblue" stroke="midnightblue" points="600.424,-30.109 602.652,-19.7511 594.451,-26.4588 600.424,-30.109"/>
</g>
<!-- Node7 -->
<g id="node7" class="node"><title>Node7</title>
<polygon fill="none" stroke="#bfbfbf" points="515,-0.5 515,-19.5 569,-19.5 569,-0.5 515,-0.5"/>
<text text-anchor="middle" x="542" y="-7.5" font-family="Helvetica,sans-Serif" font-size="10.00">iostream</text>
</g>
<!-- Node5&#45;&gt;Node7 -->
<g id="edge6" class="edge"><title>Node5&#45;&gt;Node7</title>
<path fill="none" stroke="midnightblue" d="M569.551,-56.083C564.986,-48.6127 558.332,-37.7244 552.707,-28.5199"/>
<polygon fill="midnightblue" stroke="midnightblue" points="555.549,-26.4588 547.348,-19.7511 549.576,-30.109 555.549,-26.4588"/>
</g>
<!-- Node8 -->
<g id="node8" class="node"><title>Node8</title>
<polygon fill="none" stroke="#bfbfbf" points="1315,-0.5 1315,-19.5 1359,-19.5 1359,-0.5 1315,-0.5"/>
<text text-anchor="middle" x="1337" y="-7.5" font-family="Helvetica,sans-Serif" font-size="10.00">vector</text>
</g>
<!-- Node5&#45;&gt;Node8 -->
<g id="edge7" class="edge"><title>Node5&#45;&gt;Node8</title>
<path fill="none" stroke="midnightblue" d="M604.871,-62.8831C725.856,-54.3094 1178.97,-22.1991 1304.55,-13.2995"/>
<polygon fill="midnightblue" stroke="midnightblue" points="1304.95,-16.7799 1314.68,-12.5817 1304.46,-9.79744 1304.95,-16.7799"/>
</g>
<!-- Node12&#45;&gt;Node5 -->
<g id="edge15" class="edge"><title>Node12&#45;&gt;Node5</title>
<path fill="none" stroke="midnightblue" d="M237.575,-114.219C242.436,-113.456 247.326,-112.701 252,-112 353.889,-96.7166 474.132,-80.4234 535.153,-72.2784"/>
<polygon fill="midnightblue" stroke="midnightblue" points="535.684,-75.7387 545.134,-70.9484 534.759,-68.8 535.684,-75.7387"/>
</g>
<!-- Node13 -->
<g id="node13" class="node"><title>Node13</title>
<polygon fill="none" stroke="#bfbfbf" points="166.5,-56.5 166.5,-75.5 225.5,-75.5 225.5,-56.5 166.5,-56.5"/>
<text text-anchor="middle" x="196" y="-63.5" font-family="Helvetica,sans-Serif" font-size="10.00">stdexcept</text>
</g>
<!-- Node12&#45;&gt;Node13 -->
<g id="edge14" class="edge"><title>Node12&#45;&gt;Node13</title>
<path fill="none" stroke="midnightblue" d="M196,-112.083C196,-105.006 196,-94.8611 196,-85.9865"/>
<polygon fill="midnightblue" stroke="midnightblue" points="199.5,-85.751 196,-75.7511 192.5,-85.7511 199.5,-85.751"/>
</g>
<!-- Node14&#45;&gt;Node3 -->
<g id="edge56" class="edge"><title>Node14&#45;&gt;Node3</title>
<path fill="none" stroke="midnightblue" d="M817.034,-399.819C914.849,-396.335 1178.2,-384.508 1260,-356 1332.97,-330.569 1366.57,-316.616 1393,-244 1399.25,-226.825 1400.58,-181.157 1389,-168 1364.76,-140.464 1258.59,-129.226 1201.55,-125.11"/>
<polygon fill="midnightblue" stroke="midnightblue" points="1201.72,-121.614 1191.5,-124.423 1201.24,-128.598 1201.72,-121.614"/>
</g>
<!-- Node14&#45;&gt;Node8 -->
<g id="edge75" class="edge"><title>Node14&#45;&gt;Node8</title>
<path fill="none" stroke="midnightblue" d="M817.06,-400.62C991,-398.359 1718,-383.383 1718,-291 1718,-291 1718,-291 1718,-121 1718,-48.6488 1461.18,-20.9534 1369.25,-13.357"/>
<polygon fill="midnightblue" stroke="midnightblue" points="1369.38,-9.85617 1359.13,-12.5477 1368.82,-16.8339 1369.38,-9.85617"/>
</g>
<!-- Node14&#45;&gt;Node9 -->
<g id="edge76" class="edge"><title>Node14&#45;&gt;Node9</title>
<path fill="none" stroke="midnightblue" d="M817.281,-400.597C903.234,-399.055 1121.62,-391.638 1300,-356 1380.5,-339.918 1408.55,-346.785 1476,-300 1525.84,-265.427 1537.65,-246.416 1554,-188 1559.96,-166.695 1548.49,-115.252 1545,-112 1480.04,-51.5578 1240.61,-88.321 1135.26,-75.7482"/>
<polygon fill="midnightblue" stroke="midnightblue" points="1135.58,-72.2594 1125.19,-74.3227 1134.6,-79.1903 1135.58,-72.2594"/>
</g>
<!-- Node14&#45;&gt;Node12 -->
<g id="edge58" class="edge"><title>Node14&#45;&gt;Node12</title>
<path fill="none" stroke="midnightblue" d="M742.647,-399.149C597.104,-391.447 76,-359.115 76,-291 76,-291 76,-291 76,-233 76,-185.08 128.643,-152.382 164.194,-135.764"/>
<polygon fill="midnightblue" stroke="midnightblue" points="166.013,-138.785 173.71,-131.504 163.153,-132.396 166.013,-138.785"/>
</g>
<!-- Node15 -->
<g id="node15" class="node"><title>Node15</title>
<g id="a_node15"><a xlink:href="api_8hpp.html" target="_top" xlink:title="api.hpp">
<polygon fill="none" stroke="black" points="428,-336.5 428,-355.5 476,-355.5 476,-336.5 428,-336.5"/>
<text text-anchor="middle" x="452" y="-343.5" font-family="Helvetica,sans-Serif" font-size="10.00">api.hpp</text>
</a>
</g>
</g>
<!-- Node14&#45;&gt;Node15 -->
<g id="edge17" class="edge"><title>Node14&#45;&gt;Node15</title>
<path fill="none" stroke="midnightblue" d="M742.757,-396.175C687.404,-388.789 580.252,-373.662 490,-356 488.728,-355.751 487.433,-355.489 486.127,-355.217"/>
<polygon fill="midnightblue" stroke="midnightblue" points="486.58,-351.733 476.061,-353 485.074,-358.569 486.58,-351.733"/>
</g>
<!-- Node17 -->
<g id="node17" class="node"><title>Node17</title>
<g id="a_node17"><a xlink:href="context_8hpp.html" target="_top" xlink:title="context.hpp">
<polygon fill="none" stroke="black" points="446,-168.5 446,-187.5 514,-187.5 514,-168.5 446,-168.5"/>
<text text-anchor="middle" x="480" y="-175.5" font-family="Helvetica,sans-Serif" font-size="10.00">context.hpp</text>
</a>
</g>
</g>
<!-- Node14&#45;&gt;Node17 -->
<g id="edge57" class="edge"><title>Node14&#45;&gt;Node17</title>
<path fill="none" stroke="midnightblue" d="M758.798,-392.487C737.767,-383.868 704.756,-369.867 677,-356 601.292,-318.175 576.243,-309.785 523,-244 510.67,-228.766 498.528,-209.963 490.307,-196.506"/>
<polygon fill="midnightblue" stroke="midnightblue" points="493.216,-194.551 485.068,-187.779 487.215,-198.154 493.216,-194.551"/>
</g>
<!-- Node23 -->
<g id="node23" class="node"><title>Node23</title>
<polygon fill="none" stroke="#bfbfbf" points="670,-168.5 670,-187.5 722,-187.5 722,-168.5 670,-168.5"/>
<text text-anchor="middle" x="696" y="-175.5" font-family="Helvetica,sans-Serif" font-size="10.00">memory</text>
</g>
<!-- Node14&#45;&gt;Node23 -->
<g id="edge77" class="edge"><title>Node14&#45;&gt;Node23</title>
<path fill="none" stroke="midnightblue" d="M776.707,-392.297C764.295,-359.494 720.172,-242.884 702.954,-197.377"/>
<polygon fill="midnightblue" stroke="midnightblue" points="706.174,-195.998 699.361,-187.884 699.627,-198.475 706.174,-195.998"/>
</g>
<!-- Node24 -->
<g id="node24" class="node"><title>Node24</title>
<g id="a_node24"><a xlink:href="command_8hpp.html" target="_top" xlink:title="command.hpp">
<polygon fill="none" stroke="black" points="863,-280.5 863,-299.5 941,-299.5 941,-280.5 863,-280.5"/>
<text text-anchor="middle" x="902" y="-287.5" font-family="Helvetica,sans-Serif" font-size="10.00">command.hpp</text>
</a>
</g>
</g>
<!-- Node14&#45;&gt;Node24 -->
<g id="edge59" class="edge"><title>Node14&#45;&gt;Node24</title>
<path fill="none" stroke="midnightblue" d="M789.573,-392.368C810.152,-373.814 858.842,-329.913 884.878,-306.438"/>
<polygon fill="midnightblue" stroke="midnightblue" points="887.388,-308.887 892.471,-299.591 882.701,-303.688 887.388,-308.887"/>
</g>
<!-- Node25 -->
<g id="node25" class="node"><title>Node25</title>
<g id="a_node25"><a xlink:href="help_8hpp.html" target="_top" xlink:title="help.hpp">
<polygon fill="none" stroke="black" points="587.5,-280.5 587.5,-299.5 640.5,-299.5 640.5,-280.5 587.5,-280.5"/>
<text text-anchor="middle" x="614" y="-287.5" font-family="Helvetica,sans-Serif" font-size="10.00">help.hpp</text>
</a>
</g>
</g>
<!-- Node14&#45;&gt;Node25 -->
<g id="edge66" class="edge"><title>Node14&#45;&gt;Node25</title>
<path fill="none" stroke="midnightblue" d="M766.519,-392.468C752.378,-383.486 729.535,-368.89 710,-356 683.894,-338.775 654.11,-318.512 634.732,-305.246"/>
<polygon fill="midnightblue" stroke="midnightblue" points="636.591,-302.277 626.364,-299.509 632.633,-308.05 636.591,-302.277"/>
</g>
<!-- Node27 -->
<g id="node27" class="node"><title>Node27</title>
<g id="a_node27"><a xlink:href="help__printer_8hpp.html" target="_top" xlink:title="help_printer.hpp">
<polygon fill="none" stroke="black" points="1165,-336.5 1165,-355.5 1251,-355.5 1251,-336.5 1165,-336.5"/>
<text text-anchor="middle" x="1208" y="-343.5" font-family="Helvetica,sans-Serif" font-size="10.00">help_printer.hpp</text>
</a>
</g>
</g>
<!-- Node14&#45;&gt;Node27 -->
<g id="edge78" class="edge"><title>Node14&#45;&gt;Node27</title>
<path fill="none" stroke="midnightblue" d="M817.233,-396.302C893.335,-386.701 1066.91,-364.8 1154.85,-353.706"/>
<polygon fill="midnightblue" stroke="midnightblue" points="1155.39,-357.165 1164.88,-352.441 1154.52,-350.22 1155.39,-357.165"/>
</g>
<!-- Node15&#45;&gt;Node1 -->
<g id="edge55" class="edge"><title>Node15&#45;&gt;Node1</title>
<path fill="none" stroke="midnightblue" d="M476.331,-355.16C533.762,-374.42 677.942,-422.773 744.862,-445.216"/>
<polygon fill="midnightblue" stroke="midnightblue" points="743.941,-448.599 754.535,-448.46 746.167,-441.962 743.941,-448.599"/>
</g>
<!-- Node15&#45;&gt;Node5 -->
<g id="edge18" class="edge"><title>Node15&#45;&gt;Node5</title>
<path fill="none" stroke="midnightblue" d="M427.963,-342.452C350.744,-333.609 114,-301.107 114,-235 114,-235 114,-235 114,-177 114,-144.994 118.859,-130.467 145,-112 207.193,-68.065 440.905,-65.5053 535.193,-66.334"/>
<polygon fill="midnightblue" stroke="midnightblue" points="535.157,-69.8338 545.193,-66.4395 535.23,-62.8341 535.157,-69.8338"/>
</g>
<!-- Node16 -->
<g id="node16" class="node"><title>Node16</title>
<g id="a_node16"><a xlink:href="arg_8hpp.html" target="_top" xlink:title="arg.hpp">
<polygon fill="none" stroke="black" points="532.5,-224.5 532.5,-243.5 581.5,-243.5 581.5,-224.5 532.5,-224.5"/>
<text text-anchor="middle" x="557" y="-231.5" font-family="Helvetica,sans-Serif" font-size="10.00">arg.hpp</text>
</a>
</g>
</g>
<!-- Node15&#45;&gt;Node16 -->
<g id="edge19" class="edge"><title>Node15&#45;&gt;Node16</title>
<path fill="none" stroke="midnightblue" d="M460.239,-336.368C477.797,-317.974 519.132,-274.671 541.678,-251.052"/>
<polygon fill="midnightblue" stroke="midnightblue" points="544.426,-253.242 548.799,-243.591 539.363,-248.408 544.426,-253.242"/>
</g>
<!-- Node20 -->
<g id="node20" class="node"><title>Node20</title>
<g id="a_node20"><a xlink:href="multi__arg_8hpp.html" target="_top" xlink:title="multi_arg.hpp">
<polygon fill="none" stroke="black" points="371.5,-280.5 371.5,-299.5 446.5,-299.5 446.5,-280.5 371.5,-280.5"/>
<text text-anchor="middle" x="409" y="-287.5" font-family="Helvetica,sans-Serif" font-size="10.00">multi_arg.hpp</text>
</a>
</g>
</g>
<!-- Node15&#45;&gt;Node20 -->
<g id="edge34" class="edge"><title>Node15&#45;&gt;Node20</title>
<path fill="none" stroke="midnightblue" d="M444.899,-336.083C438.763,-328.377 429.73,-317.033 422.261,-307.653"/>
<polygon fill="midnightblue" stroke="midnightblue" points="424.936,-305.394 415.968,-299.751 419.46,-309.754 424.936,-305.394"/>
</g>
<!-- Node21 -->
<g id="node21" class="node"><title>Node21</title>
<g id="a_node21"><a xlink:href="groups_8hpp.html" target="_top" xlink:title="groups.hpp">
<polygon fill="none" stroke="black" points="959.5,-280.5 959.5,-299.5 1024.5,-299.5 1024.5,-280.5 959.5,-280.5"/>
<text text-anchor="middle" x="992" y="-287.5" font-family="Helvetica,sans-Serif" font-size="10.00">groups.hpp</text>
</a>
</g>
</g>
<!-- Node15&#45;&gt;Node21 -->
<g id="edge42" class="edge"><title>Node15&#45;&gt;Node21</title>
<path fill="none" stroke="midnightblue" d="M476.223,-343.852C547.276,-340.266 761.409,-327.895 949.011,-299.968"/>
<polygon fill="midnightblue" stroke="midnightblue" points="949.688,-303.405 959.054,-298.454 948.644,-296.483 949.688,-303.405"/>
</g>
<!-- Node16&#45;&gt;Node2 -->
<g id="edge20" class="edge"><title>Node16&#45;&gt;Node2</title>
<path fill="none" stroke="midnightblue" d="M581.68,-230.782C672.468,-222.625 988.899,-194.194 1110.18,-183.296"/>
<polygon fill="midnightblue" stroke="midnightblue" points="1110.63,-186.77 1120.28,-182.389 1110.01,-179.798 1110.63,-186.77"/>
</g>
<!-- Node16&#45;&gt;Node3 -->
<g id="edge21" class="edge"><title>Node16&#45;&gt;Node3</title>
<path fill="none" stroke="midnightblue" d="M581.587,-228.552C676.056,-211.46 1016.02,-149.953 1128.55,-129.595"/>
<polygon fill="midnightblue" stroke="midnightblue" points="1129.19,-133.036 1138.41,-127.811 1127.94,-126.148 1129.19,-133.036"/>
</g>
<!-- Node16&#45;&gt;Node5 -->
<g id="edge32" class="edge"><title>Node16&#45;&gt;Node5</title>
<path fill="none" stroke="midnightblue" d="M532.243,-230.453C492.86,-225.126 421.844,-209.634 437,-168 453.524,-122.608 504.787,-94.1173 539.957,-79.3796"/>
<polygon fill="midnightblue" stroke="midnightblue" points="541.432,-82.559 549.408,-75.5849 538.824,-76.0631 541.432,-82.559"/>
</g>
<!-- Node16&#45;&gt;Node9 -->
<g id="edge33" class="edge"><title>Node16&#45;&gt;Node9</title>
<path fill="none" stroke="midnightblue" d="M569.692,-224.268C593.012,-208.36 642.023,-175.596 661,-168 734.72,-138.492 758.568,-149.598 836,-132 915.663,-113.895 1008.34,-90.1789 1059.03,-76.9766"/>
<polygon fill="midnightblue" stroke="midnightblue" points="1060.1,-80.3146 1068.9,-74.4029 1058.34,-73.5414 1060.1,-80.3146"/>
</g>
<!-- Node16&#45;&gt;Node12 -->
<g id="edge26" class="edge"><title>Node16&#45;&gt;Node12</title>
<path fill="none" stroke="midnightblue" d="M532.318,-225.879C502.043,-217.113 449.175,-201.701 404,-188 343.795,-169.741 274.042,-147.777 232.547,-134.625"/>
<polygon fill="midnightblue" stroke="midnightblue" points="233.471,-131.247 222.881,-131.559 231.354,-137.919 233.471,-131.247"/>
</g>
<!-- Node16&#45;&gt;Node17 -->
<g id="edge22" class="edge"><title>Node16&#45;&gt;Node17</title>
<path fill="none" stroke="midnightblue" d="M544.629,-224.324C532.842,-216.058 514.868,-203.453 500.864,-193.632"/>
<polygon fill="midnightblue" stroke="midnightblue" points="502.538,-190.531 492.341,-187.655 498.518,-196.262 502.538,-190.531"/>
</g>
<!-- Node19 -->
<g id="node19" class="node"><title>Node19</title>
<g id="a_node19"><a xlink:href="value__utils_8hpp.html" target="_top" xlink:title="value_utils.hpp">
<polygon fill="none" stroke="black" points="532,-168.5 532,-187.5 614,-187.5 614,-168.5 532,-168.5"/>
<text text-anchor="middle" x="573" y="-175.5" font-family="Helvetica,sans-Serif" font-size="10.00">value_utils.hpp</text>
</a>
</g>
</g>
<!-- Node16&#45;&gt;Node19 -->
<g id="edge27" class="edge"><title>Node16&#45;&gt;Node19</title>
<path fill="none" stroke="midnightblue" d="M559.642,-224.083C561.786,-216.849 564.879,-206.409 567.549,-197.397"/>
<polygon fill="midnightblue" stroke="midnightblue" points="570.922,-198.333 570.407,-187.751 564.21,-196.345 570.922,-198.333"/>
</g>
<!-- Node17&#45;&gt;Node3 -->
<g id="edge24" class="edge"><title>Node17&#45;&gt;Node3</title>
<path fill="none" stroke="midnightblue" d="M514.194,-169.404C517.163,-168.878 520.129,-168.399 523,-168 751.769,-136.193 1029.69,-126.412 1128.22,-123.825"/>
<polygon fill="midnightblue" stroke="midnightblue" points="1128.35,-127.322 1138.26,-123.57 1128.18,-120.325 1128.35,-127.322"/>
</g>
<!-- Node17&#45;&gt;Node5 -->
<g id="edge25" class="edge"><title>Node17&#45;&gt;Node5</title>
<path fill="none" stroke="midnightblue" d="M480.384,-168.079C481.387,-154.616 485.001,-128.887 498,-112 509.028,-97.6735 526.015,-87.0542 541.231,-79.7408"/>
<polygon fill="midnightblue" stroke="midnightblue" points="542.725,-82.9068 550.407,-75.6108 539.852,-76.5236 542.725,-82.9068"/>
</g>
<!-- Node18 -->
<g id="node18" class="node"><title>Node18</title>
<polygon fill="none" stroke="#bfbfbf" points="507,-112.5 507,-131.5 547,-131.5 547,-112.5 507,-112.5"/>
<text text-anchor="middle" x="527" y="-119.5" font-family="Helvetica,sans-Serif" font-size="10.00">utility</text>
</g>
<!-- Node17&#45;&gt;Node18 -->
<g id="edge23" class="edge"><title>Node17&#45;&gt;Node18</title>
<path fill="none" stroke="midnightblue" d="M487.761,-168.083C494.537,-160.298 504.543,-148.801 512.755,-139.367"/>
<polygon fill="midnightblue" stroke="midnightblue" points="515.458,-141.592 519.383,-131.751 510.178,-136.996 515.458,-141.592"/>
</g>
<!-- Node19&#45;&gt;Node3 -->
<g id="edge28" class="edge"><title>Node19&#45;&gt;Node3</title>
<path fill="none" stroke="midnightblue" d="M614.177,-172.678C628.941,-171.158 645.712,-169.464 661,-168 835.882,-151.251 1045.1,-133.209 1128.29,-126.115"/>
<polygon fill="midnightblue" stroke="midnightblue" points="1128.82,-129.582 1138.49,-125.246 1128.22,-122.608 1128.82,-129.582"/>
</g>
<!-- Node19&#45;&gt;Node5 -->
<g id="edge30" class="edge"><title>Node19&#45;&gt;Node5</title>
<path fill="none" stroke="midnightblue" d="M573.157,-168.368C573.48,-150.617 574.224,-109.666 574.662,-85.5974"/>
<polygon fill="midnightblue" stroke="midnightblue" points="578.161,-85.6534 574.844,-75.5914 571.162,-85.5261 578.161,-85.6534"/>
</g>
<!-- Node19&#45;&gt;Node9 -->
<g id="edge31" class="edge"><title>Node19&#45;&gt;Node9</title>
<path fill="none" stroke="midnightblue" d="M609.936,-168.484C665.433,-155.761 773.672,-131.231 866,-112 933.724,-97.8939 1012.91,-82.763 1058.77,-74.133"/>
<polygon fill="midnightblue" stroke="midnightblue" points="1059.68,-77.5238 1068.86,-72.2382 1058.39,-70.6441 1059.68,-77.5238"/>
</g>
<!-- Node19&#45;&gt;Node12 -->
<g id="edge29" class="edge"><title>Node19&#45;&gt;Node12</title>
<path fill="none" stroke="midnightblue" d="M531.822,-169.449C528.839,-168.945 525.875,-168.456 523,-168 425.895,-152.586 312.072,-137.62 247.556,-129.426"/>
<polygon fill="midnightblue" stroke="midnightblue" points="247.995,-125.953 237.635,-128.169 247.116,-132.898 247.995,-125.953"/>
</g>
<!-- Node20&#45;&gt;Node3 -->
<g id="edge39" class="edge"><title>Node20&#45;&gt;Node3</title>
<path fill="none" stroke="midnightblue" d="M446.844,-286.845C573.715,-279.545 979.256,-255.557 1037,-244 1046.6,-242.08 1198.29,-195.944 1204,-188 1215.67,-171.775 1199.77,-151.924 1184.9,-138.46"/>
<polygon fill="midnightblue" stroke="midnightblue" points="1186.82,-135.498 1176.93,-131.701 1182.29,-140.837 1186.82,-135.498"/>
</g>
<!-- Node20&#45;&gt;Node5 -->
<g id="edge40" class="edge"><title>Node20&#45;&gt;Node5</title>
<path fill="none" stroke="midnightblue" d="M406.27,-280.486C403.549,-271.52 399.558,-256.935 398,-244 390.654,-183.009 394.885,-154.752 439,-112 464.961,-86.8412 505.288,-75.7449 535.297,-70.8528"/>
<polygon fill="midnightblue" stroke="midnightblue" points="536.053,-74.2795 545.441,-69.3683 535.039,-67.3533 536.053,-74.2795"/>
</g>
<!-- Node20&#45;&gt;Node12 -->
<g id="edge37" class="edge"><title>Node20&#45;&gt;Node12</title>
<path fill="none" stroke="midnightblue" d="M371.261,-285.507C337.318,-280.768 287.478,-269.698 252,-244 218.045,-219.406 204.105,-169.043 198.855,-141.686"/>
<polygon fill="midnightblue" stroke="midnightblue" points="202.25,-140.774 197.104,-131.513 195.351,-141.961 202.25,-140.774"/>
</g>
<!-- Node20&#45;&gt;Node16 -->
<g id="edge35" class="edge"><title>Node20&#45;&gt;Node16</title>
<path fill="none" stroke="midnightblue" d="M432.451,-280.444C457.133,-271.438 496.185,-257.189 523.977,-247.049"/>
<polygon fill="midnightblue" stroke="midnightblue" points="525.464,-250.232 533.659,-243.516 523.065,-243.656 525.464,-250.232"/>
</g>
<!-- Node20&#45;&gt;Node17 -->
<g id="edge36" class="edge"><title>Node20&#45;&gt;Node17</title>
<path fill="none" stroke="midnightblue" d="M407.426,-280.316C405.508,-267.161 403.683,-241.829 414,-224 422.07,-210.053 436.41,-199.497 449.666,-192.126"/>
<polygon fill="midnightblue" stroke="midnightblue" points="451.296,-195.224 458.58,-187.53 448.088,-189.002 451.296,-195.224"/>
</g>
<!-- Node20&#45;&gt;Node18 -->
<g id="edge41" class="edge"><title>Node20&#45;&gt;Node18</title>
<path fill="none" stroke="midnightblue" d="M406.522,-280.412C403.289,-267.805 398.64,-243.655 404,-224 411.601,-196.129 415.881,-187.712 437,-168 454.212,-151.934 478.246,-140.312 497.149,-132.908"/>
<polygon fill="midnightblue" stroke="midnightblue" points="498.624,-136.093 506.774,-129.323 496.181,-129.533 498.624,-136.093"/>
</g>
<!-- Node20&#45;&gt;Node19 -->
<g id="edge38" class="edge"><title>Node20&#45;&gt;Node19</title>
<path fill="none" stroke="midnightblue" d="M421.869,-280.368C450.011,-261.492 517.262,-216.385 551.774,-193.237"/>
<polygon fill="midnightblue" stroke="midnightblue" points="553.836,-196.069 560.191,-187.591 549.936,-190.255 553.836,-196.069"/>
</g>
<!-- Node21&#45;&gt;Node5 -->
<g id="edge53" class="edge"><title>Node21&#45;&gt;Node5</title>
<path fill="none" stroke="midnightblue" d="M975.909,-280.433C912.321,-246.581 678.239,-121.962 600.376,-80.5096"/>
<polygon fill="midnightblue" stroke="midnightblue" points="601.74,-77.2707 591.268,-75.6608 598.451,-83.4497 601.74,-77.2707"/>
</g>
<!-- Node21&#45;&gt;Node9 -->
<g id="edge54" class="edge"><title>Node21&#45;&gt;Node9</title>
<path fill="none" stroke="midnightblue" d="M1024.74,-287.855C1107.25,-284.559 1321.72,-273.339 1386,-244 1452.96,-213.436 1478.39,-199.386 1508,-132 1511.58,-123.862 1513.98,-118.58 1508,-112 1453.83,-52.369 1232.67,-87.2361 1135.33,-75.7449"/>
<polygon fill="midnightblue" stroke="midnightblue" points="1135.59,-72.2468 1125.2,-74.2973 1134.6,-79.1764 1135.59,-72.2468"/>
</g>
<!-- Node22 -->
<g id="node22" class="node"><title>Node22</title>
<g id="a_node22"><a xlink:href="group__iface_8hpp.html" target="_top" xlink:title="group_iface.hpp">
<polygon fill="none" stroke="black" points="942,-224.5 942,-243.5 1028,-243.5 1028,-224.5 942,-224.5"/>
<text text-anchor="middle" x="985" y="-231.5" font-family="Helvetica,sans-Serif" font-size="10.00">group_iface.hpp</text>
</a>
</g>
</g>
<!-- Node21&#45;&gt;Node22 -->
<g id="edge43" class="edge"><title>Node21&#45;&gt;Node22</title>
<path fill="none" stroke="midnightblue" d="M990.844,-280.083C989.916,-272.927 988.582,-262.635 987.423,-253.691"/>
<polygon fill="midnightblue" stroke="midnightblue" points="990.891,-253.218 986.134,-243.751 983.949,-254.118 990.891,-253.218"/>
</g>
<!-- Node22&#45;&gt;Node2 -->
<g id="edge44" class="edge"><title>Node22&#45;&gt;Node2</title>
<path fill="none" stroke="midnightblue" d="M1012.41,-224.444C1041.77,-215.28 1088.52,-200.688 1121.1,-190.519"/>
<polygon fill="midnightblue" stroke="midnightblue" points="1122.21,-193.837 1130.72,-187.516 1120.13,-187.155 1122.21,-193.837"/>
</g>
<!-- Node22&#45;&gt;Node3 -->
<g id="edge45" class="edge"><title>Node22&#45;&gt;Node3</title>
<path fill="none" stroke="midnightblue" d="M999.124,-224.368C1030.14,-205.412 1104.45,-160.001 1142.19,-136.942"/>
<polygon fill="midnightblue" stroke="midnightblue" points="1144.23,-139.792 1150.94,-131.591 1140.58,-133.819 1144.23,-139.792"/>
</g>
<!-- Node22&#45;&gt;Node5 -->
<g id="edge47" class="edge"><title>Node22&#45;&gt;Node5</title>
<path fill="none" stroke="midnightblue" d="M978.907,-224.467C962.201,-201.803 913.099,-139.925 856,-112 776.778,-73.2555 671.421,-66.6631 614.888,-66.2227"/>
<polygon fill="midnightblue" stroke="midnightblue" points="614.592,-62.7223 604.586,-66.2072 614.581,-69.7223 614.592,-62.7223"/>
</g>
<!-- Node22&#45;&gt;Node8 -->
<g id="edge48" class="edge"><title>Node22&#45;&gt;Node8</title>
<path fill="none" stroke="midnightblue" d="M985.805,-224.235C988.992,-194.999 1003.47,-100.19 1060,-56 1097.63,-26.5824 1240.13,-15.829 1304.77,-12.4069"/>
<polygon fill="midnightblue" stroke="midnightblue" points="1305,-15.8999 1314.81,-11.9015 1304.64,-8.90873 1305,-15.8999"/>
</g>
<!-- Node22&#45;&gt;Node9 -->
<g id="edge50" class="edge"><title>Node22&#45;&gt;Node9</title>
<path fill="none" stroke="midnightblue" d="M991.022,-224.075C1008.88,-197.606 1061.77,-119.209 1085.39,-84.2097"/>
<polygon fill="midnightblue" stroke="midnightblue" points="1088.53,-85.8153 1091.22,-75.5681 1082.72,-81.9002 1088.53,-85.8153"/>
</g>
<!-- Node22&#45;&gt;Node10 -->
<g id="edge49" class="edge"><title>Node22&#45;&gt;Node10</title>
<path fill="none" stroke="midnightblue" d="M1028.1,-229.541C1084.55,-224.128 1179.29,-211.728 1204,-188 1232.01,-161.098 1235.49,-112.458 1235.07,-85.7728"/>
<polygon fill="midnightblue" stroke="midnightblue" points="1238.56,-85.3747 1234.69,-75.51 1231.56,-85.6318 1238.56,-85.3747"/>
</g>
<!-- Node22&#45;&gt;Node12 -->
<g id="edge46" class="edge"><title>Node22&#45;&gt;Node12</title>
<path fill="none" stroke="midnightblue" d="M948.798,-224.476C911.815,-215.679 852.775,-201.39 802,-188 770.3,-179.64 763.258,-173.845 731,-168 555.564,-136.213 343.61,-126.805 247.654,-124.079"/>
<polygon fill="midnightblue" stroke="midnightblue" points="247.726,-120.58 237.634,-123.807 247.536,-127.577 247.726,-120.58"/>
</g>
<!-- Node22&#45;&gt;Node18 -->
<g id="edge51" class="edge"><title>Node22&#45;&gt;Node18</title>
<path fill="none" stroke="midnightblue" d="M964.789,-224.471C931.447,-210.709 862.571,-183.579 802,-168 714.516,-145.499 608.354,-131.882 557.3,-126.16"/>
<polygon fill="midnightblue" stroke="midnightblue" points="557.591,-122.671 547.268,-125.058 556.827,-129.629 557.591,-122.671"/>
</g>
<!-- Node22&#45;&gt;Node23 -->
<g id="edge52" class="edge"><title>Node22&#45;&gt;Node23</title>
<path fill="none" stroke="midnightblue" d="M941.734,-224.916C884.752,-214.268 785.562,-195.735 732.294,-185.782"/>
<polygon fill="midnightblue" stroke="midnightblue" points="732.751,-182.307 722.279,-183.91 731.466,-189.187 732.751,-182.307"/>
</g>
<!-- Node24&#45;&gt;Node3 -->
<g id="edge61" class="edge"><title>Node24&#45;&gt;Node3</title>
<path fill="none" stroke="midnightblue" d="M941.03,-281.669C944.065,-281.103 947.082,-280.541 950,-280 1037.08,-263.839 1060.22,-266.058 1146,-244 1165.06,-239.1 1302.5,-203.962 1314,-188 1344.17,-146.145 1255.27,-130.921 1201.97,-125.637"/>
<polygon fill="midnightblue" stroke="midnightblue" points="1202.11,-122.136 1191.83,-124.708 1201.47,-129.106 1202.11,-122.136"/>
</g>
<!-- Node24&#45;&gt;Node5 -->
<g id="edge65" class="edge"><title>Node24&#45;&gt;Node5</title>
<path fill="none" stroke="midnightblue" d="M897.938,-280.319C883.911,-251.352 834.478,-157.29 764,-112 718.188,-82.5609 654.99,-72.3559 614.555,-68.8336"/>
<polygon fill="midnightblue" stroke="midnightblue" points="614.78,-65.3407 604.539,-68.0574 614.239,-72.3197 614.78,-65.3407"/>
</g>
<!-- Node24&#45;&gt;Node11 -->
<g id="edge64" class="edge"><title>Node24&#45;&gt;Node11</title>
<path fill="none" stroke="midnightblue" d="M941.242,-281.321C944.2,-280.841 947.144,-280.393 950,-280 1039.95,-267.619 1275.66,-284.358 1357,-244 1403.89,-220.736 1440.29,-168.226 1456.99,-140.659"/>
<polygon fill="midnightblue" stroke="midnightblue" points="1460.19,-142.126 1462.24,-131.731 1454.16,-138.58 1460.19,-142.126"/>
</g>
<!-- Node24&#45;&gt;Node17 -->
<g id="edge62" class="edge"><title>Node24&#45;&gt;Node17</title>
<path fill="none" stroke="midnightblue" d="M862.968,-280.767C823.109,-272.2 759.516,-258.089 705,-244 638.531,-226.822 561.863,-204.027 517.365,-190.498"/>
<polygon fill="midnightblue" stroke="midnightblue" points="518.158,-187.081 507.572,-187.512 516.117,-193.777 518.158,-187.081"/>
</g>
<!-- Node24&#45;&gt;Node19 -->
<g id="edge63" class="edge"><title>Node24&#45;&gt;Node19</title>
<path fill="none" stroke="midnightblue" d="M876.458,-280.46C818.154,-260.966 675.167,-213.159 608.409,-190.839"/>
<polygon fill="midnightblue" stroke="midnightblue" points="609.347,-187.462 598.753,-187.61 607.127,-194.101 609.347,-187.462"/>
</g>
<!-- Node24&#45;&gt;Node22 -->
<g id="edge60" class="edge"><title>Node24&#45;&gt;Node22</title>
<path fill="none" stroke="midnightblue" d="M915.335,-280.324C928.162,-271.979 947.785,-259.212 962.94,-249.352"/>
<polygon fill="midnightblue" stroke="midnightblue" points="965.224,-252.042 971.698,-243.655 961.407,-246.174 965.224,-252.042"/>
</g>
<!-- Node25&#45;&gt;Node3 -->
<g id="edge71" class="edge"><title>Node25&#45;&gt;Node3</title>
<path fill="none" stroke="midnightblue" d="M640.81,-287.941C730.458,-284.186 1019.12,-270.296 1108,-244 1126.3,-238.585 1128.26,-231.032 1146,-224 1201.74,-201.912 1239.7,-235.715 1276,-188 1299.06,-157.688 1242.13,-138.915 1201.55,-129.76"/>
<polygon fill="midnightblue" stroke="midnightblue" points="1202.16,-126.311 1191.65,-127.638 1200.7,-133.155 1202.16,-126.311"/>
</g>
<!-- Node25&#45;&gt;Node5 -->
<g id="edge73" class="edge"><title>Node25&#45;&gt;Node5</title>
<path fill="none" stroke="midnightblue" d="M587.169,-283.508C544.812,-273.208 463.89,-246.525 431,-188 416.368,-161.965 452.379,-117.178 458,-112 479.525,-92.1727 510.72,-80.7588 535.486,-74.3903"/>
<polygon fill="midnightblue" stroke="midnightblue" points="536.405,-77.7693 545.315,-72.0364 534.774,-70.9618 536.405,-77.7693"/>
</g>
<!-- Node25&#45;&gt;Node12 -->
<g id="edge72" class="edge"><title>Node25&#45;&gt;Node12</title>
<path fill="none" stroke="midnightblue" d="M587.237,-283.826C530.284,-272.148 393.806,-240.587 290,-188 262.013,-173.822 232.736,-152.36 214.441,-138.021"/>
<polygon fill="midnightblue" stroke="midnightblue" points="216.4,-135.107 206.396,-131.618 212.04,-140.584 216.4,-135.107"/>
</g>
<!-- Node25&#45;&gt;Node16 -->
<g id="edge67" class="edge"><title>Node25&#45;&gt;Node16</title>
<path fill="none" stroke="midnightblue" d="M604.842,-280.324C596.499,-272.42 583.968,-260.548 573.823,-250.938"/>
<polygon fill="midnightblue" stroke="midnightblue" points="575.991,-248.171 566.325,-243.834 571.177,-253.252 575.991,-248.171"/>
</g>
<!-- Node25&#45;&gt;Node17 -->
<g id="edge70" class="edge"><title>Node25&#45;&gt;Node17</title>
<path fill="none" stroke="midnightblue" d="M613.022,-280.245C611.049,-266.534 605.378,-239.92 590,-224 579.531,-213.162 545.199,-200.042 517.643,-190.773"/>
<polygon fill="midnightblue" stroke="midnightblue" points="518.447,-187.353 507.854,-187.543 516.254,-194 518.447,-187.353"/>
</g>
<!-- Node25&#45;&gt;Node23 -->
<g id="edge74" class="edge"><title>Node25&#45;&gt;Node23</title>
<path fill="none" stroke="midnightblue" d="M620.434,-280.368C634.027,-262.135 665.864,-219.426 683.569,-195.675"/>
<polygon fill="midnightblue" stroke="midnightblue" points="686.425,-197.701 689.595,-187.591 680.813,-193.517 686.425,-197.701"/>
</g>
<!-- Node26 -->
<g id="node26" class="node"><title>Node26</title>
<g id="a_node26"><a xlink:href="help__printer__iface_8hpp.html" target="_top" xlink:title="help_printer_iface.hpp">
<polygon fill="none" stroke="black" points="1236,-224.5 1236,-243.5 1348,-243.5 1348,-224.5 1236,-224.5"/>
<text text-anchor="middle" x="1292" y="-231.5" font-family="Helvetica,sans-Serif" font-size="10.00">help_printer_iface.hpp</text>
</a>
</g>
</g>
<!-- Node25&#45;&gt;Node26 -->
<g id="edge68" class="edge"><title>Node25&#45;&gt;Node26</title>
<path fill="none" stroke="midnightblue" d="M640.578,-286.883C738.426,-279.09 1080.43,-251.85 1225.81,-240.272"/>
<polygon fill="midnightblue" stroke="midnightblue" points="1226.24,-243.749 1235.93,-239.466 1225.68,-236.771 1226.24,-243.749"/>
</g>
<!-- Node26&#45;&gt;Node3 -->
<g id="edge69" class="edge"><title>Node26&#45;&gt;Node3</title>
<path fill="none" stroke="midnightblue" d="M1310.42,-224.35C1333.7,-212.251 1368.82,-189.352 1352,-168 1333.66,-144.725 1250.87,-132.094 1201.81,-126.535"/>
<polygon fill="midnightblue" stroke="midnightblue" points="1201.91,-123.025 1191.6,-125.424 1201.16,-129.984 1201.91,-123.025"/>
</g>
<!-- Node27&#45;&gt;Node3 -->
<g id="edge82" class="edge"><title>Node27&#45;&gt;Node3</title>
<path fill="none" stroke="midnightblue" d="M1245.13,-336.494C1268.78,-329.651 1299,-318.129 1321,-300 1369.18,-260.302 1408.1,-216.664 1369,-168 1348.4,-142.356 1254.56,-130.459 1201.62,-125.704"/>
<polygon fill="midnightblue" stroke="midnightblue" points="1201.87,-122.213 1191.61,-124.846 1201.28,-129.187 1201.87,-122.213"/>
</g>
<!-- Node27&#45;&gt;Node5 -->
<g id="edge87" class="edge"><title>Node27&#45;&gt;Node5</title>
<path fill="none" stroke="midnightblue" d="M1199.55,-336.335C1164.79,-301.294 1028.01,-169.233 887,-112 794.674,-74.5276 675.86,-67.5947 614.934,-66.7157"/>
<polygon fill="midnightblue" stroke="midnightblue" points="614.637,-63.2128 604.605,-66.6175 614.571,-70.2125 614.637,-63.2128"/>
</g>
<!-- Node27&#45;&gt;Node8 -->
<g id="edge79" class="edge"><title>Node27&#45;&gt;Node8</title>
<path fill="none" stroke="midnightblue" d="M1251.2,-337.985C1360.98,-318.946 1642,-262.091 1642,-179 1642,-179 1642,-179 1642,-121 1642,-63.6099 1448.49,-27.8556 1369.75,-15.6813"/>
<polygon fill="midnightblue" stroke="midnightblue" points="1369.84,-12.1556 1359.43,-14.1202 1368.79,-19.0768 1369.84,-12.1556"/>
</g>
<!-- Node27&#45;&gt;Node9 -->
<g id="edge80" class="edge"><title>Node27&#45;&gt;Node9</title>
<path fill="none" stroke="midnightblue" d="M1240.38,-336.471C1338.77,-309.127 1621.71,-219.15 1524,-112 1496.22,-81.541 1209.64,-82.9108 1135.52,-75.6149"/>
<polygon fill="midnightblue" stroke="midnightblue" points="1135.55,-72.0919 1125.19,-74.3089 1134.68,-79.0366 1135.55,-72.0919"/>
</g>
<!-- Node27&#45;&gt;Node12 -->
<g id="edge83" class="edge"><title>Node27&#45;&gt;Node12</title>
<path fill="none" stroke="midnightblue" d="M1164.87,-344.663C1014.96,-343.186 517.174,-335.651 362,-300 299.491,-285.639 275.488,-288.187 229,-244 200.679,-217.081 195.848,-168.448 195.49,-141.768"/>
<polygon fill="midnightblue" stroke="midnightblue" points="198.992,-141.533 195.564,-131.508 191.992,-141.482 198.992,-141.533"/>
</g>
<!-- Node27&#45;&gt;Node21 -->
<g id="edge85" class="edge"><title>Node27&#45;&gt;Node21</title>
<path fill="none" stroke="midnightblue" d="M1173.77,-336.444C1136.05,-327.012 1075.32,-311.83 1034.56,-301.64"/>
<polygon fill="midnightblue" stroke="midnightblue" points="1035.2,-298.193 1024.65,-299.163 1033.5,-304.984 1035.2,-298.193"/>
</g>
<!-- Node27&#45;&gt;Node22 -->
<g id="edge84" class="edge"><title>Node27&#45;&gt;Node22</title>
<path fill="none" stroke="midnightblue" d="M1190.5,-336.368C1151.58,-317.171 1057.66,-270.842 1011.5,-248.074"/>
<polygon fill="midnightblue" stroke="midnightblue" points="1012.93,-244.876 1002.42,-243.591 1009.84,-251.154 1012.93,-244.876"/>
</g>
<!-- Node27&#45;&gt;Node24 -->
<g id="edge86" class="edge"><title>Node27&#45;&gt;Node24</title>
<path fill="none" stroke="midnightblue" d="M1164.6,-337.603C1115.31,-329.164 1032.2,-314.818 950.925,-300.15"/>
<polygon fill="midnightblue" stroke="midnightblue" points="951.488,-296.695 941.025,-298.36 950.243,-303.583 951.488,-296.695"/>
</g>
<!-- Node27&#45;&gt;Node26 -->
<g id="edge88" class="edge"><title>Node27&#45;&gt;Node26</title>
<path fill="none" stroke="midnightblue" d="M1249.47,-336.497C1269.59,-330.06 1291.95,-318.952 1304,-300 1313.02,-285.817 1307.79,-266.588 1301.66,-252.729"/>
<polygon fill="midnightblue" stroke="midnightblue" points="1304.79,-251.162 1297.24,-243.735 1298.51,-254.253 1304.79,-251.162"/>
</g>
<!-- Node28 -->
<g id="node28" class="node"><title>Node28</title>
<polygon fill="none" stroke="#bfbfbf" points="1236.5,-280.5 1236.5,-299.5 1295.5,-299.5 1295.5,-280.5 1236.5,-280.5"/>
<text text-anchor="middle" x="1266" y="-287.5" font-family="Helvetica,sans-Serif" font-size="10.00">functional</text>
</g>
<!-- Node27&#45;&gt;Node28 -->
<g id="edge81" class="edge"><title>Node27&#45;&gt;Node28</title>
<path fill="none" stroke="midnightblue" d="M1217.32,-336.324C1225.89,-328.341 1238.81,-316.313 1249.19,-306.653"/>
<polygon fill="midnightblue" stroke="midnightblue" points="1251.58,-309.21 1256.51,-299.834 1246.81,-304.086 1251.58,-309.21"/>
</g>
</g>
</svg>
