<?xml version="1.0" encoding="UTF-8" standalone="no"?>
<!DOCTYPE svg PUBLIC "-//W3C//DTD SVG 1.1//EN"
 "http://www.w3.org/Graphics/SVG/1.1/DTD/svg11.dtd">
<!-- Generated by graphviz version 2.43.0 (0)
 -->
<!-- Title: arg.hpp Pages: 1 -->
<svg width="204pt" height="357pt"
 viewBox="0.00 0.00 204.00 357.00" xmlns="http://www.w3.org/2000/svg" xmlns:xlink="http://www.w3.org/1999/xlink">
<g id="graph0" class="graph" transform="scale(1 1) rotate(0) translate(4 353)">
<title>arg.hpp</title>
<!-- Node1 -->
<g id="Node000001" class="node">
<title>Node1</title>
<g id="a_Node000001"><a xlink:title=" ">
<polygon fill="#999999" stroke="#666666" points="138.5,-349 85.5,-349 85.5,-330 138.5,-330 138.5,-349"/>
<text text-anchor="middle" x="112" y="-337" font-family="Helvetica,sans-Serif" font-size="10.00">arg.hpp</text>
</a>
</g>
</g>
<!-- Node2 -->
<g id="Node000002" class="node">
<title>Node2</title>
<g id="a_Node000002"><a xlink:href="api_8hpp.html" target="_top" xlink:title=" ">
<polygon fill="white" stroke="#666666" points="105.5,-239 52.5,-239 52.5,-220 105.5,-220 105.5,-239"/>
<text text-anchor="middle" x="79" y="-227" font-family="Helvetica,sans-Serif" font-size="10.00">api.hpp</text>
</a>
</g>
</g>
<!-- Node1&#45;&gt;Node2 -->
<g id="edge1_Node000001_Node000002" class="edge">
<title>Node1&#45;&gt;Node2</title>
<g id="a_edge1_Node000001_Node000002"><a xlink:title=" ">
<path fill="none" stroke="#63b8ff" d="M106.55,-320.05C102.79,-307.37 97.65,-290.15 93,-275 89.15,-262.46 84.57,-247.97 81.72,-239.02"/>
<polygon fill="#63b8ff" stroke="#63b8ff" points="103.26,-321.26 109.46,-329.86 109.98,-319.28 103.26,-321.26"/>
</a>
</g>
</g>
<!-- Node7 -->
<g id="Node000007" class="node">
<title>Node7</title>
<g id="a_Node000007"><a xlink:href="help_8hpp.html" target="_top" xlink:title=" ">
<polygon fill="white" stroke="#666666" points="171.5,-129 112.5,-129 112.5,-110 171.5,-110 171.5,-129"/>
<text text-anchor="middle" x="142" y="-117" font-family="Helvetica,sans-Serif" font-size="10.00">help.hpp</text>
</a>
</g>
</g>
<!-- Node1&#45;&gt;Node7 -->
<g id="edge12_Node000001_Node000007" class="edge">
<title>Node1&#45;&gt;Node7</title>
<g id="a_edge12_Node000001_Node000007"><a xlink:title=" ">
<path fill="none" stroke="#63b8ff" d="M114.57,-319.85C120.76,-274.82 136.35,-161.53 140.8,-129.22"/>
<polygon fill="#63b8ff" stroke="#63b8ff" points="111.07,-319.57 113.18,-329.95 118.01,-320.52 111.07,-319.57"/>
</a>
</g>
</g>
<!-- Node8 -->
<g id="Node000008" class="node">
<title>Node8</title>
<g id="a_Node000008"><a xlink:href="multi__arg_8hpp.html" target="_top" xlink:title=" ">
<polygon fill="white" stroke="#666666" points="84,-294 0,-294 0,-275 84,-275 84,-294"/>
<text text-anchor="middle" x="42" y="-282" font-family="Helvetica,sans-Serif" font-size="10.00">multi_arg.hpp</text>
</a>
</g>
</g>
<!-- Node1&#45;&gt;Node8 -->
<g id="edge13_Node000001_Node000008" class="edge">
<title>Node1&#45;&gt;Node8</title>
<g id="a_edge13_Node000001_Node000008"><a xlink:title=" ">
<path fill="none" stroke="#63b8ff" d="M92.69,-323.88C80.09,-314.34 64.07,-302.21 53.45,-294.17"/>
<polygon fill="#63b8ff" stroke="#63b8ff" points="90.67,-326.74 100.75,-329.98 94.89,-321.16 90.67,-326.74"/>
</a>
</g>
</g>
<!-- Node3 -->
<g id="Node000003" class="node">
<title>Node3</title>
<g id="a_Node000003"><a xlink:href="cmd__line_8hpp.html" target="_top" xlink:title=" ">
<polygon fill="white" stroke="#666666" points="156,-74 74,-74 74,-55 156,-55 156,-74"/>
<text text-anchor="middle" x="115" y="-62" font-family="Helvetica,sans-Serif" font-size="10.00">cmd_line.hpp</text>
</a>
</g>
</g>
<!-- Node2&#45;&gt;Node3 -->
<g id="edge2_Node000002_Node000003" class="edge">
<title>Node2&#45;&gt;Node3</title>
<g id="a_edge2_Node000002_Node000003"><a xlink:title=" ">
<path fill="none" stroke="#63b8ff" d="M54.42,-214.29C43.91,-206.76 32.75,-196.48 27,-184 23.47,-176.33 24.01,-172.9 27,-165 42.44,-124.24 83.05,-89.43 103.24,-74"/>
<polygon fill="#63b8ff" stroke="#63b8ff" points="52.7,-217.35 62.97,-219.95 56.57,-211.51 52.7,-217.35"/>
</a>
</g>
</g>
<!-- Node6 -->
<g id="Node000006" class="node">
<title>Node6</title>
<g id="a_Node000006"><a xlink:href="command_8hpp.html" target="_top" xlink:title=" ">
<polygon fill="white" stroke="#666666" points="122,-184 36,-184 36,-165 122,-165 122,-184"/>
<text text-anchor="middle" x="79" y="-172" font-family="Helvetica,sans-Serif" font-size="10.00">command.hpp</text>
</a>
</g>
</g>
<!-- Node2&#45;&gt;Node6 -->
<g id="edge6_Node000002_Node000006" class="edge">
<title>Node2&#45;&gt;Node6</title>
<g id="a_edge6_Node000002_Node000006"><a xlink:title=" ">
<path fill="none" stroke="#63b8ff" d="M72.51,-209.66C71.91,-200.93 72.36,-190.99 73.87,-184.09"/>
<polygon fill="#63b8ff" stroke="#63b8ff" points="69.06,-210.29 73.83,-219.75 76,-209.38 69.06,-210.29"/>
</a>
</g>
</g>
<!-- Node4 -->
<g id="Node000004" class="node">
<title>Node4</title>
<g id="a_Node000004"><a xlink:href="all_8hpp.html" target="_top" xlink:title=" ">
<polygon fill="white" stroke="#666666" points="196,-19 146,-19 146,0 196,0 196,-19"/>
<text text-anchor="middle" x="171" y="-7" font-family="Helvetica,sans-Serif" font-size="10.00">all.hpp</text>
</a>
</g>
</g>
<!-- Node3&#45;&gt;Node4 -->
<g id="edge3_Node000003_Node000004" class="edge">
<title>Node3&#45;&gt;Node4</title>
<g id="a_edge3_Node000003_Node000004"><a xlink:title=" ">
<path fill="none" stroke="#63b8ff" d="M131.33,-48.04C141.26,-38.64 153.59,-26.98 161.84,-19.17"/>
<polygon fill="#63b8ff" stroke="#63b8ff" points="128.85,-45.57 124,-54.98 133.67,-50.65 128.85,-45.57"/>
</a>
</g>
</g>
<!-- Node5 -->
<g id="Node000005" class="node">
<title>Node5</title>
<g id="a_Node000005"><a xlink:href="help__printer_8hpp.html" target="_top" xlink:title=" ">
<polygon fill="white" stroke="#666666" points="127.5,-19 32.5,-19 32.5,0 127.5,0 127.5,-19"/>
<text text-anchor="middle" x="80" y="-7" font-family="Helvetica,sans-Serif" font-size="10.00">help_printer.hpp</text>
</a>
</g>
</g>
<!-- Node3&#45;&gt;Node5 -->
<g id="edge4_Node000003_Node000005" class="edge">
<title>Node3&#45;&gt;Node5</title>
<g id="a_edge4_Node000003_Node000005"><a xlink:title=" ">
<path fill="none" stroke="#63b8ff" d="M97.77,-46.96C90.81,-37.72 83.86,-26.6 80.54,-19.09"/>
<polygon fill="#63b8ff" stroke="#63b8ff" points="95.05,-49.16 104.05,-54.75 100.5,-44.77 95.05,-49.16"/>
</a>
</g>
</g>
<!-- Node5&#45;&gt;Node3 -->
<g id="edge5_Node000005_Node000003" class="edge">
<title>Node5&#45;&gt;Node3</title>
<g id="a_edge5_Node000005_Node000003"><a xlink:title=" ">
<path fill="none" stroke="#63b8ff" d="M97.3,-27.13C104.18,-36.28 111.05,-47.26 114.39,-54.75"/>
<polygon fill="#63b8ff" stroke="#63b8ff" points="99.81,-24.67 90.8,-19.09 94.36,-29.07 99.81,-24.67"/>
</a>
</g>
</g>
<!-- Node6&#45;&gt;Node2 -->
<g id="edge7_Node000006_Node000002" class="edge">
<title>Node6&#45;&gt;Node2</title>
<g id="a_edge7_Node000006_Node000002"><a xlink:title=" ">
<path fill="none" stroke="#63b8ff" d="M85.48,-194.13C86.1,-202.85 85.66,-212.8 84.17,-219.75"/>
<polygon fill="#63b8ff" stroke="#63b8ff" points="88.93,-193.53 84.13,-184.09 81.99,-194.47 88.93,-193.53"/>
</a>
</g>
</g>
<!-- Node6&#45;&gt;Node3 -->
<g id="edge8_Node000006_Node000003" class="edge">
<title>Node6&#45;&gt;Node3</title>
<g id="a_edge8_Node000006_Node000003"><a xlink:title=" ">
<path fill="none" stroke="#63b8ff" d="M85.13,-155.12C92.98,-131.56 106.28,-91.66 112.11,-74.16"/>
<polygon fill="#63b8ff" stroke="#63b8ff" points="81.79,-154.07 81.95,-164.66 88.43,-156.28 81.79,-154.07"/>
</a>
</g>
</g>
<!-- Node6&#45;&gt;Node5 -->
<g id="edge11_Node000006_Node000005" class="edge">
<title>Node6&#45;&gt;Node5</title>
<g id="a_edge11_Node000006_Node000005"><a xlink:title=" ">
<path fill="none" stroke="#63b8ff" d="M73.59,-154.9C67.52,-131.51 59.24,-90.14 65,-55 67.11,-42.13 72.44,-27.96 76.14,-19.15"/>
<polygon fill="#63b8ff" stroke="#63b8ff" points="70.3,-156.12 76.32,-164.84 77.05,-154.27 70.3,-156.12"/>
</a>
</g>
</g>
<!-- Node6&#45;&gt;Node7 -->
<g id="edge9_Node000006_Node000007" class="edge">
<title>Node6&#45;&gt;Node7</title>
<g id="a_edge9_Node000006_Node000007"><a xlink:title=" ">
<path fill="none" stroke="#63b8ff" d="M97.04,-158.32C108.27,-148.87 122.32,-137.06 131.69,-129.17"/>
<polygon fill="#63b8ff" stroke="#63b8ff" points="94.52,-155.87 89.12,-164.98 99.03,-161.23 94.52,-155.87"/>
</a>
</g>
</g>
<!-- Node7&#45;&gt;Node3 -->
<g id="edge10_Node000007_Node000003" class="edge">
<title>Node7&#45;&gt;Node3</title>
<g id="a_edge10_Node000007_Node000003"><a xlink:title=" ">
<path fill="none" stroke="#63b8ff" d="M132.99,-100.82C128.41,-91.82 123.05,-81.29 119.38,-74.09"/>
<polygon fill="#63b8ff" stroke="#63b8ff" points="129.88,-102.43 137.54,-109.75 136.12,-99.25 129.88,-102.43"/>
</a>
</g>
</g>
<!-- Node8&#45;&gt;Node2 -->
<g id="edge14_Node000008_Node000002" class="edge">
<title>Node8&#45;&gt;Node2</title>
<g id="a_edge14_Node000008_Node000002"><a xlink:title=" ">
<path fill="none" stroke="#63b8ff" d="M53.95,-266.39C60.31,-257.27 67.87,-246.45 73,-239.09"/>
<polygon fill="#63b8ff" stroke="#63b8ff" points="50.96,-264.55 48.11,-274.75 56.7,-268.55 50.96,-264.55"/>
</a>
</g>
</g>
</g>
</svg>
