<?xml version="1.0" encoding="UTF-8" standalone="no"?>
<!DOCTYPE svg PUBLIC "-//W3C//DTD SVG 1.1//EN"
 "http://www.w3.org/Graphics/SVG/1.1/DTD/svg11.dtd">
<!-- Generated by graphviz version 14.1.2 (0)
 -->
<!-- Title: arg.hpp Pages: 1 -->
<svg width="485pt" height="252pt"
 viewBox="0.00 0.00 485.00 252.00" xmlns="http://www.w3.org/2000/svg" xmlns:xlink="http://www.w3.org/1999/xlink">

<svg id="main" version="1.1" xmlns="http://www.w3.org/2000/svg" xmlns:xlink="http://www.w3.org/1999/xlink" xml:space="preserve">

<style type="text/css"><![CDATA[
.node, .edge {opacity: 0.7;}
.node.selected, .edge.selected {opacity: 1;}
.edge:hover path { stroke: red; }
.edge:hover polygon { stroke: red; fill: red; }
]]></style>
<script type="application/ecmascript" xlink:href="svg.min.js"/>
<svg id="graph" class="graph">
<g id="graph0" class="graph" transform="scale(1 1) rotate(0) translate(4 248)">
<title>arg.hpp</title>
<!-- Node1 -->
<g id="Node000001" class="node">
<title>Node1</title>
<g id="a_Node000001"><a xlink:title=" ">
<polygon fill="#999999" stroke="#666666" points="257.3,-244 209.05,-244 209.05,-224 257.3,-224 257.3,-244"/>
<text xml:space="preserve" text-anchor="middle" x="233.18" y="-230.5" font-family="Helvetica,sans-Serif" font-size="10.00">arg.hpp</text>
</a>
</g>
</g>
<!-- Node2 -->
<g id="Node000002" class="node">
<title>Node2</title>
<g id="a_Node000002"><a xlink:href="arg__iface_8hpp.html" target="_top" xlink:title=" ">
<polygon fill="white" stroke="#666666" points="143.43,-188 68.93,-188 68.93,-168 143.43,-168 143.43,-188"/>
<text xml:space="preserve" text-anchor="middle" x="106.18" y="-174.5" font-family="Helvetica,sans-Serif" font-size="10.00">arg_iface.hpp</text>
</a>
</g>
</g>
<!-- Node1&#45;&gt;Node2 -->
<g id="edge1_Node000001_Node000002" class="edge">
<title>Node1&#45;&gt;Node2</title>
<g id="a_edge1_Node000001_Node000002"><a xlink:title=" ">
<path fill="none" stroke="#63b8ff" d="M211.06,-223.59C191.15,-215.13 161.63,-202.58 138.97,-192.94"/>
<polygon fill="#63b8ff" stroke="#63b8ff" points="140.44,-189.76 129.87,-189.07 137.7,-196.21 140.44,-189.76"/>
</a>
</g>
</g>
<!-- Node4 -->
<g id="Node000004" class="node">
<title>Node4</title>
<g id="a_Node000004"><a xlink:href="types_8hpp.html" target="_top" xlink:title=" ">
<polygon fill="white" stroke="#666666" points="249.55,-76 190.8,-76 190.8,-56 249.55,-56 249.55,-76"/>
<text xml:space="preserve" text-anchor="middle" x="220.18" y="-62.5" font-family="Helvetica,sans-Serif" font-size="10.00">types.hpp</text>
</a>
</g>
</g>
<!-- Node1&#45;&gt;Node4 -->
<g id="edge18_Node000001_Node000004" class="edge">
<title>Node1&#45;&gt;Node4</title>
<g id="a_edge18_Node000001_Node000004"><a xlink:title=" ">
<path fill="none" stroke="#63b8ff" d="M208.63,-229.62C139.69,-219.15 -46.9,-183.58 11.18,-112 57.92,-54.4 102.22,-89.45 179.24,-76.33"/>
<polygon fill="#63b8ff" stroke="#63b8ff" points="179.71,-79.81 188.84,-74.44 178.35,-72.94 179.71,-79.81"/>
</a>
</g>
</g>
<!-- Node8 -->
<g id="Node000008" class="node">
<title>Node8</title>
<g id="a_Node000008"><a xlink:href="utils_8hpp.html" target="_top" xlink:title=" ">
<polygon fill="white" stroke="#666666" points="192.55,-132 139.8,-132 139.8,-112 192.55,-112 192.55,-132"/>
<text xml:space="preserve" text-anchor="middle" x="166.18" y="-118.5" font-family="Helvetica,sans-Serif" font-size="10.00">utils.hpp</text>
</a>
</g>
</g>
<!-- Node1&#45;&gt;Node8 -->
<g id="edge19_Node000001_Node000008" class="edge">
<title>Node1&#45;&gt;Node8</title>
<g id="a_edge19_Node000001_Node000008"><a xlink:title=" ">
<path fill="none" stroke="#63b8ff" d="M222.28,-223.57C212.99,-215.05 199.79,-201.77 191.18,-188 182.44,-174.03 175.92,-156.51 171.73,-143.19"/>
<polygon fill="#63b8ff" stroke="#63b8ff" points="175.15,-142.4 168.98,-133.8 168.44,-144.38 175.15,-142.4"/>
</a>
</g>
</g>
<!-- Node9 -->
<g id="Node000009" class="node">
<title>Node9</title>
<g id="a_Node000009"><a xlink:title=" ">
<polygon fill="#e0e0e0" stroke="#999999" points="379.05,-76 323.3,-76 323.3,-56 379.05,-56 379.05,-76"/>
<text xml:space="preserve" text-anchor="middle" x="351.18" y="-62.5" font-family="Helvetica,sans-Serif" font-size="10.00">algorithm</text>
</a>
</g>
</g>
<!-- Node1&#45;&gt;Node9 -->
<g id="edge25_Node000001_Node000009" class="edge">
<title>Node1&#45;&gt;Node9</title>
<g id="a_edge25_Node000001_Node000009"><a xlink:title=" ">
<path fill="none" stroke="#63b8ff" d="M257.62,-232.19C310.32,-228.9 433.12,-212.55 473.18,-132 477.14,-124.04 478.26,-119.29 473.18,-112 468.15,-104.78 424.01,-89.67 390.26,-78.95"/>
<polygon fill="#63b8ff" stroke="#63b8ff" points="391.31,-75.62 380.72,-75.96 389.21,-82.29 391.31,-75.62"/>
</a>
</g>
</g>
<!-- Node11 -->
<g id="Node000011" class="node">
<title>Node11</title>
<g id="a_Node000011"><a xlink:href="context_8hpp.html" target="_top" xlink:title=" ">
<polygon fill="white" stroke="#666666" points="266.68,-188 199.68,-188 199.68,-168 266.68,-168 266.68,-188"/>
<text xml:space="preserve" text-anchor="middle" x="233.18" y="-174.5" font-family="Helvetica,sans-Serif" font-size="10.00">context.hpp</text>
</a>
</g>
</g>
<!-- Node1&#45;&gt;Node11 -->
<g id="edge11_Node000001_Node000011" class="edge">
<title>Node1&#45;&gt;Node11</title>
<g id="a_edge11_Node000001_Node000011"><a xlink:title=" ">
<path fill="none" stroke="#63b8ff" d="M233.18,-223.59C233.18,-217.01 233.18,-207.96 233.18,-199.73"/>
<polygon fill="#63b8ff" stroke="#63b8ff" points="236.68,-199.81 233.18,-189.81 229.68,-199.81 236.68,-199.81"/>
</a>
</g>
</g>
<!-- Node13 -->
<g id="Node000013" class="node">
<title>Node13</title>
<g id="a_Node000013"><a xlink:href="exceptions_8hpp.html" target="_top" xlink:title=" ">
<polygon fill="white" stroke="#666666" points="464.18,-132 382.18,-132 382.18,-112 464.18,-112 464.18,-132"/>
<text xml:space="preserve" text-anchor="middle" x="423.18" y="-118.5" font-family="Helvetica,sans-Serif" font-size="10.00">exceptions.hpp</text>
</a>
</g>
</g>
<!-- Node1&#45;&gt;Node13 -->
<g id="edge15_Node000001_Node000013" class="edge">
<title>Node1&#45;&gt;Node13</title>
<g id="a_edge15_Node000001_Node000013"><a xlink:title=" ">
<path fill="none" stroke="#63b8ff" d="M257.59,-229.96C287.63,-225.23 339.1,-213.8 375.18,-188 391.73,-176.17 404.93,-156.88 413.27,-142.38"/>
<polygon fill="#63b8ff" stroke="#63b8ff" points="416.25,-144.22 417.95,-133.76 410.1,-140.88 416.25,-144.22"/>
</a>
</g>
</g>
<!-- Node15 -->
<g id="Node000015" class="node">
<title>Node15</title>
<g id="a_Node000015"><a xlink:href="value__utils_8hpp.html" target="_top" xlink:title=" ">
<polygon fill="white" stroke="#666666" points="365.8,-188 284.55,-188 284.55,-168 365.8,-168 365.8,-188"/>
<text xml:space="preserve" text-anchor="middle" x="325.18" y="-174.5" font-family="Helvetica,sans-Serif" font-size="10.00">value_utils.hpp</text>
</a>
</g>
</g>
<!-- Node1&#45;&gt;Node15 -->
<g id="edge20_Node000001_Node000015" class="edge">
<title>Node1&#45;&gt;Node15</title>
<g id="a_edge20_Node000001_Node000015"><a xlink:title=" ">
<path fill="none" stroke="#63b8ff" d="M249.2,-223.59C262.97,-215.51 283.08,-203.71 299.16,-194.27"/>
<polygon fill="#63b8ff" stroke="#63b8ff" points="300.87,-197.33 307.72,-189.25 297.33,-191.29 300.87,-197.33"/>
</a>
</g>
</g>
<!-- Node3 -->
<g id="Node000003" class="node">
<title>Node3</title>
<g id="a_Node000003"><a xlink:href="enums_8hpp.html" target="_top" xlink:title=" ">
<polygon fill="white" stroke="#666666" points="84.18,-132 20.18,-132 20.18,-112 84.18,-112 84.18,-132"/>
<text xml:space="preserve" text-anchor="middle" x="52.18" y="-118.5" font-family="Helvetica,sans-Serif" font-size="10.00">enums.hpp</text>
</a>
</g>
</g>
<!-- Node2&#45;&gt;Node3 -->
<g id="edge2_Node000002_Node000003" class="edge">
<title>Node2&#45;&gt;Node3</title>
<g id="a_edge2_Node000002_Node000003"><a xlink:title=" ">
<path fill="none" stroke="#63b8ff" d="M96.77,-167.59C89.26,-160.08 78.53,-149.35 69.48,-140.3"/>
<polygon fill="#63b8ff" stroke="#63b8ff" points="72.09,-137.96 62.55,-133.37 67.14,-142.91 72.09,-137.96"/>
</a>
</g>
</g>
<!-- Node2&#45;&gt;Node4 -->
<g id="edge3_Node000002_Node000004" class="edge">
<title>Node2&#45;&gt;Node4</title>
<g id="a_edge3_Node000002_Node000004"><a xlink:title=" ">
<path fill="none" stroke="#63b8ff" d="M107.54,-167.94C110.01,-154.29 116.42,-128.33 131.18,-112 144.35,-97.43 163.33,-86.93 180.38,-79.76"/>
<polygon fill="#63b8ff" stroke="#63b8ff" points="181.24,-83.19 189.27,-76.28 178.68,-76.67 181.24,-83.19"/>
</a>
</g>
</g>
<!-- Node2&#45;&gt;Node8 -->
<g id="edge7_Node000002_Node000008" class="edge">
<title>Node2&#45;&gt;Node8</title>
<g id="a_edge7_Node000002_Node000008"><a xlink:title=" ">
<path fill="none" stroke="#63b8ff" d="M116.63,-167.59C125.15,-159.93 137.39,-148.91 147.57,-139.75"/>
<polygon fill="#63b8ff" stroke="#63b8ff" points="149.63,-142.6 154.72,-133.31 144.95,-137.4 149.63,-142.6"/>
</a>
</g>
</g>
<!-- Node5 -->
<g id="Node000005" class="node">
<title>Node5</title>
<g id="a_Node000005"><a xlink:title=" ">
<polygon fill="#e0e0e0" stroke="#999999" points="181.93,-20 128.43,-20 128.43,0 181.93,0 181.93,-20"/>
<text xml:space="preserve" text-anchor="middle" x="155.18" y="-6.5" font-family="Helvetica,sans-Serif" font-size="10.00">iostream</text>
</a>
</g>
</g>
<!-- Node4&#45;&gt;Node5 -->
<g id="edge4_Node000004_Node000005" class="edge">
<title>Node4&#45;&gt;Node5</title>
<g id="a_edge4_Node000004_Node000005"><a xlink:title=" ">
<path fill="none" stroke="#63b8ff" d="M208.86,-55.59C199.54,-47.85 186.1,-36.69 175,-27.47"/>
<polygon fill="#63b8ff" stroke="#63b8ff" points="177.46,-24.96 167.54,-21.27 172.99,-30.35 177.46,-24.96"/>
</a>
</g>
</g>
<!-- Node6 -->
<g id="Node000006" class="node">
<title>Node6</title>
<g id="a_Node000006"><a xlink:title=" ">
<polygon fill="#e0e0e0" stroke="#999999" points="240.18,-20 200.18,-20 200.18,0 240.18,0 240.18,-20"/>
<text xml:space="preserve" text-anchor="middle" x="220.18" y="-6.5" font-family="Helvetica,sans-Serif" font-size="10.00">string</text>
</a>
</g>
</g>
<!-- Node4&#45;&gt;Node6 -->
<g id="edge5_Node000004_Node000006" class="edge">
<title>Node4&#45;&gt;Node6</title>
<g id="a_edge5_Node000004_Node000006"><a xlink:title=" ">
<path fill="none" stroke="#63b8ff" d="M220.18,-55.59C220.18,-49.01 220.18,-39.96 220.18,-31.73"/>
<polygon fill="#63b8ff" stroke="#63b8ff" points="223.68,-31.81 220.18,-21.81 216.68,-31.81 223.68,-31.81"/>
</a>
</g>
</g>
<!-- Node7 -->
<g id="Node000007" class="node">
<title>Node7</title>
<g id="a_Node000007"><a xlink:title=" ">
<polygon fill="#e0e0e0" stroke="#999999" points="301.68,-20 258.68,-20 258.68,0 301.68,0 301.68,-20"/>
<text xml:space="preserve" text-anchor="middle" x="280.18" y="-6.5" font-family="Helvetica,sans-Serif" font-size="10.00">vector</text>
</a>
</g>
</g>
<!-- Node4&#45;&gt;Node7 -->
<g id="edge6_Node000004_Node000007" class="edge">
<title>Node4&#45;&gt;Node7</title>
<g id="a_edge6_Node000004_Node000007"><a xlink:title=" ">
<path fill="none" stroke="#63b8ff" d="M230.63,-55.59C239.15,-47.93 251.39,-36.91 261.57,-27.75"/>
<polygon fill="#63b8ff" stroke="#63b8ff" points="263.63,-30.6 268.72,-21.31 258.95,-25.4 263.63,-30.6"/>
</a>
</g>
</g>
<!-- Node8&#45;&gt;Node4 -->
<g id="edge8_Node000008_Node000004" class="edge">
<title>Node8&#45;&gt;Node4</title>
<g id="a_edge8_Node000008_Node000004"><a xlink:title=" ">
<path fill="none" stroke="#63b8ff" d="M175.59,-111.59C183.1,-104.08 193.82,-93.35 202.88,-84.3"/>
<polygon fill="#63b8ff" stroke="#63b8ff" points="205.21,-86.91 209.81,-77.37 200.26,-81.96 205.21,-86.91"/>
</a>
</g>
</g>
<!-- Node8&#45;&gt;Node9 -->
<g id="edge9_Node000008_Node000009" class="edge">
<title>Node8&#45;&gt;Node9</title>
<g id="a_edge9_Node000008_Node000009"><a xlink:title=" ">
<path fill="none" stroke="#63b8ff" d="M192.69,-113.26C223.88,-104.16 275.96,-88.95 311.86,-78.48"/>
<polygon fill="#63b8ff" stroke="#63b8ff" points="312.83,-81.84 321.45,-75.68 310.87,-75.12 312.83,-81.84"/>
</a>
</g>
</g>
<!-- Node10 -->
<g id="Node000010" class="node">
<title>Node10</title>
<g id="a_Node000010"><a xlink:title=" ">
<polygon fill="#e0e0e0" stroke="#999999" points="173.05,-76 111.3,-76 111.3,-56 173.05,-56 173.05,-76"/>
<text xml:space="preserve" text-anchor="middle" x="142.18" y="-62.5" font-family="Helvetica,sans-Serif" font-size="10.00">type_traits</text>
</a>
</g>
</g>
<!-- Node8&#45;&gt;Node10 -->
<g id="edge10_Node000008_Node000010" class="edge">
<title>Node8&#45;&gt;Node10</title>
<g id="a_edge10_Node000008_Node000010"><a xlink:title=" ">
<path fill="none" stroke="#63b8ff" d="M162,-111.59C158.94,-104.7 154.67,-95.1 150.88,-86.57"/>
<polygon fill="#63b8ff" stroke="#63b8ff" points="154.19,-85.4 146.93,-77.68 147.79,-88.24 154.19,-85.4"/>
</a>
</g>
</g>
<!-- Node11&#45;&gt;Node4 -->
<g id="edge13_Node000011_Node000004" class="edge">
<title>Node11&#45;&gt;Node4</title>
<g id="a_edge13_Node000011_Node000004"><a xlink:title=" ">
<path fill="none" stroke="#63b8ff" d="M232.07,-167.62C229.99,-150.01 225.45,-111.59 222.62,-87.65"/>
<polygon fill="#63b8ff" stroke="#63b8ff" points="226.11,-87.38 221.46,-77.86 219.16,-88.2 226.11,-87.38"/>
</a>
</g>
</g>
<!-- Node11&#45;&gt;Node8 -->
<g id="edge14_Node000011_Node000008" class="edge">
<title>Node11&#45;&gt;Node8</title>
<g id="a_edge14_Node000011_Node000008"><a xlink:title=" ">
<path fill="none" stroke="#63b8ff" d="M221.51,-167.59C211.9,-159.85 198.05,-148.69 186.61,-139.47"/>
<polygon fill="#63b8ff" stroke="#63b8ff" points="188.88,-136.8 178.89,-133.25 184.48,-142.25 188.88,-136.8"/>
</a>
</g>
</g>
<!-- Node12 -->
<g id="Node000012" class="node">
<title>Node12</title>
<g id="a_Node000012"><a xlink:title=" ">
<polygon fill="#e0e0e0" stroke="#999999" points="287.8,-132 248.55,-132 248.55,-112 287.8,-112 287.8,-132"/>
<text xml:space="preserve" text-anchor="middle" x="268.18" y="-118.5" font-family="Helvetica,sans-Serif" font-size="10.00">utility</text>
</a>
</g>
</g>
<!-- Node11&#45;&gt;Node12 -->
<g id="edge12_Node000011_Node000012" class="edge">
<title>Node11&#45;&gt;Node12</title>
<g id="a_edge12_Node000011_Node000012"><a xlink:title=" ">
<path fill="none" stroke="#63b8ff" d="M239.28,-167.59C243.89,-160.47 250.39,-150.45 256.05,-141.72"/>
<polygon fill="#63b8ff" stroke="#63b8ff" points="258.83,-143.86 261.33,-133.57 252.95,-140.06 258.83,-143.86"/>
</a>
</g>
</g>
<!-- Node13&#45;&gt;Node4 -->
<g id="edge17_Node000013_Node000004" class="edge">
<title>Node13&#45;&gt;Node4</title>
<g id="a_edge17_Node000013_Node000004"><a xlink:title=" ">
<path fill="none" stroke="#63b8ff" d="M387.82,-111.59C352.41,-102.17 297.97,-87.69 260.8,-77.81"/>
<polygon fill="#63b8ff" stroke="#63b8ff" points="261.89,-74.47 251.32,-75.28 260.09,-81.24 261.89,-74.47"/>
</a>
</g>
</g>
<!-- Node14 -->
<g id="Node000014" class="node">
<title>Node14</title>
<g id="a_Node000014"><a xlink:title=" ">
<polygon fill="#e0e0e0" stroke="#999999" points="455.55,-76 396.8,-76 396.8,-56 455.55,-56 455.55,-76"/>
<text xml:space="preserve" text-anchor="middle" x="426.18" y="-62.5" font-family="Helvetica,sans-Serif" font-size="10.00">stdexcept</text>
</a>
</g>
</g>
<!-- Node13&#45;&gt;Node14 -->
<g id="edge16_Node000013_Node000014" class="edge">
<title>Node13&#45;&gt;Node14</title>
<g id="a_edge16_Node000013_Node000014"><a xlink:title=" ">
<path fill="none" stroke="#63b8ff" d="M423.7,-111.59C424.07,-105.01 424.57,-95.96 425.03,-87.73"/>
<polygon fill="#63b8ff" stroke="#63b8ff" points="428.52,-87.99 425.58,-77.81 421.53,-87.6 428.52,-87.99"/>
</a>
</g>
</g>
<!-- Node15&#45;&gt;Node4 -->
<g id="edge22_Node000015_Node000004" class="edge">
<title>Node15&#45;&gt;Node4</title>
<g id="a_edge22_Node000015_Node000004"><a xlink:title=" ">
<path fill="none" stroke="#63b8ff" d="M323.12,-167.59C319.72,-153.97 311.83,-128.56 297.18,-112 285.62,-98.94 269.32,-88.66 254.7,-81.24"/>
<polygon fill="#63b8ff" stroke="#63b8ff" points="256.33,-78.14 245.8,-77 253.32,-84.46 256.33,-78.14"/>
</a>
</g>
</g>
<!-- Node15&#45;&gt;Node8 -->
<g id="edge23_Node000015_Node000008" class="edge">
<title>Node15&#45;&gt;Node8</title>
<g id="a_edge23_Node000015_Node000008"><a xlink:title=" ">
<path fill="none" stroke="#63b8ff" d="M297.48,-167.59C271.56,-158.79 232.63,-145.57 203.88,-135.8"/>
<polygon fill="#63b8ff" stroke="#63b8ff" points="205.06,-132.51 194.46,-132.61 202.8,-139.14 205.06,-132.51"/>
</a>
</g>
</g>
<!-- Node15&#45;&gt;Node9 -->
<g id="edge24_Node000015_Node000009" class="edge">
<title>Node15&#45;&gt;Node9</title>
<g id="a_edge24_Node000015_Node000009"><a xlink:title=" ">
<path fill="none" stroke="#63b8ff" d="M327.4,-167.62C331.58,-149.92 340.72,-111.24 346.38,-87.32"/>
<polygon fill="#63b8ff" stroke="#63b8ff" points="349.73,-88.36 348.62,-77.83 342.91,-86.75 349.73,-88.36"/>
</a>
</g>
</g>
<!-- Node15&#45;&gt;Node13 -->
<g id="edge21_Node000015_Node000013" class="edge">
<title>Node15&#45;&gt;Node13</title>
<g id="a_edge21_Node000015_Node000013"><a xlink:title=" ">
<path fill="none" stroke="#63b8ff" d="M342.25,-167.59C357.05,-159.44 378.75,-147.48 395.95,-138"/>
<polygon fill="#63b8ff" stroke="#63b8ff" points="397.58,-141.1 404.65,-133.21 394.2,-134.97 397.58,-141.1"/>
</a>
</g>
</g>
</g>
</svg>
</svg>

<style type='text/css'>
<![CDATA[
[data-mouse-over-selected='false'] { opacity: 0.7; }
[data-mouse-over-selected='true']  { opacity: 1.0; }
]]>
</style>
<script type="application/ecmascript"><![CDATA[
document.addEventListener('DOMContentLoaded', (event) => {
  highlightEdges();
  highlightAdjacentNodes();
});
]]></script>
</svg>
