<?xml version="1.0" encoding="UTF-8" standalone="no"?>
<!DOCTYPE svg PUBLIC "-//W3C//DTD SVG 1.1//EN"
 "http://www.w3.org/Graphics/SVG/1.1/DTD/svg11.dtd">
<!-- Generated by graphviz version 2.38.0 (20140413.2041)
 -->
<!-- Title: arg_iface.hpp Pages: 1 -->
<svg width="406pt" height="308pt"
 viewBox="0.00 0.00 406.00 308.00" xmlns="http://www.w3.org/2000/svg" xmlns:xlink="http://www.w3.org/1999/xlink">
<g id="graph0" class="graph" transform="scale(1 1) rotate(0) translate(4 304)">
<title>arg_iface.hpp</title>
<!-- Node1 -->
<g id="node1" class="node"><title>Node1</title>
<polygon fill="#bfbfbf" stroke="black" points="94.5,-280.5 94.5,-299.5 169.5,-299.5 169.5,-280.5 94.5,-280.5"/>
<text text-anchor="middle" x="132" y="-287.5" font-family="Helvetica,sans-Serif" font-size="10.00">arg_iface.hpp</text>
</g>
<!-- Node2 -->
<g id="node2" class="node"><title>Node2</title>
<g id="a_node2"><a xlink:href="arg_8hpp.html" target="_top" xlink:title="arg.hpp">
<polygon fill="none" stroke="black" points="107.5,-224.5 107.5,-243.5 156.5,-243.5 156.5,-224.5 107.5,-224.5"/>
<text text-anchor="middle" x="132" y="-231.5" font-family="Helvetica,sans-Serif" font-size="10.00">arg.hpp</text>
</a>
</g>
</g>
<!-- Node1&#45;&gt;Node2 -->
<g id="edge1" class="edge"><title>Node1&#45;&gt;Node2</title>
<path fill="none" stroke="midnightblue" d="M132,-269.805C132,-260.91 132,-250.78 132,-243.751"/>
<polygon fill="midnightblue" stroke="midnightblue" points="128.5,-270.083 132,-280.083 135.5,-270.083 128.5,-270.083"/>
</g>
<!-- Node6 -->
<g id="node6" class="node"><title>Node6</title>
<g id="a_node6"><a xlink:href="arg__as__command_8hpp.html" target="_top" xlink:title="arg_as_command.hpp">
<polygon fill="none" stroke="black" points="56.5,-0.5 56.5,-19.5 169.5,-19.5 169.5,-0.5 56.5,-0.5"/>
<text text-anchor="middle" x="113" y="-7.5" font-family="Helvetica,sans-Serif" font-size="10.00">arg_as_command.hpp</text>
</a>
</g>
</g>
<!-- Node1&#45;&gt;Node6 -->
<g id="edge20" class="edge"><title>Node1&#45;&gt;Node6</title>
<path fill="none" stroke="midnightblue" d="M96.0993,-276.776C57.0117,-260.919 0,-229.188 0,-179 0,-179 0,-179 0,-121 0,-69.8026 60.2951,-34.7071 92.7979,-19.5078"/>
<polygon fill="midnightblue" stroke="midnightblue" points="95.0163,-280.11 105.605,-280.467 97.5501,-273.585 95.0163,-280.11"/>
</g>
<!-- Node9 -->
<g id="node9" class="node"><title>Node9</title>
<g id="a_node9"><a xlink:href="group__iface_8hpp.html" target="_top" xlink:title="group_iface.hpp">
<polygon fill="none" stroke="black" points="218,-224.5 218,-243.5 304,-243.5 304,-224.5 218,-224.5"/>
<text text-anchor="middle" x="261" y="-231.5" font-family="Helvetica,sans-Serif" font-size="10.00">group_iface.hpp</text>
</a>
</g>
</g>
<!-- Node1&#45;&gt;Node9 -->
<g id="edge11" class="edge"><title>Node1&#45;&gt;Node9</title>
<path fill="none" stroke="midnightblue" d="M161.854,-276.503C186.038,-266.38 219.462,-252.388 240.655,-243.516"/>
<polygon fill="midnightblue" stroke="midnightblue" points="160.313,-273.354 152.44,-280.444 163.016,-279.811 160.313,-273.354"/>
</g>
<!-- Node3 -->
<g id="node3" class="node"><title>Node3</title>
<g id="a_node3"><a xlink:href="api_8hpp.html" target="_top" xlink:title="api.hpp">
<polygon fill="none" stroke="black" points="107,-112.5 107,-131.5 155,-131.5 155,-112.5 107,-112.5"/>
<text text-anchor="middle" x="131" y="-119.5" font-family="Helvetica,sans-Serif" font-size="10.00">api.hpp</text>
</a>
</g>
</g>
<!-- Node2&#45;&gt;Node3 -->
<g id="edge2" class="edge"><title>Node2&#45;&gt;Node3</title>
<path fill="none" stroke="midnightblue" d="M131.83,-214.348C131.611,-190.254 131.239,-149.308 131.078,-131.591"/>
<polygon fill="midnightblue" stroke="midnightblue" points="128.331,-214.401 131.922,-224.368 135.33,-214.337 128.331,-214.401"/>
</g>
<!-- Node7 -->
<g id="node7" class="node"><title>Node7</title>
<g id="a_node7"><a xlink:href="multi__arg_8hpp.html" target="_top" xlink:title="multi_arg.hpp">
<polygon fill="none" stroke="black" points="28.5,-168.5 28.5,-187.5 103.5,-187.5 103.5,-168.5 28.5,-168.5"/>
<text text-anchor="middle" x="66" y="-175.5" font-family="Helvetica,sans-Serif" font-size="10.00">multi_arg.hpp</text>
</a>
</g>
</g>
<!-- Node2&#45;&gt;Node7 -->
<g id="edge7" class="edge"><title>Node2&#45;&gt;Node7</title>
<path fill="none" stroke="midnightblue" d="M113.446,-217.82C101.622,-208.145 86.7144,-195.948 76.797,-187.834"/>
<polygon fill="midnightblue" stroke="midnightblue" points="111.44,-220.7 121.396,-224.324 115.873,-215.283 111.44,-220.7"/>
</g>
<!-- Node8 -->
<g id="node8" class="node"><title>Node8</title>
<g id="a_node8"><a xlink:href="help_8hpp.html" target="_top" xlink:title="help.hpp">
<polygon fill="none" stroke="black" points="173.5,-112.5 173.5,-131.5 226.5,-131.5 226.5,-112.5 173.5,-112.5"/>
<text text-anchor="middle" x="200" y="-119.5" font-family="Helvetica,sans-Serif" font-size="10.00">help.hpp</text>
</a>
</g>
</g>
<!-- Node2&#45;&gt;Node8 -->
<g id="edge9" class="edge"><title>Node2&#45;&gt;Node8</title>
<path fill="none" stroke="midnightblue" d="M142.732,-215.64C157.504,-191.744 183.539,-149.629 194.689,-131.591"/>
<polygon fill="midnightblue" stroke="midnightblue" points="139.617,-214.022 137.336,-224.368 145.571,-217.703 139.617,-214.022"/>
</g>
<!-- Node4 -->
<g id="node4" class="node"><title>Node4</title>
<g id="a_node4"><a xlink:href="cmd__line_8hpp.html" target="_top" xlink:title="cmd_line.hpp">
<polygon fill="none" stroke="black" points="170,-56.5 170,-75.5 244,-75.5 244,-56.5 170,-56.5"/>
<text text-anchor="middle" x="207" y="-63.5" font-family="Helvetica,sans-Serif" font-size="10.00">cmd_line.hpp</text>
</a>
</g>
</g>
<!-- Node3&#45;&gt;Node4 -->
<g id="edge3" class="edge"><title>Node3&#45;&gt;Node4</title>
<path fill="none" stroke="midnightblue" d="M151.576,-106.38C165.312,-96.6204 182.925,-84.1057 194.567,-75.8339"/>
<polygon fill="midnightblue" stroke="midnightblue" points="149.335,-103.679 143.211,-112.324 153.39,-109.385 149.335,-103.679"/>
</g>
<!-- Node5 -->
<g id="node5" class="node"><title>Node5</title>
<g id="a_node5"><a xlink:href="all_8hpp.html" target="_top" xlink:title="all.hpp">
<polygon fill="none" stroke="black" points="187.5,-0.5 187.5,-19.5 232.5,-19.5 232.5,-0.5 187.5,-0.5"/>
<text text-anchor="middle" x="210" y="-7.5" font-family="Helvetica,sans-Serif" font-size="10.00">all.hpp</text>
</a>
</g>
</g>
<!-- Node4&#45;&gt;Node5 -->
<g id="edge4" class="edge"><title>Node4&#45;&gt;Node5</title>
<path fill="none" stroke="midnightblue" d="M208.066,-45.8045C208.561,-36.9102 209.123,-26.7798 209.514,-19.7511"/>
<polygon fill="midnightblue" stroke="midnightblue" points="204.556,-45.9042 207.495,-56.083 211.545,-46.2926 204.556,-45.9042"/>
</g>
<!-- Node4&#45;&gt;Node6 -->
<g id="edge5" class="edge"><title>Node4&#45;&gt;Node6</title>
<path fill="none" stroke="midnightblue" d="M182.938,-51.1774C165.641,-41.2407 142.852,-28.1492 128.065,-19.6545"/>
<polygon fill="midnightblue" stroke="midnightblue" points="181.483,-54.3775 191.897,-56.324 184.97,-48.3078 181.483,-54.3775"/>
</g>
<!-- Node6&#45;&gt;Node3 -->
<g id="edge6" class="edge"><title>Node6&#45;&gt;Node3</title>
<path fill="none" stroke="midnightblue" d="M116.043,-29.5974C119.982,-53.6664 126.683,-94.617 129.588,-112.368"/>
<polygon fill="midnightblue" stroke="midnightblue" points="119.475,-28.8949 114.406,-19.5914 112.567,-30.0254 119.475,-28.8949"/>
</g>
<!-- Node7&#45;&gt;Node3 -->
<g id="edge8" class="edge"><title>Node7&#45;&gt;Node3</title>
<path fill="none" stroke="midnightblue" d="M84.2726,-161.82C95.9178,-152.145 110.599,-139.948 120.367,-131.834"/>
<polygon fill="midnightblue" stroke="midnightblue" points="81.8987,-159.242 76.4434,-168.324 86.3719,-164.626 81.8987,-159.242"/>
</g>
<!-- Node8&#45;&gt;Node4 -->
<g id="edge10" class="edge"><title>Node8&#45;&gt;Node4</title>
<path fill="none" stroke="midnightblue" d="M202.45,-102.101C203.612,-93.1357 204.944,-82.8579 205.866,-75.7511"/>
<polygon fill="midnightblue" stroke="midnightblue" points="198.971,-101.716 201.156,-112.083 205.912,-102.616 198.971,-101.716"/>
</g>
<!-- Node10 -->
<g id="node10" class="node"><title>Node10</title>
<g id="a_node10"><a xlink:href="groups_8hpp.html" target="_top" xlink:title="groups.hpp">
<polygon fill="none" stroke="black" points="198.5,-168.5 198.5,-187.5 263.5,-187.5 263.5,-168.5 198.5,-168.5"/>
<text text-anchor="middle" x="231" y="-175.5" font-family="Helvetica,sans-Serif" font-size="10.00">groups.hpp</text>
</a>
</g>
</g>
<!-- Node9&#45;&gt;Node10 -->
<g id="edge12" class="edge"><title>Node9&#45;&gt;Node10</title>
<path fill="none" stroke="midnightblue" d="M251.153,-215.275C246.025,-206.045 239.984,-195.17 235.862,-187.751"/>
<polygon fill="midnightblue" stroke="midnightblue" points="248.13,-217.041 256.046,-224.083 254.249,-213.642 248.13,-217.041"/>
</g>
<!-- Node11 -->
<g id="node11" class="node"><title>Node11</title>
<g id="a_node11"><a xlink:href="help__printer_8hpp.html" target="_top" xlink:title="help_printer.hpp">
<polygon fill="none" stroke="black" points="245,-112.5 245,-131.5 331,-131.5 331,-112.5 245,-112.5"/>
<text text-anchor="middle" x="288" y="-119.5" font-family="Helvetica,sans-Serif" font-size="10.00">help_printer.hpp</text>
</a>
</g>
</g>
<!-- Node9&#45;&gt;Node11 -->
<g id="edge19" class="edge"><title>Node9&#45;&gt;Node11</title>
<path fill="none" stroke="midnightblue" d="M265.578,-214.348C271.492,-190.254 281.543,-149.308 285.891,-131.591"/>
<polygon fill="midnightblue" stroke="midnightblue" points="262.103,-213.822 263.119,-224.368 268.902,-215.491 262.103,-213.822"/>
</g>
<!-- Node12 -->
<g id="node12" class="node"><title>Node12</title>
<g id="a_node12"><a xlink:href="command_8hpp.html" target="_top" xlink:title="command.hpp">
<polygon fill="none" stroke="black" points="320,-168.5 320,-187.5 398,-187.5 398,-168.5 320,-168.5"/>
<text text-anchor="middle" x="359" y="-175.5" font-family="Helvetica,sans-Serif" font-size="10.00">command.hpp</text>
</a>
</g>
</g>
<!-- Node9&#45;&gt;Node12 -->
<g id="edge16" class="edge"><title>Node9&#45;&gt;Node12</title>
<path fill="none" stroke="midnightblue" d="M285.586,-219.453C303.678,-209.483 327.735,-196.228 343.294,-187.655"/>
<polygon fill="midnightblue" stroke="midnightblue" points="283.815,-216.432 276.745,-224.324 287.193,-222.563 283.815,-216.432"/>
</g>
<!-- Node10&#45;&gt;Node3 -->
<g id="edge13" class="edge"><title>Node10&#45;&gt;Node3</title>
<path fill="none" stroke="midnightblue" d="M205.912,-163.453C187.451,-153.483 162.903,-140.228 147.027,-131.655"/>
<polygon fill="midnightblue" stroke="midnightblue" points="204.471,-166.652 214.933,-168.324 207.797,-160.493 204.471,-166.652"/>
</g>
<!-- Node10&#45;&gt;Node11 -->
<g id="edge14" class="edge"><title>Node10&#45;&gt;Node11</title>
<path fill="none" stroke="midnightblue" d="M247.621,-161.253C257.734,-151.673 270.277,-139.791 278.675,-131.834"/>
<polygon fill="midnightblue" stroke="midnightblue" points="245.01,-158.906 240.158,-168.324 249.825,-163.987 245.01,-158.906"/>
</g>
<!-- Node11&#45;&gt;Node4 -->
<g id="edge15" class="edge"><title>Node11&#45;&gt;Node4</title>
<path fill="none" stroke="midnightblue" d="M266.433,-106.622C251.636,-96.7574 232.488,-83.9919 219.982,-75.6545"/>
<polygon fill="midnightblue" stroke="midnightblue" points="264.724,-109.689 274.986,-112.324 268.607,-103.865 264.724,-109.689"/>
</g>
<!-- Node12&#45;&gt;Node4 -->
<g id="edge17" class="edge"><title>Node12&#45;&gt;Node4</title>
<path fill="none" stroke="midnightblue" d="M358.043,-157.932C356.34,-143.573 351.815,-124.32 340,-112 314.861,-85.7856 273.93,-74.8422 244.106,-70.2738"/>
<polygon fill="midnightblue" stroke="midnightblue" points="354.578,-158.495 358.89,-168.173 361.554,-157.918 354.578,-158.495"/>
</g>
<!-- Node12&#45;&gt;Node11 -->
<g id="edge18" class="edge"><title>Node12&#45;&gt;Node11</title>
<path fill="none" stroke="midnightblue" d="M339.41,-162.101C326.632,-152.382 310.387,-140.027 299.615,-131.834"/>
<polygon fill="midnightblue" stroke="midnightblue" points="337.514,-165.056 347.593,-168.324 341.752,-159.484 337.514,-165.056"/>
</g>
</g>
</svg>
