<?xml version="1.0" encoding="UTF-8" standalone="no"?>
<!DOCTYPE svg PUBLIC "-//W3C//DTD SVG 1.1//EN"
 "http://www.w3.org/Graphics/SVG/1.1/DTD/svg11.dtd">
<!-- Generated by graphviz version 2.38.0 (20140413.2041)
 -->
<!-- Title: arg.hpp Pages: 1 -->
<svg width="184pt" height="252pt"
 viewBox="0.00 0.00 184.00 252.00" xmlns="http://www.w3.org/2000/svg" xmlns:xlink="http://www.w3.org/1999/xlink">
<g id="graph0" class="graph" transform="scale(1 1) rotate(0) translate(4 248)">
<title>arg.hpp</title>
<!-- Node1 -->
<g id="node1" class="node"><title>Node1</title>
<polygon fill="#bfbfbf" stroke="black" points="35,-224.5 35,-243.5 84,-243.5 84,-224.5 35,-224.5"/>
<text text-anchor="middle" x="59.5" y="-231.5" font-family="Helvetica,sans-Serif" font-size="10.00">arg.hpp</text>
</g>
<!-- Node2 -->
<g id="node2" class="node"><title>Node2</title>
<g id="a_node2"><a xlink:href="api_8hpp.html" target="_top" xlink:title="api.hpp">
<polygon fill="none" stroke="black" points="32.5,-112.5 32.5,-131.5 80.5,-131.5 80.5,-112.5 32.5,-112.5"/>
<text text-anchor="middle" x="56.5" y="-119.5" font-family="Helvetica,sans-Serif" font-size="10.00">api.hpp</text>
</a>
</g>
</g>
<!-- Node1&#45;&gt;Node2 -->
<g id="edge1" class="edge"><title>Node1&#45;&gt;Node2</title>
<path fill="none" stroke="midnightblue" d="M37.326,-218.161C27.7814,-210.424 17.6467,-200.053 12.5,-188 3.08158,-165.943 27.4104,-143.492 43.5356,-131.614"/>
<polygon fill="midnightblue" stroke="midnightblue" points="35.3282,-221.038 45.4216,-224.259 39.5398,-215.447 35.3282,-221.038"/>
</g>
<!-- Node6 -->
<g id="node6" class="node"><title>Node6</title>
<g id="a_node6"><a xlink:href="multi__arg_8hpp.html" target="_top" xlink:title="multi_arg.hpp">
<polygon fill="none" stroke="black" points="22,-168.5 22,-187.5 97,-187.5 97,-168.5 22,-168.5"/>
<text text-anchor="middle" x="59.5" y="-175.5" font-family="Helvetica,sans-Serif" font-size="10.00">multi_arg.hpp</text>
</a>
</g>
</g>
<!-- Node1&#45;&gt;Node6 -->
<g id="edge6" class="edge"><title>Node1&#45;&gt;Node6</title>
<path fill="none" stroke="midnightblue" d="M59.5,-213.805C59.5,-204.91 59.5,-194.78 59.5,-187.751"/>
<polygon fill="midnightblue" stroke="midnightblue" points="56.0001,-214.083 59.5,-224.083 63.0001,-214.083 56.0001,-214.083"/>
</g>
<!-- Node7 -->
<g id="node7" class="node"><title>Node7</title>
<g id="a_node7"><a xlink:href="help_8hpp.html" target="_top" xlink:title="help.hpp">
<polygon fill="none" stroke="black" points="99,-112.5 99,-131.5 152,-131.5 152,-112.5 99,-112.5"/>
<text text-anchor="middle" x="125.5" y="-119.5" font-family="Helvetica,sans-Serif" font-size="10.00">help.hpp</text>
</a>
</g>
</g>
<!-- Node1&#45;&gt;Node7 -->
<g id="edge8" class="edge"><title>Node1&#45;&gt;Node7</title>
<path fill="none" stroke="midnightblue" d="M79.2297,-217.663C88.3452,-209.68 98.6437,-199.247 105.5,-188 116.685,-169.652 122.075,-144.539 124.256,-131.554"/>
<polygon fill="midnightblue" stroke="midnightblue" points="76.7606,-215.164 71.3236,-224.258 81.2446,-220.54 76.7606,-215.164"/>
</g>
<!-- Node3 -->
<g id="node3" class="node"><title>Node3</title>
<g id="a_node3"><a xlink:href="cmd__line_8hpp.html" target="_top" xlink:title="cmd_line.hpp">
<polygon fill="none" stroke="black" points="86.5,-56.5 86.5,-75.5 160.5,-75.5 160.5,-56.5 86.5,-56.5"/>
<text text-anchor="middle" x="123.5" y="-63.5" font-family="Helvetica,sans-Serif" font-size="10.00">cmd_line.hpp</text>
</a>
</g>
</g>
<!-- Node2&#45;&gt;Node3 -->
<g id="edge2" class="edge"><title>Node2&#45;&gt;Node3</title>
<path fill="none" stroke="midnightblue" d="M75.3348,-105.82C87.3384,-96.1452 102.472,-83.9481 112.539,-75.8339"/>
<polygon fill="midnightblue" stroke="midnightblue" points="72.8543,-103.324 67.2647,-112.324 77.247,-108.774 72.8543,-103.324"/>
</g>
<!-- Node4 -->
<g id="node4" class="node"><title>Node4</title>
<g id="a_node4"><a xlink:href="all_8hpp.html" target="_top" xlink:title="all.hpp">
<polygon fill="none" stroke="black" points="131,-0.5 131,-19.5 176,-19.5 176,-0.5 131,-0.5"/>
<text text-anchor="middle" x="153.5" y="-7.5" font-family="Helvetica,sans-Serif" font-size="10.00">all.hpp</text>
</a>
</g>
</g>
<!-- Node3&#45;&gt;Node4 -->
<g id="edge3" class="edge"><title>Node3&#45;&gt;Node4</title>
<path fill="none" stroke="midnightblue" d="M133.347,-47.2747C138.475,-38.0454 144.516,-27.1703 148.638,-19.7511"/>
<polygon fill="midnightblue" stroke="midnightblue" points="130.251,-45.6416 128.454,-56.083 136.37,-49.0412 130.251,-45.6416"/>
</g>
<!-- Node5 -->
<g id="node5" class="node"><title>Node5</title>
<g id="a_node5"><a xlink:href="arg__as__command_8hpp.html" target="_top" xlink:title="arg_as_command.hpp">
<polygon fill="none" stroke="black" points="0,-0.5 0,-19.5 113,-19.5 113,-0.5 0,-0.5"/>
<text text-anchor="middle" x="56.5" y="-7.5" font-family="Helvetica,sans-Serif" font-size="10.00">arg_as_command.hpp</text>
</a>
</g>
</g>
<!-- Node3&#45;&gt;Node5 -->
<g id="edge4" class="edge"><title>Node3&#45;&gt;Node5</title>
<path fill="none" stroke="midnightblue" d="M104.665,-49.8197C92.6616,-40.1452 77.5283,-27.9481 67.4606,-19.8339"/>
<polygon fill="midnightblue" stroke="midnightblue" points="102.753,-52.7738 112.735,-56.324 107.146,-47.3236 102.753,-52.7738"/>
</g>
<!-- Node5&#45;&gt;Node2 -->
<g id="edge5" class="edge"><title>Node5&#45;&gt;Node2</title>
<path fill="none" stroke="midnightblue" d="M56.5,-29.5974C56.5,-53.6664 56.5,-94.617 56.5,-112.368"/>
<polygon fill="midnightblue" stroke="midnightblue" points="60.0001,-29.5914 56.5,-19.5914 53.0001,-29.5915 60.0001,-29.5914"/>
</g>
<!-- Node6&#45;&gt;Node2 -->
<g id="edge7" class="edge"><title>Node6&#45;&gt;Node2</title>
<path fill="none" stroke="midnightblue" d="M58.4336,-157.805C57.9395,-148.91 57.3767,-138.78 56.9862,-131.751"/>
<polygon fill="midnightblue" stroke="midnightblue" points="54.9552,-158.293 59.0046,-168.083 61.9444,-157.904 54.9552,-158.293"/>
</g>
<!-- Node7&#45;&gt;Node3 -->
<g id="edge9" class="edge"><title>Node7&#45;&gt;Node3</title>
<path fill="none" stroke="midnightblue" d="M124.789,-101.805C124.46,-92.9102 124.084,-82.7798 123.824,-75.7511"/>
<polygon fill="midnightblue" stroke="midnightblue" points="121.302,-102.219 125.17,-112.083 128.297,-101.96 121.302,-102.219"/>
</g>
</g>
</svg>
