<?xml version="1.0" encoding="UTF-8" standalone="no"?>
<!DOCTYPE svg PUBLIC "-//W3C//DTD SVG 1.1//EN"
 "http://www.w3.org/Graphics/SVG/1.1/DTD/svg11.dtd">
<!-- Generated by graphviz version 14.1.2 (0)
 -->
<!-- Title: arg_iface.hpp Pages: 1 -->
<svg width="291pt" height="420pt"
 viewBox="0.00 0.00 291.00 420.00" xmlns="http://www.w3.org/2000/svg" xmlns:xlink="http://www.w3.org/1999/xlink">

<svg id="main" version="1.1" xmlns="http://www.w3.org/2000/svg" xmlns:xlink="http://www.w3.org/1999/xlink" xml:space="preserve">

<style type="text/css"><![CDATA[
.node, .edge {opacity: 0.7;}
.node.selected, .edge.selected {opacity: 1;}
.edge:hover path { stroke: red; }
.edge:hover polygon { stroke: red; fill: red; }
]]></style>
<script type="application/ecmascript" xlink:href="svg.min.js"/>
<svg id="graph" class="graph">
<g id="graph0" class="graph" transform="scale(1 1) rotate(0) translate(4 416)">
<title>arg_iface.hpp</title>
<!-- Node1 -->
<g id="Node000001" class="node">
<title>Node1</title>
<g id="a_Node000001"><a xlink:title=" ">
<polygon fill="#999999" stroke="#666666" points="176.29,-412 101.79,-412 101.79,-392 176.29,-392 176.29,-412"/>
<text xml:space="preserve" text-anchor="middle" x="139.04" y="-398.5" font-family="Helvetica,sans-Serif" font-size="10.00">arg_iface.hpp</text>
</a>
</g>
</g>
<!-- Node2 -->
<g id="Node000002" class="node">
<title>Node2</title>
<g id="a_Node000002"><a xlink:href="arg_8hpp.html" target="_top" xlink:title=" ">
<polygon fill="white" stroke="#666666" points="121.17,-356 72.92,-356 72.92,-336 121.17,-336 121.17,-356"/>
<text xml:space="preserve" text-anchor="middle" x="97.04" y="-342.5" font-family="Helvetica,sans-Serif" font-size="10.00">arg.hpp</text>
</a>
</g>
</g>
<!-- Node1&#45;&gt;Node2 -->
<g id="edge1_Node000001_Node000002" class="edge">
<title>Node1&#45;&gt;Node2</title>
<g id="a_edge1_Node000001_Node000002"><a xlink:title=" ">
<path fill="none" stroke="#63b8ff" d="M124.82,-382.72C117.92,-373.84 109.91,-363.55 104.27,-356.3"/>
<polygon fill="#63b8ff" stroke="#63b8ff" points="121.89,-384.65 130.8,-390.4 127.42,-380.36 121.89,-384.65"/>
</a>
</g>
</g>
<!-- Node10 -->
<g id="Node000010" class="node">
<title>Node10</title>
<g id="a_Node000010"><a xlink:href="group__iface_8hpp.html" target="_top" xlink:title=" ">
<polygon fill="white" stroke="#666666" points="233.54,-356 148.54,-356 148.54,-336 233.54,-336 233.54,-356"/>
<text xml:space="preserve" text-anchor="middle" x="191.04" y="-342.5" font-family="Helvetica,sans-Serif" font-size="10.00">group_iface.hpp</text>
</a>
</g>
</g>
<!-- Node1&#45;&gt;Node10 -->
<g id="edge16_Node000001_Node000010" class="edge">
<title>Node1&#45;&gt;Node10</title>
<g id="a_edge16_Node000001_Node000010"><a xlink:title=" ">
<path fill="none" stroke="#63b8ff" d="M155.83,-383.57C164.56,-374.5 174.88,-363.78 182.09,-356.3"/>
<polygon fill="#63b8ff" stroke="#63b8ff" points="153.56,-380.87 149.15,-390.5 158.61,-385.73 153.56,-380.87"/>
</a>
</g>
</g>
<!-- Node3 -->
<g id="Node000003" class="node">
<title>Node3</title>
<g id="a_Node000003"><a xlink:href="api_8hpp.html" target="_top" xlink:title=" ">
<polygon fill="white" stroke="#666666" points="134.79,-244 87.29,-244 87.29,-224 134.79,-224 134.79,-244"/>
<text xml:space="preserve" text-anchor="middle" x="111.04" y="-230.5" font-family="Helvetica,sans-Serif" font-size="10.00">api.hpp</text>
</a>
</g>
</g>
<!-- Node2&#45;&gt;Node3 -->
<g id="edge2_Node000002_Node000003" class="edge">
<title>Node2&#45;&gt;Node3</title>
<g id="a_edge2_Node000002_Node000003"><a xlink:title=" ">
<path fill="none" stroke="#63b8ff" d="M101.67,-324.58C103.26,-316.91 104.93,-308.09 106.04,-300 108.76,-280.27 110.11,-256.94 110.68,-244.29"/>
<polygon fill="#63b8ff" stroke="#63b8ff" points="98.26,-323.75 99.55,-334.27 105.1,-325.24 98.26,-323.75"/>
</a>
</g>
</g>
<!-- Node8 -->
<g id="Node000008" class="node">
<title>Node8</title>
<g id="a_Node000008"><a xlink:href="help_8hpp.html" target="_top" xlink:title=" ">
<polygon fill="white" stroke="#666666" points="61.42,-132 8.67,-132 8.67,-112 61.42,-112 61.42,-132"/>
<text xml:space="preserve" text-anchor="middle" x="35.04" y="-118.5" font-family="Helvetica,sans-Serif" font-size="10.00">help.hpp</text>
</a>
</g>
</g>
<!-- Node2&#45;&gt;Node8 -->
<g id="edge13_Node000002_Node000008" class="edge">
<title>Node2&#45;&gt;Node8</title>
<g id="a_edge13_Node000002_Node000008"><a xlink:title=" ">
<path fill="none" stroke="#63b8ff" d="M61.98,-335.41C44.31,-328.61 24.46,-317.5 14.04,-300 -19.36,-243.9 16.56,-160.03 30.23,-132.28"/>
<polygon fill="#63b8ff" stroke="#63b8ff" points="60.58,-338.63 71.17,-338.61 62.88,-332.02 60.58,-338.63"/>
</a>
</g>
</g>
<!-- Node9 -->
<g id="Node000009" class="node">
<title>Node9</title>
<g id="a_Node000009"><a xlink:href="multi__arg_8hpp.html" target="_top" xlink:title=" ">
<polygon fill="white" stroke="#666666" points="97.29,-300 22.79,-300 22.79,-280 97.29,-280 97.29,-300"/>
<text xml:space="preserve" text-anchor="middle" x="60.04" y="-286.5" font-family="Helvetica,sans-Serif" font-size="10.00">multi_arg.hpp</text>
</a>
</g>
</g>
<!-- Node2&#45;&gt;Node9 -->
<g id="edge14_Node000002_Node000009" class="edge">
<title>Node2&#45;&gt;Node9</title>
<g id="a_edge14_Node000002_Node000009"><a xlink:title=" ">
<path fill="none" stroke="#63b8ff" d="M84.13,-326.15C78.13,-317.4 71.27,-307.39 66.41,-300.3"/>
<polygon fill="#63b8ff" stroke="#63b8ff" points="81.2,-328.07 89.74,-334.35 86.98,-324.12 81.2,-328.07"/>
</a>
</g>
</g>
<!-- Node4 -->
<g id="Node000004" class="node">
<title>Node4</title>
<g id="a_Node000004"><a xlink:href="cmd__line_8hpp.html" target="_top" xlink:title=" ">
<polygon fill="white" stroke="#666666" points="147.92,-76 74.17,-76 74.17,-56 147.92,-56 147.92,-76"/>
<text xml:space="preserve" text-anchor="middle" x="111.04" y="-62.5" font-family="Helvetica,sans-Serif" font-size="10.00">cmd_line.hpp</text>
</a>
</g>
</g>
<!-- Node3&#45;&gt;Node4 -->
<g id="edge3_Node000003_Node000004" class="edge">
<title>Node3&#45;&gt;Node4</title>
<g id="a_edge3_Node000003_Node000004"><a xlink:title=" ">
<path fill="none" stroke="#63b8ff" d="M109.37,-212.23C108.83,-204.61 108.3,-195.92 108.04,-188 106.66,-146.42 109.21,-96.77 110.44,-76.42"/>
<polygon fill="#63b8ff" stroke="#63b8ff" points="105.88,-212.49 110.12,-222.19 112.86,-211.96 105.88,-212.49"/>
</a>
</g>
</g>
<!-- Node7 -->
<g id="Node000007" class="node">
<title>Node7</title>
<g id="a_Node000007"><a xlink:href="command_8hpp.html" target="_top" xlink:title=" ">
<polygon fill="white" stroke="#666666" points="194.79,-188 117.29,-188 117.29,-168 194.79,-168 194.79,-188"/>
<text xml:space="preserve" text-anchor="middle" x="156.04" y="-174.5" font-family="Helvetica,sans-Serif" font-size="10.00">command.hpp</text>
</a>
</g>
</g>
<!-- Node3&#45;&gt;Node7 -->
<g id="edge7_Node000003_Node000007" class="edge">
<title>Node3&#45;&gt;Node7</title>
<g id="a_edge7_Node000003_Node000007"><a xlink:title=" ">
<path fill="none" stroke="#63b8ff" d="M120.06,-214.44C126.76,-205.62 135.62,-195.47 143.05,-188.3"/>
<polygon fill="#63b8ff" stroke="#63b8ff" points="117.38,-212.17 114.48,-222.36 123.1,-216.2 117.38,-212.17"/>
</a>
</g>
</g>
<!-- Node5 -->
<g id="Node000005" class="node">
<title>Node5</title>
<g id="a_Node000005"><a xlink:href="all_8hpp.html" target="_top" xlink:title=" ">
<polygon fill="white" stroke="#666666" points="124.29,-20 79.79,-20 79.79,0 124.29,0 124.29,-20"/>
<text xml:space="preserve" text-anchor="middle" x="102.04" y="-6.5" font-family="Helvetica,sans-Serif" font-size="10.00">all.hpp</text>
</a>
</g>
</g>
<!-- Node4&#45;&gt;Node5 -->
<g id="edge4_Node000004_Node000005" class="edge">
<title>Node4&#45;&gt;Node5</title>
<g id="a_edge4_Node000004_Node000005"><a xlink:title=" ">
<path fill="none" stroke="#63b8ff" d="M107.61,-44.43C106.23,-36.11 104.7,-26.93 103.59,-20.3"/>
<polygon fill="#63b8ff" stroke="#63b8ff" points="104.13,-44.81 109.22,-54.1 111.03,-43.66 104.13,-44.81"/>
</a>
</g>
</g>
<!-- Node6 -->
<g id="Node000006" class="node">
<title>Node6</title>
<g id="a_Node000006"><a xlink:href="help__printer_8hpp.html" target="_top" xlink:title=" ">
<polygon fill="white" stroke="#666666" points="227.54,-20 142.54,-20 142.54,0 227.54,0 227.54,-20"/>
<text xml:space="preserve" text-anchor="middle" x="185.04" y="-6.5" font-family="Helvetica,sans-Serif" font-size="10.00">help_printer.hpp</text>
</a>
</g>
</g>
<!-- Node4&#45;&gt;Node6 -->
<g id="edge5_Node000004_Node000006" class="edge">
<title>Node4&#45;&gt;Node6</title>
<g id="a_edge5_Node000004_Node000006"><a xlink:title=" ">
<path fill="none" stroke="#63b8ff" d="M127.44,-48.45C139.15,-39.28 154.66,-28.2 166.77,-20.48"/>
<polygon fill="#63b8ff" stroke="#63b8ff" points="125.38,-45.61 119.84,-54.64 129.8,-51.04 125.38,-45.61"/>
</a>
</g>
</g>
<!-- Node6&#45;&gt;Node4 -->
<g id="edge6_Node000006_Node000004" class="edge">
<title>Node6&#45;&gt;Node4</title>
<g id="a_edge6_Node000006_Node000004"><a xlink:title=" ">
<path fill="none" stroke="#63b8ff" d="M168.74,-27.47C156.99,-36.69 141.36,-47.85 129.2,-55.59"/>
<polygon fill="#63b8ff" stroke="#63b8ff" points="170.83,-30.28 176.37,-21.25 166.41,-24.86 170.83,-30.28"/>
</a>
</g>
</g>
<!-- Node7&#45;&gt;Node3 -->
<g id="edge8_Node000007_Node000003" class="edge">
<title>Node7&#45;&gt;Node3</title>
<g id="a_edge8_Node000007_Node000003"><a xlink:title=" ">
<path fill="none" stroke="#63b8ff" d="M147.12,-197.43C140.45,-206.23 131.59,-216.39 124.15,-223.59"/>
<polygon fill="#63b8ff" stroke="#63b8ff" points="149.78,-199.73 152.67,-189.54 144.05,-195.71 149.78,-199.73"/>
</a>
</g>
</g>
<!-- Node7&#45;&gt;Node4 -->
<g id="edge9_Node000007_Node000004" class="edge">
<title>Node7&#45;&gt;Node4</title>
<g id="a_edge9_Node000007_Node000004"><a xlink:title=" ">
<path fill="none" stroke="#63b8ff" d="M147.85,-156.97C138.07,-133.07 122.13,-94.11 114.87,-76.35"/>
<polygon fill="#63b8ff" stroke="#63b8ff" points="144.61,-158.29 151.63,-166.22 151.08,-155.64 144.61,-158.29"/>
</a>
</g>
</g>
<!-- Node7&#45;&gt;Node6 -->
<g id="edge12_Node000007_Node000006" class="edge">
<title>Node7&#45;&gt;Node6</title>
<g id="a_edge12_Node000007_Node000006"><a xlink:title=" ">
<path fill="none" stroke="#63b8ff" d="M159.62,-156.5C165.95,-120.27 178.87,-46.31 183.42,-20.3"/>
<polygon fill="#63b8ff" stroke="#63b8ff" points="156.22,-155.66 157.94,-166.11 163.11,-156.86 156.22,-155.66"/>
</a>
</g>
</g>
<!-- Node7&#45;&gt;Node8 -->
<g id="edge10_Node000007_Node000008" class="edge">
<title>Node7&#45;&gt;Node8</title>
<g id="a_edge10_Node000007_Node000008"><a xlink:title=" ">
<path fill="none" stroke="#63b8ff" d="M124.69,-163.01C103.18,-153.41 75.22,-140.93 56.28,-132.48"/>
<polygon fill="#63b8ff" stroke="#63b8ff" points="123.02,-166.1 133.58,-166.98 125.88,-159.71 123.02,-166.1"/>
</a>
</g>
</g>
<!-- Node8&#45;&gt;Node4 -->
<g id="edge11_Node000008_Node000004" class="edge">
<title>Node8&#45;&gt;Node4</title>
<g id="a_edge11_Node000008_Node000004"><a xlink:title=" ">
<path fill="none" stroke="#63b8ff" d="M57.56,-105C70.62,-95.72 86.62,-84.35 97.7,-76.48"/>
<polygon fill="#63b8ff" stroke="#63b8ff" points="55.64,-102.07 49.51,-110.72 59.69,-107.78 55.64,-102.07"/>
</a>
</g>
</g>
<!-- Node9&#45;&gt;Node3 -->
<g id="edge15_Node000009_Node000003" class="edge">
<title>Node9&#45;&gt;Node3</title>
<g id="a_edge15_Node000009_Node000003"><a xlink:title=" ">
<path fill="none" stroke="#63b8ff" d="M76.77,-271.29C85.28,-262.28 95.27,-251.7 102.26,-244.3"/>
<polygon fill="#63b8ff" stroke="#63b8ff" points="74.29,-268.82 69.96,-278.49 79.37,-273.63 74.29,-268.82"/>
</a>
</g>
</g>
<!-- Node10&#45;&gt;Node6 -->
<g id="edge21_Node000010_Node000006" class="edge">
<title>Node10&#45;&gt;Node6</title>
<g id="a_edge21_Node000010_Node000006"><a xlink:title=" ">
<path fill="none" stroke="#63b8ff" d="M225.51,-330.49C239.25,-323.16 254.11,-313.02 264.04,-300 282.29,-276.06 283.04,-265.1 283.04,-235 283.04,-235 283.04,-235 283.04,-121 283.04,-73.17 230.75,-36.52 202.56,-20.24"/>
<polygon fill="#63b8ff" stroke="#63b8ff" points="224.09,-327.29 216.69,-334.87 227.2,-333.56 224.09,-327.29"/>
</a>
</g>
</g>
<!-- Node10&#45;&gt;Node7 -->
<g id="edge17_Node000010_Node000007" class="edge">
<title>Node10&#45;&gt;Node7</title>
<g id="a_edge17_Node000010_Node000007"><a xlink:title=" ">
<path fill="none" stroke="#63b8ff" d="M186.72,-324.5C179.08,-288.27 163.49,-214.31 158,-188.3"/>
<polygon fill="#63b8ff" stroke="#63b8ff" points="183.26,-325.06 188.75,-334.12 190.11,-323.61 183.26,-325.06"/>
</a>
</g>
</g>
<!-- Node11 -->
<g id="Node000011" class="node">
<title>Node11</title>
<g id="a_Node000011"><a xlink:href="groups_8hpp.html" target="_top" xlink:title=" ">
<polygon fill="white" stroke="#666666" points="255.04,-300 191.04,-300 191.04,-280 255.04,-280 255.04,-300"/>
<text xml:space="preserve" text-anchor="middle" x="223.04" y="-286.5" font-family="Helvetica,sans-Serif" font-size="10.00">groups.hpp</text>
</a>
</g>
</g>
<!-- Node10&#45;&gt;Node11 -->
<g id="edge18_Node000010_Node000011" class="edge">
<title>Node10&#45;&gt;Node11</title>
<g id="a_edge18_Node000010_Node000011"><a xlink:title=" ">
<path fill="none" stroke="#63b8ff" d="M202.38,-325.87C207.52,-317.19 213.37,-307.32 217.53,-300.3"/>
<polygon fill="#63b8ff" stroke="#63b8ff" points="199.47,-323.9 197.39,-334.29 205.5,-327.47 199.47,-323.9"/>
</a>
</g>
</g>
<!-- Node11&#45;&gt;Node3 -->
<g id="edge19_Node000011_Node000003" class="edge">
<title>Node11&#45;&gt;Node3</title>
<g id="a_edge19_Node000011_Node000003"><a xlink:title=" ">
<path fill="none" stroke="#63b8ff" d="M193.2,-274.61C173.41,-265.07 147.99,-252.81 130.7,-244.48"/>
<polygon fill="#63b8ff" stroke="#63b8ff" points="191.64,-277.75 202.17,-278.94 194.68,-271.44 191.64,-277.75"/>
</a>
</g>
</g>
<!-- Node11&#45;&gt;Node6 -->
<g id="edge20_Node000011_Node000006" class="edge">
<title>Node11&#45;&gt;Node6</title>
<g id="a_edge20_Node000011_Node000006"><a xlink:title=" ">
<path fill="none" stroke="#63b8ff" d="M223.04,-268.32C223.04,-246.22 223.04,-210.13 223.04,-179 223.04,-179 223.04,-179 223.04,-121 223.04,-81.8 201.22,-38.84 190.65,-20.33"/>
<polygon fill="#63b8ff" stroke="#63b8ff" points="219.54,-268.07 223.04,-278.07 226.54,-268.07 219.54,-268.07"/>
</a>
</g>
</g>
</g>
</svg>
</svg>

<style type='text/css'>
<![CDATA[
[data-mouse-over-selected='false'] { opacity: 0.7; }
[data-mouse-over-selected='true']  { opacity: 1.0; }
]]>
</style>
<script type="application/ecmascript"><![CDATA[
document.addEventListener('DOMContentLoaded', (event) => {
  highlightEdges();
  highlightAdjacentNodes();
});
]]></script>
</svg>
