<?xml version="1.0" encoding="UTF-8" standalone="no"?>
<!DOCTYPE svg PUBLIC "-//W3C//DTD SVG 1.1//EN"
 "http://www.w3.org/Graphics/SVG/1.1/DTD/svg11.dtd">
<!-- Generated by graphviz version 2.43.0 (0)
 -->
<!-- Title: arg.hpp Pages: 1 -->
<svg width="534pt" height="252pt"
 viewBox="0.00 0.00 533.95 252.00" xmlns="http://www.w3.org/2000/svg" xmlns:xlink="http://www.w3.org/1999/xlink">
<g id="graph0" class="graph" transform="scale(1 1) rotate(0) translate(4 248)">
<title>arg.hpp</title>
<!-- Node1 -->
<g id="node1" class="node">
<title>Node1</title>
<g id="a_node1"><a xlink:title=" ">
<polygon fill="#bfbfbf" stroke="black" points="291,-224.5 291,-243.5 344,-243.5 344,-224.5 291,-224.5"/>
<text text-anchor="middle" x="317.5" y="-231.5" font-family="Helvetica,sans-Serif" font-size="10.00">arg.hpp</text>
</a>
</g>
</g>
<!-- Node2 -->
<g id="node2" class="node">
<title>Node2</title>
<g id="a_node2"><a xlink:href="arg__iface_8hpp.html" target="_top" xlink:title=" ">
<polygon fill="none" stroke="black" points="61,-168.5 61,-187.5 144,-187.5 144,-168.5 61,-168.5"/>
<text text-anchor="middle" x="102.5" y="-175.5" font-family="Helvetica,sans-Serif" font-size="10.00">arg_iface.hpp</text>
</a>
</g>
</g>
<!-- Node1&#45;&gt;Node2 -->
<g id="edge1" class="edge">
<title>Node1&#45;&gt;Node2</title>
<path fill="none" stroke="midnightblue" d="M290.7,-226.27C254.47,-217.17 189.39,-200.82 146.07,-189.94"/>
<polygon fill="midnightblue" stroke="midnightblue" points="146.92,-186.55 136.37,-187.51 145.22,-193.34 146.92,-186.55"/>
</g>
<!-- Node3 -->
<g id="node3" class="node">
<title>Node3</title>
<g id="a_node3"><a xlink:href="utils_8hpp.html" target="_top" xlink:title=" ">
<polygon fill="none" stroke="black" points="128,-112.5 128,-131.5 187,-131.5 187,-112.5 128,-112.5"/>
<text text-anchor="middle" x="157.5" y="-119.5" font-family="Helvetica,sans-Serif" font-size="10.00">utils.hpp</text>
</a>
</g>
</g>
<!-- Node1&#45;&gt;Node3 -->
<g id="edge12" class="edge">
<title>Node1&#45;&gt;Node3</title>
<path fill="none" stroke="midnightblue" d="M290.67,-226.91C266.3,-220.37 230.32,-208.12 204.5,-188 188.08,-175.2 174.81,-155.19 166.61,-140.75"/>
<polygon fill="midnightblue" stroke="midnightblue" points="169.6,-138.93 161.77,-131.8 163.45,-142.26 169.6,-138.93"/>
</g>
<!-- Node5 -->
<g id="node5" class="node">
<title>Node5</title>
<g id="a_node5"><a xlink:href="types_8hpp.html" target="_top" xlink:title=" ">
<polygon fill="none" stroke="black" points="238,-56.5 238,-75.5 303,-75.5 303,-56.5 238,-56.5"/>
<text text-anchor="middle" x="270.5" y="-63.5" font-family="Helvetica,sans-Serif" font-size="10.00">types.hpp</text>
</a>
</g>
</g>
<!-- Node1&#45;&gt;Node5 -->
<g id="edge25" class="edge">
<title>Node1&#45;&gt;Node5</title>
<path fill="none" stroke="midnightblue" d="M317.17,-224.21C316.17,-203.85 312.26,-152.17 297.5,-112 293.93,-102.29 288.22,-92.34 282.96,-84.27"/>
<polygon fill="midnightblue" stroke="midnightblue" points="285.69,-82.07 277.16,-75.79 279.92,-86.02 285.69,-82.07"/>
</g>
<!-- Node9 -->
<g id="node9" class="node">
<title>Node9</title>
<g id="a_node9"><a xlink:title=" ">
<polygon fill="none" stroke="#bfbfbf" points="356.5,-56.5 356.5,-75.5 420.5,-75.5 420.5,-56.5 356.5,-56.5"/>
<text text-anchor="middle" x="388.5" y="-63.5" font-family="Helvetica,sans-Serif" font-size="10.00">algorithm</text>
</a>
</g>
</g>
<!-- Node1&#45;&gt;Node9 -->
<g id="edge26" class="edge">
<title>Node1&#45;&gt;Node9</title>
<path fill="none" stroke="midnightblue" d="M344.07,-230.41C392.61,-224 493.35,-202.38 522.5,-132 525.9,-123.79 527.69,-119.22 522.5,-112 516.84,-104.14 467.19,-88.85 429.97,-78.3"/>
<polygon fill="midnightblue" stroke="midnightblue" points="430.9,-74.92 420.32,-75.59 429,-81.66 430.9,-74.92"/>
</g>
<!-- Node12 -->
<g id="node12" class="node">
<title>Node12</title>
<g id="a_node12"><a xlink:href="context_8hpp.html" target="_top" xlink:title=" ">
<polygon fill="none" stroke="black" points="213.5,-168.5 213.5,-187.5 287.5,-187.5 287.5,-168.5 213.5,-168.5"/>
<text text-anchor="middle" x="250.5" y="-175.5" font-family="Helvetica,sans-Serif" font-size="10.00">context.hpp</text>
</a>
</g>
</g>
<!-- Node1&#45;&gt;Node12 -->
<g id="edge13" class="edge">
<title>Node1&#45;&gt;Node12</title>
<path fill="none" stroke="midnightblue" d="M306.74,-224.32C296.73,-216.26 281.61,-204.08 269.57,-194.37"/>
<polygon fill="midnightblue" stroke="midnightblue" points="271.44,-191.38 261.46,-187.83 267.05,-196.83 271.44,-191.38"/>
</g>
<!-- Node14 -->
<g id="node14" class="node">
<title>Node14</title>
<g id="a_node14"><a xlink:href="exceptions_8hpp.html" target="_top" xlink:title=" ">
<polygon fill="none" stroke="black" points="422,-112.5 422,-131.5 513,-131.5 513,-112.5 422,-112.5"/>
<text text-anchor="middle" x="467.5" y="-119.5" font-family="Helvetica,sans-Serif" font-size="10.00">exceptions.hpp</text>
</a>
</g>
</g>
<!-- Node1&#45;&gt;Node14 -->
<g id="edge17" class="edge">
<title>Node1&#45;&gt;Node14</title>
<path fill="none" stroke="midnightblue" d="M344.17,-230.46C372.9,-226.35 418.18,-215.64 445.5,-188 457.66,-175.7 463.1,-156.44 465.54,-142.08"/>
<polygon fill="midnightblue" stroke="midnightblue" points="469.05,-142.21 466.91,-131.83 462.11,-141.28 469.05,-142.21"/>
</g>
<!-- Node16 -->
<g id="node16" class="node">
<title>Node16</title>
<g id="a_node16"><a xlink:href="value__utils_8hpp.html" target="_top" xlink:title=" ">
<polygon fill="none" stroke="black" points="346,-168.5 346,-187.5 437,-187.5 437,-168.5 346,-168.5"/>
<text text-anchor="middle" x="391.5" y="-175.5" font-family="Helvetica,sans-Serif" font-size="10.00">value_utils.hpp</text>
</a>
</g>
</g>
<!-- Node1&#45;&gt;Node16 -->
<g id="edge20" class="edge">
<title>Node1&#45;&gt;Node16</title>
<path fill="none" stroke="midnightblue" d="M329.39,-224.32C340.65,-216.11 357.79,-203.6 371.21,-193.81"/>
<polygon fill="midnightblue" stroke="midnightblue" points="373.38,-196.56 379.39,-187.83 369.25,-190.9 373.38,-196.56"/>
</g>
<!-- Node2&#45;&gt;Node3 -->
<g id="edge2" class="edge">
<title>Node2&#45;&gt;Node3</title>
<path fill="none" stroke="midnightblue" d="M111.58,-168.08C119.67,-160.14 131.7,-148.34 141.41,-138.8"/>
<polygon fill="midnightblue" stroke="midnightblue" points="143.9,-141.25 148.59,-131.75 139,-136.26 143.9,-141.25"/>
</g>
<!-- Node2&#45;&gt;Node5 -->
<g id="edge10" class="edge">
<title>Node2&#45;&gt;Node5</title>
<path fill="none" stroke="midnightblue" d="M102.08,-168.14C101.93,-154.28 103.73,-127.47 118.5,-112 133.58,-96.2 188.37,-82.7 227.84,-74.72"/>
<polygon fill="midnightblue" stroke="midnightblue" points="228.63,-78.13 237.77,-72.76 227.28,-71.26 228.63,-78.13"/>
</g>
<!-- Node11 -->
<g id="node11" class="node">
<title>Node11</title>
<g id="a_node11"><a xlink:href="enums_8hpp.html" target="_top" xlink:title=" ">
<polygon fill="none" stroke="black" points="0,-112.5 0,-131.5 71,-131.5 71,-112.5 0,-112.5"/>
<text text-anchor="middle" x="35.5" y="-119.5" font-family="Helvetica,sans-Serif" font-size="10.00">enums.hpp</text>
</a>
</g>
</g>
<!-- Node2&#45;&gt;Node11 -->
<g id="edge11" class="edge">
<title>Node2&#45;&gt;Node11</title>
<path fill="none" stroke="midnightblue" d="M91.74,-168.32C81.73,-160.26 66.61,-148.08 54.57,-138.37"/>
<polygon fill="midnightblue" stroke="midnightblue" points="56.44,-135.38 46.46,-131.83 52.05,-140.83 56.44,-135.38"/>
</g>
<!-- Node4 -->
<g id="node4" class="node">
<title>Node4</title>
<g id="a_node4"><a xlink:title=" ">
<polygon fill="none" stroke="#bfbfbf" points="153.5,-56.5 153.5,-75.5 197.5,-75.5 197.5,-56.5 153.5,-56.5"/>
<text text-anchor="middle" x="175.5" y="-63.5" font-family="Helvetica,sans-Serif" font-size="10.00">regex</text>
</a>
</g>
</g>
<!-- Node3&#45;&gt;Node4 -->
<g id="edge3" class="edge">
<title>Node3&#45;&gt;Node4</title>
<path fill="none" stroke="midnightblue" d="M160.47,-112.08C162.88,-104.85 166.36,-94.41 169.37,-85.4"/>
<polygon fill="midnightblue" stroke="midnightblue" points="172.74,-86.34 172.58,-75.75 166.1,-84.13 172.74,-86.34"/>
</g>
<!-- Node3&#45;&gt;Node5 -->
<g id="edge4" class="edge">
<title>Node3&#45;&gt;Node5</title>
<path fill="none" stroke="midnightblue" d="M175.41,-112.44C193.75,-103.68 222.51,-89.94 243.59,-79.86"/>
<polygon fill="midnightblue" stroke="midnightblue" points="245.17,-82.99 252.68,-75.52 242.15,-76.67 245.17,-82.99"/>
</g>
<!-- Node3&#45;&gt;Node9 -->
<g id="edge8" class="edge">
<title>Node3&#45;&gt;Node9</title>
<path fill="none" stroke="midnightblue" d="M187.23,-114.05C227.67,-104.6 300.26,-87.63 346.32,-76.86"/>
<polygon fill="midnightblue" stroke="midnightblue" points="347.35,-80.21 356.29,-74.53 345.76,-73.4 347.35,-80.21"/>
</g>
<!-- Node10 -->
<g id="node10" class="node">
<title>Node10</title>
<g id="a_node10"><a xlink:title=" ">
<polygon fill="none" stroke="#bfbfbf" points="66,-56.5 66,-75.5 135,-75.5 135,-56.5 66,-56.5"/>
<text text-anchor="middle" x="100.5" y="-63.5" font-family="Helvetica,sans-Serif" font-size="10.00">type_traits</text>
</a>
</g>
</g>
<!-- Node3&#45;&gt;Node10 -->
<g id="edge9" class="edge">
<title>Node3&#45;&gt;Node10</title>
<path fill="none" stroke="midnightblue" d="M148.34,-112.32C140,-104.42 127.47,-92.55 117.32,-82.94"/>
<polygon fill="midnightblue" stroke="midnightblue" points="119.49,-80.17 109.82,-75.83 114.68,-85.25 119.49,-80.17"/>
</g>
<!-- Node6 -->
<g id="node6" class="node">
<title>Node6</title>
<g id="a_node6"><a xlink:title=" ">
<polygon fill="none" stroke="#bfbfbf" points="178.5,-0.5 178.5,-19.5 222.5,-19.5 222.5,-0.5 178.5,-0.5"/>
<text text-anchor="middle" x="200.5" y="-7.5" font-family="Helvetica,sans-Serif" font-size="10.00">string</text>
</a>
</g>
</g>
<!-- Node5&#45;&gt;Node6 -->
<g id="edge5" class="edge">
<title>Node5&#45;&gt;Node6</title>
<path fill="none" stroke="midnightblue" d="M259.25,-56.32C248.7,-48.18 232.7,-35.84 220.06,-26.09"/>
<polygon fill="midnightblue" stroke="midnightblue" points="222.01,-23.17 211.95,-19.83 217.73,-28.71 222.01,-23.17"/>
</g>
<!-- Node7 -->
<g id="node7" class="node">
<title>Node7</title>
<g id="a_node7"><a xlink:title=" ">
<polygon fill="none" stroke="#bfbfbf" points="240.5,-0.5 240.5,-19.5 300.5,-19.5 300.5,-0.5 240.5,-0.5"/>
<text text-anchor="middle" x="270.5" y="-7.5" font-family="Helvetica,sans-Serif" font-size="10.00">iostream</text>
</a>
</g>
</g>
<!-- Node5&#45;&gt;Node7 -->
<g id="edge6" class="edge">
<title>Node5&#45;&gt;Node7</title>
<path fill="none" stroke="midnightblue" d="M270.5,-56.08C270.5,-49.01 270.5,-38.86 270.5,-29.99"/>
<polygon fill="midnightblue" stroke="midnightblue" points="274,-29.75 270.5,-19.75 267,-29.75 274,-29.75"/>
</g>
<!-- Node8 -->
<g id="node8" class="node">
<title>Node8</title>
<g id="a_node8"><a xlink:title=" ">
<polygon fill="none" stroke="#bfbfbf" points="319,-0.5 319,-19.5 366,-19.5 366,-0.5 319,-0.5"/>
<text text-anchor="middle" x="342.5" y="-7.5" font-family="Helvetica,sans-Serif" font-size="10.00">vector</text>
</a>
</g>
</g>
<!-- Node5&#45;&gt;Node8 -->
<g id="edge7" class="edge">
<title>Node5&#45;&gt;Node8</title>
<path fill="none" stroke="midnightblue" d="M282.07,-56.32C292.92,-48.18 309.38,-35.84 322.38,-26.09"/>
<polygon fill="midnightblue" stroke="midnightblue" points="324.82,-28.63 330.72,-19.83 320.62,-23.03 324.82,-28.63"/>
</g>
<!-- Node12&#45;&gt;Node3 -->
<g id="edge15" class="edge">
<title>Node12&#45;&gt;Node3</title>
<path fill="none" stroke="midnightblue" d="M235.56,-168.32C220.91,-159.82 198.37,-146.73 181.26,-136.8"/>
<polygon fill="midnightblue" stroke="midnightblue" points="182.81,-133.65 172.4,-131.65 179.3,-139.7 182.81,-133.65"/>
</g>
<!-- Node12&#45;&gt;Node5 -->
<g id="edge16" class="edge">
<title>Node12&#45;&gt;Node5</title>
<path fill="none" stroke="midnightblue" d="M245.28,-168.43C238.3,-155.86 227.58,-131.74 234.5,-112 238.29,-101.21 245.87,-91.08 253.1,-83.18"/>
<polygon fill="midnightblue" stroke="midnightblue" points="255.83,-85.4 260.34,-75.81 250.83,-80.49 255.83,-85.4"/>
</g>
<!-- Node13 -->
<g id="node13" class="node">
<title>Node13</title>
<g id="a_node13"><a xlink:title=" ">
<polygon fill="none" stroke="#bfbfbf" points="244,-112.5 244,-131.5 289,-131.5 289,-112.5 244,-112.5"/>
<text text-anchor="middle" x="266.5" y="-119.5" font-family="Helvetica,sans-Serif" font-size="10.00">utility</text>
</a>
</g>
</g>
<!-- Node12&#45;&gt;Node13 -->
<g id="edge14" class="edge">
<title>Node12&#45;&gt;Node13</title>
<path fill="none" stroke="midnightblue" d="M253.14,-168.08C255.29,-160.85 258.38,-150.41 261.05,-141.4"/>
<polygon fill="midnightblue" stroke="midnightblue" points="264.42,-142.33 263.91,-131.75 257.71,-140.34 264.42,-142.33"/>
</g>
<!-- Node14&#45;&gt;Node5 -->
<g id="edge19" class="edge">
<title>Node14&#45;&gt;Node5</title>
<path fill="none" stroke="midnightblue" d="M436.28,-112.44C402.57,-103.2 348.7,-88.44 311.57,-78.26"/>
<polygon fill="midnightblue" stroke="midnightblue" points="312.14,-74.78 301.57,-75.52 310.29,-81.54 312.14,-74.78"/>
</g>
<!-- Node15 -->
<g id="node15" class="node">
<title>Node15</title>
<g id="a_node15"><a xlink:title=" ">
<polygon fill="none" stroke="#bfbfbf" points="439,-56.5 439,-75.5 504,-75.5 504,-56.5 439,-56.5"/>
<text text-anchor="middle" x="471.5" y="-63.5" font-family="Helvetica,sans-Serif" font-size="10.00">stdexcept</text>
</a>
</g>
</g>
<!-- Node14&#45;&gt;Node15 -->
<g id="edge18" class="edge">
<title>Node14&#45;&gt;Node15</title>
<path fill="none" stroke="midnightblue" d="M468.16,-112.08C468.68,-105.01 469.44,-94.86 470.09,-85.99"/>
<polygon fill="midnightblue" stroke="midnightblue" points="473.6,-85.98 470.85,-75.75 466.62,-85.47 473.6,-85.98"/>
</g>
<!-- Node16&#45;&gt;Node3 -->
<g id="edge21" class="edge">
<title>Node16&#45;&gt;Node3</title>
<path fill="none" stroke="midnightblue" d="M354.42,-168.44C311.5,-158.54 241.09,-142.29 197.12,-132.14"/>
<polygon fill="midnightblue" stroke="midnightblue" points="197.88,-128.73 187.35,-129.89 196.31,-135.55 197.88,-128.73"/>
</g>
<!-- Node16&#45;&gt;Node5 -->
<g id="edge23" class="edge">
<title>Node16&#45;&gt;Node5</title>
<path fill="none" stroke="midnightblue" d="M384.22,-168.09C373.39,-155.09 352.09,-130.44 331.5,-112 319.16,-100.94 304.2,-89.88 292.19,-81.49"/>
<polygon fill="midnightblue" stroke="midnightblue" points="293.89,-78.41 283.66,-75.64 289.93,-84.18 293.89,-78.41"/>
</g>
<!-- Node16&#45;&gt;Node9 -->
<g id="edge24" class="edge">
<title>Node16&#45;&gt;Node9</title>
<path fill="none" stroke="midnightblue" d="M391.26,-168.37C390.78,-150.62 389.66,-109.67 389.01,-85.6"/>
<polygon fill="midnightblue" stroke="midnightblue" points="392.51,-85.49 388.73,-75.59 385.51,-85.68 392.51,-85.49"/>
</g>
<!-- Node16&#45;&gt;Node14 -->
<g id="edge22" class="edge">
<title>Node16&#45;&gt;Node14</title>
<path fill="none" stroke="midnightblue" d="M403.71,-168.32C415.28,-160.11 432.88,-147.6 446.66,-137.81"/>
<polygon fill="midnightblue" stroke="midnightblue" points="448.94,-140.48 455.07,-131.83 444.89,-134.77 448.94,-140.48"/>
</g>
</g>
</svg>
