<?xml version="1.0" encoding="UTF-8" standalone="no"?>
<!DOCTYPE svg PUBLIC "-//W3C//DTD SVG 1.1//EN"
 "http://www.w3.org/Graphics/SVG/1.1/DTD/svg11.dtd">
<!-- Generated by graphviz version 2.43.0 (0)
 -->
<!-- Title: arg_iface.hpp Pages: 1 -->
<svg width="309pt" height="420pt"
 viewBox="0.00 0.00 309.26 420.00" xmlns="http://www.w3.org/2000/svg" xmlns:xlink="http://www.w3.org/1999/xlink">
<g id="graph0" class="graph" transform="scale(1 1) rotate(0) translate(4 416)">
<title>arg_iface.hpp</title>
<!-- Node1 -->
<g id="node1" class="node">
<title>Node1</title>
<g id="a_node1"><a xlink:title=" ">
<polygon fill="#bfbfbf" stroke="black" points="108.76,-392.5 108.76,-411.5 191.76,-411.5 191.76,-392.5 108.76,-392.5"/>
<text text-anchor="middle" x="150.26" y="-399.5" font-family="Helvetica,sans-Serif" font-size="10.00">arg_iface.hpp</text>
</a>
</g>
</g>
<!-- Node2 -->
<g id="node2" class="node">
<title>Node2</title>
<g id="a_node2"><a xlink:href="arg_8hpp.html" target="_top" xlink:title=" ">
<polygon fill="none" stroke="black" points="77.76,-336.5 77.76,-355.5 130.76,-355.5 130.76,-336.5 77.76,-336.5"/>
<text text-anchor="middle" x="104.26" y="-343.5" font-family="Helvetica,sans-Serif" font-size="10.00">arg.hpp</text>
</a>
</g>
</g>
<!-- Node1&#45;&gt;Node2 -->
<g id="edge1" class="edge">
<title>Node1&#45;&gt;Node2</title>
<path fill="none" stroke="midnightblue" d="M136.14,-384.43C128.08,-374.97 118.3,-363.48 111.71,-355.75"/>
<polygon fill="midnightblue" stroke="midnightblue" points="133.51,-386.74 142.66,-392.08 138.84,-382.2 133.51,-386.74"/>
</g>
<!-- Node10 -->
<g id="node10" class="node">
<title>Node10</title>
<g id="a_node10"><a xlink:href="group__iface_8hpp.html" target="_top" xlink:title=" ">
<polygon fill="none" stroke="black" points="156.76,-336.5 156.76,-355.5 251.76,-355.5 251.76,-336.5 156.76,-336.5"/>
<text text-anchor="middle" x="204.26" y="-343.5" font-family="Helvetica,sans-Serif" font-size="10.00">group_iface.hpp</text>
</a>
</g>
</g>
<!-- Node1&#45;&gt;Node10 -->
<g id="edge16" class="edge">
<title>Node1&#45;&gt;Node10</title>
<path fill="none" stroke="midnightblue" d="M166.25,-385C175.82,-375.43 187.62,-363.64 195.51,-355.75"/>
<polygon fill="midnightblue" stroke="midnightblue" points="163.77,-382.54 159.17,-392.08 168.72,-387.49 163.77,-382.54"/>
</g>
<!-- Node3 -->
<g id="node3" class="node">
<title>Node3</title>
<g id="a_node3"><a xlink:href="api_8hpp.html" target="_top" xlink:title=" ">
<polygon fill="none" stroke="black" points="91.76,-224.5 91.76,-243.5 144.76,-243.5 144.76,-224.5 91.76,-224.5"/>
<text text-anchor="middle" x="118.26" y="-231.5" font-family="Helvetica,sans-Serif" font-size="10.00">api.hpp</text>
</a>
</g>
</g>
<!-- Node2&#45;&gt;Node3 -->
<g id="edge2" class="edge">
<title>Node2&#45;&gt;Node3</title>
<path fill="none" stroke="midnightblue" d="M110.17,-326.67C112.51,-318.58 114.95,-308.91 116.26,-300 119.17,-280.12 119,-256.46 118.62,-243.89"/>
<polygon fill="midnightblue" stroke="midnightblue" points="106.74,-325.91 107.15,-336.5 113.43,-327.96 106.74,-325.91"/>
</g>
<!-- Node8 -->
<g id="node8" class="node">
<title>Node8</title>
<g id="a_node8"><a xlink:href="help_8hpp.html" target="_top" xlink:title=" ">
<polygon fill="none" stroke="black" points="7.76,-112.5 7.76,-131.5 66.76,-131.5 66.76,-112.5 7.76,-112.5"/>
<text text-anchor="middle" x="37.26" y="-119.5" font-family="Helvetica,sans-Serif" font-size="10.00">help.hpp</text>
</a>
</g>
</g>
<!-- Node2&#45;&gt;Node8 -->
<g id="edge15" class="edge">
<title>Node2&#45;&gt;Node8</title>
<path fill="none" stroke="midnightblue" d="M67.83,-336.68C48.32,-330.18 25.96,-318.94 14.26,-300 -20.44,-243.85 18.52,-158.61 32.59,-131.55"/>
<polygon fill="midnightblue" stroke="midnightblue" points="66.82,-340.04 77.4,-339.59 68.85,-333.34 66.82,-340.04"/>
</g>
<!-- Node9 -->
<g id="node9" class="node">
<title>Node9</title>
<g id="a_node9"><a xlink:href="multi__arg_8hpp.html" target="_top" xlink:title=" ">
<polygon fill="none" stroke="black" points="23.26,-280.5 23.26,-299.5 107.26,-299.5 107.26,-280.5 23.26,-280.5"/>
<text text-anchor="middle" x="65.26" y="-287.5" font-family="Helvetica,sans-Serif" font-size="10.00">multi_arg.hpp</text>
</a>
</g>
</g>
<!-- Node2&#45;&gt;Node9 -->
<g id="edge13" class="edge">
<title>Node2&#45;&gt;Node9</title>
<path fill="none" stroke="midnightblue" d="M91.87,-327.86C85.12,-318.5 77.05,-307.33 71.58,-299.75"/>
<polygon fill="midnightblue" stroke="midnightblue" points="89.12,-330.03 97.82,-336.08 94.8,-325.93 89.12,-330.03"/>
</g>
<!-- Node4 -->
<g id="node4" class="node">
<title>Node4</title>
<g id="a_node4"><a xlink:href="cmd__line_8hpp.html" target="_top" xlink:title=" ">
<polygon fill="none" stroke="black" points="79.26,-56.5 79.26,-75.5 161.26,-75.5 161.26,-56.5 79.26,-56.5"/>
<text text-anchor="middle" x="120.26" y="-63.5" font-family="Helvetica,sans-Serif" font-size="10.00">cmd_line.hpp</text>
</a>
</g>
</g>
<!-- Node3&#45;&gt;Node4 -->
<g id="edge3" class="edge">
<title>Node3&#45;&gt;Node4</title>
<path fill="none" stroke="midnightblue" d="M116.21,-214.22C115.43,-206.16 114.64,-196.63 114.26,-188 112.38,-145.77 117.15,-95.26 119.28,-75.51"/>
<polygon fill="midnightblue" stroke="midnightblue" points="112.75,-214.8 117.26,-224.39 119.72,-214.08 112.75,-214.8"/>
</g>
<!-- Node7 -->
<g id="node7" class="node">
<title>Node7</title>
<g id="a_node7"><a xlink:href="command_8hpp.html" target="_top" xlink:title=" ">
<polygon fill="none" stroke="black" points="123.26,-168.5 123.26,-187.5 209.26,-187.5 209.26,-168.5 123.26,-168.5"/>
<text text-anchor="middle" x="166.26" y="-175.5" font-family="Helvetica,sans-Serif" font-size="10.00">command.hpp</text>
</a>
</g>
</g>
<!-- Node3&#45;&gt;Node7 -->
<g id="edge7" class="edge">
<title>Node3&#45;&gt;Node7</title>
<path fill="none" stroke="midnightblue" d="M127.16,-215.86C134.65,-206.5 144.99,-195.33 153.35,-187.75"/>
<polygon fill="midnightblue" stroke="midnightblue" points="124.2,-213.98 121.02,-224.08 129.81,-218.17 124.2,-213.98"/>
</g>
<!-- Node5 -->
<g id="node5" class="node">
<title>Node5</title>
<g id="a_node5"><a xlink:href="all_8hpp.html" target="_top" xlink:title=" ">
<polygon fill="none" stroke="black" points="84.26,-0.5 84.26,-19.5 134.26,-19.5 134.26,-0.5 84.26,-0.5"/>
<text text-anchor="middle" x="109.26" y="-7.5" font-family="Helvetica,sans-Serif" font-size="10.00">all.hpp</text>
</a>
</g>
</g>
<!-- Node4&#45;&gt;Node5 -->
<g id="edge4" class="edge">
<title>Node4&#45;&gt;Node5</title>
<path fill="none" stroke="midnightblue" d="M116.41,-46.1C114.58,-37.14 112.49,-26.86 111.04,-19.75"/>
<polygon fill="midnightblue" stroke="midnightblue" points="113.01,-46.98 118.44,-56.08 119.87,-45.59 113.01,-46.98"/>
</g>
<!-- Node6 -->
<g id="node6" class="node">
<title>Node6</title>
<g id="a_node6"><a xlink:href="help__printer_8hpp.html" target="_top" xlink:title=" ">
<polygon fill="none" stroke="black" points="152.76,-0.5 152.76,-19.5 247.76,-19.5 247.76,-0.5 152.76,-0.5"/>
<text text-anchor="middle" x="200.26" y="-7.5" font-family="Helvetica,sans-Serif" font-size="10.00">help_printer.hpp</text>
</a>
</g>
</g>
<!-- Node4&#45;&gt;Node6 -->
<g id="edge5" class="edge">
<title>Node4&#45;&gt;Node6</title>
<path fill="none" stroke="midnightblue" d="M136.28,-50.06C149.66,-40.28 168.43,-27.83 182.32,-19.65"/>
<polygon fill="midnightblue" stroke="midnightblue" points="133.86,-47.5 127.99,-56.32 138.08,-53.08 133.86,-47.5"/>
</g>
<!-- Node6&#45;&gt;Node4 -->
<g id="edge6" class="edge">
<title>Node6&#45;&gt;Node4</title>
<path fill="none" stroke="midnightblue" d="M184.03,-26.09C170.67,-35.84 152.04,-48.18 138.22,-56.32"/>
<polygon fill="midnightblue" stroke="midnightblue" points="186.44,-28.65 192.32,-19.83 182.23,-23.07 186.44,-28.65"/>
</g>
<!-- Node7&#45;&gt;Node3 -->
<g id="edge8" class="edge">
<title>Node7&#45;&gt;Node3</title>
<path fill="none" stroke="midnightblue" d="M157.39,-196.09C149.88,-205.48 139.47,-216.73 131.08,-224.32"/>
<polygon fill="midnightblue" stroke="midnightblue" points="160.38,-197.94 163.55,-187.83 154.77,-193.76 160.38,-197.94"/>
</g>
<!-- Node7&#45;&gt;Node4 -->
<g id="edge9" class="edge">
<title>Node7&#45;&gt;Node4</title>
<path fill="none" stroke="midnightblue" d="M158.73,-159C148.69,-135 131.32,-93.47 123.85,-75.59"/>
<polygon fill="midnightblue" stroke="midnightblue" points="155.56,-160.49 162.65,-168.37 162.02,-157.79 155.56,-160.49"/>
</g>
<!-- Node7&#45;&gt;Node6 -->
<g id="edge12" class="edge">
<title>Node7&#45;&gt;Node6</title>
<path fill="none" stroke="midnightblue" d="M170.16,-157.93C177.54,-121.92 193.25,-45.23 198.5,-19.57"/>
<polygon fill="midnightblue" stroke="midnightblue" points="166.66,-157.58 168.08,-168.08 173.52,-158.98 166.66,-157.58"/>
</g>
<!-- Node7&#45;&gt;Node8 -->
<g id="edge10" class="edge">
<title>Node7&#45;&gt;Node8</title>
<path fill="none" stroke="midnightblue" d="M136.4,-164.5C112.22,-154.38 78.79,-140.39 57.6,-131.52"/>
<polygon fill="midnightblue" stroke="midnightblue" points="135.24,-167.81 145.82,-168.44 137.94,-161.35 135.24,-167.81"/>
</g>
<!-- Node8&#45;&gt;Node4 -->
<g id="edge11" class="edge">
<title>Node8&#45;&gt;Node4</title>
<path fill="none" stroke="midnightblue" d="M59.36,-106.62C74.52,-96.76 94.14,-83.99 106.95,-75.65"/>
<polygon fill="midnightblue" stroke="midnightblue" points="57.07,-103.94 50.59,-112.32 60.88,-109.8 57.07,-103.94"/>
</g>
<!-- Node9&#45;&gt;Node3 -->
<g id="edge14" class="edge">
<title>Node9&#45;&gt;Node3</title>
<path fill="none" stroke="midnightblue" d="M81.24,-272.72C90.58,-263.2 102,-251.56 109.67,-243.75"/>
<polygon fill="midnightblue" stroke="midnightblue" points="78.51,-270.49 74.01,-280.08 83.51,-275.4 78.51,-270.49"/>
</g>
<!-- Node10&#45;&gt;Node6 -->
<g id="edge21" class="edge">
<title>Node10&#45;&gt;Node6</title>
<path fill="none" stroke="midnightblue" d="M238.37,-332.28C253.76,-324.98 270.98,-314.35 282.26,-300 300.85,-276.33 301.26,-265.1 301.26,-235 301.26,-235 301.26,-235 301.26,-121 301.26,-72 246.21,-35.39 217.39,-19.59"/>
<polygon fill="midnightblue" stroke="midnightblue" points="236.81,-329.15 229.09,-336.41 239.65,-335.54 236.81,-329.15"/>
</g>
<!-- Node10&#45;&gt;Node7 -->
<g id="edge20" class="edge">
<title>Node10&#45;&gt;Node7</title>
<path fill="none" stroke="midnightblue" d="M199.64,-326.49C197.64,-318.37 195.3,-308.72 193.26,-300 183.41,-257.87 172.38,-207.31 168.1,-187.52"/>
<polygon fill="midnightblue" stroke="midnightblue" points="196.29,-327.52 202.1,-336.39 203.09,-325.84 196.29,-327.52"/>
</g>
<!-- Node11 -->
<g id="node11" class="node">
<title>Node11</title>
<g id="a_node11"><a xlink:href="groups_8hpp.html" target="_top" xlink:title=" ">
<polygon fill="none" stroke="black" points="201.76,-280.5 201.76,-299.5 272.76,-299.5 272.76,-280.5 201.76,-280.5"/>
<text text-anchor="middle" x="237.26" y="-287.5" font-family="Helvetica,sans-Serif" font-size="10.00">groups.hpp</text>
</a>
</g>
</g>
<!-- Node10&#45;&gt;Node11 -->
<g id="edge17" class="edge">
<title>Node10&#45;&gt;Node11</title>
<path fill="none" stroke="midnightblue" d="M215.09,-327.27C220.73,-318.05 227.37,-307.17 231.91,-299.75"/>
<polygon fill="midnightblue" stroke="midnightblue" points="211.93,-325.73 209.71,-336.08 217.91,-329.38 211.93,-325.73"/>
</g>
<!-- Node11&#45;&gt;Node3 -->
<g id="edge18" class="edge">
<title>Node11&#45;&gt;Node3</title>
<path fill="none" stroke="midnightblue" d="M209.12,-276.23C186.86,-266.13 156.4,-252.31 137.02,-243.52"/>
<polygon fill="midnightblue" stroke="midnightblue" points="207.85,-279.5 218.4,-280.44 210.74,-273.12 207.85,-279.5"/>
</g>
<!-- Node11&#45;&gt;Node6 -->
<g id="edge19" class="edge">
<title>Node11&#45;&gt;Node6</title>
<path fill="none" stroke="midnightblue" d="M237.26,-270.25C237.26,-248.36 237.26,-211.05 237.26,-179 237.26,-179 237.26,-179 237.26,-121 237.26,-81.31 215.35,-37.56 205.25,-19.51"/>
<polygon fill="midnightblue" stroke="midnightblue" points="233.76,-270.44 237.26,-280.44 240.76,-270.44 233.76,-270.44"/>
</g>
</g>
</svg>
