<?xml version="1.0" encoding="UTF-8" standalone="no"?>
<!DOCTYPE svg PUBLIC "-//W3C//DTD SVG 1.1//EN"
 "http://www.w3.org/Graphics/SVG/1.1/DTD/svg11.dtd">
<!-- Generated by graphviz version 2.38.0 (20140413.2041)
 -->
<!-- Title: arg_as_command.hpp Pages: 1 -->
<svg width="121pt" height="196pt"
 viewBox="0.00 0.00 121.00 196.00" xmlns="http://www.w3.org/2000/svg" xmlns:xlink="http://www.w3.org/1999/xlink">
<g id="graph0" class="graph" transform="scale(1 1) rotate(0) translate(4 192)">
<title>arg_as_command.hpp</title>
<!-- Node1 -->
<g id="node1" class="node"><title>Node1</title>
<polygon fill="#bfbfbf" stroke="black" points="0,-168.5 0,-187.5 113,-187.5 113,-168.5 0,-168.5"/>
<text text-anchor="middle" x="56.5" y="-175.5" font-family="Helvetica,sans-Serif" font-size="10.00">arg_as_command.hpp</text>
</g>
<!-- Node2 -->
<g id="node2" class="node"><title>Node2</title>
<g id="a_node2"><a xlink:href="api_8hpp.html" target="_top" xlink:title="api.hpp">
<polygon fill="none" stroke="black" points="6.5,-112.5 6.5,-131.5 54.5,-131.5 54.5,-112.5 6.5,-112.5"/>
<text text-anchor="middle" x="30.5" y="-119.5" font-family="Helvetica,sans-Serif" font-size="10.00">api.hpp</text>
</a>
</g>
</g>
<!-- Node1&#45;&gt;Node2 -->
<g id="edge1" class="edge"><title>Node1&#45;&gt;Node2</title>
<path fill="none" stroke="midnightblue" d="M47.825,-158.983C43.4118,-149.817 38.2481,-139.092 34.7135,-131.751"/>
<polygon fill="midnightblue" stroke="midnightblue" points="44.7149,-160.591 52.2066,-168.083 51.0219,-157.555 44.7149,-160.591"/>
</g>
<!-- Node3 -->
<g id="node3" class="node"><title>Node3</title>
<g id="a_node3"><a xlink:href="cmd__line_8hpp.html" target="_top" xlink:title="cmd_line.hpp">
<polygon fill="none" stroke="black" points="19.5,-56.5 19.5,-75.5 93.5,-75.5 93.5,-56.5 19.5,-56.5"/>
<text text-anchor="middle" x="56.5" y="-63.5" font-family="Helvetica,sans-Serif" font-size="10.00">cmd_line.hpp</text>
</a>
</g>
</g>
<!-- Node2&#45;&gt;Node3 -->
<g id="edge2" class="edge"><title>Node2&#45;&gt;Node3</title>
<path fill="none" stroke="midnightblue" d="M39.175,-102.983C43.5882,-93.8168 48.7519,-83.0922 52.2865,-75.7511"/>
<polygon fill="midnightblue" stroke="midnightblue" points="35.9781,-101.555 34.7934,-112.083 42.2851,-104.591 35.9781,-101.555"/>
</g>
<!-- Node3&#45;&gt;Node1 -->
<g id="edge4" class="edge"><title>Node3&#45;&gt;Node1</title>
<path fill="none" stroke="midnightblue" d="M60.3761,-85.838C62.589,-98.7994 64.7045,-116.421 63.5,-132 62.5127,-144.77 59.9718,-159.399 58.2389,-168.419"/>
<polygon fill="midnightblue" stroke="midnightblue" points="63.7788,-84.9945 58.4872,-75.8158 56.8999,-86.291 63.7788,-84.9945"/>
</g>
<!-- Node4 -->
<g id="node4" class="node"><title>Node4</title>
<g id="a_node4"><a xlink:href="all_8hpp.html" target="_top" xlink:title="all.hpp">
<polygon fill="none" stroke="black" points="34,-0.5 34,-19.5 79,-19.5 79,-0.5 34,-0.5"/>
<text text-anchor="middle" x="56.5" y="-7.5" font-family="Helvetica,sans-Serif" font-size="10.00">all.hpp</text>
</a>
</g>
</g>
<!-- Node3&#45;&gt;Node4 -->
<g id="edge3" class="edge"><title>Node3&#45;&gt;Node4</title>
<path fill="none" stroke="midnightblue" d="M56.5,-45.8045C56.5,-36.9102 56.5,-26.7798 56.5,-19.7511"/>
<polygon fill="midnightblue" stroke="midnightblue" points="53.0001,-46.083 56.5,-56.083 60.0001,-46.083 53.0001,-46.083"/>
</g>
</g>
</svg>
