<?xml version="1.0" encoding="UTF-8" standalone="no"?>
<!DOCTYPE svg PUBLIC "-//W3C//DTD SVG 1.1//EN"
 "http://www.w3.org/Graphics/SVG/1.1/DTD/svg11.dtd">
<!-- Generated by graphviz version 2.38.0 (20140413.2041)
 -->
<!-- Title: arg_iface.hpp Pages: 1 -->
<svg width="334pt" height="196pt"
 viewBox="0.00 0.00 333.50 196.00" xmlns="http://www.w3.org/2000/svg" xmlns:xlink="http://www.w3.org/1999/xlink">
<g id="graph0" class="graph" transform="scale(1 1) rotate(0) translate(4 192)">
<title>arg_iface.hpp</title>
<!-- Node1 -->
<g id="node1" class="node"><title>Node1</title>
<polygon fill="#bfbfbf" stroke="black" points="115,-168.5 115,-187.5 189,-187.5 189,-168.5 115,-168.5"/>
<text text-anchor="middle" x="152" y="-175.5" font-family="FreeSans" font-size="10.00">arg_iface.hpp</text>
</g>
<!-- Node2 -->
<g id="node2" class="node"><title>Node2</title>
<g id="a_node2"><a xlink:href="utils_8hpp.html" target="_top" xlink:title="utils.hpp">
<polygon fill="none" stroke="black" points="126,-112.5 126,-131.5 178,-131.5 178,-112.5 126,-112.5"/>
<text text-anchor="middle" x="152" y="-119.5" font-family="FreeSans" font-size="10.00">utils.hpp</text>
</a>
</g>
</g>
<!-- Node1&#45;&gt;Node2 -->
<g id="edge1" class="edge"><title>Node1&#45;&gt;Node2</title>
<path fill="none" stroke="midnightblue" d="M152,-168.083C152,-161.006 152,-150.861 152,-141.986"/>
<polygon fill="midnightblue" stroke="midnightblue" points="155.5,-141.751 152,-131.751 148.5,-141.751 155.5,-141.751"/>
</g>
<!-- Node4 -->
<g id="node4" class="node"><title>Node4</title>
<g id="a_node4"><a xlink:href="types_8hpp.html" target="_top" xlink:title="types.hpp">
<polygon fill="none" stroke="black" points="56.5,-56.5 56.5,-75.5 113.5,-75.5 113.5,-56.5 56.5,-56.5"/>
<text text-anchor="middle" x="85" y="-63.5" font-family="FreeSans" font-size="10.00">types.hpp</text>
</a>
</g>
</g>
<!-- Node1&#45;&gt;Node4 -->
<g id="edge9" class="edge"><title>Node1&#45;&gt;Node4</title>
<path fill="none" stroke="midnightblue" d="M144.47,-168.425C136.973,-159.645 125.402,-145.423 117,-132 107.522,-116.857 98.7106,-98.509 92.744,-85.1736"/>
<polygon fill="midnightblue" stroke="midnightblue" points="95.8207,-83.4734 88.6103,-75.7106 89.406,-86.2755 95.8207,-83.4734"/>
</g>
<!-- Node10 -->
<g id="node10" class="node"><title>Node10</title>
<g id="a_node10"><a xlink:href="enums_8hpp.html" target="_top" xlink:title="enums.hpp">
<polygon fill="none" stroke="black" points="196.5,-112.5 196.5,-131.5 259.5,-131.5 259.5,-112.5 196.5,-112.5"/>
<text text-anchor="middle" x="228" y="-119.5" font-family="FreeSans" font-size="10.00">enums.hpp</text>
</a>
</g>
</g>
<!-- Node1&#45;&gt;Node10 -->
<g id="edge10" class="edge"><title>Node1&#45;&gt;Node10</title>
<path fill="none" stroke="midnightblue" d="M164.211,-168.324C175.776,-160.107 193.375,-147.602 207.161,-137.807"/>
<polygon fill="midnightblue" stroke="midnightblue" points="209.443,-140.479 215.567,-131.834 205.388,-134.773 209.443,-140.479"/>
</g>
<!-- Node3 -->
<g id="node3" class="node"><title>Node3</title>
<polygon fill="none" stroke="#bfbfbf" points="132,-56.5 132,-75.5 172,-75.5 172,-56.5 132,-56.5"/>
<text text-anchor="middle" x="152" y="-63.5" font-family="FreeSans" font-size="10.00">regex</text>
</g>
<!-- Node2&#45;&gt;Node3 -->
<g id="edge2" class="edge"><title>Node2&#45;&gt;Node3</title>
<path fill="none" stroke="midnightblue" d="M152,-112.083C152,-105.006 152,-94.8611 152,-85.9865"/>
<polygon fill="midnightblue" stroke="midnightblue" points="155.5,-85.751 152,-75.7511 148.5,-85.7511 155.5,-85.751"/>
</g>
<!-- Node2&#45;&gt;Node4 -->
<g id="edge3" class="edge"><title>Node2&#45;&gt;Node4</title>
<path fill="none" stroke="midnightblue" d="M141.235,-112.324C131.234,-104.263 116.113,-92.0765 104.07,-82.3695"/>
<polygon fill="midnightblue" stroke="midnightblue" points="105.943,-79.3841 95.9606,-75.8339 101.55,-84.8343 105.943,-79.3841"/>
</g>
<!-- Node8 -->
<g id="node8" class="node"><title>Node8</title>
<polygon fill="none" stroke="#bfbfbf" points="190,-56.5 190,-75.5 246,-75.5 246,-56.5 190,-56.5"/>
<text text-anchor="middle" x="218" y="-63.5" font-family="FreeSans" font-size="10.00">algorithm</text>
</g>
<!-- Node2&#45;&gt;Node8 -->
<g id="edge7" class="edge"><title>Node2&#45;&gt;Node8</title>
<path fill="none" stroke="midnightblue" d="M162.604,-112.324C172.456,-104.263 187.351,-92.0765 199.215,-82.3695"/>
<polygon fill="midnightblue" stroke="midnightblue" points="201.68,-84.8752 207.203,-75.8339 197.247,-79.4575 201.68,-84.8752"/>
</g>
<!-- Node9 -->
<g id="node9" class="node"><title>Node9</title>
<polygon fill="none" stroke="#bfbfbf" points="264.5,-56.5 264.5,-75.5 325.5,-75.5 325.5,-56.5 264.5,-56.5"/>
<text text-anchor="middle" x="295" y="-63.5" font-family="FreeSans" font-size="10.00">type_traits</text>
</g>
<!-- Node2&#45;&gt;Node9 -->
<g id="edge8" class="edge"><title>Node2&#45;&gt;Node9</title>
<path fill="none" stroke="midnightblue" d="M174.659,-112.444C198.402,-103.478 235.909,-89.314 262.738,-79.1827"/>
<polygon fill="midnightblue" stroke="midnightblue" points="264.329,-82.3235 272.447,-75.5164 261.856,-75.7749 264.329,-82.3235"/>
</g>
<!-- Node5 -->
<g id="node5" class="node"><title>Node5</title>
<polygon fill="none" stroke="#bfbfbf" points="0,-0.5 0,-19.5 40,-19.5 40,-0.5 0,-0.5"/>
<text text-anchor="middle" x="20" y="-7.5" font-family="FreeSans" font-size="10.00">string</text>
</g>
<!-- Node4&#45;&gt;Node5 -->
<g id="edge4" class="edge"><title>Node4&#45;&gt;Node5</title>
<path fill="none" stroke="midnightblue" d="M74.5566,-56.324C64.8538,-48.2631 50.1847,-36.0765 38.5003,-26.3695"/>
<polygon fill="midnightblue" stroke="midnightblue" points="40.5619,-23.532 30.6334,-19.8339 36.0887,-28.9163 40.5619,-23.532"/>
</g>
<!-- Node6 -->
<g id="node6" class="node"><title>Node6</title>
<polygon fill="none" stroke="#bfbfbf" points="58.5,-0.5 58.5,-19.5 111.5,-19.5 111.5,-0.5 58.5,-0.5"/>
<text text-anchor="middle" x="85" y="-7.5" font-family="FreeSans" font-size="10.00">iostream</text>
</g>
<!-- Node4&#45;&gt;Node6 -->
<g id="edge5" class="edge"><title>Node4&#45;&gt;Node6</title>
<path fill="none" stroke="midnightblue" d="M85,-56.083C85,-49.0059 85,-38.8611 85,-29.9865"/>
<polygon fill="midnightblue" stroke="midnightblue" points="88.5001,-29.751 85,-19.7511 81.5001,-29.7511 88.5001,-29.751"/>
</g>
<!-- Node7 -->
<g id="node7" class="node"><title>Node7</title>
<polygon fill="none" stroke="#bfbfbf" points="129.5,-0.5 129.5,-19.5 172.5,-19.5 172.5,-0.5 129.5,-0.5"/>
<text text-anchor="middle" x="151" y="-7.5" font-family="FreeSans" font-size="10.00">vector</text>
</g>
<!-- Node4&#45;&gt;Node7 -->
<g id="edge6" class="edge"><title>Node4&#45;&gt;Node7</title>
<path fill="none" stroke="midnightblue" d="M95.604,-56.324C105.456,-48.2631 120.351,-36.0765 132.215,-26.3695"/>
<polygon fill="midnightblue" stroke="midnightblue" points="134.68,-28.8752 140.203,-19.8339 130.247,-23.4575 134.68,-28.8752"/>
</g>
</g>
</svg>
