<?xml version="1.0" encoding="UTF-8" standalone="no"?>
<!DOCTYPE svg PUBLIC "-//W3C//DTD SVG 1.1//EN"
 "http://www.w3.org/Graphics/SVG/1.1/DTD/svg11.dtd">
<!-- Generated by graphviz version 14.1.2 (0)
 -->
<!-- Title: arg_iface.hpp Pages: 1 -->
<svg width="283pt" height="196pt"
 viewBox="0.00 0.00 283.00 196.00" xmlns="http://www.w3.org/2000/svg" xmlns:xlink="http://www.w3.org/1999/xlink">
<g id="graph0" class="graph" transform="scale(1 1) rotate(0) translate(4 192)">
<title>arg_iface.hpp</title>
<!-- Node1 -->
<g id="Node000001" class="node">
<title>Node1</title>
<g id="a_Node000001"><a xlink:title=" ">
<polygon fill="#999999" stroke="#666666" points="135,-188 60.5,-188 60.5,-168 135,-168 135,-188"/>
<text xml:space="preserve" text-anchor="middle" x="97.75" y="-174.5" font-family="Helvetica,sans-Serif" font-size="10.00">arg_iface.hpp</text>
</a>
</g>
</g>
<!-- Node2 -->
<g id="Node000002" class="node">
<title>Node2</title>
<g id="a_Node000002"><a xlink:href="enums_8hpp.html" target="_top" xlink:title=" ">
<polygon fill="white" stroke="#666666" points="69.75,-132 5.75,-132 5.75,-112 69.75,-112 69.75,-132"/>
<text xml:space="preserve" text-anchor="middle" x="37.75" y="-118.5" font-family="Helvetica,sans-Serif" font-size="10.00">enums.hpp</text>
</a>
</g>
</g>
<!-- Node1&#45;&gt;Node2 -->
<g id="edge1_Node000001_Node000002" class="edge">
<title>Node1&#45;&gt;Node2</title>
<g id="a_edge1_Node000001_Node000002"><a xlink:title=" ">
<path fill="none" stroke="#63b8ff" d="M87.3,-167.59C78.78,-159.93 66.54,-148.91 56.36,-139.75"/>
<polygon fill="#63b8ff" stroke="#63b8ff" points="58.98,-137.4 49.21,-133.31 54.3,-142.6 58.98,-137.4"/>
</a>
</g>
</g>
<!-- Node3 -->
<g id="Node000003" class="node">
<title>Node3</title>
<g id="a_Node000003"><a xlink:href="types_8hpp.html" target="_top" xlink:title=" ">
<polygon fill="white" stroke="#666666" points="121.12,-76 62.38,-76 62.38,-56 121.12,-56 121.12,-76"/>
<text xml:space="preserve" text-anchor="middle" x="91.75" y="-62.5" font-family="Helvetica,sans-Serif" font-size="10.00">types.hpp</text>
</a>
</g>
</g>
<!-- Node1&#45;&gt;Node3 -->
<g id="edge2_Node000001_Node000003" class="edge">
<title>Node1&#45;&gt;Node3</title>
<g id="a_edge2_Node000001_Node000003"><a xlink:title=" ">
<path fill="none" stroke="#63b8ff" d="M97.24,-167.62C96.28,-150.01 94.18,-111.59 92.88,-87.65"/>
<polygon fill="#63b8ff" stroke="#63b8ff" points="96.38,-87.66 92.34,-77.87 89.39,-88.04 96.38,-87.66"/>
</a>
</g>
</g>
<!-- Node7 -->
<g id="Node000007" class="node">
<title>Node7</title>
<g id="a_Node000007"><a xlink:href="utils_8hpp.html" target="_top" xlink:title=" ">
<polygon fill="white" stroke="#666666" points="188.12,-132 135.38,-132 135.38,-112 188.12,-112 188.12,-132"/>
<text xml:space="preserve" text-anchor="middle" x="161.75" y="-118.5" font-family="Helvetica,sans-Serif" font-size="10.00">utils.hpp</text>
</a>
</g>
</g>
<!-- Node1&#45;&gt;Node7 -->
<g id="edge6_Node000001_Node000007" class="edge">
<title>Node1&#45;&gt;Node7</title>
<g id="a_edge6_Node000001_Node000007"><a xlink:title=" ">
<path fill="none" stroke="#63b8ff" d="M108.9,-167.59C118.08,-159.85 131.3,-148.69 142.23,-139.47"/>
<polygon fill="#63b8ff" stroke="#63b8ff" points="144.19,-142.4 149.57,-133.27 139.67,-137.05 144.19,-142.4"/>
</a>
</g>
</g>
<!-- Node4 -->
<g id="Node000004" class="node">
<title>Node4</title>
<g id="a_Node000004"><a xlink:title=" ">
<polygon fill="#e0e0e0" stroke="#999999" points="53.5,-20 0,-20 0,0 53.5,0 53.5,-20"/>
<text xml:space="preserve" text-anchor="middle" x="26.75" y="-6.5" font-family="Helvetica,sans-Serif" font-size="10.00">iostream</text>
</a>
</g>
</g>
<!-- Node3&#45;&gt;Node4 -->
<g id="edge3_Node000003_Node000004" class="edge">
<title>Node3&#45;&gt;Node4</title>
<g id="a_edge3_Node000003_Node000004"><a xlink:title=" ">
<path fill="none" stroke="#63b8ff" d="M80.43,-55.59C71.11,-47.85 57.67,-36.69 46.57,-27.47"/>
<polygon fill="#63b8ff" stroke="#63b8ff" points="49.04,-24.96 39.11,-21.27 44.56,-30.35 49.04,-24.96"/>
</a>
</g>
</g>
<!-- Node5 -->
<g id="Node000005" class="node">
<title>Node5</title>
<g id="a_Node000005"><a xlink:title=" ">
<polygon fill="#e0e0e0" stroke="#999999" points="111.75,-20 71.75,-20 71.75,0 111.75,0 111.75,-20"/>
<text xml:space="preserve" text-anchor="middle" x="91.75" y="-6.5" font-family="Helvetica,sans-Serif" font-size="10.00">string</text>
</a>
</g>
</g>
<!-- Node3&#45;&gt;Node5 -->
<g id="edge4_Node000003_Node000005" class="edge">
<title>Node3&#45;&gt;Node5</title>
<g id="a_edge4_Node000003_Node000005"><a xlink:title=" ">
<path fill="none" stroke="#63b8ff" d="M91.75,-55.59C91.75,-49.01 91.75,-39.96 91.75,-31.73"/>
<polygon fill="#63b8ff" stroke="#63b8ff" points="95.25,-31.81 91.75,-21.81 88.25,-31.81 95.25,-31.81"/>
</a>
</g>
</g>
<!-- Node6 -->
<g id="Node000006" class="node">
<title>Node6</title>
<g id="a_Node000006"><a xlink:title=" ">
<polygon fill="#e0e0e0" stroke="#999999" points="173.25,-20 130.25,-20 130.25,0 173.25,0 173.25,-20"/>
<text xml:space="preserve" text-anchor="middle" x="151.75" y="-6.5" font-family="Helvetica,sans-Serif" font-size="10.00">vector</text>
</a>
</g>
</g>
<!-- Node3&#45;&gt;Node6 -->
<g id="edge5_Node000003_Node000006" class="edge">
<title>Node3&#45;&gt;Node6</title>
<g id="a_edge5_Node000003_Node000006"><a xlink:title=" ">
<path fill="none" stroke="#63b8ff" d="M102.2,-55.59C110.72,-47.93 122.96,-36.91 133.14,-27.75"/>
<polygon fill="#63b8ff" stroke="#63b8ff" points="135.2,-30.6 140.29,-21.31 130.52,-25.4 135.2,-30.6"/>
</a>
</g>
</g>
<!-- Node7&#45;&gt;Node3 -->
<g id="edge7_Node000007_Node000003" class="edge">
<title>Node7&#45;&gt;Node3</title>
<g id="a_edge7_Node000007_Node000003"><a xlink:title=" ">
<path fill="none" stroke="#63b8ff" d="M149.56,-111.59C139.42,-103.77 124.76,-92.46 112.74,-83.19"/>
<polygon fill="#63b8ff" stroke="#63b8ff" points="115.06,-80.56 105,-77.22 110.78,-86.1 115.06,-80.56"/>
</a>
</g>
</g>
<!-- Node8 -->
<g id="Node000008" class="node">
<title>Node8</title>
<g id="a_Node000008"><a xlink:title=" ">
<polygon fill="#e0e0e0" stroke="#999999" points="194.62,-76 138.88,-76 138.88,-56 194.62,-56 194.62,-76"/>
<text xml:space="preserve" text-anchor="middle" x="166.75" y="-62.5" font-family="Helvetica,sans-Serif" font-size="10.00">algorithm</text>
</a>
</g>
</g>
<!-- Node7&#45;&gt;Node8 -->
<g id="edge8_Node000007_Node000008" class="edge">
<title>Node7&#45;&gt;Node8</title>
<g id="a_edge8_Node000007_Node000008"><a xlink:title=" ">
<path fill="none" stroke="#63b8ff" d="M162.62,-111.59C163.23,-105.01 164.07,-95.96 164.83,-87.73"/>
<polygon fill="#63b8ff" stroke="#63b8ff" points="168.31,-88.09 165.75,-77.81 161.34,-87.44 168.31,-88.09"/>
</a>
</g>
</g>
<!-- Node9 -->
<g id="Node000009" class="node">
<title>Node9</title>
<g id="a_Node000009"><a xlink:title=" ">
<polygon fill="#e0e0e0" stroke="#999999" points="274.62,-76 212.88,-76 212.88,-56 274.62,-56 274.62,-76"/>
<text xml:space="preserve" text-anchor="middle" x="243.75" y="-62.5" font-family="Helvetica,sans-Serif" font-size="10.00">type_traits</text>
</a>
</g>
</g>
<!-- Node7&#45;&gt;Node9 -->
<g id="edge9_Node000007_Node000009" class="edge">
<title>Node7&#45;&gt;Node9</title>
<g id="a_edge9_Node000007_Node000009"><a xlink:title=" ">
<path fill="none" stroke="#63b8ff" d="M176.03,-111.59C188.19,-103.59 205.89,-91.93 220.15,-82.54"/>
<polygon fill="#63b8ff" stroke="#63b8ff" points="221.66,-85.73 228.09,-77.31 217.81,-79.89 221.66,-85.73"/>
</a>
</g>
</g>
</g>
</svg>
