<?xml version="1.0" encoding="UTF-8" standalone="no"?>
<!DOCTYPE svg PUBLIC "-//W3C//DTD SVG 1.1//EN"
 "http://www.w3.org/Graphics/SVG/1.1/DTD/svg11.dtd">
<!-- Generated by graphviz version 14.1.2 (0)
 -->
<!-- Title: arg.hpp Pages: 1 -->
<svg width="190pt" height="364pt"
 viewBox="0.00 0.00 190.00 364.00" xmlns="http://www.w3.org/2000/svg" xmlns:xlink="http://www.w3.org/1999/xlink">
<g id="graph0" class="graph" transform="scale(1 1) rotate(0) translate(4 360)">
<title>arg.hpp</title>
<!-- Node1 -->
<g id="Node000001" class="node">
<title>Node1</title>
<g id="a_Node000001"><a xlink:title=" ">
<polygon fill="#999999" stroke="#666666" points="126.38,-356 78.12,-356 78.12,-336 126.38,-336 126.38,-356"/>
<text xml:space="preserve" text-anchor="middle" x="102.25" y="-342.5" font-family="Helvetica,sans-Serif" font-size="10.00">arg.hpp</text>
</a>
</g>
</g>
<!-- Node2 -->
<g id="Node000002" class="node">
<title>Node2</title>
<g id="a_Node000002"><a xlink:href="api_8hpp.html" target="_top" xlink:title=" ">
<polygon fill="white" stroke="#666666" points="97,-244 49.5,-244 49.5,-224 97,-224 97,-244"/>
<text xml:space="preserve" text-anchor="middle" x="73.25" y="-230.5" font-family="Helvetica,sans-Serif" font-size="10.00">api.hpp</text>
</a>
</g>
</g>
<!-- Node1&#45;&gt;Node2 -->
<g id="edge1_Node000001_Node000002" class="edge">
<title>Node1&#45;&gt;Node2</title>
<g id="a_edge1_Node000001_Node000002"><a xlink:title=" ">
<path fill="none" stroke="#63b8ff" d="M96.88,-324.64C90.58,-300.72 80.38,-262.03 75.72,-244.35"/>
<polygon fill="#63b8ff" stroke="#63b8ff" points="93.46,-325.38 99.39,-334.16 100.23,-323.6 93.46,-325.38"/>
</a>
</g>
</g>
<!-- Node7 -->
<g id="Node000007" class="node">
<title>Node7</title>
<g id="a_Node000007"><a xlink:href="help_8hpp.html" target="_top" xlink:title=" ">
<polygon fill="white" stroke="#666666" points="162.62,-132 109.88,-132 109.88,-112 162.62,-112 162.62,-132"/>
<text xml:space="preserve" text-anchor="middle" x="136.25" y="-118.5" font-family="Helvetica,sans-Serif" font-size="10.00">help.hpp</text>
</a>
</g>
</g>
<!-- Node1&#45;&gt;Node7 -->
<g id="edge12_Node000001_Node000007" class="edge">
<title>Node1&#45;&gt;Node7</title>
<g id="a_edge12_Node000001_Node000007"><a xlink:title=" ">
<path fill="none" stroke="#63b8ff" d="M105.4,-324.45C112.54,-277.79 129.76,-165.36 134.83,-132.3"/>
<polygon fill="#63b8ff" stroke="#63b8ff" points="101.95,-323.83 103.9,-334.25 108.87,-324.89 101.95,-323.83"/>
</a>
</g>
</g>
<!-- Node8 -->
<g id="Node000008" class="node">
<title>Node8</title>
<g id="a_Node000008"><a xlink:href="multi__arg_8hpp.html" target="_top" xlink:title=" ">
<polygon fill="white" stroke="#666666" points="74.5,-300 0,-300 0,-280 74.5,-280 74.5,-300"/>
<text xml:space="preserve" text-anchor="middle" x="37.25" y="-286.5" font-family="Helvetica,sans-Serif" font-size="10.00">multi_arg.hpp</text>
</a>
</g>
</g>
<!-- Node1&#45;&gt;Node8 -->
<g id="edge13_Node000001_Node000008" class="edge">
<title>Node1&#45;&gt;Node8</title>
<g id="a_edge13_Node000001_Node000008"><a xlink:title=" ">
<path fill="none" stroke="#63b8ff" d="M82.27,-328.4C71.15,-319.17 57.72,-308.01 48.44,-300.3"/>
<polygon fill="#63b8ff" stroke="#63b8ff" points="79.84,-330.93 89.76,-334.63 84.31,-325.54 79.84,-330.93"/>
</a>
</g>
</g>
<!-- Node3 -->
<g id="Node000003" class="node">
<title>Node3</title>
<g id="a_Node000003"><a xlink:href="cmd__line_8hpp.html" target="_top" xlink:title=" ">
<polygon fill="white" stroke="#666666" points="146.12,-76 72.38,-76 72.38,-56 146.12,-56 146.12,-76"/>
<text xml:space="preserve" text-anchor="middle" x="109.25" y="-62.5" font-family="Helvetica,sans-Serif" font-size="10.00">cmd_line.hpp</text>
</a>
</g>
</g>
<!-- Node2&#45;&gt;Node3 -->
<g id="edge2_Node000002_Node000003" class="edge">
<title>Node2&#45;&gt;Node3</title>
<g id="a_edge2_Node000002_Node000003"><a xlink:title=" ">
<path fill="none" stroke="#63b8ff" d="M48.97,-216.93C39.72,-209.37 30.22,-199.48 25.25,-188 21.72,-179.84 22.23,-176.36 25.25,-168 39.75,-127.89 77.89,-92.49 97.39,-76.32"/>
<polygon fill="#63b8ff" stroke="#63b8ff" points="46.65,-219.57 56.74,-222.78 50.86,-213.97 46.65,-219.57"/>
</a>
</g>
</g>
<!-- Node6 -->
<g id="Node000006" class="node">
<title>Node6</title>
<g id="a_Node000006"><a xlink:href="command_8hpp.html" target="_top" xlink:title=" ">
<polygon fill="white" stroke="#666666" points="112,-188 34.5,-188 34.5,-168 112,-168 112,-188"/>
<text xml:space="preserve" text-anchor="middle" x="73.25" y="-174.5" font-family="Helvetica,sans-Serif" font-size="10.00">command.hpp</text>
</a>
</g>
</g>
<!-- Node2&#45;&gt;Node6 -->
<g id="edge6_Node000002_Node000006" class="edge">
<title>Node2&#45;&gt;Node6</title>
<g id="a_edge6_Node000002_Node000006"><a xlink:title=" ">
<path fill="none" stroke="#63b8ff" d="M66.67,-212.43C66.22,-204.11 66.66,-194.93 68,-188.3"/>
<polygon fill="#63b8ff" stroke="#63b8ff" points="63.17,-212.57 67.81,-222.09 70.12,-211.75 63.17,-212.57"/>
</a>
</g>
</g>
<!-- Node4 -->
<g id="Node000004" class="node">
<title>Node4</title>
<g id="a_Node000004"><a xlink:href="all_8hpp.html" target="_top" xlink:title=" ">
<polygon fill="white" stroke="#666666" points="181.5,-20 137,-20 137,0 181.5,0 181.5,-20"/>
<text xml:space="preserve" text-anchor="middle" x="159.25" y="-6.5" font-family="Helvetica,sans-Serif" font-size="10.00">all.hpp</text>
</a>
</g>
</g>
<!-- Node3&#45;&gt;Node4 -->
<g id="edge3_Node000003_Node000004" class="edge">
<title>Node3&#45;&gt;Node4</title>
<g id="a_edge3_Node000003_Node000004"><a xlink:title=" ">
<path fill="none" stroke="#63b8ff" d="M125.65,-47.29C133.99,-38.28 143.79,-27.7 150.64,-20.3"/>
<polygon fill="#63b8ff" stroke="#63b8ff" points="123.21,-44.77 118.99,-54.48 128.35,-49.52 123.21,-44.77"/>
</a>
</g>
</g>
<!-- Node5 -->
<g id="Node000005" class="node">
<title>Node5</title>
<g id="a_Node000005"><a xlink:href="help__printer_8hpp.html" target="_top" xlink:title=" ">
<polygon fill="white" stroke="#666666" points="118.75,-20 33.75,-20 33.75,0 118.75,0 118.75,-20"/>
<text xml:space="preserve" text-anchor="middle" x="76.25" y="-6.5" font-family="Helvetica,sans-Serif" font-size="10.00">help_printer.hpp</text>
</a>
</g>
</g>
<!-- Node3&#45;&gt;Node5 -->
<g id="edge4_Node000003_Node000005" class="edge">
<title>Node3&#45;&gt;Node5</title>
<g id="a_edge4_Node000003_Node000005"><a xlink:title=" ">
<path fill="none" stroke="#63b8ff" d="M91.46,-46.44C85.42,-37.62 79.62,-27.47 76.69,-20.3"/>
<polygon fill="#63b8ff" stroke="#63b8ff" points="88.57,-48.42 97.33,-54.38 94.2,-44.26 88.57,-48.42"/>
</a>
</g>
</g>
<!-- Node5&#45;&gt;Node3 -->
<g id="edge5_Node000005_Node000003" class="edge">
<title>Node5&#45;&gt;Node3</title>
<g id="a_edge5_Node000005_Node000003"><a xlink:title=" ">
<path fill="none" stroke="#63b8ff" d="M93.95,-29.43C99.99,-38.23 105.81,-48.39 108.77,-55.59"/>
<polygon fill="#63b8ff" stroke="#63b8ff" points="96.85,-27.46 88.08,-21.51 91.23,-31.63 96.85,-27.46"/>
</a>
</g>
</g>
<!-- Node6&#45;&gt;Node2 -->
<g id="edge7_Node000006_Node000002" class="edge">
<title>Node6&#45;&gt;Node2</title>
<g id="a_edge7_Node000006_Node000002"><a xlink:title=" ">
<path fill="none" stroke="#63b8ff" d="M79.84,-199.73C80.27,-207.96 79.83,-217.01 78.52,-223.59"/>
<polygon fill="#63b8ff" stroke="#63b8ff" points="83.31,-199.33 78.67,-189.8 76.36,-200.14 83.31,-199.33"/>
</a>
</g>
</g>
<!-- Node6&#45;&gt;Node3 -->
<g id="edge8_Node000006_Node000003" class="edge">
<title>Node6&#45;&gt;Node3</title>
<g id="a_edge8_Node000006_Node000003"><a xlink:title=" ">
<path fill="none" stroke="#63b8ff" d="M79.8,-156.97C87.63,-133.07 100.38,-94.11 106.19,-76.35"/>
<polygon fill="#63b8ff" stroke="#63b8ff" points="76.57,-155.59 76.79,-166.18 83.23,-157.77 76.57,-155.59"/>
</a>
</g>
</g>
<!-- Node6&#45;&gt;Node5 -->
<g id="edge11_Node000006_Node000005" class="edge">
<title>Node6&#45;&gt;Node5</title>
<g id="a_edge11_Node000006_Node000005"><a xlink:title=" ">
<path fill="none" stroke="#63b8ff" d="M68.74,-156.29C64.13,-132.14 58.29,-91.03 63.25,-56 65.03,-43.44 69.47,-29.48 72.66,-20.49"/>
<polygon fill="#63b8ff" stroke="#63b8ff" points="65.31,-156.96 70.74,-166.06 72.17,-155.56 65.31,-156.96"/>
</a>
</g>
</g>
<!-- Node6&#45;&gt;Node7 -->
<g id="edge9_Node000006_Node000007" class="edge">
<title>Node6&#45;&gt;Node7</title>
<g id="a_edge9_Node000006_Node000007"><a xlink:title=" ">
<path fill="none" stroke="#63b8ff" d="M92.94,-160.13C103.65,-150.94 116.5,-139.93 125.4,-132.3"/>
<polygon fill="#63b8ff" stroke="#63b8ff" points="90.69,-157.44 85.37,-166.61 95.24,-162.76 90.69,-157.44"/>
</a>
</g>
</g>
<!-- Node7&#45;&gt;Node3 -->
<g id="edge10_Node000007_Node000003" class="edge">
<title>Node7&#45;&gt;Node3</title>
<g id="a_edge10_Node000007_Node000003"><a xlink:title=" ">
<path fill="none" stroke="#63b8ff" d="M126.54,-101.58C122.23,-92.97 117.37,-83.24 113.9,-76.3"/>
<polygon fill="#63b8ff" stroke="#63b8ff" points="123.27,-102.86 130.87,-110.24 129.53,-99.73 123.27,-102.86"/>
</a>
</g>
</g>
<!-- Node8&#45;&gt;Node2 -->
<g id="edge14_Node000008_Node000002" class="edge">
<title>Node8&#45;&gt;Node2</title>
<g id="a_edge14_Node000008_Node000002"><a xlink:title=" ">
<path fill="none" stroke="#63b8ff" d="M49.82,-270.15C55.65,-261.4 62.32,-251.39 67.05,-244.3"/>
<polygon fill="#63b8ff" stroke="#63b8ff" points="47,-268.07 44.36,-278.33 52.82,-271.96 47,-268.07"/>
</a>
</g>
</g>
</g>
</svg>
