<?xml version="1.0" encoding="UTF-8" standalone="no"?>
<!DOCTYPE svg PUBLIC "-//W3C//DTD SVG 1.1//EN"
 "http://www.w3.org/Graphics/SVG/1.1/DTD/svg11.dtd">
<!-- Generated by graphviz version 2.38.0 (20140413.2041)
 -->
<!-- Title: arg.hpp Pages: 1 -->
<!--zoomable 252 -->
<svg id="main" version="1.1" xmlns="http://www.w3.org/2000/svg" xmlns:xlink="http://www.w3.org/1999/xlink" xml:space="preserve" onload="init(evt)">
<style type="text/css"><![CDATA[
.edge:hover path { stroke: red; }
.edge:hover polygon { stroke: red; fill: red; }
]]></style>
<script type="text/javascript"><![CDATA[
var edges = document.getElementsByTagName('g');
if (edges && edges.length) {
  for (var i=0;i<edges.length;i++) {
    if (edges[i].id.substr(0,4)=='edge') {
      edges[i].setAttribute('class','edge');
    }
  }
}
]]></script>
        <defs>
                <circle id="rim" cx="0" cy="0" r="7"/>
                <circle id="rim2" cx="0" cy="0" r="3.5"/>
                <g id="zoomPlus">
                        <use xlink:href="#rim" fill="#404040">
                                <set attributeName="fill" to="#808080" begin="zoomplus.mouseover" end="zoomplus.mouseout"/>
                        </use>
                        <path d="M-4,0h8M0,-4v8" fill="none" stroke="white" stroke-width="1.5" pointer-events="none"/>
                </g>
                <g id="zoomMin">
                        <use xlink:href="#rim" fill="#404040">
                                <set attributeName="fill" to="#808080" begin="zoomminus.mouseover" end="zoomminus.mouseout"/>
                        </use>
                        <path d="M-4,0h8" fill="none" stroke="white" stroke-width="1.5" pointer-events="none"/>
                </g>
                <g id="dirArrow">
                        <path fill="none" stroke="white" stroke-width="1.5" d="M0,-3.0v7 M-2.5,-0.5L0,-3.0L2.5,-0.5"/>
                </g>
               <g id="resetDef">
                       <use xlink:href="#rim2" fill="#404040">
                               <set attributeName="fill" to="#808080" begin="reset.mouseover" end="reset.mouseout"/>
                       </use>
               </g>
        </defs>

<script type="text/javascript">
var viewWidth = 508;
var viewHeight = 252;
var sectionId = 'dynsection-0';
</script>
<script xlink:href="svgpan.js"/>
<svg id="graph" class="graph">
<g id="viewport">
<title>arg.hpp</title>
<!-- Node1 -->
<g id="node1" class="node"><title>Node1</title>
<polygon fill="#bfbfbf" stroke="black" points="275,-224.5 275,-243.5 324,-243.5 324,-224.5 275,-224.5"/>
<text text-anchor="middle" x="299.5" y="-231.5" font-family="Helvetica,sans-Serif" font-size="10.00">arg.hpp</text>
</g>
<!-- Node2 -->
<g id="node2" class="node"><title>Node2</title>
<g id="a_node2"><a xlink:href="arg__iface_8hpp.html" target="_top" xlink:title="arg_iface.hpp">
<polygon fill="none" stroke="black" points="58,-168.5 58,-187.5 133,-187.5 133,-168.5 58,-168.5"/>
<text text-anchor="middle" x="95.5" y="-175.5" font-family="Helvetica,sans-Serif" font-size="10.00">arg_iface.hpp</text>
</a>
</g>
</g>
<!-- Node1&#45;&gt;Node2 -->
<g id="edge1" class="edge"><title>Node1&#45;&gt;Node2</title>
<path fill="none" stroke="midnightblue" d="M274.893,-226.486C240.921,-217.494 179.165,-201.147 137.734,-190.18"/>
<polygon fill="midnightblue" stroke="midnightblue" points="138.49,-186.759 127.927,-187.584 136.699,-193.526 138.49,-186.759"/>
</g>
<!-- Node3 -->
<g id="node3" class="node"><title>Node3</title>
<g id="a_node3"><a xlink:href="utils_8hpp.html" target="_top" xlink:title="utils.hpp">
<polygon fill="none" stroke="black" points="122,-112.5 122,-131.5 175,-131.5 175,-112.5 122,-112.5"/>
<text text-anchor="middle" x="148.5" y="-119.5" font-family="Helvetica,sans-Serif" font-size="10.00">utils.hpp</text>
</a>
</g>
</g>
<!-- Node1&#45;&gt;Node3 -->
<g id="edge12" class="edge"><title>Node1&#45;&gt;Node3</title>
<path fill="none" stroke="midnightblue" d="M274.738,-227.365C251.052,-220.988 215.358,-208.698 190.5,-188 175.213,-175.271 163.559,-155.523 156.45,-141.133"/>
<polygon fill="midnightblue" stroke="midnightblue" points="159.487,-139.364 152.09,-131.779 153.142,-142.321 159.487,-139.364"/>
</g>
<!-- Node5 -->
<g id="node5" class="node"><title>Node5</title>
<g id="a_node5"><a xlink:href="types_8hpp.html" target="_top" xlink:title="types.hpp">
<polygon fill="none" stroke="black" points="247,-56.5 247,-75.5 306,-75.5 306,-56.5 247,-56.5"/>
<text text-anchor="middle" x="276.5" y="-63.5" font-family="Helvetica,sans-Serif" font-size="10.00">types.hpp</text>
</a>
</g>
</g>
<!-- Node1&#45;&gt;Node5 -->
<g id="edge25" class="edge"><title>Node1&#45;&gt;Node5</title>
<path fill="none" stroke="midnightblue" d="M298.263,-224.075C294.643,-197.945 284.011,-121.211 279.074,-85.577"/>
<polygon fill="midnightblue" stroke="midnightblue" points="282.527,-84.9931 277.687,-75.5681 275.593,-85.9539 282.527,-84.9931"/>
</g>
<!-- Node9 -->
<g id="node9" class="node"><title>Node9</title>
<polygon fill="none" stroke="#bfbfbf" points="344.5,-56.5 344.5,-75.5 400.5,-75.5 400.5,-56.5 344.5,-56.5"/>
<text text-anchor="middle" x="372.5" y="-63.5" font-family="Helvetica,sans-Serif" font-size="10.00">algorithm</text>
</g>
<!-- Node1&#45;&gt;Node9 -->
<g id="edge26" class="edge"><title>Node1&#45;&gt;Node9</title>
<path fill="none" stroke="midnightblue" d="M324.208,-230.089C370.409,-223.074 467.81,-200.406 496.5,-132 499.938,-123.803 501.602,-119.279 496.5,-112 491.296,-104.575 445.077,-89.1154 410.579,-78.4034"/>
<polygon fill="midnightblue" stroke="midnightblue" points="411.344,-74.9768 400.757,-75.3823 409.286,-81.6675 411.344,-74.9768"/>
</g>
<!-- Node12 -->
<g id="node12" class="node"><title>Node12</title>
<g id="a_node12"><a xlink:href="context_8hpp.html" target="_top" xlink:title="context.hpp">
<polygon fill="none" stroke="black" points="199.5,-168.5 199.5,-187.5 267.5,-187.5 267.5,-168.5 199.5,-168.5"/>
<text text-anchor="middle" x="233.5" y="-175.5" font-family="Helvetica,sans-Serif" font-size="10.00">context.hpp</text>
</a>
</g>
</g>
<!-- Node1&#45;&gt;Node12 -->
<g id="edge13" class="edge"><title>Node1&#45;&gt;Node12</title>
<path fill="none" stroke="midnightblue" d="M288.896,-224.324C279.044,-216.263 264.149,-204.077 252.285,-194.369"/>
<polygon fill="midnightblue" stroke="midnightblue" points="254.253,-191.457 244.297,-187.834 249.82,-196.875 254.253,-191.457"/>
</g>
<!-- Node14 -->
<g id="node14" class="node"><title>Node14</title>
<g id="a_node14"><a xlink:href="exceptions_8hpp.html" target="_top" xlink:title="exceptions.hpp">
<polygon fill="none" stroke="black" points="404,-112.5 404,-131.5 487,-131.5 487,-112.5 404,-112.5"/>
<text text-anchor="middle" x="445.5" y="-119.5" font-family="Helvetica,sans-Serif" font-size="10.00">exceptions.hpp</text>
</a>
</g>
</g>
<!-- Node1&#45;&gt;Node14 -->
<g id="edge17" class="edge"><title>Node1&#45;&gt;Node14</title>
<path fill="none" stroke="midnightblue" d="M324.478,-229.505C350.959,-224.58 392.477,-213.199 418.5,-188 431.371,-175.536 438.356,-156.027 441.974,-141.631"/>
<polygon fill="midnightblue" stroke="midnightblue" points="445.402,-142.339 444.127,-131.821 438.565,-140.838 445.402,-142.339"/>
</g>
<!-- Node16 -->
<g id="node16" class="node"><title>Node16</title>
<g id="a_node16"><a xlink:href="value__utils_8hpp.html" target="_top" xlink:title="value_utils.hpp">
<polygon fill="none" stroke="black" points="327.5,-168.5 327.5,-187.5 409.5,-187.5 409.5,-168.5 327.5,-168.5"/>
<text text-anchor="middle" x="368.5" y="-175.5" font-family="Helvetica,sans-Serif" font-size="10.00">value_utils.hpp</text>
</a>
</g>
</g>
<!-- Node1&#45;&gt;Node16 -->
<g id="edge20" class="edge"><title>Node1&#45;&gt;Node16</title>
<path fill="none" stroke="midnightblue" d="M310.586,-224.324C320.986,-216.185 336.761,-203.839 349.222,-194.087"/>
<polygon fill="midnightblue" stroke="midnightblue" points="351.494,-196.753 357.212,-187.834 347.18,-191.241 351.494,-196.753"/>
</g>
<!-- Node2&#45;&gt;Node3 -->
<g id="edge2" class="edge"><title>Node2&#45;&gt;Node3</title>
<path fill="none" stroke="midnightblue" d="M104.252,-168.083C111.97,-160.22 123.405,-148.569 132.717,-139.081"/>
<polygon fill="midnightblue" stroke="midnightblue" points="135.404,-141.34 139.911,-131.751 130.408,-136.436 135.404,-141.34"/>
</g>
<!-- Node2&#45;&gt;Node5 -->
<g id="edge10" class="edge"><title>Node2&#45;&gt;Node5</title>
<path fill="none" stroke="midnightblue" d="M95.1981,-168.09C95.2325,-154.167 97.4151,-127.267 112.5,-112 129.754,-94.5381 193.79,-80.7744 236.552,-73.2722"/>
<polygon fill="midnightblue" stroke="midnightblue" points="237.39,-76.6799 246.658,-71.5457 236.211,-69.7799 237.39,-76.6799"/>
</g>
<!-- Node11 -->
<g id="node11" class="node"><title>Node11</title>
<g id="a_node11"><a xlink:href="enums_8hpp.html" target="_top" xlink:title="enums.hpp">
<polygon fill="none" stroke="black" points="0,-112.5 0,-131.5 65,-131.5 65,-112.5 0,-112.5"/>
<text text-anchor="middle" x="32.5" y="-119.5" font-family="Helvetica,sans-Serif" font-size="10.00">enums.hpp</text>
</a>
</g>
</g>
<!-- Node2&#45;&gt;Node11 -->
<g id="edge11" class="edge"><title>Node2&#45;&gt;Node11</title>
<path fill="none" stroke="midnightblue" d="M85.378,-168.324C75.9736,-160.263 61.7559,-148.077 50.431,-138.369"/>
<polygon fill="midnightblue" stroke="midnightblue" points="52.6766,-135.684 42.8062,-131.834 48.121,-140.999 52.6766,-135.684"/>
</g>
<!-- Node4 -->
<g id="node4" class="node"><title>Node4</title>
<polygon fill="none" stroke="#bfbfbf" points="148,-56.5 148,-75.5 189,-75.5 189,-56.5 148,-56.5"/>
<text text-anchor="middle" x="168.5" y="-63.5" font-family="Helvetica,sans-Serif" font-size="10.00">regex</text>
</g>
<!-- Node3&#45;&gt;Node4 -->
<g id="edge3" class="edge"><title>Node3&#45;&gt;Node4</title>
<path fill="none" stroke="midnightblue" d="M151.803,-112.083C154.482,-104.849 158.349,-94.4087 161.686,-85.3968"/>
<polygon fill="midnightblue" stroke="midnightblue" points="165.068,-86.3442 165.259,-75.7511 158.504,-83.9129 165.068,-86.3442"/>
</g>
<!-- Node3&#45;&gt;Node5 -->
<g id="edge4" class="edge"><title>Node3&#45;&gt;Node5</title>
<path fill="none" stroke="midnightblue" d="M168.782,-112.444C189.847,-103.557 223.017,-89.5632 246.986,-79.4514"/>
<polygon fill="midnightblue" stroke="midnightblue" points="248.46,-82.6283 256.313,-75.5164 245.739,-76.1787 248.46,-82.6283"/>
</g>
<!-- Node3&#45;&gt;Node9 -->
<g id="edge8" class="edge"><title>Node3&#45;&gt;Node9</title>
<path fill="none" stroke="midnightblue" d="M175.075,-114.593C214.616,-105.061 289.131,-87.098 334.446,-76.1736"/>
<polygon fill="midnightblue" stroke="midnightblue" points="335.298,-79.5686 344.199,-73.8225 333.658,-72.7636 335.298,-79.5686"/>
</g>
<!-- Node10 -->
<g id="node10" class="node"><title>Node10</title>
<polygon fill="none" stroke="#bfbfbf" points="67.5,-56.5 67.5,-75.5 129.5,-75.5 129.5,-56.5 67.5,-56.5"/>
<text text-anchor="middle" x="98.5" y="-63.5" font-family="Helvetica,sans-Serif" font-size="10.00">type_traits</text>
</g>
<!-- Node3&#45;&gt;Node10 -->
<g id="edge9" class="edge"><title>Node3&#45;&gt;Node10</title>
<path fill="none" stroke="midnightblue" d="M140.244,-112.083C133.035,-104.298 122.39,-92.8015 113.654,-83.3665"/>
<polygon fill="midnightblue" stroke="midnightblue" points="115.965,-80.7108 106.603,-75.7511 110.829,-85.4666 115.965,-80.7108"/>
</g>
<!-- Node6 -->
<g id="node6" class="node"><title>Node6</title>
<polygon fill="none" stroke="#bfbfbf" points="190,-0.5 190,-19.5 231,-19.5 231,-0.5 190,-0.5"/>
<text text-anchor="middle" x="210.5" y="-7.5" font-family="Helvetica,sans-Serif" font-size="10.00">string</text>
</g>
<!-- Node5&#45;&gt;Node6 -->
<g id="edge5" class="edge"><title>Node5&#45;&gt;Node6</title>
<path fill="none" stroke="midnightblue" d="M265.896,-56.324C256.044,-48.2631 241.149,-36.0765 229.285,-26.3695"/>
<polygon fill="midnightblue" stroke="midnightblue" points="231.253,-23.4575 221.297,-19.8339 226.82,-28.8752 231.253,-23.4575"/>
</g>
<!-- Node7 -->
<g id="node7" class="node"><title>Node7</title>
<polygon fill="none" stroke="#bfbfbf" points="249.5,-0.5 249.5,-19.5 303.5,-19.5 303.5,-0.5 249.5,-0.5"/>
<text text-anchor="middle" x="276.5" y="-7.5" font-family="Helvetica,sans-Serif" font-size="10.00">iostream</text>
</g>
<!-- Node5&#45;&gt;Node7 -->
<g id="edge6" class="edge"><title>Node5&#45;&gt;Node7</title>
<path fill="none" stroke="midnightblue" d="M276.5,-56.083C276.5,-49.0059 276.5,-38.8611 276.5,-29.9865"/>
<polygon fill="midnightblue" stroke="midnightblue" points="280,-29.751 276.5,-19.7511 273,-29.7511 280,-29.751"/>
</g>
<!-- Node8 -->
<g id="node8" class="node"><title>Node8</title>
<polygon fill="none" stroke="#bfbfbf" points="321.5,-0.5 321.5,-19.5 365.5,-19.5 365.5,-0.5 321.5,-0.5"/>
<text text-anchor="middle" x="343.5" y="-7.5" font-family="Helvetica,sans-Serif" font-size="10.00">vector</text>
</g>
<!-- Node5&#45;&gt;Node8 -->
<g id="edge7" class="edge"><title>Node5&#45;&gt;Node8</title>
<path fill="none" stroke="midnightblue" d="M287.265,-56.324C297.266,-48.2631 312.387,-36.0765 324.43,-26.3695"/>
<polygon fill="midnightblue" stroke="midnightblue" points="326.95,-28.8343 332.539,-19.8339 322.557,-23.3841 326.95,-28.8343"/>
</g>
<!-- Node12&#45;&gt;Node3 -->
<g id="edge15" class="edge"><title>Node12&#45;&gt;Node3</title>
<path fill="none" stroke="midnightblue" d="M219.843,-168.324C206.584,-159.9 186.232,-146.971 170.654,-137.074"/>
<polygon fill="midnightblue" stroke="midnightblue" points="172.44,-134.063 162.123,-131.655 168.687,-139.971 172.44,-134.063"/>
</g>
<!-- Node12&#45;&gt;Node5 -->
<g id="edge16" class="edge"><title>Node12&#45;&gt;Node5</title>
<path fill="none" stroke="midnightblue" d="M228.857,-168.148C222.75,-155.212 213.762,-130.656 222.5,-112 228.545,-99.0941 240.312,-88.5985 251.323,-80.9999"/>
<polygon fill="midnightblue" stroke="midnightblue" points="253.328,-83.8723 259.867,-75.5364 249.557,-77.9748 253.328,-83.8723"/>
</g>
<!-- Node13 -->
<g id="node13" class="node"><title>Node13</title>
<polygon fill="none" stroke="#bfbfbf" points="231.5,-112.5 231.5,-131.5 271.5,-131.5 271.5,-112.5 231.5,-112.5"/>
<text text-anchor="middle" x="251.5" y="-119.5" font-family="Helvetica,sans-Serif" font-size="10.00">utility</text>
</g>
<!-- Node12&#45;&gt;Node13 -->
<g id="edge14" class="edge"><title>Node12&#45;&gt;Node13</title>
<path fill="none" stroke="midnightblue" d="M236.472,-168.083C238.884,-160.849 242.364,-150.409 245.368,-141.397"/>
<polygon fill="midnightblue" stroke="midnightblue" points="248.741,-142.345 248.583,-131.751 242.1,-140.131 248.741,-142.345"/>
</g>
<!-- Node14&#45;&gt;Node5 -->
<g id="edge19" class="edge"><title>Node14&#45;&gt;Node5</title>
<path fill="none" stroke="midnightblue" d="M418.721,-112.444C390.167,-103.32 344.767,-88.8133 312.963,-78.6509"/>
<polygon fill="midnightblue" stroke="midnightblue" points="313.744,-75.2262 303.153,-75.5164 311.614,-81.8941 313.744,-75.2262"/>
</g>
<!-- Node15 -->
<g id="node15" class="node"><title>Node15</title>
<polygon fill="none" stroke="#bfbfbf" points="419,-56.5 419,-75.5 478,-75.5 478,-56.5 419,-56.5"/>
<text text-anchor="middle" x="448.5" y="-63.5" font-family="Helvetica,sans-Serif" font-size="10.00">stdexcept</text>
</g>
<!-- Node14&#45;&gt;Node15 -->
<g id="edge18" class="edge"><title>Node14&#45;&gt;Node15</title>
<path fill="none" stroke="midnightblue" d="M445.995,-112.083C446.389,-105.006 446.952,-94.8611 447.445,-85.9865"/>
<polygon fill="midnightblue" stroke="midnightblue" points="450.954,-85.9299 448.014,-75.7511 443.964,-85.5415 450.954,-85.9299"/>
</g>
<!-- Node16&#45;&gt;Node3 -->
<g id="edge21" class="edge"><title>Node16&#45;&gt;Node3</title>
<path fill="none" stroke="midnightblue" d="M333.64,-168.444C293.095,-158.492 226.461,-142.136 185.161,-131.999"/>
<polygon fill="midnightblue" stroke="midnightblue" points="185.784,-128.548 175.238,-129.563 184.116,-135.346 185.784,-128.548"/>
</g>
<!-- Node16&#45;&gt;Node5 -->
<g id="edge23" class="edge"><title>Node16&#45;&gt;Node5</title>
<path fill="none" stroke="midnightblue" d="M361.281,-168.368C345.964,-150.055 309.995,-107.049 290.185,-83.3624"/>
<polygon fill="midnightblue" stroke="midnightblue" points="292.786,-81.0168 283.686,-75.5914 287.416,-85.5077 292.786,-81.0168"/>
</g>
<!-- Node16&#45;&gt;Node9 -->
<g id="edge24" class="edge"><title>Node16&#45;&gt;Node9</title>
<path fill="none" stroke="midnightblue" d="M368.814,-168.368C369.459,-150.617 370.948,-109.666 371.824,-85.5974"/>
<polygon fill="midnightblue" stroke="midnightblue" points="375.322,-85.712 372.188,-75.5914 368.326,-85.4576 375.322,-85.712"/>
</g>
<!-- Node16&#45;&gt;Node14 -->
<g id="edge22" class="edge"><title>Node16&#45;&gt;Node14</title>
<path fill="none" stroke="midnightblue" d="M380.871,-168.324C392.658,-160.058 410.632,-147.453 424.636,-137.632"/>
<polygon fill="midnightblue" stroke="midnightblue" points="426.982,-140.262 433.159,-131.655 422.962,-134.531 426.982,-140.262"/>
</g>
</g>
</svg>
        <g id="navigator" transform="translate(0 0)" fill="#404254">
                <rect fill="#f2f5e9" fill-opacity="0.5" stroke="#606060" stroke-width=".5" x="0" y="0" width="60" height="60"/>
                <use id="zoomplus" xlink:href="#zoomPlus" x="17" y="9" onmousedown="handleZoom(evt,'in')"/>
                <use id="zoomminus" xlink:href="#zoomMin" x="42" y="9" onmousedown="handleZoom(evt,'out')"/>
                <use id="reset" xlink:href="#resetDef" x="30" y="36" onmousedown="handleReset()"/>
                <g id="arrowUp" xlink:href="#dirArrow" transform="translate(30 24)" onmousedown="handlePan(0,-1)">
                  <use xlink:href="#rim" fill="#404040">
                        <set attributeName="fill" to="#808080" begin="arrowUp.mouseover" end="arrowUp.mouseout"/>
                  </use>
                  <path fill="none" stroke="white" stroke-width="1.5" d="M0,-3.0v7 M-2.5,-0.5L0,-3.0L2.5,-0.5"/>
                </g>
                <g id="arrowRight" xlink:href="#dirArrow" transform="rotate(90) translate(36 -43)" onmousedown="handlePan(1,0)">
                  <use xlink:href="#rim" fill="#404040">
                        <set attributeName="fill" to="#808080" begin="arrowRight.mouseover" end="arrowRight.mouseout"/>
                  </use>
                  <path fill="none" stroke="white" stroke-width="1.5" d="M0,-3.0v7 M-2.5,-0.5L0,-3.0L2.5,-0.5"/>
                </g>
                <g id="arrowDown" xlink:href="#dirArrow" transform="rotate(180) translate(-30 -48)" onmousedown="handlePan(0,1)">
                  <use xlink:href="#rim" fill="#404040">
                        <set attributeName="fill" to="#808080" begin="arrowDown.mouseover" end="arrowDown.mouseout"/>
                  </use>
                  <path fill="none" stroke="white" stroke-width="1.5" d="M0,-3.0v7 M-2.5,-0.5L0,-3.0L2.5,-0.5"/>
                </g>
                <g id="arrowLeft" xlink:href="#dirArrow" transform="rotate(270) translate(-36 17)" onmousedown="handlePan(-1,0)">
                  <use xlink:href="#rim" fill="#404040">
                        <set attributeName="fill" to="#808080" begin="arrowLeft.mouseover" end="arrowLeft.mouseout"/>
                  </use>
                  <path fill="none" stroke="white" stroke-width="1.5" d="M0,-3.0v7 M-2.5,-0.5L0,-3.0L2.5,-0.5"/>
                </g>
        </g>
        <svg viewBox="0 0 15 15" width="100%" height="30px" preserveAspectRatio="xMaxYMin meet">
         <g id="arrow_out" transform="scale(0.3 0.3)">
          <a xlink:href="arg_8hpp__incl_org.svg" target="_base">
           <rect id="button" ry="5" rx="5" y="6" x="6" height="38" width="38"
                fill="#f2f5e9" fill-opacity="0.5" stroke="#606060" stroke-width="1.0"/>
           <path id="arrow"
             d="M 11.500037,31.436501 C 11.940474,20.09759 22.043105,11.32322 32.158766,21.979434 L 37.068811,17.246167 C 37.068811,17.246167 37.088388,32 37.088388,32 L 22.160133,31.978069 C 22.160133,31.978069 26.997745,27.140456 26.997745,27.140456 C 18.528582,18.264221 13.291696,25.230495 11.500037,31.436501 z"
             style="fill:#404040;"/>
          </a>
         </g>
        </svg>
</svg>
