<?xml version="1.0" encoding="UTF-8" standalone="no"?>
<!DOCTYPE svg PUBLIC "-//W3C//DTD SVG 1.1//EN"
 "http://www.w3.org/Graphics/SVG/1.1/DTD/svg11.dtd">
<!-- Generated by graphviz version 2.40.1 (20161225.0304)
 -->
<!-- Title: arg.hpp Pages: 1 -->
<!--zoomable 252 -->
<svg id="main" version="1.1" xmlns="http://www.w3.org/2000/svg" xmlns:xlink="http://www.w3.org/1999/xlink" xml:space="preserve" onload="init(evt)">
<style type="text/css"><![CDATA[
.edge:hover path { stroke: red; }
.edge:hover polygon { stroke: red; fill: red; }
]]></style>
<script type="text/javascript"><![CDATA[
var edges = document.getElementsByTagName('g');
if (edges && edges.length) {
  for (var i=0;i<edges.length;i++) {
    if (edges[i].id.substr(0,4)=='edge') {
      edges[i].setAttribute('class','edge');
    }
  }
}
]]></script>
        <defs>
                <circle id="rim" cx="0" cy="0" r="7"/>
                <circle id="rim2" cx="0" cy="0" r="3.5"/>
                <g id="zoomPlus">
                        <use xlink:href="#rim" fill="#404040">
                                <set attributeName="fill" to="#808080" begin="zoomplus.mouseover" end="zoomplus.mouseout"/>
                        </use>
                        <path d="M-4,0h8M0,-4v8" fill="none" stroke="white" stroke-width="1.5" pointer-events="none"/>
                </g>
                <g id="zoomMin">
                        <use xlink:href="#rim" fill="#404040">
                                <set attributeName="fill" to="#808080" begin="zoomminus.mouseover" end="zoomminus.mouseout"/>
                        </use>
                        <path d="M-4,0h8" fill="none" stroke="white" stroke-width="1.5" pointer-events="none"/>
                </g>
                <g id="dirArrow">
                        <path fill="none" stroke="white" stroke-width="1.5" d="M0,-3.0v7 M-2.5,-0.5L0,-3.0L2.5,-0.5"/>
                </g>
               <g id="resetDef">
                       <use xlink:href="#rim2" fill="#404040">
                               <set attributeName="fill" to="#808080" begin="reset.mouseover" end="reset.mouseout"/>
                       </use>
               </g>
        </defs>

<script type="text/javascript">
var viewWidth = 508;
var viewHeight = 252;
var sectionId = 'dynsection-0';
</script>
<script xlink:href="svgpan.js"/>
<svg id="graph" class="graph">
<g id="viewport">
<title>arg.hpp</title>
<!-- Node0 -->
<g id="node1" class="node">
<title>Node0</title>
<polygon fill="#bfbfbf" stroke="#000000" points="275,-224.5 275,-243.5 324,-243.5 324,-224.5 275,-224.5"/>
<text text-anchor="middle" x="299.5" y="-231.5" font-family="Helvetica,sans-Serif" font-size="10.00" fill="#000000">arg.hpp</text>
</g>
<!-- Node1 -->
<g id="node2" class="node">
<title>Node1</title>
<g id="a_node2"><a xlink:href="arg__iface_8hpp.html" target="_top" xlink:title="arg_iface.hpp">
<polygon fill="none" stroke="#000000" points="58,-168.5 58,-187.5 133,-187.5 133,-168.5 58,-168.5"/>
<text text-anchor="middle" x="95.5" y="-175.5" font-family="Helvetica,sans-Serif" font-size="10.00" fill="#000000">arg_iface.hpp</text>
</a>
</g>
</g>
<!-- Node0&#45;&gt;Node1 -->
<g id="edge1" class="edge">
<title>Node0&#45;&gt;Node1</title>
<path fill="none" stroke="#191970" d="M274.8928,-227.2451C241.6068,-218.1077 181.6456,-201.6478 140.266,-190.2887"/>
<polygon fill="#191970" stroke="#191970" points="141.0046,-186.862 130.4348,-187.5899 139.1515,-193.6123 141.0046,-186.862"/>
</g>
<!-- Node2 -->
<g id="node3" class="node">
<title>Node2</title>
<g id="a_node3"><a xlink:href="utils_8hpp.html" target="_top" xlink:title="utils.hpp">
<polygon fill="none" stroke="#000000" points="122,-112.5 122,-131.5 175,-131.5 175,-112.5 122,-112.5"/>
<text text-anchor="middle" x="148.5" y="-119.5" font-family="Helvetica,sans-Serif" font-size="10.00" fill="#000000">utils.hpp</text>
</a>
</g>
</g>
<!-- Node0&#45;&gt;Node2 -->
<g id="edge12" class="edge">
<title>Node0&#45;&gt;Node2</title>
<path fill="none" stroke="#191970" d="M274.8153,-227.7971C251.6119,-221.0137 216.8946,-208.3151 192.5,-188 177.0235,-175.1116 164.8697,-155.4087 157.2934,-140.8838"/>
<polygon fill="#191970" stroke="#191970" points="160.3701,-139.2099 152.7949,-131.8027 154.0976,-142.3172 160.3701,-139.2099"/>
</g>
<!-- Node4 -->
<g id="node5" class="node">
<title>Node4</title>
<g id="a_node5"><a xlink:href="types_8hpp.html" target="_top" xlink:title="types.hpp">
<polygon fill="none" stroke="#000000" points="229,-56.5 229,-75.5 288,-75.5 288,-56.5 229,-56.5"/>
<text text-anchor="middle" x="258.5" y="-63.5" font-family="Helvetica,sans-Serif" font-size="10.00" fill="#000000">types.hpp</text>
</a>
</g>
</g>
<!-- Node0&#45;&gt;Node4 -->
<g id="edge25" class="edge">
<title>Node0&#45;&gt;Node4</title>
<path fill="none" stroke="#191970" d="M298.9494,-224.294C297.5549,-203.3524 293.055,-152.5436 280.5,-112 277.5958,-102.6214 273.0788,-92.7354 268.8916,-84.5419"/>
<polygon fill="#191970" stroke="#191970" points="271.8783,-82.7047 264.0782,-75.5348 265.7046,-86.004 271.8783,-82.7047"/>
</g>
<!-- Node8 -->
<g id="node9" class="node">
<title>Node8</title>
<polygon fill="none" stroke="#bfbfbf" points="344.5,-56.5 344.5,-75.5 400.5,-75.5 400.5,-56.5 344.5,-56.5"/>
<text text-anchor="middle" x="372.5" y="-63.5" font-family="Helvetica,sans-Serif" font-size="10.00" fill="#000000">algorithm</text>
</g>
<!-- Node0&#45;&gt;Node8 -->
<g id="edge26" class="edge">
<title>Node0&#45;&gt;Node8</title>
<path fill="none" stroke="#191970" d="M324.1967,-230.9625C370.3802,-223.7122 467.7509,-200.5471 496.5,-132 499.9379,-123.8029 501.576,-119.297 496.5,-112 491.3087,-104.5372 445.0864,-88.7038 410.5851,-77.7123"/>
<polygon fill="#191970" stroke="#191970" points="411.3511,-74.2839 400.7613,-74.6115 409.244,-80.9593 411.3511,-74.2839"/>
</g>
<!-- Node11 -->
<g id="node12" class="node">
<title>Node11</title>
<g id="a_node12"><a xlink:href="context_8hpp.html" target="_top" xlink:title="context.hpp">
<polygon fill="none" stroke="#000000" points="201.5,-168.5 201.5,-187.5 269.5,-187.5 269.5,-168.5 201.5,-168.5"/>
<text text-anchor="middle" x="235.5" y="-175.5" font-family="Helvetica,sans-Serif" font-size="10.00" fill="#000000">context.hpp</text>
</a>
</g>
</g>
<!-- Node0&#45;&gt;Node11 -->
<g id="edge13" class="edge">
<title>Node0&#45;&gt;Node11</title>
<path fill="none" stroke="#191970" d="M288.3521,-224.2455C278.9913,-216.0549 265.4142,-204.1749 254.3651,-194.5069"/>
<polygon fill="#191970" stroke="#191970" points="256.3508,-191.5937 246.5202,-187.6427 251.7412,-196.8618 256.3508,-191.5937"/>
</g>
<!-- Node13 -->
<g id="node14" class="node">
<title>Node13</title>
<g id="a_node14"><a xlink:href="exceptions_8hpp.html" target="_top" xlink:title="exceptions.hpp">
<polygon fill="none" stroke="#000000" points="404,-112.5 404,-131.5 487,-131.5 487,-112.5 404,-112.5"/>
<text text-anchor="middle" x="445.5" y="-119.5" font-family="Helvetica,sans-Serif" font-size="10.00" fill="#000000">exceptions.hpp</text>
</a>
</g>
</g>
<!-- Node0&#45;&gt;Node13 -->
<g id="edge17" class="edge">
<title>Node0&#45;&gt;Node13</title>
<path fill="none" stroke="#191970" d="M324.0287,-230.3953C350.5147,-225.3021 392.4074,-213.5898 418.5,-188 431.1781,-175.5662 438.1254,-156.3458 441.7837,-141.8473"/>
<polygon fill="#191970" stroke="#191970" points="445.248,-142.3901 443.9806,-131.8713 438.4118,-140.8846 445.248,-142.3901"/>
</g>
<!-- Node15 -->
<g id="node16" class="node">
<title>Node15</title>
<g id="a_node16"><a xlink:href="value__utils_8hpp.html" target="_top" xlink:title="value_utils.hpp">
<polygon fill="none" stroke="#000000" points="327.5,-168.5 327.5,-187.5 409.5,-187.5 409.5,-168.5 327.5,-168.5"/>
<text text-anchor="middle" x="368.5" y="-175.5" font-family="Helvetica,sans-Serif" font-size="10.00" fill="#000000">value_utils.hpp</text>
</a>
</g>
</g>
<!-- Node0&#45;&gt;Node15 -->
<g id="edge20" class="edge">
<title>Node0&#45;&gt;Node15</title>
<path fill="none" stroke="#191970" d="M311.5189,-224.2455C321.7098,-215.9746 336.5362,-203.9416 348.5107,-194.2232"/>
<polygon fill="#191970" stroke="#191970" points="351.0598,-196.662 356.6188,-187.6427 346.6486,-191.2268 351.0598,-196.662"/>
</g>
<!-- Node1&#45;&gt;Node2 -->
<g id="edge2" class="edge">
<title>Node1&#45;&gt;Node2</title>
<path fill="none" stroke="#191970" d="M104.7319,-168.2455C112.3317,-160.2155 123.2877,-148.6394 132.3368,-139.0781"/>
<polygon fill="#191970" stroke="#191970" points="135.0421,-141.3115 139.3739,-131.6427 129.958,-136.4998 135.0421,-141.3115"/>
</g>
<!-- Node1&#45;&gt;Node4 -->
<g id="edge10" class="edge">
<title>Node1&#45;&gt;Node4</title>
<path fill="none" stroke="#191970" d="M95.2305,-168.0894C95.3942,-153.8057 97.8452,-127.4548 112.5,-112 127.1252,-96.5764 180.4768,-82.4676 218.4484,-74.0524"/>
<polygon fill="#191970" stroke="#191970" points="219.6717,-77.3688 228.7055,-71.8335 218.1916,-70.5271 219.6717,-77.3688"/>
</g>
<!-- Node10 -->
<g id="node11" class="node">
<title>Node10</title>
<g id="a_node11"><a xlink:href="enums_8hpp.html" target="_top" xlink:title="enums.hpp">
<polygon fill="none" stroke="#000000" points="0,-112.5 0,-131.5 65,-131.5 65,-112.5 0,-112.5"/>
<text text-anchor="middle" x="32.5" y="-119.5" font-family="Helvetica,sans-Serif" font-size="10.00" fill="#000000">enums.hpp</text>
</a>
</g>
</g>
<!-- Node1&#45;&gt;Node10 -->
<g id="edge11" class="edge">
<title>Node1&#45;&gt;Node10</title>
<path fill="none" stroke="#191970" d="M84.5262,-168.2455C75.3118,-160.0549 61.9468,-148.1749 51.0703,-138.5069"/>
<polygon fill="#191970" stroke="#191970" points="53.1474,-135.6704 43.348,-131.6427 48.4968,-140.9023 53.1474,-135.6704"/>
</g>
<!-- Node3 -->
<g id="node4" class="node">
<title>Node3</title>
<polygon fill="none" stroke="#bfbfbf" points="147,-56.5 147,-75.5 188,-75.5 188,-56.5 147,-56.5"/>
<text text-anchor="middle" x="167.5" y="-63.5" font-family="Helvetica,sans-Serif" font-size="10.00" fill="#000000">regex</text>
</g>
<!-- Node2&#45;&gt;Node3 -->
<g id="edge3" class="edge">
<title>Node2&#45;&gt;Node3</title>
<path fill="none" stroke="#191970" d="M151.8095,-112.2455C154.3433,-104.7776 157.9177,-94.2427 161.015,-85.1137"/>
<polygon fill="#191970" stroke="#191970" points="164.3298,-86.237 164.2284,-75.6427 157.7009,-83.9879 164.3298,-86.237"/>
</g>
<!-- Node2&#45;&gt;Node4 -->
<g id="edge4" class="edge">
<title>Node2&#45;&gt;Node4</title>
<path fill="none" stroke="#191970" d="M167.6605,-112.2455C185.0111,-103.4125 210.7901,-90.2887 230.4583,-80.2758"/>
<polygon fill="#191970" stroke="#191970" points="232.2353,-83.2986 239.559,-75.6427 229.0595,-77.0605 232.2353,-83.2986"/>
</g>
<!-- Node2&#45;&gt;Node8 -->
<g id="edge8" class="edge">
<title>Node2&#45;&gt;Node8</title>
<path fill="none" stroke="#191970" d="M175.0754,-115.3562C214.6162,-105.4709 289.1306,-86.8424 334.4465,-75.5134"/>
<polygon fill="#191970" stroke="#191970" points="335.3469,-78.8961 344.1994,-73.0751 333.6491,-72.1051 335.3469,-78.8961"/>
</g>
<!-- Node9 -->
<g id="node10" class="node">
<title>Node9</title>
<polygon fill="none" stroke="#bfbfbf" points="66.5,-56.5 66.5,-75.5 128.5,-75.5 128.5,-56.5 66.5,-56.5"/>
<text text-anchor="middle" x="97.5" y="-63.5" font-family="Helvetica,sans-Serif" font-size="10.00" fill="#000000">type_traits</text>
</g>
<!-- Node2&#45;&gt;Node9 -->
<g id="edge9" class="edge">
<title>Node2&#45;&gt;Node9</title>
<path fill="none" stroke="#191970" d="M139.6165,-112.2455C132.3034,-104.2155 121.7609,-92.6394 113.0533,-83.0781"/>
<polygon fill="#191970" stroke="#191970" points="115.6028,-80.6795 106.2817,-75.6427 110.4273,-85.3928 115.6028,-80.6795"/>
</g>
<!-- Node5 -->
<g id="node6" class="node">
<title>Node5</title>
<polygon fill="none" stroke="#bfbfbf" points="172,-.5 172,-19.5 213,-19.5 213,-.5 172,-.5"/>
<text text-anchor="middle" x="192.5" y="-7.5" font-family="Helvetica,sans-Serif" font-size="10.00" fill="#000000">string</text>
</g>
<!-- Node4&#45;&gt;Node5 -->
<g id="edge5" class="edge">
<title>Node4&#45;&gt;Node5</title>
<path fill="none" stroke="#191970" d="M247.0037,-56.2455C237.2558,-47.9746 223.0741,-35.9416 211.6202,-26.2232"/>
<polygon fill="#191970" stroke="#191970" points="213.7541,-23.4437 203.8646,-19.6427 209.2253,-28.7813 213.7541,-23.4437"/>
</g>
<!-- Node6 -->
<g id="node7" class="node">
<title>Node6</title>
<polygon fill="none" stroke="#bfbfbf" points="231.5,-.5 231.5,-19.5 285.5,-19.5 285.5,-.5 231.5,-.5"/>
<text text-anchor="middle" x="258.5" y="-7.5" font-family="Helvetica,sans-Serif" font-size="10.00" fill="#000000">iostream</text>
</g>
<!-- Node4&#45;&gt;Node6 -->
<g id="edge6" class="edge">
<title>Node4&#45;&gt;Node6</title>
<path fill="none" stroke="#191970" d="M258.5,-56.2455C258.5,-48.9382 258.5,-38.6944 258.5,-29.7046"/>
<polygon fill="#191970" stroke="#191970" points="262.0001,-29.6426 258.5,-19.6427 255.0001,-29.6427 262.0001,-29.6426"/>
</g>
<!-- Node7 -->
<g id="node8" class="node">
<title>Node7</title>
<polygon fill="none" stroke="#bfbfbf" points="303.5,-.5 303.5,-19.5 347.5,-19.5 347.5,-.5 303.5,-.5"/>
<text text-anchor="middle" x="325.5" y="-7.5" font-family="Helvetica,sans-Serif" font-size="10.00" fill="#000000">vector</text>
</g>
<!-- Node4&#45;&gt;Node7 -->
<g id="edge7" class="edge">
<title>Node4&#45;&gt;Node7</title>
<path fill="none" stroke="#191970" d="M270.1705,-56.2455C280.0661,-47.9746 294.4627,-35.9416 306.0901,-26.2232"/>
<polygon fill="#191970" stroke="#191970" points="308.535,-28.7413 313.9632,-19.6427 304.0458,-23.3703 308.535,-28.7413"/>
</g>
<!-- Node11&#45;&gt;Node2 -->
<g id="edge15" class="edge">
<title>Node11&#45;&gt;Node2</title>
<path fill="none" stroke="#191970" d="M220.3458,-168.2455C206.9973,-159.6534 187.3414,-147.0014 171.9617,-137.1018"/>
<polygon fill="#191970" stroke="#191970" points="173.7836,-134.1121 163.4806,-131.6427 169.9949,-139.9982 173.7836,-134.1121"/>
</g>
<!-- Node11&#45;&gt;Node4 -->
<g id="edge16" class="edge">
<title>Node11&#45;&gt;Node4</title>
<path fill="none" stroke="#191970" d="M230.522,-168.3852C224.4572,-155.34 215.8002,-131.4316 222.5,-112 226.2187,-101.2144 233.6213,-91.0249 240.7519,-82.9904"/>
<polygon fill="#191970" stroke="#191970" points="243.2967,-85.3934 247.6452,-75.7321 238.2209,-80.5729 243.2967,-85.3934"/>
</g>
<!-- Node12 -->
<g id="node13" class="node">
<title>Node12</title>
<polygon fill="none" stroke="#bfbfbf" points="231.5,-112.5 231.5,-131.5 271.5,-131.5 271.5,-112.5 231.5,-112.5"/>
<text text-anchor="middle" x="251.5" y="-119.5" font-family="Helvetica,sans-Serif" font-size="10.00" fill="#000000">utility</text>
</g>
<!-- Node11&#45;&gt;Node12 -->
<g id="edge14" class="edge">
<title>Node11&#45;&gt;Node12</title>
<path fill="none" stroke="#191970" d="M238.287,-168.2455C240.3977,-160.8579 243.366,-150.4689 245.9547,-141.4087"/>
<polygon fill="#191970" stroke="#191970" points="249.363,-142.2195 248.745,-131.6427 242.6323,-140.2964 249.363,-142.2195"/>
</g>
<!-- Node13&#45;&gt;Node4 -->
<g id="edge19" class="edge">
<title>Node13&#45;&gt;Node4</title>
<path fill="none" stroke="#191970" d="M413.3536,-112.3733C381.3238,-102.7814 332.0958,-88.0394 297.7704,-77.7601"/>
<polygon fill="#191970" stroke="#191970" points="298.6556,-74.3717 288.0718,-74.8557 296.6474,-81.0775 298.6556,-74.3717"/>
</g>
<!-- Node14 -->
<g id="node15" class="node">
<title>Node14</title>
<polygon fill="none" stroke="#bfbfbf" points="419,-56.5 419,-75.5 478,-75.5 478,-56.5 419,-56.5"/>
<text text-anchor="middle" x="448.5" y="-63.5" font-family="Helvetica,sans-Serif" font-size="10.00" fill="#000000">stdexcept</text>
</g>
<!-- Node13&#45;&gt;Node14 -->
<g id="edge18" class="edge">
<title>Node13&#45;&gt;Node14</title>
<path fill="none" stroke="#191970" d="M446.0226,-112.2455C446.414,-104.9382 446.9628,-94.6944 447.4444,-85.7046"/>
<polygon fill="#191970" stroke="#191970" points="450.9434,-85.8156 447.9834,-75.6427 443.9534,-85.4411 450.9434,-85.8156"/>
</g>
<!-- Node15&#45;&gt;Node2 -->
<g id="edge21" class="edge">
<title>Node15&#45;&gt;Node2</title>
<path fill="none" stroke="#191970" d="M330.6807,-168.3733C289.8818,-157.9881 225.3645,-141.5655 185.0614,-131.3065"/>
<polygon fill="#191970" stroke="#191970" points="185.6728,-127.8506 175.1184,-128.7756 183.946,-134.6343 185.6728,-127.8506"/>
</g>
<!-- Node15&#45;&gt;Node4 -->
<g id="edge23" class="edge">
<title>Node15&#45;&gt;Node4</title>
<path fill="none" stroke="#191970" d="M361.177,-168.1354C351.0872,-154.8071 332.0458,-130.5789 313.5,-112 302.8136,-101.2945 289.8801,-90.3878 279.2405,-81.883"/>
<polygon fill="#191970" stroke="#191970" points="281.3102,-79.0581 271.2863,-75.627 276.9828,-84.5602 281.3102,-79.0581"/>
</g>
<!-- Node15&#45;&gt;Node8 -->
<g id="edge24" class="edge">
<title>Node15&#45;&gt;Node8</title>
<path fill="none" stroke="#191970" d="M368.841,-168.4509C369.4934,-150.184 370.9302,-109.9553 371.7965,-85.6976"/>
<polygon fill="#191970" stroke="#191970" points="375.3006,-85.6435 372.1598,-75.5249 368.305,-85.3936 375.3006,-85.6435"/>
</g>
<!-- Node15&#45;&gt;Node13 -->
<g id="edge22" class="edge">
<title>Node15&#45;&gt;Node13</title>
<path fill="none" stroke="#191970" d="M381.9124,-168.2455C393.5057,-159.814 410.4748,-147.4729 423.9678,-137.6598"/>
<polygon fill="#191970" stroke="#191970" points="426.2126,-140.355 432.2413,-131.6427 422.0953,-134.6938 426.2126,-140.355"/>
</g>
</g>
</svg>
        <g id="navigator" transform="translate(0 0)" fill="#404254">
                <rect fill="#f2f5e9" fill-opacity="0.5" stroke="#606060" stroke-width=".5" x="0" y="0" width="60" height="60"/>
                <use id="zoomplus" xlink:href="#zoomPlus" x="17" y="9" onmousedown="handleZoom(evt,'in')"/>
                <use id="zoomminus" xlink:href="#zoomMin" x="42" y="9" onmousedown="handleZoom(evt,'out')"/>
                <use id="reset" xlink:href="#resetDef" x="30" y="36" onmousedown="handleReset()"/>
                <g id="arrowUp" xlink:href="#dirArrow" transform="translate(30 24)" onmousedown="handlePan(0,-1)">
                  <use xlink:href="#rim" fill="#404040">
                        <set attributeName="fill" to="#808080" begin="arrowUp.mouseover" end="arrowUp.mouseout"/>
                  </use>
                  <path fill="none" stroke="white" stroke-width="1.5" d="M0,-3.0v7 M-2.5,-0.5L0,-3.0L2.5,-0.5"/>
                </g>
                <g id="arrowRight" xlink:href="#dirArrow" transform="rotate(90) translate(36 -43)" onmousedown="handlePan(1,0)">
                  <use xlink:href="#rim" fill="#404040">
                        <set attributeName="fill" to="#808080" begin="arrowRight.mouseover" end="arrowRight.mouseout"/>
                  </use>
                  <path fill="none" stroke="white" stroke-width="1.5" d="M0,-3.0v7 M-2.5,-0.5L0,-3.0L2.5,-0.5"/>
                </g>
                <g id="arrowDown" xlink:href="#dirArrow" transform="rotate(180) translate(-30 -48)" onmousedown="handlePan(0,1)">
                  <use xlink:href="#rim" fill="#404040">
                        <set attributeName="fill" to="#808080" begin="arrowDown.mouseover" end="arrowDown.mouseout"/>
                  </use>
                  <path fill="none" stroke="white" stroke-width="1.5" d="M0,-3.0v7 M-2.5,-0.5L0,-3.0L2.5,-0.5"/>
                </g>
                <g id="arrowLeft" xlink:href="#dirArrow" transform="rotate(270) translate(-36 17)" onmousedown="handlePan(-1,0)">
                  <use xlink:href="#rim" fill="#404040">
                        <set attributeName="fill" to="#808080" begin="arrowLeft.mouseover" end="arrowLeft.mouseout"/>
                  </use>
                  <path fill="none" stroke="white" stroke-width="1.5" d="M0,-3.0v7 M-2.5,-0.5L0,-3.0L2.5,-0.5"/>
                </g>
        </g>
        <svg viewBox="0 0 15 15" width="100%" height="30px" preserveAspectRatio="xMaxYMin meet">
         <g id="arrow_out" transform="scale(0.3 0.3)">
          <a xlink:href="arg_8hpp__incl_org.svg" target="_base">
           <rect id="button" ry="5" rx="5" y="6" x="6" height="38" width="38"
                fill="#f2f5e9" fill-opacity="0.5" stroke="#606060" stroke-width="1.0"/>
           <path id="arrow"
             d="M 11.500037,31.436501 C 11.940474,20.09759 22.043105,11.32322 32.158766,21.979434 L 37.068811,17.246167 C 37.068811,17.246167 37.088388,32 37.088388,32 L 22.160133,31.978069 C 22.160133,31.978069 26.997745,27.140456 26.997745,27.140456 C 18.528582,18.264221 13.291696,25.230495 11.500037,31.436501 z"
             style="fill:#404040;"/>
          </a>
         </g>
        </svg>
</svg>
