<?xml version="1.0" encoding="UTF-8" standalone="no"?>
<!DOCTYPE svg PUBLIC "-//W3C//DTD SVG 1.1//EN"
 "http://www.w3.org/Graphics/SVG/1.1/DTD/svg11.dtd">
<!-- Generated by graphviz version 2.38.0 (20140413.2041)
 -->
<!-- Title: arg.hpp Pages: 1 -->
<svg width="500pt" height="252pt"
 viewBox="0.00 0.00 499.88 252.00" xmlns="http://www.w3.org/2000/svg" xmlns:xlink="http://www.w3.org/1999/xlink">
<g id="graph0" class="graph" transform="scale(1 1) rotate(0) translate(4 248)">
<title>arg.hpp</title>
<!-- Node1 -->
<g id="node1" class="node"><title>Node1</title>
<polygon fill="#bfbfbf" stroke="black" points="271.5,-224.5 271.5,-243.5 319.5,-243.5 319.5,-224.5 271.5,-224.5"/>
<text text-anchor="middle" x="295.5" y="-231.5" font-family="FreeSans" font-size="10.00">arg.hpp</text>
</g>
<!-- Node2 -->
<g id="node2" class="node"><title>Node2</title>
<g id="a_node2"><a xlink:href="arg__iface_8hpp.html" target="_top" xlink:title="arg_iface.hpp">
<polygon fill="none" stroke="black" points="57.5,-168.5 57.5,-187.5 131.5,-187.5 131.5,-168.5 57.5,-168.5"/>
<text text-anchor="middle" x="94.5" y="-175.5" font-family="FreeSans" font-size="10.00">arg_iface.hpp</text>
</a>
</g>
</g>
<!-- Node1&#45;&gt;Node2 -->
<g id="edge1" class="edge"><title>Node1&#45;&gt;Node2</title>
<path fill="none" stroke="midnightblue" d="M271.255,-226.486C237.783,-217.494 176.935,-201.147 136.113,-190.18"/>
<polygon fill="midnightblue" stroke="midnightblue" points="137.016,-186.798 126.451,-187.584 135.2,-193.559 137.016,-186.798"/>
</g>
<!-- Node3 -->
<g id="node3" class="node"><title>Node3</title>
<g id="a_node3"><a xlink:href="utils_8hpp.html" target="_top" xlink:title="utils.hpp">
<polygon fill="none" stroke="black" points="119.5,-112.5 119.5,-131.5 171.5,-131.5 171.5,-112.5 119.5,-112.5"/>
<text text-anchor="middle" x="145.5" y="-119.5" font-family="FreeSans" font-size="10.00">utils.hpp</text>
</a>
</g>
</g>
<!-- Node1&#45;&gt;Node3 -->
<g id="edge12" class="edge"><title>Node1&#45;&gt;Node3</title>
<path fill="none" stroke="midnightblue" d="M271.24,-227.2C248.025,-220.701 213.012,-208.322 188.5,-188 173.078,-175.213 161.111,-155.474 153.762,-141.102"/>
<polygon fill="midnightblue" stroke="midnightblue" points="156.748,-139.239 149.243,-131.762 150.447,-142.288 156.748,-139.239"/>
</g>
<!-- Node5 -->
<g id="node5" class="node"><title>Node5</title>
<g id="a_node5"><a xlink:href="types_8hpp.html" target="_top" xlink:title="types.hpp">
<polygon fill="none" stroke="black" points="244,-56.5 244,-75.5 301,-75.5 301,-56.5 244,-56.5"/>
<text text-anchor="middle" x="272.5" y="-63.5" font-family="FreeSans" font-size="10.00">types.hpp</text>
</a>
</g>
</g>
<!-- Node1&#45;&gt;Node5 -->
<g id="edge25" class="edge"><title>Node1&#45;&gt;Node5</title>
<path fill="none" stroke="midnightblue" d="M294.263,-224.075C290.643,-197.945 280.011,-121.211 275.074,-85.577"/>
<polygon fill="midnightblue" stroke="midnightblue" points="278.527,-84.9931 273.687,-75.5681 271.593,-85.9539 278.527,-84.9931"/>
</g>
<!-- Node9 -->
<g id="node9" class="node"><title>Node9</title>
<polygon fill="none" stroke="#bfbfbf" points="339.5,-56.5 339.5,-75.5 395.5,-75.5 395.5,-56.5 339.5,-56.5"/>
<text text-anchor="middle" x="367.5" y="-63.5" font-family="FreeSans" font-size="10.00">algorithm</text>
</g>
<!-- Node1&#45;&gt;Node9 -->
<g id="edge26" class="edge"><title>Node1&#45;&gt;Node9</title>
<path fill="none" stroke="midnightblue" d="M319.793,-229.935C365.206,-222.657 460.873,-199.557 488.5,-132 491.865,-123.772 493.573,-119.299 488.5,-112 483.45,-104.734 438.59,-89.3099 404.955,-78.5566"/>
<polygon fill="midnightblue" stroke="midnightblue" points="405.961,-75.2042 395.371,-75.5211 403.848,-81.8774 405.961,-75.2042"/>
</g>
<!-- Node12 -->
<g id="node12" class="node"><title>Node12</title>
<g id="a_node12"><a xlink:href="context_8hpp.html" target="_top" xlink:title="context.hpp">
<polygon fill="none" stroke="black" points="197.5,-168.5 197.5,-187.5 263.5,-187.5 263.5,-168.5 197.5,-168.5"/>
<text text-anchor="middle" x="230.5" y="-175.5" font-family="FreeSans" font-size="10.00">context.hpp</text>
</a>
</g>
</g>
<!-- Node1&#45;&gt;Node12 -->
<g id="edge13" class="edge"><title>Node1&#45;&gt;Node12</title>
<path fill="none" stroke="midnightblue" d="M285.057,-224.324C275.354,-216.263 260.685,-204.077 249,-194.369"/>
<polygon fill="midnightblue" stroke="midnightblue" points="251.062,-191.532 241.133,-187.834 246.589,-196.916 251.062,-191.532"/>
</g>
<!-- Node14 -->
<g id="node14" class="node"><title>Node14</title>
<g id="a_node14"><a xlink:href="exceptions_8hpp.html" target="_top" xlink:title="exceptions.hpp">
<polygon fill="none" stroke="black" points="399.5,-112.5 399.5,-131.5 479.5,-131.5 479.5,-112.5 399.5,-112.5"/>
<text text-anchor="middle" x="439.5" y="-119.5" font-family="FreeSans" font-size="10.00">exceptions.hpp</text>
</a>
</g>
</g>
<!-- Node1&#45;&gt;Node14 -->
<g id="edge17" class="edge"><title>Node1&#45;&gt;Node14</title>
<path fill="none" stroke="midnightblue" d="M319.589,-229.481C345.606,-224.505 386.774,-213.053 412.5,-188 425.336,-175.5 432.326,-155.996 435.955,-141.611"/>
<polygon fill="midnightblue" stroke="midnightblue" points="439.381,-142.329 438.117,-131.81 432.545,-140.822 439.381,-142.329"/>
</g>
<!-- Node16 -->
<g id="node16" class="node"><title>Node16</title>
<g id="a_node16"><a xlink:href="value__utils_8hpp.html" target="_top" xlink:title="value_utils.hpp">
<polygon fill="none" stroke="black" points="323.5,-168.5 323.5,-187.5 403.5,-187.5 403.5,-168.5 323.5,-168.5"/>
<text text-anchor="middle" x="363.5" y="-175.5" font-family="FreeSans" font-size="10.00">value_utils.hpp</text>
</a>
</g>
</g>
<!-- Node1&#45;&gt;Node16 -->
<g id="edge20" class="edge"><title>Node1&#45;&gt;Node16</title>
<path fill="none" stroke="midnightblue" d="M306.425,-224.324C316.675,-216.185 332.221,-203.839 344.501,-194.087"/>
<polygon fill="midnightblue" stroke="midnightblue" points="346.721,-196.794 352.376,-187.834 342.368,-191.312 346.721,-196.794"/>
</g>
<!-- Node2&#45;&gt;Node3 -->
<g id="edge2" class="edge"><title>Node2&#45;&gt;Node3</title>
<path fill="none" stroke="midnightblue" d="M102.922,-168.083C110.348,-160.22 121.352,-148.569 130.312,-139.081"/>
<polygon fill="midnightblue" stroke="midnightblue" points="132.913,-141.424 137.235,-131.751 127.824,-136.618 132.913,-141.424"/>
</g>
<!-- Node2&#45;&gt;Node5 -->
<g id="edge10" class="edge"><title>Node2&#45;&gt;Node5</title>
<path fill="none" stroke="midnightblue" d="M94.0503,-168.108C93.8558,-154.209 95.6048,-127.343 110.5,-112 127.499,-94.4899 191.407,-80.6554 233.692,-73.1654"/>
<polygon fill="midnightblue" stroke="midnightblue" points="234.412,-76.5928 243.672,-71.4436 233.222,-69.6948 234.412,-76.5928"/>
</g>
<!-- Node11 -->
<g id="node11" class="node"><title>Node11</title>
<g id="a_node11"><a xlink:href="enums_8hpp.html" target="_top" xlink:title="enums.hpp">
<polygon fill="none" stroke="black" points="0,-112.5 0,-131.5 63,-131.5 63,-112.5 0,-112.5"/>
<text text-anchor="middle" x="31.5" y="-119.5" font-family="FreeSans" font-size="10.00">enums.hpp</text>
</a>
</g>
</g>
<!-- Node2&#45;&gt;Node11 -->
<g id="edge11" class="edge"><title>Node2&#45;&gt;Node11</title>
<path fill="none" stroke="midnightblue" d="M84.378,-168.324C74.9736,-160.263 60.7559,-148.077 49.431,-138.369"/>
<polygon fill="midnightblue" stroke="midnightblue" points="51.6766,-135.684 41.8062,-131.834 47.121,-140.999 51.6766,-135.684"/>
</g>
<!-- Node4 -->
<g id="node4" class="node"><title>Node4</title>
<polygon fill="none" stroke="#bfbfbf" points="145.5,-56.5 145.5,-75.5 185.5,-75.5 185.5,-56.5 145.5,-56.5"/>
<text text-anchor="middle" x="165.5" y="-63.5" font-family="FreeSans" font-size="10.00">regex</text>
</g>
<!-- Node3&#45;&gt;Node4 -->
<g id="edge3" class="edge"><title>Node3&#45;&gt;Node4</title>
<path fill="none" stroke="midnightblue" d="M148.803,-112.083C151.482,-104.849 155.349,-94.4087 158.686,-85.3968"/>
<polygon fill="midnightblue" stroke="midnightblue" points="162.068,-86.3442 162.259,-75.7511 155.504,-83.9129 162.068,-86.3442"/>
</g>
<!-- Node3&#45;&gt;Node5 -->
<g id="edge4" class="edge"><title>Node3&#45;&gt;Node5</title>
<path fill="none" stroke="midnightblue" d="M165.624,-112.444C186.524,-103.557 219.435,-89.5632 243.216,-79.4514"/>
<polygon fill="midnightblue" stroke="midnightblue" points="244.638,-82.6504 252.471,-75.5164 241.898,-76.2085 244.638,-82.6504"/>
</g>
<!-- Node3&#45;&gt;Node9 -->
<g id="edge8" class="edge"><title>Node3&#45;&gt;Node9</title>
<path fill="none" stroke="midnightblue" d="M171.838,-114.593C210.944,-105.081 284.565,-87.1734 329.503,-76.2426"/>
<polygon fill="midnightblue" stroke="midnightblue" points="330.563,-79.5869 339.452,-73.8225 328.908,-72.7852 330.563,-79.5869"/>
</g>
<!-- Node10 -->
<g id="node10" class="node"><title>Node10</title>
<polygon fill="none" stroke="#bfbfbf" points="66,-56.5 66,-75.5 127,-75.5 127,-56.5 66,-56.5"/>
<text text-anchor="middle" x="96.5" y="-63.5" font-family="FreeSans" font-size="10.00">type_traits</text>
</g>
<!-- Node3&#45;&gt;Node10 -->
<g id="edge9" class="edge"><title>Node3&#45;&gt;Node10</title>
<path fill="none" stroke="midnightblue" d="M137.409,-112.083C130.345,-104.298 119.912,-92.8015 111.351,-83.3665"/>
<polygon fill="midnightblue" stroke="midnightblue" points="113.753,-80.8047 104.441,-75.7511 108.569,-85.5087 113.753,-80.8047"/>
</g>
<!-- Node6 -->
<g id="node6" class="node"><title>Node6</title>
<polygon fill="none" stroke="#bfbfbf" points="187.5,-0.5 187.5,-19.5 227.5,-19.5 227.5,-0.5 187.5,-0.5"/>
<text text-anchor="middle" x="207.5" y="-7.5" font-family="FreeSans" font-size="10.00">string</text>
</g>
<!-- Node5&#45;&gt;Node6 -->
<g id="edge5" class="edge"><title>Node5&#45;&gt;Node6</title>
<path fill="none" stroke="midnightblue" d="M262.057,-56.324C252.354,-48.2631 237.685,-36.0765 226,-26.3695"/>
<polygon fill="midnightblue" stroke="midnightblue" points="228.062,-23.532 218.133,-19.8339 223.589,-28.9163 228.062,-23.532"/>
</g>
<!-- Node7 -->
<g id="node7" class="node"><title>Node7</title>
<polygon fill="none" stroke="#bfbfbf" points="246,-0.5 246,-19.5 299,-19.5 299,-0.5 246,-0.5"/>
<text text-anchor="middle" x="272.5" y="-7.5" font-family="FreeSans" font-size="10.00">iostream</text>
</g>
<!-- Node5&#45;&gt;Node7 -->
<g id="edge6" class="edge"><title>Node5&#45;&gt;Node7</title>
<path fill="none" stroke="midnightblue" d="M272.5,-56.083C272.5,-49.0059 272.5,-38.8611 272.5,-29.9865"/>
<polygon fill="midnightblue" stroke="midnightblue" points="276,-29.751 272.5,-19.7511 269,-29.7511 276,-29.751"/>
</g>
<!-- Node8 -->
<g id="node8" class="node"><title>Node8</title>
<polygon fill="none" stroke="#bfbfbf" points="317,-0.5 317,-19.5 360,-19.5 360,-0.5 317,-0.5"/>
<text text-anchor="middle" x="338.5" y="-7.5" font-family="FreeSans" font-size="10.00">vector</text>
</g>
<!-- Node5&#45;&gt;Node8 -->
<g id="edge7" class="edge"><title>Node5&#45;&gt;Node8</title>
<path fill="none" stroke="midnightblue" d="M283.104,-56.324C292.956,-48.2631 307.851,-36.0765 319.715,-26.3695"/>
<polygon fill="midnightblue" stroke="midnightblue" points="322.18,-28.8752 327.703,-19.8339 317.747,-23.4575 322.18,-28.8752"/>
</g>
<!-- Node12&#45;&gt;Node3 -->
<g id="edge15" class="edge"><title>Node12&#45;&gt;Node3</title>
<path fill="none" stroke="midnightblue" d="M216.843,-168.324C203.584,-159.9 183.232,-146.971 167.654,-137.074"/>
<polygon fill="midnightblue" stroke="midnightblue" points="169.44,-134.063 159.123,-131.655 165.687,-139.971 169.44,-134.063"/>
</g>
<!-- Node12&#45;&gt;Node5 -->
<g id="edge16" class="edge"><title>Node12&#45;&gt;Node5</title>
<path fill="none" stroke="midnightblue" d="M225.639,-168.161C219.231,-155.241 209.739,-130.706 218.5,-112 224.545,-99.0941 236.312,-88.5985 247.323,-80.9999"/>
<polygon fill="midnightblue" stroke="midnightblue" points="249.328,-83.8723 255.867,-75.5364 245.557,-77.9748 249.328,-83.8723"/>
</g>
<!-- Node13 -->
<g id="node13" class="node"><title>Node13</title>
<polygon fill="none" stroke="#bfbfbf" points="228,-112.5 228,-131.5 267,-131.5 267,-112.5 228,-112.5"/>
<text text-anchor="middle" x="247.5" y="-119.5" font-family="FreeSans" font-size="10.00">utility</text>
</g>
<!-- Node12&#45;&gt;Node13 -->
<g id="edge14" class="edge"><title>Node12&#45;&gt;Node13</title>
<path fill="none" stroke="midnightblue" d="M233.307,-168.083C235.585,-160.849 238.871,-150.409 241.708,-141.397"/>
<polygon fill="midnightblue" stroke="midnightblue" points="245.081,-142.341 244.745,-131.751 238.404,-140.239 245.081,-142.341"/>
</g>
<!-- Node14&#45;&gt;Node5 -->
<g id="edge19" class="edge"><title>Node14&#45;&gt;Node5</title>
<path fill="none" stroke="midnightblue" d="M413.038,-112.444C384.822,-103.32 339.96,-88.8133 308.532,-78.6509"/>
<polygon fill="midnightblue" stroke="midnightblue" points="309.43,-75.263 298.838,-75.5164 307.276,-81.9234 309.43,-75.263"/>
</g>
<!-- Node15 -->
<g id="node15" class="node"><title>Node15</title>
<polygon fill="none" stroke="#bfbfbf" points="413.5,-56.5 413.5,-75.5 471.5,-75.5 471.5,-56.5 413.5,-56.5"/>
<text text-anchor="middle" x="442.5" y="-63.5" font-family="FreeSans" font-size="10.00">stdexcept</text>
</g>
<!-- Node14&#45;&gt;Node15 -->
<g id="edge18" class="edge"><title>Node14&#45;&gt;Node15</title>
<path fill="none" stroke="midnightblue" d="M439.995,-112.083C440.389,-105.006 440.952,-94.8611 441.445,-85.9865"/>
<polygon fill="midnightblue" stroke="midnightblue" points="444.954,-85.9299 442.014,-75.7511 437.964,-85.5415 444.954,-85.9299"/>
</g>
<!-- Node16&#45;&gt;Node3 -->
<g id="edge21" class="edge"><title>Node16&#45;&gt;Node3</title>
<path fill="none" stroke="midnightblue" d="M328.957,-168.444C288.67,-158.464 222.388,-142.046 181.49,-131.915"/>
<polygon fill="midnightblue" stroke="midnightblue" points="182.219,-128.49 171.671,-129.483 180.536,-135.284 182.219,-128.49"/>
</g>
<!-- Node16&#45;&gt;Node5 -->
<g id="edge23" class="edge"><title>Node16&#45;&gt;Node5</title>
<path fill="none" stroke="midnightblue" d="M356.359,-168.368C341.209,-150.055 305.631,-107.049 286.036,-83.3624"/>
<polygon fill="midnightblue" stroke="midnightblue" points="288.679,-81.0656 279.607,-75.5914 283.285,-85.5276 288.679,-81.0656"/>
</g>
<!-- Node16&#45;&gt;Node9 -->
<g id="edge24" class="edge"><title>Node16&#45;&gt;Node9</title>
<path fill="none" stroke="midnightblue" d="M363.814,-168.368C364.459,-150.617 365.948,-109.666 366.824,-85.5974"/>
<polygon fill="midnightblue" stroke="midnightblue" points="370.322,-85.712 367.188,-75.5914 363.326,-85.4576 370.322,-85.712"/>
</g>
<!-- Node16&#45;&gt;Node14 -->
<g id="edge22" class="edge"><title>Node16&#45;&gt;Node14</title>
<path fill="none" stroke="midnightblue" d="M375.711,-168.324C387.276,-160.107 404.875,-147.602 418.661,-137.807"/>
<polygon fill="midnightblue" stroke="midnightblue" points="420.943,-140.479 427.067,-131.834 416.888,-134.773 420.943,-140.479"/>
</g>
</g>
</svg>
