<?xml version="1.0" encoding="UTF-8" standalone="no"?>
<!DOCTYPE svg PUBLIC "-//W3C//DTD SVG 1.1//EN"
 "http://www.w3.org/Graphics/SVG/1.1/DTD/svg11.dtd">
<!-- Generated by graphviz version 2.38.0 (20140413.2041)
 -->
<!-- Title: arg_as_command.hpp Pages: 1 -->
<svg width="119pt" height="196pt"
 viewBox="0.00 0.00 119.00 196.00" xmlns="http://www.w3.org/2000/svg" xmlns:xlink="http://www.w3.org/1999/xlink">
<g id="graph0" class="graph" transform="scale(1 1) rotate(0) translate(4 192)">
<title>arg_as_command.hpp</title>
<!-- Node1 -->
<g id="node1" class="node"><title>Node1</title>
<polygon fill="#bfbfbf" stroke="black" points="-7.10543e-15,-168.5 -7.10543e-15,-187.5 111,-187.5 111,-168.5 -7.10543e-15,-168.5"/>
<text text-anchor="middle" x="55.5" y="-175.5" font-family="FreeSans" font-size="10.00">arg_as_command.hpp</text>
</g>
<!-- Node2 -->
<g id="node2" class="node"><title>Node2</title>
<g id="a_node2"><a xlink:href="api_8hpp.html" target="_top" xlink:title="api.hpp">
<polygon fill="none" stroke="black" points="6,-112.5 6,-131.5 53,-131.5 53,-112.5 6,-112.5"/>
<text text-anchor="middle" x="29.5" y="-119.5" font-family="FreeSans" font-size="10.00">api.hpp</text>
</a>
</g>
</g>
<!-- Node1&#45;&gt;Node2 -->
<g id="edge1" class="edge"><title>Node1&#45;&gt;Node2</title>
<path fill="none" stroke="midnightblue" d="M46.825,-158.983C42.4118,-149.817 37.2481,-139.092 33.7135,-131.751"/>
<polygon fill="midnightblue" stroke="midnightblue" points="43.7149,-160.591 51.2066,-168.083 50.0219,-157.555 43.7149,-160.591"/>
</g>
<!-- Node3 -->
<g id="node3" class="node"><title>Node3</title>
<g id="a_node3"><a xlink:href="cmd__line_8hpp.html" target="_top" xlink:title="cmd_line.hpp">
<polygon fill="none" stroke="black" points="18.5,-56.5 18.5,-75.5 92.5,-75.5 92.5,-56.5 18.5,-56.5"/>
<text text-anchor="middle" x="55.5" y="-63.5" font-family="FreeSans" font-size="10.00">cmd_line.hpp</text>
</a>
</g>
</g>
<!-- Node2&#45;&gt;Node3 -->
<g id="edge2" class="edge"><title>Node2&#45;&gt;Node3</title>
<path fill="none" stroke="midnightblue" d="M38.175,-102.983C42.5882,-93.8168 47.7519,-83.0922 51.2865,-75.7511"/>
<polygon fill="midnightblue" stroke="midnightblue" points="34.9781,-101.555 33.7934,-112.083 41.2851,-104.591 34.9781,-101.555"/>
</g>
<!-- Node3&#45;&gt;Node1 -->
<g id="edge4" class="edge"><title>Node3&#45;&gt;Node1</title>
<path fill="none" stroke="midnightblue" d="M59.3761,-85.838C61.589,-98.7994 63.7045,-116.421 62.5,-132 61.5127,-144.77 58.9718,-159.399 57.2389,-168.419"/>
<polygon fill="midnightblue" stroke="midnightblue" points="62.7788,-84.9945 57.4872,-75.8158 55.8999,-86.291 62.7788,-84.9945"/>
</g>
<!-- Node4 -->
<g id="node4" class="node"><title>Node4</title>
<g id="a_node4"><a xlink:href="all_8hpp.html" target="_top" xlink:title="all.hpp">
<polygon fill="none" stroke="black" points="33.5,-0.5 33.5,-19.5 77.5,-19.5 77.5,-0.5 33.5,-0.5"/>
<text text-anchor="middle" x="55.5" y="-7.5" font-family="FreeSans" font-size="10.00">all.hpp</text>
</a>
</g>
</g>
<!-- Node3&#45;&gt;Node4 -->
<g id="edge3" class="edge"><title>Node3&#45;&gt;Node4</title>
<path fill="none" stroke="midnightblue" d="M55.5,-45.8045C55.5,-36.9102 55.5,-26.7798 55.5,-19.7511"/>
<polygon fill="midnightblue" stroke="midnightblue" points="52.0001,-46.083 55.5,-56.083 59.0001,-46.083 52.0001,-46.083"/>
</g>
</g>
</svg>
