<?xml version="1.0" encoding="UTF-8" standalone="no"?>
<!DOCTYPE svg PUBLIC "-//W3C//DTD SVG 1.1//EN"
 "http://www.w3.org/Graphics/SVG/1.1/DTD/svg11.dtd">
<!-- Generated by graphviz version 2.38.0 (20140413.2041)
 -->
<!-- Title: arg_iface.hpp Pages: 1 -->
<svg width="402pt" height="308pt"
 viewBox="0.00 0.00 401.50 308.00" xmlns="http://www.w3.org/2000/svg" xmlns:xlink="http://www.w3.org/1999/xlink">
<g id="graph0" class="graph" transform="scale(1 1) rotate(0) translate(4 304)">
<title>arg_iface.hpp</title>
<!-- Node1 -->
<g id="node1" class="node"><title>Node1</title>
<polygon fill="#bfbfbf" stroke="black" points="93,-280.5 93,-299.5 167,-299.5 167,-280.5 93,-280.5"/>
<text text-anchor="middle" x="130" y="-287.5" font-family="FreeSans" font-size="10.00">arg_iface.hpp</text>
</g>
<!-- Node2 -->
<g id="node2" class="node"><title>Node2</title>
<g id="a_node2"><a xlink:href="arg_8hpp.html" target="_top" xlink:title="arg.hpp">
<polygon fill="none" stroke="black" points="106,-224.5 106,-243.5 154,-243.5 154,-224.5 106,-224.5"/>
<text text-anchor="middle" x="130" y="-231.5" font-family="FreeSans" font-size="10.00">arg.hpp</text>
</a>
</g>
</g>
<!-- Node1&#45;&gt;Node2 -->
<g id="edge1" class="edge"><title>Node1&#45;&gt;Node2</title>
<path fill="none" stroke="midnightblue" d="M130,-269.805C130,-260.91 130,-250.78 130,-243.751"/>
<polygon fill="midnightblue" stroke="midnightblue" points="126.5,-270.083 130,-280.083 133.5,-270.083 126.5,-270.083"/>
</g>
<!-- Node6 -->
<g id="node6" class="node"><title>Node6</title>
<g id="a_node6"><a xlink:href="arg__as__command_8hpp.html" target="_top" xlink:title="arg_as_command.hpp">
<polygon fill="none" stroke="black" points="56.5,-0.5 56.5,-19.5 167.5,-19.5 167.5,-0.5 56.5,-0.5"/>
<text text-anchor="middle" x="112" y="-7.5" font-family="FreeSans" font-size="10.00">arg_as_command.hpp</text>
</a>
</g>
</g>
<!-- Node1&#45;&gt;Node6 -->
<g id="edge20" class="edge"><title>Node1&#45;&gt;Node6</title>
<path fill="none" stroke="midnightblue" d="M94.9593,-276.75C56.4559,-260.787 0,-228.877 0,-179 0,-179 0,-179 0,-121 0,-70.0347 59.7615,-34.8322 91.9766,-19.5583"/>
<polygon fill="midnightblue" stroke="midnightblue" points="93.7304,-280.028 104.316,-280.466 96.3141,-273.522 93.7304,-280.028"/>
</g>
<!-- Node9 -->
<g id="node9" class="node"><title>Node9</title>
<g id="a_node9"><a xlink:href="group__iface_8hpp.html" target="_top" xlink:title="group_iface.hpp">
<polygon fill="none" stroke="black" points="215.5,-224.5 215.5,-243.5 300.5,-243.5 300.5,-224.5 215.5,-224.5"/>
<text text-anchor="middle" x="258" y="-231.5" font-family="FreeSans" font-size="10.00">group_iface.hpp</text>
</a>
</g>
</g>
<!-- Node1&#45;&gt;Node9 -->
<g id="edge11" class="edge"><title>Node1&#45;&gt;Node9</title>
<path fill="none" stroke="midnightblue" d="M159.623,-276.503C183.619,-266.38 216.784,-252.388 237.813,-243.516"/>
<polygon fill="midnightblue" stroke="midnightblue" points="158.135,-273.332 150.282,-280.444 160.856,-279.781 158.135,-273.332"/>
</g>
<!-- Node3 -->
<g id="node3" class="node"><title>Node3</title>
<g id="a_node3"><a xlink:href="api_8hpp.html" target="_top" xlink:title="api.hpp">
<polygon fill="none" stroke="black" points="105.5,-112.5 105.5,-131.5 152.5,-131.5 152.5,-112.5 105.5,-112.5"/>
<text text-anchor="middle" x="129" y="-119.5" font-family="FreeSans" font-size="10.00">api.hpp</text>
</a>
</g>
</g>
<!-- Node2&#45;&gt;Node3 -->
<g id="edge2" class="edge"><title>Node2&#45;&gt;Node3</title>
<path fill="none" stroke="midnightblue" d="M129.83,-214.348C129.611,-190.254 129.239,-149.308 129.078,-131.591"/>
<polygon fill="midnightblue" stroke="midnightblue" points="126.331,-214.401 129.922,-224.368 133.33,-214.337 126.331,-214.401"/>
</g>
<!-- Node7 -->
<g id="node7" class="node"><title>Node7</title>
<g id="a_node7"><a xlink:href="multi__arg_8hpp.html" target="_top" xlink:title="multi_arg.hpp">
<polygon fill="none" stroke="black" points="28,-168.5 28,-187.5 102,-187.5 102,-168.5 28,-168.5"/>
<text text-anchor="middle" x="65" y="-175.5" font-family="FreeSans" font-size="10.00">multi_arg.hpp</text>
</a>
</g>
</g>
<!-- Node2&#45;&gt;Node7 -->
<g id="edge7" class="edge"><title>Node2&#45;&gt;Node7</title>
<path fill="none" stroke="midnightblue" d="M111.727,-217.82C100.082,-208.145 85.4005,-195.948 75.6334,-187.834"/>
<polygon fill="midnightblue" stroke="midnightblue" points="109.628,-220.626 119.557,-224.324 114.101,-215.242 109.628,-220.626"/>
</g>
<!-- Node8 -->
<g id="node8" class="node"><title>Node8</title>
<g id="a_node8"><a xlink:href="help_8hpp.html" target="_top" xlink:title="help.hpp">
<polygon fill="none" stroke="black" points="170.5,-112.5 170.5,-131.5 223.5,-131.5 223.5,-112.5 170.5,-112.5"/>
<text text-anchor="middle" x="197" y="-119.5" font-family="FreeSans" font-size="10.00">help.hpp</text>
</a>
</g>
</g>
<!-- Node2&#45;&gt;Node8 -->
<g id="edge9" class="edge"><title>Node2&#45;&gt;Node8</title>
<path fill="none" stroke="midnightblue" d="M140.574,-215.64C155.129,-191.744 180.781,-149.629 191.767,-131.591"/>
<polygon fill="midnightblue" stroke="midnightblue" points="137.47,-214.007 135.257,-224.368 143.449,-217.649 137.47,-214.007"/>
</g>
<!-- Node4 -->
<g id="node4" class="node"><title>Node4</title>
<g id="a_node4"><a xlink:href="cmd__line_8hpp.html" target="_top" xlink:title="cmd_line.hpp">
<polygon fill="none" stroke="black" points="167,-56.5 167,-75.5 241,-75.5 241,-56.5 167,-56.5"/>
<text text-anchor="middle" x="204" y="-63.5" font-family="FreeSans" font-size="10.00">cmd_line.hpp</text>
</a>
</g>
</g>
<!-- Node3&#45;&gt;Node4 -->
<g id="edge3" class="edge"><title>Node3&#45;&gt;Node4</title>
<path fill="none" stroke="midnightblue" d="M149.305,-106.38C162.861,-96.6204 180.242,-84.1057 191.731,-75.8339"/>
<polygon fill="midnightblue" stroke="midnightblue" points="147.12,-103.641 141.05,-112.324 151.21,-109.321 147.12,-103.641"/>
</g>
<!-- Node5 -->
<g id="node5" class="node"><title>Node5</title>
<g id="a_node5"><a xlink:href="all_8hpp.html" target="_top" xlink:title="all.hpp">
<polygon fill="none" stroke="black" points="185,-0.5 185,-19.5 229,-19.5 229,-0.5 185,-0.5"/>
<text text-anchor="middle" x="207" y="-7.5" font-family="FreeSans" font-size="10.00">all.hpp</text>
</a>
</g>
</g>
<!-- Node4&#45;&gt;Node5 -->
<g id="edge4" class="edge"><title>Node4&#45;&gt;Node5</title>
<path fill="none" stroke="midnightblue" d="M205.066,-45.8045C205.561,-36.9102 206.123,-26.7798 206.514,-19.7511"/>
<polygon fill="midnightblue" stroke="midnightblue" points="201.556,-45.9042 204.495,-56.083 208.545,-46.2926 201.556,-45.9042"/>
</g>
<!-- Node4&#45;&gt;Node6 -->
<g id="edge5" class="edge"><title>Node4&#45;&gt;Node6</title>
<path fill="none" stroke="midnightblue" d="M180.45,-51.1774C163.521,-41.2407 141.217,-28.1492 126.745,-19.6545"/>
<polygon fill="midnightblue" stroke="midnightblue" points="178.823,-54.2804 189.219,-56.324 182.366,-48.2435 178.823,-54.2804"/>
</g>
<!-- Node6&#45;&gt;Node3 -->
<g id="edge6" class="edge"><title>Node6&#45;&gt;Node3</title>
<path fill="none" stroke="midnightblue" d="M114.874,-29.5974C118.594,-53.6664 124.923,-94.617 127.666,-112.368"/>
<polygon fill="midnightblue" stroke="midnightblue" points="118.314,-28.9395 113.328,-19.5914 111.396,-30.0087 118.314,-28.9395"/>
</g>
<!-- Node7&#45;&gt;Node3 -->
<g id="edge8" class="edge"><title>Node7&#45;&gt;Node3</title>
<path fill="none" stroke="midnightblue" d="M82.9915,-161.82C94.4576,-152.145 108.913,-139.948 118.53,-131.834"/>
<polygon fill="midnightblue" stroke="midnightblue" points="80.6686,-159.2 75.2827,-168.324 85.1827,-164.55 80.6686,-159.2"/>
</g>
<!-- Node8&#45;&gt;Node4 -->
<g id="edge10" class="edge"><title>Node8&#45;&gt;Node4</title>
<path fill="none" stroke="midnightblue" d="M199.45,-102.101C200.612,-93.1357 201.944,-82.8579 202.866,-75.7511"/>
<polygon fill="midnightblue" stroke="midnightblue" points="195.971,-101.716 198.156,-112.083 202.912,-102.616 195.971,-101.716"/>
</g>
<!-- Node10 -->
<g id="node10" class="node"><title>Node10</title>
<g id="a_node10"><a xlink:href="groups_8hpp.html" target="_top" xlink:title="groups.hpp">
<polygon fill="none" stroke="black" points="196.5,-168.5 196.5,-187.5 259.5,-187.5 259.5,-168.5 196.5,-168.5"/>
<text text-anchor="middle" x="228" y="-175.5" font-family="FreeSans" font-size="10.00">groups.hpp</text>
</a>
</g>
</g>
<!-- Node9&#45;&gt;Node10 -->
<g id="edge12" class="edge"><title>Node9&#45;&gt;Node10</title>
<path fill="none" stroke="midnightblue" d="M248.153,-215.275C243.025,-206.045 236.984,-195.17 232.862,-187.751"/>
<polygon fill="midnightblue" stroke="midnightblue" points="245.13,-217.041 253.046,-224.083 251.249,-213.642 245.13,-217.041"/>
</g>
<!-- Node11 -->
<g id="node11" class="node"><title>Node11</title>
<g id="a_node11"><a xlink:href="help__printer_8hpp.html" target="_top" xlink:title="help_printer.hpp">
<polygon fill="none" stroke="black" points="241.5,-112.5 241.5,-131.5 326.5,-131.5 326.5,-112.5 241.5,-112.5"/>
<text text-anchor="middle" x="284" y="-119.5" font-family="FreeSans" font-size="10.00">help_printer.hpp</text>
</a>
</g>
</g>
<!-- Node9&#45;&gt;Node11 -->
<g id="edge19" class="edge"><title>Node9&#45;&gt;Node11</title>
<path fill="none" stroke="midnightblue" d="M262.409,-214.348C268.104,-190.254 277.782,-149.308 281.969,-131.591"/>
<polygon fill="midnightblue" stroke="midnightblue" points="258.934,-213.832 260.04,-224.368 265.747,-215.442 258.934,-213.832"/>
</g>
<!-- Node12 -->
<g id="node12" class="node"><title>Node12</title>
<g id="a_node12"><a xlink:href="command_8hpp.html" target="_top" xlink:title="command.hpp">
<polygon fill="none" stroke="black" points="316.5,-168.5 316.5,-187.5 393.5,-187.5 393.5,-168.5 316.5,-168.5"/>
<text text-anchor="middle" x="355" y="-175.5" font-family="FreeSans" font-size="10.00">command.hpp</text>
</a>
</g>
</g>
<!-- Node9&#45;&gt;Node12 -->
<g id="edge16" class="edge"><title>Node9&#45;&gt;Node12</title>
<path fill="none" stroke="midnightblue" d="M282.335,-219.453C300.243,-209.483 324.054,-196.228 339.454,-187.655"/>
<polygon fill="midnightblue" stroke="midnightblue" points="280.62,-216.402 273.585,-224.324 284.025,-222.518 280.62,-216.402"/>
</g>
<!-- Node10&#45;&gt;Node3 -->
<g id="edge13" class="edge"><title>Node10&#45;&gt;Node3</title>
<path fill="none" stroke="midnightblue" d="M203.163,-163.453C184.886,-153.483 160.584,-140.228 144.867,-131.655"/>
<polygon fill="midnightblue" stroke="midnightblue" points="201.639,-166.608 212.094,-168.324 204.991,-160.463 201.639,-166.608"/>
</g>
<!-- Node10&#45;&gt;Node11 -->
<g id="edge14" class="edge"><title>Node10&#45;&gt;Node11</title>
<path fill="none" stroke="midnightblue" d="M244.33,-161.253C254.265,-151.673 266.588,-139.791 274.839,-131.834"/>
<polygon fill="midnightblue" stroke="midnightblue" points="241.766,-158.863 236.997,-168.324 246.625,-163.902 241.766,-158.863"/>
</g>
<!-- Node11&#45;&gt;Node4 -->
<g id="edge15" class="edge"><title>Node11&#45;&gt;Node4</title>
<path fill="none" stroke="midnightblue" d="M262.699,-106.622C248.085,-96.7574 229.173,-83.9919 216.821,-75.6545"/>
<polygon fill="midnightblue" stroke="midnightblue" points="260.9,-109.63 271.147,-112.324 264.816,-103.828 260.9,-109.63"/>
</g>
<!-- Node12&#45;&gt;Node4 -->
<g id="edge17" class="edge"><title>Node12&#45;&gt;Node4</title>
<path fill="none" stroke="midnightblue" d="M354.035,-157.939C352.327,-143.585 347.801,-124.334 336,-112 311.144,-86.0212 270.708,-75.0397 241.131,-70.398"/>
<polygon fill="midnightblue" stroke="midnightblue" points="350.57,-158.501 354.886,-168.177 357.546,-157.921 350.57,-158.501"/>
</g>
<!-- Node12&#45;&gt;Node11 -->
<g id="edge18" class="edge"><title>Node12&#45;&gt;Node11</title>
<path fill="none" stroke="midnightblue" d="M335.41,-162.101C322.632,-152.382 306.387,-140.027 295.615,-131.834"/>
<polygon fill="midnightblue" stroke="midnightblue" points="333.514,-165.056 343.593,-168.324 337.752,-159.484 333.514,-165.056"/>
</g>
</g>
</svg>
