<?xml version="1.0" encoding="UTF-8" standalone="no"?>
<!DOCTYPE svg PUBLIC "-//W3C//DTD SVG 1.1//EN"
 "http://www.w3.org/Graphics/SVG/1.1/DTD/svg11.dtd">
<!-- Generated by graphviz version 2.40.1 (20161225.0304)
 -->
<!-- Title: arg_as_command.hpp Pages: 1 -->
<svg width="121pt" height="196pt"
 viewBox="0.00 0.00 121.00 196.00" xmlns="http://www.w3.org/2000/svg" xmlns:xlink="http://www.w3.org/1999/xlink">
<g id="graph0" class="graph" transform="scale(1 1) rotate(0) translate(4 192)">
<title>arg_as_command.hpp</title>
<!-- Node28 -->
<g id="node1" class="node">
<title>Node28</title>
<polygon fill="#bfbfbf" stroke="#000000" points="0,-168.5 0,-187.5 113,-187.5 113,-168.5 0,-168.5"/>
<text text-anchor="middle" x="56.5" y="-175.5" font-family="Helvetica,sans-Serif" font-size="10.00" fill="#000000">arg_as_command.hpp</text>
</g>
<!-- Node29 -->
<g id="node2" class="node">
<title>Node29</title>
<g id="a_node2"><a xlink:href="api_8hpp.html" target="_top" xlink:title="api.hpp">
<polygon fill="none" stroke="#000000" points="6.5,-112.5 6.5,-131.5 54.5,-131.5 54.5,-112.5 6.5,-112.5"/>
<text text-anchor="middle" x="30.5" y="-119.5" font-family="Helvetica,sans-Serif" font-size="10.00" fill="#000000">api.hpp</text>
</a>
</g>
</g>
<!-- Node28&#45;&gt;Node29 -->
<g id="edge1" class="edge">
<title>Node28&#45;&gt;Node29</title>
<path fill="none" stroke="#191970" d="M47.6989,-159.0437C43.4225,-149.8331 38.467,-139.1598 34.977,-131.6427"/>
<polygon fill="#191970" stroke="#191970" points="44.5854,-160.6494 51.9711,-168.2455 50.9345,-157.7015 44.5854,-160.6494"/>
</g>
<!-- Node30 -->
<g id="node3" class="node">
<title>Node30</title>
<g id="a_node3"><a xlink:href="cmd__line_8hpp.html" target="_top" xlink:title="cmd_line.hpp">
<polygon fill="none" stroke="#000000" points="19.5,-56.5 19.5,-75.5 93.5,-75.5 93.5,-56.5 19.5,-56.5"/>
<text text-anchor="middle" x="56.5" y="-63.5" font-family="Helvetica,sans-Serif" font-size="10.00" fill="#000000">cmd_line.hpp</text>
</a>
</g>
</g>
<!-- Node29&#45;&gt;Node30 -->
<g id="edge2" class="edge">
<title>Node29&#45;&gt;Node30</title>
<path fill="none" stroke="#191970" d="M39.3011,-103.0437C43.5775,-93.8331 48.533,-83.1598 52.023,-75.6427"/>
<polygon fill="#191970" stroke="#191970" points="36.0655,-101.7015 35.0289,-112.2455 42.4146,-104.6494 36.0655,-101.7015"/>
</g>
<!-- Node30&#45;&gt;Node28 -->
<g id="edge4" class="edge">
<title>Node30&#45;&gt;Node28</title>
<path fill="none" stroke="#191970" d="M60.5199,-86.0227C62.6752,-99.0924 64.6698,-116.5373 63.5,-132 62.5494,-144.5658 60.158,-158.8986 58.4347,-168.1787"/>
<polygon fill="#191970" stroke="#191970" points="63.8972,-85.033 58.66,-75.8232 57.0108,-86.2888 63.8972,-85.033"/>
</g>
<!-- Node31 -->
<g id="node4" class="node">
<title>Node31</title>
<g id="a_node4"><a xlink:href="all_8hpp.html" target="_top" xlink:title="all.hpp">
<polygon fill="none" stroke="#000000" points="34,-.5 34,-19.5 79,-19.5 79,-.5 34,-.5"/>
<text text-anchor="middle" x="56.5" y="-7.5" font-family="Helvetica,sans-Serif" font-size="10.00" fill="#000000">all.hpp</text>
</a>
</g>
</g>
<!-- Node30&#45;&gt;Node31 -->
<g id="edge3" class="edge">
<title>Node30&#45;&gt;Node31</title>
<path fill="none" stroke="#191970" d="M56.5,-46.1575C56.5,-37.155 56.5,-26.9199 56.5,-19.6427"/>
<polygon fill="#191970" stroke="#191970" points="53.0001,-46.2455 56.5,-56.2455 60.0001,-46.2456 53.0001,-46.2455"/>
</g>
</g>
</svg>
