<?xml version="1.0" encoding="UTF-8" standalone="no"?>
<!DOCTYPE svg PUBLIC "-//W3C//DTD SVG 1.1//EN"
 "http://www.w3.org/Graphics/SVG/1.1/DTD/svg11.dtd">
<!-- Generated by graphviz version 2.40.1 (20161225.0304)
 -->
<!-- Title: arg.hpp Pages: 1 -->
<svg width="184pt" height="252pt"
 viewBox="0.00 0.00 184.00 252.00" xmlns="http://www.w3.org/2000/svg" xmlns:xlink="http://www.w3.org/1999/xlink">
<g id="graph0" class="graph" transform="scale(1 1) rotate(0) translate(4 248)">
<title>arg.hpp</title>
<!-- Node16 -->
<g id="node1" class="node">
<title>Node16</title>
<polygon fill="#bfbfbf" stroke="#000000" points="35,-224.5 35,-243.5 84,-243.5 84,-224.5 35,-224.5"/>
<text text-anchor="middle" x="59.5" y="-231.5" font-family="Helvetica,sans-Serif" font-size="10.00" fill="#000000">arg.hpp</text>
</g>
<!-- Node17 -->
<g id="node2" class="node">
<title>Node17</title>
<g id="a_node2"><a xlink:href="api_8hpp.html" target="_top" xlink:title="api.hpp">
<polygon fill="none" stroke="#000000" points="32.5,-112.5 32.5,-131.5 80.5,-131.5 80.5,-112.5 32.5,-112.5"/>
<text text-anchor="middle" x="56.5" y="-119.5" font-family="Helvetica,sans-Serif" font-size="10.00" fill="#000000">api.hpp</text>
</a>
</g>
</g>
<!-- Node16&#45;&gt;Node17 -->
<g id="edge1" class="edge">
<title>Node16&#45;&gt;Node17</title>
<path fill="none" stroke="#191970" d="M36.5503,-218.092C27.2314,-210.235 17.4978,-199.8847 12.5,-188 3.3181,-166.1656 26.3367,-143.8777 42.4312,-131.6021"/>
<polygon fill="#191970" stroke="#191970" points="34.4752,-220.9126 44.5035,-224.3308 38.7957,-215.4049 34.4752,-220.9126"/>
</g>
<!-- Node21 -->
<g id="node6" class="node">
<title>Node21</title>
<g id="a_node6"><a xlink:href="multi__arg_8hpp.html" target="_top" xlink:title="multi_arg.hpp">
<polygon fill="none" stroke="#000000" points="22,-168.5 22,-187.5 97,-187.5 97,-168.5 22,-168.5"/>
<text text-anchor="middle" x="59.5" y="-175.5" font-family="Helvetica,sans-Serif" font-size="10.00" fill="#000000">multi_arg.hpp</text>
</a>
</g>
</g>
<!-- Node16&#45;&gt;Node21 -->
<g id="edge6" class="edge">
<title>Node16&#45;&gt;Node21</title>
<path fill="none" stroke="#191970" d="M59.5,-214.1575C59.5,-205.155 59.5,-194.9199 59.5,-187.6427"/>
<polygon fill="#191970" stroke="#191970" points="56.0001,-214.2455 59.5,-224.2455 63.0001,-214.2456 56.0001,-214.2455"/>
</g>
<!-- Node22 -->
<g id="node7" class="node">
<title>Node22</title>
<g id="a_node7"><a xlink:href="help_8hpp.html" target="_top" xlink:title="help.hpp">
<polygon fill="none" stroke="#000000" points="99,-112.5 99,-131.5 152,-131.5 152,-112.5 99,-112.5"/>
<text text-anchor="middle" x="125.5" y="-119.5" font-family="Helvetica,sans-Serif" font-size="10.00" fill="#000000">help.hpp</text>
</a>
</g>
</g>
<!-- Node16&#45;&gt;Node22 -->
<g id="edge8" class="edge">
<title>Node16&#45;&gt;Node22</title>
<path fill="none" stroke="#191970" d="M79.953,-217.6146C88.8907,-209.5272 98.8334,-199.1262 105.5,-188 116.4538,-169.7187 121.8441,-144.9515 124.112,-131.5561"/>
<polygon fill="#191970" stroke="#191970" points="77.4358,-215.1636 72.1501,-224.3458 82.0082,-220.464 77.4358,-215.1636"/>
</g>
<!-- Node18 -->
<g id="node3" class="node">
<title>Node18</title>
<g id="a_node3"><a xlink:href="cmd__line_8hpp.html" target="_top" xlink:title="cmd_line.hpp">
<polygon fill="none" stroke="#000000" points="86.5,-56.5 86.5,-75.5 160.5,-75.5 160.5,-56.5 86.5,-56.5"/>
<text text-anchor="middle" x="123.5" y="-63.5" font-family="Helvetica,sans-Serif" font-size="10.00" fill="#000000">cmd_line.hpp</text>
</a>
</g>
</g>
<!-- Node17&#45;&gt;Node18 -->
<g id="edge2" class="edge">
<title>Node17&#45;&gt;Node18</title>
<path fill="none" stroke="#191970" d="M76.0676,-105.645C87.7198,-95.9058 102.1084,-83.8795 111.9632,-75.6427"/>
<polygon fill="#191970" stroke="#191970" points="73.5988,-103.1469 68.1705,-112.2455 78.0879,-108.5179 73.5988,-103.1469"/>
</g>
<!-- Node19 -->
<g id="node4" class="node">
<title>Node19</title>
<g id="a_node4"><a xlink:href="all_8hpp.html" target="_top" xlink:title="all.hpp">
<polygon fill="none" stroke="#000000" points="131,-.5 131,-19.5 176,-19.5 176,-.5 131,-.5"/>
<text text-anchor="middle" x="153.5" y="-7.5" font-family="Helvetica,sans-Serif" font-size="10.00" fill="#000000">all.hpp</text>
</a>
</g>
</g>
<!-- Node18&#45;&gt;Node19 -->
<g id="edge3" class="edge">
<title>Node18&#45;&gt;Node19</title>
<path fill="none" stroke="#191970" d="M133.498,-47.3372C138.4676,-38.0605 144.2644,-27.2398 148.3343,-19.6427"/>
<polygon fill="#191970" stroke="#191970" points="130.3627,-45.7779 128.7256,-56.2455 136.5331,-49.0835 130.3627,-45.7779"/>
</g>
<!-- Node20 -->
<g id="node5" class="node">
<title>Node20</title>
<g id="a_node5"><a xlink:href="arg__as__command_8hpp.html" target="_top" xlink:title="arg_as_command.hpp">
<polygon fill="none" stroke="#000000" points="0,-.5 0,-19.5 113,-19.5 113,-.5 0,-.5"/>
<text text-anchor="middle" x="56.5" y="-7.5" font-family="Helvetica,sans-Serif" font-size="10.00" fill="#000000">arg_as_command.hpp</text>
</a>
</g>
</g>
<!-- Node18&#45;&gt;Node20 -->
<g id="edge4" class="edge">
<title>Node18&#45;&gt;Node20</title>
<path fill="none" stroke="#191970" d="M103.9324,-49.645C92.2802,-39.9058 77.8916,-27.8795 68.0368,-19.6427"/>
<polygon fill="#191970" stroke="#191970" points="101.9121,-52.5179 111.8295,-56.2455 106.4012,-47.1469 101.9121,-52.5179"/>
</g>
<!-- Node20&#45;&gt;Node17 -->
<g id="edge5" class="edge">
<title>Node20&#45;&gt;Node17</title>
<path fill="none" stroke="#191970" d="M56.5,-29.6976C56.5,-53.9553 56.5,-94.184 56.5,-112.4509"/>
<polygon fill="#191970" stroke="#191970" points="60.0001,-29.5249 56.5,-19.5249 53.0001,-29.5249 60.0001,-29.5249"/>
</g>
<!-- Node21&#45;&gt;Node17 -->
<g id="edge7" class="edge">
<title>Node21&#45;&gt;Node17</title>
<path fill="none" stroke="#191970" d="M58.437,-158.1575C57.9547,-149.155 57.4064,-138.9199 57.0166,-131.6427"/>
<polygon fill="#191970" stroke="#191970" points="54.9474,-158.4471 58.9774,-168.2455 61.9374,-158.0726 54.9474,-158.4471"/>
</g>
<!-- Node22&#45;&gt;Node18 -->
<g id="edge9" class="edge">
<title>Node22&#45;&gt;Node18</title>
<path fill="none" stroke="#191970" d="M124.7913,-102.1575C124.4698,-93.155 124.1043,-82.9199 123.8444,-75.6427"/>
<polygon fill="#191970" stroke="#191970" points="121.2968,-102.3769 125.1516,-112.2455 128.2924,-102.127 121.2968,-102.3769"/>
</g>
</g>
</svg>
