<?xml version="1.0" encoding="UTF-8" standalone="no"?>
<!DOCTYPE svg PUBLIC "-//W3C//DTD SVG 1.1//EN"
 "http://www.w3.org/Graphics/SVG/1.1/DTD/svg11.dtd">
<!-- Generated by graphviz version 2.43.0 (0)
 -->
<!-- Title: arg_iface.hpp Pages: 1 -->
<svg width="303pt" height="192pt"
 viewBox="0.00 0.00 302.50 192.00" xmlns="http://www.w3.org/2000/svg" xmlns:xlink="http://www.w3.org/1999/xlink">
<g id="graph0" class="graph" transform="scale(1 1) rotate(0) translate(4 188)">
<title>arg_iface.hpp</title>
<!-- Node1 -->
<g id="node1" class="node">
<title>Node1</title>
<g id="a_node1"><a xlink:title=" ">
<polygon fill="#bfbfbf" stroke="black" points="209.5,-184 126.5,-184 126.5,-165 209.5,-165 209.5,-184"/>
<text text-anchor="middle" x="168" y="-172" font-family="Helvetica,sans-Serif" font-size="10.00">arg_iface.hpp</text>
</a>
</g>
</g>
<!-- Node2 -->
<g id="node2" class="node">
<title>Node2</title>
<g id="a_node2"><a xlink:href="utils_8hpp.html" target="_top" xlink:title=" ">
<polygon fill="none" stroke="black" points="197.5,-129 138.5,-129 138.5,-110 197.5,-110 197.5,-129"/>
<text text-anchor="middle" x="168" y="-117" font-family="Helvetica,sans-Serif" font-size="10.00">utils.hpp</text>
</a>
</g>
</g>
<!-- Node1&#45;&gt;Node2 -->
<g id="edge1" class="edge">
<title>Node1&#45;&gt;Node2</title>
<path fill="none" stroke="midnightblue" d="M168,-164.75C168,-157.8 168,-147.85 168,-139.13"/>
<polygon fill="midnightblue" stroke="midnightblue" points="171.5,-139.09 168,-129.09 164.5,-139.09 171.5,-139.09"/>
</g>
<!-- Node3 -->
<g id="node3" class="node">
<title>Node3</title>
<g id="a_node3"><a xlink:href="types_8hpp.html" target="_top" xlink:title=" ">
<polygon fill="none" stroke="black" points="124.5,-74 59.5,-74 59.5,-55 124.5,-55 124.5,-74"/>
<text text-anchor="middle" x="92" y="-62" font-family="Helvetica,sans-Serif" font-size="10.00">types.hpp</text>
</a>
</g>
</g>
<!-- Node1&#45;&gt;Node3 -->
<g id="edge8" class="edge">
<title>Node1&#45;&gt;Node3</title>
<path fill="none" stroke="midnightblue" d="M159.4,-164.72C151.11,-156.04 138.48,-142.18 129,-129 118.31,-114.14 107.99,-96 100.97,-82.92"/>
<polygon fill="midnightblue" stroke="midnightblue" points="104.05,-81.26 96.3,-74.04 97.86,-84.52 104.05,-81.26"/>
</g>
<!-- Node9 -->
<g id="node9" class="node">
<title>Node9</title>
<g id="a_node9"><a xlink:href="enums_8hpp.html" target="_top" xlink:title=" ">
<polygon fill="none" stroke="black" points="286.5,-129 215.5,-129 215.5,-110 286.5,-110 286.5,-129"/>
<text text-anchor="middle" x="251" y="-117" font-family="Helvetica,sans-Serif" font-size="10.00">enums.hpp</text>
</a>
</g>
</g>
<!-- Node1&#45;&gt;Node9 -->
<g id="edge9" class="edge">
<title>Node1&#45;&gt;Node9</title>
<path fill="none" stroke="midnightblue" d="M181.34,-164.98C194.09,-156.84 213.55,-144.41 228.67,-134.76"/>
<polygon fill="midnightblue" stroke="midnightblue" points="230.88,-137.5 237.42,-129.17 227.11,-131.6 230.88,-137.5"/>
</g>
<!-- Node2&#45;&gt;Node3 -->
<g id="edge2" class="edge">
<title>Node2&#45;&gt;Node3</title>
<path fill="none" stroke="midnightblue" d="M155.79,-109.98C144.22,-101.92 126.62,-89.65 112.84,-80.03"/>
<polygon fill="midnightblue" stroke="midnightblue" points="114.64,-77.02 104.43,-74.17 110.63,-82.76 114.64,-77.02"/>
</g>
<!-- Node7 -->
<g id="node7" class="node">
<title>Node7</title>
<g id="a_node7"><a xlink:title=" ">
<polygon fill="none" stroke="#bfbfbf" points="207,-74 143,-74 143,-55 207,-55 207,-74"/>
<text text-anchor="middle" x="175" y="-62" font-family="Helvetica,sans-Serif" font-size="10.00">algorithm</text>
</a>
</g>
</g>
<!-- Node2&#45;&gt;Node7 -->
<g id="edge6" class="edge">
<title>Node2&#45;&gt;Node7</title>
<path fill="none" stroke="midnightblue" d="M169.16,-109.75C170.07,-102.8 171.39,-92.85 172.54,-84.13"/>
<polygon fill="midnightblue" stroke="midnightblue" points="176.03,-84.46 173.87,-74.09 169.09,-83.54 176.03,-84.46"/>
</g>
<!-- Node8 -->
<g id="node8" class="node">
<title>Node8</title>
<g id="a_node8"><a xlink:title=" ">
<polygon fill="none" stroke="#bfbfbf" points="294.5,-74 225.5,-74 225.5,-55 294.5,-55 294.5,-74"/>
<text text-anchor="middle" x="260" y="-62" font-family="Helvetica,sans-Serif" font-size="10.00">type_traits</text>
</a>
</g>
</g>
<!-- Node2&#45;&gt;Node8 -->
<g id="edge7" class="edge">
<title>Node2&#45;&gt;Node8</title>
<path fill="none" stroke="midnightblue" d="M182.78,-109.98C197.18,-101.69 219.31,-88.94 236.19,-79.22"/>
<polygon fill="midnightblue" stroke="midnightblue" points="238.03,-82.19 244.95,-74.17 234.54,-76.13 238.03,-82.19"/>
</g>
<!-- Node4 -->
<g id="node4" class="node">
<title>Node4</title>
<g id="a_node4"><a xlink:title=" ">
<polygon fill="none" stroke="#bfbfbf" points="44,-19 0,-19 0,0 44,0 44,-19"/>
<text text-anchor="middle" x="22" y="-7" font-family="Helvetica,sans-Serif" font-size="10.00">string</text>
</a>
</g>
</g>
<!-- Node3&#45;&gt;Node4 -->
<g id="edge3" class="edge">
<title>Node3&#45;&gt;Node4</title>
<path fill="none" stroke="midnightblue" d="M80.75,-54.98C70.2,-47 54.2,-34.88 41.56,-25.31"/>
<polygon fill="midnightblue" stroke="midnightblue" points="43.54,-22.42 33.45,-19.17 39.31,-28 43.54,-22.42"/>
</g>
<!-- Node5 -->
<g id="node5" class="node">
<title>Node5</title>
<g id="a_node5"><a xlink:title=" ">
<polygon fill="none" stroke="#bfbfbf" points="122,-19 62,-19 62,0 122,0 122,-19"/>
<text text-anchor="middle" x="92" y="-7" font-family="Helvetica,sans-Serif" font-size="10.00">iostream</text>
</a>
</g>
</g>
<!-- Node3&#45;&gt;Node5 -->
<g id="edge4" class="edge">
<title>Node3&#45;&gt;Node5</title>
<path fill="none" stroke="midnightblue" d="M92,-54.75C92,-47.8 92,-37.85 92,-29.13"/>
<polygon fill="midnightblue" stroke="midnightblue" points="95.5,-29.09 92,-19.09 88.5,-29.09 95.5,-29.09"/>
</g>
<!-- Node6 -->
<g id="node6" class="node">
<title>Node6</title>
<g id="a_node6"><a xlink:title=" ">
<polygon fill="none" stroke="#bfbfbf" points="187.5,-19 140.5,-19 140.5,0 187.5,0 187.5,-19"/>
<text text-anchor="middle" x="164" y="-7" font-family="Helvetica,sans-Serif" font-size="10.00">vector</text>
</a>
</g>
</g>
<!-- Node3&#45;&gt;Node6 -->
<g id="edge5" class="edge">
<title>Node3&#45;&gt;Node6</title>
<path fill="none" stroke="midnightblue" d="M103.57,-54.98C114.42,-47 130.88,-34.88 143.88,-25.31"/>
<polygon fill="midnightblue" stroke="midnightblue" points="146.24,-27.92 152.22,-19.17 142.09,-22.28 146.24,-27.92"/>
</g>
</g>
</svg>
