<?xml version="1.0" encoding="UTF-8" standalone="no"?>
<!DOCTYPE svg PUBLIC "-//W3C//DTD SVG 1.1//EN"
 "http://www.w3.org/Graphics/SVG/1.1/DTD/svg11.dtd">
<!-- Generated by graphviz version 2.38.0 (20140413.2041)
 -->
<!-- Title: Args::Arg Pages: 1 -->
<svg width="168pt" height="140pt"
 viewBox="0.00 0.00 168.00 140.00" xmlns="http://www.w3.org/2000/svg" xmlns:xlink="http://www.w3.org/1999/xlink">
<g id="graph0" class="graph" transform="scale(1 1) rotate(0) translate(4 136)">
<title>Args::Arg</title>
<!-- Node1 -->
<g id="node1" class="node"><title>Node1</title>
<polygon fill="#bfbfbf" stroke="black" points="46.5,-56.5 46.5,-75.5 104.5,-75.5 104.5,-56.5 46.5,-56.5"/>
<text text-anchor="middle" x="75.5" y="-63.5" font-family="Helvetica,sans-Serif" font-size="10.00">Args::Arg</text>
</g>
<!-- Node3 -->
<g id="node3" class="node"><title>Node3</title>
<g id="a_node3"><a xlink:href="class_args_1_1_help.html" target="_top" xlink:title="Help argument. ">
<polygon fill="none" stroke="black" points="0,-0.5 0,-19.5 63,-19.5 63,-0.5 0,-0.5"/>
<text text-anchor="middle" x="31.5" y="-7.5" font-family="Helvetica,sans-Serif" font-size="10.00">Args::Help</text>
</a>
</g>
</g>
<!-- Node1&#45;&gt;Node3 -->
<g id="edge2" class="edge"><title>Node1&#45;&gt;Node3</title>
<path fill="none" stroke="midnightblue" d="M61.7655,-48.144C54.0995,-38.7357 44.8667,-27.4046 38.6305,-19.7511"/>
<polygon fill="midnightblue" stroke="midnightblue" points="59.2042,-50.5415 68.2343,-56.083 64.6309,-46.1198 59.2042,-50.5415"/>
</g>
<!-- Node4 -->
<g id="node4" class="node"><title>Node4</title>
<g id="a_node4"><a xlink:href="class_args_1_1_multi_arg.html" target="_top" xlink:title="MultiArg is a class that presents argument in the command line taht can be presented more than once o...">
<polygon fill="none" stroke="black" points="81,-0.5 81,-19.5 160,-19.5 160,-0.5 81,-0.5"/>
<text text-anchor="middle" x="120.5" y="-7.5" font-family="Helvetica,sans-Serif" font-size="10.00">Args::MultiArg</text>
</a>
</g>
</g>
<!-- Node1&#45;&gt;Node4 -->
<g id="edge3" class="edge"><title>Node1&#45;&gt;Node4</title>
<path fill="none" stroke="midnightblue" d="M89.5467,-48.144C97.3869,-38.7357 106.829,-27.4046 113.207,-19.7511"/>
<polygon fill="midnightblue" stroke="midnightblue" points="86.6439,-46.1601 82.9308,-56.083 92.0215,-50.6414 86.6439,-46.1601"/>
</g>
<!-- Node2 -->
<g id="node2" class="node"><title>Node2</title>
<g id="a_node2"><a xlink:href="class_args_1_1_arg_iface.html" target="_top" xlink:title="Interface for arguments. ">
<polygon fill="none" stroke="black" points="35.5,-112.5 35.5,-131.5 115.5,-131.5 115.5,-112.5 35.5,-112.5"/>
<text text-anchor="middle" x="75.5" y="-119.5" font-family="Helvetica,sans-Serif" font-size="10.00">Args::ArgIface</text>
</a>
</g>
</g>
<!-- Node2&#45;&gt;Node1 -->
<g id="edge1" class="edge"><title>Node2&#45;&gt;Node1</title>
<path fill="none" stroke="midnightblue" d="M75.5,-101.805C75.5,-92.9102 75.5,-82.7798 75.5,-75.7511"/>
<polygon fill="midnightblue" stroke="midnightblue" points="72.0001,-102.083 75.5,-112.083 79.0001,-102.083 72.0001,-102.083"/>
</g>
</g>
</svg>
