<?xml version="1.0" encoding="UTF-8" standalone="no"?>
<!DOCTYPE svg PUBLIC "-//W3C//DTD SVG 1.1//EN"
 "http://www.w3.org/Graphics/SVG/1.1/DTD/svg11.dtd">
<!-- Generated by graphviz version 2.38.0 (20140413.2041)
 -->
<!-- Title: Args::GroupIface Pages: 1 -->
<svg width="460pt" height="140pt"
 viewBox="0.00 0.00 459.50 140.00" xmlns="http://www.w3.org/2000/svg" xmlns:xlink="http://www.w3.org/1999/xlink">
<g id="graph0" class="graph" transform="scale(1 1) rotate(0) translate(4 136)">
<title>Args::GroupIface</title>
<!-- Node1 -->
<g id="node1" class="node"><title>Node1</title>
<polygon fill="#bfbfbf" stroke="black" points="182,-56.5 182,-75.5 271,-75.5 271,-56.5 182,-56.5"/>
<text text-anchor="middle" x="226.5" y="-63.5" font-family="FreeSans" font-size="10.00">Args::GroupIface</text>
</g>
<!-- Node3 -->
<g id="node3" class="node"><title>Node3</title>
<g id="a_node3"><a xlink:href="class_args_1_1_all_of_group.html" target="_top" xlink:title="Group of args where all arguments should be defined. ">
<polygon fill="none" stroke="black" points="0,-0.5 0,-19.5 89,-19.5 89,-0.5 0,-0.5"/>
<text text-anchor="middle" x="44.5" y="-7.5" font-family="FreeSans" font-size="10.00">Args::AllOfGroup</text>
</a>
</g>
</g>
<!-- Node1&#45;&gt;Node3 -->
<g id="edge2" class="edge"><title>Node1&#45;&gt;Node3</title>
<path fill="none" stroke="midnightblue" d="M187.969,-53.5677C153.636,-43.381 104.167,-28.7034 73.2035,-19.5164"/>
<polygon fill="midnightblue" stroke="midnightblue" points="187.079,-56.9544 197.662,-56.4435 189.07,-50.2436 187.079,-56.9544"/>
</g>
<!-- Node4 -->
<g id="node4" class="node"><title>Node4</title>
<g id="a_node4"><a xlink:href="class_args_1_1_at_least_one_group.html" target="_top" xlink:title="Group of args where at least one argument should be defined. ">
<polygon fill="none" stroke="black" points="107.5,-0.5 107.5,-19.5 225.5,-19.5 225.5,-0.5 107.5,-0.5"/>
<text text-anchor="middle" x="166.5" y="-7.5" font-family="FreeSans" font-size="10.00">Args::AtLeastOneGroup</text>
</a>
</g>
</g>
<!-- Node1&#45;&gt;Node4 -->
<g id="edge3" class="edge"><title>Node1&#45;&gt;Node4</title>
<path fill="none" stroke="midnightblue" d="M209.319,-49.5372C198.621,-39.9087 185.244,-27.8694 176.315,-19.8339"/>
<polygon fill="midnightblue" stroke="midnightblue" points="207.086,-52.2358 216.86,-56.324 211.768,-47.0327 207.086,-52.2358"/>
</g>
<!-- Node5 -->
<g id="node5" class="node"><title>Node5</title>
<g id="a_node5"><a xlink:href="class_args_1_1_command.html" target="_top" xlink:title="Command in the command line interface. ">
<polygon fill="none" stroke="black" points="244,-0.5 244,-19.5 329,-19.5 329,-0.5 244,-0.5"/>
<text text-anchor="middle" x="286.5" y="-7.5" font-family="FreeSans" font-size="10.00">Args::Command</text>
</a>
</g>
</g>
<!-- Node1&#45;&gt;Node5 -->
<g id="edge4" class="edge"><title>Node1&#45;&gt;Node5</title>
<path fill="none" stroke="midnightblue" d="M243.681,-49.5372C254.379,-39.9087 267.756,-27.8694 276.685,-19.8339"/>
<polygon fill="midnightblue" stroke="midnightblue" points="241.232,-47.0327 236.14,-56.324 245.914,-52.2358 241.232,-47.0327"/>
</g>
<!-- Node6 -->
<g id="node6" class="node"><title>Node6</title>
<g id="a_node6"><a xlink:href="class_args_1_1_only_one_group.html" target="_top" xlink:title="Group of args where only one argument can be defined. ">
<polygon fill="none" stroke="black" points="347.5,-0.5 347.5,-19.5 451.5,-19.5 451.5,-0.5 347.5,-0.5"/>
<text text-anchor="middle" x="399.5" y="-7.5" font-family="FreeSans" font-size="10.00">Args::OnlyOneGroup</text>
</a>
</g>
</g>
<!-- Node1&#45;&gt;Node6 -->
<g id="edge5" class="edge"><title>Node1&#45;&gt;Node6</title>
<path fill="none" stroke="midnightblue" d="M263.547,-53.4363C296.164,-43.2551 342.91,-28.664 372.216,-19.5164"/>
<polygon fill="midnightblue" stroke="midnightblue" points="262.415,-50.1228 253.912,-56.4435 264.501,-56.8049 262.415,-50.1228"/>
</g>
<!-- Node2 -->
<g id="node2" class="node"><title>Node2</title>
<g id="a_node2"><a xlink:href="class_args_1_1_arg_iface.html" target="_top" xlink:title="Interface for arguments. ">
<polygon fill="none" stroke="black" points="188,-112.5 188,-131.5 265,-131.5 265,-112.5 188,-112.5"/>
<text text-anchor="middle" x="226.5" y="-119.5" font-family="FreeSans" font-size="10.00">Args::ArgIface</text>
</a>
</g>
</g>
<!-- Node2&#45;&gt;Node1 -->
<g id="edge1" class="edge"><title>Node2&#45;&gt;Node1</title>
<path fill="none" stroke="midnightblue" d="M226.5,-101.805C226.5,-92.9102 226.5,-82.7798 226.5,-75.7511"/>
<polygon fill="midnightblue" stroke="midnightblue" points="223,-102.083 226.5,-112.083 230,-102.083 223,-102.083"/>
</g>
</g>
</svg>
