<?xml version="1.0" encoding="UTF-8" standalone="no"?>
<!DOCTYPE svg PUBLIC "-//W3C//DTD SVG 1.1//EN"
 "http://www.w3.org/Graphics/SVG/1.1/DTD/svg11.dtd">
<!-- Generated by graphviz version 2.40.1 (20161225.0304)
 -->
<!-- Title: Args::GroupIface Pages: 1 -->
<svg width="469pt" height="140pt"
 viewBox="0.00 0.00 469.00 140.00" xmlns="http://www.w3.org/2000/svg" xmlns:xlink="http://www.w3.org/1999/xlink">
<g id="graph0" class="graph" transform="scale(1 1) rotate(0) translate(4 136)">
<title>Args::GroupIface</title>
<!-- Node0 -->
<g id="node1" class="node">
<title>Node0</title>
<polygon fill="#bfbfbf" stroke="#000000" points="185,-56.5 185,-75.5 276,-75.5 276,-56.5 185,-56.5"/>
<text text-anchor="middle" x="230.5" y="-63.5" font-family="Helvetica,sans-Serif" font-size="10.00" fill="#000000">Args::GroupIface</text>
</g>
<!-- Node2 -->
<g id="node3" class="node">
<title>Node2</title>
<g id="a_node3"><a xlink:href="class_args_1_1_all_of_group.html" target="_top" xlink:title="Group of args where all arguments should be defined. ">
<polygon fill="none" stroke="#000000" points="0,-.5 0,-19.5 91,-19.5 91,-.5 0,-.5"/>
<text text-anchor="middle" x="45.5" y="-7.5" font-family="Helvetica,sans-Serif" font-size="10.00" fill="#000000">Args::AllOfGroup</text>
</a>
</g>
</g>
<!-- Node0&#45;&gt;Node2 -->
<g id="edge2" class="edge">
<title>Node0&#45;&gt;Node2</title>
<path fill="none" stroke="#191970" d="M189.0603,-53.4561C155.1009,-43.1765 107.7703,-28.8494 76.8876,-19.5011"/>
<polygon fill="#191970" stroke="#191970" points="188.1122,-56.8259 198.6974,-56.3733 190.1403,-50.1261 188.1122,-56.8259"/>
</g>
<!-- Node3 -->
<g id="node4" class="node">
<title>Node3</title>
<g id="a_node4"><a xlink:href="class_args_1_1_at_least_one_group.html" target="_top" xlink:title="Group of args where at least one argument should be defined. ">
<polygon fill="none" stroke="#000000" points="109,-.5 109,-19.5 230,-19.5 230,-.5 109,-.5"/>
<text text-anchor="middle" x="169.5" y="-7.5" font-family="Helvetica,sans-Serif" font-size="10.00" fill="#000000">Args::AtLeastOneGroup</text>
</a>
</g>
</g>
<!-- Node0&#45;&gt;Node3 -->
<g id="edge3" class="edge">
<title>Node0&#45;&gt;Node3</title>
<path fill="none" stroke="#191970" d="M212.3751,-49.3607C201.822,-39.6727 188.8888,-27.7995 180.0036,-19.6427"/>
<polygon fill="#191970" stroke="#191970" points="210.1411,-52.0611 219.8746,-56.2455 214.875,-46.9045 210.1411,-52.0611"/>
</g>
<!-- Node4 -->
<g id="node5" class="node">
<title>Node4</title>
<g id="a_node5"><a xlink:href="class_args_1_1_command.html" target="_top" xlink:title="Command in the command line interface. ">
<polygon fill="none" stroke="#000000" points="248.5,-.5 248.5,-19.5 336.5,-19.5 336.5,-.5 248.5,-.5"/>
<text text-anchor="middle" x="292.5" y="-7.5" font-family="Helvetica,sans-Serif" font-size="10.00" fill="#000000">Args::Command</text>
</a>
</g>
</g>
<!-- Node0&#45;&gt;Node4 -->
<g id="edge4" class="edge">
<title>Node0&#45;&gt;Node4</title>
<path fill="none" stroke="#191970" d="M248.9221,-49.3607C259.6481,-39.6727 272.7934,-27.7995 281.8242,-19.6427"/>
<polygon fill="#191970" stroke="#191970" points="246.3746,-46.9453 241.2996,-56.2455 251.0666,-52.14 246.3746,-46.9453"/>
</g>
<!-- Node5 -->
<g id="node6" class="node">
<title>Node5</title>
<g id="a_node6"><a xlink:href="class_args_1_1_only_one_group.html" target="_top" xlink:title="Group of args where only one argument can be defined. ">
<polygon fill="none" stroke="#000000" points="354,-.5 354,-19.5 461,-19.5 461,-.5 354,-.5"/>
<text text-anchor="middle" x="407.5" y="-7.5" font-family="Helvetica,sans-Serif" font-size="10.00" fill="#000000">Args::OnlyOneGroup</text>
</a>
</g>
</g>
<!-- Node0&#45;&gt;Node5 -->
<g id="edge5" class="edge">
<title>Node0&#45;&gt;Node5</title>
<path fill="none" stroke="#191970" d="M270.5668,-53.3235C303.027,-43.0536 348.0493,-28.8093 377.4697,-19.5011"/>
<polygon fill="#191970" stroke="#191970" points="269.4058,-50.0197 260.9274,-56.3733 271.5174,-56.6937 269.4058,-50.0197"/>
</g>
<!-- Node1 -->
<g id="node2" class="node">
<title>Node1</title>
<g id="a_node2"><a xlink:href="class_args_1_1_arg_iface.html" target="_top" xlink:title="Interface for arguments. ">
<polygon fill="none" stroke="#000000" points="190.5,-112.5 190.5,-131.5 270.5,-131.5 270.5,-112.5 190.5,-112.5"/>
<text text-anchor="middle" x="230.5" y="-119.5" font-family="Helvetica,sans-Serif" font-size="10.00" fill="#000000">Args::ArgIface</text>
</a>
</g>
</g>
<!-- Node1&#45;&gt;Node0 -->
<g id="edge1" class="edge">
<title>Node1&#45;&gt;Node0</title>
<path fill="none" stroke="#191970" d="M230.5,-102.1575C230.5,-93.155 230.5,-82.9199 230.5,-75.6427"/>
<polygon fill="#191970" stroke="#191970" points="227.0001,-102.2455 230.5,-112.2455 234.0001,-102.2456 227.0001,-102.2455"/>
</g>
</g>
</svg>
