<?xml version="1.0" encoding="UTF-8" standalone="no"?>
<!DOCTYPE svg PUBLIC "-//W3C//DTD SVG 1.1//EN"
 "http://www.w3.org/Graphics/SVG/1.1/DTD/svg11.dtd">
<!-- Generated by graphviz version 2.43.0 (0)
 -->
<!-- Title: Args::GroupIface Pages: 1 -->
<svg width="502pt" height="140pt"
 viewBox="0.00 0.00 502.00 140.00" xmlns="http://www.w3.org/2000/svg" xmlns:xlink="http://www.w3.org/1999/xlink">
<g id="graph0" class="graph" transform="scale(1 1) rotate(0) translate(4 136)">
<title>Args::GroupIface</title>
<!-- Node1 -->
<g id="node1" class="node">
<title>Node1</title>
<g id="a_node1"><a xlink:title="Interface for the groups.">
<polygon fill="#bfbfbf" stroke="black" points="197,-56.5 197,-75.5 295,-75.5 295,-56.5 197,-56.5"/>
<text text-anchor="middle" x="246" y="-63.5" font-family="Helvetica,sans-Serif" font-size="10.00">Args::GroupIface</text>
</a>
</g>
</g>
<!-- Node3 -->
<g id="node3" class="node">
<title>Node3</title>
<g id="a_node3"><a xlink:href="class_args_1_1_all_of_group.html" target="_top" xlink:title="Group of args where all arguments should be defined.">
<polygon fill="none" stroke="black" points="0,-0.5 0,-19.5 98,-19.5 98,-0.5 0,-0.5"/>
<text text-anchor="middle" x="49" y="-7.5" font-family="Helvetica,sans-Serif" font-size="10.00">Args::AllOfGroup</text>
</a>
</g>
</g>
<!-- Node1&#45;&gt;Node3 -->
<g id="edge2" class="edge">
<title>Node1&#45;&gt;Node3</title>
<path fill="none" stroke="midnightblue" d="M204.77,-53.7C167.59,-43.51 113.73,-28.74 80.07,-19.52"/>
<polygon fill="midnightblue" stroke="midnightblue" points="204.22,-57.18 214.78,-56.44 206.07,-50.42 204.22,-57.18"/>
</g>
<!-- Node4 -->
<g id="node4" class="node">
<title>Node4</title>
<g id="a_node4"><a xlink:href="class_args_1_1_at_least_one_group.html" target="_top" xlink:title="Group of args where at least one argument should be defined.">
<polygon fill="none" stroke="black" points="116,-0.5 116,-19.5 246,-19.5 246,-0.5 116,-0.5"/>
<text text-anchor="middle" x="181" y="-7.5" font-family="Helvetica,sans-Serif" font-size="10.00">Args::AtLeastOneGroup</text>
</a>
</g>
</g>
<!-- Node1&#45;&gt;Node4 -->
<g id="edge3" class="edge">
<title>Node1&#45;&gt;Node4</title>
<path fill="none" stroke="midnightblue" d="M227.73,-49.82C216.08,-40.15 201.4,-27.95 191.63,-19.83"/>
<polygon fill="midnightblue" stroke="midnightblue" points="225.63,-52.63 235.56,-56.32 230.1,-47.24 225.63,-52.63"/>
</g>
<!-- Node5 -->
<g id="node5" class="node">
<title>Node5</title>
<g id="a_node5"><a xlink:href="class_args_1_1_command.html" target="_top" xlink:title="Command in the command line interface.">
<polygon fill="none" stroke="black" points="264.5,-0.5 264.5,-19.5 359.5,-19.5 359.5,-0.5 264.5,-0.5"/>
<text text-anchor="middle" x="312" y="-7.5" font-family="Helvetica,sans-Serif" font-size="10.00">Args::Command</text>
</a>
</g>
</g>
<!-- Node1&#45;&gt;Node5 -->
<g id="edge4" class="edge">
<title>Node1&#45;&gt;Node5</title>
<path fill="none" stroke="midnightblue" d="M264.55,-49.82C276.38,-40.15 291.29,-27.95 301.2,-19.83"/>
<polygon fill="midnightblue" stroke="midnightblue" points="262.13,-47.28 256.6,-56.32 266.56,-52.7 262.13,-47.28"/>
</g>
<!-- Node6 -->
<g id="node6" class="node">
<title>Node6</title>
<g id="a_node6"><a xlink:href="class_args_1_1_only_one_group.html" target="_top" xlink:title="Group of args where only one argument can be defined.">
<polygon fill="none" stroke="black" points="378,-0.5 378,-19.5 494,-19.5 494,-0.5 378,-0.5"/>
<text text-anchor="middle" x="436" y="-7.5" font-family="Helvetica,sans-Serif" font-size="10.00">Args::OnlyOneGroup</text>
</a>
</g>
</g>
<!-- Node1&#45;&gt;Node6 -->
<g id="edge5" class="edge">
<title>Node1&#45;&gt;Node6</title>
<path fill="none" stroke="midnightblue" d="M285.76,-53.7C321.62,-43.51 373.57,-28.74 406.03,-19.52"/>
<polygon fill="midnightblue" stroke="midnightblue" points="284.77,-50.34 276.11,-56.44 286.68,-57.08 284.77,-50.34"/>
</g>
<!-- Node2 -->
<g id="node2" class="node">
<title>Node2</title>
<g id="a_node2"><a xlink:href="class_args_1_1_arg_iface.html" target="_top" xlink:title="Interface for arguments.">
<polygon fill="none" stroke="black" points="203.5,-112.5 203.5,-131.5 288.5,-131.5 288.5,-112.5 203.5,-112.5"/>
<text text-anchor="middle" x="246" y="-119.5" font-family="Helvetica,sans-Serif" font-size="10.00">Args::ArgIface</text>
</a>
</g>
</g>
<!-- Node2&#45;&gt;Node1 -->
<g id="edge1" class="edge">
<title>Node2&#45;&gt;Node1</title>
<path fill="none" stroke="midnightblue" d="M246,-101.8C246,-92.91 246,-82.78 246,-75.75"/>
<polygon fill="midnightblue" stroke="midnightblue" points="242.5,-102.08 246,-112.08 249.5,-102.08 242.5,-102.08"/>
</g>
</g>
</svg>
