<?xml version="1.0" encoding="UTF-8" standalone="no"?>
<!DOCTYPE svg PUBLIC "-//W3C//DTD SVG 1.1//EN"
 "http://www.w3.org/Graphics/SVG/1.1/DTD/svg11.dtd">
<!-- Generated by graphviz version 2.38.0 (20140413.2041)
 -->
<!-- Title: Args::ArgIface Pages: 1 -->
<svg width="396pt" height="218pt"
 viewBox="0.00 0.00 396.00 218.00" xmlns="http://www.w3.org/2000/svg" xmlns:xlink="http://www.w3.org/1999/xlink">
<g id="graph0" class="graph" transform="scale(1 1) rotate(0) translate(4 214)">
<title>Args::ArgIface</title>
<!-- Node1 -->
<g id="node1" class="node"><title>Node1</title>
<polygon fill="#bfbfbf" stroke="black" points="0,-114.5 0,-133.5 80,-133.5 80,-114.5 0,-114.5"/>
<text text-anchor="middle" x="40" y="-121.5" font-family="Helvetica,sans-Serif" font-size="10.00">Args::ArgIface</text>
</g>
<!-- Node2 -->
<g id="node2" class="node"><title>Node2</title>
<g id="a_node2"><a xlink:href="class_args_1_1_arg.html" target="_top" xlink:title="Argument with one value that can be present only once in the command line. ">
<polygon fill="none" stroke="black" points="144.5,-152.5 144.5,-171.5 202.5,-171.5 202.5,-152.5 144.5,-152.5"/>
<text text-anchor="middle" x="173.5" y="-159.5" font-family="Helvetica,sans-Serif" font-size="10.00">Args::Arg</text>
</a>
</g>
</g>
<!-- Node1&#45;&gt;Node2 -->
<g id="edge1" class="edge"><title>Node1&#45;&gt;Node2</title>
<path fill="none" stroke="midnightblue" d="M83.9046,-136.398C103.699,-142.118 126.648,-148.75 144.229,-153.831"/>
<polygon fill="midnightblue" stroke="midnightblue" points="84.7616,-133.003 74.183,-133.589 82.8183,-139.728 84.7616,-133.003"/>
</g>
<!-- Node5 -->
<g id="node5" class="node"><title>Node5</title>
<g id="a_node5"><a xlink:href="class_args_1_1_arg_as_command.html" target="_top" xlink:title="This is argument with name without dashes. ">
<polygon fill="none" stroke="black" points="116,-114.5 116,-133.5 231,-133.5 231,-114.5 116,-114.5"/>
<text text-anchor="middle" x="173.5" y="-121.5" font-family="Helvetica,sans-Serif" font-size="10.00">Args::ArgAsCommand</text>
</a>
</g>
</g>
<!-- Node1&#45;&gt;Node5 -->
<g id="edge4" class="edge"><title>Node1&#45;&gt;Node5</title>
<path fill="none" stroke="midnightblue" d="M90.363,-124C98.6577,-124 107.324,-124 115.787,-124"/>
<polygon fill="midnightblue" stroke="midnightblue" points="90.0983,-120.5 80.0983,-124 90.0983,-127.5 90.0983,-120.5"/>
</g>
<!-- Node6 -->
<g id="node6" class="node"><title>Node6</title>
<g id="a_node6"><a xlink:href="class_args_1_1_group_iface.html" target="_top" xlink:title="Interface for the groups. ">
<polygon fill="none" stroke="black" points="128,-76.5 128,-95.5 219,-95.5 219,-76.5 128,-76.5"/>
<text text-anchor="middle" x="173.5" y="-83.5" font-family="Helvetica,sans-Serif" font-size="10.00">Args::GroupIface</text>
</a>
</g>
</g>
<!-- Node1&#45;&gt;Node6 -->
<g id="edge5" class="edge"><title>Node1&#45;&gt;Node6</title>
<path fill="none" stroke="midnightblue" d="M83.8778,-111.609C101.886,-106.406 122.51,-100.446 139.328,-95.5859"/>
<polygon fill="midnightblue" stroke="midnightblue" points="82.8183,-108.272 74.183,-114.411 84.7616,-114.997 82.8183,-108.272"/>
</g>
<!-- Node3 -->
<g id="node3" class="node"><title>Node3</title>
<g id="a_node3"><a xlink:href="class_args_1_1_help.html" target="_top" xlink:title="Help argument. ">
<polygon fill="none" stroke="black" points="296,-190.5 296,-209.5 359,-209.5 359,-190.5 296,-190.5"/>
<text text-anchor="middle" x="327.5" y="-197.5" font-family="Helvetica,sans-Serif" font-size="10.00">Args::Help</text>
</a>
</g>
</g>
<!-- Node2&#45;&gt;Node3 -->
<g id="edge2" class="edge"><title>Node2&#45;&gt;Node3</title>
<path fill="none" stroke="midnightblue" d="M212.524,-171.506C238.248,-177.937 271.783,-186.321 295.806,-192.327"/>
<polygon fill="midnightblue" stroke="midnightblue" points="213.284,-168.088 202.734,-169.058 211.586,-174.879 213.284,-168.088"/>
</g>
<!-- Node4 -->
<g id="node4" class="node"><title>Node4</title>
<g id="a_node4"><a xlink:href="class_args_1_1_multi_arg.html" target="_top" xlink:title="MultiArg is a class that presents argument in the command line taht can be presented more than once o...">
<polygon fill="none" stroke="black" points="288,-152.5 288,-171.5 367,-171.5 367,-152.5 288,-152.5"/>
<text text-anchor="middle" x="327.5" y="-159.5" font-family="Helvetica,sans-Serif" font-size="10.00">Args::MultiArg</text>
</a>
</g>
</g>
<!-- Node2&#45;&gt;Node4 -->
<g id="edge3" class="edge"><title>Node2&#45;&gt;Node4</title>
<path fill="none" stroke="midnightblue" d="M212.797,-162C235.735,-162 264.81,-162 287.816,-162"/>
<polygon fill="midnightblue" stroke="midnightblue" points="212.734,-158.5 202.734,-162 212.734,-165.5 212.734,-158.5"/>
</g>
<!-- Node7 -->
<g id="node7" class="node"><title>Node7</title>
<g id="a_node7"><a xlink:href="class_args_1_1_all_of_group.html" target="_top" xlink:title="Group of args where all arguments should be defined. ">
<polygon fill="none" stroke="black" points="282,-114.5 282,-133.5 373,-133.5 373,-114.5 282,-114.5"/>
<text text-anchor="middle" x="327.5" y="-121.5" font-family="Helvetica,sans-Serif" font-size="10.00">Args::AllOfGroup</text>
</a>
</g>
</g>
<!-- Node6&#45;&gt;Node7 -->
<g id="edge6" class="edge"><title>Node6&#45;&gt;Node7</title>
<path fill="none" stroke="midnightblue" d="M222.66,-98.04C243.895,-103.349 268.495,-109.499 288.42,-114.48"/>
<polygon fill="midnightblue" stroke="midnightblue" points="223.406,-94.6189 212.856,-95.589 221.709,-101.41 223.406,-94.6189"/>
</g>
<!-- Node8 -->
<g id="node8" class="node"><title>Node8</title>
<g id="a_node8"><a xlink:href="class_args_1_1_at_least_one_group.html" target="_top" xlink:title="Group of args where at least one argument should be defined. ">
<polygon fill="none" stroke="black" points="267,-76.5 267,-95.5 388,-95.5 388,-76.5 267,-76.5"/>
<text text-anchor="middle" x="327.5" y="-83.5" font-family="Helvetica,sans-Serif" font-size="10.00">Args::AtLeastOneGroup</text>
</a>
</g>
</g>
<!-- Node6&#45;&gt;Node8 -->
<g id="edge7" class="edge"><title>Node6&#45;&gt;Node8</title>
<path fill="none" stroke="midnightblue" d="M229.3,-86C241.482,-86 254.454,-86 266.821,-86"/>
<polygon fill="midnightblue" stroke="midnightblue" points="229.283,-82.5001 219.283,-86 229.283,-89.5001 229.283,-82.5001"/>
</g>
<!-- Node9 -->
<g id="node9" class="node"><title>Node9</title>
<g id="a_node9"><a xlink:href="class_args_1_1_command.html" target="_top" xlink:title="Command in the command line interface. ">
<polygon fill="none" stroke="black" points="283.5,-38.5 283.5,-57.5 371.5,-57.5 371.5,-38.5 283.5,-38.5"/>
<text text-anchor="middle" x="327.5" y="-45.5" font-family="Helvetica,sans-Serif" font-size="10.00">Args::Command</text>
</a>
</g>
</g>
<!-- Node6&#45;&gt;Node9 -->
<g id="edge8" class="edge"><title>Node6&#45;&gt;Node9</title>
<path fill="none" stroke="midnightblue" d="M222.66,-73.96C243.895,-68.6512 268.495,-62.5012 288.42,-57.5201"/>
<polygon fill="midnightblue" stroke="midnightblue" points="221.709,-70.5901 212.856,-76.411 223.406,-77.3811 221.709,-70.5901"/>
</g>
<!-- Node10 -->
<g id="node10" class="node"><title>Node10</title>
<g id="a_node10"><a xlink:href="class_args_1_1_only_one_group.html" target="_top" xlink:title="Group of args where only one argument can be defined. ">
<polygon fill="none" stroke="black" points="274,-0.5 274,-19.5 381,-19.5 381,-0.5 274,-0.5"/>
<text text-anchor="middle" x="327.5" y="-7.5" font-family="Helvetica,sans-Serif" font-size="10.00">Args::OnlyOneGroup</text>
</a>
</g>
</g>
<!-- Node6&#45;&gt;Node10 -->
<g id="edge9" class="edge"><title>Node6&#45;&gt;Node10</title>
<path fill="none" stroke="midnightblue" d="M196.39,-70.3918C214.617,-57.9251 241.602,-40.6687 267,-29 274.784,-25.4236 283.43,-22.2451 291.665,-19.5596"/>
<polygon fill="midnightblue" stroke="midnightblue" points="193.928,-67.8402 187.712,-76.4196 197.921,-73.5895 193.928,-67.8402"/>
</g>
</g>
</svg>
