<?xml version="1.0" encoding="UTF-8" standalone="no"?>
<!DOCTYPE svg PUBLIC "-//W3C//DTD SVG 1.1//EN"
 "http://www.w3.org/Graphics/SVG/1.1/DTD/svg11.dtd">
<!-- Generated by graphviz version 2.43.0 (0)
 -->
<!-- Title: Args::MultiArg Pages: 1 -->
<svg width="94pt" height="140pt"
 viewBox="0.00 0.00 94.00 140.00" xmlns="http://www.w3.org/2000/svg" xmlns:xlink="http://www.w3.org/1999/xlink">
<g id="graph0" class="graph" transform="scale(1 1) rotate(0) translate(4 136)">
<title>Args::MultiArg</title>
<!-- Node1 -->
<g id="node1" class="node">
<title>Node1</title>
<g id="a_node1"><a xlink:title="MultiArg is a class that presents argument in the command line taht can be presented more than once o...">
<polygon fill="#bfbfbf" stroke="black" points="0,-0.5 0,-19.5 86,-19.5 86,-0.5 0,-0.5"/>
<text text-anchor="middle" x="43" y="-7.5" font-family="Helvetica,sans-Serif" font-size="10.00">Args::MultiArg</text>
</a>
</g>
</g>
<!-- Node2 -->
<g id="node2" class="node">
<title>Node2</title>
<g id="a_node2"><a xlink:href="class_args_1_1_arg.html" target="_top" xlink:title="Argument with one value that can be present only once in the command line.">
<polygon fill="none" stroke="black" points="12.5,-56.5 12.5,-75.5 73.5,-75.5 73.5,-56.5 12.5,-56.5"/>
<text text-anchor="middle" x="43" y="-63.5" font-family="Helvetica,sans-Serif" font-size="10.00">Args::Arg</text>
</a>
</g>
</g>
<!-- Node2&#45;&gt;Node1 -->
<g id="edge1" class="edge">
<title>Node2&#45;&gt;Node1</title>
<path fill="none" stroke="midnightblue" d="M43,-45.8C43,-36.91 43,-26.78 43,-19.75"/>
<polygon fill="midnightblue" stroke="midnightblue" points="39.5,-46.08 43,-56.08 46.5,-46.08 39.5,-46.08"/>
</g>
<!-- Node3 -->
<g id="node3" class="node">
<title>Node3</title>
<g id="a_node3"><a xlink:href="class_args_1_1_arg_iface.html" target="_top" xlink:title="Interface for arguments.">
<polygon fill="none" stroke="black" points="0.5,-112.5 0.5,-131.5 85.5,-131.5 85.5,-112.5 0.5,-112.5"/>
<text text-anchor="middle" x="43" y="-119.5" font-family="Helvetica,sans-Serif" font-size="10.00">Args::ArgIface</text>
</a>
</g>
</g>
<!-- Node3&#45;&gt;Node2 -->
<g id="edge2" class="edge">
<title>Node3&#45;&gt;Node2</title>
<path fill="none" stroke="midnightblue" d="M43,-101.8C43,-92.91 43,-82.78 43,-75.75"/>
<polygon fill="midnightblue" stroke="midnightblue" points="39.5,-102.08 43,-112.08 46.5,-102.08 39.5,-102.08"/>
</g>
</g>
</svg>
