<?xml version="1.0" encoding="UTF-8" standalone="no"?>
<!DOCTYPE svg PUBLIC "-//W3C//DTD SVG 1.1//EN"
 "http://www.w3.org/Graphics/SVG/1.1/DTD/svg11.dtd">
<!-- Generated by graphviz version 14.1.2 (0)
 -->
<!-- Title: Args::Arg Pages: 1 -->
<svg width="166pt" height="140pt"
 viewBox="0.00 0.00 166.00 140.00" xmlns="http://www.w3.org/2000/svg" xmlns:xlink="http://www.w3.org/1999/xlink">
<g id="graph0" class="graph" transform="scale(1 1) rotate(0) translate(4 136)">
<title>Args::Arg</title>
<!-- Node1 -->
<g id="Node000001" class="node">
<title>Node1</title>
<g id="a_Node000001"><a xlink:title="Argument with one value that can be present only once in the command line.">
<polygon fill="#999999" stroke="#666666" points="103.88,-76 46.62,-76 46.62,-56 103.88,-56 103.88,-76"/>
<text xml:space="preserve" text-anchor="middle" x="75.25" y="-62.5" font-family="Helvetica,sans-Serif" font-size="10.00">Args::Arg</text>
</a>
</g>
</g>
<!-- Node3 -->
<g id="Node000003" class="node">
<title>Node3</title>
<g id="a_Node000003"><a xlink:href="class_args_1_1_help.html" target="_top" xlink:title="Help argument.">
<polygon fill="white" stroke="#666666" points="62.5,-20 0,-20 0,0 62.5,0 62.5,-20"/>
<text xml:space="preserve" text-anchor="middle" x="31.25" y="-6.5" font-family="Helvetica,sans-Serif" font-size="10.00">Args::Help</text>
</a>
</g>
</g>
<!-- Node1&#45;&gt;Node3 -->
<g id="edge2_Node000001_Node000003" class="edge">
<title>Node1&#45;&gt;Node3</title>
<g id="a_edge2_Node000001_Node000003"><a xlink:title=" ">
<path fill="none" stroke="#63b8ff" d="M60.36,-46.72C53.12,-37.84 44.73,-27.55 38.83,-20.3"/>
<polygon fill="#63b8ff" stroke="#63b8ff" points="57.6,-48.88 66.63,-54.42 63.03,-44.46 57.6,-48.88"/>
</a>
</g>
</g>
<!-- Node4 -->
<g id="Node000004" class="node">
<title>Node4</title>
<g id="a_Node000004"><a xlink:href="class_args_1_1_multi_arg.html" target="_top" xlink:title="MultiArg is a class that presents argument in the command line taht can be presented more than once o...">
<polygon fill="white" stroke="#666666" points="158.38,-20 80.12,-20 80.12,0 158.38,0 158.38,-20"/>
<text xml:space="preserve" text-anchor="middle" x="119.25" y="-6.5" font-family="Helvetica,sans-Serif" font-size="10.00">Args::MultiArg</text>
</a>
</g>
</g>
<!-- Node1&#45;&gt;Node4 -->
<g id="edge3_Node000001_Node000004" class="edge">
<title>Node1&#45;&gt;Node4</title>
<g id="a_edge3_Node000001_Node000004"><a xlink:title=" ">
<path fill="none" stroke="#63b8ff" d="M90.14,-46.72C97.38,-37.84 105.77,-27.55 111.67,-20.3"/>
<polygon fill="#63b8ff" stroke="#63b8ff" points="87.47,-44.46 83.87,-54.42 92.9,-48.88 87.47,-44.46"/>
</a>
</g>
</g>
<!-- Node2 -->
<g id="Node000002" class="node">
<title>Node2</title>
<g id="a_Node000002"><a xlink:href="class_args_1_1_arg_iface.html" target="_top" xlink:title="Interface for arguments.">
<polygon fill="white" stroke="#666666" points="114.75,-132 35.75,-132 35.75,-112 114.75,-112 114.75,-132"/>
<text xml:space="preserve" text-anchor="middle" x="75.25" y="-118.5" font-family="Helvetica,sans-Serif" font-size="10.00">Args::ArgIface</text>
</a>
</g>
</g>
<!-- Node2&#45;&gt;Node1 -->
<g id="edge1_Node000001_Node000002" class="edge">
<title>Node2&#45;&gt;Node1</title>
<g id="a_edge1_Node000001_Node000002"><a xlink:title=" ">
<path fill="none" stroke="#63b8ff" d="M75.25,-100.13C75.25,-91.9 75.25,-82.85 75.25,-76.3"/>
<polygon fill="#63b8ff" stroke="#63b8ff" points="71.75,-100.08 75.25,-110.08 78.75,-100.08 71.75,-100.08"/>
</a>
</g>
</g>
</g>
</svg>
