<?xml version="1.0" encoding="UTF-8" standalone="no"?>
<!DOCTYPE svg PUBLIC "-//W3C//DTD SVG 1.1//EN"
 "http://www.w3.org/Graphics/SVG/1.1/DTD/svg11.dtd">
<!-- Generated by graphviz version 2.43.0 (0)
 -->
<!-- Title: Args::Help Pages: 1 -->
<svg width="93pt" height="137pt"
 viewBox="0.00 0.00 93.00 137.00" xmlns="http://www.w3.org/2000/svg" xmlns:xlink="http://www.w3.org/1999/xlink">
<g id="graph0" class="graph" transform="scale(1 1) rotate(0) translate(4 133)">
<title>Args::Help</title>
<!-- Node1 -->
<g id="Node000001" class="node">
<title>Node1</title>
<g id="a_Node000001"><a xlink:title="Help argument.">
<polygon fill="#999999" stroke="#666666" points="76,-19 9,-19 9,0 76,0 76,-19"/>
<text text-anchor="middle" x="42.5" y="-7" font-family="Helvetica,sans-Serif" font-size="10.00">Args::Help</text>
</a>
</g>
</g>
<!-- Node2 -->
<g id="Node000002" class="node">
<title>Node2</title>
<g id="a_Node000002"><a xlink:href="class_args_1_1_arg.html" target="_top" xlink:title="Argument with one value that can be present only once in the command line.">
<polygon fill="white" stroke="#666666" points="73,-74 12,-74 12,-55 73,-55 73,-74"/>
<text text-anchor="middle" x="42.5" y="-62" font-family="Helvetica,sans-Serif" font-size="10.00">Args::Arg</text>
</a>
</g>
</g>
<!-- Node2&#45;&gt;Node1 -->
<g id="edge1_Node000001_Node000002" class="edge">
<title>Node2&#45;&gt;Node1</title>
<g id="a_edge1_Node000001_Node000002"><a xlink:title=" ">
<path fill="none" stroke="#63b8ff" d="M42.5,-44.66C42.5,-35.93 42.5,-25.99 42.5,-19.09"/>
<polygon fill="#63b8ff" stroke="#63b8ff" points="39,-44.75 42.5,-54.75 46,-44.75 39,-44.75"/>
</a>
</g>
</g>
<!-- Node3 -->
<g id="Node000003" class="node">
<title>Node3</title>
<g id="a_Node000003"><a xlink:href="class_args_1_1_arg_iface.html" target="_top" xlink:title="Interface for arguments.">
<polygon fill="white" stroke="#666666" points="85,-129 0,-129 0,-110 85,-110 85,-129"/>
<text text-anchor="middle" x="42.5" y="-117" font-family="Helvetica,sans-Serif" font-size="10.00">Args::ArgIface</text>
</a>
</g>
</g>
<!-- Node3&#45;&gt;Node2 -->
<g id="edge2_Node000002_Node000003" class="edge">
<title>Node3&#45;&gt;Node2</title>
<g id="a_edge2_Node000002_Node000003"><a xlink:title=" ">
<path fill="none" stroke="#63b8ff" d="M42.5,-99.66C42.5,-90.93 42.5,-80.99 42.5,-74.09"/>
<polygon fill="#63b8ff" stroke="#63b8ff" points="39,-99.75 42.5,-109.75 46,-99.75 39,-99.75"/>
</a>
</g>
</g>
</g>
</svg>
