<?xml version="1.0" encoding="UTF-8" standalone="no"?>
<!DOCTYPE svg PUBLIC "-//W3C//DTD SVG 1.1//EN"
 "http://www.w3.org/Graphics/SVG/1.1/DTD/svg11.dtd">
<!-- Generated by graphviz version 2.38.0 (20140413.2041)
 -->
<!-- Title: Args::ArgIface Pages: 1 -->
<svg width="386pt" height="218pt"
 viewBox="0.00 0.00 386.00 218.00" xmlns="http://www.w3.org/2000/svg" xmlns:xlink="http://www.w3.org/1999/xlink">
<g id="graph0" class="graph" transform="scale(1 1) rotate(0) translate(4 214)">
<title>Args::ArgIface</title>
<!-- Node1 -->
<g id="node1" class="node"><title>Node1</title>
<polygon fill="#bfbfbf" stroke="black" points="0,-114.5 0,-133.5 77,-133.5 77,-114.5 0,-114.5"/>
<text text-anchor="middle" x="38.5" y="-121.5" font-family="FreeSans" font-size="10.00">Args::ArgIface</text>
</g>
<!-- Node2 -->
<g id="node2" class="node"><title>Node2</title>
<g id="a_node2"><a xlink:href="class_args_1_1_arg.html" target="_top" xlink:title="Argument with one value that can be present only once in the command line. ">
<polygon fill="none" stroke="black" points="140.5,-152.5 140.5,-171.5 196.5,-171.5 196.5,-152.5 140.5,-152.5"/>
<text text-anchor="middle" x="168.5" y="-159.5" font-family="FreeSans" font-size="10.00">Args::Arg</text>
</a>
</g>
</g>
<!-- Node1&#45;&gt;Node2 -->
<g id="edge1" class="edge"><title>Node1&#45;&gt;Node2</title>
<path fill="none" stroke="midnightblue" d="M81.5975,-136.498C100.948,-142.242 123.335,-148.889 140.403,-153.956"/>
<polygon fill="midnightblue" stroke="midnightblue" points="82.3824,-133.08 71.7998,-133.589 80.3902,-139.79 82.3824,-133.08"/>
</g>
<!-- Node5 -->
<g id="node5" class="node"><title>Node5</title>
<g id="a_node5"><a xlink:href="class_args_1_1_arg_as_command.html" target="_top" xlink:title="This is argument with name without dashes. ">
<polygon fill="none" stroke="black" points="113,-114.5 113,-133.5 224,-133.5 224,-114.5 113,-114.5"/>
<text text-anchor="middle" x="168.5" y="-121.5" font-family="FreeSans" font-size="10.00">Args::ArgAsCommand</text>
</a>
</g>
</g>
<!-- Node1&#45;&gt;Node5 -->
<g id="edge4" class="edge"><title>Node1&#45;&gt;Node5</title>
<path fill="none" stroke="midnightblue" d="M87.2161,-124C95.6157,-124 104.416,-124 112.984,-124"/>
<polygon fill="midnightblue" stroke="midnightblue" points="87.2119,-120.5 77.2119,-124 87.2119,-127.5 87.2119,-120.5"/>
</g>
<!-- Node6 -->
<g id="node6" class="node"><title>Node6</title>
<g id="a_node6"><a xlink:href="class_args_1_1_group_iface.html" target="_top" xlink:title="Interface for the groups. ">
<polygon fill="none" stroke="black" points="124,-76.5 124,-95.5 213,-95.5 213,-76.5 124,-76.5"/>
<text text-anchor="middle" x="168.5" y="-83.5" font-family="FreeSans" font-size="10.00">Args::GroupIface</text>
</a>
</g>
</g>
<!-- Node1&#45;&gt;Node6 -->
<g id="edge5" class="edge"><title>Node1&#45;&gt;Node6</title>
<path fill="none" stroke="midnightblue" d="M81.7242,-111.465C99.1371,-106.295 118.992,-100.401 135.211,-95.5859"/>
<polygon fill="midnightblue" stroke="midnightblue" points="80.3902,-108.21 71.7998,-114.411 82.3824,-114.92 80.3902,-108.21"/>
</g>
<!-- Node3 -->
<g id="node3" class="node"><title>Node3</title>
<g id="a_node3"><a xlink:href="class_args_1_1_help.html" target="_top" xlink:title="Help argument. ">
<polygon fill="none" stroke="black" points="289,-190.5 289,-209.5 349,-209.5 349,-190.5 289,-190.5"/>
<text text-anchor="middle" x="319" y="-197.5" font-family="FreeSans" font-size="10.00">Args::Help</text>
</a>
</g>
</g>
<!-- Node2&#45;&gt;Node3 -->
<g id="edge2" class="edge"><title>Node2&#45;&gt;Node3</title>
<path fill="none" stroke="midnightblue" d="M206.762,-171.535C232.199,-178.044 265.413,-186.543 288.905,-192.555"/>
<polygon fill="midnightblue" stroke="midnightblue" points="207.293,-168.058 196.737,-168.97 205.557,-174.84 207.293,-168.058"/>
</g>
<!-- Node4 -->
<g id="node4" class="node"><title>Node4</title>
<g id="a_node4"><a xlink:href="class_args_1_1_multi_arg.html" target="_top" xlink:title="MultiArg is a class that presents argument in the command line taht can be presented more than once o...">
<polygon fill="none" stroke="black" points="280.5,-152.5 280.5,-171.5 357.5,-171.5 357.5,-152.5 280.5,-152.5"/>
<text text-anchor="middle" x="319" y="-159.5" font-family="FreeSans" font-size="10.00">Args::MultiArg</text>
</a>
</g>
</g>
<!-- Node2&#45;&gt;Node4 -->
<g id="edge3" class="edge"><title>Node2&#45;&gt;Node4</title>
<path fill="none" stroke="midnightblue" d="M206.901,-162C229.348,-162 257.813,-162 280.311,-162"/>
<polygon fill="midnightblue" stroke="midnightblue" points="206.737,-158.5 196.737,-162 206.737,-165.5 206.737,-158.5"/>
</g>
<!-- Node7 -->
<g id="node7" class="node"><title>Node7</title>
<g id="a_node7"><a xlink:href="class_args_1_1_all_of_group.html" target="_top" xlink:title="Group of args where all arguments should be defined. ">
<polygon fill="none" stroke="black" points="274.5,-114.5 274.5,-133.5 363.5,-133.5 363.5,-114.5 274.5,-114.5"/>
<text text-anchor="middle" x="319" y="-121.5" font-family="FreeSans" font-size="10.00">Args::AllOfGroup</text>
</a>
</g>
</g>
<!-- Node6&#45;&gt;Node7 -->
<g id="edge6" class="edge"><title>Node6&#45;&gt;Node7</title>
<path fill="none" stroke="midnightblue" d="M216.833,-98.1121C237.515,-103.404 261.419,-109.521 280.797,-114.48"/>
<polygon fill="midnightblue" stroke="midnightblue" points="217.528,-94.6774 206.973,-95.589 215.793,-101.459 217.528,-94.6774"/>
</g>
<!-- Node8 -->
<g id="node8" class="node"><title>Node8</title>
<g id="a_node8"><a xlink:href="class_args_1_1_at_least_one_group.html" target="_top" xlink:title="Group of args where at least one argument should be defined. ">
<polygon fill="none" stroke="black" points="260,-76.5 260,-95.5 378,-95.5 378,-76.5 260,-76.5"/>
<text text-anchor="middle" x="319" y="-83.5" font-family="FreeSans" font-size="10.00">Args::AtLeastOneGroup</text>
</a>
</g>
</g>
<!-- Node6&#45;&gt;Node8 -->
<g id="edge7" class="edge"><title>Node6&#45;&gt;Node8</title>
<path fill="none" stroke="midnightblue" d="M223.456,-86C235.326,-86 247.945,-86 259.968,-86"/>
<polygon fill="midnightblue" stroke="midnightblue" points="223.252,-82.5001 213.252,-86 223.252,-89.5001 223.252,-82.5001"/>
</g>
<!-- Node9 -->
<g id="node9" class="node"><title>Node9</title>
<g id="a_node9"><a xlink:href="class_args_1_1_command.html" target="_top" xlink:title="Command in the command line interface. ">
<polygon fill="none" stroke="black" points="276.5,-38.5 276.5,-57.5 361.5,-57.5 361.5,-38.5 276.5,-38.5"/>
<text text-anchor="middle" x="319" y="-45.5" font-family="FreeSans" font-size="10.00">Args::Command</text>
</a>
</g>
</g>
<!-- Node6&#45;&gt;Node9 -->
<g id="edge8" class="edge"><title>Node6&#45;&gt;Node9</title>
<path fill="none" stroke="midnightblue" d="M216.833,-73.8879C237.515,-68.5956 261.419,-62.4787 280.797,-57.5201"/>
<polygon fill="midnightblue" stroke="midnightblue" points="215.793,-70.5411 206.973,-76.411 217.528,-77.3226 215.793,-70.5411"/>
</g>
<!-- Node10 -->
<g id="node10" class="node"><title>Node10</title>
<g id="a_node10"><a xlink:href="class_args_1_1_only_one_group.html" target="_top" xlink:title="Group of args where only one argument can be defined. ">
<polygon fill="none" stroke="black" points="267,-0.5 267,-19.5 371,-19.5 371,-0.5 267,-0.5"/>
<text text-anchor="middle" x="319" y="-7.5" font-family="FreeSans" font-size="10.00">Args::OnlyOneGroup</text>
</a>
</g>
</g>
<!-- Node6&#45;&gt;Node10 -->
<g id="edge9" class="edge"><title>Node6&#45;&gt;Node10</title>
<path fill="none" stroke="midnightblue" d="M190.889,-70.4096C208.706,-57.9532 235.099,-40.702 260,-29 267.576,-25.4397 275.999,-22.2674 284.026,-19.5827"/>
<polygon fill="midnightblue" stroke="midnightblue" points="188.535,-67.7885 182.407,-76.4316 192.587,-73.4962 188.535,-67.7885"/>
</g>
</g>
</svg>
