<?xml version="1.0" encoding="UTF-8" standalone="no"?>
<!DOCTYPE svg PUBLIC "-//W3C//DTD SVG 1.1//EN"
 "http://www.w3.org/Graphics/SVG/1.1/DTD/svg11.dtd">
<!-- Generated by graphviz version 2.43.0 (0)
 -->
<!-- Title: Args::GroupIface Pages: 1 -->
<svg width="502pt" height="137pt"
 viewBox="0.00 0.00 502.00 137.00" xmlns="http://www.w3.org/2000/svg" xmlns:xlink="http://www.w3.org/1999/xlink">
<g id="graph0" class="graph" transform="scale(1 1) rotate(0) translate(4 133)">
<title>Args::GroupIface</title>
<!-- Node1 -->
<g id="node1" class="node">
<title>Node1</title>
<g id="a_node1"><a xlink:title="Interface for the groups.">
<polygon fill="#bfbfbf" stroke="black" points="295,-74 197,-74 197,-55 295,-55 295,-74"/>
<text text-anchor="middle" x="246" y="-62" font-family="Helvetica,sans-Serif" font-size="10.00">Args::GroupIface</text>
</a>
</g>
</g>
<!-- Node3 -->
<g id="node3" class="node">
<title>Node3</title>
<g id="a_node3"><a xlink:href="class_args_1_1_all_of_group.html" target="_top" xlink:title="Group of args where all arguments should be defined.">
<polygon fill="none" stroke="black" points="98,-19 0,-19 0,0 98,0 98,-19"/>
<text text-anchor="middle" x="49" y="-7" font-family="Helvetica,sans-Serif" font-size="10.00">Args::AllOfGroup</text>
</a>
</g>
</g>
<!-- Node1&#45;&gt;Node3 -->
<g id="edge2" class="edge">
<title>Node1&#45;&gt;Node3</title>
<path fill="none" stroke="midnightblue" d="M204.41,-52.31C167.55,-42.39 114.5,-28.12 80.9,-19.08"/>
<polygon fill="midnightblue" stroke="midnightblue" points="203.78,-55.77 214.35,-54.98 205.6,-49.01 203.78,-55.77"/>
</g>
<!-- Node4 -->
<g id="node4" class="node">
<title>Node4</title>
<g id="a_node4"><a xlink:href="class_args_1_1_at_least_one_group.html" target="_top" xlink:title="Group of args where at least one argument should be defined.">
<polygon fill="none" stroke="black" points="246,-19 116,-19 116,0 246,0 246,-19"/>
<text text-anchor="middle" x="181" y="-7" font-family="Helvetica,sans-Serif" font-size="10.00">Args::AtLeastOneGroup</text>
</a>
</g>
</g>
<!-- Node1&#45;&gt;Node4 -->
<g id="edge3" class="edge">
<title>Node1&#45;&gt;Node4</title>
<path fill="none" stroke="midnightblue" d="M227.73,-48.6C216.08,-39.11 201.4,-27.13 191.63,-19.17"/>
<polygon fill="midnightblue" stroke="midnightblue" points="225.59,-51.38 235.56,-54.98 230.02,-45.95 225.59,-51.38"/>
</g>
<!-- Node5 -->
<g id="node5" class="node">
<title>Node5</title>
<g id="a_node5"><a xlink:href="class_args_1_1_command.html" target="_top" xlink:title="Command in the command line interface.">
<polygon fill="none" stroke="black" points="359.5,-19 264.5,-19 264.5,0 359.5,0 359.5,-19"/>
<text text-anchor="middle" x="312" y="-7" font-family="Helvetica,sans-Serif" font-size="10.00">Args::Command</text>
</a>
</g>
</g>
<!-- Node1&#45;&gt;Node5 -->
<g id="edge4" class="edge">
<title>Node1&#45;&gt;Node5</title>
<path fill="none" stroke="midnightblue" d="M264.55,-48.6C276.38,-39.11 291.29,-27.13 301.2,-19.17"/>
<polygon fill="midnightblue" stroke="midnightblue" points="262.21,-45.99 256.6,-54.98 266.59,-51.45 262.21,-45.99"/>
</g>
<!-- Node6 -->
<g id="node6" class="node">
<title>Node6</title>
<g id="a_node6"><a xlink:href="class_args_1_1_only_one_group.html" target="_top" xlink:title="Group of args where only one argument can be defined.">
<polygon fill="none" stroke="black" points="494,-19 378,-19 378,0 494,0 494,-19"/>
<text text-anchor="middle" x="436" y="-7" font-family="Helvetica,sans-Serif" font-size="10.00">Args::OnlyOneGroup</text>
</a>
</g>
</g>
<!-- Node1&#45;&gt;Node6 -->
<g id="edge5" class="edge">
<title>Node1&#45;&gt;Node6</title>
<path fill="none" stroke="midnightblue" d="M286.57,-52.18C322.1,-42.27 372.97,-28.08 405.23,-19.08"/>
<polygon fill="midnightblue" stroke="midnightblue" points="285.22,-48.93 276.53,-54.98 287.1,-55.67 285.22,-48.93"/>
</g>
<!-- Node2 -->
<g id="node2" class="node">
<title>Node2</title>
<g id="a_node2"><a xlink:href="class_args_1_1_arg_iface.html" target="_top" xlink:title="Interface for arguments.">
<polygon fill="none" stroke="black" points="288.5,-129 203.5,-129 203.5,-110 288.5,-110 288.5,-129"/>
<text text-anchor="middle" x="246" y="-117" font-family="Helvetica,sans-Serif" font-size="10.00">Args::ArgIface</text>
</a>
</g>
</g>
<!-- Node2&#45;&gt;Node1 -->
<g id="edge1" class="edge">
<title>Node2&#45;&gt;Node1</title>
<path fill="none" stroke="midnightblue" d="M246,-99.66C246,-90.93 246,-80.99 246,-74.09"/>
<polygon fill="midnightblue" stroke="midnightblue" points="242.5,-99.75 246,-109.75 249.5,-99.75 242.5,-99.75"/>
</g>
</g>
</svg>
