<?xml version="1.0" encoding="UTF-8" standalone="no"?>
<!DOCTYPE svg PUBLIC "-//W3C//DTD SVG 1.1//EN"
 "http://www.w3.org/Graphics/SVG/1.1/DTD/svg11.dtd">
<!-- Generated by graphviz version 2.43.0 (0)
 -->
<!-- Title: Args::ArgIface Pages: 1 -->
<svg width="393pt" height="218pt"
 viewBox="0.00 0.00 393.00 218.00" xmlns="http://www.w3.org/2000/svg" xmlns:xlink="http://www.w3.org/1999/xlink">
<g id="graph0" class="graph" transform="scale(1 1) rotate(0) translate(4 214)">
<title>Args::ArgIface</title>
<!-- Node1 -->
<g id="node1" class="node">
<title>Node1</title>
<g id="a_node1"><a xlink:title="Interface for arguments.">
<polygon fill="#bfbfbf" stroke="black" points="0,-114.5 0,-133.5 85,-133.5 85,-114.5 0,-114.5"/>
<text text-anchor="middle" x="42.5" y="-121.5" font-family="Helvetica,sans-Serif" font-size="10.00">Args::ArgIface</text>
</a>
</g>
</g>
<!-- Node2 -->
<g id="node2" class="node">
<title>Node2</title>
<g id="a_node2"><a xlink:href="class_args_1_1_arg.html" target="_top" xlink:title="Argument with one value that can be present only once in the command line.">
<polygon fill="none" stroke="black" points="139.5,-152.5 139.5,-171.5 200.5,-171.5 200.5,-152.5 139.5,-152.5"/>
<text text-anchor="middle" x="170" y="-159.5" font-family="Helvetica,sans-Serif" font-size="10.00">Args::Arg</text>
</a>
</g>
</g>
<!-- Node1&#45;&gt;Node2 -->
<g id="edge1" class="edge">
<title>Node1&#45;&gt;Node2</title>
<path fill="none" stroke="midnightblue" d="M84.79,-136.5C102.67,-141.91 123.19,-148.13 139.5,-153.07"/>
<polygon fill="midnightblue" stroke="midnightblue" points="85.75,-133.14 75.17,-133.59 83.73,-139.84 85.75,-133.14"/>
</g>
<!-- Node5 -->
<g id="node5" class="node">
<title>Node5</title>
<g id="a_node5"><a xlink:href="class_args_1_1_group_iface.html" target="_top" xlink:title="Interface for the groups.">
<polygon fill="none" stroke="black" points="121,-76.5 121,-95.5 219,-95.5 219,-76.5 121,-76.5"/>
<text text-anchor="middle" x="170" y="-83.5" font-family="Helvetica,sans-Serif" font-size="10.00">Args::GroupIface</text>
</a>
</g>
</g>
<!-- Node1&#45;&gt;Node5 -->
<g id="edge4" class="edge">
<title>Node1&#45;&gt;Node5</title>
<path fill="none" stroke="midnightblue" d="M84.9,-111.46C101.97,-106.3 121.44,-100.4 137.34,-95.59"/>
<polygon fill="midnightblue" stroke="midnightblue" points="83.73,-108.16 75.17,-114.41 85.75,-114.86 83.73,-108.16"/>
</g>
<!-- Node3 -->
<g id="node3" class="node">
<title>Node3</title>
<g id="a_node3"><a xlink:href="class_args_1_1_help.html" target="_top" xlink:title="Help argument.">
<polygon fill="none" stroke="black" points="286.5,-190.5 286.5,-209.5 353.5,-209.5 353.5,-190.5 286.5,-190.5"/>
<text text-anchor="middle" x="320" y="-197.5" font-family="Helvetica,sans-Serif" font-size="10.00">Args::Help</text>
</a>
</g>
</g>
<!-- Node2&#45;&gt;Node3 -->
<g id="edge2" class="edge">
<title>Node2&#45;&gt;Node3</title>
<path fill="none" stroke="midnightblue" d="M210.35,-172.1C234.08,-178.2 263.96,-185.87 286.37,-191.62"/>
<polygon fill="midnightblue" stroke="midnightblue" points="211.15,-168.7 200.59,-169.6 209.41,-175.48 211.15,-168.7"/>
</g>
<!-- Node4 -->
<g id="node4" class="node">
<title>Node4</title>
<g id="a_node4"><a xlink:href="class_args_1_1_multi_arg.html" target="_top" xlink:title="MultiArg is a class that presents argument in the command line taht can be presented more than once o...">
<polygon fill="none" stroke="black" points="277,-152.5 277,-171.5 363,-171.5 363,-152.5 277,-152.5"/>
<text text-anchor="middle" x="320" y="-159.5" font-family="Helvetica,sans-Serif" font-size="10.00">Args::MultiArg</text>
</a>
</g>
</g>
<!-- Node2&#45;&gt;Node4 -->
<g id="edge3" class="edge">
<title>Node2&#45;&gt;Node4</title>
<path fill="none" stroke="midnightblue" d="M210.82,-162C231.24,-162 256.1,-162 276.84,-162"/>
<polygon fill="midnightblue" stroke="midnightblue" points="210.59,-158.5 200.59,-162 210.59,-165.5 210.59,-158.5"/>
</g>
<!-- Node6 -->
<g id="node6" class="node">
<title>Node6</title>
<g id="a_node6"><a xlink:href="class_args_1_1_all_of_group.html" target="_top" xlink:title="Group of args where all arguments should be defined.">
<polygon fill="none" stroke="black" points="271,-114.5 271,-133.5 369,-133.5 369,-114.5 271,-114.5"/>
<text text-anchor="middle" x="320" y="-121.5" font-family="Helvetica,sans-Serif" font-size="10.00">Args::AllOfGroup</text>
</a>
</g>
</g>
<!-- Node5&#45;&gt;Node6 -->
<g id="edge5" class="edge">
<title>Node5&#45;&gt;Node6</title>
<path fill="none" stroke="midnightblue" d="M218.17,-98.11C238.79,-103.4 262.61,-109.52 281.92,-114.48"/>
<polygon fill="midnightblue" stroke="midnightblue" points="218.9,-94.69 208.35,-95.59 217.16,-101.47 218.9,-94.69"/>
</g>
<!-- Node7 -->
<g id="node7" class="node">
<title>Node7</title>
<g id="a_node7"><a xlink:href="class_args_1_1_at_least_one_group.html" target="_top" xlink:title="Group of args where at least one argument should be defined.">
<polygon fill="none" stroke="black" points="255,-76.5 255,-95.5 385,-95.5 385,-76.5 255,-76.5"/>
<text text-anchor="middle" x="320" y="-83.5" font-family="Helvetica,sans-Serif" font-size="10.00">Args::AtLeastOneGroup</text>
</a>
</g>
</g>
<!-- Node5&#45;&gt;Node7 -->
<g id="edge6" class="edge">
<title>Node5&#45;&gt;Node7</title>
<path fill="none" stroke="midnightblue" d="M229.14,-86C237.55,-86 246.25,-86 254.77,-86"/>
<polygon fill="midnightblue" stroke="midnightblue" points="229.05,-82.5 219.05,-86 229.05,-89.5 229.05,-82.5"/>
</g>
<!-- Node8 -->
<g id="node8" class="node">
<title>Node8</title>
<g id="a_node8"><a xlink:href="class_args_1_1_command.html" target="_top" xlink:title="Command in the command line interface.">
<polygon fill="none" stroke="black" points="272.5,-38.5 272.5,-57.5 367.5,-57.5 367.5,-38.5 272.5,-38.5"/>
<text text-anchor="middle" x="320" y="-45.5" font-family="Helvetica,sans-Serif" font-size="10.00">Args::Command</text>
</a>
</g>
</g>
<!-- Node5&#45;&gt;Node8 -->
<g id="edge7" class="edge">
<title>Node5&#45;&gt;Node8</title>
<path fill="none" stroke="midnightblue" d="M218.17,-73.89C238.79,-68.6 262.61,-62.48 281.92,-57.52"/>
<polygon fill="midnightblue" stroke="midnightblue" points="217.16,-70.53 208.35,-76.41 218.9,-77.31 217.16,-70.53"/>
</g>
<!-- Node9 -->
<g id="node9" class="node">
<title>Node9</title>
<g id="a_node9"><a xlink:href="class_args_1_1_only_one_group.html" target="_top" xlink:title="Group of args where only one argument can be defined.">
<polygon fill="none" stroke="black" points="262,-0.5 262,-19.5 378,-19.5 378,-0.5 262,-0.5"/>
<text text-anchor="middle" x="320" y="-7.5" font-family="Helvetica,sans-Serif" font-size="10.00">Args::OnlyOneGroup</text>
</a>
</g>
</g>
<!-- Node5&#45;&gt;Node9 -->
<g id="edge8" class="edge">
<title>Node5&#45;&gt;Node9</title>
<path fill="none" stroke="midnightblue" d="M190.76,-70C207.15,-57.39 231.48,-40.14 255,-29 262.75,-25.33 271.37,-22.19 279.7,-19.59"/>
<polygon fill="midnightblue" stroke="midnightblue" points="188.24,-67.53 182.54,-76.46 192.56,-73.04 188.24,-67.53"/>
</g>
</g>
</svg>
