<?xml version="1.0" encoding="UTF-8" standalone="no"?>
<!DOCTYPE svg PUBLIC "-//W3C//DTD SVG 1.1//EN"
 "http://www.w3.org/Graphics/SVG/1.1/DTD/svg11.dtd">
<!-- Generated by graphviz version 14.1.2 (0)
 -->
<!-- Title: Args::OnlyOneGroup Pages: 1 -->
<svg width="115pt" height="140pt"
 viewBox="0.00 0.00 115.00 140.00" xmlns="http://www.w3.org/2000/svg" xmlns:xlink="http://www.w3.org/1999/xlink">
<g id="graph0" class="graph" transform="scale(1 1) rotate(0) translate(4 136)">
<title>Args::OnlyOneGroup</title>
<!-- Node1 -->
<g id="Node000001" class="node">
<title>Node1</title>
<g id="a_Node000001"><a xlink:title="Group of args where only one argument can be defined.">
<polygon fill="#999999" stroke="#666666" points="106.75,-20 0,-20 0,0 106.75,0 106.75,-20"/>
<text xml:space="preserve" text-anchor="middle" x="53.38" y="-6.5" font-family="Helvetica,sans-Serif" font-size="10.00">Args::OnlyOneGroup</text>
</a>
</g>
</g>
<!-- Node2 -->
<g id="Node000002" class="node">
<title>Node2</title>
<g id="a_Node000002"><a xlink:href="class_args_1_1_group_iface.html" target="_top" xlink:title="Interface for the groups.">
<polygon fill="white" stroke="#666666" points="98.5,-76 8.25,-76 8.25,-56 98.5,-56 98.5,-76"/>
<text xml:space="preserve" text-anchor="middle" x="53.38" y="-62.5" font-family="Helvetica,sans-Serif" font-size="10.00">Args::GroupIface</text>
</a>
</g>
</g>
<!-- Node2&#45;&gt;Node1 -->
<g id="edge1_Node000001_Node000002" class="edge">
<title>Node2&#45;&gt;Node1</title>
<g id="a_edge1_Node000001_Node000002"><a xlink:title=" ">
<path fill="none" stroke="#63b8ff" d="M53.38,-44.13C53.38,-35.9 53.38,-26.85 53.38,-20.3"/>
<polygon fill="#63b8ff" stroke="#63b8ff" points="49.88,-44.08 53.38,-54.08 56.88,-44.08 49.88,-44.08"/>
</a>
</g>
</g>
<!-- Node3 -->
<g id="Node000003" class="node">
<title>Node3</title>
<g id="a_Node000003"><a xlink:href="class_args_1_1_arg_iface.html" target="_top" xlink:title="Interface for arguments.">
<polygon fill="white" stroke="#666666" points="92.88,-132 13.88,-132 13.88,-112 92.88,-112 92.88,-132"/>
<text xml:space="preserve" text-anchor="middle" x="53.38" y="-118.5" font-family="Helvetica,sans-Serif" font-size="10.00">Args::ArgIface</text>
</a>
</g>
</g>
<!-- Node3&#45;&gt;Node2 -->
<g id="edge2_Node000002_Node000003" class="edge">
<title>Node3&#45;&gt;Node2</title>
<g id="a_edge2_Node000002_Node000003"><a xlink:title=" ">
<path fill="none" stroke="#63b8ff" d="M53.38,-100.13C53.38,-91.9 53.38,-82.85 53.38,-76.3"/>
<polygon fill="#63b8ff" stroke="#63b8ff" points="49.88,-100.08 53.38,-110.08 56.88,-100.08 49.88,-100.08"/>
</a>
</g>
</g>
</g>
</svg>
