<?xml version="1.0" encoding="UTF-8" standalone="no"?>
<!DOCTYPE svg PUBLIC "-//W3C//DTD SVG 1.1//EN"
 "http://www.w3.org/Graphics/SVG/1.1/DTD/svg11.dtd">
<!-- Generated by graphviz version 2.43.0 (0)
 -->
<!-- Title: Args::ArgIface Pages: 1 -->
<svg width="393pt" height="212pt"
 viewBox="0.00 0.00 393.00 212.00" xmlns="http://www.w3.org/2000/svg" xmlns:xlink="http://www.w3.org/1999/xlink">
<g id="graph0" class="graph" transform="scale(1 1) rotate(0) translate(4 208)">
<title>Args::ArgIface</title>
<!-- Node1 -->
<g id="Node000001" class="node">
<title>Node1</title>
<g id="a_Node000001"><a xlink:title="Interface for arguments.">
<polygon fill="#999999" stroke="#666666" points="85,-130 0,-130 0,-111 85,-111 85,-130"/>
<text text-anchor="middle" x="42.5" y="-118" font-family="Helvetica,sans-Serif" font-size="10.00">Args::ArgIface</text>
</a>
</g>
</g>
<!-- Node2 -->
<g id="Node000002" class="node">
<title>Node2</title>
<g id="a_Node000002"><a xlink:href="class_args_1_1_arg.html" target="_top" xlink:title="Argument with one value that can be present only once in the command line.">
<polygon fill="white" stroke="#666666" points="200.5,-167 139.5,-167 139.5,-148 200.5,-148 200.5,-167"/>
<text text-anchor="middle" x="170" y="-155" font-family="Helvetica,sans-Serif" font-size="10.00">Args::Arg</text>
</a>
</g>
</g>
<!-- Node1&#45;&gt;Node2 -->
<g id="edge1_Node000001_Node000002" class="edge">
<title>Node1&#45;&gt;Node2</title>
<g id="a_edge1_Node000001_Node000002"><a xlink:title=" ">
<path fill="none" stroke="#63b8ff" d="M85.84,-132.98C103.42,-138.17 123.4,-144.06 139.37,-148.76"/>
<polygon fill="#63b8ff" stroke="#63b8ff" points="86.4,-129.5 75.82,-130.03 84.42,-136.21 86.4,-129.5"/>
</a>
</g>
</g>
<!-- Node5 -->
<g id="Node000005" class="node">
<title>Node5</title>
<g id="a_Node000005"><a xlink:href="class_args_1_1_group_iface.html" target="_top" xlink:title="Interface for the groups.">
<polygon fill="white" stroke="#666666" points="219,-93 121,-93 121,-74 219,-74 219,-93"/>
<text text-anchor="middle" x="170" y="-81" font-family="Helvetica,sans-Serif" font-size="10.00">Args::GroupIface</text>
</a>
</g>
</g>
<!-- Node1&#45;&gt;Node5 -->
<g id="edge4_Node000001_Node000005" class="edge">
<title>Node1&#45;&gt;Node5</title>
<g id="a_edge4_Node000001_Node000005"><a xlink:title=" ">
<path fill="none" stroke="#63b8ff" d="M85.78,-108.04C102.28,-103.17 120.91,-97.68 136.35,-93.12"/>
<polygon fill="#63b8ff" stroke="#63b8ff" points="84.42,-104.79 75.82,-110.97 86.4,-111.5 84.42,-104.79"/>
</a>
</g>
</g>
<!-- Node3 -->
<g id="Node000003" class="node">
<title>Node3</title>
<g id="a_Node000003"><a xlink:href="class_args_1_1_help.html" target="_top" xlink:title="Help argument.">
<polygon fill="white" stroke="#666666" points="353.5,-204 286.5,-204 286.5,-185 353.5,-185 353.5,-204"/>
<text text-anchor="middle" x="320" y="-192" font-family="Helvetica,sans-Serif" font-size="10.00">Args::Help</text>
</a>
</g>
</g>
<!-- Node2&#45;&gt;Node3 -->
<g id="edge2_Node000002_Node000003" class="edge">
<title>Node2&#45;&gt;Node3</title>
<g id="a_edge2_Node000002_Node000003"><a xlink:title=" ">
<path fill="none" stroke="#63b8ff" d="M210.35,-167.34C234.08,-173.27 263.96,-180.74 286.37,-186.34"/>
<polygon fill="#63b8ff" stroke="#63b8ff" points="211.14,-163.93 200.59,-164.9 209.45,-170.72 211.14,-163.93"/>
</a>
</g>
</g>
<!-- Node4 -->
<g id="Node000004" class="node">
<title>Node4</title>
<g id="a_Node000004"><a xlink:href="class_args_1_1_multi_arg.html" target="_top" xlink:title="MultiArg is a class that presents argument in the command line taht can be presented more than once o...">
<polygon fill="white" stroke="#666666" points="363,-167 277,-167 277,-148 363,-148 363,-167"/>
<text text-anchor="middle" x="320" y="-155" font-family="Helvetica,sans-Serif" font-size="10.00">Args::MultiArg</text>
</a>
</g>
</g>
<!-- Node2&#45;&gt;Node4 -->
<g id="edge3_Node000002_Node000004" class="edge">
<title>Node2&#45;&gt;Node4</title>
<g id="a_edge3_Node000002_Node000004"><a xlink:title=" ">
<path fill="none" stroke="#63b8ff" d="M210.82,-157.5C231.24,-157.5 256.1,-157.5 276.84,-157.5"/>
<polygon fill="#63b8ff" stroke="#63b8ff" points="210.59,-154 200.59,-157.5 210.59,-161 210.59,-154"/>
</a>
</g>
</g>
<!-- Node6 -->
<g id="Node000006" class="node">
<title>Node6</title>
<g id="a_Node000006"><a xlink:href="class_args_1_1_all_of_group.html" target="_top" xlink:title="Group of args where all arguments should be defined.">
<polygon fill="white" stroke="#666666" points="369,-130 271,-130 271,-111 369,-111 369,-130"/>
<text text-anchor="middle" x="320" y="-118" font-family="Helvetica,sans-Serif" font-size="10.00">Args::AllOfGroup</text>
</a>
</g>
</g>
<!-- Node5&#45;&gt;Node6 -->
<g id="edge5_Node000005_Node000006" class="edge">
<title>Node5&#45;&gt;Node6</title>
<g id="a_edge5_Node000005_Node000006"><a xlink:title=" ">
<path fill="none" stroke="#63b8ff" d="M218.97,-95.49C238.99,-100.5 261.91,-106.23 280.76,-110.94"/>
<polygon fill="#63b8ff" stroke="#63b8ff" points="219.66,-92.06 209.11,-93.03 217.97,-98.85 219.66,-92.06"/>
</a>
</g>
</g>
<!-- Node7 -->
<g id="Node000007" class="node">
<title>Node7</title>
<g id="a_Node000007"><a xlink:href="class_args_1_1_at_least_one_group.html" target="_top" xlink:title="Group of args where at least one argument should be defined.">
<polygon fill="white" stroke="#666666" points="385,-93 255,-93 255,-74 385,-74 385,-93"/>
<text text-anchor="middle" x="320" y="-81" font-family="Helvetica,sans-Serif" font-size="10.00">Args::AtLeastOneGroup</text>
</a>
</g>
</g>
<!-- Node5&#45;&gt;Node7 -->
<g id="edge6_Node000005_Node000007" class="edge">
<title>Node5&#45;&gt;Node7</title>
<g id="a_edge6_Node000005_Node000007"><a xlink:title=" ">
<path fill="none" stroke="#63b8ff" d="M229.14,-83.5C237.55,-83.5 246.25,-83.5 254.77,-83.5"/>
<polygon fill="#63b8ff" stroke="#63b8ff" points="229.05,-80 219.05,-83.5 229.05,-87 229.05,-80"/>
</a>
</g>
</g>
<!-- Node8 -->
<g id="Node000008" class="node">
<title>Node8</title>
<g id="a_Node000008"><a xlink:href="class_args_1_1_command.html" target="_top" xlink:title="Command in the command line interface.">
<polygon fill="white" stroke="#666666" points="367.5,-56 272.5,-56 272.5,-37 367.5,-37 367.5,-56"/>
<text text-anchor="middle" x="320" y="-44" font-family="Helvetica,sans-Serif" font-size="10.00">Args::Command</text>
</a>
</g>
</g>
<!-- Node5&#45;&gt;Node8 -->
<g id="edge7_Node000005_Node000008" class="edge">
<title>Node5&#45;&gt;Node8</title>
<g id="a_edge7_Node000005_Node000008"><a xlink:title=" ">
<path fill="none" stroke="#63b8ff" d="M218.97,-71.51C238.99,-66.5 261.91,-60.77 280.76,-56.06"/>
<polygon fill="#63b8ff" stroke="#63b8ff" points="217.97,-68.15 209.11,-73.97 219.66,-74.94 217.97,-68.15"/>
</a>
</g>
</g>
<!-- Node9 -->
<g id="Node000009" class="node">
<title>Node9</title>
<g id="a_Node000009"><a xlink:href="class_args_1_1_only_one_group.html" target="_top" xlink:title="Group of args where only one argument can be defined.">
<polygon fill="white" stroke="#666666" points="378,-19 262,-19 262,0 378,0 378,-19"/>
<text text-anchor="middle" x="320" y="-7" font-family="Helvetica,sans-Serif" font-size="10.00">Args::OnlyOneGroup</text>
</a>
</g>
</g>
<!-- Node5&#45;&gt;Node9 -->
<g id="edge8_Node000005_Node000009" class="edge">
<title>Node5&#45;&gt;Node9</title>
<g id="a_edge8_Node000005_Node000009"><a xlink:title=" ">
<path fill="none" stroke="#63b8ff" d="M191.42,-67.68C207.85,-55.58 231.92,-39.2 255,-28.5 262.89,-24.84 271.64,-21.7 280.09,-19.08"/>
<polygon fill="#63b8ff" stroke="#63b8ff" points="189.03,-65.1 183.14,-73.9 193.23,-70.7 189.03,-65.1"/>
</a>
</g>
</g>
</g>
</svg>
