<?xml version="1.0" encoding="UTF-8" standalone="no"?>
<!DOCTYPE svg PUBLIC "-//W3C//DTD SVG 1.1//EN"
 "http://www.w3.org/Graphics/SVG/1.1/DTD/svg11.dtd">
<!-- Generated by graphviz version 14.1.2 (0)
 -->
<!-- Title: Args::ArgIface Pages: 1 -->
<svg width="370pt" height="218pt"
 viewBox="0.00 0.00 370.00 218.00" xmlns="http://www.w3.org/2000/svg" xmlns:xlink="http://www.w3.org/1999/xlink">
<g id="graph0" class="graph" transform="scale(1 1) rotate(0) translate(4 214)">
<title>Args::ArgIface</title>
<!-- Node1 -->
<g id="Node000001" class="node">
<title>Node1</title>
<g id="a_Node000001"><a xlink:title="Interface for arguments.">
<polygon fill="#999999" stroke="#666666" points="79,-134 0,-134 0,-114 79,-114 79,-134"/>
<text xml:space="preserve" text-anchor="middle" x="39.5" y="-120.5" font-family="Helvetica,sans-Serif" font-size="10.00">Args::ArgIface</text>
</a>
</g>
</g>
<!-- Node2 -->
<g id="Node000002" class="node">
<title>Node2</title>
<g id="a_Node000002"><a xlink:href="class_args_1_1_arg.html" target="_top" xlink:title="Argument with one value that can be present only once in the command line.">
<polygon fill="white" stroke="#666666" points="188.75,-172 131.5,-172 131.5,-152 188.75,-152 188.75,-172"/>
<text xml:space="preserve" text-anchor="middle" x="160.12" y="-158.5" font-family="Helvetica,sans-Serif" font-size="10.00">Args::Arg</text>
</a>
</g>
</g>
<!-- Node1&#45;&gt;Node2 -->
<g id="edge1_Node000001_Node000002" class="edge">
<title>Node1&#45;&gt;Node2</title>
<g id="a_edge1_Node000001_Node000002"><a xlink:title=" ">
<path fill="none" stroke="#63b8ff" d="M83.87,-137.89C99.72,-142.97 117.2,-148.57 131.33,-153.09"/>
<polygon fill="#63b8ff" stroke="#63b8ff" points="85.26,-134.66 74.67,-134.95 83.13,-141.33 85.26,-134.66"/>
</a>
</g>
</g>
<!-- Node5 -->
<g id="Node000005" class="node">
<title>Node5</title>
<g id="a_Node000005"><a xlink:href="class_args_1_1_group_iface.html" target="_top" xlink:title="Interface for the groups.">
<polygon fill="white" stroke="#666666" points="205.25,-96 115,-96 115,-76 205.25,-76 205.25,-96"/>
<text xml:space="preserve" text-anchor="middle" x="160.12" y="-82.5" font-family="Helvetica,sans-Serif" font-size="10.00">Args::GroupIface</text>
</a>
</g>
</g>
<!-- Node1&#45;&gt;Node5 -->
<g id="edge4_Node000001_Node000005" class="edge">
<title>Node1&#45;&gt;Node5</title>
<g id="a_edge4_Node000001_Node000005"><a xlink:title=" ">
<path fill="none" stroke="#63b8ff" d="M84.13,-110.02C98.15,-105.53 113.42,-100.64 126.5,-96.45"/>
<polygon fill="#63b8ff" stroke="#63b8ff" points="83.13,-106.67 74.67,-113.05 85.26,-113.34 83.13,-106.67"/>
</a>
</g>
</g>
<!-- Node3 -->
<g id="Node000003" class="node">
<title>Node3</title>
<g id="a_Node000003"><a xlink:href="class_args_1_1_help.html" target="_top" xlink:title="Help argument.">
<polygon fill="white" stroke="#666666" points="332.62,-210 270.12,-210 270.12,-190 332.62,-190 332.62,-210"/>
<text xml:space="preserve" text-anchor="middle" x="301.38" y="-196.5" font-family="Helvetica,sans-Serif" font-size="10.00">Args::Help</text>
</a>
</g>
</g>
<!-- Node2&#45;&gt;Node3 -->
<g id="edge2_Node000002_Node000003" class="edge">
<title>Node2&#45;&gt;Node3</title>
<g id="a_edge2_Node000002_Node000003"><a xlink:title=" ">
<path fill="none" stroke="#63b8ff" d="M199.95,-172.6C221.98,-178.61 249.15,-186.02 269.67,-191.62"/>
<polygon fill="#63b8ff" stroke="#63b8ff" points="201,-169.25 190.43,-170 199.16,-176.01 201,-169.25"/>
</a>
</g>
</g>
<!-- Node4 -->
<g id="Node000004" class="node">
<title>Node4</title>
<g id="a_Node000004"><a xlink:href="class_args_1_1_multi_arg.html" target="_top" xlink:title="MultiArg is a class that presents argument in the command line taht can be presented more than once o...">
<polygon fill="white" stroke="#666666" points="340.5,-172 262.25,-172 262.25,-152 340.5,-152 340.5,-172"/>
<text xml:space="preserve" text-anchor="middle" x="301.38" y="-158.5" font-family="Helvetica,sans-Serif" font-size="10.00">Args::MultiArg</text>
</a>
</g>
</g>
<!-- Node2&#45;&gt;Node4 -->
<g id="edge3_Node000002_Node000004" class="edge">
<title>Node2&#45;&gt;Node4</title>
<g id="a_edge3_Node000002_Node000004"><a xlink:title=" ">
<path fill="none" stroke="#63b8ff" d="M200.37,-162C219.58,-162 242.64,-162 261.77,-162"/>
<polygon fill="#63b8ff" stroke="#63b8ff" points="200.48,-158.5 190.48,-162 200.48,-165.5 200.48,-158.5"/>
</a>
</g>
</g>
<!-- Node6 -->
<g id="Node000006" class="node">
<title>Node6</title>
<g id="a_Node000006"><a xlink:href="class_args_1_1_all_of_group.html" target="_top" xlink:title="Group of args where all arguments should be defined.">
<polygon fill="white" stroke="#666666" points="346.5,-134 256.25,-134 256.25,-114 346.5,-114 346.5,-134"/>
<text xml:space="preserve" text-anchor="middle" x="301.38" y="-120.5" font-family="Helvetica,sans-Serif" font-size="10.00">Args::AllOfGroup</text>
</a>
</g>
</g>
<!-- Node5&#45;&gt;Node6 -->
<g id="edge5_Node000005_Node000006" class="edge">
<title>Node5&#45;&gt;Node6</title>
<g id="a_edge5_Node000005_Node000006"><a xlink:title=" ">
<path fill="none" stroke="#63b8ff" d="M210.4,-99.45C227.37,-104.08 246.11,-109.19 262.08,-113.55"/>
<polygon fill="#63b8ff" stroke="#63b8ff" points="211.57,-96.14 201,-96.88 209.73,-102.89 211.57,-96.14"/>
</a>
</g>
</g>
<!-- Node7 -->
<g id="Node000007" class="node">
<title>Node7</title>
<g id="a_Node000007"><a xlink:href="class_args_1_1_at_least_one_group.html" target="_top" xlink:title="Group of args where at least one argument should be defined.">
<polygon fill="white" stroke="#666666" points="361.5,-96 241.25,-96 241.25,-76 361.5,-76 361.5,-96"/>
<text xml:space="preserve" text-anchor="middle" x="301.38" y="-82.5" font-family="Helvetica,sans-Serif" font-size="10.00">Args::AtLeastOneGroup</text>
</a>
</g>
</g>
<!-- Node5&#45;&gt;Node7 -->
<g id="edge6_Node000005_Node000007" class="edge">
<title>Node5&#45;&gt;Node7</title>
<g id="a_edge6_Node000005_Node000007"><a xlink:title=" ">
<path fill="none" stroke="#63b8ff" d="M216.89,-86C224.77,-86 232.9,-86 240.86,-86"/>
<polygon fill="#63b8ff" stroke="#63b8ff" points="217.08,-82.5 207.08,-86 217.08,-89.5 217.08,-82.5"/>
</a>
</g>
</g>
<!-- Node8 -->
<g id="Node000008" class="node">
<title>Node8</title>
<g id="a_Node000008"><a xlink:href="class_args_1_1_command.html" target="_top" xlink:title="Command in the command line interface.">
<polygon fill="white" stroke="#666666" points="345,-58 257.75,-58 257.75,-38 345,-38 345,-58"/>
<text xml:space="preserve" text-anchor="middle" x="301.38" y="-44.5" font-family="Helvetica,sans-Serif" font-size="10.00">Args::Command</text>
</a>
</g>
</g>
<!-- Node5&#45;&gt;Node8 -->
<g id="edge7_Node000005_Node000008" class="edge">
<title>Node5&#45;&gt;Node8</title>
<g id="a_edge7_Node000005_Node000008"><a xlink:title=" ">
<path fill="none" stroke="#63b8ff" d="M210.4,-72.55C227.37,-67.92 246.11,-62.81 262.08,-58.45"/>
<polygon fill="#63b8ff" stroke="#63b8ff" points="209.73,-69.11 201,-75.12 211.57,-75.86 209.73,-69.11"/>
</a>
</g>
</g>
<!-- Node9 -->
<g id="Node000009" class="node">
<title>Node9</title>
<g id="a_Node000009"><a xlink:href="class_args_1_1_only_one_group.html" target="_top" xlink:title="Group of args where only one argument can be defined.">
<polygon fill="white" stroke="#666666" points="354.75,-20 248,-20 248,0 354.75,0 354.75,-20"/>
<text xml:space="preserve" text-anchor="middle" x="301.38" y="-6.5" font-family="Helvetica,sans-Serif" font-size="10.00">Args::OnlyOneGroup</text>
</a>
</g>
</g>
<!-- Node5&#45;&gt;Node9 -->
<g id="edge8_Node000005_Node000009" class="edge">
<title>Node5&#45;&gt;Node9</title>
<g id="a_edge8_Node000005_Node000009"><a xlink:title=" ">
<path fill="none" stroke="#63b8ff" d="M181.88,-68.52C197.42,-56.12 219.64,-39.83 241.25,-29 247.71,-25.76 254.84,-22.92 261.84,-20.48"/>
<polygon fill="#63b8ff" stroke="#63b8ff" points="179.84,-65.66 174.3,-74.69 184.26,-71.09 179.84,-65.66"/>
</a>
</g>
</g>
</g>
</svg>
