<?xml version="1.0" encoding="UTF-8" standalone="no"?>
<!DOCTYPE svg PUBLIC "-//W3C//DTD SVG 1.1//EN"
 "http://www.w3.org/Graphics/SVG/1.1/DTD/svg11.dtd">
<!-- Generated by graphviz version 2.38.0 (20140413.2041)
 -->
<!-- Title: Args::GroupIface Pages: 1 -->
<svg width="468pt" height="140pt"
 viewBox="0.00 0.00 468.00 140.00" xmlns="http://www.w3.org/2000/svg" xmlns:xlink="http://www.w3.org/1999/xlink">
<g id="graph0" class="graph" transform="scale(1 1) rotate(0) translate(4 136)">
<title>Args::GroupIface</title>
<!-- Node1 -->
<g id="node1" class="node"><title>Node1</title>
<polygon fill="#bfbfbf" stroke="black" points="185,-56.5 185,-75.5 276,-75.5 276,-56.5 185,-56.5"/>
<text text-anchor="middle" x="230.5" y="-63.5" font-family="Helvetica,sans-Serif" font-size="10.00">Args::GroupIface</text>
</g>
<!-- Node3 -->
<g id="node3" class="node"><title>Node3</title>
<g id="a_node3"><a xlink:href="class_args_1_1_all_of_group.html" target="_top" xlink:title="Group of args where all arguments should be defined. ">
<polygon fill="none" stroke="black" points="0,-0.5 0,-19.5 91,-19.5 91,-0.5 0,-0.5"/>
<text text-anchor="middle" x="45.5" y="-7.5" font-family="Helvetica,sans-Serif" font-size="10.00">Args::AllOfGroup</text>
</a>
</g>
</g>
<!-- Node1&#45;&gt;Node3 -->
<g id="edge2" class="edge"><title>Node1&#45;&gt;Node3</title>
<path fill="none" stroke="midnightblue" d="M191.334,-53.5677C156.435,-43.381 106.151,-28.7034 74.6767,-19.5164"/>
<polygon fill="midnightblue" stroke="midnightblue" points="190.606,-57.0013 201.186,-56.4435 192.567,-50.2817 190.606,-57.0013"/>
</g>
<!-- Node4 -->
<g id="node4" class="node"><title>Node4</title>
<g id="a_node4"><a xlink:href="class_args_1_1_at_least_one_group.html" target="_top" xlink:title="Group of args where at least one argument should be defined. ">
<polygon fill="none" stroke="black" points="109,-0.5 109,-19.5 230,-19.5 230,-0.5 109,-0.5"/>
<text text-anchor="middle" x="169.5" y="-7.5" font-family="Helvetica,sans-Serif" font-size="10.00">Args::AtLeastOneGroup</text>
</a>
</g>
</g>
<!-- Node1&#45;&gt;Node4 -->
<g id="edge3" class="edge"><title>Node1&#45;&gt;Node4</title>
<path fill="none" stroke="midnightblue" d="M213.033,-49.5372C202.156,-39.9087 188.556,-27.8694 179.479,-19.8339"/>
<polygon fill="midnightblue" stroke="midnightblue" points="210.892,-52.3162 220.699,-56.324 215.532,-47.0749 210.892,-52.3162"/>
</g>
<!-- Node5 -->
<g id="node5" class="node"><title>Node5</title>
<g id="a_node5"><a xlink:href="class_args_1_1_command.html" target="_top" xlink:title="Command in the command line interface. ">
<polygon fill="none" stroke="black" points="247.5,-0.5 247.5,-19.5 335.5,-19.5 335.5,-0.5 247.5,-0.5"/>
<text text-anchor="middle" x="291.5" y="-7.5" font-family="Helvetica,sans-Serif" font-size="10.00">Args::Command</text>
</a>
</g>
</g>
<!-- Node1&#45;&gt;Node5 -->
<g id="edge4" class="edge"><title>Node1&#45;&gt;Node5</title>
<path fill="none" stroke="midnightblue" d="M247.967,-49.5372C258.844,-39.9087 272.444,-27.8694 281.521,-19.8339"/>
<polygon fill="midnightblue" stroke="midnightblue" points="245.468,-47.0749 240.301,-56.324 250.108,-52.3162 245.468,-47.0749"/>
</g>
<!-- Node6 -->
<g id="node6" class="node"><title>Node6</title>
<g id="a_node6"><a xlink:href="class_args_1_1_only_one_group.html" target="_top" xlink:title="Group of args where only one argument can be defined. ">
<polygon fill="none" stroke="black" points="353,-0.5 353,-19.5 460,-19.5 460,-0.5 353,-0.5"/>
<text text-anchor="middle" x="406.5" y="-7.5" font-family="Helvetica,sans-Serif" font-size="10.00">Args::OnlyOneGroup</text>
</a>
</g>
</g>
<!-- Node1&#45;&gt;Node6 -->
<g id="edge5" class="edge"><title>Node1&#45;&gt;Node6</title>
<path fill="none" stroke="midnightblue" d="M268.189,-53.4363C301.372,-43.2551 348.928,-28.664 378.743,-19.5164"/>
<polygon fill="midnightblue" stroke="midnightblue" points="266.921,-50.1642 258.388,-56.4435 268.975,-56.8563 266.921,-50.1642"/>
</g>
<!-- Node2 -->
<g id="node2" class="node"><title>Node2</title>
<g id="a_node2"><a xlink:href="class_args_1_1_arg_iface.html" target="_top" xlink:title="Interface for arguments. ">
<polygon fill="none" stroke="black" points="190.5,-112.5 190.5,-131.5 270.5,-131.5 270.5,-112.5 190.5,-112.5"/>
<text text-anchor="middle" x="230.5" y="-119.5" font-family="Helvetica,sans-Serif" font-size="10.00">Args::ArgIface</text>
</a>
</g>
</g>
<!-- Node2&#45;&gt;Node1 -->
<g id="edge1" class="edge"><title>Node2&#45;&gt;Node1</title>
<path fill="none" stroke="midnightblue" d="M230.5,-101.805C230.5,-92.9102 230.5,-82.7798 230.5,-75.7511"/>
<polygon fill="midnightblue" stroke="midnightblue" points="227,-102.083 230.5,-112.083 234,-102.083 227,-102.083"/>
</g>
</g>
</svg>
