<?xml version="1.0" encoding="UTF-8" standalone="no"?>
<!DOCTYPE svg PUBLIC "-//W3C//DTD SVG 1.1//EN"
 "http://www.w3.org/Graphics/SVG/1.1/DTD/svg11.dtd">
<!-- Generated by graphviz version 2.38.0 (20140413.2041)
 -->
<!-- Title: Args::Command Pages: 1 -->
<svg width="97pt" height="140pt"
 viewBox="0.00 0.00 97.00 140.00" xmlns="http://www.w3.org/2000/svg" xmlns:xlink="http://www.w3.org/1999/xlink">
<g id="graph0" class="graph" transform="scale(1 1) rotate(0) translate(4 136)">
<title>Args::Command</title>
<!-- Node1 -->
<g id="node1" class="node"><title>Node1</title>
<polygon fill="#bfbfbf" stroke="black" points="2,-0.5 2,-19.5 87,-19.5 87,-0.5 2,-0.5"/>
<text text-anchor="middle" x="44.5" y="-7.5" font-family="FreeSans" font-size="10.00">Args::Command</text>
</g>
<!-- Node2 -->
<g id="node2" class="node"><title>Node2</title>
<g id="a_node2"><a xlink:href="class_args_1_1_group_iface.html" target="_top" xlink:title="Interface for the groups. ">
<polygon fill="none" stroke="black" points="-7.10543e-15,-56.5 -7.10543e-15,-75.5 89,-75.5 89,-56.5 -7.10543e-15,-56.5"/>
<text text-anchor="middle" x="44.5" y="-63.5" font-family="FreeSans" font-size="10.00">Args::GroupIface</text>
</a>
</g>
</g>
<!-- Node2&#45;&gt;Node1 -->
<g id="edge1" class="edge"><title>Node2&#45;&gt;Node1</title>
<path fill="none" stroke="midnightblue" d="M44.5,-45.8045C44.5,-36.9102 44.5,-26.7798 44.5,-19.7511"/>
<polygon fill="midnightblue" stroke="midnightblue" points="41.0001,-46.083 44.5,-56.083 48.0001,-46.083 41.0001,-46.083"/>
</g>
<!-- Node3 -->
<g id="node3" class="node"><title>Node3</title>
<g id="a_node3"><a xlink:href="class_args_1_1_arg_iface.html" target="_top" xlink:title="Interface for arguments. ">
<polygon fill="none" stroke="black" points="6,-112.5 6,-131.5 83,-131.5 83,-112.5 6,-112.5"/>
<text text-anchor="middle" x="44.5" y="-119.5" font-family="FreeSans" font-size="10.00">Args::ArgIface</text>
</a>
</g>
</g>
<!-- Node3&#45;&gt;Node2 -->
<g id="edge2" class="edge"><title>Node3&#45;&gt;Node2</title>
<path fill="none" stroke="midnightblue" d="M44.5,-101.805C44.5,-92.9102 44.5,-82.7798 44.5,-75.7511"/>
<polygon fill="midnightblue" stroke="midnightblue" points="41.0001,-102.083 44.5,-112.083 48.0001,-102.083 41.0001,-102.083"/>
</g>
</g>
</svg>
