<?xml version="1.0" encoding="UTF-8" standalone="no"?>
<!DOCTYPE svg PUBLIC "-//W3C//DTD SVG 1.1//EN"
 "http://www.w3.org/Graphics/SVG/1.1/DTD/svg11.dtd">
<!-- Generated by graphviz version 14.1.2 (0)
 -->
<!-- Title: Args::GroupIface Pages: 1 -->
<svg width="467pt" height="140pt"
 viewBox="0.00 0.00 467.00 140.00" xmlns="http://www.w3.org/2000/svg" xmlns:xlink="http://www.w3.org/1999/xlink">
<g id="graph0" class="graph" transform="scale(1 1) rotate(0) translate(4 136)">
<title>Args::GroupIface</title>
<!-- Node1 -->
<g id="Node000001" class="node">
<title>Node1</title>
<g id="a_Node000001"><a xlink:title="Interface for the groups.">
<polygon fill="#999999" stroke="#666666" points="274.25,-76 184,-76 184,-56 274.25,-56 274.25,-76"/>
<text xml:space="preserve" text-anchor="middle" x="229.12" y="-62.5" font-family="Helvetica,sans-Serif" font-size="10.00">Args::GroupIface</text>
</a>
</g>
</g>
<!-- Node3 -->
<g id="Node000003" class="node">
<title>Node3</title>
<g id="a_Node000003"><a xlink:href="class_args_1_1_all_of_group.html" target="_top" xlink:title="Group of args where all arguments should be defined.">
<polygon fill="white" stroke="#666666" points="90.25,-20 0,-20 0,0 90.25,0 90.25,-20"/>
<text xml:space="preserve" text-anchor="middle" x="45.12" y="-6.5" font-family="Helvetica,sans-Serif" font-size="10.00">Args::AllOfGroup</text>
</a>
</g>
</g>
<!-- Node1&#45;&gt;Node3 -->
<g id="edge2_Node000001_Node000003" class="edge">
<title>Node1&#45;&gt;Node3</title>
<g id="a_edge2_Node000001_Node000003"><a xlink:title=" ">
<path fill="none" stroke="#63b8ff" d="M186.3,-52.43C153.05,-42.67 107.67,-29.35 77.43,-20.48"/>
<polygon fill="#63b8ff" stroke="#63b8ff" points="185.04,-55.71 195.62,-55.17 187.01,-48.99 185.04,-55.71"/>
</a>
</g>
</g>
<!-- Node4 -->
<g id="Node000004" class="node">
<title>Node4</title>
<g id="a_Node000004"><a xlink:href="class_args_1_1_at_least_one_group.html" target="_top" xlink:title="Group of args where at least one argument should be defined.">
<polygon fill="white" stroke="#666666" points="228.25,-20 108,-20 108,0 228.25,0 228.25,-20"/>
<text xml:space="preserve" text-anchor="middle" x="168.12" y="-6.5" font-family="Helvetica,sans-Serif" font-size="10.00">Args::AtLeastOneGroup</text>
</a>
</g>
</g>
<!-- Node1&#45;&gt;Node4 -->
<g id="edge3_Node000001_Node000004" class="edge">
<title>Node1&#45;&gt;Node4</title>
<g id="a_edge3_Node000001_Node000004"><a xlink:title=" ">
<path fill="none" stroke="#63b8ff" d="M210.06,-48.13C199.69,-38.94 187.25,-27.93 178.63,-20.3"/>
<polygon fill="#63b8ff" stroke="#63b8ff" points="207.56,-50.58 217.37,-54.59 212.2,-45.34 207.56,-50.58"/>
</a>
</g>
</g>
<!-- Node5 -->
<g id="Node000005" class="node">
<title>Node5</title>
<g id="a_Node000005"><a xlink:href="class_args_1_1_command.html" target="_top" xlink:title="Command in the command line interface.">
<polygon fill="white" stroke="#666666" points="333.75,-20 246.5,-20 246.5,0 333.75,0 333.75,-20"/>
<text xml:space="preserve" text-anchor="middle" x="290.12" y="-6.5" font-family="Helvetica,sans-Serif" font-size="10.00">Args::Command</text>
</a>
</g>
</g>
<!-- Node1&#45;&gt;Node5 -->
<g id="edge4_Node000001_Node000005" class="edge">
<title>Node1&#45;&gt;Node5</title>
<g id="a_edge4_Node000001_Node000005"><a xlink:title=" ">
<path fill="none" stroke="#63b8ff" d="M248.19,-48.13C258.56,-38.94 271,-27.93 279.62,-20.3"/>
<polygon fill="#63b8ff" stroke="#63b8ff" points="246.05,-45.34 240.88,-54.59 250.69,-50.58 246.05,-45.34"/>
</a>
</g>
</g>
<!-- Node6 -->
<g id="Node000006" class="node">
<title>Node6</title>
<g id="a_Node000006"><a xlink:href="class_args_1_1_only_one_group.html" target="_top" xlink:title="Group of args where only one argument can be defined.">
<polygon fill="white" stroke="#666666" points="458.5,-20 351.75,-20 351.75,0 458.5,0 458.5,-20"/>
<text xml:space="preserve" text-anchor="middle" x="405.12" y="-6.5" font-family="Helvetica,sans-Serif" font-size="10.00">Args::OnlyOneGroup</text>
</a>
</g>
</g>
<!-- Node1&#45;&gt;Node6 -->
<g id="edge5_Node000001_Node000006" class="edge">
<title>Node1&#45;&gt;Node6</title>
<g id="a_edge5_Node000001_Node000006"><a xlink:title=" ">
<path fill="none" stroke="#63b8ff" d="M270.5,-52.31C302.27,-42.56 345.43,-29.32 374.23,-20.48"/>
<polygon fill="#63b8ff" stroke="#63b8ff" points="269.76,-48.87 261.23,-55.15 271.82,-55.56 269.76,-48.87"/>
</a>
</g>
</g>
<!-- Node2 -->
<g id="Node000002" class="node">
<title>Node2</title>
<g id="a_Node000002"><a xlink:href="class_args_1_1_arg_iface.html" target="_top" xlink:title="Interface for arguments.">
<polygon fill="white" stroke="#666666" points="268.62,-132 189.62,-132 189.62,-112 268.62,-112 268.62,-132"/>
<text xml:space="preserve" text-anchor="middle" x="229.12" y="-118.5" font-family="Helvetica,sans-Serif" font-size="10.00">Args::ArgIface</text>
</a>
</g>
</g>
<!-- Node2&#45;&gt;Node1 -->
<g id="edge1_Node000001_Node000002" class="edge">
<title>Node2&#45;&gt;Node1</title>
<g id="a_edge1_Node000001_Node000002"><a xlink:title=" ">
<path fill="none" stroke="#63b8ff" d="M229.12,-100.13C229.12,-91.9 229.12,-82.85 229.12,-76.3"/>
<polygon fill="#63b8ff" stroke="#63b8ff" points="225.63,-100.08 229.13,-110.08 232.63,-100.08 225.63,-100.08"/>
</a>
</g>
</g>
</g>
</svg>
