<?xml version="1.0" encoding="UTF-8" standalone="no"?>
<!DOCTYPE svg PUBLIC "-//W3C//DTD SVG 1.1//EN"
 "http://www.w3.org/Graphics/SVG/1.1/DTD/svg11.dtd">
<!-- Generated by graphviz version 2.43.0 (0)
 -->
<!-- Title: cmd_line.hpp Pages: 1 -->
<!--zoomable 420 -->
<svg id="main" version="1.1" xmlns="http://www.w3.org/2000/svg" xmlns:xlink="http://www.w3.org/1999/xlink" xml:space="preserve" onload="init(evt)">
<style type="text/css"><![CDATA[
.edge:hover path { stroke: red; }
.edge:hover polygon { stroke: red; fill: red; }
]]></style>
<script type="text/javascript"><![CDATA[
var edges = document.getElementsByTagName('g');
if (edges && edges.length) {
  for (var i=0;i<edges.length;i++) {
    if (edges[i].id.substr(0,4)=='edge') {
      edges[i].setAttribute('class','edge');
    }
  }
}
]]></script>
        <defs>
                <circle id="rim" cx="0" cy="0" r="7"/>
                <circle id="rim2" cx="0" cy="0" r="3.5"/>
                <g id="zoomPlus">
                        <use xlink:href="#rim" fill="#404040">
                                <set attributeName="fill" to="#808080" begin="zoomplus.mouseover" end="zoomplus.mouseout"/>
                        </use>
                        <path d="M-4,0h8M0,-4v8" fill="none" stroke="white" stroke-width="1.5" pointer-events="none"/>
                </g>
                <g id="zoomMin">
                        <use xlink:href="#rim" fill="#404040">
                                <set attributeName="fill" to="#808080" begin="zoomminus.mouseover" end="zoomminus.mouseout"/>
                        </use>
                        <path d="M-4,0h8" fill="none" stroke="white" stroke-width="1.5" pointer-events="none"/>
                </g>
                <g id="dirArrow">
                        <path fill="none" stroke="white" stroke-width="1.5" d="M0,-3.0v7 M-2.5,-0.5L0,-3.0L2.5,-0.5"/>
                </g>
               <g id="resetDef">
                       <use xlink:href="#rim2" fill="#404040">
                               <set attributeName="fill" to="#808080" begin="reset.mouseover" end="reset.mouseout"/>
                       </use>
               </g>
        </defs>

<script type="text/javascript">
var viewWidth = 1617;
var viewHeight = 420;
var sectionId = 'dynsection-0';
</script>
<script xlink:href="svgpan.js"/>
<svg id="graph" class="graph">
<g id="viewport">
<title>cmd_line.hpp</title>
<!-- Node1 -->
<g id="node1" class="node">
<title>Node1</title>
<g id="a_node1"><a xlink:title=" ">
<polygon fill="#bfbfbf" stroke="black" points="1126.95,-392.5 1126.95,-411.5 1208.95,-411.5 1208.95,-392.5 1126.95,-392.5"/>
<text text-anchor="middle" x="1167.95" y="-399.5" font-family="Helvetica,sans-Serif" font-size="10.00">cmd_line.hpp</text>
</a>
</g>
</g>
<!-- Node2 -->
<g id="node2" class="node">
<title>Node2</title>
<g id="a_node2"><a xlink:href="api_8hpp.html" target="_top" xlink:title=" ">
<polygon fill="none" stroke="black" points="645.45,-336.5 645.45,-355.5 698.45,-355.5 698.45,-336.5 645.45,-336.5"/>
<text text-anchor="middle" x="671.95" y="-343.5" font-family="Helvetica,sans-Serif" font-size="10.00">api.hpp</text>
</a>
</g>
</g>
<!-- Node1&#45;&gt;Node2 -->
<g id="edge1" class="edge">
<title>Node1&#45;&gt;Node2</title>
<path fill="none" stroke="midnightblue" d="M1126.65,-399.11C1047.29,-395.02 867.94,-383.53 708.59,-356.05"/>
<polygon fill="midnightblue" stroke="midnightblue" points="709.06,-352.58 698.61,-354.31 707.86,-359.48 709.06,-352.58"/>
</g>
<!-- Node6 -->
<g id="node6" class="node">
<title>Node6</title>
<g id="a_node6"><a xlink:title=" ">
<polygon fill="none" stroke="#bfbfbf" points="1461.45,-0.5 1461.45,-19.5 1508.45,-19.5 1508.45,-0.5 1461.45,-0.5"/>
<text text-anchor="middle" x="1484.95" y="-7.5" font-family="Helvetica,sans-Serif" font-size="10.00">vector</text>
</a>
</g>
</g>
<!-- Node1&#45;&gt;Node6 -->
<g id="edge73" class="edge">
<title>Node1&#45;&gt;Node6</title>
<path fill="none" stroke="midnightblue" d="M1209.04,-399.49C1318.52,-394.34 1608.95,-372.97 1608.95,-291 1608.95,-291 1608.95,-291 1608.95,-121 1608.95,-72.26 1554.68,-39.87 1517.94,-23.52"/>
<polygon fill="midnightblue" stroke="midnightblue" points="1519.14,-20.23 1508.57,-19.52 1516.39,-26.67 1519.14,-20.23"/>
</g>
<!-- Node9 -->
<g id="node9" class="node">
<title>Node9</title>
<g id="a_node9"><a xlink:href="utils_8hpp.html" target="_top" xlink:title=" ">
<polygon fill="none" stroke="black" points="914.45,-112.5 914.45,-131.5 973.45,-131.5 973.45,-112.5 914.45,-112.5"/>
<text text-anchor="middle" x="943.95" y="-119.5" font-family="Helvetica,sans-Serif" font-size="10.00">utils.hpp</text>
</a>
</g>
</g>
<!-- Node1&#45;&gt;Node9 -->
<g id="edge59" class="edge">
<title>Node1&#45;&gt;Node9</title>
<path fill="none" stroke="midnightblue" d="M1209.03,-395.98C1296.86,-384.09 1494.95,-350.67 1494.95,-291 1494.95,-291 1494.95,-291 1494.95,-233 1494.95,-128.63 1109.97,-121.89 983.6,-122.48"/>
<polygon fill="midnightblue" stroke="midnightblue" points="983.55,-118.98 973.57,-122.55 983.6,-125.98 983.55,-118.98"/>
</g>
<!-- Node11 -->
<g id="node11" class="node">
<title>Node11</title>
<g id="a_node11"><a xlink:title=" ">
<polygon fill="none" stroke="#bfbfbf" points="1120.95,-56.5 1120.95,-75.5 1184.95,-75.5 1184.95,-56.5 1120.95,-56.5"/>
<text text-anchor="middle" x="1152.95" y="-63.5" font-family="Helvetica,sans-Serif" font-size="10.00">algorithm</text>
</a>
</g>
</g>
<!-- Node1&#45;&gt;Node11 -->
<g id="edge74" class="edge">
<title>Node1&#45;&gt;Node11</title>
<path fill="none" stroke="midnightblue" d="M1209.11,-397.38C1304.57,-387.84 1532.95,-358.01 1532.95,-291 1532.95,-291 1532.95,-291 1532.95,-177 1532.95,-107.34 1294.34,-79.01 1195.28,-70.25"/>
<polygon fill="midnightblue" stroke="midnightblue" points="1195.28,-66.73 1185.02,-69.37 1194.69,-73.71 1195.28,-66.73"/>
</g>
<!-- Node14 -->
<g id="node14" class="node">
<title>Node14</title>
<g id="a_node14"><a xlink:href="context_8hpp.html" target="_top" xlink:title=" ">
<polygon fill="none" stroke="black" points="230.95,-168.5 230.95,-187.5 304.95,-187.5 304.95,-168.5 230.95,-168.5"/>
<text text-anchor="middle" x="267.95" y="-175.5" font-family="Helvetica,sans-Serif" font-size="10.00">context.hpp</text>
</a>
</g>
</g>
<!-- Node1&#45;&gt;Node14 -->
<g id="edge60" class="edge">
<title>Node1&#45;&gt;Node14</title>
<path fill="none" stroke="midnightblue" d="M1126.79,-400C948.09,-395.22 245.57,-371.95 181.95,-300 150.29,-264.2 209.62,-216.78 244.73,-193.35"/>
<polygon fill="midnightblue" stroke="midnightblue" points="247,-196.05 253.48,-187.67 243.19,-190.18 247,-196.05"/>
</g>
<!-- Node16 -->
<g id="node16" class="node">
<title>Node16</title>
<g id="a_node16"><a xlink:href="exceptions_8hpp.html" target="_top" xlink:title=" ">
<polygon fill="none" stroke="black" points="45.45,-112.5 45.45,-131.5 136.45,-131.5 136.45,-112.5 45.45,-112.5"/>
<text text-anchor="middle" x="90.95" y="-119.5" font-family="Helvetica,sans-Serif" font-size="10.00">exceptions.hpp</text>
</a>
</g>
</g>
<!-- Node1&#45;&gt;Node16 -->
<g id="edge61" class="edge">
<title>Node1&#45;&gt;Node16</title>
<path fill="none" stroke="midnightblue" d="M1126.73,-400.52C933.82,-397.87 126.43,-381.89 53.95,-300 15.06,-256.06 33.46,-221.77 56.95,-168 61.55,-157.48 69.07,-147.15 75.87,-139.05"/>
<polygon fill="midnightblue" stroke="midnightblue" points="78.54,-141.31 82.54,-131.5 73.3,-136.68 78.54,-141.31"/>
</g>
<!-- Node22 -->
<g id="node22" class="node">
<title>Node22</title>
<g id="a_node22"><a xlink:title=" ">
<polygon fill="none" stroke="#bfbfbf" points="1256.95,-168.5 1256.95,-187.5 1314.95,-187.5 1314.95,-168.5 1256.95,-168.5"/>
<text text-anchor="middle" x="1285.95" y="-175.5" font-family="Helvetica,sans-Serif" font-size="10.00">memory</text>
</a>
</g>
</g>
<!-- Node1&#45;&gt;Node22 -->
<g id="edge75" class="edge">
<title>Node1&#45;&gt;Node22</title>
<path fill="none" stroke="midnightblue" d="M1209.34,-396.52C1263.81,-388.16 1357.57,-364.67 1399.95,-300 1429,-255.68 1357.73,-212.69 1315.11,-191.92"/>
<polygon fill="midnightblue" stroke="midnightblue" points="1316.52,-188.72 1305.98,-187.6 1313.52,-195.04 1316.52,-188.72"/>
</g>
<!-- Node23 -->
<g id="node23" class="node">
<title>Node23</title>
<g id="a_node23"><a xlink:href="command_8hpp.html" target="_top" xlink:title=" ">
<polygon fill="none" stroke="black" points="665.95,-280.5 665.95,-299.5 751.95,-299.5 751.95,-280.5 665.95,-280.5"/>
<text text-anchor="middle" x="708.95" y="-287.5" font-family="Helvetica,sans-Serif" font-size="10.00">command.hpp</text>
</a>
</g>
</g>
<!-- Node1&#45;&gt;Node23 -->
<g id="edge62" class="edge">
<title>Node1&#45;&gt;Node23</title>
<path fill="none" stroke="midnightblue" d="M1132.32,-392.46C1049.79,-372.68 845.64,-323.76 754.34,-301.88"/>
<polygon fill="midnightblue" stroke="midnightblue" points="755.1,-298.46 744.56,-299.53 753.47,-305.27 755.1,-298.46"/>
</g>
<!-- Node24 -->
<g id="node24" class="node">
<title>Node24</title>
<g id="a_node24"><a xlink:href="help_8hpp.html" target="_top" xlink:title=" ">
<polygon fill="none" stroke="black" points="716.45,-336.5 716.45,-355.5 775.45,-355.5 775.45,-336.5 716.45,-336.5"/>
<text text-anchor="middle" x="745.95" y="-343.5" font-family="Helvetica,sans-Serif" font-size="10.00">help.hpp</text>
</a>
</g>
</g>
<!-- Node1&#45;&gt;Node24 -->
<g id="edge63" class="edge">
<title>Node1&#45;&gt;Node24</title>
<path fill="none" stroke="midnightblue" d="M1126.72,-395.72C1045.54,-385.34 865.94,-362.35 785.85,-352.11"/>
<polygon fill="midnightblue" stroke="midnightblue" points="786.04,-348.6 775.68,-350.8 785.16,-355.55 786.04,-348.6"/>
</g>
<!-- Node26 -->
<g id="node26" class="node">
<title>Node26</title>
<g id="a_node26"><a xlink:href="help__printer_8hpp.html" target="_top" xlink:title=" ">
<polygon fill="none" stroke="black" points="1120.45,-336.5 1120.45,-355.5 1215.45,-355.5 1215.45,-336.5 1120.45,-336.5"/>
<text text-anchor="middle" x="1167.95" y="-343.5" font-family="Helvetica,sans-Serif" font-size="10.00">help_printer.hpp</text>
</a>
</g>
</g>
<!-- Node1&#45;&gt;Node26 -->
<g id="edge76" class="edge">
<title>Node1&#45;&gt;Node26</title>
<path fill="none" stroke="midnightblue" d="M1162.78,-392.08C1161.27,-384.93 1160.84,-374.64 1161.49,-365.69"/>
<polygon fill="midnightblue" stroke="midnightblue" points="1164.97,-366.13 1162.82,-355.75 1158.03,-365.2 1164.97,-366.13"/>
</g>
<!-- Node3 -->
<g id="node3" class="node">
<title>Node3</title>
<g id="a_node3"><a xlink:href="types_8hpp.html" target="_top" xlink:title=" ">
<polygon fill="none" stroke="black" points="438.45,-56.5 438.45,-75.5 503.45,-75.5 503.45,-56.5 438.45,-56.5"/>
<text text-anchor="middle" x="470.95" y="-63.5" font-family="Helvetica,sans-Serif" font-size="10.00">types.hpp</text>
</a>
</g>
</g>
<!-- Node2&#45;&gt;Node3 -->
<g id="edge2" class="edge">
<title>Node2&#45;&gt;Node3</title>
<path fill="none" stroke="midnightblue" d="M645.2,-345.01C532.15,-344.78 97.34,-341.21 53.95,-300 -6.92,-242.2 -20.27,-174.33 35.95,-112 61.91,-83.21 323.32,-71.72 427.97,-68.24"/>
<polygon fill="midnightblue" stroke="midnightblue" points="428.3,-71.74 438.18,-67.91 428.08,-64.74 428.3,-71.74"/>
</g>
<!-- Node7 -->
<g id="node7" class="node">
<title>Node7</title>
<g id="a_node7"><a xlink:href="arg_8hpp.html" target="_top" xlink:title=" ">
<polygon fill="none" stroke="black" points="467.45,-224.5 467.45,-243.5 520.45,-243.5 520.45,-224.5 467.45,-224.5"/>
<text text-anchor="middle" x="493.95" y="-231.5" font-family="Helvetica,sans-Serif" font-size="10.00">arg.hpp</text>
</a>
</g>
</g>
<!-- Node2&#45;&gt;Node7 -->
<g id="edge6" class="edge">
<title>Node2&#45;&gt;Node7</title>
<path fill="none" stroke="midnightblue" d="M645.38,-339.33C619.36,-332.86 579.44,-320.46 549.95,-300 531.48,-287.19 515.32,-266.89 505.17,-252.38"/>
<polygon fill="midnightblue" stroke="midnightblue" points="507.9,-250.16 499.4,-243.83 502.09,-254.07 507.9,-250.16"/>
</g>
<!-- Node19 -->
<g id="node19" class="node">
<title>Node19</title>
<g id="a_node19"><a xlink:href="multi__arg_8hpp.html" target="_top" xlink:title=" ">
<polygon fill="none" stroke="black" points="190.95,-280.5 190.95,-299.5 274.95,-299.5 274.95,-280.5 190.95,-280.5"/>
<text text-anchor="middle" x="232.95" y="-287.5" font-family="Helvetica,sans-Serif" font-size="10.00">multi_arg.hpp</text>
</a>
</g>
</g>
<!-- Node2&#45;&gt;Node19 -->
<g id="edge30" class="edge">
<title>Node2&#45;&gt;Node19</title>
<path fill="none" stroke="midnightblue" d="M645.43,-342.28C583.13,-335.79 422.57,-318.58 288.95,-300 287.69,-299.82 286.41,-299.64 285.12,-299.46"/>
<polygon fill="midnightblue" stroke="midnightblue" points="285.52,-295.98 275.12,-297.97 284.5,-302.9 285.52,-295.98"/>
</g>
<!-- Node20 -->
<g id="node20" class="node">
<title>Node20</title>
<g id="a_node20"><a xlink:href="groups_8hpp.html" target="_top" xlink:title=" ">
<polygon fill="none" stroke="black" points="939.45,-280.5 939.45,-299.5 1010.45,-299.5 1010.45,-280.5 939.45,-280.5"/>
<text text-anchor="middle" x="974.95" y="-287.5" font-family="Helvetica,sans-Serif" font-size="10.00">groups.hpp</text>
</a>
</g>
</g>
<!-- Node2&#45;&gt;Node20 -->
<g id="edge38" class="edge">
<title>Node2&#45;&gt;Node20</title>
<path fill="none" stroke="midnightblue" d="M698.65,-337.88C701.44,-337.21 704.25,-336.57 706.95,-336 784.4,-319.57 875.47,-305.34 929.02,-297.49"/>
<polygon fill="midnightblue" stroke="midnightblue" points="929.83,-300.91 939.22,-296.01 928.82,-293.99 929.83,-300.91"/>
</g>
<!-- Node2&#45;&gt;Node23 -->
<g id="edge51" class="edge">
<title>Node2&#45;&gt;Node23</title>
<path fill="none" stroke="midnightblue" d="M672.89,-336.08C676.55,-328.38 683.95,-317.03 691.25,-307.65"/>
<polygon fill="midnightblue" stroke="midnightblue" points="694.12,-309.68 697.82,-299.75 688.74,-305.2 694.12,-309.68"/>
</g>
<!-- Node4 -->
<g id="node4" class="node">
<title>Node4</title>
<g id="a_node4"><a xlink:title=" ">
<polygon fill="none" stroke="#bfbfbf" points="413.95,-0.5 413.95,-19.5 457.95,-19.5 457.95,-0.5 413.95,-0.5"/>
<text text-anchor="middle" x="435.95" y="-7.5" font-family="Helvetica,sans-Serif" font-size="10.00">string</text>
</a>
</g>
</g>
<!-- Node3&#45;&gt;Node4 -->
<g id="edge3" class="edge">
<title>Node3&#45;&gt;Node4</title>
<path fill="none" stroke="midnightblue" d="M465.17,-56.08C460.28,-48.53 453.12,-37.49 447.12,-28.23"/>
<polygon fill="midnightblue" stroke="midnightblue" points="450,-26.24 441.62,-19.75 444.12,-30.05 450,-26.24"/>
</g>
<!-- Node5 -->
<g id="node5" class="node">
<title>Node5</title>
<g id="a_node5"><a xlink:title=" ">
<polygon fill="none" stroke="#bfbfbf" points="475.95,-0.5 475.95,-19.5 535.95,-19.5 535.95,-0.5 475.95,-0.5"/>
<text text-anchor="middle" x="505.95" y="-7.5" font-family="Helvetica,sans-Serif" font-size="10.00">iostream</text>
</a>
</g>
</g>
<!-- Node3&#45;&gt;Node5 -->
<g id="edge4" class="edge">
<title>Node3&#45;&gt;Node5</title>
<path fill="none" stroke="midnightblue" d="M476.73,-56.08C481.62,-48.53 488.78,-37.49 494.78,-28.23"/>
<polygon fill="midnightblue" stroke="midnightblue" points="497.78,-30.05 500.28,-19.75 491.9,-26.24 497.78,-30.05"/>
</g>
<!-- Node3&#45;&gt;Node6 -->
<g id="edge5" class="edge">
<title>Node3&#45;&gt;Node6</title>
<path fill="none" stroke="midnightblue" d="M503.54,-63.26C655.65,-55.16 1294.98,-21.12 1450.66,-12.83"/>
<polygon fill="midnightblue" stroke="midnightblue" points="1451.22,-16.3 1461.02,-12.27 1450.85,-9.31 1451.22,-16.3"/>
</g>
<!-- Node7&#45;&gt;Node3 -->
<g id="edge28" class="edge">
<title>Node7&#45;&gt;Node3</title>
<path fill="none" stroke="midnightblue" d="M474.04,-224.41C459.73,-217.04 441.49,-204.92 432.95,-188 417.73,-157.85 421.35,-143.72 432.95,-112 437.01,-100.91 445.14,-90.67 452.84,-82.76"/>
<polygon fill="midnightblue" stroke="midnightblue" points="455.43,-85.14 460.24,-75.7 450.59,-80.07 455.43,-85.14"/>
</g>
<!-- Node8 -->
<g id="node8" class="node">
<title>Node8</title>
<g id="a_node8"><a xlink:href="arg__iface_8hpp.html" target="_top" xlink:title=" ">
<polygon fill="none" stroke="black" points="737.45,-168.5 737.45,-187.5 820.45,-187.5 820.45,-168.5 737.45,-168.5"/>
<text text-anchor="middle" x="778.95" y="-175.5" font-family="Helvetica,sans-Serif" font-size="10.00">arg_iface.hpp</text>
</a>
</g>
</g>
<!-- Node7&#45;&gt;Node8 -->
<g id="edge7" class="edge">
<title>Node7&#45;&gt;Node8</title>
<path fill="none" stroke="midnightblue" d="M520.51,-227.97C567.53,-219.06 666.22,-200.36 727.12,-188.82"/>
<polygon fill="midnightblue" stroke="midnightblue" points="728.12,-192.19 737.29,-186.89 726.82,-185.32 728.12,-192.19"/>
</g>
<!-- Node7&#45;&gt;Node9 -->
<g id="edge15" class="edge">
<title>Node7&#45;&gt;Node9</title>
<path fill="none" stroke="midnightblue" d="M520.82,-230.74C589.95,-224.71 772.52,-207.39 829.95,-188 848.66,-181.68 894.33,-154.1 921.85,-136.96"/>
<polygon fill="midnightblue" stroke="midnightblue" points="923.8,-139.87 930.42,-131.59 920.09,-133.93 923.8,-139.87"/>
</g>
<!-- Node7&#45;&gt;Node11 -->
<g id="edge29" class="edge">
<title>Node7&#45;&gt;Node11</title>
<path fill="none" stroke="midnightblue" d="M520.82,-232.23C582.36,-229.94 737.85,-221.05 862.95,-188 965.06,-161.02 1078.58,-105.65 1127.86,-80.26"/>
<polygon fill="midnightblue" stroke="midnightblue" points="1129.57,-83.31 1136.83,-75.59 1126.34,-77.1 1129.57,-83.31"/>
</g>
<!-- Node7&#45;&gt;Node14 -->
<g id="edge16" class="edge">
<title>Node7&#45;&gt;Node14</title>
<path fill="none" stroke="midnightblue" d="M467.14,-226.59C429.23,-217.54 359.46,-200.87 313.38,-189.86"/>
<polygon fill="midnightblue" stroke="midnightblue" points="314.18,-186.45 303.64,-187.53 312.56,-193.26 314.18,-186.45"/>
</g>
<!-- Node7&#45;&gt;Node16 -->
<g id="edge20" class="edge">
<title>Node7&#45;&gt;Node16</title>
<path fill="none" stroke="midnightblue" d="M473.49,-224.49C440.42,-210.99 372.98,-184.52 313.95,-168 257.73,-152.27 192.08,-139.7 146.64,-131.89"/>
<polygon fill="midnightblue" stroke="midnightblue" points="147.13,-128.42 136.69,-130.2 145.96,-135.32 147.13,-128.42"/>
</g>
<!-- Node18 -->
<g id="node18" class="node">
<title>Node18</title>
<g id="a_node18"><a xlink:href="value__utils_8hpp.html" target="_top" xlink:title=" ">
<polygon fill="none" stroke="black" points="475.45,-168.5 475.45,-187.5 566.45,-187.5 566.45,-168.5 475.45,-168.5"/>
<text text-anchor="middle" x="520.95" y="-175.5" font-family="Helvetica,sans-Serif" font-size="10.00">value_utils.hpp</text>
</a>
</g>
</g>
<!-- Node7&#45;&gt;Node18 -->
<g id="edge23" class="edge">
<title>Node7&#45;&gt;Node18</title>
<path fill="none" stroke="midnightblue" d="M498.41,-224.08C502.1,-216.69 507.47,-205.95 512.05,-196.81"/>
<polygon fill="midnightblue" stroke="midnightblue" points="515.23,-198.26 516.58,-187.75 508.97,-195.13 515.23,-198.26"/>
</g>
<!-- Node8&#45;&gt;Node3 -->
<g id="edge13" class="edge">
<title>Node8&#45;&gt;Node3</title>
<path fill="none" stroke="midnightblue" d="M778.43,-168.26C777.08,-154.07 772.25,-126.19 754.95,-112 718.88,-82.41 584.1,-72.04 513.97,-68.6"/>
<polygon fill="midnightblue" stroke="midnightblue" points="513.85,-65.09 503.7,-68.12 513.53,-72.08 513.85,-65.09"/>
</g>
<!-- Node8&#45;&gt;Node9 -->
<g id="edge8" class="edge">
<title>Node8&#45;&gt;Node9</title>
<path fill="none" stroke="midnightblue" d="M805.1,-168.44C832.97,-159.32 877.3,-144.81 908.35,-134.65"/>
<polygon fill="midnightblue" stroke="midnightblue" points="909.51,-137.95 917.93,-131.52 907.34,-131.3 909.51,-137.95"/>
</g>
<!-- Node13 -->
<g id="node13" class="node">
<title>Node13</title>
<g id="a_node13"><a xlink:href="enums_8hpp.html" target="_top" xlink:title=" ">
<polygon fill="none" stroke="black" points="674.45,-112.5 674.45,-131.5 745.45,-131.5 745.45,-112.5 674.45,-112.5"/>
<text text-anchor="middle" x="709.95" y="-119.5" font-family="Helvetica,sans-Serif" font-size="10.00">enums.hpp</text>
</a>
</g>
</g>
<!-- Node8&#45;&gt;Node13 -->
<g id="edge14" class="edge">
<title>Node8&#45;&gt;Node13</title>
<path fill="none" stroke="midnightblue" d="M767.86,-168.32C757.46,-160.18 741.69,-147.84 729.23,-138.09"/>
<polygon fill="midnightblue" stroke="midnightblue" points="731.27,-135.24 721.24,-131.83 726.96,-140.75 731.27,-135.24"/>
</g>
<!-- Node9&#45;&gt;Node3 -->
<g id="edge10" class="edge">
<title>Node9&#45;&gt;Node3</title>
<path fill="none" stroke="midnightblue" d="M914.36,-117.62C833.46,-108.39 608.33,-82.68 513.7,-71.88"/>
<polygon fill="midnightblue" stroke="midnightblue" points="513.96,-68.39 503.63,-70.73 513.17,-75.34 513.96,-68.39"/>
</g>
<!-- Node10 -->
<g id="node10" class="node">
<title>Node10</title>
<g id="a_node10"><a xlink:title=" ">
<polygon fill="none" stroke="#bfbfbf" points="921.95,-56.5 921.95,-75.5 965.95,-75.5 965.95,-56.5 921.95,-56.5"/>
<text text-anchor="middle" x="943.95" y="-63.5" font-family="Helvetica,sans-Serif" font-size="10.00">regex</text>
</a>
</g>
</g>
<!-- Node9&#45;&gt;Node10 -->
<g id="edge9" class="edge">
<title>Node9&#45;&gt;Node10</title>
<path fill="none" stroke="midnightblue" d="M943.95,-112.08C943.95,-105.01 943.95,-94.86 943.95,-85.99"/>
<polygon fill="midnightblue" stroke="midnightblue" points="947.45,-85.75 943.95,-75.75 940.45,-85.75 947.45,-85.75"/>
</g>
<!-- Node9&#45;&gt;Node11 -->
<g id="edge11" class="edge">
<title>Node9&#45;&gt;Node11</title>
<path fill="none" stroke="midnightblue" d="M973.45,-113.38C1009.34,-104.1 1070.18,-88.39 1110.95,-77.85"/>
<polygon fill="midnightblue" stroke="midnightblue" points="1112.05,-81.18 1120.86,-75.29 1110.3,-74.4 1112.05,-81.18"/>
</g>
<!-- Node12 -->
<g id="node12" class="node">
<title>Node12</title>
<g id="a_node12"><a xlink:title=" ">
<polygon fill="none" stroke="#bfbfbf" points="1018.45,-56.5 1018.45,-75.5 1087.45,-75.5 1087.45,-56.5 1018.45,-56.5"/>
<text text-anchor="middle" x="1052.95" y="-63.5" font-family="Helvetica,sans-Serif" font-size="10.00">type_traits</text>
</a>
</g>
</g>
<!-- Node9&#45;&gt;Node12 -->
<g id="edge12" class="edge">
<title>Node9&#45;&gt;Node12</title>
<path fill="none" stroke="midnightblue" d="M961.46,-112.32C979.02,-103.62 1006.28,-90.12 1026.48,-80.11"/>
<polygon fill="midnightblue" stroke="midnightblue" points="1028.07,-83.23 1035.48,-75.65 1024.97,-76.96 1028.07,-83.23"/>
</g>
<!-- Node14&#45;&gt;Node3 -->
<g id="edge19" class="edge">
<title>Node14&#45;&gt;Node3</title>
<path fill="none" stroke="midnightblue" d="M272.35,-168.44C279.96,-154.51 296.88,-126.99 318.95,-112 351.82,-89.67 395.96,-78.22 428.2,-72.47"/>
<polygon fill="midnightblue" stroke="midnightblue" points="428.94,-75.9 438.22,-70.8 427.78,-68.99 428.94,-75.9"/>
</g>
<!-- Node14&#45;&gt;Node9 -->
<g id="edge18" class="edge">
<title>Node14&#45;&gt;Node9</title>
<path fill="none" stroke="midnightblue" d="M305.26,-174.02C422.54,-164.65 783.12,-135.85 903.99,-126.19"/>
<polygon fill="midnightblue" stroke="midnightblue" points="904.57,-129.66 914.26,-125.37 904.02,-122.68 904.57,-129.66"/>
</g>
<!-- Node15 -->
<g id="node15" class="node">
<title>Node15</title>
<g id="a_node15"><a xlink:title=" ">
<polygon fill="none" stroke="#bfbfbf" points="221.45,-112.5 221.45,-131.5 266.45,-131.5 266.45,-112.5 221.45,-112.5"/>
<text text-anchor="middle" x="243.95" y="-119.5" font-family="Helvetica,sans-Serif" font-size="10.00">utility</text>
</a>
</g>
</g>
<!-- Node14&#45;&gt;Node15 -->
<g id="edge17" class="edge">
<title>Node14&#45;&gt;Node15</title>
<path fill="none" stroke="midnightblue" d="M263.99,-168.08C260.74,-160.77 256.03,-150.18 252,-141.1"/>
<polygon fill="midnightblue" stroke="midnightblue" points="255.1,-139.47 247.84,-131.75 248.7,-142.31 255.1,-139.47"/>
</g>
<!-- Node16&#45;&gt;Node3 -->
<g id="edge22" class="edge">
<title>Node16&#45;&gt;Node3</title>
<path fill="none" stroke="midnightblue" d="M136.48,-114.13C141.36,-113.4 146.26,-112.68 150.95,-112 250.14,-97.59 366.75,-81.37 428.14,-72.89"/>
<polygon fill="midnightblue" stroke="midnightblue" points="428.8,-76.33 438.23,-71.5 427.84,-69.4 428.8,-76.33"/>
</g>
<!-- Node17 -->
<g id="node17" class="node">
<title>Node17</title>
<g id="a_node17"><a xlink:title=" ">
<polygon fill="none" stroke="#bfbfbf" points="58.45,-56.5 58.45,-75.5 123.45,-75.5 123.45,-56.5 58.45,-56.5"/>
<text text-anchor="middle" x="90.95" y="-63.5" font-family="Helvetica,sans-Serif" font-size="10.00">stdexcept</text>
</a>
</g>
</g>
<!-- Node16&#45;&gt;Node17 -->
<g id="edge21" class="edge">
<title>Node16&#45;&gt;Node17</title>
<path fill="none" stroke="midnightblue" d="M90.95,-112.08C90.95,-105.01 90.95,-94.86 90.95,-85.99"/>
<polygon fill="midnightblue" stroke="midnightblue" points="94.45,-85.75 90.95,-75.75 87.45,-85.75 94.45,-85.75"/>
</g>
<!-- Node18&#45;&gt;Node3 -->
<g id="edge26" class="edge">
<title>Node18&#45;&gt;Node3</title>
<path fill="none" stroke="midnightblue" d="M517.03,-168.37C508.89,-150.46 490.01,-108.92 479.11,-84.95"/>
<polygon fill="midnightblue" stroke="midnightblue" points="482.18,-83.25 474.86,-75.59 475.81,-86.14 482.18,-83.25"/>
</g>
<!-- Node18&#45;&gt;Node9 -->
<g id="edge24" class="edge">
<title>Node18&#45;&gt;Node9</title>
<path fill="none" stroke="midnightblue" d="M566.62,-171.17C650.04,-160.52 825.68,-138.1 904.36,-128.05"/>
<polygon fill="midnightblue" stroke="midnightblue" points="904.88,-131.52 914.36,-126.78 904,-124.57 904.88,-131.52"/>
</g>
<!-- Node18&#45;&gt;Node11 -->
<g id="edge27" class="edge">
<title>Node18&#45;&gt;Node11</title>
<path fill="none" stroke="midnightblue" d="M535.47,-168.42C560.77,-153.93 615.03,-124.94 664.95,-112 851.46,-63.67 905.7,-99.3 1096.95,-76 1101.41,-75.46 1106.07,-74.82 1110.7,-74.14"/>
<polygon fill="midnightblue" stroke="midnightblue" points="1111.38,-77.58 1120.73,-72.61 1110.32,-70.66 1111.38,-77.58"/>
</g>
<!-- Node18&#45;&gt;Node16 -->
<g id="edge25" class="edge">
<title>Node18&#45;&gt;Node16</title>
<path fill="none" stroke="midnightblue" d="M475.34,-171.27C396,-161.31 232.84,-140.82 146.84,-130.02"/>
<polygon fill="midnightblue" stroke="midnightblue" points="147.1,-126.52 136.74,-128.75 146.23,-133.47 147.1,-126.52"/>
</g>
<!-- Node19&#45;&gt;Node3 -->
<g id="edge36" class="edge">
<title>Node19&#45;&gt;Node3</title>
<path fill="none" stroke="midnightblue" d="M228,-280.36C212.64,-252.31 169.32,-162.68 211.95,-112 239.07,-79.76 361.78,-70.62 428.1,-68.03"/>
<polygon fill="midnightblue" stroke="midnightblue" points="428.37,-71.52 438.24,-67.66 428.12,-64.52 428.37,-71.52"/>
</g>
<!-- Node19&#45;&gt;Node7 -->
<g id="edge31" class="edge">
<title>Node19&#45;&gt;Node7</title>
<path fill="none" stroke="midnightblue" d="M275.16,-280.55C319.48,-271.64 391.17,-257.1 452.95,-244 454.23,-243.73 455.54,-243.45 456.86,-243.17"/>
<polygon fill="midnightblue" stroke="midnightblue" points="458.02,-246.5 467.06,-240.96 456.54,-239.65 458.02,-246.5"/>
</g>
<!-- Node19&#45;&gt;Node9 -->
<g id="edge35" class="edge">
<title>Node19&#45;&gt;Node9</title>
<path fill="none" stroke="midnightblue" d="M275.23,-289.63C379.8,-289.65 656.98,-280.27 862.95,-188 889.01,-176.32 913.83,-154.21 928.97,-139.05"/>
<polygon fill="midnightblue" stroke="midnightblue" points="931.51,-141.46 935.96,-131.85 926.48,-136.59 931.51,-141.46"/>
</g>
<!-- Node19&#45;&gt;Node14 -->
<g id="edge32" class="edge">
<title>Node19&#45;&gt;Node14</title>
<path fill="none" stroke="midnightblue" d="M236.44,-280.46C240.06,-271.46 245.75,-256.86 249.95,-244 255.01,-228.52 259.88,-210.68 263.28,-197.61"/>
<polygon fill="midnightblue" stroke="midnightblue" points="266.67,-198.46 265.76,-187.91 259.89,-196.73 266.67,-198.46"/>
</g>
<!-- Node19&#45;&gt;Node15 -->
<g id="edge37" class="edge">
<title>Node19&#45;&gt;Node15</title>
<path fill="none" stroke="midnightblue" d="M230.32,-280.36C224.63,-260.34 212.39,-209.31 221.95,-168 224.18,-158.36 228.77,-148.41 233.19,-140.31"/>
<polygon fill="midnightblue" stroke="midnightblue" points="236.3,-141.92 238.31,-131.52 230.25,-138.4 236.3,-141.92"/>
</g>
<!-- Node19&#45;&gt;Node16 -->
<g id="edge33" class="edge">
<title>Node19&#45;&gt;Node16</title>
<path fill="none" stroke="midnightblue" d="M222.33,-280.18C212.05,-271.44 196.28,-257.46 183.95,-244 152.04,-209.16 119.46,-164.14 102.63,-140.04"/>
<polygon fill="midnightblue" stroke="midnightblue" points="105.36,-137.84 96.79,-131.61 99.61,-141.83 105.36,-137.84"/>
</g>
<!-- Node19&#45;&gt;Node18 -->
<g id="edge34" class="edge">
<title>Node19&#45;&gt;Node18</title>
<path fill="none" stroke="midnightblue" d="M255.55,-280.37C306.44,-260.93 430.17,-213.67 488.94,-191.23"/>
<polygon fill="midnightblue" stroke="midnightblue" points="490.36,-194.43 498.46,-187.59 487.87,-187.89 490.36,-194.43"/>
</g>
<!-- Node20&#45;&gt;Node3 -->
<g id="edge49" class="edge">
<title>Node20&#45;&gt;Node3</title>
<path fill="none" stroke="midnightblue" d="M952.98,-280.46C909.65,-263.52 810.23,-224.16 727.95,-188 642.81,-150.58 543.64,-102.63 497.32,-79.97"/>
<polygon fill="midnightblue" stroke="midnightblue" points="498.78,-76.79 488.26,-75.53 495.7,-83.07 498.78,-76.79"/>
</g>
<!-- Node20&#45;&gt;Node11 -->
<g id="edge50" class="edge">
<title>Node20&#45;&gt;Node11</title>
<path fill="none" stroke="midnightblue" d="M1010.46,-281.48C1046.85,-273.11 1100.15,-258.8 1114.95,-244 1157.87,-201.09 1157.66,-122.2 1154.97,-86.03"/>
<polygon fill="midnightblue" stroke="midnightblue" points="1158.44,-85.54 1154.06,-75.89 1151.47,-86.16 1158.44,-85.54"/>
</g>
<!-- Node21 -->
<g id="node21" class="node">
<title>Node21</title>
<g id="a_node21"><a xlink:href="group__iface_8hpp.html" target="_top" xlink:title=" ">
<polygon fill="none" stroke="black" points="1010.45,-224.5 1010.45,-243.5 1105.45,-243.5 1105.45,-224.5 1010.45,-224.5"/>
<text text-anchor="middle" x="1057.95" y="-231.5" font-family="Helvetica,sans-Serif" font-size="10.00">group_iface.hpp</text>
</a>
</g>
</g>
<!-- Node20&#45;&gt;Node21 -->
<g id="edge39" class="edge">
<title>Node20&#45;&gt;Node21</title>
<path fill="none" stroke="midnightblue" d="M988.29,-280.32C1001.11,-271.98 1020.74,-259.21 1035.89,-249.35"/>
<polygon fill="midnightblue" stroke="midnightblue" points="1038.17,-252.04 1044.65,-243.65 1034.36,-246.17 1038.17,-252.04"/>
</g>
<!-- Node21&#45;&gt;Node3 -->
<g id="edge43" class="edge">
<title>Node21&#45;&gt;Node3</title>
<path fill="none" stroke="midnightblue" d="M1055.55,-224.35C1048.67,-201.38 1026.52,-138.82 982.95,-112 943.44,-87.68 630.11,-73.17 514.02,-68.59"/>
<polygon fill="midnightblue" stroke="midnightblue" points="513.87,-65.08 503.74,-68.19 513.6,-72.07 513.87,-65.08"/>
</g>
<!-- Node21&#45;&gt;Node6 -->
<g id="edge44" class="edge">
<title>Node21&#45;&gt;Node6</title>
<path fill="none" stroke="midnightblue" d="M1074.43,-224.43C1139.54,-190.58 1379.24,-65.96 1458.97,-24.51"/>
<polygon fill="midnightblue" stroke="midnightblue" points="1461.03,-27.38 1468.29,-19.66 1457.81,-21.17 1461.03,-27.38"/>
</g>
<!-- Node21&#45;&gt;Node8 -->
<g id="edge40" class="edge">
<title>Node21&#45;&gt;Node8</title>
<path fill="none" stroke="midnightblue" d="M1013.74,-224.44C964.05,-214.82 883.44,-199.22 830.81,-189.04"/>
<polygon fill="midnightblue" stroke="midnightblue" points="831.16,-185.54 820.67,-187.08 829.83,-192.41 831.16,-185.54"/>
</g>
<!-- Node21&#45;&gt;Node9 -->
<g id="edge41" class="edge">
<title>Node21&#45;&gt;Node9</title>
<path fill="none" stroke="midnightblue" d="M1049.01,-224.37C1029.86,-205.89 984.67,-162.29 960.27,-138.74"/>
<polygon fill="midnightblue" stroke="midnightblue" points="962.48,-136.02 952.85,-131.59 957.62,-141.05 962.48,-136.02"/>
</g>
<!-- Node21&#45;&gt;Node11 -->
<g id="edge46" class="edge">
<title>Node21&#45;&gt;Node11</title>
<path fill="none" stroke="midnightblue" d="M1069.57,-224.48C1080.22,-216.17 1095.83,-202.67 1105.95,-188 1128.47,-155.34 1142.24,-110.38 1148.65,-85.48"/>
<polygon fill="midnightblue" stroke="midnightblue" points="1152.1,-86.11 1151.08,-75.57 1145.3,-84.45 1152.1,-86.11"/>
</g>
<!-- Node21&#45;&gt;Node12 -->
<g id="edge45" class="edge">
<title>Node21&#45;&gt;Node12</title>
<path fill="none" stroke="midnightblue" d="M1066.97,-224.34C1075.02,-215.93 1086.25,-202.36 1090.95,-188 1103.05,-151.03 1080.36,-107.46 1065.13,-84.01"/>
<polygon fill="midnightblue" stroke="midnightblue" points="1067.88,-81.84 1059.37,-75.53 1062.09,-85.77 1067.88,-81.84"/>
</g>
<!-- Node21&#45;&gt;Node15 -->
<g id="edge47" class="edge">
<title>Node21&#45;&gt;Node15</title>
<path fill="none" stroke="midnightblue" d="M1010.42,-228.13C946.06,-221.17 827.77,-207.07 727.95,-188 691.53,-181.04 683.45,-174.52 646.95,-168 510.78,-143.69 346.23,-130.19 277.08,-125.22"/>
<polygon fill="midnightblue" stroke="midnightblue" points="277.05,-121.71 266.82,-124.5 276.55,-128.7 277.05,-121.71"/>
</g>
<!-- Node21&#45;&gt;Node16 -->
<g id="edge42" class="edge">
<title>Node21&#45;&gt;Node16</title>
<path fill="none" stroke="midnightblue" d="M1010.42,-230.3C933.5,-225.38 777.18,-213.05 646.95,-188 614.34,-181.73 607.61,-174.01 574.95,-168 533.76,-160.43 265.43,-137.54 146.98,-127.64"/>
<polygon fill="midnightblue" stroke="midnightblue" points="146.94,-124.13 136.68,-126.78 146.35,-131.1 146.94,-124.13"/>
</g>
<!-- Node21&#45;&gt;Node22 -->
<g id="edge48" class="edge">
<title>Node21&#45;&gt;Node22</title>
<path fill="none" stroke="midnightblue" d="M1094.08,-224.44C1135.81,-214.56 1204.21,-198.36 1247.08,-188.21"/>
<polygon fill="midnightblue" stroke="midnightblue" points="1247.94,-191.6 1256.87,-185.89 1246.33,-184.79 1247.94,-191.6"/>
</g>
<!-- Node23&#45;&gt;Node2 -->
<g id="edge52" class="edge">
<title>Node23&#45;&gt;Node2</title>
<path fill="none" stroke="midnightblue" d="M708.09,-299.75C704.49,-307.4 697.11,-318.74 689.81,-328.14"/>
<polygon fill="midnightblue" stroke="midnightblue" points="686.91,-326.15 683.23,-336.08 692.3,-330.62 686.91,-326.15"/>
</g>
<!-- Node23&#45;&gt;Node3 -->
<g id="edge58" class="edge">
<title>Node23&#45;&gt;Node3</title>
<path fill="none" stroke="midnightblue" d="M684.09,-280.45C624.73,-259.79 478.7,-207.43 465.95,-188 445.46,-156.76 455.82,-110.59 464.08,-85.27"/>
<polygon fill="midnightblue" stroke="midnightblue" points="467.5,-86.1 467.5,-75.51 460.89,-83.79 467.5,-86.1"/>
</g>
<!-- Node23&#45;&gt;Node9 -->
<g id="edge54" class="edge">
<title>Node23&#45;&gt;Node9</title>
<path fill="none" stroke="midnightblue" d="M734.09,-280.44C773.27,-266.15 849.69,-234.36 900.95,-188 915.81,-174.56 927.86,-154.92 935.39,-140.75"/>
<polygon fill="midnightblue" stroke="midnightblue" points="938.64,-142.07 940.04,-131.57 932.4,-138.91 938.64,-142.07"/>
</g>
<!-- Node23&#45;&gt;Node13 -->
<g id="edge57" class="edge">
<title>Node23&#45;&gt;Node13</title>
<path fill="none" stroke="midnightblue" d="M709,-280.08C709.16,-253.95 709.62,-177.21 709.84,-141.58"/>
<polygon fill="midnightblue" stroke="midnightblue" points="713.34,-141.59 709.9,-131.57 706.34,-141.55 713.34,-141.59"/>
</g>
<!-- Node23&#45;&gt;Node14 -->
<g id="edge55" class="edge">
<title>Node23&#45;&gt;Node14</title>
<path fill="none" stroke="midnightblue" d="M665.89,-283.32C615.55,-276.2 529.95,-262.65 457.95,-244 401.04,-229.25 336.65,-205.73 299.34,-191.39"/>
<polygon fill="midnightblue" stroke="midnightblue" points="300.15,-187.95 289.56,-187.6 297.63,-194.48 300.15,-187.95"/>
</g>
<!-- Node23&#45;&gt;Node18 -->
<g id="edge56" class="edge">
<title>Node23&#45;&gt;Node18</title>
<path fill="none" stroke="midnightblue" d="M694.2,-280.37C661.66,-261.33 583.53,-215.62 544.28,-192.65"/>
<polygon fill="midnightblue" stroke="midnightblue" points="546.03,-189.62 535.63,-187.59 542.5,-195.66 546.03,-189.62"/>
</g>
<!-- Node23&#45;&gt;Node21 -->
<g id="edge53" class="edge">
<title>Node23&#45;&gt;Node21</title>
<path fill="none" stroke="midnightblue" d="M752.09,-282.32C814.67,-272.64 930.74,-254.68 1000.5,-243.89"/>
<polygon fill="midnightblue" stroke="midnightblue" points="1001.1,-247.34 1010.45,-242.35 1000.03,-240.42 1001.1,-247.34"/>
</g>
<!-- Node24&#45;&gt;Node3 -->
<g id="edge70" class="edge">
<title>Node24&#45;&gt;Node3</title>
<path fill="none" stroke="midnightblue" d="M715.99,-337.36C650.77,-320.28 498.54,-277.85 457.95,-244 411.34,-205.13 398.33,-167.47 422.95,-112 428.33,-99.89 438.69,-89.51 448.41,-81.79"/>
<polygon fill="midnightblue" stroke="midnightblue" points="450.69,-84.46 456.65,-75.7 446.53,-78.83 450.69,-84.46"/>
</g>
<!-- Node24&#45;&gt;Node7 -->
<g id="edge64" class="edge">
<title>Node24&#45;&gt;Node7</title>
<path fill="none" stroke="midnightblue" d="M726.18,-336.37C681.92,-317.05 574.73,-270.26 522.93,-247.65"/>
<polygon fill="midnightblue" stroke="midnightblue" points="524.2,-244.38 513.63,-243.59 521.4,-250.8 524.2,-244.38"/>
</g>
<!-- Node24&#45;&gt;Node9 -->
<g id="edge68" class="edge">
<title>Node24&#45;&gt;Node9</title>
<path fill="none" stroke="midnightblue" d="M760.2,-336.26C793.6,-315.05 877.56,-257.46 922.95,-188 932.18,-173.88 937.63,-155.4 940.66,-141.75"/>
<polygon fill="midnightblue" stroke="midnightblue" points="944.15,-142.11 942.66,-131.62 937.29,-140.76 944.15,-142.11"/>
</g>
<!-- Node24&#45;&gt;Node14 -->
<g id="edge67" class="edge">
<title>Node24&#45;&gt;Node14</title>
<path fill="none" stroke="midnightblue" d="M716.21,-337.74C713.1,-337.1 709.97,-336.5 706.95,-336 631.58,-323.38 432.02,-336.64 364.95,-300 321.58,-276.31 290.54,-224.39 276.44,-196.9"/>
<polygon fill="midnightblue" stroke="midnightblue" points="279.45,-195.08 271.88,-187.67 273.17,-198.18 279.45,-195.08"/>
</g>
<!-- Node24&#45;&gt;Node16 -->
<g id="edge69" class="edge">
<title>Node24&#45;&gt;Node16</title>
<path fill="none" stroke="midnightblue" d="M716.24,-337.59C713.12,-336.98 709.98,-336.43 706.95,-336 636.77,-325.99 118.64,-351.52 69.95,-300 28.55,-256.2 62.3,-176.59 80.82,-141.01"/>
<polygon fill="midnightblue" stroke="midnightblue" points="84.1,-142.31 85.77,-131.84 77.94,-138.98 84.1,-142.31"/>
</g>
<!-- Node24&#45;&gt;Node22 -->
<g id="edge72" class="edge">
<title>Node24&#45;&gt;Node22</title>
<path fill="none" stroke="midnightblue" d="M775.49,-342.79C848.56,-336.38 1042.22,-313.58 1185.95,-244 1215.69,-229.6 1247.2,-207.9 1266.73,-193.59"/>
<polygon fill="midnightblue" stroke="midnightblue" points="1268.87,-196.37 1274.81,-187.59 1264.69,-190.75 1268.87,-196.37"/>
</g>
<!-- Node24&#45;&gt;Node23 -->
<g id="edge71" class="edge">
<title>Node24&#45;&gt;Node23</title>
<path fill="none" stroke="midnightblue" d="M739.84,-336.08C734.67,-328.53 727.1,-317.49 720.76,-308.23"/>
<polygon fill="midnightblue" stroke="midnightblue" points="723.49,-306.02 714.95,-299.75 717.71,-309.98 723.49,-306.02"/>
</g>
<!-- Node25 -->
<g id="node25" class="node">
<title>Node25</title>
<g id="a_node25"><a xlink:href="help__printer__iface_8hpp.html" target="_top" xlink:title=" ">
<polygon fill="none" stroke="black" points="1105.45,-280.5 1105.45,-299.5 1230.45,-299.5 1230.45,-280.5 1105.45,-280.5"/>
<text text-anchor="middle" x="1167.95" y="-287.5" font-family="Helvetica,sans-Serif" font-size="10.00">help_printer_iface.hpp</text>
</a>
</g>
</g>
<!-- Node24&#45;&gt;Node25 -->
<g id="edge65" class="edge">
<title>Node24&#45;&gt;Node25</title>
<path fill="none" stroke="midnightblue" d="M775.62,-341.2C841.42,-332.78 1001.17,-312.34 1095.28,-300.3"/>
<polygon fill="midnightblue" stroke="midnightblue" points="1095.82,-303.76 1105.3,-299.02 1094.93,-296.82 1095.82,-303.76"/>
</g>
<!-- Node25&#45;&gt;Node9 -->
<g id="edge66" class="edge">
<title>Node25&#45;&gt;Node9</title>
<path fill="none" stroke="midnightblue" d="M1197,-280.45C1253.42,-262.47 1368.57,-218.22 1323.95,-168 1301.59,-142.84 1076.43,-129.31 983.62,-124.77"/>
<polygon fill="midnightblue" stroke="midnightblue" points="983.65,-121.27 973.49,-124.28 983.32,-128.26 983.65,-121.27"/>
</g>
<!-- Node26&#45;&gt;Node1 -->
<g id="edge87" class="edge">
<title>Node26&#45;&gt;Node1</title>
<path fill="none" stroke="midnightblue" d="M1173.08,-355.75C1174.61,-362.86 1175.06,-373.14 1174.42,-382.1"/>
<polygon fill="midnightblue" stroke="midnightblue" points="1170.94,-381.71 1173.12,-392.08 1177.88,-382.62 1170.94,-381.71"/>
</g>
<!-- Node26&#45;&gt;Node3 -->
<g id="edge85" class="edge">
<title>Node26&#45;&gt;Node3</title>
<path fill="none" stroke="midnightblue" d="M1196.67,-336.38C1219.51,-328.78 1251.7,-316.38 1276.95,-300 1335.09,-262.29 1404.94,-220.71 1359.95,-168 1304.3,-102.79 683.57,-74.94 513.7,-68.51"/>
<polygon fill="midnightblue" stroke="midnightblue" points="513.76,-65.01 503.63,-68.13 513.5,-72 513.76,-65.01"/>
</g>
<!-- Node26&#45;&gt;Node6 -->
<g id="edge77" class="edge">
<title>Node26&#45;&gt;Node6</title>
<path fill="none" stroke="midnightblue" d="M1215.76,-342.04C1322.51,-334.13 1570.95,-307.89 1570.95,-235 1570.95,-235 1570.95,-235 1570.95,-121 1570.95,-79.58 1532.64,-44.45 1507.16,-25.67"/>
<polygon fill="midnightblue" stroke="midnightblue" points="1508.95,-22.64 1498.77,-19.72 1504.9,-28.36 1508.95,-22.64"/>
</g>
<!-- Node26&#45;&gt;Node9 -->
<g id="edge80" class="edge">
<title>Node26&#45;&gt;Node9</title>
<path fill="none" stroke="midnightblue" d="M1186.51,-336.37C1216.84,-321.43 1277.31,-288.09 1313.95,-244 1336.96,-216.31 1365.93,-194.85 1341.95,-168 1318.34,-141.57 1079.95,-128.7 983.82,-124.55"/>
<polygon fill="midnightblue" stroke="midnightblue" points="983.77,-121.05 973.63,-124.12 983.47,-128.04 983.77,-121.05"/>
</g>
<!-- Node26&#45;&gt;Node11 -->
<g id="edge78" class="edge">
<title>Node26&#45;&gt;Node11</title>
<path fill="none" stroke="midnightblue" d="M1215.65,-340.39C1274.65,-333.9 1370.88,-320.53 1399.95,-300 1449.34,-265.11 1467.71,-217.49 1432.95,-168 1378.65,-90.69 1259.1,-72.29 1195.2,-68.09"/>
<polygon fill="midnightblue" stroke="midnightblue" points="1195.24,-64.59 1185.06,-67.51 1194.85,-71.57 1195.24,-64.59"/>
</g>
<!-- Node26&#45;&gt;Node16 -->
<g id="edge81" class="edge">
<title>Node26&#45;&gt;Node16</title>
<path fill="none" stroke="midnightblue" d="M1120.15,-343.45C925.53,-337.06 202.11,-312.51 181.95,-300 124.48,-264.34 101.69,-179.72 94.15,-141.87"/>
<polygon fill="midnightblue" stroke="midnightblue" points="97.54,-140.93 92.28,-131.73 90.65,-142.2 97.54,-140.93"/>
</g>
<!-- Node26&#45;&gt;Node20 -->
<g id="edge83" class="edge">
<title>Node26&#45;&gt;Node20</title>
<path fill="none" stroke="midnightblue" d="M1137.37,-336.44C1104.34,-327.2 1051.56,-312.44 1015.18,-302.26"/>
<polygon fill="midnightblue" stroke="midnightblue" points="1015.96,-298.84 1005.39,-299.52 1014.08,-305.58 1015.96,-298.84"/>
</g>
<!-- Node26&#45;&gt;Node21 -->
<g id="edge82" class="edge">
<title>Node26&#45;&gt;Node21</title>
<path fill="none" stroke="midnightblue" d="M1149.68,-336.46C1134.28,-328.59 1112.34,-315.77 1096.95,-300 1083.49,-286.21 1072.67,-266.92 1065.87,-252.94"/>
<polygon fill="midnightblue" stroke="midnightblue" points="1069.04,-251.45 1061.65,-243.86 1062.69,-254.4 1069.04,-251.45"/>
</g>
<!-- Node26&#45;&gt;Node23 -->
<g id="edge84" class="edge">
<title>Node26&#45;&gt;Node23</title>
<path fill="none" stroke="midnightblue" d="M1120.13,-339.37C1033.79,-329.22 852.5,-307.89 762.29,-297.28"/>
<polygon fill="midnightblue" stroke="midnightblue" points="762.62,-293.79 752.28,-296.1 761.8,-300.74 762.62,-293.79"/>
</g>
<!-- Node26&#45;&gt;Node25 -->
<g id="edge86" class="edge">
<title>Node26&#45;&gt;Node25</title>
<path fill="none" stroke="midnightblue" d="M1167.95,-336.08C1167.95,-329.01 1167.95,-318.86 1167.95,-309.99"/>
<polygon fill="midnightblue" stroke="midnightblue" points="1171.45,-309.75 1167.95,-299.75 1164.45,-309.75 1171.45,-309.75"/>
</g>
<!-- Node27 -->
<g id="node27" class="node">
<title>Node27</title>
<g id="a_node27"><a xlink:title=" ">
<polygon fill="none" stroke="#bfbfbf" points="1325.45,-280.5 1325.45,-299.5 1390.45,-299.5 1390.45,-280.5 1325.45,-280.5"/>
<text text-anchor="middle" x="1357.95" y="-287.5" font-family="Helvetica,sans-Serif" font-size="10.00">functional</text>
</a>
</g>
</g>
<!-- Node26&#45;&gt;Node27 -->
<g id="edge79" class="edge">
<title>Node26&#45;&gt;Node27</title>
<path fill="none" stroke="midnightblue" d="M1198.06,-336.44C1230.58,-327.2 1282.53,-312.44 1318.34,-302.26"/>
<polygon fill="midnightblue" stroke="midnightblue" points="1319.32,-305.62 1327.99,-299.52 1317.41,-298.88 1319.32,-305.62"/>
</g>
</g>
</svg>
        <g id="navigator" transform="translate(0 0)" fill="#404254">
                <rect fill="#f2f5e9" fill-opacity="0.5" stroke="#606060" stroke-width=".5" x="0" y="0" width="60" height="60"/>
                <use id="zoomplus" xlink:href="#zoomPlus" x="17" y="9" onmousedown="handleZoom(evt,'in')"/>
                <use id="zoomminus" xlink:href="#zoomMin" x="42" y="9" onmousedown="handleZoom(evt,'out')"/>
                <use id="reset" xlink:href="#resetDef" x="30" y="36" onmousedown="handleReset()"/>
                <g id="arrowUp" xlink:href="#dirArrow" transform="translate(30 24)" onmousedown="handlePan(0,-1)">
                  <use xlink:href="#rim" fill="#404040">
                        <set attributeName="fill" to="#808080" begin="arrowUp.mouseover" end="arrowUp.mouseout"/>
                  </use>
                  <path fill="none" stroke="white" stroke-width="1.5" d="M0,-3.0v7 M-2.5,-0.5L0,-3.0L2.5,-0.5"/>
                </g>
                <g id="arrowRight" xlink:href="#dirArrow" transform="rotate(90) translate(36 -43)" onmousedown="handlePan(1,0)">
                  <use xlink:href="#rim" fill="#404040">
                        <set attributeName="fill" to="#808080" begin="arrowRight.mouseover" end="arrowRight.mouseout"/>
                  </use>
                  <path fill="none" stroke="white" stroke-width="1.5" d="M0,-3.0v7 M-2.5,-0.5L0,-3.0L2.5,-0.5"/>
                </g>
                <g id="arrowDown" xlink:href="#dirArrow" transform="rotate(180) translate(-30 -48)" onmousedown="handlePan(0,1)">
                  <use xlink:href="#rim" fill="#404040">
                        <set attributeName="fill" to="#808080" begin="arrowDown.mouseover" end="arrowDown.mouseout"/>
                  </use>
                  <path fill="none" stroke="white" stroke-width="1.5" d="M0,-3.0v7 M-2.5,-0.5L0,-3.0L2.5,-0.5"/>
                </g>
                <g id="arrowLeft" xlink:href="#dirArrow" transform="rotate(270) translate(-36 17)" onmousedown="handlePan(-1,0)">
                  <use xlink:href="#rim" fill="#404040">
                        <set attributeName="fill" to="#808080" begin="arrowLeft.mouseover" end="arrowLeft.mouseout"/>
                  </use>
                  <path fill="none" stroke="white" stroke-width="1.5" d="M0,-3.0v7 M-2.5,-0.5L0,-3.0L2.5,-0.5"/>
                </g>
        </g>
        <svg viewBox="0 0 15 15" width="100%" height="30px" preserveAspectRatio="xMaxYMin meet">
         <g id="arrow_out" transform="scale(0.3 0.3)">
          <a xlink:href="cmd__line_8hpp__incl_org.svg" target="_base">
           <rect id="button" ry="5" rx="5" y="6" x="6" height="38" width="38"
                fill="#f2f5e9" fill-opacity="0.5" stroke="#606060" stroke-width="1.0"/>
           <path id="arrow"
             d="M 11.500037,31.436501 C 11.940474,20.09759 22.043105,11.32322 32.158766,21.979434 L 37.068811,17.246167 C 37.068811,17.246167 37.088388,32 37.088388,32 L 22.160133,31.978069 C 22.160133,31.978069 26.997745,27.140456 26.997745,27.140456 C 18.528582,18.264221 13.291696,25.230495 11.500037,31.436501 z"
             style="fill:#404040;"/>
          </a>
         </g>
        </svg>
</svg>
