<?xml version="1.0" encoding="UTF-8" standalone="no"?>
<!DOCTYPE svg PUBLIC "-//W3C//DTD SVG 1.1//EN"
 "http://www.w3.org/Graphics/SVG/1.1/DTD/svg11.dtd">
<!-- Generated by graphviz version 2.38.0 (20140413.2041)
 -->
<!-- Title: cmd_line.hpp Pages: 1 -->
<!--zoomable 420 -->
<svg id="main" version="1.1" xmlns="http://www.w3.org/2000/svg" xmlns:xlink="http://www.w3.org/1999/xlink" xml:space="preserve" onload="init(evt)">
<style type="text/css"><![CDATA[
.edge:hover path { stroke: red; }
.edge:hover polygon { stroke: red; fill: red; }
]]></style>
<script type="text/javascript"><![CDATA[
var edges = document.getElementsByTagName('g');
if (edges && edges.length) {
  for (var i=0;i<edges.length;i++) {
    if (edges[i].id.substr(0,4)=='edge') {
      edges[i].setAttribute('class','edge');
    }
  }
}
]]></script>
        <defs>
                <circle id="rim" cx="0" cy="0" r="7"/>
                <circle id="rim2" cx="0" cy="0" r="3.5"/>
                <g id="zoomPlus">
                        <use xlink:href="#rim" fill="#404040">
                                <set attributeName="fill" to="#808080" begin="zoomplus.mouseover" end="zoomplus.mouseout"/>
                        </use>
                        <path d="M-4,0h8M0,-4v8" fill="none" stroke="white" stroke-width="1.5" pointer-events="none"/>
                </g>
                <g id="zoomMin">
                        <use xlink:href="#rim" fill="#404040">
                                <set attributeName="fill" to="#808080" begin="zoomminus.mouseover" end="zoomminus.mouseout"/>
                        </use>
                        <path d="M-4,0h8" fill="none" stroke="white" stroke-width="1.5" pointer-events="none"/>
                </g>
                <g id="dirArrow">
                        <path fill="none" stroke="white" stroke-width="1.5" d="M0,-3.0v7 M-2.5,-0.5L0,-3.0L2.5,-0.5"/>
                </g>
               <g id="resetDef">
                       <use xlink:href="#rim2" fill="#404040">
                               <set attributeName="fill" to="#808080" begin="reset.mouseover" end="reset.mouseout"/>
                       </use>
               </g>
        </defs>

<script type="text/javascript">
var viewWidth = 1764;
var viewHeight = 420;
var sectionId = 'dynsection-0';
</script>
<script xlink:href="svgpan.js"/>
<svg id="graph" class="graph">
<g id="viewport">
<title>cmd_line.hpp</title>
<!-- Node1 -->
<g id="node1" class="node"><title>Node1</title>
<polygon fill="#bfbfbf" stroke="black" points="993,-392.5 993,-411.5 1067,-411.5 1067,-392.5 993,-392.5"/>
<text text-anchor="middle" x="1030" y="-399.5" font-family="Helvetica,sans-Serif" font-size="10.00">cmd_line.hpp</text>
</g>
<!-- Node2 -->
<g id="node2" class="node"><title>Node2</title>
<g id="a_node2"><a xlink:href="api_8hpp.html" target="_top" xlink:title="api.hpp">
<polygon fill="none" stroke="black" points="597,-336.5 597,-355.5 645,-355.5 645,-336.5 597,-336.5"/>
<text text-anchor="middle" x="621" y="-343.5" font-family="Helvetica,sans-Serif" font-size="10.00">api.hpp</text>
</a>
</g>
</g>
<!-- Node1&#45;&gt;Node2 -->
<g id="edge1" class="edge"><title>Node1&#45;&gt;Node2</title>
<path fill="none" stroke="midnightblue" d="M992.983,-396.113C914.292,-385.723 731.368,-361.572 655.219,-351.518"/>
<polygon fill="midnightblue" stroke="midnightblue" points="655.577,-348.035 645.205,-350.196 654.661,-354.975 655.577,-348.035"/>
</g>
<!-- Node6 -->
<g id="node6" class="node"><title>Node6</title>
<polygon fill="none" stroke="#bfbfbf" points="1639,-0.5 1639,-19.5 1683,-19.5 1683,-0.5 1639,-0.5"/>
<text text-anchor="middle" x="1661" y="-7.5" font-family="Helvetica,sans-Serif" font-size="10.00">vector</text>
</g>
<!-- Node1&#45;&gt;Node6 -->
<g id="edge77" class="edge"><title>Node1&#45;&gt;Node6</title>
<path fill="none" stroke="midnightblue" d="M1067.26,-401.735C1157.99,-402.723 1397.07,-400.502 1590,-356 1667.2,-338.192 1756,-370.232 1756,-291 1756,-291 1756,-291 1756,-121 1756,-77.7385 1713.39,-43.0862 1685.25,-24.9149"/>
<polygon fill="midnightblue" stroke="midnightblue" points="1687.03,-21.9032 1676.69,-19.6042 1683.34,-27.851 1687.03,-21.9032"/>
</g>
<!-- Node9 -->
<g id="node9" class="node"><title>Node9</title>
<g id="a_node9"><a xlink:href="utils_8hpp.html" target="_top" xlink:title="utils.hpp">
<polygon fill="none" stroke="black" points="975.5,-112.5 975.5,-131.5 1028.5,-131.5 1028.5,-112.5 975.5,-112.5"/>
<text text-anchor="middle" x="1002" y="-119.5" font-family="Helvetica,sans-Serif" font-size="10.00">utils.hpp</text>
</a>
</g>
</g>
<!-- Node1&#45;&gt;Node9 -->
<g id="edge58" class="edge"><title>Node1&#45;&gt;Node9</title>
<path fill="none" stroke="midnightblue" d="M1067,-399.88C1194.07,-395.201 1602.57,-372.875 1560,-280 1544.11,-245.337 1528.22,-242.713 1495,-224 1341.7,-137.653 1124.5,-124.655 1038.81,-123.039"/>
<polygon fill="midnightblue" stroke="midnightblue" points="1038.6,-119.536 1028.55,-122.89 1038.5,-126.535 1038.6,-119.536"/>
</g>
<!-- Node11 -->
<g id="node11" class="node"><title>Node11</title>
<polygon fill="none" stroke="#bfbfbf" points="1424,-56.5 1424,-75.5 1480,-75.5 1480,-56.5 1424,-56.5"/>
<text text-anchor="middle" x="1452" y="-63.5" font-family="Helvetica,sans-Serif" font-size="10.00">algorithm</text>
</g>
<!-- Node1&#45;&gt;Node11 -->
<g id="edge78" class="edge"><title>Node1&#45;&gt;Node11</title>
<path fill="none" stroke="midnightblue" d="M1067.48,-399.005C1211.05,-390.873 1718,-357.453 1718,-291 1718,-291 1718,-291 1718,-177 1718,-79.8328 1564.55,-66.8108 1490.75,-66.1669"/>
<polygon fill="midnightblue" stroke="midnightblue" points="1490.47,-62.6666 1480.47,-66.1531 1490.46,-69.6666 1490.47,-62.6666"/>
</g>
<!-- Node14 -->
<g id="node14" class="node"><title>Node14</title>
<g id="a_node14"><a xlink:href="context_8hpp.html" target="_top" xlink:title="context.hpp">
<polygon fill="none" stroke="black" points="692,-168.5 692,-187.5 760,-187.5 760,-168.5 692,-168.5"/>
<text text-anchor="middle" x="726" y="-175.5" font-family="Helvetica,sans-Serif" font-size="10.00">context.hpp</text>
</a>
</g>
</g>
<!-- Node1&#45;&gt;Node14 -->
<g id="edge59" class="edge"><title>Node1&#45;&gt;Node14</title>
<path fill="none" stroke="midnightblue" d="M992.845,-393.541C942.242,-381.681 851.395,-354.114 794,-300 762.704,-270.493 741.991,-223.307 732.318,-197.441"/>
<polygon fill="midnightblue" stroke="midnightblue" points="735.522,-196.005 728.85,-187.775 728.933,-198.37 735.522,-196.005"/>
</g>
<!-- Node16 -->
<g id="node16" class="node"><title>Node16</title>
<g id="a_node16"><a xlink:href="exceptions_8hpp.html" target="_top" xlink:title="exceptions.hpp">
<polygon fill="none" stroke="black" points="154.5,-112.5 154.5,-131.5 237.5,-131.5 237.5,-112.5 154.5,-112.5"/>
<text text-anchor="middle" x="196" y="-119.5" font-family="Helvetica,sans-Serif" font-size="10.00">exceptions.hpp</text>
</a>
</g>
</g>
<!-- Node1&#45;&gt;Node16 -->
<g id="edge60" class="edge"><title>Node1&#45;&gt;Node16</title>
<path fill="none" stroke="midnightblue" d="M992.733,-401.013C808.075,-400.595 0,-392.945 0,-291 0,-291 0,-291 0,-233 0,-166.741 86.2334,-139.985 144.303,-129.479"/>
<polygon fill="midnightblue" stroke="midnightblue" points="145.161,-132.883 154.433,-127.757 143.988,-125.982 145.161,-132.883"/>
</g>
<!-- Node22 -->
<g id="node22" class="node"><title>Node22</title>
<polygon fill="none" stroke="#bfbfbf" points="1106,-168.5 1106,-187.5 1158,-187.5 1158,-168.5 1106,-168.5"/>
<text text-anchor="middle" x="1132" y="-175.5" font-family="Helvetica,sans-Serif" font-size="10.00">memory</text>
</g>
<!-- Node1&#45;&gt;Node22 -->
<g id="edge79" class="edge"><title>Node1&#45;&gt;Node22</title>
<path fill="none" stroke="midnightblue" d="M1034.18,-392.386C1042.6,-374.988 1062.16,-334.384 1078,-300 1094.78,-263.582 1113.74,-220.661 1124.14,-196.976"/>
<polygon fill="midnightblue" stroke="midnightblue" points="1127.46,-198.104 1128.27,-187.54 1121.05,-195.295 1127.46,-198.104"/>
</g>
<!-- Node24 -->
<g id="node24" class="node"><title>Node24</title>
<g id="a_node24"><a xlink:href="command_8hpp.html" target="_top" xlink:title="command.hpp">
<polygon fill="none" stroke="black" points="991,-280.5 991,-299.5 1069,-299.5 1069,-280.5 991,-280.5"/>
<text text-anchor="middle" x="1030" y="-287.5" font-family="Helvetica,sans-Serif" font-size="10.00">command.hpp</text>
</a>
</g>
</g>
<!-- Node1&#45;&gt;Node24 -->
<g id="edge61" class="edge"><title>Node1&#45;&gt;Node24</title>
<path fill="none" stroke="midnightblue" d="M1030,-392.368C1030,-374.617 1030,-333.666 1030,-309.597"/>
<polygon fill="midnightblue" stroke="midnightblue" points="1033.5,-309.591 1030,-299.591 1026.5,-309.591 1033.5,-309.591"/>
</g>
<!-- Node25 -->
<g id="node25" class="node"><title>Node25</title>
<g id="a_node25"><a xlink:href="help_8hpp.html" target="_top" xlink:title="help.hpp">
<polygon fill="none" stroke="black" points="803.5,-280.5 803.5,-299.5 856.5,-299.5 856.5,-280.5 803.5,-280.5"/>
<text text-anchor="middle" x="830" y="-287.5" font-family="Helvetica,sans-Serif" font-size="10.00">help.hpp</text>
</a>
</g>
</g>
<!-- Node1&#45;&gt;Node25 -->
<g id="edge68" class="edge"><title>Node1&#45;&gt;Node25</title>
<path fill="none" stroke="midnightblue" d="M1014.31,-392.368C979.621,-373.292 896.222,-327.422 854.555,-304.505"/>
<polygon fill="midnightblue" stroke="midnightblue" points="856.07,-301.344 845.621,-299.591 852.696,-307.477 856.07,-301.344"/>
</g>
<!-- Node27 -->
<g id="node27" class="node"><title>Node27</title>
<g id="a_node27"><a xlink:href="help__printer_8hpp.html" target="_top" xlink:title="help_printer.hpp">
<polygon fill="none" stroke="black" points="1334,-336.5 1334,-355.5 1420,-355.5 1420,-336.5 1334,-336.5"/>
<text text-anchor="middle" x="1377" y="-343.5" font-family="Helvetica,sans-Serif" font-size="10.00">help_printer.hpp</text>
</a>
</g>
</g>
<!-- Node1&#45;&gt;Node27 -->
<g id="edge80" class="edge"><title>Node1&#45;&gt;Node27</title>
<path fill="none" stroke="midnightblue" d="M1067.14,-395.221C1128.88,-385.613 1252.85,-366.32 1323.85,-355.272"/>
<polygon fill="midnightblue" stroke="midnightblue" points="1324.58,-358.7 1333.92,-353.704 1323.5,-351.783 1324.58,-358.7"/>
</g>
<!-- Node3 -->
<g id="node3" class="node"><title>Node3</title>
<g id="a_node3"><a xlink:href="types_8hpp.html" target="_top" xlink:title="types.hpp">
<polygon fill="none" stroke="black" points="658.5,-56.5 658.5,-75.5 717.5,-75.5 717.5,-56.5 658.5,-56.5"/>
<text text-anchor="middle" x="688" y="-63.5" font-family="Helvetica,sans-Serif" font-size="10.00">types.hpp</text>
</a>
</g>
</g>
<!-- Node2&#45;&gt;Node3 -->
<g id="edge2" class="edge"><title>Node2&#45;&gt;Node3</title>
<path fill="none" stroke="midnightblue" d="M596.691,-343.039C486.354,-333.822 38,-292.809 38,-235 38,-235 38,-235 38,-177 38,-128.018 81.0796,-129.045 127,-112 222.839,-76.4264 536.816,-68.9421 648.295,-67.395"/>
<polygon fill="midnightblue" stroke="midnightblue" points="648.483,-70.8929 658.437,-67.263 648.392,-63.8935 648.483,-70.8929"/>
</g>
<!-- Node7 -->
<g id="node7" class="node"><title>Node7</title>
<g id="a_node7"><a xlink:href="arg_8hpp.html" target="_top" xlink:title="arg.hpp">
<polygon fill="none" stroke="black" points="639.5,-224.5 639.5,-243.5 688.5,-243.5 688.5,-224.5 639.5,-224.5"/>
<text text-anchor="middle" x="664" y="-231.5" font-family="Helvetica,sans-Serif" font-size="10.00">arg.hpp</text>
</a>
</g>
</g>
<!-- Node2&#45;&gt;Node7 -->
<g id="edge6" class="edge"><title>Node2&#45;&gt;Node7</title>
<path fill="none" stroke="midnightblue" d="M624.374,-336.368C631.376,-318.456 647.612,-276.923 656.984,-252.948"/>
<polygon fill="midnightblue" stroke="midnightblue" points="660.26,-254.179 660.642,-243.591 653.741,-251.631 660.26,-254.179"/>
</g>
<!-- Node19 -->
<g id="node19" class="node"><title>Node19</title>
<g id="a_node19"><a xlink:href="multi__arg_8hpp.html" target="_top" xlink:title="multi_arg.hpp">
<polygon fill="none" stroke="black" points="536.5,-280.5 536.5,-299.5 611.5,-299.5 611.5,-280.5 536.5,-280.5"/>
<text text-anchor="middle" x="574" y="-287.5" font-family="Helvetica,sans-Serif" font-size="10.00">multi_arg.hpp</text>
</a>
</g>
</g>
<!-- Node2&#45;&gt;Node19 -->
<g id="edge30" class="edge"><title>Node2&#45;&gt;Node19</title>
<path fill="none" stroke="midnightblue" d="M613.239,-336.083C606.463,-328.298 596.457,-316.801 588.245,-307.367"/>
<polygon fill="midnightblue" stroke="midnightblue" points="590.822,-304.996 581.617,-299.751 585.542,-309.592 590.822,-304.996"/>
</g>
<!-- Node20 -->
<g id="node20" class="node"><title>Node20</title>
<g id="a_node20"><a xlink:href="groups_8hpp.html" target="_top" xlink:title="groups.hpp">
<polygon fill="none" stroke="black" points="1344.5,-280.5 1344.5,-299.5 1409.5,-299.5 1409.5,-280.5 1344.5,-280.5"/>
<text text-anchor="middle" x="1377" y="-287.5" font-family="Helvetica,sans-Serif" font-size="10.00">groups.hpp</text>
</a>
</g>
</g>
<!-- Node2&#45;&gt;Node20 -->
<g id="edge38" class="edge"><title>Node2&#45;&gt;Node20</title>
<path fill="none" stroke="midnightblue" d="M645.297,-343.264C753.678,-335.523 1193.8,-304.086 1333.93,-294.077"/>
<polygon fill="midnightblue" stroke="midnightblue" points="1334.53,-297.542 1344.26,-293.339 1334.03,-290.56 1334.53,-297.542"/>
</g>
<!-- Node23 -->
<g id="node23" class="node"><title>Node23</title>
<g id="a_node23"><a xlink:href="arg__as__command_8hpp.html" target="_top" xlink:title="arg_as_command.hpp">
<polygon fill="none" stroke="black" points="314.5,-224.5 314.5,-243.5 427.5,-243.5 427.5,-224.5 314.5,-224.5"/>
<text text-anchor="middle" x="371" y="-231.5" font-family="Helvetica,sans-Serif" font-size="10.00">arg_as_command.hpp</text>
</a>
</g>
</g>
<!-- Node2&#45;&gt;Node23 -->
<g id="edge51" class="edge"><title>Node2&#45;&gt;Node23</title>
<path fill="none" stroke="midnightblue" d="M601.383,-336.368C557.479,-317.051 451.135,-270.259 399.746,-247.648"/>
<polygon fill="midnightblue" stroke="midnightblue" points="401.089,-244.415 390.526,-243.591 398.27,-250.822 401.089,-244.415"/>
</g>
<!-- Node4 -->
<g id="node4" class="node"><title>Node4</title>
<polygon fill="none" stroke="#bfbfbf" points="634.5,-0.5 634.5,-19.5 675.5,-19.5 675.5,-0.5 634.5,-0.5"/>
<text text-anchor="middle" x="655" y="-7.5" font-family="Helvetica,sans-Serif" font-size="10.00">string</text>
</g>
<!-- Node3&#45;&gt;Node4 -->
<g id="edge3" class="edge"><title>Node3&#45;&gt;Node4</title>
<path fill="none" stroke="midnightblue" d="M682.551,-56.083C677.986,-48.6127 671.332,-37.7244 665.707,-28.5199"/>
<polygon fill="midnightblue" stroke="midnightblue" points="668.549,-26.4588 660.348,-19.7511 662.576,-30.109 668.549,-26.4588"/>
</g>
<!-- Node5 -->
<g id="node5" class="node"><title>Node5</title>
<polygon fill="none" stroke="#bfbfbf" points="694,-0.5 694,-19.5 748,-19.5 748,-0.5 694,-0.5"/>
<text text-anchor="middle" x="721" y="-7.5" font-family="Helvetica,sans-Serif" font-size="10.00">iostream</text>
</g>
<!-- Node3&#45;&gt;Node5 -->
<g id="edge4" class="edge"><title>Node3&#45;&gt;Node5</title>
<path fill="none" stroke="midnightblue" d="M693.449,-56.083C698.014,-48.6127 704.668,-37.7244 710.293,-28.5199"/>
<polygon fill="midnightblue" stroke="midnightblue" points="713.424,-30.109 715.652,-19.7511 707.451,-26.4588 713.424,-30.109"/>
</g>
<!-- Node3&#45;&gt;Node6 -->
<g id="edge5" class="edge"><title>Node3&#45;&gt;Node6</title>
<path fill="none" stroke="midnightblue" d="M717.651,-63.3544C860.735,-55.4135 1479.03,-21.099 1628.42,-12.8082"/>
<polygon fill="midnightblue" stroke="midnightblue" points="1628.95,-16.2843 1638.74,-12.2355 1628.56,-9.29507 1628.95,-16.2843"/>
</g>
<!-- Node7&#45;&gt;Node3 -->
<g id="edge28" class="edge"><title>Node7&#45;&gt;Node3</title>
<path fill="none" stroke="midnightblue" d="M639.403,-228.006C615.554,-222.06 579.61,-210.038 556,-188 529.685,-163.437 506.263,-140.694 528,-112 542.487,-92.8761 605.664,-79.6095 648.163,-72.6599"/>
<polygon fill="midnightblue" stroke="midnightblue" points="648.884,-76.0894 658.214,-71.07 647.79,-69.1754 648.884,-76.0894"/>
</g>
<!-- Node8 -->
<g id="node8" class="node"><title>Node8</title>
<g id="a_node8"><a xlink:href="arg__iface_8hpp.html" target="_top" xlink:title="arg_iface.hpp">
<polygon fill="none" stroke="black" points="598.5,-168.5 598.5,-187.5 673.5,-187.5 673.5,-168.5 598.5,-168.5"/>
<text text-anchor="middle" x="636" y="-175.5" font-family="Helvetica,sans-Serif" font-size="10.00">arg_iface.hpp</text>
</a>
</g>
</g>
<!-- Node7&#45;&gt;Node8 -->
<g id="edge7" class="edge"><title>Node7&#45;&gt;Node8</title>
<path fill="none" stroke="midnightblue" d="M659.376,-224.083C655.544,-216.691 649.976,-205.953 645.235,-196.811"/>
<polygon fill="midnightblue" stroke="midnightblue" points="648.248,-195.018 640.538,-187.751 642.034,-198.24 648.248,-195.018"/>
</g>
<!-- Node7&#45;&gt;Node9 -->
<g id="edge15" class="edge"><title>Node7&#45;&gt;Node9</title>
<path fill="none" stroke="midnightblue" d="M688.746,-231.796C733.781,-228.881 831.453,-219.194 907,-188 936.684,-175.743 966.536,-153.261 984.648,-138.22"/>
<polygon fill="midnightblue" stroke="midnightblue" points="987.189,-140.654 992.544,-131.512 982.657,-135.32 987.189,-140.654"/>
</g>
<!-- Node7&#45;&gt;Node11 -->
<g id="edge29" class="edge"><title>Node7&#45;&gt;Node11</title>
<path fill="none" stroke="midnightblue" d="M688.846,-229.548C737.33,-222.681 847.871,-206.373 940,-188 1118.42,-152.417 1329.17,-98.951 1413.91,-76.9741"/>
<polygon fill="midnightblue" stroke="midnightblue" points="1415.05,-80.295 1423.85,-74.3921 1413.29,-73.5201 1415.05,-80.295"/>
</g>
<!-- Node7&#45;&gt;Node14 -->
<g id="edge16" class="edge"><title>Node7&#45;&gt;Node14</title>
<path fill="none" stroke="midnightblue" d="M673.961,-224.324C683.127,-216.341 696.937,-204.313 708.028,-194.653"/>
<polygon fill="midnightblue" stroke="midnightblue" points="710.615,-197.041 715.857,-187.834 706.018,-191.762 710.615,-197.041"/>
</g>
<!-- Node7&#45;&gt;Node16 -->
<g id="edge20" class="edge"><title>Node7&#45;&gt;Node16</title>
<path fill="none" stroke="midnightblue" d="M639.405,-229.843C592.997,-223.644 489.494,-208.662 404,-188 341.452,-172.883 270.201,-149.161 229.422,-134.941"/>
<polygon fill="midnightblue" stroke="midnightblue" points="230.33,-131.55 219.735,-131.542 228.012,-138.156 230.33,-131.55"/>
</g>
<!-- Node18 -->
<g id="node18" class="node"><title>Node18</title>
<g id="a_node18"><a xlink:href="value__utils_8hpp.html" target="_top" xlink:title="value_utils.hpp">
<polygon fill="none" stroke="black" points="816,-168.5 816,-187.5 898,-187.5 898,-168.5 816,-168.5"/>
<text text-anchor="middle" x="857" y="-175.5" font-family="Helvetica,sans-Serif" font-size="10.00">value_utils.hpp</text>
</a>
</g>
</g>
<!-- Node7&#45;&gt;Node18 -->
<g id="edge23" class="edge"><title>Node7&#45;&gt;Node18</title>
<path fill="none" stroke="midnightblue" d="M688.836,-226.051C721.173,-217.004 778.104,-201.075 816.671,-190.284"/>
<polygon fill="midnightblue" stroke="midnightblue" points="817.853,-193.588 826.54,-187.522 815.967,-186.846 817.853,-193.588"/>
</g>
<!-- Node8&#45;&gt;Node3 -->
<g id="edge13" class="edge"><title>Node8&#45;&gt;Node3</title>
<path fill="none" stroke="midnightblue" d="M640.08,-168.368C648.548,-150.456 668.182,-108.923 679.515,-84.9482"/>
<polygon fill="midnightblue" stroke="midnightblue" points="682.829,-86.128 683.939,-75.5914 676.5,-83.1363 682.829,-86.128"/>
</g>
<!-- Node8&#45;&gt;Node9 -->
<g id="edge8" class="edge"><title>Node8&#45;&gt;Node9</title>
<path fill="none" stroke="midnightblue" d="M673.681,-169.616C676.83,-169.05 679.968,-168.504 683,-168 785.015,-151.048 906.077,-135.109 965.455,-127.563"/>
<polygon fill="midnightblue" stroke="midnightblue" points="965.984,-131.024 975.465,-126.296 965.105,-124.079 965.984,-131.024"/>
</g>
<!-- Node13 -->
<g id="node13" class="node"><title>Node13</title>
<g id="a_node13"><a xlink:href="enums_8hpp.html" target="_top" xlink:title="enums.hpp">
<polygon fill="none" stroke="black" points="537.5,-112.5 537.5,-131.5 602.5,-131.5 602.5,-112.5 537.5,-112.5"/>
<text text-anchor="middle" x="570" y="-119.5" font-family="Helvetica,sans-Serif" font-size="10.00">enums.hpp</text>
</a>
</g>
</g>
<!-- Node8&#45;&gt;Node13 -->
<g id="edge14" class="edge"><title>Node8&#45;&gt;Node13</title>
<path fill="none" stroke="midnightblue" d="M625.396,-168.324C615.544,-160.263 600.649,-148.077 588.785,-138.369"/>
<polygon fill="midnightblue" stroke="midnightblue" points="590.753,-135.457 580.797,-131.834 586.32,-140.875 590.753,-135.457"/>
</g>
<!-- Node9&#45;&gt;Node3 -->
<g id="edge10" class="edge"><title>Node9&#45;&gt;Node3</title>
<path fill="none" stroke="midnightblue" d="M975.499,-116.443C920.343,-106.957 792.939,-85.0469 727.847,-73.8527"/>
<polygon fill="midnightblue" stroke="midnightblue" points="728.405,-70.3972 717.956,-72.1517 727.218,-77.296 728.405,-70.3972"/>
</g>
<!-- Node10 -->
<g id="node10" class="node"><title>Node10</title>
<polygon fill="none" stroke="#bfbfbf" points="981.5,-56.5 981.5,-75.5 1022.5,-75.5 1022.5,-56.5 981.5,-56.5"/>
<text text-anchor="middle" x="1002" y="-63.5" font-family="Helvetica,sans-Serif" font-size="10.00">regex</text>
</g>
<!-- Node9&#45;&gt;Node10 -->
<g id="edge9" class="edge"><title>Node9&#45;&gt;Node10</title>
<path fill="none" stroke="midnightblue" d="M1002,-112.083C1002,-105.006 1002,-94.8611 1002,-85.9865"/>
<polygon fill="midnightblue" stroke="midnightblue" points="1005.5,-85.751 1002,-75.7511 998.5,-85.7511 1005.5,-85.751"/>
</g>
<!-- Node9&#45;&gt;Node11 -->
<g id="edge11" class="edge"><title>Node9&#45;&gt;Node11</title>
<path fill="none" stroke="midnightblue" d="M1028.8,-117.784C1105.26,-108.609 1324.62,-82.2853 1413.71,-71.5952"/>
<polygon fill="midnightblue" stroke="midnightblue" points="1414.39,-75.0378 1423.91,-70.3712 1413.56,-68.0877 1414.39,-75.0378"/>
</g>
<!-- Node12 -->
<g id="node12" class="node"><title>Node12</title>
<polygon fill="none" stroke="#bfbfbf" points="1174,-56.5 1174,-75.5 1236,-75.5 1236,-56.5 1174,-56.5"/>
<text text-anchor="middle" x="1205" y="-63.5" font-family="Helvetica,sans-Serif" font-size="10.00">type_traits</text>
</g>
<!-- Node9&#45;&gt;Node12 -->
<g id="edge12" class="edge"><title>Node9&#45;&gt;Node12</title>
<path fill="none" stroke="midnightblue" d="M1028.54,-113.94C1063.02,-104.769 1123.57,-88.6615 1163.98,-77.911"/>
<polygon fill="midnightblue" stroke="midnightblue" points="1165.03,-81.2539 1173.8,-75.3007 1163.23,-74.4891 1165.03,-81.2539"/>
</g>
<!-- Node14&#45;&gt;Node3 -->
<g id="edge19" class="edge"><title>Node14&#45;&gt;Node3</title>
<path fill="none" stroke="midnightblue" d="M722.059,-168.489C717.992,-159.525 711.607,-144.943 707,-132 701.456,-116.424 696.27,-98.3467 692.721,-85.2161"/>
<polygon fill="midnightblue" stroke="midnightblue" points="696.095,-84.2851 690.153,-75.5133 689.328,-86.076 696.095,-84.2851"/>
</g>
<!-- Node14&#45;&gt;Node9 -->
<g id="edge18" class="edge"><title>Node14&#45;&gt;Node9</title>
<path fill="none" stroke="midnightblue" d="M760.12,-170.324C812.312,-160.113 911.557,-140.695 965.27,-130.186"/>
<polygon fill="midnightblue" stroke="midnightblue" points="966.236,-133.564 975.378,-128.209 964.892,-126.694 966.236,-133.564"/>
</g>
<!-- Node15 -->
<g id="node15" class="node"><title>Node15</title>
<polygon fill="none" stroke="#bfbfbf" points="716,-112.5 716,-131.5 756,-131.5 756,-112.5 716,-112.5"/>
<text text-anchor="middle" x="736" y="-119.5" font-family="Helvetica,sans-Serif" font-size="10.00">utility</text>
</g>
<!-- Node14&#45;&gt;Node15 -->
<g id="edge17" class="edge"><title>Node14&#45;&gt;Node15</title>
<path fill="none" stroke="midnightblue" d="M727.651,-168.083C728.976,-160.927 730.882,-150.635 732.539,-141.691"/>
<polygon fill="midnightblue" stroke="midnightblue" points="736,-142.221 734.379,-131.751 729.117,-140.947 736,-142.221"/>
</g>
<!-- Node16&#45;&gt;Node3 -->
<g id="edge22" class="edge"><title>Node16&#45;&gt;Node3</title>
<path fill="none" stroke="midnightblue" d="M237.552,-114.054C242.417,-113.32 247.314,-112.618 252,-112 397.55,-92.8084 571.343,-76.9858 648.147,-70.354"/>
<polygon fill="midnightblue" stroke="midnightblue" points="648.664,-73.8226 658.328,-69.4798 648.065,-66.8483 648.664,-73.8226"/>
</g>
<!-- Node17 -->
<g id="node17" class="node"><title>Node17</title>
<polygon fill="none" stroke="#bfbfbf" points="166.5,-56.5 166.5,-75.5 225.5,-75.5 225.5,-56.5 166.5,-56.5"/>
<text text-anchor="middle" x="196" y="-63.5" font-family="Helvetica,sans-Serif" font-size="10.00">stdexcept</text>
</g>
<!-- Node16&#45;&gt;Node17 -->
<g id="edge21" class="edge"><title>Node16&#45;&gt;Node17</title>
<path fill="none" stroke="midnightblue" d="M196,-112.083C196,-105.006 196,-94.8611 196,-85.9865"/>
<polygon fill="midnightblue" stroke="midnightblue" points="199.5,-85.751 196,-75.7511 192.5,-85.7511 199.5,-85.751"/>
</g>
<!-- Node18&#45;&gt;Node3 -->
<g id="edge26" class="edge"><title>Node18&#45;&gt;Node3</title>
<path fill="none" stroke="midnightblue" d="M851.64,-168.23C842.845,-154.497 824.102,-127.854 802,-112 779.559,-95.903 750.57,-84.5611 727.44,-77.2903"/>
<polygon fill="midnightblue" stroke="midnightblue" points="728.181,-73.8585 717.597,-74.3278 726.164,-80.5614 728.181,-73.8585"/>
</g>
<!-- Node18&#45;&gt;Node9 -->
<g id="edge24" class="edge"><title>Node18&#45;&gt;Node9</title>
<path fill="none" stroke="midnightblue" d="M879.976,-168.444C904.157,-159.438 942.418,-145.189 969.646,-135.049"/>
<polygon fill="midnightblue" stroke="midnightblue" points="970.982,-138.286 979.132,-131.516 968.539,-131.727 970.982,-138.286"/>
</g>
<!-- Node18&#45;&gt;Node11 -->
<g id="edge27" class="edge"><title>Node18&#45;&gt;Node11</title>
<path fill="none" stroke="midnightblue" d="M867.65,-168.394C886.293,-153.873 926.617,-124.834 966,-112 1049.08,-84.927 1313.71,-72.2693 1413.46,-68.3712"/>
<polygon fill="midnightblue" stroke="midnightblue" points="1413.83,-71.8596 1423.69,-67.9797 1413.57,-64.8648 1413.83,-71.8596"/>
</g>
<!-- Node18&#45;&gt;Node16 -->
<g id="edge25" class="edge"><title>Node18&#45;&gt;Node16</title>
<path fill="none" stroke="midnightblue" d="M815.832,-172.587C801.069,-171.058 784.295,-169.383 769,-168 577.033,-150.648 348.53,-133.861 247.922,-126.666"/>
<polygon fill="midnightblue" stroke="midnightblue" points="247.952,-123.16 237.728,-125.939 247.453,-130.142 247.952,-123.16"/>
</g>
<!-- Node19&#45;&gt;Node3 -->
<g id="edge36" class="edge"><title>Node19&#45;&gt;Node3</title>
<path fill="none" stroke="midnightblue" d="M536.402,-287.472C439.835,-283.19 188.777,-269.68 162,-244 119.308,-203.058 104.938,-155.519 145,-112 178.932,-75.1395 528.581,-68.469 648.157,-67.2646"/>
<polygon fill="midnightblue" stroke="midnightblue" points="648.373,-70.7628 658.34,-67.1698 648.308,-63.7632 648.373,-70.7628"/>
</g>
<!-- Node19&#45;&gt;Node7 -->
<g id="edge31" class="edge"><title>Node19&#45;&gt;Node7</title>
<path fill="none" stroke="midnightblue" d="M588.46,-280.324C602.5,-271.9 624.048,-258.971 640.543,-249.074"/>
<polygon fill="midnightblue" stroke="midnightblue" points="642.802,-251.801 649.576,-243.655 639.2,-245.798 642.802,-251.801"/>
</g>
<!-- Node19&#45;&gt;Node9 -->
<g id="edge35" class="edge"><title>Node19&#45;&gt;Node9</title>
<path fill="none" stroke="midnightblue" d="M611.636,-285.306C681.005,-277.109 831.816,-252.721 940,-188 960.614,-175.668 978.867,-154.644 990.138,-139.853"/>
<polygon fill="midnightblue" stroke="midnightblue" points="993.114,-141.713 996.212,-131.582 987.472,-137.57 993.114,-141.713"/>
</g>
<!-- Node19&#45;&gt;Node14 -->
<g id="edge32" class="edge"><title>Node19&#45;&gt;Node14</title>
<path fill="none" stroke="midnightblue" d="M571.052,-280.415C567.011,-266.937 561.575,-240.636 574,-224 580.651,-215.095 639.438,-199.509 681.911,-189.22"/>
<polygon fill="midnightblue" stroke="midnightblue" points="682.869,-192.59 691.777,-186.854 681.236,-185.783 682.869,-192.59"/>
</g>
<!-- Node19&#45;&gt;Node15 -->
<g id="edge37" class="edge"><title>Node19&#45;&gt;Node15</title>
<path fill="none" stroke="midnightblue" d="M571.27,-280.486C568.549,-271.52 564.558,-256.935 563,-244 558.731,-208.556 562.081,-191.448 589,-168 622.089,-139.177 673.31,-128.816 705.724,-125.091"/>
<polygon fill="midnightblue" stroke="midnightblue" points="706.341,-128.546 715.942,-124.065 705.642,-121.581 706.341,-128.546"/>
</g>
<!-- Node19&#45;&gt;Node16 -->
<g id="edge33" class="edge"><title>Node19&#45;&gt;Node16</title>
<path fill="none" stroke="midnightblue" d="M536.426,-287.548C441.854,-283.509 199.8,-270.643 176,-244 150.215,-215.136 171.132,-166.255 185.429,-140.337"/>
<polygon fill="midnightblue" stroke="midnightblue" points="188.495,-142.026 190.473,-131.618 182.436,-138.521 188.495,-142.026"/>
</g>
<!-- Node19&#45;&gt;Node18 -->
<g id="edge34" class="edge"><title>Node19&#45;&gt;Node18</title>
<path fill="none" stroke="midnightblue" d="M578.902,-280.207C587.348,-265.942 606.063,-237.95 630,-224 659.226,-206.968 748.218,-192.872 805.707,-185.219"/>
<polygon fill="midnightblue" stroke="midnightblue" points="806.241,-188.679 815.702,-183.911 805.332,-181.739 806.241,-188.679"/>
</g>
<!-- Node20&#45;&gt;Node3 -->
<g id="edge49" class="edge"><title>Node20&#45;&gt;Node3</title>
<path fill="none" stroke="midnightblue" d="M1377.14,-280.303C1376.97,-267.132 1375.07,-241.78 1364,-224 1307.05,-132.537 1253.75,-137.242 1149,-112 996.371,-75.2193 808.42,-68.3665 727.793,-67.1856"/>
<polygon fill="midnightblue" stroke="midnightblue" points="727.637,-63.6835 717.595,-67.0587 727.55,-70.683 727.637,-63.6835"/>
</g>
<!-- Node20&#45;&gt;Node11 -->
<g id="edge50" class="edge"><title>Node20&#45;&gt;Node11</title>
<path fill="none" stroke="midnightblue" d="M1391.69,-280.276C1403.57,-272.383 1419.64,-259.617 1428,-244 1455.74,-192.147 1455.55,-119.987 1453.59,-86.0613"/>
<polygon fill="midnightblue" stroke="midnightblue" points="1457.06,-85.4814 1452.87,-75.7518 1450.08,-85.9728 1457.06,-85.4814"/>
</g>
<!-- Node21 -->
<g id="node21" class="node"><title>Node21</title>
<g id="a_node21"><a xlink:href="group__iface_8hpp.html" target="_top" xlink:title="group_iface.hpp">
<polygon fill="none" stroke="black" points="1269,-224.5 1269,-243.5 1355,-243.5 1355,-224.5 1269,-224.5"/>
<text text-anchor="middle" x="1312" y="-231.5" font-family="Helvetica,sans-Serif" font-size="10.00">group_iface.hpp</text>
</a>
</g>
</g>
<!-- Node20&#45;&gt;Node21 -->
<g id="edge39" class="edge"><title>Node20&#45;&gt;Node21</title>
<path fill="none" stroke="midnightblue" d="M1366.56,-280.324C1356.85,-272.263 1342.18,-260.077 1330.5,-250.369"/>
<polygon fill="midnightblue" stroke="midnightblue" points="1332.56,-247.532 1322.63,-243.834 1328.09,-252.916 1332.56,-247.532"/>
</g>
<!-- Node21&#45;&gt;Node3 -->
<g id="edge43" class="edge"><title>Node21&#45;&gt;Node3</title>
<path fill="none" stroke="midnightblue" d="M1308.47,-224.321C1302.26,-210.22 1288.04,-182.458 1267,-168 1178.41,-107.129 843.512,-78.044 727.695,-69.6528"/>
<polygon fill="midnightblue" stroke="midnightblue" points="727.726,-66.1463 717.503,-68.9271 727.229,-73.1286 727.726,-66.1463"/>
</g>
<!-- Node21&#45;&gt;Node6 -->
<g id="edge44" class="edge"><title>Node21&#45;&gt;Node6</title>
<path fill="none" stroke="midnightblue" d="M1325.68,-224.297C1378.89,-190.449 1572.39,-67.3668 1638.6,-25.2489"/>
<polygon fill="midnightblue" stroke="midnightblue" points="1640.85,-27.9629 1647.41,-19.6425 1637.1,-22.0566 1640.85,-27.9629"/>
</g>
<!-- Node21&#45;&gt;Node8 -->
<g id="edge40" class="edge"><title>Node21&#45;&gt;Node8</title>
<path fill="none" stroke="midnightblue" d="M1268.92,-225.172C1265.91,-224.739 1262.91,-224.342 1260,-224 1008.05,-194.426 939.643,-219.571 683.613,-187.894"/>
<polygon fill="midnightblue" stroke="midnightblue" points="684.001,-184.416 673.643,-186.644 683.13,-191.361 684.001,-184.416"/>
</g>
<!-- Node21&#45;&gt;Node9 -->
<g id="edge41" class="edge"><title>Node21&#45;&gt;Node9</title>
<path fill="none" stroke="midnightblue" d="M1304.84,-224.21C1292.69,-209.95 1266.58,-181.965 1238,-168 1172.68,-136.075 1086.89,-126.762 1038.8,-124.07"/>
<polygon fill="midnightblue" stroke="midnightblue" points="1038.72,-120.562 1028.56,-123.566 1038.37,-127.553 1038.72,-120.562"/>
</g>
<!-- Node21&#45;&gt;Node11 -->
<g id="edge46" class="edge"><title>Node21&#45;&gt;Node11</title>
<path fill="none" stroke="midnightblue" d="M1319.53,-224.075C1342.04,-197.38 1409.1,-117.865 1438.23,-83.3218"/>
<polygon fill="midnightblue" stroke="midnightblue" points="1441,-85.4689 1444.77,-75.5681 1435.65,-80.956 1441,-85.4689"/>
</g>
<!-- Node21&#45;&gt;Node12 -->
<g id="edge45" class="edge"><title>Node21&#45;&gt;Node12</title>
<path fill="none" stroke="midnightblue" d="M1314,-224.351C1316.56,-211.669 1319.97,-187.426 1314,-168 1305.17,-139.248 1297.6,-132.933 1276,-112 1262.93,-99.336 1245.75,-88.3331 1231.56,-80.3773"/>
<polygon fill="midnightblue" stroke="midnightblue" points="1233.21,-77.2864 1222.75,-75.6024 1229.87,-83.4419 1233.21,-77.2864"/>
</g>
<!-- Node21&#45;&gt;Node15 -->
<g id="edge47" class="edge"><title>Node21&#45;&gt;Node15</title>
<path fill="none" stroke="midnightblue" d="M1296.93,-224.299C1271.22,-209.905 1216.82,-181.398 1167,-168 1020.5,-128.6 837.377,-123.349 766.223,-122.896"/>
<polygon fill="midnightblue" stroke="midnightblue" points="766.182,-119.396 756.17,-122.86 766.157,-126.396 766.182,-119.396"/>
</g>
<!-- Node21&#45;&gt;Node16 -->
<g id="edge42" class="edge"><title>Node21&#45;&gt;Node16</title>
<path fill="none" stroke="midnightblue" d="M1268.93,-225.143C1265.91,-224.717 1262.91,-224.329 1260,-224 963.236,-190.476 885.887,-220.416 589,-188 465.889,-174.558 322.709,-148.116 247.779,-133.438"/>
<polygon fill="midnightblue" stroke="midnightblue" points="248.156,-129.945 237.669,-131.448 246.804,-136.814 248.156,-129.945"/>
</g>
<!-- Node21&#45;&gt;Node22 -->
<g id="edge48" class="edge"><title>Node21&#45;&gt;Node22</title>
<path fill="none" stroke="midnightblue" d="M1283.48,-224.444C1252.21,-215.064 1201.99,-199.998 1168.03,-189.809"/>
<polygon fill="midnightblue" stroke="midnightblue" points="1168.63,-186.336 1158.05,-186.815 1166.62,-193.041 1168.63,-186.336"/>
</g>
<!-- Node23&#45;&gt;Node1 -->
<g id="edge55" class="edge"><title>Node23&#45;&gt;Node1</title>
<path fill="none" stroke="midnightblue" d="M381.912,-243.622C412.341,-267.073 501.585,-331.872 588,-356 727.674,-394.999 900.588,-400.987 982.585,-401.416"/>
<polygon fill="midnightblue" stroke="midnightblue" points="982.823,-404.917 992.833,-401.443 982.842,-397.917 982.823,-404.917"/>
</g>
<!-- Node23&#45;&gt;Node3 -->
<g id="edge57" class="edge"><title>Node23&#45;&gt;Node3</title>
<path fill="none" stroke="midnightblue" d="M367.115,-224.378C357.935,-202.548 337.711,-144.518 366,-112 402.136,-70.4627 570.173,-66.0994 648.108,-66.3752"/>
<polygon fill="midnightblue" stroke="midnightblue" points="648.461,-69.8775 658.484,-66.4415 648.506,-62.8776 648.461,-69.8775"/>
</g>
<!-- Node23&#45;&gt;Node8 -->
<g id="edge52" class="edge"><title>Node23&#45;&gt;Node8</title>
<path fill="none" stroke="midnightblue" d="M412.99,-224.444C460.778,-214.706 538.654,-198.837 588.588,-188.661"/>
<polygon fill="midnightblue" stroke="midnightblue" points="589.391,-192.07 598.491,-186.643 587.994,-185.211 589.391,-192.07"/>
</g>
<!-- Node23&#45;&gt;Node9 -->
<g id="edge53" class="edge"><title>Node23&#45;&gt;Node9</title>
<path fill="none" stroke="midnightblue" d="M394.514,-224.451C434.097,-210.41 516.8,-182.572 589,-168 726.131,-140.323 892.547,-128.753 965.152,-124.771"/>
<polygon fill="midnightblue" stroke="midnightblue" points="965.369,-128.265 975.168,-124.238 964.996,-121.275 965.369,-128.265"/>
</g>
<!-- Node23&#45;&gt;Node13 -->
<g id="edge56" class="edge"><title>Node23&#45;&gt;Node13</title>
<path fill="none" stroke="midnightblue" d="M378.43,-224.217C390.483,-210.467 415.621,-183.801 442,-168 468.581,-152.078 501.64,-140.637 527.502,-133.277"/>
<polygon fill="midnightblue" stroke="midnightblue" points="528.673,-136.585 537.389,-130.56 526.819,-129.835 528.673,-136.585"/>
</g>
<!-- Node23&#45;&gt;Node16 -->
<g id="edge54" class="edge"><title>Node23&#45;&gt;Node16</title>
<path fill="none" stroke="midnightblue" d="M335.181,-224.5C310.312,-217.441 277.245,-205.666 252,-188 233.58,-175.11 217.414,-154.824 207.247,-140.344"/>
<polygon fill="midnightblue" stroke="midnightblue" points="209.971,-138.125 201.469,-131.804 204.173,-142.048 209.971,-138.125"/>
</g>
<!-- Node24&#45;&gt;Node3 -->
<g id="edge67" class="edge"><title>Node24&#45;&gt;Node3</title>
<path fill="none" stroke="midnightblue" d="M1013.11,-280.459C987.692,-267.705 938.019,-243.135 895,-224 856.39,-206.826 838.57,-216.09 807,-188 778.168,-162.347 791.959,-139.615 765,-112 751.743,-98.421 733.531,-87.5297 718.147,-79.865"/>
<polygon fill="midnightblue" stroke="midnightblue" points="719.537,-76.6504 709.003,-75.5144 716.529,-82.9714 719.537,-76.6504"/>
</g>
<!-- Node24&#45;&gt;Node9 -->
<g id="edge63" class="edge"><title>Node24&#45;&gt;Node9</title>
<path fill="none" stroke="midnightblue" d="M1029.56,-280.403C1028.41,-260.462 1024.79,-209.586 1016,-168 1014.09,-158.983 1011.15,-149.189 1008.46,-141.048"/>
<polygon fill="midnightblue" stroke="midnightblue" points="1011.74,-139.813 1005.17,-131.501 1005.12,-142.096 1011.74,-139.813"/>
</g>
<!-- Node24&#45;&gt;Node13 -->
<g id="edge66" class="edge"><title>Node24&#45;&gt;Node13</title>
<path fill="none" stroke="midnightblue" d="M990.87,-281.156C885.702,-259.928 603.862,-202.006 589,-188 576.443,-176.165 572.039,-156.537 570.567,-141.94"/>
<polygon fill="midnightblue" stroke="midnightblue" points="574.035,-141.319 569.915,-131.558 567.049,-141.757 574.035,-141.319"/>
</g>
<!-- Node24&#45;&gt;Node14 -->
<g id="edge64" class="edge"><title>Node24&#45;&gt;Node14</title>
<path fill="none" stroke="midnightblue" d="M1007.26,-280.471C973.762,-267.939 909.158,-243.88 854,-224 822.308,-212.578 786.077,-199.873 760.27,-190.884"/>
<polygon fill="midnightblue" stroke="midnightblue" points="761.174,-187.493 750.579,-187.513 758.874,-194.104 761.174,-187.493"/>
</g>
<!-- Node24&#45;&gt;Node18 -->
<g id="edge65" class="edge"><title>Node24&#45;&gt;Node18</title>
<path fill="none" stroke="midnightblue" d="M1023.68,-280.296C1013.38,-266.654 991.73,-240.133 968,-224 946.526,-209.401 919.59,-198.337 897.631,-190.833"/>
<polygon fill="midnightblue" stroke="midnightblue" points="898.522,-187.442 887.929,-187.636 896.331,-194.09 898.522,-187.442"/>
</g>
<!-- Node24&#45;&gt;Node21 -->
<g id="edge62" class="edge"><title>Node24&#45;&gt;Node21</title>
<path fill="none" stroke="midnightblue" d="M1069.21,-281.492C1118.65,-272.025 1203.83,-255.713 1259.03,-245.144"/>
<polygon fill="midnightblue" stroke="midnightblue" points="1259.81,-248.558 1268.97,-243.24 1258.49,-241.683 1259.81,-248.558"/>
</g>
<!-- Node25&#45;&gt;Node3 -->
<g id="edge75" class="edge"><title>Node25&#45;&gt;Node3</title>
<path fill="none" stroke="midnightblue" d="M803.304,-288.862C743.904,-286.969 600.724,-273.312 533,-188 511.48,-160.891 494.848,-139.398 516,-112 532.012,-91.2601 602.434,-78.2373 648.056,-71.8176"/>
<polygon fill="midnightblue" stroke="midnightblue" points="648.79,-75.2502 658.229,-70.4371 647.849,-68.3138 648.79,-75.2502"/>
</g>
<!-- Node25&#45;&gt;Node7 -->
<g id="edge69" class="edge"><title>Node25&#45;&gt;Node7</title>
<path fill="none" stroke="midnightblue" d="M803.697,-280.444C775.154,-271.159 729.477,-256.3 698.175,-246.117"/>
<polygon fill="midnightblue" stroke="midnightblue" points="699.149,-242.754 688.557,-242.988 696.983,-249.41 699.149,-242.754"/>
</g>
<!-- Node25&#45;&gt;Node9 -->
<g id="edge73" class="edge"><title>Node25&#45;&gt;Node9</title>
<path fill="none" stroke="midnightblue" d="M849.666,-280.471C881.067,-265.908 942.587,-233.363 978,-188 988.63,-174.383 994.887,-155.588 998.331,-141.711"/>
<polygon fill="midnightblue" stroke="midnightblue" points="1001.77,-142.348 1000.52,-131.828 994.94,-140.834 1001.77,-142.348"/>
</g>
<!-- Node25&#45;&gt;Node14 -->
<g id="edge72" class="edge"><title>Node25&#45;&gt;Node14</title>
<path fill="none" stroke="midnightblue" d="M821.839,-280.368C804.448,-261.974 763.507,-218.671 741.176,-195.052"/>
<polygon fill="midnightblue" stroke="midnightblue" points="743.536,-192.453 734.123,-187.591 738.45,-197.262 743.536,-192.453"/>
</g>
<!-- Node25&#45;&gt;Node16 -->
<g id="edge74" class="edge"><title>Node25&#45;&gt;Node16</title>
<path fill="none" stroke="midnightblue" d="M803.214,-287.54C702.789,-281.952 351.978,-261.366 305,-244 264.972,-229.203 254.38,-220.734 227,-188 215.48,-174.228 207.13,-155.452 202.018,-141.621"/>
<polygon fill="midnightblue" stroke="midnightblue" points="205.19,-140.085 198.614,-131.779 198.575,-142.373 205.19,-140.085"/>
</g>
<!-- Node25&#45;&gt;Node22 -->
<g id="edge76" class="edge"><title>Node25&#45;&gt;Node22</title>
<path fill="none" stroke="midnightblue" d="M853.697,-280.368C907.175,-260.89 1037.34,-213.479 1098.81,-191.089"/>
<polygon fill="midnightblue" stroke="midnightblue" points="1100.21,-194.303 1108.41,-187.591 1097.82,-187.725 1100.21,-194.303"/>
</g>
<!-- Node26 -->
<g id="node26" class="node"><title>Node26</title>
<g id="a_node26"><a xlink:href="help__printer__iface_8hpp.html" target="_top" xlink:title="help_printer_iface.hpp">
<polygon fill="none" stroke="black" points="1139,-224.5 1139,-243.5 1251,-243.5 1251,-224.5 1139,-224.5"/>
<text text-anchor="middle" x="1195" y="-231.5" font-family="Helvetica,sans-Serif" font-size="10.00">help_printer_iface.hpp</text>
</a>
</g>
</g>
<!-- Node25&#45;&gt;Node26 -->
<g id="edge70" class="edge"><title>Node25&#45;&gt;Node26</title>
<path fill="none" stroke="midnightblue" d="M856.544,-285.073C913.179,-276.694 1047.32,-256.848 1128.7,-244.809"/>
<polygon fill="midnightblue" stroke="midnightblue" points="1129.46,-248.235 1138.84,-243.309 1128.43,-241.31 1129.46,-248.235"/>
</g>
<!-- Node26&#45;&gt;Node9 -->
<g id="edge71" class="edge"><title>Node26&#45;&gt;Node9</title>
<path fill="none" stroke="midnightblue" d="M1193.73,-224.439C1191.22,-210.509 1184.25,-182.986 1167,-168 1131.09,-136.811 1075.52,-127.035 1038.95,-124.086"/>
<polygon fill="midnightblue" stroke="midnightblue" points="1038.92,-120.576 1028.71,-123.398 1038.45,-127.56 1038.92,-120.576"/>
</g>
<!-- Node27&#45;&gt;Node3 -->
<g id="edge89" class="edge"><title>Node27&#45;&gt;Node3</title>
<path fill="none" stroke="midnightblue" d="M1388.54,-336.49C1398.48,-328.379 1412.12,-315.178 1418,-300 1431.43,-265.322 1403.85,-254.791 1383,-224 1365.7,-198.459 1366.23,-187.091 1342,-168 1291.3,-128.052 1270.68,-127.411 1208,-112 1116.97,-89.6191 833.436,-74.0218 728.011,-68.8616"/>
<polygon fill="midnightblue" stroke="midnightblue" points="727.952,-65.3547 717.794,-68.367 727.613,-72.3465 727.952,-65.3547"/>
</g>
<!-- Node27&#45;&gt;Node6 -->
<g id="edge81" class="edge"><title>Node27&#45;&gt;Node6</title>
<path fill="none" stroke="midnightblue" d="M1420.09,-341.178C1503.74,-331.146 1680,-296.114 1680,-179 1680,-179 1680,-179 1680,-121 1680,-88.4885 1671.84,-51.3503 1666.22,-29.6103"/>
<polygon fill="midnightblue" stroke="midnightblue" points="1669.54,-28.498 1663.56,-19.7514 1662.78,-30.3175 1669.54,-28.498"/>
</g>
<!-- Node27&#45;&gt;Node9 -->
<g id="edge84" class="edge"><title>Node27&#45;&gt;Node9</title>
<path fill="none" stroke="midnightblue" d="M1420.17,-343.375C1478.79,-339.44 1572.93,-325.988 1542,-280 1484.21,-194.059 1151.33,-142.735 1039.01,-127.675"/>
<polygon fill="midnightblue" stroke="midnightblue" points="1039.21,-124.173 1028.84,-126.331 1038.3,-131.112 1039.21,-124.173"/>
</g>
<!-- Node27&#45;&gt;Node11 -->
<g id="edge82" class="edge"><title>Node27&#45;&gt;Node11</title>
<path fill="none" stroke="midnightblue" d="M1420.13,-340.48C1468.65,-334.4 1542.94,-321.758 1560,-300 1616.46,-227.971 1512.94,-121.647 1469.69,-82.337"/>
<polygon fill="midnightblue" stroke="midnightblue" points="1471.93,-79.6452 1462.14,-75.5986 1467.27,-84.8681 1471.93,-79.6452"/>
</g>
<!-- Node27&#45;&gt;Node16 -->
<g id="edge85" class="edge"><title>Node27&#45;&gt;Node16</title>
<path fill="none" stroke="midnightblue" d="M1333.72,-344.901C1126.19,-343.974 239.845,-334.699 162,-244 156.358,-237.426 148.691,-210.425 163,-168 166.585,-157.371 173.677,-147.152 180.371,-139.146"/>
<polygon fill="midnightblue" stroke="midnightblue" points="182.988,-141.47 187.039,-131.679 177.767,-136.807 182.988,-141.47"/>
</g>
<!-- Node27&#45;&gt;Node20 -->
<g id="edge87" class="edge"><title>Node27&#45;&gt;Node20</title>
<path fill="none" stroke="midnightblue" d="M1377,-336.083C1377,-329.006 1377,-318.861 1377,-309.986"/>
<polygon fill="midnightblue" stroke="midnightblue" points="1380.5,-309.751 1377,-299.751 1373.5,-309.751 1380.5,-309.751"/>
</g>
<!-- Node27&#45;&gt;Node21 -->
<g id="edge86" class="edge"><title>Node27&#45;&gt;Node21</title>
<path fill="none" stroke="midnightblue" d="M1366.74,-336.289C1357.35,-327.844 1343.65,-314.251 1335,-300 1326.27,-285.61 1320.19,-267.416 1316.48,-253.939"/>
<polygon fill="midnightblue" stroke="midnightblue" points="1319.79,-252.737 1313.92,-243.915 1313.01,-254.47 1319.79,-252.737"/>
</g>
<!-- Node27&#45;&gt;Node24 -->
<g id="edge88" class="edge"><title>Node27&#45;&gt;Node24</title>
<path fill="none" stroke="midnightblue" d="M1333.75,-338.27C1269.04,-328.199 1147.34,-309.261 1079.28,-298.669"/>
<polygon fill="midnightblue" stroke="midnightblue" points="1079.65,-295.185 1069.23,-297.106 1078.58,-302.102 1079.65,-295.185"/>
</g>
<!-- Node27&#45;&gt;Node26 -->
<g id="edge90" class="edge"><title>Node27&#45;&gt;Node26</title>
<path fill="none" stroke="midnightblue" d="M1362.72,-336.368C1331.35,-317.412 1256.22,-272.001 1218.07,-248.942"/>
<polygon fill="midnightblue" stroke="midnightblue" points="1219.58,-245.769 1209.21,-243.591 1215.96,-251.759 1219.58,-245.769"/>
</g>
<!-- Node28 -->
<g id="node28" class="node"><title>Node28</title>
<polygon fill="none" stroke="#bfbfbf" points="1474.5,-280.5 1474.5,-299.5 1533.5,-299.5 1533.5,-280.5 1474.5,-280.5"/>
<text text-anchor="middle" x="1504" y="-287.5" font-family="Helvetica,sans-Serif" font-size="10.00">functional</text>
</g>
<!-- Node27&#45;&gt;Node28 -->
<g id="edge83" class="edge"><title>Node27&#45;&gt;Node28</title>
<path fill="none" stroke="midnightblue" d="M1397.12,-336.444C1418.02,-327.557 1450.93,-313.563 1474.72,-303.451"/>
<polygon fill="midnightblue" stroke="midnightblue" points="1476.14,-306.65 1483.97,-299.516 1473.4,-300.208 1476.14,-306.65"/>
</g>
</g>
</svg>
        <g id="navigator" transform="translate(0 0)" fill="#404254">
                <rect fill="#f2f5e9" fill-opacity="0.5" stroke="#606060" stroke-width=".5" x="0" y="0" width="60" height="60"/>
                <use id="zoomplus" xlink:href="#zoomPlus" x="17" y="9" onmousedown="handleZoom(evt,'in')"/>
                <use id="zoomminus" xlink:href="#zoomMin" x="42" y="9" onmousedown="handleZoom(evt,'out')"/>
                <use id="reset" xlink:href="#resetDef" x="30" y="36" onmousedown="handleReset()"/>
                <g id="arrowUp" xlink:href="#dirArrow" transform="translate(30 24)" onmousedown="handlePan(0,-1)">
                  <use xlink:href="#rim" fill="#404040">
                        <set attributeName="fill" to="#808080" begin="arrowUp.mouseover" end="arrowUp.mouseout"/>
                  </use>
                  <path fill="none" stroke="white" stroke-width="1.5" d="M0,-3.0v7 M-2.5,-0.5L0,-3.0L2.5,-0.5"/>
                </g>
                <g id="arrowRight" xlink:href="#dirArrow" transform="rotate(90) translate(36 -43)" onmousedown="handlePan(1,0)">
                  <use xlink:href="#rim" fill="#404040">
                        <set attributeName="fill" to="#808080" begin="arrowRight.mouseover" end="arrowRight.mouseout"/>
                  </use>
                  <path fill="none" stroke="white" stroke-width="1.5" d="M0,-3.0v7 M-2.5,-0.5L0,-3.0L2.5,-0.5"/>
                </g>
                <g id="arrowDown" xlink:href="#dirArrow" transform="rotate(180) translate(-30 -48)" onmousedown="handlePan(0,1)">
                  <use xlink:href="#rim" fill="#404040">
                        <set attributeName="fill" to="#808080" begin="arrowDown.mouseover" end="arrowDown.mouseout"/>
                  </use>
                  <path fill="none" stroke="white" stroke-width="1.5" d="M0,-3.0v7 M-2.5,-0.5L0,-3.0L2.5,-0.5"/>
                </g>
                <g id="arrowLeft" xlink:href="#dirArrow" transform="rotate(270) translate(-36 17)" onmousedown="handlePan(-1,0)">
                  <use xlink:href="#rim" fill="#404040">
                        <set attributeName="fill" to="#808080" begin="arrowLeft.mouseover" end="arrowLeft.mouseout"/>
                  </use>
                  <path fill="none" stroke="white" stroke-width="1.5" d="M0,-3.0v7 M-2.5,-0.5L0,-3.0L2.5,-0.5"/>
                </g>
        </g>
        <svg viewBox="0 0 15 15" width="100%" height="30px" preserveAspectRatio="xMaxYMin meet">
         <g id="arrow_out" transform="scale(0.3 0.3)">
          <a xlink:href="cmd__line_8hpp__incl_org.svg" target="_base">
           <rect id="button" ry="5" rx="5" y="6" x="6" height="38" width="38"
                fill="#f2f5e9" fill-opacity="0.5" stroke="#606060" stroke-width="1.0"/>
           <path id="arrow"
             d="M 11.500037,31.436501 C 11.940474,20.09759 22.043105,11.32322 32.158766,21.979434 L 37.068811,17.246167 C 37.068811,17.246167 37.088388,32 37.088388,32 L 22.160133,31.978069 C 22.160133,31.978069 26.997745,27.140456 26.997745,27.140456 C 18.528582,18.264221 13.291696,25.230495 11.500037,31.436501 z"
             style="fill:#404040;"/>
          </a>
         </g>
        </svg>
</svg>
