<?xml version="1.0" encoding="UTF-8" standalone="no"?>
<!DOCTYPE svg PUBLIC "-//W3C//DTD SVG 1.1//EN"
 "http://www.w3.org/Graphics/SVG/1.1/DTD/svg11.dtd">
<!-- Generated by graphviz version 2.40.1 (20161225.0304)
 -->
<!-- Title: cmd_line.hpp Pages: 1 -->
<svg width="197pt" height="140pt"
 viewBox="0.00 0.00 196.91 140.00" xmlns="http://www.w3.org/2000/svg" xmlns:xlink="http://www.w3.org/1999/xlink">
<g id="graph0" class="graph" transform="scale(1 1) rotate(0) translate(4 136)">
<title>cmd_line.hpp</title>
<!-- Node28 -->
<g id="node1" class="node">
<title>Node28</title>
<polygon fill="#bfbfbf" stroke="#000000" points="82.5,-112.5 82.5,-131.5 156.5,-131.5 156.5,-112.5 82.5,-112.5"/>
<text text-anchor="middle" x="119.5" y="-119.5" font-family="Helvetica,sans-Serif" font-size="10.00" fill="#000000">cmd_line.hpp</text>
</g>
<!-- Node29 -->
<g id="node2" class="node">
<title>Node29</title>
<g id="a_node2"><a xlink:href="all_8hpp.html" target="_top" xlink:title="all.hpp">
<polygon fill="none" stroke="#000000" points="0,-56.5 0,-75.5 45,-75.5 45,-56.5 0,-56.5"/>
<text text-anchor="middle" x="22.5" y="-63.5" font-family="Helvetica,sans-Serif" font-size="10.00" fill="#000000">all.hpp</text>
</a>
</g>
</g>
<!-- Node28&#45;&gt;Node29 -->
<g id="edge1" class="edge">
<title>Node28&#45;&gt;Node29</title>
<path fill="none" stroke="#191970" d="M93.5984,-107.0465C76.3391,-97.0824 54.1624,-84.2794 39.2025,-75.6427"/>
<polygon fill="#191970" stroke="#191970" points="92.1936,-110.2768 102.6039,-112.2455 95.6935,-104.2146 92.1936,-110.2768"/>
</g>
<!-- Node30 -->
<g id="node3" class="node">
<title>Node30</title>
<g id="a_node3"><a xlink:href="arg__as__command_8hpp.html" target="_top" xlink:title="arg_as_command.hpp">
<polygon fill="none" stroke="#000000" points="63,-56.5 63,-75.5 176,-75.5 176,-56.5 63,-56.5"/>
<text text-anchor="middle" x="119.5" y="-63.5" font-family="Helvetica,sans-Serif" font-size="10.00" fill="#000000">arg_as_command.hpp</text>
</a>
</g>
</g>
<!-- Node28&#45;&gt;Node30 -->
<g id="edge2" class="edge">
<title>Node28&#45;&gt;Node30</title>
<path fill="none" stroke="#191970" d="M119.5,-102.1575C119.5,-93.155 119.5,-82.9199 119.5,-75.6427"/>
<polygon fill="#191970" stroke="#191970" points="116.0001,-102.2455 119.5,-112.2455 123.0001,-102.2456 116.0001,-102.2455"/>
</g>
<!-- Node31 -->
<g id="node4" class="node">
<title>Node31</title>
<g id="a_node4"><a xlink:href="api_8hpp.html" target="_top" xlink:title="api.hpp">
<polygon fill="none" stroke="#000000" points="137.5,-.5 137.5,-19.5 185.5,-19.5 185.5,-.5 137.5,-.5"/>
<text text-anchor="middle" x="161.5" y="-7.5" font-family="Helvetica,sans-Serif" font-size="10.00" fill="#000000">api.hpp</text>
</a>
</g>
</g>
<!-- Node30&#45;&gt;Node31 -->
<g id="edge3" class="edge">
<title>Node30&#45;&gt;Node31</title>
<path fill="none" stroke="#191970" d="M132.8416,-48.2112C139.9396,-38.7472 148.3903,-27.4797 154.268,-19.6427"/>
<polygon fill="#191970" stroke="#191970" points="130.0159,-46.1455 126.8158,-56.2455 135.6159,-50.3455 130.0159,-46.1455"/>
</g>
<!-- Node31&#45;&gt;Node28 -->
<g id="edge4" class="edge">
<title>Node31&#45;&gt;Node28</title>
<path fill="none" stroke="#191970" d="M176.1159,-28.1912C185.1334,-41.7611 193.5675,-60.5436 185.5,-76 176.6462,-92.9629 158.3669,-104.9442 143.2859,-112.4178"/>
<polygon fill="#191970" stroke="#191970" points="178.6831,-25.7698 169.9753,-19.7344 173.0187,-29.8827 178.6831,-25.7698"/>
</g>
</g>
</svg>
