<?xml version="1.0" encoding="UTF-8" standalone="no"?>
<!DOCTYPE svg PUBLIC "-//W3C//DTD SVG 1.1//EN"
 "http://www.w3.org/Graphics/SVG/1.1/DTD/svg11.dtd">
<!-- Generated by graphviz version 2.43.0 (0)
 -->
<!-- Title: cmd_line.hpp Pages: 1 -->
<svg width="1684pt" height="420pt"
 viewBox="0.00 0.00 1684.00 420.00" xmlns="http://www.w3.org/2000/svg" xmlns:xlink="http://www.w3.org/1999/xlink">
<g id="graph0" class="graph" transform="scale(1 1) rotate(0) translate(4 416)">
<title>cmd_line.hpp</title>
<!-- Node1 -->
<g id="node1" class="node">
<title>Node1</title>
<g id="a_node1"><a xlink:title=" ">
<polygon fill="#bfbfbf" stroke="black" points="1247,-392.5 1247,-411.5 1329,-411.5 1329,-392.5 1247,-392.5"/>
<text text-anchor="middle" x="1288" y="-399.5" font-family="Helvetica,sans-Serif" font-size="10.00">cmd_line.hpp</text>
</a>
</g>
</g>
<!-- Node2 -->
<g id="node2" class="node">
<title>Node2</title>
<g id="a_node2"><a xlink:href="api_8hpp.html" target="_top" xlink:title=" ">
<polygon fill="none" stroke="black" points="694.5,-336.5 694.5,-355.5 747.5,-355.5 747.5,-336.5 694.5,-336.5"/>
<text text-anchor="middle" x="721" y="-343.5" font-family="Helvetica,sans-Serif" font-size="10.00">api.hpp</text>
</a>
</g>
</g>
<!-- Node1&#45;&gt;Node2 -->
<g id="edge1" class="edge">
<title>Node1&#45;&gt;Node2</title>
<path fill="none" stroke="midnightblue" d="M1246.75,-399.76C1158.66,-396.62 945.6,-386.45 757.7,-355.83"/>
<polygon fill="midnightblue" stroke="midnightblue" points="758.07,-352.34 747.64,-354.16 756.93,-359.25 758.07,-352.34"/>
</g>
<!-- Node6 -->
<g id="node6" class="node">
<title>Node6</title>
<g id="a_node6"><a xlink:title=" ">
<polygon fill="none" stroke="#bfbfbf" points="1443.5,-0.5 1443.5,-19.5 1490.5,-19.5 1490.5,-0.5 1443.5,-0.5"/>
<text text-anchor="middle" x="1467" y="-7.5" font-family="Helvetica,sans-Serif" font-size="10.00">vector</text>
</a>
</g>
</g>
<!-- Node1&#45;&gt;Node6 -->
<g id="edge72" class="edge">
<title>Node1&#45;&gt;Node6</title>
<path fill="none" stroke="midnightblue" d="M1329.46,-401.02C1388.93,-399.69 1500.9,-392.06 1588,-356 1632.93,-337.4 1676,-339.62 1676,-291 1676,-291 1676,-291 1676,-121 1676,-42.67 1559.62,-19.99 1500.55,-13.52"/>
<polygon fill="midnightblue" stroke="midnightblue" points="1500.87,-10.04 1490.57,-12.53 1500.17,-17 1500.87,-10.04"/>
</g>
<!-- Node9 -->
<g id="node9" class="node">
<title>Node9</title>
<g id="a_node9"><a xlink:href="utils_8hpp.html" target="_top" xlink:title=" ">
<polygon fill="none" stroke="black" points="924.5,-112.5 924.5,-131.5 983.5,-131.5 983.5,-112.5 924.5,-112.5"/>
<text text-anchor="middle" x="954" y="-119.5" font-family="Helvetica,sans-Serif" font-size="10.00">utils.hpp</text>
</a>
</g>
</g>
<!-- Node1&#45;&gt;Node9 -->
<g id="edge58" class="edge">
<title>Node1&#45;&gt;Node9</title>
<path fill="none" stroke="midnightblue" d="M1329.03,-395.28C1360.63,-389.37 1404.29,-377.82 1437,-356 1463.8,-338.13 1472.14,-330.32 1483,-300 1502.05,-246.8 1465.66,-194.99 1426,-168 1390.6,-143.91 1100.94,-129.25 993.72,-124.61"/>
<polygon fill="midnightblue" stroke="midnightblue" points="993.77,-121.11 983.63,-124.18 993.47,-128.1 993.77,-121.11"/>
</g>
<!-- Node10 -->
<g id="node10" class="node">
<title>Node10</title>
<g id="a_node10"><a xlink:title=" ">
<polygon fill="none" stroke="#bfbfbf" points="1208,-56.5 1208,-75.5 1272,-75.5 1272,-56.5 1208,-56.5"/>
<text text-anchor="middle" x="1240" y="-63.5" font-family="Helvetica,sans-Serif" font-size="10.00">algorithm</text>
</a>
</g>
</g>
<!-- Node1&#45;&gt;Node10 -->
<g id="edge73" class="edge">
<title>Node1&#45;&gt;Node10</title>
<path fill="none" stroke="midnightblue" d="M1329.18,-396.85C1421.7,-386.4 1638,-355.09 1638,-291 1638,-291 1638,-291 1638,-233 1638,-132.13 1539.34,-150.23 1446,-112 1391.7,-89.76 1324.64,-77.73 1282.09,-71.84"/>
<polygon fill="midnightblue" stroke="midnightblue" points="1282.46,-68.36 1272.08,-70.51 1281.53,-75.3 1282.46,-68.36"/>
</g>
<!-- Node13 -->
<g id="node13" class="node">
<title>Node13</title>
<g id="a_node13"><a xlink:href="context_8hpp.html" target="_top" xlink:title=" ">
<polygon fill="none" stroke="black" points="280,-168.5 280,-187.5 354,-187.5 354,-168.5 280,-168.5"/>
<text text-anchor="middle" x="317" y="-175.5" font-family="Helvetica,sans-Serif" font-size="10.00">context.hpp</text>
</a>
</g>
</g>
<!-- Node1&#45;&gt;Node13 -->
<g id="edge59" class="edge">
<title>Node1&#45;&gt;Node13</title>
<path fill="none" stroke="midnightblue" d="M1246.77,-400.21C1062.75,-396.27 322.51,-375.76 256,-300 227.45,-267.48 271.43,-219.21 298.45,-194.62"/>
<polygon fill="midnightblue" stroke="midnightblue" points="301,-197.04 306.19,-187.8 296.37,-191.79 301,-197.04"/>
</g>
<!-- Node15 -->
<g id="node15" class="node">
<title>Node15</title>
<g id="a_node15"><a xlink:href="exceptions_8hpp.html" target="_top" xlink:title=" ">
<polygon fill="none" stroke="black" points="94.5,-112.5 94.5,-131.5 185.5,-131.5 185.5,-112.5 94.5,-112.5"/>
<text text-anchor="middle" x="140" y="-119.5" font-family="Helvetica,sans-Serif" font-size="10.00">exceptions.hpp</text>
</a>
</g>
</g>
<!-- Node1&#45;&gt;Node15 -->
<g id="edge60" class="edge">
<title>Node1&#45;&gt;Node15</title>
<path fill="none" stroke="midnightblue" d="M1246.88,-401.27C1116.02,-401.64 697.71,-399.14 355,-356 212.31,-338.04 38,-434.82 38,-291 38,-291 38,-291 38,-233 38,-188.39 83.66,-154.23 113.88,-136.51"/>
<polygon fill="midnightblue" stroke="midnightblue" points="115.7,-139.5 122.7,-131.55 112.27,-133.4 115.7,-139.5"/>
</g>
<!-- Node21 -->
<g id="node21" class="node">
<title>Node21</title>
<g id="a_node21"><a xlink:title=" ">
<polygon fill="none" stroke="#bfbfbf" points="1344,-168.5 1344,-187.5 1402,-187.5 1402,-168.5 1344,-168.5"/>
<text text-anchor="middle" x="1373" y="-175.5" font-family="Helvetica,sans-Serif" font-size="10.00">memory</text>
</a>
</g>
</g>
<!-- Node1&#45;&gt;Node21 -->
<g id="edge74" class="edge">
<title>Node1&#45;&gt;Node21</title>
<path fill="none" stroke="midnightblue" d="M1323.92,-392.42C1366.7,-380.05 1436.23,-352.69 1467,-300 1491.5,-258.04 1433.17,-214.35 1397.75,-192.77"/>
<polygon fill="midnightblue" stroke="midnightblue" points="1399.27,-189.6 1388.88,-187.53 1395.71,-195.62 1399.27,-189.6"/>
</g>
<!-- Node22 -->
<g id="node22" class="node">
<title>Node22</title>
<g id="a_node22"><a xlink:href="command_8hpp.html" target="_top" xlink:title=" ">
<polygon fill="none" stroke="black" points="715,-280.5 715,-299.5 801,-299.5 801,-280.5 715,-280.5"/>
<text text-anchor="middle" x="758" y="-287.5" font-family="Helvetica,sans-Serif" font-size="10.00">command.hpp</text>
</a>
</g>
</g>
<!-- Node1&#45;&gt;Node22 -->
<g id="edge61" class="edge">
<title>Node1&#45;&gt;Node22</title>
<path fill="none" stroke="midnightblue" d="M1246.85,-392.46C1151.17,-372.6 913.92,-323.36 809.14,-301.61"/>
<polygon fill="midnightblue" stroke="midnightblue" points="809.62,-298.14 799.12,-299.53 808.2,-304.99 809.62,-298.14"/>
</g>
<!-- Node23 -->
<g id="node23" class="node">
<title>Node23</title>
<g id="a_node23"><a xlink:href="help_8hpp.html" target="_top" xlink:title=" ">
<polygon fill="none" stroke="black" points="765.5,-336.5 765.5,-355.5 824.5,-355.5 824.5,-336.5 765.5,-336.5"/>
<text text-anchor="middle" x="795" y="-343.5" font-family="Helvetica,sans-Serif" font-size="10.00">help.hpp</text>
</a>
</g>
</g>
<!-- Node1&#45;&gt;Node23 -->
<g id="edge62" class="edge">
<title>Node1&#45;&gt;Node23</title>
<path fill="none" stroke="midnightblue" d="M1246.82,-396.49C1153.45,-386.26 926.68,-361.42 834.72,-351.35"/>
<polygon fill="midnightblue" stroke="midnightblue" points="835.03,-347.86 824.71,-350.25 834.27,-354.82 835.03,-347.86"/>
</g>
<!-- Node25 -->
<g id="node25" class="node">
<title>Node25</title>
<g id="a_node25"><a xlink:href="help__printer_8hpp.html" target="_top" xlink:title=" ">
<polygon fill="none" stroke="black" points="1240.5,-336.5 1240.5,-355.5 1335.5,-355.5 1335.5,-336.5 1240.5,-336.5"/>
<text text-anchor="middle" x="1288" y="-343.5" font-family="Helvetica,sans-Serif" font-size="10.00">help_printer.hpp</text>
</a>
</g>
</g>
<!-- Node1&#45;&gt;Node25 -->
<g id="edge75" class="edge">
<title>Node1&#45;&gt;Node25</title>
<path fill="none" stroke="midnightblue" d="M1282.83,-392.08C1281.32,-384.93 1280.89,-374.64 1281.54,-365.69"/>
<polygon fill="midnightblue" stroke="midnightblue" points="1285.02,-366.13 1282.87,-355.75 1278.08,-365.2 1285.02,-366.13"/>
</g>
<!-- Node3 -->
<g id="node3" class="node">
<title>Node3</title>
<g id="a_node3"><a xlink:href="types_8hpp.html" target="_top" xlink:title=" ">
<polygon fill="none" stroke="black" points="501.5,-56.5 501.5,-75.5 566.5,-75.5 566.5,-56.5 501.5,-56.5"/>
<text text-anchor="middle" x="534" y="-63.5" font-family="Helvetica,sans-Serif" font-size="10.00">types.hpp</text>
</a>
</g>
</g>
<!-- Node2&#45;&gt;Node3 -->
<g id="edge2" class="edge">
<title>Node2&#45;&gt;Node3</title>
<path fill="none" stroke="midnightblue" d="M694.49,-344.4C593.8,-341.89 235.27,-330.93 126,-300 65.37,-282.84 0,-298.01 0,-235 0,-235 0,-235 0,-177 0,-76.88 364.67,-67.11 491.3,-66.74"/>
<polygon fill="midnightblue" stroke="midnightblue" points="491.4,-70.24 501.4,-66.73 491.4,-63.24 491.4,-70.24"/>
</g>
<!-- Node7 -->
<g id="node7" class="node">
<title>Node7</title>
<g id="a_node7"><a xlink:href="arg_8hpp.html" target="_top" xlink:title=" ">
<polygon fill="none" stroke="black" points="562.5,-224.5 562.5,-243.5 615.5,-243.5 615.5,-224.5 562.5,-224.5"/>
<text text-anchor="middle" x="589" y="-231.5" font-family="Helvetica,sans-Serif" font-size="10.00">arg.hpp</text>
</a>
</g>
</g>
<!-- Node2&#45;&gt;Node7 -->
<g id="edge6" class="edge">
<title>Node2&#45;&gt;Node7</title>
<path fill="none" stroke="midnightblue" d="M707.58,-336.19C694.56,-327.46 674.41,-313.48 658,-300 638.87,-284.28 618.39,-264.58 604.76,-251.02"/>
<polygon fill="midnightblue" stroke="midnightblue" points="607.12,-248.43 597.58,-243.81 602.16,-253.37 607.12,-248.43"/>
</g>
<!-- Node18 -->
<g id="node18" class="node">
<title>Node18</title>
<g id="a_node18"><a xlink:href="multi__arg_8hpp.html" target="_top" xlink:title=" ">
<polygon fill="none" stroke="black" points="265,-280.5 265,-299.5 349,-299.5 349,-280.5 265,-280.5"/>
<text text-anchor="middle" x="307" y="-287.5" font-family="Helvetica,sans-Serif" font-size="10.00">multi_arg.hpp</text>
</a>
</g>
</g>
<!-- Node2&#45;&gt;Node18 -->
<g id="edge29" class="edge">
<title>Node2&#45;&gt;Node18</title>
<path fill="none" stroke="midnightblue" d="M694.25,-341.84C635.04,-334.81 488.44,-317.1 366,-300 363.79,-299.69 361.54,-299.37 359.26,-299.04"/>
<polygon fill="midnightblue" stroke="midnightblue" points="359.6,-295.56 349.2,-297.57 358.59,-302.48 359.6,-295.56"/>
</g>
<!-- Node19 -->
<g id="node19" class="node">
<title>Node19</title>
<g id="a_node19"><a xlink:href="groups_8hpp.html" target="_top" xlink:title=" ">
<polygon fill="none" stroke="black" points="1150.5,-280.5 1150.5,-299.5 1221.5,-299.5 1221.5,-280.5 1150.5,-280.5"/>
<text text-anchor="middle" x="1186" y="-287.5" font-family="Helvetica,sans-Serif" font-size="10.00">groups.hpp</text>
</a>
</g>
</g>
<!-- Node2&#45;&gt;Node19 -->
<g id="edge37" class="edge">
<title>Node2&#45;&gt;Node19</title>
<path fill="none" stroke="midnightblue" d="M747.64,-337.86C750.78,-337.16 753.95,-336.52 757,-336 923.18,-307.63 970.23,-324.58 1140.01,-300.16"/>
<polygon fill="midnightblue" stroke="midnightblue" points="1140.65,-303.6 1150.04,-298.69 1139.64,-296.67 1140.65,-303.6"/>
</g>
<!-- Node2&#45;&gt;Node22 -->
<g id="edge50" class="edge">
<title>Node2&#45;&gt;Node22</title>
<path fill="none" stroke="midnightblue" d="M721.94,-336.08C725.6,-328.38 733,-317.03 740.3,-307.65"/>
<polygon fill="midnightblue" stroke="midnightblue" points="743.17,-309.68 746.87,-299.75 737.79,-305.2 743.17,-309.68"/>
</g>
<!-- Node4 -->
<g id="node4" class="node">
<title>Node4</title>
<g id="a_node4"><a xlink:title=" ">
<polygon fill="none" stroke="#bfbfbf" points="547,-0.5 547,-19.5 591,-19.5 591,-0.5 547,-0.5"/>
<text text-anchor="middle" x="569" y="-7.5" font-family="Helvetica,sans-Serif" font-size="10.00">string</text>
</a>
</g>
</g>
<!-- Node3&#45;&gt;Node4 -->
<g id="edge3" class="edge">
<title>Node3&#45;&gt;Node4</title>
<path fill="none" stroke="midnightblue" d="M539.78,-56.08C544.67,-48.53 551.83,-37.49 557.83,-28.23"/>
<polygon fill="midnightblue" stroke="midnightblue" points="560.83,-30.05 563.33,-19.75 554.95,-26.24 560.83,-30.05"/>
</g>
<!-- Node5 -->
<g id="node5" class="node">
<title>Node5</title>
<g id="a_node5"><a xlink:title=" ">
<polygon fill="none" stroke="#bfbfbf" points="469,-0.5 469,-19.5 529,-19.5 529,-0.5 469,-0.5"/>
<text text-anchor="middle" x="499" y="-7.5" font-family="Helvetica,sans-Serif" font-size="10.00">iostream</text>
</a>
</g>
</g>
<!-- Node3&#45;&gt;Node5 -->
<g id="edge4" class="edge">
<title>Node3&#45;&gt;Node5</title>
<path fill="none" stroke="midnightblue" d="M528.22,-56.08C523.33,-48.53 516.17,-37.49 510.17,-28.23"/>
<polygon fill="midnightblue" stroke="midnightblue" points="513.05,-26.24 504.67,-19.75 507.17,-30.05 513.05,-26.24"/>
</g>
<!-- Node3&#45;&gt;Node6 -->
<g id="edge5" class="edge">
<title>Node3&#45;&gt;Node6</title>
<path fill="none" stroke="midnightblue" d="M566.66,-63.11C710.46,-54.79 1286.52,-21.45 1432.99,-12.97"/>
<polygon fill="midnightblue" stroke="midnightblue" points="1433.39,-16.45 1443.17,-12.38 1432.98,-9.46 1433.39,-16.45"/>
</g>
<!-- Node7&#45;&gt;Node3 -->
<g id="edge27" class="edge">
<title>Node7&#45;&gt;Node3</title>
<path fill="none" stroke="midnightblue" d="M562.19,-230.01C536.71,-225.59 499.73,-214.69 482,-188 463.31,-159.86 467.96,-142.72 482,-112 487.78,-99.36 499.05,-88.91 509.63,-81.27"/>
<polygon fill="midnightblue" stroke="midnightblue" points="511.85,-84 518.22,-75.53 507.96,-78.18 511.85,-84"/>
</g>
<!-- Node8 -->
<g id="node8" class="node">
<title>Node8</title>
<g id="a_node8"><a xlink:href="arg__iface_8hpp.html" target="_top" xlink:title=" ">
<polygon fill="none" stroke="black" points="786.5,-168.5 786.5,-187.5 869.5,-187.5 869.5,-168.5 786.5,-168.5"/>
<text text-anchor="middle" x="828" y="-175.5" font-family="Helvetica,sans-Serif" font-size="10.00">arg_iface.hpp</text>
</a>
</g>
</g>
<!-- Node7&#45;&gt;Node8 -->
<g id="edge7" class="edge">
<title>Node7&#45;&gt;Node8</title>
<path fill="none" stroke="midnightblue" d="M615.95,-226.91C655.81,-217.9 731.07,-200.9 780.36,-189.76"/>
<polygon fill="midnightblue" stroke="midnightblue" points="781.18,-193.17 790.16,-187.55 779.64,-186.34 781.18,-193.17"/>
</g>
<!-- Node7&#45;&gt;Node9 -->
<g id="edge14" class="edge">
<title>Node7&#45;&gt;Node9</title>
<path fill="none" stroke="midnightblue" d="M615.85,-226.81C620.55,-225.81 625.41,-224.83 630,-224 740.01,-204 777.31,-234.5 879,-188 903.59,-176.76 926.22,-154.87 940.05,-139.62"/>
<polygon fill="midnightblue" stroke="midnightblue" points="942.82,-141.76 946.78,-131.93 937.56,-137.15 942.82,-141.76"/>
</g>
<!-- Node7&#45;&gt;Node10 -->
<g id="edge28" class="edge">
<title>Node7&#45;&gt;Node10</title>
<path fill="none" stroke="midnightblue" d="M615.74,-231.1C670.89,-226.78 800.97,-214.46 907,-188 1022.98,-159.06 1154.77,-104.33 1211.53,-79.64"/>
<polygon fill="midnightblue" stroke="midnightblue" points="1213.16,-82.75 1220.92,-75.53 1210.36,-76.34 1213.16,-82.75"/>
</g>
<!-- Node7&#45;&gt;Node13 -->
<g id="edge15" class="edge">
<title>Node7&#45;&gt;Node13</title>
<path fill="none" stroke="midnightblue" d="M562.42,-227.72C516.4,-218.59 421.28,-199.7 363.91,-188.31"/>
<polygon fill="midnightblue" stroke="midnightblue" points="364.5,-184.86 354.01,-186.35 363.14,-191.73 364.5,-184.86"/>
</g>
<!-- Node7&#45;&gt;Node15 -->
<g id="edge19" class="edge">
<title>Node7&#45;&gt;Node15</title>
<path fill="none" stroke="midnightblue" d="M562.4,-224.59C520.34,-211.47 435.78,-185.78 363,-168 306.28,-154.15 240.72,-141.29 195.43,-132.89"/>
<polygon fill="midnightblue" stroke="midnightblue" points="195.98,-129.44 185.51,-131.07 194.71,-136.32 195.98,-129.44"/>
</g>
<!-- Node17 -->
<g id="node17" class="node">
<title>Node17</title>
<g id="a_node17"><a xlink:href="value__utils_8hpp.html" target="_top" xlink:title=" ">
<polygon fill="none" stroke="black" points="562.5,-168.5 562.5,-187.5 653.5,-187.5 653.5,-168.5 562.5,-168.5"/>
<text text-anchor="middle" x="608" y="-175.5" font-family="Helvetica,sans-Serif" font-size="10.00">value_utils.hpp</text>
</a>
</g>
</g>
<!-- Node7&#45;&gt;Node17 -->
<g id="edge22" class="edge">
<title>Node7&#45;&gt;Node17</title>
<path fill="none" stroke="midnightblue" d="M592.14,-224.08C594.68,-216.85 598.36,-206.41 601.53,-197.4"/>
<polygon fill="midnightblue" stroke="midnightblue" points="604.9,-198.35 604.92,-187.75 598.3,-196.02 604.9,-198.35"/>
</g>
<!-- Node8&#45;&gt;Node3 -->
<g id="edge12" class="edge">
<title>Node8&#45;&gt;Node3</title>
<path fill="none" stroke="midnightblue" d="M831.4,-168.21C836.09,-154.44 842.53,-127.75 829,-112 797.02,-74.78 650.84,-68 576.98,-67"/>
<polygon fill="midnightblue" stroke="midnightblue" points="576.66,-63.49 566.63,-66.89 576.59,-70.49 576.66,-63.49"/>
</g>
<!-- Node8&#45;&gt;Node9 -->
<g id="edge8" class="edge">
<title>Node8&#45;&gt;Node9</title>
<path fill="none" stroke="midnightblue" d="M847.97,-168.44C868.61,-159.6 901.06,-145.69 924.63,-135.59"/>
<polygon fill="midnightblue" stroke="midnightblue" points="926.32,-138.67 934.13,-131.52 923.56,-132.24 926.32,-138.67"/>
</g>
<!-- Node12 -->
<g id="node12" class="node">
<title>Node12</title>
<g id="a_node12"><a xlink:href="enums_8hpp.html" target="_top" xlink:title=" ">
<polygon fill="none" stroke="black" points="748.5,-112.5 748.5,-131.5 819.5,-131.5 819.5,-112.5 748.5,-112.5"/>
<text text-anchor="middle" x="784" y="-119.5" font-family="Helvetica,sans-Serif" font-size="10.00">enums.hpp</text>
</a>
</g>
</g>
<!-- Node8&#45;&gt;Node12 -->
<g id="edge13" class="edge">
<title>Node8&#45;&gt;Node12</title>
<path fill="none" stroke="midnightblue" d="M820.73,-168.08C814.46,-160.38 805.21,-149.03 797.57,-139.65"/>
<polygon fill="midnightblue" stroke="midnightblue" points="800.16,-137.29 791.13,-131.75 794.73,-141.71 800.16,-137.29"/>
</g>
<!-- Node9&#45;&gt;Node3 -->
<g id="edge9" class="edge">
<title>Node9&#45;&gt;Node3</title>
<path fill="none" stroke="midnightblue" d="M924.47,-117.2C851.42,-107.81 662.06,-83.47 576.76,-72.5"/>
<polygon fill="midnightblue" stroke="midnightblue" points="577.01,-69 566.65,-71.2 576.12,-75.94 577.01,-69"/>
</g>
<!-- Node9&#45;&gt;Node10 -->
<g id="edge10" class="edge">
<title>Node9&#45;&gt;Node10</title>
<path fill="none" stroke="midnightblue" d="M983.81,-114.83C988.55,-113.87 993.41,-112.9 998,-112 1067.94,-98.34 1149.45,-83.38 1197.78,-74.61"/>
<polygon fill="midnightblue" stroke="midnightblue" points="1198.65,-78.01 1207.87,-72.79 1197.4,-71.13 1198.65,-78.01"/>
</g>
<!-- Node11 -->
<g id="node11" class="node">
<title>Node11</title>
<g id="a_node11"><a xlink:title=" ">
<polygon fill="none" stroke="#bfbfbf" points="1020.5,-56.5 1020.5,-75.5 1089.5,-75.5 1089.5,-56.5 1020.5,-56.5"/>
<text text-anchor="middle" x="1055" y="-63.5" font-family="Helvetica,sans-Serif" font-size="10.00">type_traits</text>
</a>
</g>
</g>
<!-- Node9&#45;&gt;Node11 -->
<g id="edge11" class="edge">
<title>Node9&#45;&gt;Node11</title>
<path fill="none" stroke="midnightblue" d="M970.23,-112.32C986.35,-103.7 1011.3,-90.36 1029.96,-80.39"/>
<polygon fill="midnightblue" stroke="midnightblue" points="1031.64,-83.46 1038.81,-75.65 1028.34,-77.28 1031.64,-83.46"/>
</g>
<!-- Node13&#45;&gt;Node3 -->
<g id="edge18" class="edge">
<title>Node13&#45;&gt;Node3</title>
<path fill="none" stroke="midnightblue" d="M316.91,-168.44C317.26,-154.51 320.07,-126.98 336,-112 358.1,-91.21 440,-78.03 491.29,-71.63"/>
<polygon fill="midnightblue" stroke="midnightblue" points="491.92,-75.08 501.43,-70.4 491.08,-68.13 491.92,-75.08"/>
</g>
<!-- Node13&#45;&gt;Node9 -->
<g id="edge17" class="edge">
<title>Node13&#45;&gt;Node9</title>
<path fill="none" stroke="midnightblue" d="M354,-173.86C465.75,-164.39 799.19,-136.12 914.36,-126.36"/>
<polygon fill="midnightblue" stroke="midnightblue" points="914.82,-129.83 924.49,-125.5 914.23,-122.86 914.82,-129.83"/>
</g>
<!-- Node14 -->
<g id="node14" class="node">
<title>Node14</title>
<g id="a_node14"><a xlink:title=" ">
<polygon fill="none" stroke="#bfbfbf" points="345.5,-112.5 345.5,-131.5 390.5,-131.5 390.5,-112.5 345.5,-112.5"/>
<text text-anchor="middle" x="368" y="-119.5" font-family="Helvetica,sans-Serif" font-size="10.00">utility</text>
</a>
</g>
</g>
<!-- Node13&#45;&gt;Node14 -->
<g id="edge16" class="edge">
<title>Node13&#45;&gt;Node14</title>
<path fill="none" stroke="midnightblue" d="M325.42,-168.08C332.85,-160.22 343.85,-148.57 352.81,-139.08"/>
<polygon fill="midnightblue" stroke="midnightblue" points="355.41,-141.42 359.74,-131.75 350.32,-136.62 355.41,-141.42"/>
</g>
<!-- Node15&#45;&gt;Node3 -->
<g id="edge21" class="edge">
<title>Node15&#45;&gt;Node3</title>
<path fill="none" stroke="midnightblue" d="M185.53,-114.1C190.41,-113.38 195.31,-112.67 200,-112 304.53,-97.12 427.65,-80.86 491.22,-72.56"/>
<polygon fill="midnightblue" stroke="midnightblue" points="491.8,-76.01 501.27,-71.25 490.9,-69.07 491.8,-76.01"/>
</g>
<!-- Node16 -->
<g id="node16" class="node">
<title>Node16</title>
<g id="a_node16"><a xlink:title=" ">
<polygon fill="none" stroke="#bfbfbf" points="107.5,-56.5 107.5,-75.5 172.5,-75.5 172.5,-56.5 107.5,-56.5"/>
<text text-anchor="middle" x="140" y="-63.5" font-family="Helvetica,sans-Serif" font-size="10.00">stdexcept</text>
</a>
</g>
</g>
<!-- Node15&#45;&gt;Node16 -->
<g id="edge20" class="edge">
<title>Node15&#45;&gt;Node16</title>
<path fill="none" stroke="midnightblue" d="M140,-112.08C140,-105.01 140,-94.86 140,-85.99"/>
<polygon fill="midnightblue" stroke="midnightblue" points="143.5,-85.75 140,-75.75 136.5,-85.75 143.5,-85.75"/>
</g>
<!-- Node17&#45;&gt;Node3 -->
<g id="edge25" class="edge">
<title>Node17&#45;&gt;Node3</title>
<path fill="none" stroke="midnightblue" d="M602.19,-168.37C589.98,-150.22 561.45,-107.8 545.43,-83.99"/>
<polygon fill="midnightblue" stroke="midnightblue" points="548.27,-81.94 539.78,-75.59 542.46,-85.84 548.27,-81.94"/>
</g>
<!-- Node17&#45;&gt;Node9 -->
<g id="edge23" class="edge">
<title>Node17&#45;&gt;Node9</title>
<path fill="none" stroke="midnightblue" d="M653.59,-169.88C721.73,-159.25 849.04,-139.38 913.86,-129.26"/>
<polygon fill="midnightblue" stroke="midnightblue" points="914.74,-132.67 924.08,-127.67 913.66,-125.75 914.74,-132.67"/>
</g>
<!-- Node17&#45;&gt;Node10 -->
<g id="edge26" class="edge">
<title>Node17&#45;&gt;Node10</title>
<path fill="none" stroke="midnightblue" d="M621.1,-168.42C643.95,-153.94 693.06,-124.97 739,-112 782.61,-99.69 1084.83,-77.76 1197.65,-69.9"/>
<polygon fill="midnightblue" stroke="midnightblue" points="1198.23,-73.37 1207.96,-69.19 1197.74,-66.39 1198.23,-73.37"/>
</g>
<!-- Node17&#45;&gt;Node15 -->
<g id="edge24" class="edge">
<title>Node17&#45;&gt;Node15</title>
<path fill="none" stroke="midnightblue" d="M562.49,-169.98C557.6,-169.29 552.7,-168.61 548,-168 422.38,-151.66 274.48,-136.31 195.82,-128.46"/>
<polygon fill="midnightblue" stroke="midnightblue" points="195.95,-124.96 185.66,-127.45 195.26,-131.92 195.95,-124.96"/>
</g>
<!-- Node18&#45;&gt;Node3 -->
<g id="edge35" class="edge">
<title>Node18&#45;&gt;Node3</title>
<path fill="none" stroke="midnightblue" d="M295.51,-280.42C285.55,-272.26 271.71,-259.03 265,-244 251.2,-213.09 246.51,-199.05 260,-168 297.4,-81.93 423.96,-67.52 491.2,-66.15"/>
<polygon fill="midnightblue" stroke="midnightblue" points="491.49,-69.64 501.45,-66.03 491.41,-62.64 491.49,-69.64"/>
</g>
<!-- Node18&#45;&gt;Node7 -->
<g id="edge30" class="edge">
<title>Node18&#45;&gt;Node7</title>
<path fill="none" stroke="midnightblue" d="M349.22,-280.92C404.39,-270.35 500.11,-252.02 552.37,-242.02"/>
<polygon fill="midnightblue" stroke="midnightblue" points="553.05,-245.45 562.21,-240.13 551.73,-238.57 553.05,-245.45"/>
</g>
<!-- Node18&#45;&gt;Node9 -->
<g id="edge34" class="edge">
<title>Node18&#45;&gt;Node9</title>
<path fill="none" stroke="midnightblue" d="M349.11,-286.19C469.7,-277.48 813.62,-247.86 907,-188 924.72,-176.64 937.9,-156.04 945.72,-141.07"/>
<polygon fill="midnightblue" stroke="midnightblue" points="949.01,-142.31 950.27,-131.79 942.73,-139.22 949.01,-142.31"/>
</g>
<!-- Node18&#45;&gt;Node13 -->
<g id="edge31" class="edge">
<title>Node18&#45;&gt;Node13</title>
<path fill="none" stroke="midnightblue" d="M307.78,-280.37C309.4,-262.62 313.12,-221.67 315.31,-197.6"/>
<polygon fill="midnightblue" stroke="midnightblue" points="318.8,-197.87 316.22,-187.59 311.83,-197.23 318.8,-197.87"/>
</g>
<!-- Node18&#45;&gt;Node14 -->
<g id="edge36" class="edge">
<title>Node18&#45;&gt;Node14</title>
<path fill="none" stroke="midnightblue" d="M299.93,-280.41C283.72,-259.61 247.06,-205.5 271,-168 285.12,-145.88 313.22,-134.47 335.56,-128.68"/>
<polygon fill="midnightblue" stroke="midnightblue" points="336.4,-132.08 345.34,-126.4 334.81,-125.26 336.4,-132.08"/>
</g>
<!-- Node18&#45;&gt;Node15 -->
<g id="edge32" class="edge">
<title>Node18&#45;&gt;Node15</title>
<path fill="none" stroke="midnightblue" d="M279.33,-280.35C259.42,-273.08 232.87,-261.1 214,-244 181.29,-214.35 158.1,-166.88 147.14,-141.09"/>
<polygon fill="midnightblue" stroke="midnightblue" points="150.35,-139.7 143.31,-131.77 143.87,-142.35 150.35,-139.7"/>
</g>
<!-- Node18&#45;&gt;Node17 -->
<g id="edge33" class="edge">
<title>Node18&#45;&gt;Node17</title>
<path fill="none" stroke="midnightblue" d="M330.62,-280.37C383.92,-260.89 513.65,-213.48 574.92,-191.09"/>
<polygon fill="midnightblue" stroke="midnightblue" points="576.3,-194.31 584.49,-187.59 573.9,-187.74 576.3,-194.31"/>
</g>
<!-- Node19&#45;&gt;Node3 -->
<g id="edge48" class="edge">
<title>Node19&#45;&gt;Node3</title>
<path fill="none" stroke="midnightblue" d="M1150.36,-281.22C1064.41,-262.31 847.71,-213.57 778,-188 693.39,-156.97 599.53,-105.08 557.08,-80.59"/>
<polygon fill="midnightblue" stroke="midnightblue" points="558.76,-77.52 548.36,-75.52 555.25,-83.57 558.76,-77.52"/>
</g>
<!-- Node19&#45;&gt;Node10 -->
<g id="edge49" class="edge">
<title>Node19&#45;&gt;Node10</title>
<path fill="none" stroke="midnightblue" d="M1195.3,-280.23C1203.76,-271.74 1215.96,-258.12 1223,-244 1249.71,-190.41 1256.53,-171.52 1250,-112 1249.03,-103.14 1247.01,-93.47 1245.04,-85.38"/>
<polygon fill="midnightblue" stroke="midnightblue" points="1248.38,-84.33 1242.48,-75.53 1241.61,-86.09 1248.38,-84.33"/>
</g>
<!-- Node20 -->
<g id="node20" class="node">
<title>Node20</title>
<g id="a_node20"><a xlink:href="group__iface_8hpp.html" target="_top" xlink:title=" ">
<polygon fill="none" stroke="black" points="1118.5,-224.5 1118.5,-243.5 1213.5,-243.5 1213.5,-224.5 1118.5,-224.5"/>
<text text-anchor="middle" x="1166" y="-231.5" font-family="Helvetica,sans-Serif" font-size="10.00">group_iface.hpp</text>
</a>
</g>
</g>
<!-- Node19&#45;&gt;Node20 -->
<g id="edge38" class="edge">
<title>Node19&#45;&gt;Node20</title>
<path fill="none" stroke="midnightblue" d="M1182.7,-280.08C1180.02,-272.85 1176.15,-262.41 1172.81,-253.4"/>
<polygon fill="midnightblue" stroke="midnightblue" points="1176,-251.91 1169.24,-243.75 1169.43,-254.34 1176,-251.91"/>
</g>
<!-- Node20&#45;&gt;Node3 -->
<g id="edge42" class="edge">
<title>Node20&#45;&gt;Node3</title>
<path fill="none" stroke="midnightblue" d="M1162.97,-224.22C1157.82,-210.47 1146.12,-183.81 1128,-168 1079.06,-125.29 1056.01,-127.79 993,-112 843.25,-74.49 658.72,-67.95 576.73,-67.01"/>
<polygon fill="midnightblue" stroke="midnightblue" points="576.59,-63.51 566.55,-66.92 576.52,-70.51 576.59,-63.51"/>
</g>
<!-- Node20&#45;&gt;Node6 -->
<g id="edge43" class="edge">
<title>Node20&#45;&gt;Node6</title>
<path fill="none" stroke="midnightblue" d="M1179.46,-224.46C1193.31,-215.59 1215.41,-201.19 1234,-188 1315.27,-130.33 1408.8,-57.11 1448.08,-26.04"/>
<polygon fill="midnightblue" stroke="midnightblue" points="1450.37,-28.69 1456.04,-19.73 1446.02,-23.2 1450.37,-28.69"/>
</g>
<!-- Node20&#45;&gt;Node8 -->
<g id="edge39" class="edge">
<title>Node20&#45;&gt;Node8</title>
<path fill="none" stroke="midnightblue" d="M1118.29,-225.38C1055.24,-215.31 944.6,-197.63 879.64,-187.25"/>
<polygon fill="midnightblue" stroke="midnightblue" points="880.05,-183.77 869.62,-185.65 878.94,-190.68 880.05,-183.77"/>
</g>
<!-- Node20&#45;&gt;Node9 -->
<g id="edge40" class="edge">
<title>Node20&#45;&gt;Node9</title>
<path fill="none" stroke="midnightblue" d="M1159.91,-224.5C1149.57,-210.65 1127.2,-183.25 1102,-168 1068.35,-147.64 1024.77,-135.85 993.63,-129.48"/>
<polygon fill="midnightblue" stroke="midnightblue" points="994.06,-126 983.58,-127.53 992.72,-132.87 994.06,-126"/>
</g>
<!-- Node20&#45;&gt;Node10 -->
<g id="edge45" class="edge">
<title>Node20&#45;&gt;Node10</title>
<path fill="none" stroke="midnightblue" d="M1179.71,-224.39C1191.25,-216.4 1207.23,-203.43 1216,-188 1234.55,-155.37 1238.95,-110.71 1239.88,-85.78"/>
<polygon fill="midnightblue" stroke="midnightblue" points="1243.38,-85.63 1240.1,-75.55 1236.38,-85.47 1243.38,-85.63"/>
</g>
<!-- Node20&#45;&gt;Node11 -->
<g id="edge44" class="edge">
<title>Node20&#45;&gt;Node11</title>
<path fill="none" stroke="midnightblue" d="M1170.15,-224.44C1175.67,-211.86 1184.07,-187.74 1178,-168 1169.17,-139.25 1162.4,-132.07 1140,-112 1124.72,-98.31 1104.52,-87.39 1087.65,-79.74"/>
<polygon fill="midnightblue" stroke="midnightblue" points="1088.73,-76.39 1078.17,-75.62 1085.94,-82.81 1088.73,-76.39"/>
</g>
<!-- Node20&#45;&gt;Node14 -->
<g id="edge46" class="edge">
<title>Node20&#45;&gt;Node14</title>
<path fill="none" stroke="midnightblue" d="M1118.41,-228.34C1045.13,-220.96 900.33,-205.63 778,-188 726.22,-180.54 713.64,-176.4 662,-168 567.16,-152.57 454.84,-135.79 400.58,-127.78"/>
<polygon fill="midnightblue" stroke="midnightblue" points="400.93,-124.29 390.52,-126.3 399.9,-131.22 400.93,-124.29"/>
</g>
<!-- Node20&#45;&gt;Node15 -->
<g id="edge41" class="edge">
<title>Node20&#45;&gt;Node15</title>
<path fill="none" stroke="midnightblue" d="M1118.18,-230.84C1014.81,-225.88 762.9,-212.18 553,-188 518.15,-183.99 300.43,-148.97 195.9,-132.06"/>
<polygon fill="midnightblue" stroke="midnightblue" points="196.27,-128.58 185.84,-130.43 195.15,-135.49 196.27,-128.58"/>
</g>
<!-- Node20&#45;&gt;Node21 -->
<g id="edge47" class="edge">
<title>Node20&#45;&gt;Node21</title>
<path fill="none" stroke="midnightblue" d="M1198.8,-224.44C1235.43,-214.89 1294.68,-199.43 1333.74,-189.24"/>
<polygon fill="midnightblue" stroke="midnightblue" points="1334.91,-192.55 1343.7,-186.64 1333.14,-185.78 1334.91,-192.55"/>
</g>
<!-- Node22&#45;&gt;Node2 -->
<g id="edge51" class="edge">
<title>Node22&#45;&gt;Node2</title>
<path fill="none" stroke="midnightblue" d="M757.13,-299.75C753.53,-307.4 746.16,-318.74 738.86,-328.14"/>
<polygon fill="midnightblue" stroke="midnightblue" points="735.96,-326.15 732.28,-336.08 741.35,-330.62 735.96,-326.15"/>
</g>
<!-- Node22&#45;&gt;Node3 -->
<g id="edge57" class="edge">
<title>Node22&#45;&gt;Node3</title>
<path fill="none" stroke="midnightblue" d="M740.32,-280.42C690.85,-256.4 554.54,-190.09 553,-188 530.7,-157.7 530.15,-111.5 531.94,-85.84"/>
<polygon fill="midnightblue" stroke="midnightblue" points="535.44,-85.9 532.85,-75.62 528.47,-85.27 535.44,-85.9"/>
</g>
<!-- Node22&#45;&gt;Node9 -->
<g id="edge53" class="edge">
<title>Node22&#45;&gt;Node9</title>
<path fill="none" stroke="midnightblue" d="M797.48,-280.45C842.83,-268.35 915.44,-241.45 950,-188 958.73,-174.5 959,-155.94 957.51,-142.11"/>
<polygon fill="midnightblue" stroke="midnightblue" points="960.91,-141.21 955.99,-131.82 953.99,-142.23 960.91,-141.21"/>
</g>
<!-- Node22&#45;&gt;Node12 -->
<g id="edge56" class="edge">
<title>Node22&#45;&gt;Node12</title>
<path fill="none" stroke="midnightblue" d="M759.4,-280.08C763.49,-253.95 775.51,-177.21 781.09,-141.58"/>
<polygon fill="midnightblue" stroke="midnightblue" points="784.57,-141.99 782.66,-131.57 777.65,-140.91 784.57,-141.99"/>
</g>
<!-- Node22&#45;&gt;Node13 -->
<g id="edge54" class="edge">
<title>Node22&#45;&gt;Node13</title>
<path fill="none" stroke="midnightblue" d="M715.84,-280.42C674.29,-271.81 609.06,-257.86 553,-244 483.24,-226.75 402.67,-203.93 356.01,-190.42"/>
<polygon fill="midnightblue" stroke="midnightblue" points="356.88,-187.03 346.3,-187.61 354.93,-193.75 356.88,-187.03"/>
</g>
<!-- Node22&#45;&gt;Node17 -->
<g id="edge55" class="edge">
<title>Node22&#45;&gt;Node17</title>
<path fill="none" stroke="midnightblue" d="M751.16,-280.1C740.49,-266.66 718.75,-240.97 696,-224 678.36,-210.84 656.31,-199.57 638.69,-191.6"/>
<polygon fill="midnightblue" stroke="midnightblue" points="639.98,-188.35 629.42,-187.53 637.16,-194.76 639.98,-188.35"/>
</g>
<!-- Node22&#45;&gt;Node20 -->
<g id="edge52" class="edge">
<title>Node22&#45;&gt;Node20</title>
<path fill="none" stroke="midnightblue" d="M801.28,-283.27C875.2,-273.49 1025.82,-253.55 1108.49,-242.61"/>
<polygon fill="midnightblue" stroke="midnightblue" points="1109.02,-246.07 1118.47,-241.29 1108.1,-239.13 1109.02,-246.07"/>
</g>
<!-- Node23&#45;&gt;Node3 -->
<g id="edge69" class="edge">
<title>Node23&#45;&gt;Node3</title>
<path fill="none" stroke="midnightblue" d="M767.57,-336.42C694.58,-312.94 498.99,-245.52 468,-188 461.28,-175.53 456.64,-138.16 471,-112 478.49,-98.35 492.11,-87.83 504.77,-80.42"/>
<polygon fill="midnightblue" stroke="midnightblue" points="506.6,-83.41 513.72,-75.56 503.26,-77.25 506.6,-83.41"/>
</g>
<!-- Node23&#45;&gt;Node7 -->
<g id="edge63" class="edge">
<title>Node23&#45;&gt;Node7</title>
<path fill="none" stroke="midnightblue" d="M777.5,-336.4C759.48,-327.49 730.63,-313.06 706,-300 673.52,-282.78 636.5,-262.02 612.96,-248.67"/>
<polygon fill="midnightblue" stroke="midnightblue" points="614.47,-245.5 604.04,-243.6 611.01,-251.59 614.47,-245.5"/>
</g>
<!-- Node23&#45;&gt;Node9 -->
<g id="edge67" class="edge">
<title>Node23&#45;&gt;Node9</title>
<path fill="none" stroke="midnightblue" d="M812.18,-336.43C849.69,-316.55 937.88,-263.22 967,-188 972.9,-172.76 968.25,-154.42 962.94,-141.11"/>
<polygon fill="midnightblue" stroke="midnightblue" points="966,-139.38 958.73,-131.68 959.61,-142.24 966,-139.38"/>
</g>
<!-- Node23&#45;&gt;Node13 -->
<g id="edge66" class="edge">
<title>Node23&#45;&gt;Node13</title>
<path fill="none" stroke="midnightblue" d="M765.26,-337.77C762.14,-337.12 759.01,-336.52 756,-336 617.57,-312.17 568.99,-360.04 442,-300 391.44,-276.1 348.62,-223.47 328.8,-196.17"/>
<polygon fill="midnightblue" stroke="midnightblue" points="331.41,-193.8 322.77,-187.66 325.7,-197.85 331.41,-193.8"/>
</g>
<!-- Node23&#45;&gt;Node15 -->
<g id="edge68" class="edge">
<title>Node23&#45;&gt;Node15</title>
<path fill="none" stroke="midnightblue" d="M765.29,-337.61C762.16,-336.99 759.03,-336.44 756,-336 628.21,-317.42 297.37,-344.1 176,-300 136.57,-285.67 118.92,-281.45 100,-244 84.77,-213.85 88,-199.57 100,-168 104.34,-156.6 113.03,-146.24 121.21,-138.34"/>
<polygon fill="midnightblue" stroke="midnightblue" points="123.64,-140.86 128.73,-131.57 118.96,-135.66 123.64,-140.86"/>
</g>
<!-- Node23&#45;&gt;Node21 -->
<g id="edge71" class="edge">
<title>Node23&#45;&gt;Node21</title>
<path fill="none" stroke="midnightblue" d="M824.75,-344.22C910.62,-341.6 1157.45,-331.47 1231,-300 1286.62,-276.2 1336.67,-222.72 1359.67,-195.53"/>
<polygon fill="midnightblue" stroke="midnightblue" points="1362.47,-197.64 1366.16,-187.7 1357.08,-193.17 1362.47,-197.64"/>
</g>
<!-- Node23&#45;&gt;Node22 -->
<g id="edge70" class="edge">
<title>Node23&#45;&gt;Node22</title>
<path fill="none" stroke="midnightblue" d="M788.89,-336.08C783.72,-328.53 776.15,-317.49 769.81,-308.23"/>
<polygon fill="midnightblue" stroke="midnightblue" points="772.54,-306.02 764,-299.75 766.76,-309.98 772.54,-306.02"/>
</g>
<!-- Node24 -->
<g id="node24" class="node">
<title>Node24</title>
<g id="a_node24"><a xlink:href="help__printer__iface_8hpp.html" target="_top" xlink:title=" ">
<polygon fill="none" stroke="black" points="1007.5,-280.5 1007.5,-299.5 1132.5,-299.5 1132.5,-280.5 1007.5,-280.5"/>
<text text-anchor="middle" x="1070" y="-287.5" font-family="Helvetica,sans-Serif" font-size="10.00">help_printer_iface.hpp</text>
</a>
</g>
</g>
<!-- Node23&#45;&gt;Node24 -->
<g id="edge64" class="edge">
<title>Node23&#45;&gt;Node24</title>
<path fill="none" stroke="midnightblue" d="M824.69,-339.17C870.55,-330.17 959.28,-312.74 1016.51,-301.5"/>
<polygon fill="midnightblue" stroke="midnightblue" points="1017.33,-304.91 1026.46,-299.55 1015.98,-298.04 1017.33,-304.91"/>
</g>
<!-- Node24&#45;&gt;Node9 -->
<g id="edge65" class="edge">
<title>Node24&#45;&gt;Node9</title>
<path fill="none" stroke="midnightblue" d="M1072.43,-280.39C1077.88,-259.06 1088.79,-203.02 1064,-168 1047.94,-145.31 1018.31,-134.04 993.84,-128.45"/>
<polygon fill="midnightblue" stroke="midnightblue" points="994.23,-124.96 983.73,-126.39 992.83,-131.82 994.23,-124.96"/>
</g>
<!-- Node25&#45;&gt;Node1 -->
<g id="edge86" class="edge">
<title>Node25&#45;&gt;Node1</title>
<path fill="none" stroke="midnightblue" d="M1293.13,-355.75C1294.66,-362.86 1295.1,-373.14 1294.47,-382.1"/>
<polygon fill="midnightblue" stroke="midnightblue" points="1290.99,-381.71 1293.17,-392.08 1297.93,-382.62 1290.99,-381.71"/>
</g>
<!-- Node25&#45;&gt;Node3 -->
<g id="edge84" class="edge">
<title>Node25&#45;&gt;Node3</title>
<path fill="none" stroke="midnightblue" d="M1301.83,-336.44C1314.92,-328 1334.8,-314.32 1350,-300 1399.28,-253.59 1470.25,-219.23 1426,-168 1369.75,-102.87 746.54,-74.94 576.59,-68.5"/>
<polygon fill="midnightblue" stroke="midnightblue" points="576.65,-65 566.52,-68.13 576.38,-72 576.65,-65"/>
</g>
<!-- Node25&#45;&gt;Node6 -->
<g id="edge76" class="edge">
<title>Node25&#45;&gt;Node6</title>
<path fill="none" stroke="midnightblue" d="M1335.73,-341.27C1423.13,-331.55 1600,-297.26 1600,-179 1600,-179 1600,-179 1600,-121 1600,-69.34 1539.69,-37.38 1500.29,-22.01"/>
<polygon fill="midnightblue" stroke="midnightblue" points="1501.37,-18.67 1490.78,-18.45 1498.92,-25.23 1501.37,-18.67"/>
</g>
<!-- Node25&#45;&gt;Node9 -->
<g id="edge79" class="edge">
<title>Node25&#45;&gt;Node9</title>
<path fill="none" stroke="midnightblue" d="M1296.23,-336.15C1321.81,-308.4 1398.97,-222.86 1411,-188 1413.9,-179.6 1416.97,-174.59 1411,-168 1397.04,-152.6 1102.52,-132.43 993.83,-125.48"/>
<polygon fill="midnightblue" stroke="midnightblue" points="993.81,-121.97 983.61,-124.83 993.37,-128.95 993.81,-121.97"/>
</g>
<!-- Node25&#45;&gt;Node10 -->
<g id="edge77" class="edge">
<title>Node25&#45;&gt;Node10</title>
<path fill="none" stroke="midnightblue" d="M1335.63,-338.55C1382.15,-331.31 1448.56,-318.15 1467,-300 1509.07,-258.57 1514.74,-217.14 1482,-168 1437.33,-100.95 1338.76,-78.33 1282.16,-70.76"/>
<polygon fill="midnightblue" stroke="midnightblue" points="1282.46,-67.27 1272.11,-69.52 1281.6,-74.22 1282.46,-67.27"/>
</g>
<!-- Node25&#45;&gt;Node15 -->
<g id="edge80" class="edge">
<title>Node25&#45;&gt;Node15</title>
<path fill="none" stroke="midnightblue" d="M1240.33,-343.81C1043.49,-338.78 302.1,-318.68 256,-300 194.43,-275.04 183.7,-248.84 157,-188 150.41,-172.98 145.93,-154.85 143.23,-141.55"/>
<polygon fill="midnightblue" stroke="midnightblue" points="146.66,-140.88 141.37,-131.7 139.79,-142.18 146.66,-140.88"/>
</g>
<!-- Node25&#45;&gt;Node19 -->
<g id="edge82" class="edge">
<title>Node25&#45;&gt;Node19</title>
<path fill="none" stroke="midnightblue" d="M1271.61,-336.32C1255.33,-327.7 1230.13,-314.36 1211.28,-304.39"/>
<polygon fill="midnightblue" stroke="midnightblue" points="1212.82,-301.24 1202.35,-299.65 1209.55,-307.43 1212.82,-301.24"/>
</g>
<!-- Node25&#45;&gt;Node20 -->
<g id="edge81" class="edge">
<title>Node25&#45;&gt;Node20</title>
<path fill="none" stroke="midnightblue" d="M1281.58,-336.4C1271.6,-323.36 1251.39,-298.18 1231,-280 1218.06,-268.46 1202.06,-257.35 1189.17,-249.06"/>
<polygon fill="midnightblue" stroke="midnightblue" points="1190.76,-245.92 1180.43,-243.55 1187.03,-251.84 1190.76,-245.92"/>
</g>
<!-- Node25&#45;&gt;Node22 -->
<g id="edge83" class="edge">
<title>Node25&#45;&gt;Node22</title>
<path fill="none" stroke="midnightblue" d="M1240.5,-340.16C1141.75,-330.1 914.9,-306.99 811.32,-296.43"/>
<polygon fill="midnightblue" stroke="midnightblue" points="811.4,-292.92 801.1,-295.39 810.69,-299.89 811.4,-292.92"/>
</g>
<!-- Node25&#45;&gt;Node24 -->
<g id="edge85" class="edge">
<title>Node25&#45;&gt;Node24</title>
<path fill="none" stroke="midnightblue" d="M1253.46,-336.44C1215.75,-327.1 1155.26,-312.12 1114.14,-301.93"/>
<polygon fill="midnightblue" stroke="midnightblue" points="1114.93,-298.52 1104.38,-299.52 1113.25,-305.32 1114.93,-298.52"/>
</g>
<!-- Node26 -->
<g id="node26" class="node">
<title>Node26</title>
<g id="a_node26"><a xlink:title=" ">
<polygon fill="none" stroke="#bfbfbf" points="1392.5,-280.5 1392.5,-299.5 1457.5,-299.5 1457.5,-280.5 1392.5,-280.5"/>
<text text-anchor="middle" x="1425" y="-287.5" font-family="Helvetica,sans-Serif" font-size="10.00">functional</text>
</a>
</g>
</g>
<!-- Node25&#45;&gt;Node26 -->
<g id="edge78" class="edge">
<title>Node25&#45;&gt;Node26</title>
<path fill="none" stroke="midnightblue" d="M1309.71,-336.44C1332.35,-327.52 1368.07,-313.44 1393.75,-303.32"/>
<polygon fill="midnightblue" stroke="midnightblue" points="1395.37,-306.44 1403.39,-299.52 1392.81,-299.93 1395.37,-306.44"/>
</g>
</g>
</svg>
