<?xml version="1.0" encoding="UTF-8" standalone="no"?>
<!DOCTYPE svg PUBLIC "-//W3C//DTD SVG 1.1//EN"
 "http://www.w3.org/Graphics/SVG/1.1/DTD/svg11.dtd">
<!-- Generated by graphviz version 2.38.0 (20140413.2041)
 -->
<!-- Title: cmd_line.hpp Pages: 1 -->
<svg width="197pt" height="140pt"
 viewBox="0.00 0.00 196.87 140.00" xmlns="http://www.w3.org/2000/svg" xmlns:xlink="http://www.w3.org/1999/xlink">
<g id="graph0" class="graph" transform="scale(1 1) rotate(0) translate(4 136)">
<title>cmd_line.hpp</title>
<!-- Node1 -->
<g id="node1" class="node"><title>Node1</title>
<polygon fill="#bfbfbf" stroke="black" points="82.5,-112.5 82.5,-131.5 156.5,-131.5 156.5,-112.5 82.5,-112.5"/>
<text text-anchor="middle" x="119.5" y="-119.5" font-family="Helvetica,sans-Serif" font-size="10.00">cmd_line.hpp</text>
</g>
<!-- Node2 -->
<g id="node2" class="node"><title>Node2</title>
<g id="a_node2"><a xlink:href="all_8hpp.html" target="_top" xlink:title="all.hpp">
<polygon fill="none" stroke="black" points="0,-56.5 0,-75.5 45,-75.5 45,-56.5 0,-56.5"/>
<text text-anchor="middle" x="22.5" y="-63.5" font-family="Helvetica,sans-Serif" font-size="10.00">all.hpp</text>
</a>
</g>
</g>
<!-- Node1&#45;&gt;Node2 -->
<g id="edge1" class="edge"><title>Node1&#45;&gt;Node2</title>
<path fill="none" stroke="midnightblue" d="M95.1648,-107.453C77.2574,-97.4835 53.4463,-84.2279 38.0461,-75.6545"/>
<polygon fill="midnightblue" stroke="midnightblue" points="93.4755,-110.518 103.915,-112.324 96.8804,-104.402 93.4755,-110.518"/>
</g>
<!-- Node3 -->
<g id="node3" class="node"><title>Node3</title>
<g id="a_node3"><a xlink:href="arg__as__command_8hpp.html" target="_top" xlink:title="arg_as_command.hpp">
<polygon fill="none" stroke="black" points="63,-56.5 63,-75.5 176,-75.5 176,-56.5 63,-56.5"/>
<text text-anchor="middle" x="119.5" y="-63.5" font-family="Helvetica,sans-Serif" font-size="10.00">arg_as_command.hpp</text>
</a>
</g>
</g>
<!-- Node1&#45;&gt;Node3 -->
<g id="edge2" class="edge"><title>Node1&#45;&gt;Node3</title>
<path fill="none" stroke="midnightblue" d="M119.5,-101.805C119.5,-92.9102 119.5,-82.7798 119.5,-75.7511"/>
<polygon fill="midnightblue" stroke="midnightblue" points="116,-102.083 119.5,-112.083 123,-102.083 116,-102.083"/>
</g>
<!-- Node4 -->
<g id="node4" class="node"><title>Node4</title>
<g id="a_node4"><a xlink:href="api_8hpp.html" target="_top" xlink:title="api.hpp">
<polygon fill="none" stroke="black" points="137.5,-0.5 137.5,-19.5 185.5,-19.5 185.5,-0.5 137.5,-0.5"/>
<text text-anchor="middle" x="161.5" y="-7.5" font-family="Helvetica,sans-Serif" font-size="10.00">api.hpp</text>
</a>
</g>
</g>
<!-- Node3&#45;&gt;Node4 -->
<g id="edge3" class="edge"><title>Node3&#45;&gt;Node4</title>
<path fill="none" stroke="midnightblue" d="M132.61,-48.144C139.928,-38.7357 148.741,-27.4046 154.694,-19.7511"/>
<polygon fill="midnightblue" stroke="midnightblue" points="129.812,-46.0406 126.435,-56.083 135.338,-50.3383 129.812,-46.0406"/>
</g>
<!-- Node4&#45;&gt;Node1 -->
<g id="edge4" class="edge"><title>Node4&#45;&gt;Node1</title>
<path fill="none" stroke="midnightblue" d="M175.484,-28.0201C184.716,-41.4493 193.72,-60.4457 185.5,-76 176.363,-93.2883 157.269,-105.184 141.959,-112.382"/>
<polygon fill="midnightblue" stroke="midnightblue" points="178.063,-25.6259 169.265,-19.7231 172.462,-29.8242 178.063,-25.6259"/>
</g>
</g>
</svg>
