<?xml version="1.0" encoding="UTF-8" standalone="no"?>
<!DOCTYPE svg PUBLIC "-//W3C//DTD SVG 1.1//EN"
 "http://www.w3.org/Graphics/SVG/1.1/DTD/svg11.dtd">
<!-- Generated by graphviz version 2.38.0 (20140413.2041)
 -->
<!-- Title: cmd_line.hpp Pages: 1 -->
<svg width="1758pt" height="420pt"
 viewBox="0.00 0.00 1758.00 420.00" xmlns="http://www.w3.org/2000/svg" xmlns:xlink="http://www.w3.org/1999/xlink">
<g id="graph0" class="graph" transform="scale(1 1) rotate(0) translate(4 416)">
<title>cmd_line.hpp</title>
<!-- Node1 -->
<g id="node1" class="node"><title>Node1</title>
<polygon fill="#bfbfbf" stroke="black" points="990,-392.5 990,-411.5 1064,-411.5 1064,-392.5 990,-392.5"/>
<text text-anchor="middle" x="1027" y="-399.5" font-family="FreeSans" font-size="10.00">cmd_line.hpp</text>
</g>
<!-- Node2 -->
<g id="node2" class="node"><title>Node2</title>
<g id="a_node2"><a xlink:href="api_8hpp.html" target="_top" xlink:title="api.hpp">
<polygon fill="none" stroke="black" points="632.5,-336.5 632.5,-355.5 679.5,-355.5 679.5,-336.5 632.5,-336.5"/>
<text text-anchor="middle" x="656" y="-343.5" font-family="FreeSans" font-size="10.00">api.hpp</text>
</a>
</g>
</g>
<!-- Node1&#45;&gt;Node2 -->
<g id="edge1" class="edge"><title>Node1&#45;&gt;Node2</title>
<path fill="none" stroke="midnightblue" d="M989.743,-396.068C930.303,-388.122 810.375,-371.777 709,-356 702.856,-355.044 696.32,-353.976 690.012,-352.919"/>
<polygon fill="midnightblue" stroke="midnightblue" points="690.167,-349.395 679.722,-351.172 688.995,-356.296 690.167,-349.395"/>
</g>
<!-- Node6 -->
<g id="node6" class="node"><title>Node6</title>
<polygon fill="none" stroke="#bfbfbf" points="1633.5,-0.5 1633.5,-19.5 1676.5,-19.5 1676.5,-0.5 1633.5,-0.5"/>
<text text-anchor="middle" x="1655" y="-7.5" font-family="FreeSans" font-size="10.00">vector</text>
</g>
<!-- Node1&#45;&gt;Node6 -->
<g id="edge77" class="edge"><title>Node1&#45;&gt;Node6</title>
<path fill="none" stroke="midnightblue" d="M1064.13,-401.743C1154.55,-402.751 1392.81,-400.57 1585,-356 1661.78,-338.195 1750,-369.818 1750,-291 1750,-291 1750,-291 1750,-121 1750,-77.7385 1707.39,-43.0862 1679.25,-24.9149"/>
<polygon fill="midnightblue" stroke="midnightblue" points="1681.03,-21.9032 1670.69,-19.6042 1677.34,-27.851 1681.03,-21.9032"/>
</g>
<!-- Node9 -->
<g id="node9" class="node"><title>Node9</title>
<g id="a_node9"><a xlink:href="utils_8hpp.html" target="_top" xlink:title="utils.hpp">
<polygon fill="none" stroke="black" points="970,-112.5 970,-131.5 1022,-131.5 1022,-112.5 970,-112.5"/>
<text text-anchor="middle" x="996" y="-119.5" font-family="FreeSans" font-size="10.00">utils.hpp</text>
</a>
</g>
</g>
<!-- Node1&#45;&gt;Node9 -->
<g id="edge58" class="edge"><title>Node1&#45;&gt;Node9</title>
<path fill="none" stroke="midnightblue" d="M1064.23,-399.828C1191.09,-394.995 1596.3,-372.268 1554,-280 1538.11,-245.337 1522.22,-242.713 1489,-224 1335.51,-137.55 1117.98,-124.624 1032.5,-123.034"/>
<polygon fill="midnightblue" stroke="midnightblue" points="1032.32,-119.531 1022.27,-122.887 1032.22,-126.53 1032.32,-119.531"/>
</g>
<!-- Node11 -->
<g id="node11" class="node"><title>Node11</title>
<polygon fill="none" stroke="#bfbfbf" points="1418,-56.5 1418,-75.5 1474,-75.5 1474,-56.5 1418,-56.5"/>
<text text-anchor="middle" x="1446" y="-63.5" font-family="FreeSans" font-size="10.00">algorithm</text>
</g>
<!-- Node1&#45;&gt;Node11 -->
<g id="edge78" class="edge"><title>Node1&#45;&gt;Node11</title>
<path fill="none" stroke="midnightblue" d="M1064.32,-398.988C1207.26,-390.793 1712,-357.171 1712,-291 1712,-291 1712,-291 1712,-177 1712,-79.8328 1558.55,-66.8108 1484.75,-66.1669"/>
<polygon fill="midnightblue" stroke="midnightblue" points="1484.47,-62.6666 1474.47,-66.1531 1484.46,-69.6666 1484.47,-62.6666"/>
</g>
<!-- Node14 -->
<g id="node14" class="node"><title>Node14</title>
<g id="a_node14"><a xlink:href="context_8hpp.html" target="_top" xlink:title="context.hpp">
<polygon fill="none" stroke="black" points="690,-168.5 690,-187.5 756,-187.5 756,-168.5 690,-168.5"/>
<text text-anchor="middle" x="723" y="-175.5" font-family="FreeSans" font-size="10.00">context.hpp</text>
</a>
</g>
</g>
<!-- Node1&#45;&gt;Node14 -->
<g id="edge59" class="edge"><title>Node1&#45;&gt;Node14</title>
<path fill="none" stroke="midnightblue" d="M989.845,-393.541C939.242,-381.681 848.395,-354.114 791,-300 759.704,-270.493 738.991,-223.307 729.318,-197.441"/>
<polygon fill="midnightblue" stroke="midnightblue" points="732.522,-196.005 725.85,-187.775 725.933,-198.37 732.522,-196.005"/>
</g>
<!-- Node16 -->
<g id="node16" class="node"><title>Node16</title>
<g id="a_node16"><a xlink:href="exceptions_8hpp.html" target="_top" xlink:title="exceptions.hpp">
<polygon fill="none" stroke="black" points="158,-112.5 158,-131.5 238,-131.5 238,-112.5 158,-112.5"/>
<text text-anchor="middle" x="198" y="-119.5" font-family="FreeSans" font-size="10.00">exceptions.hpp</text>
</a>
</g>
</g>
<!-- Node1&#45;&gt;Node16 -->
<g id="edge60" class="edge"><title>Node1&#45;&gt;Node16</title>
<path fill="none" stroke="midnightblue" d="M989.842,-401.001C805.722,-400.528 0,-392.651 0,-291 0,-291 0,-291 0,-233 0,-165.485 89.0599,-139.053 147.72,-128.965"/>
<polygon fill="midnightblue" stroke="midnightblue" points="148.616,-132.366 157.932,-127.32 147.502,-125.455 148.616,-132.366"/>
</g>
<!-- Node22 -->
<g id="node22" class="node"><title>Node22</title>
<polygon fill="none" stroke="#bfbfbf" points="1100.5,-168.5 1100.5,-187.5 1151.5,-187.5 1151.5,-168.5 1100.5,-168.5"/>
<text text-anchor="middle" x="1126" y="-175.5" font-family="FreeSans" font-size="10.00">memory</text>
</g>
<!-- Node1&#45;&gt;Node22 -->
<g id="edge79" class="edge"><title>Node1&#45;&gt;Node22</title>
<path fill="none" stroke="midnightblue" d="M1031.11,-392.393C1039.39,-375.007 1058.6,-334.425 1074,-300 1090.28,-263.621 1108.5,-220.687 1118.47,-196.988"/>
<polygon fill="midnightblue" stroke="midnightblue" points="1121.79,-198.122 1122.43,-187.546 1115.33,-195.412 1121.79,-198.122"/>
</g>
<!-- Node24 -->
<g id="node24" class="node"><title>Node24</title>
<g id="a_node24"><a xlink:href="command_8hpp.html" target="_top" xlink:title="command.hpp">
<polygon fill="none" stroke="black" points="988.5,-280.5 988.5,-299.5 1065.5,-299.5 1065.5,-280.5 988.5,-280.5"/>
<text text-anchor="middle" x="1027" y="-287.5" font-family="FreeSans" font-size="10.00">command.hpp</text>
</a>
</g>
</g>
<!-- Node1&#45;&gt;Node24 -->
<g id="edge61" class="edge"><title>Node1&#45;&gt;Node24</title>
<path fill="none" stroke="midnightblue" d="M1027,-392.368C1027,-374.617 1027,-333.666 1027,-309.597"/>
<polygon fill="midnightblue" stroke="midnightblue" points="1030.5,-309.591 1027,-299.591 1023.5,-309.591 1030.5,-309.591"/>
</g>
<!-- Node25 -->
<g id="node25" class="node"><title>Node25</title>
<g id="a_node25"><a xlink:href="help_8hpp.html" target="_top" xlink:title="help.hpp">
<polygon fill="none" stroke="black" points="800.5,-280.5 800.5,-299.5 853.5,-299.5 853.5,-280.5 800.5,-280.5"/>
<text text-anchor="middle" x="827" y="-287.5" font-family="FreeSans" font-size="10.00">help.hpp</text>
</a>
</g>
</g>
<!-- Node1&#45;&gt;Node25 -->
<g id="edge68" class="edge"><title>Node1&#45;&gt;Node25</title>
<path fill="none" stroke="midnightblue" d="M1011.31,-392.368C976.621,-373.292 893.222,-327.422 851.555,-304.505"/>
<polygon fill="midnightblue" stroke="midnightblue" points="853.07,-301.344 842.621,-299.591 849.696,-307.477 853.07,-301.344"/>
</g>
<!-- Node27 -->
<g id="node27" class="node"><title>Node27</title>
<g id="a_node27"><a xlink:href="help__printer_8hpp.html" target="_top" xlink:title="help_printer.hpp">
<polygon fill="none" stroke="black" points="1328.5,-336.5 1328.5,-355.5 1413.5,-355.5 1413.5,-336.5 1328.5,-336.5"/>
<text text-anchor="middle" x="1371" y="-343.5" font-family="FreeSans" font-size="10.00">help_printer.hpp</text>
</a>
</g>
</g>
<!-- Node1&#45;&gt;Node27 -->
<g id="edge80" class="edge"><title>Node1&#45;&gt;Node27</title>
<path fill="none" stroke="midnightblue" d="M1064.14,-395.17C1125.49,-385.539 1248.19,-366.279 1318.42,-355.253"/>
<polygon fill="midnightblue" stroke="midnightblue" points="1319.05,-358.697 1328.39,-353.689 1317.97,-351.782 1319.05,-358.697"/>
</g>
<!-- Node3 -->
<g id="node3" class="node"><title>Node3</title>
<g id="a_node3"><a xlink:href="types_8hpp.html" target="_top" xlink:title="types.hpp">
<polygon fill="none" stroke="black" points="655.5,-56.5 655.5,-75.5 712.5,-75.5 712.5,-56.5 655.5,-56.5"/>
<text text-anchor="middle" x="684" y="-63.5" font-family="FreeSans" font-size="10.00">types.hpp</text>
</a>
</g>
</g>
<!-- Node2&#45;&gt;Node3 -->
<g id="edge2" class="edge"><title>Node2&#45;&gt;Node3</title>
<path fill="none" stroke="midnightblue" d="M632.152,-343.332C518.578,-335.075 38,-296.504 38,-235 38,-235 38,-235 38,-177 38,-126.572 83.5534,-129.083 131,-112 225.835,-77.8549 535.191,-69.4632 644.945,-67.5375"/>
<polygon fill="midnightblue" stroke="midnightblue" points="645.29,-71.0324 655.23,-67.366 645.173,-64.0333 645.29,-71.0324"/>
</g>
<!-- Node7 -->
<g id="node7" class="node"><title>Node7</title>
<g id="a_node7"><a xlink:href="arg_8hpp.html" target="_top" xlink:title="arg.hpp">
<polygon fill="none" stroke="black" points="632,-224.5 632,-243.5 680,-243.5 680,-224.5 632,-224.5"/>
<text text-anchor="middle" x="656" y="-231.5" font-family="FreeSans" font-size="10.00">arg.hpp</text>
</a>
</g>
</g>
<!-- Node2&#45;&gt;Node7 -->
<g id="edge6" class="edge"><title>Node2&#45;&gt;Node7</title>
<path fill="none" stroke="midnightblue" d="M656,-336.368C656,-318.617 656,-277.666 656,-253.597"/>
<polygon fill="midnightblue" stroke="midnightblue" points="659.5,-253.591 656,-243.591 652.5,-253.591 659.5,-253.591"/>
</g>
<!-- Node19 -->
<g id="node19" class="node"><title>Node19</title>
<g id="a_node19"><a xlink:href="multi__arg_8hpp.html" target="_top" xlink:title="multi_arg.hpp">
<polygon fill="none" stroke="black" points="537,-280.5 537,-299.5 611,-299.5 611,-280.5 537,-280.5"/>
<text text-anchor="middle" x="574" y="-287.5" font-family="FreeSans" font-size="10.00">multi_arg.hpp</text>
</a>
</g>
</g>
<!-- Node2&#45;&gt;Node19 -->
<g id="edge30" class="edge"><title>Node2&#45;&gt;Node19</title>
<path fill="none" stroke="midnightblue" d="M642.825,-336.324C630.153,-327.979 610.767,-315.212 595.794,-305.352"/>
<polygon fill="midnightblue" stroke="midnightblue" points="597.419,-302.231 587.142,-299.655 593.569,-308.078 597.419,-302.231"/>
</g>
<!-- Node20 -->
<g id="node20" class="node"><title>Node20</title>
<g id="a_node20"><a xlink:href="groups_8hpp.html" target="_top" xlink:title="groups.hpp">
<polygon fill="none" stroke="black" points="1339.5,-280.5 1339.5,-299.5 1402.5,-299.5 1402.5,-280.5 1339.5,-280.5"/>
<text text-anchor="middle" x="1371" y="-287.5" font-family="FreeSans" font-size="10.00">groups.hpp</text>
</a>
</g>
</g>
<!-- Node2&#45;&gt;Node20 -->
<g id="edge38" class="edge"><title>Node2&#45;&gt;Node20</title>
<path fill="none" stroke="midnightblue" d="M679.789,-343.203C783.359,-335.381 1195.72,-304.238 1329.13,-294.162"/>
<polygon fill="midnightblue" stroke="midnightblue" points="1329.63,-297.634 1339.34,-293.391 1329.11,-290.654 1329.63,-297.634"/>
</g>
<!-- Node23 -->
<g id="node23" class="node"><title>Node23</title>
<g id="a_node23"><a xlink:href="arg__as__command_8hpp.html" target="_top" xlink:title="arg_as_command.hpp">
<polygon fill="none" stroke="black" points="316.5,-224.5 316.5,-243.5 427.5,-243.5 427.5,-224.5 316.5,-224.5"/>
<text text-anchor="middle" x="372" y="-231.5" font-family="FreeSans" font-size="10.00">arg_as_command.hpp</text>
</a>
</g>
</g>
<!-- Node2&#45;&gt;Node23 -->
<g id="edge51" class="edge"><title>Node2&#45;&gt;Node23</title>
<path fill="none" stroke="midnightblue" d="M632.262,-337.105C606.454,-328.416 564.066,-313.841 528,-300 483.261,-282.831 432.112,-261.113 400.942,-247.638"/>
<polygon fill="midnightblue" stroke="midnightblue" points="402.124,-244.336 391.557,-243.569 399.339,-250.758 402.124,-244.336"/>
</g>
<!-- Node4 -->
<g id="node4" class="node"><title>Node4</title>
<polygon fill="none" stroke="#bfbfbf" points="632,-0.5 632,-19.5 672,-19.5 672,-0.5 632,-0.5"/>
<text text-anchor="middle" x="652" y="-7.5" font-family="FreeSans" font-size="10.00">string</text>
</g>
<!-- Node3&#45;&gt;Node4 -->
<g id="edge3" class="edge"><title>Node3&#45;&gt;Node4</title>
<path fill="none" stroke="midnightblue" d="M678.716,-56.083C674.289,-48.6127 667.837,-37.7244 662.382,-28.5199"/>
<polygon fill="midnightblue" stroke="midnightblue" points="665.295,-26.5697 657.186,-19.7511 659.273,-30.1383 665.295,-26.5697"/>
</g>
<!-- Node5 -->
<g id="node5" class="node"><title>Node5</title>
<polygon fill="none" stroke="#bfbfbf" points="690.5,-0.5 690.5,-19.5 743.5,-19.5 743.5,-0.5 690.5,-0.5"/>
<text text-anchor="middle" x="717" y="-7.5" font-family="FreeSans" font-size="10.00">iostream</text>
</g>
<!-- Node3&#45;&gt;Node5 -->
<g id="edge4" class="edge"><title>Node3&#45;&gt;Node5</title>
<path fill="none" stroke="midnightblue" d="M689.449,-56.083C694.014,-48.6127 700.668,-37.7244 706.293,-28.5199"/>
<polygon fill="midnightblue" stroke="midnightblue" points="709.424,-30.109 711.652,-19.7511 703.451,-26.4588 709.424,-30.109"/>
</g>
<!-- Node3&#45;&gt;Node6 -->
<g id="edge5" class="edge"><title>Node3&#45;&gt;Node6</title>
<path fill="none" stroke="midnightblue" d="M712.534,-63.4131C853.42,-55.5781 1474,-21.0657 1622.84,-12.7888"/>
<polygon fill="midnightblue" stroke="midnightblue" points="1623.32,-16.2674 1633.11,-12.2175 1622.93,-9.27824 1623.32,-16.2674"/>
</g>
<!-- Node7&#45;&gt;Node3 -->
<g id="edge28" class="edge"><title>Node7&#45;&gt;Node3</title>
<path fill="none" stroke="midnightblue" d="M631.884,-227.251C609.756,-220.899 577.276,-208.721 556,-188 530.321,-162.99 507.475,-140.663 529,-112 542.999,-93.3582 604.286,-79.9383 645.472,-72.828"/>
<polygon fill="midnightblue" stroke="midnightblue" points="646.183,-76.2578 655.469,-71.1569 645.029,-69.3536 646.183,-76.2578"/>
</g>
<!-- Node8 -->
<g id="node8" class="node"><title>Node8</title>
<g id="a_node8"><a xlink:href="arg__iface_8hpp.html" target="_top" xlink:title="arg_iface.hpp">
<polygon fill="none" stroke="black" points="598,-168.5 598,-187.5 672,-187.5 672,-168.5 598,-168.5"/>
<text text-anchor="middle" x="635" y="-175.5" font-family="FreeSans" font-size="10.00">arg_iface.hpp</text>
</a>
</g>
</g>
<!-- Node7&#45;&gt;Node8 -->
<g id="edge7" class="edge"><title>Node7&#45;&gt;Node8</title>
<path fill="none" stroke="midnightblue" d="M652.532,-224.083C649.688,-216.77 645.571,-206.181 642.04,-197.103"/>
<polygon fill="midnightblue" stroke="midnightblue" points="645.29,-195.803 638.403,-187.751 638.766,-198.34 645.29,-195.803"/>
</g>
<!-- Node7&#45;&gt;Node9 -->
<g id="edge15" class="edge"><title>Node7&#45;&gt;Node9</title>
<path fill="none" stroke="midnightblue" d="M680.239,-231.878C725.32,-229.08 824.429,-219.551 901,-188 930.693,-175.765 960.543,-153.277 978.652,-138.229"/>
<polygon fill="midnightblue" stroke="midnightblue" points="981.194,-140.662 986.546,-131.518 976.66,-135.328 981.194,-140.662"/>
</g>
<!-- Node7&#45;&gt;Node11 -->
<g id="edge29" class="edge"><title>Node7&#45;&gt;Node11</title>
<path fill="none" stroke="midnightblue" d="M680.275,-229.667C728.713,-222.886 840.731,-206.545 934,-188 1112.44,-152.519 1323.18,-98.9963 1407.91,-76.9892"/>
<polygon fill="midnightblue" stroke="midnightblue" points="1409.05,-80.3096 1417.85,-74.4036 1407.29,-73.5353 1409.05,-80.3096"/>
</g>
<!-- Node7&#45;&gt;Node14 -->
<g id="edge16" class="edge"><title>Node7&#45;&gt;Node14</title>
<path fill="none" stroke="midnightblue" d="M666.765,-224.324C676.766,-216.263 691.887,-204.077 703.93,-194.369"/>
<polygon fill="midnightblue" stroke="midnightblue" points="706.45,-196.834 712.039,-187.834 702.057,-191.384 706.45,-196.834"/>
</g>
<!-- Node7&#45;&gt;Node16 -->
<g id="edge20" class="edge"><title>Node7&#45;&gt;Node16</title>
<path fill="none" stroke="midnightblue" d="M631.809,-229.741C586.657,-223.424 486.643,-208.327 404,-188 342.06,-172.765 271.492,-149.082 231.103,-134.901"/>
<polygon fill="midnightblue" stroke="midnightblue" points="232.103,-131.543 221.508,-131.512 229.771,-138.143 232.103,-131.543"/>
</g>
<!-- Node18 -->
<g id="node18" class="node"><title>Node18</title>
<g id="a_node18"><a xlink:href="value__utils_8hpp.html" target="_top" xlink:title="value_utils.hpp">
<polygon fill="none" stroke="black" points="812,-168.5 812,-187.5 892,-187.5 892,-168.5 812,-168.5"/>
<text text-anchor="middle" x="852" y="-175.5" font-family="FreeSans" font-size="10.00">value_utils.hpp</text>
</a>
</g>
</g>
<!-- Node7&#45;&gt;Node18 -->
<g id="edge23" class="edge"><title>Node7&#45;&gt;Node18</title>
<path fill="none" stroke="midnightblue" d="M680.033,-226.379C712.664,-217.388 771.451,-201.192 811.096,-190.27"/>
<polygon fill="midnightblue" stroke="midnightblue" points="812.273,-193.576 820.984,-187.545 810.413,-186.827 812.273,-193.576"/>
</g>
<!-- Node8&#45;&gt;Node3 -->
<g id="edge13" class="edge"><title>Node8&#45;&gt;Node3</title>
<path fill="none" stroke="midnightblue" d="M638.845,-168.368C646.824,-150.456 665.325,-108.923 676.005,-84.9482"/>
<polygon fill="midnightblue" stroke="midnightblue" points="679.301,-86.1503 680.173,-75.5914 672.907,-83.3019 679.301,-86.1503"/>
</g>
<!-- Node8&#45;&gt;Node9 -->
<g id="edge8" class="edge"><title>Node8&#45;&gt;Node9</title>
<path fill="none" stroke="midnightblue" d="M672.127,-169.566C675.126,-169.018 678.112,-168.489 681,-168 781.504,-151.001 900.771,-135.129 959.542,-127.59"/>
<polygon fill="midnightblue" stroke="midnightblue" points="960.318,-131.02 969.794,-126.281 959.431,-124.076 960.318,-131.02"/>
</g>
<!-- Node13 -->
<g id="node13" class="node"><title>Node13</title>
<g id="a_node13"><a xlink:href="enums_8hpp.html" target="_top" xlink:title="enums.hpp">
<polygon fill="none" stroke="black" points="538.5,-112.5 538.5,-131.5 601.5,-131.5 601.5,-112.5 538.5,-112.5"/>
<text text-anchor="middle" x="570" y="-119.5" font-family="FreeSans" font-size="10.00">enums.hpp</text>
</a>
</g>
</g>
<!-- Node8&#45;&gt;Node13 -->
<g id="edge14" class="edge"><title>Node8&#45;&gt;Node13</title>
<path fill="none" stroke="midnightblue" d="M624.557,-168.324C614.854,-160.263 600.185,-148.077 588.5,-138.369"/>
<polygon fill="midnightblue" stroke="midnightblue" points="590.562,-135.532 580.633,-131.834 586.089,-140.916 590.562,-135.532"/>
</g>
<!-- Node9&#45;&gt;Node3 -->
<g id="edge10" class="edge"><title>Node9&#45;&gt;Node3</title>
<path fill="none" stroke="midnightblue" d="M969.936,-116.489C915.136,-107.004 787.722,-84.9519 723.094,-73.7662"/>
<polygon fill="midnightblue" stroke="midnightblue" points="723.358,-70.26 712.907,-72.0032 722.164,-77.1574 723.358,-70.26"/>
</g>
<!-- Node10 -->
<g id="node10" class="node"><title>Node10</title>
<polygon fill="none" stroke="#bfbfbf" points="976,-56.5 976,-75.5 1016,-75.5 1016,-56.5 976,-56.5"/>
<text text-anchor="middle" x="996" y="-63.5" font-family="FreeSans" font-size="10.00">regex</text>
</g>
<!-- Node9&#45;&gt;Node10 -->
<g id="edge9" class="edge"><title>Node9&#45;&gt;Node10</title>
<path fill="none" stroke="midnightblue" d="M996,-112.083C996,-105.006 996,-94.8611 996,-85.9865"/>
<polygon fill="midnightblue" stroke="midnightblue" points="999.5,-85.751 996,-75.7511 992.5,-85.7511 999.5,-85.751"/>
</g>
<!-- Node9&#45;&gt;Node11 -->
<g id="edge11" class="edge"><title>Node9&#45;&gt;Node11</title>
<path fill="none" stroke="midnightblue" d="M1022.14,-117.863C1098.01,-108.759 1318.54,-82.2949 1407.82,-71.5822"/>
<polygon fill="midnightblue" stroke="midnightblue" points="1408.27,-75.0525 1417.78,-70.3858 1407.44,-68.1023 1408.27,-75.0525"/>
</g>
<!-- Node12 -->
<g id="node12" class="node"><title>Node12</title>
<polygon fill="none" stroke="#bfbfbf" points="1168.5,-56.5 1168.5,-75.5 1229.5,-75.5 1229.5,-56.5 1168.5,-56.5"/>
<text text-anchor="middle" x="1199" y="-63.5" font-family="FreeSans" font-size="10.00">type_traits</text>
</g>
<!-- Node9&#45;&gt;Node12 -->
<g id="edge12" class="edge"><title>Node9&#45;&gt;Node12</title>
<path fill="none" stroke="midnightblue" d="M1022.12,-114.051C1056.67,-104.86 1117.92,-88.5674 1158.5,-77.774"/>
<polygon fill="midnightblue" stroke="midnightblue" points="1159.58,-81.1092 1168.34,-75.1561 1157.78,-74.3445 1159.58,-81.1092"/>
</g>
<!-- Node14&#45;&gt;Node3 -->
<g id="edge19" class="edge"><title>Node14&#45;&gt;Node3</title>
<path fill="none" stroke="midnightblue" d="M718.658,-168.18C714.343,-159.211 707.707,-144.844 703,-132 697.311,-116.477 692.138,-98.394 688.632,-85.2481"/>
<polygon fill="midnightblue" stroke="midnightblue" points="692.009,-84.3275 686.104,-75.5311 685.235,-86.0902 692.009,-84.3275"/>
</g>
<!-- Node14&#45;&gt;Node9 -->
<g id="edge18" class="edge"><title>Node14&#45;&gt;Node9</title>
<path fill="none" stroke="midnightblue" d="M756.202,-170.433C807.758,-160.235 906.659,-140.672 959.918,-130.137"/>
<polygon fill="midnightblue" stroke="midnightblue" points="960.803,-133.53 969.933,-128.156 959.444,-126.663 960.803,-133.53"/>
</g>
<!-- Node15 -->
<g id="node15" class="node"><title>Node15</title>
<polygon fill="none" stroke="#bfbfbf" points="712.5,-112.5 712.5,-131.5 751.5,-131.5 751.5,-112.5 712.5,-112.5"/>
<text text-anchor="middle" x="732" y="-119.5" font-family="FreeSans" font-size="10.00">utility</text>
</g>
<!-- Node14&#45;&gt;Node15 -->
<g id="edge17" class="edge"><title>Node14&#45;&gt;Node15</title>
<path fill="none" stroke="midnightblue" d="M724.486,-168.083C725.679,-160.927 727.394,-150.635 728.885,-141.691"/>
<polygon fill="midnightblue" stroke="midnightblue" points="732.35,-142.19 730.541,-131.751 725.445,-141.04 732.35,-142.19"/>
</g>
<!-- Node16&#45;&gt;Node3 -->
<g id="edge22" class="edge"><title>Node16&#45;&gt;Node3</title>
<path fill="none" stroke="midnightblue" d="M238.063,-114.042C242.755,-113.31 247.479,-112.612 252,-112 396.699,-92.4241 569.668,-76.7159 645.347,-70.2248"/>
<polygon fill="midnightblue" stroke="midnightblue" points="645.701,-73.7074 655.367,-69.3706 645.106,-66.7327 645.701,-73.7074"/>
</g>
<!-- Node17 -->
<g id="node17" class="node"><title>Node17</title>
<polygon fill="none" stroke="#bfbfbf" points="169,-56.5 169,-75.5 227,-75.5 227,-56.5 169,-56.5"/>
<text text-anchor="middle" x="198" y="-63.5" font-family="FreeSans" font-size="10.00">stdexcept</text>
</g>
<!-- Node16&#45;&gt;Node17 -->
<g id="edge21" class="edge"><title>Node16&#45;&gt;Node17</title>
<path fill="none" stroke="midnightblue" d="M198,-112.083C198,-105.006 198,-94.8611 198,-85.9865"/>
<polygon fill="midnightblue" stroke="midnightblue" points="201.5,-85.751 198,-75.7511 194.5,-85.7511 201.5,-85.751"/>
</g>
<!-- Node18&#45;&gt;Node3 -->
<g id="edge26" class="edge"><title>Node18&#45;&gt;Node3</title>
<path fill="none" stroke="midnightblue" d="M846.777,-168.225C838.195,-154.485 819.864,-127.833 798,-112 775.332,-95.5843 745.862,-84.1577 722.564,-76.927"/>
<polygon fill="midnightblue" stroke="midnightblue" points="723.251,-73.4801 712.669,-73.9901 721.26,-80.1908 723.251,-73.4801"/>
</g>
<!-- Node18&#45;&gt;Node9 -->
<g id="edge24" class="edge"><title>Node18&#45;&gt;Node9</title>
<path fill="none" stroke="midnightblue" d="M874.817,-168.444C898.832,-159.438 936.829,-145.189 963.869,-135.049"/>
<polygon fill="midnightblue" stroke="midnightblue" points="965.155,-138.305 973.29,-131.516 962.697,-131.751 965.155,-138.305"/>
</g>
<!-- Node18&#45;&gt;Node11 -->
<g id="edge27" class="edge"><title>Node18&#45;&gt;Node11</title>
<path fill="none" stroke="midnightblue" d="M862.65,-168.395C881.294,-153.875 921.618,-124.838 961,-112 1043.91,-84.9744 1308,-72.2877 1407.54,-68.3766"/>
<polygon fill="midnightblue" stroke="midnightblue" points="1407.89,-71.8657 1417.75,-67.9837 1407.62,-64.8709 1407.89,-71.8657"/>
</g>
<!-- Node18&#45;&gt;Node16 -->
<g id="edge25" class="edge"><title>Node18&#45;&gt;Node16</title>
<path fill="none" stroke="midnightblue" d="M811.737,-172.632C797.037,-171.091 780.273,-169.396 765,-168 574.336,-150.575 347.239,-133.731 248.264,-126.584"/>
<polygon fill="midnightblue" stroke="midnightblue" points="248.471,-123.09 238.245,-125.862 247.967,-130.072 248.471,-123.09"/>
</g>
<!-- Node19&#45;&gt;Node3 -->
<g id="edge36" class="edge"><title>Node19&#45;&gt;Node3</title>
<path fill="none" stroke="midnightblue" d="M536.702,-287.539C440.268,-283.403 188.355,-270.177 162,-244 120.175,-202.457 109.101,-155.396 149,-112 182.418,-75.6532 527.018,-68.646 644.792,-67.3103"/>
<polygon fill="midnightblue" stroke="midnightblue" points="645.18,-70.8065 655.142,-67.2011 645.106,-63.8069 645.18,-70.8065"/>
</g>
<!-- Node19&#45;&gt;Node7 -->
<g id="edge31" class="edge"><title>Node19&#45;&gt;Node7</title>
<path fill="none" stroke="midnightblue" d="M587.175,-280.324C599.847,-271.979 619.233,-259.212 634.206,-249.352"/>
<polygon fill="midnightblue" stroke="midnightblue" points="636.431,-252.078 642.858,-243.655 632.581,-246.231 636.431,-252.078"/>
</g>
<!-- Node19&#45;&gt;Node9 -->
<g id="edge35" class="edge"><title>Node19&#45;&gt;Node9</title>
<path fill="none" stroke="midnightblue" d="M611.021,-285.16C679.255,-276.726 827.6,-251.963 934,-188 954.588,-175.624 972.846,-154.609 984.125,-139.832"/>
<polygon fill="midnightblue" stroke="midnightblue" points="987.097,-141.699 990.205,-131.57 981.459,-137.55 987.097,-141.699"/>
</g>
<!-- Node19&#45;&gt;Node14 -->
<g id="edge32" class="edge"><title>Node19&#45;&gt;Node14</title>
<path fill="none" stroke="midnightblue" d="M571.062,-280.423C567.037,-266.956 561.621,-240.67 574,-224 580.511,-215.232 638.223,-199.591 679.87,-189.255"/>
<polygon fill="midnightblue" stroke="midnightblue" points="680.93,-192.599 689.806,-186.814 679.26,-185.801 680.93,-192.599"/>
</g>
<!-- Node19&#45;&gt;Node15 -->
<g id="edge37" class="edge"><title>Node19&#45;&gt;Node15</title>
<path fill="none" stroke="midnightblue" d="M571.27,-280.486C568.549,-271.52 564.558,-256.935 563,-244 558.731,-208.556 562.173,-191.553 589,-168 621.157,-139.768 670.993,-129.238 702.535,-125.317"/>
<polygon fill="midnightblue" stroke="midnightblue" points="702.921,-128.796 712.479,-124.225 702.157,-121.838 702.921,-128.796"/>
</g>
<!-- Node19&#45;&gt;Node16 -->
<g id="edge33" class="edge"><title>Node19&#45;&gt;Node16</title>
<path fill="none" stroke="midnightblue" d="M536.77,-287.563C442.443,-283.54 199.829,-270.675 176,-244 150.143,-215.055 172.099,-166.208 187.004,-140.317"/>
<polygon fill="midnightblue" stroke="midnightblue" points="190.089,-141.978 192.257,-131.607 184.095,-138.363 190.089,-141.978"/>
</g>
<!-- Node19&#45;&gt;Node18 -->
<g id="edge34" class="edge"><title>Node19&#45;&gt;Node18</title>
<path fill="none" stroke="midnightblue" d="M577.99,-280.207C584.95,-265.942 600.722,-237.95 623,-224 652.156,-205.744 743.386,-191.908 801.515,-184.66"/>
<polygon fill="midnightblue" stroke="midnightblue" points="802.105,-188.114 811.607,-183.426 801.256,-181.166 802.105,-188.114"/>
</g>
<!-- Node20&#45;&gt;Node3 -->
<g id="edge49" class="edge"><title>Node20&#45;&gt;Node3</title>
<path fill="none" stroke="midnightblue" d="M1370.97,-280.306C1370.54,-267.138 1368.18,-241.79 1357,-224 1300.1,-133.435 1247.95,-137.194 1144,-112 991.188,-74.9625 802.8,-68.2595 722.831,-67.1528"/>
<polygon fill="midnightblue" stroke="midnightblue" points="722.768,-63.6519 712.728,-67.0353 722.687,-70.6514 722.768,-63.6519"/>
</g>
<!-- Node20&#45;&gt;Node11 -->
<g id="edge50" class="edge"><title>Node20&#45;&gt;Node11</title>
<path fill="none" stroke="midnightblue" d="M1385.69,-280.276C1397.57,-272.383 1413.64,-259.617 1422,-244 1449.74,-192.147 1449.55,-119.987 1447.59,-86.0613"/>
<polygon fill="midnightblue" stroke="midnightblue" points="1451.06,-85.4814 1446.87,-75.7518 1444.08,-85.9728 1451.06,-85.4814"/>
</g>
<!-- Node21 -->
<g id="node21" class="node"><title>Node21</title>
<g id="a_node21"><a xlink:href="group__iface_8hpp.html" target="_top" xlink:title="group_iface.hpp">
<polygon fill="none" stroke="black" points="1263.5,-224.5 1263.5,-243.5 1348.5,-243.5 1348.5,-224.5 1263.5,-224.5"/>
<text text-anchor="middle" x="1306" y="-231.5" font-family="FreeSans" font-size="10.00">group_iface.hpp</text>
</a>
</g>
</g>
<!-- Node20&#45;&gt;Node21 -->
<g id="edge39" class="edge"><title>Node20&#45;&gt;Node21</title>
<path fill="none" stroke="midnightblue" d="M1360.56,-280.324C1350.85,-272.263 1336.18,-260.077 1324.5,-250.369"/>
<polygon fill="midnightblue" stroke="midnightblue" points="1326.56,-247.532 1316.63,-243.834 1322.09,-252.916 1326.56,-247.532"/>
</g>
<!-- Node21&#45;&gt;Node3 -->
<g id="edge43" class="edge"><title>Node21&#45;&gt;Node3</title>
<path fill="none" stroke="midnightblue" d="M1302.47,-224.321C1296.26,-210.22 1282.04,-182.458 1261,-168 1172.51,-107.193 837.434,-77.9819 722.764,-69.6141"/>
<polygon fill="midnightblue" stroke="midnightblue" points="722.908,-66.1155 712.683,-68.891 722.407,-73.0975 722.908,-66.1155"/>
</g>
<!-- Node21&#45;&gt;Node6 -->
<g id="edge44" class="edge"><title>Node21&#45;&gt;Node6</title>
<path fill="none" stroke="midnightblue" d="M1319.68,-224.297C1372.89,-190.449 1566.39,-67.3668 1632.6,-25.2489"/>
<polygon fill="midnightblue" stroke="midnightblue" points="1634.85,-27.9629 1641.41,-19.6425 1631.1,-22.0566 1634.85,-27.9629"/>
</g>
<!-- Node21&#45;&gt;Node8 -->
<g id="edge40" class="edge"><title>Node21&#45;&gt;Node8</title>
<path fill="none" stroke="midnightblue" d="M1263.49,-225.255C1260.28,-224.79 1257.09,-224.364 1254,-224 1003.92,-194.591 935.868,-219.881 682.35,-187.997"/>
<polygon fill="midnightblue" stroke="midnightblue" points="682.452,-184.481 672.089,-186.688 681.566,-191.425 682.452,-184.481"/>
</g>
<!-- Node21&#45;&gt;Node9 -->
<g id="edge41" class="edge"><title>Node21&#45;&gt;Node9</title>
<path fill="none" stroke="midnightblue" d="M1298.84,-224.21C1286.69,-209.95 1260.58,-181.965 1232,-168 1166.5,-135.99 1080.43,-126.713 1032.41,-124.048"/>
<polygon fill="midnightblue" stroke="midnightblue" points="1032.35,-120.542 1022.2,-123.55 1032.01,-127.533 1032.35,-120.542"/>
</g>
<!-- Node21&#45;&gt;Node11 -->
<g id="edge46" class="edge"><title>Node21&#45;&gt;Node11</title>
<path fill="none" stroke="midnightblue" d="M1313.53,-224.075C1336.04,-197.38 1403.1,-117.865 1432.23,-83.3218"/>
<polygon fill="midnightblue" stroke="midnightblue" points="1435,-85.4689 1438.77,-75.5681 1429.65,-80.956 1435,-85.4689"/>
</g>
<!-- Node21&#45;&gt;Node12 -->
<g id="edge45" class="edge"><title>Node21&#45;&gt;Node12</title>
<path fill="none" stroke="midnightblue" d="M1308,-224.351C1310.56,-211.669 1313.97,-187.426 1308,-168 1299.17,-139.248 1291.6,-132.933 1270,-112 1256.93,-99.336 1239.75,-88.3331 1225.56,-80.3773"/>
<polygon fill="midnightblue" stroke="midnightblue" points="1227.21,-77.2864 1216.75,-75.6024 1223.87,-83.4419 1227.21,-77.2864"/>
</g>
<!-- Node21&#45;&gt;Node15 -->
<g id="edge47" class="edge"><title>Node21&#45;&gt;Node15</title>
<path fill="none" stroke="midnightblue" d="M1290.82,-224.306C1264.92,-209.922 1210.12,-181.429 1160,-168 1014.43,-128.993 832.542,-123.518 761.942,-122.95"/>
<polygon fill="midnightblue" stroke="midnightblue" points="761.608,-119.448 751.59,-122.897 761.572,-126.448 761.608,-119.448"/>
</g>
<!-- Node21&#45;&gt;Node16 -->
<g id="edge42" class="edge"><title>Node21&#45;&gt;Node16</title>
<path fill="none" stroke="midnightblue" d="M1263.49,-225.225C1260.29,-224.767 1257.1,-224.35 1254,-224 959.89,-190.704 883.219,-220.319 589,-188 465.691,-174.455 322.159,-147.754 248.032,-133.143"/>
<polygon fill="midnightblue" stroke="midnightblue" points="248.532,-129.674 238.042,-131.164 247.171,-136.54 248.532,-129.674"/>
</g>
<!-- Node21&#45;&gt;Node22 -->
<g id="edge48" class="edge"><title>Node21&#45;&gt;Node22</title>
<path fill="none" stroke="midnightblue" d="M1277.48,-224.444C1246.13,-215.038 1195.7,-199.911 1161.74,-189.721"/>
<polygon fill="midnightblue" stroke="midnightblue" points="1162.35,-186.25 1151.76,-186.729 1160.34,-192.955 1162.35,-186.25"/>
</g>
<!-- Node23&#45;&gt;Node1 -->
<g id="edge55" class="edge"><title>Node23&#45;&gt;Node1</title>
<path fill="none" stroke="midnightblue" d="M384.17,-243.591C403.298,-256.846 441.849,-282.572 477,-300 539.266,-330.871 555.47,-339.575 623,-356 749.565,-386.784 903.63,-396.57 979.753,-399.635"/>
<polygon fill="midnightblue" stroke="midnightblue" points="979.84,-403.14 989.966,-400.024 980.106,-396.146 979.84,-403.14"/>
</g>
<!-- Node23&#45;&gt;Node3 -->
<g id="edge57" class="edge"><title>Node23&#45;&gt;Node3</title>
<path fill="none" stroke="midnightblue" d="M368.014,-224.383C358.583,-202.562 337.728,-144.554 366,-112 401.748,-70.8375 568.437,-66.3033 645.162,-66.457"/>
<polygon fill="midnightblue" stroke="midnightblue" points="645.352,-69.9579 655.369,-66.5065 645.386,-62.958 645.352,-69.9579"/>
</g>
<!-- Node23&#45;&gt;Node8 -->
<g id="edge52" class="edge"><title>Node23&#45;&gt;Node8</title>
<path fill="none" stroke="midnightblue" d="M413.673,-224.444C461.1,-214.706 538.388,-198.837 587.945,-188.661"/>
<polygon fill="midnightblue" stroke="midnightblue" points="588.682,-192.083 597.774,-186.643 587.275,-185.226 588.682,-192.083"/>
</g>
<!-- Node23&#45;&gt;Node9 -->
<g id="edge53" class="edge"><title>Node23&#45;&gt;Node9</title>
<path fill="none" stroke="midnightblue" d="M395.405,-224.46C434.805,-210.432 517.125,-182.613 589,-168 723.846,-140.584 887.457,-128.901 959.243,-124.832"/>
<polygon fill="midnightblue" stroke="midnightblue" points="959.764,-128.309 969.556,-124.265 959.379,-121.32 959.764,-128.309"/>
</g>
<!-- Node23&#45;&gt;Node13 -->
<g id="edge56" class="edge"><title>Node23&#45;&gt;Node13</title>
<path fill="none" stroke="midnightblue" d="M379.298,-224.21C391.144,-210.451 415.878,-183.773 442,-168 468.88,-151.769 502.474,-140.24 528.5,-132.917"/>
<polygon fill="midnightblue" stroke="midnightblue" points="529.697,-136.219 538.431,-130.222 527.864,-129.463 529.697,-136.219"/>
</g>
<!-- Node23&#45;&gt;Node16 -->
<g id="edge54" class="edge"><title>Node23&#45;&gt;Node16</title>
<path fill="none" stroke="midnightblue" d="M334.966,-224.474C309.938,-217.481 277.023,-205.795 252,-188 233.954,-175.167 218.416,-154.871 208.702,-140.373"/>
<polygon fill="midnightblue" stroke="midnightblue" points="211.55,-138.331 203.191,-131.82 205.665,-142.122 211.55,-138.331"/>
</g>
<!-- Node24&#45;&gt;Node3 -->
<g id="edge67" class="edge"><title>Node24&#45;&gt;Node3</title>
<path fill="none" stroke="midnightblue" d="M1010.11,-280.437C984.714,-267.655 935.057,-243.05 892,-224 852.98,-206.736 835.075,-216.14 803,-188 773.827,-162.405 787.171,-139.712 760,-112 746.843,-98.5806 728.864,-87.696 713.696,-79.995"/>
<polygon fill="midnightblue" stroke="midnightblue" points="715.207,-76.8383 704.683,-75.6173 712.149,-83.1348 715.207,-76.8383"/>
</g>
<!-- Node24&#45;&gt;Node9 -->
<g id="edge63" class="edge"><title>Node24&#45;&gt;Node9</title>
<path fill="none" stroke="midnightblue" d="M1026.28,-280.406C1024.49,-260.47 1019.33,-209.605 1010,-168 1007.98,-159.007 1005.03,-149.216 1002.36,-141.07"/>
<polygon fill="midnightblue" stroke="midnightblue" points="1005.64,-139.853 999.103,-131.515 999.013,-142.109 1005.64,-139.853"/>
</g>
<!-- Node24&#45;&gt;Node13 -->
<g id="edge66" class="edge"><title>Node24&#45;&gt;Node13</title>
<path fill="none" stroke="midnightblue" d="M988.231,-282.362C886.617,-264.648 618.369,-215.72 589,-188 576.452,-176.156 572.046,-156.529 570.572,-141.935"/>
<polygon fill="midnightblue" stroke="midnightblue" points="574.04,-141.315 569.918,-131.555 567.054,-141.756 574.04,-141.315"/>
</g>
<!-- Node24&#45;&gt;Node14 -->
<g id="edge64" class="edge"><title>Node24&#45;&gt;Node14</title>
<path fill="none" stroke="midnightblue" d="M1004.26,-280.471C970.762,-267.939 906.158,-243.88 851,-224 819.308,-212.578 783.077,-199.873 757.27,-190.884"/>
<polygon fill="midnightblue" stroke="midnightblue" points="758.174,-187.493 747.579,-187.513 755.874,-194.104 758.174,-187.493"/>
</g>
<!-- Node24&#45;&gt;Node18 -->
<g id="edge65" class="edge"><title>Node24&#45;&gt;Node18</title>
<path fill="none" stroke="midnightblue" d="M1020.69,-280.278C1010.41,-266.613 988.78,-240.06 965,-224 943.049,-209.175 915.48,-198.074 893.068,-190.607"/>
<polygon fill="midnightblue" stroke="midnightblue" points="894.083,-187.257 883.492,-187.531 891.942,-193.922 894.083,-187.257"/>
</g>
<!-- Node24&#45;&gt;Node21 -->
<g id="edge62" class="edge"><title>Node24&#45;&gt;Node21</title>
<path fill="none" stroke="midnightblue" d="M1065.5,-281.548C1114.33,-272.097 1198.75,-255.757 1253.47,-245.167"/>
<polygon fill="midnightblue" stroke="midnightblue" points="1254.18,-248.595 1263.33,-243.259 1252.85,-241.723 1254.18,-248.595"/>
</g>
<!-- Node25&#45;&gt;Node3 -->
<g id="edge75" class="edge"><title>Node25&#45;&gt;Node3</title>
<path fill="none" stroke="midnightblue" d="M800.281,-288.986C740.881,-287.346 598.001,-274.173 533,-188 512.213,-160.442 496.006,-139.4 517,-112 532.512,-91.7544 600.977,-78.5624 645.285,-71.9779"/>
<polygon fill="midnightblue" stroke="midnightblue" points="646.034,-75.4063 655.436,-70.5214 645.04,-68.4772 646.034,-75.4063"/>
</g>
<!-- Node25&#45;&gt;Node7 -->
<g id="edge69" class="edge"><title>Node25&#45;&gt;Node7</title>
<path fill="none" stroke="midnightblue" d="M800.281,-280.562C770.531,-271.168 722.376,-255.961 689.971,-245.728"/>
<polygon fill="midnightblue" stroke="midnightblue" points="690.637,-242.268 680.047,-242.594 688.529,-248.943 690.637,-242.268"/>
</g>
<!-- Node25&#45;&gt;Node9 -->
<g id="edge73" class="edge"><title>Node25&#45;&gt;Node9</title>
<path fill="none" stroke="midnightblue" d="M846.264,-280.365C877.023,-265.653 937.29,-232.904 972,-188 982.565,-174.332 988.829,-155.544 992.293,-141.681"/>
<polygon fill="midnightblue" stroke="midnightblue" points="995.734,-142.334 994.5,-131.812 988.902,-140.807 995.734,-142.334"/>
</g>
<!-- Node25&#45;&gt;Node14 -->
<g id="edge72" class="edge"><title>Node25&#45;&gt;Node14</title>
<path fill="none" stroke="midnightblue" d="M818.839,-280.368C801.448,-261.974 760.507,-218.671 738.176,-195.052"/>
<polygon fill="midnightblue" stroke="midnightblue" points="740.536,-192.453 731.123,-187.591 735.45,-197.262 740.536,-192.453"/>
</g>
<!-- Node25&#45;&gt;Node16 -->
<g id="edge74" class="edge"><title>Node25&#45;&gt;Node16</title>
<path fill="none" stroke="midnightblue" d="M800.472,-287.522C701.014,-281.87 353.579,-261.081 307,-244 266.593,-229.182 255.504,-221.103 228,-188 216.594,-174.272 208.544,-155.491 203.674,-141.646"/>
<polygon fill="midnightblue" stroke="midnightblue" points="206.886,-140.207 200.447,-131.792 200.233,-142.385 206.886,-140.207"/>
</g>
<!-- Node25&#45;&gt;Node22 -->
<g id="edge76" class="edge"><title>Node25&#45;&gt;Node22</title>
<path fill="none" stroke="midnightblue" d="M850.462,-280.368C903.408,-260.89 1032.28,-213.479 1093.14,-191.089"/>
<polygon fill="midnightblue" stroke="midnightblue" points="1094.47,-194.329 1102.65,-187.591 1092.05,-187.759 1094.47,-194.329"/>
</g>
<!-- Node26 -->
<g id="node26" class="node"><title>Node26</title>
<g id="a_node26"><a xlink:href="help__printer__iface_8hpp.html" target="_top" xlink:title="help_printer_iface.hpp">
<polygon fill="none" stroke="black" points="1134.5,-224.5 1134.5,-243.5 1245.5,-243.5 1245.5,-224.5 1134.5,-224.5"/>
<text text-anchor="middle" x="1190" y="-231.5" font-family="FreeSans" font-size="10.00">help_printer_iface.hpp</text>
</a>
</g>
</g>
<!-- Node25&#45;&gt;Node26 -->
<g id="edge70" class="edge"><title>Node25&#45;&gt;Node26</title>
<path fill="none" stroke="midnightblue" d="M853.692,-285.029C910.218,-276.62 1043.42,-256.805 1124.2,-244.789"/>
<polygon fill="midnightblue" stroke="midnightblue" points="1124.89,-248.225 1134.26,-243.292 1123.86,-241.301 1124.89,-248.225"/>
</g>
<!-- Node26&#45;&gt;Node9 -->
<g id="edge71" class="edge"><title>Node26&#45;&gt;Node9</title>
<path fill="none" stroke="midnightblue" d="M1188.45,-224.431C1185.48,-210.487 1177.63,-182.947 1160,-168 1123.82,-137.333 1068.47,-127.434 1032.25,-124.315"/>
<polygon fill="midnightblue" stroke="midnightblue" points="1032.35,-120.813 1022.12,-123.576 1031.84,-127.794 1032.35,-120.813"/>
</g>
<!-- Node27&#45;&gt;Node3 -->
<g id="edge89" class="edge"><title>Node27&#45;&gt;Node3</title>
<path fill="none" stroke="midnightblue" d="M1382.27,-336.427C1391.97,-328.275 1405.28,-315.046 1411,-300 1424.22,-265.24 1396.85,-254.791 1376,-224 1358.7,-198.459 1359.2,-187.123 1335,-168 1284.68,-128.238 1264.26,-127.407 1202,-112 1111.04,-89.4897 826.907,-73.8933 722.763,-68.8022"/>
<polygon fill="midnightblue" stroke="midnightblue" points="722.842,-65.3021 712.685,-68.315 722.504,-72.2939 722.842,-65.3021"/>
</g>
<!-- Node27&#45;&gt;Node6 -->
<g id="edge81" class="edge"><title>Node27&#45;&gt;Node6</title>
<path fill="none" stroke="midnightblue" d="M1413.77,-341.216C1497.29,-331.236 1674,-296.263 1674,-179 1674,-179 1674,-179 1674,-121 1674,-88.4885 1665.84,-51.3503 1660.22,-29.6103"/>
<polygon fill="midnightblue" stroke="midnightblue" points="1663.54,-28.498 1657.56,-19.7514 1656.78,-30.3175 1663.54,-28.498"/>
</g>
<!-- Node27&#45;&gt;Node9 -->
<g id="edge84" class="edge"><title>Node27&#45;&gt;Node9</title>
<path fill="none" stroke="midnightblue" d="M1413.68,-343.407C1472.26,-339.515 1567.01,-326.116 1536,-280 1478.07,-193.863 1143.81,-142.501 1032.24,-127.573"/>
<polygon fill="midnightblue" stroke="midnightblue" points="1032.53,-124.08 1022.16,-126.242 1031.61,-131.02 1032.53,-124.08"/>
</g>
<!-- Node27&#45;&gt;Node11 -->
<g id="edge82" class="edge"><title>Node27&#45;&gt;Node11</title>
<path fill="none" stroke="midnightblue" d="M1413.7,-340.533C1462.21,-334.475 1536.89,-321.822 1554,-300 1610.46,-227.971 1506.94,-121.647 1463.69,-82.337"/>
<polygon fill="midnightblue" stroke="midnightblue" points="1465.93,-79.6452 1456.14,-75.5986 1461.27,-84.8681 1465.93,-79.6452"/>
</g>
<!-- Node27&#45;&gt;Node16 -->
<g id="edge85" class="edge"><title>Node27&#45;&gt;Node16</title>
<path fill="none" stroke="midnightblue" d="M1328.28,-344.884C1122.41,-343.876 239.524,-334.288 162,-244 155.781,-236.757 149.559,-208.648 164,-168 167.795,-157.317 175.112,-147.093 181.989,-139.097"/>
<polygon fill="midnightblue" stroke="midnightblue" points="184.645,-141.379 188.83,-131.646 179.489,-136.645 184.645,-141.379"/>
</g>
<!-- Node27&#45;&gt;Node20 -->
<g id="edge87" class="edge"><title>Node27&#45;&gt;Node20</title>
<path fill="none" stroke="midnightblue" d="M1371,-336.083C1371,-329.006 1371,-318.861 1371,-309.986"/>
<polygon fill="midnightblue" stroke="midnightblue" points="1374.5,-309.751 1371,-299.751 1367.5,-309.751 1374.5,-309.751"/>
</g>
<!-- Node27&#45;&gt;Node21 -->
<g id="edge86" class="edge"><title>Node27&#45;&gt;Node21</title>
<path fill="none" stroke="midnightblue" d="M1361.04,-336.214C1351.92,-327.716 1338.57,-314.088 1330,-300 1321.21,-285.546 1314.84,-267.358 1310.88,-253.9"/>
<polygon fill="midnightblue" stroke="midnightblue" points="1314.15,-252.603 1308.12,-243.893 1307.4,-254.464 1314.15,-252.603"/>
</g>
<!-- Node27&#45;&gt;Node24 -->
<g id="edge88" class="edge"><title>Node27&#45;&gt;Node24</title>
<path fill="none" stroke="midnightblue" d="M1328.47,-338.324C1264.36,-328.259 1143.26,-309.25 1075.69,-298.643"/>
<polygon fill="midnightblue" stroke="midnightblue" points="1076.15,-295.172 1065.72,-297.079 1075.06,-302.087 1076.15,-295.172"/>
</g>
<!-- Node27&#45;&gt;Node26 -->
<g id="edge90" class="edge"><title>Node27&#45;&gt;Node26</title>
<path fill="none" stroke="midnightblue" d="M1356.8,-336.368C1325.61,-317.412 1250.88,-272.001 1212.94,-248.942"/>
<polygon fill="midnightblue" stroke="midnightblue" points="1214.5,-245.794 1204.14,-243.591 1210.86,-251.776 1214.5,-245.794"/>
</g>
<!-- Node28 -->
<g id="node28" class="node"><title>Node28</title>
<polygon fill="none" stroke="#bfbfbf" points="1468.5,-280.5 1468.5,-299.5 1527.5,-299.5 1527.5,-280.5 1468.5,-280.5"/>
<text text-anchor="middle" x="1498" y="-287.5" font-family="FreeSans" font-size="10.00">functional</text>
</g>
<!-- Node27&#45;&gt;Node28 -->
<g id="edge83" class="edge"><title>Node27&#45;&gt;Node28</title>
<path fill="none" stroke="midnightblue" d="M1391.12,-336.444C1412.02,-327.557 1444.93,-313.563 1468.72,-303.451"/>
<polygon fill="midnightblue" stroke="midnightblue" points="1470.14,-306.65 1477.97,-299.516 1467.4,-300.208 1470.14,-306.65"/>
</g>
</g>
</svg>
