<?xml version="1.0" encoding="UTF-8" standalone="no"?>
<!DOCTYPE svg PUBLIC "-//W3C//DTD SVG 1.1//EN"
 "http://www.w3.org/Graphics/SVG/1.1/DTD/svg11.dtd">
<!-- Generated by graphviz version 2.43.0 (0)
 -->
<!-- Title: cmd_line.hpp Pages: 1 -->
<svg width="1684pt" height="412pt"
 viewBox="0.00 0.00 1684.00 412.00" xmlns="http://www.w3.org/2000/svg" xmlns:xlink="http://www.w3.org/1999/xlink">
<g id="graph0" class="graph" transform="scale(1 1) rotate(0) translate(4 408)">
<title>cmd_line.hpp</title>
<!-- Node1 -->
<g id="Node000001" class="node">
<title>Node1</title>
<g id="a_Node000001"><a xlink:title=" ">
<polygon fill="#999999" stroke="#666666" points="1329,-404 1247,-404 1247,-385 1329,-385 1329,-404"/>
<text text-anchor="middle" x="1288" y="-392" font-family="Helvetica,sans-Serif" font-size="10.00">cmd_line.hpp</text>
</a>
</g>
</g>
<!-- Node2 -->
<g id="Node000002" class="node">
<title>Node2</title>
<g id="a_Node000002"><a xlink:href="api_8hpp.html" target="_top" xlink:title=" ">
<polygon fill="white" stroke="#666666" points="747.5,-349 694.5,-349 694.5,-330 747.5,-330 747.5,-349"/>
<text text-anchor="middle" x="721" y="-337" font-family="Helvetica,sans-Serif" font-size="10.00">api.hpp</text>
</a>
</g>
</g>
<!-- Node1&#45;&gt;Node2 -->
<g id="edge1_Node000001_Node000002" class="edge">
<title>Node1&#45;&gt;Node2</title>
<g id="a_edge1_Node000001_Node000002"><a xlink:title=" ">
<path fill="none" stroke="#63b8ff" d="M1246.78,-392.13C1158.74,-388.75 945.79,-378.19 757.72,-348.85"/>
<polygon fill="#63b8ff" stroke="#63b8ff" points="758.07,-345.36 747.65,-347.26 756.98,-352.28 758.07,-345.36"/>
</a>
</g>
</g>
<!-- Node6 -->
<g id="Node000006" class="node">
<title>Node6</title>
<g id="a_Node000006"><a xlink:title=" ">
<polygon fill="#e0e0e0" stroke="#999999" points="1490.5,-19 1443.5,-19 1443.5,0 1490.5,0 1490.5,-19"/>
<text text-anchor="middle" x="1467" y="-7" font-family="Helvetica,sans-Serif" font-size="10.00">vector</text>
</a>
</g>
</g>
<!-- Node1&#45;&gt;Node6 -->
<g id="edge72_Node000001_Node000006" class="edge">
<title>Node1&#45;&gt;Node6</title>
<g id="a_edge72_Node000001_Node000006"><a xlink:title=" ">
<path fill="none" stroke="#63b8ff" d="M1329.16,-390.8C1429.01,-383.12 1676,-356.91 1676,-285.5 1676,-285.5 1676,-285.5 1676,-118.5 1676,-40.48 1559.62,-18.76 1500.55,-12.76"/>
<polygon fill="#63b8ff" stroke="#63b8ff" points="1500.85,-9.27 1490.57,-11.84 1500.21,-16.24 1500.85,-9.27"/>
</a>
</g>
</g>
<!-- Node9 -->
<g id="Node000009" class="node">
<title>Node9</title>
<g id="a_Node000009"><a xlink:href="utils_8hpp.html" target="_top" xlink:title=" ">
<polygon fill="white" stroke="#666666" points="983.5,-129 924.5,-129 924.5,-110 983.5,-110 983.5,-129"/>
<text text-anchor="middle" x="954" y="-117" font-family="Helvetica,sans-Serif" font-size="10.00">utils.hpp</text>
</a>
</g>
</g>
<!-- Node1&#45;&gt;Node9 -->
<g id="edge58_Node000001_Node000009" class="edge">
<title>Node1&#45;&gt;Node9</title>
<g id="a_edge58_Node000001_Node000009"><a xlink:title=" ">
<path fill="none" stroke="#63b8ff" d="M1329.02,-388.36C1379.19,-379.44 1460.23,-355.68 1483,-294 1502.21,-241.94 1471.4,-195.62 1426,-165 1390.5,-141.06 1100.9,-126.64 993.71,-122.08"/>
<polygon fill="#63b8ff" stroke="#63b8ff" points="993.76,-118.58 983.62,-121.66 993.46,-125.57 993.76,-118.58"/>
</a>
</g>
</g>
<!-- Node10 -->
<g id="Node000010" class="node">
<title>Node10</title>
<g id="a_Node000010"><a xlink:title=" ">
<polygon fill="#e0e0e0" stroke="#999999" points="1272,-74 1208,-74 1208,-55 1272,-55 1272,-74"/>
<text text-anchor="middle" x="1240" y="-62" font-family="Helvetica,sans-Serif" font-size="10.00">algorithm</text>
</a>
</g>
</g>
<!-- Node1&#45;&gt;Node10 -->
<g id="edge73_Node000001_Node000010" class="edge">
<title>Node1&#45;&gt;Node10</title>
<g id="a_edge73_Node000001_Node000010"><a xlink:title=" ">
<path fill="none" stroke="#63b8ff" d="M1329.18,-389.57C1421.7,-379.61 1638,-349.49 1638,-285.5 1638,-285.5 1638,-285.5 1638,-228.5 1638,-128.98 1540.27,-147.3 1448,-110 1392.97,-87.75 1325.04,-75.9 1282.1,-70.16"/>
<polygon fill="#63b8ff" stroke="#63b8ff" points="1282.38,-66.66 1272.02,-68.86 1281.49,-73.61 1282.38,-66.66"/>
</a>
</g>
</g>
<!-- Node13 -->
<g id="Node000013" class="node">
<title>Node13</title>
<g id="a_Node000013"><a xlink:href="context_8hpp.html" target="_top" xlink:title=" ">
<polygon fill="white" stroke="#666666" points="354,-184 280,-184 280,-165 354,-165 354,-184"/>
<text text-anchor="middle" x="317" y="-172" font-family="Helvetica,sans-Serif" font-size="10.00">context.hpp</text>
</a>
</g>
</g>
<!-- Node1&#45;&gt;Node13 -->
<g id="edge59_Node000001_Node000013" class="edge">
<title>Node1&#45;&gt;Node13</title>
<g id="a_edge59_Node000001_Node000013"><a xlink:title=" ">
<path fill="none" stroke="#63b8ff" d="M1246.78,-392.77C1062.77,-389.1 322.59,-369.67 256,-294 227.88,-262.04 271.68,-214.82 298.55,-190.78"/>
<polygon fill="#63b8ff" stroke="#63b8ff" points="300.99,-193.3 306.25,-184.1 296.4,-188.01 300.99,-193.3"/>
</a>
</g>
</g>
<!-- Node15 -->
<g id="Node000015" class="node">
<title>Node15</title>
<g id="a_Node000015"><a xlink:href="exceptions_8hpp.html" target="_top" xlink:title=" ">
<polygon fill="white" stroke="#666666" points="185.5,-129 94.5,-129 94.5,-110 185.5,-110 185.5,-129"/>
<text text-anchor="middle" x="140" y="-117" font-family="Helvetica,sans-Serif" font-size="10.00">exceptions.hpp</text>
</a>
</g>
</g>
<!-- Node1&#45;&gt;Node15 -->
<g id="edge60_Node000001_Node000015" class="edge">
<title>Node1&#45;&gt;Node15</title>
<g id="a_edge60_Node000001_Node000015"><a xlink:title=" ">
<path fill="none" stroke="#63b8ff" d="M1246.89,-393.73C1116.06,-394.01 697.81,-391.27 355,-349 212.39,-331.42 38,-429.19 38,-285.5 38,-285.5 38,-285.5 38,-228.5 38,-184.56 83.18,-151.27 113.4,-133.92"/>
<polygon fill="#63b8ff" stroke="#63b8ff" points="115.16,-136.94 122.23,-129.05 111.79,-130.81 115.16,-136.94"/>
</a>
</g>
</g>
<!-- Node21 -->
<g id="Node000021" class="node">
<title>Node21</title>
<g id="a_Node000021"><a xlink:title=" ">
<polygon fill="#e0e0e0" stroke="#999999" points="1402,-184 1344,-184 1344,-165 1402,-165 1402,-184"/>
<text text-anchor="middle" x="1373" y="-172" font-family="Helvetica,sans-Serif" font-size="10.00">memory</text>
</a>
</g>
</g>
<!-- Node1&#45;&gt;Node21 -->
<g id="edge74_Node000001_Node000021" class="edge">
<title>Node1&#45;&gt;Node21</title>
<g id="a_edge74_Node000001_Node000021"><a xlink:title=" ">
<path fill="none" stroke="#63b8ff" d="M1324.65,-385C1367.47,-372.88 1436.35,-346.1 1467,-294 1491.2,-252.86 1433.65,-210.4 1398.24,-189.24"/>
<polygon fill="#63b8ff" stroke="#63b8ff" points="1399.76,-186.07 1389.35,-184.09 1396.25,-192.13 1399.76,-186.07"/>
</a>
</g>
</g>
<!-- Node22 -->
<g id="Node000022" class="node">
<title>Node22</title>
<g id="a_Node000022"><a xlink:href="command_8hpp.html" target="_top" xlink:title=" ">
<polygon fill="white" stroke="#666666" points="801,-294 715,-294 715,-275 801,-275 801,-294"/>
<text text-anchor="middle" x="758" y="-282" font-family="Helvetica,sans-Serif" font-size="10.00">command.hpp</text>
</a>
</g>
</g>
<!-- Node1&#45;&gt;Node22 -->
<g id="edge61_Node000001_Node000022" class="edge">
<title>Node1&#45;&gt;Node22</title>
<g id="a_edge61_Node000001_Node000022"><a xlink:title=" ">
<path fill="none" stroke="#63b8ff" d="M1246.85,-385.12C1151.41,-365.67 915.09,-317.51 809.91,-296.08"/>
<polygon fill="#63b8ff" stroke="#63b8ff" points="810.35,-292.6 799.85,-294.03 808.95,-299.45 810.35,-292.6"/>
</a>
</g>
</g>
<!-- Node23 -->
<g id="Node000023" class="node">
<title>Node23</title>
<g id="a_Node000023"><a xlink:href="help_8hpp.html" target="_top" xlink:title=" ">
<polygon fill="white" stroke="#666666" points="824.5,-349 765.5,-349 765.5,-330 824.5,-330 824.5,-349"/>
<text text-anchor="middle" x="795" y="-337" font-family="Helvetica,sans-Serif" font-size="10.00">help.hpp</text>
</a>
</g>
</g>
<!-- Node1&#45;&gt;Node23 -->
<g id="edge62_Node000001_Node000023" class="edge">
<title>Node1&#45;&gt;Node23</title>
<g id="a_edge62_Node000001_Node000023"><a xlink:title=" ">
<path fill="none" stroke="#63b8ff" d="M1246.82,-389.07C1153.45,-379.03 926.68,-354.66 834.72,-344.77"/>
<polygon fill="#63b8ff" stroke="#63b8ff" points="835.02,-341.28 824.71,-343.69 834.28,-348.24 835.02,-341.28"/>
</a>
</g>
</g>
<!-- Node25 -->
<g id="Node000025" class="node">
<title>Node25</title>
<g id="a_Node000025"><a xlink:href="help__printer_8hpp.html" target="_top" xlink:title=" ">
<polygon fill="white" stroke="#666666" points="1335.5,-349 1240.5,-349 1240.5,-330 1335.5,-330 1335.5,-349"/>
<text text-anchor="middle" x="1288" y="-337" font-family="Helvetica,sans-Serif" font-size="10.00">help_printer.hpp</text>
</a>
</g>
</g>
<!-- Node1&#45;&gt;Node25 -->
<g id="edge75_Node000001_Node000025" class="edge">
<title>Node1&#45;&gt;Node25</title>
<g id="a_edge75_Node000001_Node000025"><a xlink:title=" ">
<path fill="none" stroke="#63b8ff" d="M1282.83,-384.75C1281.34,-377.8 1280.9,-367.85 1281.52,-359.13"/>
<polygon fill="#63b8ff" stroke="#63b8ff" points="1285.01,-359.47 1282.87,-349.09 1278.07,-358.53 1285.01,-359.47"/>
</a>
</g>
</g>
<!-- Node3 -->
<g id="Node000003" class="node">
<title>Node3</title>
<g id="a_Node000003"><a xlink:href="types_8hpp.html" target="_top" xlink:title=" ">
<polygon fill="white" stroke="#666666" points="566.5,-74 501.5,-74 501.5,-55 566.5,-55 566.5,-74"/>
<text text-anchor="middle" x="534" y="-62" font-family="Helvetica,sans-Serif" font-size="10.00">types.hpp</text>
</a>
</g>
</g>
<!-- Node2&#45;&gt;Node3 -->
<g id="edge2_Node000002_Node000003" class="edge">
<title>Node2&#45;&gt;Node3</title>
<g id="a_edge2_Node000002_Node000003"><a xlink:title=" ">
<path fill="none" stroke="#63b8ff" d="M694.2,-337.87C593.26,-335.27 236.16,-324.12 127,-294 66.17,-277.22 0,-293.61 0,-230.5 0,-230.5 0,-230.5 0,-173.5 0,-73.45 364.67,-65.01 491.3,-65.09"/>
<polygon fill="#63b8ff" stroke="#63b8ff" points="491.39,-68.59 501.4,-65.11 491.41,-61.59 491.39,-68.59"/>
</a>
</g>
</g>
<!-- Node7 -->
<g id="Node000007" class="node">
<title>Node7</title>
<g id="a_Node000007"><a xlink:href="arg_8hpp.html" target="_top" xlink:title=" ">
<polygon fill="white" stroke="#666666" points="615.5,-239 562.5,-239 562.5,-220 615.5,-220 615.5,-239"/>
<text text-anchor="middle" x="589" y="-227" font-family="Helvetica,sans-Serif" font-size="10.00">arg.hpp</text>
</a>
</g>
</g>
<!-- Node2&#45;&gt;Node7 -->
<g id="edge6_Node000002_Node000007" class="edge">
<title>Node2&#45;&gt;Node7</title>
<g id="a_edge6_Node000002_Node000007"><a xlink:title=" ">
<path fill="none" stroke="#63b8ff" d="M707.61,-329.77C694.6,-321.13 674.46,-307.29 658,-294 638.94,-278.61 618.45,-259.37 604.79,-246.13"/>
<polygon fill="#63b8ff" stroke="#63b8ff" points="607.2,-243.59 597.61,-239.1 602.31,-248.59 607.2,-243.59"/>
</a>
</g>
</g>
<!-- Node18 -->
<g id="Node000018" class="node">
<title>Node18</title>
<g id="a_Node000018"><a xlink:href="multi__arg_8hpp.html" target="_top" xlink:title=" ">
<polygon fill="white" stroke="#666666" points="349,-294 265,-294 265,-275 349,-275 349,-294"/>
<text text-anchor="middle" x="307" y="-282" font-family="Helvetica,sans-Serif" font-size="10.00">multi_arg.hpp</text>
</a>
</g>
</g>
<!-- Node2&#45;&gt;Node18 -->
<g id="edge29_Node000002_Node000018" class="edge">
<title>Node2&#45;&gt;Node18</title>
<g id="a_edge29_Node000002_Node000018"><a xlink:title=" ">
<path fill="none" stroke="#63b8ff" d="M694.26,-335.32C635.06,-328.24 488.5,-310.5 366,-294 363.79,-293.7 361.54,-293.4 359.26,-293.08"/>
<polygon fill="#63b8ff" stroke="#63b8ff" points="359.59,-289.59 349.21,-291.68 358.63,-296.53 359.59,-289.59"/>
</a>
</g>
</g>
<!-- Node19 -->
<g id="Node000019" class="node">
<title>Node19</title>
<g id="a_Node000019"><a xlink:href="groups_8hpp.html" target="_top" xlink:title=" ">
<polygon fill="white" stroke="#666666" points="1221.5,-294 1150.5,-294 1150.5,-275 1221.5,-275 1221.5,-294"/>
<text text-anchor="middle" x="1186" y="-282" font-family="Helvetica,sans-Serif" font-size="10.00">groups.hpp</text>
</a>
</g>
</g>
<!-- Node2&#45;&gt;Node19 -->
<g id="edge37_Node000002_Node000019" class="edge">
<title>Node2&#45;&gt;Node19</title>
<g id="a_edge37_Node000002_Node000019"><a xlink:title=" ">
<path fill="none" stroke="#63b8ff" d="M747.65,-331.77C750.79,-331.11 753.96,-330.5 757,-330 923.36,-302.72 970.1,-317.73 1139.99,-294.16"/>
<polygon fill="#63b8ff" stroke="#63b8ff" points="1140.62,-297.61 1150.03,-292.75 1139.64,-290.68 1140.62,-297.61"/>
</a>
</g>
</g>
<!-- Node2&#45;&gt;Node22 -->
<g id="edge50_Node000002_Node000022" class="edge">
<title>Node2&#45;&gt;Node22</title>
<g id="a_edge50_Node000002_Node000022"><a xlink:title=" ">
<path fill="none" stroke="#63b8ff" d="M721.94,-329.75C725.6,-322.18 733,-311.05 740.3,-301.84"/>
<polygon fill="#63b8ff" stroke="#63b8ff" points="743.08,-303.98 746.87,-294.09 737.74,-299.46 743.08,-303.98"/>
</a>
</g>
</g>
<!-- Node4 -->
<g id="Node000004" class="node">
<title>Node4</title>
<g id="a_Node000004"><a xlink:title=" ">
<polygon fill="#e0e0e0" stroke="#999999" points="591,-19 547,-19 547,0 591,0 591,-19"/>
<text text-anchor="middle" x="569" y="-7" font-family="Helvetica,sans-Serif" font-size="10.00">string</text>
</a>
</g>
</g>
<!-- Node3&#45;&gt;Node4 -->
<g id="edge3_Node000003_Node000004" class="edge">
<title>Node3&#45;&gt;Node4</title>
<g id="a_edge3_Node000003_Node000004"><a xlink:title=" ">
<path fill="none" stroke="#63b8ff" d="M539.78,-54.75C544.62,-47.42 551.68,-36.73 557.64,-27.7"/>
<polygon fill="#63b8ff" stroke="#63b8ff" points="560.74,-29.36 563.33,-19.09 554.9,-25.5 560.74,-29.36"/>
</a>
</g>
</g>
<!-- Node5 -->
<g id="Node000005" class="node">
<title>Node5</title>
<g id="a_Node000005"><a xlink:title=" ">
<polygon fill="#e0e0e0" stroke="#999999" points="529,-19 469,-19 469,0 529,0 529,-19"/>
<text text-anchor="middle" x="499" y="-7" font-family="Helvetica,sans-Serif" font-size="10.00">iostream</text>
</a>
</g>
</g>
<!-- Node3&#45;&gt;Node5 -->
<g id="edge4_Node000003_Node000005" class="edge">
<title>Node3&#45;&gt;Node5</title>
<g id="a_edge4_Node000003_Node000005"><a xlink:title=" ">
<path fill="none" stroke="#63b8ff" d="M528.22,-54.75C523.38,-47.42 516.32,-36.73 510.36,-27.7"/>
<polygon fill="#63b8ff" stroke="#63b8ff" points="513.1,-25.5 504.67,-19.09 507.26,-29.36 513.1,-25.5"/>
</a>
</g>
</g>
<!-- Node3&#45;&gt;Node6 -->
<g id="edge5_Node000003_Node000006" class="edge">
<title>Node3&#45;&gt;Node6</title>
<g id="a_edge5_Node000003_Node000006"><a xlink:title=" ">
<path fill="none" stroke="#63b8ff" d="M566.66,-61.64C710.46,-53.48 1286.52,-20.75 1432.99,-12.43"/>
<polygon fill="#63b8ff" stroke="#63b8ff" points="1433.38,-15.92 1443.17,-11.85 1432.98,-8.93 1433.38,-15.92"/>
</a>
</g>
</g>
<!-- Node7&#45;&gt;Node3 -->
<g id="edge27_Node000007_Node000003" class="edge">
<title>Node7&#45;&gt;Node3</title>
<g id="a_edge27_Node000007_Node000003"><a xlink:title=" ">
<path fill="none" stroke="#63b8ff" d="M562.2,-225.64C536.73,-221.33 499.75,-210.61 482,-184 463.75,-156.64 468.25,-139.87 482,-110 487.75,-97.52 498.91,-87.24 509.42,-79.71"/>
<polygon fill="#63b8ff" stroke="#63b8ff" points="511.57,-82.49 517.97,-74.05 507.7,-76.65 511.57,-82.49"/>
</a>
</g>
</g>
<!-- Node8 -->
<g id="Node000008" class="node">
<title>Node8</title>
<g id="a_Node000008"><a xlink:href="arg__iface_8hpp.html" target="_top" xlink:title=" ">
<polygon fill="white" stroke="#666666" points="869.5,-184 786.5,-184 786.5,-165 869.5,-165 869.5,-184"/>
<text text-anchor="middle" x="828" y="-172" font-family="Helvetica,sans-Serif" font-size="10.00">arg_iface.hpp</text>
</a>
</g>
</g>
<!-- Node7&#45;&gt;Node8 -->
<g id="edge7_Node000007_Node000008" class="edge">
<title>Node7&#45;&gt;Node8</title>
<g id="a_edge7_Node000007_Node000008"><a xlink:title=" ">
<path fill="none" stroke="#63b8ff" d="M615.95,-222.52C655.58,-213.73 730.21,-197.19 779.51,-186.25"/>
<polygon fill="#63b8ff" stroke="#63b8ff" points="780.32,-189.66 789.33,-184.08 778.8,-182.82 780.32,-189.66"/>
</a>
</g>
</g>
<!-- Node7&#45;&gt;Node9 -->
<g id="edge14_Node000007_Node000009" class="edge">
<title>Node7&#45;&gt;Node9</title>
<g id="a_edge14_Node000007_Node000009"><a xlink:title=" ">
<path fill="none" stroke="#63b8ff" d="M615.86,-222.69C620.56,-221.74 625.42,-220.81 630,-220 740.13,-200.64 777.04,-229.91 879,-184 903.41,-173.01 926.08,-151.63 939.97,-136.73"/>
<polygon fill="#63b8ff" stroke="#63b8ff" points="942.64,-138.99 946.73,-129.22 937.44,-134.31 942.64,-138.99"/>
</a>
</g>
</g>
<!-- Node7&#45;&gt;Node10 -->
<g id="edge28_Node000007_Node000010" class="edge">
<title>Node7&#45;&gt;Node10</title>
<g id="a_edge28_Node000007_Node000010"><a xlink:title=" ">
<path fill="none" stroke="#63b8ff" d="M615.73,-226.6C670.85,-222.28 800.88,-210.02 907,-184 1022.54,-155.67 1154.05,-102.29 1211.09,-78.05"/>
<polygon fill="#63b8ff" stroke="#63b8ff" points="1212.72,-81.16 1220.54,-74.01 1209.96,-74.72 1212.72,-81.16"/>
</a>
</g>
</g>
<!-- Node7&#45;&gt;Node13 -->
<g id="edge15_Node000007_Node000013" class="edge">
<title>Node7&#45;&gt;Node13</title>
<g id="a_edge15_Node000007_Node000013"><a xlink:title=" ">
<path fill="none" stroke="#63b8ff" d="M562.42,-223.32C516.4,-214.35 421.28,-195.82 363.91,-184.64"/>
<polygon fill="#63b8ff" stroke="#63b8ff" points="364.49,-181.19 354.01,-182.71 363.16,-188.06 364.49,-181.19"/>
</a>
</g>
</g>
<!-- Node7&#45;&gt;Node15 -->
<g id="edge19_Node000007_Node000015" class="edge">
<title>Node7&#45;&gt;Node15</title>
<g id="a_edge19_Node000007_Node000015"><a xlink:title=" ">
<path fill="none" stroke="#63b8ff" d="M562.39,-220.3C520.31,-207.51 435.72,-182.45 363,-165 306.43,-151.43 241.1,-138.74 195.84,-130.41"/>
<polygon fill="#63b8ff" stroke="#63b8ff" points="196.39,-126.95 185.92,-128.6 195.13,-133.84 196.39,-126.95"/>
</a>
</g>
</g>
<!-- Node17 -->
<g id="Node000017" class="node">
<title>Node17</title>
<g id="a_Node000017"><a xlink:href="value__utils_8hpp.html" target="_top" xlink:title=" ">
<polygon fill="white" stroke="#666666" points="653.5,-184 562.5,-184 562.5,-165 653.5,-165 653.5,-184"/>
<text text-anchor="middle" x="608" y="-172" font-family="Helvetica,sans-Serif" font-size="10.00">value_utils.hpp</text>
</a>
</g>
</g>
<!-- Node7&#45;&gt;Node17 -->
<g id="edge22_Node000007_Node000017" class="edge">
<title>Node7&#45;&gt;Node17</title>
<g id="a_edge22_Node000007_Node000017"><a xlink:title=" ">
<path fill="none" stroke="#63b8ff" d="M592.14,-219.75C594.68,-212.65 598.36,-202.4 601.53,-193.56"/>
<polygon fill="#63b8ff" stroke="#63b8ff" points="604.84,-194.68 604.92,-184.09 598.25,-192.32 604.84,-194.68"/>
</a>
</g>
</g>
<!-- Node8&#45;&gt;Node3 -->
<g id="edge12_Node000008_Node000003" class="edge">
<title>Node8&#45;&gt;Node3</title>
<g id="a_edge12_Node000008_Node000003"><a xlink:title=" ">
<path fill="none" stroke="#63b8ff" d="M831.33,-164.91C835.93,-151.45 842.23,-125.38 829,-110 797,-72.81 650.83,-66.29 576.97,-65.42"/>
<polygon fill="#63b8ff" stroke="#63b8ff" points="576.66,-61.92 566.62,-65.33 576.59,-68.92 576.66,-61.92"/>
</a>
</g>
</g>
<!-- Node8&#45;&gt;Node9 -->
<g id="edge8_Node000008_Node000009" class="edge">
<title>Node8&#45;&gt;Node9</title>
<g id="a_edge8_Node000008_Node000009"><a xlink:title=" ">
<path fill="none" stroke="#63b8ff" d="M848.24,-164.98C868.7,-156.38 900.53,-142.99 923.93,-133.15"/>
<polygon fill="#63b8ff" stroke="#63b8ff" points="925.53,-136.27 933.39,-129.17 922.81,-129.82 925.53,-136.27"/>
</a>
</g>
</g>
<!-- Node12 -->
<g id="Node000012" class="node">
<title>Node12</title>
<g id="a_Node000012"><a xlink:href="enums_8hpp.html" target="_top" xlink:title=" ">
<polygon fill="white" stroke="#666666" points="819.5,-129 748.5,-129 748.5,-110 819.5,-110 819.5,-129"/>
<text text-anchor="middle" x="784" y="-117" font-family="Helvetica,sans-Serif" font-size="10.00">enums.hpp</text>
</a>
</g>
</g>
<!-- Node8&#45;&gt;Node12 -->
<g id="edge13_Node000008_Node000012" class="edge">
<title>Node8&#45;&gt;Node12</title>
<g id="a_edge13_Node000008_Node000012"><a xlink:title=" ">
<path fill="none" stroke="#63b8ff" d="M820.73,-164.75C814.46,-157.18 805.21,-146.05 797.57,-136.84"/>
<polygon fill="#63b8ff" stroke="#63b8ff" points="800.21,-134.55 791.13,-129.09 794.83,-139.02 800.21,-134.55"/>
</a>
</g>
</g>
<!-- Node9&#45;&gt;Node3 -->
<g id="edge9_Node000009_Node000003" class="edge">
<title>Node9&#45;&gt;Node3</title>
<g id="a_edge9_Node000009_Node000003"><a xlink:title=" ">
<path fill="none" stroke="#63b8ff" d="M924.47,-114.77C851.42,-105.56 662.06,-81.66 576.76,-70.9"/>
<polygon fill="#63b8ff" stroke="#63b8ff" points="577.01,-67.4 566.65,-69.62 576.13,-74.34 577.01,-67.4"/>
</a>
</g>
</g>
<!-- Node9&#45;&gt;Node10 -->
<g id="edge10_Node000009_Node000010" class="edge">
<title>Node9&#45;&gt;Node10</title>
<g id="a_edge10_Node000009_Node000010"><a xlink:title=" ">
<path fill="none" stroke="#63b8ff" d="M983.82,-112.7C988.56,-111.79 993.41,-110.86 998,-110 1068.01,-96.8 1149.5,-81.92 1197.8,-73.14"/>
<polygon fill="#63b8ff" stroke="#63b8ff" points="1198.67,-76.54 1207.88,-71.31 1197.42,-69.65 1198.67,-76.54"/>
</a>
</g>
</g>
<!-- Node11 -->
<g id="Node000011" class="node">
<title>Node11</title>
<g id="a_Node000011"><a xlink:title=" ">
<polygon fill="#e0e0e0" stroke="#999999" points="1089.5,-74 1020.5,-74 1020.5,-55 1089.5,-55 1089.5,-74"/>
<text text-anchor="middle" x="1055" y="-62" font-family="Helvetica,sans-Serif" font-size="10.00">type_traits</text>
</a>
</g>
</g>
<!-- Node9&#45;&gt;Node11 -->
<g id="edge11_Node000009_Node000011" class="edge">
<title>Node9&#45;&gt;Node11</title>
<g id="a_edge11_Node000009_Node000011"><a xlink:title=" ">
<path fill="none" stroke="#63b8ff" d="M970.23,-109.98C986.18,-101.61 1010.78,-88.7 1029.38,-78.95"/>
<polygon fill="#63b8ff" stroke="#63b8ff" points="1031.25,-81.92 1038.48,-74.17 1028,-75.72 1031.25,-81.92"/>
</a>
</g>
</g>
<!-- Node13&#45;&gt;Node3 -->
<g id="edge18_Node000013_Node000003" class="edge">
<title>Node13&#45;&gt;Node3</title>
<g id="a_edge18_Node000013_Node000003"><a xlink:title=" ">
<path fill="none" stroke="#63b8ff" d="M316.99,-164.68C317.47,-150.93 320.52,-124.44 336,-110 358.18,-89.32 440.06,-76.33 491.32,-70.04"/>
<polygon fill="#63b8ff" stroke="#63b8ff" points="491.93,-73.49 501.45,-68.83 491.11,-66.54 491.93,-73.49"/>
</a>
</g>
</g>
<!-- Node13&#45;&gt;Node9 -->
<g id="edge17_Node000013_Node000009" class="edge">
<title>Node13&#45;&gt;Node9</title>
<g id="a_edge17_Node000013_Node000009"><a xlink:title=" ">
<path fill="none" stroke="#63b8ff" d="M354,-170.42C465.75,-161.12 799.19,-133.38 914.36,-123.8"/>
<polygon fill="#63b8ff" stroke="#63b8ff" points="914.82,-127.27 924.49,-122.96 914.24,-120.3 914.82,-127.27"/>
</a>
</g>
</g>
<!-- Node14 -->
<g id="Node000014" class="node">
<title>Node14</title>
<g id="a_Node000014"><a xlink:title=" ">
<polygon fill="#e0e0e0" stroke="#999999" points="390.5,-129 345.5,-129 345.5,-110 390.5,-110 390.5,-129"/>
<text text-anchor="middle" x="368" y="-117" font-family="Helvetica,sans-Serif" font-size="10.00">utility</text>
</a>
</g>
</g>
<!-- Node13&#45;&gt;Node14 -->
<g id="edge16_Node000013_Node000014" class="edge">
<title>Node13&#45;&gt;Node14</title>
<g id="a_edge16_Node000013_Node000014"><a xlink:title=" ">
<path fill="none" stroke="#63b8ff" d="M325.42,-164.75C332.77,-157.11 343.63,-145.82 352.54,-136.56"/>
<polygon fill="#63b8ff" stroke="#63b8ff" points="355.32,-138.72 359.74,-129.09 350.28,-133.87 355.32,-138.72"/>
</a>
</g>
</g>
<!-- Node15&#45;&gt;Node3 -->
<g id="edge21_Node000015_Node000003" class="edge">
<title>Node15&#45;&gt;Node3</title>
<g id="a_edge21_Node000015_Node000003"><a xlink:title=" ">
<path fill="none" stroke="#63b8ff" d="M185.53,-112.01C190.41,-111.33 195.31,-110.64 200,-110 304.58,-95.63 427.68,-79.41 491.23,-71.08"/>
<polygon fill="#63b8ff" stroke="#63b8ff" points="491.81,-74.54 501.28,-69.77 490.91,-67.6 491.81,-74.54"/>
</a>
</g>
</g>
<!-- Node16 -->
<g id="Node000016" class="node">
<title>Node16</title>
<g id="a_Node000016"><a xlink:title=" ">
<polygon fill="#e0e0e0" stroke="#999999" points="172.5,-74 107.5,-74 107.5,-55 172.5,-55 172.5,-74"/>
<text text-anchor="middle" x="140" y="-62" font-family="Helvetica,sans-Serif" font-size="10.00">stdexcept</text>
</a>
</g>
</g>
<!-- Node15&#45;&gt;Node16 -->
<g id="edge20_Node000015_Node000016" class="edge">
<title>Node15&#45;&gt;Node16</title>
<g id="a_edge20_Node000015_Node000016"><a xlink:title=" ">
<path fill="none" stroke="#63b8ff" d="M140,-109.75C140,-102.8 140,-92.85 140,-84.13"/>
<polygon fill="#63b8ff" stroke="#63b8ff" points="143.5,-84.09 140,-74.09 136.5,-84.09 143.5,-84.09"/>
</a>
</g>
</g>
<!-- Node17&#45;&gt;Node3 -->
<g id="edge25_Node000017_Node000003" class="edge">
<title>Node17&#45;&gt;Node3</title>
<g id="a_edge25_Node000017_Node000003"><a xlink:title=" ">
<path fill="none" stroke="#63b8ff" d="M601.94,-164.66C589.69,-146.77 561.75,-106 545.78,-82.69"/>
<polygon fill="#63b8ff" stroke="#63b8ff" points="548.47,-80.43 539.93,-74.16 542.7,-84.39 548.47,-80.43"/>
</a>
</g>
</g>
<!-- Node17&#45;&gt;Node9 -->
<g id="edge23_Node000017_Node000009" class="edge">
<title>Node17&#45;&gt;Node9</title>
<g id="a_edge23_Node000017_Node000009"><a xlink:title=" ">
<path fill="none" stroke="#63b8ff" d="M653.59,-166.52C721.73,-156.08 849.04,-136.58 913.86,-126.65"/>
<polygon fill="#63b8ff" stroke="#63b8ff" points="914.73,-130.06 924.08,-125.08 913.67,-123.14 914.73,-130.06"/>
</a>
</g>
</g>
<!-- Node17&#45;&gt;Node10 -->
<g id="edge26_Node000017_Node000010" class="edge">
<title>Node17&#45;&gt;Node10</title>
<g id="a_edge26_Node000017_Node000010"><a xlink:title=" ">
<path fill="none" stroke="#63b8ff" d="M621.49,-164.89C644.55,-150.68 693.45,-122.61 739,-110 782.67,-97.92 1084.85,-76.17 1197.66,-68.38"/>
<polygon fill="#63b8ff" stroke="#63b8ff" points="1198.23,-71.85 1207.97,-67.67 1197.75,-64.86 1198.23,-71.85"/>
</a>
</g>
</g>
<!-- Node17&#45;&gt;Node15 -->
<g id="edge24_Node000017_Node000015" class="edge">
<title>Node17&#45;&gt;Node15</title>
<g id="a_edge24_Node000017_Node000015"><a xlink:title=" ">
<path fill="none" stroke="#63b8ff" d="M562.48,-166.9C557.6,-166.23 552.7,-165.59 548,-165 422.32,-149.25 274.45,-133.91 195.81,-126.01"/>
<polygon fill="#63b8ff" stroke="#63b8ff" points="195.94,-122.51 185.64,-125 195.24,-129.48 195.94,-122.51"/>
</a>
</g>
</g>
<!-- Node18&#45;&gt;Node3 -->
<g id="edge35_Node000018_Node000003" class="edge">
<title>Node18&#45;&gt;Node3</title>
<g id="a_edge35_Node000018_Node000003"><a xlink:title=" ">
<path fill="none" stroke="#63b8ff" d="M295.12,-274.72C285.2,-266.65 271.64,-253.72 265,-239 251.45,-208.95 246.6,-195.12 260,-165 274.84,-131.65 288.45,-126.53 321,-110 375.57,-82.29 446.38,-71.83 491.02,-67.89"/>
<polygon fill="#63b8ff" stroke="#63b8ff" points="491.54,-71.35 501.23,-67.06 490.98,-64.38 491.54,-71.35"/>
</a>
</g>
</g>
<!-- Node18&#45;&gt;Node7 -->
<g id="edge30_Node000018_Node000007" class="edge">
<title>Node18&#45;&gt;Node7</title>
<g id="a_edge30_Node000018_Node000007"><a xlink:title=" ">
<path fill="none" stroke="#63b8ff" d="M349.22,-275.57C404.39,-265.2 500.11,-247.21 552.37,-237.39"/>
<polygon fill="#63b8ff" stroke="#63b8ff" points="553.03,-240.82 562.21,-235.53 551.74,-233.94 553.03,-240.82"/>
</a>
</g>
</g>
<!-- Node18&#45;&gt;Node9 -->
<g id="edge34_Node000018_Node000009" class="edge">
<title>Node18&#45;&gt;Node9</title>
<g id="a_edge34_Node000018_Node000009"><a xlink:title=" ">
<path fill="none" stroke="#63b8ff" d="M349.07,-280.75C469.55,-272.21 813.23,-243.15 907,-184 924.53,-172.94 937.74,-152.81 945.63,-138.17"/>
<polygon fill="#63b8ff" stroke="#63b8ff" points="948.83,-139.6 950.22,-129.09 942.58,-136.44 948.83,-139.6"/>
</a>
</g>
</g>
<!-- Node18&#45;&gt;Node13 -->
<g id="edge31_Node000018_Node000013" class="edge">
<title>Node18&#45;&gt;Node13</title>
<g id="a_edge31_Node000018_Node000013"><a xlink:title=" ">
<path fill="none" stroke="#63b8ff" d="M307.82,-274.66C309.44,-257.17 313.08,-217.8 315.26,-194.27"/>
<polygon fill="#63b8ff" stroke="#63b8ff" points="318.76,-194.44 316.2,-184.16 311.79,-193.79 318.76,-194.44"/>
</a>
</g>
</g>
<!-- Node18&#45;&gt;Node14 -->
<g id="edge36_Node000018_Node000014" class="edge">
<title>Node18&#45;&gt;Node14</title>
<g id="a_edge36_Node000018_Node000014"><a xlink:title=" ">
<path fill="none" stroke="#63b8ff" d="M299.74,-274.79C283.52,-254.2 247.55,-201.56 271,-165 285.14,-142.96 313.24,-131.69 335.57,-126.02"/>
<polygon fill="#63b8ff" stroke="#63b8ff" points="336.38,-129.42 345.35,-123.79 334.82,-122.6 336.38,-129.42"/>
</a>
</g>
</g>
<!-- Node18&#45;&gt;Node15 -->
<g id="edge32_Node000018_Node000015" class="edge">
<title>Node18&#45;&gt;Node15</title>
<g id="a_edge32_Node000018_Node000015"><a xlink:title=" ">
<path fill="none" stroke="#63b8ff" d="M279.37,-274.96C259.49,-267.78 232.95,-255.94 214,-239 181.72,-210.15 158.48,-163.92 147.36,-138.57"/>
<polygon fill="#63b8ff" stroke="#63b8ff" points="150.48,-136.94 143.35,-129.1 144.03,-139.67 150.48,-136.94"/>
</a>
</g>
</g>
<!-- Node18&#45;&gt;Node17 -->
<g id="edge33_Node000018_Node000017" class="edge">
<title>Node18&#45;&gt;Node17</title>
<g id="a_edge33_Node000018_Node000017"><a xlink:title=" ">
<path fill="none" stroke="#63b8ff" d="M330.87,-274.94C384.22,-255.79 513.21,-209.51 574.54,-187.51"/>
<polygon fill="#63b8ff" stroke="#63b8ff" points="575.9,-190.74 584.13,-184.07 573.53,-184.15 575.9,-190.74"/>
</a>
</g>
</g>
<!-- Node19&#45;&gt;Node3 -->
<g id="edge48_Node000019_Node000003" class="edge">
<title>Node19&#45;&gt;Node3</title>
<g id="a_edge48_Node000019_Node000003"><a xlink:title=" ">
<path fill="none" stroke="#63b8ff" d="M1150.37,-275.83C1064.44,-257.18 847.8,-209.13 778,-184 693.97,-153.74 600.53,-103.28 557.74,-79.15"/>
<polygon fill="#63b8ff" stroke="#63b8ff" points="559.35,-76.04 548.92,-74.15 555.89,-82.13 559.35,-76.04"/>
</a>
</g>
</g>
<!-- Node19&#45;&gt;Node10 -->
<g id="edge49_Node000019_Node000010" class="edge">
<title>Node19&#45;&gt;Node10</title>
<g id="a_edge49_Node000019_Node000010"><a xlink:title=" ">
<path fill="none" stroke="#63b8ff" d="M1195.3,-274.84C1203.75,-266.46 1215.94,-252.99 1223,-239 1249.38,-186.7 1256.46,-168.22 1250,-110 1249.04,-101.34 1247.06,-91.91 1245.11,-83.97"/>
<polygon fill="#63b8ff" stroke="#63b8ff" points="1248.49,-83.06 1242.57,-74.27 1241.72,-84.83 1248.49,-83.06"/>
</a>
</g>
</g>
<!-- Node20 -->
<g id="Node000020" class="node">
<title>Node20</title>
<g id="a_Node000020"><a xlink:href="group__iface_8hpp.html" target="_top" xlink:title=" ">
<polygon fill="white" stroke="#666666" points="1213.5,-239 1118.5,-239 1118.5,-220 1213.5,-220 1213.5,-239"/>
<text text-anchor="middle" x="1166" y="-227" font-family="Helvetica,sans-Serif" font-size="10.00">group_iface.hpp</text>
</a>
</g>
</g>
<!-- Node19&#45;&gt;Node20 -->
<g id="edge38_Node000019_Node000020" class="edge">
<title>Node19&#45;&gt;Node20</title>
<g id="a_edge38_Node000019_Node000020"><a xlink:title=" ">
<path fill="none" stroke="#63b8ff" d="M1182.7,-274.75C1180.02,-267.65 1176.15,-257.4 1172.81,-248.56"/>
<polygon fill="#63b8ff" stroke="#63b8ff" points="1176.05,-247.21 1169.24,-239.09 1169.5,-249.68 1176.05,-247.21"/>
</a>
</g>
</g>
<!-- Node20&#45;&gt;Node3 -->
<g id="edge42_Node000020_Node000003" class="edge">
<title>Node20&#45;&gt;Node3</title>
<g id="a_edge42_Node000020_Node000003"><a xlink:title=" ">
<path fill="none" stroke="#63b8ff" d="M1162.78,-219.92C1157.35,-206.48 1145.13,-180.42 1127,-165 1077.96,-123.29 1055.48,-125.49 993,-110 843.18,-72.85 658.68,-66.42 576.72,-65.5"/>
<polygon fill="#63b8ff" stroke="#63b8ff" points="576.57,-62 566.54,-65.41 576.51,-69 576.57,-62"/>
</a>
</g>
</g>
<!-- Node20&#45;&gt;Node6 -->
<g id="edge43_Node000020_Node000006" class="edge">
<title>Node20&#45;&gt;Node6</title>
<g id="a_edge43_Node000020_Node000006"><a xlink:title=" ">
<path fill="none" stroke="#63b8ff" d="M1179.71,-219.87C1193.56,-211.08 1215.49,-196.93 1234,-184 1315.1,-127.34 1408.72,-55.64 1448.06,-25.22"/>
<polygon fill="#63b8ff" stroke="#63b8ff" points="1450.26,-27.94 1456.02,-19.05 1445.97,-22.41 1450.26,-27.94"/>
</a>
</g>
</g>
<!-- Node20&#45;&gt;Node8 -->
<g id="edge39_Node000020_Node000008" class="edge">
<title>Node20&#45;&gt;Node8</title>
<g id="a_edge39_Node000020_Node000008"><a xlink:title=" ">
<path fill="none" stroke="#63b8ff" d="M1118.29,-221.02C1055.24,-211.13 944.6,-193.78 879.64,-183.6"/>
<polygon fill="#63b8ff" stroke="#63b8ff" points="880.04,-180.12 869.62,-182.03 878.96,-187.03 880.04,-180.12"/>
</a>
</g>
</g>
<!-- Node20&#45;&gt;Node9 -->
<g id="edge40_Node000020_Node000009" class="edge">
<title>Node20&#45;&gt;Node9</title>
<g id="a_edge40_Node000020_Node000009"><a xlink:title=" ">
<path fill="none" stroke="#63b8ff" d="M1159.53,-219.75C1148.98,-206.09 1126.75,-179.73 1102,-165 1068.23,-144.91 1024.67,-133.24 993.56,-126.93"/>
<polygon fill="#63b8ff" stroke="#63b8ff" points="994.01,-123.46 983.52,-125 992.68,-130.33 994.01,-123.46"/>
</a>
</g>
</g>
<!-- Node20&#45;&gt;Node10 -->
<g id="edge45_Node000020_Node000010" class="edge">
<title>Node20&#45;&gt;Node10</title>
<g id="a_edge45_Node000020_Node000010"><a xlink:title=" ">
<path fill="none" stroke="#63b8ff" d="M1180.15,-219.7C1191.64,-211.79 1207.31,-199.11 1216,-184 1234.24,-152.26 1238.77,-108.78 1239.8,-84.28"/>
<polygon fill="#63b8ff" stroke="#63b8ff" points="1243.3,-84.28 1240.07,-74.19 1236.3,-84.09 1243.3,-84.28"/>
</a>
</g>
</g>
<!-- Node20&#45;&gt;Node11 -->
<g id="edge44_Node000020_Node000011" class="edge">
<title>Node20&#45;&gt;Node11</title>
<g id="a_edge44_Node000020_Node000011"><a xlink:title=" ">
<path fill="none" stroke="#63b8ff" d="M1170.32,-219.72C1175.82,-207.32 1183.95,-184.07 1178,-165 1169.15,-136.64 1162.25,-129.69 1140,-110 1124.67,-96.44 1104.47,-85.64 1087.61,-78.08"/>
<polygon fill="#63b8ff" stroke="#63b8ff" points="1088.7,-74.74 1078.13,-74.01 1085.94,-81.17 1088.7,-74.74"/>
</a>
</g>
</g>
<!-- Node20&#45;&gt;Node14 -->
<g id="edge46_Node000020_Node000014" class="edge">
<title>Node20&#45;&gt;Node14</title>
<g id="a_edge46_Node000020_Node000014"><a xlink:title=" ">
<path fill="none" stroke="#63b8ff" d="M1118.42,-223.79C1045.17,-216.37 900.39,-201.03 778,-184 726.26,-176.8 713.61,-173.13 662,-165 567.1,-150.05 454.82,-133.32 400.57,-125.3"/>
<polygon fill="#63b8ff" stroke="#63b8ff" points="400.92,-121.81 390.51,-123.81 399.89,-128.74 400.92,-121.81"/>
</a>
</g>
</g>
<!-- Node20&#45;&gt;Node15 -->
<g id="edge41_Node000020_Node000015" class="edge">
<title>Node20&#45;&gt;Node15</title>
<g id="a_edge41_Node000020_Node000015"><a xlink:title=" ">
<path fill="none" stroke="#63b8ff" d="M1118.19,-226.34C1014.83,-221.37 762.94,-207.72 553,-184 484.84,-176.3 292.01,-145.32 195.89,-129.66"/>
<polygon fill="#63b8ff" stroke="#63b8ff" points="196.22,-126.17 185.78,-128.01 195.09,-133.08 196.22,-126.17"/>
</a>
</g>
</g>
<!-- Node20&#45;&gt;Node21 -->
<g id="edge47_Node000020_Node000021" class="edge">
<title>Node20&#45;&gt;Node21</title>
<g id="a_edge47_Node000020_Node000021"><a xlink:title=" ">
<path fill="none" stroke="#63b8ff" d="M1199.26,-219.98C1235.98,-210.58 1295.03,-195.46 1333.92,-185.5"/>
<polygon fill="#63b8ff" stroke="#63b8ff" points="1335.02,-188.84 1343.84,-182.97 1333.28,-182.06 1335.02,-188.84"/>
</a>
</g>
</g>
<!-- Node22&#45;&gt;Node2 -->
<g id="edge51_Node000022_Node000002" class="edge">
<title>Node22&#45;&gt;Node2</title>
<g id="a_edge51_Node000022_Node000002"><a xlink:title=" ">
<path fill="none" stroke="#63b8ff" d="M757.13,-294.09C753.53,-301.6 746.16,-312.72 738.86,-321.96"/>
<polygon fill="#63b8ff" stroke="#63b8ff" points="736.05,-319.85 732.28,-329.75 741.4,-324.37 736.05,-319.85"/>
</a>
</g>
</g>
<!-- Node22&#45;&gt;Node3 -->
<g id="edge57_Node000022_Node000003" class="edge">
<title>Node22&#45;&gt;Node3</title>
<g id="a_edge57_Node000022_Node000003"><a xlink:title=" ">
<path fill="none" stroke="#63b8ff" d="M739.76,-274.92C690.12,-251.54 556.07,-188.14 553,-184 531.13,-154.56 530.35,-109.57 532,-84.34"/>
<polygon fill="#63b8ff" stroke="#63b8ff" points="535.5,-84.53 532.86,-74.27 528.52,-83.93 535.5,-84.53"/>
</a>
</g>
</g>
<!-- Node22&#45;&gt;Node9 -->
<g id="edge53_Node000022_Node000009" class="edge">
<title>Node22&#45;&gt;Node9</title>
<g id="a_edge53_Node000022_Node000009"><a xlink:title=" ">
<path fill="none" stroke="#63b8ff" d="M798.66,-274.93C844.06,-263.02 915.65,-236.68 950,-184 958.58,-170.84 958.86,-152.71 957.42,-139.19"/>
<polygon fill="#63b8ff" stroke="#63b8ff" points="960.86,-138.52 955.94,-129.13 953.93,-139.53 960.86,-138.52"/>
</a>
</g>
</g>
<!-- Node22&#45;&gt;Node12 -->
<g id="edge56_Node000022_Node000012" class="edge">
<title>Node22&#45;&gt;Node12</title>
<g id="a_edge56_Node000022_Node000012"><a xlink:title=" ">
<path fill="none" stroke="#63b8ff" d="M759.4,-274.74C763.47,-249.2 775.4,-174.43 781.01,-139.23"/>
<polygon fill="#63b8ff" stroke="#63b8ff" points="784.48,-139.73 782.6,-129.31 777.56,-138.63 784.48,-139.73"/>
</a>
</g>
</g>
<!-- Node22&#45;&gt;Node13 -->
<g id="edge54_Node000022_Node000013" class="edge">
<title>Node22&#45;&gt;Node13</title>
<g id="a_edge54_Node000022_Node000013"><a xlink:title=" ">
<path fill="none" stroke="#63b8ff" d="M715.85,-274.98C674.31,-266.44 609.09,-252.63 553,-239 483.67,-222.16 403.59,-200.04 356.8,-186.85"/>
<polygon fill="#63b8ff" stroke="#63b8ff" points="357.63,-183.45 347.05,-184.09 355.73,-190.18 357.63,-183.45"/>
</a>
</g>
</g>
<!-- Node22&#45;&gt;Node17 -->
<g id="edge55_Node000022_Node000017" class="edge">
<title>Node22&#45;&gt;Node17</title>
<g id="a_edge55_Node000022_Node000017"><a xlink:title=" ">
<path fill="none" stroke="#63b8ff" d="M751.12,-274.81C740.41,-261.68 718.61,-236.58 696,-220 678.41,-207.1 656.53,-196.02 638.99,-188.14"/>
<polygon fill="#63b8ff" stroke="#63b8ff" points="640.31,-184.9 629.75,-184.1 637.51,-191.31 640.31,-184.9"/>
</a>
</g>
</g>
<!-- Node22&#45;&gt;Node20 -->
<g id="edge52_Node000022_Node000020" class="edge">
<title>Node22&#45;&gt;Node20</title>
<g id="a_edge52_Node000022_Node000020"><a xlink:title=" ">
<path fill="none" stroke="#63b8ff" d="M801.28,-277.88C875.2,-268.28 1025.82,-248.71 1108.49,-237.97"/>
<polygon fill="#63b8ff" stroke="#63b8ff" points="1109.01,-241.43 1118.47,-236.67 1108.11,-234.49 1109.01,-241.43"/>
</a>
</g>
</g>
<!-- Node23&#45;&gt;Node3 -->
<g id="edge69_Node000023_Node000003" class="edge">
<title>Node23&#45;&gt;Node3</title>
<g id="a_edge69_Node000023_Node000003"><a xlink:title=" ">
<path fill="none" stroke="#63b8ff" d="M767.13,-329.95C693.95,-306.85 499.82,-241.03 469,-184 462.66,-172.26 455.6,-138.46 471,-110 478.33,-96.45 491.8,-86.09 504.41,-78.79"/>
<polygon fill="#63b8ff" stroke="#63b8ff" points="506.17,-81.82 513.34,-74.01 502.87,-75.64 506.17,-81.82"/>
</a>
</g>
</g>
<!-- Node23&#45;&gt;Node7 -->
<g id="edge63_Node000023_Node000007" class="edge">
<title>Node23&#45;&gt;Node7</title>
<g id="a_edge63_Node000023_Node000007"><a xlink:title=" ">
<path fill="none" stroke="#63b8ff" d="M777.52,-329.97C759.51,-321.14 730.66,-306.85 706,-294 673.76,-277.2 636.96,-257.06 613.38,-244.04"/>
<polygon fill="#63b8ff" stroke="#63b8ff" points="614.87,-240.87 604.43,-239.09 611.49,-246.99 614.87,-240.87"/>
</a>
</g>
</g>
<!-- Node23&#45;&gt;Node9 -->
<g id="edge67_Node000023_Node000009" class="edge">
<title>Node23&#45;&gt;Node9</title>
<g id="a_edge67_Node000023_Node000009"><a xlink:title=" ">
<path fill="none" stroke="#63b8ff" d="M812.45,-329.99C850.08,-310.47 937.83,-258.36 967,-184 972.77,-169.29 968.3,-151.6 963.08,-138.64"/>
<polygon fill="#63b8ff" stroke="#63b8ff" points="966.22,-137.08 958.92,-129.4 959.84,-139.95 966.22,-137.08"/>
</a>
</g>
</g>
<!-- Node23&#45;&gt;Node13 -->
<g id="edge66_Node000023_Node000013" class="edge">
<title>Node23&#45;&gt;Node13</title>
<g id="a_edge66_Node000023_Node000013"><a xlink:title=" ">
<path fill="none" stroke="#63b8ff" d="M765.25,-331.69C762.13,-331.08 759.01,-330.5 756,-330 617.42,-307.01 569.3,-353.38 442,-294 392.06,-270.71 349.25,-219.55 329.18,-192.71"/>
<polygon fill="#63b8ff" stroke="#63b8ff" points="331.78,-190.33 323.05,-184.32 326.12,-194.46 331.78,-190.33"/>
</a>
</g>
</g>
<!-- Node23&#45;&gt;Node15 -->
<g id="edge68_Node000023_Node000015" class="edge">
<title>Node23&#45;&gt;Node15</title>
<g id="a_edge68_Node000023_Node000015"><a xlink:title=" ">
<path fill="none" stroke="#63b8ff" d="M765.27,-331.53C762.15,-330.95 759.02,-330.42 756,-330 628.1,-312.2 297.56,-337.58 176,-294 136.75,-279.93 118.96,-276.13 100,-239 85.04,-209.71 88.23,-195.71 100,-165 104.24,-153.94 112.64,-143.91 120.64,-136.18"/>
<polygon fill="#63b8ff" stroke="#63b8ff" points="123.25,-138.55 128.36,-129.27 118.58,-133.33 123.25,-138.55"/>
</a>
</g>
</g>
<!-- Node23&#45;&gt;Node21 -->
<g id="edge71_Node000023_Node000021" class="edge">
<title>Node23&#45;&gt;Node21</title>
<g id="a_edge71_Node000023_Node000021"><a xlink:title=" ">
<path fill="none" stroke="#63b8ff" d="M824.73,-337.72C910.56,-335.11 1157.28,-325.04 1231,-294 1286.27,-270.72 1336.48,-218.33 1359.59,-191.7"/>
<polygon fill="#63b8ff" stroke="#63b8ff" points="1362.31,-193.91 1366.12,-184.03 1356.97,-189.38 1362.31,-193.91"/>
</a>
</g>
</g>
<!-- Node23&#45;&gt;Node22 -->
<g id="edge70_Node000023_Node000022" class="edge">
<title>Node23&#45;&gt;Node22</title>
<g id="a_edge70_Node000023_Node000022"><a xlink:title=" ">
<path fill="none" stroke="#63b8ff" d="M788.89,-329.75C783.72,-322.34 776.15,-311.5 769.81,-302.41"/>
<polygon fill="#63b8ff" stroke="#63b8ff" points="772.59,-300.29 764,-294.09 766.85,-304.29 772.59,-300.29"/>
</a>
</g>
</g>
<!-- Node24 -->
<g id="Node000024" class="node">
<title>Node24</title>
<g id="a_Node000024"><a xlink:href="help__printer__iface_8hpp.html" target="_top" xlink:title=" ">
<polygon fill="white" stroke="#666666" points="1132.5,-294 1007.5,-294 1007.5,-275 1132.5,-275 1132.5,-294"/>
<text text-anchor="middle" x="1070" y="-282" font-family="Helvetica,sans-Serif" font-size="10.00">help_printer_iface.hpp</text>
</a>
</g>
</g>
<!-- Node23&#45;&gt;Node24 -->
<g id="edge64_Node000023_Node000024" class="edge">
<title>Node23&#45;&gt;Node24</title>
<g id="a_edge64_Node000023_Node000024"><a xlink:title=" ">
<path fill="none" stroke="#63b8ff" d="M824.69,-332.78C870.29,-323.99 958.26,-307.03 1015.53,-296"/>
<polygon fill="#63b8ff" stroke="#63b8ff" points="1016.34,-299.41 1025.49,-294.08 1015.01,-292.53 1016.34,-299.41"/>
</a>
</g>
</g>
<!-- Node24&#45;&gt;Node9 -->
<g id="edge65_Node000024_Node000009" class="edge">
<title>Node24&#45;&gt;Node9</title>
<g id="a_edge65_Node000024_Node000009"><a xlink:title=" ">
<path fill="none" stroke="#63b8ff" d="M1072.45,-274.75C1077.81,-253.62 1088.25,-199.07 1064,-165 1047.91,-142.38 1018.28,-131.25 993.82,-125.77"/>
<polygon fill="#63b8ff" stroke="#63b8ff" points="994.2,-122.28 983.71,-123.75 992.83,-129.14 994.2,-122.28"/>
</a>
</g>
</g>
<!-- Node25&#45;&gt;Node1 -->
<g id="edge86_Node000025_Node000001" class="edge">
<title>Node25&#45;&gt;Node1</title>
<g id="a_edge86_Node000025_Node000001"><a xlink:title=" ">
<path fill="none" stroke="#63b8ff" d="M1293.13,-349.09C1294.64,-355.99 1295.09,-365.93 1294.49,-374.66"/>
<polygon fill="#63b8ff" stroke="#63b8ff" points="1291,-374.38 1293.17,-384.75 1297.94,-375.29 1291,-374.38"/>
</a>
</g>
</g>
<!-- Node25&#45;&gt;Node3 -->
<g id="edge84_Node000025_Node000003" class="edge">
<title>Node25&#45;&gt;Node3</title>
<g id="a_edge84_Node000025_Node000003"><a xlink:title=" ">
<path fill="none" stroke="#63b8ff" d="M1302.06,-329.87C1315.14,-321.51 1334.85,-308.06 1350,-294 1398.76,-248.72 1469.57,-215.29 1426,-165 1369.66,-99.97 746.52,-73.09 576.59,-66.93"/>
<polygon fill="#63b8ff" stroke="#63b8ff" points="576.64,-63.43 566.52,-66.57 576.39,-70.43 576.64,-63.43"/>
</a>
</g>
</g>
<!-- Node25&#45;&gt;Node6 -->
<g id="edge76_Node000025_Node000006" class="edge">
<title>Node25&#45;&gt;Node6</title>
<g id="a_edge76_Node000025_Node000006"><a xlink:title=" ">
<path fill="none" stroke="#63b8ff" d="M1335.73,-335.14C1423.13,-326.11 1600,-293.3 1600,-175.5 1600,-175.5 1600,-175.5 1600,-118.5 1600,-67.22 1539.69,-36.03 1500.29,-21.13"/>
<polygon fill="#63b8ff" stroke="#63b8ff" points="1501.37,-17.8 1490.78,-17.69 1498.99,-24.38 1501.37,-17.8"/>
</a>
</g>
</g>
<!-- Node25&#45;&gt;Node9 -->
<g id="edge79_Node000025_Node000009" class="edge">
<title>Node25&#45;&gt;Node9</title>
<g id="a_edge79_Node000025_Node000009"><a xlink:title=" ">
<path fill="none" stroke="#63b8ff" d="M1296.23,-329.8C1321.8,-302.54 1398.95,-218.47 1411,-184 1413.79,-176.03 1416.67,-171.25 1411,-165 1397.04,-149.61 1102.52,-129.76 993.83,-122.93"/>
<polygon fill="#63b8ff" stroke="#63b8ff" points="993.81,-119.42 983.61,-122.29 993.37,-126.41 993.81,-119.42"/>
</a>
</g>
</g>
<!-- Node25&#45;&gt;Node10 -->
<g id="edge77_Node000025_Node000010" class="edge">
<title>Node25&#45;&gt;Node10</title>
<g id="a_edge77_Node000025_Node000010"><a xlink:title=" ">
<path fill="none" stroke="#63b8ff" d="M1335.61,-332.18C1382.11,-325.06 1448.51,-312.08 1467,-294 1508.27,-253.65 1514.13,-212.95 1482,-165 1437.25,-98.21 1338.71,-76.21 1282.14,-69"/>
<polygon fill="#63b8ff" stroke="#63b8ff" points="1282.43,-65.51 1272.09,-67.81 1281.61,-72.46 1282.43,-65.51"/>
</a>
</g>
</g>
<!-- Node25&#45;&gt;Node15 -->
<g id="edge80_Node000025_Node000015" class="edge">
<title>Node25&#45;&gt;Node15</title>
<g id="a_edge80_Node000025_Node000015"><a xlink:title=" ">
<path fill="none" stroke="#63b8ff" d="M1240.33,-337.33C1043.5,-332.4 302.11,-312.65 256,-294 195.03,-269.34 184.23,-243.87 157,-184 150.42,-169.54 145.97,-152.03 143.28,-139.06"/>
<polygon fill="#63b8ff" stroke="#63b8ff" points="146.68,-138.19 141.36,-129.02 139.8,-139.5 146.68,-138.19"/>
</a>
</g>
</g>
<!-- Node25&#45;&gt;Node19 -->
<g id="edge82_Node000025_Node000019" class="edge">
<title>Node25&#45;&gt;Node19</title>
<g id="a_edge82_Node000025_Node000019"><a xlink:title=" ">
<path fill="none" stroke="#63b8ff" d="M1271.61,-329.98C1255.43,-321.57 1230.43,-308.59 1211.62,-298.81"/>
<polygon fill="#63b8ff" stroke="#63b8ff" points="1213.17,-295.68 1202.69,-294.17 1209.95,-301.89 1213.17,-295.68"/>
</a>
</g>
</g>
<!-- Node25&#45;&gt;Node20 -->
<g id="edge81_Node000025_Node000020" class="edge">
<title>Node25&#45;&gt;Node20</title>
<g id="a_edge81_Node000025_Node000020"><a xlink:title=" ">
<path fill="none" stroke="#63b8ff" d="M1281.21,-329.68C1271.09,-316.83 1251.05,-292.58 1231,-275 1218.09,-263.68 1202.21,-252.76 1189.38,-244.57"/>
<polygon fill="#63b8ff" stroke="#63b8ff" points="1191,-241.46 1180.66,-239.13 1187.29,-247.39 1191,-241.46"/>
</a>
</g>
</g>
<!-- Node25&#45;&gt;Node22 -->
<g id="edge83_Node000025_Node000022" class="edge">
<title>Node25&#45;&gt;Node22</title>
<g id="a_edge83_Node000025_Node000022"><a xlink:title=" ">
<path fill="none" stroke="#63b8ff" d="M1240.5,-333.75C1141.75,-323.88 914.9,-301.19 811.32,-290.83"/>
<polygon fill="#63b8ff" stroke="#63b8ff" points="811.4,-287.32 801.1,-289.81 810.7,-294.29 811.4,-287.32"/>
</a>
</g>
</g>
<!-- Node25&#45;&gt;Node24 -->
<g id="edge85_Node000025_Node000024" class="edge">
<title>Node25&#45;&gt;Node24</title>
<g id="a_edge85_Node000025_Node000024"><a xlink:title=" ">
<path fill="none" stroke="#63b8ff" d="M1252.97,-329.98C1215.5,-320.87 1155.95,-306.4 1115.02,-296.45"/>
<polygon fill="#63b8ff" stroke="#63b8ff" points="1115.84,-293.04 1105.3,-294.08 1114.19,-299.85 1115.84,-293.04"/>
</a>
</g>
</g>
<!-- Node26 -->
<g id="Node000026" class="node">
<title>Node26</title>
<g id="a_Node000026"><a xlink:title=" ">
<polygon fill="#e0e0e0" stroke="#999999" points="1457.5,-294 1392.5,-294 1392.5,-275 1457.5,-275 1457.5,-294"/>
<text text-anchor="middle" x="1425" y="-282" font-family="Helvetica,sans-Serif" font-size="10.00">functional</text>
</a>
</g>
</g>
<!-- Node25&#45;&gt;Node26 -->
<g id="edge78_Node000025_Node000026" class="edge">
<title>Node25&#45;&gt;Node26</title>
<g id="a_edge78_Node000025_Node000026"><a xlink:title=" ">
<path fill="none" stroke="#63b8ff" d="M1310.01,-329.98C1332.45,-321.3 1367.48,-307.75 1392.99,-297.88"/>
<polygon fill="#63b8ff" stroke="#63b8ff" points="1394.52,-301.04 1402.59,-294.17 1392,-294.51 1394.52,-301.04"/>
</a>
</g>
</g>
</g>
</svg>
