<?xml version="1.0" encoding="UTF-8" standalone="no"?>
<!DOCTYPE svg PUBLIC "-//W3C//DTD SVG 1.1//EN"
 "http://www.w3.org/Graphics/SVG/1.1/DTD/svg11.dtd">
<!-- Generated by graphviz version 2.38.0 (20140413.2041)
 -->
<!-- Title: command.hpp Pages: 1 -->
<svg width="571pt" height="308pt"
 viewBox="0.00 0.00 570.67 308.00" xmlns="http://www.w3.org/2000/svg" xmlns:xlink="http://www.w3.org/1999/xlink">
<g id="graph0" class="graph" transform="scale(1 1) rotate(0) translate(4 304)">
<title>command.hpp</title>
<!-- Node1 -->
<g id="node1" class="node"><title>Node1</title>
<polygon fill="#bfbfbf" stroke="black" points="227.733,-280.5 227.733,-299.5 305.733,-299.5 305.733,-280.5 227.733,-280.5"/>
<text text-anchor="middle" x="266.733" y="-287.5" font-family="Helvetica,sans-Serif" font-size="10.00">command.hpp</text>
</g>
<!-- Node2 -->
<g id="node2" class="node"><title>Node2</title>
<g id="a_node2"><a xlink:href="group__iface_8hpp.html" target="_top" xlink:title="group_iface.hpp">
<polygon fill="none" stroke="black" points="278.733,-224.5 278.733,-243.5 364.733,-243.5 364.733,-224.5 278.733,-224.5"/>
<text text-anchor="middle" x="321.733" y="-231.5" font-family="Helvetica,sans-Serif" font-size="10.00">group_iface.hpp</text>
</a>
</g>
</g>
<!-- Node1&#45;&gt;Node2 -->
<g id="edge1" class="edge"><title>Node1&#45;&gt;Node2</title>
<path fill="none" stroke="midnightblue" d="M275.815,-280.083C283.905,-272.141 295.929,-260.335 305.643,-250.797"/>
<polygon fill="midnightblue" stroke="midnightblue" points="308.137,-253.254 312.82,-243.751 303.232,-248.26 308.137,-253.254"/>
</g>
<!-- Node4 -->
<g id="node4" class="node"><title>Node4</title>
<g id="a_node4"><a xlink:href="utils_8hpp.html" target="_top" xlink:title="utils.hpp">
<polygon fill="none" stroke="black" points="338.233,-112.5 338.233,-131.5 391.233,-131.5 391.233,-112.5 338.233,-112.5"/>
<text text-anchor="middle" x="364.733" y="-119.5" font-family="Helvetica,sans-Serif" font-size="10.00">utils.hpp</text>
</a>
</g>
</g>
<!-- Node1&#45;&gt;Node4 -->
<g id="edge23" class="edge"><title>Node1&#45;&gt;Node4</title>
<path fill="none" stroke="midnightblue" d="M305.792,-286.631C364.463,-280.724 473.679,-260.088 522.733,-188 527.734,-180.651 528.089,-175.094 522.733,-168 508.158,-148.694 443.53,-135.216 401.578,-128.318"/>
<polygon fill="midnightblue" stroke="midnightblue" points="401.871,-124.821 391.445,-126.707 400.772,-131.734 401.871,-124.821"/>
</g>
<!-- Node6 -->
<g id="node6" class="node"><title>Node6</title>
<g id="a_node6"><a xlink:href="types_8hpp.html" target="_top" xlink:title="types.hpp">
<polygon fill="none" stroke="black" points="96.2332,-56.5 96.2332,-75.5 155.233,-75.5 155.233,-56.5 96.2332,-56.5"/>
<text text-anchor="middle" x="125.733" y="-63.5" font-family="Helvetica,sans-Serif" font-size="10.00">types.hpp</text>
</a>
</g>
</g>
<!-- Node1&#45;&gt;Node6 -->
<g id="edge34" class="edge"><title>Node1&#45;&gt;Node6</title>
<path fill="none" stroke="midnightblue" d="M227.489,-289.773C180.106,-288.869 99.8063,-281.289 43.7332,-244 18.6877,-227.344 14.5673,-216.752 5.73324,-188 -4.4049,-155.004 -1.03698,-137.943 21.7332,-112 38.3892,-93.0234 64.4843,-81.7638 86.3677,-75.2532"/>
<polygon fill="midnightblue" stroke="midnightblue" points="87.3616,-78.61 96.0768,-72.5854 85.5068,-71.8601 87.3616,-78.61"/>
</g>
<!-- Node12 -->
<g id="node12" class="node"><title>Node12</title>
<g id="a_node12"><a xlink:href="enums_8hpp.html" target="_top" xlink:title="enums.hpp">
<polygon fill="none" stroke="black" points="447.233,-112.5 447.233,-131.5 512.233,-131.5 512.233,-112.5 447.233,-112.5"/>
<text text-anchor="middle" x="479.733" y="-119.5" font-family="Helvetica,sans-Serif" font-size="10.00">enums.hpp</text>
</a>
</g>
</g>
<!-- Node1&#45;&gt;Node12 -->
<g id="edge33" class="edge"><title>Node1&#45;&gt;Node12</title>
<path fill="none" stroke="midnightblue" d="M305.84,-288.422C352.341,-286.147 430.919,-277.176 488.733,-244 523.802,-223.876 556.669,-204.236 538.733,-168 532.13,-154.659 519.468,-144.194 507.562,-136.726"/>
<polygon fill="midnightblue" stroke="midnightblue" points="509.125,-133.587 498.717,-131.602 505.615,-139.643 509.125,-133.587"/>
</g>
<!-- Node17 -->
<g id="node17" class="node"><title>Node17</title>
<g id="a_node17"><a xlink:href="context_8hpp.html" target="_top" xlink:title="context.hpp">
<polygon fill="none" stroke="black" points="52.7332,-224.5 52.7332,-243.5 120.733,-243.5 120.733,-224.5 52.7332,-224.5"/>
<text text-anchor="middle" x="86.7332" y="-231.5" font-family="Helvetica,sans-Serif" font-size="10.00">context.hpp</text>
</a>
</g>
</g>
<!-- Node1&#45;&gt;Node17 -->
<g id="edge24" class="edge"><title>Node1&#45;&gt;Node17</title>
<path fill="none" stroke="midnightblue" d="M238.212,-280.444C207.667,-271.28 159.025,-256.688 125.131,-246.519"/>
<polygon fill="midnightblue" stroke="midnightblue" points="125.705,-243.038 115.121,-243.516 123.694,-249.742 125.705,-243.038"/>
</g>
<!-- Node18 -->
<g id="node18" class="node"><title>Node18</title>
<g id="a_node18"><a xlink:href="value__utils_8hpp.html" target="_top" xlink:title="value_utils.hpp">
<polygon fill="none" stroke="black" points="154.733,-168.5 154.733,-187.5 236.733,-187.5 236.733,-168.5 154.733,-168.5"/>
<text text-anchor="middle" x="195.733" y="-175.5" font-family="Helvetica,sans-Serif" font-size="10.00">value_utils.hpp</text>
</a>
</g>
</g>
<!-- Node1&#45;&gt;Node18 -->
<g id="edge28" class="edge"><title>Node1&#45;&gt;Node18</title>
<path fill="none" stroke="midnightblue" d="M261.162,-280.368C249.497,-262.296 222.311,-220.176 206.904,-196.307"/>
<polygon fill="midnightblue" stroke="midnightblue" points="209.642,-194.095 201.279,-187.591 203.761,-197.891 209.642,-194.095"/>
</g>
<!-- Node3 -->
<g id="node3" class="node"><title>Node3</title>
<g id="a_node3"><a xlink:href="arg__iface_8hpp.html" target="_top" xlink:title="arg_iface.hpp">
<polygon fill="none" stroke="black" points="439.233,-168.5 439.233,-187.5 514.233,-187.5 514.233,-168.5 439.233,-168.5"/>
<text text-anchor="middle" x="476.733" y="-175.5" font-family="Helvetica,sans-Serif" font-size="10.00">arg_iface.hpp</text>
</a>
</g>
</g>
<!-- Node2&#45;&gt;Node3 -->
<g id="edge2" class="edge"><title>Node2&#45;&gt;Node3</title>
<path fill="none" stroke="midnightblue" d="M346.293,-224.444C372.256,-215.399 413.401,-201.064 442.53,-190.916"/>
<polygon fill="midnightblue" stroke="midnightblue" points="443.996,-194.112 452.288,-187.516 441.693,-187.501 443.996,-194.112"/>
</g>
<!-- Node2&#45;&gt;Node4 -->
<g id="edge13" class="edge"><title>Node2&#45;&gt;Node4</title>
<path fill="none" stroke="midnightblue" d="M325.107,-224.368C332.109,-206.456 348.345,-164.923 357.717,-140.948"/>
<polygon fill="midnightblue" stroke="midnightblue" points="360.994,-142.179 361.375,-131.591 354.474,-139.631 360.994,-142.179"/>
</g>
<!-- Node2&#45;&gt;Node6 -->
<g id="edge17" class="edge"><title>Node2&#45;&gt;Node6</title>
<path fill="none" stroke="midnightblue" d="M278.431,-229.794C237.791,-225.234 176.435,-214.265 129.733,-188 93.3914,-167.561 57.583,-150.004 74.7332,-112 80.3491,-99.5553 91.2959,-89.1723 101.612,-81.5273"/>
<polygon fill="midnightblue" stroke="midnightblue" points="103.74,-84.3123 109.999,-75.7643 99.7753,-78.5431 103.74,-84.3123"/>
</g>
<!-- Node9 -->
<g id="node9" class="node"><title>Node9</title>
<polygon fill="none" stroke="#bfbfbf" points="399.733,-0.5 399.733,-19.5 443.733,-19.5 443.733,-0.5 399.733,-0.5"/>
<text text-anchor="middle" x="421.733" y="-7.5" font-family="Helvetica,sans-Serif" font-size="10.00">vector</text>
</g>
<!-- Node2&#45;&gt;Node9 -->
<g id="edge18" class="edge"><title>Node2&#45;&gt;Node9</title>
<path fill="none" stroke="midnightblue" d="M365.03,-230.364C422.188,-225.877 518.132,-214.516 539.733,-188 576.916,-142.358 565.107,-102.289 528.733,-56 510.539,-32.8457 478.253,-21.4628 453.891,-15.957"/>
<polygon fill="midnightblue" stroke="midnightblue" points="454.497,-12.5086 443.999,-13.94 453.098,-19.3675 454.497,-12.5086"/>
</g>
<!-- Node10 -->
<g id="node10" class="node"><title>Node10</title>
<polygon fill="none" stroke="#bfbfbf" points="275.733,-56.5 275.733,-75.5 331.733,-75.5 331.733,-56.5 275.733,-56.5"/>
<text text-anchor="middle" x="303.733" y="-63.5" font-family="Helvetica,sans-Serif" font-size="10.00">algorithm</text>
</g>
<!-- Node2&#45;&gt;Node10 -->
<g id="edge20" class="edge"><title>Node2&#45;&gt;Node10</title>
<path fill="none" stroke="midnightblue" d="M320.765,-224.075C317.932,-197.945 309.611,-121.211 305.748,-85.577"/>
<polygon fill="midnightblue" stroke="midnightblue" points="309.22,-85.1325 304.662,-75.5681 302.261,-85.8872 309.22,-85.1325"/>
</g>
<!-- Node11 -->
<g id="node11" class="node"><title>Node11</title>
<polygon fill="none" stroke="#bfbfbf" points="457.733,-56.5 457.733,-75.5 519.733,-75.5 519.733,-56.5 457.733,-56.5"/>
<text text-anchor="middle" x="488.733" y="-63.5" font-family="Helvetica,sans-Serif" font-size="10.00">type_traits</text>
</g>
<!-- Node2&#45;&gt;Node11 -->
<g id="edge19" class="edge"><title>Node2&#45;&gt;Node11</title>
<path fill="none" stroke="midnightblue" d="M364.862,-229.536C417.91,-224.276 503.341,-212.213 522.733,-188 528.663,-180.596 534.364,-152.197 520.733,-112 517.206,-101.599 510.428,-91.4954 504.014,-83.5057"/>
<polygon fill="midnightblue" stroke="midnightblue" points="506.534,-81.0672 497.369,-75.7518 501.218,-85.6224 506.534,-81.0672"/>
</g>
<!-- Node13 -->
<g id="node13" class="node"><title>Node13</title>
<g id="a_node13"><a xlink:href="exceptions_8hpp.html" target="_top" xlink:title="exceptions.hpp">
<polygon fill="none" stroke="black" points="84.2332,-112.5 84.2332,-131.5 167.233,-131.5 167.233,-112.5 84.2332,-112.5"/>
<text text-anchor="middle" x="125.733" y="-119.5" font-family="Helvetica,sans-Serif" font-size="10.00">exceptions.hpp</text>
</a>
</g>
</g>
<!-- Node2&#45;&gt;Node13 -->
<g id="edge14" class="edge"><title>Node2&#45;&gt;Node13</title>
<path fill="none" stroke="midnightblue" d="M278.452,-233.302C238.915,-231.227 181.351,-221.942 145.733,-188 133.189,-176.046 128.454,-156.434 126.698,-141.875"/>
<polygon fill="midnightblue" stroke="midnightblue" points="130.154,-141.199 125.836,-131.524 123.178,-141.78 130.154,-141.199"/>
</g>
<!-- Node15 -->
<g id="node15" class="node"><title>Node15</title>
<polygon fill="none" stroke="#bfbfbf" points="20.7332,-168.5 20.7332,-187.5 60.7332,-187.5 60.7332,-168.5 20.7332,-168.5"/>
<text text-anchor="middle" x="40.7332" y="-175.5" font-family="Helvetica,sans-Serif" font-size="10.00">utility</text>
</g>
<!-- Node2&#45;&gt;Node15 -->
<g id="edge21" class="edge"><title>Node2&#45;&gt;Node15</title>
<path fill="none" stroke="midnightblue" d="M278.691,-226.212C229.243,-218.17 145.778,-203.849 74.7332,-188 73.4594,-187.716 72.1612,-187.416 70.8517,-187.106"/>
<polygon fill="midnightblue" stroke="midnightblue" points="71.3556,-183.624 60.8051,-184.593 69.6567,-190.415 71.3556,-183.624"/>
</g>
<!-- Node16 -->
<g id="node16" class="node"><title>Node16</title>
<polygon fill="none" stroke="#bfbfbf" points="368.733,-168.5 368.733,-187.5 420.733,-187.5 420.733,-168.5 368.733,-168.5"/>
<text text-anchor="middle" x="394.733" y="-175.5" font-family="Helvetica,sans-Serif" font-size="10.00">memory</text>
</g>
<!-- Node2&#45;&gt;Node16 -->
<g id="edge22" class="edge"><title>Node2&#45;&gt;Node16</title>
<path fill="none" stroke="midnightblue" d="M333.462,-224.324C344.571,-216.107 361.475,-203.602 374.717,-193.807"/>
<polygon fill="midnightblue" stroke="midnightblue" points="376.833,-196.595 382.791,-187.834 372.67,-190.967 376.833,-196.595"/>
</g>
<!-- Node3&#45;&gt;Node4 -->
<g id="edge3" class="edge"><title>Node3&#45;&gt;Node4</title>
<path fill="none" stroke="midnightblue" d="M458.738,-168.324C440.696,-159.625 412.686,-146.12 391.931,-136.113"/>
<polygon fill="midnightblue" stroke="midnightblue" points="393.211,-132.845 382.683,-131.655 390.171,-139.15 393.211,-132.845"/>
</g>
<!-- Node3&#45;&gt;Node6 -->
<g id="edge11" class="edge"><title>Node3&#45;&gt;Node6</title>
<path fill="none" stroke="midnightblue" d="M448.323,-168.497C418.499,-159.539 370.264,-144.962 328.733,-132 270.116,-113.705 202.198,-91.8174 161.665,-78.6812"/>
<polygon fill="midnightblue" stroke="midnightblue" points="162.564,-75.2935 151.972,-75.5376 160.405,-81.9521 162.564,-75.2935"/>
</g>
<!-- Node3&#45;&gt;Node12 -->
<g id="edge12" class="edge"><title>Node3&#45;&gt;Node12</title>
<path fill="none" stroke="midnightblue" d="M477.229,-168.083C477.622,-161.006 478.185,-150.861 478.678,-141.986"/>
<polygon fill="midnightblue" stroke="midnightblue" points="482.187,-141.93 479.247,-131.751 475.198,-141.542 482.187,-141.93"/>
</g>
<!-- Node5 -->
<g id="node5" class="node"><title>Node5</title>
<polygon fill="none" stroke="#bfbfbf" points="350.233,-56.5 350.233,-75.5 391.233,-75.5 391.233,-56.5 350.233,-56.5"/>
<text text-anchor="middle" x="370.733" y="-63.5" font-family="Helvetica,sans-Serif" font-size="10.00">regex</text>
</g>
<!-- Node4&#45;&gt;Node5 -->
<g id="edge4" class="edge"><title>Node4&#45;&gt;Node5</title>
<path fill="none" stroke="midnightblue" d="M365.724,-112.083C366.519,-104.927 367.663,-94.6353 368.656,-85.6911"/>
<polygon fill="midnightblue" stroke="midnightblue" points="372.135,-86.0765 369.761,-75.7511 365.178,-85.3034 372.135,-86.0765"/>
</g>
<!-- Node4&#45;&gt;Node6 -->
<g id="edge5" class="edge"><title>Node4&#45;&gt;Node6</title>
<path fill="none" stroke="midnightblue" d="M338.049,-115.135C301.332,-107.042 232.916,-91.8773 165.527,-76.3951"/>
<polygon fill="midnightblue" stroke="midnightblue" points="166.126,-72.9415 155.596,-74.1094 164.556,-79.7632 166.126,-72.9415"/>
</g>
<!-- Node4&#45;&gt;Node10 -->
<g id="edge9" class="edge"><title>Node4&#45;&gt;Node10</title>
<path fill="none" stroke="midnightblue" d="M354.933,-112.324C345.915,-104.341 332.327,-92.3128 321.415,-82.6529"/>
<polygon fill="midnightblue" stroke="midnightblue" points="323.52,-79.8416 313.712,-75.8339 318.88,-85.083 323.52,-79.8416"/>
</g>
<!-- Node4&#45;&gt;Node11 -->
<g id="edge10" class="edge"><title>Node4&#45;&gt;Node11</title>
<path fill="none" stroke="midnightblue" d="M384.381,-112.444C404.698,-103.596 436.636,-89.6875 459.831,-79.5865"/>
<polygon fill="midnightblue" stroke="midnightblue" points="461.406,-82.7181 469.177,-75.5164 458.611,-76.3002 461.406,-82.7181"/>
</g>
<!-- Node7 -->
<g id="node7" class="node"><title>Node7</title>
<polygon fill="none" stroke="#bfbfbf" points="72.2332,-0.5 72.2332,-19.5 113.233,-19.5 113.233,-0.5 72.2332,-0.5"/>
<text text-anchor="middle" x="92.7332" y="-7.5" font-family="Helvetica,sans-Serif" font-size="10.00">string</text>
</g>
<!-- Node6&#45;&gt;Node7 -->
<g id="edge6" class="edge"><title>Node6&#45;&gt;Node7</title>
<path fill="none" stroke="midnightblue" d="M120.284,-56.083C115.719,-48.6127 109.065,-37.7244 103.44,-28.5199"/>
<polygon fill="midnightblue" stroke="midnightblue" points="106.282,-26.4588 98.0811,-19.7511 100.309,-30.109 106.282,-26.4588"/>
</g>
<!-- Node8 -->
<g id="node8" class="node"><title>Node8</title>
<polygon fill="none" stroke="#bfbfbf" points="131.733,-0.5 131.733,-19.5 185.733,-19.5 185.733,-0.5 131.733,-0.5"/>
<text text-anchor="middle" x="158.733" y="-7.5" font-family="Helvetica,sans-Serif" font-size="10.00">iostream</text>
</g>
<!-- Node6&#45;&gt;Node8 -->
<g id="edge7" class="edge"><title>Node6&#45;&gt;Node8</title>
<path fill="none" stroke="midnightblue" d="M131.183,-56.083C135.748,-48.6127 142.402,-37.7244 148.027,-28.5199"/>
<polygon fill="midnightblue" stroke="midnightblue" points="151.157,-30.109 153.385,-19.7511 145.184,-26.4588 151.157,-30.109"/>
</g>
<!-- Node6&#45;&gt;Node9 -->
<g id="edge8" class="edge"><title>Node6&#45;&gt;Node9</title>
<path fill="none" stroke="midnightblue" d="M155.567,-57.7561C158.323,-57.1406 161.077,-56.5457 163.733,-56 244.645,-39.3776 340.648,-23.6853 389.576,-15.9741"/>
<polygon fill="midnightblue" stroke="midnightblue" points="390.224,-19.4152 399.561,-14.4083 389.14,-12.4997 390.224,-19.4152"/>
</g>
<!-- Node13&#45;&gt;Node6 -->
<g id="edge16" class="edge"><title>Node13&#45;&gt;Node6</title>
<path fill="none" stroke="midnightblue" d="M125.733,-112.083C125.733,-105.006 125.733,-94.8611 125.733,-85.9865"/>
<polygon fill="midnightblue" stroke="midnightblue" points="129.233,-85.751 125.733,-75.7511 122.233,-85.7511 129.233,-85.751"/>
</g>
<!-- Node14 -->
<g id="node14" class="node"><title>Node14</title>
<polygon fill="none" stroke="#bfbfbf" points="173.233,-56.5 173.233,-75.5 232.233,-75.5 232.233,-56.5 173.233,-56.5"/>
<text text-anchor="middle" x="202.733" y="-63.5" font-family="Helvetica,sans-Serif" font-size="10.00">stdexcept</text>
</g>
<!-- Node13&#45;&gt;Node14 -->
<g id="edge15" class="edge"><title>Node13&#45;&gt;Node14</title>
<path fill="none" stroke="midnightblue" d="M138.105,-112.324C149.892,-104.058 167.866,-91.4527 181.869,-81.6322"/>
<polygon fill="midnightblue" stroke="midnightblue" points="184.215,-84.2619 190.393,-75.6545 180.196,-78.5307 184.215,-84.2619"/>
</g>
<!-- Node17&#45;&gt;Node4 -->
<g id="edge26" class="edge"><title>Node17&#45;&gt;Node4</title>
<path fill="none" stroke="midnightblue" d="M120.971,-225.659C153.683,-218.101 204.038,-205.035 245.733,-188 280.975,-173.601 319.18,-151.455 342.54,-137.096"/>
<polygon fill="midnightblue" stroke="midnightblue" points="344.661,-139.899 351.304,-131.645 340.964,-133.955 344.661,-139.899"/>
</g>
<!-- Node17&#45;&gt;Node6 -->
<g id="edge27" class="edge"><title>Node17&#45;&gt;Node6</title>
<path fill="none" stroke="midnightblue" d="M59.4513,-224.453C42.4392,-217.548 21.9081,-205.971 11.7332,-188 7.35369,-180.265 9.56938,-176.621 11.7332,-168 18.6067,-140.614 21.7678,-131.965 41.7332,-112 55.8153,-97.918 75.2267,-87.1295 91.8421,-79.6508"/>
<polygon fill="midnightblue" stroke="midnightblue" points="93.4231,-82.7813 101.24,-75.63 90.6697,-76.3455 93.4231,-82.7813"/>
</g>
<!-- Node17&#45;&gt;Node15 -->
<g id="edge25" class="edge"><title>Node17&#45;&gt;Node15</title>
<path fill="none" stroke="midnightblue" d="M79.1373,-224.083C72.5057,-216.298 62.7123,-204.801 54.6751,-195.367"/>
<polygon fill="midnightblue" stroke="midnightblue" points="57.3369,-193.094 48.1879,-187.751 52.0082,-197.633 57.3369,-193.094"/>
</g>
<!-- Node18&#45;&gt;Node4 -->
<g id="edge29" class="edge"><title>Node18&#45;&gt;Node4</title>
<path fill="none" stroke="midnightblue" d="M222.512,-168.444C251.066,-159.32 296.466,-144.813 328.27,-134.651"/>
<polygon fill="midnightblue" stroke="midnightblue" points="329.62,-137.894 338.08,-131.516 327.489,-131.226 329.62,-137.894"/>
</g>
<!-- Node18&#45;&gt;Node6 -->
<g id="edge31" class="edge"><title>Node18&#45;&gt;Node6</title>
<path fill="none" stroke="midnightblue" d="M194.585,-168.386C192.527,-155.324 187.297,-130.112 175.733,-112 168.172,-100.157 156.674,-89.5069 146.61,-81.5437"/>
<polygon fill="midnightblue" stroke="midnightblue" points="148.705,-78.7398 138.611,-75.5194 144.494,-84.3313 148.705,-78.7398"/>
</g>
<!-- Node18&#45;&gt;Node10 -->
<g id="edge32" class="edge"><title>Node18&#45;&gt;Node10</title>
<path fill="none" stroke="midnightblue" d="M204.208,-168.368C222.346,-149.894 265.155,-106.293 288.276,-82.7436"/>
<polygon fill="midnightblue" stroke="midnightblue" points="290.79,-85.1792 295.298,-75.5914 285.795,-80.275 290.79,-85.1792"/>
</g>
<!-- Node18&#45;&gt;Node13 -->
<g id="edge30" class="edge"><title>Node18&#45;&gt;Node13</title>
<path fill="none" stroke="midnightblue" d="M184.487,-168.324C173.936,-160.185 157.933,-147.839 145.291,-138.087"/>
<polygon fill="midnightblue" stroke="midnightblue" points="147.24,-135.171 137.185,-131.834 142.965,-140.713 147.24,-135.171"/>
</g>
</g>
</svg>
