<?xml version="1.0" encoding="UTF-8" standalone="no"?>
<!DOCTYPE svg PUBLIC "-//W3C//DTD SVG 1.1//EN"
 "http://www.w3.org/Graphics/SVG/1.1/DTD/svg11.dtd">
<!-- Generated by graphviz version 2.38.0 (20140413.2041)
 -->
<!-- Title: command.hpp Pages: 1 -->
<svg width="204pt" height="252pt"
 viewBox="0.00 0.00 203.50 252.00" xmlns="http://www.w3.org/2000/svg" xmlns:xlink="http://www.w3.org/1999/xlink">
<g id="graph0" class="graph" transform="scale(1 1) rotate(0) translate(4 248)">
<title>command.hpp</title>
<!-- Node1 -->
<g id="node1" class="node"><title>Node1</title>
<polygon fill="#bfbfbf" stroke="black" points="78.5,-224.5 78.5,-243.5 155.5,-243.5 155.5,-224.5 78.5,-224.5"/>
<text text-anchor="middle" x="117" y="-231.5" font-family="FreeSans" font-size="10.00">command.hpp</text>
</g>
<!-- Node2 -->
<g id="node2" class="node"><title>Node2</title>
<g id="a_node2"><a xlink:href="cmd__line_8hpp.html" target="_top" xlink:title="cmd_line.hpp">
<polygon fill="none" stroke="black" points="80,-112.5 80,-131.5 154,-131.5 154,-112.5 80,-112.5"/>
<text text-anchor="middle" x="117" y="-119.5" font-family="FreeSans" font-size="10.00">cmd_line.hpp</text>
</a>
</g>
</g>
<!-- Node1&#45;&gt;Node2 -->
<g id="edge1" class="edge"><title>Node1&#45;&gt;Node2</title>
<path fill="none" stroke="midnightblue" d="M108.468,-215.059C103.312,-202.086 98.2255,-184.085 101,-168 103.255,-154.926 108.941,-140.617 112.889,-131.723"/>
<polygon fill="midnightblue" stroke="midnightblue" points="105.269,-216.48 112.47,-224.252 111.688,-213.686 105.269,-216.48"/>
</g>
<!-- Node6 -->
<g id="node6" class="node"><title>Node6</title>
<g id="a_node6"><a xlink:href="help__printer_8hpp.html" target="_top" xlink:title="help_printer.hpp">
<polygon fill="none" stroke="black" points="110.5,-168.5 110.5,-187.5 195.5,-187.5 195.5,-168.5 110.5,-168.5"/>
<text text-anchor="middle" x="153" y="-175.5" font-family="FreeSans" font-size="10.00">help_printer.hpp</text>
</a>
</g>
</g>
<!-- Node1&#45;&gt;Node6 -->
<g id="edge6" class="edge"><title>Node1&#45;&gt;Node6</title>
<path fill="none" stroke="midnightblue" d="M128.623,-215.566C134.817,-206.275 142.168,-195.248 147.166,-187.751"/>
<polygon fill="midnightblue" stroke="midnightblue" points="125.58,-213.821 122.945,-224.083 131.404,-217.704 125.58,-213.821"/>
</g>
<!-- Node3 -->
<g id="node3" class="node"><title>Node3</title>
<g id="a_node3"><a xlink:href="all_8hpp.html" target="_top" xlink:title="all.hpp">
<polygon fill="none" stroke="black" points="0,-56.5 0,-75.5 44,-75.5 44,-56.5 0,-56.5"/>
<text text-anchor="middle" x="22" y="-63.5" font-family="FreeSans" font-size="10.00">all.hpp</text>
</a>
</g>
</g>
<!-- Node2&#45;&gt;Node3 -->
<g id="edge2" class="edge"><title>Node2&#45;&gt;Node3</title>
<path fill="none" stroke="midnightblue" d="M92.6824,-107.177C75.2012,-97.2407 52.1699,-84.1492 37.2255,-75.6545"/>
<polygon fill="midnightblue" stroke="midnightblue" points="91.3133,-110.425 101.737,-112.324 94.7725,-104.339 91.3133,-110.425"/>
</g>
<!-- Node4 -->
<g id="node4" class="node"><title>Node4</title>
<g id="a_node4"><a xlink:href="arg__as__command_8hpp.html" target="_top" xlink:title="arg_as_command.hpp">
<polygon fill="none" stroke="black" points="61.5,-56.5 61.5,-75.5 172.5,-75.5 172.5,-56.5 61.5,-56.5"/>
<text text-anchor="middle" x="117" y="-63.5" font-family="FreeSans" font-size="10.00">arg_as_command.hpp</text>
</a>
</g>
</g>
<!-- Node2&#45;&gt;Node4 -->
<g id="edge3" class="edge"><title>Node2&#45;&gt;Node4</title>
<path fill="none" stroke="midnightblue" d="M117,-101.805C117,-92.9102 117,-82.7798 117,-75.7511"/>
<polygon fill="midnightblue" stroke="midnightblue" points="113.5,-102.083 117,-112.083 120.5,-102.083 113.5,-102.083"/>
</g>
<!-- Node5 -->
<g id="node5" class="node"><title>Node5</title>
<g id="a_node5"><a xlink:href="api_8hpp.html" target="_top" xlink:title="api.hpp">
<polygon fill="none" stroke="black" points="135.5,-0.5 135.5,-19.5 182.5,-19.5 182.5,-0.5 135.5,-0.5"/>
<text text-anchor="middle" x="159" y="-7.5" font-family="FreeSans" font-size="10.00">api.hpp</text>
</a>
</g>
</g>
<!-- Node4&#45;&gt;Node5 -->
<g id="edge4" class="edge"><title>Node4&#45;&gt;Node5</title>
<path fill="none" stroke="midnightblue" d="M130.11,-48.144C137.428,-38.7357 146.241,-27.4046 152.194,-19.7511"/>
<polygon fill="midnightblue" stroke="midnightblue" points="127.312,-46.0406 123.935,-56.083 132.838,-50.3383 127.312,-46.0406"/>
</g>
<!-- Node5&#45;&gt;Node2 -->
<g id="edge5" class="edge"><title>Node5&#45;&gt;Node2</title>
<path fill="none" stroke="midnightblue" d="M172.091,-28.0706C180.705,-41.5278 189.03,-60.5372 181,-76 172.111,-93.117 153.392,-105.09 138.483,-112.36"/>
<polygon fill="midnightblue" stroke="midnightblue" points="174.876,-25.9451 166.279,-19.7529 169.138,-29.9547 174.876,-25.9451"/>
</g>
<!-- Node6&#45;&gt;Node2 -->
<g id="edge7" class="edge"><title>Node6&#45;&gt;Node2</title>
<path fill="none" stroke="midnightblue" d="M141.377,-159.566C135.183,-150.275 127.832,-139.248 122.834,-131.751"/>
<polygon fill="midnightblue" stroke="midnightblue" points="138.596,-161.704 147.055,-168.083 144.42,-157.821 138.596,-161.704"/>
</g>
</g>
</svg>
