<?xml version="1.0" encoding="UTF-8" standalone="no"?>
<!DOCTYPE svg PUBLIC "-//W3C//DTD SVG 1.1//EN"
 "http://www.w3.org/Graphics/SVG/1.1/DTD/svg11.dtd">
<!-- Generated by graphviz version 2.43.0 (0)
 -->
<!-- Title: command.hpp Pages: 1 -->
<svg width="1186pt" height="420pt"
 viewBox="0.00 0.00 1186.00 420.00" xmlns="http://www.w3.org/2000/svg" xmlns:xlink="http://www.w3.org/1999/xlink">
<g id="graph0" class="graph" transform="scale(1 1) rotate(0) translate(4 416)">
<title>command.hpp</title>
<!-- Node1 -->
<g id="node1" class="node">
<title>Node1</title>
<g id="a_node1"><a xlink:title=" ">
<polygon fill="#bfbfbf" stroke="black" points="558,-392.5 558,-411.5 644,-411.5 644,-392.5 558,-392.5"/>
<text text-anchor="middle" x="601" y="-399.5" font-family="Helvetica,sans-Serif" font-size="10.00">command.hpp</text>
</a>
</g>
</g>
<!-- Node2 -->
<g id="node2" class="node">
<title>Node2</title>
<g id="a_node2"><a xlink:href="api_8hpp.html" target="_top" xlink:title=" ">
<polygon fill="none" stroke="black" points="500.5,-336.5 500.5,-355.5 553.5,-355.5 553.5,-336.5 500.5,-336.5"/>
<text text-anchor="middle" x="527" y="-343.5" font-family="Helvetica,sans-Serif" font-size="10.00">api.hpp</text>
</a>
</g>
</g>
<!-- Node1&#45;&gt;Node2 -->
<g id="edge1" class="edge">
<title>Node1&#45;&gt;Node2</title>
<path fill="none" stroke="midnightblue" d="M584,-392.32C571.2,-384.26 554.16,-372.08 541.9,-362.37"/>
<polygon fill="midnightblue" stroke="midnightblue" points="543.9,-359.48 533.96,-355.83 539.46,-364.89 543.9,-359.48"/>
</g>
<!-- Node3 -->
<g id="node3" class="node">
<title>Node3</title>
<g id="a_node3"><a xlink:href="types_8hpp.html" target="_top" xlink:title=" ">
<polygon fill="none" stroke="black" points="434.5,-56.5 434.5,-75.5 499.5,-75.5 499.5,-56.5 434.5,-56.5"/>
<text text-anchor="middle" x="467" y="-63.5" font-family="Helvetica,sans-Serif" font-size="10.00">types.hpp</text>
</a>
</g>
</g>
<!-- Node1&#45;&gt;Node3 -->
<g id="edge57" class="edge">
<title>Node1&#45;&gt;Node3</title>
<path fill="none" stroke="midnightblue" d="M557.78,-397.67C419.97,-386.49 0,-347.75 0,-291 0,-291 0,-291 0,-177 0,-123.62 50.8,-130.16 101,-112 130.86,-101.2 334.26,-80.11 424.28,-71.17"/>
<polygon fill="midnightblue" stroke="midnightblue" points="424.82,-74.63 434.42,-70.17 424.13,-67.67 424.82,-74.63"/>
</g>
<!-- Node9 -->
<g id="node9" class="node">
<title>Node9</title>
<g id="a_node9"><a xlink:href="utils_8hpp.html" target="_top" xlink:title=" ">
<polygon fill="none" stroke="black" points="759.5,-112.5 759.5,-131.5 818.5,-131.5 818.5,-112.5 759.5,-112.5"/>
<text text-anchor="middle" x="789" y="-119.5" font-family="Helvetica,sans-Serif" font-size="10.00">utils.hpp</text>
</a>
</g>
</g>
<!-- Node1&#45;&gt;Node9 -->
<g id="edge53" class="edge">
<title>Node1&#45;&gt;Node9</title>
<path fill="none" stroke="midnightblue" d="M644.15,-400.67C765.67,-398.59 1102,-384.39 1102,-291 1102,-291 1102,-291 1102,-233 1102,-175.7 912.96,-141.03 828.7,-128.42"/>
<polygon fill="midnightblue" stroke="midnightblue" points="829.13,-124.94 818.73,-126.95 828.11,-131.87 829.13,-124.94"/>
</g>
<!-- Node13 -->
<g id="node13" class="node">
<title>Node13</title>
<g id="a_node13"><a xlink:href="enums_8hpp.html" target="_top" xlink:title=" ">
<polygon fill="none" stroke="black" points="926.5,-112.5 926.5,-131.5 997.5,-131.5 997.5,-112.5 926.5,-112.5"/>
<text text-anchor="middle" x="962" y="-119.5" font-family="Helvetica,sans-Serif" font-size="10.00">enums.hpp</text>
</a>
</g>
</g>
<!-- Node1&#45;&gt;Node13 -->
<g id="edge56" class="edge">
<title>Node1&#45;&gt;Node13</title>
<path fill="none" stroke="midnightblue" d="M644.27,-399.05C743.48,-394.21 984.7,-380.25 1062,-356 1118.39,-338.31 1178,-350.1 1178,-291 1178,-291 1178,-291 1178,-233 1178,-157.26 1071.24,-133.65 1007.83,-126.3"/>
<polygon fill="midnightblue" stroke="midnightblue" points="1007.98,-122.8 997.67,-125.22 1007.24,-129.76 1007.98,-122.8"/>
</g>
<!-- Node14 -->
<g id="node14" class="node">
<title>Node14</title>
<g id="a_node14"><a xlink:href="context_8hpp.html" target="_top" xlink:title=" ">
<polygon fill="none" stroke="black" points="142,-168.5 142,-187.5 216,-187.5 216,-168.5 142,-168.5"/>
<text text-anchor="middle" x="179" y="-175.5" font-family="Helvetica,sans-Serif" font-size="10.00">context.hpp</text>
</a>
</g>
</g>
<!-- Node1&#45;&gt;Node14 -->
<g id="edge54" class="edge">
<title>Node1&#45;&gt;Node14</title>
<path fill="none" stroke="midnightblue" d="M564.46,-392.49C505.23,-377.95 385.35,-345.43 291,-300 250.24,-280.37 234.83,-278.86 206,-244 194.82,-230.48 187.68,-211.67 183.58,-197.76"/>
<polygon fill="midnightblue" stroke="midnightblue" points="186.89,-196.61 180.91,-187.86 180.13,-198.42 186.89,-196.61"/>
</g>
<!-- Node18 -->
<g id="node18" class="node">
<title>Node18</title>
<g id="a_node18"><a xlink:href="value__utils_8hpp.html" target="_top" xlink:title=" ">
<polygon fill="none" stroke="black" points="500.5,-168.5 500.5,-187.5 591.5,-187.5 591.5,-168.5 500.5,-168.5"/>
<text text-anchor="middle" x="546" y="-175.5" font-family="Helvetica,sans-Serif" font-size="10.00">value_utils.hpp</text>
</a>
</g>
</g>
<!-- Node1&#45;&gt;Node18 -->
<g id="edge55" class="edge">
<title>Node1&#45;&gt;Node18</title>
<path fill="none" stroke="midnightblue" d="M598.84,-392.3C590.73,-359.56 561.95,-243.38 550.62,-197.67"/>
<polygon fill="midnightblue" stroke="midnightblue" points="554,-196.75 548.2,-187.88 547.21,-198.43 554,-196.75"/>
</g>
<!-- Node21 -->
<g id="node21" class="node">
<title>Node21</title>
<g id="a_node21"><a xlink:href="group__iface_8hpp.html" target="_top" xlink:title=" ">
<polygon fill="none" stroke="black" points="788.5,-224.5 788.5,-243.5 883.5,-243.5 883.5,-224.5 788.5,-224.5"/>
<text text-anchor="middle" x="836" y="-231.5" font-family="Helvetica,sans-Serif" font-size="10.00">group_iface.hpp</text>
</a>
</g>
</g>
<!-- Node1&#45;&gt;Node21 -->
<g id="edge52" class="edge">
<title>Node1&#45;&gt;Node21</title>
<path fill="none" stroke="midnightblue" d="M614.43,-392.35C640.89,-375.21 701.53,-335.52 751,-300 774.13,-283.39 800.03,-263.37 817.1,-249.97"/>
<polygon fill="midnightblue" stroke="midnightblue" points="819.47,-252.57 825.16,-243.63 815.13,-247.07 819.47,-252.57"/>
</g>
<!-- Node2&#45;&gt;Node1 -->
<g id="edge51" class="edge">
<title>Node2&#45;&gt;Node1</title>
<path fill="none" stroke="midnightblue" d="M543.97,-355.65C556.83,-363.76 574.01,-376.04 586.28,-385.78"/>
<polygon fill="midnightblue" stroke="midnightblue" points="584.28,-388.66 594.23,-392.32 588.73,-383.26 584.28,-388.66"/>
</g>
<!-- Node2&#45;&gt;Node3 -->
<g id="edge2" class="edge">
<title>Node2&#45;&gt;Node3</title>
<path fill="none" stroke="midnightblue" d="M500.47,-341.4C403.8,-327.92 76,-278.97 76,-235 76,-235 76,-235 76,-177 76,-132.55 111.5,-130.31 152,-112 176.33,-101 343.55,-80.95 423.97,-71.79"/>
<polygon fill="midnightblue" stroke="midnightblue" points="424.72,-75.23 434.26,-70.63 423.93,-68.28 424.72,-75.23"/>
</g>
<!-- Node7 -->
<g id="node7" class="node">
<title>Node7</title>
<g id="a_node7"><a xlink:href="arg_8hpp.html" target="_top" xlink:title=" ">
<polygon fill="none" stroke="black" points="445.5,-224.5 445.5,-243.5 498.5,-243.5 498.5,-224.5 445.5,-224.5"/>
<text text-anchor="middle" x="472" y="-231.5" font-family="Helvetica,sans-Serif" font-size="10.00">arg.hpp</text>
</a>
</g>
</g>
<!-- Node2&#45;&gt;Node7 -->
<g id="edge6" class="edge">
<title>Node2&#45;&gt;Node7</title>
<path fill="none" stroke="midnightblue" d="M522.68,-336.37C513.69,-318.38 492.78,-276.55 480.81,-252.63"/>
<polygon fill="midnightblue" stroke="midnightblue" points="483.9,-250.97 476.3,-243.59 477.64,-254.1 483.9,-250.97"/>
</g>
<!-- Node19 -->
<g id="node19" class="node">
<title>Node19</title>
<g id="a_node19"><a xlink:href="multi__arg_8hpp.html" target="_top" xlink:title=" ">
<polygon fill="none" stroke="black" points="300,-280.5 300,-299.5 384,-299.5 384,-280.5 300,-280.5"/>
<text text-anchor="middle" x="342" y="-287.5" font-family="Helvetica,sans-Serif" font-size="10.00">multi_arg.hpp</text>
</a>
</g>
</g>
<!-- Node2&#45;&gt;Node19 -->
<g id="edge30" class="edge">
<title>Node2&#45;&gt;Node19</title>
<path fill="none" stroke="midnightblue" d="M500.49,-337.26C469.17,-328.12 416.78,-312.83 380.86,-302.34"/>
<polygon fill="midnightblue" stroke="midnightblue" points="381.78,-298.97 371.2,-299.52 379.82,-305.69 381.78,-298.97"/>
</g>
<!-- Node20 -->
<g id="node20" class="node">
<title>Node20</title>
<g id="a_node20"><a xlink:href="groups_8hpp.html" target="_top" xlink:title=" ">
<polygon fill="none" stroke="black" points="670.5,-280.5 670.5,-299.5 741.5,-299.5 741.5,-280.5 670.5,-280.5"/>
<text text-anchor="middle" x="706" y="-287.5" font-family="Helvetica,sans-Serif" font-size="10.00">groups.hpp</text>
</a>
</g>
</g>
<!-- Node2&#45;&gt;Node20 -->
<g id="edge38" class="edge">
<title>Node2&#45;&gt;Node20</title>
<path fill="none" stroke="midnightblue" d="M553.8,-336.92C584.07,-327.78 633.57,-312.85 667.86,-302.51"/>
<polygon fill="midnightblue" stroke="midnightblue" points="668.97,-305.83 677.54,-299.59 666.95,-299.12 668.97,-305.83"/>
</g>
<!-- Node4 -->
<g id="node4" class="node">
<title>Node4</title>
<g id="a_node4"><a xlink:title=" ">
<polygon fill="none" stroke="#bfbfbf" points="480,-0.5 480,-19.5 524,-19.5 524,-0.5 480,-0.5"/>
<text text-anchor="middle" x="502" y="-7.5" font-family="Helvetica,sans-Serif" font-size="10.00">string</text>
</a>
</g>
</g>
<!-- Node3&#45;&gt;Node4 -->
<g id="edge3" class="edge">
<title>Node3&#45;&gt;Node4</title>
<path fill="none" stroke="midnightblue" d="M472.78,-56.08C477.67,-48.53 484.83,-37.49 490.83,-28.23"/>
<polygon fill="midnightblue" stroke="midnightblue" points="493.83,-30.05 496.33,-19.75 487.95,-26.24 493.83,-30.05"/>
</g>
<!-- Node5 -->
<g id="node5" class="node">
<title>Node5</title>
<g id="a_node5"><a xlink:title=" ">
<polygon fill="none" stroke="#bfbfbf" points="402,-0.5 402,-19.5 462,-19.5 462,-0.5 402,-0.5"/>
<text text-anchor="middle" x="432" y="-7.5" font-family="Helvetica,sans-Serif" font-size="10.00">iostream</text>
</a>
</g>
</g>
<!-- Node3&#45;&gt;Node5 -->
<g id="edge4" class="edge">
<title>Node3&#45;&gt;Node5</title>
<path fill="none" stroke="midnightblue" d="M461.22,-56.08C456.33,-48.53 449.17,-37.49 443.17,-28.23"/>
<polygon fill="midnightblue" stroke="midnightblue" points="446.05,-26.24 437.67,-19.75 440.17,-30.05 446.05,-26.24"/>
</g>
<!-- Node6 -->
<g id="node6" class="node">
<title>Node6</title>
<g id="a_node6"><a xlink:title=" ">
<polygon fill="none" stroke="#bfbfbf" points="816.5,-0.5 816.5,-19.5 863.5,-19.5 863.5,-0.5 816.5,-0.5"/>
<text text-anchor="middle" x="840" y="-7.5" font-family="Helvetica,sans-Serif" font-size="10.00">vector</text>
</a>
</g>
</g>
<!-- Node3&#45;&gt;Node6 -->
<g id="edge5" class="edge">
<title>Node3&#45;&gt;Node6</title>
<path fill="none" stroke="midnightblue" d="M499.77,-60.26C570.12,-50.07 734.94,-26.21 806.19,-15.89"/>
<polygon fill="midnightblue" stroke="midnightblue" points="807.01,-19.31 816.4,-14.42 806,-12.39 807.01,-19.31"/>
</g>
<!-- Node7&#45;&gt;Node3 -->
<g id="edge28" class="edge">
<title>Node7&#45;&gt;Node3</title>
<path fill="none" stroke="midnightblue" d="M468.4,-224.22C464.94,-215.28 459.97,-200.94 458,-188 452.93,-154.61 454.67,-145.61 458,-112 458.87,-103.17 460.69,-93.51 462.47,-85.4"/>
<polygon fill="midnightblue" stroke="midnightblue" points="465.9,-86.08 464.77,-75.55 459.08,-84.49 465.9,-86.08"/>
</g>
<!-- Node8 -->
<g id="node8" class="node">
<title>Node8</title>
<g id="a_node8"><a xlink:href="arg__iface_8hpp.html" target="_top" xlink:title=" ">
<polygon fill="none" stroke="black" points="686.5,-168.5 686.5,-187.5 769.5,-187.5 769.5,-168.5 686.5,-168.5"/>
<text text-anchor="middle" x="728" y="-175.5" font-family="Helvetica,sans-Serif" font-size="10.00">arg_iface.hpp</text>
</a>
</g>
</g>
<!-- Node7&#45;&gt;Node8 -->
<g id="edge7" class="edge">
<title>Node7&#45;&gt;Node8</title>
<path fill="none" stroke="midnightblue" d="M498.91,-227.32C541.24,-218.39 624.07,-200.92 677.67,-189.62"/>
<polygon fill="midnightblue" stroke="midnightblue" points="678.59,-193 687.66,-187.51 677.15,-186.15 678.59,-193"/>
</g>
<!-- Node7&#45;&gt;Node9 -->
<g id="edge15" class="edge">
<title>Node7&#45;&gt;Node9</title>
<path fill="none" stroke="midnightblue" d="M496.61,-224.46C552.67,-205.01 689.99,-157.36 754.49,-134.98"/>
<polygon fill="midnightblue" stroke="midnightblue" points="755.89,-138.2 764.19,-131.61 753.59,-131.58 755.89,-138.2"/>
</g>
<!-- Node11 -->
<g id="node11" class="node">
<title>Node11</title>
<g id="a_node11"><a xlink:title=" ">
<polygon fill="none" stroke="#bfbfbf" points="721,-56.5 721,-75.5 785,-75.5 785,-56.5 721,-56.5"/>
<text text-anchor="middle" x="753" y="-63.5" font-family="Helvetica,sans-Serif" font-size="10.00">algorithm</text>
</a>
</g>
</g>
<!-- Node7&#45;&gt;Node11 -->
<g id="edge29" class="edge">
<title>Node7&#45;&gt;Node11</title>
<path fill="none" stroke="midnightblue" d="M472.39,-224.29C473.46,-210.63 477.4,-184.09 492,-168 549.93,-104.14 652.96,-80.28 710.73,-71.65"/>
<polygon fill="midnightblue" stroke="midnightblue" points="711.55,-75.07 720.97,-70.21 710.58,-68.14 711.55,-75.07"/>
</g>
<!-- Node7&#45;&gt;Node14 -->
<g id="edge16" class="edge">
<title>Node7&#45;&gt;Node14</title>
<path fill="none" stroke="midnightblue" d="M445.48,-228.11C395.84,-218.96 288.3,-199.14 226.08,-187.68"/>
<polygon fill="midnightblue" stroke="midnightblue" points="226.59,-184.21 216.12,-185.84 225.32,-191.1 226.59,-184.21"/>
</g>
<!-- Node16 -->
<g id="node16" class="node">
<title>Node16</title>
<g id="a_node16"><a xlink:href="exceptions_8hpp.html" target="_top" xlink:title=" ">
<polygon fill="none" stroke="black" points="276.5,-112.5 276.5,-131.5 367.5,-131.5 367.5,-112.5 276.5,-112.5"/>
<text text-anchor="middle" x="322" y="-119.5" font-family="Helvetica,sans-Serif" font-size="10.00">exceptions.hpp</text>
</a>
</g>
</g>
<!-- Node7&#45;&gt;Node16 -->
<g id="edge20" class="edge">
<title>Node7&#45;&gt;Node16</title>
<path fill="none" stroke="midnightblue" d="M445.33,-230.46C416.6,-226.35 371.32,-215.64 344,-188 331.84,-175.7 326.4,-156.44 323.96,-142.08"/>
<polygon fill="midnightblue" stroke="midnightblue" points="327.39,-141.28 322.59,-131.83 320.45,-142.21 327.39,-141.28"/>
</g>
<!-- Node7&#45;&gt;Node18 -->
<g id="edge23" class="edge">
<title>Node7&#45;&gt;Node18</title>
<path fill="none" stroke="midnightblue" d="M483.89,-224.32C495.15,-216.11 512.29,-203.6 525.71,-193.81"/>
<polygon fill="midnightblue" stroke="midnightblue" points="527.88,-196.56 533.89,-187.83 523.75,-190.9 527.88,-196.56"/>
</g>
<!-- Node8&#45;&gt;Node3 -->
<g id="edge13" class="edge">
<title>Node8&#45;&gt;Node3</title>
<path fill="none" stroke="midnightblue" d="M722.68,-168.27C713.55,-154.1 693.51,-126.24 669,-112 619.21,-83.06 552.58,-72.72 509.72,-69.03"/>
<polygon fill="midnightblue" stroke="midnightblue" points="509.86,-65.53 499.62,-68.25 509.32,-72.51 509.86,-65.53"/>
</g>
<!-- Node8&#45;&gt;Node9 -->
<g id="edge8" class="edge">
<title>Node8&#45;&gt;Node9</title>
<path fill="none" stroke="midnightblue" d="M737.8,-168.32C746.82,-160.34 760.41,-148.31 771.32,-138.65"/>
<polygon fill="midnightblue" stroke="midnightblue" points="773.85,-141.08 779.02,-131.83 769.21,-135.84 773.85,-141.08"/>
</g>
<!-- Node8&#45;&gt;Node13 -->
<g id="edge14" class="edge">
<title>Node8&#45;&gt;Node13</title>
<path fill="none" stroke="midnightblue" d="M765.08,-168.44C806.09,-158.98 872.19,-143.73 916.35,-133.54"/>
<polygon fill="midnightblue" stroke="midnightblue" points="917.29,-136.91 926.25,-131.25 915.72,-130.09 917.29,-136.91"/>
</g>
<!-- Node9&#45;&gt;Node3 -->
<g id="edge10" class="edge">
<title>Node9&#45;&gt;Node3</title>
<path fill="none" stroke="midnightblue" d="M759.21,-114.73C754.46,-113.78 749.6,-112.84 745,-112 661.87,-96.78 564.25,-81.59 509.62,-73.34"/>
<polygon fill="midnightblue" stroke="midnightblue" points="510.01,-69.86 499.6,-71.83 508.97,-76.78 510.01,-69.86"/>
</g>
<!-- Node10 -->
<g id="node10" class="node">
<title>Node10</title>
<g id="a_node10"><a xlink:title=" ">
<polygon fill="none" stroke="#bfbfbf" points="803,-56.5 803,-75.5 847,-75.5 847,-56.5 803,-56.5"/>
<text text-anchor="middle" x="825" y="-63.5" font-family="Helvetica,sans-Serif" font-size="10.00">regex</text>
</a>
</g>
</g>
<!-- Node9&#45;&gt;Node10 -->
<g id="edge9" class="edge">
<title>Node9&#45;&gt;Node10</title>
<path fill="none" stroke="midnightblue" d="M794.94,-112.08C799.98,-104.53 807.34,-93.49 813.51,-84.23"/>
<polygon fill="midnightblue" stroke="midnightblue" points="816.53,-86.01 819.17,-75.75 810.71,-82.13 816.53,-86.01"/>
</g>
<!-- Node9&#45;&gt;Node11 -->
<g id="edge11" class="edge">
<title>Node9&#45;&gt;Node11</title>
<path fill="none" stroke="midnightblue" d="M783.06,-112.08C778.02,-104.53 770.66,-93.49 764.49,-84.23"/>
<polygon fill="midnightblue" stroke="midnightblue" points="767.29,-82.13 758.83,-75.75 761.47,-86.01 767.29,-82.13"/>
</g>
<!-- Node12 -->
<g id="node12" class="node">
<title>Node12</title>
<g id="a_node12"><a xlink:title=" ">
<polygon fill="none" stroke="#bfbfbf" points="928.5,-56.5 928.5,-75.5 997.5,-75.5 997.5,-56.5 928.5,-56.5"/>
<text text-anchor="middle" x="963" y="-63.5" font-family="Helvetica,sans-Serif" font-size="10.00">type_traits</text>
</a>
</g>
</g>
<!-- Node9&#45;&gt;Node12 -->
<g id="edge12" class="edge">
<title>Node9&#45;&gt;Node12</title>
<path fill="none" stroke="midnightblue" d="M816.57,-112.44C846.1,-103.28 893.12,-88.69 925.88,-78.52"/>
<polygon fill="midnightblue" stroke="midnightblue" points="927.04,-81.82 935.56,-75.52 924.97,-75.14 927.04,-81.82"/>
</g>
<!-- Node14&#45;&gt;Node3 -->
<g id="edge19" class="edge">
<title>Node14&#45;&gt;Node3</title>
<path fill="none" stroke="midnightblue" d="M172.19,-168.34C162.38,-154.75 146.92,-128.31 161,-112 169.54,-102.11 342.04,-81.24 424.2,-71.81"/>
<polygon fill="midnightblue" stroke="midnightblue" points="424.69,-75.27 434.23,-70.66 423.9,-68.32 424.69,-75.27"/>
</g>
<!-- Node14&#45;&gt;Node9 -->
<g id="edge18" class="edge">
<title>Node14&#45;&gt;Node9</title>
<path fill="none" stroke="midnightblue" d="M216.24,-173.7C324.37,-164.13 637.72,-136.39 749.12,-126.53"/>
<polygon fill="midnightblue" stroke="midnightblue" points="749.6,-130 759.25,-125.63 748.98,-123.03 749.6,-130"/>
</g>
<!-- Node15 -->
<g id="node15" class="node">
<title>Node15</title>
<g id="a_node15"><a xlink:title=" ">
<polygon fill="none" stroke="#bfbfbf" points="170.5,-112.5 170.5,-131.5 215.5,-131.5 215.5,-112.5 170.5,-112.5"/>
<text text-anchor="middle" x="193" y="-119.5" font-family="Helvetica,sans-Serif" font-size="10.00">utility</text>
</a>
</g>
</g>
<!-- Node14&#45;&gt;Node15 -->
<g id="edge17" class="edge">
<title>Node14&#45;&gt;Node15</title>
<path fill="none" stroke="midnightblue" d="M181.31,-168.08C183.17,-160.93 185.84,-150.64 188.15,-141.69"/>
<polygon fill="midnightblue" stroke="midnightblue" points="191.61,-142.31 190.73,-131.75 184.83,-140.55 191.61,-142.31"/>
</g>
<!-- Node16&#45;&gt;Node3 -->
<g id="edge22" class="edge">
<title>Node16&#45;&gt;Node3</title>
<path fill="none" stroke="midnightblue" d="M344.98,-112.44C369.16,-103.44 407.42,-89.19 434.65,-79.05"/>
<polygon fill="midnightblue" stroke="midnightblue" points="435.98,-82.29 444.13,-75.52 433.54,-75.73 435.98,-82.29"/>
</g>
<!-- Node17 -->
<g id="node17" class="node">
<title>Node17</title>
<g id="a_node17"><a xlink:title=" ">
<polygon fill="none" stroke="#bfbfbf" points="289.5,-56.5 289.5,-75.5 354.5,-75.5 354.5,-56.5 289.5,-56.5"/>
<text text-anchor="middle" x="322" y="-63.5" font-family="Helvetica,sans-Serif" font-size="10.00">stdexcept</text>
</a>
</g>
</g>
<!-- Node16&#45;&gt;Node17 -->
<g id="edge21" class="edge">
<title>Node16&#45;&gt;Node17</title>
<path fill="none" stroke="midnightblue" d="M322,-112.08C322,-105.01 322,-94.86 322,-85.99"/>
<polygon fill="midnightblue" stroke="midnightblue" points="325.5,-85.75 322,-75.75 318.5,-85.75 325.5,-85.75"/>
</g>
<!-- Node18&#45;&gt;Node3 -->
<g id="edge26" class="edge">
<title>Node18&#45;&gt;Node3</title>
<path fill="none" stroke="midnightblue" d="M539.8,-168.37C526.76,-150.22 496.3,-107.8 479.2,-83.99"/>
<polygon fill="midnightblue" stroke="midnightblue" points="481.85,-81.67 473.17,-75.59 476.16,-85.76 481.85,-81.67"/>
</g>
<!-- Node18&#45;&gt;Node9 -->
<g id="edge24" class="edge">
<title>Node18&#45;&gt;Node9</title>
<path fill="none" stroke="midnightblue" d="M584.5,-168.44C629.67,-158.41 704.14,-141.86 749.66,-131.74"/>
<polygon fill="midnightblue" stroke="midnightblue" points="750.46,-135.15 759.47,-129.56 748.95,-128.32 750.46,-135.15"/>
</g>
<!-- Node18&#45;&gt;Node11 -->
<g id="edge27" class="edge">
<title>Node18&#45;&gt;Node11</title>
<path fill="none" stroke="midnightblue" d="M562.24,-168.37C598.22,-149.25 684.82,-103.23 727.86,-80.36"/>
<polygon fill="midnightblue" stroke="midnightblue" points="729.64,-83.37 736.83,-75.59 726.36,-77.19 729.64,-83.37"/>
</g>
<!-- Node18&#45;&gt;Node16 -->
<g id="edge25" class="edge">
<title>Node18&#45;&gt;Node16</title>
<path fill="none" stroke="midnightblue" d="M510.51,-168.44C471.68,-159.08 409.34,-144.06 367.08,-133.87"/>
<polygon fill="midnightblue" stroke="midnightblue" points="367.87,-130.46 357.33,-131.52 366.23,-137.26 367.87,-130.46"/>
</g>
<!-- Node19&#45;&gt;Node3 -->
<g id="edge36" class="edge">
<title>Node19&#45;&gt;Node3</title>
<path fill="none" stroke="midnightblue" d="M332.69,-280.39C304.35,-253.15 223.71,-167.42 268,-112 287.18,-88 371.71,-75.87 424.24,-70.54"/>
<polygon fill="midnightblue" stroke="midnightblue" points="424.68,-74.01 434.29,-69.56 424,-67.04 424.68,-74.01"/>
</g>
<!-- Node19&#45;&gt;Node7 -->
<g id="edge31" class="edge">
<title>Node19&#45;&gt;Node7</title>
<path fill="none" stroke="midnightblue" d="M362.6,-280.44C383.99,-271.56 417.68,-257.56 442.02,-247.45"/>
<polygon fill="midnightblue" stroke="midnightblue" points="443.61,-250.58 451.5,-243.52 440.92,-244.12 443.61,-250.58"/>
</g>
<!-- Node19&#45;&gt;Node9 -->
<g id="edge35" class="edge">
<title>Node19&#45;&gt;Node9</title>
<path fill="none" stroke="midnightblue" d="M384.25,-285.18C483.15,-275.35 725.37,-245.79 779,-188 790.28,-175.85 791.98,-156.57 791.34,-142.16"/>
<polygon fill="midnightblue" stroke="midnightblue" points="794.8,-141.55 790.46,-131.88 787.83,-142.14 794.8,-141.55"/>
</g>
<!-- Node19&#45;&gt;Node14 -->
<g id="edge32" class="edge">
<title>Node19&#45;&gt;Node14</title>
<path fill="none" stroke="midnightblue" d="M308.05,-280.43C284.54,-273.33 253.38,-261.55 230,-244 212.85,-231.13 198.34,-211.12 189.23,-196.71"/>
<polygon fill="midnightblue" stroke="midnightblue" points="192,-194.52 183.82,-187.77 186.01,-198.14 192,-194.52"/>
</g>
<!-- Node19&#45;&gt;Node15 -->
<g id="edge37" class="edge">
<title>Node19&#45;&gt;Node15</title>
<path fill="none" stroke="midnightblue" d="M299.61,-283.67C247.96,-274.53 163.75,-250.35 133,-188 122.76,-167.24 145.37,-148.4 165.7,-136.41"/>
<polygon fill="midnightblue" stroke="midnightblue" points="167.41,-139.46 174.46,-131.55 164.02,-133.34 167.41,-139.46"/>
</g>
<!-- Node19&#45;&gt;Node16 -->
<g id="edge33" class="edge">
<title>Node19&#45;&gt;Node16</title>
<path fill="none" stroke="midnightblue" d="M340.51,-280.38C337.55,-262.97 330.87,-222.35 327,-188 325.26,-172.52 323.94,-154.89 323.1,-141.9"/>
<polygon fill="midnightblue" stroke="midnightblue" points="326.59,-141.62 322.48,-131.85 319.6,-142.05 326.59,-141.62"/>
</g>
<!-- Node19&#45;&gt;Node18 -->
<g id="edge34" class="edge">
<title>Node19&#45;&gt;Node18</title>
<path fill="none" stroke="midnightblue" d="M384.08,-286.41C420.19,-282.28 471.96,-271.58 508,-244 523.54,-232.11 533.9,-211.9 539.82,-197.17"/>
<polygon fill="midnightblue" stroke="midnightblue" points="543.17,-198.2 543.36,-187.61 536.61,-195.77 543.17,-198.2"/>
</g>
<!-- Node20&#45;&gt;Node3 -->
<g id="edge49" class="edge">
<title>Node20&#45;&gt;Node3</title>
<path fill="none" stroke="midnightblue" d="M699.44,-280.24C683.7,-259.51 642.07,-206.34 601,-168 564.26,-133.71 516.19,-99.77 488.74,-81.28"/>
<polygon fill="midnightblue" stroke="midnightblue" points="490.53,-78.27 480.27,-75.63 486.64,-84.09 490.53,-78.27"/>
</g>
<!-- Node20&#45;&gt;Node11 -->
<g id="edge50" class="edge">
<title>Node20&#45;&gt;Node11</title>
<path fill="none" stroke="midnightblue" d="M741.74,-282.77C815.11,-269.14 978.26,-234.14 1007,-188 1024.86,-159.33 1028.8,-137.8 1007,-112 977.77,-77.41 856.07,-84.19 795.43,-75.89"/>
<polygon fill="midnightblue" stroke="midnightblue" points="795.63,-72.38 785.2,-74.22 794.5,-79.29 795.63,-72.38"/>
</g>
<!-- Node20&#45;&gt;Node21 -->
<g id="edge39" class="edge">
<title>Node20&#45;&gt;Node21</title>
<path fill="none" stroke="midnightblue" d="M726.6,-280.44C747.99,-271.56 781.68,-257.56 806.02,-247.45"/>
<polygon fill="midnightblue" stroke="midnightblue" points="807.61,-250.58 815.5,-243.52 804.92,-244.12 807.61,-250.58"/>
</g>
<!-- Node21&#45;&gt;Node3 -->
<g id="edge43" class="edge">
<title>Node21&#45;&gt;Node3</title>
<path fill="none" stroke="midnightblue" d="M838.7,-224.24C844.93,-202.1 857.62,-143.39 828,-112 806.47,-89.19 601.01,-74.68 510.01,-69.33"/>
<polygon fill="midnightblue" stroke="midnightblue" points="509.95,-65.82 499.76,-68.74 509.54,-72.81 509.95,-65.82"/>
</g>
<!-- Node21&#45;&gt;Node6 -->
<g id="edge44" class="edge">
<title>Node21&#45;&gt;Node6</title>
<path fill="none" stroke="midnightblue" d="M883.92,-228.35C934.29,-222.36 1008.6,-210 1026,-188 1062.77,-141.51 1049.57,-97.25 1007,-56 971.18,-21.29 911.54,-12.68 874.07,-10.91"/>
<polygon fill="midnightblue" stroke="midnightblue" points="873.77,-7.4 863.66,-10.57 873.54,-14.4 873.77,-7.4"/>
</g>
<!-- Node21&#45;&gt;Node8 -->
<g id="edge40" class="edge">
<title>Node21&#45;&gt;Node8</title>
<path fill="none" stroke="midnightblue" d="M818.65,-224.32C801.33,-215.66 774.48,-202.24 754.5,-192.25"/>
<polygon fill="midnightblue" stroke="midnightblue" points="755.82,-189 745.31,-187.65 752.69,-195.26 755.82,-189"/>
</g>
<!-- Node21&#45;&gt;Node9 -->
<g id="edge41" class="edge">
<title>Node21&#45;&gt;Node9</title>
<path fill="none" stroke="midnightblue" d="M833.21,-224.46C829.03,-211.91 820.69,-187.83 812,-168 807.99,-158.86 803.01,-148.96 798.7,-140.77"/>
<polygon fill="midnightblue" stroke="midnightblue" points="801.71,-138.98 793.9,-131.81 795.54,-142.28 801.71,-138.98"/>
</g>
<!-- Node21&#45;&gt;Node11 -->
<g id="edge46" class="edge">
<title>Node21&#45;&gt;Node11</title>
<path fill="none" stroke="midnightblue" d="M851.78,-224.47C864.2,-216.77 880.61,-204.18 888,-188 897.54,-167.13 880.7,-119.49 874,-112 863.12,-99.84 825.5,-86.96 795.06,-78.11"/>
<polygon fill="midnightblue" stroke="midnightblue" points="795.64,-74.64 785.07,-75.27 793.73,-81.37 795.64,-74.64"/>
</g>
<!-- Node21&#45;&gt;Node12 -->
<g id="edge45" class="edge">
<title>Node21&#45;&gt;Node12</title>
<path fill="none" stroke="midnightblue" d="M883.78,-226.97C928.96,-220.17 992.01,-207.45 1007,-188 1027.62,-161.25 1019.75,-143.28 1007,-112 1002.2,-100.23 992.67,-89.86 983.71,-82.05"/>
<polygon fill="midnightblue" stroke="midnightblue" points="985.75,-79.2 975.78,-75.63 981.35,-84.64 985.75,-79.2"/>
</g>
<!-- Node21&#45;&gt;Node15 -->
<g id="edge47" class="edge">
<title>Node21&#45;&gt;Node15</title>
<path fill="none" stroke="midnightblue" d="M788.23,-228.03C721.62,-220.82 597.18,-206.28 492,-188 394.4,-171.04 280.33,-144.3 225.58,-131.02"/>
<polygon fill="midnightblue" stroke="midnightblue" points="226.3,-127.6 215.75,-128.63 224.64,-134.4 226.3,-127.6"/>
</g>
<!-- Node21&#45;&gt;Node16 -->
<g id="edge42" class="edge">
<title>Node21&#45;&gt;Node16</title>
<path fill="none" stroke="midnightblue" d="M788.32,-230.31C721.3,-225.74 595.79,-214.24 492,-188 440.36,-174.94 383.02,-150.9 349.88,-136"/>
<polygon fill="midnightblue" stroke="midnightblue" points="350.95,-132.64 340.4,-131.69 348.05,-139.02 350.95,-132.64"/>
</g>
<!-- Node22 -->
<g id="node22" class="node">
<title>Node22</title>
<g id="a_node22"><a xlink:title=" ">
<polygon fill="none" stroke="#bfbfbf" points="940,-168.5 940,-187.5 998,-187.5 998,-168.5 940,-168.5"/>
<text text-anchor="middle" x="969" y="-175.5" font-family="Helvetica,sans-Serif" font-size="10.00">memory</text>
</a>
</g>
</g>
<!-- Node21&#45;&gt;Node22 -->
<g id="edge48" class="edge">
<title>Node21&#45;&gt;Node22</title>
<path fill="none" stroke="midnightblue" d="M857.07,-224.44C879.06,-215.52 913.73,-201.44 938.66,-191.32"/>
<polygon fill="midnightblue" stroke="midnightblue" points="940.08,-194.52 948.02,-187.52 937.44,-188.04 940.08,-194.52"/>
</g>
</g>
</svg>
