<?xml version="1.0" encoding="UTF-8" standalone="no"?>
<!DOCTYPE svg PUBLIC "-//W3C//DTD SVG 1.1//EN"
 "http://www.w3.org/Graphics/SVG/1.1/DTD/svg11.dtd">
<!-- Generated by graphviz version 2.43.0 (0)
 -->
<!-- Title: command.hpp Pages: 1 -->
<svg width="235pt" height="192pt"
 viewBox="0.00 0.00 235.00 192.00" xmlns="http://www.w3.org/2000/svg" xmlns:xlink="http://www.w3.org/1999/xlink">

<svg id="main" version="1.1" xmlns="http://www.w3.org/2000/svg" xmlns:xlink="http://www.w3.org/1999/xlink" xml:space="preserve" onload="init(evt)">
<style type="text/css"><![CDATA[
.node, .edge {opacity: 0.7;}
.node.selected, .edge.selected {opacity: 1;}
.edge:hover path { stroke: red; }
.edge:hover polygon { stroke: red; fill: red; }
]]></style>
<script type="application/ecmascript" xlink:href="svg.min.js"/>
<svg id="graph" class="graph">
<g id="graph0" class="graph" transform="scale(1 1) rotate(0) translate(4 188)">
<title>command.hpp</title>
<!-- Node1 -->
<g id="Node000001" class="node">
<title>Node1</title>
<g id="a_Node000001"><a xlink:title=" ">
<polygon fill="#999999" stroke="#666666" points="124.5,-184 38.5,-184 38.5,-165 124.5,-165 124.5,-184"/>
<text text-anchor="middle" x="81.5" y="-172" font-family="Helvetica,sans-Serif" font-size="10.00">command.hpp</text>
</a>
</g>
</g>
<!-- Node2 -->
<g id="Node000002" class="node">
<title>Node2</title>
<g id="a_Node000002"><a xlink:href="api_8hpp.html" target="_top" xlink:title=" ">
<polygon fill="white" stroke="#666666" points="53,-129 0,-129 0,-110 53,-110 53,-129"/>
<text text-anchor="middle" x="26.5" y="-117" font-family="Helvetica,sans-Serif" font-size="10.00">api.hpp</text>
</a>
</g>
</g>
<!-- Node1&#45;&gt;Node2 -->
<g id="edge1_Node000001_Node000002" class="edge">
<title>Node1&#45;&gt;Node2</title>
<g id="a_edge1_Node000001_Node000002"><a xlink:title=" ">
<path fill="none" stroke="#63b8ff" d="M59.58,-158.32C48.74,-148.87 36.82,-137.06 30.35,-129.17"/>
<polygon fill="#63b8ff" stroke="#63b8ff" points="57.63,-161.26 67.55,-164.98 62.12,-155.89 57.63,-161.26"/>
</a>
</g>
</g>
<!-- Node3 -->
<g id="Node000003" class="node">
<title>Node3</title>
<g id="a_Node000003"><a xlink:href="cmd__line_8hpp.html" target="_top" xlink:title=" ">
<polygon fill="white" stroke="#666666" points="140.5,-74 58.5,-74 58.5,-55 140.5,-55 140.5,-74"/>
<text text-anchor="middle" x="99.5" y="-62" font-family="Helvetica,sans-Serif" font-size="10.00">cmd_line.hpp</text>
</a>
</g>
</g>
<!-- Node1&#45;&gt;Node3 -->
<g id="edge7_Node000001_Node000003" class="edge">
<title>Node1&#45;&gt;Node3</title>
<g id="a_edge7_Node000001_Node000003"><a xlink:title=" ">
<path fill="none" stroke="#63b8ff" d="M84.67,-154.48C88.61,-130.84 95.17,-91.5 98.06,-74.16"/>
<polygon fill="#63b8ff" stroke="#63b8ff" points="81.16,-154.22 82.97,-164.66 88.07,-155.37 81.16,-154.22"/>
</a>
</g>
</g>
<!-- Node5 -->
<g id="Node000005" class="node">
<title>Node5</title>
<g id="a_Node000005"><a xlink:href="help__printer_8hpp.html" target="_top" xlink:title=" ">
<polygon fill="white" stroke="#666666" points="227,-19 132,-19 132,0 227,0 227,-19"/>
<text text-anchor="middle" x="179.5" y="-7" font-family="Helvetica,sans-Serif" font-size="10.00">help_printer.hpp</text>
</a>
</g>
</g>
<!-- Node1&#45;&gt;Node5 -->
<g id="edge10_Node000001_Node000005" class="edge">
<title>Node1&#45;&gt;Node5</title>
<g id="a_edge10_Node000001_Node000005"><a xlink:title=" ">
<path fill="none" stroke="#63b8ff" d="M133.81,-161.64C151,-155 168.3,-144.75 178.5,-129 201.2,-93.94 188.53,-39.97 182.31,-19.13"/>
<polygon fill="#63b8ff" stroke="#63b8ff" points="132.59,-158.36 124.31,-164.97 134.91,-164.96 132.59,-158.36"/>
</a>
</g>
</g>
<!-- Node6 -->
<g id="Node000006" class="node">
<title>Node6</title>
<g id="a_Node000006"><a xlink:href="help_8hpp.html" target="_top" xlink:title=" ">
<polygon fill="white" stroke="#666666" points="169,-129 110,-129 110,-110 169,-110 169,-129"/>
<text text-anchor="middle" x="139.5" y="-117" font-family="Helvetica,sans-Serif" font-size="10.00">help.hpp</text>
</a>
</g>
</g>
<!-- Node1&#45;&gt;Node6 -->
<g id="edge8_Node000001_Node000006" class="edge">
<title>Node1&#45;&gt;Node6</title>
<g id="a_edge8_Node000001_Node000006"><a xlink:title=" ">
<path fill="none" stroke="#63b8ff" d="M98.41,-158.04C108.7,-148.64 121.47,-136.98 130.01,-129.17"/>
<polygon fill="#63b8ff" stroke="#63b8ff" points="95.84,-155.66 90.82,-164.98 100.56,-160.82 95.84,-155.66"/>
</a>
</g>
</g>
<!-- Node2&#45;&gt;Node1 -->
<g id="edge6_Node000002_Node000001" class="edge">
<title>Node2&#45;&gt;Node1</title>
<g id="a_edge6_Node000002_Node000001"><a xlink:title=" ">
<path fill="none" stroke="#63b8ff" d="M48.48,-135.73C59.26,-145.14 71.11,-156.88 77.58,-164.75"/>
<polygon fill="#63b8ff" stroke="#63b8ff" points="50.46,-132.82 40.54,-129.09 45.97,-138.19 50.46,-132.82"/>
</a>
</g>
</g>
<!-- Node2&#45;&gt;Node3 -->
<g id="edge2_Node000002_Node000003" class="edge">
<title>Node2&#45;&gt;Node3</title>
<g id="a_edge2_Node000002_Node000003"><a xlink:title=" ">
<path fill="none" stroke="#63b8ff" d="M46.64,-103.88C59.78,-94.34 76.48,-82.21 87.56,-74.17"/>
<polygon fill="#63b8ff" stroke="#63b8ff" points="44.26,-101.28 38.23,-109.98 48.38,-106.94 44.26,-101.28"/>
</a>
</g>
</g>
<!-- Node4 -->
<g id="Node000004" class="node">
<title>Node4</title>
<g id="a_Node000004"><a xlink:href="all_8hpp.html" target="_top" xlink:title=" ">
<polygon fill="white" stroke="#666666" points="113.5,-19 63.5,-19 63.5,0 113.5,0 113.5,-19"/>
<text text-anchor="middle" x="88.5" y="-7" font-family="Helvetica,sans-Serif" font-size="10.00">all.hpp</text>
</a>
</g>
</g>
<!-- Node3&#45;&gt;Node4 -->
<g id="edge3_Node000003_Node000004" class="edge">
<title>Node3&#45;&gt;Node4</title>
<g id="a_edge3_Node000003_Node000004"><a xlink:title=" ">
<path fill="none" stroke="#63b8ff" d="M95.65,-44.95C93.82,-36.15 91.73,-26.06 90.28,-19.09"/>
<polygon fill="#63b8ff" stroke="#63b8ff" points="92.22,-45.67 97.68,-54.75 99.08,-44.25 92.22,-45.67"/>
</a>
</g>
</g>
<!-- Node3&#45;&gt;Node5 -->
<g id="edge4_Node000003_Node000005" class="edge">
<title>Node3&#45;&gt;Node5</title>
<g id="a_edge4_Node000003_Node000005"><a xlink:title=" ">
<path fill="none" stroke="#63b8ff" d="M115.47,-48.88C128.76,-39.34 147.38,-27.21 161.26,-19.17"/>
<polygon fill="#63b8ff" stroke="#63b8ff" points="113.18,-46.21 107.24,-54.98 117.35,-51.83 113.18,-46.21"/>
</a>
</g>
</g>
<!-- Node5&#45;&gt;Node3 -->
<g id="edge5_Node000005_Node000003" class="edge">
<title>Node5&#45;&gt;Node3</title>
<g id="a_edge5_Node000005_Node000003"><a xlink:title=" ">
<path fill="none" stroke="#63b8ff" d="M163.28,-25.31C149.92,-34.88 131.29,-47 117.47,-54.98"/>
<polygon fill="#63b8ff" stroke="#63b8ff" points="165.61,-27.94 171.56,-19.17 161.44,-22.31 165.61,-27.94"/>
</a>
</g>
</g>
<!-- Node6&#45;&gt;Node3 -->
<g id="edge9_Node000006_Node000003" class="edge">
<title>Node6&#45;&gt;Node3</title>
<g id="a_edge9_Node000006_Node000003"><a xlink:title=" ">
<path fill="none" stroke="#63b8ff" d="M126.8,-101.67C119.87,-92.5 111.59,-81.52 105.98,-74.09"/>
<polygon fill="#63b8ff" stroke="#63b8ff" points="124.08,-103.87 132.89,-109.75 129.66,-99.66 124.08,-103.87"/>
</a>
</g>
</g>
</g>
</svg>
</svg>

<style type='text/css'>
<![CDATA[
[data-mouse-over-selected='false'] { opacity: 0.7; }
[data-mouse-over-selected='true']  { opacity: 1.0; }
]]>
</style>
<script type="application/ecmascript"><![CDATA[
document.addEventListener('DOMContentLoaded', (event) => {
  highlightEdges();
  highlightAdjacentNodes();
});
]]></script>
</svg>
