<?xml version="1.0" encoding="UTF-8" standalone="no"?>
<!DOCTYPE svg PUBLIC "-//W3C//DTD SVG 1.1//EN"
 "http://www.w3.org/Graphics/SVG/1.1/DTD/svg11.dtd">
<!-- Generated by graphviz version 2.43.0 (0)
 -->
<!-- Title: command.hpp Pages: 1 -->
<svg width="235pt" height="196pt"
 viewBox="0.00 0.00 235.00 196.00" xmlns="http://www.w3.org/2000/svg" xmlns:xlink="http://www.w3.org/1999/xlink">
<g id="graph0" class="graph" transform="scale(1 1) rotate(0) translate(4 192)">
<title>command.hpp</title>
<!-- Node1 -->
<g id="node1" class="node">
<title>Node1</title>
<g id="a_node1"><a xlink:title=" ">
<polygon fill="#bfbfbf" stroke="black" points="38.5,-168.5 38.5,-187.5 124.5,-187.5 124.5,-168.5 38.5,-168.5"/>
<text text-anchor="middle" x="81.5" y="-175.5" font-family="Helvetica,sans-Serif" font-size="10.00">command.hpp</text>
</a>
</g>
</g>
<!-- Node2 -->
<g id="node2" class="node">
<title>Node2</title>
<g id="a_node2"><a xlink:href="api_8hpp.html" target="_top" xlink:title=" ">
<polygon fill="none" stroke="black" points="0,-112.5 0,-131.5 53,-131.5 53,-112.5 0,-112.5"/>
<text text-anchor="middle" x="26.5" y="-119.5" font-family="Helvetica,sans-Serif" font-size="10.00">api.hpp</text>
</a>
</g>
</g>
<!-- Node1&#45;&gt;Node2 -->
<g id="edge1" class="edge">
<title>Node1&#45;&gt;Node2</title>
<path fill="none" stroke="midnightblue" d="M59.9,-161.82C48.98,-152.15 36.89,-139.95 30.35,-131.83"/>
<polygon fill="midnightblue" stroke="midnightblue" points="57.66,-164.51 67.55,-168.32 62.2,-159.18 57.66,-164.51"/>
</g>
<!-- Node3 -->
<g id="node3" class="node">
<title>Node3</title>
<g id="a_node3"><a xlink:href="cmd__line_8hpp.html" target="_top" xlink:title=" ">
<polygon fill="none" stroke="black" points="58.5,-56.5 58.5,-75.5 140.5,-75.5 140.5,-56.5 58.5,-56.5"/>
<text text-anchor="middle" x="99.5" y="-63.5" font-family="Helvetica,sans-Serif" font-size="10.00">cmd_line.hpp</text>
</a>
</g>
</g>
<!-- Node1&#45;&gt;Node3 -->
<g id="edge7" class="edge">
<title>Node1&#45;&gt;Node3</title>
<path fill="none" stroke="midnightblue" d="M84.55,-158.35C88.49,-134.25 95.2,-93.31 98.09,-75.59"/>
<polygon fill="midnightblue" stroke="midnightblue" points="81.07,-157.93 82.91,-168.37 87.98,-159.06 81.07,-157.93"/>
</g>
<!-- Node5 -->
<g id="node5" class="node">
<title>Node5</title>
<g id="a_node5"><a xlink:href="help__printer_8hpp.html" target="_top" xlink:title=" ">
<polygon fill="none" stroke="black" points="132,-0.5 132,-19.5 227,-19.5 227,-0.5 132,-0.5"/>
<text text-anchor="middle" x="179.5" y="-7.5" font-family="Helvetica,sans-Serif" font-size="10.00">help_printer.hpp</text>
</a>
</g>
</g>
<!-- Node1&#45;&gt;Node5 -->
<g id="edge10" class="edge">
<title>Node1&#45;&gt;Node5</title>
<path fill="none" stroke="midnightblue" d="M133.39,-165.04C150.73,-158.31 168.23,-147.93 178.5,-132 201.6,-96.15 188.69,-41.07 182.36,-19.8"/>
<polygon fill="midnightblue" stroke="midnightblue" points="132.09,-161.79 123.82,-168.41 134.42,-168.39 132.09,-161.79"/>
</g>
<!-- Node6 -->
<g id="node6" class="node">
<title>Node6</title>
<g id="a_node6"><a xlink:href="help_8hpp.html" target="_top" xlink:title=" ">
<polygon fill="none" stroke="black" points="110,-112.5 110,-131.5 169,-131.5 169,-112.5 110,-112.5"/>
<text text-anchor="middle" x="139.5" y="-119.5" font-family="Helvetica,sans-Serif" font-size="10.00">help.hpp</text>
</a>
</g>
</g>
<!-- Node1&#45;&gt;Node6 -->
<g id="edge8" class="edge">
<title>Node1&#45;&gt;Node6</title>
<path fill="none" stroke="midnightblue" d="M98.41,-161.25C108.7,-151.67 121.47,-139.79 130.01,-131.83"/>
<polygon fill="midnightblue" stroke="midnightblue" points="95.75,-158.95 90.82,-168.32 100.52,-164.07 95.75,-158.95"/>
</g>
<!-- Node2&#45;&gt;Node1 -->
<g id="edge6" class="edge">
<title>Node2&#45;&gt;Node1</title>
<path fill="none" stroke="midnightblue" d="M48.16,-138.23C59.03,-147.87 71.04,-159.98 77.58,-168.08"/>
<polygon fill="midnightblue" stroke="midnightblue" points="50.43,-135.57 40.54,-131.75 45.89,-140.9 50.43,-135.57"/>
</g>
<!-- Node2&#45;&gt;Node3 -->
<g id="edge2" class="edge">
<title>Node2&#45;&gt;Node3</title>
<path fill="none" stroke="midnightblue" d="M46.64,-106.1C59.78,-96.38 76.48,-84.03 87.56,-75.83"/>
<polygon fill="midnightblue" stroke="midnightblue" points="44.19,-103.56 38.23,-112.32 48.35,-109.19 44.19,-103.56"/>
</g>
<!-- Node4 -->
<g id="node4" class="node">
<title>Node4</title>
<g id="a_node4"><a xlink:href="all_8hpp.html" target="_top" xlink:title=" ">
<polygon fill="none" stroke="black" points="63.5,-0.5 63.5,-19.5 113.5,-19.5 113.5,-0.5 63.5,-0.5"/>
<text text-anchor="middle" x="88.5" y="-7.5" font-family="Helvetica,sans-Serif" font-size="10.00">all.hpp</text>
</a>
</g>
</g>
<!-- Node3&#45;&gt;Node4 -->
<g id="edge3" class="edge">
<title>Node3&#45;&gt;Node4</title>
<path fill="none" stroke="midnightblue" d="M95.65,-46.1C93.82,-37.14 91.73,-26.86 90.28,-19.75"/>
<polygon fill="midnightblue" stroke="midnightblue" points="92.26,-46.98 97.68,-56.08 99.12,-45.59 92.26,-46.98"/>
</g>
<!-- Node3&#45;&gt;Node5 -->
<g id="edge4" class="edge">
<title>Node3&#45;&gt;Node5</title>
<path fill="none" stroke="midnightblue" d="M115.52,-50.06C128.91,-40.28 147.67,-27.83 161.57,-19.65"/>
<polygon fill="midnightblue" stroke="midnightblue" points="113.1,-47.5 107.24,-56.32 117.33,-53.08 113.1,-47.5"/>
</g>
<!-- Node5&#45;&gt;Node3 -->
<g id="edge5" class="edge">
<title>Node5&#45;&gt;Node3</title>
<path fill="none" stroke="midnightblue" d="M163.28,-26.09C149.92,-35.84 131.29,-48.18 117.47,-56.32"/>
<polygon fill="midnightblue" stroke="midnightblue" points="165.69,-28.65 171.56,-19.83 161.47,-23.07 165.69,-28.65"/>
</g>
<!-- Node6&#45;&gt;Node3 -->
<g id="edge9" class="edge">
<title>Node6&#45;&gt;Node3</title>
<path fill="none" stroke="midnightblue" d="M126.8,-103.86C119.87,-94.5 111.59,-83.33 105.98,-75.75"/>
<polygon fill="midnightblue" stroke="midnightblue" points="124.13,-106.13 132.89,-112.08 129.75,-101.96 124.13,-106.13"/>
</g>
</g>
</svg>
