<?xml version="1.0" encoding="UTF-8" standalone="no"?>
<!DOCTYPE svg PUBLIC "-//W3C//DTD SVG 1.1//EN"
 "http://www.w3.org/Graphics/SVG/1.1/DTD/svg11.dtd">
<!-- Generated by graphviz version 2.43.0 (0)
 -->
<!-- Title: command.hpp Pages: 1 -->
<!--zoomable 420 -->
<svg id="main" version="1.1" xmlns="http://www.w3.org/2000/svg" xmlns:xlink="http://www.w3.org/1999/xlink" xml:space="preserve" onload="init(evt)">
<style type="text/css"><![CDATA[
.edge:hover path { stroke: red; }
.edge:hover polygon { stroke: red; fill: red; }
]]></style>
<script type="text/javascript"><![CDATA[
var edges = document.getElementsByTagName('g');
if (edges && edges.length) {
  for (var i=0;i<edges.length;i++) {
    if (edges[i].id.substr(0,4)=='edge') {
      edges[i].setAttribute('class','edge');
    }
  }
}
]]></script>
        <defs>
                <circle id="rim" cx="0" cy="0" r="7"/>
                <circle id="rim2" cx="0" cy="0" r="3.5"/>
                <g id="zoomPlus">
                        <use xlink:href="#rim" fill="#404040">
                                <set attributeName="fill" to="#808080" begin="zoomplus.mouseover" end="zoomplus.mouseout"/>
                        </use>
                        <path d="M-4,0h8M0,-4v8" fill="none" stroke="white" stroke-width="1.5" pointer-events="none"/>
                </g>
                <g id="zoomMin">
                        <use xlink:href="#rim" fill="#404040">
                                <set attributeName="fill" to="#808080" begin="zoomminus.mouseover" end="zoomminus.mouseout"/>
                        </use>
                        <path d="M-4,0h8" fill="none" stroke="white" stroke-width="1.5" pointer-events="none"/>
                </g>
                <g id="dirArrow">
                        <path fill="none" stroke="white" stroke-width="1.5" d="M0,-3.0v7 M-2.5,-0.5L0,-3.0L2.5,-0.5"/>
                </g>
               <g id="resetDef">
                       <use xlink:href="#rim2" fill="#404040">
                               <set attributeName="fill" to="#808080" begin="reset.mouseover" end="reset.mouseout"/>
                       </use>
               </g>
        </defs>

<script type="text/javascript">
var viewWidth = 1148;
var viewHeight = 420;
var sectionId = 'dynsection-0';
</script>
<script xlink:href="svgpan.js"/>
<svg id="graph" class="graph">
<g id="viewport">
<title>command.hpp</title>
<!-- Node1 -->
<g id="node1" class="node">
<title>Node1</title>
<g id="a_node1"><a xlink:title=" ">
<polygon fill="#bfbfbf" stroke="black" points="520,-392.5 520,-411.5 606,-411.5 606,-392.5 520,-392.5"/>
<text text-anchor="middle" x="563" y="-399.5" font-family="Helvetica,sans-Serif" font-size="10.00">command.hpp</text>
</a>
</g>
</g>
<!-- Node2 -->
<g id="node2" class="node">
<title>Node2</title>
<g id="a_node2"><a xlink:href="api_8hpp.html" target="_top" xlink:title=" ">
<polygon fill="none" stroke="black" points="462.5,-336.5 462.5,-355.5 515.5,-355.5 515.5,-336.5 462.5,-336.5"/>
<text text-anchor="middle" x="489" y="-343.5" font-family="Helvetica,sans-Serif" font-size="10.00">api.hpp</text>
</a>
</g>
</g>
<!-- Node1&#45;&gt;Node2 -->
<g id="edge1" class="edge">
<title>Node1&#45;&gt;Node2</title>
<path fill="none" stroke="midnightblue" d="M546,-392.32C533.2,-384.26 516.16,-372.08 503.9,-362.37"/>
<polygon fill="midnightblue" stroke="midnightblue" points="505.9,-359.48 495.96,-355.83 501.46,-364.89 505.9,-359.48"/>
</g>
<!-- Node3 -->
<g id="node3" class="node">
<title>Node3</title>
<g id="a_node3"><a xlink:href="types_8hpp.html" target="_top" xlink:title=" ">
<polygon fill="none" stroke="black" points="349.5,-56.5 349.5,-75.5 414.5,-75.5 414.5,-56.5 349.5,-56.5"/>
<text text-anchor="middle" x="382" y="-63.5" font-family="Helvetica,sans-Serif" font-size="10.00">types.hpp</text>
</a>
</g>
</g>
<!-- Node1&#45;&gt;Node3 -->
<g id="edge56" class="edge">
<title>Node1&#45;&gt;Node3</title>
<path fill="none" stroke="midnightblue" d="M519.76,-401.72C387.92,-402.75 0,-396.82 0,-291 0,-291 0,-291 0,-177 0,-137.38 25.79,-130.16 61,-112 166.64,-57.53 208.43,-93.43 326,-76 330.39,-75.35 334.97,-74.65 339.54,-73.93"/>
<polygon fill="midnightblue" stroke="midnightblue" points="340.12,-77.39 349.45,-72.37 339.02,-70.47 340.12,-77.39"/>
</g>
<!-- Node9 -->
<g id="node9" class="node">
<title>Node9</title>
<g id="a_node9"><a xlink:href="utils_8hpp.html" target="_top" xlink:title=" ">
<polygon fill="none" stroke="black" points="620.5,-112.5 620.5,-131.5 679.5,-131.5 679.5,-112.5 620.5,-112.5"/>
<text text-anchor="middle" x="650" y="-119.5" font-family="Helvetica,sans-Serif" font-size="10.00">utils.hpp</text>
</a>
</g>
</g>
<!-- Node1&#45;&gt;Node9 -->
<g id="edge52" class="edge">
<title>Node1&#45;&gt;Node9</title>
<path fill="none" stroke="midnightblue" d="M606.14,-399.9C721.08,-395.79 1026,-376.82 1026,-291 1026,-291 1026,-291 1026,-233 1026,-194.58 1002.8,-186.27 969,-168 956.82,-161.42 772.6,-138.09 689.79,-127.86"/>
<polygon fill="midnightblue" stroke="midnightblue" points="690.1,-124.38 679.74,-126.63 689.24,-131.32 690.1,-124.38"/>
</g>
<!-- Node12 -->
<g id="node12" class="node">
<title>Node12</title>
<g id="a_node12"><a xlink:href="enums_8hpp.html" target="_top" xlink:title=" ">
<polygon fill="none" stroke="black" points="736.5,-112.5 736.5,-131.5 807.5,-131.5 807.5,-112.5 736.5,-112.5"/>
<text text-anchor="middle" x="772" y="-119.5" font-family="Helvetica,sans-Serif" font-size="10.00">enums.hpp</text>
</a>
</g>
</g>
<!-- Node1&#45;&gt;Node12 -->
<g id="edge55" class="edge">
<title>Node1&#45;&gt;Node12</title>
<path fill="none" stroke="midnightblue" d="M606.12,-400.32C682.73,-398.25 847.08,-389.86 981,-356 1055.01,-337.29 1140,-367.34 1140,-291 1140,-291 1140,-291 1140,-233 1140,-166.42 916.1,-136.78 817.59,-126.96"/>
<polygon fill="midnightblue" stroke="midnightblue" points="817.91,-123.48 807.62,-125.99 817.23,-130.44 817.91,-123.48"/>
</g>
<!-- Node13 -->
<g id="node13" class="node">
<title>Node13</title>
<g id="a_node13"><a xlink:href="context_8hpp.html" target="_top" xlink:title=" ">
<polygon fill="none" stroke="black" points="66,-168.5 66,-187.5 140,-187.5 140,-168.5 66,-168.5"/>
<text text-anchor="middle" x="103" y="-175.5" font-family="Helvetica,sans-Serif" font-size="10.00">context.hpp</text>
</a>
</g>
</g>
<!-- Node1&#45;&gt;Node13 -->
<g id="edge53" class="edge">
<title>Node1&#45;&gt;Node13</title>
<path fill="none" stroke="midnightblue" d="M519.89,-397.8C433.3,-389.05 237.32,-357.16 129,-244 116.8,-231.25 110.07,-212.06 106.54,-197.83"/>
<polygon fill="midnightblue" stroke="midnightblue" points="109.88,-196.73 104.34,-187.7 103.04,-198.21 109.88,-196.73"/>
</g>
<!-- Node17 -->
<g id="node17" class="node">
<title>Node17</title>
<g id="a_node17"><a xlink:href="value__utils_8hpp.html" target="_top" xlink:title=" ">
<polygon fill="none" stroke="black" points="462.5,-168.5 462.5,-187.5 553.5,-187.5 553.5,-168.5 462.5,-168.5"/>
<text text-anchor="middle" x="508" y="-175.5" font-family="Helvetica,sans-Serif" font-size="10.00">value_utils.hpp</text>
</a>
</g>
</g>
<!-- Node1&#45;&gt;Node17 -->
<g id="edge54" class="edge">
<title>Node1&#45;&gt;Node17</title>
<path fill="none" stroke="midnightblue" d="M560.84,-392.3C552.73,-359.56 523.95,-243.38 512.62,-197.67"/>
<polygon fill="midnightblue" stroke="midnightblue" points="516,-196.75 510.2,-187.88 509.21,-198.43 516,-196.75"/>
</g>
<!-- Node20 -->
<g id="node20" class="node">
<title>Node20</title>
<g id="a_node20"><a xlink:href="group__iface_8hpp.html" target="_top" xlink:title=" ">
<polygon fill="none" stroke="black" points="718.5,-224.5 718.5,-243.5 813.5,-243.5 813.5,-224.5 718.5,-224.5"/>
<text text-anchor="middle" x="766" y="-231.5" font-family="Helvetica,sans-Serif" font-size="10.00">group_iface.hpp</text>
</a>
</g>
</g>
<!-- Node1&#45;&gt;Node20 -->
<g id="edge51" class="edge">
<title>Node1&#45;&gt;Node20</title>
<path fill="none" stroke="midnightblue" d="M576.98,-392.38C603.25,-375.91 661.24,-338.2 705,-300 722.57,-284.66 740.6,-264.85 752.45,-251.16"/>
<polygon fill="midnightblue" stroke="midnightblue" points="755.15,-253.39 758.97,-243.51 749.82,-248.84 755.15,-253.39"/>
</g>
<!-- Node2&#45;&gt;Node1 -->
<g id="edge50" class="edge">
<title>Node2&#45;&gt;Node1</title>
<path fill="none" stroke="midnightblue" d="M505.97,-355.65C518.83,-363.76 536.01,-376.04 548.28,-385.78"/>
<polygon fill="midnightblue" stroke="midnightblue" points="546.28,-388.66 556.23,-392.32 550.73,-383.26 546.28,-388.66"/>
</g>
<!-- Node2&#45;&gt;Node3 -->
<g id="edge2" class="edge">
<title>Node2&#45;&gt;Node3</title>
<path fill="none" stroke="midnightblue" d="M462.47,-344.27C365.8,-340.89 38,-322.95 38,-235 38,-235 38,-235 38,-177 38,-135.19 68.58,-130.64 106,-112 107.31,-111.35 262.49,-86.27 339.56,-73.84"/>
<polygon fill="midnightblue" stroke="midnightblue" points="340.13,-77.29 349.44,-72.24 339.01,-70.38 340.13,-77.29"/>
</g>
<!-- Node7 -->
<g id="node7" class="node">
<title>Node7</title>
<g id="a_node7"><a xlink:href="arg_8hpp.html" target="_top" xlink:title=" ">
<polygon fill="none" stroke="black" points="407.5,-224.5 407.5,-243.5 460.5,-243.5 460.5,-224.5 407.5,-224.5"/>
<text text-anchor="middle" x="434" y="-231.5" font-family="Helvetica,sans-Serif" font-size="10.00">arg.hpp</text>
</a>
</g>
</g>
<!-- Node2&#45;&gt;Node7 -->
<g id="edge6" class="edge">
<title>Node2&#45;&gt;Node7</title>
<path fill="none" stroke="midnightblue" d="M484.68,-336.37C475.69,-318.38 454.78,-276.55 442.81,-252.63"/>
<polygon fill="midnightblue" stroke="midnightblue" points="445.9,-250.97 438.3,-243.59 439.64,-254.1 445.9,-250.97"/>
</g>
<!-- Node18 -->
<g id="node18" class="node">
<title>Node18</title>
<g id="a_node18"><a xlink:href="multi__arg_8hpp.html" target="_top" xlink:title=" ">
<polygon fill="none" stroke="black" points="262,-280.5 262,-299.5 346,-299.5 346,-280.5 262,-280.5"/>
<text text-anchor="middle" x="304" y="-287.5" font-family="Helvetica,sans-Serif" font-size="10.00">multi_arg.hpp</text>
</a>
</g>
</g>
<!-- Node2&#45;&gt;Node18 -->
<g id="edge29" class="edge">
<title>Node2&#45;&gt;Node18</title>
<path fill="none" stroke="midnightblue" d="M462.49,-337.26C431.17,-328.12 378.78,-312.83 342.86,-302.34"/>
<polygon fill="midnightblue" stroke="midnightblue" points="343.78,-298.97 333.2,-299.52 341.82,-305.69 343.78,-298.97"/>
</g>
<!-- Node19 -->
<g id="node19" class="node">
<title>Node19</title>
<g id="a_node19"><a xlink:href="groups_8hpp.html" target="_top" xlink:title=" ">
<polygon fill="none" stroke="black" points="624.5,-280.5 624.5,-299.5 695.5,-299.5 695.5,-280.5 624.5,-280.5"/>
<text text-anchor="middle" x="660" y="-287.5" font-family="Helvetica,sans-Serif" font-size="10.00">groups.hpp</text>
</a>
</g>
</g>
<!-- Node2&#45;&gt;Node19 -->
<g id="edge37" class="edge">
<title>Node2&#45;&gt;Node19</title>
<path fill="none" stroke="midnightblue" d="M515.72,-336.56C544.66,-327.42 591.02,-312.78 623.36,-302.57"/>
<polygon fill="midnightblue" stroke="midnightblue" points="624.42,-305.91 632.9,-299.56 622.31,-299.23 624.42,-305.91"/>
</g>
<!-- Node4 -->
<g id="node4" class="node">
<title>Node4</title>
<g id="a_node4"><a xlink:title=" ">
<polygon fill="none" stroke="#bfbfbf" points="395,-0.5 395,-19.5 439,-19.5 439,-0.5 395,-0.5"/>
<text text-anchor="middle" x="417" y="-7.5" font-family="Helvetica,sans-Serif" font-size="10.00">string</text>
</a>
</g>
</g>
<!-- Node3&#45;&gt;Node4 -->
<g id="edge3" class="edge">
<title>Node3&#45;&gt;Node4</title>
<path fill="none" stroke="midnightblue" d="M387.78,-56.08C392.67,-48.53 399.83,-37.49 405.83,-28.23"/>
<polygon fill="midnightblue" stroke="midnightblue" points="408.83,-30.05 411.33,-19.75 402.95,-26.24 408.83,-30.05"/>
</g>
<!-- Node5 -->
<g id="node5" class="node">
<title>Node5</title>
<g id="a_node5"><a xlink:title=" ">
<polygon fill="none" stroke="#bfbfbf" points="317,-0.5 317,-19.5 377,-19.5 377,-0.5 317,-0.5"/>
<text text-anchor="middle" x="347" y="-7.5" font-family="Helvetica,sans-Serif" font-size="10.00">iostream</text>
</a>
</g>
</g>
<!-- Node3&#45;&gt;Node5 -->
<g id="edge4" class="edge">
<title>Node3&#45;&gt;Node5</title>
<path fill="none" stroke="midnightblue" d="M376.22,-56.08C371.33,-48.53 364.17,-37.49 358.17,-28.23"/>
<polygon fill="midnightblue" stroke="midnightblue" points="361.05,-26.24 352.67,-19.75 355.17,-30.05 361.05,-26.24"/>
</g>
<!-- Node6 -->
<g id="node6" class="node">
<title>Node6</title>
<g id="a_node6"><a xlink:title=" ">
<polygon fill="none" stroke="#bfbfbf" points="785.5,-0.5 785.5,-19.5 832.5,-19.5 832.5,-0.5 785.5,-0.5"/>
<text text-anchor="middle" x="809" y="-7.5" font-family="Helvetica,sans-Serif" font-size="10.00">vector</text>
</a>
</g>
</g>
<!-- Node3&#45;&gt;Node6 -->
<g id="edge5" class="edge">
<title>Node3&#45;&gt;Node6</title>
<path fill="none" stroke="midnightblue" d="M414.8,-60.85C494.04,-50.83 695.28,-25.38 775.37,-15.25"/>
<polygon fill="midnightblue" stroke="midnightblue" points="775.92,-18.71 785.41,-13.98 775.05,-11.77 775.92,-18.71"/>
</g>
<!-- Node7&#45;&gt;Node3 -->
<g id="edge27" class="edge">
<title>Node7&#45;&gt;Node3</title>
<path fill="none" stroke="midnightblue" d="M431.2,-224.08C422.98,-197.83 398.77,-120.55 387.68,-85.12"/>
<polygon fill="midnightblue" stroke="midnightblue" points="391.01,-84.06 384.68,-75.57 384.33,-86.16 391.01,-84.06"/>
</g>
<!-- Node8 -->
<g id="node8" class="node">
<title>Node8</title>
<g id="a_node8"><a xlink:href="arg__iface_8hpp.html" target="_top" xlink:title=" ">
<polygon fill="none" stroke="black" points="724.5,-168.5 724.5,-187.5 807.5,-187.5 807.5,-168.5 724.5,-168.5"/>
<text text-anchor="middle" x="766" y="-175.5" font-family="Helvetica,sans-Serif" font-size="10.00">arg_iface.hpp</text>
</a>
</g>
</g>
<!-- Node7&#45;&gt;Node8 -->
<g id="edge7" class="edge">
<title>Node7&#45;&gt;Node8</title>
<path fill="none" stroke="midnightblue" d="M460.61,-228.67C515.6,-219.73 642.64,-199.06 714.34,-187.4"/>
<polygon fill="midnightblue" stroke="midnightblue" points="715.19,-190.81 724.5,-185.75 714.07,-183.9 715.19,-190.81"/>
</g>
<!-- Node7&#45;&gt;Node9 -->
<g id="edge14" class="edge">
<title>Node7&#45;&gt;Node9</title>
<path fill="none" stroke="midnightblue" d="M460.68,-226.28C487.48,-218.94 529.49,-205.82 563,-188 589.08,-174.13 615.83,-152.89 632.66,-138.5"/>
<polygon fill="midnightblue" stroke="midnightblue" points="635.25,-140.88 640.49,-131.67 630.66,-135.6 635.25,-140.88"/>
</g>
<!-- Node10 -->
<g id="node10" class="node">
<title>Node10</title>
<g id="a_node10"><a xlink:title=" ">
<polygon fill="none" stroke="#bfbfbf" points="618,-56.5 618,-75.5 682,-75.5 682,-56.5 618,-56.5"/>
<text text-anchor="middle" x="650" y="-63.5" font-family="Helvetica,sans-Serif" font-size="10.00">algorithm</text>
</a>
</g>
</g>
<!-- Node7&#45;&gt;Node10 -->
<g id="edge28" class="edge">
<title>Node7&#45;&gt;Node10</title>
<path fill="none" stroke="midnightblue" d="M434.55,-224.43C435.84,-210.96 440.08,-184.68 454,-168 494.36,-119.64 563.82,-91.72 608.29,-77.94"/>
<polygon fill="midnightblue" stroke="midnightblue" points="609.35,-81.28 617.93,-75.06 607.34,-74.57 609.35,-81.28"/>
</g>
<!-- Node7&#45;&gt;Node13 -->
<g id="edge15" class="edge">
<title>Node7&#45;&gt;Node13</title>
<path fill="none" stroke="midnightblue" d="M407.47,-228.67C351.47,-219.54 220.55,-198.18 150.01,-186.67"/>
<polygon fill="midnightblue" stroke="midnightblue" points="150.49,-183.2 140.06,-185.05 149.36,-190.11 150.49,-183.2"/>
</g>
<!-- Node15 -->
<g id="node15" class="node">
<title>Node15</title>
<g id="a_node15"><a xlink:href="exceptions_8hpp.html" target="_top" xlink:title=" ">
<polygon fill="none" stroke="black" points="238.5,-112.5 238.5,-131.5 329.5,-131.5 329.5,-112.5 238.5,-112.5"/>
<text text-anchor="middle" x="284" y="-119.5" font-family="Helvetica,sans-Serif" font-size="10.00">exceptions.hpp</text>
</a>
</g>
</g>
<!-- Node7&#45;&gt;Node15 -->
<g id="edge19" class="edge">
<title>Node7&#45;&gt;Node15</title>
<path fill="none" stroke="midnightblue" d="M407.33,-230.46C378.6,-226.35 333.32,-215.64 306,-188 293.84,-175.7 288.4,-156.44 285.96,-142.08"/>
<polygon fill="midnightblue" stroke="midnightblue" points="289.39,-141.28 284.59,-131.83 282.45,-142.21 289.39,-141.28"/>
</g>
<!-- Node7&#45;&gt;Node17 -->
<g id="edge22" class="edge">
<title>Node7&#45;&gt;Node17</title>
<path fill="none" stroke="midnightblue" d="M445.89,-224.32C457.15,-216.11 474.29,-203.6 487.71,-193.81"/>
<polygon fill="midnightblue" stroke="midnightblue" points="489.88,-196.56 495.89,-187.83 485.75,-190.9 489.88,-196.56"/>
</g>
<!-- Node8&#45;&gt;Node3 -->
<g id="edge12" class="edge">
<title>Node8&#45;&gt;Node3</title>
<path fill="none" stroke="midnightblue" d="M758.53,-168.08C745.87,-153.62 718.67,-125.37 689,-112 601.02,-72.36 485.84,-66.16 424.61,-66.01"/>
<polygon fill="midnightblue" stroke="midnightblue" points="424.53,-62.51 414.54,-66.04 424.55,-69.51 424.53,-62.51"/>
</g>
<!-- Node8&#45;&gt;Node9 -->
<g id="edge8" class="edge">
<title>Node8&#45;&gt;Node9</title>
<path fill="none" stroke="midnightblue" d="M747.62,-168.44C728.78,-159.68 699.27,-145.94 677.62,-135.86"/>
<polygon fill="midnightblue" stroke="midnightblue" points="678.84,-132.56 668.29,-131.52 675.88,-138.91 678.84,-132.56"/>
</g>
<!-- Node8&#45;&gt;Node12 -->
<g id="edge13" class="edge">
<title>Node8&#45;&gt;Node12</title>
<path fill="none" stroke="midnightblue" d="M766.99,-168.08C767.79,-160.93 768.93,-150.64 769.92,-141.69"/>
<polygon fill="midnightblue" stroke="midnightblue" points="773.4,-142.08 771.03,-131.75 766.44,-141.3 773.4,-142.08"/>
</g>
<!-- Node9&#45;&gt;Node3 -->
<g id="edge9" class="edge">
<title>Node9&#45;&gt;Node3</title>
<path fill="none" stroke="midnightblue" d="M620.18,-114.89C615.44,-113.92 610.58,-112.93 606,-112 542.88,-99.21 469.73,-84.54 424.66,-75.52"/>
<polygon fill="midnightblue" stroke="midnightblue" points="425.14,-72.05 414.65,-73.52 423.77,-78.92 425.14,-72.05"/>
</g>
<!-- Node9&#45;&gt;Node10 -->
<g id="edge10" class="edge">
<title>Node9&#45;&gt;Node10</title>
<path fill="none" stroke="midnightblue" d="M650,-112.08C650,-105.01 650,-94.86 650,-85.99"/>
<polygon fill="midnightblue" stroke="midnightblue" points="653.5,-85.75 650,-75.75 646.5,-85.75 653.5,-85.75"/>
</g>
<!-- Node11 -->
<g id="node11" class="node">
<title>Node11</title>
<g id="a_node11"><a xlink:title=" ">
<polygon fill="none" stroke="#bfbfbf" points="852.5,-56.5 852.5,-75.5 921.5,-75.5 921.5,-56.5 852.5,-56.5"/>
<text text-anchor="middle" x="887" y="-63.5" font-family="Helvetica,sans-Serif" font-size="10.00">type_traits</text>
</a>
</g>
</g>
<!-- Node9&#45;&gt;Node11 -->
<g id="edge11" class="edge">
<title>Node9&#45;&gt;Node11</title>
<path fill="none" stroke="midnightblue" d="M679.54,-114.27C720.46,-104.95 794.74,-88.02 842.43,-77.16"/>
<polygon fill="midnightblue" stroke="midnightblue" points="843.5,-80.5 852.47,-74.87 841.95,-73.68 843.5,-80.5"/>
</g>
<!-- Node13&#45;&gt;Node3 -->
<g id="edge18" class="edge">
<title>Node13&#45;&gt;Node3</title>
<path fill="none" stroke="midnightblue" d="M102.97,-168.33C103.43,-154.25 106.52,-126.52 123,-112 125.03,-110.21 265.87,-86.43 338.98,-74.18"/>
<polygon fill="midnightblue" stroke="midnightblue" points="339.97,-77.57 349.25,-72.46 338.81,-70.66 339.97,-77.57"/>
</g>
<!-- Node13&#45;&gt;Node9 -->
<g id="edge17" class="edge">
<title>Node13&#45;&gt;Node9</title>
<path fill="none" stroke="midnightblue" d="M140.17,-173.33C239.1,-163.56 508.26,-136.99 610.17,-126.93"/>
<polygon fill="midnightblue" stroke="midnightblue" points="610.74,-130.39 620.35,-125.93 610.05,-123.43 610.74,-130.39"/>
</g>
<!-- Node14 -->
<g id="node14" class="node">
<title>Node14</title>
<g id="a_node14"><a xlink:title=" ">
<polygon fill="none" stroke="#bfbfbf" points="132.5,-112.5 132.5,-131.5 177.5,-131.5 177.5,-112.5 132.5,-112.5"/>
<text text-anchor="middle" x="155" y="-119.5" font-family="Helvetica,sans-Serif" font-size="10.00">utility</text>
</a>
</g>
</g>
<!-- Node13&#45;&gt;Node14 -->
<g id="edge16" class="edge">
<title>Node13&#45;&gt;Node14</title>
<path fill="none" stroke="midnightblue" d="M111.59,-168.08C119.16,-160.22 130.38,-148.57 139.51,-139.08"/>
<polygon fill="midnightblue" stroke="midnightblue" points="142.16,-141.38 146.57,-131.75 137.12,-136.53 142.16,-141.38"/>
</g>
<!-- Node15&#45;&gt;Node3 -->
<g id="edge21" class="edge">
<title>Node15&#45;&gt;Node3</title>
<path fill="none" stroke="midnightblue" d="M299.75,-112.32C315.32,-103.74 339.38,-90.49 357.46,-80.52"/>
<polygon fill="midnightblue" stroke="midnightblue" points="359.22,-83.55 366.29,-75.65 355.85,-77.42 359.22,-83.55"/>
</g>
<!-- Node16 -->
<g id="node16" class="node">
<title>Node16</title>
<g id="a_node16"><a xlink:title=" ">
<polygon fill="none" stroke="#bfbfbf" points="251.5,-56.5 251.5,-75.5 316.5,-75.5 316.5,-56.5 251.5,-56.5"/>
<text text-anchor="middle" x="284" y="-63.5" font-family="Helvetica,sans-Serif" font-size="10.00">stdexcept</text>
</a>
</g>
</g>
<!-- Node15&#45;&gt;Node16 -->
<g id="edge20" class="edge">
<title>Node15&#45;&gt;Node16</title>
<path fill="none" stroke="midnightblue" d="M284,-112.08C284,-105.01 284,-94.86 284,-85.99"/>
<polygon fill="midnightblue" stroke="midnightblue" points="287.5,-85.75 284,-75.75 280.5,-85.75 287.5,-85.75"/>
</g>
<!-- Node17&#45;&gt;Node3 -->
<g id="edge25" class="edge">
<title>Node17&#45;&gt;Node3</title>
<path fill="none" stroke="midnightblue" d="M498.11,-168.37C476.86,-149.81 426.57,-105.91 399.68,-82.44"/>
<polygon fill="midnightblue" stroke="midnightblue" points="401.68,-79.53 391.84,-75.59 397.07,-84.8 401.68,-79.53"/>
</g>
<!-- Node17&#45;&gt;Node9 -->
<g id="edge23" class="edge">
<title>Node17&#45;&gt;Node9</title>
<path fill="none" stroke="midnightblue" d="M530.5,-168.44C554.08,-159.48 591.32,-145.31 617.96,-135.18"/>
<polygon fill="midnightblue" stroke="midnightblue" points="619.5,-138.34 627.6,-131.52 617.01,-131.8 619.5,-138.34"/>
</g>
<!-- Node17&#45;&gt;Node10 -->
<g id="edge26" class="edge">
<title>Node17&#45;&gt;Node10</title>
<path fill="none" stroke="midnightblue" d="M519.14,-168.37C543.3,-149.65 600.75,-105.15 630.85,-81.83"/>
<polygon fill="midnightblue" stroke="midnightblue" points="633.15,-84.48 638.91,-75.59 628.86,-78.95 633.15,-84.48"/>
</g>
<!-- Node17&#45;&gt;Node15 -->
<g id="edge24" class="edge">
<title>Node17&#45;&gt;Node15</title>
<path fill="none" stroke="midnightblue" d="M472.51,-168.44C433.68,-159.08 371.34,-144.06 329.08,-133.87"/>
<polygon fill="midnightblue" stroke="midnightblue" points="329.87,-130.46 319.33,-131.52 328.23,-137.26 329.87,-130.46"/>
</g>
<!-- Node18&#45;&gt;Node3 -->
<g id="edge35" class="edge">
<title>Node18&#45;&gt;Node3</title>
<path fill="none" stroke="midnightblue" d="M294.45,-280.12C266.22,-252.83 187.75,-168.57 230,-112 243.14,-94.4 298.98,-81.26 339.17,-73.85"/>
<polygon fill="midnightblue" stroke="midnightblue" points="340.04,-77.25 349.27,-72.05 338.81,-70.36 340.04,-77.25"/>
</g>
<!-- Node18&#45;&gt;Node7 -->
<g id="edge30" class="edge">
<title>Node18&#45;&gt;Node7</title>
<path fill="none" stroke="midnightblue" d="M324.6,-280.44C345.99,-271.56 379.68,-257.56 404.02,-247.45"/>
<polygon fill="midnightblue" stroke="midnightblue" points="405.61,-250.58 413.5,-243.52 402.92,-244.12 405.61,-250.58"/>
</g>
<!-- Node18&#45;&gt;Node9 -->
<g id="edge34" class="edge">
<title>Node18&#45;&gt;Node9</title>
<path fill="none" stroke="midnightblue" d="M346.08,-282.36C384.85,-275.44 443.55,-262.94 492,-244 539.44,-225.45 552.28,-219.89 592,-188 609.61,-173.87 626.41,-154.11 637.35,-140.1"/>
<polygon fill="midnightblue" stroke="midnightblue" points="640.37,-141.91 643.64,-131.83 634.8,-137.67 640.37,-141.91"/>
</g>
<!-- Node18&#45;&gt;Node13 -->
<g id="edge31" class="edge">
<title>Node18&#45;&gt;Node13</title>
<path fill="none" stroke="midnightblue" d="M261.89,-283.42C230.07,-277.62 186.46,-266.13 154,-244 136.09,-231.79 121.55,-211.34 112.65,-196.64"/>
<polygon fill="midnightblue" stroke="midnightblue" points="115.44,-194.47 107.41,-187.55 109.37,-197.96 115.44,-194.47"/>
</g>
<!-- Node18&#45;&gt;Node14 -->
<g id="edge36" class="edge">
<title>Node18&#45;&gt;Node14</title>
<path fill="none" stroke="midnightblue" d="M261.88,-281.39C238.36,-275.1 210.21,-263.84 192,-244 165.47,-215.1 157.95,-167.64 155.83,-141.58"/>
<polygon fill="midnightblue" stroke="midnightblue" points="159.32,-141.3 155.19,-131.54 152.33,-141.74 159.32,-141.3"/>
</g>
<!-- Node18&#45;&gt;Node15 -->
<g id="edge32" class="edge">
<title>Node18&#45;&gt;Node15</title>
<path fill="none" stroke="midnightblue" d="M302.51,-280.38C299.55,-262.97 292.87,-222.35 289,-188 287.26,-172.52 285.94,-154.89 285.1,-141.9"/>
<polygon fill="midnightblue" stroke="midnightblue" points="288.59,-141.62 284.48,-131.85 281.6,-142.05 288.59,-141.62"/>
</g>
<!-- Node18&#45;&gt;Node17 -->
<g id="edge33" class="edge">
<title>Node18&#45;&gt;Node17</title>
<path fill="none" stroke="midnightblue" d="M346.08,-286.41C382.19,-282.28 433.96,-271.58 470,-244 485.54,-232.11 495.9,-211.9 501.82,-197.17"/>
<polygon fill="midnightblue" stroke="midnightblue" points="505.17,-198.2 505.36,-187.61 498.61,-195.77 505.17,-198.2"/>
</g>
<!-- Node19&#45;&gt;Node3 -->
<g id="edge48" class="edge">
<title>Node19&#45;&gt;Node3</title>
<path fill="none" stroke="midnightblue" d="M654.81,-280.44C641.63,-259.24 604.94,-203.47 563,-168 515.83,-128.11 450.54,-96.3 412.63,-79.68"/>
<polygon fill="midnightblue" stroke="midnightblue" points="413.73,-76.34 403.16,-75.59 410.96,-82.76 413.73,-76.34"/>
</g>
<!-- Node19&#45;&gt;Node10 -->
<g id="edge49" class="edge">
<title>Node19&#45;&gt;Node10</title>
<path fill="none" stroke="midnightblue" d="M695.58,-288.72C788.9,-286.57 1029.45,-271.14 969,-168 943.24,-124.05 916.73,-129.78 869,-112 809.61,-89.88 736.89,-77.67 692,-71.73"/>
<polygon fill="midnightblue" stroke="midnightblue" points="692.4,-68.25 682.04,-70.45 691.51,-75.19 692.4,-68.25"/>
</g>
<!-- Node19&#45;&gt;Node20 -->
<g id="edge38" class="edge">
<title>Node19&#45;&gt;Node20</title>
<path fill="none" stroke="midnightblue" d="M677.03,-280.32C694.03,-271.66 720.38,-258.24 739.99,-248.25"/>
<polygon fill="midnightblue" stroke="midnightblue" points="741.69,-251.31 749.01,-243.65 738.51,-245.08 741.69,-251.31"/>
</g>
<!-- Node20&#45;&gt;Node3 -->
<g id="edge42" class="edge">
<title>Node20&#45;&gt;Node3</title>
<path fill="none" stroke="midnightblue" d="M781.73,-224.24C793.89,-216.48 809.81,-203.93 817,-188 830.89,-157.21 839.62,-137.08 817,-112 791.04,-83.21 529.63,-71.72 424.98,-68.24"/>
<polygon fill="midnightblue" stroke="midnightblue" points="424.88,-64.74 414.77,-67.91 424.65,-71.74 424.88,-64.74"/>
</g>
<!-- Node20&#45;&gt;Node6 -->
<g id="edge43" class="edge">
<title>Node20&#45;&gt;Node6</title>
<path fill="none" stroke="midnightblue" d="M813.66,-230.12C871.7,-225.49 964.68,-214.13 986,-188 1026.19,-138.76 981.05,-95.17 931,-56 904.95,-35.61 868.74,-23.82 842.55,-17.46"/>
<polygon fill="midnightblue" stroke="midnightblue" points="843.22,-14.03 832.69,-15.21 841.66,-20.85 843.22,-14.03"/>
</g>
<!-- Node20&#45;&gt;Node8 -->
<g id="edge39" class="edge">
<title>Node20&#45;&gt;Node8</title>
<path fill="none" stroke="midnightblue" d="M766,-224.08C766,-217.01 766,-206.86 766,-197.99"/>
<polygon fill="midnightblue" stroke="midnightblue" points="769.5,-197.75 766,-187.75 762.5,-197.75 769.5,-197.75"/>
</g>
<!-- Node20&#45;&gt;Node9 -->
<g id="edge40" class="edge">
<title>Node20&#45;&gt;Node9</title>
<path fill="none" stroke="midnightblue" d="M756.3,-224.5C746.14,-215.54 729.77,-200.97 716,-188 698.55,-171.57 679.04,-152.23 665.79,-138.95"/>
<polygon fill="midnightblue" stroke="midnightblue" points="667.96,-136.16 658.42,-131.54 662.99,-141.1 667.96,-136.16"/>
</g>
<!-- Node20&#45;&gt;Node10 -->
<g id="edge45" class="edge">
<title>Node20&#45;&gt;Node10</title>
<path fill="none" stroke="midnightblue" d="M798.99,-224.44C817.46,-217.77 838.95,-206.45 850,-188 867.35,-159.02 871.1,-138.38 850,-112 830.62,-87.77 744.84,-75.67 692.12,-70.42"/>
<polygon fill="midnightblue" stroke="midnightblue" points="692.33,-66.92 682.05,-69.46 691.67,-73.89 692.33,-66.92"/>
</g>
<!-- Node20&#45;&gt;Node11 -->
<g id="edge44" class="edge">
<title>Node20&#45;&gt;Node11</title>
<path fill="none" stroke="midnightblue" d="M813.78,-229.18C867.55,-223.78 949.91,-211.79 969,-188 998.45,-151.3 942.22,-104.28 908.97,-81.15"/>
<polygon fill="midnightblue" stroke="midnightblue" points="910.93,-78.25 900.69,-75.54 907.01,-84.05 910.93,-78.25"/>
</g>
<!-- Node20&#45;&gt;Node14 -->
<g id="edge46" class="edge">
<title>Node20&#45;&gt;Node14</title>
<path fill="none" stroke="midnightblue" d="M718.26,-227.18C656.9,-219.46 547.17,-204.82 454,-188 356.51,-170.4 242.4,-143.95 187.61,-130.88"/>
<polygon fill="midnightblue" stroke="midnightblue" points="188.31,-127.45 177.77,-128.53 186.68,-134.26 188.31,-127.45"/>
</g>
<!-- Node20&#45;&gt;Node15 -->
<g id="edge41" class="edge">
<title>Node20&#45;&gt;Node15</title>
<path fill="none" stroke="midnightblue" d="M718.31,-229.43C656.54,-224.06 545.9,-211.88 454,-188 402.45,-174.61 345.08,-150.67 311.91,-135.88"/>
<polygon fill="midnightblue" stroke="midnightblue" points="312.98,-132.52 302.42,-131.61 310.1,-138.91 312.98,-132.52"/>
</g>
<!-- Node21 -->
<g id="node21" class="node">
<title>Node21</title>
<g id="a_node21"><a xlink:title=" ">
<polygon fill="none" stroke="#bfbfbf" points="902,-168.5 902,-187.5 960,-187.5 960,-168.5 902,-168.5"/>
<text text-anchor="middle" x="931" y="-175.5" font-family="Helvetica,sans-Serif" font-size="10.00">memory</text>
</a>
</g>
</g>
<!-- Node20&#45;&gt;Node21 -->
<g id="edge47" class="edge">
<title>Node20&#45;&gt;Node21</title>
<path fill="none" stroke="midnightblue" d="M792.14,-224.44C820.02,-215.32 864.35,-200.81 895.4,-190.65"/>
<polygon fill="midnightblue" stroke="midnightblue" points="896.56,-193.95 904.98,-187.52 894.38,-187.3 896.56,-193.95"/>
</g>
</g>
</svg>
        <g id="navigator" transform="translate(0 0)" fill="#404254">
                <rect fill="#f2f5e9" fill-opacity="0.5" stroke="#606060" stroke-width=".5" x="0" y="0" width="60" height="60"/>
                <use id="zoomplus" xlink:href="#zoomPlus" x="17" y="9" onmousedown="handleZoom(evt,'in')"/>
                <use id="zoomminus" xlink:href="#zoomMin" x="42" y="9" onmousedown="handleZoom(evt,'out')"/>
                <use id="reset" xlink:href="#resetDef" x="30" y="36" onmousedown="handleReset()"/>
                <g id="arrowUp" xlink:href="#dirArrow" transform="translate(30 24)" onmousedown="handlePan(0,-1)">
                  <use xlink:href="#rim" fill="#404040">
                        <set attributeName="fill" to="#808080" begin="arrowUp.mouseover" end="arrowUp.mouseout"/>
                  </use>
                  <path fill="none" stroke="white" stroke-width="1.5" d="M0,-3.0v7 M-2.5,-0.5L0,-3.0L2.5,-0.5"/>
                </g>
                <g id="arrowRight" xlink:href="#dirArrow" transform="rotate(90) translate(36 -43)" onmousedown="handlePan(1,0)">
                  <use xlink:href="#rim" fill="#404040">
                        <set attributeName="fill" to="#808080" begin="arrowRight.mouseover" end="arrowRight.mouseout"/>
                  </use>
                  <path fill="none" stroke="white" stroke-width="1.5" d="M0,-3.0v7 M-2.5,-0.5L0,-3.0L2.5,-0.5"/>
                </g>
                <g id="arrowDown" xlink:href="#dirArrow" transform="rotate(180) translate(-30 -48)" onmousedown="handlePan(0,1)">
                  <use xlink:href="#rim" fill="#404040">
                        <set attributeName="fill" to="#808080" begin="arrowDown.mouseover" end="arrowDown.mouseout"/>
                  </use>
                  <path fill="none" stroke="white" stroke-width="1.5" d="M0,-3.0v7 M-2.5,-0.5L0,-3.0L2.5,-0.5"/>
                </g>
                <g id="arrowLeft" xlink:href="#dirArrow" transform="rotate(270) translate(-36 17)" onmousedown="handlePan(-1,0)">
                  <use xlink:href="#rim" fill="#404040">
                        <set attributeName="fill" to="#808080" begin="arrowLeft.mouseover" end="arrowLeft.mouseout"/>
                  </use>
                  <path fill="none" stroke="white" stroke-width="1.5" d="M0,-3.0v7 M-2.5,-0.5L0,-3.0L2.5,-0.5"/>
                </g>
        </g>
        <svg viewBox="0 0 15 15" width="100%" height="30px" preserveAspectRatio="xMaxYMin meet">
         <g id="arrow_out" transform="scale(0.3 0.3)">
          <a xlink:href="command_8hpp__incl_org.svg" target="_base">
           <rect id="button" ry="5" rx="5" y="6" x="6" height="38" width="38"
                fill="#f2f5e9" fill-opacity="0.5" stroke="#606060" stroke-width="1.0"/>
           <path id="arrow"
             d="M 11.500037,31.436501 C 11.940474,20.09759 22.043105,11.32322 32.158766,21.979434 L 37.068811,17.246167 C 37.068811,17.246167 37.088388,32 37.088388,32 L 22.160133,31.978069 C 22.160133,31.978069 26.997745,27.140456 26.997745,27.140456 C 18.528582,18.264221 13.291696,25.230495 11.500037,31.436501 z"
             style="fill:#404040;"/>
          </a>
         </g>
        </svg>
</svg>
