<?xml version="1.0" encoding="UTF-8" standalone="no"?>
<!DOCTYPE svg PUBLIC "-//W3C//DTD SVG 1.1//EN"
 "http://www.w3.org/Graphics/SVG/1.1/DTD/svg11.dtd">
<!-- Generated by graphviz version 14.1.2 (0)
 -->
<!-- Title: command.hpp Pages: 1 -->
<svg width="1078pt" height="420pt"
 viewBox="0.00 0.00 1078.00 420.00" xmlns="http://www.w3.org/2000/svg" xmlns:xlink="http://www.w3.org/1999/xlink">
<g id="graph0" class="graph" transform="scale(1 1) rotate(0) translate(4 416)">
<title>command.hpp</title>
<!-- Node1 -->
<g id="Node000001" class="node">
<title>Node1</title>
<g id="a_Node000001"><a xlink:title=" ">
<polygon fill="#999999" stroke="#666666" points="649.75,-412 572.25,-412 572.25,-392 649.75,-392 649.75,-412"/>
<text xml:space="preserve" text-anchor="middle" x="611" y="-398.5" font-family="Helvetica,sans-Serif" font-size="10.00">command.hpp</text>
</a>
</g>
</g>
<!-- Node2 -->
<g id="Node000002" class="node">
<title>Node2</title>
<g id="a_Node000002"><a xlink:href="api_8hpp.html" target="_top" xlink:title=" ">
<polygon fill="white" stroke="#666666" points="660.75,-356 613.25,-356 613.25,-336 660.75,-336 660.75,-356"/>
<text xml:space="preserve" text-anchor="middle" x="637" y="-342.5" font-family="Helvetica,sans-Serif" font-size="10.00">api.hpp</text>
</a>
</g>
</g>
<!-- Node1&#45;&gt;Node2 -->
<g id="edge1_Node000001_Node000002" class="edge">
<title>Node1&#45;&gt;Node2</title>
<g id="a_edge1_Node000001_Node000002"><a xlink:title=" ">
<path fill="none" stroke="#63b8ff" d="M610.26,-391.59C612.24,-384.55 616.6,-374.67 621.37,-366"/>
<polygon fill="#63b8ff" stroke="#63b8ff" points="624.28,-367.95 626.49,-357.59 618.3,-364.31 624.28,-367.95"/>
</a>
</g>
</g>
<!-- Node5 -->
<g id="Node000005" class="node">
<title>Node5</title>
<g id="a_Node000005"><a xlink:href="enums_8hpp.html" target="_top" xlink:title=" ">
<polygon fill="white" stroke="#666666" points="314,-132 250,-132 250,-112 314,-112 314,-132"/>
<text xml:space="preserve" text-anchor="middle" x="282" y="-118.5" font-family="Helvetica,sans-Serif" font-size="10.00">enums.hpp</text>
</a>
</g>
</g>
<!-- Node1&#45;&gt;Node5 -->
<g id="edge52_Node000001_Node000005" class="edge">
<title>Node1&#45;&gt;Node5</title>
<g id="a_edge52_Node000001_Node000005"><a xlink:title=" ">
<path fill="none" stroke="#63b8ff" d="M571.91,-399.2C472.64,-394.34 212.86,-379.69 130,-356 67.89,-338.24 0,-355.6 0,-291 0,-291 0,-291 0,-233 0,-189.89 33.62,-187.63 72,-168 125.22,-140.79 194.13,-130.01 238.21,-125.75"/>
<polygon fill="#63b8ff" stroke="#63b8ff" points="238.52,-129.24 248.17,-124.87 237.9,-122.27 238.52,-129.24"/>
</a>
</g>
</g>
<!-- Node6 -->
<g id="Node000006" class="node">
<title>Node6</title>
<g id="a_Node000006"><a xlink:href="types_8hpp.html" target="_top" xlink:title=" ">
<polygon fill="white" stroke="#666666" points="721.38,-76 662.62,-76 662.62,-56 721.38,-56 721.38,-76"/>
<text xml:space="preserve" text-anchor="middle" x="692" y="-62.5" font-family="Helvetica,sans-Serif" font-size="10.00">types.hpp</text>
</a>
</g>
</g>
<!-- Node1&#45;&gt;Node6 -->
<g id="edge54_Node000001_Node000006" class="edge">
<title>Node1&#45;&gt;Node6</title>
<g id="a_edge54_Node000001_Node000006"><a xlink:title=" ">
<path fill="none" stroke="#63b8ff" d="M650.13,-399.96C761.13,-395.94 1070,-377.04 1070,-291 1070,-291 1070,-291 1070,-177 1070,-107.38 830.63,-78.91 732.86,-70.18"/>
<polygon fill="#63b8ff" stroke="#63b8ff" points="733.43,-66.72 723.17,-69.34 732.83,-73.69 733.43,-66.72"/>
</a>
</g>
</g>
<!-- Node10 -->
<g id="Node000010" class="node">
<title>Node10</title>
<g id="a_Node000010"><a xlink:href="utils_8hpp.html" target="_top" xlink:title=" ">
<polygon fill="white" stroke="#666666" points="514.38,-132 461.62,-132 461.62,-112 514.38,-112 514.38,-132"/>
<text xml:space="preserve" text-anchor="middle" x="488" y="-118.5" font-family="Helvetica,sans-Serif" font-size="10.00">utils.hpp</text>
</a>
</g>
</g>
<!-- Node1&#45;&gt;Node10 -->
<g id="edge55_Node000001_Node000010" class="edge">
<title>Node1&#45;&gt;Node10</title>
<g id="a_edge55_Node000001_Node000010"><a xlink:title=" ">
<path fill="none" stroke="#63b8ff" d="M572.07,-397.67C443.1,-386.12 38,-345.51 38,-291 38,-291 38,-291 38,-233 38,-148.5 341.17,-128.61 449.82,-124.19"/>
<polygon fill="#63b8ff" stroke="#63b8ff" points="449.83,-127.69 459.69,-123.81 449.56,-120.7 449.83,-127.69"/>
</a>
</g>
</g>
<!-- Node13 -->
<g id="Node000013" class="node">
<title>Node13</title>
<g id="a_Node000013"><a xlink:href="context_8hpp.html" target="_top" xlink:title=" ">
<polygon fill="white" stroke="#666666" points="675.5,-188 608.5,-188 608.5,-168 675.5,-168 675.5,-188"/>
<text xml:space="preserve" text-anchor="middle" x="642" y="-174.5" font-family="Helvetica,sans-Serif" font-size="10.00">context.hpp</text>
</a>
</g>
</g>
<!-- Node1&#45;&gt;Node13 -->
<g id="edge51_Node000001_Node000013" class="edge">
<title>Node1&#45;&gt;Node13</title>
<g id="a_edge51_Node000001_Node000013"><a xlink:title=" ">
<path fill="none" stroke="#63b8ff" d="M608.25,-391.78C600.74,-364.9 581.82,-284.65 604,-224 607.79,-213.65 615.12,-204.03 622.35,-196.37"/>
<polygon fill="#63b8ff" stroke="#63b8ff" points="624.77,-198.9 629.48,-189.41 619.88,-193.89 624.77,-198.9"/>
</a>
</g>
</g>
<!-- Node17 -->
<g id="Node000017" class="node">
<title>Node17</title>
<g id="a_Node000017"><a xlink:href="value__utils_8hpp.html" target="_top" xlink:title=" ">
<polygon fill="white" stroke="#666666" points="889.62,-188 808.38,-188 808.38,-168 889.62,-168 889.62,-188"/>
<text xml:space="preserve" text-anchor="middle" x="849" y="-174.5" font-family="Helvetica,sans-Serif" font-size="10.00">value_utils.hpp</text>
</a>
</g>
</g>
<!-- Node1&#45;&gt;Node17 -->
<g id="edge56_Node000001_Node000017" class="edge">
<title>Node1&#45;&gt;Node17</title>
<g id="a_edge56_Node000001_Node000017"><a xlink:title=" ">
<path fill="none" stroke="#63b8ff" d="M642.72,-391.6C684.13,-377.83 756.47,-348.41 800,-300 826.31,-270.75 839.47,-225.53 845.21,-199.45"/>
<polygon fill="#63b8ff" stroke="#63b8ff" points="848.61,-200.32 847.16,-189.82 841.75,-198.93 848.61,-200.32"/>
</a>
</g>
</g>
<!-- Node19 -->
<g id="Node000019" class="node">
<title>Node19</title>
<g id="a_Node000019"><a xlink:href="group__iface_8hpp.html" target="_top" xlink:title=" ">
<polygon fill="white" stroke="#666666" points="247.5,-244 162.5,-244 162.5,-224 247.5,-224 247.5,-244"/>
<text xml:space="preserve" text-anchor="middle" x="205" y="-230.5" font-family="Helvetica,sans-Serif" font-size="10.00">group_iface.hpp</text>
</a>
</g>
</g>
<!-- Node1&#45;&gt;Node19 -->
<g id="edge53_Node000001_Node000019" class="edge">
<title>Node1&#45;&gt;Node19</title>
<g id="a_edge53_Node000001_Node000019"><a xlink:title=" ">
<path fill="none" stroke="#63b8ff" d="M588.01,-391.6C519.84,-363.73 318.59,-281.44 238.47,-248.68"/>
<polygon fill="#63b8ff" stroke="#63b8ff" points="239.97,-245.52 229.39,-244.97 237.32,-252 239.97,-245.52"/>
</a>
</g>
</g>
<!-- Node2&#45;&gt;Node1 -->
<g id="edge28_Node000002_Node000001" class="edge">
<title>Node2&#45;&gt;Node1</title>
<g id="a_edge28_Node000002_Node000001"><a xlink:title=" ">
<path fill="none" stroke="#63b8ff" d="M637.77,-356.3C635.81,-363.32 631.47,-373.19 626.7,-381.87"/>
<polygon fill="#63b8ff" stroke="#63b8ff" points="623.78,-379.94 621.58,-390.3 629.76,-383.57 623.78,-379.94"/>
</a>
</g>
</g>
<!-- Node3 -->
<g id="Node000003" class="node">
<title>Node3</title>
<g id="a_Node000003"><a xlink:href="arg_8hpp.html" target="_top" xlink:title=" ">
<polygon fill="white" stroke="#666666" points="661.12,-244 612.88,-244 612.88,-224 661.12,-224 661.12,-244"/>
<text xml:space="preserve" text-anchor="middle" x="637" y="-230.5" font-family="Helvetica,sans-Serif" font-size="10.00">arg.hpp</text>
</a>
</g>
</g>
<!-- Node2&#45;&gt;Node3 -->
<g id="edge2_Node000002_Node000003" class="edge">
<title>Node2&#45;&gt;Node3</title>
<g id="a_edge2_Node000002_Node000003"><a xlink:title=" ">
<path fill="none" stroke="#63b8ff" d="M637,-335.62C637,-318.01 637,-279.59 637,-255.65"/>
<polygon fill="#63b8ff" stroke="#63b8ff" points="640.5,-255.87 637,-245.87 633.5,-255.87 640.5,-255.87"/>
</a>
</g>
</g>
<!-- Node2&#45;&gt;Node6 -->
<g id="edge50_Node000002_Node000006" class="edge">
<title>Node2&#45;&gt;Node6</title>
<g id="a_edge50_Node000002_Node000006"><a xlink:title=" ">
<path fill="none" stroke="#63b8ff" d="M661.25,-343.49C728.7,-337.74 916.56,-310.83 962,-188 968.56,-170.28 967.97,-123.87 957,-112 927.43,-79.99 799.93,-70.73 733.15,-68.07"/>
<polygon fill="#63b8ff" stroke="#63b8ff" points="733.45,-64.58 723.33,-67.71 733.2,-71.57 733.45,-64.58"/>
</a>
</g>
</g>
<!-- Node18 -->
<g id="Node000018" class="node">
<title>Node18</title>
<g id="a_Node000018"><a xlink:href="groups_8hpp.html" target="_top" xlink:title=" ">
<polygon fill="white" stroke="#666666" points="488,-300 424,-300 424,-280 488,-280 488,-300"/>
<text xml:space="preserve" text-anchor="middle" x="456" y="-286.5" font-family="Helvetica,sans-Serif" font-size="10.00">groups.hpp</text>
</a>
</g>
</g>
<!-- Node2&#45;&gt;Node18 -->
<g id="edge29_Node000002_Node000018" class="edge">
<title>Node2&#45;&gt;Node18</title>
<g id="a_edge29_Node000002_Node000018"><a xlink:title=" ">
<path fill="none" stroke="#63b8ff" d="M612.96,-337.83C583.77,-329.12 534.01,-314.27 498.34,-303.63"/>
<polygon fill="#63b8ff" stroke="#63b8ff" points="499.79,-300.41 489.21,-300.91 497.79,-307.12 499.79,-300.41"/>
</a>
</g>
</g>
<!-- Node21 -->
<g id="Node000021" class="node">
<title>Node21</title>
<g id="a_Node000021"><a xlink:href="multi__arg_8hpp.html" target="_top" xlink:title=" ">
<polygon fill="white" stroke="#666666" points="791.25,-300 716.75,-300 716.75,-280 791.25,-280 791.25,-300"/>
<text xml:space="preserve" text-anchor="middle" x="754" y="-286.5" font-family="Helvetica,sans-Serif" font-size="10.00">multi_arg.hpp</text>
</a>
</g>
</g>
<!-- Node2&#45;&gt;Node21 -->
<g id="edge42_Node000002_Node000021" class="edge">
<title>Node2&#45;&gt;Node21</title>
<g id="a_edge42_Node000002_Node000021"><a xlink:title=" ">
<path fill="none" stroke="#63b8ff" d="M657.38,-335.59C675.56,-327.21 702.43,-314.8 723.22,-305.21"/>
<polygon fill="#63b8ff" stroke="#63b8ff" points="724.47,-308.48 732.09,-301.11 721.54,-302.13 724.47,-308.48"/>
</a>
</g>
</g>
<!-- Node4 -->
<g id="Node000004" class="node">
<title>Node4</title>
<g id="a_Node000004"><a xlink:href="arg__iface_8hpp.html" target="_top" xlink:title=" ">
<polygon fill="white" stroke="#666666" points="362.25,-188 287.75,-188 287.75,-168 362.25,-168 362.25,-188"/>
<text xml:space="preserve" text-anchor="middle" x="325" y="-174.5" font-family="Helvetica,sans-Serif" font-size="10.00">arg_iface.hpp</text>
</a>
</g>
</g>
<!-- Node3&#45;&gt;Node4 -->
<g id="edge3_Node000003_Node000004" class="edge">
<title>Node3&#45;&gt;Node4</title>
<g id="a_edge3_Node000003_Node000004"><a xlink:title=" ">
<path fill="none" stroke="#63b8ff" d="M612.52,-228.76C561.19,-219.88 441.46,-199.16 373.81,-187.45"/>
<polygon fill="#63b8ff" stroke="#63b8ff" points="374.56,-184.03 364.11,-185.77 373.36,-190.92 374.56,-184.03"/>
</a>
</g>
</g>
<!-- Node3&#45;&gt;Node6 -->
<g id="edge20_Node000003_Node000006" class="edge">
<title>Node3&#45;&gt;Node6</title>
<g id="a_edge20_Node000003_Node000006"><a xlink:title=" ">
<path fill="none" stroke="#63b8ff" d="M649.5,-223.55C669.52,-207.44 707.68,-172.46 719,-132 723.52,-115.84 715.43,-98.32 706.95,-85.54"/>
<polygon fill="#63b8ff" stroke="#63b8ff" points="709.91,-83.67 701.19,-77.65 704.26,-87.8 709.91,-83.67"/>
</a>
</g>
</g>
<!-- Node3&#45;&gt;Node10 -->
<g id="edge21_Node000003_Node000010" class="edge">
<title>Node3&#45;&gt;Node10</title>
<g id="a_edge21_Node000003_Node000010"><a xlink:title=" ">
<path fill="none" stroke="#63b8ff" d="M624.3,-223.62C598.79,-204.79 541.08,-162.18 509.55,-138.91"/>
<polygon fill="#63b8ff" stroke="#63b8ff" points="512.01,-136.38 501.89,-133.25 507.86,-142.01 512.01,-136.38"/>
</a>
</g>
</g>
<!-- Node11 -->
<g id="Node000011" class="node">
<title>Node11</title>
<g id="a_Node000011"><a xlink:title=" ">
<polygon fill="#e0e0e0" stroke="#999999" points="423.88,-76 368.12,-76 368.12,-56 423.88,-56 423.88,-76"/>
<text xml:space="preserve" text-anchor="middle" x="396" y="-62.5" font-family="Helvetica,sans-Serif" font-size="10.00">algorithm</text>
</a>
</g>
</g>
<!-- Node3&#45;&gt;Node11 -->
<g id="edge27_Node000003_Node000011" class="edge">
<title>Node3&#45;&gt;Node11</title>
<g id="a_edge27_Node000003_Node000011"><a xlink:title=" ">
<path fill="none" stroke="#63b8ff" d="M613.1,-223.51C576.14,-208.08 504.05,-174.9 453,-132 436.36,-118.01 420.3,-99.05 409.49,-85.21"/>
<polygon fill="#63b8ff" stroke="#63b8ff" points="412.38,-83.23 403.54,-77.39 406.81,-87.47 412.38,-83.23"/>
</a>
</g>
</g>
<!-- Node3&#45;&gt;Node13 -->
<g id="edge13_Node000003_Node000013" class="edge">
<title>Node3&#45;&gt;Node13</title>
<g id="a_edge13_Node000003_Node000013"><a xlink:title=" ">
<path fill="none" stroke="#63b8ff" d="M637.87,-223.59C638.48,-217.01 639.32,-207.96 640.08,-199.73"/>
<polygon fill="#63b8ff" stroke="#63b8ff" points="643.56,-200.09 641,-189.81 636.59,-199.44 643.56,-200.09"/>
</a>
</g>
</g>
<!-- Node15 -->
<g id="Node000015" class="node">
<title>Node15</title>
<g id="a_Node000015"><a xlink:href="exceptions_8hpp.html" target="_top" xlink:title=" ">
<polygon fill="white" stroke="#666666" points="928,-132 846,-132 846,-112 928,-112 928,-132"/>
<text xml:space="preserve" text-anchor="middle" x="887" y="-118.5" font-family="Helvetica,sans-Serif" font-size="10.00">exceptions.hpp</text>
</a>
</g>
</g>
<!-- Node3&#45;&gt;Node15 -->
<g id="edge17_Node000003_Node000015" class="edge">
<title>Node3&#45;&gt;Node15</title>
<g id="a_edge17_Node000003_Node000015"><a xlink:title=" ">
<path fill="none" stroke="#63b8ff" d="M661.28,-232.64C720.3,-231.2 868.66,-223.99 899,-188 909.62,-175.4 904.55,-156.48 898.05,-142.3"/>
<polygon fill="#63b8ff" stroke="#63b8ff" points="901.2,-140.77 893.5,-133.5 894.98,-143.99 901.2,-140.77"/>
</a>
</g>
</g>
<!-- Node3&#45;&gt;Node17 -->
<g id="edge22_Node000003_Node000017" class="edge">
<title>Node3&#45;&gt;Node17</title>
<g id="a_edge22_Node000003_Node000017"><a xlink:title=" ">
<path fill="none" stroke="#63b8ff" d="M661.32,-226.81C695.24,-218.17 757.46,-202.32 800.93,-191.24"/>
<polygon fill="#63b8ff" stroke="#63b8ff" points="801.53,-194.7 810.36,-188.84 799.8,-187.92 801.53,-194.7"/>
</a>
</g>
</g>
<!-- Node4&#45;&gt;Node5 -->
<g id="edge4_Node000004_Node000005" class="edge">
<title>Node4&#45;&gt;Node5</title>
<g id="a_edge4_Node000004_Node000005"><a xlink:title=" ">
<path fill="none" stroke="#63b8ff" d="M317.51,-167.59C311.71,-160.32 303.51,-150.02 296.45,-141.15"/>
<polygon fill="#63b8ff" stroke="#63b8ff" points="299.31,-139.12 290.35,-133.48 293.84,-143.49 299.31,-139.12"/>
</a>
</g>
</g>
<!-- Node4&#45;&gt;Node6 -->
<g id="edge5_Node000004_Node000006" class="edge">
<title>Node4&#45;&gt;Node6</title>
<g id="a_edge5_Node000004_Node000006"><a xlink:title=" ">
<path fill="none" stroke="#63b8ff" d="M340.14,-167.51C363.48,-153.3 410.06,-126.61 453,-112 520.39,-89.07 602.68,-76.82 651.01,-71.14"/>
<polygon fill="#63b8ff" stroke="#63b8ff" points="651.2,-74.64 660.74,-70.03 650.41,-67.68 651.2,-74.64"/>
</a>
</g>
</g>
<!-- Node4&#45;&gt;Node10 -->
<g id="edge9_Node000004_Node000010" class="edge">
<title>Node4&#45;&gt;Node10</title>
<g id="a_edge9_Node000004_Node000010"><a xlink:title=" ">
<path fill="none" stroke="#63b8ff" d="M353.39,-167.59C380.33,-158.67 420.96,-145.21 450.54,-135.41"/>
<polygon fill="#63b8ff" stroke="#63b8ff" points="451.45,-138.79 459.85,-132.33 449.25,-132.15 451.45,-138.79"/>
</a>
</g>
</g>
<!-- Node7 -->
<g id="Node000007" class="node">
<title>Node7</title>
<g id="a_Node000007"><a xlink:title=" ">
<polygon fill="#e0e0e0" stroke="#999999" points="750.75,-20 697.25,-20 697.25,0 750.75,0 750.75,-20"/>
<text xml:space="preserve" text-anchor="middle" x="724" y="-6.5" font-family="Helvetica,sans-Serif" font-size="10.00">iostream</text>
</a>
</g>
</g>
<!-- Node6&#45;&gt;Node7 -->
<g id="edge6_Node000006_Node000007" class="edge">
<title>Node6&#45;&gt;Node7</title>
<g id="a_edge6_Node000006_Node000007"><a xlink:title=" ">
<path fill="none" stroke="#63b8ff" d="M697.57,-55.59C701.75,-48.55 707.6,-38.67 712.74,-30"/>
<polygon fill="#63b8ff" stroke="#63b8ff" points="715.63,-31.99 717.72,-21.6 709.61,-28.42 715.63,-31.99"/>
</a>
</g>
</g>
<!-- Node8 -->
<g id="Node000008" class="node">
<title>Node8</title>
<g id="a_Node000008"><a xlink:title=" ">
<polygon fill="#e0e0e0" stroke="#999999" points="679,-20 639,-20 639,0 679,0 679,-20"/>
<text xml:space="preserve" text-anchor="middle" x="659" y="-6.5" font-family="Helvetica,sans-Serif" font-size="10.00">string</text>
</a>
</g>
</g>
<!-- Node6&#45;&gt;Node8 -->
<g id="edge7_Node000006_Node000008" class="edge">
<title>Node6&#45;&gt;Node8</title>
<g id="a_edge7_Node000006_Node000008"><a xlink:title=" ">
<path fill="none" stroke="#63b8ff" d="M686.25,-55.59C681.95,-48.55 675.91,-38.67 670.61,-30"/>
<polygon fill="#63b8ff" stroke="#63b8ff" points="673.67,-28.3 665.47,-21.59 667.7,-31.95 673.67,-28.3"/>
</a>
</g>
</g>
<!-- Node9 -->
<g id="Node000009" class="node">
<title>Node9</title>
<g id="a_Node000009"><a xlink:title=" ">
<polygon fill="#e0e0e0" stroke="#999999" points="293.5,-20 250.5,-20 250.5,0 293.5,0 293.5,-20"/>
<text xml:space="preserve" text-anchor="middle" x="272" y="-6.5" font-family="Helvetica,sans-Serif" font-size="10.00">vector</text>
</a>
</g>
</g>
<!-- Node6&#45;&gt;Node9 -->
<g id="edge8_Node000006_Node000009" class="edge">
<title>Node6&#45;&gt;Node9</title>
<g id="a_edge8_Node000006_Node000009"><a xlink:title=" ">
<path fill="none" stroke="#63b8ff" d="M662.13,-61.16C585.84,-51.35 384.22,-25.43 304.81,-15.22"/>
<polygon fill="#63b8ff" stroke="#63b8ff" points="305.45,-11.77 295.08,-13.97 304.55,-18.71 305.45,-11.77"/>
</a>
</g>
</g>
<!-- Node10&#45;&gt;Node6 -->
<g id="edge10_Node000010_Node000006" class="edge">
<title>Node10&#45;&gt;Node6</title>
<g id="a_edge10_Node000010_Node000006"><a xlink:title=" ">
<path fill="none" stroke="#63b8ff" d="M514.67,-113.94C549.44,-104.74 610.61,-88.54 651.22,-77.79"/>
<polygon fill="#63b8ff" stroke="#63b8ff" points="652.11,-81.18 660.88,-75.24 650.32,-74.41 652.11,-81.18"/>
</a>
</g>
</g>
<!-- Node10&#45;&gt;Node11 -->
<g id="edge11_Node000010_Node000011" class="edge">
<title>Node10&#45;&gt;Node11</title>
<g id="a_edge11_Node000010_Node000011"><a xlink:title=" ">
<path fill="none" stroke="#63b8ff" d="M471.97,-111.59C458.21,-103.51 438.1,-91.71 422.02,-82.27"/>
<polygon fill="#63b8ff" stroke="#63b8ff" points="423.85,-79.29 413.46,-77.25 420.31,-85.33 423.85,-79.29"/>
</a>
</g>
</g>
<!-- Node12 -->
<g id="Node000012" class="node">
<title>Node12</title>
<g id="a_Node000012"><a xlink:title=" ">
<polygon fill="#e0e0e0" stroke="#999999" points="228.88,-76 167.12,-76 167.12,-56 228.88,-56 228.88,-76"/>
<text xml:space="preserve" text-anchor="middle" x="198" y="-62.5" font-family="Helvetica,sans-Serif" font-size="10.00">type_traits</text>
</a>
</g>
</g>
<!-- Node10&#45;&gt;Node12 -->
<g id="edge12_Node000010_Node000012" class="edge">
<title>Node10&#45;&gt;Node12</title>
<g id="a_edge12_Node000010_Node000012"><a xlink:title=" ">
<path fill="none" stroke="#63b8ff" d="M461.24,-116.02C410.65,-106.6 300.67,-86.12 240.1,-74.84"/>
<polygon fill="#63b8ff" stroke="#63b8ff" points="240.99,-71.45 230.52,-73.06 239.71,-78.33 240.99,-71.45"/>
</a>
</g>
</g>
<!-- Node13&#45;&gt;Node6 -->
<g id="edge15_Node000013_Node000006" class="edge">
<title>Node13&#45;&gt;Node6</title>
<g id="a_edge15_Node000013_Node000006"><a xlink:title=" ">
<path fill="none" stroke="#63b8ff" d="M643.71,-167.84C646.34,-154.94 652.01,-130.9 661,-112 665.41,-102.72 671.64,-93.24 677.35,-85.39"/>
<polygon fill="#63b8ff" stroke="#63b8ff" points="679.96,-87.74 683.23,-77.66 674.39,-83.5 679.96,-87.74"/>
</a>
</g>
</g>
<!-- Node13&#45;&gt;Node10 -->
<g id="edge16_Node000013_Node000010" class="edge">
<title>Node13&#45;&gt;Node10</title>
<g id="a_edge16_Node000013_Node000010"><a xlink:title=" ">
<path fill="none" stroke="#63b8ff" d="M615.18,-167.59C590.3,-158.87 553.04,-145.81 525.28,-136.07"/>
<polygon fill="#63b8ff" stroke="#63b8ff" points="526.8,-132.9 516.2,-132.89 524.48,-139.5 526.8,-132.9"/>
</a>
</g>
</g>
<!-- Node14 -->
<g id="Node000014" class="node">
<title>Node14</title>
<g id="a_Node000014"><a xlink:title=" ">
<polygon fill="#e0e0e0" stroke="#999999" points="709.62,-132 670.38,-132 670.38,-112 709.62,-112 709.62,-132"/>
<text xml:space="preserve" text-anchor="middle" x="690" y="-118.5" font-family="Helvetica,sans-Serif" font-size="10.00">utility</text>
</a>
</g>
</g>
<!-- Node13&#45;&gt;Node14 -->
<g id="edge14_Node000013_Node000014" class="edge">
<title>Node13&#45;&gt;Node14</title>
<g id="a_edge14_Node000013_Node000014"><a xlink:title=" ">
<path fill="none" stroke="#63b8ff" d="M650.36,-167.59C656.9,-160.24 666.18,-149.8 674.12,-140.87"/>
<polygon fill="#63b8ff" stroke="#63b8ff" points="676.7,-143.23 680.73,-133.43 671.47,-138.58 676.7,-143.23"/>
</a>
</g>
</g>
<!-- Node15&#45;&gt;Node6 -->
<g id="edge19_Node000015_Node000006" class="edge">
<title>Node15&#45;&gt;Node6</title>
<g id="a_edge19_Node000015_Node000006"><a xlink:title=" ">
<path fill="none" stroke="#63b8ff" d="M853.03,-111.59C819.56,-102.32 768.38,-88.15 732.73,-78.28"/>
<polygon fill="#63b8ff" stroke="#63b8ff" points="733.78,-74.94 723.21,-75.64 731.91,-81.68 733.78,-74.94"/>
</a>
</g>
</g>
<!-- Node16 -->
<g id="Node000016" class="node">
<title>Node16</title>
<g id="a_Node000016"><a xlink:title=" ">
<polygon fill="#e0e0e0" stroke="#999999" points="916.38,-76 857.62,-76 857.62,-56 916.38,-56 916.38,-76"/>
<text xml:space="preserve" text-anchor="middle" x="887" y="-62.5" font-family="Helvetica,sans-Serif" font-size="10.00">stdexcept</text>
</a>
</g>
</g>
<!-- Node15&#45;&gt;Node16 -->
<g id="edge18_Node000015_Node000016" class="edge">
<title>Node15&#45;&gt;Node16</title>
<g id="a_edge18_Node000015_Node000016"><a xlink:title=" ">
<path fill="none" stroke="#63b8ff" d="M887,-111.59C887,-105.01 887,-95.96 887,-87.73"/>
<polygon fill="#63b8ff" stroke="#63b8ff" points="890.5,-87.81 887,-77.81 883.5,-87.81 890.5,-87.81"/>
</a>
</g>
</g>
<!-- Node17&#45;&gt;Node6 -->
<g id="edge24_Node000017_Node000006" class="edge">
<title>Node17&#45;&gt;Node6</title>
<g id="a_edge24_Node000017_Node000006"><a xlink:title=" ">
<path fill="none" stroke="#63b8ff" d="M843.27,-167.88C834.26,-154.17 815.55,-128.11 794,-112 775.43,-98.11 751.9,-87.37 732.12,-79.87"/>
<polygon fill="#63b8ff" stroke="#63b8ff" points="733.59,-76.68 722.99,-76.55 731.2,-83.26 733.59,-76.68"/>
</a>
</g>
</g>
<!-- Node17&#45;&gt;Node10 -->
<g id="edge25_Node000017_Node000010" class="edge">
<title>Node17&#45;&gt;Node10</title>
<g id="a_edge25_Node000017_Node000010"><a xlink:title=" ">
<path fill="none" stroke="#63b8ff" d="M807.94,-170.86C737.36,-160.3 594.07,-138.87 525.8,-128.65"/>
<polygon fill="#63b8ff" stroke="#63b8ff" points="526.64,-125.24 516.23,-127.22 525.6,-132.16 526.64,-125.24"/>
</a>
</g>
</g>
<!-- Node17&#45;&gt;Node11 -->
<g id="edge26_Node000017_Node000011" class="edge">
<title>Node17&#45;&gt;Node11</title>
<g id="a_edge26_Node000017_Node000011"><a xlink:title=" ">
<path fill="none" stroke="#63b8ff" d="M834.46,-167.73C811.1,-153.32 763.34,-125.77 719,-112 619.94,-81.25 497.25,-71.46 435.48,-68.39"/>
<polygon fill="#63b8ff" stroke="#63b8ff" points="435.98,-64.91 425.83,-67.94 435.66,-71.9 435.98,-64.91"/>
</a>
</g>
</g>
<!-- Node17&#45;&gt;Node15 -->
<g id="edge23_Node000017_Node000015" class="edge">
<title>Node17&#45;&gt;Node15</title>
<g id="a_edge23_Node000017_Node000015"><a xlink:title=" ">
<path fill="none" stroke="#63b8ff" d="M855.62,-167.59C860.69,-160.39 867.84,-150.23 874.03,-141.43"/>
<polygon fill="#63b8ff" stroke="#63b8ff" points="876.69,-143.73 879.59,-133.54 870.97,-139.7 876.69,-143.73"/>
</a>
</g>
</g>
<!-- Node18&#45;&gt;Node6 -->
<g id="edge40_Node000018_Node000006" class="edge">
<title>Node18&#45;&gt;Node6</title>
<g id="a_edge40_Node000018_Node000006"><a xlink:title=" ">
<path fill="none" stroke="#63b8ff" d="M465.84,-279.74C501.82,-245.89 626.63,-128.5 673.77,-84.15"/>
<polygon fill="#63b8ff" stroke="#63b8ff" points="676.13,-86.73 681.02,-77.33 671.33,-81.64 676.13,-86.73"/>
</a>
</g>
</g>
<!-- Node18&#45;&gt;Node11 -->
<g id="edge41_Node000018_Node000011" class="edge">
<title>Node18&#45;&gt;Node11</title>
<g id="a_edge41_Node000018_Node000011"><a xlink:title=" ">
<path fill="none" stroke="#63b8ff" d="M423.75,-281.25C381.8,-269.24 310.18,-241.69 279,-188 274.54,-180.31 275.19,-176.03 279,-168 289.82,-145.17 303.78,-148.4 323,-132 341.81,-115.94 362.87,-97.1 377.51,-83.85"/>
<polygon fill="#63b8ff" stroke="#63b8ff" points="379.55,-86.72 384.6,-77.41 374.85,-81.54 379.55,-86.72"/>
</a>
</g>
</g>
<!-- Node18&#45;&gt;Node19 -->
<g id="edge30_Node000018_Node000019" class="edge">
<title>Node18&#45;&gt;Node19</title>
<g id="a_edge30_Node000018_Node000019"><a xlink:title=" ">
<path fill="none" stroke="#63b8ff" d="M423.7,-282.05C381.97,-273.07 308.75,-257.32 258.61,-246.53"/>
<polygon fill="#63b8ff" stroke="#63b8ff" points="259.65,-243.18 249.14,-244.5 258.18,-250.02 259.65,-243.18"/>
</a>
</g>
</g>
<!-- Node19&#45;&gt;Node4 -->
<g id="edge31_Node000019_Node000004" class="edge">
<title>Node19&#45;&gt;Node4</title>
<g id="a_edge31_Node000019_Node000004"><a xlink:title=" ">
<path fill="none" stroke="#63b8ff" d="M225.9,-223.59C244.63,-215.17 272.36,-202.69 293.72,-193.07"/>
<polygon fill="#63b8ff" stroke="#63b8ff" points="294.87,-196.4 302.55,-189.1 292,-190.01 294.87,-196.4"/>
</a>
</g>
</g>
<!-- Node19&#45;&gt;Node6 -->
<g id="edge33_Node000019_Node000006" class="edge">
<title>Node19&#45;&gt;Node6</title>
<g id="a_edge33_Node000019_Node000006"><a xlink:title=" ">
<path fill="none" stroke="#63b8ff" d="M204.59,-223.58C204.14,-200.41 206.53,-140.48 241,-112 272.25,-86.18 545.39,-72.77 650.77,-68.52"/>
<polygon fill="#63b8ff" stroke="#63b8ff" points="650.82,-72.02 660.67,-68.13 650.54,-65.03 650.82,-72.02"/>
</a>
</g>
</g>
<!-- Node19&#45;&gt;Node9 -->
<g id="edge39_Node000019_Node000009" class="edge">
<title>Node19&#45;&gt;Node9</title>
<g id="a_edge39_Node000019_Node000009"><a xlink:title=" ">
<path fill="none" stroke="#63b8ff" d="M162.03,-228.84C135.35,-223.79 103.01,-212.62 86,-188 66.8,-160.21 71.16,-142.34 86,-112 114.81,-53.09 193.85,-27.23 239.08,-16.97"/>
<polygon fill="#63b8ff" stroke="#63b8ff" points="239.53,-20.45 248.59,-14.95 238.08,-13.61 239.53,-20.45"/>
</a>
</g>
</g>
<!-- Node19&#45;&gt;Node10 -->
<g id="edge34_Node000019_Node000010" class="edge">
<title>Node19&#45;&gt;Node10</title>
<g id="a_edge34_Node000019_Node000010"><a xlink:title=" ">
<path fill="none" stroke="#63b8ff" d="M247.89,-224.38C281.97,-216.82 330.47,-204.47 371,-188 404.79,-174.27 441.13,-152.94 464.19,-138.49"/>
<polygon fill="#63b8ff" stroke="#63b8ff" points="465.95,-141.52 472.51,-133.2 462.2,-135.61 465.95,-141.52"/>
</a>
</g>
</g>
<!-- Node19&#45;&gt;Node11 -->
<g id="edge35_Node000019_Node000011" class="edge">
<title>Node19&#45;&gt;Node11</title>
<g id="a_edge35_Node000019_Node000011"><a xlink:title=" ">
<path fill="none" stroke="#63b8ff" d="M179.45,-223.62C154.06,-212.66 120.55,-192.84 133,-168 173.67,-86.87 293.54,-70.29 356.44,-67.3"/>
<polygon fill="#63b8ff" stroke="#63b8ff" points="356.48,-70.81 366.35,-66.94 356.22,-63.81 356.48,-70.81"/>
</a>
</g>
</g>
<!-- Node19&#45;&gt;Node12 -->
<g id="edge37_Node000019_Node000012" class="edge">
<title>Node19&#45;&gt;Node12</title>
<g id="a_edge37_Node000019_Node000012"><a xlink:title=" ">
<path fill="none" stroke="#63b8ff" d="M162.18,-226.18C139.61,-220.18 113.81,-208.94 100,-188 81.41,-159.8 81.77,-140.43 100,-112 112.42,-92.63 135.5,-81.49 156.15,-75.13"/>
<polygon fill="#63b8ff" stroke="#63b8ff" points="156.8,-78.59 165.51,-72.56 154.94,-71.84 156.8,-78.59"/>
</a>
</g>
</g>
<!-- Node19&#45;&gt;Node14 -->
<g id="edge38_Node000019_Node000014" class="edge">
<title>Node19&#45;&gt;Node14</title>
<g id="a_edge38_Node000019_Node000014"><a xlink:title=" ">
<path fill="none" stroke="#63b8ff" d="M247.15,-223.55C287.63,-214.47 350.5,-200.35 405,-188 497.3,-167.09 606.35,-142.15 658.78,-130.15"/>
<polygon fill="#63b8ff" stroke="#63b8ff" points="659.52,-133.57 668.49,-127.93 657.96,-126.75 659.52,-133.57"/>
</a>
</g>
</g>
<!-- Node19&#45;&gt;Node15 -->
<g id="edge32_Node000019_Node000015" class="edge">
<title>Node19&#45;&gt;Node15</title>
<g id="a_edge32_Node000019_Node000015"><a xlink:title=" ">
<path fill="none" stroke="#63b8ff" d="M247.94,-225.82C320.47,-213.73 471.85,-188.59 600,-168 681.76,-154.86 776.7,-140.07 834.28,-131.14"/>
<polygon fill="#63b8ff" stroke="#63b8ff" points="834.79,-134.61 844.14,-129.62 833.72,-127.69 834.79,-134.61"/>
</a>
</g>
</g>
<!-- Node20 -->
<g id="Node000020" class="node">
<title>Node20</title>
<g id="a_Node000020"><a xlink:title=" ">
<polygon fill="#e0e0e0" stroke="#999999" points="193.62,-188 142.38,-188 142.38,-168 193.62,-168 193.62,-188"/>
<text xml:space="preserve" text-anchor="middle" x="168" y="-174.5" font-family="Helvetica,sans-Serif" font-size="10.00">memory</text>
</a>
</g>
</g>
<!-- Node19&#45;&gt;Node20 -->
<g id="edge36_Node000019_Node000020" class="edge">
<title>Node19&#45;&gt;Node20</title>
<g id="a_edge36_Node000019_Node000020"><a xlink:title=" ">
<path fill="none" stroke="#63b8ff" d="M198.56,-223.59C193.67,-216.47 186.81,-206.45 180.82,-197.72"/>
<polygon fill="#63b8ff" stroke="#63b8ff" points="183.77,-195.82 175.23,-189.55 177.99,-199.77 183.77,-195.82"/>
</a>
</g>
</g>
<!-- Node21&#45;&gt;Node3 -->
<g id="edge43_Node000021_Node000003" class="edge">
<title>Node21&#45;&gt;Node3</title>
<g id="a_edge43_Node000021_Node000003"><a xlink:title=" ">
<path fill="none" stroke="#63b8ff" d="M733.62,-279.59C715.44,-271.21 688.57,-258.8 667.78,-249.21"/>
<polygon fill="#63b8ff" stroke="#63b8ff" points="669.46,-246.13 658.91,-245.11 666.53,-252.48 669.46,-246.13"/>
</a>
</g>
</g>
<!-- Node21&#45;&gt;Node6 -->
<g id="edge46_Node000021_Node000006" class="edge">
<title>Node21&#45;&gt;Node6</title>
<g id="a_edge46_Node000021_Node000006"><a xlink:title=" ">
<path fill="none" stroke="#63b8ff" d="M791.63,-282.46C820.07,-276.14 859.02,-264.44 888,-244 939.13,-207.93 977.05,-160.08 937,-112 911.52,-81.41 795.94,-71.54 733.06,-68.42"/>
<polygon fill="#63b8ff" stroke="#63b8ff" points="733.26,-64.92 723.11,-67.96 732.94,-71.91 733.26,-64.92"/>
</a>
</g>
</g>
<!-- Node21&#45;&gt;Node10 -->
<g id="edge47_Node000021_Node000010" class="edge">
<title>Node21&#45;&gt;Node10</title>
<g id="a_edge47_Node000021_Node000010"><a xlink:title=" ">
<path fill="none" stroke="#63b8ff" d="M751.52,-279.69C744.91,-256.78 724.61,-197.4 685,-168 638.01,-133.12 568.61,-124.59 525.96,-122.88"/>
<polygon fill="#63b8ff" stroke="#63b8ff" points="526.29,-119.39 516.19,-122.6 526.09,-126.38 526.29,-119.39"/>
</a>
</g>
</g>
<!-- Node21&#45;&gt;Node13 -->
<g id="edge44_Node000021_Node000013" class="edge">
<title>Node21&#45;&gt;Node13</title>
<g id="a_edge44_Node000021_Node000013"><a xlink:title=" ">
<path fill="none" stroke="#63b8ff" d="M744.45,-279.62C725.61,-261.11 683.38,-219.65 659.44,-196.13"/>
<polygon fill="#63b8ff" stroke="#63b8ff" points="662.19,-193.93 652.6,-189.42 657.29,-198.92 662.19,-193.93"/>
</a>
</g>
</g>
<!-- Node21&#45;&gt;Node14 -->
<g id="edge49_Node000021_Node000014" class="edge">
<title>Node21&#45;&gt;Node14</title>
<g id="a_edge49_Node000021_Node000014"><a xlink:title=" ">
<path fill="none" stroke="#63b8ff" d="M752.7,-279.6C750.81,-266.84 746.86,-243.39 741,-224 733.21,-198.24 730.26,-191.95 718,-168 713.45,-159.12 707.73,-149.68 702.65,-141.76"/>
<polygon fill="#63b8ff" stroke="#63b8ff" points="705.74,-140.08 697.32,-133.65 699.89,-143.93 705.74,-140.08"/>
</a>
</g>
</g>
<!-- Node21&#45;&gt;Node15 -->
<g id="edge45_Node000021_Node000015" class="edge">
<title>Node21&#45;&gt;Node15</title>
<g id="a_edge45_Node000021_Node000015"><a xlink:title=" ">
<path fill="none" stroke="#63b8ff" d="M785.94,-279.61C824.72,-266.3 888.34,-237.85 916,-188 924.59,-172.52 914.49,-154.02 903.92,-140.72"/>
<polygon fill="#63b8ff" stroke="#63b8ff" points="906.6,-138.46 897.4,-133.21 901.32,-143.06 906.6,-138.46"/>
</a>
</g>
</g>
<!-- Node21&#45;&gt;Node17 -->
<g id="edge48_Node000021_Node000017" class="edge">
<title>Node21&#45;&gt;Node17</title>
<g id="a_edge48_Node000021_Node000017"><a xlink:title=" ">
<path fill="none" stroke="#63b8ff" d="M762.34,-279.75C770.48,-270.69 783.18,-256.48 794,-244 807.72,-228.18 823.09,-209.97 834.09,-196.86"/>
<polygon fill="#63b8ff" stroke="#63b8ff" points="836.53,-199.39 840.27,-189.48 831.16,-194.9 836.53,-199.39"/>
</a>
</g>
</g>
</g>
</svg>
