<?xml version="1.0" encoding="UTF-8" standalone="no"?>
<!DOCTYPE svg PUBLIC "-//W3C//DTD SVG 1.1//EN"
 "http://www.w3.org/Graphics/SVG/1.1/DTD/svg11.dtd">
<!-- Generated by graphviz version 2.38.0 (20140413.2041)
 -->
<!-- Title: command.hpp Pages: 1 -->
<svg width="567pt" height="308pt"
 viewBox="0.00 0.00 566.99 308.00" xmlns="http://www.w3.org/2000/svg" xmlns:xlink="http://www.w3.org/1999/xlink">
<g id="graph0" class="graph" transform="scale(1 1) rotate(0) translate(4 304)">
<title>command.hpp</title>
<!-- Node1 -->
<g id="node1" class="node"><title>Node1</title>
<polygon fill="#bfbfbf" stroke="black" points="225.965,-280.5 225.965,-299.5 302.965,-299.5 302.965,-280.5 225.965,-280.5"/>
<text text-anchor="middle" x="264.465" y="-287.5" font-family="FreeSans" font-size="10.00">command.hpp</text>
</g>
<!-- Node2 -->
<g id="node2" class="node"><title>Node2</title>
<g id="a_node2"><a xlink:href="group__iface_8hpp.html" target="_top" xlink:title="group_iface.hpp">
<polygon fill="none" stroke="black" points="276.965,-224.5 276.965,-243.5 361.965,-243.5 361.965,-224.5 276.965,-224.5"/>
<text text-anchor="middle" x="319.465" y="-231.5" font-family="FreeSans" font-size="10.00">group_iface.hpp</text>
</a>
</g>
</g>
<!-- Node1&#45;&gt;Node2 -->
<g id="edge1" class="edge"><title>Node1&#45;&gt;Node2</title>
<path fill="none" stroke="midnightblue" d="M273.547,-280.083C281.636,-272.141 293.66,-260.335 303.375,-250.797"/>
<polygon fill="midnightblue" stroke="midnightblue" points="305.868,-253.254 310.552,-243.751 300.964,-248.26 305.868,-253.254"/>
</g>
<!-- Node4 -->
<g id="node4" class="node"><title>Node4</title>
<g id="a_node4"><a xlink:href="utils_8hpp.html" target="_top" xlink:title="utils.hpp">
<polygon fill="none" stroke="black" points="336.465,-112.5 336.465,-131.5 388.465,-131.5 388.465,-112.5 336.465,-112.5"/>
<text text-anchor="middle" x="362.465" y="-119.5" font-family="FreeSans" font-size="10.00">utils.hpp</text>
</a>
</g>
</g>
<!-- Node1&#45;&gt;Node4 -->
<g id="edge23" class="edge"><title>Node1&#45;&gt;Node4</title>
<path fill="none" stroke="midnightblue" d="M303.377,-286.579C361.825,-280.603 470.624,-259.877 519.465,-188 524.461,-180.648 524.815,-175.099 519.465,-168 504.952,-148.743 440.42,-135.21 398.741,-128.296"/>
<polygon fill="midnightblue" stroke="midnightblue" points="399.109,-124.811 388.681,-126.682 398,-131.722 399.109,-124.811"/>
</g>
<!-- Node6 -->
<g id="node6" class="node"><title>Node6</title>
<g id="a_node6"><a xlink:href="types_8hpp.html" target="_top" xlink:title="types.hpp">
<polygon fill="none" stroke="black" points="97.9648,-56.5 97.9648,-75.5 154.965,-75.5 154.965,-56.5 97.9648,-56.5"/>
<text text-anchor="middle" x="126.465" y="-63.5" font-family="FreeSans" font-size="10.00">types.hpp</text>
</a>
</g>
</g>
<!-- Node1&#45;&gt;Node6 -->
<g id="edge34" class="edge"><title>Node1&#45;&gt;Node6</title>
<path fill="none" stroke="midnightblue" d="M225.817,-289.523C179.139,-288.372 99.9872,-280.545 44.4648,-244 19.1303,-227.325 14.5485,-216.938 5.46485,-188 -4.93126,-154.881 0.188646,-137.752 23.4648,-112 40.2961,-93.3786 66.217,-82.1093 87.8441,-75.505"/>
<polygon fill="midnightblue" stroke="midnightblue" points="89.0718,-78.7952 97.7431,-72.7076 87.1682,-72.059 89.0718,-78.7952"/>
</g>
<!-- Node12 -->
<g id="node12" class="node"><title>Node12</title>
<g id="a_node12"><a xlink:href="enums_8hpp.html" target="_top" xlink:title="enums.hpp">
<polygon fill="none" stroke="black" points="444.965,-112.5 444.965,-131.5 507.965,-131.5 507.965,-112.5 444.965,-112.5"/>
<text text-anchor="middle" x="476.465" y="-119.5" font-family="FreeSans" font-size="10.00">enums.hpp</text>
</a>
</g>
</g>
<!-- Node1&#45;&gt;Node12 -->
<g id="edge33" class="edge"><title>Node1&#45;&gt;Node12</title>
<path fill="none" stroke="midnightblue" d="M302.989,-288.402C349.229,-286.121 427.746,-277.156 485.465,-244 520.524,-223.861 553.4,-204.236 535.465,-168 528.862,-154.659 516.2,-144.194 504.294,-136.726"/>
<polygon fill="midnightblue" stroke="midnightblue" points="505.856,-133.587 495.449,-131.602 502.347,-139.643 505.856,-133.587"/>
</g>
<!-- Node17 -->
<g id="node17" class="node"><title>Node17</title>
<g id="a_node17"><a xlink:href="context_8hpp.html" target="_top" xlink:title="context.hpp">
<polygon fill="none" stroke="black" points="53.4648,-224.5 53.4648,-243.5 119.465,-243.5 119.465,-224.5 53.4648,-224.5"/>
<text text-anchor="middle" x="86.4648" y="-231.5" font-family="FreeSans" font-size="10.00">context.hpp</text>
</a>
</g>
</g>
<!-- Node1&#45;&gt;Node17 -->
<g id="edge24" class="edge"><title>Node1&#45;&gt;Node17</title>
<path fill="none" stroke="midnightblue" d="M236.26,-280.444C206.055,-271.28 157.953,-256.688 124.435,-246.519"/>
<polygon fill="midnightblue" stroke="midnightblue" points="125.123,-243.07 114.538,-243.516 123.091,-249.769 125.123,-243.07"/>
</g>
<!-- Node18 -->
<g id="node18" class="node"><title>Node18</title>
<g id="a_node18"><a xlink:href="value__utils_8hpp.html" target="_top" xlink:title="value_utils.hpp">
<polygon fill="none" stroke="black" points="154.465,-168.5 154.465,-187.5 234.465,-187.5 234.465,-168.5 154.465,-168.5"/>
<text text-anchor="middle" x="194.465" y="-175.5" font-family="FreeSans" font-size="10.00">value_utils.hpp</text>
</a>
</g>
</g>
<!-- Node1&#45;&gt;Node18 -->
<g id="edge28" class="edge"><title>Node1&#45;&gt;Node18</title>
<path fill="none" stroke="midnightblue" d="M258.972,-280.368C247.471,-262.296 220.668,-220.176 205.479,-196.307"/>
<polygon fill="midnightblue" stroke="midnightblue" points="208.254,-194.149 199.932,-187.591 202.348,-197.907 208.254,-194.149"/>
</g>
<!-- Node3 -->
<g id="node3" class="node"><title>Node3</title>
<g id="a_node3"><a xlink:href="arg__iface_8hpp.html" target="_top" xlink:title="arg_iface.hpp">
<polygon fill="none" stroke="black" points="436.465,-168.5 436.465,-187.5 510.465,-187.5 510.465,-168.5 436.465,-168.5"/>
<text text-anchor="middle" x="473.465" y="-175.5" font-family="FreeSans" font-size="10.00">arg_iface.hpp</text>
</a>
</g>
</g>
<!-- Node2&#45;&gt;Node3 -->
<g id="edge2" class="edge"><title>Node2&#45;&gt;Node3</title>
<path fill="none" stroke="midnightblue" d="M343.867,-224.444C369.661,-215.399 410.541,-201.064 439.483,-190.916"/>
<polygon fill="midnightblue" stroke="midnightblue" points="440.899,-194.128 449.177,-187.516 438.582,-187.523 440.899,-194.128"/>
</g>
<!-- Node2&#45;&gt;Node4 -->
<g id="edge13" class="edge"><title>Node2&#45;&gt;Node4</title>
<path fill="none" stroke="midnightblue" d="M322.839,-224.368C329.841,-206.456 346.077,-164.923 355.449,-140.948"/>
<polygon fill="midnightblue" stroke="midnightblue" points="358.725,-142.179 359.106,-131.591 352.206,-139.631 358.725,-142.179"/>
</g>
<!-- Node2&#45;&gt;Node6 -->
<g id="edge17" class="edge"><title>Node2&#45;&gt;Node6</title>
<path fill="none" stroke="midnightblue" d="M276.83,-230.035C236.494,-225.645 175.452,-214.789 129.465,-188 94.1004,-167.399 61.0021,-149.471 77.4648,-112 82.8548,-99.732 93.423,-89.3414 103.369,-81.6461"/>
<polygon fill="midnightblue" stroke="midnightblue" points="105.716,-84.2697 111.803,-75.598 101.637,-78.5811 105.716,-84.2697"/>
</g>
<!-- Node9 -->
<g id="node9" class="node"><title>Node9</title>
<polygon fill="none" stroke="#bfbfbf" points="397.965,-0.5 397.965,-19.5 440.965,-19.5 440.965,-0.5 397.965,-0.5"/>
<text text-anchor="middle" x="419.465" y="-7.5" font-family="FreeSans" font-size="10.00">vector</text>
</g>
<!-- Node2&#45;&gt;Node9 -->
<g id="edge18" class="edge"><title>Node2&#45;&gt;Node9</title>
<path fill="none" stroke="midnightblue" d="M362.084,-230.372C418.923,-225.875 514.91,-214.484 536.465,-188 573.651,-142.312 560.705,-102.442 524.465,-56 506.716,-33.2543 475.233,-21.8282 451.356,-16.2018"/>
<polygon fill="midnightblue" stroke="midnightblue" points="451.835,-12.7253 441.325,-14.0671 450.378,-19.572 451.835,-12.7253"/>
</g>
<!-- Node10 -->
<g id="node10" class="node"><title>Node10</title>
<polygon fill="none" stroke="#bfbfbf" points="274.465,-56.5 274.465,-75.5 330.465,-75.5 330.465,-56.5 274.465,-56.5"/>
<text text-anchor="middle" x="302.465" y="-63.5" font-family="FreeSans" font-size="10.00">algorithm</text>
</g>
<!-- Node2&#45;&gt;Node10 -->
<g id="edge20" class="edge"><title>Node2&#45;&gt;Node10</title>
<path fill="none" stroke="midnightblue" d="M318.551,-224.075C315.875,-197.945 308.017,-121.211 304.367,-85.577"/>
<polygon fill="midnightblue" stroke="midnightblue" points="307.843,-85.1595 303.342,-75.5681 300.879,-85.8727 307.843,-85.1595"/>
</g>
<!-- Node11 -->
<g id="node11" class="node"><title>Node11</title>
<polygon fill="none" stroke="#bfbfbf" points="454.965,-56.5 454.965,-75.5 515.965,-75.5 515.965,-56.5 454.965,-56.5"/>
<text text-anchor="middle" x="485.465" y="-63.5" font-family="FreeSans" font-size="10.00">type_traits</text>
</g>
<!-- Node2&#45;&gt;Node11 -->
<g id="edge19" class="edge"><title>Node2&#45;&gt;Node11</title>
<path fill="none" stroke="midnightblue" d="M362.381,-229.503C415.169,-224.209 500.178,-212.109 519.465,-188 525.793,-180.09 529.732,-150.941 516.465,-112 512.96,-101.712 506.384,-91.6204 500.187,-83.6093"/>
<polygon fill="midnightblue" stroke="midnightblue" points="502.834,-81.3174 493.775,-75.8223 497.43,-85.7669 502.834,-81.3174"/>
</g>
<!-- Node13 -->
<g id="node13" class="node"><title>Node13</title>
<g id="a_node13"><a xlink:href="exceptions_8hpp.html" target="_top" xlink:title="exceptions.hpp">
<polygon fill="none" stroke="black" points="86.4648,-112.5 86.4648,-131.5 166.465,-131.5 166.465,-112.5 86.4648,-112.5"/>
<text text-anchor="middle" x="126.465" y="-119.5" font-family="FreeSans" font-size="10.00">exceptions.hpp</text>
</a>
</g>
</g>
<!-- Node2&#45;&gt;Node13 -->
<g id="edge14" class="edge"><title>Node2&#45;&gt;Node13</title>
<path fill="none" stroke="midnightblue" d="M276.933,-233.292C237.75,-231.235 180.53,-221.984 145.465,-188 133.074,-175.991 128.646,-156.388 127.123,-141.845"/>
<polygon fill="midnightblue" stroke="midnightblue" points="130.591,-141.251 126.427,-131.508 123.607,-141.721 130.591,-141.251"/>
</g>
<!-- Node15 -->
<g id="node15" class="node"><title>Node15</title>
<polygon fill="none" stroke="#bfbfbf" points="20.9648,-168.5 20.9648,-187.5 59.9648,-187.5 59.9648,-168.5 20.9648,-168.5"/>
<text text-anchor="middle" x="40.4648" y="-175.5" font-family="FreeSans" font-size="10.00">utility</text>
</g>
<!-- Node2&#45;&gt;Node15 -->
<g id="edge21" class="edge"><title>Node2&#45;&gt;Node15</title>
<path fill="none" stroke="midnightblue" d="M276.773,-226.185C227.729,-218.119 144.942,-203.776 74.4648,-188 73.0124,-187.675 71.5284,-187.33 70.0318,-186.972"/>
<polygon fill="midnightblue" stroke="midnightblue" points="70.7299,-183.539 60.1782,-184.494 69.0222,-190.327 70.7299,-183.539"/>
</g>
<!-- Node16 -->
<g id="node16" class="node"><title>Node16</title>
<polygon fill="none" stroke="#bfbfbf" points="366.965,-168.5 366.965,-187.5 417.965,-187.5 417.965,-168.5 366.965,-168.5"/>
<text text-anchor="middle" x="392.465" y="-175.5" font-family="FreeSans" font-size="10.00">memory</text>
</g>
<!-- Node2&#45;&gt;Node16 -->
<g id="edge22" class="edge"><title>Node2&#45;&gt;Node16</title>
<path fill="none" stroke="midnightblue" d="M331.194,-224.324C342.302,-216.107 359.207,-203.602 372.448,-193.807"/>
<polygon fill="midnightblue" stroke="midnightblue" points="374.565,-196.595 380.523,-187.834 370.402,-190.967 374.565,-196.595"/>
</g>
<!-- Node3&#45;&gt;Node4 -->
<g id="edge3" class="edge"><title>Node3&#45;&gt;Node4</title>
<path fill="none" stroke="midnightblue" d="M455.631,-168.324C437.749,-159.625 409.99,-146.12 389.419,-136.113"/>
<polygon fill="midnightblue" stroke="midnightblue" points="390.778,-132.882 380.255,-131.655 387.716,-139.177 390.778,-132.882"/>
</g>
<!-- Node3&#45;&gt;Node6 -->
<g id="edge11" class="edge"><title>Node3&#45;&gt;Node6</title>
<path fill="none" stroke="midnightblue" d="M445.44,-168.488C416.021,-159.522 368.439,-144.939 327.465,-132 269.432,-113.674 202.181,-91.7956 162.045,-78.6697"/>
<polygon fill="midnightblue" stroke="midnightblue" points="163.04,-75.3127 152.447,-75.5287 160.863,-81.9655 163.04,-75.3127"/>
</g>
<!-- Node3&#45;&gt;Node12 -->
<g id="edge12" class="edge"><title>Node3&#45;&gt;Node12</title>
<path fill="none" stroke="midnightblue" d="M473.96,-168.083C474.353,-161.006 474.917,-150.861 475.41,-141.986"/>
<polygon fill="midnightblue" stroke="midnightblue" points="478.918,-141.93 475.979,-131.751 471.929,-141.542 478.918,-141.93"/>
</g>
<!-- Node5 -->
<g id="node5" class="node"><title>Node5</title>
<polygon fill="none" stroke="#bfbfbf" points="348.465,-56.5 348.465,-75.5 388.465,-75.5 388.465,-56.5 348.465,-56.5"/>
<text text-anchor="middle" x="368.465" y="-63.5" font-family="FreeSans" font-size="10.00">regex</text>
</g>
<!-- Node4&#45;&gt;Node5 -->
<g id="edge4" class="edge"><title>Node4&#45;&gt;Node5</title>
<path fill="none" stroke="midnightblue" d="M363.456,-112.083C364.251,-104.927 365.394,-94.6353 366.388,-85.6911"/>
<polygon fill="midnightblue" stroke="midnightblue" points="369.867,-86.0765 367.493,-75.7511 362.91,-85.3034 369.867,-86.0765"/>
</g>
<!-- Node4&#45;&gt;Node6 -->
<g id="edge5" class="edge"><title>Node4&#45;&gt;Node6</title>
<path fill="none" stroke="midnightblue" d="M336.184,-115.107C300.023,-106.981 232.636,-91.7763 165.06,-76.1217"/>
<polygon fill="midnightblue" stroke="midnightblue" points="165.624,-72.6597 155.092,-73.8095 164.043,-79.4787 165.624,-72.6597"/>
</g>
<!-- Node4&#45;&gt;Node10 -->
<g id="edge9" class="edge"><title>Node4&#45;&gt;Node10</title>
<path fill="none" stroke="midnightblue" d="M352.825,-112.324C343.955,-104.341 330.59,-92.3128 319.857,-82.6529"/>
<polygon fill="midnightblue" stroke="midnightblue" points="322.055,-79.922 312.28,-75.8339 317.372,-85.1251 322.055,-79.922"/>
</g>
<!-- Node4&#45;&gt;Node11 -->
<g id="edge10" class="edge"><title>Node4&#45;&gt;Node11</title>
<path fill="none" stroke="midnightblue" d="M381.955,-112.444C402.107,-103.596 433.788,-89.6875 456.796,-79.5865"/>
<polygon fill="midnightblue" stroke="midnightblue" points="458.317,-82.7411 466.066,-75.5164 455.503,-76.3316 458.317,-82.7411"/>
</g>
<!-- Node7 -->
<g id="node7" class="node"><title>Node7</title>
<polygon fill="none" stroke="#bfbfbf" points="74.4648,-0.5 74.4648,-19.5 114.465,-19.5 114.465,-0.5 74.4648,-0.5"/>
<text text-anchor="middle" x="94.4648" y="-7.5" font-family="FreeSans" font-size="10.00">string</text>
</g>
<!-- Node6&#45;&gt;Node7 -->
<g id="edge6" class="edge"><title>Node6&#45;&gt;Node7</title>
<path fill="none" stroke="midnightblue" d="M121.181,-56.083C116.754,-48.6127 110.302,-37.7244 104.847,-28.5199"/>
<polygon fill="midnightblue" stroke="midnightblue" points="107.76,-26.5697 99.6507,-19.7511 101.738,-30.1383 107.76,-26.5697"/>
</g>
<!-- Node8 -->
<g id="node8" class="node"><title>Node8</title>
<polygon fill="none" stroke="#bfbfbf" points="132.965,-0.5 132.965,-19.5 185.965,-19.5 185.965,-0.5 132.965,-0.5"/>
<text text-anchor="middle" x="159.465" y="-7.5" font-family="FreeSans" font-size="10.00">iostream</text>
</g>
<!-- Node6&#45;&gt;Node8 -->
<g id="edge7" class="edge"><title>Node6&#45;&gt;Node8</title>
<path fill="none" stroke="midnightblue" d="M131.914,-56.083C136.479,-48.6127 143.133,-37.7244 148.758,-28.5199"/>
<polygon fill="midnightblue" stroke="midnightblue" points="151.889,-30.109 154.117,-19.7511 145.916,-26.4588 151.889,-30.109"/>
</g>
<!-- Node6&#45;&gt;Node9 -->
<g id="edge8" class="edge"><title>Node6&#45;&gt;Node9</title>
<path fill="none" stroke="midnightblue" d="M155.059,-58.0404C158.227,-57.3252 161.411,-56.6306 164.465,-56 244.484,-39.4779 339.417,-23.7334 387.751,-15.9906"/>
<polygon fill="midnightblue" stroke="midnightblue" points="388.568,-19.4048 397.892,-14.3743 387.466,-12.4921 388.568,-19.4048"/>
</g>
<!-- Node13&#45;&gt;Node6 -->
<g id="edge16" class="edge"><title>Node13&#45;&gt;Node6</title>
<path fill="none" stroke="midnightblue" d="M126.465,-112.083C126.465,-105.006 126.465,-94.8611 126.465,-85.9865"/>
<polygon fill="midnightblue" stroke="midnightblue" points="129.965,-85.751 126.465,-75.7511 122.965,-85.7511 129.965,-85.751"/>
</g>
<!-- Node14 -->
<g id="node14" class="node"><title>Node14</title>
<polygon fill="none" stroke="#bfbfbf" points="173.465,-56.5 173.465,-75.5 231.465,-75.5 231.465,-56.5 173.465,-56.5"/>
<text text-anchor="middle" x="202.465" y="-63.5" font-family="FreeSans" font-size="10.00">stdexcept</text>
</g>
<!-- Node13&#45;&gt;Node14 -->
<g id="edge15" class="edge"><title>Node13&#45;&gt;Node14</title>
<path fill="none" stroke="midnightblue" d="M138.676,-112.324C150.241,-104.107 167.84,-91.6017 181.626,-81.8069"/>
<polygon fill="midnightblue" stroke="midnightblue" points="183.907,-84.4791 190.032,-75.8339 179.853,-78.7729 183.907,-84.4791"/>
</g>
<!-- Node17&#45;&gt;Node4 -->
<g id="edge26" class="edge"><title>Node17&#45;&gt;Node4</title>
<path fill="none" stroke="midnightblue" d="M119.652,-225.745C151.93,-218.167 202.021,-205.013 243.465,-188 278.683,-173.543 316.894,-151.412 340.262,-137.072"/>
<polygon fill="midnightblue" stroke="midnightblue" points="342.38,-139.877 349.029,-131.629 338.687,-133.93 342.38,-139.877"/>
</g>
<!-- Node17&#45;&gt;Node6 -->
<g id="edge27" class="edge"><title>Node17&#45;&gt;Node6</title>
<path fill="none" stroke="midnightblue" d="M59.183,-224.453C42.1708,-217.548 21.6397,-205.971 11.4648,-188 7.0853,-180.265 9.12602,-176.576 11.4648,-168 19.066,-140.129 23.7272,-132.113 44.4648,-112 58.6918,-98.2018 77.991,-87.3322 94.2924,-79.7349"/>
<polygon fill="midnightblue" stroke="midnightblue" points="95.7715,-82.9077 103.483,-75.6425 92.9241,-76.513 95.7715,-82.9077"/>
</g>
<!-- Node17&#45;&gt;Node15 -->
<g id="edge25" class="edge"><title>Node17&#45;&gt;Node15</title>
<path fill="none" stroke="midnightblue" d="M78.8689,-224.083C72.2374,-216.298 62.4439,-204.801 54.4067,-195.367"/>
<polygon fill="midnightblue" stroke="midnightblue" points="57.0685,-193.094 47.9195,-187.751 51.7398,-197.633 57.0685,-193.094"/>
</g>
<!-- Node18&#45;&gt;Node4 -->
<g id="edge29" class="edge"><title>Node18&#45;&gt;Node4</title>
<path fill="none" stroke="midnightblue" d="M221.085,-168.444C249.554,-159.293 294.867,-144.728 326.496,-134.561"/>
<polygon fill="midnightblue" stroke="midnightblue" points="327.797,-137.82 336.246,-131.428 325.654,-131.156 327.797,-137.82"/>
</g>
<!-- Node18&#45;&gt;Node6 -->
<g id="edge31" class="edge"><title>Node18&#45;&gt;Node6</title>
<path fill="none" stroke="midnightblue" d="M193.452,-168.402C191.599,-155.359 186.761,-130.173 175.465,-112 168.202,-100.316 157.09,-89.7631 147.283,-81.818"/>
<polygon fill="midnightblue" stroke="midnightblue" points="149.19,-78.869 139.131,-75.5443 144.921,-84.4167 149.19,-78.869"/>
</g>
<!-- Node18&#45;&gt;Node10 -->
<g id="edge32" class="edge"><title>Node18&#45;&gt;Node10</title>
<path fill="none" stroke="midnightblue" d="M202.939,-168.368C221.078,-149.894 263.887,-106.293 287.008,-82.7436"/>
<polygon fill="midnightblue" stroke="midnightblue" points="289.521,-85.1792 294.03,-75.5914 284.526,-80.275 289.521,-85.1792"/>
</g>
<!-- Node18&#45;&gt;Node13 -->
<g id="edge30" class="edge"><title>Node18&#45;&gt;Node13</title>
<path fill="none" stroke="midnightblue" d="M183.539,-168.324C173.29,-160.185 157.744,-147.839 145.464,-138.087"/>
<polygon fill="midnightblue" stroke="midnightblue" points="147.597,-135.312 137.589,-131.834 143.244,-140.794 147.597,-135.312"/>
</g>
</g>
</svg>
