<?xml version="1.0" encoding="UTF-8" standalone="no"?>
<!DOCTYPE svg PUBLIC "-//W3C//DTD SVG 1.1//EN"
 "http://www.w3.org/Graphics/SVG/1.1/DTD/svg11.dtd">
<!-- Generated by graphviz version 14.1.2 (0)
 -->
<!-- Title: command.hpp Pages: 1 -->
<svg width="217pt" height="196pt"
 viewBox="0.00 0.00 217.00 196.00" xmlns="http://www.w3.org/2000/svg" xmlns:xlink="http://www.w3.org/1999/xlink">
<g id="graph0" class="graph" transform="scale(1 1) rotate(0) translate(4 192)">
<title>command.hpp</title>
<!-- Node1 -->
<g id="Node000001" class="node">
<title>Node1</title>
<g id="a_Node000001"><a xlink:title=" ">
<polygon fill="#999999" stroke="#666666" points="114.5,-188 37,-188 37,-168 114.5,-168 114.5,-188"/>
<text xml:space="preserve" text-anchor="middle" x="75.75" y="-174.5" font-family="Helvetica,sans-Serif" font-size="10.00">command.hpp</text>
</a>
</g>
</g>
<!-- Node2 -->
<g id="Node000002" class="node">
<title>Node2</title>
<g id="a_Node000002"><a xlink:href="api_8hpp.html" target="_top" xlink:title=" ">
<polygon fill="white" stroke="#666666" points="47.5,-132 0,-132 0,-112 47.5,-112 47.5,-132"/>
<text xml:space="preserve" text-anchor="middle" x="23.75" y="-118.5" font-family="Helvetica,sans-Serif" font-size="10.00">api.hpp</text>
</a>
</g>
</g>
<!-- Node1&#45;&gt;Node2 -->
<g id="edge1_Node000001_Node000002" class="edge">
<title>Node1&#45;&gt;Node2</title>
<g id="a_edge1_Node000001_Node000002"><a xlink:title=" ">
<path fill="none" stroke="#63b8ff" d="M53.19,-160.13C43.51,-150.94 33.26,-139.93 27.46,-132.3"/>
<polygon fill="#63b8ff" stroke="#63b8ff" points="50.55,-162.45 60.3,-166.58 55.25,-157.27 50.55,-162.45"/>
</a>
</g>
</g>
<!-- Node3 -->
<g id="Node000003" class="node">
<title>Node3</title>
<g id="a_Node000003"><a xlink:href="cmd__line_8hpp.html" target="_top" xlink:title=" ">
<polygon fill="white" stroke="#666666" points="129.62,-76 55.88,-76 55.88,-56 129.62,-56 129.62,-76"/>
<text xml:space="preserve" text-anchor="middle" x="92.75" y="-62.5" font-family="Helvetica,sans-Serif" font-size="10.00">cmd_line.hpp</text>
</a>
</g>
</g>
<!-- Node1&#45;&gt;Node3 -->
<g id="edge7_Node000001_Node000003" class="edge">
<title>Node1&#45;&gt;Node3</title>
<g id="a_edge7_Node000001_Node000003"><a xlink:title=" ">
<path fill="none" stroke="#63b8ff" d="M78.95,-156.31C82.65,-132.36 88.58,-93.95 91.3,-76.35"/>
<polygon fill="#63b8ff" stroke="#63b8ff" points="75.5,-155.71 77.43,-166.13 82.42,-156.78 75.5,-155.71"/>
</a>
</g>
</g>
<!-- Node5 -->
<g id="Node000005" class="node">
<title>Node5</title>
<g id="a_Node000005"><a xlink:href="help__printer_8hpp.html" target="_top" xlink:title=" ">
<polygon fill="white" stroke="#666666" points="209.25,-20 124.25,-20 124.25,0 209.25,0 209.25,-20"/>
<text xml:space="preserve" text-anchor="middle" x="166.75" y="-6.5" font-family="Helvetica,sans-Serif" font-size="10.00">help_printer.hpp</text>
</a>
</g>
</g>
<!-- Node1&#45;&gt;Node5 -->
<g id="edge10_Node000001_Node000005" class="edge">
<title>Node1&#45;&gt;Node5</title>
<g id="a_edge10_Node000001_Node000005"><a xlink:title=" ">
<path fill="none" stroke="#63b8ff" d="M124.79,-163.4C140.24,-156.57 155.64,-146.54 164.75,-132 187.17,-96.21 175.62,-42.03 169.62,-20.4"/>
<polygon fill="#63b8ff" stroke="#63b8ff" points="123.56,-160.12 115.57,-167.07 126.15,-166.63 123.56,-160.12"/>
</a>
</g>
</g>
<!-- Node6 -->
<g id="Node000006" class="node">
<title>Node6</title>
<g id="a_Node000006"><a xlink:href="help_8hpp.html" target="_top" xlink:title=" ">
<polygon fill="white" stroke="#666666" points="156.12,-132 103.38,-132 103.38,-112 156.12,-112 156.12,-132"/>
<text xml:space="preserve" text-anchor="middle" x="129.75" y="-118.5" font-family="Helvetica,sans-Serif" font-size="10.00">help.hpp</text>
</a>
</g>
</g>
<!-- Node1&#45;&gt;Node6 -->
<g id="edge8_Node000001_Node000006" class="edge">
<title>Node1&#45;&gt;Node6</title>
<g id="a_edge8_Node000001_Node000006"><a xlink:title=" ">
<path fill="none" stroke="#63b8ff" d="M93.18,-159.57C102.25,-150.5 112.97,-139.78 120.45,-132.3"/>
<polygon fill="#63b8ff" stroke="#63b8ff" points="90.82,-156.98 86.23,-166.52 95.77,-161.93 90.82,-156.98"/>
</a>
</g>
</g>
<!-- Node2&#45;&gt;Node1 -->
<g id="edge6_Node000002_Node000001" class="edge">
<title>Node2&#45;&gt;Node1</title>
<g id="a_edge6_Node000002_Node000001"><a xlink:title=" ">
<path fill="none" stroke="#63b8ff" d="M46.47,-140.02C56.05,-149.13 66.17,-160.01 71.96,-167.59"/>
<polygon fill="#63b8ff" stroke="#63b8ff" points="48.83,-137.44 39.07,-133.32 44.13,-142.63 48.83,-137.44"/>
</a>
</g>
</g>
<!-- Node2&#45;&gt;Node3 -->
<g id="edge2_Node000002_Node000003" class="edge">
<title>Node2&#45;&gt;Node3</title>
<g id="a_edge2_Node000002_Node000003"><a xlink:title=" ">
<path fill="none" stroke="#63b8ff" d="M44.6,-104.68C56.48,-95.39 70.92,-84.09 80.87,-76.3"/>
<polygon fill="#63b8ff" stroke="#63b8ff" points="42.68,-101.74 36.96,-110.66 46.99,-107.25 42.68,-101.74"/>
</a>
</g>
</g>
<!-- Node4 -->
<g id="Node000004" class="node">
<title>Node4</title>
<g id="a_Node000004"><a xlink:href="all_8hpp.html" target="_top" xlink:title=" ">
<polygon fill="white" stroke="#666666" points="106,-20 61.5,-20 61.5,0 106,0 106,-20"/>
<text xml:space="preserve" text-anchor="middle" x="83.75" y="-6.5" font-family="Helvetica,sans-Serif" font-size="10.00">all.hpp</text>
</a>
</g>
</g>
<!-- Node3&#45;&gt;Node4 -->
<g id="edge3_Node000003_Node000004" class="edge">
<title>Node3&#45;&gt;Node4</title>
<g id="a_edge3_Node000003_Node000004"><a xlink:title=" ">
<path fill="none" stroke="#63b8ff" d="M89.32,-44.43C87.93,-36.11 86.41,-26.93 85.3,-20.3"/>
<polygon fill="#63b8ff" stroke="#63b8ff" points="85.84,-44.81 90.93,-54.1 92.74,-43.66 85.84,-44.81"/>
</a>
</g>
</g>
<!-- Node3&#45;&gt;Node5 -->
<g id="edge4_Node000003_Node000005" class="edge">
<title>Node3&#45;&gt;Node5</title>
<g id="a_edge4_Node000003_Node000005"><a xlink:title=" ">
<path fill="none" stroke="#63b8ff" d="M109.15,-48.45C120.85,-39.28 136.37,-28.2 148.48,-20.48"/>
<polygon fill="#63b8ff" stroke="#63b8ff" points="107.09,-45.61 101.55,-54.64 111.51,-51.04 107.09,-45.61"/>
</a>
</g>
</g>
<!-- Node5&#45;&gt;Node3 -->
<g id="edge5_Node000005_Node000003" class="edge">
<title>Node5&#45;&gt;Node3</title>
<g id="a_edge5_Node000005_Node000003"><a xlink:title=" ">
<path fill="none" stroke="#63b8ff" d="M150.45,-27.47C138.7,-36.69 123.07,-47.85 110.91,-55.59"/>
<polygon fill="#63b8ff" stroke="#63b8ff" points="152.54,-30.28 158.08,-21.25 148.12,-24.86 152.54,-30.28"/>
</a>
</g>
</g>
<!-- Node6&#45;&gt;Node3 -->
<g id="edge9_Node000006_Node000003" class="edge">
<title>Node6&#45;&gt;Node3</title>
<g id="a_edge9_Node000006_Node000003"><a xlink:title=" ">
<path fill="none" stroke="#63b8ff" d="M116.84,-102.15C110.84,-93.4 103.98,-83.39 99.12,-76.3"/>
<polygon fill="#63b8ff" stroke="#63b8ff" points="113.91,-104.07 122.45,-110.35 119.68,-100.12 113.91,-104.07"/>
</a>
</g>
</g>
</g>
</svg>
