<?xml version="1.0" encoding="UTF-8" standalone="no"?>
<!DOCTYPE svg PUBLIC "-//W3C//DTD SVG 1.1//EN"
 "http://www.w3.org/Graphics/SVG/1.1/DTD/svg11.dtd">
<!-- Generated by graphviz version 2.40.1 (20161225.0304)
 -->
<!-- Title: command.hpp Pages: 1 -->
<svg width="568pt" height="308pt"
 viewBox="0.00 0.00 567.61 308.00" xmlns="http://www.w3.org/2000/svg" xmlns:xlink="http://www.w3.org/1999/xlink">
<g id="graph0" class="graph" transform="scale(1 1) rotate(0) translate(4 304)">
<title>command.hpp</title>
<!-- Node0 -->
<g id="node1" class="node">
<title>Node0</title>
<polygon fill="#bfbfbf" stroke="#000000" points="233.5423,-280.5 233.5423,-299.5 311.5423,-299.5 311.5423,-280.5 233.5423,-280.5"/>
<text text-anchor="middle" x="272.5423" y="-287.5" font-family="Helvetica,sans-Serif" font-size="10.00" fill="#000000">command.hpp</text>
</g>
<!-- Node1 -->
<g id="node2" class="node">
<title>Node1</title>
<g id="a_node2"><a xlink:href="group__iface_8hpp.html" target="_top" xlink:title="group_iface.hpp">
<polygon fill="none" stroke="#000000" points="275.5423,-224.5 275.5423,-243.5 361.5423,-243.5 361.5423,-224.5 275.5423,-224.5"/>
<text text-anchor="middle" x="318.5423" y="-231.5" font-family="Helvetica,sans-Serif" font-size="10.00" fill="#000000">group_iface.hpp</text>
</a>
</g>
</g>
<!-- Node0&#45;&gt;Node1 -->
<g id="edge1" class="edge">
<title>Node0&#45;&gt;Node1</title>
<path fill="none" stroke="#191970" d="M280.5549,-280.2455C287.019,-272.3761 296.2807,-261.101 304.0406,-251.6542"/>
<polygon fill="#191970" stroke="#191970" points="306.9786,-253.5916 310.6215,-243.6427 301.5695,-249.1484 306.9786,-253.5916"/>
</g>
<!-- Node3 -->
<g id="node4" class="node">
<title>Node3</title>
<g id="a_node4"><a xlink:href="utils_8hpp.html" target="_top" xlink:title="utils.hpp">
<polygon fill="none" stroke="#000000" points="336.0423,-112.5 336.0423,-131.5 389.0423,-131.5 389.0423,-112.5 336.0423,-112.5"/>
<text text-anchor="middle" x="362.5423" y="-119.5" font-family="Helvetica,sans-Serif" font-size="10.00" fill="#000000">utils.hpp</text>
</a>
</g>
</g>
<!-- Node0&#45;&gt;Node3 -->
<g id="edge23" class="edge">
<title>Node0&#45;&gt;Node3</title>
<path fill="none" stroke="#191970" d="M311.6983,-286.8376C368.7107,-279.8856 472.8513,-257.7967 519.5423,-188 524.4846,-180.6118 524.8713,-175.1144 519.5423,-168 505.1006,-148.7199 440.8683,-134.794 399.1682,-127.5917"/>
<polygon fill="#191970" stroke="#191970" points="399.5365,-124.1047 389.0959,-125.9063 398.3811,-131.0087 399.5365,-124.1047"/>
</g>
<!-- Node5 -->
<g id="node6" class="node">
<title>Node5</title>
<g id="a_node6"><a xlink:href="types_8hpp.html" target="_top" xlink:title="types.hpp">
<polygon fill="none" stroke="#000000" points="94.0423,-56.5 94.0423,-75.5 153.0423,-75.5 153.0423,-56.5 94.0423,-56.5"/>
<text text-anchor="middle" x="123.5423" y="-63.5" font-family="Helvetica,sans-Serif" font-size="10.00" fill="#000000">types.hpp</text>
</a>
</g>
</g>
<!-- Node0&#45;&gt;Node5 -->
<g id="edge34" class="edge">
<title>Node0&#45;&gt;Node5</title>
<path fill="none" stroke="#191970" d="M233.4158,-284.648C179.2464,-276.7505 84.6679,-261.0568 54.5423,-244 24.9865,-227.2658 14.9569,-219.6142 2.5423,-188 -6.485,-165.0117 16.0297,-114.8758 18.5423,-112 35.3481,-92.7648 61.6941,-81.2546 83.7905,-74.5583"/>
<polygon fill="#191970" stroke="#191970" points="84.9103,-77.8794 93.5943,-71.8099 83.0207,-71.1392 84.9103,-77.8794"/>
</g>
<!-- Node11 -->
<g id="node12" class="node">
<title>Node11</title>
<g id="a_node12"><a xlink:href="enums_8hpp.html" target="_top" xlink:title="enums.hpp">
<polygon fill="none" stroke="#000000" points="444.0423,-112.5 444.0423,-131.5 509.0423,-131.5 509.0423,-112.5 444.0423,-112.5"/>
<text text-anchor="middle" x="476.5423" y="-119.5" font-family="Helvetica,sans-Serif" font-size="10.00" fill="#000000">enums.hpp</text>
</a>
</g>
</g>
<!-- Node0&#45;&gt;Node11 -->
<g id="edge33" class="edge">
<title>Node0&#45;&gt;Node11</title>
<path fill="none" stroke="#191970" d="M311.9176,-284.5679C365.3189,-276.6909 457.3927,-261.1517 486.5423,-244 521.1806,-223.6187 553.1785,-204.1133 535.5423,-168 529.1382,-154.8865 516.9901,-144.4229 505.3738,-136.8092"/>
<polygon fill="#191970" stroke="#191970" points="507.0634,-133.7405 496.6984,-131.5457 503.4324,-139.7252 507.0634,-133.7405"/>
</g>
<!-- Node16 -->
<g id="node17" class="node">
<title>Node16</title>
<g id="a_node17"><a xlink:href="context_8hpp.html" target="_top" xlink:title="context.hpp">
<polygon fill="none" stroke="#000000" points="63.5423,-224.5 63.5423,-243.5 131.5423,-243.5 131.5423,-224.5 63.5423,-224.5"/>
<text text-anchor="middle" x="97.5423" y="-231.5" font-family="Helvetica,sans-Serif" font-size="10.00" fill="#000000">context.hpp</text>
</a>
</g>
</g>
<!-- Node0&#45;&gt;Node16 -->
<g id="edge24" class="edge">
<title>Node0&#45;&gt;Node16</title>
<path fill="none" stroke="#191970" d="M242.4587,-280.3733C213.3589,-271.0613 169.09,-256.8953 137.1392,-246.671"/>
<polygon fill="#191970" stroke="#191970" points="137.8243,-243.2155 127.2333,-243.5011 135.6908,-249.8824 137.8243,-243.2155"/>
</g>
<!-- Node17 -->
<g id="node18" class="node">
<title>Node17</title>
<g id="a_node18"><a xlink:href="value__utils_8hpp.html" target="_top" xlink:title="value_utils.hpp">
<polygon fill="none" stroke="#000000" points="151.5423,-168.5 151.5423,-187.5 233.5423,-187.5 233.5423,-168.5 151.5423,-168.5"/>
<text text-anchor="middle" x="192.5423" y="-175.5" font-family="Helvetica,sans-Serif" font-size="10.00" fill="#000000">value_utils.hpp</text>
</a>
</g>
</g>
<!-- Node0&#45;&gt;Node17 -->
<g id="edge28" class="edge">
<title>Node0&#45;&gt;Node17</title>
<path fill="none" stroke="#191970" d="M265.7215,-280.4509C252.3194,-261.688 222.3671,-219.7548 205.2265,-195.758"/>
<polygon fill="#191970" stroke="#191970" points="208.0063,-193.6279 199.3458,-187.5249 202.3101,-197.6966 208.0063,-193.6279"/>
</g>
<!-- Node2 -->
<g id="node3" class="node">
<title>Node2</title>
<g id="a_node3"><a xlink:href="arg__iface_8hpp.html" target="_top" xlink:title="arg_iface.hpp">
<polygon fill="none" stroke="#000000" points="436.0423,-168.5 436.0423,-187.5 511.0423,-187.5 511.0423,-168.5 436.0423,-168.5"/>
<text text-anchor="middle" x="473.5423" y="-175.5" font-family="Helvetica,sans-Serif" font-size="10.00" fill="#000000">arg_iface.hpp</text>
</a>
</g>
</g>
<!-- Node1&#45;&gt;Node2 -->
<g id="edge2" class="edge">
<title>Node1&#45;&gt;Node2</title>
<path fill="none" stroke="#191970" d="M345.1877,-224.3733C370.7387,-215.1419 409.4935,-201.1402 437.7332,-190.9375"/>
<polygon fill="#191970" stroke="#191970" points="439.0288,-194.1909 447.2445,-187.5011 436.6502,-187.6074 439.0288,-194.1909"/>
</g>
<!-- Node1&#45;&gt;Node3 -->
<g id="edge13" class="edge">
<title>Node1&#45;&gt;Node3</title>
<path fill="none" stroke="#191970" d="M322.2937,-224.4509C329.5349,-206.0186 345.5609,-165.2254 355.0611,-141.043"/>
<polygon fill="#191970" stroke="#191970" points="358.4014,-142.1122 358.8003,-131.5249 351.8861,-139.5526 358.4014,-142.1122"/>
</g>
<!-- Node1&#45;&gt;Node5 -->
<g id="edge17" class="edge">
<title>Node1&#45;&gt;Node5</title>
<path fill="none" stroke="#191970" d="M275.4596,-230.4775C235.0272,-225.6417 173.9876,-214.3082 127.5423,-188 91.2631,-167.4503 55.5998,-150.0975 72.5423,-112 77.993,-99.7432 88.5022,-89.3755 98.5712,-81.6036"/>
<polygon fill="#191970" stroke="#191970" points="100.7166,-84.3721 106.8049,-75.7012 96.6383,-78.6828 100.7166,-84.3721"/>
</g>
<!-- Node8 -->
<g id="node9" class="node">
<title>Node8</title>
<polygon fill="none" stroke="#bfbfbf" points="397.5423,-.5 397.5423,-19.5 441.5423,-19.5 441.5423,-.5 397.5423,-.5"/>
<text text-anchor="middle" x="419.5423" y="-7.5" font-family="Helvetica,sans-Serif" font-size="10.00" fill="#000000">vector</text>
</g>
<!-- Node1&#45;&gt;Node8 -->
<g id="edge18" class="edge">
<title>Node1&#45;&gt;Node8</title>
<path fill="none" stroke="#191970" d="M361.8496,-231.1577C419.0207,-226.3995 514.9795,-214.5876 536.5423,-188 573.602,-142.3042 562.3044,-102.7183 526.5423,-56 508.5825,-32.538 476.2636,-20.8728 451.8295,-15.1815"/>
<polygon fill="#191970" stroke="#191970" points="452.412,-11.7274 441.9053,-13.0911 450.9692,-18.5771 452.412,-11.7274"/>
</g>
<!-- Node9 -->
<g id="node10" class="node">
<title>Node9</title>
<polygon fill="none" stroke="#bfbfbf" points="273.5423,-56.5 273.5423,-75.5 329.5423,-75.5 329.5423,-56.5 273.5423,-56.5"/>
<text text-anchor="middle" x="301.5423" y="-63.5" font-family="Helvetica,sans-Serif" font-size="10.00" fill="#000000">algorithm</text>
</g>
<!-- Node1&#45;&gt;Node9 -->
<g id="edge20" class="edge">
<title>Node1&#45;&gt;Node9</title>
<path fill="none" stroke="#191970" d="M317.5796,-224.4862C314.8923,-197.9293 307.2661,-122.5651 303.5828,-86.1655"/>
<polygon fill="#191970" stroke="#191970" points="307.0258,-85.4247 302.5368,-75.8279 300.0614,-86.1295 307.0258,-85.4247"/>
</g>
<!-- Node10 -->
<g id="node11" class="node">
<title>Node10</title>
<polygon fill="none" stroke="#bfbfbf" points="455.5423,-56.5 455.5423,-75.5 517.5423,-75.5 517.5423,-56.5 455.5423,-56.5"/>
<text text-anchor="middle" x="486.5423" y="-63.5" font-family="Helvetica,sans-Serif" font-size="10.00" fill="#000000">type_traits</text>
</g>
<!-- Node1&#45;&gt;Node10 -->
<g id="edge19" class="edge">
<title>Node1&#45;&gt;Node10</title>
<path fill="none" stroke="#191970" d="M361.682,-230.3136C414.7431,-224.7815 500.187,-212.2852 519.5423,-188 525.3216,-180.7486 530.7508,-152.6253 517.5423,-112 514.2184,-101.7769 507.8993,-91.7233 501.8289,-83.6349"/>
<polygon fill="#191970" stroke="#191970" points="504.4729,-81.3372 495.493,-75.7146 499.0067,-85.7099 504.4729,-81.3372"/>
</g>
<!-- Node12 -->
<g id="node13" class="node">
<title>Node12</title>
<g id="a_node13"><a xlink:href="exceptions_8hpp.html" target="_top" xlink:title="exceptions.hpp">
<polygon fill="none" stroke="#000000" points="82.0423,-112.5 82.0423,-131.5 165.0423,-131.5 165.0423,-112.5 82.0423,-112.5"/>
<text text-anchor="middle" x="123.5423" y="-119.5" font-family="Helvetica,sans-Serif" font-size="10.00" fill="#000000">exceptions.hpp</text>
</a>
</g>
</g>
<!-- Node1&#45;&gt;Node12 -->
<g id="edge14" class="edge">
<title>Node1&#45;&gt;Node12</title>
<path fill="none" stroke="#191970" d="M275.5354,-227.7288C229.7376,-220.2127 161.3048,-206.3055 142.5423,-188 130.1644,-175.9236 125.7132,-156.3475 124.1801,-141.6452"/>
<polygon fill="#191970" stroke="#191970" points="127.6645,-141.2965 123.4935,-131.5572 120.6807,-141.7718 127.6645,-141.2965"/>
</g>
<!-- Node14 -->
<g id="node15" class="node">
<title>Node14</title>
<polygon fill="none" stroke="#bfbfbf" points="17.5423,-168.5 17.5423,-187.5 57.5423,-187.5 57.5423,-168.5 17.5423,-168.5"/>
<text text-anchor="middle" x="37.5423" y="-175.5" font-family="Helvetica,sans-Serif" font-size="10.00" fill="#000000">utility</text>
</g>
<!-- Node1&#45;&gt;Node14 -->
<g id="edge21" class="edge">
<title>Node1&#45;&gt;Node14</title>
<path fill="none" stroke="#191970" d="M275.4254,-227.3388C225.91,-219.3731 142.3827,-204.9675 71.5423,-188 70.2633,-187.6937 68.9608,-187.3688 67.6478,-187.0305"/>
<polygon fill="#191970" stroke="#191970" points="68.1572,-183.5408 57.5871,-184.2638 66.3011,-190.2902 68.1572,-183.5408"/>
</g>
<!-- Node15 -->
<g id="node16" class="node">
<title>Node15</title>
<polygon fill="none" stroke="#bfbfbf" points="365.5423,-168.5 365.5423,-187.5 417.5423,-187.5 417.5423,-168.5 365.5423,-168.5"/>
<text text-anchor="middle" x="391.5423" y="-175.5" font-family="Helvetica,sans-Serif" font-size="10.00" fill="#000000">memory</text>
</g>
<!-- Node1&#45;&gt;Node15 -->
<g id="edge22" class="edge">
<title>Node1&#45;&gt;Node15</title>
<path fill="none" stroke="#191970" d="M331.2579,-224.2455C342.1443,-215.8943 358.0305,-203.7076 370.7623,-193.9408"/>
<polygon fill="#191970" stroke="#191970" points="373.1683,-196.5063 378.9724,-187.6427 368.9077,-190.9523 373.1683,-196.5063"/>
</g>
<!-- Node2&#45;&gt;Node3 -->
<g id="edge3" class="edge">
<title>Node2&#45;&gt;Node3</title>
<path fill="none" stroke="#191970" d="M454.4607,-168.3733C436.8021,-159.4644 410.337,-146.1127 390.3325,-136.0203"/>
<polygon fill="#191970" stroke="#191970" points="391.8795,-132.8806 381.3748,-131.5011 388.7265,-139.1303 391.8795,-132.8806"/>
</g>
<!-- Node2&#45;&gt;Node5 -->
<g id="edge11" class="edge">
<title>Node2&#45;&gt;Node5</title>
<path fill="none" stroke="#191970" d="M442.8225,-168.4955C413.0612,-159.2619 366.6673,-144.8004 326.5423,-132 269.137,-113.687 202.7629,-92.0124 161.9696,-78.6337"/>
<polygon fill="#191970" stroke="#191970" points="163.013,-75.2925 152.4202,-75.5001 160.8304,-81.9436 163.013,-75.2925"/>
</g>
<!-- Node2&#45;&gt;Node11 -->
<g id="edge12" class="edge">
<title>Node2&#45;&gt;Node11</title>
<path fill="none" stroke="#191970" d="M474.0648,-168.2455C474.4563,-160.9382 475.0051,-150.6944 475.4867,-141.7046"/>
<polygon fill="#191970" stroke="#191970" points="478.9856,-141.8156 476.0257,-131.6427 471.9957,-141.4411 478.9856,-141.8156"/>
</g>
<!-- Node4 -->
<g id="node5" class="node">
<title>Node4</title>
<polygon fill="none" stroke="#bfbfbf" points="348.0423,-56.5 348.0423,-75.5 389.0423,-75.5 389.0423,-56.5 348.0423,-56.5"/>
<text text-anchor="middle" x="368.5423" y="-63.5" font-family="Helvetica,sans-Serif" font-size="10.00" fill="#000000">regex</text>
</g>
<!-- Node3&#45;&gt;Node4 -->
<g id="edge4" class="edge">
<title>Node3&#45;&gt;Node4</title>
<path fill="none" stroke="#191970" d="M363.5874,-112.2455C364.3703,-104.9382 365.4679,-94.6944 366.4311,-85.7046"/>
<polygon fill="#191970" stroke="#191970" points="369.9238,-85.9587 367.5091,-75.6427 362.9636,-85.2129 369.9238,-85.9587"/>
</g>
<!-- Node3&#45;&gt;Node5 -->
<g id="edge5" class="edge">
<title>Node3&#45;&gt;Node5</title>
<path fill="none" stroke="#191970" d="M335.8164,-116.1721C299.0524,-108.093 230.5783,-92.8227 163.303,-76.385"/>
<polygon fill="#191970" stroke="#191970" points="163.9358,-72.9365 153.3897,-73.952 162.2673,-79.7348 163.9358,-72.9365"/>
</g>
<!-- Node3&#45;&gt;Node9 -->
<g id="edge9" class="edge">
<title>Node3&#45;&gt;Node9</title>
<path fill="none" stroke="#191970" d="M351.9169,-112.2455C342.995,-104.0549 330.0542,-92.1749 319.523,-82.5069"/>
<polygon fill="#191970" stroke="#191970" points="321.7794,-79.8271 312.0459,-75.6427 317.0455,-84.9837 321.7794,-79.8271"/>
</g>
<!-- Node3&#45;&gt;Node10 -->
<g id="edge10" class="edge">
<title>Node3&#45;&gt;Node10</title>
<path fill="none" stroke="#191970" d="M383.8586,-112.3733C403.7639,-103.3838 433.6858,-89.8706 456.1023,-79.7471"/>
<polygon fill="#191970" stroke="#191970" points="457.8309,-82.8068 465.5041,-75.5011 454.9498,-76.4272 457.8309,-82.8068"/>
</g>
<!-- Node6 -->
<g id="node7" class="node">
<title>Node6</title>
<polygon fill="none" stroke="#bfbfbf" points="70.0423,-.5 70.0423,-19.5 111.0423,-19.5 111.0423,-.5 70.0423,-.5"/>
<text text-anchor="middle" x="90.5423" y="-7.5" font-family="Helvetica,sans-Serif" font-size="10.00" fill="#000000">string</text>
</g>
<!-- Node5&#45;&gt;Node6 -->
<g id="edge6" class="edge">
<title>Node5&#45;&gt;Node6</title>
<path fill="none" stroke="#191970" d="M117.7941,-56.2455C113.2987,-48.617 106.9174,-37.7881 101.4598,-28.5267"/>
<polygon fill="#191970" stroke="#191970" points="104.3169,-26.4811 96.2246,-19.6427 98.2861,-30.035 104.3169,-26.4811"/>
</g>
<!-- Node7 -->
<g id="node8" class="node">
<title>Node7</title>
<polygon fill="none" stroke="#bfbfbf" points="129.5423,-.5 129.5423,-19.5 183.5423,-19.5 183.5423,-.5 129.5423,-.5"/>
<text text-anchor="middle" x="156.5423" y="-7.5" font-family="Helvetica,sans-Serif" font-size="10.00" fill="#000000">iostream</text>
</g>
<!-- Node5&#45;&gt;Node7 -->
<g id="edge7" class="edge">
<title>Node5&#45;&gt;Node7</title>
<path fill="none" stroke="#191970" d="M129.2904,-56.2455C133.7858,-48.617 140.1671,-37.7881 145.6247,-28.5267"/>
<polygon fill="#191970" stroke="#191970" points="148.7984,-30.035 150.86,-19.6427 142.7676,-26.4811 148.7984,-30.035"/>
</g>
<!-- Node5&#45;&gt;Node8 -->
<g id="edge8" class="edge">
<title>Node5&#45;&gt;Node8</title>
<path fill="none" stroke="#191970" d="M153.3576,-57.9102C156.1177,-57.235 158.8775,-56.5872 161.5423,-56 242.2621,-38.2135 338.3455,-22.5057 387.3365,-14.8836"/>
<polygon fill="#191970" stroke="#191970" points="387.9871,-18.3247 397.3353,-13.3387 386.9182,-11.4068 387.9871,-18.3247"/>
</g>
<!-- Node12&#45;&gt;Node5 -->
<g id="edge16" class="edge">
<title>Node12&#45;&gt;Node5</title>
<path fill="none" stroke="#191970" d="M123.5423,-112.2455C123.5423,-104.9382 123.5423,-94.6944 123.5423,-85.7046"/>
<polygon fill="#191970" stroke="#191970" points="127.0424,-85.6426 123.5423,-75.6427 120.0424,-85.6427 127.0424,-85.6426"/>
</g>
<!-- Node13 -->
<g id="node14" class="node">
<title>Node13</title>
<polygon fill="none" stroke="#bfbfbf" points="171.0423,-56.5 171.0423,-75.5 230.0423,-75.5 230.0423,-56.5 171.0423,-56.5"/>
<text text-anchor="middle" x="200.5423" y="-63.5" font-family="Helvetica,sans-Serif" font-size="10.00" fill="#000000">stdexcept</text>
</g>
<!-- Node12&#45;&gt;Node13 -->
<g id="edge15" class="edge">
<title>Node12&#45;&gt;Node13</title>
<path fill="none" stroke="#191970" d="M136.9546,-112.2455C148.548,-103.814 165.517,-91.4729 179.0101,-81.6598"/>
<polygon fill="#191970" stroke="#191970" points="181.2548,-84.355 187.2836,-75.6427 177.1376,-78.6938 181.2548,-84.355"/>
</g>
<!-- Node16&#45;&gt;Node3 -->
<g id="edge26" class="edge">
<title>Node16&#45;&gt;Node3</title>
<path fill="none" stroke="#191970" d="M131.623,-225.2247C161.4466,-217.0689 205.6469,-203.818 242.5423,-188 277.2678,-173.1123 315.1194,-151.2771 338.8365,-136.8556"/>
<polygon fill="#191970" stroke="#191970" points="340.8046,-139.7542 347.4937,-131.538 337.1409,-133.7896 340.8046,-139.7542"/>
</g>
<!-- Node16&#45;&gt;Node5 -->
<g id="edge27" class="edge">
<title>Node16&#45;&gt;Node5</title>
<path fill="none" stroke="#191970" d="M63.531,-225.8808C43.7707,-219.2276 20.4815,-207.6105 8.5423,-188 3.9198,-180.4075 6.3191,-176.6064 8.5423,-168 15.6573,-140.4562 19.3807,-132.0697 39.5423,-112 53.333,-98.2722 72.0698,-87.4823 88.3484,-79.8131"/>
<polygon fill="#191970" stroke="#191970" points="89.9057,-82.9505 97.593,-75.6596 87.0369,-76.5654 89.9057,-82.9505"/>
</g>
<!-- Node16&#45;&gt;Node14 -->
<g id="edge25" class="edge">
<title>Node16&#45;&gt;Node14</title>
<path fill="none" stroke="#191970" d="M87.0911,-224.2455C78.3154,-216.0549 65.5868,-204.1749 55.2283,-194.5069"/>
<polygon fill="#191970" stroke="#191970" points="57.5724,-191.9072 47.8737,-187.6427 52.7962,-197.0246 57.5724,-191.9072"/>
</g>
<!-- Node17&#45;&gt;Node3 -->
<g id="edge29" class="edge">
<title>Node17&#45;&gt;Node3</title>
<path fill="none" stroke="#191970" d="M221.7663,-168.3733C250.72,-158.8356 295.1325,-144.2056 326.3125,-133.9345"/>
<polygon fill="#191970" stroke="#191970" points="327.5316,-137.218 335.9345,-130.7649 325.3415,-130.5694 327.5316,-137.218"/>
</g>
<!-- Node17&#45;&gt;Node5 -->
<g id="edge31" class="edge">
<title>Node17&#45;&gt;Node5</title>
<path fill="none" stroke="#191970" d="M191.4336,-168.3804C189.5286,-154.9095 184.7022,-130.0533 173.5423,-112 166.4428,-100.5152 155.6954,-90.104 145.9818,-82.1025"/>
<polygon fill="#191970" stroke="#191970" points="147.8623,-79.1298 137.8295,-75.7248 143.5491,-84.6432 147.8623,-79.1298"/>
</g>
<!-- Node17&#45;&gt;Node9 -->
<g id="edge32" class="edge">
<title>Node17&#45;&gt;Node9</title>
<path fill="none" stroke="#191970" d="M201.8355,-168.4509C220.3372,-149.4401 261.9886,-106.6423 285.1767,-82.816"/>
<polygon fill="#191970" stroke="#191970" points="287.8063,-85.1324 292.2725,-75.5249 282.7898,-80.2502 287.8063,-85.1324"/>
</g>
<!-- Node17&#45;&gt;Node12 -->
<g id="edge30" class="edge">
<title>Node17&#45;&gt;Node12</title>
<path fill="none" stroke="#191970" d="M180.5234,-168.2455C170.3324,-159.9746 155.5061,-147.9416 143.5316,-138.2232"/>
<polygon fill="#191970" stroke="#191970" points="145.3936,-135.2268 135.4234,-131.6427 140.9824,-140.662 145.3936,-135.2268"/>
</g>
</g>
</svg>
