<?xml version="1.0" encoding="UTF-8" standalone="no"?>
<!DOCTYPE svg PUBLIC "-//W3C//DTD SVG 1.1//EN"
 "http://www.w3.org/Graphics/SVG/1.1/DTD/svg11.dtd">
<!-- Generated by graphviz version 2.43.0 (0)
 -->
<!-- Title: command.hpp Pages: 1 -->
<svg width="235pt" height="192pt"
 viewBox="0.00 0.00 235.00 192.00" xmlns="http://www.w3.org/2000/svg" xmlns:xlink="http://www.w3.org/1999/xlink">
<g id="graph0" class="graph" transform="scale(1 1) rotate(0) translate(4 188)">
<title>command.hpp</title>
<!-- Node1 -->
<g id="node1" class="node">
<title>Node1</title>
<g id="a_node1"><a xlink:title=" ">
<polygon fill="#bfbfbf" stroke="black" points="124.5,-184 38.5,-184 38.5,-165 124.5,-165 124.5,-184"/>
<text text-anchor="middle" x="81.5" y="-172" font-family="Helvetica,sans-Serif" font-size="10.00">command.hpp</text>
</a>
</g>
</g>
<!-- Node2 -->
<g id="node2" class="node">
<title>Node2</title>
<g id="a_node2"><a xlink:href="api_8hpp.html" target="_top" xlink:title=" ">
<polygon fill="none" stroke="black" points="53,-129 0,-129 0,-110 53,-110 53,-129"/>
<text text-anchor="middle" x="26.5" y="-117" font-family="Helvetica,sans-Serif" font-size="10.00">api.hpp</text>
</a>
</g>
</g>
<!-- Node1&#45;&gt;Node2 -->
<g id="edge1" class="edge">
<title>Node1&#45;&gt;Node2</title>
<path fill="none" stroke="midnightblue" d="M59.58,-158.32C48.74,-148.87 36.82,-137.06 30.35,-129.17"/>
<polygon fill="midnightblue" stroke="midnightblue" points="57.63,-161.26 67.55,-164.98 62.12,-155.89 57.63,-161.26"/>
</g>
<!-- Node3 -->
<g id="node3" class="node">
<title>Node3</title>
<g id="a_node3"><a xlink:href="cmd__line_8hpp.html" target="_top" xlink:title=" ">
<polygon fill="none" stroke="black" points="140.5,-74 58.5,-74 58.5,-55 140.5,-55 140.5,-74"/>
<text text-anchor="middle" x="99.5" y="-62" font-family="Helvetica,sans-Serif" font-size="10.00">cmd_line.hpp</text>
</a>
</g>
</g>
<!-- Node1&#45;&gt;Node3 -->
<g id="edge7" class="edge">
<title>Node1&#45;&gt;Node3</title>
<path fill="none" stroke="midnightblue" d="M84.67,-154.48C88.61,-130.84 95.17,-91.5 98.06,-74.16"/>
<polygon fill="midnightblue" stroke="midnightblue" points="81.16,-154.22 82.97,-164.66 88.07,-155.37 81.16,-154.22"/>
</g>
<!-- Node5 -->
<g id="node5" class="node">
<title>Node5</title>
<g id="a_node5"><a xlink:href="help__printer_8hpp.html" target="_top" xlink:title=" ">
<polygon fill="none" stroke="black" points="227,-19 132,-19 132,0 227,0 227,-19"/>
<text text-anchor="middle" x="179.5" y="-7" font-family="Helvetica,sans-Serif" font-size="10.00">help_printer.hpp</text>
</a>
</g>
</g>
<!-- Node1&#45;&gt;Node5 -->
<g id="edge10" class="edge">
<title>Node1&#45;&gt;Node5</title>
<path fill="none" stroke="midnightblue" d="M133.81,-161.64C151,-155 168.3,-144.75 178.5,-129 201.2,-93.94 188.53,-39.97 182.31,-19.13"/>
<polygon fill="midnightblue" stroke="midnightblue" points="132.59,-158.36 124.31,-164.97 134.91,-164.96 132.59,-158.36"/>
</g>
<!-- Node6 -->
<g id="node6" class="node">
<title>Node6</title>
<g id="a_node6"><a xlink:href="help_8hpp.html" target="_top" xlink:title=" ">
<polygon fill="none" stroke="black" points="169,-129 110,-129 110,-110 169,-110 169,-129"/>
<text text-anchor="middle" x="139.5" y="-117" font-family="Helvetica,sans-Serif" font-size="10.00">help.hpp</text>
</a>
</g>
</g>
<!-- Node1&#45;&gt;Node6 -->
<g id="edge8" class="edge">
<title>Node1&#45;&gt;Node6</title>
<path fill="none" stroke="midnightblue" d="M98.41,-158.04C108.7,-148.64 121.47,-136.98 130.01,-129.17"/>
<polygon fill="midnightblue" stroke="midnightblue" points="95.84,-155.66 90.82,-164.98 100.56,-160.82 95.84,-155.66"/>
</g>
<!-- Node2&#45;&gt;Node1 -->
<g id="edge6" class="edge">
<title>Node2&#45;&gt;Node1</title>
<path fill="none" stroke="midnightblue" d="M48.48,-135.73C59.26,-145.14 71.11,-156.88 77.58,-164.75"/>
<polygon fill="midnightblue" stroke="midnightblue" points="50.46,-132.82 40.54,-129.09 45.97,-138.19 50.46,-132.82"/>
</g>
<!-- Node2&#45;&gt;Node3 -->
<g id="edge2" class="edge">
<title>Node2&#45;&gt;Node3</title>
<path fill="none" stroke="midnightblue" d="M46.64,-103.88C59.78,-94.34 76.48,-82.21 87.56,-74.17"/>
<polygon fill="midnightblue" stroke="midnightblue" points="44.26,-101.28 38.23,-109.98 48.38,-106.94 44.26,-101.28"/>
</g>
<!-- Node4 -->
<g id="node4" class="node">
<title>Node4</title>
<g id="a_node4"><a xlink:href="all_8hpp.html" target="_top" xlink:title=" ">
<polygon fill="none" stroke="black" points="113.5,-19 63.5,-19 63.5,0 113.5,0 113.5,-19"/>
<text text-anchor="middle" x="88.5" y="-7" font-family="Helvetica,sans-Serif" font-size="10.00">all.hpp</text>
</a>
</g>
</g>
<!-- Node3&#45;&gt;Node4 -->
<g id="edge3" class="edge">
<title>Node3&#45;&gt;Node4</title>
<path fill="none" stroke="midnightblue" d="M95.65,-44.95C93.82,-36.15 91.73,-26.06 90.28,-19.09"/>
<polygon fill="midnightblue" stroke="midnightblue" points="92.22,-45.67 97.68,-54.75 99.08,-44.25 92.22,-45.67"/>
</g>
<!-- Node3&#45;&gt;Node5 -->
<g id="edge4" class="edge">
<title>Node3&#45;&gt;Node5</title>
<path fill="none" stroke="midnightblue" d="M115.47,-48.88C128.76,-39.34 147.38,-27.21 161.26,-19.17"/>
<polygon fill="midnightblue" stroke="midnightblue" points="113.18,-46.21 107.24,-54.98 117.35,-51.83 113.18,-46.21"/>
</g>
<!-- Node5&#45;&gt;Node3 -->
<g id="edge5" class="edge">
<title>Node5&#45;&gt;Node3</title>
<path fill="none" stroke="midnightblue" d="M163.28,-25.31C149.92,-34.88 131.29,-47 117.47,-54.98"/>
<polygon fill="midnightblue" stroke="midnightblue" points="165.61,-27.94 171.56,-19.17 161.44,-22.31 165.61,-27.94"/>
</g>
<!-- Node6&#45;&gt;Node3 -->
<g id="edge9" class="edge">
<title>Node6&#45;&gt;Node3</title>
<path fill="none" stroke="midnightblue" d="M126.8,-101.67C119.87,-92.5 111.59,-81.52 105.98,-74.09"/>
<polygon fill="midnightblue" stroke="midnightblue" points="124.08,-103.87 132.89,-109.75 129.66,-99.66 124.08,-103.87"/>
</g>
</g>
</svg>
