<?xml version="1.0" encoding="UTF-8" standalone="no"?>
<!DOCTYPE svg PUBLIC "-//W3C//DTD SVG 1.1//EN"
 "http://www.w3.org/Graphics/SVG/1.1/DTD/svg11.dtd">
<!-- Generated by graphviz version 2.40.1 (20161225.0304)
 -->
<!-- Title: command.hpp Pages: 1 -->
<svg width="207pt" height="252pt"
 viewBox="0.00 0.00 206.50 252.00" xmlns="http://www.w3.org/2000/svg" xmlns:xlink="http://www.w3.org/1999/xlink">
<g id="graph0" class="graph" transform="scale(1 1) rotate(0) translate(4 248)">
<title>command.hpp</title>
<!-- Node18 -->
<g id="node1" class="node">
<title>Node18</title>
<polygon fill="#bfbfbf" stroke="#000000" points="80.5,-224.5 80.5,-243.5 158.5,-243.5 158.5,-224.5 80.5,-224.5"/>
<text text-anchor="middle" x="119.5" y="-231.5" font-family="Helvetica,sans-Serif" font-size="10.00" fill="#000000">command.hpp</text>
</g>
<!-- Node19 -->
<g id="node2" class="node">
<title>Node19</title>
<g id="a_node2"><a xlink:href="cmd__line_8hpp.html" target="_top" xlink:title="cmd_line.hpp">
<polygon fill="none" stroke="#000000" points="82.5,-112.5 82.5,-131.5 156.5,-131.5 156.5,-112.5 82.5,-112.5"/>
<text text-anchor="middle" x="119.5" y="-119.5" font-family="Helvetica,sans-Serif" font-size="10.00" fill="#000000">cmd_line.hpp</text>
</a>
</g>
</g>
<!-- Node18&#45;&gt;Node19 -->
<g id="edge1" class="edge">
<title>Node18&#45;&gt;Node19</title>
<path fill="none" stroke="#191970" d="M110.6307,-214.8842C105.6014,-201.786 100.8033,-183.9614 103.5,-168 105.6974,-154.9939 111.1581,-140.7574 115.089,-131.6198"/>
<polygon fill="#191970" stroke="#191970" points="107.4679,-216.392 114.5749,-224.2495 113.9191,-213.675 107.4679,-216.392"/>
</g>
<!-- Node23 -->
<g id="node6" class="node">
<title>Node23</title>
<g id="a_node6"><a xlink:href="help__printer_8hpp.html" target="_top" xlink:title="help_printer.hpp">
<polygon fill="none" stroke="#000000" points="112.5,-168.5 112.5,-187.5 198.5,-187.5 198.5,-168.5 112.5,-168.5"/>
<text text-anchor="middle" x="155.5" y="-175.5" font-family="Helvetica,sans-Serif" font-size="10.00" fill="#000000">help_printer.hpp</text>
</a>
</g>
</g>
<!-- Node18&#45;&gt;Node23 -->
<g id="edge6" class="edge">
<title>Node18&#45;&gt;Node23</title>
<path fill="none" stroke="#191970" d="M131.3096,-215.6296C137.3144,-206.2887 144.3659,-195.3197 149.3011,-187.6427"/>
<polygon fill="#191970" stroke="#191970" points="128.2342,-213.9411 125.7707,-224.2455 134.1225,-217.7264 128.2342,-213.9411"/>
</g>
<!-- Node20 -->
<g id="node3" class="node">
<title>Node20</title>
<g id="a_node3"><a xlink:href="all_8hpp.html" target="_top" xlink:title="all.hpp">
<polygon fill="none" stroke="#000000" points="0,-56.5 0,-75.5 45,-75.5 45,-56.5 0,-56.5"/>
<text text-anchor="middle" x="22.5" y="-63.5" font-family="Helvetica,sans-Serif" font-size="10.00" fill="#000000">all.hpp</text>
</a>
</g>
</g>
<!-- Node19&#45;&gt;Node20 -->
<g id="edge2" class="edge">
<title>Node19&#45;&gt;Node20</title>
<path fill="none" stroke="#191970" d="M93.5984,-107.0465C76.3391,-97.0824 54.1624,-84.2794 39.2025,-75.6427"/>
<polygon fill="#191970" stroke="#191970" points="92.1936,-110.2768 102.6039,-112.2455 95.6935,-104.2146 92.1936,-110.2768"/>
</g>
<!-- Node21 -->
<g id="node4" class="node">
<title>Node21</title>
<g id="a_node4"><a xlink:href="arg__as__command_8hpp.html" target="_top" xlink:title="arg_as_command.hpp">
<polygon fill="none" stroke="#000000" points="63,-56.5 63,-75.5 176,-75.5 176,-56.5 63,-56.5"/>
<text text-anchor="middle" x="119.5" y="-63.5" font-family="Helvetica,sans-Serif" font-size="10.00" fill="#000000">arg_as_command.hpp</text>
</a>
</g>
</g>
<!-- Node19&#45;&gt;Node21 -->
<g id="edge3" class="edge">
<title>Node19&#45;&gt;Node21</title>
<path fill="none" stroke="#191970" d="M119.5,-102.1575C119.5,-93.155 119.5,-82.9199 119.5,-75.6427"/>
<polygon fill="#191970" stroke="#191970" points="116.0001,-102.2455 119.5,-112.2455 123.0001,-102.2456 116.0001,-102.2455"/>
</g>
<!-- Node22 -->
<g id="node5" class="node">
<title>Node22</title>
<g id="a_node5"><a xlink:href="api_8hpp.html" target="_top" xlink:title="api.hpp">
<polygon fill="none" stroke="#000000" points="137.5,-.5 137.5,-19.5 185.5,-19.5 185.5,-.5 137.5,-.5"/>
<text text-anchor="middle" x="161.5" y="-7.5" font-family="Helvetica,sans-Serif" font-size="10.00" fill="#000000">api.hpp</text>
</a>
</g>
</g>
<!-- Node21&#45;&gt;Node22 -->
<g id="edge4" class="edge">
<title>Node21&#45;&gt;Node22</title>
<path fill="none" stroke="#191970" d="M132.8416,-48.2112C139.9396,-38.7472 148.3903,-27.4797 154.268,-19.6427"/>
<polygon fill="#191970" stroke="#191970" points="130.0159,-46.1455 126.8158,-56.2455 135.6159,-50.3455 130.0159,-46.1455"/>
</g>
<!-- Node22&#45;&gt;Node19 -->
<g id="edge5" class="edge">
<title>Node22&#45;&gt;Node19</title>
<path fill="none" stroke="#191970" d="M175.6485,-28.2176C184.3626,-41.8009 192.4737,-60.5887 184.5,-76 175.7331,-92.9445 157.5298,-104.9878 142.6112,-112.4901"/>
<polygon fill="#191970" stroke="#191970" points="178.3175,-25.9276 169.7096,-19.7507 172.5867,-29.9474 178.3175,-25.9276"/>
</g>
<!-- Node23&#45;&gt;Node19 -->
<g id="edge7" class="edge">
<title>Node23&#45;&gt;Node19</title>
<path fill="none" stroke="#191970" d="M143.6904,-159.6296C137.6856,-150.2887 130.6341,-139.3197 125.6989,-131.6427"/>
<polygon fill="#191970" stroke="#191970" points="140.8775,-161.7264 149.2293,-168.2455 146.7658,-157.9411 140.8775,-161.7264"/>
</g>
</g>
</svg>
