<?xml version="1.0" encoding="UTF-8" standalone="no"?>
<!DOCTYPE svg PUBLIC "-//W3C//DTD SVG 1.1//EN"
 "http://www.w3.org/Graphics/SVG/1.1/DTD/svg11.dtd">
<!-- Generated by graphviz version 2.43.0 (0)
 -->
<!-- Title: context.hpp Pages: 1 -->
<svg width="303pt" height="192pt"
 viewBox="0.00 0.00 302.50 192.00" xmlns="http://www.w3.org/2000/svg" xmlns:xlink="http://www.w3.org/1999/xlink">
<g id="graph0" class="graph" transform="scale(1 1) rotate(0) translate(4 188)">
<title>context.hpp</title>
<!-- Node1 -->
<g id="node1" class="node">
<title>Node1</title>
<g id="a_node1"><a xlink:title=" ">
<polygon fill="#bfbfbf" stroke="black" points="135,-184 61,-184 61,-165 135,-165 135,-184"/>
<text text-anchor="middle" x="98" y="-172" font-family="Helvetica,sans-Serif" font-size="10.00">context.hpp</text>
</a>
</g>
</g>
<!-- Node2 -->
<g id="node2" class="node">
<title>Node2</title>
<g id="a_node2"><a xlink:title=" ">
<polygon fill="none" stroke="#bfbfbf" points="69.5,-129 24.5,-129 24.5,-110 69.5,-110 69.5,-129"/>
<text text-anchor="middle" x="47" y="-117" font-family="Helvetica,sans-Serif" font-size="10.00">utility</text>
</a>
</g>
</g>
<!-- Node1&#45;&gt;Node2 -->
<g id="edge1" class="edge">
<title>Node1&#45;&gt;Node2</title>
<path fill="none" stroke="midnightblue" d="M89.58,-164.75C82.23,-157.11 71.37,-145.82 62.46,-136.56"/>
<polygon fill="midnightblue" stroke="midnightblue" points="64.72,-133.87 55.26,-129.09 59.68,-138.72 64.72,-133.87"/>
</g>
<!-- Node3 -->
<g id="node3" class="node">
<title>Node3</title>
<g id="a_node3"><a xlink:href="utils_8hpp.html" target="_top" xlink:title=" ">
<polygon fill="none" stroke="black" points="197.5,-129 138.5,-129 138.5,-110 197.5,-110 197.5,-129"/>
<text text-anchor="middle" x="168" y="-117" font-family="Helvetica,sans-Serif" font-size="10.00">utils.hpp</text>
</a>
</g>
</g>
<!-- Node1&#45;&gt;Node3 -->
<g id="edge2" class="edge">
<title>Node1&#45;&gt;Node3</title>
<path fill="none" stroke="midnightblue" d="M109.25,-164.98C119.8,-157 135.8,-144.88 148.44,-135.31"/>
<polygon fill="midnightblue" stroke="midnightblue" points="150.69,-138 156.55,-129.17 146.46,-132.42 150.69,-138"/>
</g>
<!-- Node4 -->
<g id="node4" class="node">
<title>Node4</title>
<g id="a_node4"><a xlink:href="types_8hpp.html" target="_top" xlink:title=" ">
<polygon fill="none" stroke="black" points="124.5,-74 59.5,-74 59.5,-55 124.5,-55 124.5,-74"/>
<text text-anchor="middle" x="92" y="-62" font-family="Helvetica,sans-Serif" font-size="10.00">types.hpp</text>
</a>
</g>
</g>
<!-- Node1&#45;&gt;Node4 -->
<g id="edge9" class="edge">
<title>Node1&#45;&gt;Node4</title>
<path fill="none" stroke="midnightblue" d="M97.51,-164.66C96.54,-147.17 94.35,-107.8 93.04,-84.27"/>
<polygon fill="midnightblue" stroke="midnightblue" points="96.53,-83.95 92.48,-74.16 89.54,-84.34 96.53,-83.95"/>
</g>
<!-- Node3&#45;&gt;Node4 -->
<g id="edge3" class="edge">
<title>Node3&#45;&gt;Node4</title>
<path fill="none" stroke="midnightblue" d="M155.79,-109.98C144.22,-101.92 126.62,-89.65 112.84,-80.03"/>
<polygon fill="midnightblue" stroke="midnightblue" points="114.64,-77.02 104.43,-74.17 110.63,-82.76 114.64,-77.02"/>
</g>
<!-- Node8 -->
<g id="node8" class="node">
<title>Node8</title>
<g id="a_node8"><a xlink:title=" ">
<polygon fill="none" stroke="#bfbfbf" points="207,-74 143,-74 143,-55 207,-55 207,-74"/>
<text text-anchor="middle" x="175" y="-62" font-family="Helvetica,sans-Serif" font-size="10.00">algorithm</text>
</a>
</g>
</g>
<!-- Node3&#45;&gt;Node8 -->
<g id="edge7" class="edge">
<title>Node3&#45;&gt;Node8</title>
<path fill="none" stroke="midnightblue" d="M169.16,-109.75C170.07,-102.8 171.39,-92.85 172.54,-84.13"/>
<polygon fill="midnightblue" stroke="midnightblue" points="176.03,-84.46 173.87,-74.09 169.09,-83.54 176.03,-84.46"/>
</g>
<!-- Node9 -->
<g id="node9" class="node">
<title>Node9</title>
<g id="a_node9"><a xlink:title=" ">
<polygon fill="none" stroke="#bfbfbf" points="294.5,-74 225.5,-74 225.5,-55 294.5,-55 294.5,-74"/>
<text text-anchor="middle" x="260" y="-62" font-family="Helvetica,sans-Serif" font-size="10.00">type_traits</text>
</a>
</g>
</g>
<!-- Node3&#45;&gt;Node9 -->
<g id="edge8" class="edge">
<title>Node3&#45;&gt;Node9</title>
<path fill="none" stroke="midnightblue" d="M182.78,-109.98C197.18,-101.69 219.31,-88.94 236.19,-79.22"/>
<polygon fill="midnightblue" stroke="midnightblue" points="238.03,-82.19 244.95,-74.17 234.54,-76.13 238.03,-82.19"/>
</g>
<!-- Node5 -->
<g id="node5" class="node">
<title>Node5</title>
<g id="a_node5"><a xlink:title=" ">
<polygon fill="none" stroke="#bfbfbf" points="44,-19 0,-19 0,0 44,0 44,-19"/>
<text text-anchor="middle" x="22" y="-7" font-family="Helvetica,sans-Serif" font-size="10.00">string</text>
</a>
</g>
</g>
<!-- Node4&#45;&gt;Node5 -->
<g id="edge4" class="edge">
<title>Node4&#45;&gt;Node5</title>
<path fill="none" stroke="midnightblue" d="M80.75,-54.98C70.2,-47 54.2,-34.88 41.56,-25.31"/>
<polygon fill="midnightblue" stroke="midnightblue" points="43.54,-22.42 33.45,-19.17 39.31,-28 43.54,-22.42"/>
</g>
<!-- Node6 -->
<g id="node6" class="node">
<title>Node6</title>
<g id="a_node6"><a xlink:title=" ">
<polygon fill="none" stroke="#bfbfbf" points="122,-19 62,-19 62,0 122,0 122,-19"/>
<text text-anchor="middle" x="92" y="-7" font-family="Helvetica,sans-Serif" font-size="10.00">iostream</text>
</a>
</g>
</g>
<!-- Node4&#45;&gt;Node6 -->
<g id="edge5" class="edge">
<title>Node4&#45;&gt;Node6</title>
<path fill="none" stroke="midnightblue" d="M92,-54.75C92,-47.8 92,-37.85 92,-29.13"/>
<polygon fill="midnightblue" stroke="midnightblue" points="95.5,-29.09 92,-19.09 88.5,-29.09 95.5,-29.09"/>
</g>
<!-- Node7 -->
<g id="node7" class="node">
<title>Node7</title>
<g id="a_node7"><a xlink:title=" ">
<polygon fill="none" stroke="#bfbfbf" points="187.5,-19 140.5,-19 140.5,0 187.5,0 187.5,-19"/>
<text text-anchor="middle" x="164" y="-7" font-family="Helvetica,sans-Serif" font-size="10.00">vector</text>
</a>
</g>
</g>
<!-- Node4&#45;&gt;Node7 -->
<g id="edge6" class="edge">
<title>Node4&#45;&gt;Node7</title>
<path fill="none" stroke="midnightblue" d="M103.57,-54.98C114.42,-47 130.88,-34.88 143.88,-25.31"/>
<polygon fill="midnightblue" stroke="midnightblue" points="146.24,-27.92 152.22,-19.17 142.09,-22.28 146.24,-27.92"/>
</g>
</g>
</svg>
