<?xml version="1.0" encoding="UTF-8" standalone="no"?>
<!DOCTYPE svg PUBLIC "-//W3C//DTD SVG 1.1//EN"
 "http://www.w3.org/Graphics/SVG/1.1/DTD/svg11.dtd">
<!-- Generated by graphviz version 2.38.0 (20140413.2041)
 -->
<!-- Title: context.hpp Pages: 1 -->
<svg width="302pt" height="308pt"
 viewBox="0.00 0.00 302.44 308.00" xmlns="http://www.w3.org/2000/svg" xmlns:xlink="http://www.w3.org/1999/xlink">
<g id="graph0" class="graph" transform="scale(1 1) rotate(0) translate(4 304)">
<title>context.hpp</title>
<!-- Node1 -->
<g id="node1" class="node"><title>Node1</title>
<polygon fill="#bfbfbf" stroke="black" points="124.5,-280.5 124.5,-299.5 192.5,-299.5 192.5,-280.5 124.5,-280.5"/>
<text text-anchor="middle" x="158.5" y="-287.5" font-family="Helvetica,sans-Serif" font-size="10.00">context.hpp</text>
</g>
<!-- Node2 -->
<g id="node2" class="node"><title>Node2</title>
<g id="a_node2"><a xlink:href="arg_8hpp.html" target="_top" xlink:title="arg.hpp">
<polygon fill="none" stroke="black" points="80,-224.5 80,-243.5 129,-243.5 129,-224.5 80,-224.5"/>
<text text-anchor="middle" x="104.5" y="-231.5" font-family="Helvetica,sans-Serif" font-size="10.00">arg.hpp</text>
</a>
</g>
</g>
<!-- Node1&#45;&gt;Node2 -->
<g id="edge1" class="edge"><title>Node1&#45;&gt;Node2</title>
<path fill="none" stroke="midnightblue" d="M142.502,-273.002C132.933,-263.433 121.139,-251.639 113.251,-243.751"/>
<polygon fill="midnightblue" stroke="midnightblue" points="140.037,-275.487 149.583,-280.083 144.987,-270.537 140.037,-275.487"/>
</g>
<!-- Node4 -->
<g id="node4" class="node"><title>Node4</title>
<g id="a_node4"><a xlink:href="cmd__line_8hpp.html" target="_top" xlink:title="cmd_line.hpp">
<polygon fill="none" stroke="black" points="172.5,-56.5 172.5,-75.5 246.5,-75.5 246.5,-56.5 172.5,-56.5"/>
<text text-anchor="middle" x="209.5" y="-63.5" font-family="Helvetica,sans-Serif" font-size="10.00">cmd_line.hpp</text>
</a>
</g>
</g>
<!-- Node1&#45;&gt;Node4 -->
<g id="edge12" class="edge"><title>Node1&#45;&gt;Node4</title>
<path fill="none" stroke="midnightblue" d="M188.459,-276.079C220.442,-260.445 269.363,-230.788 290.5,-188 298.876,-171.045 291.842,-127.588 281.5,-112 270.01,-94.6808 249.335,-82.7886 233.078,-75.5992"/>
<polygon fill="midnightblue" stroke="midnightblue" points="186.679,-273.049 179.127,-280.48 189.665,-279.38 186.679,-273.049"/>
</g>
<!-- Node7 -->
<g id="node7" class="node"><title>Node7</title>
<g id="a_node7"><a xlink:href="multi__arg_8hpp.html" target="_top" xlink:title="multi_arg.hpp">
<polygon fill="none" stroke="black" points="0,-168.5 0,-187.5 75,-187.5 75,-168.5 0,-168.5"/>
<text text-anchor="middle" x="37.5" y="-175.5" font-family="Helvetica,sans-Serif" font-size="10.00">multi_arg.hpp</text>
</a>
</g>
</g>
<!-- Node1&#45;&gt;Node7 -->
<g id="edge11" class="edge"><title>Node1&#45;&gt;Node7</title>
<path fill="none" stroke="midnightblue" d="M122.609,-276.705C105.22,-269.347 85.0163,-258.559 70.5,-244 54.0579,-227.51 44.2035,-201.145 39.9609,-187.619"/>
<polygon fill="midnightblue" stroke="midnightblue" points="121.341,-279.967 131.925,-280.442 123.947,-273.47 121.341,-279.967"/>
</g>
<!-- Node8 -->
<g id="node8" class="node"><title>Node8</title>
<g id="a_node8"><a xlink:href="help_8hpp.html" target="_top" xlink:title="help.hpp">
<polygon fill="none" stroke="black" points="132,-168.5 132,-187.5 185,-187.5 185,-168.5 132,-168.5"/>
<text text-anchor="middle" x="158.5" y="-175.5" font-family="Helvetica,sans-Serif" font-size="10.00">help.hpp</text>
</a>
</g>
</g>
<!-- Node1&#45;&gt;Node8 -->
<g id="edge17" class="edge"><title>Node1&#45;&gt;Node8</title>
<path fill="none" stroke="midnightblue" d="M158.5,-270.348C158.5,-246.254 158.5,-205.308 158.5,-187.591"/>
<polygon fill="midnightblue" stroke="midnightblue" points="155,-270.368 158.5,-280.368 162,-270.369 155,-270.368"/>
</g>
<!-- Node9 -->
<g id="node9" class="node"><title>Node9</title>
<g id="a_node9"><a xlink:href="command_8hpp.html" target="_top" xlink:title="command.hpp">
<polygon fill="none" stroke="black" points="203.5,-168.5 203.5,-187.5 281.5,-187.5 281.5,-168.5 203.5,-168.5"/>
<text text-anchor="middle" x="242.5" y="-175.5" font-family="Helvetica,sans-Serif" font-size="10.00">command.hpp</text>
</a>
</g>
</g>
<!-- Node1&#45;&gt;Node9 -->
<g id="edge13" class="edge"><title>Node1&#45;&gt;Node9</title>
<path fill="none" stroke="midnightblue" d="M171.274,-272.272C189.432,-248.494 222.043,-205.789 235.939,-187.591"/>
<polygon fill="midnightblue" stroke="midnightblue" points="168.379,-270.297 165.091,-280.368 173.942,-274.545 168.379,-270.297"/>
</g>
<!-- Node3 -->
<g id="node3" class="node"><title>Node3</title>
<g id="a_node3"><a xlink:href="api_8hpp.html" target="_top" xlink:title="api.hpp">
<polygon fill="none" stroke="black" points="66.5,-112.5 66.5,-131.5 114.5,-131.5 114.5,-112.5 66.5,-112.5"/>
<text text-anchor="middle" x="90.5" y="-119.5" font-family="Helvetica,sans-Serif" font-size="10.00">api.hpp</text>
</a>
</g>
</g>
<!-- Node2&#45;&gt;Node3 -->
<g id="edge2" class="edge"><title>Node2&#45;&gt;Node3</title>
<path fill="none" stroke="midnightblue" d="M102.126,-214.348C99.0596,-190.254 93.8483,-149.308 91.5935,-131.591"/>
<polygon fill="midnightblue" stroke="midnightblue" points="98.6668,-214.89 103.401,-224.368 105.611,-214.007 98.6668,-214.89"/>
</g>
<!-- Node2&#45;&gt;Node7 -->
<g id="edge7" class="edge"><title>Node2&#45;&gt;Node7</title>
<path fill="none" stroke="midnightblue" d="M85.6652,-217.82C73.6616,-208.145 58.5283,-195.948 48.4606,-187.834"/>
<polygon fill="midnightblue" stroke="midnightblue" points="83.753,-220.774 93.7353,-224.324 88.1457,-215.324 83.753,-220.774"/>
</g>
<!-- Node2&#45;&gt;Node8 -->
<g id="edge9" class="edge"><title>Node2&#45;&gt;Node8</title>
<path fill="none" stroke="midnightblue" d="M120.498,-217.002C130.067,-207.433 141.861,-195.639 149.749,-187.751"/>
<polygon fill="midnightblue" stroke="midnightblue" points="118.013,-214.537 113.417,-224.083 122.963,-219.487 118.013,-214.537"/>
</g>
<!-- Node3&#45;&gt;Node4 -->
<g id="edge3" class="edge"><title>Node3&#45;&gt;Node4</title>
<path fill="none" stroke="midnightblue" d="M118.637,-108.232C140.896,-98.1312 171.356,-84.3091 190.732,-75.5164"/>
<polygon fill="midnightblue" stroke="midnightblue" points="117.016,-105.124 109.356,-112.444 119.909,-111.498 117.016,-105.124"/>
</g>
<!-- Node5 -->
<g id="node5" class="node"><title>Node5</title>
<g id="a_node5"><a xlink:href="all_8hpp.html" target="_top" xlink:title="all.hpp">
<polygon fill="none" stroke="black" points="187,-0.5 187,-19.5 232,-19.5 232,-0.5 187,-0.5"/>
<text text-anchor="middle" x="209.5" y="-7.5" font-family="Helvetica,sans-Serif" font-size="10.00">all.hpp</text>
</a>
</g>
</g>
<!-- Node4&#45;&gt;Node5 -->
<g id="edge4" class="edge"><title>Node4&#45;&gt;Node5</title>
<path fill="none" stroke="midnightblue" d="M209.5,-45.8045C209.5,-36.9102 209.5,-26.7798 209.5,-19.7511"/>
<polygon fill="midnightblue" stroke="midnightblue" points="206,-46.083 209.5,-56.083 213,-46.083 206,-46.083"/>
</g>
<!-- Node6 -->
<g id="node6" class="node"><title>Node6</title>
<g id="a_node6"><a xlink:href="arg__as__command_8hpp.html" target="_top" xlink:title="arg_as_command.hpp">
<polygon fill="none" stroke="black" points="53,-0.5 53,-19.5 166,-19.5 166,-0.5 53,-0.5"/>
<text text-anchor="middle" x="109.5" y="-7.5" font-family="Helvetica,sans-Serif" font-size="10.00">arg_as_command.hpp</text>
</a>
</g>
</g>
<!-- Node4&#45;&gt;Node6 -->
<g id="edge5" class="edge"><title>Node4&#45;&gt;Node6</title>
<path fill="none" stroke="midnightblue" d="M184.412,-51.4526C165.951,-41.4835 141.403,-28.2279 125.527,-19.6545"/>
<polygon fill="midnightblue" stroke="midnightblue" points="182.971,-54.6521 193.433,-56.324 186.297,-48.4928 182.971,-54.6521"/>
</g>
<!-- Node6&#45;&gt;Node3 -->
<g id="edge6" class="edge"><title>Node6&#45;&gt;Node3</title>
<path fill="none" stroke="midnightblue" d="M106.288,-29.5974C102.13,-53.6664 95.0571,-94.617 91.9909,-112.368"/>
<polygon fill="midnightblue" stroke="midnightblue" points="109.763,-30.0413 108.016,-19.5914 102.865,-28.8498 109.763,-30.0413"/>
</g>
<!-- Node7&#45;&gt;Node3 -->
<g id="edge8" class="edge"><title>Node7&#45;&gt;Node3</title>
<path fill="none" stroke="midnightblue" d="M53.4809,-160.718C62.8225,-151.2 74.2459,-139.561 81.911,-131.751"/>
<polygon fill="midnightblue" stroke="midnightblue" points="50.7587,-158.494 46.2519,-168.083 55.7545,-163.398 50.7587,-158.494"/>
</g>
<!-- Node8&#45;&gt;Node4 -->
<g id="edge10" class="edge"><title>Node8&#45;&gt;Node4</title>
<path fill="none" stroke="midnightblue" d="M155.727,-158.084C154.601,-144.618 154.85,-126.427 161.5,-112 168.672,-96.4391 183.919,-83.6641 195.315,-75.7527"/>
<polygon fill="midnightblue" stroke="midnightblue" points="152.259,-158.567 156.886,-168.098 159.213,-157.762 152.259,-158.567"/>
</g>
<!-- Node9&#45;&gt;Node4 -->
<g id="edge14" class="edge"><title>Node9&#45;&gt;Node4</title>
<path fill="none" stroke="midnightblue" d="M255.729,-160.108C264.481,-146.75 273.067,-127.787 265.5,-112 257.576,-95.4667 240.287,-83.0831 227.002,-75.5351"/>
<polygon fill="midnightblue" stroke="midnightblue" points="252.805,-158.181 249.84,-168.353 258.501,-162.25 252.805,-158.181"/>
</g>
<!-- Node10 -->
<g id="node10" class="node"><title>Node10</title>
<g id="a_node10"><a xlink:href="help__printer_8hpp.html" target="_top" xlink:title="help_printer.hpp">
<polygon fill="none" stroke="black" points="170.5,-112.5 170.5,-131.5 256.5,-131.5 256.5,-112.5 170.5,-112.5"/>
<text text-anchor="middle" x="213.5" y="-119.5" font-family="Helvetica,sans-Serif" font-size="10.00">help_printer.hpp</text>
</a>
</g>
</g>
<!-- Node9&#45;&gt;Node10 -->
<g id="edge15" class="edge"><title>Node9&#45;&gt;Node10</title>
<path fill="none" stroke="midnightblue" d="M232.824,-158.983C227.902,-149.817 222.142,-139.092 218.2,-131.751"/>
<polygon fill="midnightblue" stroke="midnightblue" points="229.896,-160.929 237.711,-168.083 236.063,-157.617 229.896,-160.929"/>
</g>
<!-- Node10&#45;&gt;Node4 -->
<g id="edge16" class="edge"><title>Node10&#45;&gt;Node4</title>
<path fill="none" stroke="midnightblue" d="M212.1,-102.101C211.436,-93.1357 210.675,-82.8579 210.148,-75.7511"/>
<polygon fill="midnightblue" stroke="midnightblue" points="208.61,-102.369 212.839,-112.083 215.591,-101.852 208.61,-102.369"/>
</g>
</g>
</svg>
