<?xml version="1.0" encoding="UTF-8" standalone="no"?>
<!DOCTYPE svg PUBLIC "-//W3C//DTD SVG 1.1//EN"
 "http://www.w3.org/Graphics/SVG/1.1/DTD/svg11.dtd">
<!-- Generated by graphviz version 2.40.1 (20161225.0304)
 -->
<!-- Title: context.hpp Pages: 1 -->
<svg width="302pt" height="308pt"
 viewBox="0.00 0.00 302.14 308.00" xmlns="http://www.w3.org/2000/svg" xmlns:xlink="http://www.w3.org/1999/xlink">
<g id="graph0" class="graph" transform="scale(1 1) rotate(0) translate(4 304)">
<title>context.hpp</title>
<!-- Node10 -->
<g id="node1" class="node">
<title>Node10</title>
<polygon fill="#bfbfbf" stroke="#000000" points="124.5,-280.5 124.5,-299.5 192.5,-299.5 192.5,-280.5 124.5,-280.5"/>
<text text-anchor="middle" x="158.5" y="-287.5" font-family="Helvetica,sans-Serif" font-size="10.00" fill="#000000">context.hpp</text>
</g>
<!-- Node11 -->
<g id="node2" class="node">
<title>Node11</title>
<g id="a_node2"><a xlink:href="arg_8hpp.html" target="_top" xlink:title="arg.hpp">
<polygon fill="none" stroke="#000000" points="80,-224.5 80,-243.5 129,-243.5 129,-224.5 80,-224.5"/>
<text text-anchor="middle" x="104.5" y="-231.5" font-family="Helvetica,sans-Serif" font-size="10.00" fill="#000000">arg.hpp</text>
</a>
</g>
</g>
<!-- Node10&#45;&gt;Node11 -->
<g id="edge1" class="edge">
<title>Node10&#45;&gt;Node11</title>
<path fill="none" stroke="#191970" d="M141.9031,-272.7884C132.6653,-263.2085 121.5096,-251.6396 113.7983,-243.6427"/>
<polygon fill="#191970" stroke="#191970" points="139.6331,-275.4766 149.0939,-280.2455 144.672,-270.6176 139.6331,-275.4766"/>
</g>
<!-- Node13 -->
<g id="node4" class="node">
<title>Node13</title>
<g id="a_node4"><a xlink:href="cmd__line_8hpp.html" target="_top" xlink:title="cmd_line.hpp">
<polygon fill="none" stroke="#000000" points="172.5,-56.5 172.5,-75.5 246.5,-75.5 246.5,-56.5 172.5,-56.5"/>
<text text-anchor="middle" x="209.5" y="-63.5" font-family="Helvetica,sans-Serif" font-size="10.00" fill="#000000">cmd_line.hpp</text>
</a>
</g>
</g>
<!-- Node10&#45;&gt;Node13 -->
<g id="edge12" class="edge">
<title>Node10&#45;&gt;Node13</title>
<path fill="none" stroke="#191970" d="M190.3276,-275.9418C222.3258,-259.8536 269.7924,-230.1709 290.5,-188 299.1126,-170.4605 290.1008,-126.4543 280.5,-112 269.2856,-95.1165 249.53,-83.0685 233.7004,-75.5488"/>
<polygon fill="#191970" stroke="#191970" points="188.4091,-272.9824 180.9404,-280.4971 191.4651,-279.2801 188.4091,-272.9824"/>
</g>
<!-- Node16 -->
<g id="node7" class="node">
<title>Node16</title>
<g id="a_node7"><a xlink:href="multi__arg_8hpp.html" target="_top" xlink:title="multi_arg.hpp">
<polygon fill="none" stroke="#000000" points="0,-168.5 0,-187.5 75,-187.5 75,-168.5 0,-168.5"/>
<text text-anchor="middle" x="37.5" y="-175.5" font-family="Helvetica,sans-Serif" font-size="10.00" fill="#000000">multi_arg.hpp</text>
</a>
</g>
</g>
<!-- Node10&#45;&gt;Node16 -->
<g id="edge11" class="edge">
<title>Node10&#45;&gt;Node16</title>
<path fill="none" stroke="#191970" d="M120.2521,-276.2868C103.4018,-268.7744 84.334,-258.0855 70.5,-244 54.342,-227.5483 44.5915,-201.6024 40.2262,-187.647"/>
<polygon fill="#191970" stroke="#191970" points="119.2869,-279.6784 129.8607,-280.3446 122.0102,-273.2299 119.2869,-279.6784"/>
</g>
<!-- Node17 -->
<g id="node8" class="node">
<title>Node17</title>
<g id="a_node8"><a xlink:href="help_8hpp.html" target="_top" xlink:title="help.hpp">
<polygon fill="none" stroke="#000000" points="132,-168.5 132,-187.5 185,-187.5 185,-168.5 132,-168.5"/>
<text text-anchor="middle" x="158.5" y="-175.5" font-family="Helvetica,sans-Serif" font-size="10.00" fill="#000000">help.hpp</text>
</a>
</g>
</g>
<!-- Node10&#45;&gt;Node17 -->
<g id="edge17" class="edge">
<title>Node10&#45;&gt;Node17</title>
<path fill="none" stroke="#191970" d="M158.5,-270.2702C158.5,-245.9985 158.5,-205.7725 158.5,-187.5249"/>
<polygon fill="#191970" stroke="#191970" points="155.0001,-270.4509 158.5,-280.4509 162.0001,-270.451 155.0001,-270.4509"/>
</g>
<!-- Node18 -->
<g id="node9" class="node">
<title>Node18</title>
<g id="a_node9"><a xlink:href="command_8hpp.html" target="_top" xlink:title="command.hpp">
<polygon fill="none" stroke="#000000" points="203.5,-168.5 203.5,-187.5 281.5,-187.5 281.5,-168.5 203.5,-168.5"/>
<text text-anchor="middle" x="242.5" y="-175.5" font-family="Helvetica,sans-Serif" font-size="10.00" fill="#000000">command.hpp</text>
</a>
</g>
</g>
<!-- Node10&#45;&gt;Node18 -->
<g id="edge13" class="edge">
<title>Node10&#45;&gt;Node18</title>
<path fill="none" stroke="#191970" d="M171.8417,-272.2111C189.8508,-248.1989 221.2991,-206.2679 235.3563,-187.5249"/>
<polygon fill="#191970" stroke="#191970" points="168.8618,-270.3509 165.6618,-280.4509 174.4618,-274.5509 168.8618,-270.3509"/>
</g>
<!-- Node12 -->
<g id="node3" class="node">
<title>Node12</title>
<g id="a_node3"><a xlink:href="api_8hpp.html" target="_top" xlink:title="api.hpp">
<polygon fill="none" stroke="#000000" points="66.5,-112.5 66.5,-131.5 114.5,-131.5 114.5,-112.5 66.5,-112.5"/>
<text text-anchor="middle" x="90.5" y="-119.5" font-family="Helvetica,sans-Serif" font-size="10.00" fill="#000000">api.hpp</text>
</a>
</g>
</g>
<!-- Node11&#45;&gt;Node12 -->
<g id="edge2" class="edge">
<title>Node11&#45;&gt;Node12</title>
<path fill="none" stroke="#191970" d="M102.0338,-214.2702C98.9998,-189.9985 93.9716,-149.7725 91.6906,-131.5249"/>
<polygon fill="#191970" stroke="#191970" points="98.593,-214.9623 103.3064,-224.4509 105.5389,-214.094 98.593,-214.9623"/>
</g>
<!-- Node11&#45;&gt;Node16 -->
<g id="edge7" class="edge">
<title>Node11&#45;&gt;Node16</title>
<path fill="none" stroke="#191970" d="M84.9324,-217.645C73.2802,-207.9058 58.8916,-195.8795 49.0368,-187.6427"/>
<polygon fill="#191970" stroke="#191970" points="82.9121,-220.5179 92.8295,-224.2455 87.4012,-215.1469 82.9121,-220.5179"/>
</g>
<!-- Node11&#45;&gt;Node17 -->
<g id="edge9" class="edge">
<title>Node11&#45;&gt;Node17</title>
<path fill="none" stroke="#191970" d="M121.0969,-216.7884C130.3347,-207.2085 141.4904,-195.6396 149.2017,-187.6427"/>
<polygon fill="#191970" stroke="#191970" points="118.328,-214.6176 113.9061,-224.2455 123.3669,-219.4766 118.328,-214.6176"/>
</g>
<!-- Node12&#45;&gt;Node13 -->
<g id="edge3" class="edge">
<title>Node12&#45;&gt;Node13</title>
<path fill="none" stroke="#191970" d="M120.0144,-108.1109C141.5938,-97.9559 170.2976,-84.4482 189.3101,-75.5011"/>
<polygon fill="#191970" stroke="#191970" points="118.5147,-104.9484 110.9568,-112.3733 121.4953,-111.2821 118.5147,-104.9484"/>
</g>
<!-- Node14 -->
<g id="node5" class="node">
<title>Node14</title>
<g id="a_node5"><a xlink:href="all_8hpp.html" target="_top" xlink:title="all.hpp">
<polygon fill="none" stroke="#000000" points="187,-.5 187,-19.5 232,-19.5 232,-.5 187,-.5"/>
<text text-anchor="middle" x="209.5" y="-7.5" font-family="Helvetica,sans-Serif" font-size="10.00" fill="#000000">all.hpp</text>
</a>
</g>
</g>
<!-- Node13&#45;&gt;Node14 -->
<g id="edge4" class="edge">
<title>Node13&#45;&gt;Node14</title>
<path fill="none" stroke="#191970" d="M209.5,-46.1575C209.5,-37.155 209.5,-26.9199 209.5,-19.6427"/>
<polygon fill="#191970" stroke="#191970" points="206.0001,-46.2455 209.5,-56.2455 213.0001,-46.2456 206.0001,-46.2455"/>
</g>
<!-- Node15 -->
<g id="node6" class="node">
<title>Node15</title>
<g id="a_node6"><a xlink:href="arg__as__command_8hpp.html" target="_top" xlink:title="arg_as_command.hpp">
<polygon fill="none" stroke="#000000" points="53,-.5 53,-19.5 166,-19.5 166,-.5 53,-.5"/>
<text text-anchor="middle" x="109.5" y="-7.5" font-family="Helvetica,sans-Serif" font-size="10.00" fill="#000000">arg_as_command.hpp</text>
</a>
</g>
</g>
<!-- Node13&#45;&gt;Node15 -->
<g id="edge5" class="edge">
<title>Node13&#45;&gt;Node15</title>
<path fill="none" stroke="#191970" d="M183.2902,-51.3225C165.4283,-41.3198 142.2845,-28.3593 126.7191,-19.6427"/>
<polygon fill="#191970" stroke="#191970" points="181.6461,-54.4132 192.0813,-56.2455 185.0664,-48.3057 181.6461,-54.4132"/>
</g>
<!-- Node15&#45;&gt;Node12 -->
<g id="edge6" class="edge">
<title>Node15&#45;&gt;Node12</title>
<path fill="none" stroke="#191970" d="M106.1584,-29.6976C102.0433,-53.9553 95.2188,-94.184 92.1199,-112.4509"/>
<polygon fill="#191970" stroke="#191970" points="109.6623,-29.9694 107.8842,-19.5249 102.7609,-28.7986 109.6623,-29.9694"/>
</g>
<!-- Node16&#45;&gt;Node12 -->
<g id="edge8" class="edge">
<title>Node16&#45;&gt;Node12</title>
<path fill="none" stroke="#191970" d="M53.7896,-160.7884C62.8562,-151.2085 73.8054,-139.6396 81.3739,-131.6427"/>
<polygon fill="#191970" stroke="#191970" points="51.0637,-158.5767 46.7319,-168.2455 56.1478,-163.3884 51.0637,-158.5767"/>
</g>
<!-- Node17&#45;&gt;Node13 -->
<g id="edge10" class="edge">
<title>Node17&#45;&gt;Node13</title>
<path fill="none" stroke="#191970" d="M155.6436,-157.8988C154.6003,-144.3358 154.982,-126.3616 161.5,-112 168.4643,-96.6548 183.0973,-83.8509 194.3866,-75.6808"/>
<polygon fill="#191970" stroke="#191970" points="152.1899,-158.5155 156.7516,-168.078 159.1488,-157.7579 152.1899,-158.5155"/>
</g>
<!-- Node18&#45;&gt;Node13 -->
<g id="edge14" class="edge">
<title>Node18&#45;&gt;Node13</title>
<path fill="none" stroke="#191970" d="M256.3222,-159.9439C264.8698,-146.4429 272.9154,-127.6875 265.5,-112 257.8649,-95.8476 241.47,-83.4611 228.3824,-75.6324"/>
<polygon fill="#191970" stroke="#191970" points="253.3186,-158.1336 250.5083,-168.349 259.0756,-162.1158 253.3186,-158.1336"/>
</g>
<!-- Node19 -->
<g id="node10" class="node">
<title>Node19</title>
<g id="a_node10"><a xlink:href="help__printer_8hpp.html" target="_top" xlink:title="help_printer.hpp">
<polygon fill="none" stroke="#000000" points="170.5,-112.5 170.5,-131.5 256.5,-131.5 256.5,-112.5 170.5,-112.5"/>
<text text-anchor="middle" x="213.5" y="-119.5" font-family="Helvetica,sans-Serif" font-size="10.00" fill="#000000">help_printer.hpp</text>
</a>
</g>
</g>
<!-- Node18&#45;&gt;Node19 -->
<g id="edge15" class="edge">
<title>Node18&#45;&gt;Node19</title>
<path fill="none" stroke="#191970" d="M232.8353,-159.3372C228.0313,-150.0605 222.4277,-139.2398 218.4935,-131.6427"/>
<polygon fill="#191970" stroke="#191970" points="229.742,-160.9751 237.4486,-168.2455 235.958,-157.7561 229.742,-160.9751"/>
</g>
<!-- Node19&#45;&gt;Node13 -->
<g id="edge16" class="edge">
<title>Node19&#45;&gt;Node13</title>
<path fill="none" stroke="#191970" d="M212.0827,-102.1575C211.4396,-93.155 210.7086,-82.9199 210.1888,-75.6427"/>
<polygon fill="#191970" stroke="#191970" points="208.5996,-102.5204 212.8033,-112.2455 215.5818,-102.0216 208.5996,-102.5204"/>
</g>
</g>
</svg>
