<?xml version="1.0" encoding="UTF-8" standalone="no"?>
<!DOCTYPE svg PUBLIC "-//W3C//DTD SVG 1.1//EN"
 "http://www.w3.org/Graphics/SVG/1.1/DTD/svg11.dtd">
<!-- Generated by graphviz version 2.40.1 (20161225.0304)
 -->
<!-- Title: context.hpp Pages: 1 -->
<svg width="338pt" height="196pt"
 viewBox="0.00 0.00 337.50 196.00" xmlns="http://www.w3.org/2000/svg" xmlns:xlink="http://www.w3.org/1999/xlink">
<g id="graph0" class="graph" transform="scale(1 1) rotate(0) translate(4 192)">
<title>context.hpp</title>
<!-- Node0 -->
<g id="node1" class="node">
<title>Node0</title>
<polygon fill="#bfbfbf" stroke="#000000" points="58.5,-168.5 58.5,-187.5 126.5,-187.5 126.5,-168.5 58.5,-168.5"/>
<text text-anchor="middle" x="92.5" y="-175.5" font-family="Helvetica,sans-Serif" font-size="10.00" fill="#000000">context.hpp</text>
</g>
<!-- Node1 -->
<g id="node2" class="node">
<title>Node1</title>
<polygon fill="none" stroke="#bfbfbf" points="24.5,-112.5 24.5,-131.5 64.5,-131.5 64.5,-112.5 24.5,-112.5"/>
<text text-anchor="middle" x="44.5" y="-119.5" font-family="Helvetica,sans-Serif" font-size="10.00" fill="#000000">utility</text>
</g>
<!-- Node0&#45;&gt;Node1 -->
<g id="edge1" class="edge">
<title>Node0&#45;&gt;Node1</title>
<path fill="none" stroke="#191970" d="M84.139,-168.2455C77.325,-160.2958 67.5319,-148.8706 59.3848,-139.3656"/>
<polygon fill="#191970" stroke="#191970" points="61.9305,-136.9575 52.7651,-131.6427 56.6157,-141.513 61.9305,-136.9575"/>
</g>
<!-- Node2 -->
<g id="node3" class="node">
<title>Node2</title>
<g id="a_node3"><a xlink:href="utils_8hpp.html" target="_top" xlink:title="utils.hpp">
<polygon fill="none" stroke="#000000" points="128,-112.5 128,-131.5 181,-131.5 181,-112.5 128,-112.5"/>
<text text-anchor="middle" x="154.5" y="-119.5" font-family="Helvetica,sans-Serif" font-size="10.00" fill="#000000">utils.hpp</text>
</a>
</g>
</g>
<!-- Node0&#45;&gt;Node2 -->
<g id="edge2" class="edge">
<title>Node0&#45;&gt;Node2</title>
<path fill="none" stroke="#191970" d="M103.2996,-168.2455C112.3678,-160.0549 125.5206,-148.1749 136.2245,-138.5069"/>
<polygon fill="#191970" stroke="#191970" points="138.7491,-140.9429 143.8242,-131.6427 134.0571,-135.7482 138.7491,-140.9429"/>
</g>
<!-- Node4 -->
<g id="node5" class="node">
<title>Node4</title>
<g id="a_node5"><a xlink:href="types_8hpp.html" target="_top" xlink:title="types.hpp">
<polygon fill="none" stroke="#000000" points="57,-56.5 57,-75.5 116,-75.5 116,-56.5 57,-56.5"/>
<text text-anchor="middle" x="86.5" y="-63.5" font-family="Helvetica,sans-Serif" font-size="10.00" fill="#000000">types.hpp</text>
</a>
</g>
</g>
<!-- Node0&#45;&gt;Node4 -->
<g id="edge10" class="edge">
<title>Node0&#45;&gt;Node4</title>
<path fill="none" stroke="#191970" d="M91.9884,-168.4509C91.0099,-150.184 88.8547,-109.9553 87.5552,-85.6976"/>
<polygon fill="#191970" stroke="#191970" points="91.0403,-85.3233 87.0103,-75.5249 84.0503,-85.6978 91.0403,-85.3233"/>
</g>
<!-- Node3 -->
<g id="node4" class="node">
<title>Node3</title>
<polygon fill="none" stroke="#bfbfbf" points="134,-56.5 134,-75.5 175,-75.5 175,-56.5 134,-56.5"/>
<text text-anchor="middle" x="154.5" y="-63.5" font-family="Helvetica,sans-Serif" font-size="10.00" fill="#000000">regex</text>
</g>
<!-- Node2&#45;&gt;Node3 -->
<g id="edge3" class="edge">
<title>Node2&#45;&gt;Node3</title>
<path fill="none" stroke="#191970" d="M154.5,-112.2455C154.5,-104.9382 154.5,-94.6944 154.5,-85.7046"/>
<polygon fill="#191970" stroke="#191970" points="158.0001,-85.6426 154.5,-75.6427 151.0001,-85.6427 158.0001,-85.6426"/>
</g>
<!-- Node2&#45;&gt;Node4 -->
<g id="edge4" class="edge">
<title>Node2&#45;&gt;Node4</title>
<path fill="none" stroke="#191970" d="M142.6553,-112.2455C132.612,-103.9746 118.0005,-91.9416 106.1996,-82.2232"/>
<polygon fill="#191970" stroke="#191970" points="108.1533,-79.298 98.209,-75.6427 103.7033,-84.7015 108.1533,-79.298"/>
</g>
<!-- Node8 -->
<g id="node9" class="node">
<title>Node8</title>
<polygon fill="none" stroke="#bfbfbf" points="193.5,-56.5 193.5,-75.5 249.5,-75.5 249.5,-56.5 193.5,-56.5"/>
<text text-anchor="middle" x="221.5" y="-63.5" font-family="Helvetica,sans-Serif" font-size="10.00" fill="#000000">algorithm</text>
</g>
<!-- Node2&#45;&gt;Node8 -->
<g id="edge8" class="edge">
<title>Node2&#45;&gt;Node8</title>
<path fill="none" stroke="#191970" d="M166.1705,-112.2455C176.0661,-103.9746 190.4627,-91.9416 202.0901,-82.2232"/>
<polygon fill="#191970" stroke="#191970" points="204.535,-84.7413 209.9632,-75.6427 200.0458,-79.3703 204.535,-84.7413"/>
</g>
<!-- Node9 -->
<g id="node10" class="node">
<title>Node9</title>
<polygon fill="none" stroke="#bfbfbf" points="267.5,-56.5 267.5,-75.5 329.5,-75.5 329.5,-56.5 267.5,-56.5"/>
<text text-anchor="middle" x="298.5" y="-63.5" font-family="Helvetica,sans-Serif" font-size="10.00" fill="#000000">type_traits</text>
</g>
<!-- Node2&#45;&gt;Node9 -->
<g id="edge9" class="edge">
<title>Node2&#45;&gt;Node9</title>
<path fill="none" stroke="#191970" d="M179.2545,-112.3733C202.7849,-103.2226 238.3687,-89.3844 264.5426,-79.2057"/>
<polygon fill="#191970" stroke="#191970" points="266.0171,-82.3877 274.0685,-75.5011 263.4799,-75.8636 266.0171,-82.3877"/>
</g>
<!-- Node5 -->
<g id="node6" class="node">
<title>Node5</title>
<polygon fill="none" stroke="#bfbfbf" points="0,-.5 0,-19.5 41,-19.5 41,-.5 0,-.5"/>
<text text-anchor="middle" x="20.5" y="-7.5" font-family="Helvetica,sans-Serif" font-size="10.00" fill="#000000">string</text>
</g>
<!-- Node4&#45;&gt;Node5 -->
<g id="edge5" class="edge">
<title>Node4&#45;&gt;Node5</title>
<path fill="none" stroke="#191970" d="M75.0037,-56.2455C65.2558,-47.9746 51.0741,-35.9416 39.6202,-26.2232"/>
<polygon fill="#191970" stroke="#191970" points="41.7541,-23.4437 31.8646,-19.6427 37.2253,-28.7813 41.7541,-23.4437"/>
</g>
<!-- Node6 -->
<g id="node7" class="node">
<title>Node6</title>
<polygon fill="none" stroke="#bfbfbf" points="59.5,-.5 59.5,-19.5 113.5,-19.5 113.5,-.5 59.5,-.5"/>
<text text-anchor="middle" x="86.5" y="-7.5" font-family="Helvetica,sans-Serif" font-size="10.00" fill="#000000">iostream</text>
</g>
<!-- Node4&#45;&gt;Node6 -->
<g id="edge6" class="edge">
<title>Node4&#45;&gt;Node6</title>
<path fill="none" stroke="#191970" d="M86.5,-56.2455C86.5,-48.9382 86.5,-38.6944 86.5,-29.7046"/>
<polygon fill="#191970" stroke="#191970" points="90.0001,-29.6426 86.5,-19.6427 83.0001,-29.6427 90.0001,-29.6426"/>
</g>
<!-- Node7 -->
<g id="node8" class="node">
<title>Node7</title>
<polygon fill="none" stroke="#bfbfbf" points="131.5,-.5 131.5,-19.5 175.5,-19.5 175.5,-.5 131.5,-.5"/>
<text text-anchor="middle" x="153.5" y="-7.5" font-family="Helvetica,sans-Serif" font-size="10.00" fill="#000000">vector</text>
</g>
<!-- Node4&#45;&gt;Node7 -->
<g id="edge7" class="edge">
<title>Node4&#45;&gt;Node7</title>
<path fill="none" stroke="#191970" d="M98.1705,-56.2455C108.0661,-47.9746 122.4627,-35.9416 134.0901,-26.2232"/>
<polygon fill="#191970" stroke="#191970" points="136.535,-28.7413 141.9632,-19.6427 132.0458,-23.3703 136.535,-28.7413"/>
</g>
</g>
</svg>
