<?xml version="1.0" encoding="UTF-8" standalone="no"?>
<!DOCTYPE svg PUBLIC "-//W3C//DTD SVG 1.1//EN"
 "http://www.w3.org/Graphics/SVG/1.1/DTD/svg11.dtd">
<!-- Generated by graphviz version 2.43.0 (0)
 -->
<!-- Title: context.hpp Pages: 1 -->
<svg width="248pt" height="412pt"
 viewBox="0.00 0.00 248.27 412.00" xmlns="http://www.w3.org/2000/svg" xmlns:xlink="http://www.w3.org/1999/xlink">

<svg id="main" version="1.1" xmlns="http://www.w3.org/2000/svg" xmlns:xlink="http://www.w3.org/1999/xlink" xml:space="preserve" onload="init(evt)">
<style type="text/css"><![CDATA[
.node, .edge {opacity: 0.7;}
.node.selected, .edge.selected {opacity: 1;}
.edge:hover path { stroke: red; }
.edge:hover polygon { stroke: red; fill: red; }
]]></style>
<script type="application/ecmascript" xlink:href="svg.min.js"/>
<svg id="graph" class="graph">
<g id="graph0" class="graph" transform="scale(1 1) rotate(0) translate(4 408)">
<title>context.hpp</title>
<!-- Node1 -->
<g id="Node000001" class="node">
<title>Node1</title>
<g id="a_Node000001"><a xlink:title=" ">
<polygon fill="#999999" stroke="#666666" points="163.19,-404 89.19,-404 89.19,-385 163.19,-385 163.19,-404"/>
<text text-anchor="middle" x="126.19" y="-392" font-family="Helvetica,sans-Serif" font-size="10.00">context.hpp</text>
</a>
</g>
</g>
<!-- Node2 -->
<g id="Node000002" class="node">
<title>Node2</title>
<g id="a_Node000002"><a xlink:href="arg_8hpp.html" target="_top" xlink:title=" ">
<polygon fill="white" stroke="#666666" points="152.69,-349 99.69,-349 99.69,-330 152.69,-330 152.69,-349"/>
<text text-anchor="middle" x="126.19" y="-337" font-family="Helvetica,sans-Serif" font-size="10.00">arg.hpp</text>
</a>
</g>
</g>
<!-- Node1&#45;&gt;Node2 -->
<g id="edge1_Node000001_Node000002" class="edge">
<title>Node1&#45;&gt;Node2</title>
<g id="a_edge1_Node000001_Node000002"><a xlink:title=" ">
<path fill="none" stroke="#63b8ff" d="M126.19,-374.66C126.19,-365.93 126.19,-355.99 126.19,-349.09"/>
<polygon fill="#63b8ff" stroke="#63b8ff" points="122.69,-374.75 126.19,-384.75 129.69,-374.75 122.69,-374.75"/>
</a>
</g>
</g>
<!-- Node4 -->
<g id="Node000004" class="node">
<title>Node4</title>
<g id="a_Node000004"><a xlink:href="cmd__line_8hpp.html" target="_top" xlink:title=" ">
<polygon fill="white" stroke="#666666" points="165.19,-74 83.19,-74 83.19,-55 165.19,-55 165.19,-74"/>
<text text-anchor="middle" x="124.19" y="-62" font-family="Helvetica,sans-Serif" font-size="10.00">cmd_line.hpp</text>
</a>
</g>
</g>
<!-- Node1&#45;&gt;Node4 -->
<g id="edge16_Node000001_Node000004" class="edge">
<title>Node1&#45;&gt;Node4</title>
<g id="a_edge16_Node000001_Node000004"><a xlink:title=" ">
<path fill="none" stroke="#63b8ff" d="M156.84,-380.47C190.61,-363.82 240.19,-331.53 240.19,-285.5 240.19,-285.5 240.19,-285.5 240.19,-173.5 240.19,-144.04 240.52,-132.23 221.19,-110 205.39,-91.82 180.62,-80.63 160.07,-74.02"/>
<polygon fill="#63b8ff" stroke="#63b8ff" points="154.92,-377.51 147.37,-384.95 157.9,-383.84 154.92,-377.51"/>
</a>
</g>
</g>
<!-- Node7 -->
<g id="Node000007" class="node">
<title>Node7</title>
<g id="a_Node000007"><a xlink:href="command_8hpp.html" target="_top" xlink:title=" ">
<polygon fill="white" stroke="#666666" points="96.19,-184 10.19,-184 10.19,-165 96.19,-165 96.19,-184"/>
<text text-anchor="middle" x="53.19" y="-172" font-family="Helvetica,sans-Serif" font-size="10.00">command.hpp</text>
</a>
</g>
</g>
<!-- Node1&#45;&gt;Node7 -->
<g id="edge17_Node000001_Node000007" class="edge">
<title>Node1&#45;&gt;Node7</title>
<g id="a_edge17_Node000001_Node000007"><a xlink:title=" ">
<path fill="none" stroke="#63b8ff" d="M98.53,-380.14C69.15,-364.23 24.37,-334.61 5.19,-294 -13.77,-253.86 26.19,-204.11 44.58,-184.27"/>
<polygon fill="#63b8ff" stroke="#63b8ff" points="96.99,-383.28 107.47,-384.82 100.23,-377.08 96.99,-383.28"/>
</a>
</g>
</g>
<!-- Node8 -->
<g id="Node000008" class="node">
<title>Node8</title>
<g id="a_Node000008"><a xlink:href="help_8hpp.html" target="_top" xlink:title=" ">
<polygon fill="white" stroke="#666666" points="211.69,-129 152.69,-129 152.69,-110 211.69,-110 211.69,-129"/>
<text text-anchor="middle" x="182.19" y="-117" font-family="Helvetica,sans-Serif" font-size="10.00">help.hpp</text>
</a>
</g>
</g>
<!-- Node1&#45;&gt;Node8 -->
<g id="edge18_Node000001_Node000008" class="edge">
<title>Node1&#45;&gt;Node8</title>
<g id="a_edge18_Node000001_Node000008"><a xlink:title=" ">
<path fill="none" stroke="#63b8ff" d="M146.06,-378.4C168.58,-359.42 202.19,-324.53 202.19,-285.5 202.19,-285.5 202.19,-285.5 202.19,-228.5 202.19,-190.93 190.35,-147.23 184.89,-129.08"/>
<polygon fill="#63b8ff" stroke="#63b8ff" points="143.63,-375.86 138.07,-384.88 148.04,-381.3 143.63,-375.86"/>
</a>
</g>
</g>
<!-- Node9 -->
<g id="Node000009" class="node">
<title>Node9</title>
<g id="a_Node000009"><a xlink:href="multi__arg_8hpp.html" target="_top" xlink:title=" ">
<polygon fill="white" stroke="#666666" points="98.19,-294 14.19,-294 14.19,-275 98.19,-275 98.19,-294"/>
<text text-anchor="middle" x="56.19" y="-282" font-family="Helvetica,sans-Serif" font-size="10.00">multi_arg.hpp</text>
</a>
</g>
</g>
<!-- Node1&#45;&gt;Node9 -->
<g id="edge19_Node000001_Node000009" class="edge">
<title>Node1&#45;&gt;Node9</title>
<g id="a_edge19_Node000001_Node000009"><a xlink:title=" ">
<path fill="none" stroke="#63b8ff" d="M112.36,-377.23C105.63,-369.01 97.64,-358.73 91.19,-349 78.82,-330.32 66.73,-306.92 60.51,-294.39"/>
<polygon fill="#63b8ff" stroke="#63b8ff" points="109.69,-379.5 118.78,-384.95 115.07,-375.03 109.69,-379.5"/>
</a>
</g>
</g>
<!-- Node3 -->
<g id="Node000003" class="node">
<title>Node3</title>
<g id="a_Node000003"><a xlink:href="api_8hpp.html" target="_top" xlink:title=" ">
<polygon fill="white" stroke="#666666" points="82.69,-239 29.69,-239 29.69,-220 82.69,-220 82.69,-239"/>
<text text-anchor="middle" x="56.19" y="-227" font-family="Helvetica,sans-Serif" font-size="10.00">api.hpp</text>
</a>
</g>
</g>
<!-- Node2&#45;&gt;Node3 -->
<g id="edge2_Node000002_Node000003" class="edge">
<title>Node2&#45;&gt;Node3</title>
<g id="a_edge2_Node000002_Node000003"><a xlink:title=" ">
<path fill="none" stroke="#63b8ff" d="M123.43,-319.72C120.82,-306.42 115.95,-288.61 107.19,-275 97.52,-259.98 81.36,-247.11 69.82,-239.13"/>
<polygon fill="#63b8ff" stroke="#63b8ff" points="119.99,-320.37 125.13,-329.64 126.89,-319.19 119.99,-320.37"/>
</a>
</g>
</g>
<!-- Node2&#45;&gt;Node8 -->
<g id="edge13_Node000002_Node000008" class="edge">
<title>Node2&#45;&gt;Node8</title>
<g id="a_edge13_Node000002_Node000008"><a xlink:title=" ">
<path fill="none" stroke="#63b8ff" d="M130.91,-320.13C142.43,-275.3 171.63,-161.6 179.95,-129.22"/>
<polygon fill="#63b8ff" stroke="#63b8ff" points="127.48,-319.4 128.39,-329.95 134.26,-321.14 127.48,-319.4"/>
</a>
</g>
</g>
<!-- Node2&#45;&gt;Node9 -->
<g id="edge14_Node000002_Node000009" class="edge">
<title>Node2&#45;&gt;Node9</title>
<g id="a_edge14_Node000002_Node000009"><a xlink:title=" ">
<path fill="none" stroke="#63b8ff" d="M106.88,-323.88C94.28,-314.34 78.26,-302.21 67.64,-294.17"/>
<polygon fill="#63b8ff" stroke="#63b8ff" points="104.86,-326.74 114.94,-329.98 109.08,-321.16 104.86,-326.74"/>
</a>
</g>
</g>
<!-- Node3&#45;&gt;Node4 -->
<g id="edge3_Node000003_Node000004" class="edge">
<title>Node3&#45;&gt;Node4</title>
<g id="a_edge3_Node000003_Node000004"><a xlink:title=" ">
<path fill="none" stroke="#63b8ff" d="M78.43,-213.65C88.19,-205.96 98.84,-195.72 105.19,-184 125.23,-146.99 125.48,-94.61 124.69,-74.15"/>
<polygon fill="#63b8ff" stroke="#63b8ff" points="76.17,-210.97 70.22,-219.73 80.34,-216.59 76.17,-210.97"/>
</a>
</g>
</g>
<!-- Node3&#45;&gt;Node7 -->
<g id="edge7_Node000003_Node000007" class="edge">
<title>Node3&#45;&gt;Node7</title>
<g id="a_edge7_Node000003_Node000007"><a xlink:title=" ">
<path fill="none" stroke="#63b8ff" d="M48.63,-209.66C47.54,-200.93 47.43,-190.99 48.55,-184.09"/>
<polygon fill="#63b8ff" stroke="#63b8ff" points="45.24,-210.57 50.53,-219.75 52.12,-209.27 45.24,-210.57"/>
</a>
</g>
</g>
<!-- Node5 -->
<g id="Node000005" class="node">
<title>Node5</title>
<g id="a_Node000005"><a xlink:href="all_8hpp.html" target="_top" xlink:title=" ">
<polygon fill="white" stroke="#666666" points="202.19,-19 152.19,-19 152.19,0 202.19,0 202.19,-19"/>
<text text-anchor="middle" x="177.19" y="-7" font-family="Helvetica,sans-Serif" font-size="10.00">all.hpp</text>
</a>
</g>
</g>
<!-- Node4&#45;&gt;Node5 -->
<g id="edge4_Node000004_Node000005" class="edge">
<title>Node4&#45;&gt;Node5</title>
<g id="a_edge4_Node000004_Node000005"><a xlink:title=" ">
<path fill="none" stroke="#63b8ff" d="M140.17,-47.52C149.51,-38.18 160.94,-26.75 168.6,-19.09"/>
<polygon fill="#63b8ff" stroke="#63b8ff" points="137.54,-45.2 132.94,-54.75 142.49,-50.15 137.54,-45.2"/>
</a>
</g>
</g>
<!-- Node6 -->
<g id="Node000006" class="node">
<title>Node6</title>
<g id="a_Node000006"><a xlink:href="help__printer_8hpp.html" target="_top" xlink:title=" ">
<polygon fill="white" stroke="#666666" points="133.69,-19 38.69,-19 38.69,0 133.69,0 133.69,-19"/>
<text text-anchor="middle" x="86.19" y="-7" font-family="Helvetica,sans-Serif" font-size="10.00">help_printer.hpp</text>
</a>
</g>
</g>
<!-- Node4&#45;&gt;Node6 -->
<g id="edge5_Node000004_Node000006" class="edge">
<title>Node4&#45;&gt;Node6</title>
<g id="a_edge5_Node000004_Node000006"><a xlink:title=" ">
<path fill="none" stroke="#63b8ff" d="M106.02,-46.96C98.54,-37.72 90.96,-26.6 87.22,-19.09"/>
<polygon fill="#63b8ff" stroke="#63b8ff" points="103.57,-49.47 112.75,-54.75 108.86,-44.89 103.57,-49.47"/>
</a>
</g>
</g>
<!-- Node6&#45;&gt;Node4 -->
<g id="edge6_Node000006_Node000004" class="edge">
<title>Node6&#45;&gt;Node4</title>
<g id="a_edge6_Node000006_Node000004"><a xlink:title=" ">
<path fill="none" stroke="#63b8ff" d="M104.2,-26.84C111.68,-36.05 119.29,-47.18 123.08,-54.75"/>
<polygon fill="#63b8ff" stroke="#63b8ff" points="106.67,-24.36 97.48,-19.09 101.38,-28.94 106.67,-24.36"/>
</a>
</g>
</g>
<!-- Node7&#45;&gt;Node3 -->
<g id="edge8_Node000007_Node000003" class="edge">
<title>Node7&#45;&gt;Node3</title>
<g id="a_edge8_Node000007_Node000003"><a xlink:title=" ">
<path fill="none" stroke="#63b8ff" d="M60.72,-194.13C61.84,-202.85 61.96,-212.8 60.86,-219.75"/>
<polygon fill="#63b8ff" stroke="#63b8ff" points="64.12,-193.26 58.81,-184.09 57.24,-194.57 64.12,-193.26"/>
</a>
</g>
</g>
<!-- Node7&#45;&gt;Node4 -->
<g id="edge9_Node000007_Node000004" class="edge">
<title>Node7&#45;&gt;Node4</title>
<g id="a_edge9_Node000007_Node000004"><a xlink:title=" ">
<path fill="none" stroke="#63b8ff" d="M64.65,-156.07C80.05,-132.64 106.84,-91.89 118.5,-74.16"/>
<polygon fill="#63b8ff" stroke="#63b8ff" points="61.57,-154.38 59,-164.66 67.42,-158.23 61.57,-154.38"/>
</a>
</g>
</g>
<!-- Node7&#45;&gt;Node6 -->
<g id="edge12_Node000007_Node000006" class="edge">
<title>Node7&#45;&gt;Node6</title>
<g id="a_edge12_Node000007_Node000006"><a xlink:title=" ">
<path fill="none" stroke="#63b8ff" d="M55.97,-154.88C59.59,-131.45 66.38,-90.05 74.19,-55 76.98,-42.5 80.97,-28.25 83.57,-19.31"/>
<polygon fill="#63b8ff" stroke="#63b8ff" points="52.5,-154.41 54.46,-164.82 59.42,-155.46 52.5,-154.41"/>
</a>
</g>
</g>
<!-- Node7&#45;&gt;Node8 -->
<g id="edge10_Node000007_Node000008" class="edge">
<title>Node7&#45;&gt;Node8</title>
<g id="a_edge10_Node000007_Node000008"><a xlink:title=" ">
<path fill="none" stroke="#63b8ff" d="M83.23,-161.16C107.11,-151.35 139.92,-137.87 161.09,-129.17"/>
<polygon fill="#63b8ff" stroke="#63b8ff" points="81.84,-157.95 73.92,-164.98 84.5,-164.42 81.84,-157.95"/>
</a>
</g>
</g>
<!-- Node8&#45;&gt;Node4 -->
<g id="edge11_Node000008_Node000004" class="edge">
<title>Node8&#45;&gt;Node4</title>
<g id="a_edge11_Node000008_Node000004"><a xlink:title=" ">
<path fill="none" stroke="#63b8ff" d="M165.28,-103.04C154.99,-93.64 142.23,-81.98 133.68,-74.17"/>
<polygon fill="#63b8ff" stroke="#63b8ff" points="163.13,-105.82 172.87,-109.98 167.85,-100.66 163.13,-105.82"/>
</a>
</g>
</g>
<!-- Node9&#45;&gt;Node3 -->
<g id="edge15_Node000009_Node000003" class="edge">
<title>Node9&#45;&gt;Node3</title>
<g id="a_edge15_Node000009_Node000003"><a xlink:title=" ">
<path fill="none" stroke="#63b8ff" d="M56.19,-264.66C56.19,-255.93 56.19,-245.99 56.19,-239.09"/>
<polygon fill="#63b8ff" stroke="#63b8ff" points="52.69,-264.75 56.19,-274.75 59.69,-264.75 52.69,-264.75"/>
</a>
</g>
</g>
</g>
</svg>
</svg>

<style type='text/css'>
<![CDATA[
[data-mouse-over-selected='false'] { opacity: 0.7; }
[data-mouse-over-selected='true']  { opacity: 1.0; }
]]>
</style>
<script type="application/ecmascript"><![CDATA[
document.addEventListener('DOMContentLoaded', (event) => {
  highlightEdges();
  highlightAdjacentNodes();
});
]]></script>
</svg>
