<?xml version="1.0" encoding="UTF-8" standalone="no"?>
<!DOCTYPE svg PUBLIC "-//W3C//DTD SVG 1.1//EN"
 "http://www.w3.org/Graphics/SVG/1.1/DTD/svg11.dtd">
<!-- Generated by graphviz version 2.38.0 (20140413.2041)
 -->
<!-- Title: context.hpp Pages: 1 -->
<svg width="338pt" height="196pt"
 viewBox="0.00 0.00 337.50 196.00" xmlns="http://www.w3.org/2000/svg" xmlns:xlink="http://www.w3.org/1999/xlink">
<g id="graph0" class="graph" transform="scale(1 1) rotate(0) translate(4 192)">
<title>context.hpp</title>
<!-- Node1 -->
<g id="node1" class="node"><title>Node1</title>
<polygon fill="#bfbfbf" stroke="black" points="59.5,-168.5 59.5,-187.5 127.5,-187.5 127.5,-168.5 59.5,-168.5"/>
<text text-anchor="middle" x="93.5" y="-175.5" font-family="Helvetica,sans-Serif" font-size="10.00">context.hpp</text>
</g>
<!-- Node2 -->
<g id="node2" class="node"><title>Node2</title>
<polygon fill="none" stroke="#bfbfbf" points="25.5,-112.5 25.5,-131.5 65.5,-131.5 65.5,-112.5 25.5,-112.5"/>
<text text-anchor="middle" x="45.5" y="-119.5" font-family="Helvetica,sans-Serif" font-size="10.00">utility</text>
</g>
<!-- Node1&#45;&gt;Node2 -->
<g id="edge1" class="edge"><title>Node1&#45;&gt;Node2</title>
<path fill="none" stroke="midnightblue" d="M85.5738,-168.083C78.6539,-160.298 68.4346,-148.801 60.048,-139.367"/>
<polygon fill="midnightblue" stroke="midnightblue" points="62.5383,-136.9 53.2787,-131.751 57.3065,-141.55 62.5383,-136.9"/>
</g>
<!-- Node3 -->
<g id="node3" class="node"><title>Node3</title>
<g id="a_node3"><a xlink:href="utils_8hpp.html" target="_top" xlink:title="utils.hpp">
<polygon fill="none" stroke="black" points="128,-112.5 128,-131.5 181,-131.5 181,-112.5 128,-112.5"/>
<text text-anchor="middle" x="154.5" y="-119.5" font-family="Helvetica,sans-Serif" font-size="10.00">utils.hpp</text>
</a>
</g>
</g>
<!-- Node1&#45;&gt;Node3 -->
<g id="edge2" class="edge"><title>Node1&#45;&gt;Node3</title>
<path fill="none" stroke="midnightblue" d="M103.301,-168.324C112.318,-160.341 125.906,-148.313 136.818,-138.653"/>
<polygon fill="midnightblue" stroke="midnightblue" points="139.353,-141.083 144.521,-131.834 134.713,-135.842 139.353,-141.083"/>
</g>
<!-- Node5 -->
<g id="node5" class="node"><title>Node5</title>
<g id="a_node5"><a xlink:href="types_8hpp.html" target="_top" xlink:title="types.hpp">
<polygon fill="none" stroke="black" points="57,-56.5 57,-75.5 116,-75.5 116,-56.5 57,-56.5"/>
<text text-anchor="middle" x="86.5" y="-63.5" font-family="Helvetica,sans-Serif" font-size="10.00">types.hpp</text>
</a>
</g>
</g>
<!-- Node1&#45;&gt;Node5 -->
<g id="edge10" class="edge"><title>Node1&#45;&gt;Node5</title>
<path fill="none" stroke="midnightblue" d="M92.9507,-168.368C91.8211,-150.617 89.2151,-109.666 87.6835,-85.5974"/>
<polygon fill="midnightblue" stroke="midnightblue" points="91.1748,-85.3489 87.0467,-75.5914 84.189,-85.7935 91.1748,-85.3489"/>
</g>
<!-- Node4 -->
<g id="node4" class="node"><title>Node4</title>
<polygon fill="none" stroke="#bfbfbf" points="134,-56.5 134,-75.5 175,-75.5 175,-56.5 134,-56.5"/>
<text text-anchor="middle" x="154.5" y="-63.5" font-family="Helvetica,sans-Serif" font-size="10.00">regex</text>
</g>
<!-- Node3&#45;&gt;Node4 -->
<g id="edge3" class="edge"><title>Node3&#45;&gt;Node4</title>
<path fill="none" stroke="midnightblue" d="M154.5,-112.083C154.5,-105.006 154.5,-94.8611 154.5,-85.9865"/>
<polygon fill="midnightblue" stroke="midnightblue" points="158,-85.751 154.5,-75.7511 151,-85.7511 158,-85.751"/>
</g>
<!-- Node3&#45;&gt;Node5 -->
<g id="edge4" class="edge"><title>Node3&#45;&gt;Node5</title>
<path fill="none" stroke="midnightblue" d="M143.575,-112.324C133.325,-104.185 117.779,-91.8395 105.499,-82.0874"/>
<polygon fill="midnightblue" stroke="midnightblue" points="107.632,-79.3119 97.6242,-75.8339 103.279,-84.7937 107.632,-79.3119"/>
</g>
<!-- Node9 -->
<g id="node9" class="node"><title>Node9</title>
<polygon fill="none" stroke="#bfbfbf" points="193.5,-56.5 193.5,-75.5 249.5,-75.5 249.5,-56.5 193.5,-56.5"/>
<text text-anchor="middle" x="221.5" y="-63.5" font-family="Helvetica,sans-Serif" font-size="10.00">algorithm</text>
</g>
<!-- Node3&#45;&gt;Node9 -->
<g id="edge8" class="edge"><title>Node3&#45;&gt;Node9</title>
<path fill="none" stroke="midnightblue" d="M165.265,-112.324C175.266,-104.263 190.387,-92.0765 202.43,-82.3695"/>
<polygon fill="midnightblue" stroke="midnightblue" points="204.95,-84.8343 210.539,-75.8339 200.557,-79.3841 204.95,-84.8343"/>
</g>
<!-- Node10 -->
<g id="node10" class="node"><title>Node10</title>
<polygon fill="none" stroke="#bfbfbf" points="267.5,-56.5 267.5,-75.5 329.5,-75.5 329.5,-56.5 267.5,-56.5"/>
<text text-anchor="middle" x="298.5" y="-63.5" font-family="Helvetica,sans-Serif" font-size="10.00">type_traits</text>
</g>
<!-- Node3&#45;&gt;Node10 -->
<g id="edge9" class="edge"><title>Node3&#45;&gt;Node10</title>
<path fill="none" stroke="midnightblue" d="M177.317,-112.444C201.332,-103.438 239.329,-89.1891 266.369,-79.049"/>
<polygon fill="midnightblue" stroke="midnightblue" points="267.655,-82.3049 275.79,-75.5164 265.197,-75.7506 267.655,-82.3049"/>
</g>
<!-- Node6 -->
<g id="node6" class="node"><title>Node6</title>
<polygon fill="none" stroke="#bfbfbf" points="0,-0.5 0,-19.5 41,-19.5 41,-0.5 0,-0.5"/>
<text text-anchor="middle" x="20.5" y="-7.5" font-family="Helvetica,sans-Serif" font-size="10.00">string</text>
</g>
<!-- Node5&#45;&gt;Node6 -->
<g id="edge5" class="edge"><title>Node5&#45;&gt;Node6</title>
<path fill="none" stroke="midnightblue" d="M75.896,-56.324C66.0438,-48.2631 51.1491,-36.0765 39.2849,-26.3695"/>
<polygon fill="midnightblue" stroke="midnightblue" points="41.2529,-23.4575 31.297,-19.8339 36.8202,-28.8752 41.2529,-23.4575"/>
</g>
<!-- Node7 -->
<g id="node7" class="node"><title>Node7</title>
<polygon fill="none" stroke="#bfbfbf" points="59.5,-0.5 59.5,-19.5 113.5,-19.5 113.5,-0.5 59.5,-0.5"/>
<text text-anchor="middle" x="86.5" y="-7.5" font-family="Helvetica,sans-Serif" font-size="10.00">iostream</text>
</g>
<!-- Node5&#45;&gt;Node7 -->
<g id="edge6" class="edge"><title>Node5&#45;&gt;Node7</title>
<path fill="none" stroke="midnightblue" d="M86.5,-56.083C86.5,-49.0059 86.5,-38.8611 86.5,-29.9865"/>
<polygon fill="midnightblue" stroke="midnightblue" points="90.0001,-29.751 86.5,-19.7511 83.0001,-29.7511 90.0001,-29.751"/>
</g>
<!-- Node8 -->
<g id="node8" class="node"><title>Node8</title>
<polygon fill="none" stroke="#bfbfbf" points="131.5,-0.5 131.5,-19.5 175.5,-19.5 175.5,-0.5 131.5,-0.5"/>
<text text-anchor="middle" x="153.5" y="-7.5" font-family="Helvetica,sans-Serif" font-size="10.00">vector</text>
</g>
<!-- Node5&#45;&gt;Node8 -->
<g id="edge7" class="edge"><title>Node5&#45;&gt;Node8</title>
<path fill="none" stroke="midnightblue" d="M97.2647,-56.324C107.266,-48.2631 122.387,-36.0765 134.43,-26.3695"/>
<polygon fill="midnightblue" stroke="midnightblue" points="136.95,-28.8343 142.539,-19.8339 132.557,-23.3841 136.95,-28.8343"/>
</g>
</g>
</svg>
