<?xml version="1.0" encoding="UTF-8" standalone="no"?>
<!DOCTYPE svg PUBLIC "-//W3C//DTD SVG 1.1//EN"
 "http://www.w3.org/Graphics/SVG/1.1/DTD/svg11.dtd">
<!-- Generated by graphviz version 2.43.0 (0)
 -->
<!-- Title: context.hpp Pages: 1 -->
<svg width="248pt" height="420pt"
 viewBox="0.00 0.00 248.43 420.00" xmlns="http://www.w3.org/2000/svg" xmlns:xlink="http://www.w3.org/1999/xlink">
<g id="graph0" class="graph" transform="scale(1 1) rotate(0) translate(4 416)">
<title>context.hpp</title>
<!-- Node1 -->
<g id="node1" class="node">
<title>Node1</title>
<g id="a_node1"><a xlink:title=" ">
<polygon fill="#bfbfbf" stroke="black" points="89.27,-392.5 89.27,-411.5 163.27,-411.5 163.27,-392.5 89.27,-392.5"/>
<text text-anchor="middle" x="126.27" y="-399.5" font-family="Helvetica,sans-Serif" font-size="10.00">context.hpp</text>
</a>
</g>
</g>
<!-- Node2 -->
<g id="node2" class="node">
<title>Node2</title>
<g id="a_node2"><a xlink:href="arg_8hpp.html" target="_top" xlink:title=" ">
<polygon fill="none" stroke="black" points="99.77,-336.5 99.77,-355.5 152.77,-355.5 152.77,-336.5 99.77,-336.5"/>
<text text-anchor="middle" x="126.27" y="-343.5" font-family="Helvetica,sans-Serif" font-size="10.00">arg.hpp</text>
</a>
</g>
</g>
<!-- Node1&#45;&gt;Node2 -->
<g id="edge1" class="edge">
<title>Node1&#45;&gt;Node2</title>
<path fill="none" stroke="midnightblue" d="M126.27,-381.8C126.27,-372.91 126.27,-362.78 126.27,-355.75"/>
<polygon fill="midnightblue" stroke="midnightblue" points="122.77,-382.08 126.27,-392.08 129.77,-382.08 122.77,-382.08"/>
</g>
<!-- Node4 -->
<g id="node4" class="node">
<title>Node4</title>
<g id="a_node4"><a xlink:href="cmd__line_8hpp.html" target="_top" xlink:title=" ">
<polygon fill="none" stroke="black" points="83.27,-56.5 83.27,-75.5 165.27,-75.5 165.27,-56.5 83.27,-56.5"/>
<text text-anchor="middle" x="124.27" y="-63.5" font-family="Helvetica,sans-Serif" font-size="10.00">cmd_line.hpp</text>
</a>
</g>
</g>
<!-- Node1&#45;&gt;Node4 -->
<g id="edge16" class="edge">
<title>Node1&#45;&gt;Node4</title>
<path fill="none" stroke="midnightblue" d="M155.94,-388.07C189.72,-371.11 240.27,-337.89 240.27,-291 240.27,-291 240.27,-291 240.27,-177 240.27,-146.9 240.9,-134.82 221.27,-112 205.41,-93.56 180.38,-82.21 159.72,-75.52"/>
<polygon fill="midnightblue" stroke="midnightblue" points="154.4,-384.93 146.92,-392.42 157.44,-391.23 154.4,-384.93"/>
</g>
<!-- Node7 -->
<g id="node7" class="node">
<title>Node7</title>
<g id="a_node7"><a xlink:href="command_8hpp.html" target="_top" xlink:title=" ">
<polygon fill="none" stroke="black" points="10.27,-168.5 10.27,-187.5 96.27,-187.5 96.27,-168.5 10.27,-168.5"/>
<text text-anchor="middle" x="53.27" y="-175.5" font-family="Helvetica,sans-Serif" font-size="10.00">command.hpp</text>
</a>
</g>
</g>
<!-- Node1&#45;&gt;Node7 -->
<g id="edge17" class="edge">
<title>Node1&#45;&gt;Node7</title>
<path fill="none" stroke="midnightblue" d="M99.08,-387.59C69.7,-371.41 24.53,-341.15 5.27,-300 -13.98,-258.86 26.59,-207.73 44.91,-187.66"/>
<polygon fill="midnightblue" stroke="midnightblue" points="97.53,-390.74 108.01,-392.35 100.83,-384.56 97.53,-390.74"/>
</g>
<!-- Node8 -->
<g id="node8" class="node">
<title>Node8</title>
<g id="a_node8"><a xlink:href="help_8hpp.html" target="_top" xlink:title=" ">
<polygon fill="none" stroke="black" points="152.77,-112.5 152.77,-131.5 211.77,-131.5 211.77,-112.5 152.77,-112.5"/>
<text text-anchor="middle" x="182.27" y="-119.5" font-family="Helvetica,sans-Serif" font-size="10.00">help.hpp</text>
</a>
</g>
</g>
<!-- Node1&#45;&gt;Node8 -->
<g id="edge18" class="edge">
<title>Node1&#45;&gt;Node8</title>
<path fill="none" stroke="midnightblue" d="M145.79,-385.85C168.31,-366.5 202.27,-330.72 202.27,-291 202.27,-291 202.27,-291 202.27,-233 202.27,-194.76 190.43,-150.23 184.97,-131.74"/>
<polygon fill="midnightblue" stroke="midnightblue" points="143.3,-383.37 137.82,-392.43 147.75,-388.76 143.3,-383.37"/>
</g>
<!-- Node9 -->
<g id="node9" class="node">
<title>Node9</title>
<g id="a_node9"><a xlink:href="multi__arg_8hpp.html" target="_top" xlink:title=" ">
<polygon fill="none" stroke="black" points="14.27,-280.5 14.27,-299.5 98.27,-299.5 98.27,-280.5 14.27,-280.5"/>
<text text-anchor="middle" x="56.27" y="-287.5" font-family="Helvetica,sans-Serif" font-size="10.00">multi_arg.hpp</text>
</a>
</g>
</g>
<!-- Node1&#45;&gt;Node9 -->
<g id="edge19" class="edge">
<title>Node1&#45;&gt;Node9</title>
<path fill="none" stroke="midnightblue" d="M112.41,-384.56C105.68,-376.24 97.69,-365.85 91.27,-356 78.68,-336.67 66.49,-312.39 60.36,-299.67"/>
<polygon fill="midnightblue" stroke="midnightblue" points="109.78,-386.87 118.85,-392.36 115.18,-382.42 109.78,-386.87"/>
</g>
<!-- Node3 -->
<g id="node3" class="node">
<title>Node3</title>
<g id="a_node3"><a xlink:href="api_8hpp.html" target="_top" xlink:title=" ">
<polygon fill="none" stroke="black" points="29.77,-224.5 29.77,-243.5 82.77,-243.5 82.77,-224.5 29.77,-224.5"/>
<text text-anchor="middle" x="56.27" y="-231.5" font-family="Helvetica,sans-Serif" font-size="10.00">api.hpp</text>
</a>
</g>
</g>
<!-- Node2&#45;&gt;Node3 -->
<g id="edge2" class="edge">
<title>Node2&#45;&gt;Node3</title>
<path fill="none" stroke="midnightblue" d="M123.66,-326.25C121.11,-312.6 116.24,-294.11 107.27,-280 97.65,-264.85 81.47,-251.83 69.92,-243.75"/>
<polygon fill="midnightblue" stroke="midnightblue" points="120.25,-327.06 125.3,-336.37 127.16,-325.94 120.25,-327.06"/>
</g>
<!-- Node2&#45;&gt;Node8 -->
<g id="edge13" class="edge">
<title>Node2&#45;&gt;Node8</title>
<path fill="none" stroke="midnightblue" d="M130.92,-326.58C142.38,-281.14 171.7,-164.92 180.03,-131.88"/>
<polygon fill="midnightblue" stroke="midnightblue" points="127.52,-325.74 128.47,-336.3 134.31,-327.46 127.52,-325.74"/>
</g>
<!-- Node2&#45;&gt;Node9 -->
<g id="edge14" class="edge">
<title>Node2&#45;&gt;Node9</title>
<path fill="none" stroke="midnightblue" d="M106.96,-330.1C94.36,-320.38 78.34,-308.03 67.72,-299.83"/>
<polygon fill="midnightblue" stroke="midnightblue" points="104.97,-332.99 115.03,-336.32 109.25,-327.44 104.97,-332.99"/>
</g>
<!-- Node3&#45;&gt;Node4 -->
<g id="edge3" class="edge">
<title>Node3&#45;&gt;Node4</title>
<path fill="none" stroke="midnightblue" d="M78.14,-218.25C88,-210.44 98.86,-199.97 105.27,-188 125.66,-149.95 125.66,-96.16 124.79,-75.52"/>
<polygon fill="midnightblue" stroke="midnightblue" points="75.79,-215.64 69.86,-224.42 79.97,-221.25 75.79,-215.64"/>
</g>
<!-- Node3&#45;&gt;Node7 -->
<g id="edge7" class="edge">
<title>Node3&#45;&gt;Node7</title>
<path fill="none" stroke="midnightblue" d="M48.75,-214.1C47.62,-205.14 47.5,-194.86 48.63,-187.75"/>
<polygon fill="midnightblue" stroke="midnightblue" points="45.34,-214.89 50.61,-224.08 52.22,-213.61 45.34,-214.89"/>
</g>
<!-- Node5 -->
<g id="node5" class="node">
<title>Node5</title>
<g id="a_node5"><a xlink:href="all_8hpp.html" target="_top" xlink:title=" ">
<polygon fill="none" stroke="black" points="152.27,-0.5 152.27,-19.5 202.27,-19.5 202.27,-0.5 152.27,-0.5"/>
<text text-anchor="middle" x="177.27" y="-7.5" font-family="Helvetica,sans-Serif" font-size="10.00">all.hpp</text>
</a>
</g>
</g>
<!-- Node4&#45;&gt;Node5 -->
<g id="edge4" class="edge">
<title>Node4&#45;&gt;Node5</title>
<path fill="none" stroke="midnightblue" d="M140.25,-48.72C149.59,-39.2 161.02,-27.56 168.68,-19.75"/>
<polygon fill="midnightblue" stroke="midnightblue" points="137.53,-46.49 133.02,-56.08 142.53,-51.4 137.53,-46.49"/>
</g>
<!-- Node6 -->
<g id="node6" class="node">
<title>Node6</title>
<g id="a_node6"><a xlink:href="help__printer_8hpp.html" target="_top" xlink:title=" ">
<polygon fill="none" stroke="black" points="38.77,-0.5 38.77,-19.5 133.77,-19.5 133.77,-0.5 38.77,-0.5"/>
<text text-anchor="middle" x="86.27" y="-7.5" font-family="Helvetica,sans-Serif" font-size="10.00">help_printer.hpp</text>
</a>
</g>
</g>
<!-- Node4&#45;&gt;Node6 -->
<g id="edge5" class="edge">
<title>Node4&#45;&gt;Node6</title>
<path fill="none" stroke="midnightblue" d="M106.33,-48.43C98.78,-38.97 91.08,-27.48 87.3,-19.75"/>
<polygon fill="midnightblue" stroke="midnightblue" points="103.69,-50.73 112.83,-56.08 109.03,-46.2 103.69,-50.73"/>
</g>
<!-- Node6&#45;&gt;Node4 -->
<g id="edge6" class="edge">
<title>Node6&#45;&gt;Node4</title>
<path fill="none" stroke="midnightblue" d="M104.05,-27.37C111.6,-36.8 119.33,-48.3 123.16,-56.08"/>
<polygon fill="midnightblue" stroke="midnightblue" points="106.71,-25.09 97.56,-19.75 101.38,-29.63 106.71,-25.09"/>
</g>
<!-- Node7&#45;&gt;Node3 -->
<g id="edge8" class="edge">
<title>Node7&#45;&gt;Node3</title>
<path fill="none" stroke="midnightblue" d="M60.77,-197.69C61.91,-206.64 62.06,-216.93 60.94,-224.08"/>
<polygon fill="midnightblue" stroke="midnightblue" points="64.19,-196.93 58.89,-187.75 57.31,-198.23 64.19,-196.93"/>
</g>
<!-- Node7&#45;&gt;Node4 -->
<g id="edge9" class="edge">
<title>Node7&#45;&gt;Node4</title>
<path fill="none" stroke="midnightblue" d="M64.27,-159.96C79.66,-136.12 107.03,-93.71 118.73,-75.59"/>
<polygon fill="midnightblue" stroke="midnightblue" points="61.33,-158.07 58.84,-168.37 67.21,-161.86 61.33,-158.07"/>
</g>
<!-- Node7&#45;&gt;Node6 -->
<g id="edge12" class="edge">
<title>Node7&#45;&gt;Node6</title>
<path fill="none" stroke="midnightblue" d="M55.98,-158.34C59.57,-134.49 66.37,-91.97 74.27,-56 77.08,-43.21 81.14,-28.58 83.74,-19.57"/>
<polygon fill="midnightblue" stroke="midnightblue" points="52.49,-158.04 54.49,-168.44 59.42,-159.06 52.49,-158.04"/>
</g>
<!-- Node7&#45;&gt;Node8 -->
<g id="edge10" class="edge">
<title>Node7&#45;&gt;Node8</title>
<path fill="none" stroke="midnightblue" d="M83.13,-164.5C107.31,-154.38 140.73,-140.39 161.93,-131.52"/>
<polygon fill="midnightblue" stroke="midnightblue" points="81.59,-161.35 73.71,-168.44 84.29,-167.81 81.59,-161.35"/>
</g>
<!-- Node8&#45;&gt;Node4 -->
<g id="edge11" class="edge">
<title>Node8&#45;&gt;Node4</title>
<path fill="none" stroke="midnightblue" d="M165.36,-105.25C155.07,-95.67 142.31,-83.79 133.76,-75.83"/>
<polygon fill="midnightblue" stroke="midnightblue" points="163.25,-108.07 172.95,-112.32 168.02,-102.95 163.25,-108.07"/>
</g>
<!-- Node9&#45;&gt;Node3 -->
<g id="edge15" class="edge">
<title>Node9&#45;&gt;Node3</title>
<path fill="none" stroke="midnightblue" d="M56.27,-269.8C56.27,-260.91 56.27,-250.78 56.27,-243.75"/>
<polygon fill="midnightblue" stroke="midnightblue" points="52.77,-270.08 56.27,-280.08 59.77,-270.08 52.77,-270.08"/>
</g>
</g>
</svg>
