<?xml version="1.0" encoding="UTF-8" standalone="no"?>
<!DOCTYPE svg PUBLIC "-//W3C//DTD SVG 1.1//EN"
 "http://www.w3.org/Graphics/SVG/1.1/DTD/svg11.dtd">
<!-- Generated by graphviz version 2.43.0 (0)
 -->
<!-- Title: context.hpp Pages: 1 -->
<svg width="365pt" height="196pt"
 viewBox="0.00 0.00 364.50 196.00" xmlns="http://www.w3.org/2000/svg" xmlns:xlink="http://www.w3.org/1999/xlink">
<g id="graph0" class="graph" transform="scale(1 1) rotate(0) translate(4 192)">
<title>context.hpp</title>
<!-- Node1 -->
<g id="node1" class="node">
<title>Node1</title>
<g id="a_node1"><a xlink:title=" ">
<polygon fill="#bfbfbf" stroke="black" points="62,-168.5 62,-187.5 136,-187.5 136,-168.5 62,-168.5"/>
<text text-anchor="middle" x="99" y="-175.5" font-family="Helvetica,sans-Serif" font-size="10.00">context.hpp</text>
</a>
</g>
</g>
<!-- Node2 -->
<g id="node2" class="node">
<title>Node2</title>
<g id="a_node2"><a xlink:title=" ">
<polygon fill="none" stroke="#bfbfbf" points="25.5,-112.5 25.5,-131.5 70.5,-131.5 70.5,-112.5 25.5,-112.5"/>
<text text-anchor="middle" x="48" y="-119.5" font-family="Helvetica,sans-Serif" font-size="10.00">utility</text>
</a>
</g>
</g>
<!-- Node1&#45;&gt;Node2 -->
<g id="edge1" class="edge">
<title>Node1&#45;&gt;Node2</title>
<path fill="none" stroke="midnightblue" d="M90.58,-168.08C83.15,-160.22 72.15,-148.57 63.19,-139.08"/>
<polygon fill="midnightblue" stroke="midnightblue" points="65.68,-136.62 56.26,-131.75 60.59,-141.42 65.68,-136.62"/>
</g>
<!-- Node3 -->
<g id="node3" class="node">
<title>Node3</title>
<g id="a_node3"><a xlink:href="utils_8hpp.html" target="_top" xlink:title=" ">
<polygon fill="none" stroke="black" points="135.5,-112.5 135.5,-131.5 194.5,-131.5 194.5,-112.5 135.5,-112.5"/>
<text text-anchor="middle" x="165" y="-119.5" font-family="Helvetica,sans-Serif" font-size="10.00">utils.hpp</text>
</a>
</g>
</g>
<!-- Node1&#45;&gt;Node3 -->
<g id="edge2" class="edge">
<title>Node1&#45;&gt;Node3</title>
<path fill="none" stroke="midnightblue" d="M109.6,-168.32C119.46,-160.26 134.35,-148.08 146.22,-138.37"/>
<polygon fill="midnightblue" stroke="midnightblue" points="148.68,-140.88 154.2,-131.83 144.25,-135.46 148.68,-140.88"/>
</g>
<!-- Node5 -->
<g id="node5" class="node">
<title>Node5</title>
<g id="a_node5"><a xlink:href="types_8hpp.html" target="_top" xlink:title=" ">
<polygon fill="none" stroke="black" points="59.5,-56.5 59.5,-75.5 124.5,-75.5 124.5,-56.5 59.5,-56.5"/>
<text text-anchor="middle" x="92" y="-63.5" font-family="Helvetica,sans-Serif" font-size="10.00">types.hpp</text>
</a>
</g>
</g>
<!-- Node1&#45;&gt;Node5 -->
<g id="edge10" class="edge">
<title>Node1&#45;&gt;Node5</title>
<path fill="none" stroke="midnightblue" d="M98.45,-168.37C97.32,-150.62 94.72,-109.67 93.18,-85.6"/>
<polygon fill="midnightblue" stroke="midnightblue" points="96.67,-85.35 92.55,-75.59 89.69,-85.79 96.67,-85.35"/>
</g>
<!-- Node4 -->
<g id="node4" class="node">
<title>Node4</title>
<g id="a_node4"><a xlink:title=" ">
<polygon fill="none" stroke="#bfbfbf" points="143,-56.5 143,-75.5 187,-75.5 187,-56.5 143,-56.5"/>
<text text-anchor="middle" x="165" y="-63.5" font-family="Helvetica,sans-Serif" font-size="10.00">regex</text>
</a>
</g>
</g>
<!-- Node3&#45;&gt;Node4 -->
<g id="edge3" class="edge">
<title>Node3&#45;&gt;Node4</title>
<path fill="none" stroke="midnightblue" d="M165,-112.08C165,-105.01 165,-94.86 165,-85.99"/>
<polygon fill="midnightblue" stroke="midnightblue" points="168.5,-85.75 165,-75.75 161.5,-85.75 168.5,-85.75"/>
</g>
<!-- Node3&#45;&gt;Node5 -->
<g id="edge4" class="edge">
<title>Node3&#45;&gt;Node5</title>
<path fill="none" stroke="midnightblue" d="M153.27,-112.32C142.16,-104.11 125.26,-91.6 112.02,-81.81"/>
<polygon fill="midnightblue" stroke="midnightblue" points="114.06,-78.97 103.94,-75.83 109.9,-84.59 114.06,-78.97"/>
</g>
<!-- Node9 -->
<g id="node9" class="node">
<title>Node9</title>
<g id="a_node9"><a xlink:title=" ">
<polygon fill="none" stroke="#bfbfbf" points="205,-56.5 205,-75.5 269,-75.5 269,-56.5 205,-56.5"/>
<text text-anchor="middle" x="237" y="-63.5" font-family="Helvetica,sans-Serif" font-size="10.00">algorithm</text>
</a>
</g>
</g>
<!-- Node3&#45;&gt;Node9 -->
<g id="edge8" class="edge">
<title>Node3&#45;&gt;Node9</title>
<path fill="none" stroke="midnightblue" d="M176.57,-112.32C187.42,-104.18 203.88,-91.84 216.88,-82.09"/>
<polygon fill="midnightblue" stroke="midnightblue" points="219.32,-84.63 225.22,-75.83 215.12,-79.03 219.32,-84.63"/>
</g>
<!-- Node10 -->
<g id="node10" class="node">
<title>Node10</title>
<g id="a_node10"><a xlink:title=" ">
<polygon fill="none" stroke="#bfbfbf" points="287.5,-56.5 287.5,-75.5 356.5,-75.5 356.5,-56.5 287.5,-56.5"/>
<text text-anchor="middle" x="322" y="-63.5" font-family="Helvetica,sans-Serif" font-size="10.00">type_traits</text>
</a>
</g>
</g>
<!-- Node3&#45;&gt;Node10 -->
<g id="edge9" class="edge">
<title>Node3&#45;&gt;Node10</title>
<path fill="none" stroke="midnightblue" d="M189.88,-112.44C216.29,-103.36 258.22,-88.94 287.74,-78.78"/>
<polygon fill="midnightblue" stroke="midnightblue" points="288.92,-82.08 297.24,-75.52 286.64,-75.46 288.92,-82.08"/>
</g>
<!-- Node6 -->
<g id="node6" class="node">
<title>Node6</title>
<g id="a_node6"><a xlink:title=" ">
<polygon fill="none" stroke="#bfbfbf" points="0,-0.5 0,-19.5 44,-19.5 44,-0.5 0,-0.5"/>
<text text-anchor="middle" x="22" y="-7.5" font-family="Helvetica,sans-Serif" font-size="10.00">string</text>
</a>
</g>
</g>
<!-- Node5&#45;&gt;Node6 -->
<g id="edge5" class="edge">
<title>Node5&#45;&gt;Node6</title>
<path fill="none" stroke="midnightblue" d="M80.75,-56.32C70.2,-48.18 54.2,-35.84 41.56,-26.09"/>
<polygon fill="midnightblue" stroke="midnightblue" points="43.51,-23.17 33.45,-19.83 39.23,-28.71 43.51,-23.17"/>
</g>
<!-- Node7 -->
<g id="node7" class="node">
<title>Node7</title>
<g id="a_node7"><a xlink:title=" ">
<polygon fill="none" stroke="#bfbfbf" points="62,-0.5 62,-19.5 122,-19.5 122,-0.5 62,-0.5"/>
<text text-anchor="middle" x="92" y="-7.5" font-family="Helvetica,sans-Serif" font-size="10.00">iostream</text>
</a>
</g>
</g>
<!-- Node5&#45;&gt;Node7 -->
<g id="edge6" class="edge">
<title>Node5&#45;&gt;Node7</title>
<path fill="none" stroke="midnightblue" d="M92,-56.08C92,-49.01 92,-38.86 92,-29.99"/>
<polygon fill="midnightblue" stroke="midnightblue" points="95.5,-29.75 92,-19.75 88.5,-29.75 95.5,-29.75"/>
</g>
<!-- Node8 -->
<g id="node8" class="node">
<title>Node8</title>
<g id="a_node8"><a xlink:title=" ">
<polygon fill="none" stroke="#bfbfbf" points="140.5,-0.5 140.5,-19.5 187.5,-19.5 187.5,-0.5 140.5,-0.5"/>
<text text-anchor="middle" x="164" y="-7.5" font-family="Helvetica,sans-Serif" font-size="10.00">vector</text>
</a>
</g>
</g>
<!-- Node5&#45;&gt;Node8 -->
<g id="edge7" class="edge">
<title>Node5&#45;&gt;Node8</title>
<path fill="none" stroke="midnightblue" d="M103.57,-56.32C114.42,-48.18 130.88,-35.84 143.88,-26.09"/>
<polygon fill="midnightblue" stroke="midnightblue" points="146.32,-28.63 152.22,-19.83 142.12,-23.03 146.32,-28.63"/>
</g>
</g>
</svg>
