<?xml version="1.0" encoding="UTF-8" standalone="no"?>
<!DOCTYPE svg PUBLIC "-//W3C//DTD SVG 1.1//EN"
 "http://www.w3.org/Graphics/SVG/1.1/DTD/svg11.dtd">
<!-- Generated by graphviz version 2.43.0 (0)
 -->
<!-- Title: context.hpp Pages: 1 -->
<svg width="248pt" height="412pt"
 viewBox="0.00 0.00 248.27 412.00" xmlns="http://www.w3.org/2000/svg" xmlns:xlink="http://www.w3.org/1999/xlink">
<g id="graph0" class="graph" transform="scale(1 1) rotate(0) translate(4 408)">
<title>context.hpp</title>
<!-- Node1 -->
<g id="node1" class="node">
<title>Node1</title>
<g id="a_node1"><a xlink:title=" ">
<polygon fill="#bfbfbf" stroke="black" points="163.19,-404 89.19,-404 89.19,-385 163.19,-385 163.19,-404"/>
<text text-anchor="middle" x="126.19" y="-392" font-family="Helvetica,sans-Serif" font-size="10.00">context.hpp</text>
</a>
</g>
</g>
<!-- Node2 -->
<g id="node2" class="node">
<title>Node2</title>
<g id="a_node2"><a xlink:href="arg_8hpp.html" target="_top" xlink:title=" ">
<polygon fill="none" stroke="black" points="152.69,-349 99.69,-349 99.69,-330 152.69,-330 152.69,-349"/>
<text text-anchor="middle" x="126.19" y="-337" font-family="Helvetica,sans-Serif" font-size="10.00">arg.hpp</text>
</a>
</g>
</g>
<!-- Node1&#45;&gt;Node2 -->
<g id="edge1" class="edge">
<title>Node1&#45;&gt;Node2</title>
<path fill="none" stroke="midnightblue" d="M126.19,-374.66C126.19,-365.93 126.19,-355.99 126.19,-349.09"/>
<polygon fill="midnightblue" stroke="midnightblue" points="122.69,-374.75 126.19,-384.75 129.69,-374.75 122.69,-374.75"/>
</g>
<!-- Node4 -->
<g id="node4" class="node">
<title>Node4</title>
<g id="a_node4"><a xlink:href="cmd__line_8hpp.html" target="_top" xlink:title=" ">
<polygon fill="none" stroke="black" points="165.19,-74 83.19,-74 83.19,-55 165.19,-55 165.19,-74"/>
<text text-anchor="middle" x="124.19" y="-62" font-family="Helvetica,sans-Serif" font-size="10.00">cmd_line.hpp</text>
</a>
</g>
</g>
<!-- Node1&#45;&gt;Node4 -->
<g id="edge16" class="edge">
<title>Node1&#45;&gt;Node4</title>
<path fill="none" stroke="midnightblue" d="M156.84,-380.47C190.61,-363.82 240.19,-331.53 240.19,-285.5 240.19,-285.5 240.19,-285.5 240.19,-173.5 240.19,-144.04 240.52,-132.23 221.19,-110 205.39,-91.82 180.62,-80.63 160.07,-74.02"/>
<polygon fill="midnightblue" stroke="midnightblue" points="154.92,-377.51 147.37,-384.95 157.9,-383.84 154.92,-377.51"/>
</g>
<!-- Node7 -->
<g id="node7" class="node">
<title>Node7</title>
<g id="a_node7"><a xlink:href="command_8hpp.html" target="_top" xlink:title=" ">
<polygon fill="none" stroke="black" points="96.19,-184 10.19,-184 10.19,-165 96.19,-165 96.19,-184"/>
<text text-anchor="middle" x="53.19" y="-172" font-family="Helvetica,sans-Serif" font-size="10.00">command.hpp</text>
</a>
</g>
</g>
<!-- Node1&#45;&gt;Node7 -->
<g id="edge17" class="edge">
<title>Node1&#45;&gt;Node7</title>
<path fill="none" stroke="midnightblue" d="M98.53,-380.14C69.15,-364.23 24.37,-334.61 5.19,-294 -13.77,-253.86 26.19,-204.11 44.58,-184.27"/>
<polygon fill="midnightblue" stroke="midnightblue" points="96.99,-383.28 107.47,-384.82 100.23,-377.08 96.99,-383.28"/>
</g>
<!-- Node8 -->
<g id="node8" class="node">
<title>Node8</title>
<g id="a_node8"><a xlink:href="help_8hpp.html" target="_top" xlink:title=" ">
<polygon fill="none" stroke="black" points="211.69,-129 152.69,-129 152.69,-110 211.69,-110 211.69,-129"/>
<text text-anchor="middle" x="182.19" y="-117" font-family="Helvetica,sans-Serif" font-size="10.00">help.hpp</text>
</a>
</g>
</g>
<!-- Node1&#45;&gt;Node8 -->
<g id="edge18" class="edge">
<title>Node1&#45;&gt;Node8</title>
<path fill="none" stroke="midnightblue" d="M146.06,-378.4C168.58,-359.42 202.19,-324.53 202.19,-285.5 202.19,-285.5 202.19,-285.5 202.19,-228.5 202.19,-190.93 190.35,-147.23 184.89,-129.08"/>
<polygon fill="midnightblue" stroke="midnightblue" points="143.63,-375.86 138.07,-384.88 148.04,-381.3 143.63,-375.86"/>
</g>
<!-- Node9 -->
<g id="node9" class="node">
<title>Node9</title>
<g id="a_node9"><a xlink:href="multi__arg_8hpp.html" target="_top" xlink:title=" ">
<polygon fill="none" stroke="black" points="98.19,-294 14.19,-294 14.19,-275 98.19,-275 98.19,-294"/>
<text text-anchor="middle" x="56.19" y="-282" font-family="Helvetica,sans-Serif" font-size="10.00">multi_arg.hpp</text>
</a>
</g>
</g>
<!-- Node1&#45;&gt;Node9 -->
<g id="edge19" class="edge">
<title>Node1&#45;&gt;Node9</title>
<path fill="none" stroke="midnightblue" d="M112.36,-377.23C105.63,-369.01 97.64,-358.73 91.19,-349 78.82,-330.32 66.73,-306.92 60.51,-294.39"/>
<polygon fill="midnightblue" stroke="midnightblue" points="109.69,-379.5 118.78,-384.95 115.07,-375.03 109.69,-379.5"/>
</g>
<!-- Node3 -->
<g id="node3" class="node">
<title>Node3</title>
<g id="a_node3"><a xlink:href="api_8hpp.html" target="_top" xlink:title=" ">
<polygon fill="none" stroke="black" points="82.69,-239 29.69,-239 29.69,-220 82.69,-220 82.69,-239"/>
<text text-anchor="middle" x="56.19" y="-227" font-family="Helvetica,sans-Serif" font-size="10.00">api.hpp</text>
</a>
</g>
</g>
<!-- Node2&#45;&gt;Node3 -->
<g id="edge2" class="edge">
<title>Node2&#45;&gt;Node3</title>
<path fill="none" stroke="midnightblue" d="M123.43,-319.72C120.82,-306.42 115.95,-288.61 107.19,-275 97.52,-259.98 81.36,-247.11 69.82,-239.13"/>
<polygon fill="midnightblue" stroke="midnightblue" points="119.99,-320.37 125.13,-329.64 126.89,-319.19 119.99,-320.37"/>
</g>
<!-- Node2&#45;&gt;Node8 -->
<g id="edge13" class="edge">
<title>Node2&#45;&gt;Node8</title>
<path fill="none" stroke="midnightblue" d="M130.91,-320.13C142.43,-275.3 171.63,-161.6 179.95,-129.22"/>
<polygon fill="midnightblue" stroke="midnightblue" points="127.48,-319.4 128.39,-329.95 134.26,-321.14 127.48,-319.4"/>
</g>
<!-- Node2&#45;&gt;Node9 -->
<g id="edge14" class="edge">
<title>Node2&#45;&gt;Node9</title>
<path fill="none" stroke="midnightblue" d="M106.88,-323.88C94.28,-314.34 78.26,-302.21 67.64,-294.17"/>
<polygon fill="midnightblue" stroke="midnightblue" points="104.86,-326.74 114.94,-329.98 109.08,-321.16 104.86,-326.74"/>
</g>
<!-- Node3&#45;&gt;Node4 -->
<g id="edge3" class="edge">
<title>Node3&#45;&gt;Node4</title>
<path fill="none" stroke="midnightblue" d="M78.43,-213.65C88.19,-205.96 98.84,-195.72 105.19,-184 125.23,-146.99 125.48,-94.61 124.69,-74.15"/>
<polygon fill="midnightblue" stroke="midnightblue" points="76.17,-210.97 70.22,-219.73 80.34,-216.59 76.17,-210.97"/>
</g>
<!-- Node3&#45;&gt;Node7 -->
<g id="edge7" class="edge">
<title>Node3&#45;&gt;Node7</title>
<path fill="none" stroke="midnightblue" d="M48.63,-209.66C47.54,-200.93 47.43,-190.99 48.55,-184.09"/>
<polygon fill="midnightblue" stroke="midnightblue" points="45.24,-210.57 50.53,-219.75 52.12,-209.27 45.24,-210.57"/>
</g>
<!-- Node5 -->
<g id="node5" class="node">
<title>Node5</title>
<g id="a_node5"><a xlink:href="all_8hpp.html" target="_top" xlink:title=" ">
<polygon fill="none" stroke="black" points="202.19,-19 152.19,-19 152.19,0 202.19,0 202.19,-19"/>
<text text-anchor="middle" x="177.19" y="-7" font-family="Helvetica,sans-Serif" font-size="10.00">all.hpp</text>
</a>
</g>
</g>
<!-- Node4&#45;&gt;Node5 -->
<g id="edge4" class="edge">
<title>Node4&#45;&gt;Node5</title>
<path fill="none" stroke="midnightblue" d="M140.17,-47.52C149.51,-38.18 160.94,-26.75 168.6,-19.09"/>
<polygon fill="midnightblue" stroke="midnightblue" points="137.54,-45.2 132.94,-54.75 142.49,-50.15 137.54,-45.2"/>
</g>
<!-- Node6 -->
<g id="node6" class="node">
<title>Node6</title>
<g id="a_node6"><a xlink:href="help__printer_8hpp.html" target="_top" xlink:title=" ">
<polygon fill="none" stroke="black" points="133.69,-19 38.69,-19 38.69,0 133.69,0 133.69,-19"/>
<text text-anchor="middle" x="86.19" y="-7" font-family="Helvetica,sans-Serif" font-size="10.00">help_printer.hpp</text>
</a>
</g>
</g>
<!-- Node4&#45;&gt;Node6 -->
<g id="edge5" class="edge">
<title>Node4&#45;&gt;Node6</title>
<path fill="none" stroke="midnightblue" d="M106.02,-46.96C98.54,-37.72 90.96,-26.6 87.22,-19.09"/>
<polygon fill="midnightblue" stroke="midnightblue" points="103.57,-49.47 112.75,-54.75 108.86,-44.89 103.57,-49.47"/>
</g>
<!-- Node6&#45;&gt;Node4 -->
<g id="edge6" class="edge">
<title>Node6&#45;&gt;Node4</title>
<path fill="none" stroke="midnightblue" d="M104.2,-26.84C111.68,-36.05 119.29,-47.18 123.08,-54.75"/>
<polygon fill="midnightblue" stroke="midnightblue" points="106.67,-24.36 97.48,-19.09 101.38,-28.94 106.67,-24.36"/>
</g>
<!-- Node7&#45;&gt;Node3 -->
<g id="edge8" class="edge">
<title>Node7&#45;&gt;Node3</title>
<path fill="none" stroke="midnightblue" d="M60.72,-194.13C61.84,-202.85 61.96,-212.8 60.86,-219.75"/>
<polygon fill="midnightblue" stroke="midnightblue" points="64.12,-193.26 58.81,-184.09 57.24,-194.57 64.12,-193.26"/>
</g>
<!-- Node7&#45;&gt;Node4 -->
<g id="edge9" class="edge">
<title>Node7&#45;&gt;Node4</title>
<path fill="none" stroke="midnightblue" d="M64.65,-156.07C80.05,-132.64 106.84,-91.89 118.5,-74.16"/>
<polygon fill="midnightblue" stroke="midnightblue" points="61.57,-154.38 59,-164.66 67.42,-158.23 61.57,-154.38"/>
</g>
<!-- Node7&#45;&gt;Node6 -->
<g id="edge12" class="edge">
<title>Node7&#45;&gt;Node6</title>
<path fill="none" stroke="midnightblue" d="M55.97,-154.88C59.59,-131.45 66.38,-90.05 74.19,-55 76.98,-42.5 80.97,-28.25 83.57,-19.31"/>
<polygon fill="midnightblue" stroke="midnightblue" points="52.5,-154.41 54.46,-164.82 59.42,-155.46 52.5,-154.41"/>
</g>
<!-- Node7&#45;&gt;Node8 -->
<g id="edge10" class="edge">
<title>Node7&#45;&gt;Node8</title>
<path fill="none" stroke="midnightblue" d="M83.23,-161.16C107.11,-151.35 139.92,-137.87 161.09,-129.17"/>
<polygon fill="midnightblue" stroke="midnightblue" points="81.84,-157.95 73.92,-164.98 84.5,-164.42 81.84,-157.95"/>
</g>
<!-- Node8&#45;&gt;Node4 -->
<g id="edge11" class="edge">
<title>Node8&#45;&gt;Node4</title>
<path fill="none" stroke="midnightblue" d="M165.28,-103.04C154.99,-93.64 142.23,-81.98 133.68,-74.17"/>
<polygon fill="midnightblue" stroke="midnightblue" points="163.13,-105.82 172.87,-109.98 167.85,-100.66 163.13,-105.82"/>
</g>
<!-- Node9&#45;&gt;Node3 -->
<g id="edge15" class="edge">
<title>Node9&#45;&gt;Node3</title>
<path fill="none" stroke="midnightblue" d="M56.19,-264.66C56.19,-255.93 56.19,-245.99 56.19,-239.09"/>
<polygon fill="midnightblue" stroke="midnightblue" points="52.69,-264.75 56.19,-274.75 59.69,-264.75 52.69,-264.75"/>
</g>
</g>
</svg>
