<?xml version="1.0" encoding="UTF-8" standalone="no"?>
<!DOCTYPE svg PUBLIC "-//W3C//DTD SVG 1.1//EN"
 "http://www.w3.org/Graphics/SVG/1.1/DTD/svg11.dtd">
<!-- Generated by graphviz version 14.1.2 (0)
 -->
<!-- Title: context.hpp Pages: 1 -->
<svg width="238pt" height="420pt"
 viewBox="0.00 0.00 238.00 420.00" xmlns="http://www.w3.org/2000/svg" xmlns:xlink="http://www.w3.org/1999/xlink">

<svg id="main" version="1.1" xmlns="http://www.w3.org/2000/svg" xmlns:xlink="http://www.w3.org/1999/xlink" xml:space="preserve">

<style type="text/css"><![CDATA[
.node, .edge {opacity: 0.7;}
.node.selected, .edge.selected {opacity: 1;}
.edge:hover path { stroke: red; }
.edge:hover polygon { stroke: red; fill: red; }
]]></style>
<script type="application/ecmascript" xlink:href="svg.min.js"/>
<svg id="graph" class="graph">
<g id="graph0" class="graph" transform="scale(1 1) rotate(0) translate(4 416)">
<title>context.hpp</title>
<!-- Node1 -->
<g id="Node000001" class="node">
<title>Node1</title>
<g id="a_Node000001"><a xlink:title=" ">
<polygon fill="#999999" stroke="#666666" points="149.52,-412 82.52,-412 82.52,-392 149.52,-392 149.52,-412"/>
<text xml:space="preserve" text-anchor="middle" x="116.02" y="-398.5" font-family="Helvetica,sans-Serif" font-size="10.00">context.hpp</text>
</a>
</g>
</g>
<!-- Node2 -->
<g id="Node000002" class="node">
<title>Node2</title>
<g id="a_Node000002"><a xlink:href="arg_8hpp.html" target="_top" xlink:title=" ">
<polygon fill="white" stroke="#666666" points="140.15,-356 91.9,-356 91.9,-336 140.15,-336 140.15,-356"/>
<text xml:space="preserve" text-anchor="middle" x="116.02" y="-342.5" font-family="Helvetica,sans-Serif" font-size="10.00">arg.hpp</text>
</a>
</g>
</g>
<!-- Node1&#45;&gt;Node2 -->
<g id="edge1_Node000001_Node000002" class="edge">
<title>Node1&#45;&gt;Node2</title>
<g id="a_edge1_Node000001_Node000002"><a xlink:title=" ">
<path fill="none" stroke="#63b8ff" d="M116.02,-380.13C116.02,-371.9 116.02,-362.85 116.02,-356.3"/>
<polygon fill="#63b8ff" stroke="#63b8ff" points="112.52,-380.08 116.02,-390.08 119.52,-380.08 112.52,-380.08"/>
</a>
</g>
</g>
<!-- Node4 -->
<g id="Node000004" class="node">
<title>Node4</title>
<g id="a_Node000004"><a xlink:href="cmd__line_8hpp.html" target="_top" xlink:title=" ">
<polygon fill="white" stroke="#666666" points="152.9,-76 79.15,-76 79.15,-56 152.9,-56 152.9,-76"/>
<text xml:space="preserve" text-anchor="middle" x="116.02" y="-62.5" font-family="Helvetica,sans-Serif" font-size="10.00">cmd_line.hpp</text>
</a>
</g>
</g>
<!-- Node1&#45;&gt;Node4 -->
<g id="edge16_Node000001_Node000004" class="edge">
<title>Node1&#45;&gt;Node4</title>
<g id="a_edge16_Node000001_Node000004"><a xlink:title=" ">
<path fill="none" stroke="#63b8ff" d="M148.48,-386.65C182.18,-369.29 230.02,-336.61 230.02,-291 230.02,-291 230.02,-291 230.02,-177 230.02,-146.05 225.77,-134.96 205.02,-112 189.58,-94.92 166.16,-83.44 147.22,-76.35"/>
<polygon fill="#63b8ff" stroke="#63b8ff" points="147.33,-383.32 139.9,-390.88 150.42,-389.6 147.33,-383.32"/>
</a>
</g>
</g>
<!-- Node7 -->
<g id="Node000007" class="node">
<title>Node7</title>
<g id="a_Node000007"><a xlink:href="command_8hpp.html" target="_top" xlink:title=" ">
<polygon fill="white" stroke="#666666" points="87.77,-188 10.27,-188 10.27,-168 87.77,-168 87.77,-188"/>
<text xml:space="preserve" text-anchor="middle" x="49.02" y="-174.5" font-family="Helvetica,sans-Serif" font-size="10.00">command.hpp</text>
</a>
</g>
</g>
<!-- Node1&#45;&gt;Node7 -->
<g id="edge17_Node000001_Node000007" class="edge">
<title>Node1&#45;&gt;Node7</title>
<g id="a_edge17_Node000001_Node000007"><a xlink:title=" ">
<path fill="none" stroke="#63b8ff" d="M89.15,-385.85C62.14,-368.9 22.12,-338.67 5.02,-300 -12.97,-259.32 23.6,-208.77 40.77,-188.27"/>
<polygon fill="#63b8ff" stroke="#63b8ff" points="87.13,-388.72 97.5,-390.9 90.76,-382.73 87.13,-388.72"/>
</a>
</g>
</g>
<!-- Node8 -->
<g id="Node000008" class="node">
<title>Node8</title>
<g id="a_Node000008"><a xlink:href="help_8hpp.html" target="_top" xlink:title=" ">
<polygon fill="white" stroke="#666666" points="196.4,-132 143.65,-132 143.65,-112 196.4,-112 196.4,-132"/>
<text xml:space="preserve" text-anchor="middle" x="170.02" y="-118.5" font-family="Helvetica,sans-Serif" font-size="10.00">help.hpp</text>
</a>
</g>
</g>
<!-- Node1&#45;&gt;Node8 -->
<g id="edge18_Node000001_Node000008" class="edge">
<title>Node1&#45;&gt;Node8</title>
<g id="a_edge18_Node000001_Node000008"><a xlink:title=" ">
<path fill="none" stroke="#63b8ff" d="M137.19,-384.41C159.68,-364.76 192.02,-329.76 192.02,-291 192.02,-291 192.02,-291 192.02,-233 192.02,-195.02 179.26,-151.08 173.17,-132.29"/>
<polygon fill="#63b8ff" stroke="#63b8ff" points="135.15,-381.56 129.73,-390.66 139.65,-386.92 135.15,-381.56"/>
</a>
</g>
</g>
<!-- Node9 -->
<g id="Node000009" class="node">
<title>Node9</title>
<g id="a_Node000009"><a xlink:href="multi__arg_8hpp.html" target="_top" xlink:title=" ">
<polygon fill="white" stroke="#666666" points="88.27,-300 13.77,-300 13.77,-280 88.27,-280 88.27,-300"/>
<text xml:space="preserve" text-anchor="middle" x="51.02" y="-286.5" font-family="Helvetica,sans-Serif" font-size="10.00">multi_arg.hpp</text>
</a>
</g>
</g>
<!-- Node1&#45;&gt;Node9 -->
<g id="edge19_Node000001_Node000009" class="edge">
<title>Node1&#45;&gt;Node9</title>
<g id="a_edge19_Node000001_Node000009"><a xlink:title=" ">
<path fill="none" stroke="#63b8ff" d="M101.4,-382.61C95.38,-374.65 88.53,-365.09 83.02,-356 71.41,-336.86 60.48,-312.91 54.89,-300.09"/>
<polygon fill="#63b8ff" stroke="#63b8ff" points="98.62,-384.73 107.51,-390.48 104.15,-380.44 98.62,-384.73"/>
</a>
</g>
</g>
<!-- Node3 -->
<g id="Node000003" class="node">
<title>Node3</title>
<g id="a_Node000003"><a xlink:href="api_8hpp.html" target="_top" xlink:title=" ">
<polygon fill="white" stroke="#666666" points="74.77,-244 27.27,-244 27.27,-224 74.77,-224 74.77,-244"/>
<text xml:space="preserve" text-anchor="middle" x="51.02" y="-230.5" font-family="Helvetica,sans-Serif" font-size="10.00">api.hpp</text>
</a>
</g>
</g>
<!-- Node2&#45;&gt;Node3 -->
<g id="edge2_Node000002_Node000003" class="edge">
<title>Node2&#45;&gt;Node3</title>
<g id="a_edge2_Node000002_Node000003"><a xlink:title=" ">
<path fill="none" stroke="#63b8ff" d="M112.76,-324.25C110.02,-310.91 105.18,-293.6 97.02,-280 88.4,-265.63 74.09,-252.65 63.71,-244.37"/>
<polygon fill="#63b8ff" stroke="#63b8ff" points="109.32,-324.86 114.53,-334.08 116.21,-323.62 109.32,-324.86"/>
</a>
</g>
</g>
<!-- Node2&#45;&gt;Node8 -->
<g id="edge13_Node000002_Node000008" class="edge">
<title>Node2&#45;&gt;Node8</title>
<g id="a_edge13_Node000002_Node000008"><a xlink:title=" ">
<path fill="none" stroke="#63b8ff" d="M120.95,-324.75C132.25,-278.28 159.7,-165.43 167.76,-132.3"/>
<polygon fill="#63b8ff" stroke="#63b8ff" points="117.59,-323.73 118.63,-334.27 124.39,-325.38 117.59,-323.73"/>
</a>
</g>
</g>
<!-- Node2&#45;&gt;Node9 -->
<g id="edge14_Node000002_Node000009" class="edge">
<title>Node2&#45;&gt;Node9</title>
<g id="a_edge14_Node000002_Node000009"><a xlink:title=" ">
<path fill="none" stroke="#63b8ff" d="M96.04,-328.4C84.92,-319.17 71.49,-308.01 62.21,-300.3"/>
<polygon fill="#63b8ff" stroke="#63b8ff" points="93.61,-330.93 103.53,-334.63 98.08,-325.54 93.61,-330.93"/>
</a>
</g>
</g>
<!-- Node3&#45;&gt;Node4 -->
<g id="edge3_Node000003_Node000004" class="edge">
<title>Node3&#45;&gt;Node4</title>
<g id="a_edge3_Node000003_Node000004"><a xlink:title=" ">
<path fill="none" stroke="#63b8ff" d="M73.38,-216.41C82.13,-208.74 91.4,-198.91 97.02,-188 116.51,-150.2 117.14,-97.61 116.49,-76.41"/>
<polygon fill="#63b8ff" stroke="#63b8ff" points="71.32,-213.58 65.8,-222.62 75.75,-218.99 71.32,-213.58"/>
</a>
</g>
</g>
<!-- Node3&#45;&gt;Node7 -->
<g id="edge7_Node000003_Node000007" class="edge">
<title>Node3&#45;&gt;Node7</title>
<g id="a_edge7_Node000003_Node000007"><a xlink:title=" ">
<path fill="none" stroke="#63b8ff" d="M43.68,-212.43C42.92,-204.11 43.02,-194.93 44.12,-188.3"/>
<polygon fill="#63b8ff" stroke="#63b8ff" points="40.19,-212.75 45.17,-222.1 47.11,-211.68 40.19,-212.75"/>
</a>
</g>
</g>
<!-- Node5 -->
<g id="Node000005" class="node">
<title>Node5</title>
<g id="a_Node000005"><a xlink:href="all_8hpp.html" target="_top" xlink:title=" ">
<polygon fill="white" stroke="#666666" points="183.27,-20 138.77,-20 138.77,0 183.27,0 183.27,-20"/>
<text xml:space="preserve" text-anchor="middle" x="161.02" y="-6.5" font-family="Helvetica,sans-Serif" font-size="10.00">all.hpp</text>
</a>
</g>
</g>
<!-- Node4&#45;&gt;Node5 -->
<g id="edge4_Node000004_Node000005" class="edge">
<title>Node4&#45;&gt;Node5</title>
<g id="a_edge4_Node000004_Node000005"><a xlink:title=" ">
<path fill="none" stroke="#63b8ff" d="M131.02,-47C138.47,-38.06 147.17,-27.62 153.27,-20.3"/>
<polygon fill="#63b8ff" stroke="#63b8ff" points="128.54,-44.51 124.83,-54.43 133.92,-48.99 128.54,-44.51"/>
</a>
</g>
</g>
<!-- Node6 -->
<g id="Node000006" class="node">
<title>Node6</title>
<g id="a_Node000006"><a xlink:href="help__printer_8hpp.html" target="_top" xlink:title=" ">
<polygon fill="white" stroke="#666666" points="120.52,-20 35.52,-20 35.52,0 120.52,0 120.52,-20"/>
<text xml:space="preserve" text-anchor="middle" x="78.02" y="-6.5" font-family="Helvetica,sans-Serif" font-size="10.00">help_printer.hpp</text>
</a>
</g>
</g>
<!-- Node4&#45;&gt;Node6 -->
<g id="edge5_Node000004_Node000006" class="edge">
<title>Node4&#45;&gt;Node6</title>
<g id="a_edge5_Node000004_Node000006"><a xlink:title=" ">
<path fill="none" stroke="#63b8ff" d="M96.95,-47C89.95,-38.06 82.99,-27.62 79.32,-20.3"/>
<polygon fill="#63b8ff" stroke="#63b8ff" points="94.06,-49.01 103.16,-54.43 99.43,-44.52 94.06,-49.01"/>
</a>
</g>
</g>
<!-- Node6&#45;&gt;Node4 -->
<g id="edge6_Node000006_Node000004" class="edge">
<title>Node6&#45;&gt;Node4</title>
<g id="a_edge6_Node000006_Node000004"><a xlink:title=" ">
<path fill="none" stroke="#63b8ff" d="M96.99,-28.87C103.99,-37.8 110.96,-48.24 114.67,-55.59"/>
<polygon fill="#63b8ff" stroke="#63b8ff" points="99.89,-26.88 90.78,-21.46 94.52,-31.37 99.89,-26.88"/>
</a>
</g>
</g>
<!-- Node7&#45;&gt;Node3 -->
<g id="edge8_Node000007_Node000003" class="edge">
<title>Node7&#45;&gt;Node3</title>
<g id="a_edge8_Node000007_Node000003"><a xlink:title=" ">
<path fill="none" stroke="#63b8ff" d="M56.35,-199.44C57.12,-207.75 57.03,-216.93 55.94,-223.59"/>
<polygon fill="#63b8ff" stroke="#63b8ff" points="59.84,-199.14 54.84,-189.79 52.93,-200.21 59.84,-199.14"/>
</a>
</g>
</g>
<!-- Node7&#45;&gt;Node4 -->
<g id="edge9_Node000007_Node000004" class="edge">
<title>Node7&#45;&gt;Node4</title>
<g id="a_edge9_Node000007_Node000004"><a xlink:title=" ">
<path fill="none" stroke="#63b8ff" d="M60.63,-157.95C75.12,-134.14 99.36,-94.36 110.32,-76.35"/>
<polygon fill="#63b8ff" stroke="#63b8ff" points="57.73,-155.97 55.52,-166.33 63.71,-159.61 57.73,-155.97"/>
</a>
</g>
</g>
<!-- Node7&#45;&gt;Node6 -->
<g id="edge12_Node000007_Node000006" class="edge">
<title>Node7&#45;&gt;Node6</title>
<g id="a_edge12_Node000007_Node000006"><a xlink:title=" ">
<path fill="none" stroke="#63b8ff" d="M52.57,-156.37C56.73,-132.28 63.83,-91.24 70.02,-56 72.19,-43.65 74.73,-29.4 76.35,-20.31"/>
<polygon fill="#63b8ff" stroke="#63b8ff" points="49.15,-155.64 50.9,-166.09 56.05,-156.83 49.15,-155.64"/>
</a>
</g>
</g>
<!-- Node7&#45;&gt;Node8 -->
<g id="edge10_Node000007_Node000008" class="edge">
<title>Node7&#45;&gt;Node8</title>
<g id="a_edge10_Node000007_Node000008"><a xlink:title=" ">
<path fill="none" stroke="#63b8ff" d="M80.37,-163.01C101.88,-153.41 129.84,-140.93 148.78,-132.48"/>
<polygon fill="#63b8ff" stroke="#63b8ff" points="79.18,-159.71 71.48,-166.98 82.04,-166.1 79.18,-159.71"/>
</a>
</g>
</g>
<!-- Node8&#45;&gt;Node4 -->
<g id="edge11_Node000008_Node000004" class="edge">
<title>Node8&#45;&gt;Node4</title>
<g id="a_edge11_Node000008_Node000004"><a xlink:title=" ">
<path fill="none" stroke="#63b8ff" d="M152.59,-103.57C143.52,-94.5 132.8,-83.78 125.32,-76.3"/>
<polygon fill="#63b8ff" stroke="#63b8ff" points="150,-105.93 159.54,-110.52 154.95,-100.98 150,-105.93"/>
</a>
</g>
</g>
<!-- Node9&#45;&gt;Node3 -->
<g id="edge15_Node000009_Node000003" class="edge">
<title>Node9&#45;&gt;Node3</title>
<g id="a_edge15_Node000009_Node000003"><a xlink:title=" ">
<path fill="none" stroke="#63b8ff" d="M51.02,-268.13C51.02,-259.9 51.02,-250.85 51.02,-244.3"/>
<polygon fill="#63b8ff" stroke="#63b8ff" points="47.52,-268.08 51.02,-278.08 54.52,-268.08 47.52,-268.08"/>
</a>
</g>
</g>
</g>
</svg>
</svg>

<style type='text/css'>
<![CDATA[
[data-mouse-over-selected='false'] { opacity: 0.7; }
[data-mouse-over-selected='true']  { opacity: 1.0; }
]]>
</style>
<script type="application/ecmascript"><![CDATA[
document.addEventListener('DOMContentLoaded', (event) => {
  highlightEdges();
  highlightAdjacentNodes();
});
]]></script>
</svg>
