<?xml version="1.0" encoding="UTF-8" standalone="no"?>
<!DOCTYPE svg PUBLIC "-//W3C//DTD SVG 1.1//EN"
 "http://www.w3.org/Graphics/SVG/1.1/DTD/svg11.dtd">
<!-- Generated by graphviz version 2.38.0 (20140413.2041)
 -->
<!-- Title: context.hpp Pages: 1 -->
<svg width="300pt" height="308pt"
 viewBox="0.00 0.00 299.66 308.00" xmlns="http://www.w3.org/2000/svg" xmlns:xlink="http://www.w3.org/1999/xlink">
<g id="graph0" class="graph" transform="scale(1 1) rotate(0) translate(4 304)">
<title>context.hpp</title>
<!-- Node1 -->
<g id="node1" class="node"><title>Node1</title>
<polygon fill="#bfbfbf" stroke="black" points="124,-280.5 124,-299.5 190,-299.5 190,-280.5 124,-280.5"/>
<text text-anchor="middle" x="157" y="-287.5" font-family="FreeSans" font-size="10.00">context.hpp</text>
</g>
<!-- Node2 -->
<g id="node2" class="node"><title>Node2</title>
<g id="a_node2"><a xlink:href="arg_8hpp.html" target="_top" xlink:title="arg.hpp">
<polygon fill="none" stroke="black" points="80,-224.5 80,-243.5 128,-243.5 128,-224.5 80,-224.5"/>
<text text-anchor="middle" x="104" y="-231.5" font-family="FreeSans" font-size="10.00">arg.hpp</text>
</a>
</g>
</g>
<!-- Node1&#45;&gt;Node2 -->
<g id="edge1" class="edge"><title>Node1&#45;&gt;Node2</title>
<path fill="none" stroke="midnightblue" d="M141.019,-272.718C131.678,-263.2 120.254,-251.561 112.589,-243.751"/>
<polygon fill="midnightblue" stroke="midnightblue" points="138.746,-275.398 148.248,-280.083 143.741,-270.494 138.746,-275.398"/>
</g>
<!-- Node4 -->
<g id="node4" class="node"><title>Node4</title>
<g id="a_node4"><a xlink:href="cmd__line_8hpp.html" target="_top" xlink:title="cmd_line.hpp">
<polygon fill="none" stroke="black" points="170,-56.5 170,-75.5 244,-75.5 244,-56.5 170,-56.5"/>
<text text-anchor="middle" x="207" y="-63.5" font-family="FreeSans" font-size="10.00">cmd_line.hpp</text>
</a>
</g>
</g>
<!-- Node1&#45;&gt;Node4 -->
<g id="edge12" class="edge"><title>Node1&#45;&gt;Node4</title>
<path fill="none" stroke="midnightblue" d="M186.739,-276.017C218.486,-260.328 267.042,-230.623 288,-188 296.635,-170.439 287.664,-126.394 278,-112 266.448,-94.7954 245.866,-82.8317 229.827,-75.5881"/>
<polygon fill="midnightblue" stroke="midnightblue" points="184.996,-272.971 177.476,-280.435 188.009,-279.289 184.996,-272.971"/>
</g>
<!-- Node7 -->
<g id="node7" class="node"><title>Node7</title>
<g id="a_node7"><a xlink:href="multi__arg_8hpp.html" target="_top" xlink:title="multi_arg.hpp">
<polygon fill="none" stroke="black" points="0,-168.5 0,-187.5 74,-187.5 74,-168.5 0,-168.5"/>
<text text-anchor="middle" x="37" y="-175.5" font-family="FreeSans" font-size="10.00">multi_arg.hpp</text>
</a>
</g>
</g>
<!-- Node1&#45;&gt;Node7 -->
<g id="edge11" class="edge"><title>Node1&#45;&gt;Node7</title>
<path fill="none" stroke="midnightblue" d="M121.884,-276.415C104.936,-268.998 85.2426,-258.245 71,-244 54.4316,-227.429 44.1158,-201.1 39.6238,-187.6"/>
<polygon fill="midnightblue" stroke="midnightblue" points="120.905,-279.798 131.483,-280.397 123.588,-273.332 120.905,-279.798"/>
</g>
<!-- Node8 -->
<g id="node8" class="node"><title>Node8</title>
<g id="a_node8"><a xlink:href="help_8hpp.html" target="_top" xlink:title="help.hpp">
<polygon fill="none" stroke="black" points="130.5,-168.5 130.5,-187.5 183.5,-187.5 183.5,-168.5 130.5,-168.5"/>
<text text-anchor="middle" x="157" y="-175.5" font-family="FreeSans" font-size="10.00">help.hpp</text>
</a>
</g>
</g>
<!-- Node1&#45;&gt;Node8 -->
<g id="edge17" class="edge"><title>Node1&#45;&gt;Node8</title>
<path fill="none" stroke="midnightblue" d="M157,-270.348C157,-246.254 157,-205.308 157,-187.591"/>
<polygon fill="midnightblue" stroke="midnightblue" points="153.5,-270.368 157,-280.368 160.5,-270.369 153.5,-270.368"/>
</g>
<!-- Node9 -->
<g id="node9" class="node"><title>Node9</title>
<g id="a_node9"><a xlink:href="command_8hpp.html" target="_top" xlink:title="command.hpp">
<polygon fill="none" stroke="black" points="201.5,-168.5 201.5,-187.5 278.5,-187.5 278.5,-168.5 201.5,-168.5"/>
<text text-anchor="middle" x="240" y="-175.5" font-family="FreeSans" font-size="10.00">command.hpp</text>
</a>
</g>
</g>
<!-- Node1&#45;&gt;Node9 -->
<g id="edge13" class="edge"><title>Node1&#45;&gt;Node9</title>
<path fill="none" stroke="midnightblue" d="M169.622,-272.272C187.563,-248.494 219.787,-205.789 233.517,-187.591"/>
<polygon fill="midnightblue" stroke="midnightblue" points="166.742,-270.278 163.513,-280.368 172.33,-274.494 166.742,-270.278"/>
</g>
<!-- Node3 -->
<g id="node3" class="node"><title>Node3</title>
<g id="a_node3"><a xlink:href="api_8hpp.html" target="_top" xlink:title="api.hpp">
<polygon fill="none" stroke="black" points="64.5,-112.5 64.5,-131.5 111.5,-131.5 111.5,-112.5 64.5,-112.5"/>
<text text-anchor="middle" x="88" y="-119.5" font-family="FreeSans" font-size="10.00">api.hpp</text>
</a>
</g>
</g>
<!-- Node2&#45;&gt;Node3 -->
<g id="edge2" class="edge"><title>Node2&#45;&gt;Node3</title>
<path fill="none" stroke="midnightblue" d="M101.287,-214.348C97.7824,-190.254 91.8266,-149.308 89.2497,-131.591"/>
<polygon fill="midnightblue" stroke="midnightblue" points="97.8415,-214.976 102.745,-224.368 104.769,-213.969 97.8415,-214.976"/>
</g>
<!-- Node2&#45;&gt;Node7 -->
<g id="edge7" class="edge"><title>Node2&#45;&gt;Node7</title>
<path fill="none" stroke="midnightblue" d="M85.1652,-217.82C73.1616,-208.145 58.0283,-195.948 47.9606,-187.834"/>
<polygon fill="midnightblue" stroke="midnightblue" points="83.253,-220.774 93.2353,-224.324 87.6457,-215.324 83.253,-220.774"/>
</g>
<!-- Node2&#45;&gt;Node8 -->
<g id="edge9" class="edge"><title>Node2&#45;&gt;Node8</title>
<path fill="none" stroke="midnightblue" d="M119.981,-216.718C129.322,-207.2 140.746,-195.561 148.411,-187.751"/>
<polygon fill="midnightblue" stroke="midnightblue" points="117.259,-214.494 112.752,-224.083 122.254,-219.398 117.259,-214.494"/>
</g>
<!-- Node3&#45;&gt;Node4 -->
<g id="edge3" class="edge"><title>Node3&#45;&gt;Node4</title>
<path fill="none" stroke="midnightblue" d="M116.137,-108.232C138.396,-98.1312 168.856,-84.3091 188.232,-75.5164"/>
<polygon fill="midnightblue" stroke="midnightblue" points="114.516,-105.124 106.856,-112.444 117.409,-111.498 114.516,-105.124"/>
</g>
<!-- Node5 -->
<g id="node5" class="node"><title>Node5</title>
<g id="a_node5"><a xlink:href="all_8hpp.html" target="_top" xlink:title="all.hpp">
<polygon fill="none" stroke="black" points="185,-0.5 185,-19.5 229,-19.5 229,-0.5 185,-0.5"/>
<text text-anchor="middle" x="207" y="-7.5" font-family="FreeSans" font-size="10.00">all.hpp</text>
</a>
</g>
</g>
<!-- Node4&#45;&gt;Node5 -->
<g id="edge4" class="edge"><title>Node4&#45;&gt;Node5</title>
<path fill="none" stroke="midnightblue" d="M207,-45.8045C207,-36.9102 207,-26.7798 207,-19.7511"/>
<polygon fill="midnightblue" stroke="midnightblue" points="203.5,-46.083 207,-56.083 210.5,-46.083 203.5,-46.083"/>
</g>
<!-- Node6 -->
<g id="node6" class="node"><title>Node6</title>
<g id="a_node6"><a xlink:href="arg__as__command_8hpp.html" target="_top" xlink:title="arg_as_command.hpp">
<polygon fill="none" stroke="black" points="53.5,-0.5 53.5,-19.5 164.5,-19.5 164.5,-0.5 53.5,-0.5"/>
<text text-anchor="middle" x="109" y="-7.5" font-family="FreeSans" font-size="10.00">arg_as_command.hpp</text>
</a>
</g>
</g>
<!-- Node4&#45;&gt;Node6 -->
<g id="edge5" class="edge"><title>Node4&#45;&gt;Node6</title>
<path fill="none" stroke="midnightblue" d="M182.414,-51.4526C164.322,-41.4835 140.265,-28.2279 124.706,-19.6545"/>
<polygon fill="midnightblue" stroke="midnightblue" points="180.807,-54.5633 191.255,-56.324 184.185,-48.4324 180.807,-54.5633"/>
</g>
<!-- Node6&#45;&gt;Node3 -->
<g id="edge6" class="edge"><title>Node6&#45;&gt;Node3</title>
<path fill="none" stroke="midnightblue" d="M105.45,-29.5974C100.855,-53.6664 93.0368,-94.617 89.6478,-112.368"/>
<polygon fill="midnightblue" stroke="midnightblue" points="108.922,-30.0704 107.36,-19.5914 102.047,-28.7577 108.922,-30.0704"/>
</g>
<!-- Node7&#45;&gt;Node3 -->
<g id="edge8" class="edge"><title>Node7&#45;&gt;Node3</title>
<path fill="none" stroke="midnightblue" d="M52.3779,-160.718C61.3669,-151.2 72.3592,-139.561 79.7351,-131.751"/>
<polygon fill="midnightblue" stroke="midnightblue" points="49.7433,-158.41 45.4216,-168.083 54.8324,-163.216 49.7433,-158.41"/>
</g>
<!-- Node8&#45;&gt;Node4 -->
<g id="edge10" class="edge"><title>Node8&#45;&gt;Node4</title>
<path fill="none" stroke="midnightblue" d="M153.871,-158.11C152.506,-144.656 152.465,-126.469 159,-112 166.052,-96.3845 181.32,-83.6189 192.754,-75.7246"/>
<polygon fill="midnightblue" stroke="midnightblue" points="150.414,-158.666 155.213,-168.112 157.352,-157.736 150.414,-158.666"/>
</g>
<!-- Node9&#45;&gt;Node4 -->
<g id="edge14" class="edge"><title>Node9&#45;&gt;Node4</title>
<path fill="none" stroke="midnightblue" d="M252.777,-160.085C261.217,-146.714 269.461,-127.745 262,-112 254.234,-95.6111 237.251,-83.2061 224.198,-75.6136"/>
<polygon fill="midnightblue" stroke="midnightblue" points="249.883,-158.118 247.094,-168.339 255.648,-162.088 249.883,-158.118"/>
</g>
<!-- Node10 -->
<g id="node10" class="node"><title>Node10</title>
<g id="a_node10"><a xlink:href="help__printer_8hpp.html" target="_top" xlink:title="help_printer.hpp">
<polygon fill="none" stroke="black" points="168.5,-112.5 168.5,-131.5 253.5,-131.5 253.5,-112.5 168.5,-112.5"/>
<text text-anchor="middle" x="211" y="-119.5" font-family="FreeSans" font-size="10.00">help_printer.hpp</text>
</a>
</g>
</g>
<!-- Node9&#45;&gt;Node10 -->
<g id="edge15" class="edge"><title>Node9&#45;&gt;Node10</title>
<path fill="none" stroke="midnightblue" d="M230.324,-158.983C225.402,-149.817 219.642,-139.092 215.7,-131.751"/>
<polygon fill="midnightblue" stroke="midnightblue" points="227.396,-160.929 235.211,-168.083 233.563,-157.617 227.396,-160.929"/>
</g>
<!-- Node10&#45;&gt;Node4 -->
<g id="edge16" class="edge"><title>Node10&#45;&gt;Node4</title>
<path fill="none" stroke="midnightblue" d="M209.6,-102.101C208.936,-93.1357 208.175,-82.8579 207.648,-75.7511"/>
<polygon fill="midnightblue" stroke="midnightblue" points="206.11,-102.369 210.339,-112.083 213.091,-101.852 206.11,-102.369"/>
</g>
</g>
</svg>
