<?xml version="1.0" encoding="UTF-8" standalone="no"?>
<!DOCTYPE svg PUBLIC "-//W3C//DTD SVG 1.1//EN"
 "http://www.w3.org/Graphics/SVG/1.1/DTD/svg11.dtd">
<!-- Generated by graphviz version 2.40.1 (20161225.0304)
 -->
<!-- Title: enums.hpp Pages: 1 -->
<svg width="444pt" height="364pt"
 viewBox="0.00 0.00 444.00 364.00" xmlns="http://www.w3.org/2000/svg" xmlns:xlink="http://www.w3.org/1999/xlink">
<g id="graph0" class="graph" transform="scale(1 1) rotate(0) translate(4 360)">
<title>enums.hpp</title>
<!-- Node1 -->
<g id="node1" class="node">
<title>Node1</title>
<polygon fill="#bfbfbf" stroke="#000000" points="195.5,-336.5 195.5,-355.5 260.5,-355.5 260.5,-336.5 195.5,-336.5"/>
<text text-anchor="middle" x="228" y="-343.5" font-family="Helvetica,sans-Serif" font-size="10.00" fill="#000000">enums.hpp</text>
</g>
<!-- Node2 -->
<g id="node2" class="node">
<title>Node2</title>
<g id="a_node2"><a xlink:href="arg__iface_8hpp.html" target="_top" xlink:title="arg_iface.hpp">
<polygon fill="none" stroke="#000000" points="190.5,-280.5 190.5,-299.5 265.5,-299.5 265.5,-280.5 190.5,-280.5"/>
<text text-anchor="middle" x="228" y="-287.5" font-family="Helvetica,sans-Serif" font-size="10.00" fill="#000000">arg_iface.hpp</text>
</a>
</g>
</g>
<!-- Node1&#45;&gt;Node2 -->
<g id="edge1" class="edge">
<title>Node1&#45;&gt;Node2</title>
<path fill="none" stroke="#191970" d="M228,-326.1575C228,-317.155 228,-306.9199 228,-299.6427"/>
<polygon fill="#191970" stroke="#191970" points="224.5001,-326.2455 228,-336.2455 231.5001,-326.2456 224.5001,-326.2455"/>
</g>
<!-- Node7 -->
<g id="node7" class="node">
<title>Node7</title>
<g id="a_node7"><a xlink:href="arg__as__command_8hpp.html" target="_top" xlink:title="arg_as_command.hpp">
<polygon fill="none" stroke="#000000" points="234.5,-.5 234.5,-19.5 347.5,-19.5 347.5,-.5 234.5,-.5"/>
<text text-anchor="middle" x="291" y="-7.5" font-family="Helvetica,sans-Serif" font-size="10.00" fill="#000000">arg_as_command.hpp</text>
</a>
</g>
</g>
<!-- Node1&#45;&gt;Node7 -->
<g id="edge22" class="edge">
<title>Node1&#45;&gt;Node7</title>
<path fill="none" stroke="#191970" d="M271.0701,-341.9121C331.9908,-333.4923 436,-308.2455 436,-234 436,-234 436,-234 436,-122 436,-66.0166 367.4648,-34.0729 324.6304,-19.5752"/>
<polygon fill="#191970" stroke="#191970" points="270.4309,-338.4653 260.9582,-343.2106 271.3226,-345.4083 270.4309,-338.4653"/>
</g>
<!-- Node13 -->
<g id="node13" class="node">
<title>Node13</title>
<g id="a_node13"><a xlink:href="command_8hpp.html" target="_top" xlink:title="command.hpp">
<polygon fill="none" stroke="#000000" points="0,-168.5 0,-187.5 78,-187.5 78,-168.5 0,-168.5"/>
<text text-anchor="middle" x="39" y="-175.5" font-family="Helvetica,sans-Serif" font-size="10.00" fill="#000000">command.hpp</text>
</a>
</g>
</g>
<!-- Node1&#45;&gt;Node13 -->
<g id="edge23" class="edge">
<title>Node1&#45;&gt;Node13</title>
<path fill="none" stroke="#191970" d="M204.5365,-330.8037C176.5097,-312.0993 128.9116,-278.5487 93,-244 74.009,-225.7297 55.3205,-200.9582 45.6953,-187.5592"/>
<polygon fill="#191970" stroke="#191970" points="202.6365,-333.7432 212.9089,-336.3373 206.4963,-327.9035 202.6365,-333.7432"/>
</g>
<!-- Node3 -->
<g id="node3" class="node">
<title>Node3</title>
<g id="a_node3"><a xlink:href="arg_8hpp.html" target="_top" xlink:title="arg.hpp">
<polygon fill="none" stroke="#000000" points="268.5,-224.5 268.5,-243.5 317.5,-243.5 317.5,-224.5 268.5,-224.5"/>
<text text-anchor="middle" x="293" y="-231.5" font-family="Helvetica,sans-Serif" font-size="10.00" fill="#000000">arg.hpp</text>
</a>
</g>
</g>
<!-- Node2&#45;&gt;Node3 -->
<g id="edge2" class="edge">
<title>Node2&#45;&gt;Node3</title>
<path fill="none" stroke="#191970" d="M246.9835,-273.645C258.2879,-263.9058 272.247,-251.8795 281.8076,-243.6427"/>
<polygon fill="#191970" stroke="#191970" points="244.6138,-271.0668 239.3221,-280.2455 249.1827,-276.3701 244.6138,-271.0668"/>
</g>
<!-- Node2&#45;&gt;Node7 -->
<g id="edge21" class="edge">
<title>Node2&#45;&gt;Node7</title>
<path fill="none" stroke="#191970" d="M232.4272,-270.2769C239.7987,-237.4419 255.0579,-169.4937 268,-112 275.6542,-77.9972 284.7646,-37.6236 288.8414,-19.562"/>
<polygon fill="#191970" stroke="#191970" points="228.9409,-269.8282 230.1655,-280.352 235.7709,-271.3615 228.9409,-269.8282"/>
</g>
<!-- Node10 -->
<g id="node10" class="node">
<title>Node10</title>
<g id="a_node10"><a xlink:href="group__iface_8hpp.html" target="_top" xlink:title="group_iface.hpp">
<polygon fill="none" stroke="#000000" points="102,-224.5 102,-243.5 188,-243.5 188,-224.5 102,-224.5"/>
<text text-anchor="middle" x="145" y="-231.5" font-family="Helvetica,sans-Serif" font-size="10.00" fill="#000000">group_iface.hpp</text>
</a>
</g>
</g>
<!-- Node2&#45;&gt;Node10 -->
<g id="edge12" class="edge">
<title>Node2&#45;&gt;Node10</title>
<path fill="none" stroke="#191970" d="M205.012,-274.49C190.3678,-264.6096 171.8556,-252.1194 159.2918,-243.6427"/>
<polygon fill="#191970" stroke="#191970" points="203.2953,-277.5539 213.5425,-280.2455 207.2104,-271.7511 203.2953,-277.5539"/>
</g>
<!-- Node4 -->
<g id="node4" class="node">
<title>Node4</title>
<g id="a_node4"><a xlink:href="api_8hpp.html" target="_top" xlink:title="api.hpp">
<polygon fill="none" stroke="#000000" points="277,-112.5 277,-131.5 325,-131.5 325,-112.5 277,-112.5"/>
<text text-anchor="middle" x="301" y="-119.5" font-family="Helvetica,sans-Serif" font-size="10.00" fill="#000000">api.hpp</text>
</a>
</g>
</g>
<!-- Node3&#45;&gt;Node4 -->
<g id="edge3" class="edge">
<title>Node3&#45;&gt;Node4</title>
<path fill="none" stroke="#191970" d="M294.4093,-214.2702C296.143,-189.9985 299.0163,-149.7725 300.3197,-131.5249"/>
<polygon fill="#191970" stroke="#191970" points="290.9035,-214.227 293.6821,-224.4509 297.8857,-214.7258 290.9035,-214.227"/>
</g>
<!-- Node8 -->
<g id="node8" class="node">
<title>Node8</title>
<g id="a_node8"><a xlink:href="multi__arg_8hpp.html" target="_top" xlink:title="multi_arg.hpp">
<polygon fill="none" stroke="#000000" points="332.5,-168.5 332.5,-187.5 407.5,-187.5 407.5,-168.5 332.5,-168.5"/>
<text text-anchor="middle" x="370" y="-175.5" font-family="Helvetica,sans-Serif" font-size="10.00" fill="#000000">multi_arg.hpp</text>
</a>
</g>
</g>
<!-- Node3&#45;&gt;Node8 -->
<g id="edge8" class="edge">
<title>Node3&#45;&gt;Node8</title>
<path fill="none" stroke="#191970" d="M314.7116,-218.2097C328.2353,-208.3743 345.1958,-196.0394 356.7413,-187.6427"/>
<polygon fill="#191970" stroke="#191970" points="312.4411,-215.5332 306.4124,-224.2455 316.5584,-221.1944 312.4411,-215.5332"/>
</g>
<!-- Node9 -->
<g id="node9" class="node">
<title>Node9</title>
<g id="a_node9"><a xlink:href="help_8hpp.html" target="_top" xlink:title="help.hpp">
<polygon fill="none" stroke="#000000" points="167.5,-112.5 167.5,-131.5 220.5,-131.5 220.5,-112.5 167.5,-112.5"/>
<text text-anchor="middle" x="194" y="-119.5" font-family="Helvetica,sans-Serif" font-size="10.00" fill="#000000">help.hpp</text>
</a>
</g>
</g>
<!-- Node3&#45;&gt;Node9 -->
<g id="edge10" class="edge">
<title>Node3&#45;&gt;Node9</title>
<path fill="none" stroke="#191970" d="M277.8332,-216.8416C256.7055,-192.9396 219.1328,-150.433 202.4193,-131.5249"/>
<polygon fill="#191970" stroke="#191970" points="275.314,-219.2764 284.5593,-224.4509 280.5588,-214.6404 275.314,-219.2764"/>
</g>
<!-- Node5 -->
<g id="node5" class="node">
<title>Node5</title>
<g id="a_node5"><a xlink:href="cmd__line_8hpp.html" target="_top" xlink:title="cmd_line.hpp">
<polygon fill="none" stroke="#000000" points="147,-56.5 147,-75.5 221,-75.5 221,-56.5 147,-56.5"/>
<text text-anchor="middle" x="184" y="-63.5" font-family="Helvetica,sans-Serif" font-size="10.00" fill="#000000">cmd_line.hpp</text>
</a>
</g>
</g>
<!-- Node4&#45;&gt;Node5 -->
<g id="edge4" class="edge">
<title>Node4&#45;&gt;Node5</title>
<path fill="none" stroke="#191970" d="M271.6958,-107.9741C250.512,-97.8348 222.4597,-84.408 203.8506,-75.5011"/>
<polygon fill="#191970" stroke="#191970" points="270.3559,-111.2129 280.887,-112.3733 273.378,-104.8989 270.3559,-111.2129"/>
</g>
<!-- Node6 -->
<g id="node6" class="node">
<title>Node6</title>
<g id="a_node6"><a xlink:href="all_8hpp.html" target="_top" xlink:title="all.hpp">
<polygon fill="none" stroke="#000000" points="161.5,-.5 161.5,-19.5 206.5,-19.5 206.5,-.5 161.5,-.5"/>
<text text-anchor="middle" x="184" y="-7.5" font-family="Helvetica,sans-Serif" font-size="10.00" fill="#000000">all.hpp</text>
</a>
</g>
</g>
<!-- Node5&#45;&gt;Node6 -->
<g id="edge5" class="edge">
<title>Node5&#45;&gt;Node6</title>
<path fill="none" stroke="#191970" d="M184,-46.1575C184,-37.155 184,-26.9199 184,-19.6427"/>
<polygon fill="#191970" stroke="#191970" points="180.5001,-46.2455 184,-56.2455 187.5001,-46.2456 180.5001,-46.2455"/>
</g>
<!-- Node5&#45;&gt;Node7 -->
<g id="edge6" class="edge">
<title>Node5&#45;&gt;Node7</title>
<path fill="none" stroke="#191970" d="M211.5199,-51.5971C230.7017,-41.558 255.7678,-28.4393 272.5756,-19.6427"/>
<polygon fill="#191970" stroke="#191970" points="209.875,-48.5075 202.638,-56.2455 213.1209,-54.7095 209.875,-48.5075"/>
</g>
<!-- Node7&#45;&gt;Node4 -->
<g id="edge7" class="edge">
<title>Node7&#45;&gt;Node4</title>
<path fill="none" stroke="#191970" d="M292.7587,-29.6976C294.9246,-53.9553 298.5164,-94.184 300.1474,-112.4509"/>
<polygon fill="#191970" stroke="#191970" points="296.226,-29.174 291.8504,-19.5249 289.2537,-29.7966 296.226,-29.174"/>
</g>
<!-- Node8&#45;&gt;Node4 -->
<g id="edge9" class="edge">
<title>Node8&#45;&gt;Node4</title>
<path fill="none" stroke="#191970" d="M350.197,-161.928C338.1364,-152.1397 323.1286,-139.9595 312.8812,-131.6427"/>
<polygon fill="#191970" stroke="#191970" points="348.0109,-164.6614 357.9811,-168.2455 352.4221,-159.2262 348.0109,-164.6614"/>
</g>
<!-- Node9&#45;&gt;Node5 -->
<g id="edge11" class="edge">
<title>Node9&#45;&gt;Node5</title>
<path fill="none" stroke="#191970" d="M190.4567,-102.1575C188.8491,-93.155 187.0214,-82.9199 185.7219,-75.6427"/>
<polygon fill="#191970" stroke="#191970" points="187.0546,-103.0166 192.2581,-112.2455 193.9456,-101.786 187.0546,-103.0166"/>
</g>
<!-- Node11 -->
<g id="node11" class="node">
<title>Node11</title>
<g id="a_node11"><a xlink:href="groups_8hpp.html" target="_top" xlink:title="groups.hpp">
<polygon fill="none" stroke="#000000" points="134.5,-168.5 134.5,-187.5 199.5,-187.5 199.5,-168.5 134.5,-168.5"/>
<text text-anchor="middle" x="167" y="-175.5" font-family="Helvetica,sans-Serif" font-size="10.00" fill="#000000">groups.hpp</text>
</a>
</g>
</g>
<!-- Node10&#45;&gt;Node11 -->
<g id="edge13" class="edge">
<title>Node10&#45;&gt;Node11</title>
<path fill="none" stroke="#191970" d="M152.5628,-214.7493C156.1546,-205.6064 160.2901,-195.0798 163.2118,-187.6427"/>
<polygon fill="#191970" stroke="#191970" points="149.2311,-213.6582 148.8321,-224.2455 155.7463,-216.2178 149.2311,-213.6582"/>
</g>
<!-- Node12 -->
<g id="node12" class="node">
<title>Node12</title>
<g id="a_node12"><a xlink:href="help__printer_8hpp.html" target="_top" xlink:title="help_printer.hpp">
<polygon fill="none" stroke="#000000" points="63,-112.5 63,-131.5 149,-131.5 149,-112.5 63,-112.5"/>
<text text-anchor="middle" x="106" y="-119.5" font-family="Helvetica,sans-Serif" font-size="10.00" fill="#000000">help_printer.hpp</text>
</a>
</g>
</g>
<!-- Node10&#45;&gt;Node12 -->
<g id="edge20" class="edge">
<title>Node10&#45;&gt;Node12</title>
<path fill="none" stroke="#191970" d="M136.5985,-214.8446C133.1312,-206.6474 129.1872,-196.9256 126,-188 118.9943,-168.3805 112.2725,-144.9409 108.6851,-131.9379"/>
<polygon fill="#191970" stroke="#191970" points="133.4732,-216.4366 140.6424,-224.2374 139.9027,-213.6685 133.4732,-216.4366"/>
</g>
<!-- Node10&#45;&gt;Node13 -->
<g id="edge17" class="edge">
<title>Node10&#45;&gt;Node13</title>
<path fill="none" stroke="#191970" d="M117.4778,-219.46C98.5092,-209.4388 73.8273,-196.3993 57.2522,-187.6427"/>
<polygon fill="#191970" stroke="#191970" points="116.0593,-222.669 126.5362,-224.2455 119.3292,-216.4796 116.0593,-222.669"/>
</g>
<!-- Node11&#45;&gt;Node4 -->
<g id="edge14" class="edge">
<title>Node11&#45;&gt;Node4</title>
<path fill="none" stroke="#191970" d="M199.5828,-164.3833C223.9536,-154.1985 256.6642,-140.5284 278.2652,-131.5011"/>
<polygon fill="#191970" stroke="#191970" points="197.9125,-161.2879 190.0354,-168.3733 200.6117,-167.7466 197.9125,-161.2879"/>
</g>
<!-- Node11&#45;&gt;Node12 -->
<g id="edge15" class="edge">
<title>Node11&#45;&gt;Node12</title>
<path fill="none" stroke="#191970" d="M148.8751,-161.3607C138.322,-151.6727 125.3888,-139.7995 116.5036,-131.6427"/>
<polygon fill="#191970" stroke="#191970" points="146.6411,-164.0611 156.3746,-168.2455 151.375,-158.9045 146.6411,-164.0611"/>
</g>
<!-- Node12&#45;&gt;Node5 -->
<g id="edge16" class="edge">
<title>Node12&#45;&gt;Node5</title>
<path fill="none" stroke="#191970" d="M127.9936,-106.2097C141.6929,-96.3743 158.8736,-84.0394 170.5691,-75.6427"/>
<polygon fill="#191970" stroke="#191970" points="125.6686,-103.5703 119.5866,-112.2455 129.7511,-109.2566 125.6686,-103.5703"/>
</g>
<!-- Node13&#45;&gt;Node5 -->
<g id="edge18" class="edge">
<title>Node13&#45;&gt;Node5</title>
<path fill="none" stroke="#191970" d="M38.6758,-157.8182C39.5054,-143.4178 42.9066,-124.4689 54,-112 77.6313,-85.4387 117.5904,-74.2141 146.9827,-69.4708"/>
<polygon fill="#191970" stroke="#191970" points="35.1691,-158.1118 38.4639,-168.1813 42.1677,-158.2549 35.1691,-158.1118"/>
</g>
<!-- Node13&#45;&gt;Node12 -->
<g id="edge19" class="edge">
<title>Node13&#45;&gt;Node12</title>
<path fill="none" stroke="#191970" d="M58.5676,-161.645C70.2198,-151.9058 84.6084,-139.8795 94.4632,-131.6427"/>
<polygon fill="#191970" stroke="#191970" points="56.0988,-159.1469 50.6705,-168.2455 60.5879,-164.5179 56.0988,-159.1469"/>
</g>
</g>
</svg>
