<?xml version="1.0" encoding="UTF-8" standalone="no"?>
<!DOCTYPE svg PUBLIC "-//W3C//DTD SVG 1.1//EN"
 "http://www.w3.org/Graphics/SVG/1.1/DTD/svg11.dtd">
<!-- Generated by graphviz version 2.38.0 (20140413.2041)
 -->
<!-- Title: enums.hpp Pages: 1 -->
<svg width="444pt" height="364pt"
 viewBox="0.00 0.00 444.00 364.00" xmlns="http://www.w3.org/2000/svg" xmlns:xlink="http://www.w3.org/1999/xlink">
<g id="graph0" class="graph" transform="scale(1 1) rotate(0) translate(4 360)">
<title>enums.hpp</title>
<!-- Node1 -->
<g id="node1" class="node"><title>Node1</title>
<polygon fill="#bfbfbf" stroke="black" points="195.5,-336.5 195.5,-355.5 260.5,-355.5 260.5,-336.5 195.5,-336.5"/>
<text text-anchor="middle" x="228" y="-343.5" font-family="Helvetica,sans-Serif" font-size="10.00">enums.hpp</text>
</g>
<!-- Node2 -->
<g id="node2" class="node"><title>Node2</title>
<g id="a_node2"><a xlink:href="arg__iface_8hpp.html" target="_top" xlink:title="arg_iface.hpp">
<polygon fill="none" stroke="black" points="190.5,-280.5 190.5,-299.5 265.5,-299.5 265.5,-280.5 190.5,-280.5"/>
<text text-anchor="middle" x="228" y="-287.5" font-family="Helvetica,sans-Serif" font-size="10.00">arg_iface.hpp</text>
</a>
</g>
</g>
<!-- Node1&#45;&gt;Node2 -->
<g id="edge1" class="edge"><title>Node1&#45;&gt;Node2</title>
<path fill="none" stroke="midnightblue" d="M228,-325.805C228,-316.91 228,-306.78 228,-299.751"/>
<polygon fill="midnightblue" stroke="midnightblue" points="224.5,-326.083 228,-336.083 231.5,-326.083 224.5,-326.083"/>
</g>
<!-- Node7 -->
<g id="node7" class="node"><title>Node7</title>
<g id="a_node7"><a xlink:href="arg__as__command_8hpp.html" target="_top" xlink:title="arg_as_command.hpp">
<polygon fill="none" stroke="black" points="230.5,-0.5 230.5,-19.5 343.5,-19.5 343.5,-0.5 230.5,-0.5"/>
<text text-anchor="middle" x="287" y="-7.5" font-family="Helvetica,sans-Serif" font-size="10.00">arg_as_command.hpp</text>
</a>
</g>
</g>
<!-- Node1&#45;&gt;Node7 -->
<g id="edge22" class="edge"><title>Node1&#45;&gt;Node7</title>
<path fill="none" stroke="midnightblue" d="M271.07,-341.25C331.991,-333.319 436,-308.95 436,-235 436,-235 436,-235 436,-121 436,-63.9272 364.369,-33.1161 320.439,-19.5867"/>
<polygon fill="midnightblue" stroke="midnightblue" points="270.468,-337.797 260.958,-342.468 271.305,-344.747 270.468,-337.797"/>
</g>
<!-- Node13 -->
<g id="node13" class="node"><title>Node13</title>
<g id="a_node13"><a xlink:href="command_8hpp.html" target="_top" xlink:title="command.hpp">
<polygon fill="none" stroke="black" points="0,-168.5 0,-187.5 78,-187.5 78,-168.5 0,-168.5"/>
<text text-anchor="middle" x="39" y="-175.5" font-family="Helvetica,sans-Serif" font-size="10.00">command.hpp</text>
</a>
</g>
</g>
<!-- Node1&#45;&gt;Node13 -->
<g id="edge23" class="edge"><title>Node1&#45;&gt;Node13</title>
<path fill="none" stroke="midnightblue" d="M205.964,-330.876C178.172,-312.549 129.601,-278.783 93,-244 73.6451,-225.606 54.5171,-200.513 45.076,-187.543"/>
<polygon fill="midnightblue" stroke="midnightblue" points="204.258,-333.942 214.545,-336.478 208.085,-328.08 204.258,-333.942"/>
</g>
<!-- Node3 -->
<g id="node3" class="node"><title>Node3</title>
<g id="a_node3"><a xlink:href="arg_8hpp.html" target="_top" xlink:title="arg.hpp">
<polygon fill="none" stroke="black" points="268.5,-224.5 268.5,-243.5 317.5,-243.5 317.5,-224.5 268.5,-224.5"/>
<text text-anchor="middle" x="293" y="-231.5" font-family="Helvetica,sans-Serif" font-size="10.00">arg.hpp</text>
</a>
</g>
</g>
<!-- Node2&#45;&gt;Node3 -->
<g id="edge2" class="edge"><title>Node2&#45;&gt;Node3</title>
<path fill="none" stroke="midnightblue" d="M246.273,-273.82C257.918,-264.145 272.599,-251.948 282.367,-243.834"/>
<polygon fill="midnightblue" stroke="midnightblue" points="243.899,-271.242 238.443,-280.324 248.372,-276.626 243.899,-271.242"/>
</g>
<!-- Node2&#45;&gt;Node7 -->
<g id="edge21" class="edge"><title>Node2&#45;&gt;Node7</title>
<path fill="none" stroke="midnightblue" d="M231.949,-270.393C243.517,-215.884 277.027,-57.9905 285.191,-19.5243"/>
<polygon fill="midnightblue" stroke="midnightblue" points="228.483,-269.866 229.83,-280.375 235.33,-271.32 228.483,-269.866"/>
</g>
<!-- Node10 -->
<g id="node10" class="node"><title>Node10</title>
<g id="a_node10"><a xlink:href="group__iface_8hpp.html" target="_top" xlink:title="group_iface.hpp">
<polygon fill="none" stroke="black" points="102,-224.5 102,-243.5 188,-243.5 188,-224.5 102,-224.5"/>
<text text-anchor="middle" x="145" y="-231.5" font-family="Helvetica,sans-Serif" font-size="10.00">group_iface.hpp</text>
</a>
</g>
</g>
<!-- Node2&#45;&gt;Node10 -->
<g id="edge12" class="edge"><title>Node2&#45;&gt;Node10</title>
<path fill="none" stroke="midnightblue" d="M205.901,-274.622C190.738,-264.757 171.117,-251.992 158.302,-243.655"/>
<polygon fill="midnightblue" stroke="midnightblue" points="204.374,-277.804 214.665,-280.324 208.191,-271.937 204.374,-277.804"/>
</g>
<!-- Node4 -->
<g id="node4" class="node"><title>Node4</title>
<g id="a_node4"><a xlink:href="api_8hpp.html" target="_top" xlink:title="api.hpp">
<polygon fill="none" stroke="black" points="277,-112.5 277,-131.5 325,-131.5 325,-112.5 277,-112.5"/>
<text text-anchor="middle" x="301" y="-119.5" font-family="Helvetica,sans-Serif" font-size="10.00">api.hpp</text>
</a>
</g>
</g>
<!-- Node3&#45;&gt;Node4 -->
<g id="edge3" class="edge"><title>Node3&#45;&gt;Node4</title>
<path fill="none" stroke="midnightblue" d="M294.357,-214.348C296.109,-190.254 299.087,-149.308 300.375,-131.591"/>
<polygon fill="midnightblue" stroke="midnightblue" points="290.862,-214.141 293.628,-224.368 297.844,-214.649 290.862,-214.141"/>
</g>
<!-- Node8 -->
<g id="node8" class="node"><title>Node8</title>
<g id="a_node8"><a xlink:href="multi__arg_8hpp.html" target="_top" xlink:title="multi_arg.hpp">
<polygon fill="none" stroke="black" points="332.5,-168.5 332.5,-187.5 407.5,-187.5 407.5,-168.5 332.5,-168.5"/>
<text text-anchor="middle" x="370" y="-175.5" font-family="Helvetica,sans-Serif" font-size="10.00">multi_arg.hpp</text>
</a>
</g>
</g>
<!-- Node3&#45;&gt;Node8 -->
<g id="edge8" class="edge"><title>Node3&#45;&gt;Node8</title>
<path fill="none" stroke="midnightblue" d="M313.901,-218.342C327.911,-208.517 345.883,-195.913 357.659,-187.655"/>
<polygon fill="midnightblue" stroke="midnightblue" points="311.549,-215.717 305.371,-224.324 315.568,-221.448 311.549,-215.717"/>
</g>
<!-- Node9 -->
<g id="node9" class="node"><title>Node9</title>
<g id="a_node9"><a xlink:href="help_8hpp.html" target="_top" xlink:title="help.hpp">
<polygon fill="none" stroke="black" points="167.5,-112.5 167.5,-131.5 220.5,-131.5 220.5,-112.5 167.5,-112.5"/>
<text text-anchor="middle" x="194" y="-119.5" font-family="Helvetica,sans-Serif" font-size="10.00">help.hpp</text>
</a>
</g>
</g>
<!-- Node3&#45;&gt;Node9 -->
<g id="edge10" class="edge"><title>Node3&#45;&gt;Node9</title>
<path fill="none" stroke="midnightblue" d="M278.507,-216.897C257.224,-193.249 218.254,-149.949 201.732,-131.591"/>
<polygon fill="midnightblue" stroke="midnightblue" points="275.94,-219.277 285.232,-224.368 281.143,-214.594 275.94,-219.277"/>
</g>
<!-- Node5 -->
<g id="node5" class="node"><title>Node5</title>
<g id="a_node5"><a xlink:href="cmd__line_8hpp.html" target="_top" xlink:title="cmd_line.hpp">
<polygon fill="none" stroke="black" points="147,-56.5 147,-75.5 221,-75.5 221,-56.5 147,-56.5"/>
<text text-anchor="middle" x="184" y="-63.5" font-family="Helvetica,sans-Serif" font-size="10.00">cmd_line.hpp</text>
</a>
</g>
</g>
<!-- Node4&#45;&gt;Node5 -->
<g id="edge4" class="edge"><title>Node4&#45;&gt;Node5</title>
<path fill="none" stroke="midnightblue" d="M273.336,-108.232C251.451,-98.1312 221.503,-84.3091 202.452,-75.5164"/>
<polygon fill="midnightblue" stroke="midnightblue" points="271.915,-111.431 282.461,-112.444 274.848,-105.075 271.915,-111.431"/>
</g>
<!-- Node6 -->
<g id="node6" class="node"><title>Node6</title>
<g id="a_node6"><a xlink:href="all_8hpp.html" target="_top" xlink:title="all.hpp">
<polygon fill="none" stroke="black" points="161.5,-0.5 161.5,-19.5 206.5,-19.5 206.5,-0.5 161.5,-0.5"/>
<text text-anchor="middle" x="184" y="-7.5" font-family="Helvetica,sans-Serif" font-size="10.00">all.hpp</text>
</a>
</g>
</g>
<!-- Node5&#45;&gt;Node6 -->
<g id="edge5" class="edge"><title>Node5&#45;&gt;Node6</title>
<path fill="none" stroke="midnightblue" d="M184,-45.8045C184,-36.9102 184,-26.7798 184,-19.7511"/>
<polygon fill="midnightblue" stroke="midnightblue" points="180.5,-46.083 184,-56.083 187.5,-46.083 180.5,-46.083"/>
</g>
<!-- Node5&#45;&gt;Node7 -->
<g id="edge6" class="edge"><title>Node5&#45;&gt;Node7</title>
<path fill="none" stroke="midnightblue" d="M209.579,-51.5895C228.623,-41.6052 254.064,-28.2672 270.492,-19.6545"/>
<polygon fill="midnightblue" stroke="midnightblue" points="207.78,-48.5808 200.549,-56.324 211.031,-54.7805 207.78,-48.5808"/>
</g>
<!-- Node7&#45;&gt;Node4 -->
<g id="edge7" class="edge"><title>Node7&#45;&gt;Node4</title>
<path fill="none" stroke="midnightblue" d="M289.367,-29.5974C292.43,-53.6664 297.642,-94.617 299.901,-112.368"/>
<polygon fill="midnightblue" stroke="midnightblue" points="292.828,-29.0695 288.093,-19.5914 285.884,-29.9533 292.828,-29.0695"/>
</g>
<!-- Node8&#45;&gt;Node4 -->
<g id="edge9" class="edge"><title>Node8&#45;&gt;Node4</title>
<path fill="none" stroke="midnightblue" d="M350.962,-162.101C338.544,-152.382 322.757,-140.027 312.288,-131.834"/>
<polygon fill="midnightblue" stroke="midnightblue" points="348.882,-164.917 358.914,-168.324 353.196,-159.405 348.882,-164.917"/>
</g>
<!-- Node9&#45;&gt;Node5 -->
<g id="edge11" class="edge"><title>Node9&#45;&gt;Node5</title>
<path fill="none" stroke="midnightblue" d="M190.5,-102.101C188.84,-93.1357 186.937,-82.8579 185.621,-75.7511"/>
<polygon fill="midnightblue" stroke="midnightblue" points="187.086,-102.888 192.349,-112.083 193.969,-101.613 187.086,-102.888"/>
</g>
<!-- Node11 -->
<g id="node11" class="node"><title>Node11</title>
<g id="a_node11"><a xlink:href="groups_8hpp.html" target="_top" xlink:title="groups.hpp">
<polygon fill="none" stroke="black" points="134.5,-168.5 134.5,-187.5 199.5,-187.5 199.5,-168.5 134.5,-168.5"/>
<text text-anchor="middle" x="167" y="-175.5" font-family="Helvetica,sans-Serif" font-size="10.00">groups.hpp</text>
</a>
</g>
</g>
<!-- Node10&#45;&gt;Node11 -->
<g id="edge13" class="edge"><title>Node10&#45;&gt;Node11</title>
<path fill="none" stroke="midnightblue" d="M152.46,-214.69C156.167,-205.589 160.476,-195.014 163.435,-187.751"/>
<polygon fill="midnightblue" stroke="midnightblue" points="149.165,-213.502 148.633,-224.083 155.647,-216.143 149.165,-213.502"/>
</g>
<!-- Node12 -->
<g id="node12" class="node"><title>Node12</title>
<g id="a_node12"><a xlink:href="help__printer_8hpp.html" target="_top" xlink:title="help_printer.hpp">
<polygon fill="none" stroke="black" points="63,-112.5 63,-131.5 149,-131.5 149,-112.5 63,-112.5"/>
<text text-anchor="middle" x="106" y="-119.5" font-family="Helvetica,sans-Serif" font-size="10.00">help_printer.hpp</text>
</a>
</g>
</g>
<!-- Node10&#45;&gt;Node12 -->
<g id="edge20" class="edge"><title>Node10&#45;&gt;Node12</title>
<path fill="none" stroke="midnightblue" d="M136.312,-214.946C132.573,-206.815 128.31,-197.031 125,-188 117.717,-168.13 111.283,-144.067 108.104,-131.531"/>
<polygon fill="midnightblue" stroke="midnightblue" points="133.233,-216.622 140.658,-224.18 139.567,-213.642 133.233,-216.622"/>
</g>
<!-- Node10&#45;&gt;Node13 -->
<g id="edge17" class="edge"><title>Node10&#45;&gt;Node13</title>
<path fill="none" stroke="midnightblue" d="M118.944,-219.726C99.3162,-209.727 72.972,-196.307 55.9885,-187.655"/>
<polygon fill="midnightblue" stroke="midnightblue" points="117.47,-222.903 127.969,-224.324 120.648,-216.666 117.47,-222.903"/>
</g>
<!-- Node11&#45;&gt;Node4 -->
<g id="edge14" class="edge"><title>Node11&#45;&gt;Node4</title>
<path fill="none" stroke="midnightblue" d="M197.677,-164.638C222.823,-154.504 257.754,-140.427 279.867,-131.516"/>
<polygon fill="midnightblue" stroke="midnightblue" points="196.2,-161.459 188.233,-168.444 198.816,-167.952 196.2,-161.459"/>
</g>
<!-- Node11&#45;&gt;Node12 -->
<g id="edge15" class="edge"><title>Node11&#45;&gt;Node12</title>
<path fill="none" stroke="midnightblue" d="M149.533,-161.537C138.656,-151.909 125.056,-139.869 115.979,-131.834"/>
<polygon fill="midnightblue" stroke="midnightblue" points="147.392,-164.316 157.199,-168.324 152.032,-159.075 147.392,-164.316"/>
</g>
<!-- Node12&#45;&gt;Node5 -->
<g id="edge16" class="edge"><title>Node12&#45;&gt;Node5</title>
<path fill="none" stroke="midnightblue" d="M126.768,-106.622C141.017,-96.7574 159.456,-83.9919 171.499,-75.6545"/>
<polygon fill="midnightblue" stroke="midnightblue" points="124.762,-103.754 118.532,-112.324 128.746,-109.51 124.762,-103.754"/>
</g>
<!-- Node13&#45;&gt;Node5 -->
<g id="edge18" class="edge"><title>Node13&#45;&gt;Node5</title>
<path fill="none" stroke="midnightblue" d="M38.6802,-158.036C39.4443,-143.733 42.7596,-124.505 54,-112 77.6293,-85.7114 117.387,-74.7787 146.727,-70.2331"/>
<polygon fill="midnightblue" stroke="midnightblue" points="35.1775,-158.172 38.5117,-168.228 42.1766,-158.287 35.1775,-158.172"/>
</g>
<!-- Node13&#45;&gt;Node12 -->
<g id="edge19" class="edge"><title>Node13&#45;&gt;Node12</title>
<path fill="none" stroke="midnightblue" d="M57.8348,-161.82C69.8384,-152.145 84.9717,-139.948 95.0394,-131.834"/>
<polygon fill="midnightblue" stroke="midnightblue" points="55.3543,-159.324 49.7647,-168.324 59.747,-164.774 55.3543,-159.324"/>
</g>
</g>
</svg>
