<?xml version="1.0" encoding="UTF-8" standalone="no"?>
<!DOCTYPE svg PUBLIC "-//W3C//DTD SVG 1.1//EN"
 "http://www.w3.org/Graphics/SVG/1.1/DTD/svg11.dtd">
<!-- Generated by graphviz version 2.43.0 (0)
 -->
<!-- Title: enums.hpp Pages: 1 -->
<svg width="352pt" height="467pt"
 viewBox="0.00 0.00 352.00 467.00" xmlns="http://www.w3.org/2000/svg" xmlns:xlink="http://www.w3.org/1999/xlink">
<g id="graph0" class="graph" transform="scale(1 1) rotate(0) translate(4 463)">
<title>enums.hpp</title>
<!-- Node1 -->
<g id="Node000001" class="node">
<title>Node1</title>
<g id="a_Node000001"><a xlink:title=" ">
<polygon fill="#999999" stroke="#666666" points="325.5,-459 254.5,-459 254.5,-440 325.5,-440 325.5,-459"/>
<text text-anchor="middle" x="290" y="-447" font-family="Helvetica,sans-Serif" font-size="10.00">enums.hpp</text>
</a>
</g>
</g>
<!-- Node2 -->
<g id="Node000002" class="node">
<title>Node2</title>
<g id="a_Node000002"><a xlink:href="arg__iface_8hpp.html" target="_top" xlink:title=" ">
<polygon fill="white" stroke="#666666" points="277.5,-404 194.5,-404 194.5,-385 277.5,-385 277.5,-404"/>
<text text-anchor="middle" x="236" y="-392" font-family="Helvetica,sans-Serif" font-size="10.00">arg_iface.hpp</text>
</a>
</g>
</g>
<!-- Node1&#45;&gt;Node2 -->
<g id="edge1_Node000001_Node000002" class="edge">
<title>Node1&#45;&gt;Node2</title>
<g id="a_edge1_Node000001_Node000002"><a xlink:title=" ">
<path fill="none" stroke="#63b8ff" d="M273.72,-432.52C264.2,-423.18 252.56,-411.75 244.75,-404.09"/>
<polygon fill="#63b8ff" stroke="#63b8ff" points="271.49,-435.24 281.08,-439.75 276.4,-430.25 271.49,-435.24"/>
</a>
</g>
</g>
<!-- Node8 -->
<g id="Node000008" class="node">
<title>Node8</title>
<g id="a_Node000008"><a xlink:href="command_8hpp.html" target="_top" xlink:title=" ">
<polygon fill="white" stroke="#666666" points="209,-184 123,-184 123,-165 209,-165 209,-184"/>
<text text-anchor="middle" x="166" y="-172" font-family="Helvetica,sans-Serif" font-size="10.00">command.hpp</text>
</a>
</g>
</g>
<!-- Node1&#45;&gt;Node8 -->
<g id="edge23_Node000001_Node000008" class="edge">
<title>Node1&#45;&gt;Node8</title>
<g id="a_edge23_Node000001_Node000008"><a xlink:title=" ">
<path fill="none" stroke="#63b8ff" d="M304.23,-432.14C320.23,-412.01 344,-376.11 344,-340.5 344,-340.5 344,-340.5 344,-283.5 344,-220.61 261.77,-193.32 209.09,-182.28"/>
<polygon fill="#63b8ff" stroke="#63b8ff" points="301.41,-430.05 297.74,-439.99 306.81,-434.51 301.41,-430.05"/>
</a>
</g>
</g>
<!-- Node3 -->
<g id="Node000003" class="node">
<title>Node3</title>
<g id="a_Node000003"><a xlink:href="arg_8hpp.html" target="_top" xlink:title=" ">
<polygon fill="white" stroke="#666666" points="262.5,-349 209.5,-349 209.5,-330 262.5,-330 262.5,-349"/>
<text text-anchor="middle" x="236" y="-337" font-family="Helvetica,sans-Serif" font-size="10.00">arg.hpp</text>
</a>
</g>
</g>
<!-- Node2&#45;&gt;Node3 -->
<g id="edge2_Node000002_Node000003" class="edge">
<title>Node2&#45;&gt;Node3</title>
<g id="a_edge2_Node000002_Node000003"><a xlink:title=" ">
<path fill="none" stroke="#63b8ff" d="M236,-374.66C236,-365.93 236,-355.99 236,-349.09"/>
<polygon fill="#63b8ff" stroke="#63b8ff" points="232.5,-374.75 236,-384.75 239.5,-374.75 232.5,-374.75"/>
</a>
</g>
</g>
<!-- Node11 -->
<g id="Node000011" class="node">
<title>Node11</title>
<g id="a_Node000011"><a xlink:href="group__iface_8hpp.html" target="_top" xlink:title=" ">
<polygon fill="white" stroke="#666666" points="151.5,-349 56.5,-349 56.5,-330 151.5,-330 151.5,-349"/>
<text text-anchor="middle" x="104" y="-337" font-family="Helvetica,sans-Serif" font-size="10.00">group_iface.hpp</text>
</a>
</g>
</g>
<!-- Node2&#45;&gt;Node11 -->
<g id="edge17_Node000002_Node000011" class="edge">
<title>Node2&#45;&gt;Node11</title>
<g id="a_edge17_Node000002_Node000011"><a xlink:title=" ">
<path fill="none" stroke="#63b8ff" d="M205.27,-381.16C180.83,-371.35 147.26,-357.87 125.59,-349.17"/>
<polygon fill="#63b8ff" stroke="#63b8ff" points="204.21,-384.51 214.79,-384.98 206.82,-378.01 204.21,-384.51"/>
</a>
</g>
</g>
<!-- Node4 -->
<g id="Node000004" class="node">
<title>Node4</title>
<g id="a_Node000004"><a xlink:href="api_8hpp.html" target="_top" xlink:title=" ">
<polygon fill="white" stroke="#666666" points="137.5,-239 84.5,-239 84.5,-220 137.5,-220 137.5,-239"/>
<text text-anchor="middle" x="111" y="-227" font-family="Helvetica,sans-Serif" font-size="10.00">api.hpp</text>
</a>
</g>
</g>
<!-- Node3&#45;&gt;Node4 -->
<g id="edge3_Node000003_Node000004" class="edge">
<title>Node3&#45;&gt;Node4</title>
<g id="a_edge3_Node000003_Node000004"><a xlink:title=" ">
<path fill="none" stroke="#63b8ff" d="M217.95,-322.91C191.25,-299.83 142.09,-257.37 121.02,-239.16"/>
<polygon fill="#63b8ff" stroke="#63b8ff" points="215.92,-325.77 225.77,-329.66 220.49,-320.48 215.92,-325.77"/>
</a>
</g>
</g>
<!-- Node9 -->
<g id="Node000009" class="node">
<title>Node9</title>
<g id="a_Node000009"><a xlink:href="help_8hpp.html" target="_top" xlink:title=" ">
<polygon fill="white" stroke="#666666" points="257.5,-129 198.5,-129 198.5,-110 257.5,-110 257.5,-129"/>
<text text-anchor="middle" x="228" y="-117" font-family="Helvetica,sans-Serif" font-size="10.00">help.hpp</text>
</a>
</g>
</g>
<!-- Node3&#45;&gt;Node9 -->
<g id="edge14_Node000003_Node000009" class="edge">
<title>Node3&#45;&gt;Node9</title>
<g id="a_edge14_Node000003_Node000009"><a xlink:title=" ">
<path fill="none" stroke="#63b8ff" d="M260.11,-324.19C270.43,-316.64 281.38,-306.37 287,-294 290.49,-286.31 288.53,-283.3 287,-275 276.27,-216.83 244.61,-152.24 232.65,-129.22"/>
<polygon fill="#63b8ff" stroke="#63b8ff" points="258.04,-321.37 251.73,-329.88 261.97,-327.16 258.04,-321.37"/>
</a>
</g>
</g>
<!-- Node10 -->
<g id="Node000010" class="node">
<title>Node10</title>
<g id="a_Node000010"><a xlink:href="multi__arg_8hpp.html" target="_top" xlink:title=" ">
<polygon fill="white" stroke="#666666" points="278,-294 194,-294 194,-275 278,-275 278,-294"/>
<text text-anchor="middle" x="236" y="-282" font-family="Helvetica,sans-Serif" font-size="10.00">multi_arg.hpp</text>
</a>
</g>
</g>
<!-- Node3&#45;&gt;Node10 -->
<g id="edge15_Node000003_Node000010" class="edge">
<title>Node3&#45;&gt;Node10</title>
<g id="a_edge15_Node000003_Node000010"><a xlink:title=" ">
<path fill="none" stroke="#63b8ff" d="M236,-319.66C236,-310.93 236,-300.99 236,-294.09"/>
<polygon fill="#63b8ff" stroke="#63b8ff" points="232.5,-319.75 236,-329.75 239.5,-319.75 232.5,-319.75"/>
</a>
</g>
</g>
<!-- Node5 -->
<g id="Node000005" class="node">
<title>Node5</title>
<g id="a_Node000005"><a xlink:href="cmd__line_8hpp.html" target="_top" xlink:title=" ">
<polygon fill="white" stroke="#666666" points="242,-74 160,-74 160,-55 242,-55 242,-74"/>
<text text-anchor="middle" x="201" y="-62" font-family="Helvetica,sans-Serif" font-size="10.00">cmd_line.hpp</text>
</a>
</g>
</g>
<!-- Node4&#45;&gt;Node5 -->
<g id="edge4_Node000004_Node000005" class="edge">
<title>Node4&#45;&gt;Node5</title>
<g id="a_edge4_Node000004_Node000005"><a xlink:title=" ">
<path fill="none" stroke="#63b8ff" d="M108.72,-209.81C107.88,-196.78 108.26,-179.25 114,-165 130.2,-124.77 169.9,-89.71 189.57,-74.11"/>
<polygon fill="#63b8ff" stroke="#63b8ff" points="105.25,-210.28 109.67,-219.91 112.22,-209.62 105.25,-210.28"/>
</a>
</g>
</g>
<!-- Node4&#45;&gt;Node8 -->
<g id="edge8_Node000004_Node000008" class="edge">
<title>Node4&#45;&gt;Node8</title>
<g id="a_edge8_Node000004_Node000008"><a xlink:title=" ">
<path fill="none" stroke="#63b8ff" d="M121.59,-212.24C130.34,-202.95 142.42,-191.68 151.96,-184.09"/>
<polygon fill="#63b8ff" stroke="#63b8ff" points="118.95,-209.95 114.92,-219.75 124.18,-214.6 118.95,-209.95"/>
</a>
</g>
</g>
<!-- Node6 -->
<g id="Node000006" class="node">
<title>Node6</title>
<g id="a_Node000006"><a xlink:href="all_8hpp.html" target="_top" xlink:title=" ">
<polygon fill="white" stroke="#666666" points="237,-19 187,-19 187,0 237,0 237,-19"/>
<text text-anchor="middle" x="212" y="-7" font-family="Helvetica,sans-Serif" font-size="10.00">all.hpp</text>
</a>
</g>
</g>
<!-- Node5&#45;&gt;Node6 -->
<g id="edge5_Node000005_Node000006" class="edge">
<title>Node5&#45;&gt;Node6</title>
<g id="a_edge5_Node000005_Node000006"><a xlink:title=" ">
<path fill="none" stroke="#63b8ff" d="M204.85,-44.95C206.68,-36.15 208.77,-26.06 210.22,-19.09"/>
<polygon fill="#63b8ff" stroke="#63b8ff" points="201.42,-44.25 202.82,-54.75 208.28,-45.67 201.42,-44.25"/>
</a>
</g>
</g>
<!-- Node7 -->
<g id="Node000007" class="node">
<title>Node7</title>
<g id="a_Node000007"><a xlink:href="help__printer_8hpp.html" target="_top" xlink:title=" ">
<polygon fill="white" stroke="#666666" points="168.5,-19 73.5,-19 73.5,0 168.5,0 168.5,-19"/>
<text text-anchor="middle" x="121" y="-7" font-family="Helvetica,sans-Serif" font-size="10.00">help_printer.hpp</text>
</a>
</g>
</g>
<!-- Node5&#45;&gt;Node7 -->
<g id="edge6_Node000005_Node000007" class="edge">
<title>Node5&#45;&gt;Node7</title>
<g id="a_edge6_Node000005_Node000007"><a xlink:title=" ">
<path fill="none" stroke="#63b8ff" d="M174.15,-49.7C158.36,-40.04 139.63,-27.44 128.94,-19.17"/>
<polygon fill="#63b8ff" stroke="#63b8ff" points="172.65,-52.87 183.03,-54.98 176.23,-46.86 172.65,-52.87"/>
</a>
</g>
</g>
<!-- Node7&#45;&gt;Node5 -->
<g id="edge7_Node000007_Node000005" class="edge">
<title>Node7&#45;&gt;Node5</title>
<g id="a_edge7_Node000007_Node000005"><a xlink:title=" ">
<path fill="none" stroke="#63b8ff" d="M148.14,-24.49C163.97,-34.18 182.67,-46.77 193.26,-54.98"/>
<polygon fill="#63b8ff" stroke="#63b8ff" points="149.62,-21.29 139.24,-19.17 146.03,-27.3 149.62,-21.29"/>
</a>
</g>
</g>
<!-- Node8&#45;&gt;Node4 -->
<g id="edge9_Node000008_Node000004" class="edge">
<title>Node8&#45;&gt;Node4</title>
<g id="a_edge9_Node000008_Node000004"><a xlink:title=" ">
<path fill="none" stroke="#63b8ff" d="M155.46,-191.71C146.68,-201.04 134.52,-212.38 124.95,-219.98"/>
<polygon fill="#63b8ff" stroke="#63b8ff" points="158.13,-193.97 162.15,-184.17 152.89,-189.32 158.13,-193.97"/>
</a>
</g>
</g>
<!-- Node8&#45;&gt;Node5 -->
<g id="edge10_Node000008_Node000005" class="edge">
<title>Node8&#45;&gt;Node5</title>
<g id="a_edge10_Node000008_Node000005"><a xlink:title=" ">
<path fill="none" stroke="#63b8ff" d="M171.96,-155.12C179.59,-131.56 192.52,-91.66 198.19,-74.16"/>
<polygon fill="#63b8ff" stroke="#63b8ff" points="168.62,-154.07 168.86,-164.66 175.28,-156.23 168.62,-154.07"/>
</a>
</g>
</g>
<!-- Node8&#45;&gt;Node7 -->
<g id="edge13_Node000008_Node000007" class="edge">
<title>Node8&#45;&gt;Node7</title>
<g id="a_edge13_Node000008_Node000007"><a xlink:title=" ">
<path fill="none" stroke="#63b8ff" d="M160.85,-154.83C151.14,-119.67 130.5,-44.9 123.43,-19.31"/>
<polygon fill="#63b8ff" stroke="#63b8ff" points="157.55,-156.03 163.58,-164.74 164.29,-154.17 157.55,-156.03"/>
</a>
</g>
</g>
<!-- Node8&#45;&gt;Node9 -->
<g id="edge11_Node000008_Node000009" class="edge">
<title>Node8&#45;&gt;Node9</title>
<g id="a_edge11_Node000008_Node000009"><a xlink:title=" ">
<path fill="none" stroke="#63b8ff" d="M183.75,-158.32C194.81,-148.87 208.63,-137.06 217.86,-129.17"/>
<polygon fill="#63b8ff" stroke="#63b8ff" points="181.29,-155.83 175.96,-164.98 185.84,-161.15 181.29,-155.83"/>
</a>
</g>
</g>
<!-- Node9&#45;&gt;Node5 -->
<g id="edge12_Node000009_Node000005" class="edge">
<title>Node9&#45;&gt;Node5</title>
<g id="a_edge12_Node000009_Node000005"><a xlink:title=" ">
<path fill="none" stroke="#63b8ff" d="M218.99,-100.82C214.41,-91.82 209.05,-81.29 205.38,-74.09"/>
<polygon fill="#63b8ff" stroke="#63b8ff" points="215.88,-102.43 223.54,-109.75 222.12,-99.25 215.88,-102.43"/>
</a>
</g>
</g>
<!-- Node10&#45;&gt;Node4 -->
<g id="edge16_Node000010_Node000004" class="edge">
<title>Node10&#45;&gt;Node4</title>
<g id="a_edge16_Node000010_Node000004"><a xlink:title=" ">
<path fill="none" stroke="#63b8ff" d="M206.59,-271.03C183.47,-261.23 151.87,-247.83 131.45,-239.17"/>
<polygon fill="#63b8ff" stroke="#63b8ff" points="205.34,-274.3 215.92,-274.98 208.08,-267.86 205.34,-274.3"/>
</a>
</g>
</g>
<!-- Node11&#45;&gt;Node7 -->
<g id="edge22_Node000011_Node000007" class="edge">
<title>Node11&#45;&gt;Node7</title>
<g id="a_edge22_Node000011_Node000007"><a xlink:title=" ">
<path fill="none" stroke="#63b8ff" d="M66.47,-326.06C50.18,-318.96 32.09,-308.52 20,-294 1.07,-271.26 0,-260.09 0,-230.5 0,-230.5 0,-230.5 0,-118.5 0,-66.69 62.51,-33.56 97.67,-19.03"/>
<polygon fill="#63b8ff" stroke="#63b8ff" points="65.22,-329.33 75.8,-329.86 67.86,-322.84 65.22,-329.33"/>
</a>
</g>
</g>
<!-- Node11&#45;&gt;Node8 -->
<g id="edge18_Node000011_Node000008" class="edge">
<title>Node11&#45;&gt;Node8</title>
<g id="a_edge18_Node000011_Node000008"><a xlink:title=" ">
<path fill="none" stroke="#63b8ff" d="M112.5,-320.58C121.68,-300.85 136.41,-268.08 147,-239 154.01,-219.75 160.46,-196.57 163.74,-184.23"/>
<polygon fill="#63b8ff" stroke="#63b8ff" points="109.23,-319.32 108.15,-329.85 115.57,-322.29 109.23,-319.32"/>
</a>
</g>
</g>
<!-- Node12 -->
<g id="Node000012" class="node">
<title>Node12</title>
<g id="a_Node000012"><a xlink:href="groups_8hpp.html" target="_top" xlink:title=" ">
<polygon fill="white" stroke="#666666" points="99.5,-294 28.5,-294 28.5,-275 99.5,-275 99.5,-294"/>
<text text-anchor="middle" x="64" y="-282" font-family="Helvetica,sans-Serif" font-size="10.00">groups.hpp</text>
</a>
</g>
</g>
<!-- Node11&#45;&gt;Node12 -->
<g id="edge19_Node000011_Node000012" class="edge">
<title>Node11&#45;&gt;Node12</title>
<g id="a_edge19_Node000011_Node000012"><a xlink:title=" ">
<path fill="none" stroke="#63b8ff" d="M91.3,-321.67C84.37,-312.5 76.09,-301.52 70.48,-294.09"/>
<polygon fill="#63b8ff" stroke="#63b8ff" points="88.58,-323.87 97.39,-329.75 94.16,-319.66 88.58,-323.87"/>
</a>
</g>
</g>
<!-- Node12&#45;&gt;Node4 -->
<g id="edge20_Node000012_Node000004" class="edge">
<title>Node12&#45;&gt;Node4</title>
<g id="a_edge20_Node000012_Node000004"><a xlink:title=" ">
<path fill="none" stroke="#63b8ff" d="M78.42,-267.24C86.66,-257.95 96.65,-246.68 103.38,-239.09"/>
<polygon fill="#63b8ff" stroke="#63b8ff" points="75.78,-264.94 71.76,-274.75 81.01,-269.59 75.78,-264.94"/>
</a>
</g>
</g>
<!-- Node12&#45;&gt;Node7 -->
<g id="edge21_Node000012_Node000007" class="edge">
<title>Node12&#45;&gt;Node7</title>
<g id="a_edge21_Node000012_Node000007"><a xlink:title=" ">
<path fill="none" stroke="#63b8ff" d="M61.77,-264.8C59.4,-243.29 56,-206.9 56,-175.5 56,-175.5 56,-175.5 56,-118.5 56,-76.26 92.94,-36.33 111.13,-19.23"/>
<polygon fill="#63b8ff" stroke="#63b8ff" points="58.31,-265.3 62.92,-274.84 65.26,-264.5 58.31,-265.3"/>
</a>
</g>
</g>
</g>
</svg>
