<?xml version="1.0" encoding="UTF-8" standalone="no"?>
<!DOCTYPE svg PUBLIC "-//W3C//DTD SVG 1.1//EN"
 "http://www.w3.org/Graphics/SVG/1.1/DTD/svg11.dtd">
<!-- Generated by graphviz version 2.38.0 (20140413.2041)
 -->
<!-- Title: enums.hpp Pages: 1 -->
<svg width="440pt" height="364pt"
 viewBox="0.00 0.00 439.50 364.00" xmlns="http://www.w3.org/2000/svg" xmlns:xlink="http://www.w3.org/1999/xlink">
<g id="graph0" class="graph" transform="scale(1 1) rotate(0) translate(4 360)">
<title>enums.hpp</title>
<!-- Node1 -->
<g id="node1" class="node"><title>Node1</title>
<polygon fill="#bfbfbf" stroke="black" points="194,-336.5 194,-355.5 257,-355.5 257,-336.5 194,-336.5"/>
<text text-anchor="middle" x="225.5" y="-343.5" font-family="FreeSans" font-size="10.00">enums.hpp</text>
</g>
<!-- Node2 -->
<g id="node2" class="node"><title>Node2</title>
<g id="a_node2"><a xlink:href="arg__iface_8hpp.html" target="_top" xlink:title="arg_iface.hpp">
<polygon fill="none" stroke="black" points="188.5,-280.5 188.5,-299.5 262.5,-299.5 262.5,-280.5 188.5,-280.5"/>
<text text-anchor="middle" x="225.5" y="-287.5" font-family="FreeSans" font-size="10.00">arg_iface.hpp</text>
</a>
</g>
</g>
<!-- Node1&#45;&gt;Node2 -->
<g id="edge1" class="edge"><title>Node1&#45;&gt;Node2</title>
<path fill="none" stroke="midnightblue" d="M225.5,-325.805C225.5,-316.91 225.5,-306.78 225.5,-299.751"/>
<polygon fill="midnightblue" stroke="midnightblue" points="222,-326.083 225.5,-336.083 229,-326.083 222,-326.083"/>
</g>
<!-- Node7 -->
<g id="node7" class="node"><title>Node7</title>
<g id="a_node7"><a xlink:href="arg__as__command_8hpp.html" target="_top" xlink:title="arg_as_command.hpp">
<polygon fill="none" stroke="black" points="229,-0.5 229,-19.5 340,-19.5 340,-0.5 229,-0.5"/>
<text text-anchor="middle" x="284.5" y="-7.5" font-family="FreeSans" font-size="10.00">arg_as_command.hpp</text>
</a>
</g>
</g>
<!-- Node1&#45;&gt;Node7 -->
<g id="edge22" class="edge"><title>Node1&#45;&gt;Node7</title>
<path fill="none" stroke="midnightblue" d="M267.214,-341.233C327.412,-333.249 431.5,-308.778 431.5,-235 431.5,-235 431.5,-235 431.5,-121 431.5,-64.2625 360.431,-33.245 317.124,-19.611"/>
<polygon fill="midnightblue" stroke="midnightblue" points="266.734,-337.766 257.236,-342.459 267.588,-344.713 266.734,-337.766"/>
</g>
<!-- Node13 -->
<g id="node13" class="node"><title>Node13</title>
<g id="a_node13"><a xlink:href="command_8hpp.html" target="_top" xlink:title="command.hpp">
<polygon fill="none" stroke="black" points="0,-168.5 0,-187.5 77,-187.5 77,-168.5 0,-168.5"/>
<text text-anchor="middle" x="38.5" y="-175.5" font-family="FreeSans" font-size="10.00">command.hpp</text>
</a>
</g>
</g>
<!-- Node1&#45;&gt;Node13 -->
<g id="edge23" class="edge"><title>Node1&#45;&gt;Node13</title>
<path fill="none" stroke="midnightblue" d="M203.587,-330.897C175.96,-312.592 127.706,-278.85 91.5,-244 72.4073,-225.622 53.6741,-200.522 44.4394,-187.547"/>
<polygon fill="midnightblue" stroke="midnightblue" points="201.837,-333.934 212.118,-336.492 205.676,-328.081 201.837,-333.934"/>
</g>
<!-- Node3 -->
<g id="node3" class="node"><title>Node3</title>
<g id="a_node3"><a xlink:href="arg_8hpp.html" target="_top" xlink:title="arg.hpp">
<polygon fill="none" stroke="black" points="265.5,-224.5 265.5,-243.5 313.5,-243.5 313.5,-224.5 265.5,-224.5"/>
<text text-anchor="middle" x="289.5" y="-231.5" font-family="FreeSans" font-size="10.00">arg.hpp</text>
</a>
</g>
</g>
<!-- Node2&#45;&gt;Node3 -->
<g id="edge2" class="edge"><title>Node2&#45;&gt;Node3</title>
<path fill="none" stroke="midnightblue" d="M243.491,-273.82C254.958,-264.145 269.413,-251.948 279.03,-243.834"/>
<polygon fill="midnightblue" stroke="midnightblue" points="241.169,-271.2 235.783,-280.324 245.683,-276.55 241.169,-271.2"/>
</g>
<!-- Node2&#45;&gt;Node7 -->
<g id="edge21" class="edge"><title>Node2&#45;&gt;Node7</title>
<path fill="none" stroke="midnightblue" d="M229.449,-270.393C241.017,-215.884 274.527,-57.9905 282.691,-19.5243"/>
<polygon fill="midnightblue" stroke="midnightblue" points="225.983,-269.866 227.33,-280.375 232.83,-271.32 225.983,-269.866"/>
</g>
<!-- Node10 -->
<g id="node10" class="node"><title>Node10</title>
<g id="a_node10"><a xlink:href="group__iface_8hpp.html" target="_top" xlink:title="group_iface.hpp">
<polygon fill="none" stroke="black" points="101,-224.5 101,-243.5 186,-243.5 186,-224.5 101,-224.5"/>
<text text-anchor="middle" x="143.5" y="-231.5" font-family="FreeSans" font-size="10.00">group_iface.hpp</text>
</a>
</g>
</g>
<!-- Node2&#45;&gt;Node10 -->
<g id="edge12" class="edge"><title>Node2&#45;&gt;Node10</title>
<path fill="none" stroke="midnightblue" d="M203.667,-274.622C188.687,-264.757 169.303,-251.992 156.642,-243.655"/>
<polygon fill="midnightblue" stroke="midnightblue" points="202.049,-277.747 212.325,-280.324 205.899,-271.901 202.049,-277.747"/>
</g>
<!-- Node4 -->
<g id="node4" class="node"><title>Node4</title>
<g id="a_node4"><a xlink:href="api_8hpp.html" target="_top" xlink:title="api.hpp">
<polygon fill="none" stroke="black" points="276,-112.5 276,-131.5 323,-131.5 323,-112.5 276,-112.5"/>
<text text-anchor="middle" x="299.5" y="-119.5" font-family="FreeSans" font-size="10.00">api.hpp</text>
</a>
</g>
</g>
<!-- Node3&#45;&gt;Node4 -->
<g id="edge3" class="edge"><title>Node3&#45;&gt;Node4</title>
<path fill="none" stroke="midnightblue" d="M291.196,-214.348C293.386,-190.254 297.108,-149.308 298.719,-131.591"/>
<polygon fill="midnightblue" stroke="midnightblue" points="287.705,-214.093 290.285,-224.368 294.676,-214.726 287.705,-214.093"/>
</g>
<!-- Node8 -->
<g id="node8" class="node"><title>Node8</title>
<g id="a_node8"><a xlink:href="multi__arg_8hpp.html" target="_top" xlink:title="multi_arg.hpp">
<polygon fill="none" stroke="black" points="329.5,-168.5 329.5,-187.5 403.5,-187.5 403.5,-168.5 329.5,-168.5"/>
<text text-anchor="middle" x="366.5" y="-175.5" font-family="FreeSans" font-size="10.00">multi_arg.hpp</text>
</a>
</g>
</g>
<!-- Node3&#45;&gt;Node8 -->
<g id="edge8" class="edge"><title>Node3&#45;&gt;Node8</title>
<path fill="none" stroke="midnightblue" d="M310.401,-218.342C324.411,-208.517 342.383,-195.913 354.159,-187.655"/>
<polygon fill="midnightblue" stroke="midnightblue" points="308.049,-215.717 301.871,-224.324 312.068,-221.448 308.049,-215.717"/>
</g>
<!-- Node9 -->
<g id="node9" class="node"><title>Node9</title>
<g id="a_node9"><a xlink:href="help_8hpp.html" target="_top" xlink:title="help.hpp">
<polygon fill="none" stroke="black" points="166,-112.5 166,-131.5 219,-131.5 219,-112.5 166,-112.5"/>
<text text-anchor="middle" x="192.5" y="-119.5" font-family="FreeSans" font-size="10.00">help.hpp</text>
</a>
</g>
</g>
<!-- Node3&#45;&gt;Node9 -->
<g id="edge10" class="edge"><title>Node3&#45;&gt;Node9</title>
<path fill="none" stroke="midnightblue" d="M275.026,-216.586C254.113,-192.871 216.194,-149.869 200.076,-131.591"/>
<polygon fill="midnightblue" stroke="midnightblue" points="272.649,-219.183 281.889,-224.368 277.9,-214.553 272.649,-219.183"/>
</g>
<!-- Node5 -->
<g id="node5" class="node"><title>Node5</title>
<g id="a_node5"><a xlink:href="cmd__line_8hpp.html" target="_top" xlink:title="cmd_line.hpp">
<polygon fill="none" stroke="black" points="145.5,-56.5 145.5,-75.5 219.5,-75.5 219.5,-56.5 145.5,-56.5"/>
<text text-anchor="middle" x="182.5" y="-63.5" font-family="FreeSans" font-size="10.00">cmd_line.hpp</text>
</a>
</g>
</g>
<!-- Node4&#45;&gt;Node5 -->
<g id="edge4" class="edge"><title>Node4&#45;&gt;Node5</title>
<path fill="none" stroke="midnightblue" d="M271.836,-108.232C249.951,-98.1312 220.003,-84.3091 200.952,-75.5164"/>
<polygon fill="midnightblue" stroke="midnightblue" points="270.415,-111.431 280.961,-112.444 273.348,-105.075 270.415,-111.431"/>
</g>
<!-- Node6 -->
<g id="node6" class="node"><title>Node6</title>
<g id="a_node6"><a xlink:href="all_8hpp.html" target="_top" xlink:title="all.hpp">
<polygon fill="none" stroke="black" points="160.5,-0.5 160.5,-19.5 204.5,-19.5 204.5,-0.5 160.5,-0.5"/>
<text text-anchor="middle" x="182.5" y="-7.5" font-family="FreeSans" font-size="10.00">all.hpp</text>
</a>
</g>
</g>
<!-- Node5&#45;&gt;Node6 -->
<g id="edge5" class="edge"><title>Node5&#45;&gt;Node6</title>
<path fill="none" stroke="midnightblue" d="M182.5,-45.8045C182.5,-36.9102 182.5,-26.7798 182.5,-19.7511"/>
<polygon fill="midnightblue" stroke="midnightblue" points="179,-46.083 182.5,-56.083 186,-46.083 179,-46.083"/>
</g>
<!-- Node5&#45;&gt;Node7 -->
<g id="edge6" class="edge"><title>Node5&#45;&gt;Node7</title>
<path fill="none" stroke="midnightblue" d="M207.831,-51.5895C226.69,-41.6052 251.884,-28.2672 268.153,-19.6545"/>
<polygon fill="midnightblue" stroke="midnightblue" points="206.088,-48.5518 198.888,-56.324 209.364,-54.7383 206.088,-48.5518"/>
</g>
<!-- Node7&#45;&gt;Node4 -->
<g id="edge7" class="edge"><title>Node7&#45;&gt;Node4</title>
<path fill="none" stroke="midnightblue" d="M287.036,-29.5974C290.318,-53.6664 295.902,-94.617 298.323,-112.368"/>
<polygon fill="midnightblue" stroke="midnightblue" points="290.491,-29.0268 285.672,-19.5914 283.555,-29.9726 290.491,-29.0268"/>
</g>
<!-- Node8&#45;&gt;Node4 -->
<g id="edge9" class="edge"><title>Node8&#45;&gt;Node4</title>
<path fill="none" stroke="midnightblue" d="M347.665,-161.82C335.662,-152.145 320.528,-139.948 310.461,-131.834"/>
<polygon fill="midnightblue" stroke="midnightblue" points="345.753,-164.774 355.735,-168.324 350.146,-159.324 345.753,-164.774"/>
</g>
<!-- Node9&#45;&gt;Node5 -->
<g id="edge11" class="edge"><title>Node9&#45;&gt;Node5</title>
<path fill="none" stroke="midnightblue" d="M189,-102.101C187.34,-93.1357 185.437,-82.8579 184.121,-75.7511"/>
<polygon fill="midnightblue" stroke="midnightblue" points="185.586,-102.888 190.849,-112.083 192.469,-101.613 185.586,-102.888"/>
</g>
<!-- Node11 -->
<g id="node11" class="node"><title>Node11</title>
<g id="a_node11"><a xlink:href="groups_8hpp.html" target="_top" xlink:title="groups.hpp">
<polygon fill="none" stroke="black" points="134,-168.5 134,-187.5 197,-187.5 197,-168.5 134,-168.5"/>
<text text-anchor="middle" x="165.5" y="-175.5" font-family="FreeSans" font-size="10.00">groups.hpp</text>
</a>
</g>
</g>
<!-- Node10&#45;&gt;Node11 -->
<g id="edge13" class="edge"><title>Node10&#45;&gt;Node11</title>
<path fill="none" stroke="midnightblue" d="M150.96,-214.69C154.667,-205.589 158.976,-195.014 161.935,-187.751"/>
<polygon fill="midnightblue" stroke="midnightblue" points="147.665,-213.502 147.133,-224.083 154.147,-216.143 147.665,-213.502"/>
</g>
<!-- Node12 -->
<g id="node12" class="node"><title>Node12</title>
<g id="a_node12"><a xlink:href="help__printer_8hpp.html" target="_top" xlink:title="help_printer.hpp">
<polygon fill="none" stroke="black" points="63,-112.5 63,-131.5 148,-131.5 148,-112.5 63,-112.5"/>
<text text-anchor="middle" x="105.5" y="-119.5" font-family="FreeSans" font-size="10.00">help_printer.hpp</text>
</a>
</g>
</g>
<!-- Node10&#45;&gt;Node12 -->
<g id="edge20" class="edge"><title>Node10&#45;&gt;Node12</title>
<path fill="none" stroke="midnightblue" d="M135.431,-215.21C131.857,-207.011 127.739,-197.1 124.5,-188 117.404,-168.063 110.893,-144.027 107.653,-131.513"/>
<polygon fill="midnightblue" stroke="midnightblue" points="132.297,-216.775 139.559,-224.489 138.692,-213.93 132.297,-216.775"/>
</g>
<!-- Node10&#45;&gt;Node13 -->
<g id="edge17" class="edge"><title>Node10&#45;&gt;Node13</title>
<path fill="none" stroke="midnightblue" d="M117.69,-219.726C98.2471,-209.727 72.1516,-196.307 55.3282,-187.655"/>
<polygon fill="midnightblue" stroke="midnightblue" points="116.136,-222.863 126.63,-224.324 119.338,-216.638 116.136,-222.863"/>
</g>
<!-- Node11&#45;&gt;Node4 -->
<g id="edge14" class="edge"><title>Node11&#45;&gt;Node4</title>
<path fill="none" stroke="midnightblue" d="M196.177,-164.638C221.323,-154.504 256.254,-140.427 278.367,-131.516"/>
<polygon fill="midnightblue" stroke="midnightblue" points="194.7,-161.459 186.733,-168.444 197.316,-167.952 194.7,-161.459"/>
</g>
<!-- Node11&#45;&gt;Node12 -->
<g id="edge15" class="edge"><title>Node11&#45;&gt;Node12</title>
<path fill="none" stroke="midnightblue" d="M148.319,-161.537C137.621,-151.909 124.244,-139.869 115.315,-131.834"/>
<polygon fill="midnightblue" stroke="midnightblue" points="146.086,-164.236 155.86,-168.324 150.768,-159.033 146.086,-164.236"/>
</g>
<!-- Node12&#45;&gt;Node5 -->
<g id="edge16" class="edge"><title>Node12&#45;&gt;Node5</title>
<path fill="none" stroke="midnightblue" d="M126.401,-106.342C140.411,-96.5169 158.383,-83.9132 170.159,-75.6545"/>
<polygon fill="midnightblue" stroke="midnightblue" points="124.049,-103.717 117.871,-112.324 128.068,-109.448 124.049,-103.717"/>
</g>
<!-- Node13&#45;&gt;Node5 -->
<g id="edge18" class="edge"><title>Node13&#45;&gt;Node5</title>
<path fill="none" stroke="midnightblue" d="M38.1886,-158.044C38.9572,-143.745 42.2746,-124.519 53.5,-112 76.8566,-85.9521 116.123,-74.9815 145.212,-70.3612"/>
<polygon fill="midnightblue" stroke="midnightblue" points="34.686,-158.174 38.0162,-168.232 41.685,-158.293 34.686,-158.174"/>
</g>
<!-- Node13&#45;&gt;Node12 -->
<g id="edge19" class="edge"><title>Node13&#45;&gt;Node12</title>
<path fill="none" stroke="midnightblue" d="M57.3348,-161.82C69.3384,-152.145 84.4717,-139.948 94.5394,-131.834"/>
<polygon fill="midnightblue" stroke="midnightblue" points="54.8543,-159.324 49.2647,-168.324 59.247,-164.774 54.8543,-159.324"/>
</g>
</g>
</svg>
