<?xml version="1.0" encoding="UTF-8" standalone="no"?>
<!DOCTYPE svg PUBLIC "-//W3C//DTD SVG 1.1//EN"
 "http://www.w3.org/Graphics/SVG/1.1/DTD/svg11.dtd">
<!-- Generated by graphviz version 2.38.0 (20140413.2041)
 -->
<!-- Title: exceptions.hpp Pages: 1 -->
<svg width="484pt" height="364pt"
 viewBox="0.00 0.00 484.00 364.00" xmlns="http://www.w3.org/2000/svg" xmlns:xlink="http://www.w3.org/1999/xlink">
<g id="graph0" class="graph" transform="scale(1 1) rotate(0) translate(4 360)">
<title>exceptions.hpp</title>
<!-- Node1 -->
<g id="node1" class="node"><title>Node1</title>
<polygon fill="#bfbfbf" stroke="black" points="176.5,-336.5 176.5,-355.5 259.5,-355.5 259.5,-336.5 176.5,-336.5"/>
<text text-anchor="middle" x="218" y="-343.5" font-family="Helvetica,sans-Serif" font-size="10.00">exceptions.hpp</text>
</g>
<!-- Node2 -->
<g id="node2" class="node"><title>Node2</title>
<g id="a_node2"><a xlink:href="arg_8hpp.html" target="_top" xlink:title="arg.hpp">
<polygon fill="none" stroke="black" points="322.5,-224.5 322.5,-243.5 371.5,-243.5 371.5,-224.5 322.5,-224.5"/>
<text text-anchor="middle" x="347" y="-231.5" font-family="Helvetica,sans-Serif" font-size="10.00">arg.hpp</text>
</a>
</g>
</g>
<!-- Node1&#45;&gt;Node2 -->
<g id="edge1" class="edge"><title>Node1&#45;&gt;Node2</title>
<path fill="none" stroke="midnightblue" d="M235.741,-329.455C250.886,-316.225 273.281,-296.758 293,-280 308.064,-267.197 325.687,-252.578 336.598,-243.568"/>
<polygon fill="midnightblue" stroke="midnightblue" points="233.359,-326.888 228.136,-336.106 237.968,-332.157 233.359,-326.888"/>
</g>
<!-- Node4 -->
<g id="node4" class="node"><title>Node4</title>
<g id="a_node4"><a xlink:href="cmd__line_8hpp.html" target="_top" xlink:title="cmd_line.hpp">
<polygon fill="none" stroke="black" points="197,-56.5 197,-75.5 271,-75.5 271,-56.5 197,-56.5"/>
<text text-anchor="middle" x="234" y="-63.5" font-family="Helvetica,sans-Serif" font-size="10.00">cmd_line.hpp</text>
</a>
</g>
</g>
<!-- Node1&#45;&gt;Node4 -->
<g id="edge26" class="edge"><title>Node1&#45;&gt;Node4</title>
<path fill="none" stroke="midnightblue" d="M166.482,-341.23C102.024,-333.385 0,-309.242 0,-235 0,-235 0,-235 0,-177 0,-91.036 130.94,-72.1291 196.922,-68.0588"/>
<polygon fill="midnightblue" stroke="midnightblue" points="166.154,-344.715 176.483,-342.355 166.936,-337.759 166.154,-344.715"/>
</g>
<!-- Node6 -->
<g id="node6" class="node"><title>Node6</title>
<g id="a_node6"><a xlink:href="arg__as__command_8hpp.html" target="_top" xlink:title="arg_as_command.hpp">
<polygon fill="none" stroke="black" points="286.5,-0.5 286.5,-19.5 399.5,-19.5 399.5,-0.5 286.5,-0.5"/>
<text text-anchor="middle" x="343" y="-7.5" font-family="Helvetica,sans-Serif" font-size="10.00">arg_as_command.hpp</text>
</a>
</g>
</g>
<!-- Node1&#45;&gt;Node6 -->
<g id="edge25" class="edge"><title>Node1&#45;&gt;Node6</title>
<path fill="none" stroke="midnightblue" d="M269.985,-344.964C345.339,-341.868 476,-323.709 476,-235 476,-235 476,-235 476,-121 476,-66.4648 408.778,-33.8743 369.915,-19.5897"/>
<polygon fill="midnightblue" stroke="midnightblue" points="269.616,-341.474 259.739,-345.307 269.85,-348.47 269.616,-341.474"/>
</g>
<!-- Node7 -->
<g id="node7" class="node"><title>Node7</title>
<g id="a_node7"><a xlink:href="multi__arg_8hpp.html" target="_top" xlink:title="multi_arg.hpp">
<polygon fill="none" stroke="black" points="367.5,-168.5 367.5,-187.5 442.5,-187.5 442.5,-168.5 367.5,-168.5"/>
<text text-anchor="middle" x="405" y="-175.5" font-family="Helvetica,sans-Serif" font-size="10.00">multi_arg.hpp</text>
</a>
</g>
</g>
<!-- Node1&#45;&gt;Node7 -->
<g id="edge18" class="edge"><title>Node1&#45;&gt;Node7</title>
<path fill="none" stroke="midnightblue" d="M269.757,-338.264C315.365,-331.201 376.977,-318.532 393,-300 421.304,-267.264 411.972,-209.365 407.131,-187.596"/>
<polygon fill="midnightblue" stroke="midnightblue" points="269.08,-334.826 259.71,-339.77 270.118,-341.748 269.08,-334.826"/>
</g>
<!-- Node8 -->
<g id="node8" class="node"><title>Node8</title>
<g id="a_node8"><a xlink:href="help_8hpp.html" target="_top" xlink:title="help.hpp">
<polygon fill="none" stroke="black" points="171.5,-168.5 171.5,-187.5 224.5,-187.5 224.5,-168.5 171.5,-168.5"/>
<text text-anchor="middle" x="198" y="-175.5" font-family="Helvetica,sans-Serif" font-size="10.00">help.hpp</text>
</a>
</g>
</g>
<!-- Node1&#45;&gt;Node8 -->
<g id="edge27" class="edge"><title>Node1&#45;&gt;Node8</title>
<path fill="none" stroke="midnightblue" d="M170.316,-332.81C153.662,-326.015 136.717,-315.645 127,-300 118.683,-286.609 118.526,-248.368 133,-224 143.094,-207.007 162.398,-194.893 177.358,-187.546"/>
<polygon fill="midnightblue" stroke="midnightblue" points="169.439,-336.218 180.032,-336.411 171.871,-329.654 169.439,-336.218"/>
</g>
<!-- Node9 -->
<g id="node9" class="node"><title>Node9</title>
<g id="a_node9"><a xlink:href="value__utils_8hpp.html" target="_top" xlink:title="value_utils.hpp">
<polygon fill="none" stroke="black" points="302,-280.5 302,-299.5 384,-299.5 384,-280.5 302,-280.5"/>
<text text-anchor="middle" x="343" y="-287.5" font-family="Helvetica,sans-Serif" font-size="10.00">value_utils.hpp</text>
</a>
</g>
</g>
<!-- Node1&#45;&gt;Node9 -->
<g id="edge11" class="edge"><title>Node1&#45;&gt;Node9</title>
<path fill="none" stroke="midnightblue" d="M247.241,-332.368C270.65,-322.255 302.841,-308.349 323.286,-299.516"/>
<polygon fill="midnightblue" stroke="midnightblue" points="245.599,-329.265 237.807,-336.444 248.375,-335.691 245.599,-329.265"/>
</g>
<!-- Node11 -->
<g id="node11" class="node"><title>Node11</title>
<g id="a_node11"><a xlink:href="help__printer_8hpp.html" target="_top" xlink:title="help_printer.hpp">
<polygon fill="none" stroke="black" points="67,-168.5 67,-187.5 153,-187.5 153,-168.5 67,-168.5"/>
<text text-anchor="middle" x="110" y="-175.5" font-family="Helvetica,sans-Serif" font-size="10.00">help_printer.hpp</text>
</a>
</g>
</g>
<!-- Node1&#45;&gt;Node11 -->
<g id="edge28" class="edge"><title>Node1&#45;&gt;Node11</title>
<path fill="none" stroke="midnightblue" d="M166.88,-333.752C148.487,-327.059 129.466,-316.512 118,-300 93.503,-264.724 102.968,-208.833 107.824,-187.583"/>
<polygon fill="midnightblue" stroke="midnightblue" points="165.804,-337.082 176.397,-336.911 168.009,-330.439 165.804,-337.082"/>
</g>
<!-- Node12 -->
<g id="node12" class="node"><title>Node12</title>
<g id="a_node12"><a xlink:href="group__iface_8hpp.html" target="_top" xlink:title="group_iface.hpp">
<polygon fill="none" stroke="black" points="136,-280.5 136,-299.5 222,-299.5 222,-280.5 136,-280.5"/>
<text text-anchor="middle" x="179" y="-287.5" font-family="Helvetica,sans-Serif" font-size="10.00">group_iface.hpp</text>
</a>
</g>
</g>
<!-- Node1&#45;&gt;Node12 -->
<g id="edge19" class="edge"><title>Node1&#45;&gt;Node12</title>
<path fill="none" stroke="midnightblue" d="M205.618,-327.855C198.865,-318.505 190.791,-307.327 185.32,-299.751"/>
<polygon fill="midnightblue" stroke="midnightblue" points="202.868,-330.025 211.56,-336.083 208.542,-325.927 202.868,-330.025"/>
</g>
<!-- Node3 -->
<g id="node3" class="node"><title>Node3</title>
<g id="a_node3"><a xlink:href="api_8hpp.html" target="_top" xlink:title="api.hpp">
<polygon fill="none" stroke="black" points="319,-112.5 319,-131.5 367,-131.5 367,-112.5 319,-112.5"/>
<text text-anchor="middle" x="343" y="-119.5" font-family="Helvetica,sans-Serif" font-size="10.00">api.hpp</text>
</a>
</g>
</g>
<!-- Node2&#45;&gt;Node3 -->
<g id="edge2" class="edge"><title>Node2&#45;&gt;Node3</title>
<path fill="none" stroke="midnightblue" d="M346.322,-214.348C345.446,-190.254 343.957,-149.308 343.312,-131.591"/>
<polygon fill="midnightblue" stroke="midnightblue" points="342.825,-214.502 346.686,-224.368 349.82,-214.248 342.825,-214.502"/>
</g>
<!-- Node2&#45;&gt;Node7 -->
<g id="edge7" class="edge"><title>Node2&#45;&gt;Node7</title>
<path fill="none" stroke="midnightblue" d="M363.913,-217.253C374.203,-207.673 386.966,-195.791 395.512,-187.834"/>
<polygon fill="midnightblue" stroke="midnightblue" points="361.253,-214.948 356.319,-224.324 366.023,-220.071 361.253,-214.948"/>
</g>
<!-- Node2&#45;&gt;Node8 -->
<g id="edge9" class="edge"><title>Node2&#45;&gt;Node8</title>
<path fill="none" stroke="midnightblue" d="M313.629,-220.906C285.616,-210.754 246.304,-196.506 221.499,-187.516"/>
<polygon fill="midnightblue" stroke="midnightblue" points="312.796,-224.327 323.391,-224.444 315.181,-217.746 312.796,-224.327"/>
</g>
<!-- Node3&#45;&gt;Node4 -->
<g id="edge3" class="edge"><title>Node3&#45;&gt;Node4</title>
<path fill="none" stroke="midnightblue" d="M316.481,-107.862C296.27,-97.8492 269.013,-84.3458 251.469,-75.6545"/>
<polygon fill="midnightblue" stroke="midnightblue" points="314.973,-111.021 325.487,-112.324 318.08,-104.748 314.973,-111.021"/>
</g>
<!-- Node5 -->
<g id="node5" class="node"><title>Node5</title>
<g id="a_node5"><a xlink:href="all_8hpp.html" target="_top" xlink:title="all.hpp">
<polygon fill="none" stroke="black" points="211.5,-0.5 211.5,-19.5 256.5,-19.5 256.5,-0.5 211.5,-0.5"/>
<text text-anchor="middle" x="234" y="-7.5" font-family="Helvetica,sans-Serif" font-size="10.00">all.hpp</text>
</a>
</g>
</g>
<!-- Node4&#45;&gt;Node5 -->
<g id="edge4" class="edge"><title>Node4&#45;&gt;Node5</title>
<path fill="none" stroke="midnightblue" d="M234,-45.8045C234,-36.9102 234,-26.7798 234,-19.7511"/>
<polygon fill="midnightblue" stroke="midnightblue" points="230.5,-46.083 234,-56.083 237.5,-46.083 230.5,-46.083"/>
</g>
<!-- Node4&#45;&gt;Node6 -->
<g id="edge5" class="edge"><title>Node4&#45;&gt;Node6</title>
<path fill="none" stroke="midnightblue" d="M260.519,-51.8622C280.73,-41.8492 307.987,-28.3458 325.531,-19.6545"/>
<polygon fill="midnightblue" stroke="midnightblue" points="258.92,-48.7485 251.513,-56.324 262.027,-55.0209 258.92,-48.7485"/>
</g>
<!-- Node6&#45;&gt;Node3 -->
<g id="edge6" class="edge"><title>Node6&#45;&gt;Node3</title>
<path fill="none" stroke="midnightblue" d="M343,-29.5974C343,-53.6664 343,-94.617 343,-112.368"/>
<polygon fill="midnightblue" stroke="midnightblue" points="346.5,-29.5914 343,-19.5914 339.5,-29.5915 346.5,-29.5914"/>
</g>
<!-- Node7&#45;&gt;Node3 -->
<g id="edge8" class="edge"><title>Node7&#45;&gt;Node3</title>
<path fill="none" stroke="midnightblue" d="M387.246,-161.537C376.192,-151.909 362.369,-139.869 353.143,-131.834"/>
<polygon fill="midnightblue" stroke="midnightblue" points="385.199,-164.395 395.039,-168.324 389.797,-159.117 385.199,-164.395"/>
</g>
<!-- Node8&#45;&gt;Node4 -->
<g id="edge10" class="edge"><title>Node8&#45;&gt;Node4</title>
<path fill="none" stroke="midnightblue" d="M203.998,-158.674C211.868,-134.625 225.364,-93.3881 231.188,-75.5914"/>
<polygon fill="midnightblue" stroke="midnightblue" points="200.609,-157.776 200.825,-168.368 207.262,-159.953 200.609,-157.776"/>
</g>
<!-- Node9&#45;&gt;Node2 -->
<g id="edge12" class="edge"><title>Node9&#45;&gt;Node2</title>
<path fill="none" stroke="midnightblue" d="M344.4,-270.101C345.064,-261.136 345.825,-250.858 346.352,-243.751"/>
<polygon fill="midnightblue" stroke="midnightblue" points="340.909,-269.852 343.661,-280.083 347.89,-270.369 340.909,-269.852"/>
</g>
<!-- Node9&#45;&gt;Node7 -->
<g id="edge13" class="edge"><title>Node9&#45;&gt;Node7</title>
<path fill="none" stroke="midnightblue" d="M358.333,-272.962C365.589,-264.766 373.965,-254.355 380,-244 390.958,-225.197 398.866,-200.701 402.595,-187.813"/>
<polygon fill="midnightblue" stroke="midnightblue" points="355.752,-270.598 351.578,-280.335 360.914,-275.326 355.752,-270.598"/>
</g>
<!-- Node10 -->
<g id="node10" class="node"><title>Node10</title>
<g id="a_node10"><a xlink:href="command_8hpp.html" target="_top" xlink:title="command.hpp">
<polygon fill="none" stroke="black" points="226,-224.5 226,-243.5 304,-243.5 304,-224.5 226,-224.5"/>
<text text-anchor="middle" x="265" y="-231.5" font-family="Helvetica,sans-Serif" font-size="10.00">command.hpp</text>
</a>
</g>
</g>
<!-- Node9&#45;&gt;Node10 -->
<g id="edge14" class="edge"><title>Node9&#45;&gt;Node10</title>
<path fill="none" stroke="midnightblue" d="M322.232,-274.622C307.983,-264.757 289.544,-251.992 277.501,-243.655"/>
<polygon fill="midnightblue" stroke="midnightblue" points="320.254,-277.51 330.468,-280.324 324.238,-271.754 320.254,-277.51"/>
</g>
<!-- Node10&#45;&gt;Node4 -->
<g id="edge15" class="edge"><title>Node10&#45;&gt;Node4</title>
<path fill="none" stroke="midnightblue" d="M261.439,-213.93C254.714,-177.92 240.393,-101.231 235.6,-75.5681"/>
<polygon fill="midnightblue" stroke="midnightblue" points="258.057,-214.888 263.333,-224.075 264.938,-213.603 258.057,-214.888"/>
</g>
<!-- Node10&#45;&gt;Node11 -->
<g id="edge16" class="edge"><title>Node10&#45;&gt;Node11</title>
<path fill="none" stroke="midnightblue" d="M230.668,-221.039C201.503,-210.879 160.363,-196.546 134.445,-187.516"/>
<polygon fill="midnightblue" stroke="midnightblue" points="229.845,-224.459 240.44,-224.444 232.148,-217.848 229.845,-224.459"/>
</g>
<!-- Node11&#45;&gt;Node4 -->
<g id="edge17" class="edge"><title>Node11&#45;&gt;Node4</title>
<path fill="none" stroke="midnightblue" d="M127.46,-161.512C153.956,-138.007 203.44,-94.1096 224.315,-75.5914"/>
<polygon fill="midnightblue" stroke="midnightblue" points="124.888,-159.114 119.73,-168.368 129.534,-164.351 124.888,-159.114"/>
</g>
<!-- Node12&#45;&gt;Node10 -->
<g id="edge23" class="edge"><title>Node12&#45;&gt;Node10</title>
<path fill="none" stroke="midnightblue" d="M201.455,-274.901C217.224,-264.999 237.814,-252.071 251.217,-243.655"/>
<polygon fill="midnightblue" stroke="midnightblue" points="199.425,-272.042 192.817,-280.324 203.148,-277.97 199.425,-272.042"/>
</g>
<!-- Node12&#45;&gt;Node11 -->
<g id="edge24" class="edge"><title>Node12&#45;&gt;Node11</title>
<path fill="none" stroke="midnightblue" d="M159.826,-273.847C150.674,-265.794 140.181,-255.247 133,-244 121.276,-225.638 114.597,-200.531 111.715,-187.551"/>
<polygon fill="midnightblue" stroke="midnightblue" points="157.815,-276.729 167.72,-280.489 162.322,-271.373 157.815,-276.729"/>
</g>
<!-- Node13 -->
<g id="node13" class="node"><title>Node13</title>
<g id="a_node13"><a xlink:href="groups_8hpp.html" target="_top" xlink:title="groups.hpp">
<polygon fill="none" stroke="black" points="142.5,-224.5 142.5,-243.5 207.5,-243.5 207.5,-224.5 142.5,-224.5"/>
<text text-anchor="middle" x="175" y="-231.5" font-family="Helvetica,sans-Serif" font-size="10.00">groups.hpp</text>
</a>
</g>
</g>
<!-- Node12&#45;&gt;Node13 -->
<g id="edge20" class="edge"><title>Node12&#45;&gt;Node13</title>
<path fill="none" stroke="midnightblue" d="M177.6,-270.101C176.936,-261.136 176.175,-250.858 175.648,-243.751"/>
<polygon fill="midnightblue" stroke="midnightblue" points="174.11,-270.369 178.339,-280.083 181.091,-269.852 174.11,-270.369"/>
</g>
<!-- Node13&#45;&gt;Node3 -->
<g id="edge21" class="edge"><title>Node13&#45;&gt;Node3</title>
<path fill="none" stroke="midnightblue" d="M196.819,-218.714C232.22,-195.535 301.107,-150.43 329.879,-131.591"/>
<polygon fill="midnightblue" stroke="midnightblue" points="194.632,-215.962 188.183,-224.368 198.466,-221.819 194.632,-215.962"/>
</g>
<!-- Node13&#45;&gt;Node11 -->
<g id="edge22" class="edge"><title>Node13&#45;&gt;Node11</title>
<path fill="none" stroke="midnightblue" d="M156.727,-217.82C145.082,-208.145 130.401,-195.948 120.633,-187.834"/>
<polygon fill="midnightblue" stroke="midnightblue" points="154.628,-220.626 164.557,-224.324 159.101,-215.242 154.628,-220.626"/>
</g>
</g>
</svg>
