<?xml version="1.0" encoding="UTF-8" standalone="no"?>
<!DOCTYPE svg PUBLIC "-//W3C//DTD SVG 1.1//EN"
 "http://www.w3.org/Graphics/SVG/1.1/DTD/svg11.dtd">
<!-- Generated by graphviz version 14.1.2 (0)
 -->
<!-- Title: exceptions.hpp Pages: 1 -->
<!--zoomable 476 -->

<svg id="main" version="1.1" xmlns="http://www.w3.org/2000/svg" xmlns:xlink="http://www.w3.org/1999/xlink" xml:space="preserve" onload="init(evt)">

<style type="text/css"><![CDATA[
.node, .edge {opacity: 0.7;}
.node.selected, .edge.selected {opacity: 1;}
.edge:hover path { stroke: red; }
.edge:hover polygon { stroke: red; fill: red; }
]]></style>

<defs>
  <circle id="rim" cx="0" cy="0" r="7"/>
  <circle id="rim2" cx="0" cy="0" r="3.5"/>
  <g id="zoomPlus">
    <use xlink:href="#rim" fill="#404040"><set attributeName="fill" to="#808080" begin="zoomplus.mouseover" end="zoomplus.mouseout"/></use>
    <path d="M-4,0h8M0,-4v8" fill="none" stroke="white" stroke-width="1.5" pointer-events="none"/>
  </g>
  <g id="zoomMin">
    <use xlink:href="#rim" fill="#404040"><set attributeName="fill" to="#808080" begin="zoomminus.mouseover" end="zoomminus.mouseout"/></use>
    <path d="M-4,0h8" fill="none" stroke="white" stroke-width="1.5" pointer-events="none"/>
  </g>
  <g id="arrowUp" transform="translate(30 24)">
    <use xlink:href="#rim"/>
    <path pointer-events="none" fill="none" stroke="white" stroke-width="1.5" d="M0,-3.0v7 M-2.5,-0.5L0,-3.0L2.5,-0.5"/>
  </g>
  <g id="arrowRight" transform="rotate(90) translate(36 -43)">
    <use xlink:href="#rim"/>
    <path pointer-events="none" fill="none" stroke="white" stroke-width="1.5" d="M0,-3.0v7 M-2.5,-0.5L0,-3.0L2.5,-0.5"/>
  </g>
  <g id="arrowDown" transform="rotate(180) translate(-30 -48)">
    <use xlink:href="#rim"/>
    <path pointer-events="none" fill="none" stroke="white" stroke-width="1.5" d="M0,-3.0v7 M-2.5,-0.5L0,-3.0L2.5,-0.5"/>
  </g>
  <g id="arrowLeft" transform="rotate(270) translate(-36 17)">
    <use xlink:href="#rim"/>
    <path pointer-events="none" fill="none" stroke="white" stroke-width="1.5" d="M0,-3.0v7 M-2.5,-0.5L0,-3.0L2.5,-0.5"/>
  </g>
  <g id="resetDef">
    <use xlink:href="#rim2" fill="#404040"><set attributeName="fill" to="#808080" begin="reset.mouseover" end="reset.mouseout"/></use>
  </g>
</defs>
<script type="application/ecmascript">
var viewWidth = 466;
var viewHeight = 476;
var sectionId = 'dynsection-1';
</script>
<script type="application/ecmascript" xlink:href="svg.min.js"/>
<svg id="graph" class="graph">
<g id="viewport">
<title>exceptions.hpp</title>
<!-- Node1 -->
<g id="Node000001" class="node">
<title>Node1</title>
<g id="a_Node000001"><a xlink:title=" ">
<polygon fill="#999999" stroke="#666666" points="186,-468 104,-468 104,-448 186,-448 186,-468"/>
<text xml:space="preserve" text-anchor="middle" x="145" y="-454.5" font-family="Helvetica,sans-Serif" font-size="10.00">exceptions.hpp</text>
</a>
</g>
</g>
<!-- Node2 -->
<g id="Node000002" class="node">
<title>Node2</title>
<g id="a_Node000002"><a xlink:href="arg_8hpp.html" target="_top" xlink:title=" ">
<polygon fill="white" stroke="#666666" points="234.12,-356 185.88,-356 185.88,-336 234.12,-336 234.12,-356"/>
<text xml:space="preserve" text-anchor="middle" x="210" y="-342.5" font-family="Helvetica,sans-Serif" font-size="10.00">arg.hpp</text>
</a>
</g>
</g>
<!-- Node1&#45;&gt;Node2 -->
<g id="edge1_Node000001_Node000002" class="edge">
<title>Node1&#45;&gt;Node2</title>
<g id="a_edge1_Node000001_Node000002"><a xlink:title=" ">
<path fill="none" stroke="#63b8ff" d="M168.62,-440.79C178.15,-433.11 188.42,-423.17 195,-412 205.46,-394.24 208.63,-369.75 209.59,-356.48"/>
<polygon fill="#63b8ff" stroke="#63b8ff" points="166.58,-437.95 160.71,-446.77 170.8,-443.53 166.58,-437.95"/>
</a>
</g>
</g>
<!-- Node4 -->
<g id="Node000004" class="node">
<title>Node4</title>
<g id="a_Node000004"><a xlink:href="cmd__line_8hpp.html" target="_top" xlink:title=" ">
<polygon fill="white" stroke="#666666" points="277.88,-76 204.12,-76 204.12,-56 277.88,-56 277.88,-76"/>
<text xml:space="preserve" text-anchor="middle" x="241" y="-62.5" font-family="Helvetica,sans-Serif" font-size="10.00">cmd_line.hpp</text>
</a>
</g>
</g>
<!-- Node1&#45;&gt;Node4 -->
<g id="edge16_Node000001_Node000004" class="edge">
<title>Node1&#45;&gt;Node4</title>
<g id="a_edge16_Node000001_Node000004"><a xlink:title=" ">
<path fill="none" stroke="#63b8ff" d="M99.91,-443.81C57.34,-428.26 0,-397.87 0,-347 0,-347 0,-347 0,-177 0,-88.46 136.27,-70.88 203.87,-67.6"/>
<polygon fill="#63b8ff" stroke="#63b8ff" points="98.61,-447.07 109.21,-447.04 100.91,-440.45 98.61,-447.07"/>
</a>
</g>
</g>
<!-- Node6 -->
<g id="Node000006" class="node">
<title>Node6</title>
<g id="a_Node000006"><a xlink:href="help__printer_8hpp.html" target="_top" xlink:title=" ">
<polygon fill="white" stroke="#666666" points="395.5,-20 310.5,-20 310.5,0 395.5,0 395.5,-20"/>
<text xml:space="preserve" text-anchor="middle" x="353" y="-6.5" font-family="Helvetica,sans-Serif" font-size="10.00">help_printer.hpp</text>
</a>
</g>
</g>
<!-- Node1&#45;&gt;Node6 -->
<g id="edge24_Node000001_Node000006" class="edge">
<title>Node1&#45;&gt;Node6</title>
<g id="a_edge24_Node000001_Node000006"><a xlink:title=" ">
<path fill="none" stroke="#63b8ff" d="M197.47,-449.62C286.59,-435.61 458,-401.56 458,-347 458,-347 458,-347 458,-121 458,-72.16 403.17,-36.46 372.75,-20.42"/>
<polygon fill="#63b8ff" stroke="#63b8ff" points="197.09,-446.14 187.74,-451.12 198.15,-453.06 197.09,-446.14"/>
</a>
</g>
</g>
<!-- Node8 -->
<g id="Node000008" class="node">
<title>Node8</title>
<g id="a_Node000008"><a xlink:href="help_8hpp.html" target="_top" xlink:title=" ">
<polygon fill="white" stroke="#666666" points="237.38,-132 184.62,-132 184.62,-112 237.38,-112 237.38,-132"/>
<text xml:space="preserve" text-anchor="middle" x="211" y="-118.5" font-family="Helvetica,sans-Serif" font-size="10.00">help.hpp</text>
</a>
</g>
</g>
<!-- Node1&#45;&gt;Node8 -->
<g id="edge23_Node000001_Node000008" class="edge">
<title>Node1&#45;&gt;Node8</title>
<g id="a_edge23_Node000001_Node000008"><a xlink:title=" ">
<path fill="none" stroke="#63b8ff" d="M114.49,-442.09C82.86,-424.25 38,-391.16 38,-347 38,-347 38,-347 38,-233 38,-164.49 135.82,-136.81 184.35,-127.3"/>
<polygon fill="#63b8ff" stroke="#63b8ff" points="112.83,-445.17 123.29,-446.84 116.15,-439.01 112.83,-445.17"/>
</a>
</g>
</g>
<!-- Node9 -->
<g id="Node000009" class="node">
<title>Node9</title>
<g id="a_Node000009"><a xlink:href="multi__arg_8hpp.html" target="_top" xlink:title=" ">
<polygon fill="white" stroke="#666666" points="182.25,-300 107.75,-300 107.75,-280 182.25,-280 182.25,-300"/>
<text xml:space="preserve" text-anchor="middle" x="145" y="-286.5" font-family="Helvetica,sans-Serif" font-size="10.00">multi_arg.hpp</text>
</a>
</g>
</g>
<!-- Node1&#45;&gt;Node9 -->
<g id="edge25_Node000001_Node000009" class="edge">
<title>Node1&#45;&gt;Node9</title>
<g id="a_edge25_Node000001_Node000009"><a xlink:title=" ">
<path fill="none" stroke="#63b8ff" d="M119.33,-440.82C109.83,-433.33 100.13,-423.52 95,-412 91.38,-403.88 92.97,-400.66 95,-392 103.47,-355.8 126.91,-317.7 138.43,-300.46"/>
<polygon fill="#63b8ff" stroke="#63b8ff" points="117.21,-443.61 127.37,-446.63 121.31,-437.93 117.21,-443.61"/>
</a>
</g>
</g>
<!-- Node10 -->
<g id="Node000010" class="node">
<title>Node10</title>
<g id="a_Node000010"><a xlink:href="group__iface_8hpp.html" target="_top" xlink:title=" ">
<polygon fill="white" stroke="#666666" points="380.5,-356 295.5,-356 295.5,-336 380.5,-336 380.5,-356"/>
<text xml:space="preserve" text-anchor="middle" x="338" y="-342.5" font-family="Helvetica,sans-Serif" font-size="10.00">group_iface.hpp</text>
</a>
</g>
</g>
<!-- Node1&#45;&gt;Node10 -->
<g id="edge17_Node000001_Node000010" class="edge">
<title>Node1&#45;&gt;Node10</title>
<g id="a_edge17_Node000001_Node000010"><a xlink:title=" ">
<path fill="none" stroke="#63b8ff" d="M171.4,-441.95C211.89,-418.88 288.15,-375.41 321.59,-356.35"/>
<polygon fill="#63b8ff" stroke="#63b8ff" points="169.72,-438.88 162.77,-446.87 173.19,-444.96 169.72,-438.88"/>
</a>
</g>
</g>
<!-- Node12 -->
<g id="Node000012" class="node">
<title>Node12</title>
<g id="a_Node000012"><a xlink:href="value__utils_8hpp.html" target="_top" xlink:title=" ">
<polygon fill="white" stroke="#666666" points="185.62,-412 104.38,-412 104.38,-392 185.62,-392 185.62,-412"/>
<text xml:space="preserve" text-anchor="middle" x="145" y="-398.5" font-family="Helvetica,sans-Serif" font-size="10.00">value_utils.hpp</text>
</a>
</g>
</g>
<!-- Node1&#45;&gt;Node12 -->
<g id="edge26_Node000001_Node000012" class="edge">
<title>Node1&#45;&gt;Node12</title>
<g id="a_edge26_Node000001_Node000012"><a xlink:title=" ">
<path fill="none" stroke="#63b8ff" d="M145,-436.13C145,-427.9 145,-418.85 145,-412.3"/>
<polygon fill="#63b8ff" stroke="#63b8ff" points="141.5,-436.08 145,-446.08 148.5,-436.08 141.5,-436.08"/>
</a>
</g>
</g>
<!-- Node3 -->
<g id="Node000003" class="node">
<title>Node3</title>
<g id="a_Node000003"><a xlink:href="api_8hpp.html" target="_top" xlink:title=" ">
<polygon fill="white" stroke="#666666" points="300.75,-244 253.25,-244 253.25,-224 300.75,-224 300.75,-244"/>
<text xml:space="preserve" text-anchor="middle" x="277" y="-230.5" font-family="Helvetica,sans-Serif" font-size="10.00">api.hpp</text>
</a>
</g>
</g>
<!-- Node2&#45;&gt;Node3 -->
<g id="edge2_Node000002_Node000003" class="edge">
<title>Node2&#45;&gt;Node3</title>
<g id="a_edge2_Node000002_Node000003"><a xlink:title=" ">
<path fill="none" stroke="#63b8ff" d="M221.61,-325.95C236.1,-302.14 260.34,-262.36 271.3,-244.35"/>
<polygon fill="#63b8ff" stroke="#63b8ff" points="218.71,-323.97 216.5,-334.33 224.69,-327.61 218.71,-323.97"/>
</a>
</g>
</g>
<!-- Node2&#45;&gt;Node8 -->
<g id="edge13_Node000002_Node000008" class="edge">
<title>Node2&#45;&gt;Node8</title>
<g id="a_edge13_Node000002_Node000008"><a xlink:title=" ">
<path fill="none" stroke="#63b8ff" d="M210.09,-324.45C210.3,-277.79 210.81,-165.36 210.96,-132.3"/>
<polygon fill="#63b8ff" stroke="#63b8ff" points="206.59,-324.21 210.05,-334.23 213.59,-324.25 206.59,-324.21"/>
</a>
</g>
</g>
<!-- Node2&#45;&gt;Node9 -->
<g id="edge14_Node000002_Node000009" class="edge">
<title>Node2&#45;&gt;Node9</title>
<g id="a_edge14_Node000002_Node000009"><a xlink:title=" ">
<path fill="none" stroke="#63b8ff" d="M190.02,-328.4C178.9,-319.17 165.47,-308.01 156.19,-300.3"/>
<polygon fill="#63b8ff" stroke="#63b8ff" points="187.59,-330.93 197.51,-334.63 192.06,-325.54 187.59,-330.93"/>
</a>
</g>
</g>
<!-- Node3&#45;&gt;Node4 -->
<g id="edge3_Node000003_Node000004" class="edge">
<title>Node3&#45;&gt;Node4</title>
<g id="a_edge3_Node000003_Node000004"><a xlink:title=" ">
<path fill="none" stroke="#63b8ff" d="M301.28,-216.93C310.53,-209.37 320.03,-199.48 325,-188 328.53,-179.84 328.02,-176.36 325,-168 310.5,-127.89 272.36,-92.49 252.86,-76.32"/>
<polygon fill="#63b8ff" stroke="#63b8ff" points="299.39,-213.97 293.51,-222.78 303.6,-219.57 299.39,-213.97"/>
</a>
</g>
</g>
<!-- Node7 -->
<g id="Node000007" class="node">
<title>Node7</title>
<g id="a_Node000007"><a xlink:href="command_8hpp.html" target="_top" xlink:title=" ">
<polygon fill="white" stroke="#666666" points="315.75,-188 238.25,-188 238.25,-168 315.75,-168 315.75,-188"/>
<text xml:space="preserve" text-anchor="middle" x="277" y="-174.5" font-family="Helvetica,sans-Serif" font-size="10.00">command.hpp</text>
</a>
</g>
</g>
<!-- Node3&#45;&gt;Node7 -->
<g id="edge7_Node000003_Node000007" class="edge">
<title>Node3&#45;&gt;Node7</title>
<g id="a_edge7_Node000003_Node000007"><a xlink:title=" ">
<path fill="none" stroke="#63b8ff" d="M270.42,-212.43C269.97,-204.11 270.41,-194.93 271.75,-188.3"/>
<polygon fill="#63b8ff" stroke="#63b8ff" points="266.92,-212.57 271.56,-222.09 273.87,-211.75 266.92,-212.57"/>
</a>
</g>
</g>
<!-- Node5 -->
<g id="Node000005" class="node">
<title>Node5</title>
<g id="a_Node000005"><a xlink:href="all_8hpp.html" target="_top" xlink:title=" ">
<polygon fill="white" stroke="#666666" points="263.25,-20 218.75,-20 218.75,0 263.25,0 263.25,-20"/>
<text xml:space="preserve" text-anchor="middle" x="241" y="-6.5" font-family="Helvetica,sans-Serif" font-size="10.00">all.hpp</text>
</a>
</g>
</g>
<!-- Node4&#45;&gt;Node5 -->
<g id="edge4_Node000004_Node000005" class="edge">
<title>Node4&#45;&gt;Node5</title>
<g id="a_edge4_Node000004_Node000005"><a xlink:title=" ">
<path fill="none" stroke="#63b8ff" d="M241,-44.13C241,-35.9 241,-26.85 241,-20.3"/>
<polygon fill="#63b8ff" stroke="#63b8ff" points="237.5,-44.08 241,-54.08 244.5,-44.08 237.5,-44.08"/>
</a>
</g>
</g>
<!-- Node4&#45;&gt;Node6 -->
<g id="edge5_Node000004_Node000006" class="edge">
<title>Node4&#45;&gt;Node6</title>
<g id="a_edge5_Node000004_Node000006"><a xlink:title=" ">
<path fill="none" stroke="#63b8ff" d="M265.31,-50.35C283.92,-40.84 309.29,-28.74 328.06,-20.48"/>
<polygon fill="#63b8ff" stroke="#63b8ff" points="263.84,-47.17 256.58,-54.89 267.07,-53.38 263.84,-47.17"/>
</a>
</g>
</g>
<!-- Node6&#45;&gt;Node4 -->
<g id="edge6_Node000006_Node000004" class="edge">
<title>Node6&#45;&gt;Node4</title>
<g id="a_edge6_Node000006_Node000004"><a xlink:title=" ">
<path fill="none" stroke="#63b8ff" d="M328.52,-25.74C309.88,-35.26 284.5,-47.36 265.78,-55.59"/>
<polygon fill="#63b8ff" stroke="#63b8ff" points="330.02,-28.9 337.28,-21.18 326.79,-22.69 330.02,-28.9"/>
</a>
</g>
</g>
<!-- Node7&#45;&gt;Node3 -->
<g id="edge8_Node000007_Node000003" class="edge">
<title>Node7&#45;&gt;Node3</title>
<g id="a_edge8_Node000007_Node000003"><a xlink:title=" ">
<path fill="none" stroke="#63b8ff" d="M283.59,-199.73C284.02,-207.96 283.58,-217.01 282.27,-223.59"/>
<polygon fill="#63b8ff" stroke="#63b8ff" points="287.06,-199.33 282.42,-189.8 280.11,-200.14 287.06,-199.33"/>
</a>
</g>
</g>
<!-- Node7&#45;&gt;Node4 -->
<g id="edge9_Node000007_Node000004" class="edge">
<title>Node7&#45;&gt;Node4</title>
<g id="a_edge9_Node000007_Node000004"><a xlink:title=" ">
<path fill="none" stroke="#63b8ff" d="M270.45,-156.97C262.62,-133.07 249.87,-94.11 244.06,-76.35"/>
<polygon fill="#63b8ff" stroke="#63b8ff" points="267.02,-157.77 273.46,-166.18 273.68,-155.59 267.02,-157.77"/>
</a>
</g>
</g>
<!-- Node7&#45;&gt;Node6 -->
<g id="edge12_Node000007_Node000006" class="edge">
<title>Node7&#45;&gt;Node6</title>
<g id="a_edge12_Node000007_Node000006"><a xlink:title=" ">
<path fill="none" stroke="#63b8ff" d="M285.95,-157.44C302.38,-121.57 336.73,-46.53 348.74,-20.3"/>
<polygon fill="#63b8ff" stroke="#63b8ff" points="282.91,-155.67 281.93,-166.22 289.28,-158.59 282.91,-155.67"/>
</a>
</g>
</g>
<!-- Node7&#45;&gt;Node8 -->
<g id="edge10_Node000007_Node000008" class="edge">
<title>Node7&#45;&gt;Node8</title>
<g id="a_edge10_Node000007_Node000008"><a xlink:title=" ">
<path fill="none" stroke="#63b8ff" d="M256.71,-160.4C245.42,-151.17 231.79,-140.01 222.36,-132.3"/>
<polygon fill="#63b8ff" stroke="#63b8ff" points="254.38,-163.01 264.33,-166.64 258.81,-157.59 254.38,-163.01"/>
</a>
</g>
</g>
<!-- Node8&#45;&gt;Node4 -->
<g id="edge11_Node000008_Node000004" class="edge">
<title>Node8&#45;&gt;Node4</title>
<g id="a_edge11_Node000008_Node000004"><a xlink:title=" ">
<path fill="none" stroke="#63b8ff" d="M221.79,-101.58C226.57,-92.97 231.98,-83.24 235.83,-76.3"/>
<polygon fill="#63b8ff" stroke="#63b8ff" points="218.76,-99.83 216.96,-110.27 224.88,-103.23 218.76,-99.83"/>
</a>
</g>
</g>
<!-- Node9&#45;&gt;Node3 -->
<g id="edge15_Node000009_Node000003" class="edge">
<title>Node9&#45;&gt;Node3</title>
<g id="a_edge15_Node000009_Node000003"><a xlink:title=" ">
<path fill="none" stroke="#63b8ff" d="M178.56,-275.27C202.1,-265.64 232.98,-253.01 253.83,-244.48"/>
<polygon fill="#63b8ff" stroke="#63b8ff" points="177.32,-272 169.39,-279.02 179.97,-278.47 177.32,-272"/>
</a>
</g>
</g>
<!-- Node10&#45;&gt;Node6 -->
<g id="edge22_Node000010_Node000006" class="edge">
<title>Node10&#45;&gt;Node6</title>
<g id="a_edge22_Node000010_Node000006"><a xlink:title=" ">
<path fill="none" stroke="#63b8ff" d="M360.91,-328.73C385.17,-309.41 420,-274.74 420,-235 420,-235 420,-235 420,-121 420,-78.29 382.7,-38.08 363.76,-20.41"/>
<polygon fill="#63b8ff" stroke="#63b8ff" points="358.94,-325.83 353.11,-334.67 363.19,-331.39 358.94,-325.83"/>
</a>
</g>
</g>
<!-- Node10&#45;&gt;Node7 -->
<g id="edge18_Node000010_Node000007" class="edge">
<title>Node10&#45;&gt;Node7</title>
<g id="a_edge18_Node000010_Node000007"><a xlink:title=" ">
<path fill="none" stroke="#63b8ff" d="M346.17,-324.97C350.33,-311.95 353.62,-294.71 349,-280 336.88,-241.37 303.73,-205.01 286.97,-188.42"/>
<polygon fill="#63b8ff" stroke="#63b8ff" points="342.97,-323.54 342.84,-334.13 349.55,-325.93 342.97,-323.54"/>
</a>
</g>
</g>
<!-- Node11 -->
<g id="Node000011" class="node">
<title>Node11</title>
<g id="a_Node000011"><a xlink:href="groups_8hpp.html" target="_top" xlink:title=" ">
<polygon fill="white" stroke="#666666" points="340,-300 276,-300 276,-280 340,-280 340,-300"/>
<text xml:space="preserve" text-anchor="middle" x="308" y="-286.5" font-family="Helvetica,sans-Serif" font-size="10.00">groups.hpp</text>
</a>
</g>
</g>
<!-- Node10&#45;&gt;Node11 -->
<g id="edge19_Node000010_Node000011" class="edge">
<title>Node10&#45;&gt;Node11</title>
<g id="a_edge19_Node000010_Node000011"><a xlink:title=" ">
<path fill="none" stroke="#63b8ff" d="M327.21,-325.58C322.43,-316.97 317.02,-307.24 313.17,-300.3"/>
<polygon fill="#63b8ff" stroke="#63b8ff" points="324.12,-327.23 332.04,-334.27 330.24,-323.83 324.12,-327.23"/>
</a>
</g>
</g>
<!-- Node11&#45;&gt;Node3 -->
<g id="edge20_Node000011_Node000003" class="edge">
<title>Node11&#45;&gt;Node3</title>
<g id="a_edge20_Node000011_Node000003"><a xlink:title=" ">
<path fill="none" stroke="#63b8ff" d="M297.02,-269.87C292.03,-261.19 286.37,-251.32 282.34,-244.3"/>
<polygon fill="#63b8ff" stroke="#63b8ff" points="293.83,-271.35 301.85,-278.28 299.9,-267.87 293.83,-271.35"/>
</a>
</g>
</g>
<!-- Node11&#45;&gt;Node6 -->
<g id="edge21_Node000011_Node000006" class="edge">
<title>Node11&#45;&gt;Node6</title>
<g id="a_edge21_Node000011_Node000006"><a xlink:title=" ">
<path fill="none" stroke="#63b8ff" d="M328.91,-272.03C350.79,-252.22 382,-217.26 382,-179 382,-179 382,-179 382,-121 382,-82.69 365.35,-39.27 357.28,-20.49"/>
<polygon fill="#63b8ff" stroke="#63b8ff" points="326.63,-269.37 321.36,-278.56 331.21,-274.66 326.63,-269.37"/>
</a>
</g>
</g>
<!-- Node12&#45;&gt;Node2 -->
<g id="edge27_Node000012_Node000002" class="edge">
<title>Node12&#45;&gt;Node2</title>
<g id="a_edge27_Node000012_Node000002"><a xlink:title=" ">
<path fill="none" stroke="#63b8ff" d="M164.98,-384.4C176.1,-375.17 189.53,-364.01 198.81,-356.3"/>
<polygon fill="#63b8ff" stroke="#63b8ff" points="162.94,-381.54 157.49,-390.63 167.41,-386.93 162.94,-381.54"/>
</a>
</g>
</g>
<!-- Node12&#45;&gt;Node7 -->
<g id="edge28_Node000012_Node000007" class="edge">
<title>Node12&#45;&gt;Node7</title>
<g id="a_edge28_Node000012_Node000007"><a xlink:title=" ">
<path fill="none" stroke="#63b8ff" d="M128.69,-383.18C108.49,-358.84 79.03,-314.29 99,-280 128.95,-228.57 195.91,-201.2 238.63,-188.43"/>
<polygon fill="#63b8ff" stroke="#63b8ff" points="125.92,-385.33 135.12,-390.6 131.21,-380.75 125.92,-385.33"/>
</a>
</g>
</g>
<!-- Node12&#45;&gt;Node9 -->
<g id="edge29_Node000012_Node000009" class="edge">
<title>Node12&#45;&gt;Node9</title>
<g id="a_edge29_Node000012_Node000009"><a xlink:title=" ">
<path fill="none" stroke="#63b8ff" d="M145,-380.31C145,-356.36 145,-317.95 145,-300.35"/>
<polygon fill="#63b8ff" stroke="#63b8ff" points="141.5,-380.11 145,-390.11 148.5,-380.11 141.5,-380.11"/>
</a>
</g>
</g>
</g>
</svg>

<g id="navigator" transform="translate(0 0)" fill="#404254">
  <rect fill="#f2f5e9" fill-opacity="0.5" stroke="#606060" stroke-width=".5" x="0" y="0" width="60" height="60"/>
  <use id="zoomplus" xlink:href="#zoomPlus" x="17" y="9" onmousedown="handleZoom(evt,'in')"/>
  <use id="zoomminus" xlink:href="#zoomMin" x="42" y="9" onmousedown="handleZoom(evt,'out')"/>
  <use id="reset" xlink:href="#resetDef" x="30" y="36" onmousedown="handleReset()"/>
   <use id="arrowup" xlink:href="#arrowUp" x="0" y="0" onmousedown="handlePan(0,-1)"/>
  <use id="arrowright" xlink:href="#arrowRight" x="0" y="0" onmousedown="handlePan(1,0)"/>
  <use id="arrowdown" xlink:href="#arrowDown" x="0" y="0" onmousedown="handlePan(0,1)"/>
  <use id="arrowleft" xlink:href="#arrowLeft" x="0" y="0" onmousedown="handlePan(-1,0)"/>
</g>
<svg viewBox="0 0 15 15" width="100%" height="30px" preserveAspectRatio="xMaxYMin meet">
 <g id="arrow_out" transform="scale(0.3 0.3)">
  <a xlink:href="exceptions_8hpp__dep__incl_org.svg" target="_base">
   <rect id="button" ry="5" rx="5" y="6" x="6" height="38" width="38"
        fill="#f2f5e9" fill-opacity="0.5" stroke="#606060" stroke-width="1.0"/>
   <path id="arrow"
     d="M 11.500037,31.436501 C 11.940474,20.09759 22.043105,11.32322 32.158766,21.979434 L 37.068811,17.246167 C 37.068811,17.246167 37.088388,32 37.088388,32 L 22.160133,31.978069 C 22.160133,31.978069 26.997745,27.140456 26.997745,27.140456 C 18.528582,18.264221 13.291696,25.230495 11.500037,31.436501 z"
     style="fill:#404040;"/>
  </a>
 </g>
</svg>

<style type='text/css'>
<![CDATA[
[data-mouse-over-selected='false'] { opacity: 0.7; }
[data-mouse-over-selected='true']  { opacity: 1.0; }
]]>
</style>
<script type="application/ecmascript"><![CDATA[
document.addEventListener('DOMContentLoaded', (event) => {
  highlightEdges();
  highlightAdjacentNodes();
});
]]></script>
</svg>
