<?xml version="1.0" encoding="UTF-8" standalone="no"?>
<!DOCTYPE svg PUBLIC "-//W3C//DTD SVG 1.1//EN"
 "http://www.w3.org/Graphics/SVG/1.1/DTD/svg11.dtd">
<!-- Generated by graphviz version 2.38.0 (20140413.2041)
 -->
<!-- Title: exceptions.hpp Pages: 1 -->
<svg width="479pt" height="364pt"
 viewBox="0.00 0.00 479.00 364.00" xmlns="http://www.w3.org/2000/svg" xmlns:xlink="http://www.w3.org/1999/xlink">
<g id="graph0" class="graph" transform="scale(1 1) rotate(0) translate(4 360)">
<title>exceptions.hpp</title>
<!-- Node1 -->
<g id="node1" class="node"><title>Node1</title>
<polygon fill="#bfbfbf" stroke="black" points="177,-336.5 177,-355.5 257,-355.5 257,-336.5 177,-336.5"/>
<text text-anchor="middle" x="217" y="-343.5" font-family="FreeSans" font-size="10.00">exceptions.hpp</text>
</g>
<!-- Node2 -->
<g id="node2" class="node"><title>Node2</title>
<g id="a_node2"><a xlink:href="arg_8hpp.html" target="_top" xlink:title="arg.hpp">
<polygon fill="none" stroke="black" points="319,-224.5 319,-243.5 367,-243.5 367,-224.5 319,-224.5"/>
<text text-anchor="middle" x="343" y="-231.5" font-family="FreeSans" font-size="10.00">arg.hpp</text>
</a>
</g>
</g>
<!-- Node1&#45;&gt;Node2 -->
<g id="edge1" class="edge"><title>Node1&#45;&gt;Node2</title>
<path fill="none" stroke="midnightblue" d="M234.659,-329.067C249.379,-315.836 270.946,-296.568 290,-280 304.756,-267.169 322.061,-252.557 332.779,-243.556"/>
<polygon fill="midnightblue" stroke="midnightblue" points="231.943,-326.802 226.853,-336.094 236.627,-332.005 231.943,-326.802"/>
</g>
<!-- Node4 -->
<g id="node4" class="node"><title>Node4</title>
<g id="a_node4"><a xlink:href="cmd__line_8hpp.html" target="_top" xlink:title="cmd_line.hpp">
<polygon fill="none" stroke="black" points="197,-56.5 197,-75.5 271,-75.5 271,-56.5 197,-56.5"/>
<text text-anchor="middle" x="234" y="-63.5" font-family="FreeSans" font-size="10.00">cmd_line.hpp</text>
</a>
</g>
</g>
<!-- Node1&#45;&gt;Node4 -->
<g id="edge26" class="edge"><title>Node1&#45;&gt;Node4</title>
<path fill="none" stroke="midnightblue" d="M166.621,-341.26C102.513,-333.441 0,-309.319 0,-235 0,-235 0,-235 0,-177 0,-91.036 130.94,-72.1291 196.922,-68.0588"/>
<polygon fill="midnightblue" stroke="midnightblue" points="166.618,-344.782 176.946,-342.42 167.399,-337.825 166.618,-344.782"/>
</g>
<!-- Node6 -->
<g id="node6" class="node"><title>Node6</title>
<g id="a_node6"><a xlink:href="arg__as__command_8hpp.html" target="_top" xlink:title="arg_as_command.hpp">
<polygon fill="none" stroke="black" points="286.5,-0.5 286.5,-19.5 397.5,-19.5 397.5,-0.5 286.5,-0.5"/>
<text text-anchor="middle" x="342" y="-7.5" font-family="FreeSans" font-size="10.00">arg_as_command.hpp</text>
</a>
</g>
</g>
<!-- Node1&#45;&gt;Node6 -->
<g id="edge25" class="edge"><title>Node1&#45;&gt;Node6</title>
<path fill="none" stroke="midnightblue" d="M267.307,-344.714C341.351,-341.343 471,-322.891 471,-235 471,-235 471,-235 471,-121 471,-67.1384 405.081,-34.0719 367.486,-19.5933"/>
<polygon fill="midnightblue" stroke="midnightblue" points="267.107,-341.219 257.247,-345.096 267.372,-348.214 267.107,-341.219"/>
</g>
<!-- Node7 -->
<g id="node7" class="node"><title>Node7</title>
<g id="a_node7"><a xlink:href="multi__arg_8hpp.html" target="_top" xlink:title="multi_arg.hpp">
<polygon fill="none" stroke="black" points="365,-168.5 365,-187.5 439,-187.5 439,-168.5 365,-168.5"/>
<text text-anchor="middle" x="402" y="-175.5" font-family="FreeSans" font-size="10.00">multi_arg.hpp</text>
</a>
</g>
</g>
<!-- Node1&#45;&gt;Node7 -->
<g id="edge18" class="edge"><title>Node1&#45;&gt;Node7</title>
<path fill="none" stroke="midnightblue" d="M267.398,-338.058C311.933,-330.84 372.198,-318.056 388,-300 416.55,-267.377 408.353,-209.41 403.954,-187.609"/>
<polygon fill="midnightblue" stroke="midnightblue" points="266.641,-334.634 257.306,-339.644 267.728,-341.549 266.641,-334.634"/>
</g>
<!-- Node8 -->
<g id="node8" class="node"><title>Node8</title>
<g id="a_node8"><a xlink:href="help_8hpp.html" target="_top" xlink:title="help.hpp">
<polygon fill="none" stroke="black" points="170.5,-168.5 170.5,-187.5 223.5,-187.5 223.5,-168.5 170.5,-168.5"/>
<text text-anchor="middle" x="197" y="-175.5" font-family="FreeSans" font-size="10.00">help.hpp</text>
</a>
</g>
</g>
<!-- Node1&#45;&gt;Node8 -->
<g id="edge27" class="edge"><title>Node1&#45;&gt;Node8</title>
<path fill="none" stroke="midnightblue" d="M169.316,-332.81C152.662,-326.015 135.717,-315.645 126,-300 117.351,-286.074 119.03,-247.243 133,-224 143.146,-207.119 162.33,-194.924 177.06,-187.523"/>
<polygon fill="midnightblue" stroke="midnightblue" points="168.439,-336.218 179.032,-336.411 170.871,-329.654 168.439,-336.218"/>
</g>
<!-- Node9 -->
<g id="node9" class="node"><title>Node9</title>
<g id="a_node9"><a xlink:href="value__utils_8hpp.html" target="_top" xlink:title="value_utils.hpp">
<polygon fill="none" stroke="black" points="299,-280.5 299,-299.5 379,-299.5 379,-280.5 299,-280.5"/>
<text text-anchor="middle" x="339" y="-287.5" font-family="FreeSans" font-size="10.00">value_utils.hpp</text>
</a>
</g>
</g>
<!-- Node1&#45;&gt;Node9 -->
<g id="edge11" class="edge"><title>Node1&#45;&gt;Node9</title>
<path fill="none" stroke="midnightblue" d="M245.539,-332.368C268.386,-322.255 299.805,-308.349 319.759,-299.516"/>
<polygon fill="midnightblue" stroke="midnightblue" points="244.059,-329.196 236.331,-336.444 246.892,-335.597 244.059,-329.196"/>
</g>
<!-- Node11 -->
<g id="node11" class="node"><title>Node11</title>
<g id="a_node11"><a xlink:href="help__printer_8hpp.html" target="_top" xlink:title="help_printer.hpp">
<polygon fill="none" stroke="black" points="67.5,-168.5 67.5,-187.5 152.5,-187.5 152.5,-168.5 67.5,-168.5"/>
<text text-anchor="middle" x="110" y="-175.5" font-family="FreeSans" font-size="10.00">help_printer.hpp</text>
</a>
</g>
</g>
<!-- Node1&#45;&gt;Node11 -->
<g id="edge28" class="edge"><title>Node1&#45;&gt;Node11</title>
<path fill="none" stroke="midnightblue" d="M167.144,-334.279C148.332,-327.621 128.674,-316.96 117,-300 92.6609,-264.641 102.667,-208.799 107.736,-187.572"/>
<polygon fill="midnightblue" stroke="midnightblue" points="166.266,-337.673 176.857,-337.408 168.412,-331.01 166.266,-337.673"/>
</g>
<!-- Node12 -->
<g id="node12" class="node"><title>Node12</title>
<g id="a_node12"><a xlink:href="group__iface_8hpp.html" target="_top" xlink:title="group_iface.hpp">
<polygon fill="none" stroke="black" points="135.5,-280.5 135.5,-299.5 220.5,-299.5 220.5,-280.5 135.5,-280.5"/>
<text text-anchor="middle" x="178" y="-287.5" font-family="FreeSans" font-size="10.00">group_iface.hpp</text>
</a>
</g>
</g>
<!-- Node1&#45;&gt;Node12 -->
<g id="edge19" class="edge"><title>Node1&#45;&gt;Node12</title>
<path fill="none" stroke="midnightblue" d="M204.618,-327.855C197.865,-318.505 189.791,-307.327 184.32,-299.751"/>
<polygon fill="midnightblue" stroke="midnightblue" points="201.868,-330.025 210.56,-336.083 207.542,-325.927 201.868,-330.025"/>
</g>
<!-- Node3 -->
<g id="node3" class="node"><title>Node3</title>
<g id="a_node3"><a xlink:href="api_8hpp.html" target="_top" xlink:title="api.hpp">
<polygon fill="none" stroke="black" points="318.5,-112.5 318.5,-131.5 365.5,-131.5 365.5,-112.5 318.5,-112.5"/>
<text text-anchor="middle" x="342" y="-119.5" font-family="FreeSans" font-size="10.00">api.hpp</text>
</a>
</g>
</g>
<!-- Node2&#45;&gt;Node3 -->
<g id="edge2" class="edge"><title>Node2&#45;&gt;Node3</title>
<path fill="none" stroke="midnightblue" d="M342.83,-214.348C342.611,-190.254 342.239,-149.308 342.078,-131.591"/>
<polygon fill="midnightblue" stroke="midnightblue" points="339.331,-214.401 342.922,-224.368 346.33,-214.337 339.331,-214.401"/>
</g>
<!-- Node2&#45;&gt;Node7 -->
<g id="edge7" class="edge"><title>Node2&#45;&gt;Node7</title>
<path fill="none" stroke="midnightblue" d="M359.895,-217.537C370.415,-207.909 383.569,-195.869 392.348,-187.834"/>
<polygon fill="midnightblue" stroke="midnightblue" points="357.493,-214.99 352.479,-224.324 362.219,-220.154 357.493,-214.99"/>
</g>
<!-- Node2&#45;&gt;Node8 -->
<g id="edge9" class="edge"><title>Node2&#45;&gt;Node8</title>
<path fill="none" stroke="midnightblue" d="M310.301,-220.906C282.852,-210.754 244.332,-196.506 220.026,-187.516"/>
<polygon fill="midnightblue" stroke="midnightblue" points="309.273,-224.257 319.866,-224.444 311.701,-217.692 309.273,-224.257"/>
</g>
<!-- Node3&#45;&gt;Node4 -->
<g id="edge3" class="edge"><title>Node3&#45;&gt;Node4</title>
<path fill="none" stroke="midnightblue" d="M315.452,-107.726C295.454,-97.7271 268.613,-84.3065 251.309,-75.6545"/>
<polygon fill="midnightblue" stroke="midnightblue" points="314.138,-110.982 324.648,-112.324 317.269,-104.721 314.138,-110.982"/>
</g>
<!-- Node5 -->
<g id="node5" class="node"><title>Node5</title>
<g id="a_node5"><a xlink:href="all_8hpp.html" target="_top" xlink:title="all.hpp">
<polygon fill="none" stroke="black" points="212,-0.5 212,-19.5 256,-19.5 256,-0.5 212,-0.5"/>
<text text-anchor="middle" x="234" y="-7.5" font-family="FreeSans" font-size="10.00">all.hpp</text>
</a>
</g>
</g>
<!-- Node4&#45;&gt;Node5 -->
<g id="edge4" class="edge"><title>Node4&#45;&gt;Node5</title>
<path fill="none" stroke="midnightblue" d="M234,-45.8045C234,-36.9102 234,-26.7798 234,-19.7511"/>
<polygon fill="midnightblue" stroke="midnightblue" points="230.5,-46.083 234,-56.083 237.5,-46.083 230.5,-46.083"/>
</g>
<!-- Node4&#45;&gt;Node6 -->
<g id="edge5" class="edge"><title>Node4&#45;&gt;Node6</title>
<path fill="none" stroke="midnightblue" d="M260.548,-51.7261C280.546,-41.7271 307.387,-28.3065 324.691,-19.6545"/>
<polygon fill="midnightblue" stroke="midnightblue" points="258.731,-48.7213 251.352,-56.324 261.862,-54.9823 258.731,-48.7213"/>
</g>
<!-- Node6&#45;&gt;Node3 -->
<g id="edge6" class="edge"><title>Node6&#45;&gt;Node3</title>
<path fill="none" stroke="midnightblue" d="M342,-29.5974C342,-53.6664 342,-94.617 342,-112.368"/>
<polygon fill="midnightblue" stroke="midnightblue" points="345.5,-29.5914 342,-19.5914 338.5,-29.5915 345.5,-29.5914"/>
</g>
<!-- Node7&#45;&gt;Node3 -->
<g id="edge8" class="edge"><title>Node7&#45;&gt;Node3</title>
<path fill="none" stroke="midnightblue" d="M384.819,-161.537C374.121,-151.909 360.744,-139.869 351.815,-131.834"/>
<polygon fill="midnightblue" stroke="midnightblue" points="382.586,-164.236 392.36,-168.324 387.268,-159.033 382.586,-164.236"/>
</g>
<!-- Node8&#45;&gt;Node4 -->
<g id="edge10" class="edge"><title>Node8&#45;&gt;Node4</title>
<path fill="none" stroke="midnightblue" d="M203.164,-158.674C211.253,-134.625 225.124,-93.3881 231.11,-75.5914"/>
<polygon fill="midnightblue" stroke="midnightblue" points="199.774,-157.774 199.903,-168.368 206.409,-160.006 199.774,-157.774"/>
</g>
<!-- Node9&#45;&gt;Node2 -->
<g id="edge12" class="edge"><title>Node9&#45;&gt;Node2</title>
<path fill="none" stroke="midnightblue" d="M340.4,-270.101C341.064,-261.136 341.825,-250.858 342.352,-243.751"/>
<polygon fill="midnightblue" stroke="midnightblue" points="336.909,-269.852 339.661,-280.083 343.89,-270.369 336.909,-269.852"/>
</g>
<!-- Node9&#45;&gt;Node7 -->
<g id="edge13" class="edge"><title>Node9&#45;&gt;Node7</title>
<path fill="none" stroke="midnightblue" d="M354.5,-272.67C361.69,-264.506 369.96,-254.207 376,-244 387.141,-225.172 395.469,-200.686 399.432,-187.807"/>
<polygon fill="midnightblue" stroke="midnightblue" points="351.685,-270.562 347.537,-280.312 356.859,-275.277 351.685,-270.562"/>
</g>
<!-- Node10 -->
<g id="node10" class="node"><title>Node10</title>
<g id="a_node10"><a xlink:href="command_8hpp.html" target="_top" xlink:title="command.hpp">
<polygon fill="none" stroke="black" points="223.5,-224.5 223.5,-243.5 300.5,-243.5 300.5,-224.5 223.5,-224.5"/>
<text text-anchor="middle" x="262" y="-231.5" font-family="FreeSans" font-size="10.00">command.hpp</text>
</a>
</g>
</g>
<!-- Node9&#45;&gt;Node10 -->
<g id="edge14" class="edge"><title>Node9&#45;&gt;Node10</title>
<path fill="none" stroke="midnightblue" d="M318.099,-274.342C304.089,-264.517 286.117,-251.913 274.341,-243.655"/>
<polygon fill="midnightblue" stroke="midnightblue" points="316.432,-277.448 326.629,-280.324 320.451,-271.717 316.432,-277.448"/>
</g>
<!-- Node10&#45;&gt;Node4 -->
<g id="edge15" class="edge"><title>Node10&#45;&gt;Node4</title>
<path fill="none" stroke="midnightblue" d="M258.783,-213.93C252.709,-177.92 239.774,-101.231 235.445,-75.5681"/>
<polygon fill="midnightblue" stroke="midnightblue" points="255.38,-214.797 260.495,-224.075 262.283,-213.632 255.38,-214.797"/>
</g>
<!-- Node10&#45;&gt;Node11 -->
<g id="edge16" class="edge"><title>Node10&#45;&gt;Node11</title>
<path fill="none" stroke="midnightblue" d="M228.332,-221.039C199.732,-210.879 159.388,-196.546 133.972,-187.516"/>
<polygon fill="midnightblue" stroke="midnightblue" points="227.32,-224.394 237.915,-224.444 229.664,-217.798 227.32,-224.394"/>
</g>
<!-- Node11&#45;&gt;Node4 -->
<g id="edge17" class="edge"><title>Node11&#45;&gt;Node4</title>
<path fill="none" stroke="midnightblue" d="M127.46,-161.512C153.956,-138.007 203.44,-94.1096 224.315,-75.5914"/>
<polygon fill="midnightblue" stroke="midnightblue" points="124.888,-159.114 119.73,-168.368 129.534,-164.351 124.888,-159.114"/>
</g>
<!-- Node12&#45;&gt;Node10 -->
<g id="edge23" class="edge"><title>Node12&#45;&gt;Node10</title>
<path fill="none" stroke="midnightblue" d="M199.932,-274.901C215.335,-264.999 235.446,-252.071 248.537,-243.655"/>
<polygon fill="midnightblue" stroke="midnightblue" points="198.015,-271.972 191.496,-280.324 201.801,-277.86 198.015,-271.972"/>
</g>
<!-- Node12&#45;&gt;Node11 -->
<g id="edge24" class="edge"><title>Node12&#45;&gt;Node11</title>
<path fill="none" stroke="midnightblue" d="M159.256,-273.774C150.306,-265.703 140.04,-255.161 133,-244 121.377,-225.574 114.655,-200.494 111.741,-187.535"/>
<polygon fill="midnightblue" stroke="midnightblue" points="157.118,-276.552 166.974,-280.438 161.693,-271.254 157.118,-276.552"/>
</g>
<!-- Node13 -->
<g id="node13" class="node"><title>Node13</title>
<g id="a_node13"><a xlink:href="groups_8hpp.html" target="_top" xlink:title="groups.hpp">
<polygon fill="none" stroke="black" points="142.5,-224.5 142.5,-243.5 205.5,-243.5 205.5,-224.5 142.5,-224.5"/>
<text text-anchor="middle" x="174" y="-231.5" font-family="FreeSans" font-size="10.00">groups.hpp</text>
</a>
</g>
</g>
<!-- Node12&#45;&gt;Node13 -->
<g id="edge20" class="edge"><title>Node12&#45;&gt;Node13</title>
<path fill="none" stroke="midnightblue" d="M176.6,-270.101C175.936,-261.136 175.175,-250.858 174.648,-243.751"/>
<polygon fill="midnightblue" stroke="midnightblue" points="173.11,-270.369 177.339,-280.083 180.091,-269.852 173.11,-270.369"/>
</g>
<!-- Node13&#45;&gt;Node3 -->
<g id="edge21" class="edge"><title>Node13&#45;&gt;Node3</title>
<path fill="none" stroke="midnightblue" d="M195.819,-218.714C231.22,-195.535 300.107,-150.43 328.879,-131.591"/>
<polygon fill="midnightblue" stroke="midnightblue" points="193.632,-215.962 187.183,-224.368 197.466,-221.819 193.632,-215.962"/>
</g>
<!-- Node13&#45;&gt;Node11 -->
<g id="edge22" class="edge"><title>Node13&#45;&gt;Node11</title>
<path fill="none" stroke="midnightblue" d="M156.009,-217.82C144.542,-208.145 130.087,-195.948 120.47,-187.834"/>
<polygon fill="midnightblue" stroke="midnightblue" points="153.817,-220.55 163.717,-224.324 158.331,-215.2 153.817,-220.55"/>
</g>
</g>
</svg>
