<?xml version="1.0" encoding="UTF-8" standalone="no"?>
<!DOCTYPE svg PUBLIC "-//W3C//DTD SVG 1.1//EN"
 "http://www.w3.org/Graphics/SVG/1.1/DTD/svg11.dtd">
<!-- Generated by graphviz version 2.40.1 (20161225.0304)
 -->
<!-- Title: exceptions.hpp Pages: 1 -->
<svg width="484pt" height="364pt"
 viewBox="0.00 0.00 484.00 364.00" xmlns="http://www.w3.org/2000/svg" xmlns:xlink="http://www.w3.org/1999/xlink">
<g id="graph0" class="graph" transform="scale(1 1) rotate(0) translate(4 360)">
<title>exceptions.hpp</title>
<!-- Node6 -->
<g id="node1" class="node">
<title>Node6</title>
<polygon fill="#bfbfbf" stroke="#000000" points="188.5,-336.5 188.5,-355.5 271.5,-355.5 271.5,-336.5 188.5,-336.5"/>
<text text-anchor="middle" x="230" y="-343.5" font-family="Helvetica,sans-Serif" font-size="10.00" fill="#000000">exceptions.hpp</text>
</g>
<!-- Node7 -->
<g id="node2" class="node">
<title>Node7</title>
<g id="a_node2"><a xlink:href="arg_8hpp.html" target="_top" xlink:title="arg.hpp">
<polygon fill="none" stroke="#000000" points="322.5,-224.5 322.5,-243.5 371.5,-243.5 371.5,-224.5 322.5,-224.5"/>
<text text-anchor="middle" x="347" y="-231.5" font-family="Helvetica,sans-Serif" font-size="10.00" fill="#000000">arg.hpp</text>
</a>
</g>
</g>
<!-- Node6&#45;&gt;Node7 -->
<g id="edge1" class="edge">
<title>Node6&#45;&gt;Node7</title>
<path fill="none" stroke="#191970" d="M241.9468,-327.5925C251.5246,-313.6289 265.8315,-294.44 281,-280 296.2751,-265.4585 316.4928,-252.0673 330.5079,-243.5287"/>
<polygon fill="#191970" stroke="#191970" points="238.7713,-326.0446 236.1192,-336.3021 244.5892,-329.9373 238.7713,-326.0446"/>
</g>
<!-- Node9 -->
<g id="node4" class="node">
<title>Node9</title>
<g id="a_node4"><a xlink:href="cmd__line_8hpp.html" target="_top" xlink:title="cmd_line.hpp">
<polygon fill="none" stroke="#000000" points="197,-56.5 197,-75.5 271,-75.5 271,-56.5 197,-56.5"/>
<text text-anchor="middle" x="234" y="-63.5" font-family="Helvetica,sans-Serif" font-size="10.00" fill="#000000">cmd_line.hpp</text>
</a>
</g>
</g>
<!-- Node6&#45;&gt;Node9 -->
<g id="edge26" class="edge">
<title>Node6&#45;&gt;Node9</title>
<path fill="none" stroke="#191970" d="M184.1467,-333.6664C117.0492,-314.2456 0,-274.5548 0,-234 0,-234 0,-234 0,-178 0,-134.8755 130.9403,-93.597 196.922,-75.5341"/>
<polygon fill="#191970" stroke="#191970" points="183.486,-337.1174 194.0625,-336.4944 185.4059,-330.3859 183.486,-337.1174"/>
</g>
<!-- Node11 -->
<g id="node6" class="node">
<title>Node11</title>
<g id="a_node6"><a xlink:href="arg__as__command_8hpp.html" target="_top" xlink:title="arg_as_command.hpp">
<polygon fill="none" stroke="#000000" points="286.5,-.5 286.5,-19.5 399.5,-19.5 399.5,-.5 286.5,-.5"/>
<text text-anchor="middle" x="343" y="-7.5" font-family="Helvetica,sans-Serif" font-size="10.00" fill="#000000">arg_as_command.hpp</text>
</a>
</g>
</g>
<!-- Node6&#45;&gt;Node11 -->
<g id="edge25" class="edge">
<title>Node6&#45;&gt;Node11</title>
<path fill="none" stroke="#191970" d="M281.7504,-338.6501C317.1771,-332.0997 364.3664,-320.307 402,-300 440.7835,-279.0725 476,-278.0695 476,-234 476,-234 476,-234 476,-122 476,-67.8146 410.6116,-34.5518 371.5318,-19.5108"/>
<polygon fill="#191970" stroke="#191970" points="280.8619,-335.2528 271.6236,-340.4398 282.0801,-342.146 280.8619,-335.2528"/>
</g>
<!-- Node12 -->
<g id="node7" class="node">
<title>Node12</title>
<g id="a_node7"><a xlink:href="multi__arg_8hpp.html" target="_top" xlink:title="multi_arg.hpp">
<polygon fill="none" stroke="#000000" points="365.5,-168.5 365.5,-187.5 440.5,-187.5 440.5,-168.5 365.5,-168.5"/>
<text text-anchor="middle" x="403" y="-175.5" font-family="Helvetica,sans-Serif" font-size="10.00" fill="#000000">multi_arg.hpp</text>
</a>
</g>
</g>
<!-- Node6&#45;&gt;Node12 -->
<g id="edge18" class="edge">
<title>Node6&#45;&gt;Node12</title>
<path fill="none" stroke="#191970" d="M281.4608,-335.668C319.3682,-327.0992 366.7056,-314.0774 381,-300 412.1288,-269.3436 407.7229,-210.5928 404.5643,-187.5803"/>
<polygon fill="#191970" stroke="#191970" points="280.5643,-332.2815 271.5546,-337.856 282.0741,-339.1168 280.5643,-332.2815"/>
</g>
<!-- Node13 -->
<g id="node8" class="node">
<title>Node13</title>
<g id="a_node8"><a xlink:href="help_8hpp.html" target="_top" xlink:title="help.hpp">
<polygon fill="none" stroke="#000000" points="171.5,-168.5 171.5,-187.5 224.5,-187.5 224.5,-168.5 171.5,-168.5"/>
<text text-anchor="middle" x="198" y="-175.5" font-family="Helvetica,sans-Serif" font-size="10.00" fill="#000000">help.hpp</text>
</a>
</g>
</g>
<!-- Node6&#45;&gt;Node13 -->
<g id="edge27" class="edge">
<title>Node6&#45;&gt;Node13</title>
<path fill="none" stroke="#191970" d="M178.9153,-335.7376C159.2268,-329.0223 138.6768,-318.0033 127,-300 118.5395,-286.9556 118.1219,-249.3445 133,-224 142.7283,-207.4281 161.0552,-195.2907 175.7752,-187.6579"/>
<polygon fill="#191970" stroke="#191970" points="177.8807,-339.0811 188.4687,-338.7002 179.9541,-332.3952 177.8807,-339.0811"/>
</g>
<!-- Node14 -->
<g id="node9" class="node">
<title>Node14</title>
<g id="a_node9"><a xlink:href="value__utils_8hpp.html" target="_top" xlink:title="value_utils.hpp">
<polygon fill="none" stroke="#000000" points="290,-280.5 290,-299.5 372,-299.5 372,-280.5 290,-280.5"/>
<text text-anchor="middle" x="331" y="-287.5" font-family="Helvetica,sans-Serif" font-size="10.00" fill="#000000">value_utils.hpp</text>
</a>
</g>
</g>
<!-- Node6&#45;&gt;Node14 -->
<g id="edge11" class="edge">
<title>Node6&#45;&gt;Node14</title>
<path fill="none" stroke="#191970" d="M256.4719,-331.3225C274.5125,-321.3198 297.8877,-308.3593 313.6087,-299.6427"/>
<polygon fill="#191970" stroke="#191970" points="254.6413,-328.3354 247.5929,-336.2455 258.0357,-334.4574 254.6413,-328.3354"/>
</g>
<!-- Node16 -->
<g id="node11" class="node">
<title>Node16</title>
<g id="a_node11"><a xlink:href="help__printer_8hpp.html" target="_top" xlink:title="help_printer.hpp">
<polygon fill="none" stroke="#000000" points="67,-168.5 67,-187.5 153,-187.5 153,-168.5 67,-168.5"/>
<text text-anchor="middle" x="110" y="-175.5" font-family="Helvetica,sans-Serif" font-size="10.00" fill="#000000">help_printer.hpp</text>
</a>
</g>
</g>
<!-- Node6&#45;&gt;Node16 -->
<g id="edge28" class="edge">
<title>Node6&#45;&gt;Node16</title>
<path fill="none" stroke="#191970" d="M178.5826,-337.442C156.3203,-330.9866 132.1618,-319.6999 118,-300 93.0966,-265.358 102.3676,-209.9054 107.5007,-187.6771"/>
<polygon fill="#191970" stroke="#191970" points="177.7411,-340.8397 188.3028,-340.0021 179.524,-334.0705 177.7411,-340.8397"/>
</g>
<!-- Node17 -->
<g id="node12" class="node">
<title>Node17</title>
<g id="a_node12"><a xlink:href="group__iface_8hpp.html" target="_top" xlink:title="group_iface.hpp">
<polygon fill="none" stroke="#000000" points="136,-280.5 136,-299.5 222,-299.5 222,-280.5 136,-280.5"/>
<text text-anchor="middle" x="179" y="-287.5" font-family="Helvetica,sans-Serif" font-size="10.00" fill="#000000">group_iface.hpp</text>
</a>
</g>
</g>
<!-- Node6&#45;&gt;Node17 -->
<g id="edge19" class="edge">
<title>Node6&#45;&gt;Node17</title>
<path fill="none" stroke="#191970" d="M214.3251,-328.7884C205.6006,-319.2085 195.0646,-307.6396 187.7817,-299.6427"/>
<polygon fill="#191970" stroke="#191970" points="211.7954,-331.2088 221.1165,-336.2455 216.9709,-326.4954 211.7954,-331.2088"/>
</g>
<!-- Node8 -->
<g id="node3" class="node">
<title>Node8</title>
<g id="a_node3"><a xlink:href="api_8hpp.html" target="_top" xlink:title="api.hpp">
<polygon fill="none" stroke="#000000" points="319,-112.5 319,-131.5 367,-131.5 367,-112.5 319,-112.5"/>
<text text-anchor="middle" x="343" y="-119.5" font-family="Helvetica,sans-Serif" font-size="10.00" fill="#000000">api.hpp</text>
</a>
</g>
</g>
<!-- Node7&#45;&gt;Node8 -->
<g id="edge2" class="edge">
<title>Node7&#45;&gt;Node8</title>
<path fill="none" stroke="#191970" d="M346.2954,-214.2702C345.4285,-189.9985 343.9919,-149.7725 343.3402,-131.5249"/>
<polygon fill="#191970" stroke="#191970" points="342.8042,-214.5823 346.659,-224.4509 349.7997,-214.3324 342.8042,-214.5823"/>
</g>
<!-- Node7&#45;&gt;Node12 -->
<g id="edge7" class="edge">
<title>Node7&#45;&gt;Node12</title>
<path fill="none" stroke="#191970" d="M363.9249,-217.0751C373.5598,-207.4402 385.2804,-195.7196 393.3573,-187.6427"/>
<polygon fill="#191970" stroke="#191970" points="361.3507,-214.6996 356.7545,-224.2455 366.3004,-219.6493 361.3507,-214.6996"/>
</g>
<!-- Node7&#45;&gt;Node13 -->
<g id="edge9" class="edge">
<title>Node7&#45;&gt;Node13</title>
<path fill="none" stroke="#191970" d="M312.8652,-221.1708C285.6119,-210.928 248.0349,-196.8051 223.3893,-187.5423"/>
<polygon fill="#191970" stroke="#191970" points="311.8036,-224.5108 322.3957,-224.7527 314.2663,-217.9583 311.8036,-224.5108"/>
</g>
<!-- Node8&#45;&gt;Node9 -->
<g id="edge3" class="edge">
<title>Node8&#45;&gt;Node9</title>
<path fill="none" stroke="#191970" d="M314.9658,-107.5971C295.4254,-97.558 269.8908,-84.4393 252.7688,-75.6427"/>
<polygon fill="#191970" stroke="#191970" points="313.5194,-110.7889 324.0136,-112.2455 316.7183,-104.5625 313.5194,-110.7889"/>
</g>
<!-- Node10 -->
<g id="node5" class="node">
<title>Node10</title>
<g id="a_node5"><a xlink:href="all_8hpp.html" target="_top" xlink:title="all.hpp">
<polygon fill="none" stroke="#000000" points="211.5,-.5 211.5,-19.5 256.5,-19.5 256.5,-.5 211.5,-.5"/>
<text text-anchor="middle" x="234" y="-7.5" font-family="Helvetica,sans-Serif" font-size="10.00" fill="#000000">all.hpp</text>
</a>
</g>
</g>
<!-- Node9&#45;&gt;Node10 -->
<g id="edge4" class="edge">
<title>Node9&#45;&gt;Node10</title>
<path fill="none" stroke="#191970" d="M234,-46.1575C234,-37.155 234,-26.9199 234,-19.6427"/>
<polygon fill="#191970" stroke="#191970" points="230.5001,-46.2455 234,-56.2455 237.5001,-46.2456 230.5001,-46.2455"/>
</g>
<!-- Node9&#45;&gt;Node11 -->
<g id="edge5" class="edge">
<title>Node9&#45;&gt;Node11</title>
<path fill="none" stroke="#191970" d="M262.0342,-51.5971C281.5746,-41.558 307.1092,-28.4393 324.2312,-19.6427"/>
<polygon fill="#191970" stroke="#191970" points="260.2817,-48.5625 252.9864,-56.2455 263.4806,-54.7889 260.2817,-48.5625"/>
</g>
<!-- Node11&#45;&gt;Node8 -->
<g id="edge6" class="edge">
<title>Node11&#45;&gt;Node8</title>
<path fill="none" stroke="#191970" d="M343,-29.6976C343,-53.9553 343,-94.184 343,-112.4509"/>
<polygon fill="#191970" stroke="#191970" points="346.5001,-29.5249 343,-19.5249 339.5001,-29.5249 346.5001,-29.5249"/>
</g>
<!-- Node12&#45;&gt;Node8 -->
<g id="edge8" class="edge">
<title>Node12&#45;&gt;Node8</title>
<path fill="none" stroke="#191970" d="M385.1722,-161.3607C374.7922,-151.6727 362.0709,-139.7995 353.3314,-131.6427"/>
<polygon fill="#191970" stroke="#191970" points="382.8501,-163.981 392.5488,-168.2455 387.6263,-158.8636 382.8501,-163.981"/>
</g>
<!-- Node13&#45;&gt;Node9 -->
<g id="edge10" class="edge">
<title>Node13&#45;&gt;Node9</title>
<path fill="none" stroke="#191970" d="M204.1312,-158.9253C211.9087,-134.7284 225.0201,-93.9376 230.9384,-75.5249"/>
<polygon fill="#191970" stroke="#191970" points="200.7974,-157.8596 201.0693,-168.4509 207.4616,-160.0017 200.7974,-157.8596"/>
</g>
<!-- Node14&#45;&gt;Node7 -->
<g id="edge12" class="edge">
<title>Node14&#45;&gt;Node7</title>
<path fill="none" stroke="#191970" d="M336.5846,-270.4538C339.177,-261.3803 342.1429,-250.9998 344.245,-243.6427"/>
<polygon fill="#191970" stroke="#191970" points="333.1689,-269.6688 333.787,-280.2455 339.8996,-271.5919 333.1689,-269.6688"/>
</g>
<!-- Node14&#45;&gt;Node12 -->
<g id="edge13" class="edge">
<title>Node14&#45;&gt;Node12</title>
<path fill="none" stroke="#191970" d="M352.3154,-273.9619C361.8712,-265.8618 372.6252,-255.3516 380,-244 391.7669,-225.8879 398.29,-201.0546 401.1727,-187.6033"/>
<polygon fill="#191970" stroke="#191970" points="349.9095,-271.4065 344.3415,-280.4202 354.3152,-276.8461 349.9095,-271.4065"/>
</g>
<!-- Node15 -->
<g id="node10" class="node">
<title>Node15</title>
<g id="a_node10"><a xlink:href="command_8hpp.html" target="_top" xlink:title="command.hpp">
<polygon fill="none" stroke="#000000" points="226,-224.5 226,-243.5 304,-243.5 304,-224.5 226,-224.5"/>
<text text-anchor="middle" x="265" y="-231.5" font-family="Helvetica,sans-Serif" font-size="10.00" fill="#000000">command.hpp</text>
</a>
</g>
</g>
<!-- Node14&#45;&gt;Node15 -->
<g id="edge14" class="edge">
<title>Node14&#45;&gt;Node15</title>
<path fill="none" stroke="#191970" d="M311.7245,-273.645C300.2462,-263.9058 286.0723,-251.8795 276.3646,-243.6427"/>
<polygon fill="#191970" stroke="#191970" points="309.6141,-276.4445 319.5037,-280.2455 314.143,-271.1069 309.6141,-276.4445"/>
</g>
<!-- Node15&#45;&gt;Node9 -->
<g id="edge15" class="edge">
<title>Node15&#45;&gt;Node9</title>
<path fill="none" stroke="#191970" d="M261.3575,-214.2601C254.6975,-178.1669 240.7841,-102.7656 235.8135,-75.8279"/>
<polygon fill="#191970" stroke="#191970" points="257.9879,-215.2874 263.2445,-224.4862 264.8717,-214.0171 257.9879,-215.2874"/>
</g>
<!-- Node15&#45;&gt;Node16 -->
<g id="edge16" class="edge">
<title>Node15&#45;&gt;Node16</title>
<path fill="none" stroke="#191970" d="M228.8051,-220.9231C200.4703,-210.686 161.7282,-196.6889 136.2978,-187.5011"/>
<polygon fill="#191970" stroke="#191970" points="227.7602,-224.267 238.3546,-224.3733 230.1388,-217.6835 227.7602,-224.267"/>
</g>
<!-- Node16&#45;&gt;Node9 -->
<g id="edge17" class="edge">
<title>Node16&#45;&gt;Node9</title>
<path fill="none" stroke="#191970" d="M128.3082,-161.4635C154.6357,-137.6838 202.3377,-94.5982 223.4546,-75.5249"/>
<polygon fill="#191970" stroke="#191970" points="125.6472,-159.1507 120.5722,-168.4509 130.3392,-164.3454 125.6472,-159.1507"/>
</g>
<!-- Node17&#45;&gt;Node15 -->
<g id="edge23" class="edge">
<title>Node17&#45;&gt;Node15</title>
<path fill="none" stroke="#191970" d="M202.3905,-274.769C217.6299,-264.8456 237.0509,-252.1994 250.1916,-243.6427"/>
<polygon fill="#191970" stroke="#191970" points="200.4502,-271.8558 193.9801,-280.2455 204.2699,-277.7218 200.4502,-271.8558"/>
</g>
<!-- Node17&#45;&gt;Node16 -->
<g id="edge24" class="edge">
<title>Node17&#45;&gt;Node16</title>
<path fill="none" stroke="#191970" d="M158.7542,-273.4876C149.8598,-265.3736 139.8937,-254.9869 133,-244 121.5204,-225.7044 114.8851,-200.9428 111.9073,-187.5522"/>
<polygon fill="#191970" stroke="#191970" points="156.6676,-276.312 166.5025,-280.2522 161.2713,-271.0389 156.6676,-276.312"/>
</g>
<!-- Node18 -->
<g id="node13" class="node">
<title>Node18</title>
<g id="a_node13"><a xlink:href="groups_8hpp.html" target="_top" xlink:title="groups.hpp">
<polygon fill="none" stroke="#000000" points="142.5,-224.5 142.5,-243.5 207.5,-243.5 207.5,-224.5 142.5,-224.5"/>
<text text-anchor="middle" x="175" y="-231.5" font-family="Helvetica,sans-Serif" font-size="10.00" fill="#000000">groups.hpp</text>
</a>
</g>
</g>
<!-- Node17&#45;&gt;Node18 -->
<g id="edge20" class="edge">
<title>Node17&#45;&gt;Node18</title>
<path fill="none" stroke="#191970" d="M177.5827,-270.1575C176.9396,-261.155 176.2086,-250.9199 175.6888,-243.6427"/>
<polygon fill="#191970" stroke="#191970" points="174.0996,-270.5204 178.3033,-280.2455 181.0818,-270.0216 174.0996,-270.5204"/>
</g>
<!-- Node18&#45;&gt;Node8 -->
<g id="edge21" class="edge">
<title>Node18&#45;&gt;Node8</title>
<path fill="none" stroke="#191970" d="M197.9781,-218.6813C233.2252,-195.1832 299.6073,-150.9284 328.7127,-131.5249"/>
<polygon fill="#191970" stroke="#191970" points="195.7026,-215.9917 189.3236,-224.4509 199.5856,-221.8161 195.7026,-215.9917"/>
</g>
<!-- Node18&#45;&gt;Node16 -->
<g id="edge22" class="edge">
<title>Node18&#45;&gt;Node16</title>
<path fill="none" stroke="#191970" d="M156.0165,-217.645C144.7121,-207.9058 130.753,-195.8795 121.1924,-187.6427"/>
<polygon fill="#191970" stroke="#191970" points="153.8173,-220.3701 163.6779,-224.2455 158.3862,-215.0668 153.8173,-220.3701"/>
</g>
</g>
</svg>
