<?xml version="1.0" encoding="UTF-8" standalone="no"?>
<!DOCTYPE svg PUBLIC "-//W3C//DTD SVG 1.1//EN"
 "http://www.w3.org/Graphics/SVG/1.1/DTD/svg11.dtd">
<!-- Generated by graphviz version 2.43.0 (0)
 -->
<!-- Title: exceptions.hpp Pages: 1 -->
<!--zoomable 476 -->
<svg id="main" version="1.1" xmlns="http://www.w3.org/2000/svg" xmlns:xlink="http://www.w3.org/1999/xlink" xml:space="preserve" onload="init(evt)">
<style type="text/css"><![CDATA[
.edge:hover path { stroke: red; }
.edge:hover polygon { stroke: red; fill: red; }
]]></style>
<script type="text/javascript"><![CDATA[
var edges = document.getElementsByTagName('g');
if (edges && edges.length) {
  for (var i=0;i<edges.length;i++) {
    if (edges[i].id.substr(0,4)=='edge') {
      edges[i].setAttribute('class','edge');
    }
  }
}
]]></script>
        <defs>
                <circle id="rim" cx="0" cy="0" r="7"/>
                <circle id="rim2" cx="0" cy="0" r="3.5"/>
                <g id="zoomPlus">
                        <use xlink:href="#rim" fill="#404040">
                                <set attributeName="fill" to="#808080" begin="zoomplus.mouseover" end="zoomplus.mouseout"/>
                        </use>
                        <path d="M-4,0h8M0,-4v8" fill="none" stroke="white" stroke-width="1.5" pointer-events="none"/>
                </g>
                <g id="zoomMin">
                        <use xlink:href="#rim" fill="#404040">
                                <set attributeName="fill" to="#808080" begin="zoomminus.mouseover" end="zoomminus.mouseout"/>
                        </use>
                        <path d="M-4,0h8" fill="none" stroke="white" stroke-width="1.5" pointer-events="none"/>
                </g>
                <g id="dirArrow">
                        <path fill="none" stroke="white" stroke-width="1.5" d="M0,-3.0v7 M-2.5,-0.5L0,-3.0L2.5,-0.5"/>
                </g>
               <g id="resetDef">
                       <use xlink:href="#rim2" fill="#404040">
                               <set attributeName="fill" to="#808080" begin="reset.mouseover" end="reset.mouseout"/>
                       </use>
               </g>
        </defs>

<script type="text/javascript">
var viewWidth = 483;
var viewHeight = 476;
var sectionId = 'dynsection-1';
</script>
<script xlink:href="svgpan.js"/>
<svg id="graph" class="graph">
<g id="viewport">
<title>exceptions.hpp</title>
<!-- Node1 -->
<g id="node1" class="node">
<title>Node1</title>
<g id="a_node1"><a xlink:title=" ">
<polygon fill="#bfbfbf" stroke="black" points="104.5,-448.5 104.5,-467.5 195.5,-467.5 195.5,-448.5 104.5,-448.5"/>
<text text-anchor="middle" x="150" y="-455.5" font-family="Helvetica,sans-Serif" font-size="10.00">exceptions.hpp</text>
</a>
</g>
</g>
<!-- Node2 -->
<g id="node2" class="node">
<title>Node2</title>
<g id="a_node2"><a xlink:href="arg_8hpp.html" target="_top" xlink:title=" ">
<polygon fill="none" stroke="black" points="192.5,-336.5 192.5,-355.5 245.5,-355.5 245.5,-336.5 192.5,-336.5"/>
<text text-anchor="middle" x="219" y="-343.5" font-family="Helvetica,sans-Serif" font-size="10.00">arg.hpp</text>
</a>
</g>
</g>
<!-- Node1&#45;&gt;Node2 -->
<g id="edge1" class="edge">
<title>Node1&#45;&gt;Node2</title>
<path fill="none" stroke="midnightblue" d="M173.48,-442.63C184.32,-434.85 196.43,-424.3 204,-412 215.04,-394.05 217.97,-368.77 218.73,-355.65"/>
<polygon fill="midnightblue" stroke="midnightblue" points="171.49,-439.76 165.17,-448.26 175.42,-445.55 171.49,-439.76"/>
</g>
<!-- Node4 -->
<g id="node4" class="node">
<title>Node4</title>
<g id="a_node4"><a xlink:href="cmd__line_8hpp.html" target="_top" xlink:title=" ">
<polygon fill="none" stroke="black" points="213,-56.5 213,-75.5 295,-75.5 295,-56.5 213,-56.5"/>
<text text-anchor="middle" x="254" y="-63.5" font-family="Helvetica,sans-Serif" font-size="10.00">cmd_line.hpp</text>
</a>
</g>
</g>
<!-- Node1&#45;&gt;Node4 -->
<g id="edge27" class="edge">
<title>Node1&#45;&gt;Node4</title>
<path fill="none" stroke="midnightblue" d="M106.63,-445.39C62.33,-430.59 0,-400.29 0,-347 0,-347 0,-347 0,-177 0,-85.34 141.02,-69.2 212.91,-66.93"/>
<polygon fill="midnightblue" stroke="midnightblue" points="105.75,-448.78 116.34,-448.48 107.87,-442.11 105.75,-448.78"/>
</g>
<!-- Node6 -->
<g id="node6" class="node">
<title>Node6</title>
<g id="a_node6"><a xlink:href="help__printer_8hpp.html" target="_top" xlink:title=" ">
<polygon fill="none" stroke="black" points="324.5,-0.5 324.5,-19.5 419.5,-19.5 419.5,-0.5 324.5,-0.5"/>
<text text-anchor="middle" x="372" y="-7.5" font-family="Helvetica,sans-Serif" font-size="10.00">help_printer.hpp</text>
</a>
</g>
</g>
<!-- Node1&#45;&gt;Node6 -->
<g id="edge29" class="edge">
<title>Node1&#45;&gt;Node6</title>
<path fill="none" stroke="midnightblue" d="M205.61,-449.84C298.46,-436.31 475,-403.2 475,-347 475,-347 475,-347 475,-121 475,-71.81 419.45,-35.55 389.94,-19.75"/>
<polygon fill="midnightblue" stroke="midnightblue" points="204.94,-446.4 195.53,-451.28 205.93,-453.33 204.94,-446.4"/>
</g>
<!-- Node8 -->
<g id="node8" class="node">
<title>Node8</title>
<g id="a_node8"><a xlink:href="help_8hpp.html" target="_top" xlink:title=" ">
<polygon fill="none" stroke="black" points="191.5,-112.5 191.5,-131.5 250.5,-131.5 250.5,-112.5 191.5,-112.5"/>
<text text-anchor="middle" x="221" y="-119.5" font-family="Helvetica,sans-Serif" font-size="10.00">help.hpp</text>
</a>
</g>
</g>
<!-- Node1&#45;&gt;Node8 -->
<g id="edge28" class="edge">
<title>Node1&#45;&gt;Node8</title>
<path fill="none" stroke="midnightblue" d="M120.69,-443.85C87.51,-426.72 38,-393.39 38,-347 38,-347 38,-347 38,-233 38,-162.38 139.34,-135.95 191.19,-127.05"/>
<polygon fill="midnightblue" stroke="midnightblue" points="119.46,-447.14 129.98,-448.44 122.57,-440.87 119.46,-447.14"/>
</g>
<!-- Node9 -->
<g id="node9" class="node">
<title>Node9</title>
<g id="a_node9"><a xlink:href="multi__arg_8hpp.html" target="_top" xlink:title=" ">
<polygon fill="none" stroke="black" points="107,-280.5 107,-299.5 191,-299.5 191,-280.5 107,-280.5"/>
<text text-anchor="middle" x="149" y="-287.5" font-family="Helvetica,sans-Serif" font-size="10.00">multi_arg.hpp</text>
</a>
</g>
</g>
<!-- Node1&#45;&gt;Node9 -->
<g id="edge20" class="edge">
<title>Node1&#45;&gt;Node9</title>
<path fill="none" stroke="midnightblue" d="M124.14,-442.95C112.99,-435.38 101.13,-424.93 95,-412 75.2,-370.22 119.78,-319.45 139.85,-299.57"/>
<polygon fill="midnightblue" stroke="midnightblue" points="122.47,-446.03 132.8,-448.39 126.19,-440.1 122.47,-446.03"/>
</g>
<!-- Node10 -->
<g id="node10" class="node">
<title>Node10</title>
<g id="a_node10"><a xlink:href="value__utils_8hpp.html" target="_top" xlink:title=" ">
<polygon fill="none" stroke="black" points="104.5,-392.5 104.5,-411.5 195.5,-411.5 195.5,-392.5 104.5,-392.5"/>
<text text-anchor="middle" x="150" y="-399.5" font-family="Helvetica,sans-Serif" font-size="10.00">value_utils.hpp</text>
</a>
</g>
</g>
<!-- Node1&#45;&gt;Node10 -->
<g id="edge16" class="edge">
<title>Node1&#45;&gt;Node10</title>
<path fill="none" stroke="midnightblue" d="M150,-437.8C150,-428.91 150,-418.78 150,-411.75"/>
<polygon fill="midnightblue" stroke="midnightblue" points="146.5,-438.08 150,-448.08 153.5,-438.08 146.5,-438.08"/>
</g>
<!-- Node11 -->
<g id="node11" class="node">
<title>Node11</title>
<g id="a_node11"><a xlink:href="group__iface_8hpp.html" target="_top" xlink:title=" ">
<polygon fill="none" stroke="black" points="307.5,-336.5 307.5,-355.5 402.5,-355.5 402.5,-336.5 307.5,-336.5"/>
<text text-anchor="middle" x="355" y="-343.5" font-family="Helvetica,sans-Serif" font-size="10.00">group_iface.hpp</text>
</a>
</g>
</g>
<!-- Node1&#45;&gt;Node11 -->
<g id="edge21" class="edge">
<title>Node1&#45;&gt;Node11</title>
<path fill="none" stroke="midnightblue" d="M174.99,-443.59C217.67,-420.69 303.43,-374.67 338.99,-355.59"/>
<polygon fill="midnightblue" stroke="midnightblue" points="173.24,-440.56 166.09,-448.37 176.55,-446.72 173.24,-440.56"/>
</g>
<!-- Node3 -->
<g id="node3" class="node">
<title>Node3</title>
<g id="a_node3"><a xlink:href="api_8hpp.html" target="_top" xlink:title=" ">
<polygon fill="none" stroke="black" points="263.5,-224.5 263.5,-243.5 316.5,-243.5 316.5,-224.5 263.5,-224.5"/>
<text text-anchor="middle" x="290" y="-231.5" font-family="Helvetica,sans-Serif" font-size="10.00">api.hpp</text>
</a>
</g>
</g>
<!-- Node2&#45;&gt;Node3 -->
<g id="edge2" class="edge">
<title>Node2&#45;&gt;Node3</title>
<path fill="none" stroke="midnightblue" d="M230,-327.96C245.39,-304.12 272.76,-261.71 284.45,-243.59"/>
<polygon fill="midnightblue" stroke="midnightblue" points="227.05,-326.07 224.57,-336.37 232.93,-329.86 227.05,-326.07"/>
</g>
<!-- Node2&#45;&gt;Node8 -->
<g id="edge15" class="edge">
<title>Node2&#45;&gt;Node8</title>
<path fill="none" stroke="midnightblue" d="M219.17,-326.3C219.58,-280.64 220.62,-164.85 220.92,-131.88"/>
<polygon fill="midnightblue" stroke="midnightblue" points="215.67,-326.27 219.08,-336.3 222.67,-326.33 215.67,-326.27"/>
</g>
<!-- Node2&#45;&gt;Node9 -->
<g id="edge13" class="edge">
<title>Node2&#45;&gt;Node9</title>
<path fill="none" stroke="midnightblue" d="M199.69,-330.1C187.09,-320.38 171.07,-308.03 160.45,-299.83"/>
<polygon fill="midnightblue" stroke="midnightblue" points="197.7,-332.99 207.75,-336.32 201.97,-327.44 197.7,-332.99"/>
</g>
<!-- Node3&#45;&gt;Node4 -->
<g id="edge3" class="edge">
<title>Node3&#45;&gt;Node4</title>
<path fill="none" stroke="midnightblue" d="M314.37,-218.73C324.95,-211.09 336.22,-200.64 342,-188 345.7,-179.92 345.12,-176.32 342,-168 326.58,-126.84 285.97,-91.4 265.76,-75.67"/>
<polygon fill="midnightblue" stroke="midnightblue" points="312.15,-216 305.78,-224.47 316.04,-221.82 312.15,-216"/>
</g>
<!-- Node7 -->
<g id="node7" class="node">
<title>Node7</title>
<g id="a_node7"><a xlink:href="command_8hpp.html" target="_top" xlink:title=" ">
<polygon fill="none" stroke="black" points="247,-168.5 247,-187.5 333,-187.5 333,-168.5 247,-168.5"/>
<text text-anchor="middle" x="290" y="-175.5" font-family="Helvetica,sans-Serif" font-size="10.00">command.hpp</text>
</a>
</g>
</g>
<!-- Node3&#45;&gt;Node7 -->
<g id="edge7" class="edge">
<title>Node3&#45;&gt;Node7</title>
<path fill="none" stroke="midnightblue" d="M283.53,-214.1C282.9,-205.14 283.34,-194.86 284.87,-187.75"/>
<polygon fill="midnightblue" stroke="midnightblue" points="280.07,-214.62 284.83,-224.08 287.01,-213.71 280.07,-214.62"/>
</g>
<!-- Node5 -->
<g id="node5" class="node">
<title>Node5</title>
<g id="a_node5"><a xlink:href="all_8hpp.html" target="_top" xlink:title=" ">
<polygon fill="none" stroke="black" points="229,-0.5 229,-19.5 279,-19.5 279,-0.5 229,-0.5"/>
<text text-anchor="middle" x="254" y="-7.5" font-family="Helvetica,sans-Serif" font-size="10.00">all.hpp</text>
</a>
</g>
</g>
<!-- Node4&#45;&gt;Node5 -->
<g id="edge4" class="edge">
<title>Node4&#45;&gt;Node5</title>
<path fill="none" stroke="midnightblue" d="M254,-45.8C254,-36.91 254,-26.78 254,-19.75"/>
<polygon fill="midnightblue" stroke="midnightblue" points="250.5,-46.08 254,-56.08 257.5,-46.08 250.5,-46.08"/>
</g>
<!-- Node4&#45;&gt;Node6 -->
<g id="edge5" class="edge">
<title>Node4&#45;&gt;Node6</title>
<path fill="none" stroke="midnightblue" d="M276.82,-51.86C297.33,-41.85 327.1,-28.35 347.98,-19.65"/>
<polygon fill="midnightblue" stroke="midnightblue" points="275.24,-48.74 267.84,-56.32 278.36,-55.01 275.24,-48.74"/>
</g>
<!-- Node6&#45;&gt;Node4 -->
<g id="edge6" class="edge">
<title>Node6&#45;&gt;Node4</title>
<path fill="none" stroke="midnightblue" d="M349.47,-23.99C328.87,-34.06 298.78,-47.71 277.79,-56.44"/>
<polygon fill="midnightblue" stroke="midnightblue" points="351.08,-27.11 358.47,-19.52 347.96,-20.84 351.08,-27.11"/>
</g>
<!-- Node7&#45;&gt;Node3 -->
<g id="edge8" class="edge">
<title>Node7&#45;&gt;Node3</title>
<path fill="none" stroke="midnightblue" d="M296.46,-197.69C297.11,-206.64 296.68,-216.93 295.17,-224.08"/>
<polygon fill="midnightblue" stroke="midnightblue" points="299.92,-197.2 295.13,-187.75 292.98,-198.13 299.92,-197.2"/>
</g>
<!-- Node7&#45;&gt;Node4 -->
<g id="edge9" class="edge">
<title>Node7&#45;&gt;Node4</title>
<path fill="none" stroke="midnightblue" d="M284,-158.67C276.13,-134.62 262.64,-93.39 256.81,-75.59"/>
<polygon fill="midnightblue" stroke="midnightblue" points="280.74,-159.95 287.18,-168.37 287.39,-157.78 280.74,-159.95"/>
</g>
<!-- Node7&#45;&gt;Node6 -->
<g id="edge12" class="edge">
<title>Node7&#45;&gt;Node6</title>
<path fill="none" stroke="midnightblue" d="M298.96,-158.86C316.55,-123.25 354.98,-45.45 367.77,-19.57"/>
<polygon fill="midnightblue" stroke="midnightblue" points="295.7,-157.56 294.41,-168.08 301.98,-160.66 295.7,-157.56"/>
</g>
<!-- Node7&#45;&gt;Node8 -->
<g id="edge10" class="edge">
<title>Node7&#45;&gt;Node8</title>
<path fill="none" stroke="midnightblue" d="M270.96,-162.1C258.54,-152.38 242.76,-140.03 232.29,-131.83"/>
<polygon fill="midnightblue" stroke="midnightblue" points="268.88,-164.92 278.91,-168.32 273.2,-159.4 268.88,-164.92"/>
</g>
<!-- Node8&#45;&gt;Node4 -->
<g id="edge11" class="edge">
<title>Node8&#45;&gt;Node4</title>
<path fill="none" stroke="midnightblue" d="M231.83,-103.27C237.47,-94.05 244.12,-83.17 248.65,-75.75"/>
<polygon fill="midnightblue" stroke="midnightblue" points="228.68,-101.73 226.45,-112.08 234.65,-105.38 228.68,-101.73"/>
</g>
<!-- Node9&#45;&gt;Node3 -->
<g id="edge14" class="edge">
<title>Node9&#45;&gt;Node3</title>
<path fill="none" stroke="midnightblue" d="M180.93,-276.77C207.41,-266.63 244.39,-252.47 267.76,-243.52"/>
<polygon fill="midnightblue" stroke="midnightblue" points="179.43,-273.6 171.34,-280.44 181.93,-280.14 179.43,-273.6"/>
</g>
<!-- Node10&#45;&gt;Node2 -->
<g id="edge17" class="edge">
<title>Node10&#45;&gt;Node2</title>
<path fill="none" stroke="midnightblue" d="M169.04,-386.1C181.46,-376.38 197.24,-364.03 207.71,-355.83"/>
<polygon fill="midnightblue" stroke="midnightblue" points="166.8,-383.4 161.09,-392.32 171.12,-388.92 166.8,-383.4"/>
</g>
<!-- Node10&#45;&gt;Node7 -->
<g id="edge19" class="edge">
<title>Node10&#45;&gt;Node7</title>
<path fill="none" stroke="midnightblue" d="M133.6,-384.93C111.34,-361.09 76.64,-315.37 98,-280 130.61,-226 202.74,-199.42 248.72,-187.5"/>
<polygon fill="midnightblue" stroke="midnightblue" points="131.37,-387.66 140.85,-392.4 136.4,-382.78 131.37,-387.66"/>
</g>
<!-- Node10&#45;&gt;Node9 -->
<g id="edge18" class="edge">
<title>Node10&#45;&gt;Node9</title>
<path fill="none" stroke="midnightblue" d="M149.83,-382.35C149.61,-358.25 149.24,-317.31 149.08,-299.59"/>
<polygon fill="midnightblue" stroke="midnightblue" points="146.33,-382.4 149.92,-392.37 153.33,-382.34 146.33,-382.4"/>
</g>
<!-- Node11&#45;&gt;Node6 -->
<g id="edge26" class="edge">
<title>Node11&#45;&gt;Node6</title>
<path fill="none" stroke="midnightblue" d="M376.12,-330.14C400.41,-311.13 437,-275.73 437,-235 437,-235 437,-235 437,-121 437,-77.97 399.67,-36.98 381.59,-19.66"/>
<polygon fill="midnightblue" stroke="midnightblue" points="373.7,-327.58 367.81,-336.39 377.91,-333.18 373.7,-327.58"/>
</g>
<!-- Node11&#45;&gt;Node7 -->
<g id="edge25" class="edge">
<title>Node11&#45;&gt;Node7</title>
<path fill="none" stroke="midnightblue" d="M362.55,-327.03C367.03,-313.79 370.96,-295.48 366,-280 353.21,-240.09 317.2,-203.51 299.74,-187.51"/>
<polygon fill="midnightblue" stroke="midnightblue" points="359.27,-325.81 359,-336.4 365.81,-328.29 359.27,-325.81"/>
</g>
<!-- Node12 -->
<g id="node12" class="node">
<title>Node12</title>
<g id="a_node12"><a xlink:href="groups_8hpp.html" target="_top" xlink:title=" ">
<polygon fill="none" stroke="black" points="285.5,-280.5 285.5,-299.5 356.5,-299.5 356.5,-280.5 285.5,-280.5"/>
<text text-anchor="middle" x="321" y="-287.5" font-family="Helvetica,sans-Serif" font-size="10.00">groups.hpp</text>
</a>
</g>
</g>
<!-- Node11&#45;&gt;Node12 -->
<g id="edge22" class="edge">
<title>Node11&#45;&gt;Node12</title>
<path fill="none" stroke="midnightblue" d="M344.02,-327.57C338.17,-318.27 331.23,-307.25 326.51,-299.75"/>
<polygon fill="midnightblue" stroke="midnightblue" points="341.1,-329.49 349.39,-336.08 347.02,-325.76 341.1,-329.49"/>
</g>
<!-- Node12&#45;&gt;Node3 -->
<g id="edge23" class="edge">
<title>Node12&#45;&gt;Node3</title>
<path fill="none" stroke="midnightblue" d="M310.82,-271.27C305.53,-262.05 299.28,-251.17 295.02,-243.75"/>
<polygon fill="midnightblue" stroke="midnightblue" points="307.87,-273.15 315.88,-280.08 313.94,-269.67 307.87,-273.15"/>
</g>
<!-- Node12&#45;&gt;Node6 -->
<g id="edge24" class="edge">
<title>Node12&#45;&gt;Node6</title>
<path fill="none" stroke="midnightblue" d="M341.09,-273.91C364.2,-254.66 399,-219.03 399,-179 399,-179 399,-179 399,-121 399,-82.26 383.01,-38 375.64,-19.66"/>
<polygon fill="midnightblue" stroke="midnightblue" points="338.8,-271.26 333.19,-280.24 343.18,-276.72 338.8,-271.26"/>
</g>
</g>
</svg>
        <g id="navigator" transform="translate(0 0)" fill="#404254">
                <rect fill="#f2f5e9" fill-opacity="0.5" stroke="#606060" stroke-width=".5" x="0" y="0" width="60" height="60"/>
                <use id="zoomplus" xlink:href="#zoomPlus" x="17" y="9" onmousedown="handleZoom(evt,'in')"/>
                <use id="zoomminus" xlink:href="#zoomMin" x="42" y="9" onmousedown="handleZoom(evt,'out')"/>
                <use id="reset" xlink:href="#resetDef" x="30" y="36" onmousedown="handleReset()"/>
                <g id="arrowUp" xlink:href="#dirArrow" transform="translate(30 24)" onmousedown="handlePan(0,-1)">
                  <use xlink:href="#rim" fill="#404040">
                        <set attributeName="fill" to="#808080" begin="arrowUp.mouseover" end="arrowUp.mouseout"/>
                  </use>
                  <path fill="none" stroke="white" stroke-width="1.5" d="M0,-3.0v7 M-2.5,-0.5L0,-3.0L2.5,-0.5"/>
                </g>
                <g id="arrowRight" xlink:href="#dirArrow" transform="rotate(90) translate(36 -43)" onmousedown="handlePan(1,0)">
                  <use xlink:href="#rim" fill="#404040">
                        <set attributeName="fill" to="#808080" begin="arrowRight.mouseover" end="arrowRight.mouseout"/>
                  </use>
                  <path fill="none" stroke="white" stroke-width="1.5" d="M0,-3.0v7 M-2.5,-0.5L0,-3.0L2.5,-0.5"/>
                </g>
                <g id="arrowDown" xlink:href="#dirArrow" transform="rotate(180) translate(-30 -48)" onmousedown="handlePan(0,1)">
                  <use xlink:href="#rim" fill="#404040">
                        <set attributeName="fill" to="#808080" begin="arrowDown.mouseover" end="arrowDown.mouseout"/>
                  </use>
                  <path fill="none" stroke="white" stroke-width="1.5" d="M0,-3.0v7 M-2.5,-0.5L0,-3.0L2.5,-0.5"/>
                </g>
                <g id="arrowLeft" xlink:href="#dirArrow" transform="rotate(270) translate(-36 17)" onmousedown="handlePan(-1,0)">
                  <use xlink:href="#rim" fill="#404040">
                        <set attributeName="fill" to="#808080" begin="arrowLeft.mouseover" end="arrowLeft.mouseout"/>
                  </use>
                  <path fill="none" stroke="white" stroke-width="1.5" d="M0,-3.0v7 M-2.5,-0.5L0,-3.0L2.5,-0.5"/>
                </g>
        </g>
        <svg viewBox="0 0 15 15" width="100%" height="30px" preserveAspectRatio="xMaxYMin meet">
         <g id="arrow_out" transform="scale(0.3 0.3)">
          <a xlink:href="exceptions_8hpp__dep__incl_org.svg" target="_base">
           <rect id="button" ry="5" rx="5" y="6" x="6" height="38" width="38"
                fill="#f2f5e9" fill-opacity="0.5" stroke="#606060" stroke-width="1.0"/>
           <path id="arrow"
             d="M 11.500037,31.436501 C 11.940474,20.09759 22.043105,11.32322 32.158766,21.979434 L 37.068811,17.246167 C 37.068811,17.246167 37.088388,32 37.088388,32 L 22.160133,31.978069 C 22.160133,31.978069 26.997745,27.140456 26.997745,27.140456 C 18.528582,18.264221 13.291696,25.230495 11.500037,31.436501 z"
             style="fill:#404040;"/>
          </a>
         </g>
        </svg>
</svg>
