<?xml version="1.0" encoding="UTF-8" standalone="no"?>
<!DOCTYPE svg PUBLIC "-//W3C//DTD SVG 1.1//EN"
 "http://www.w3.org/Graphics/SVG/1.1/DTD/svg11.dtd">
<!-- Generated by graphviz version 2.38.0 (20140413.2041)
 -->
<!-- Title: Graph Legend Pages: 1 -->
<svg width="504pt" height="159pt"
 viewBox="0.00 0.00 503.50 159.00" xmlns="http://www.w3.org/2000/svg" xmlns:xlink="http://www.w3.org/1999/xlink">
<g id="graph0" class="graph" transform="scale(1 1) rotate(0) translate(4 155)">
<title>Graph Legend</title>
<!-- Node9 -->
<g id="node1" class="node"><title>Node9</title>
<polygon fill="#bfbfbf" stroke="black" points="288.5,-19 234.5,-19 234.5,-0 288.5,-0 288.5,-19"/>
<text text-anchor="middle" x="261.5" y="-7" font-family="FreeSans" font-size="10.00">Inherited</text>
</g>
<!-- Node10 -->
<g id="node2" class="node"><title>Node10</title>
<g id="a_node2"><a xlink:href="$classPublicBase.html" xlink:title="PublicBase">
<polygon fill="none" stroke="black" points="65,-85 0,-85 0,-66 65,-66 65,-85"/>
<text text-anchor="middle" x="32.5" y="-73" font-family="FreeSans" font-size="10.00">PublicBase</text>
</a>
</g>
</g>
<!-- Node10&#45;&gt;Node9 -->
<g id="edge1" class="edge"><title>Node10&#45;&gt;Node9</title>
<path fill="none" stroke="midnightblue" d="M73.1299,-63.1449C119.596,-50.1588 194.382,-29.2579 234.312,-18.0984"/>
<polygon fill="midnightblue" stroke="midnightblue" points="72.0728,-59.8062 63.384,-65.8687 73.957,-66.5478 72.0728,-59.8062"/>
</g>
<!-- Node11 -->
<g id="node3" class="node"><title>Node11</title>
<g id="a_node3"><a xlink:href="$classTruncated.html" xlink:title="Truncated">
<polygon fill="none" stroke="red" points="62.5,-151 2.5,-151 2.5,-132 62.5,-132 62.5,-151"/>
<text text-anchor="middle" x="32.5" y="-139" font-family="FreeSans" font-size="10.00">Truncated</text>
</a>
</g>
</g>
<!-- Node11&#45;&gt;Node10 -->
<g id="edge2" class="edge"><title>Node11&#45;&gt;Node10</title>
<path fill="none" stroke="midnightblue" d="M32.5,-121.584C32.5,-109.625 32.5,-94.7211 32.5,-85.4052"/>
<polygon fill="midnightblue" stroke="midnightblue" points="29.0001,-121.869 32.5,-131.869 36.0001,-121.869 29.0001,-121.869"/>
</g>
<!-- Node13 -->
<g id="node4" class="node"><title>Node13</title>
<g id="a_node4"><a xlink:href="$classProtectedBase.html" xlink:title="ProtectedBase">
<polygon fill="none" stroke="black" points="163.5,-85 83.5,-85 83.5,-66 163.5,-66 163.5,-85"/>
<text text-anchor="middle" x="123.5" y="-73" font-family="FreeSans" font-size="10.00">ProtectedBase</text>
</a>
</g>
</g>
<!-- Node13&#45;&gt;Node9 -->
<g id="edge3" class="edge"><title>Node13&#45;&gt;Node9</title>
<path fill="none" stroke="darkgreen" d="M151.47,-61.5283C178.666,-48.9159 219.215,-30.1105 242.743,-19.199"/>
<polygon fill="darkgreen" stroke="darkgreen" points="149.711,-58.4862 142.111,-65.8687 152.656,-64.8365 149.711,-58.4862"/>
</g>
<!-- Node14 -->
<g id="node5" class="node"><title>Node14</title>
<g id="a_node5"><a xlink:href="$classPrivateBase.html" xlink:title="PrivateBase">
<polygon fill="none" stroke="black" points="249.5,-85 181.5,-85 181.5,-66 249.5,-66 249.5,-85"/>
<text text-anchor="middle" x="215.5" y="-73" font-family="FreeSans" font-size="10.00">PrivateBase</text>
</a>
</g>
</g>
<!-- Node14&#45;&gt;Node9 -->
<g id="edge4" class="edge"><title>Node14&#45;&gt;Node9</title>
<path fill="none" stroke="#8b1a1a" d="M227.784,-57.4086C236.576,-45.1764 248.058,-29.2013 255.099,-19.4052"/>
<polygon fill="#8b1a1a" stroke="#8b1a1a" points="224.698,-55.7058 221.704,-65.8687 230.382,-59.7912 224.698,-55.7058"/>
</g>
<!-- Node15 -->
<g id="node6" class="node"><title>Node15</title>
<polygon fill="none" stroke="#bfbfbf" points="349.5,-85 267.5,-85 267.5,-66 349.5,-66 349.5,-85"/>
<text text-anchor="middle" x="308.5" y="-73" font-family="FreeSans" font-size="10.00">Undocumented</text>
</g>
<!-- Node15&#45;&gt;Node9 -->
<g id="edge5" class="edge"><title>Node15&#45;&gt;Node9</title>
<path fill="none" stroke="midnightblue" d="M296.212,-57.7673C287.196,-45.4902 275.304,-29.2973 268.04,-19.4052"/>
<polygon fill="midnightblue" stroke="midnightblue" points="293.421,-59.8803 302.161,-65.8687 299.063,-55.7369 293.421,-59.8803"/>
</g>
<!-- Node16 -->
<g id="node7" class="node"><title>Node16</title>
<g id="a_node7"><a xlink:href="$classTempl.html" xlink:title="Templ&lt; int &gt;">
<polygon fill="none" stroke="black" points="439,-85 368,-85 368,-66 439,-66 439,-85"/>
<text text-anchor="middle" x="403.5" y="-73" font-family="FreeSans" font-size="10.00">Templ&lt; int &gt;</text>
</a>
</g>
</g>
<!-- Node16&#45;&gt;Node9 -->
<g id="edge6" class="edge"><title>Node16&#45;&gt;Node9</title>
<path fill="none" stroke="midnightblue" d="M375.086,-61.6939C347.102,-49.081 305.117,-30.1584 280.801,-19.199"/>
<polygon fill="midnightblue" stroke="midnightblue" points="373.794,-64.9505 384.349,-65.8687 376.671,-58.5687 373.794,-64.9505"/>
</g>
<!-- Node17 -->
<g id="node8" class="node"><title>Node17</title>
<g id="a_node8"><a xlink:href="$classTempl.html" xlink:title="Templ&lt; T &gt;">
<polygon fill="none" stroke="black" points="436.5,-151 370.5,-151 370.5,-132 436.5,-132 436.5,-151"/>
<text text-anchor="middle" x="403.5" y="-139" font-family="FreeSans" font-size="10.00">Templ&lt; T &gt;</text>
</a>
</g>
</g>
<!-- Node17&#45;&gt;Node16 -->
<g id="edge7" class="edge"><title>Node17&#45;&gt;Node16</title>
<path fill="none" stroke="orange" stroke-dasharray="5,2" d="M403.5,-121.584C403.5,-109.625 403.5,-94.7211 403.5,-85.4052"/>
<polygon fill="orange" stroke="orange" points="400,-121.869 403.5,-131.869 407,-121.869 400,-121.869"/>
<text text-anchor="middle" x="417.5" y="-106" font-family="FreeSans" font-size="10.00">&lt; int &gt;</text>
</g>
<!-- Node18 -->
<g id="node9" class="node"><title>Node18</title>
<g id="a_node9"><a xlink:href="$classUsed.html" xlink:title="Used">
<polygon fill="none" stroke="black" points="495.5,-85 457.5,-85 457.5,-66 495.5,-66 495.5,-85"/>
<text text-anchor="middle" x="476.5" y="-73" font-family="FreeSans" font-size="10.00">Used</text>
</a>
</g>
</g>
<!-- Node18&#45;&gt;Node9 -->
<g id="edge8" class="edge"><title>Node18&#45;&gt;Node9</title>
<path fill="none" stroke="#9a32cd" stroke-dasharray="5,2" d="M447.598,-65.8965C405.835,-53.465 329.178,-30.6459 288.504,-18.5383"/>
<polygon fill="#9a32cd" stroke="#9a32cd" points="446.837,-69.3219 457.42,-68.8204 448.834,-62.6128 446.837,-69.3219"/>
<text text-anchor="middle" x="411.5" y="-40" font-family="FreeSans" font-size="10.00">m_usedClass</text>
</g>
</g>
</svg>
