<?xml version="1.0" encoding="UTF-8" standalone="no"?>
<!DOCTYPE svg PUBLIC "-//W3C//DTD SVG 1.1//EN"
 "http://www.w3.org/Graphics/SVG/1.1/DTD/svg11.dtd">
<!-- Generated by graphviz version 2.43.0 (0)
 -->
<!-- Title: groups.hpp Pages: 1 -->
<!--zoomable 308 -->
<svg id="main" version="1.1" xmlns="http://www.w3.org/2000/svg" xmlns:xlink="http://www.w3.org/1999/xlink" xml:space="preserve" onload="init(evt)">
<style type="text/css"><![CDATA[
.edge:hover path { stroke: red; }
.edge:hover polygon { stroke: red; fill: red; }
]]></style>
<script type="text/javascript"><![CDATA[
var edges = document.getElementsByTagName('g');
if (edges && edges.length) {
  for (var i=0;i<edges.length;i++) {
    if (edges[i].id.substr(0,4)=='edge') {
      edges[i].setAttribute('class','edge');
    }
  }
}
]]></script>
        <defs>
                <circle id="rim" cx="0" cy="0" r="7"/>
                <circle id="rim2" cx="0" cy="0" r="3.5"/>
                <g id="zoomPlus">
                        <use xlink:href="#rim" fill="#404040">
                                <set attributeName="fill" to="#808080" begin="zoomplus.mouseover" end="zoomplus.mouseout"/>
                        </use>
                        <path d="M-4,0h8M0,-4v8" fill="none" stroke="white" stroke-width="1.5" pointer-events="none"/>
                </g>
                <g id="zoomMin">
                        <use xlink:href="#rim" fill="#404040">
                                <set attributeName="fill" to="#808080" begin="zoomminus.mouseover" end="zoomminus.mouseout"/>
                        </use>
                        <path d="M-4,0h8" fill="none" stroke="white" stroke-width="1.5" pointer-events="none"/>
                </g>
                <g id="dirArrow">
                        <path fill="none" stroke="white" stroke-width="1.5" d="M0,-3.0v7 M-2.5,-0.5L0,-3.0L2.5,-0.5"/>
                </g>
               <g id="resetDef">
                       <use xlink:href="#rim2" fill="#404040">
                               <set attributeName="fill" to="#808080" begin="reset.mouseover" end="reset.mouseout"/>
                       </use>
               </g>
        </defs>

<script type="text/javascript">
var viewWidth = 532;
var viewHeight = 308;
var sectionId = 'dynsection-0';
</script>
<script xlink:href="svgpan.js"/>
<svg id="graph" class="graph">
<g id="viewport">
<title>groups.hpp</title>
<!-- Node1 -->
<g id="node1" class="node">
<title>Node1</title>
<g id="a_node1"><a xlink:title=" ">
<polygon fill="#bfbfbf" stroke="black" points="249.56,-280.5 249.56,-299.5 320.56,-299.5 320.56,-280.5 249.56,-280.5"/>
<text text-anchor="middle" x="285.06" y="-287.5" font-family="Helvetica,sans-Serif" font-size="10.00">groups.hpp</text>
</a>
</g>
</g>
<!-- Node2 -->
<g id="node2" class="node">
<title>Node2</title>
<g id="a_node2"><a xlink:href="group__iface_8hpp.html" target="_top" xlink:title=" ">
<polygon fill="none" stroke="black" points="237.56,-224.5 237.56,-243.5 332.56,-243.5 332.56,-224.5 237.56,-224.5"/>
<text text-anchor="middle" x="285.06" y="-231.5" font-family="Helvetica,sans-Serif" font-size="10.00">group_iface.hpp</text>
</a>
</g>
</g>
<!-- Node1&#45;&gt;Node2 -->
<g id="edge1" class="edge">
<title>Node1&#45;&gt;Node2</title>
<path fill="none" stroke="midnightblue" d="M285.06,-280.08C285.06,-273.01 285.06,-262.86 285.06,-253.99"/>
<polygon fill="midnightblue" stroke="midnightblue" points="288.56,-253.75 285.06,-243.75 281.56,-253.75 288.56,-253.75"/>
</g>
<!-- Node6 -->
<g id="node6" class="node">
<title>Node6</title>
<g id="a_node6"><a xlink:href="types_8hpp.html" target="_top" xlink:title=" ">
<polygon fill="none" stroke="black" points="124.56,-56.5 124.56,-75.5 189.56,-75.5 189.56,-56.5 124.56,-56.5"/>
<text text-anchor="middle" x="157.06" y="-63.5" font-family="Helvetica,sans-Serif" font-size="10.00">types.hpp</text>
</a>
</g>
</g>
<!-- Node1&#45;&gt;Node6 -->
<g id="edge23" class="edge">
<title>Node1&#45;&gt;Node6</title>
<path fill="none" stroke="midnightblue" d="M249.09,-288.29C187.06,-284.89 61.19,-267.93 5.06,-188 -8.79,-168.28 9.05,-126.2 23.06,-112 47.19,-87.55 85,-76.38 114.31,-71.28"/>
<polygon fill="midnightblue" stroke="midnightblue" points="114.95,-74.73 124.29,-69.72 113.87,-67.81 114.95,-74.73"/>
</g>
<!-- Node10 -->
<g id="node10" class="node">
<title>Node10</title>
<g id="a_node10"><a xlink:title=" ">
<polygon fill="none" stroke="#bfbfbf" points="448.06,-56.5 448.06,-75.5 512.06,-75.5 512.06,-56.5 448.06,-56.5"/>
<text text-anchor="middle" x="480.06" y="-63.5" font-family="Helvetica,sans-Serif" font-size="10.00">algorithm</text>
</a>
</g>
</g>
<!-- Node1&#45;&gt;Node10 -->
<g id="edge24" class="edge">
<title>Node1&#45;&gt;Node10</title>
<path fill="none" stroke="midnightblue" d="M304.73,-280.46C337.31,-265.56 403.15,-232.11 446.06,-188 466.2,-167.29 471.24,-159.81 479.06,-132 483.31,-116.87 483.23,-98.98 482.28,-85.79"/>
<polygon fill="midnightblue" stroke="midnightblue" points="485.74,-85.23 481.3,-75.61 478.77,-85.9 485.74,-85.23"/>
</g>
<!-- Node3 -->
<g id="node3" class="node">
<title>Node3</title>
<g id="a_node3"><a xlink:href="arg__iface_8hpp.html" target="_top" xlink:title=" ">
<polygon fill="none" stroke="black" points="313.56,-168.5 313.56,-187.5 396.56,-187.5 396.56,-168.5 313.56,-168.5"/>
<text text-anchor="middle" x="355.06" y="-175.5" font-family="Helvetica,sans-Serif" font-size="10.00">arg_iface.hpp</text>
</a>
</g>
</g>
<!-- Node2&#45;&gt;Node3 -->
<g id="edge2" class="edge">
<title>Node2&#45;&gt;Node3</title>
<path fill="none" stroke="midnightblue" d="M296.3,-224.32C306.85,-216.18 322.86,-203.84 335.5,-194.09"/>
<polygon fill="midnightblue" stroke="midnightblue" points="337.83,-196.71 343.61,-187.83 333.55,-191.17 337.83,-196.71"/>
</g>
<!-- Node4 -->
<g id="node4" class="node">
<title>Node4</title>
<g id="a_node4"><a xlink:href="utils_8hpp.html" target="_top" xlink:title=" ">
<polygon fill="none" stroke="black" points="385.56,-112.5 385.56,-131.5 444.56,-131.5 444.56,-112.5 385.56,-112.5"/>
<text text-anchor="middle" x="415.06" y="-119.5" font-family="Helvetica,sans-Serif" font-size="10.00">utils.hpp</text>
</a>
</g>
</g>
<!-- Node2&#45;&gt;Node4 -->
<g id="edge13" class="edge">
<title>Node2&#45;&gt;Node4</title>
<path fill="none" stroke="midnightblue" d="M332.7,-227.15C358.33,-221.45 388.24,-210.2 406.06,-188 416.41,-175.1 417.91,-155.92 417.28,-141.74"/>
<polygon fill="midnightblue" stroke="midnightblue" points="420.75,-141.33 416.43,-131.65 413.78,-141.91 420.75,-141.33"/>
</g>
<!-- Node2&#45;&gt;Node6 -->
<g id="edge17" class="edge">
<title>Node2&#45;&gt;Node6</title>
<path fill="none" stroke="midnightblue" d="M237.49,-232.1C168.2,-229.67 44.75,-220.73 17.06,-188 -21.43,-142.52 69.32,-99.43 122.26,-79.14"/>
<polygon fill="midnightblue" stroke="midnightblue" points="123.52,-82.4 131.66,-75.62 121.07,-75.85 123.52,-82.4"/>
</g>
<!-- Node9 -->
<g id="node9" class="node">
<title>Node9</title>
<g id="a_node9"><a xlink:title=" ">
<polygon fill="none" stroke="#bfbfbf" points="369.56,-0.5 369.56,-19.5 416.56,-19.5 416.56,-0.5 369.56,-0.5"/>
<text text-anchor="middle" x="393.06" y="-7.5" font-family="Helvetica,sans-Serif" font-size="10.00">vector</text>
</a>
</g>
</g>
<!-- Node2&#45;&gt;Node9 -->
<g id="edge18" class="edge">
<title>Node2&#45;&gt;Node9</title>
<path fill="none" stroke="midnightblue" d="M332.91,-228.5C367.11,-223.29 412.79,-212.08 446.06,-188 494.58,-152.87 503.64,-133.32 521.06,-76 523.64,-67.5 526.2,-63.25 521.06,-56 499.86,-26.08 457.12,-15.91 426.87,-12.53"/>
<polygon fill="midnightblue" stroke="midnightblue" points="427.03,-9.03 416.75,-11.6 426.39,-16 427.03,-9.03"/>
</g>
<!-- Node2&#45;&gt;Node10 -->
<g id="edge20" class="edge">
<title>Node2&#45;&gt;Node10</title>
<path fill="none" stroke="midnightblue" d="M332.56,-226.8C361.66,-220.93 398.17,-209.63 424.06,-188 456.08,-161.25 470.77,-112.18 476.66,-85.49"/>
<polygon fill="midnightblue" stroke="midnightblue" points="480.12,-86.04 478.67,-75.55 473.26,-84.65 480.12,-86.04"/>
</g>
<!-- Node11 -->
<g id="node11" class="node">
<title>Node11</title>
<g id="a_node11"><a xlink:title=" ">
<polygon fill="none" stroke="#bfbfbf" points="262.56,-56.5 262.56,-75.5 331.56,-75.5 331.56,-56.5 262.56,-56.5"/>
<text text-anchor="middle" x="297.06" y="-63.5" font-family="Helvetica,sans-Serif" font-size="10.00">type_traits</text>
</a>
</g>
</g>
<!-- Node2&#45;&gt;Node11 -->
<g id="edge19" class="edge">
<title>Node2&#45;&gt;Node11</title>
<path fill="none" stroke="midnightblue" d="M284.76,-224.46C284.2,-204.63 283.37,-153.98 288.06,-112 289.04,-103.18 290.87,-93.52 292.63,-85.42"/>
<polygon fill="midnightblue" stroke="midnightblue" points="296.06,-86.09 294.89,-75.56 289.24,-84.52 296.06,-86.09"/>
</g>
<!-- Node13 -->
<g id="node13" class="node">
<title>Node13</title>
<g id="a_node13"><a xlink:href="exceptions_8hpp.html" target="_top" xlink:title=" ">
<polygon fill="none" stroke="black" points="26.56,-168.5 26.56,-187.5 117.56,-187.5 117.56,-168.5 26.56,-168.5"/>
<text text-anchor="middle" x="72.06" y="-175.5" font-family="Helvetica,sans-Serif" font-size="10.00">exceptions.hpp</text>
</a>
</g>
</g>
<!-- Node2&#45;&gt;Node13 -->
<g id="edge14" class="edge">
<title>Node2&#45;&gt;Node13</title>
<path fill="none" stroke="midnightblue" d="M251.31,-224.44C214.54,-215.12 155.61,-200.18 115.43,-190"/>
<polygon fill="midnightblue" stroke="midnightblue" points="116.2,-186.58 105.65,-187.52 114.48,-193.37 116.2,-186.58"/>
</g>
<!-- Node15 -->
<g id="node15" class="node">
<title>Node15</title>
<g id="a_node15"><a xlink:title=" ">
<polygon fill="none" stroke="#bfbfbf" points="135.56,-168.5 135.56,-187.5 180.56,-187.5 180.56,-168.5 135.56,-168.5"/>
<text text-anchor="middle" x="158.06" y="-175.5" font-family="Helvetica,sans-Serif" font-size="10.00">utility</text>
</a>
</g>
</g>
<!-- Node2&#45;&gt;Node15 -->
<g id="edge21" class="edge">
<title>Node2&#45;&gt;Node15</title>
<path fill="none" stroke="midnightblue" d="M264.93,-224.44C244.03,-215.56 211.12,-201.56 187.34,-191.45"/>
<polygon fill="midnightblue" stroke="midnightblue" points="188.66,-188.21 178.09,-187.52 185.92,-194.65 188.66,-188.21"/>
</g>
<!-- Node16 -->
<g id="node16" class="node">
<title>Node16</title>
<g id="a_node16"><a xlink:title=" ">
<polygon fill="none" stroke="#bfbfbf" points="199.06,-168.5 199.06,-187.5 257.06,-187.5 257.06,-168.5 199.06,-168.5"/>
<text text-anchor="middle" x="228.06" y="-175.5" font-family="Helvetica,sans-Serif" font-size="10.00">memory</text>
</a>
</g>
</g>
<!-- Node2&#45;&gt;Node16 -->
<g id="edge22" class="edge">
<title>Node2&#45;&gt;Node16</title>
<path fill="none" stroke="midnightblue" d="M275.9,-224.32C267.56,-216.42 255.02,-204.55 244.88,-194.94"/>
<polygon fill="midnightblue" stroke="midnightblue" points="247.05,-192.17 237.38,-187.83 242.23,-197.25 247.05,-192.17"/>
</g>
<!-- Node3&#45;&gt;Node4 -->
<g id="edge3" class="edge">
<title>Node3&#45;&gt;Node4</title>
<path fill="none" stroke="midnightblue" d="M364.7,-168.32C373.57,-160.34 386.93,-148.31 397.66,-138.65"/>
<polygon fill="midnightblue" stroke="midnightblue" points="400.15,-141.13 405.24,-131.83 395.47,-135.92 400.15,-141.13"/>
</g>
<!-- Node3&#45;&gt;Node6 -->
<g id="edge11" class="edge">
<title>Node3&#45;&gt;Node6</title>
<path fill="none" stroke="midnightblue" d="M339.52,-168.37C305.18,-149.29 222.62,-103.42 181.37,-80.51"/>
<polygon fill="midnightblue" stroke="midnightblue" points="182.96,-77.39 172.52,-75.59 179.56,-83.51 182.96,-77.39"/>
</g>
<!-- Node12 -->
<g id="node12" class="node">
<title>Node12</title>
<g id="a_node12"><a xlink:href="enums_8hpp.html" target="_top" xlink:title=" ">
<polygon fill="none" stroke="black" points="296.56,-112.5 296.56,-131.5 367.56,-131.5 367.56,-112.5 296.56,-112.5"/>
<text text-anchor="middle" x="332.06" y="-119.5" font-family="Helvetica,sans-Serif" font-size="10.00">enums.hpp</text>
</a>
</g>
</g>
<!-- Node3&#45;&gt;Node12 -->
<g id="edge12" class="edge">
<title>Node3&#45;&gt;Node12</title>
<path fill="none" stroke="midnightblue" d="M351.26,-168.08C348.14,-160.77 343.63,-150.18 339.77,-141.1"/>
<polygon fill="midnightblue" stroke="midnightblue" points="342.92,-139.58 335.78,-131.75 336.48,-142.32 342.92,-139.58"/>
</g>
<!-- Node5 -->
<g id="node5" class="node">
<title>Node5</title>
<g id="a_node5"><a xlink:title=" ">
<polygon fill="none" stroke="#bfbfbf" points="386.06,-56.5 386.06,-75.5 430.06,-75.5 430.06,-56.5 386.06,-56.5"/>
<text text-anchor="middle" x="408.06" y="-63.5" font-family="Helvetica,sans-Serif" font-size="10.00">regex</text>
</a>
</g>
</g>
<!-- Node4&#45;&gt;Node5 -->
<g id="edge4" class="edge">
<title>Node4&#45;&gt;Node5</title>
<path fill="none" stroke="midnightblue" d="M413.9,-112.08C412.97,-104.93 411.64,-94.64 410.48,-85.69"/>
<polygon fill="midnightblue" stroke="midnightblue" points="413.95,-85.22 409.19,-75.75 407.01,-86.12 413.95,-85.22"/>
</g>
<!-- Node4&#45;&gt;Node6 -->
<g id="edge5" class="edge">
<title>Node4&#45;&gt;Node6</title>
<path fill="none" stroke="midnightblue" d="M385.21,-113.84C382.45,-113.21 379.71,-112.58 377.06,-112 315.6,-98.44 244.17,-84.09 199.79,-75.34"/>
<polygon fill="midnightblue" stroke="midnightblue" points="200.41,-71.89 189.92,-73.39 199.06,-78.76 200.41,-71.89"/>
</g>
<!-- Node4&#45;&gt;Node10 -->
<g id="edge9" class="edge">
<title>Node4&#45;&gt;Node10</title>
<path fill="none" stroke="midnightblue" d="M425.5,-112.32C435.2,-104.26 449.87,-92.08 461.56,-82.37"/>
<polygon fill="midnightblue" stroke="midnightblue" points="463.97,-84.92 469.42,-75.83 459.5,-79.53 463.97,-84.92"/>
</g>
<!-- Node4&#45;&gt;Node11 -->
<g id="edge10" class="edge">
<title>Node4&#45;&gt;Node11</title>
<path fill="none" stroke="midnightblue" d="M396.36,-112.44C377.11,-103.64 346.9,-89.81 324.86,-79.72"/>
<polygon fill="midnightblue" stroke="midnightblue" points="326.22,-76.5 315.67,-75.52 323.3,-82.86 326.22,-76.5"/>
</g>
<!-- Node7 -->
<g id="node7" class="node">
<title>Node7</title>
<g id="a_node7"><a xlink:title=" ">
<polygon fill="none" stroke="#bfbfbf" points="100.06,-0.5 100.06,-19.5 144.06,-19.5 144.06,-0.5 100.06,-0.5"/>
<text text-anchor="middle" x="122.06" y="-7.5" font-family="Helvetica,sans-Serif" font-size="10.00">string</text>
</a>
</g>
</g>
<!-- Node6&#45;&gt;Node7 -->
<g id="edge6" class="edge">
<title>Node6&#45;&gt;Node7</title>
<path fill="none" stroke="midnightblue" d="M151.28,-56.08C146.38,-48.53 139.23,-37.49 133.22,-28.23"/>
<polygon fill="midnightblue" stroke="midnightblue" points="136.11,-26.24 127.73,-19.75 130.23,-30.05 136.11,-26.24"/>
</g>
<!-- Node8 -->
<g id="node8" class="node">
<title>Node8</title>
<g id="a_node8"><a xlink:title=" ">
<polygon fill="none" stroke="#bfbfbf" points="162.06,-0.5 162.06,-19.5 222.06,-19.5 222.06,-0.5 162.06,-0.5"/>
<text text-anchor="middle" x="192.06" y="-7.5" font-family="Helvetica,sans-Serif" font-size="10.00">iostream</text>
</a>
</g>
</g>
<!-- Node6&#45;&gt;Node8 -->
<g id="edge7" class="edge">
<title>Node6&#45;&gt;Node8</title>
<path fill="none" stroke="midnightblue" d="M162.84,-56.08C167.73,-48.53 174.88,-37.49 180.89,-28.23"/>
<polygon fill="midnightblue" stroke="midnightblue" points="183.88,-30.05 186.38,-19.75 178.01,-26.24 183.88,-30.05"/>
</g>
<!-- Node6&#45;&gt;Node9 -->
<g id="edge8" class="edge">
<title>Node6&#45;&gt;Node9</title>
<path fill="none" stroke="midnightblue" d="M189.87,-57.49C234.64,-47.25 314.43,-28.99 359.56,-18.67"/>
<polygon fill="midnightblue" stroke="midnightblue" points="360.47,-22.05 369.44,-16.4 358.91,-15.22 360.47,-22.05"/>
</g>
<!-- Node13&#45;&gt;Node6 -->
<g id="edge16" class="edge">
<title>Node13&#45;&gt;Node6</title>
<path fill="none" stroke="midnightblue" d="M72.75,-168.19C74.18,-154.86 78.48,-129.31 91.06,-112 100.79,-98.6 115.81,-87.91 129.06,-80.31"/>
<polygon fill="midnightblue" stroke="midnightblue" points="130.73,-83.39 137.87,-75.56 127.41,-77.23 130.73,-83.39"/>
</g>
<!-- Node14 -->
<g id="node14" class="node">
<title>Node14</title>
<g id="a_node14"><a xlink:title=" ">
<polygon fill="none" stroke="#bfbfbf" points="100.56,-112.5 100.56,-131.5 165.56,-131.5 165.56,-112.5 100.56,-112.5"/>
<text text-anchor="middle" x="133.06" y="-119.5" font-family="Helvetica,sans-Serif" font-size="10.00">stdexcept</text>
</a>
</g>
</g>
<!-- Node13&#45;&gt;Node14 -->
<g id="edge15" class="edge">
<title>Node13&#45;&gt;Node14</title>
<path fill="none" stroke="midnightblue" d="M81.86,-168.32C90.88,-160.34 104.46,-148.31 115.38,-138.65"/>
<polygon fill="midnightblue" stroke="midnightblue" points="117.91,-141.08 123.08,-131.83 113.27,-135.84 117.91,-141.08"/>
</g>
</g>
</svg>
        <g id="navigator" transform="translate(0 0)" fill="#404254">
                <rect fill="#f2f5e9" fill-opacity="0.5" stroke="#606060" stroke-width=".5" x="0" y="0" width="60" height="60"/>
                <use id="zoomplus" xlink:href="#zoomPlus" x="17" y="9" onmousedown="handleZoom(evt,'in')"/>
                <use id="zoomminus" xlink:href="#zoomMin" x="42" y="9" onmousedown="handleZoom(evt,'out')"/>
                <use id="reset" xlink:href="#resetDef" x="30" y="36" onmousedown="handleReset()"/>
                <g id="arrowUp" xlink:href="#dirArrow" transform="translate(30 24)" onmousedown="handlePan(0,-1)">
                  <use xlink:href="#rim" fill="#404040">
                        <set attributeName="fill" to="#808080" begin="arrowUp.mouseover" end="arrowUp.mouseout"/>
                  </use>
                  <path fill="none" stroke="white" stroke-width="1.5" d="M0,-3.0v7 M-2.5,-0.5L0,-3.0L2.5,-0.5"/>
                </g>
                <g id="arrowRight" xlink:href="#dirArrow" transform="rotate(90) translate(36 -43)" onmousedown="handlePan(1,0)">
                  <use xlink:href="#rim" fill="#404040">
                        <set attributeName="fill" to="#808080" begin="arrowRight.mouseover" end="arrowRight.mouseout"/>
                  </use>
                  <path fill="none" stroke="white" stroke-width="1.5" d="M0,-3.0v7 M-2.5,-0.5L0,-3.0L2.5,-0.5"/>
                </g>
                <g id="arrowDown" xlink:href="#dirArrow" transform="rotate(180) translate(-30 -48)" onmousedown="handlePan(0,1)">
                  <use xlink:href="#rim" fill="#404040">
                        <set attributeName="fill" to="#808080" begin="arrowDown.mouseover" end="arrowDown.mouseout"/>
                  </use>
                  <path fill="none" stroke="white" stroke-width="1.5" d="M0,-3.0v7 M-2.5,-0.5L0,-3.0L2.5,-0.5"/>
                </g>
                <g id="arrowLeft" xlink:href="#dirArrow" transform="rotate(270) translate(-36 17)" onmousedown="handlePan(-1,0)">
                  <use xlink:href="#rim" fill="#404040">
                        <set attributeName="fill" to="#808080" begin="arrowLeft.mouseover" end="arrowLeft.mouseout"/>
                  </use>
                  <path fill="none" stroke="white" stroke-width="1.5" d="M0,-3.0v7 M-2.5,-0.5L0,-3.0L2.5,-0.5"/>
                </g>
        </g>
        <svg viewBox="0 0 15 15" width="100%" height="30px" preserveAspectRatio="xMaxYMin meet">
         <g id="arrow_out" transform="scale(0.3 0.3)">
          <a xlink:href="groups_8hpp__incl_org.svg" target="_base">
           <rect id="button" ry="5" rx="5" y="6" x="6" height="38" width="38"
                fill="#f2f5e9" fill-opacity="0.5" stroke="#606060" stroke-width="1.0"/>
           <path id="arrow"
             d="M 11.500037,31.436501 C 11.940474,20.09759 22.043105,11.32322 32.158766,21.979434 L 37.068811,17.246167 C 37.068811,17.246167 37.088388,32 37.088388,32 L 22.160133,31.978069 C 22.160133,31.978069 26.997745,27.140456 26.997745,27.140456 C 18.528582,18.264221 13.291696,25.230495 11.500037,31.436501 z"
             style="fill:#404040;"/>
          </a>
         </g>
        </svg>
</svg>
