<?xml version="1.0" encoding="UTF-8" standalone="no"?>
<!DOCTYPE svg PUBLIC "-//W3C//DTD SVG 1.1//EN"
 "http://www.w3.org/Graphics/SVG/1.1/DTD/svg11.dtd">
<!-- Generated by graphviz version 2.38.0 (20140413.2041)
 -->
<!-- Title: group_iface.hpp Pages: 1 -->
<!--zoomable 252 -->
<svg id="main" version="1.1" xmlns="http://www.w3.org/2000/svg" xmlns:xlink="http://www.w3.org/1999/xlink" xml:space="preserve" onload="init(evt)">
<style type="text/css"><![CDATA[
.edge:hover path { stroke: red; }
.edge:hover polygon { stroke: red; fill: red; }
]]></style>
<script type="text/javascript"><![CDATA[
var edges = document.getElementsByTagName('g');
if (edges && edges.length) {
  for (var i=0;i<edges.length;i++) {
    if (edges[i].id.substr(0,4)=='edge') {
      edges[i].setAttribute('class','edge');
    }
  }
}
]]></script>
        <defs>
                <circle id="rim" cx="0" cy="0" r="7"/>
                <circle id="rim2" cx="0" cy="0" r="3.5"/>
                <g id="zoomPlus">
                        <use xlink:href="#rim" fill="#404040">
                                <set attributeName="fill" to="#808080" begin="zoomplus.mouseover" end="zoomplus.mouseout"/>
                        </use>
                        <path d="M-4,0h8M0,-4v8" fill="none" stroke="white" stroke-width="1.5" pointer-events="none"/>
                </g>
                <g id="zoomMin">
                        <use xlink:href="#rim" fill="#404040">
                                <set attributeName="fill" to="#808080" begin="zoomminus.mouseover" end="zoomminus.mouseout"/>
                        </use>
                        <path d="M-4,0h8" fill="none" stroke="white" stroke-width="1.5" pointer-events="none"/>
                </g>
                <g id="dirArrow">
                        <path fill="none" stroke="white" stroke-width="1.5" d="M0,-3.0v7 M-2.5,-0.5L0,-3.0L2.5,-0.5"/>
                </g>
               <g id="resetDef">
                       <use xlink:href="#rim2" fill="#404040">
                               <set attributeName="fill" to="#808080" begin="reset.mouseover" end="reset.mouseout"/>
                       </use>
               </g>
        </defs>

<script type="text/javascript">
var viewWidth = 535;
var viewHeight = 252;
var sectionId = 'dynsection-0';
</script>
<script xlink:href="svgpan.js"/>
<svg id="graph" class="graph">
<g id="viewport">
<title>group_iface.hpp</title>
<!-- Node1 -->
<g id="node1" class="node"><title>Node1</title>
<polygon fill="#bfbfbf" stroke="black" points="268.143,-224.5 268.143,-243.5 354.143,-243.5 354.143,-224.5 268.143,-224.5"/>
<text text-anchor="middle" x="311.143" y="-231.5" font-family="Helvetica,sans-Serif" font-size="10.00">group_iface.hpp</text>
</g>
<!-- Node2 -->
<g id="node2" class="node"><title>Node2</title>
<g id="a_node2"><a xlink:href="arg__iface_8hpp.html" target="_top" xlink:title="arg_iface.hpp">
<polygon fill="none" stroke="black" points="164.643,-168.5 164.643,-187.5 239.643,-187.5 239.643,-168.5 164.643,-168.5"/>
<text text-anchor="middle" x="202.143" y="-175.5" font-family="Helvetica,sans-Serif" font-size="10.00">arg_iface.hpp</text>
</a>
</g>
</g>
<!-- Node1&#45;&gt;Node2 -->
<g id="edge1" class="edge"><title>Node1&#45;&gt;Node2</title>
<path fill="none" stroke="midnightblue" d="M293.63,-224.324C276.07,-215.625 248.811,-202.12 228.612,-192.113"/>
<polygon fill="midnightblue" stroke="midnightblue" points="230.127,-188.958 219.612,-187.655 227.019,-195.23 230.127,-188.958"/>
</g>
<!-- Node3 -->
<g id="node3" class="node"><title>Node3</title>
<g id="a_node3"><a xlink:href="utils_8hpp.html" target="_top" xlink:title="utils.hpp">
<polygon fill="none" stroke="black" points="229.643,-112.5 229.643,-131.5 282.643,-131.5 282.643,-112.5 229.643,-112.5"/>
<text text-anchor="middle" x="256.143" y="-119.5" font-family="Helvetica,sans-Serif" font-size="10.00">utils.hpp</text>
</a>
</g>
</g>
<!-- Node1&#45;&gt;Node3 -->
<g id="edge12" class="edge"><title>Node1&#45;&gt;Node3</title>
<path fill="none" stroke="midnightblue" d="M306.827,-224.368C297.831,-206.376 276.918,-164.55 264.956,-140.627"/>
<polygon fill="midnightblue" stroke="midnightblue" points="268.041,-138.97 260.439,-131.591 261.78,-142.101 268.041,-138.97"/>
</g>
<!-- Node5 -->
<g id="node5" class="node"><title>Node5</title>
<g id="a_node5"><a xlink:href="types_8hpp.html" target="_top" xlink:title="types.hpp">
<polygon fill="none" stroke="black" points="88.6429,-56.5 88.6429,-75.5 147.643,-75.5 147.643,-56.5 88.6429,-56.5"/>
<text text-anchor="middle" x="118.143" y="-63.5" font-family="Helvetica,sans-Serif" font-size="10.00">types.hpp</text>
</a>
</g>
</g>
<!-- Node1&#45;&gt;Node5 -->
<g id="edge16" class="edge"><title>Node1&#45;&gt;Node5</title>
<path fill="none" stroke="midnightblue" d="M268.127,-233.178C192.847,-232.472 42.0667,-226.193 9.14285,-188 -0.926284,-176.319 -6.70571,-140.852 14.1429,-112 29.1312,-91.258 55.739,-79.9765 78.2883,-73.8966"/>
<polygon fill="midnightblue" stroke="midnightblue" points="79.4206,-77.2232 88.3069,-71.4539 77.7624,-70.4224 79.4206,-77.2232"/>
</g>
<!-- Node8 -->
<g id="node8" class="node"><title>Node8</title>
<polygon fill="none" stroke="#bfbfbf" points="278.143,-0.5 278.143,-19.5 322.143,-19.5 322.143,-0.5 278.143,-0.5"/>
<text text-anchor="middle" x="300.143" y="-7.5" font-family="Helvetica,sans-Serif" font-size="10.00">vector</text>
</g>
<!-- Node1&#45;&gt;Node8 -->
<g id="edge17" class="edge"><title>Node1&#45;&gt;Node8</title>
<path fill="none" stroke="midnightblue" d="M318.689,-224.453C340.993,-198.104 403.049,-116.272 370.143,-56 361.851,-40.813 345.997,-29.9869 331.471,-22.7653"/>
<polygon fill="midnightblue" stroke="midnightblue" points="332.76,-19.5061 322.21,-18.5306 329.849,-25.8722 332.76,-19.5061"/>
</g>
<!-- Node9 -->
<g id="node9" class="node"><title>Node9</title>
<polygon fill="none" stroke="#bfbfbf" points="225.143,-56.5 225.143,-75.5 281.143,-75.5 281.143,-56.5 225.143,-56.5"/>
<text text-anchor="middle" x="253.143" y="-63.5" font-family="Helvetica,sans-Serif" font-size="10.00">algorithm</text>
</g>
<!-- Node1&#45;&gt;Node9 -->
<g id="edge19" class="edge"><title>Node1&#45;&gt;Node9</title>
<path fill="none" stroke="midnightblue" d="M311.255,-224.332C311.201,-203.811 309.171,-151.049 291.143,-112 286.128,-101.138 277.76,-90.8051 270.151,-82.7865"/>
<polygon fill="midnightblue" stroke="midnightblue" points="272.5,-80.1867 262.947,-75.6054 267.558,-85.1441 272.5,-80.1867"/>
</g>
<!-- Node10 -->
<g id="node10" class="node"><title>Node10</title>
<polygon fill="none" stroke="#bfbfbf" points="299.143,-56.5 299.143,-75.5 361.143,-75.5 361.143,-56.5 299.143,-56.5"/>
<text text-anchor="middle" x="330.143" y="-63.5" font-family="Helvetica,sans-Serif" font-size="10.00">type_traits</text>
</g>
<!-- Node1&#45;&gt;Node10 -->
<g id="edge18" class="edge"><title>Node1&#45;&gt;Node10</title>
<path fill="none" stroke="midnightblue" d="M314.63,-224.203C317.999,-215.252 322.909,-200.899 325.143,-188 331.339,-152.215 331.45,-109.633 330.867,-85.7181"/>
<polygon fill="midnightblue" stroke="midnightblue" points="334.361,-85.4744 330.548,-75.5894 327.364,-85.6945 334.361,-85.4744"/>
</g>
<!-- Node12 -->
<g id="node12" class="node"><title>Node12</title>
<g id="a_node12"><a xlink:href="exceptions_8hpp.html" target="_top" xlink:title="exceptions.hpp">
<polygon fill="none" stroke="black" points="18.6429,-168.5 18.6429,-187.5 101.643,-187.5 101.643,-168.5 18.6429,-168.5"/>
<text text-anchor="middle" x="60.1429" y="-175.5" font-family="Helvetica,sans-Serif" font-size="10.00">exceptions.hpp</text>
</a>
</g>
</g>
<!-- Node1&#45;&gt;Node12 -->
<g id="edge13" class="edge"><title>Node1&#45;&gt;Node12</title>
<path fill="none" stroke="midnightblue" d="M271.371,-224.444C227.585,-215.023 157.129,-199.866 109.763,-189.675"/>
<polygon fill="midnightblue" stroke="midnightblue" points="110.241,-186.198 99.7285,-187.516 108.769,-193.041 110.241,-186.198"/>
</g>
<!-- Node14 -->
<g id="node14" class="node"><title>Node14</title>
<polygon fill="none" stroke="#bfbfbf" points="417.143,-168.5 417.143,-187.5 457.143,-187.5 457.143,-168.5 417.143,-168.5"/>
<text text-anchor="middle" x="437.143" y="-175.5" font-family="Helvetica,sans-Serif" font-size="10.00">utility</text>
</g>
<!-- Node1&#45;&gt;Node14 -->
<g id="edge20" class="edge"><title>Node1&#45;&gt;Node14</title>
<path fill="none" stroke="midnightblue" d="M331.108,-224.444C351.752,-215.596 384.205,-201.687 407.774,-191.586"/>
<polygon fill="midnightblue" stroke="midnightblue" points="409.458,-194.673 417.271,-187.516 406.701,-188.239 409.458,-194.673"/>
</g>
<!-- Node15 -->
<g id="node15" class="node"><title>Node15</title>
<polygon fill="none" stroke="#bfbfbf" points="475.143,-168.5 475.143,-187.5 527.143,-187.5 527.143,-168.5 475.143,-168.5"/>
<text text-anchor="middle" x="501.143" y="-175.5" font-family="Helvetica,sans-Serif" font-size="10.00">memory</text>
</g>
<!-- Node1&#45;&gt;Node15 -->
<g id="edge21" class="edge"><title>Node1&#45;&gt;Node15</title>
<path fill="none" stroke="midnightblue" d="M341.249,-224.444C374.772,-214.916 428.947,-199.519 464.804,-189.328"/>
<polygon fill="midnightblue" stroke="midnightblue" points="466.187,-192.574 474.849,-186.473 464.273,-185.84 466.187,-192.574"/>
</g>
<!-- Node2&#45;&gt;Node3 -->
<g id="edge2" class="edge"><title>Node2&#45;&gt;Node3</title>
<path fill="none" stroke="midnightblue" d="M211.06,-168.083C218.923,-160.22 230.574,-148.569 240.062,-139.081"/>
<polygon fill="midnightblue" stroke="midnightblue" points="242.796,-141.297 247.392,-131.751 237.846,-136.347 242.796,-141.297"/>
</g>
<!-- Node2&#45;&gt;Node5 -->
<g id="edge10" class="edge"><title>Node2&#45;&gt;Node5</title>
<path fill="none" stroke="midnightblue" d="M201.087,-168.213C199.124,-154.924 193.885,-129.421 181.143,-112 171.629,-98.9925 157.207,-88.2982 144.562,-80.6037"/>
<polygon fill="midnightblue" stroke="midnightblue" points="146.177,-77.4949 135.764,-75.5408 142.685,-83.5621 146.177,-77.4949"/>
</g>
<!-- Node11 -->
<g id="node11" class="node"><title>Node11</title>
<g id="a_node11"><a xlink:href="enums_8hpp.html" target="_top" xlink:title="enums.hpp">
<polygon fill="none" stroke="black" points="107.643,-112.5 107.643,-131.5 172.643,-131.5 172.643,-112.5 107.643,-112.5"/>
<text text-anchor="middle" x="140.143" y="-119.5" font-family="Helvetica,sans-Serif" font-size="10.00">enums.hpp</text>
</a>
</g>
</g>
<!-- Node2&#45;&gt;Node11 -->
<g id="edge11" class="edge"><title>Node2&#45;&gt;Node11</title>
<path fill="none" stroke="midnightblue" d="M192.181,-168.324C183.016,-160.341 169.206,-148.313 158.115,-138.653"/>
<polygon fill="midnightblue" stroke="midnightblue" points="160.125,-135.762 150.285,-131.834 155.528,-141.041 160.125,-135.762"/>
</g>
<!-- Node4 -->
<g id="node4" class="node"><title>Node4</title>
<polygon fill="none" stroke="#bfbfbf" points="165.643,-56.5 165.643,-75.5 206.643,-75.5 206.643,-56.5 165.643,-56.5"/>
<text text-anchor="middle" x="186.143" y="-63.5" font-family="Helvetica,sans-Serif" font-size="10.00">regex</text>
</g>
<!-- Node3&#45;&gt;Node4 -->
<g id="edge3" class="edge"><title>Node3&#45;&gt;Node4</title>
<path fill="none" stroke="midnightblue" d="M244.896,-112.324C234.345,-104.185 218.342,-91.8395 205.701,-82.0874"/>
<polygon fill="midnightblue" stroke="midnightblue" points="207.65,-79.1707 197.594,-75.8339 203.374,-84.7132 207.65,-79.1707"/>
</g>
<!-- Node3&#45;&gt;Node5 -->
<g id="edge4" class="edge"><title>Node3&#45;&gt;Node5</title>
<path fill="none" stroke="midnightblue" d="M234.276,-112.444C211.363,-103.478 175.168,-89.314 149.276,-79.1827"/>
<polygon fill="midnightblue" stroke="midnightblue" points="150.495,-75.9011 139.907,-75.5164 147.944,-82.4198 150.495,-75.9011"/>
</g>
<!-- Node3&#45;&gt;Node9 -->
<g id="edge8" class="edge"><title>Node3&#45;&gt;Node9</title>
<path fill="none" stroke="midnightblue" d="M255.647,-112.083C255.254,-105.006 254.691,-94.8611 254.198,-85.9865"/>
<polygon fill="midnightblue" stroke="midnightblue" points="257.678,-85.5415 253.629,-75.7511 250.689,-85.9299 257.678,-85.5415"/>
</g>
<!-- Node3&#45;&gt;Node10 -->
<g id="edge9" class="edge"><title>Node3&#45;&gt;Node10</title>
<path fill="none" stroke="midnightblue" d="M268.032,-112.324C279.293,-104.107 296.429,-91.6017 309.852,-81.8069"/>
<polygon fill="midnightblue" stroke="midnightblue" points="312.022,-84.5559 318.037,-75.8339 307.896,-78.9014 312.022,-84.5559"/>
</g>
<!-- Node6 -->
<g id="node6" class="node"><title>Node6</title>
<polygon fill="none" stroke="#bfbfbf" points="130.643,-0.5 130.643,-19.5 171.643,-19.5 171.643,-0.5 130.643,-0.5"/>
<text text-anchor="middle" x="151.143" y="-7.5" font-family="Helvetica,sans-Serif" font-size="10.00">string</text>
</g>
<!-- Node5&#45;&gt;Node6 -->
<g id="edge5" class="edge"><title>Node5&#45;&gt;Node6</title>
<path fill="none" stroke="midnightblue" d="M123.592,-56.083C128.157,-48.6127 134.811,-37.7244 140.436,-28.5199"/>
<polygon fill="midnightblue" stroke="midnightblue" points="143.567,-30.109 145.795,-19.7511 137.594,-26.4588 143.567,-30.109"/>
</g>
<!-- Node7 -->
<g id="node7" class="node"><title>Node7</title>
<polygon fill="none" stroke="#bfbfbf" points="58.1429,-0.5 58.1429,-19.5 112.143,-19.5 112.143,-0.5 58.1429,-0.5"/>
<text text-anchor="middle" x="85.1429" y="-7.5" font-family="Helvetica,sans-Serif" font-size="10.00">iostream</text>
</g>
<!-- Node5&#45;&gt;Node7 -->
<g id="edge6" class="edge"><title>Node5&#45;&gt;Node7</title>
<path fill="none" stroke="midnightblue" d="M112.694,-56.083C108.128,-48.6127 101.474,-37.7244 95.8494,-28.5199"/>
<polygon fill="midnightblue" stroke="midnightblue" points="98.6918,-26.4588 90.4907,-19.7511 92.7188,-30.109 98.6918,-26.4588"/>
</g>
<!-- Node5&#45;&gt;Node8 -->
<g id="edge7" class="edge"><title>Node5&#45;&gt;Node8</title>
<path fill="none" stroke="midnightblue" d="M146.981,-56.4435C179.955,-46.6602 233.786,-30.6884 268.059,-20.5194"/>
<polygon fill="midnightblue" stroke="midnightblue" points="269.432,-23.763 278.023,-17.5631 267.44,-17.0522 269.432,-23.763"/>
</g>
<!-- Node12&#45;&gt;Node5 -->
<g id="edge15" class="edge"><title>Node12&#45;&gt;Node5</title>
<path fill="none" stroke="midnightblue" d="M48.5015,-168.494C32.8551,-155.99 8.39555,-131.966 21.1429,-112 33.8203,-92.1435 57.7649,-80.9153 78.6909,-74.6405"/>
<polygon fill="midnightblue" stroke="midnightblue" points="79.6161,-78.0161 88.3492,-72.0174 77.7814,-71.2608 79.6161,-78.0161"/>
</g>
<!-- Node13 -->
<g id="node13" class="node"><title>Node13</title>
<polygon fill="none" stroke="#bfbfbf" points="30.6429,-112.5 30.6429,-131.5 89.6429,-131.5 89.6429,-112.5 30.6429,-112.5"/>
<text text-anchor="middle" x="60.1429" y="-119.5" font-family="Helvetica,sans-Serif" font-size="10.00">stdexcept</text>
</g>
<!-- Node12&#45;&gt;Node13 -->
<g id="edge14" class="edge"><title>Node12&#45;&gt;Node13</title>
<path fill="none" stroke="midnightblue" d="M60.1429,-168.083C60.1429,-161.006 60.1429,-150.861 60.1429,-141.986"/>
<polygon fill="midnightblue" stroke="midnightblue" points="63.643,-141.751 60.1429,-131.751 56.643,-141.751 63.643,-141.751"/>
</g>
</g>
</svg>
        <g id="navigator" transform="translate(0 0)" fill="#404254">
                <rect fill="#f2f5e9" fill-opacity="0.5" stroke="#606060" stroke-width=".5" x="0" y="0" width="60" height="60"/>
                <use id="zoomplus" xlink:href="#zoomPlus" x="17" y="9" onmousedown="handleZoom(evt,'in')"/>
                <use id="zoomminus" xlink:href="#zoomMin" x="42" y="9" onmousedown="handleZoom(evt,'out')"/>
                <use id="reset" xlink:href="#resetDef" x="30" y="36" onmousedown="handleReset()"/>
                <g id="arrowUp" xlink:href="#dirArrow" transform="translate(30 24)" onmousedown="handlePan(0,-1)">
                  <use xlink:href="#rim" fill="#404040">
                        <set attributeName="fill" to="#808080" begin="arrowUp.mouseover" end="arrowUp.mouseout"/>
                  </use>
                  <path fill="none" stroke="white" stroke-width="1.5" d="M0,-3.0v7 M-2.5,-0.5L0,-3.0L2.5,-0.5"/>
                </g>
                <g id="arrowRight" xlink:href="#dirArrow" transform="rotate(90) translate(36 -43)" onmousedown="handlePan(1,0)">
                  <use xlink:href="#rim" fill="#404040">
                        <set attributeName="fill" to="#808080" begin="arrowRight.mouseover" end="arrowRight.mouseout"/>
                  </use>
                  <path fill="none" stroke="white" stroke-width="1.5" d="M0,-3.0v7 M-2.5,-0.5L0,-3.0L2.5,-0.5"/>
                </g>
                <g id="arrowDown" xlink:href="#dirArrow" transform="rotate(180) translate(-30 -48)" onmousedown="handlePan(0,1)">
                  <use xlink:href="#rim" fill="#404040">
                        <set attributeName="fill" to="#808080" begin="arrowDown.mouseover" end="arrowDown.mouseout"/>
                  </use>
                  <path fill="none" stroke="white" stroke-width="1.5" d="M0,-3.0v7 M-2.5,-0.5L0,-3.0L2.5,-0.5"/>
                </g>
                <g id="arrowLeft" xlink:href="#dirArrow" transform="rotate(270) translate(-36 17)" onmousedown="handlePan(-1,0)">
                  <use xlink:href="#rim" fill="#404040">
                        <set attributeName="fill" to="#808080" begin="arrowLeft.mouseover" end="arrowLeft.mouseout"/>
                  </use>
                  <path fill="none" stroke="white" stroke-width="1.5" d="M0,-3.0v7 M-2.5,-0.5L0,-3.0L2.5,-0.5"/>
                </g>
        </g>
        <svg viewBox="0 0 15 15" width="100%" height="30px" preserveAspectRatio="xMaxYMin meet">
         <g id="arrow_out" transform="scale(0.3 0.3)">
          <a xlink:href="group__iface_8hpp__incl_org.svg" target="_base">
           <rect id="button" ry="5" rx="5" y="6" x="6" height="38" width="38"
                fill="#f2f5e9" fill-opacity="0.5" stroke="#606060" stroke-width="1.0"/>
           <path id="arrow"
             d="M 11.500037,31.436501 C 11.940474,20.09759 22.043105,11.32322 32.158766,21.979434 L 37.068811,17.246167 C 37.068811,17.246167 37.088388,32 37.088388,32 L 22.160133,31.978069 C 22.160133,31.978069 26.997745,27.140456 26.997745,27.140456 C 18.528582,18.264221 13.291696,25.230495 11.500037,31.436501 z"
             style="fill:#404040;"/>
          </a>
         </g>
        </svg>
</svg>
