<?xml version="1.0" encoding="UTF-8" standalone="no"?>
<!DOCTYPE svg PUBLIC "-//W3C//DTD SVG 1.1//EN"
 "http://www.w3.org/Graphics/SVG/1.1/DTD/svg11.dtd">
<!-- Generated by graphviz version 2.40.1 (20161225.0304)
 -->
<!-- Title: group_iface.hpp Pages: 1 -->
<svg width="256pt" height="252pt"
 viewBox="0.00 0.00 255.50 252.00" xmlns="http://www.w3.org/2000/svg" xmlns:xlink="http://www.w3.org/1999/xlink">
<g id="graph0" class="graph" transform="scale(1 1) rotate(0) translate(4 248)">
<title>group_iface.hpp</title>
<!-- Node15 -->
<g id="node1" class="node">
<title>Node15</title>
<polygon fill="#bfbfbf" stroke="#000000" points="98.5,-224.5 98.5,-243.5 184.5,-243.5 184.5,-224.5 98.5,-224.5"/>
<text text-anchor="middle" x="141.5" y="-231.5" font-family="Helvetica,sans-Serif" font-size="10.00" fill="#000000">group_iface.hpp</text>
</g>
<!-- Node16 -->
<g id="node2" class="node">
<title>Node16</title>
<g id="a_node2"><a xlink:href="groups_8hpp.html" target="_top" xlink:title="groups.hpp">
<polygon fill="none" stroke="#000000" points="48,-168.5 48,-187.5 113,-187.5 113,-168.5 48,-168.5"/>
<text text-anchor="middle" x="80.5" y="-175.5" font-family="Helvetica,sans-Serif" font-size="10.00" fill="#000000">groups.hpp</text>
</a>
</g>
</g>
<!-- Node15&#45;&gt;Node16 -->
<g id="edge1" class="edge">
<title>Node15&#45;&gt;Node16</title>
<path fill="none" stroke="#191970" d="M123.3751,-217.3607C112.822,-207.6727 99.8888,-195.7995 91.0036,-187.6427"/>
<polygon fill="#191970" stroke="#191970" points="121.1411,-220.0611 130.8746,-224.2455 125.875,-214.9045 121.1411,-220.0611"/>
</g>
<!-- Node21 -->
<g id="node7" class="node">
<title>Node21</title>
<g id="a_node7"><a xlink:href="help__printer_8hpp.html" target="_top" xlink:title="help_printer.hpp">
<polygon fill="none" stroke="#000000" points="98.5,-112.5 98.5,-131.5 184.5,-131.5 184.5,-112.5 98.5,-112.5"/>
<text text-anchor="middle" x="141.5" y="-119.5" font-family="Helvetica,sans-Serif" font-size="10.00" fill="#000000">help_printer.hpp</text>
</a>
</g>
</g>
<!-- Node15&#45;&gt;Node21 -->
<g id="edge12" class="edge">
<title>Node15&#45;&gt;Node21</title>
<path fill="none" stroke="#191970" d="M141.5,-214.2702C141.5,-189.9985 141.5,-149.7725 141.5,-131.5249"/>
<polygon fill="#191970" stroke="#191970" points="138.0001,-214.4509 141.5,-224.4509 145.0001,-214.451 138.0001,-214.4509"/>
</g>
<!-- Node22 -->
<g id="node8" class="node">
<title>Node22</title>
<g id="a_node8"><a xlink:href="command_8hpp.html" target="_top" xlink:title="command.hpp">
<polygon fill="none" stroke="#000000" points="169.5,-168.5 169.5,-187.5 247.5,-187.5 247.5,-168.5 169.5,-168.5"/>
<text text-anchor="middle" x="208.5" y="-175.5" font-family="Helvetica,sans-Serif" font-size="10.00" fill="#000000">command.hpp</text>
</a>
</g>
</g>
<!-- Node15&#45;&gt;Node22 -->
<g id="edge9" class="edge">
<title>Node15&#45;&gt;Node22</title>
<path fill="none" stroke="#191970" d="M161.0676,-217.645C172.7198,-207.9058 187.1084,-195.8795 196.9632,-187.6427"/>
<polygon fill="#191970" stroke="#191970" points="158.5988,-215.1469 153.1705,-224.2455 163.0879,-220.5179 158.5988,-215.1469"/>
</g>
<!-- Node17 -->
<g id="node3" class="node">
<title>Node17</title>
<g id="a_node3"><a xlink:href="api_8hpp.html" target="_top" xlink:title="api.hpp">
<polygon fill="none" stroke="#000000" points="32.5,-112.5 32.5,-131.5 80.5,-131.5 80.5,-112.5 32.5,-112.5"/>
<text text-anchor="middle" x="56.5" y="-119.5" font-family="Helvetica,sans-Serif" font-size="10.00" fill="#000000">api.hpp</text>
</a>
</g>
</g>
<!-- Node16&#45;&gt;Node17 -->
<g id="edge2" class="edge">
<title>Node16&#45;&gt;Node17</title>
<path fill="none" stroke="#191970" d="M72.3759,-159.0437C68.4285,-149.8331 63.8542,-139.1598 60.6326,-131.6427"/>
<polygon fill="#191970" stroke="#191970" points="69.1633,-160.4328 76.3195,-168.2455 75.5973,-157.6753 69.1633,-160.4328"/>
</g>
<!-- Node16&#45;&gt;Node21 -->
<g id="edge7" class="edge">
<title>Node16&#45;&gt;Node21</title>
<path fill="none" stroke="#191970" d="M98.6249,-161.3607C109.178,-151.6727 122.1112,-139.7995 130.9964,-131.6427"/>
<polygon fill="#191970" stroke="#191970" points="96.125,-158.9045 91.1254,-168.2455 100.8589,-164.0611 96.125,-158.9045"/>
</g>
<!-- Node18 -->
<g id="node4" class="node">
<title>Node18</title>
<g id="a_node4"><a xlink:href="cmd__line_8hpp.html" target="_top" xlink:title="cmd_line.hpp">
<polygon fill="none" stroke="#000000" points="104.5,-56.5 104.5,-75.5 178.5,-75.5 178.5,-56.5 104.5,-56.5"/>
<text text-anchor="middle" x="141.5" y="-63.5" font-family="Helvetica,sans-Serif" font-size="10.00" fill="#000000">cmd_line.hpp</text>
</a>
</g>
</g>
<!-- Node17&#45;&gt;Node18 -->
<g id="edge3" class="edge">
<title>Node17&#45;&gt;Node18</title>
<path fill="none" stroke="#191970" d="M80.0419,-106.49C95.039,-96.6096 113.9973,-84.1194 126.8638,-75.6427"/>
<polygon fill="#191970" stroke="#191970" points="77.7309,-103.8212 71.3059,-112.2455 81.5821,-109.6666 77.7309,-103.8212"/>
</g>
<!-- Node19 -->
<g id="node5" class="node">
<title>Node19</title>
<g id="a_node5"><a xlink:href="all_8hpp.html" target="_top" xlink:title="all.hpp">
<polygon fill="none" stroke="#000000" points="131,-.5 131,-19.5 176,-19.5 176,-.5 131,-.5"/>
<text text-anchor="middle" x="153.5" y="-7.5" font-family="Helvetica,sans-Serif" font-size="10.00" fill="#000000">all.hpp</text>
</a>
</g>
</g>
<!-- Node18&#45;&gt;Node19 -->
<g id="edge4" class="edge">
<title>Node18&#45;&gt;Node19</title>
<path fill="none" stroke="#191970" d="M145.6885,-46.4538C147.6328,-37.3803 149.8572,-26.9998 151.4337,-19.6427"/>
<polygon fill="#191970" stroke="#191970" points="142.2633,-45.7341 143.5902,-56.2455 149.1079,-47.2009 142.2633,-45.7341"/>
</g>
<!-- Node20 -->
<g id="node6" class="node">
<title>Node20</title>
<g id="a_node6"><a xlink:href="arg__as__command_8hpp.html" target="_top" xlink:title="arg_as_command.hpp">
<polygon fill="none" stroke="#000000" points="0,-.5 0,-19.5 113,-19.5 113,-.5 0,-.5"/>
<text text-anchor="middle" x="56.5" y="-7.5" font-family="Helvetica,sans-Serif" font-size="10.00" fill="#000000">arg_as_command.hpp</text>
</a>
</g>
</g>
<!-- Node18&#45;&gt;Node20 -->
<g id="edge5" class="edge">
<title>Node18&#45;&gt;Node20</title>
<path fill="none" stroke="#191970" d="M117.9581,-50.49C102.961,-40.6096 84.0027,-28.1194 71.1362,-19.6427"/>
<polygon fill="#191970" stroke="#191970" points="116.4179,-53.6666 126.6941,-56.2455 120.2691,-47.8212 116.4179,-53.6666"/>
</g>
<!-- Node20&#45;&gt;Node17 -->
<g id="edge6" class="edge">
<title>Node20&#45;&gt;Node17</title>
<path fill="none" stroke="#191970" d="M56.5,-29.6976C56.5,-53.9553 56.5,-94.184 56.5,-112.4509"/>
<polygon fill="#191970" stroke="#191970" points="60.0001,-29.5249 56.5,-19.5249 53.0001,-29.5249 60.0001,-29.5249"/>
</g>
<!-- Node21&#45;&gt;Node18 -->
<g id="edge8" class="edge">
<title>Node21&#45;&gt;Node18</title>
<path fill="none" stroke="#191970" d="M141.5,-102.1575C141.5,-93.155 141.5,-82.9199 141.5,-75.6427"/>
<polygon fill="#191970" stroke="#191970" points="138.0001,-102.2455 141.5,-112.2455 145.0001,-102.2456 138.0001,-102.2455"/>
</g>
<!-- Node22&#45;&gt;Node18 -->
<g id="edge10" class="edge">
<title>Node22&#45;&gt;Node18</title>
<path fill="none" stroke="#191970" d="M207.1849,-158.0667C205.5374,-144.3176 201.8313,-126.0572 193.5,-112 184.5278,-96.8614 168.8762,-84.0285 157.0822,-75.7953"/>
<polygon fill="#191970" stroke="#191970" points="203.7314,-158.7301 208.141,-168.3636 210.7014,-158.0829 203.7314,-158.7301"/>
</g>
<!-- Node22&#45;&gt;Node21 -->
<g id="edge11" class="edge">
<title>Node22&#45;&gt;Node21</title>
<path fill="none" stroke="#191970" d="M188.9324,-161.645C177.2802,-151.9058 162.8916,-139.8795 153.0368,-131.6427"/>
<polygon fill="#191970" stroke="#191970" points="186.9121,-164.5179 196.8295,-168.2455 191.4012,-159.1469 186.9121,-164.5179"/>
</g>
</g>
</svg>
