<?xml version="1.0" encoding="UTF-8" standalone="no"?>
<!DOCTYPE svg PUBLIC "-//W3C//DTD SVG 1.1//EN"
 "http://www.w3.org/Graphics/SVG/1.1/DTD/svg11.dtd">
<!-- Generated by graphviz version 2.38.0 (20140413.2041)
 -->
<!-- Title: group_iface.hpp Pages: 1 -->
<svg width="253pt" height="252pt"
 viewBox="0.00 0.00 253.00 252.00" xmlns="http://www.w3.org/2000/svg" xmlns:xlink="http://www.w3.org/1999/xlink">
<g id="graph0" class="graph" transform="scale(1 1) rotate(0) translate(4 248)">
<title>group_iface.hpp</title>
<!-- Node1 -->
<g id="node1" class="node"><title>Node1</title>
<polygon fill="#bfbfbf" stroke="black" points="97,-224.5 97,-243.5 182,-243.5 182,-224.5 97,-224.5"/>
<text text-anchor="middle" x="139.5" y="-231.5" font-family="FreeSans" font-size="10.00">group_iface.hpp</text>
</g>
<!-- Node2 -->
<g id="node2" class="node"><title>Node2</title>
<g id="a_node2"><a xlink:href="groups_8hpp.html" target="_top" xlink:title="groups.hpp">
<polygon fill="none" stroke="black" points="48,-168.5 48,-187.5 111,-187.5 111,-168.5 48,-168.5"/>
<text text-anchor="middle" x="79.5" y="-175.5" font-family="FreeSans" font-size="10.00">groups.hpp</text>
</a>
</g>
</g>
<!-- Node1&#45;&gt;Node2 -->
<g id="edge1" class="edge"><title>Node1&#45;&gt;Node2</title>
<path fill="none" stroke="midnightblue" d="M122.319,-217.537C111.621,-207.909 98.2437,-195.869 89.3154,-187.834"/>
<polygon fill="midnightblue" stroke="midnightblue" points="120.086,-220.236 129.86,-224.324 124.768,-215.033 120.086,-220.236"/>
</g>
<!-- Node7 -->
<g id="node7" class="node"><title>Node7</title>
<g id="a_node7"><a xlink:href="help__printer_8hpp.html" target="_top" xlink:title="help_printer.hpp">
<polygon fill="none" stroke="black" points="97,-112.5 97,-131.5 182,-131.5 182,-112.5 97,-112.5"/>
<text text-anchor="middle" x="139.5" y="-119.5" font-family="FreeSans" font-size="10.00">help_printer.hpp</text>
</a>
</g>
</g>
<!-- Node1&#45;&gt;Node7 -->
<g id="edge12" class="edge"><title>Node1&#45;&gt;Node7</title>
<path fill="none" stroke="midnightblue" d="M139.5,-214.348C139.5,-190.254 139.5,-149.308 139.5,-131.591"/>
<polygon fill="midnightblue" stroke="midnightblue" points="136,-214.368 139.5,-224.368 143,-214.369 136,-214.368"/>
</g>
<!-- Node8 -->
<g id="node8" class="node"><title>Node8</title>
<g id="a_node8"><a xlink:href="command_8hpp.html" target="_top" xlink:title="command.hpp">
<polygon fill="none" stroke="black" points="168,-168.5 168,-187.5 245,-187.5 245,-168.5 168,-168.5"/>
<text text-anchor="middle" x="206.5" y="-175.5" font-family="FreeSans" font-size="10.00">command.hpp</text>
</a>
</g>
</g>
<!-- Node1&#45;&gt;Node8 -->
<g id="edge9" class="edge"><title>Node1&#45;&gt;Node8</title>
<path fill="none" stroke="midnightblue" d="M158.335,-217.82C170.338,-208.145 185.472,-195.948 195.539,-187.834"/>
<polygon fill="midnightblue" stroke="midnightblue" points="155.854,-215.324 150.265,-224.324 160.247,-220.774 155.854,-215.324"/>
</g>
<!-- Node3 -->
<g id="node3" class="node"><title>Node3</title>
<g id="a_node3"><a xlink:href="api_8hpp.html" target="_top" xlink:title="api.hpp">
<polygon fill="none" stroke="black" points="32,-112.5 32,-131.5 79,-131.5 79,-112.5 32,-112.5"/>
<text text-anchor="middle" x="55.5" y="-119.5" font-family="FreeSans" font-size="10.00">api.hpp</text>
</a>
</g>
</g>
<!-- Node2&#45;&gt;Node3 -->
<g id="edge2" class="edge"><title>Node2&#45;&gt;Node3</title>
<path fill="none" stroke="midnightblue" d="M71.3621,-158.69C67.3174,-149.589 62.6174,-139.014 59.3894,-131.751"/>
<polygon fill="midnightblue" stroke="midnightblue" points="68.2771,-160.366 75.5369,-168.083 74.6738,-157.523 68.2771,-160.366"/>
</g>
<!-- Node2&#45;&gt;Node7 -->
<g id="edge7" class="edge"><title>Node2&#45;&gt;Node7</title>
<path fill="none" stroke="midnightblue" d="M96.6809,-161.537C107.379,-151.909 120.756,-139.869 129.685,-131.834"/>
<polygon fill="midnightblue" stroke="midnightblue" points="94.2316,-159.033 89.14,-168.324 98.9144,-164.236 94.2316,-159.033"/>
</g>
<!-- Node4 -->
<g id="node4" class="node"><title>Node4</title>
<g id="a_node4"><a xlink:href="cmd__line_8hpp.html" target="_top" xlink:title="cmd_line.hpp">
<polygon fill="none" stroke="black" points="102.5,-56.5 102.5,-75.5 176.5,-75.5 176.5,-56.5 102.5,-56.5"/>
<text text-anchor="middle" x="139.5" y="-63.5" font-family="FreeSans" font-size="10.00">cmd_line.hpp</text>
</a>
</g>
</g>
<!-- Node3&#45;&gt;Node4 -->
<g id="edge3" class="edge"><title>Node3&#45;&gt;Node4</title>
<path fill="none" stroke="midnightblue" d="M77.4325,-106.901C92.8355,-96.9986 112.946,-84.0705 126.037,-75.6545"/>
<polygon fill="midnightblue" stroke="midnightblue" points="75.5152,-103.972 68.9961,-112.324 79.3005,-109.86 75.5152,-103.972"/>
</g>
<!-- Node5 -->
<g id="node5" class="node"><title>Node5</title>
<g id="a_node5"><a xlink:href="all_8hpp.html" target="_top" xlink:title="all.hpp">
<polygon fill="none" stroke="black" points="128.5,-0.5 128.5,-19.5 172.5,-19.5 172.5,-0.5 128.5,-0.5"/>
<text text-anchor="middle" x="150.5" y="-7.5" font-family="FreeSans" font-size="10.00">all.hpp</text>
</a>
</g>
</g>
<!-- Node4&#45;&gt;Node5 -->
<g id="edge4" class="edge"><title>Node4&#45;&gt;Node5</title>
<path fill="none" stroke="midnightblue" d="M143.35,-46.1005C145.176,-37.1357 147.27,-26.8579 148.717,-19.7511"/>
<polygon fill="midnightblue" stroke="midnightblue" points="139.883,-45.5856 141.316,-56.083 146.742,-46.9829 139.883,-45.5856"/>
</g>
<!-- Node6 -->
<g id="node6" class="node"><title>Node6</title>
<g id="a_node6"><a xlink:href="arg__as__command_8hpp.html" target="_top" xlink:title="arg_as_command.hpp">
<polygon fill="none" stroke="black" points="0,-0.5 0,-19.5 111,-19.5 111,-0.5 0,-0.5"/>
<text text-anchor="middle" x="55.5" y="-7.5" font-family="FreeSans" font-size="10.00">arg_as_command.hpp</text>
</a>
</g>
</g>
<!-- Node4&#45;&gt;Node6 -->
<g id="edge5" class="edge"><title>Node4&#45;&gt;Node6</title>
<path fill="none" stroke="midnightblue" d="M117.568,-50.9005C102.165,-40.9986 82.0542,-28.0705 68.9626,-19.6545"/>
<polygon fill="midnightblue" stroke="midnightblue" points="115.699,-53.8605 126.004,-56.324 119.485,-47.9722 115.699,-53.8605"/>
</g>
<!-- Node6&#45;&gt;Node3 -->
<g id="edge6" class="edge"><title>Node6&#45;&gt;Node3</title>
<path fill="none" stroke="midnightblue" d="M55.5,-29.5974C55.5,-53.6664 55.5,-94.617 55.5,-112.368"/>
<polygon fill="midnightblue" stroke="midnightblue" points="59.0001,-29.5914 55.5,-19.5914 52.0001,-29.5915 59.0001,-29.5914"/>
</g>
<!-- Node7&#45;&gt;Node4 -->
<g id="edge8" class="edge"><title>Node7&#45;&gt;Node4</title>
<path fill="none" stroke="midnightblue" d="M139.5,-101.805C139.5,-92.9102 139.5,-82.7798 139.5,-75.7511"/>
<polygon fill="midnightblue" stroke="midnightblue" points="136,-102.083 139.5,-112.083 143,-102.083 136,-102.083"/>
</g>
<!-- Node8&#45;&gt;Node4 -->
<g id="edge10" class="edge"><title>Node8&#45;&gt;Node4</title>
<path fill="none" stroke="midnightblue" d="M204.901,-158.262C203.048,-144.619 199.061,-126.134 190.5,-112 181.202,-96.648 164.966,-83.6623 153.308,-75.645"/>
<polygon fill="midnightblue" stroke="midnightblue" points="201.441,-158.822 206.009,-168.381 208.399,-158.06 201.441,-158.822"/>
</g>
<!-- Node8&#45;&gt;Node7 -->
<g id="edge11" class="edge"><title>Node8&#45;&gt;Node7</title>
<path fill="none" stroke="midnightblue" d="M187.665,-161.82C175.662,-152.145 160.528,-139.948 150.461,-131.834"/>
<polygon fill="midnightblue" stroke="midnightblue" points="185.753,-164.774 195.735,-168.324 190.146,-159.324 185.753,-164.774"/>
</g>
</g>
</svg>
