<?xml version="1.0" encoding="UTF-8" standalone="no"?>
<!DOCTYPE svg PUBLIC "-//W3C//DTD SVG 1.1//EN"
 "http://www.w3.org/Graphics/SVG/1.1/DTD/svg11.dtd">
<!-- Generated by graphviz version 2.38.0 (20140413.2041)
 -->
<!-- Title: groups.hpp Pages: 1 -->
<svg width="498pt" height="308pt"
 viewBox="0.00 0.00 497.62 308.00" xmlns="http://www.w3.org/2000/svg" xmlns:xlink="http://www.w3.org/1999/xlink">
<g id="graph0" class="graph" transform="scale(1 1) rotate(0) translate(4 304)">
<title>groups.hpp</title>
<!-- Node1 -->
<g id="node1" class="node"><title>Node1</title>
<polygon fill="#bfbfbf" stroke="black" points="233.241,-280.5 233.241,-299.5 298.241,-299.5 298.241,-280.5 233.241,-280.5"/>
<text text-anchor="middle" x="265.741" y="-287.5" font-family="Helvetica,sans-Serif" font-size="10.00">groups.hpp</text>
</g>
<!-- Node2 -->
<g id="node2" class="node"><title>Node2</title>
<g id="a_node2"><a xlink:href="group__iface_8hpp.html" target="_top" xlink:title="group_iface.hpp">
<polygon fill="none" stroke="black" points="222.741,-224.5 222.741,-243.5 308.741,-243.5 308.741,-224.5 222.741,-224.5"/>
<text text-anchor="middle" x="265.741" y="-231.5" font-family="Helvetica,sans-Serif" font-size="10.00">group_iface.hpp</text>
</a>
</g>
</g>
<!-- Node1&#45;&gt;Node2 -->
<g id="edge1" class="edge"><title>Node1&#45;&gt;Node2</title>
<path fill="none" stroke="midnightblue" d="M265.741,-280.083C265.741,-273.006 265.741,-262.861 265.741,-253.986"/>
<polygon fill="midnightblue" stroke="midnightblue" points="269.241,-253.751 265.741,-243.751 262.241,-253.751 269.241,-253.751"/>
</g>
<!-- Node6 -->
<g id="node6" class="node"><title>Node6</title>
<g id="a_node6"><a xlink:href="types_8hpp.html" target="_top" xlink:title="types.hpp">
<polygon fill="none" stroke="black" points="101.241,-56.5 101.241,-75.5 160.241,-75.5 160.241,-56.5 101.241,-56.5"/>
<text text-anchor="middle" x="130.741" y="-63.5" font-family="Helvetica,sans-Serif" font-size="10.00">types.hpp</text>
</a>
</g>
</g>
<!-- Node1&#45;&gt;Node6 -->
<g id="edge23" class="edge"><title>Node1&#45;&gt;Node6</title>
<path fill="none" stroke="midnightblue" d="M233.048,-287.506C175.419,-282.9 56.9258,-264.15 4.74094,-188 -8.77632,-168.275 9.70555,-126.176 22.7409,-112 40.7058,-92.463 68.4675,-81.1465 91.3452,-74.7485"/>
<polygon fill="midnightblue" stroke="midnightblue" points="92.3262,-78.1101 101.133,-72.2206 90.5757,-71.3325 92.3262,-78.1101"/>
</g>
<!-- Node10 -->
<g id="node10" class="node"><title>Node10</title>
<polygon fill="none" stroke="#bfbfbf" points="421.741,-56.5 421.741,-75.5 477.741,-75.5 477.741,-56.5 421.741,-56.5"/>
<text text-anchor="middle" x="449.741" y="-63.5" font-family="Helvetica,sans-Serif" font-size="10.00">algorithm</text>
</g>
<!-- Node1&#45;&gt;Node10 -->
<g id="edge24" class="edge"><title>Node1&#45;&gt;Node10</title>
<path fill="none" stroke="midnightblue" d="M284.41,-280.496C315.648,-265.52 379.075,-231.831 419.741,-188 439.089,-167.145 443.626,-159.544 450.741,-132 452.964,-123.394 450.84,-120.888 450.741,-112 450.645,-103.396 450.447,-93.8686 450.252,-85.8037"/>
<polygon fill="midnightblue" stroke="midnightblue" points="453.746,-85.5323 449.99,-75.6259 446.749,-85.7128 453.746,-85.5323"/>
</g>
<!-- Node3 -->
<g id="node3" class="node"><title>Node3</title>
<g id="a_node3"><a xlink:href="arg__iface_8hpp.html" target="_top" xlink:title="arg_iface.hpp">
<polygon fill="none" stroke="black" points="294.241,-168.5 294.241,-187.5 369.241,-187.5 369.241,-168.5 294.241,-168.5"/>
<text text-anchor="middle" x="331.741" y="-175.5" font-family="Helvetica,sans-Serif" font-size="10.00">arg_iface.hpp</text>
</a>
</g>
</g>
<!-- Node2&#45;&gt;Node3 -->
<g id="edge2" class="edge"><title>Node2&#45;&gt;Node3</title>
<path fill="none" stroke="midnightblue" d="M276.345,-224.324C286.197,-216.263 301.092,-204.077 312.956,-194.369"/>
<polygon fill="midnightblue" stroke="midnightblue" points="315.421,-196.875 320.944,-187.834 310.988,-191.457 315.421,-196.875"/>
</g>
<!-- Node4 -->
<g id="node4" class="node"><title>Node4</title>
<g id="a_node4"><a xlink:href="utils_8hpp.html" target="_top" xlink:title="utils.hpp">
<polygon fill="none" stroke="black" points="362.241,-112.5 362.241,-131.5 415.241,-131.5 415.241,-112.5 362.241,-112.5"/>
<text text-anchor="middle" x="388.741" y="-119.5" font-family="Helvetica,sans-Serif" font-size="10.00">utils.hpp</text>
</a>
</g>
</g>
<!-- Node2&#45;&gt;Node4 -->
<g id="edge13" class="edge"><title>Node2&#45;&gt;Node4</title>
<path fill="none" stroke="midnightblue" d="M308.841,-226.236C332.694,-220.225 360.847,-208.969 377.741,-188 388.166,-175.06 390.304,-155.891 390.202,-141.72"/>
<polygon fill="midnightblue" stroke="midnightblue" points="393.695,-141.476 389.755,-131.641 386.702,-141.786 393.695,-141.476"/>
</g>
<!-- Node2&#45;&gt;Node6 -->
<g id="edge17" class="edge"><title>Node2&#45;&gt;Node6</title>
<path fill="none" stroke="midnightblue" d="M222.57,-231.622C158.361,-228.561 42.4772,-218.804 16.7409,-188 -17.6526,-146.834 57.9857,-101.662 102.013,-80.0007"/>
<polygon fill="midnightblue" stroke="midnightblue" points="103.636,-83.1042 111.139,-75.6231 100.609,-76.7929 103.636,-83.1042"/>
</g>
<!-- Node9 -->
<g id="node9" class="node"><title>Node9</title>
<polygon fill="none" stroke="#bfbfbf" points="380.741,-0.5 380.741,-19.5 424.741,-19.5 424.741,-0.5 380.741,-0.5"/>
<text text-anchor="middle" x="402.741" y="-7.5" font-family="Helvetica,sans-Serif" font-size="10.00">vector</text>
</g>
<!-- Node2&#45;&gt;Node9 -->
<g id="edge18" class="edge"><title>Node2&#45;&gt;Node9</title>
<path fill="none" stroke="midnightblue" d="M308.783,-228.99C342,-224.008 387.564,-212.869 419.741,-188 465.636,-152.528 471.294,-131.91 486.741,-76 489.108,-67.4321 491.307,-63.6264 486.741,-56 475.503,-37.2302 453.462,-25.8445 434.777,-19.2225"/>
<polygon fill="midnightblue" stroke="midnightblue" points="435.702,-15.8433 425.11,-16.0986 433.55,-22.5041 435.702,-15.8433"/>
</g>
<!-- Node2&#45;&gt;Node10 -->
<g id="edge20" class="edge"><title>Node2&#45;&gt;Node10</title>
<path fill="none" stroke="midnightblue" d="M308.989,-226.922C336.844,-221.06 372.288,-209.717 396.741,-188 427.499,-160.683 441.175,-112.241 446.606,-85.6899"/>
<polygon fill="midnightblue" stroke="midnightblue" points="450.062,-86.2484 448.454,-75.7763 443.18,-84.9652 450.062,-86.2484"/>
</g>
<!-- Node11 -->
<g id="node11" class="node"><title>Node11</title>
<polygon fill="none" stroke="#bfbfbf" points="250.741,-56.5 250.741,-75.5 312.741,-75.5 312.741,-56.5 250.741,-56.5"/>
<text text-anchor="middle" x="281.741" y="-63.5" font-family="Helvetica,sans-Serif" font-size="10.00">type_traits</text>
</g>
<!-- Node2&#45;&gt;Node11 -->
<g id="edge19" class="edge"><title>Node2&#45;&gt;Node11</title>
<path fill="none" stroke="midnightblue" d="M265.36,-224.432C264.619,-204.551 263.56,-153.792 269.741,-112 271.058,-103.092 273.501,-93.4172 275.84,-85.3294"/>
<polygon fill="midnightblue" stroke="midnightblue" points="279.267,-86.0916 278.85,-75.5049 272.574,-84.0407 279.267,-86.0916"/>
</g>
<!-- Node13 -->
<g id="node13" class="node"><title>Node13</title>
<g id="a_node13"><a xlink:href="exceptions_8hpp.html" target="_top" xlink:title="exceptions.hpp">
<polygon fill="none" stroke="black" points="26.2409,-168.5 26.2409,-187.5 109.241,-187.5 109.241,-168.5 26.2409,-168.5"/>
<text text-anchor="middle" x="67.7409" y="-175.5" font-family="Helvetica,sans-Serif" font-size="10.00">exceptions.hpp</text>
</a>
</g>
</g>
<!-- Node2&#45;&gt;Node13 -->
<g id="edge14" class="edge"><title>Node2&#45;&gt;Node13</title>
<path fill="none" stroke="midnightblue" d="M234.367,-224.444C200.478,-215.201 146.338,-200.436 109.017,-190.257"/>
<polygon fill="midnightblue" stroke="midnightblue" points="109.536,-186.771 98.9678,-187.516 107.695,-193.524 109.536,-186.771"/>
</g>
<!-- Node15 -->
<g id="node15" class="node"><title>Node15</title>
<polygon fill="none" stroke="#bfbfbf" points="127.741,-168.5 127.741,-187.5 167.741,-187.5 167.741,-168.5 127.741,-168.5"/>
<text text-anchor="middle" x="147.741" y="-175.5" font-family="Helvetica,sans-Serif" font-size="10.00">utility</text>
</g>
<!-- Node2&#45;&gt;Node15 -->
<g id="edge21" class="edge"><title>Node2&#45;&gt;Node15</title>
<path fill="none" stroke="midnightblue" d="M247.043,-224.444C227.796,-215.636 197.588,-201.812 175.541,-191.722"/>
<polygon fill="midnightblue" stroke="midnightblue" points="176.9,-188.495 166.351,-187.516 173.988,-194.86 176.9,-188.495"/>
</g>
<!-- Node16 -->
<g id="node16" class="node"><title>Node16</title>
<polygon fill="none" stroke="#bfbfbf" points="185.741,-168.5 185.741,-187.5 237.741,-187.5 237.741,-168.5 185.741,-168.5"/>
<text text-anchor="middle" x="211.741" y="-175.5" font-family="Helvetica,sans-Serif" font-size="10.00">memory</text>
</g>
<!-- Node2&#45;&gt;Node16 -->
<g id="edge22" class="edge"><title>Node2&#45;&gt;Node16</title>
<path fill="none" stroke="midnightblue" d="M256.824,-224.083C248.96,-216.22 237.31,-204.569 227.822,-195.081"/>
<polygon fill="midnightblue" stroke="midnightblue" points="230.038,-192.347 220.492,-187.751 225.088,-197.297 230.038,-192.347"/>
</g>
<!-- Node3&#45;&gt;Node4 -->
<g id="edge3" class="edge"><title>Node3&#45;&gt;Node4</title>
<path fill="none" stroke="midnightblue" d="M340.899,-168.324C349.242,-160.42 361.773,-148.548 371.918,-138.938"/>
<polygon fill="midnightblue" stroke="midnightblue" points="374.564,-141.252 379.416,-131.834 369.75,-136.171 374.564,-141.252"/>
</g>
<!-- Node3&#45;&gt;Node6 -->
<g id="edge11" class="edge"><title>Node3&#45;&gt;Node6</title>
<path fill="none" stroke="midnightblue" d="M315.969,-168.368C281.11,-149.292 197.294,-103.422 155.419,-80.5054"/>
<polygon fill="midnightblue" stroke="midnightblue" points="156.892,-77.3219 146.44,-75.5914 153.532,-83.4625 156.892,-77.3219"/>
</g>
<!-- Node12 -->
<g id="node12" class="node"><title>Node12</title>
<g id="a_node12"><a xlink:href="enums_8hpp.html" target="_top" xlink:title="enums.hpp">
<polygon fill="none" stroke="black" points="279.241,-112.5 279.241,-131.5 344.241,-131.5 344.241,-112.5 279.241,-112.5"/>
<text text-anchor="middle" x="311.741" y="-119.5" font-family="Helvetica,sans-Serif" font-size="10.00">enums.hpp</text>
</a>
</g>
</g>
<!-- Node3&#45;&gt;Node12 -->
<g id="edge12" class="edge"><title>Node3&#45;&gt;Node12</title>
<path fill="none" stroke="midnightblue" d="M328.438,-168.083C325.759,-160.849 321.892,-150.409 318.555,-141.397"/>
<polygon fill="midnightblue" stroke="midnightblue" points="321.737,-139.913 314.982,-131.751 315.173,-142.344 321.737,-139.913"/>
</g>
<!-- Node5 -->
<g id="node5" class="node"><title>Node5</title>
<polygon fill="none" stroke="#bfbfbf" points="362.241,-56.5 362.241,-75.5 403.241,-75.5 403.241,-56.5 362.241,-56.5"/>
<text text-anchor="middle" x="382.741" y="-63.5" font-family="Helvetica,sans-Serif" font-size="10.00">regex</text>
</g>
<!-- Node4&#45;&gt;Node5 -->
<g id="edge4" class="edge"><title>Node4&#45;&gt;Node5</title>
<path fill="none" stroke="midnightblue" d="M387.75,-112.083C386.955,-104.927 385.812,-94.6353 384.818,-85.6911"/>
<polygon fill="midnightblue" stroke="midnightblue" points="388.296,-85.3034 383.713,-75.7511 381.339,-86.0765 388.296,-85.3034"/>
</g>
<!-- Node4&#45;&gt;Node6 -->
<g id="edge5" class="edge"><title>Node4&#45;&gt;Node6</title>
<path fill="none" stroke="midnightblue" d="M362.037,-114.182C358.908,-113.425 355.757,-112.682 352.741,-112 289.045,-97.59 214.57,-82.9393 170.103,-74.4239"/>
<polygon fill="midnightblue" stroke="midnightblue" points="170.756,-70.9855 160.277,-72.5487 169.444,-77.8614 170.756,-70.9855"/>
</g>
<!-- Node4&#45;&gt;Node10 -->
<g id="edge9" class="edge"><title>Node4&#45;&gt;Node10</title>
<path fill="none" stroke="midnightblue" d="M398.542,-112.324C407.559,-104.341 421.147,-92.3128 432.059,-82.6529"/>
<polygon fill="midnightblue" stroke="midnightblue" points="434.594,-85.083 439.762,-75.8339 429.954,-79.8416 434.594,-85.083"/>
</g>
<!-- Node4&#45;&gt;Node11 -->
<g id="edge10" class="edge"><title>Node4&#45;&gt;Node11</title>
<path fill="none" stroke="midnightblue" d="M371.55,-112.324C354.39,-103.664 327.795,-90.2424 307.994,-80.249"/>
<polygon fill="midnightblue" stroke="midnightblue" points="309.394,-77.0354 298.89,-75.6545 306.24,-83.2847 309.394,-77.0354"/>
</g>
<!-- Node7 -->
<g id="node7" class="node"><title>Node7</title>
<polygon fill="none" stroke="#bfbfbf" points="77.2409,-0.5 77.2409,-19.5 118.241,-19.5 118.241,-0.5 77.2409,-0.5"/>
<text text-anchor="middle" x="97.7409" y="-7.5" font-family="Helvetica,sans-Serif" font-size="10.00">string</text>
</g>
<!-- Node6&#45;&gt;Node7 -->
<g id="edge6" class="edge"><title>Node6&#45;&gt;Node7</title>
<path fill="none" stroke="midnightblue" d="M125.292,-56.083C120.726,-48.6127 114.073,-37.7244 108.448,-28.5199"/>
<polygon fill="midnightblue" stroke="midnightblue" points="111.29,-26.4588 103.089,-19.7511 105.317,-30.109 111.29,-26.4588"/>
</g>
<!-- Node8 -->
<g id="node8" class="node"><title>Node8</title>
<polygon fill="none" stroke="#bfbfbf" points="136.741,-0.5 136.741,-19.5 190.741,-19.5 190.741,-0.5 136.741,-0.5"/>
<text text-anchor="middle" x="163.741" y="-7.5" font-family="Helvetica,sans-Serif" font-size="10.00">iostream</text>
</g>
<!-- Node6&#45;&gt;Node8 -->
<g id="edge7" class="edge"><title>Node6&#45;&gt;Node8</title>
<path fill="none" stroke="midnightblue" d="M136.19,-56.083C140.755,-48.6127 147.409,-37.7244 153.034,-28.5199"/>
<polygon fill="midnightblue" stroke="midnightblue" points="156.165,-30.109 158.393,-19.7511 150.192,-26.4588 156.165,-30.109"/>
</g>
<!-- Node6&#45;&gt;Node9 -->
<g id="edge8" class="edge"><title>Node6&#45;&gt;Node9</title>
<path fill="none" stroke="midnightblue" d="M160.367,-59.1183C211.872,-48.8932 317.489,-27.9251 370.659,-17.3692"/>
<polygon fill="midnightblue" stroke="midnightblue" points="371.435,-20.7835 380.562,-15.4031 370.072,-13.9175 371.435,-20.7835"/>
</g>
<!-- Node13&#45;&gt;Node6 -->
<g id="edge16" class="edge"><title>Node13&#45;&gt;Node6</title>
<path fill="none" stroke="midnightblue" d="M68.8777,-168.476C70.8918,-155.531 75.9371,-130.47 86.7409,-112 93.2457,-100.88 103.092,-90.4572 111.822,-82.4485"/>
<polygon fill="midnightblue" stroke="midnightblue" points="114.176,-85.0399 119.398,-75.8215 109.567,-79.7712 114.176,-85.0399"/>
</g>
<!-- Node14 -->
<g id="node14" class="node"><title>Node14</title>
<polygon fill="none" stroke="#bfbfbf" points="96.2409,-112.5 96.2409,-131.5 155.241,-131.5 155.241,-112.5 96.2409,-112.5"/>
<text text-anchor="middle" x="125.741" y="-119.5" font-family="Helvetica,sans-Serif" font-size="10.00">stdexcept</text>
</g>
<!-- Node13&#45;&gt;Node14 -->
<g id="edge15" class="edge"><title>Node13&#45;&gt;Node14</title>
<path fill="none" stroke="midnightblue" d="M77.0596,-168.324C85.6335,-160.341 98.5532,-148.313 108.929,-138.653"/>
<polygon fill="midnightblue" stroke="midnightblue" points="111.319,-141.21 116.253,-131.834 106.549,-136.086 111.319,-141.21"/>
</g>
</g>
</svg>
