<?xml version="1.0" encoding="UTF-8" standalone="no"?>
<!DOCTYPE svg PUBLIC "-//W3C//DTD SVG 1.1//EN"
 "http://www.w3.org/Graphics/SVG/1.1/DTD/svg11.dtd">
<!-- Generated by graphviz version 2.38.0 (20140413.2041)
 -->
<!-- Title: groups.hpp Pages: 1 -->
<svg width="190pt" height="196pt"
 viewBox="0.00 0.00 190.00 196.00" xmlns="http://www.w3.org/2000/svg" xmlns:xlink="http://www.w3.org/1999/xlink">
<g id="graph0" class="graph" transform="scale(1 1) rotate(0) translate(4 192)">
<title>groups.hpp</title>
<!-- Node1 -->
<g id="node1" class="node"><title>Node1</title>
<polygon fill="#bfbfbf" stroke="black" points="53,-168.5 53,-187.5 116,-187.5 116,-168.5 53,-168.5"/>
<text text-anchor="middle" x="84.5" y="-175.5" font-family="FreeSans" font-size="10.00">groups.hpp</text>
</g>
<!-- Node2 -->
<g id="node2" class="node"><title>Node2</title>
<g id="a_node2"><a xlink:href="api_8hpp.html" target="_top" xlink:title="api.hpp">
<polygon fill="none" stroke="black" points="103,-112.5 103,-131.5 150,-131.5 150,-112.5 103,-112.5"/>
<text text-anchor="middle" x="126.5" y="-119.5" font-family="FreeSans" font-size="10.00">api.hpp</text>
</a>
</g>
</g>
<!-- Node1&#45;&gt;Node2 -->
<g id="edge1" class="edge"><title>Node1&#45;&gt;Node2</title>
<path fill="none" stroke="midnightblue" d="M97.6102,-160.144C104.928,-150.736 113.741,-139.405 119.694,-131.751"/>
<polygon fill="midnightblue" stroke="midnightblue" points="94.8122,-158.041 91.4354,-168.083 100.338,-162.338 94.8122,-158.041"/>
</g>
<!-- Node6 -->
<g id="node6" class="node"><title>Node6</title>
<g id="a_node6"><a xlink:href="help__printer_8hpp.html" target="_top" xlink:title="help_printer.hpp">
<polygon fill="none" stroke="black" points="0,-112.5 0,-131.5 85,-131.5 85,-112.5 0,-112.5"/>
<text text-anchor="middle" x="42.5" y="-119.5" font-family="FreeSans" font-size="10.00">help_printer.hpp</text>
</a>
</g>
</g>
<!-- Node1&#45;&gt;Node6 -->
<g id="edge6" class="edge"><title>Node1&#45;&gt;Node6</title>
<path fill="none" stroke="midnightblue" d="M71.3898,-160.144C64.0722,-150.736 55.2591,-139.405 49.3064,-131.751"/>
<polygon fill="midnightblue" stroke="midnightblue" points="68.6624,-162.338 77.5646,-168.083 74.1878,-158.041 68.6624,-162.338"/>
</g>
<!-- Node3 -->
<g id="node3" class="node"><title>Node3</title>
<g id="a_node3"><a xlink:href="cmd__line_8hpp.html" target="_top" xlink:title="cmd_line.hpp">
<polygon fill="none" stroke="black" points="14.5,-56.5 14.5,-75.5 88.5,-75.5 88.5,-56.5 14.5,-56.5"/>
<text text-anchor="middle" x="51.5" y="-63.5" font-family="FreeSans" font-size="10.00">cmd_line.hpp</text>
</a>
</g>
</g>
<!-- Node2&#45;&gt;Node3 -->
<g id="edge2" class="edge"><title>Node2&#45;&gt;Node3</title>
<path fill="none" stroke="midnightblue" d="M106.195,-106.38C92.6394,-96.6204 75.2579,-84.1057 63.7693,-75.8339"/>
<polygon fill="midnightblue" stroke="midnightblue" points="104.29,-109.321 114.45,-112.324 108.38,-103.641 104.29,-109.321"/>
</g>
<!-- Node4 -->
<g id="node4" class="node"><title>Node4</title>
<g id="a_node4"><a xlink:href="all_8hpp.html" target="_top" xlink:title="all.hpp">
<polygon fill="none" stroke="black" points="9.5,-0.5 9.5,-19.5 53.5,-19.5 53.5,-0.5 9.5,-0.5"/>
<text text-anchor="middle" x="31.5" y="-7.5" font-family="FreeSans" font-size="10.00">all.hpp</text>
</a>
</g>
</g>
<!-- Node3&#45;&gt;Node4 -->
<g id="edge3" class="edge"><title>Node3&#45;&gt;Node4</title>
<path fill="none" stroke="midnightblue" d="M44.7184,-46.6897C41.3478,-37.589 37.4312,-27.0141 34.7411,-19.7511"/>
<polygon fill="midnightblue" stroke="midnightblue" points="41.4421,-47.9211 48.1974,-56.083 48.0063,-45.4899 41.4421,-47.9211"/>
</g>
<!-- Node5 -->
<g id="node5" class="node"><title>Node5</title>
<g id="a_node5"><a xlink:href="arg__as__command_8hpp.html" target="_top" xlink:title="arg_as_command.hpp">
<polygon fill="none" stroke="black" points="71,-0.5 71,-19.5 182,-19.5 182,-0.5 71,-0.5"/>
<text text-anchor="middle" x="126.5" y="-7.5" font-family="FreeSans" font-size="10.00">arg_as_command.hpp</text>
</a>
</g>
</g>
<!-- Node3&#45;&gt;Node5 -->
<g id="edge4" class="edge"><title>Node3&#45;&gt;Node5</title>
<path fill="none" stroke="midnightblue" d="M71.8051,-50.3804C85.3606,-40.6204 102.742,-28.1057 114.231,-19.8339"/>
<polygon fill="midnightblue" stroke="midnightblue" points="69.6203,-47.6405 63.55,-56.324 73.7105,-53.3213 69.6203,-47.6405"/>
</g>
<!-- Node5&#45;&gt;Node2 -->
<g id="edge5" class="edge"><title>Node5&#45;&gt;Node2</title>
<path fill="none" stroke="midnightblue" d="M126.5,-29.5974C126.5,-53.6664 126.5,-94.617 126.5,-112.368"/>
<polygon fill="midnightblue" stroke="midnightblue" points="130,-29.5914 126.5,-19.5914 123,-29.5915 130,-29.5914"/>
</g>
<!-- Node6&#45;&gt;Node3 -->
<g id="edge7" class="edge"><title>Node6&#45;&gt;Node3</title>
<path fill="none" stroke="midnightblue" d="M45.6499,-102.101C47.144,-93.1357 48.857,-82.8579 50.0415,-75.7511"/>
<polygon fill="midnightblue" stroke="midnightblue" points="42.1779,-101.644 43.9862,-112.083 49.0826,-102.794 42.1779,-101.644"/>
</g>
</g>
</svg>
