<?xml version="1.0" encoding="UTF-8" standalone="no"?>
<!DOCTYPE svg PUBLIC "-//W3C//DTD SVG 1.1//EN"
 "http://www.w3.org/Graphics/SVG/1.1/DTD/svg11.dtd">
<!-- Generated by graphviz version 2.43.0 (0)
 -->
<!-- Title: group_iface.hpp Pages: 1 -->
<!--zoomable 247 -->
<svg id="main" version="1.1" xmlns="http://www.w3.org/2000/svg" xmlns:xlink="http://www.w3.org/1999/xlink" xml:space="preserve" onload="init(evt)">
<style type="text/css"><![CDATA[
.edge:hover path { stroke: red; }
.edge:hover polygon { stroke: red; fill: red; }
]]></style>
<script type="text/javascript"><![CDATA[
var edges = document.getElementsByTagName('g');
if (edges && edges.length) {
  for (var i=0;i<edges.length;i++) {
    if (edges[i].id.substr(0,4)=='edge') {
      edges[i].setAttribute('class','edge');
    }
  }
}
]]></script>
        <defs>
                <circle id="rim" cx="0" cy="0" r="7"/>
                <circle id="rim2" cx="0" cy="0" r="3.5"/>
                <g id="zoomPlus">
                        <use xlink:href="#rim" fill="#404040">
                                <set attributeName="fill" to="#808080" begin="zoomplus.mouseover" end="zoomplus.mouseout"/>
                        </use>
                        <path d="M-4,0h8M0,-4v8" fill="none" stroke="white" stroke-width="1.5" pointer-events="none"/>
                </g>
                <g id="zoomMin">
                        <use xlink:href="#rim" fill="#404040">
                                <set attributeName="fill" to="#808080" begin="zoomminus.mouseover" end="zoomminus.mouseout"/>
                        </use>
                        <path d="M-4,0h8" fill="none" stroke="white" stroke-width="1.5" pointer-events="none"/>
                </g>
                <g id="dirArrow">
                        <path fill="none" stroke="white" stroke-width="1.5" d="M0,-3.0v7 M-2.5,-0.5L0,-3.0L2.5,-0.5"/>
                </g>
               <g id="resetDef">
                       <use xlink:href="#rim2" fill="#404040">
                               <set attributeName="fill" to="#808080" begin="reset.mouseover" end="reset.mouseout"/>
                       </use>
               </g>
        </defs>

<script type="text/javascript">
var viewWidth = 583;
var viewHeight = 247;
var sectionId = 'dynsection-0';
</script>
<script xlink:href="svgpan.js"/>
<svg id="graph" class="graph">
<g id="viewport">
<title>group_iface.hpp</title>
<!-- Node1 -->
<g id="node1" class="node">
<title>Node1</title>
<g id="a_node1"><a xlink:title=" ">
<polygon fill="#bfbfbf" stroke="black" points="396.2,-239 301.2,-239 301.2,-220 396.2,-220 396.2,-239"/>
<text text-anchor="middle" x="348.7" y="-227" font-family="Helvetica,sans-Serif" font-size="10.00">group_iface.hpp</text>
</a>
</g>
</g>
<!-- Node2 -->
<g id="node2" class="node">
<title>Node2</title>
<g id="a_node2"><a xlink:href="arg__iface_8hpp.html" target="_top" xlink:title=" ">
<polygon fill="none" stroke="black" points="257.2,-184 174.2,-184 174.2,-165 257.2,-165 257.2,-184"/>
<text text-anchor="middle" x="215.7" y="-172" font-family="Helvetica,sans-Serif" font-size="10.00">arg_iface.hpp</text>
</a>
</g>
</g>
<!-- Node1&#45;&gt;Node2 -->
<g id="edge1" class="edge">
<title>Node1&#45;&gt;Node2</title>
<path fill="none" stroke="midnightblue" d="M327.33,-219.98C305.55,-211.3 271.54,-197.75 246.78,-187.88"/>
<polygon fill="midnightblue" stroke="midnightblue" points="248.04,-184.62 237.46,-184.17 245.45,-191.12 248.04,-184.62"/>
</g>
<!-- Node3 -->
<g id="node3" class="node">
<title>Node3</title>
<g id="a_node3"><a xlink:href="utils_8hpp.html" target="_top" xlink:title=" ">
<polygon fill="none" stroke="black" points="320.2,-129 261.2,-129 261.2,-110 320.2,-110 320.2,-129"/>
<text text-anchor="middle" x="290.7" y="-117" font-family="Helvetica,sans-Serif" font-size="10.00">utils.hpp</text>
</a>
</g>
</g>
<!-- Node1&#45;&gt;Node3 -->
<g id="edge11" class="edge">
<title>Node1&#45;&gt;Node3</title>
<path fill="none" stroke="midnightblue" d="M343.95,-219.66C334.39,-201.85 312.65,-161.37 300.1,-138.01"/>
<polygon fill="midnightblue" stroke="midnightblue" points="303.16,-136.31 295.35,-129.16 297,-139.62 303.16,-136.31"/>
</g>
<!-- Node4 -->
<g id="node4" class="node">
<title>Node4</title>
<g id="a_node4"><a xlink:href="types_8hpp.html" target="_top" xlink:title=" ">
<polygon fill="none" stroke="black" points="176.2,-74 111.2,-74 111.2,-55 176.2,-55 176.2,-74"/>
<text text-anchor="middle" x="143.7" y="-62" font-family="Helvetica,sans-Serif" font-size="10.00">types.hpp</text>
</a>
</g>
</g>
<!-- Node1&#45;&gt;Node4 -->
<g id="edge15" class="edge">
<title>Node1&#45;&gt;Node4</title>
<path fill="none" stroke="midnightblue" d="M300.96,-225.38C228.02,-219.95 92.86,-207.07 50.7,-184 22.24,-168.42 14.09,-159.38 2.7,-129 -13.29,-86.38 53.76,-72.36 100.86,-67.75"/>
<polygon fill="midnightblue" stroke="midnightblue" points="101.21,-71.23 110.86,-66.88 100.6,-64.26 101.21,-71.23"/>
</g>
<!-- Node7 -->
<g id="node7" class="node">
<title>Node7</title>
<g id="a_node7"><a xlink:title=" ">
<polygon fill="none" stroke="#bfbfbf" points="361.2,-19 314.2,-19 314.2,0 361.2,0 361.2,-19"/>
<text text-anchor="middle" x="337.7" y="-7" font-family="Helvetica,sans-Serif" font-size="10.00">vector</text>
</a>
</g>
</g>
<!-- Node1&#45;&gt;Node7 -->
<g id="edge16" class="edge">
<title>Node1&#45;&gt;Node7</title>
<path fill="none" stroke="midnightblue" d="M356.31,-219.76C378.16,-193.55 437.52,-113.85 405.7,-55 398.12,-40.98 383.99,-30.67 370.57,-23.53"/>
<polygon fill="midnightblue" stroke="midnightblue" points="372,-20.33 361.48,-19.08 368.93,-26.62 372,-20.33"/>
</g>
<!-- Node8 -->
<g id="node8" class="node">
<title>Node8</title>
<g id="a_node8"><a xlink:title=" ">
<polygon fill="none" stroke="#bfbfbf" points="308.7,-74 244.7,-74 244.7,-55 308.7,-55 308.7,-74"/>
<text text-anchor="middle" x="276.7" y="-62" font-family="Helvetica,sans-Serif" font-size="10.00">algorithm</text>
</a>
</g>
</g>
<!-- Node1&#45;&gt;Node8 -->
<g id="edge18" class="edge">
<title>Node1&#45;&gt;Node8</title>
<path fill="none" stroke="midnightblue" d="M349.18,-219.8C349.91,-199.25 349.46,-146.68 328.7,-110 321.84,-97.88 310.36,-87.53 299.93,-79.87"/>
<polygon fill="midnightblue" stroke="midnightblue" points="301.77,-76.89 291.55,-74.09 297.79,-82.65 301.77,-76.89"/>
</g>
<!-- Node9 -->
<g id="node9" class="node">
<title>Node9</title>
<g id="a_node9"><a xlink:title=" ">
<polygon fill="none" stroke="#bfbfbf" points="396.2,-74 327.2,-74 327.2,-55 396.2,-55 396.2,-74"/>
<text text-anchor="middle" x="361.7" y="-62" font-family="Helvetica,sans-Serif" font-size="10.00">type_traits</text>
</a>
</g>
</g>
<!-- Node1&#45;&gt;Node9 -->
<g id="edge17" class="edge">
<title>Node1&#45;&gt;Node9</title>
<path fill="none" stroke="midnightblue" d="M352.3,-219.82C355.75,-210.99 360.73,-196.81 362.7,-184 368.07,-149.05 365.78,-107.61 363.69,-84.16"/>
<polygon fill="midnightblue" stroke="midnightblue" points="367.17,-83.8 362.72,-74.19 360.21,-84.48 367.17,-83.8"/>
</g>
<!-- Node11 -->
<g id="node11" class="node">
<title>Node11</title>
<g id="a_node11"><a xlink:href="exceptions_8hpp.html" target="_top" xlink:title=" ">
<polygon fill="none" stroke="black" points="151.2,-184 60.2,-184 60.2,-165 151.2,-165 151.2,-184"/>
<text text-anchor="middle" x="105.7" y="-172" font-family="Helvetica,sans-Serif" font-size="10.00">exceptions.hpp</text>
</a>
</g>
</g>
<!-- Node1&#45;&gt;Node11 -->
<g id="edge12" class="edge">
<title>Node1&#45;&gt;Node11</title>
<path fill="none" stroke="midnightblue" d="M309.66,-219.98C267.62,-210.82 200.66,-196.21 155.02,-186.26"/>
<polygon fill="midnightblue" stroke="midnightblue" points="155.56,-182.79 145.05,-184.08 154.07,-189.63 155.56,-182.79"/>
</g>
<!-- Node13 -->
<g id="node13" class="node">
<title>Node13</title>
<g id="a_node13"><a xlink:title=" ">
<polygon fill="none" stroke="#bfbfbf" points="498.2,-184 453.2,-184 453.2,-165 498.2,-165 498.2,-184"/>
<text text-anchor="middle" x="475.7" y="-172" font-family="Helvetica,sans-Serif" font-size="10.00">utility</text>
</a>
</g>
</g>
<!-- Node1&#45;&gt;Node13 -->
<g id="edge19" class="edge">
<title>Node1&#45;&gt;Node13</title>
<path fill="none" stroke="midnightblue" d="M369.1,-219.98C389.72,-211.38 421.81,-197.99 445.39,-188.15"/>
<polygon fill="midnightblue" stroke="midnightblue" points="447.04,-191.25 454.92,-184.17 444.35,-184.79 447.04,-191.25"/>
</g>
<!-- Node14 -->
<g id="node14" class="node">
<title>Node14</title>
<g id="a_node14"><a xlink:title=" ">
<polygon fill="none" stroke="#bfbfbf" points="574.7,-184 516.7,-184 516.7,-165 574.7,-165 574.7,-184"/>
<text text-anchor="middle" x="545.7" y="-172" font-family="Helvetica,sans-Serif" font-size="10.00">memory</text>
</a>
</g>
</g>
<!-- Node1&#45;&gt;Node14 -->
<g id="edge20" class="edge">
<title>Node1&#45;&gt;Node14</title>
<path fill="none" stroke="midnightblue" d="M380.35,-219.98C414.75,-210.73 469.74,-195.94 506.76,-185.98"/>
<polygon fill="midnightblue" stroke="midnightblue" points="507.95,-189.28 516.69,-183.3 506.13,-182.52 507.95,-189.28"/>
</g>
<!-- Node2&#45;&gt;Node3 -->
<g id="edge2" class="edge">
<title>Node2&#45;&gt;Node3</title>
<path fill="none" stroke="midnightblue" d="M227.75,-164.98C239.16,-156.92 256.53,-144.65 270.13,-135.03"/>
<polygon fill="midnightblue" stroke="midnightblue" points="272.28,-137.8 278.43,-129.17 268.24,-132.08 272.28,-137.8"/>
</g>
<!-- Node2&#45;&gt;Node4 -->
<g id="edge9" class="edge">
<title>Node2&#45;&gt;Node4</title>
<path fill="none" stroke="midnightblue" d="M201.53,-164.99C189.53,-157.09 172.73,-144.26 162.7,-129 153.81,-115.48 148.95,-97.65 146.38,-84.33"/>
<polygon fill="midnightblue" stroke="midnightblue" points="149.82,-83.68 144.72,-74.39 142.92,-84.83 149.82,-83.68"/>
</g>
<!-- Node10 -->
<g id="node10" class="node">
<title>Node10</title>
<g id="a_node10"><a xlink:href="enums_8hpp.html" target="_top" xlink:title=" ">
<polygon fill="none" stroke="black" points="243.2,-129 172.2,-129 172.2,-110 243.2,-110 243.2,-129"/>
<text text-anchor="middle" x="207.7" y="-117" font-family="Helvetica,sans-Serif" font-size="10.00">enums.hpp</text>
</a>
</g>
</g>
<!-- Node2&#45;&gt;Node10 -->
<g id="edge10" class="edge">
<title>Node2&#45;&gt;Node10</title>
<path fill="none" stroke="midnightblue" d="M214.38,-164.75C213.33,-157.8 211.83,-147.85 210.51,-139.13"/>
<polygon fill="midnightblue" stroke="midnightblue" points="213.95,-138.45 209,-129.09 207.03,-139.5 213.95,-138.45"/>
</g>
<!-- Node3&#45;&gt;Node4 -->
<g id="edge3" class="edge">
<title>Node3&#45;&gt;Node4</title>
<path fill="none" stroke="midnightblue" d="M267.08,-109.98C242.79,-101.23 204.75,-87.51 177.32,-77.62"/>
<polygon fill="midnightblue" stroke="midnightblue" points="178.34,-74.27 167.75,-74.17 175.97,-80.85 178.34,-74.27"/>
</g>
<!-- Node3&#45;&gt;Node8 -->
<g id="edge7" class="edge">
<title>Node3&#45;&gt;Node8</title>
<path fill="none" stroke="midnightblue" d="M288.39,-109.75C286.53,-102.72 283.86,-92.62 281.54,-83.84"/>
<polygon fill="midnightblue" stroke="midnightblue" points="284.91,-82.86 278.97,-74.09 278.14,-84.65 284.91,-82.86"/>
</g>
<!-- Node3&#45;&gt;Node9 -->
<g id="edge8" class="edge">
<title>Node3&#45;&gt;Node9</title>
<path fill="none" stroke="midnightblue" d="M302.11,-109.98C312.81,-102 329.04,-89.88 341.86,-80.31"/>
<polygon fill="midnightblue" stroke="midnightblue" points="344.16,-82.96 350.08,-74.17 339.98,-77.35 344.16,-82.96"/>
</g>
<!-- Node5 -->
<g id="node5" class="node">
<title>Node5</title>
<g id="a_node5"><a xlink:title=" ">
<polygon fill="none" stroke="#bfbfbf" points="130.7,-19 86.7,-19 86.7,0 130.7,0 130.7,-19"/>
<text text-anchor="middle" x="108.7" y="-7" font-family="Helvetica,sans-Serif" font-size="10.00">string</text>
</a>
</g>
</g>
<!-- Node4&#45;&gt;Node5 -->
<g id="edge4" class="edge">
<title>Node4&#45;&gt;Node5</title>
<path fill="none" stroke="midnightblue" d="M137.92,-54.75C133.08,-47.42 126.02,-36.73 120.05,-27.7"/>
<polygon fill="midnightblue" stroke="midnightblue" points="122.8,-25.5 114.37,-19.09 116.96,-29.36 122.8,-25.5"/>
</g>
<!-- Node6 -->
<g id="node6" class="node">
<title>Node6</title>
<g id="a_node6"><a xlink:title=" ">
<polygon fill="none" stroke="#bfbfbf" points="208.7,-19 148.7,-19 148.7,0 208.7,0 208.7,-19"/>
<text text-anchor="middle" x="178.7" y="-7" font-family="Helvetica,sans-Serif" font-size="10.00">iostream</text>
</a>
</g>
</g>
<!-- Node4&#45;&gt;Node6 -->
<g id="edge5" class="edge">
<title>Node4&#45;&gt;Node6</title>
<path fill="none" stroke="midnightblue" d="M149.48,-54.75C154.32,-47.42 161.38,-36.73 167.34,-27.7"/>
<polygon fill="midnightblue" stroke="midnightblue" points="170.44,-29.36 173.03,-19.09 164.6,-25.5 170.44,-29.36"/>
</g>
<!-- Node4&#45;&gt;Node7 -->
<g id="edge6" class="edge">
<title>Node4&#45;&gt;Node7</title>
<path fill="none" stroke="midnightblue" d="M174.87,-54.98C210.31,-45.3 267.95,-29.56 304.29,-19.63"/>
<polygon fill="midnightblue" stroke="midnightblue" points="305.22,-23 313.94,-16.99 303.37,-16.25 305.22,-23"/>
</g>
<!-- Node11&#45;&gt;Node4 -->
<g id="edge14" class="edge">
<title>Node11&#45;&gt;Node4</title>
<path fill="none" stroke="midnightblue" d="M108.81,-164.66C115.02,-147.01 129.07,-107.09 137.32,-83.64"/>
<polygon fill="midnightblue" stroke="midnightblue" points="140.63,-84.75 140.65,-74.16 134.03,-82.43 140.63,-84.75"/>
</g>
<!-- Node12 -->
<g id="node12" class="node">
<title>Node12</title>
<g id="a_node12"><a xlink:title=" ">
<polygon fill="none" stroke="#bfbfbf" points="77.2,-129 12.2,-129 12.2,-110 77.2,-110 77.2,-129"/>
<text text-anchor="middle" x="44.7" y="-117" font-family="Helvetica,sans-Serif" font-size="10.00">stdexcept</text>
</a>
</g>
</g>
<!-- Node11&#45;&gt;Node12 -->
<g id="edge13" class="edge">
<title>Node11&#45;&gt;Node12</title>
<path fill="none" stroke="midnightblue" d="M95.9,-164.98C86.88,-157.15 73.29,-145.34 62.38,-135.86"/>
<polygon fill="midnightblue" stroke="midnightblue" points="64.52,-133.09 54.68,-129.17 59.93,-138.37 64.52,-133.09"/>
</g>
</g>
</svg>
        <g id="navigator" transform="translate(0 0)" fill="#404254">
                <rect fill="#f2f5e9" fill-opacity="0.5" stroke="#606060" stroke-width=".5" x="0" y="0" width="60" height="60"/>
                <use id="zoomplus" xlink:href="#zoomPlus" x="17" y="9" onmousedown="handleZoom(evt,'in')"/>
                <use id="zoomminus" xlink:href="#zoomMin" x="42" y="9" onmousedown="handleZoom(evt,'out')"/>
                <use id="reset" xlink:href="#resetDef" x="30" y="36" onmousedown="handleReset()"/>
                <g id="arrowUp" xlink:href="#dirArrow" transform="translate(30 24)" onmousedown="handlePan(0,-1)">
                  <use xlink:href="#rim" fill="#404040">
                        <set attributeName="fill" to="#808080" begin="arrowUp.mouseover" end="arrowUp.mouseout"/>
                  </use>
                  <path fill="none" stroke="white" stroke-width="1.5" d="M0,-3.0v7 M-2.5,-0.5L0,-3.0L2.5,-0.5"/>
                </g>
                <g id="arrowRight" xlink:href="#dirArrow" transform="rotate(90) translate(36 -43)" onmousedown="handlePan(1,0)">
                  <use xlink:href="#rim" fill="#404040">
                        <set attributeName="fill" to="#808080" begin="arrowRight.mouseover" end="arrowRight.mouseout"/>
                  </use>
                  <path fill="none" stroke="white" stroke-width="1.5" d="M0,-3.0v7 M-2.5,-0.5L0,-3.0L2.5,-0.5"/>
                </g>
                <g id="arrowDown" xlink:href="#dirArrow" transform="rotate(180) translate(-30 -48)" onmousedown="handlePan(0,1)">
                  <use xlink:href="#rim" fill="#404040">
                        <set attributeName="fill" to="#808080" begin="arrowDown.mouseover" end="arrowDown.mouseout"/>
                  </use>
                  <path fill="none" stroke="white" stroke-width="1.5" d="M0,-3.0v7 M-2.5,-0.5L0,-3.0L2.5,-0.5"/>
                </g>
                <g id="arrowLeft" xlink:href="#dirArrow" transform="rotate(270) translate(-36 17)" onmousedown="handlePan(-1,0)">
                  <use xlink:href="#rim" fill="#404040">
                        <set attributeName="fill" to="#808080" begin="arrowLeft.mouseover" end="arrowLeft.mouseout"/>
                  </use>
                  <path fill="none" stroke="white" stroke-width="1.5" d="M0,-3.0v7 M-2.5,-0.5L0,-3.0L2.5,-0.5"/>
                </g>
        </g>
        <svg viewBox="0 0 15 15" width="100%" height="30px" preserveAspectRatio="xMaxYMin meet">
         <g id="arrow_out" transform="scale(0.3 0.3)">
          <a xlink:href="group__iface_8hpp__incl_org.svg" target="_base">
           <rect id="button" ry="5" rx="5" y="6" x="6" height="38" width="38"
                fill="#f2f5e9" fill-opacity="0.5" stroke="#606060" stroke-width="1.0"/>
           <path id="arrow"
             d="M 11.500037,31.436501 C 11.940474,20.09759 22.043105,11.32322 32.158766,21.979434 L 37.068811,17.246167 C 37.068811,17.246167 37.088388,32 37.088388,32 L 22.160133,31.978069 C 22.160133,31.978069 26.997745,27.140456 26.997745,27.140456 C 18.528582,18.264221 13.291696,25.230495 11.500037,31.436501 z"
             style="fill:#404040;"/>
          </a>
         </g>
        </svg>
</svg>
