<?xml version="1.0" encoding="UTF-8" standalone="no"?>
<!DOCTYPE svg PUBLIC "-//W3C//DTD SVG 1.1//EN"
 "http://www.w3.org/Graphics/SVG/1.1/DTD/svg11.dtd">
<!-- Generated by graphviz version 2.43.0 (0)
 -->
<!-- Title: group_iface.hpp Pages: 1 -->
<svg width="232pt" height="364pt"
 viewBox="0.00 0.00 232.00 364.00" xmlns="http://www.w3.org/2000/svg" xmlns:xlink="http://www.w3.org/1999/xlink">
<g id="graph0" class="graph" transform="scale(1 1) rotate(0) translate(4 360)">
<title>group_iface.hpp</title>
<!-- Node1 -->
<g id="node1" class="node">
<title>Node1</title>
<g id="a_node1"><a xlink:title=" ">
<polygon fill="#bfbfbf" stroke="black" points="26.5,-336.5 26.5,-355.5 121.5,-355.5 121.5,-336.5 26.5,-336.5"/>
<text text-anchor="middle" x="74" y="-343.5" font-family="Helvetica,sans-Serif" font-size="10.00">group_iface.hpp</text>
</a>
</g>
</g>
<!-- Node2 -->
<g id="node2" class="node">
<title>Node2</title>
<g id="a_node2"><a xlink:href="groups_8hpp.html" target="_top" xlink:title=" ">
<polygon fill="none" stroke="black" points="38.5,-280.5 38.5,-299.5 109.5,-299.5 109.5,-280.5 38.5,-280.5"/>
<text text-anchor="middle" x="74" y="-287.5" font-family="Helvetica,sans-Serif" font-size="10.00">groups.hpp</text>
</a>
</g>
</g>
<!-- Node1&#45;&gt;Node2 -->
<g id="edge1" class="edge">
<title>Node1&#45;&gt;Node2</title>
<path fill="none" stroke="midnightblue" d="M74,-325.8C74,-316.91 74,-306.78 74,-299.75"/>
<polygon fill="midnightblue" stroke="midnightblue" points="70.5,-326.08 74,-336.08 77.5,-326.08 70.5,-326.08"/>
</g>
<!-- Node6 -->
<g id="node6" class="node">
<title>Node6</title>
<g id="a_node6"><a xlink:href="help__printer_8hpp.html" target="_top" xlink:title=" ">
<polygon fill="none" stroke="black" points="55.5,-0.5 55.5,-19.5 150.5,-19.5 150.5,-0.5 55.5,-0.5"/>
<text text-anchor="middle" x="103" y="-7.5" font-family="Helvetica,sans-Serif" font-size="10.00">help_printer.hpp</text>
</a>
</g>
</g>
<!-- Node1&#45;&gt;Node6 -->
<g id="edge15" class="edge">
<title>Node1&#45;&gt;Node6</title>
<path fill="none" stroke="midnightblue" d="M55,-329.74C33.07,-310.27 0,-274.39 0,-235 0,-235 0,-235 0,-121 0,-71.81 55.55,-35.55 85.06,-19.75"/>
<polygon fill="midnightblue" stroke="midnightblue" points="52.88,-332.53 62.76,-336.36 57.43,-327.21 52.88,-332.53"/>
</g>
<!-- Node7 -->
<g id="node7" class="node">
<title>Node7</title>
<g id="a_node7"><a xlink:href="command_8hpp.html" target="_top" xlink:title=" ">
<polygon fill="none" stroke="black" points="104,-168.5 104,-187.5 190,-187.5 190,-168.5 104,-168.5"/>
<text text-anchor="middle" x="147" y="-175.5" font-family="Helvetica,sans-Serif" font-size="10.00">command.hpp</text>
</a>
</g>
</g>
<!-- Node1&#45;&gt;Node7 -->
<g id="edge14" class="edge">
<title>Node1&#45;&gt;Node7</title>
<path fill="none" stroke="midnightblue" d="M93.16,-329.69C101.95,-321.71 111.77,-311.28 118,-300 139.1,-261.8 144.96,-208.55 146.49,-187.78"/>
<polygon fill="midnightblue" stroke="midnightblue" points="90.8,-327.1 85.51,-336.28 95.37,-332.4 90.8,-327.1"/>
</g>
<!-- Node3 -->
<g id="node3" class="node">
<title>Node3</title>
<g id="a_node3"><a xlink:href="api_8hpp.html" target="_top" xlink:title=" ">
<polygon fill="none" stroke="black" points="66.5,-224.5 66.5,-243.5 119.5,-243.5 119.5,-224.5 66.5,-224.5"/>
<text text-anchor="middle" x="93" y="-231.5" font-family="Helvetica,sans-Serif" font-size="10.00">api.hpp</text>
</a>
</g>
</g>
<!-- Node2&#45;&gt;Node3 -->
<g id="edge2" class="edge">
<title>Node2&#45;&gt;Node3</title>
<path fill="none" stroke="midnightblue" d="M80.55,-270.4C83.72,-261.36 87.39,-250.94 89.92,-243.75"/>
<polygon fill="midnightblue" stroke="midnightblue" points="77.15,-269.49 77.14,-280.08 83.76,-271.81 77.15,-269.49"/>
</g>
<!-- Node2&#45;&gt;Node6 -->
<g id="edge13" class="edge">
<title>Node2&#45;&gt;Node6</title>
<path fill="none" stroke="midnightblue" d="M64.41,-271.4C53.74,-250.15 38,-213.02 38,-179 38,-179 38,-179 38,-121 38,-77.97 75.33,-36.98 93.41,-19.66"/>
<polygon fill="midnightblue" stroke="midnightblue" points="61.41,-273.23 69.14,-280.47 67.62,-269.99 61.41,-273.23"/>
</g>
<!-- Node4 -->
<g id="node4" class="node">
<title>Node4</title>
<g id="a_node4"><a xlink:href="cmd__line_8hpp.html" target="_top" xlink:title=" ">
<polygon fill="none" stroke="black" points="142,-56.5 142,-75.5 224,-75.5 224,-56.5 142,-56.5"/>
<text text-anchor="middle" x="183" y="-63.5" font-family="Helvetica,sans-Serif" font-size="10.00">cmd_line.hpp</text>
</a>
</g>
</g>
<!-- Node3&#45;&gt;Node4 -->
<g id="edge3" class="edge">
<title>Node3&#45;&gt;Node4</title>
<path fill="none" stroke="midnightblue" d="M90.84,-214.1C89.99,-200.86 90.15,-182.95 95,-168 108.55,-126.19 150.06,-91.06 170.86,-75.54"/>
<polygon fill="midnightblue" stroke="midnightblue" points="87.38,-214.68 91.77,-224.33 94.35,-214.05 87.38,-214.68"/>
</g>
<!-- Node3&#45;&gt;Node7 -->
<g id="edge7" class="edge">
<title>Node3&#45;&gt;Node7</title>
<path fill="none" stroke="midnightblue" d="M103.29,-216.43C111.86,-206.97 123.73,-195.48 133.12,-187.75"/>
<polygon fill="midnightblue" stroke="midnightblue" points="100.59,-214.21 96.75,-224.08 105.91,-218.75 100.59,-214.21"/>
</g>
<!-- Node5 -->
<g id="node5" class="node">
<title>Node5</title>
<g id="a_node5"><a xlink:href="all_8hpp.html" target="_top" xlink:title=" ">
<polygon fill="none" stroke="black" points="169,-0.5 169,-19.5 219,-19.5 219,-0.5 169,-0.5"/>
<text text-anchor="middle" x="194" y="-7.5" font-family="Helvetica,sans-Serif" font-size="10.00">all.hpp</text>
</a>
</g>
</g>
<!-- Node4&#45;&gt;Node5 -->
<g id="edge4" class="edge">
<title>Node4&#45;&gt;Node5</title>
<path fill="none" stroke="midnightblue" d="M186.85,-46.1C188.68,-37.14 190.77,-26.86 192.22,-19.75"/>
<polygon fill="midnightblue" stroke="midnightblue" points="183.38,-45.59 184.82,-56.08 190.24,-46.98 183.38,-45.59"/>
</g>
<!-- Node4&#45;&gt;Node6 -->
<g id="edge5" class="edge">
<title>Node4&#45;&gt;Node6</title>
<path fill="none" stroke="midnightblue" d="M156.15,-50.94C140.36,-41.1 121.63,-28.26 110.94,-19.83"/>
<polygon fill="midnightblue" stroke="midnightblue" points="154.67,-54.13 165.03,-56.32 158.3,-48.14 154.67,-54.13"/>
</g>
<!-- Node6&#45;&gt;Node4 -->
<g id="edge6" class="edge">
<title>Node6&#45;&gt;Node4</title>
<path fill="none" stroke="midnightblue" d="M129.86,-25.07C145.75,-34.97 164.61,-47.9 175.26,-56.32"/>
<polygon fill="midnightblue" stroke="midnightblue" points="131.3,-21.85 120.93,-19.65 127.66,-27.84 131.3,-21.85"/>
</g>
<!-- Node7&#45;&gt;Node3 -->
<g id="edge8" class="edge">
<title>Node7&#45;&gt;Node3</title>
<path fill="none" stroke="midnightblue" d="M136.76,-195.51C128.16,-205.02 116.22,-216.58 106.79,-224.32"/>
<polygon fill="midnightblue" stroke="midnightblue" points="139.49,-197.71 143.31,-187.83 134.16,-193.17 139.49,-197.71"/>
</g>
<!-- Node7&#45;&gt;Node4 -->
<g id="edge9" class="edge">
<title>Node7&#45;&gt;Node4</title>
<path fill="none" stroke="midnightblue" d="M177.55,-163.56C190.33,-156.22 203.85,-145.77 211,-132 221.19,-112.37 203.21,-88.21 191.63,-75.6"/>
<polygon fill="midnightblue" stroke="midnightblue" points="175.68,-160.59 168.48,-168.36 178.96,-166.77 175.68,-160.59"/>
</g>
<!-- Node7&#45;&gt;Node6 -->
<g id="edge12" class="edge">
<title>Node7&#45;&gt;Node6</title>
<path fill="none" stroke="midnightblue" d="M141.08,-158.82C138.49,-150.65 135.48,-140.88 133,-132 121.3,-90.1 109.48,-39.4 104.94,-19.55"/>
<polygon fill="midnightblue" stroke="midnightblue" points="137.77,-159.97 144.17,-168.42 144.43,-157.83 137.77,-159.97"/>
</g>
<!-- Node8 -->
<g id="node8" class="node">
<title>Node8</title>
<g id="a_node8"><a xlink:href="help_8hpp.html" target="_top" xlink:title=" ">
<polygon fill="none" stroke="black" points="142.5,-112.5 142.5,-131.5 201.5,-131.5 201.5,-112.5 142.5,-112.5"/>
<text text-anchor="middle" x="172" y="-119.5" font-family="Helvetica,sans-Serif" font-size="10.00">help.hpp</text>
</a>
</g>
</g>
<!-- Node7&#45;&gt;Node8 -->
<g id="edge10" class="edge">
<title>Node7&#45;&gt;Node8</title>
<path fill="none" stroke="midnightblue" d="M155.34,-158.98C159.58,-149.82 164.55,-139.09 167.95,-131.75"/>
<polygon fill="midnightblue" stroke="midnightblue" points="152.15,-157.54 151.13,-168.08 158.51,-160.48 152.15,-157.54"/>
</g>
<!-- Node8&#45;&gt;Node4 -->
<g id="edge11" class="edge">
<title>Node8&#45;&gt;Node4</title>
<path fill="none" stroke="midnightblue" d="M175.85,-102.1C177.68,-93.14 179.77,-82.86 181.22,-75.75"/>
<polygon fill="midnightblue" stroke="midnightblue" points="172.38,-101.59 173.82,-112.08 179.24,-102.98 172.38,-101.59"/>
</g>
</g>
</svg>
