<?xml version="1.0" encoding="UTF-8" standalone="no"?>
<!DOCTYPE svg PUBLIC "-//W3C//DTD SVG 1.1//EN"
 "http://www.w3.org/Graphics/SVG/1.1/DTD/svg11.dtd">
<!-- Generated by graphviz version 2.40.1 (20161225.0304)
 -->
<!-- Title: group_iface.hpp Pages: 1 -->
<svg width="535pt" height="252pt"
 viewBox="0.00 0.00 535.07 252.00" xmlns="http://www.w3.org/2000/svg" xmlns:xlink="http://www.w3.org/1999/xlink">
<g id="graph0" class="graph" transform="scale(1 1) rotate(0) translate(4 248)">
<title>group_iface.hpp</title>
<!-- Node0 -->
<g id="node1" class="node">
<title>Node0</title>
<polygon fill="#bfbfbf" stroke="#000000" points="268.0669,-224.5 268.0669,-243.5 354.0669,-243.5 354.0669,-224.5 268.0669,-224.5"/>
<text text-anchor="middle" x="311.0669" y="-231.5" font-family="Helvetica,sans-Serif" font-size="10.00" fill="#000000">group_iface.hpp</text>
</g>
<!-- Node1 -->
<g id="node2" class="node">
<title>Node1</title>
<g id="a_node2"><a xlink:href="arg__iface_8hpp.html" target="_top" xlink:title="arg_iface.hpp">
<polygon fill="none" stroke="#000000" points="164.5669,-168.5 164.5669,-187.5 239.5669,-187.5 239.5669,-168.5 164.5669,-168.5"/>
<text text-anchor="middle" x="202.0669" y="-175.5" font-family="Helvetica,sans-Serif" font-size="10.00" fill="#000000">arg_iface.hpp</text>
</a>
</g>
</g>
<!-- Node0&#45;&gt;Node1 -->
<g id="edge1" class="edge">
<title>Node0&#45;&gt;Node1</title>
<path fill="none" stroke="#191970" d="M292.0806,-224.2455C274.8877,-215.4125 249.3431,-202.2887 229.8537,-192.2758"/>
<polygon fill="#191970" stroke="#191970" points="231.3299,-189.0993 220.8357,-187.6427 228.131,-195.3257 231.3299,-189.0993"/>
</g>
<!-- Node2 -->
<g id="node3" class="node">
<title>Node2</title>
<g id="a_node3"><a xlink:href="utils_8hpp.html" target="_top" xlink:title="utils.hpp">
<polygon fill="none" stroke="#000000" points="229.5669,-112.5 229.5669,-131.5 282.5669,-131.5 282.5669,-112.5 229.5669,-112.5"/>
<text text-anchor="middle" x="256.0669" y="-119.5" font-family="Helvetica,sans-Serif" font-size="10.00" fill="#000000">utils.hpp</text>
</a>
</g>
</g>
<!-- Node0&#45;&gt;Node2 -->
<g id="edge12" class="edge">
<title>Node0&#45;&gt;Node2</title>
<path fill="none" stroke="#191970" d="M306.3776,-224.4509C297.2855,-205.936 277.1138,-164.8591 265.2591,-140.7187"/>
<polygon fill="#191970" stroke="#191970" points="268.2939,-138.9582 260.7443,-131.5249 262.0106,-142.0438 268.2939,-138.9582"/>
</g>
<!-- Node4 -->
<g id="node5" class="node">
<title>Node4</title>
<g id="a_node5"><a xlink:href="types_8hpp.html" target="_top" xlink:title="types.hpp">
<polygon fill="none" stroke="#000000" points="88.5669,-56.5 88.5669,-75.5 147.5669,-75.5 147.5669,-56.5 88.5669,-56.5"/>
<text text-anchor="middle" x="118.0669" y="-63.5" font-family="Helvetica,sans-Serif" font-size="10.00" fill="#000000">types.hpp</text>
</a>
</g>
</g>
<!-- Node0&#45;&gt;Node4 -->
<g id="edge16" class="edge">
<title>Node0&#45;&gt;Node4</title>
<path fill="none" stroke="#191970" d="M267.9209,-230.5133C188.5016,-223.656 25.7219,-207.384 9.0669,-188 -.953,-176.3383 -6.6432,-140.9052 14.0669,-112 29.0915,-91.0301 55.8724,-79.4828 78.4944,-73.2025"/>
<polygon fill="#191970" stroke="#191970" points="79.3747,-76.5901 88.2125,-70.7469 77.6598,-69.8034 79.3747,-76.5901"/>
</g>
<!-- Node7 -->
<g id="node8" class="node">
<title>Node7</title>
<polygon fill="none" stroke="#bfbfbf" points="278.0669,-.5 278.0669,-19.5 322.0669,-19.5 322.0669,-.5 278.0669,-.5"/>
<text text-anchor="middle" x="300.0669" y="-7.5" font-family="Helvetica,sans-Serif" font-size="10.00" fill="#000000">vector</text>
</g>
<!-- Node0&#45;&gt;Node7 -->
<g id="edge17" class="edge">
<title>Node0&#45;&gt;Node7</title>
<path fill="none" stroke="#191970" d="M319.5694,-224.2592C342.6042,-196.6293 402.3717,-115.8845 370.0669,-56 361.7981,-40.6718 345.9453,-29.6178 331.4145,-22.1935"/>
<polygon fill="#191970" stroke="#191970" points="332.6877,-18.9245 322.1495,-17.8305 329.7053,-25.2574 332.6877,-18.9245"/>
</g>
<!-- Node8 -->
<g id="node9" class="node">
<title>Node8</title>
<polygon fill="none" stroke="#bfbfbf" points="225.0669,-56.5 225.0669,-75.5 281.0669,-75.5 281.0669,-56.5 225.0669,-56.5"/>
<text text-anchor="middle" x="253.0669" y="-63.5" font-family="Helvetica,sans-Serif" font-size="10.00" fill="#000000">algorithm</text>
</g>
<!-- Node0&#45;&gt;Node8 -->
<g id="edge19" class="edge">
<title>Node0&#45;&gt;Node8</title>
<path fill="none" stroke="#191970" d="M311.1616,-224.3321C311.02,-203.0367 308.735,-150.8863 291.0669,-112 286.1821,-101.2488 278.1123,-90.951 270.6628,-82.8347"/>
<polygon fill="#191970" stroke="#191970" points="273.0347,-80.253 263.561,-75.5096 268.0089,-85.1256 273.0347,-80.253"/>
</g>
<!-- Node9 -->
<g id="node10" class="node">
<title>Node9</title>
<polygon fill="none" stroke="#bfbfbf" points="299.0669,-56.5 299.0669,-75.5 361.0669,-75.5 361.0669,-56.5 299.0669,-56.5"/>
<text text-anchor="middle" x="330.0669" y="-63.5" font-family="Helvetica,sans-Serif" font-size="10.00" fill="#000000">type_traits</text>
</g>
<!-- Node0&#45;&gt;Node9 -->
<g id="edge18" class="edge">
<title>Node0&#45;&gt;Node9</title>
<path fill="none" stroke="#191970" d="M314.8087,-224.3036C318.165,-215.1118 322.8868,-200.8388 325.0669,-188 331.1328,-152.2771 331.3275,-109.8687 330.787,-85.6283"/>
<polygon fill="#191970" stroke="#191970" points="334.284,-85.4714 330.4953,-75.5771 327.2869,-85.6745 334.284,-85.4714"/>
</g>
<!-- Node11 -->
<g id="node12" class="node">
<title>Node11</title>
<g id="a_node12"><a xlink:href="exceptions_8hpp.html" target="_top" xlink:title="exceptions.hpp">
<polygon fill="none" stroke="#000000" points="18.5669,-168.5 18.5669,-187.5 101.5669,-187.5 101.5669,-168.5 18.5669,-168.5"/>
<text text-anchor="middle" x="60.0669" y="-175.5" font-family="Helvetica,sans-Serif" font-size="10.00" fill="#000000">exceptions.hpp</text>
</a>
</g>
</g>
<!-- Node0&#45;&gt;Node11 -->
<g id="edge13" class="edge">
<title>Node0&#45;&gt;Node11</title>
<path fill="none" stroke="#191970" d="M268.2037,-224.4369C224.8958,-214.7746 157.954,-199.8393 111.7384,-189.5283"/>
<polygon fill="#191970" stroke="#191970" points="112.4397,-186.0988 101.9175,-187.3372 110.9154,-192.9308 112.4397,-186.0988"/>
</g>
<!-- Node13 -->
<g id="node14" class="node">
<title>Node13</title>
<polygon fill="none" stroke="#bfbfbf" points="417.0669,-168.5 417.0669,-187.5 457.0669,-187.5 457.0669,-168.5 417.0669,-168.5"/>
<text text-anchor="middle" x="437.0669" y="-175.5" font-family="Helvetica,sans-Serif" font-size="10.00" fill="#000000">utility</text>
</g>
<!-- Node0&#45;&gt;Node13 -->
<g id="edge20" class="edge">
<title>Node0&#45;&gt;Node13</title>
<path fill="none" stroke="#191970" d="M332.7271,-224.3733C353.4135,-215.1793 384.7465,-201.2535 407.6783,-191.0616"/>
<polygon fill="#191970" stroke="#191970" points="409.2197,-194.2067 416.9363,-186.9469 406.3767,-187.81 409.2197,-194.2067"/>
</g>
<!-- Node14 -->
<g id="node15" class="node">
<title>Node14</title>
<polygon fill="none" stroke="#bfbfbf" points="475.0669,-168.5 475.0669,-187.5 527.0669,-187.5 527.0669,-168.5 475.0669,-168.5"/>
<text text-anchor="middle" x="501.0669" y="-175.5" font-family="Helvetica,sans-Serif" font-size="10.00" fill="#000000">memory</text>
</g>
<!-- Node0&#45;&gt;Node14 -->
<g id="edge21" class="edge">
<title>Node0&#45;&gt;Node14</title>
<path fill="none" stroke="#191970" d="M343.7291,-224.3733C377.5281,-214.4114 430.1753,-198.8944 465.1332,-188.591"/>
<polygon fill="#191970" stroke="#191970" points="466.3307,-191.887 474.9332,-185.7026 464.3517,-185.1725 466.3307,-191.887"/>
</g>
<!-- Node1&#45;&gt;Node2 -->
<g id="edge2" class="edge">
<title>Node1&#45;&gt;Node2</title>
<path fill="none" stroke="#191970" d="M211.473,-168.2455C219.2162,-160.2155 230.3789,-148.6394 239.5987,-139.0781"/>
<polygon fill="#191970" stroke="#191970" points="242.3467,-141.2706 246.7686,-131.6427 237.3078,-136.4117 242.3467,-141.2706"/>
</g>
<!-- Node1&#45;&gt;Node4 -->
<g id="edge10" class="edge">
<title>Node1&#45;&gt;Node4</title>
<path fill="none" stroke="#191970" d="M200.8896,-168.1897C198.8411,-154.4924 193.5741,-129.3688 181.0669,-112 171.8968,-99.2654 158.1207,-88.6346 145.7871,-80.8122"/>
<polygon fill="#191970" stroke="#191970" points="147.5223,-77.7716 137.1477,-75.6226 143.9178,-83.7723 147.5223,-77.7716"/>
</g>
<!-- Node10 -->
<g id="node11" class="node">
<title>Node10</title>
<g id="a_node11"><a xlink:href="enums_8hpp.html" target="_top" xlink:title="enums.hpp">
<polygon fill="none" stroke="#000000" points="107.5669,-112.5 107.5669,-131.5 172.5669,-131.5 172.5669,-112.5 107.5669,-112.5"/>
<text text-anchor="middle" x="140.0669" y="-119.5" font-family="Helvetica,sans-Serif" font-size="10.00" fill="#000000">enums.hpp</text>
</a>
</g>
</g>
<!-- Node1&#45;&gt;Node10 -->
<g id="edge11" class="edge">
<title>Node1&#45;&gt;Node10</title>
<path fill="none" stroke="#191970" d="M191.2673,-168.2455C182.1991,-160.0549 169.0463,-148.1749 158.3424,-138.5069"/>
<polygon fill="#191970" stroke="#191970" points="160.5098,-135.7482 150.7427,-131.6427 155.8178,-140.9429 160.5098,-135.7482"/>
</g>
<!-- Node3 -->
<g id="node4" class="node">
<title>Node3</title>
<polygon fill="none" stroke="#bfbfbf" points="165.5669,-56.5 165.5669,-75.5 206.5669,-75.5 206.5669,-56.5 165.5669,-56.5"/>
<text text-anchor="middle" x="186.0669" y="-63.5" font-family="Helvetica,sans-Serif" font-size="10.00" fill="#000000">regex</text>
</g>
<!-- Node2&#45;&gt;Node3 -->
<g id="edge3" class="edge">
<title>Node2&#45;&gt;Node3</title>
<path fill="none" stroke="#191970" d="M243.8738,-112.2455C233.4348,-103.8943 218.2014,-91.7076 205.9929,-81.9408"/>
<polygon fill="#191970" stroke="#191970" points="208.1154,-79.1566 198.1202,-75.6427 203.7425,-84.6227 208.1154,-79.1566"/>
</g>
<!-- Node2&#45;&gt;Node4 -->
<g id="edge4" class="edge">
<title>Node2&#45;&gt;Node4</title>
<path fill="none" stroke="#191970" d="M232.3439,-112.3733C209.8932,-103.2629 175.993,-89.5062 150.9414,-79.3404"/>
<polygon fill="#191970" stroke="#191970" points="152.0626,-76.0182 141.4804,-75.5011 149.4304,-82.5045 152.0626,-76.0182"/>
</g>
<!-- Node2&#45;&gt;Node8 -->
<g id="edge8" class="edge">
<title>Node2&#45;&gt;Node8</title>
<path fill="none" stroke="#191970" d="M255.5443,-112.2455C255.1529,-104.9382 254.6041,-94.6944 254.1225,-85.7046"/>
<polygon fill="#191970" stroke="#191970" points="257.6135,-85.4411 253.5835,-75.6427 250.6235,-85.8156 257.6135,-85.4411"/>
</g>
<!-- Node2&#45;&gt;Node9 -->
<g id="edge9" class="edge">
<title>Node2&#45;&gt;Node9</title>
<path fill="none" stroke="#191970" d="M268.9567,-112.2455C279.9923,-103.8943 296.0961,-91.7076 309.0022,-81.9408"/>
<polygon fill="#191970" stroke="#191970" points="311.4628,-84.4681 317.3248,-75.6427 307.2387,-78.8862 311.4628,-84.4681"/>
</g>
<!-- Node5 -->
<g id="node6" class="node">
<title>Node5</title>
<polygon fill="none" stroke="#bfbfbf" points="130.5669,-.5 130.5669,-19.5 171.5669,-19.5 171.5669,-.5 130.5669,-.5"/>
<text text-anchor="middle" x="151.0669" y="-7.5" font-family="Helvetica,sans-Serif" font-size="10.00" fill="#000000">string</text>
</g>
<!-- Node4&#45;&gt;Node5 -->
<g id="edge5" class="edge">
<title>Node4&#45;&gt;Node5</title>
<path fill="none" stroke="#191970" d="M123.8151,-56.2455C128.3104,-48.617 134.6918,-37.7881 140.1494,-28.5267"/>
<polygon fill="#191970" stroke="#191970" points="143.323,-30.035 145.3846,-19.6427 137.2923,-26.4811 143.323,-30.035"/>
</g>
<!-- Node6 -->
<g id="node7" class="node">
<title>Node6</title>
<polygon fill="none" stroke="#bfbfbf" points="58.0669,-.5 58.0669,-19.5 112.0669,-19.5 112.0669,-.5 58.0669,-.5"/>
<text text-anchor="middle" x="85.0669" y="-7.5" font-family="Helvetica,sans-Serif" font-size="10.00" fill="#000000">iostream</text>
</g>
<!-- Node4&#45;&gt;Node6 -->
<g id="edge6" class="edge">
<title>Node4&#45;&gt;Node6</title>
<path fill="none" stroke="#191970" d="M112.3187,-56.2455C107.8234,-48.617 101.4421,-37.7881 95.9844,-28.5267"/>
<polygon fill="#191970" stroke="#191970" points="98.8416,-26.4811 90.7492,-19.6427 92.8108,-30.035 98.8416,-26.4811"/>
</g>
<!-- Node4&#45;&gt;Node7 -->
<g id="edge7" class="edge">
<title>Node4&#45;&gt;Node7</title>
<path fill="none" stroke="#191970" d="M147.7134,-56.878C180.7579,-46.7105 234.0059,-30.3265 268,-19.8667"/>
<polygon fill="#191970" stroke="#191970" points="269.3596,-23.1104 277.8881,-16.8243 267.301,-16.42 269.3596,-23.1104"/>
</g>
<!-- Node11&#45;&gt;Node4 -->
<g id="edge15" class="edge">
<title>Node11&#45;&gt;Node4</title>
<path fill="none" stroke="#191970" d="M47.353,-168.4922C31.6744,-155.5682 8.5451,-131.7966 21.0669,-112 33.7104,-92.011 57.6547,-80.536 78.589,-74.0459"/>
<polygon fill="#191970" stroke="#191970" points="79.5757,-77.4042 88.2518,-71.3234 77.6774,-70.6665 79.5757,-77.4042"/>
</g>
<!-- Node12 -->
<g id="node13" class="node">
<title>Node12</title>
<polygon fill="none" stroke="#bfbfbf" points="30.5669,-112.5 30.5669,-131.5 89.5669,-131.5 89.5669,-112.5 30.5669,-112.5"/>
<text text-anchor="middle" x="60.0669" y="-119.5" font-family="Helvetica,sans-Serif" font-size="10.00" fill="#000000">stdexcept</text>
</g>
<!-- Node11&#45;&gt;Node12 -->
<g id="edge14" class="edge">
<title>Node11&#45;&gt;Node12</title>
<path fill="none" stroke="#191970" d="M60.0669,-168.2455C60.0669,-160.9382 60.0669,-150.6944 60.0669,-141.7046"/>
<polygon fill="#191970" stroke="#191970" points="63.567,-141.6426 60.0669,-131.6427 56.567,-141.6427 63.567,-141.6426"/>
</g>
</g>
</svg>
