<?xml version="1.0" encoding="UTF-8" standalone="no"?>
<!DOCTYPE svg PUBLIC "-//W3C//DTD SVG 1.1//EN"
 "http://www.w3.org/Graphics/SVG/1.1/DTD/svg11.dtd">
<!-- Generated by graphviz version 2.43.0 (0)
 -->
<!-- Title: groups.hpp Pages: 1 -->
<!--zoomable 308 -->
<svg id="main" version="1.1" xmlns="http://www.w3.org/2000/svg" xmlns:xlink="http://www.w3.org/1999/xlink" xml:space="preserve" onload="init(evt)">
<style type="text/css"><![CDATA[
.edge:hover path { stroke: red; }
.edge:hover polygon { stroke: red; fill: red; }
]]></style>
<script type="text/javascript"><![CDATA[
var edges = document.getElementsByTagName('g');
if (edges && edges.length) {
  for (var i=0;i<edges.length;i++) {
    if (edges[i].id.substr(0,4)=='edge') {
      edges[i].setAttribute('class','edge');
    }
  }
}
]]></script>
        <defs>
                <circle id="rim" cx="0" cy="0" r="7"/>
                <circle id="rim2" cx="0" cy="0" r="3.5"/>
                <g id="zoomPlus">
                        <use xlink:href="#rim" fill="#404040">
                                <set attributeName="fill" to="#808080" begin="zoomplus.mouseover" end="zoomplus.mouseout"/>
                        </use>
                        <path d="M-4,0h8M0,-4v8" fill="none" stroke="white" stroke-width="1.5" pointer-events="none"/>
                </g>
                <g id="zoomMin">
                        <use xlink:href="#rim" fill="#404040">
                                <set attributeName="fill" to="#808080" begin="zoomminus.mouseover" end="zoomminus.mouseout"/>
                        </use>
                        <path d="M-4,0h8" fill="none" stroke="white" stroke-width="1.5" pointer-events="none"/>
                </g>
                <g id="dirArrow">
                        <path fill="none" stroke="white" stroke-width="1.5" d="M0,-3.0v7 M-2.5,-0.5L0,-3.0L2.5,-0.5"/>
                </g>
               <g id="resetDef">
                       <use xlink:href="#rim2" fill="#404040">
                               <set attributeName="fill" to="#808080" begin="reset.mouseover" end="reset.mouseout"/>
                       </use>
               </g>
        </defs>

<script type="text/javascript">
var viewWidth = 582;
var viewHeight = 308;
var sectionId = 'dynsection-0';
</script>
<script xlink:href="svgpan.js"/>
<svg id="graph" class="graph">
<g id="viewport">
<title>groups.hpp</title>
<!-- Node1 -->
<g id="node1" class="node">
<title>Node1</title>
<g id="a_node1"><a xlink:title=" ">
<polygon fill="#bfbfbf" stroke="black" points="290.9,-280.5 290.9,-299.5 361.9,-299.5 361.9,-280.5 290.9,-280.5"/>
<text text-anchor="middle" x="326.4" y="-287.5" font-family="Helvetica,sans-Serif" font-size="10.00">groups.hpp</text>
</a>
</g>
</g>
<!-- Node2 -->
<g id="node2" class="node">
<title>Node2</title>
<g id="a_node2"><a xlink:href="group__iface_8hpp.html" target="_top" xlink:title=" ">
<polygon fill="none" stroke="black" points="278.9,-224.5 278.9,-243.5 373.9,-243.5 373.9,-224.5 278.9,-224.5"/>
<text text-anchor="middle" x="326.4" y="-231.5" font-family="Helvetica,sans-Serif" font-size="10.00">group_iface.hpp</text>
</a>
</g>
</g>
<!-- Node1&#45;&gt;Node2 -->
<g id="edge1" class="edge">
<title>Node1&#45;&gt;Node2</title>
<path fill="none" stroke="midnightblue" d="M326.4,-280.08C326.4,-273.01 326.4,-262.86 326.4,-253.99"/>
<polygon fill="midnightblue" stroke="midnightblue" points="329.9,-253.75 326.4,-243.75 322.9,-253.75 329.9,-253.75"/>
</g>
<!-- Node5 -->
<g id="node5" class="node">
<title>Node5</title>
<g id="a_node5"><a xlink:href="types_8hpp.html" target="_top" xlink:title=" ">
<polygon fill="none" stroke="black" points="102.9,-56.5 102.9,-75.5 167.9,-75.5 167.9,-56.5 102.9,-56.5"/>
<text text-anchor="middle" x="135.4" y="-63.5" font-family="Helvetica,sans-Serif" font-size="10.00">types.hpp</text>
</a>
</g>
</g>
<!-- Node1&#45;&gt;Node5 -->
<g id="edge22" class="edge">
<title>Node1&#45;&gt;Node5</title>
<path fill="none" stroke="midnightblue" d="M290.61,-287.9C227.18,-283.91 95.17,-266.11 25.4,-188 2.62,-162.5 -6.15,-140.05 13.4,-112 31.14,-86.55 65,-75.45 92.56,-70.64"/>
<polygon fill="midnightblue" stroke="midnightblue" points="93.4,-74.05 102.76,-69.08 92.35,-67.13 93.4,-74.05"/>
</g>
<!-- Node9 -->
<g id="node9" class="node">
<title>Node9</title>
<g id="a_node9"><a xlink:title=" ">
<polygon fill="none" stroke="#bfbfbf" points="510.4,-56.5 510.4,-75.5 574.4,-75.5 574.4,-56.5 510.4,-56.5"/>
<text text-anchor="middle" x="542.4" y="-63.5" font-family="Helvetica,sans-Serif" font-size="10.00">algorithm</text>
</a>
</g>
</g>
<!-- Node1&#45;&gt;Node9 -->
<g id="edge23" class="edge">
<title>Node1&#45;&gt;Node9</title>
<path fill="none" stroke="midnightblue" d="M362,-282.06C410.19,-270.8 495.64,-243.93 543.4,-188 565.82,-161.75 565.6,-145.96 559.4,-112 557.71,-102.76 554.23,-92.95 550.85,-84.85"/>
<polygon fill="midnightblue" stroke="midnightblue" points="554.03,-83.4 546.77,-75.69 547.64,-86.25 554.03,-83.4"/>
</g>
<!-- Node3 -->
<g id="node3" class="node">
<title>Node3</title>
<g id="a_node3"><a xlink:href="arg__iface_8hpp.html" target="_top" xlink:title=" ">
<polygon fill="none" stroke="black" points="214.9,-168.5 214.9,-187.5 297.9,-187.5 297.9,-168.5 214.9,-168.5"/>
<text text-anchor="middle" x="256.4" y="-175.5" font-family="Helvetica,sans-Serif" font-size="10.00">arg_iface.hpp</text>
</a>
</g>
</g>
<!-- Node2&#45;&gt;Node3 -->
<g id="edge2" class="edge">
<title>Node2&#45;&gt;Node3</title>
<path fill="none" stroke="midnightblue" d="M315.16,-224.32C304.6,-216.18 288.6,-203.84 275.96,-194.09"/>
<polygon fill="midnightblue" stroke="midnightblue" points="277.91,-191.17 267.85,-187.83 273.63,-196.71 277.91,-191.17"/>
</g>
<!-- Node4 -->
<g id="node4" class="node">
<title>Node4</title>
<g id="a_node4"><a xlink:href="utils_8hpp.html" target="_top" xlink:title=" ">
<polygon fill="none" stroke="black" points="309.9,-112.5 309.9,-131.5 368.9,-131.5 368.9,-112.5 309.9,-112.5"/>
<text text-anchor="middle" x="339.4" y="-119.5" font-family="Helvetica,sans-Serif" font-size="10.00">utils.hpp</text>
</a>
</g>
</g>
<!-- Node2&#45;&gt;Node4 -->
<g id="edge12" class="edge">
<title>Node2&#45;&gt;Node4</title>
<path fill="none" stroke="midnightblue" d="M327.42,-224.37C329.52,-206.62 334.36,-165.67 337.2,-141.6"/>
<polygon fill="midnightblue" stroke="midnightblue" points="340.69,-141.93 338.39,-131.59 333.74,-141.11 340.69,-141.93"/>
</g>
<!-- Node2&#45;&gt;Node5 -->
<g id="edge16" class="edge">
<title>Node2&#45;&gt;Node5</title>
<path fill="none" stroke="midnightblue" d="M282.63,-224.46C257.81,-217.85 227.41,-206.58 205.4,-188 171.99,-159.79 150.94,-111.35 141.39,-85.13"/>
<polygon fill="midnightblue" stroke="midnightblue" points="144.69,-83.97 138.1,-75.67 138.08,-86.27 144.69,-83.97"/>
</g>
<!-- Node8 -->
<g id="node8" class="node">
<title>Node8</title>
<g id="a_node8"><a xlink:title=" ">
<polygon fill="none" stroke="#bfbfbf" points="2.9,-0.5 2.9,-19.5 49.9,-19.5 49.9,-0.5 2.9,-0.5"/>
<text text-anchor="middle" x="26.4" y="-7.5" font-family="Helvetica,sans-Serif" font-size="10.00">vector</text>
</a>
</g>
</g>
<!-- Node2&#45;&gt;Node8 -->
<g id="edge17" class="edge">
<title>Node2&#45;&gt;Node8</title>
<path fill="none" stroke="midnightblue" d="M278.62,-232.27C203.12,-230.11 61.12,-221.55 25.4,-188 -18.43,-146.83 5.33,-65.18 18.96,-28.99"/>
<polygon fill="midnightblue" stroke="midnightblue" points="22.22,-30.27 22.63,-19.69 15.71,-27.71 22.22,-30.27"/>
</g>
<!-- Node2&#45;&gt;Node9 -->
<g id="edge19" class="edge">
<title>Node2&#45;&gt;Node9</title>
<path fill="none" stroke="midnightblue" d="M374.03,-228.23C425.67,-222.04 503.41,-209.41 523.4,-188 549.31,-160.24 548.32,-112.33 545.35,-85.89"/>
<polygon fill="midnightblue" stroke="midnightblue" points="548.78,-85.14 543.98,-75.7 541.84,-86.08 548.78,-85.14"/>
</g>
<!-- Node10 -->
<g id="node10" class="node">
<title>Node10</title>
<g id="a_node10"><a xlink:title=" ">
<polygon fill="none" stroke="#bfbfbf" points="333.9,-56.5 333.9,-75.5 402.9,-75.5 402.9,-56.5 333.9,-56.5"/>
<text text-anchor="middle" x="368.4" y="-63.5" font-family="Helvetica,sans-Serif" font-size="10.00">type_traits</text>
</a>
</g>
</g>
<!-- Node2&#45;&gt;Node10 -->
<g id="edge18" class="edge">
<title>Node2&#45;&gt;Node10</title>
<path fill="none" stroke="midnightblue" d="M332.67,-224.38C344.43,-207.61 369.44,-168.99 378.4,-132 382.18,-116.4 378.79,-98.32 374.97,-85.2"/>
<polygon fill="midnightblue" stroke="midnightblue" points="378.23,-83.92 371.8,-75.5 371.58,-86.1 378.23,-83.92"/>
</g>
<!-- Node12 -->
<g id="node12" class="node">
<title>Node12</title>
<g id="a_node12"><a xlink:href="exceptions_8hpp.html" target="_top" xlink:title=" ">
<polygon fill="none" stroke="black" points="34.9,-168.5 34.9,-187.5 125.9,-187.5 125.9,-168.5 34.9,-168.5"/>
<text text-anchor="middle" x="80.4" y="-175.5" font-family="Helvetica,sans-Serif" font-size="10.00">exceptions.hpp</text>
</a>
</g>
</g>
<!-- Node2&#45;&gt;Node12 -->
<g id="edge13" class="edge">
<title>Node2&#45;&gt;Node12</title>
<path fill="none" stroke="midnightblue" d="M287.42,-224.44C244.51,-215.02 175.46,-199.87 129.03,-189.68"/>
<polygon fill="midnightblue" stroke="midnightblue" points="129.72,-186.24 119.2,-187.52 128.22,-193.08 129.72,-186.24"/>
</g>
<!-- Node14 -->
<g id="node14" class="node">
<title>Node14</title>
<g id="a_node14"><a xlink:title=" ">
<polygon fill="none" stroke="#bfbfbf" points="392.9,-168.5 392.9,-187.5 437.9,-187.5 437.9,-168.5 392.9,-168.5"/>
<text text-anchor="middle" x="415.4" y="-175.5" font-family="Helvetica,sans-Serif" font-size="10.00">utility</text>
</a>
</g>
</g>
<!-- Node2&#45;&gt;Node14 -->
<g id="edge20" class="edge">
<title>Node2&#45;&gt;Node14</title>
<path fill="none" stroke="midnightblue" d="M340.7,-224.32C354.59,-215.9 375.89,-202.97 392.21,-193.07"/>
<polygon fill="midnightblue" stroke="midnightblue" points="394.4,-195.83 401.14,-187.65 390.77,-189.85 394.4,-195.83"/>
</g>
<!-- Node15 -->
<g id="node15" class="node">
<title>Node15</title>
<g id="a_node15"><a xlink:title=" ">
<polygon fill="none" stroke="#bfbfbf" points="456.4,-168.5 456.4,-187.5 514.4,-187.5 514.4,-168.5 456.4,-168.5"/>
<text text-anchor="middle" x="485.4" y="-175.5" font-family="Helvetica,sans-Serif" font-size="10.00">memory</text>
</a>
</g>
</g>
<!-- Node2&#45;&gt;Node15 -->
<g id="edge21" class="edge">
<title>Node2&#45;&gt;Node15</title>
<path fill="none" stroke="midnightblue" d="M351.6,-224.44C378.34,-215.36 420.8,-200.94 450.71,-190.78"/>
<polygon fill="midnightblue" stroke="midnightblue" points="451.98,-194.05 460.33,-187.52 449.73,-187.42 451.98,-194.05"/>
</g>
<!-- Node3&#45;&gt;Node4 -->
<g id="edge3" class="edge">
<title>Node3&#45;&gt;Node4</title>
<path fill="none" stroke="midnightblue" d="M269.74,-168.32C282.56,-159.98 302.19,-147.21 317.34,-137.35"/>
<polygon fill="midnightblue" stroke="midnightblue" points="319.63,-140.04 326.1,-131.65 315.81,-134.17 319.63,-140.04"/>
</g>
<!-- Node3&#45;&gt;Node5 -->
<g id="edge10" class="edge">
<title>Node3&#45;&gt;Node5</title>
<path fill="none" stroke="midnightblue" d="M246.91,-168.37C226.5,-149.81 178.21,-105.91 152.38,-82.44"/>
<polygon fill="midnightblue" stroke="midnightblue" points="154.61,-79.73 144.85,-75.59 149.9,-84.91 154.61,-79.73"/>
</g>
<!-- Node11 -->
<g id="node11" class="node">
<title>Node11</title>
<g id="a_node11"><a xlink:href="enums_8hpp.html" target="_top" xlink:title=" ">
<polygon fill="none" stroke="black" points="220.9,-112.5 220.9,-131.5 291.9,-131.5 291.9,-112.5 220.9,-112.5"/>
<text text-anchor="middle" x="256.4" y="-119.5" font-family="Helvetica,sans-Serif" font-size="10.00">enums.hpp</text>
</a>
</g>
</g>
<!-- Node3&#45;&gt;Node11 -->
<g id="edge11" class="edge">
<title>Node3&#45;&gt;Node11</title>
<path fill="none" stroke="midnightblue" d="M256.4,-168.08C256.4,-161.01 256.4,-150.86 256.4,-141.99"/>
<polygon fill="midnightblue" stroke="midnightblue" points="259.9,-141.75 256.4,-131.75 252.9,-141.75 259.9,-141.75"/>
</g>
<!-- Node4&#45;&gt;Node5 -->
<g id="edge4" class="edge">
<title>Node4&#45;&gt;Node5</title>
<path fill="none" stroke="midnightblue" d="M309.74,-113.15C274.97,-103.95 217.11,-88.63 177.66,-78.18"/>
<polygon fill="midnightblue" stroke="midnightblue" points="178.36,-74.75 167.8,-75.58 176.57,-81.52 178.36,-74.75"/>
</g>
<!-- Node4&#45;&gt;Node9 -->
<g id="edge8" class="edge">
<title>Node4&#45;&gt;Node9</title>
<path fill="none" stroke="midnightblue" d="M368.92,-113.15C403.52,-103.95 461.1,-88.63 500.36,-78.18"/>
<polygon fill="midnightblue" stroke="midnightblue" points="501.4,-81.53 510.16,-75.58 499.6,-74.76 501.4,-81.53"/>
</g>
<!-- Node4&#45;&gt;Node10 -->
<g id="edge9" class="edge">
<title>Node4&#45;&gt;Node10</title>
<path fill="none" stroke="midnightblue" d="M344.19,-112.08C348.16,-104.69 353.93,-93.95 358.84,-84.81"/>
<polygon fill="midnightblue" stroke="midnightblue" points="362.05,-86.22 363.7,-75.75 355.89,-82.91 362.05,-86.22"/>
</g>
<!-- Node6 -->
<g id="node6" class="node">
<title>Node6</title>
<g id="a_node6"><a xlink:title=" ">
<polygon fill="none" stroke="#bfbfbf" points="171.4,-0.5 171.4,-19.5 215.4,-19.5 215.4,-0.5 171.4,-0.5"/>
<text text-anchor="middle" x="193.4" y="-7.5" font-family="Helvetica,sans-Serif" font-size="10.00">string</text>
</a>
</g>
</g>
<!-- Node5&#45;&gt;Node6 -->
<g id="edge5" class="edge">
<title>Node5&#45;&gt;Node6</title>
<path fill="none" stroke="midnightblue" d="M144.72,-56.32C153.29,-48.34 166.21,-36.31 176.59,-26.65"/>
<polygon fill="midnightblue" stroke="midnightblue" points="178.98,-29.21 183.91,-19.83 174.21,-24.09 178.98,-29.21"/>
</g>
<!-- Node7 -->
<g id="node7" class="node">
<title>Node7</title>
<g id="a_node7"><a xlink:title=" ">
<polygon fill="none" stroke="#bfbfbf" points="93.4,-0.5 93.4,-19.5 153.4,-19.5 153.4,-0.5 93.4,-0.5"/>
<text text-anchor="middle" x="123.4" y="-7.5" font-family="Helvetica,sans-Serif" font-size="10.00">iostream</text>
</a>
</g>
</g>
<!-- Node5&#45;&gt;Node7 -->
<g id="edge6" class="edge">
<title>Node5&#45;&gt;Node7</title>
<path fill="none" stroke="midnightblue" d="M133.42,-56.08C131.83,-48.93 129.54,-38.64 127.56,-29.69"/>
<polygon fill="midnightblue" stroke="midnightblue" points="130.93,-28.75 125.35,-19.75 124.1,-30.27 130.93,-28.75"/>
</g>
<!-- Node5&#45;&gt;Node8 -->
<g id="edge7" class="edge">
<title>Node5&#45;&gt;Node8</title>
<path fill="none" stroke="midnightblue" d="M117.89,-56.32C100.33,-47.62 73.07,-34.12 52.87,-24.11"/>
<polygon fill="midnightblue" stroke="midnightblue" points="54.39,-20.96 43.87,-19.65 51.28,-27.23 54.39,-20.96"/>
</g>
<!-- Node12&#45;&gt;Node5 -->
<g id="edge15" class="edge">
<title>Node12&#45;&gt;Node5</title>
<path fill="none" stroke="midnightblue" d="M84.72,-168.37C93.71,-150.38 114.63,-108.55 126.59,-84.63"/>
<polygon fill="midnightblue" stroke="midnightblue" points="129.76,-86.1 131.11,-75.59 123.5,-82.97 129.76,-86.1"/>
</g>
<!-- Node13 -->
<g id="node13" class="node">
<title>Node13</title>
<g id="a_node13"><a xlink:title=" ">
<polygon fill="none" stroke="#bfbfbf" points="22.9,-112.5 22.9,-131.5 87.9,-131.5 87.9,-112.5 22.9,-112.5"/>
<text text-anchor="middle" x="55.4" y="-119.5" font-family="Helvetica,sans-Serif" font-size="10.00">stdexcept</text>
</a>
</g>
</g>
<!-- Node12&#45;&gt;Node13 -->
<g id="edge14" class="edge">
<title>Node12&#45;&gt;Node13</title>
<path fill="none" stroke="midnightblue" d="M76.27,-168.08C72.89,-160.77 67.99,-150.18 63.78,-141.1"/>
<polygon fill="midnightblue" stroke="midnightblue" points="66.83,-139.36 59.45,-131.75 60.48,-142.3 66.83,-139.36"/>
</g>
</g>
</svg>
        <g id="navigator" transform="translate(0 0)" fill="#404254">
                <rect fill="#f2f5e9" fill-opacity="0.5" stroke="#606060" stroke-width=".5" x="0" y="0" width="60" height="60"/>
                <use id="zoomplus" xlink:href="#zoomPlus" x="17" y="9" onmousedown="handleZoom(evt,'in')"/>
                <use id="zoomminus" xlink:href="#zoomMin" x="42" y="9" onmousedown="handleZoom(evt,'out')"/>
                <use id="reset" xlink:href="#resetDef" x="30" y="36" onmousedown="handleReset()"/>
                <g id="arrowUp" xlink:href="#dirArrow" transform="translate(30 24)" onmousedown="handlePan(0,-1)">
                  <use xlink:href="#rim" fill="#404040">
                        <set attributeName="fill" to="#808080" begin="arrowUp.mouseover" end="arrowUp.mouseout"/>
                  </use>
                  <path fill="none" stroke="white" stroke-width="1.5" d="M0,-3.0v7 M-2.5,-0.5L0,-3.0L2.5,-0.5"/>
                </g>
                <g id="arrowRight" xlink:href="#dirArrow" transform="rotate(90) translate(36 -43)" onmousedown="handlePan(1,0)">
                  <use xlink:href="#rim" fill="#404040">
                        <set attributeName="fill" to="#808080" begin="arrowRight.mouseover" end="arrowRight.mouseout"/>
                  </use>
                  <path fill="none" stroke="white" stroke-width="1.5" d="M0,-3.0v7 M-2.5,-0.5L0,-3.0L2.5,-0.5"/>
                </g>
                <g id="arrowDown" xlink:href="#dirArrow" transform="rotate(180) translate(-30 -48)" onmousedown="handlePan(0,1)">
                  <use xlink:href="#rim" fill="#404040">
                        <set attributeName="fill" to="#808080" begin="arrowDown.mouseover" end="arrowDown.mouseout"/>
                  </use>
                  <path fill="none" stroke="white" stroke-width="1.5" d="M0,-3.0v7 M-2.5,-0.5L0,-3.0L2.5,-0.5"/>
                </g>
                <g id="arrowLeft" xlink:href="#dirArrow" transform="rotate(270) translate(-36 17)" onmousedown="handlePan(-1,0)">
                  <use xlink:href="#rim" fill="#404040">
                        <set attributeName="fill" to="#808080" begin="arrowLeft.mouseover" end="arrowLeft.mouseout"/>
                  </use>
                  <path fill="none" stroke="white" stroke-width="1.5" d="M0,-3.0v7 M-2.5,-0.5L0,-3.0L2.5,-0.5"/>
                </g>
        </g>
        <svg viewBox="0 0 15 15" width="100%" height="30px" preserveAspectRatio="xMaxYMin meet">
         <g id="arrow_out" transform="scale(0.3 0.3)">
          <a xlink:href="groups_8hpp__incl_org.svg" target="_base">
           <rect id="button" ry="5" rx="5" y="6" x="6" height="38" width="38"
                fill="#f2f5e9" fill-opacity="0.5" stroke="#606060" stroke-width="1.0"/>
           <path id="arrow"
             d="M 11.500037,31.436501 C 11.940474,20.09759 22.043105,11.32322 32.158766,21.979434 L 37.068811,17.246167 C 37.068811,17.246167 37.088388,32 37.088388,32 L 22.160133,31.978069 C 22.160133,31.978069 26.997745,27.140456 26.997745,27.140456 C 18.528582,18.264221 13.291696,25.230495 11.500037,31.436501 z"
             style="fill:#404040;"/>
          </a>
         </g>
        </svg>
</svg>
