<?xml version="1.0" encoding="UTF-8" standalone="no"?>
<!DOCTYPE svg PUBLIC "-//W3C//DTD SVG 1.1//EN"
 "http://www.w3.org/Graphics/SVG/1.1/DTD/svg11.dtd">
<!-- Generated by graphviz version 2.38.0 (20140413.2041)
 -->
<!-- Title: group_iface.hpp Pages: 1 -->
<svg width="256pt" height="252pt"
 viewBox="0.00 0.00 255.50 252.00" xmlns="http://www.w3.org/2000/svg" xmlns:xlink="http://www.w3.org/1999/xlink">
<g id="graph0" class="graph" transform="scale(1 1) rotate(0) translate(4 248)">
<title>group_iface.hpp</title>
<!-- Node1 -->
<g id="node1" class="node"><title>Node1</title>
<polygon fill="#bfbfbf" stroke="black" points="98.5,-224.5 98.5,-243.5 184.5,-243.5 184.5,-224.5 98.5,-224.5"/>
<text text-anchor="middle" x="141.5" y="-231.5" font-family="Helvetica,sans-Serif" font-size="10.00">group_iface.hpp</text>
</g>
<!-- Node2 -->
<g id="node2" class="node"><title>Node2</title>
<g id="a_node2"><a xlink:href="groups_8hpp.html" target="_top" xlink:title="groups.hpp">
<polygon fill="none" stroke="black" points="48,-168.5 48,-187.5 113,-187.5 113,-168.5 48,-168.5"/>
<text text-anchor="middle" x="80.5" y="-175.5" font-family="Helvetica,sans-Serif" font-size="10.00">groups.hpp</text>
</a>
</g>
</g>
<!-- Node1&#45;&gt;Node2 -->
<g id="edge1" class="edge"><title>Node1&#45;&gt;Node2</title>
<path fill="none" stroke="midnightblue" d="M124.033,-217.537C113.156,-207.909 99.5561,-195.869 90.479,-187.834"/>
<polygon fill="midnightblue" stroke="midnightblue" points="121.892,-220.316 131.699,-224.324 126.532,-215.075 121.892,-220.316"/>
</g>
<!-- Node7 -->
<g id="node7" class="node"><title>Node7</title>
<g id="a_node7"><a xlink:href="help__printer_8hpp.html" target="_top" xlink:title="help_printer.hpp">
<polygon fill="none" stroke="black" points="98.5,-112.5 98.5,-131.5 184.5,-131.5 184.5,-112.5 98.5,-112.5"/>
<text text-anchor="middle" x="141.5" y="-119.5" font-family="Helvetica,sans-Serif" font-size="10.00">help_printer.hpp</text>
</a>
</g>
</g>
<!-- Node1&#45;&gt;Node7 -->
<g id="edge12" class="edge"><title>Node1&#45;&gt;Node7</title>
<path fill="none" stroke="midnightblue" d="M141.5,-214.348C141.5,-190.254 141.5,-149.308 141.5,-131.591"/>
<polygon fill="midnightblue" stroke="midnightblue" points="138,-214.368 141.5,-224.368 145,-214.369 138,-214.368"/>
</g>
<!-- Node8 -->
<g id="node8" class="node"><title>Node8</title>
<g id="a_node8"><a xlink:href="command_8hpp.html" target="_top" xlink:title="command.hpp">
<polygon fill="none" stroke="black" points="169.5,-168.5 169.5,-187.5 247.5,-187.5 247.5,-168.5 169.5,-168.5"/>
<text text-anchor="middle" x="208.5" y="-175.5" font-family="Helvetica,sans-Serif" font-size="10.00">command.hpp</text>
</a>
</g>
</g>
<!-- Node1&#45;&gt;Node8 -->
<g id="edge9" class="edge"><title>Node1&#45;&gt;Node8</title>
<path fill="none" stroke="midnightblue" d="M160.335,-217.82C172.338,-208.145 187.472,-195.948 197.539,-187.834"/>
<polygon fill="midnightblue" stroke="midnightblue" points="157.854,-215.324 152.265,-224.324 162.247,-220.774 157.854,-215.324"/>
</g>
<!-- Node3 -->
<g id="node3" class="node"><title>Node3</title>
<g id="a_node3"><a xlink:href="api_8hpp.html" target="_top" xlink:title="api.hpp">
<polygon fill="none" stroke="black" points="32.5,-112.5 32.5,-131.5 80.5,-131.5 80.5,-112.5 32.5,-112.5"/>
<text text-anchor="middle" x="56.5" y="-119.5" font-family="Helvetica,sans-Serif" font-size="10.00">api.hpp</text>
</a>
</g>
</g>
<!-- Node2&#45;&gt;Node3 -->
<g id="edge2" class="edge"><title>Node2&#45;&gt;Node3</title>
<path fill="none" stroke="midnightblue" d="M72.3621,-158.69C68.3174,-149.589 63.6174,-139.014 60.3894,-131.751"/>
<polygon fill="midnightblue" stroke="midnightblue" points="69.2771,-160.366 76.5369,-168.083 75.6738,-157.523 69.2771,-160.366"/>
</g>
<!-- Node2&#45;&gt;Node7 -->
<g id="edge7" class="edge"><title>Node2&#45;&gt;Node7</title>
<path fill="none" stroke="midnightblue" d="M97.9672,-161.537C108.844,-151.909 122.444,-139.869 131.521,-131.834"/>
<polygon fill="midnightblue" stroke="midnightblue" points="95.4684,-159.075 90.3007,-168.324 100.108,-164.316 95.4684,-159.075"/>
</g>
<!-- Node4 -->
<g id="node4" class="node"><title>Node4</title>
<g id="a_node4"><a xlink:href="cmd__line_8hpp.html" target="_top" xlink:title="cmd_line.hpp">
<polygon fill="none" stroke="black" points="104.5,-56.5 104.5,-75.5 178.5,-75.5 178.5,-56.5 104.5,-56.5"/>
<text text-anchor="middle" x="141.5" y="-63.5" font-family="Helvetica,sans-Serif" font-size="10.00">cmd_line.hpp</text>
</a>
</g>
</g>
<!-- Node3&#45;&gt;Node4 -->
<g id="edge3" class="edge"><title>Node3&#45;&gt;Node4</title>
<path fill="none" stroke="midnightblue" d="M78.6936,-106.901C94.28,-96.9986 114.63,-84.0705 127.877,-75.6545"/>
<polygon fill="midnightblue" stroke="midnightblue" points="76.7206,-104.007 70.1567,-112.324 80.4743,-109.916 76.7206,-104.007"/>
</g>
<!-- Node5 -->
<g id="node5" class="node"><title>Node5</title>
<g id="a_node5"><a xlink:href="all_8hpp.html" target="_top" xlink:title="all.hpp">
<polygon fill="none" stroke="black" points="131,-0.5 131,-19.5 176,-19.5 176,-0.5 131,-0.5"/>
<text text-anchor="middle" x="153.5" y="-7.5" font-family="Helvetica,sans-Serif" font-size="10.00">all.hpp</text>
</a>
</g>
</g>
<!-- Node4&#45;&gt;Node5 -->
<g id="edge4" class="edge"><title>Node4&#45;&gt;Node5</title>
<path fill="none" stroke="midnightblue" d="M145.7,-46.1005C147.692,-37.1357 149.976,-26.8579 151.555,-19.7511"/>
<polygon fill="midnightblue" stroke="midnightblue" points="142.234,-45.5618 143.482,-56.083 149.068,-47.0804 142.234,-45.5618"/>
</g>
<!-- Node6 -->
<g id="node6" class="node"><title>Node6</title>
<g id="a_node6"><a xlink:href="arg__as__command_8hpp.html" target="_top" xlink:title="arg_as_command.hpp">
<polygon fill="none" stroke="black" points="0,-0.5 0,-19.5 113,-19.5 113,-0.5 0,-0.5"/>
<text text-anchor="middle" x="56.5" y="-7.5" font-family="Helvetica,sans-Serif" font-size="10.00">arg_as_command.hpp</text>
</a>
</g>
</g>
<!-- Node4&#45;&gt;Node6 -->
<g id="edge5" class="edge"><title>Node4&#45;&gt;Node6</title>
<path fill="none" stroke="midnightblue" d="M119.306,-50.9005C103.72,-40.9986 83.3703,-28.0705 70.1228,-19.6545"/>
<polygon fill="midnightblue" stroke="midnightblue" points="117.526,-53.9158 127.843,-56.324 121.279,-48.0073 117.526,-53.9158"/>
</g>
<!-- Node6&#45;&gt;Node3 -->
<g id="edge6" class="edge"><title>Node6&#45;&gt;Node3</title>
<path fill="none" stroke="midnightblue" d="M56.5,-29.5974C56.5,-53.6664 56.5,-94.617 56.5,-112.368"/>
<polygon fill="midnightblue" stroke="midnightblue" points="60.0001,-29.5914 56.5,-19.5914 53.0001,-29.5915 60.0001,-29.5914"/>
</g>
<!-- Node7&#45;&gt;Node4 -->
<g id="edge8" class="edge"><title>Node7&#45;&gt;Node4</title>
<path fill="none" stroke="midnightblue" d="M141.5,-101.805C141.5,-92.9102 141.5,-82.7798 141.5,-75.7511"/>
<polygon fill="midnightblue" stroke="midnightblue" points="138,-102.083 141.5,-112.083 145,-102.083 138,-102.083"/>
</g>
<!-- Node8&#45;&gt;Node4 -->
<g id="edge10" class="edge"><title>Node8&#45;&gt;Node4</title>
<path fill="none" stroke="midnightblue" d="M207.28,-158.246C205.682,-144.594 201.996,-126.106 193.5,-112 184.137,-96.4549 167.561,-83.5054 155.637,-75.5494"/>
<polygon fill="midnightblue" stroke="midnightblue" points="203.809,-158.726 208.191,-168.372 210.781,-158.099 203.809,-158.726"/>
</g>
<!-- Node8&#45;&gt;Node7 -->
<g id="edge11" class="edge"><title>Node8&#45;&gt;Node7</title>
<path fill="none" stroke="midnightblue" d="M189.665,-161.82C177.662,-152.145 162.528,-139.948 152.461,-131.834"/>
<polygon fill="midnightblue" stroke="midnightblue" points="187.753,-164.774 197.735,-168.324 192.146,-159.324 187.753,-164.774"/>
</g>
</g>
</svg>
