<?xml version="1.0" encoding="UTF-8" standalone="no"?>
<!DOCTYPE svg PUBLIC "-//W3C//DTD SVG 1.1//EN"
 "http://www.w3.org/Graphics/SVG/1.1/DTD/svg11.dtd">
<!-- Generated by graphviz version 2.43.0 (0)
 -->
<!-- Title: groups.hpp Pages: 1 -->
<svg width="177pt" height="308pt"
 viewBox="0.00 0.00 176.50 308.00" xmlns="http://www.w3.org/2000/svg" xmlns:xlink="http://www.w3.org/1999/xlink">
<g id="graph0" class="graph" transform="scale(1 1) rotate(0) translate(4 304)">
<title>groups.hpp</title>
<!-- Node1 -->
<g id="node1" class="node">
<title>Node1</title>
<g id="a_node1"><a xlink:title=" ">
<polygon fill="#bfbfbf" stroke="black" points="75.5,-280.5 75.5,-299.5 146.5,-299.5 146.5,-280.5 75.5,-280.5"/>
<text text-anchor="middle" x="111" y="-287.5" font-family="Helvetica,sans-Serif" font-size="10.00">groups.hpp</text>
</a>
</g>
</g>
<!-- Node2 -->
<g id="node2" class="node">
<title>Node2</title>
<g id="a_node2"><a xlink:href="api_8hpp.html" target="_top" xlink:title=" ">
<polygon fill="none" stroke="black" points="36.5,-224.5 36.5,-243.5 89.5,-243.5 89.5,-224.5 36.5,-224.5"/>
<text text-anchor="middle" x="63" y="-231.5" font-family="Helvetica,sans-Serif" font-size="10.00">api.hpp</text>
</a>
</g>
</g>
<!-- Node1&#45;&gt;Node2 -->
<g id="edge1" class="edge">
<title>Node1&#45;&gt;Node2</title>
<path fill="none" stroke="midnightblue" d="M96.27,-272.43C87.86,-262.97 77.65,-251.48 70.78,-243.75"/>
<polygon fill="midnightblue" stroke="midnightblue" points="93.81,-274.93 103.07,-280.08 99.05,-270.28 93.81,-274.93"/>
</g>
<!-- Node5 -->
<g id="node5" class="node">
<title>Node5</title>
<g id="a_node5"><a xlink:href="help__printer_8hpp.html" target="_top" xlink:title=" ">
<polygon fill="none" stroke="black" points="73.5,-0.5 73.5,-19.5 168.5,-19.5 168.5,-0.5 73.5,-0.5"/>
<text text-anchor="middle" x="121" y="-7.5" font-family="Helvetica,sans-Serif" font-size="10.00">help_printer.hpp</text>
</a>
</g>
</g>
<!-- Node1&#45;&gt;Node5 -->
<g id="edge12" class="edge">
<title>Node1&#45;&gt;Node5</title>
<path fill="none" stroke="midnightblue" d="M123.62,-272.08C137.84,-251.29 159,-214.42 159,-179 159,-179 159,-179 159,-121 159,-81.4 136.73,-37.96 126.28,-19.77"/>
<polygon fill="midnightblue" stroke="midnightblue" points="120.62,-270.26 117.67,-280.44 126.32,-274.32 120.62,-270.26"/>
</g>
<!-- Node3 -->
<g id="node3" class="node">
<title>Node3</title>
<g id="a_node3"><a xlink:href="cmd__line_8hpp.html" target="_top" xlink:title=" ">
<polygon fill="none" stroke="black" points="0,-56.5 0,-75.5 82,-75.5 82,-56.5 0,-56.5"/>
<text text-anchor="middle" x="41" y="-63.5" font-family="Helvetica,sans-Serif" font-size="10.00">cmd_line.hpp</text>
</a>
</g>
</g>
<!-- Node2&#45;&gt;Node3 -->
<g id="edge2" class="edge">
<title>Node2&#45;&gt;Node3</title>
<path fill="none" stroke="midnightblue" d="M38.63,-218.73C28.05,-211.09 16.78,-200.64 11,-188 -7.17,-148.24 22.01,-95.89 35.13,-75.57"/>
<polygon fill="midnightblue" stroke="midnightblue" points="36.96,-221.82 47.22,-224.47 40.85,-216 36.96,-221.82"/>
</g>
<!-- Node6 -->
<g id="node6" class="node">
<title>Node6</title>
<g id="a_node6"><a xlink:href="command_8hpp.html" target="_top" xlink:title=" ">
<polygon fill="none" stroke="black" points="20,-168.5 20,-187.5 106,-187.5 106,-168.5 20,-168.5"/>
<text text-anchor="middle" x="63" y="-175.5" font-family="Helvetica,sans-Serif" font-size="10.00">command.hpp</text>
</a>
</g>
</g>
<!-- Node2&#45;&gt;Node6 -->
<g id="edge6" class="edge">
<title>Node2&#45;&gt;Node6</title>
<path fill="none" stroke="midnightblue" d="M56.53,-214.1C55.9,-205.14 56.34,-194.86 57.87,-187.75"/>
<polygon fill="midnightblue" stroke="midnightblue" points="53.07,-214.62 57.83,-224.08 60.01,-213.71 53.07,-214.62"/>
</g>
<!-- Node4 -->
<g id="node4" class="node">
<title>Node4</title>
<g id="a_node4"><a xlink:href="all_8hpp.html" target="_top" xlink:title=" ">
<polygon fill="none" stroke="black" points="5,-0.5 5,-19.5 55,-19.5 55,-0.5 5,-0.5"/>
<text text-anchor="middle" x="30" y="-7.5" font-family="Helvetica,sans-Serif" font-size="10.00">all.hpp</text>
</a>
</g>
</g>
<!-- Node3&#45;&gt;Node4 -->
<g id="edge3" class="edge">
<title>Node3&#45;&gt;Node4</title>
<path fill="none" stroke="midnightblue" d="M37.15,-46.1C35.32,-37.14 33.23,-26.86 31.78,-19.75"/>
<polygon fill="midnightblue" stroke="midnightblue" points="33.76,-46.98 39.18,-56.08 40.62,-45.59 33.76,-46.98"/>
</g>
<!-- Node3&#45;&gt;Node5 -->
<g id="edge4" class="edge">
<title>Node3&#45;&gt;Node5</title>
<path fill="none" stroke="midnightblue" d="M57.02,-50.06C70.41,-40.28 89.17,-27.83 103.07,-19.65"/>
<polygon fill="midnightblue" stroke="midnightblue" points="54.6,-47.5 48.74,-56.32 58.83,-53.08 54.6,-47.5"/>
</g>
<!-- Node5&#45;&gt;Node3 -->
<g id="edge5" class="edge">
<title>Node5&#45;&gt;Node3</title>
<path fill="none" stroke="midnightblue" d="M104.78,-26.09C91.42,-35.84 72.79,-48.18 58.97,-56.32"/>
<polygon fill="midnightblue" stroke="midnightblue" points="107.19,-28.65 113.06,-19.83 102.97,-23.07 107.19,-28.65"/>
</g>
<!-- Node6&#45;&gt;Node2 -->
<g id="edge7" class="edge">
<title>Node6&#45;&gt;Node2</title>
<path fill="none" stroke="midnightblue" d="M69.46,-197.69C70.11,-206.64 69.68,-216.93 68.17,-224.08"/>
<polygon fill="midnightblue" stroke="midnightblue" points="72.92,-197.2 68.13,-187.75 65.98,-198.13 72.92,-197.2"/>
</g>
<!-- Node6&#45;&gt;Node3 -->
<g id="edge8" class="edge">
<title>Node6&#45;&gt;Node3</title>
<path fill="none" stroke="midnightblue" d="M44.42,-161.32C36.52,-153.44 28.17,-143.19 24,-132 16.66,-112.33 28.05,-88.18 35.45,-75.58"/>
<polygon fill="midnightblue" stroke="midnightblue" points="42.3,-164.13 52.01,-168.37 47.06,-159 42.3,-164.13"/>
</g>
<!-- Node6&#45;&gt;Node5 -->
<g id="edge11" class="edge">
<title>Node6&#45;&gt;Node5</title>
<path fill="none" stroke="midnightblue" d="M80.01,-161.21C87.62,-153.19 95.99,-142.86 101,-132 119.03,-92.95 121.06,-40.19 121.11,-19.67"/>
<polygon fill="midnightblue" stroke="midnightblue" points="77.42,-158.86 72.8,-168.39 82.36,-163.81 77.42,-158.86"/>
</g>
<!-- Node7 -->
<g id="node7" class="node">
<title>Node7</title>
<g id="a_node7"><a xlink:href="help_8hpp.html" target="_top" xlink:title=" ">
<polygon fill="none" stroke="black" points="33.5,-112.5 33.5,-131.5 92.5,-131.5 92.5,-112.5 33.5,-112.5"/>
<text text-anchor="middle" x="63" y="-119.5" font-family="Helvetica,sans-Serif" font-size="10.00">help.hpp</text>
</a>
</g>
</g>
<!-- Node6&#45;&gt;Node7 -->
<g id="edge9" class="edge">
<title>Node6&#45;&gt;Node7</title>
<path fill="none" stroke="midnightblue" d="M63,-157.8C63,-148.91 63,-138.78 63,-131.75"/>
<polygon fill="midnightblue" stroke="midnightblue" points="59.5,-158.08 63,-168.08 66.5,-158.08 59.5,-158.08"/>
</g>
<!-- Node7&#45;&gt;Node3 -->
<g id="edge10" class="edge">
<title>Node7&#45;&gt;Node3</title>
<path fill="none" stroke="midnightblue" d="M55.54,-102.69C51.83,-93.59 47.52,-83.01 44.57,-75.75"/>
<polygon fill="midnightblue" stroke="midnightblue" points="52.35,-104.14 59.37,-112.08 58.84,-101.5 52.35,-104.14"/>
</g>
</g>
</svg>
