<?xml version="1.0" encoding="UTF-8" standalone="no"?>
<!DOCTYPE svg PUBLIC "-//W3C//DTD SVG 1.1//EN"
 "http://www.w3.org/Graphics/SVG/1.1/DTD/svg11.dtd">
<!-- Generated by graphviz version 2.43.0 (0)
 -->
<!-- Title: group_iface.hpp Pages: 1 -->
<svg width="583pt" height="252pt"
 viewBox="0.00 0.00 582.67 252.00" xmlns="http://www.w3.org/2000/svg" xmlns:xlink="http://www.w3.org/1999/xlink">
<g id="graph0" class="graph" transform="scale(1 1) rotate(0) translate(4 248)">
<title>group_iface.hpp</title>
<!-- Node1 -->
<g id="node1" class="node">
<title>Node1</title>
<g id="a_node1"><a xlink:title=" ">
<polygon fill="#bfbfbf" stroke="black" points="301.17,-224.5 301.17,-243.5 396.17,-243.5 396.17,-224.5 301.17,-224.5"/>
<text text-anchor="middle" x="348.67" y="-231.5" font-family="Helvetica,sans-Serif" font-size="10.00">group_iface.hpp</text>
</a>
</g>
</g>
<!-- Node2 -->
<g id="node2" class="node">
<title>Node2</title>
<g id="a_node2"><a xlink:href="arg__iface_8hpp.html" target="_top" xlink:title=" ">
<polygon fill="none" stroke="black" points="174.17,-168.5 174.17,-187.5 257.17,-187.5 257.17,-168.5 174.17,-168.5"/>
<text text-anchor="middle" x="215.67" y="-175.5" font-family="Helvetica,sans-Serif" font-size="10.00">arg_iface.hpp</text>
</a>
</g>
</g>
<!-- Node1&#45;&gt;Node2 -->
<g id="edge1" class="edge">
<title>Node1&#45;&gt;Node2</title>
<path fill="none" stroke="midnightblue" d="M327.6,-224.44C305.61,-215.52 270.94,-201.44 246.01,-191.32"/>
<polygon fill="midnightblue" stroke="midnightblue" points="247.23,-188.04 236.65,-187.52 244.59,-194.52 247.23,-188.04"/>
</g>
<!-- Node3 -->
<g id="node3" class="node">
<title>Node3</title>
<g id="a_node3"><a xlink:href="utils_8hpp.html" target="_top" xlink:title=" ">
<polygon fill="none" stroke="black" points="261.17,-112.5 261.17,-131.5 320.17,-131.5 320.17,-112.5 261.17,-112.5"/>
<text text-anchor="middle" x="290.67" y="-119.5" font-family="Helvetica,sans-Serif" font-size="10.00">utils.hpp</text>
</a>
</g>
</g>
<!-- Node1&#45;&gt;Node3 -->
<g id="edge11" class="edge">
<title>Node1&#45;&gt;Node3</title>
<path fill="none" stroke="midnightblue" d="M344.12,-224.37C334.63,-206.38 312.58,-164.55 299.96,-140.63"/>
<polygon fill="midnightblue" stroke="midnightblue" points="302.96,-138.8 295.2,-131.59 296.77,-142.07 302.96,-138.8"/>
</g>
<!-- Node4 -->
<g id="node4" class="node">
<title>Node4</title>
<g id="a_node4"><a xlink:href="types_8hpp.html" target="_top" xlink:title=" ">
<polygon fill="none" stroke="black" points="111.17,-56.5 111.17,-75.5 176.17,-75.5 176.17,-56.5 111.17,-56.5"/>
<text text-anchor="middle" x="143.67" y="-63.5" font-family="Helvetica,sans-Serif" font-size="10.00">types.hpp</text>
</a>
</g>
</g>
<!-- Node1&#45;&gt;Node4 -->
<g id="edge15" class="edge">
<title>Node1&#45;&gt;Node4</title>
<path fill="none" stroke="midnightblue" d="M300.91,-229.84C227.93,-224.34 92.72,-211.3 50.67,-188 22,-172.11 14.04,-162.74 2.67,-132 -13.19,-89.13 53.82,-74.54 100.87,-69.57"/>
<polygon fill="midnightblue" stroke="midnightblue" points="101.24,-73.05 110.87,-68.62 100.58,-66.08 101.24,-73.05"/>
</g>
<!-- Node7 -->
<g id="node7" class="node">
<title>Node7</title>
<g id="a_node7"><a xlink:title=" ">
<polygon fill="none" stroke="#bfbfbf" points="314.17,-0.5 314.17,-19.5 361.17,-19.5 361.17,-0.5 314.17,-0.5"/>
<text text-anchor="middle" x="337.67" y="-7.5" font-family="Helvetica,sans-Serif" font-size="10.00">vector</text>
</a>
</g>
</g>
<!-- Node1&#45;&gt;Node7 -->
<g id="edge16" class="edge">
<title>Node1&#45;&gt;Node7</title>
<path fill="none" stroke="midnightblue" d="M356.01,-224.45C377.72,-198.11 438.07,-116.29 405.67,-56 398.05,-41.82 383.77,-31.35 370.26,-24.1"/>
<polygon fill="midnightblue" stroke="midnightblue" points="371.64,-20.88 361.12,-19.59 368.54,-27.16 371.64,-20.88"/>
</g>
<!-- Node8 -->
<g id="node8" class="node">
<title>Node8</title>
<g id="a_node8"><a xlink:title=" ">
<polygon fill="none" stroke="#bfbfbf" points="244.67,-56.5 244.67,-75.5 308.67,-75.5 308.67,-56.5 244.67,-56.5"/>
<text text-anchor="middle" x="276.67" y="-63.5" font-family="Helvetica,sans-Serif" font-size="10.00">algorithm</text>
</a>
</g>
</g>
<!-- Node1&#45;&gt;Node8 -->
<g id="edge18" class="edge">
<title>Node1&#45;&gt;Node8</title>
<path fill="none" stroke="midnightblue" d="M349.17,-224.44C349.99,-203.7 349.79,-149.71 328.67,-112 321.83,-99.79 310.36,-89.33 299.92,-81.58"/>
<polygon fill="midnightblue" stroke="midnightblue" points="301.73,-78.57 291.53,-75.72 297.73,-84.31 301.73,-78.57"/>
</g>
<!-- Node9 -->
<g id="node9" class="node">
<title>Node9</title>
<g id="a_node9"><a xlink:title=" ">
<polygon fill="none" stroke="#bfbfbf" points="327.17,-56.5 327.17,-75.5 396.17,-75.5 396.17,-56.5 327.17,-56.5"/>
<text text-anchor="middle" x="361.67" y="-63.5" font-family="Helvetica,sans-Serif" font-size="10.00">type_traits</text>
</a>
</g>
</g>
<!-- Node1&#45;&gt;Node9 -->
<g id="edge17" class="edge">
<title>Node1&#45;&gt;Node9</title>
<path fill="none" stroke="midnightblue" d="M352.27,-224.22C355.73,-215.28 360.7,-200.94 362.67,-188 368.12,-152.12 365.76,-109.57 363.65,-85.69"/>
<polygon fill="midnightblue" stroke="midnightblue" points="367.12,-85.19 362.67,-75.57 360.15,-85.87 367.12,-85.19"/>
</g>
<!-- Node11 -->
<g id="node11" class="node">
<title>Node11</title>
<g id="a_node11"><a xlink:href="exceptions_8hpp.html" target="_top" xlink:title=" ">
<polygon fill="none" stroke="black" points="60.17,-168.5 60.17,-187.5 151.17,-187.5 151.17,-168.5 60.17,-168.5"/>
<text text-anchor="middle" x="105.67" y="-175.5" font-family="Helvetica,sans-Serif" font-size="10.00">exceptions.hpp</text>
</a>
</g>
</g>
<!-- Node1&#45;&gt;Node11 -->
<g id="edge12" class="edge">
<title>Node1&#45;&gt;Node11</title>
<path fill="none" stroke="midnightblue" d="M310.17,-224.44C267.86,-215.04 199.85,-199.93 154,-189.74"/>
<polygon fill="midnightblue" stroke="midnightblue" points="154.51,-186.27 143.99,-187.52 153,-193.1 154.51,-186.27"/>
</g>
<!-- Node13 -->
<g id="node13" class="node">
<title>Node13</title>
<g id="a_node13"><a xlink:title=" ">
<polygon fill="none" stroke="#bfbfbf" points="453.17,-168.5 453.17,-187.5 498.17,-187.5 498.17,-168.5 453.17,-168.5"/>
<text text-anchor="middle" x="475.67" y="-175.5" font-family="Helvetica,sans-Serif" font-size="10.00">utility</text>
</a>
</g>
</g>
<!-- Node1&#45;&gt;Node13 -->
<g id="edge19" class="edge">
<title>Node1&#45;&gt;Node13</title>
<path fill="none" stroke="midnightblue" d="M368.79,-224.44C389.69,-215.56 422.6,-201.56 446.39,-191.45"/>
<polygon fill="midnightblue" stroke="midnightblue" points="447.81,-194.65 455.64,-187.52 445.07,-188.21 447.81,-194.65"/>
</g>
<!-- Node14 -->
<g id="node14" class="node">
<title>Node14</title>
<g id="a_node14"><a xlink:title=" ">
<polygon fill="none" stroke="#bfbfbf" points="516.67,-168.5 516.67,-187.5 574.67,-187.5 574.67,-168.5 516.67,-168.5"/>
<text text-anchor="middle" x="545.67" y="-175.5" font-family="Helvetica,sans-Serif" font-size="10.00">memory</text>
</a>
</g>
</g>
<!-- Node1&#45;&gt;Node14 -->
<g id="edge20" class="edge">
<title>Node1&#45;&gt;Node14</title>
<path fill="none" stroke="midnightblue" d="M379.88,-224.44C414.2,-215.04 469.38,-199.91 506.55,-189.72"/>
<polygon fill="midnightblue" stroke="midnightblue" points="507.81,-193.01 516.53,-186.99 505.96,-186.26 507.81,-193.01"/>
</g>
<!-- Node2&#45;&gt;Node3 -->
<g id="edge2" class="edge">
<title>Node2&#45;&gt;Node3</title>
<path fill="none" stroke="midnightblue" d="M227.72,-168.32C239.13,-160.11 256.5,-147.6 270.1,-137.81"/>
<polygon fill="midnightblue" stroke="midnightblue" points="272.33,-140.52 278.4,-131.83 268.24,-134.84 272.33,-140.52"/>
</g>
<!-- Node2&#45;&gt;Node4 -->
<g id="edge9" class="edge">
<title>Node2&#45;&gt;Node4</title>
<path fill="none" stroke="midnightblue" d="M201.48,-168.37C189.47,-160.37 172.66,-147.39 162.67,-132 153.57,-117.98 148.72,-99.48 146.2,-85.8"/>
<polygon fill="midnightblue" stroke="midnightblue" points="149.61,-84.98 144.59,-75.65 142.7,-86.08 149.61,-84.98"/>
</g>
<!-- Node10 -->
<g id="node10" class="node">
<title>Node10</title>
<g id="a_node10"><a xlink:href="enums_8hpp.html" target="_top" xlink:title=" ">
<polygon fill="none" stroke="black" points="172.17,-112.5 172.17,-131.5 243.17,-131.5 243.17,-112.5 172.17,-112.5"/>
<text text-anchor="middle" x="207.67" y="-119.5" font-family="Helvetica,sans-Serif" font-size="10.00">enums.hpp</text>
</a>
</g>
</g>
<!-- Node2&#45;&gt;Node10 -->
<g id="edge10" class="edge">
<title>Node2&#45;&gt;Node10</title>
<path fill="none" stroke="midnightblue" d="M214.35,-168.08C213.29,-160.93 211.76,-150.64 210.44,-141.69"/>
<polygon fill="midnightblue" stroke="midnightblue" points="213.89,-141.13 208.97,-131.75 206.97,-142.16 213.89,-141.13"/>
</g>
<!-- Node3&#45;&gt;Node4 -->
<g id="edge3" class="edge">
<title>Node3&#45;&gt;Node4</title>
<path fill="none" stroke="midnightblue" d="M267.38,-112.44C242.86,-103.44 204.07,-89.19 176.47,-79.05"/>
<polygon fill="midnightblue" stroke="midnightblue" points="177.45,-75.68 166.85,-75.52 175.03,-82.25 177.45,-75.68"/>
</g>
<!-- Node3&#45;&gt;Node8 -->
<g id="edge7" class="edge">
<title>Node3&#45;&gt;Node8</title>
<path fill="none" stroke="midnightblue" d="M288.36,-112.08C286.5,-104.93 283.83,-94.64 281.52,-85.69"/>
<polygon fill="midnightblue" stroke="midnightblue" points="284.84,-84.55 278.94,-75.75 278.06,-86.31 284.84,-84.55"/>
</g>
<!-- Node3&#45;&gt;Node9 -->
<g id="edge8" class="edge">
<title>Node3&#45;&gt;Node9</title>
<path fill="none" stroke="midnightblue" d="M302.08,-112.32C312.78,-104.18 329.01,-91.84 341.83,-82.09"/>
<polygon fill="midnightblue" stroke="midnightblue" points="344.21,-84.67 350.05,-75.83 339.98,-79.1 344.21,-84.67"/>
</g>
<!-- Node5 -->
<g id="node5" class="node">
<title>Node5</title>
<g id="a_node5"><a xlink:title=" ">
<polygon fill="none" stroke="#bfbfbf" points="86.67,-0.5 86.67,-19.5 130.67,-19.5 130.67,-0.5 86.67,-0.5"/>
<text text-anchor="middle" x="108.67" y="-7.5" font-family="Helvetica,sans-Serif" font-size="10.00">string</text>
</a>
</g>
</g>
<!-- Node4&#45;&gt;Node5 -->
<g id="edge4" class="edge">
<title>Node4&#45;&gt;Node5</title>
<path fill="none" stroke="midnightblue" d="M137.89,-56.08C133,-48.53 125.84,-37.49 119.84,-28.23"/>
<polygon fill="midnightblue" stroke="midnightblue" points="122.72,-26.24 114.34,-19.75 116.84,-30.05 122.72,-26.24"/>
</g>
<!-- Node6 -->
<g id="node6" class="node">
<title>Node6</title>
<g id="a_node6"><a xlink:title=" ">
<polygon fill="none" stroke="#bfbfbf" points="148.67,-0.5 148.67,-19.5 208.67,-19.5 208.67,-0.5 148.67,-0.5"/>
<text text-anchor="middle" x="178.67" y="-7.5" font-family="Helvetica,sans-Serif" font-size="10.00">iostream</text>
</a>
</g>
</g>
<!-- Node4&#45;&gt;Node6 -->
<g id="edge5" class="edge">
<title>Node4&#45;&gt;Node6</title>
<path fill="none" stroke="midnightblue" d="M149.45,-56.08C154.34,-48.53 161.5,-37.49 167.5,-28.23"/>
<polygon fill="midnightblue" stroke="midnightblue" points="170.5,-30.05 173,-19.75 164.62,-26.24 170.5,-30.05"/>
</g>
<!-- Node4&#45;&gt;Node7 -->
<g id="edge6" class="edge">
<title>Node4&#45;&gt;Node7</title>
<path fill="none" stroke="midnightblue" d="M174.41,-56.44C209.86,-46.58 267.93,-30.41 304.41,-20.26"/>
<polygon fill="midnightblue" stroke="midnightblue" points="305.4,-23.62 314.09,-17.56 303.52,-16.87 305.4,-23.62"/>
</g>
<!-- Node11&#45;&gt;Node4 -->
<g id="edge14" class="edge">
<title>Node11&#45;&gt;Node4</title>
<path fill="none" stroke="midnightblue" d="M108.65,-168.37C114.81,-150.54 129.06,-109.3 137.36,-85.27"/>
<polygon fill="midnightblue" stroke="midnightblue" points="140.74,-86.19 140.7,-75.59 134.13,-83.9 140.74,-86.19"/>
</g>
<!-- Node12 -->
<g id="node12" class="node">
<title>Node12</title>
<g id="a_node12"><a xlink:title=" ">
<polygon fill="none" stroke="#bfbfbf" points="12.17,-112.5 12.17,-131.5 77.17,-131.5 77.17,-112.5 12.17,-112.5"/>
<text text-anchor="middle" x="44.67" y="-119.5" font-family="Helvetica,sans-Serif" font-size="10.00">stdexcept</text>
</a>
</g>
</g>
<!-- Node11&#45;&gt;Node12 -->
<g id="edge13" class="edge">
<title>Node11&#45;&gt;Node12</title>
<path fill="none" stroke="midnightblue" d="M95.87,-168.32C86.85,-160.34 73.26,-148.31 62.35,-138.65"/>
<polygon fill="midnightblue" stroke="midnightblue" points="64.46,-135.84 54.65,-131.83 59.82,-141.08 64.46,-135.84"/>
</g>
</g>
</svg>
