<?xml version="1.0" encoding="UTF-8" standalone="no"?>
<!DOCTYPE svg PUBLIC "-//W3C//DTD SVG 1.1//EN"
 "http://www.w3.org/Graphics/SVG/1.1/DTD/svg11.dtd">
<!-- Generated by graphviz version 2.43.0 (0)
 -->
<!-- Title: group_iface.hpp Pages: 1 -->
<!--zoomable 252 -->
<svg id="main" version="1.1" xmlns="http://www.w3.org/2000/svg" xmlns:xlink="http://www.w3.org/1999/xlink" xml:space="preserve" onload="init(evt)">
<style type="text/css"><![CDATA[
.edge:hover path { stroke: red; }
.edge:hover polygon { stroke: red; fill: red; }
]]></style>
<script type="text/javascript"><![CDATA[
var edges = document.getElementsByTagName('g');
if (edges && edges.length) {
  for (var i=0;i<edges.length;i++) {
    if (edges[i].id.substr(0,4)=='edge') {
      edges[i].setAttribute('class','edge');
    }
  }
}
]]></script>
        <defs>
                <circle id="rim" cx="0" cy="0" r="7"/>
                <circle id="rim2" cx="0" cy="0" r="3.5"/>
                <g id="zoomPlus">
                        <use xlink:href="#rim" fill="#404040">
                                <set attributeName="fill" to="#808080" begin="zoomplus.mouseover" end="zoomplus.mouseout"/>
                        </use>
                        <path d="M-4,0h8M0,-4v8" fill="none" stroke="white" stroke-width="1.5" pointer-events="none"/>
                </g>
                <g id="zoomMin">
                        <use xlink:href="#rim" fill="#404040">
                                <set attributeName="fill" to="#808080" begin="zoomminus.mouseover" end="zoomminus.mouseout"/>
                        </use>
                        <path d="M-4,0h8" fill="none" stroke="white" stroke-width="1.5" pointer-events="none"/>
                </g>
                <g id="dirArrow">
                        <path fill="none" stroke="white" stroke-width="1.5" d="M0,-3.0v7 M-2.5,-0.5L0,-3.0L2.5,-0.5"/>
                </g>
               <g id="resetDef">
                       <use xlink:href="#rim2" fill="#404040">
                               <set attributeName="fill" to="#808080" begin="reset.mouseover" end="reset.mouseout"/>
                       </use>
               </g>
        </defs>

<script type="text/javascript">
var viewWidth = 571;
var viewHeight = 252;
var sectionId = 'dynsection-0';
</script>
<script xlink:href="svgpan.js"/>
<svg id="graph" class="graph">
<g id="viewport">
<title>group_iface.hpp</title>
<!-- Node1 -->
<g id="node1" class="node">
<title>Node1</title>
<g id="a_node1"><a xlink:title=" ">
<polygon fill="#bfbfbf" stroke="black" points="282.32,-224.5 282.32,-243.5 377.32,-243.5 377.32,-224.5 282.32,-224.5"/>
<text text-anchor="middle" x="329.82" y="-231.5" font-family="Helvetica,sans-Serif" font-size="10.00">group_iface.hpp</text>
</a>
</g>
</g>
<!-- Node2 -->
<g id="node2" class="node">
<title>Node2</title>
<g id="a_node2"><a xlink:href="arg__iface_8hpp.html" target="_top" xlink:title=" ">
<polygon fill="none" stroke="black" points="174.32,-168.5 174.32,-187.5 257.32,-187.5 257.32,-168.5 174.32,-168.5"/>
<text text-anchor="middle" x="215.82" y="-175.5" font-family="Helvetica,sans-Serif" font-size="10.00">arg_iface.hpp</text>
</a>
</g>
</g>
<!-- Node1&#45;&gt;Node2 -->
<g id="edge1" class="edge">
<title>Node1&#45;&gt;Node2</title>
<path fill="none" stroke="midnightblue" d="M311.76,-224.44C293.24,-215.68 264.24,-201.94 242.96,-191.86"/>
<polygon fill="midnightblue" stroke="midnightblue" points="244.33,-188.63 233.8,-187.52 241.34,-194.96 244.33,-188.63"/>
</g>
<!-- Node3 -->
<g id="node3" class="node">
<title>Node3</title>
<g id="a_node3"><a xlink:href="utils_8hpp.html" target="_top" xlink:title=" ">
<polygon fill="none" stroke="black" points="242.32,-112.5 242.32,-131.5 301.32,-131.5 301.32,-112.5 242.32,-112.5"/>
<text text-anchor="middle" x="271.82" y="-119.5" font-family="Helvetica,sans-Serif" font-size="10.00">utils.hpp</text>
</a>
</g>
</g>
<!-- Node1&#45;&gt;Node3 -->
<g id="edge12" class="edge">
<title>Node1&#45;&gt;Node3</title>
<path fill="none" stroke="midnightblue" d="M325.27,-224.37C315.78,-206.38 293.73,-164.55 281.11,-140.63"/>
<polygon fill="midnightblue" stroke="midnightblue" points="284.11,-138.8 276.35,-131.59 277.92,-142.07 284.11,-138.8"/>
</g>
<!-- Node5 -->
<g id="node5" class="node">
<title>Node5</title>
<g id="a_node5"><a xlink:href="types_8hpp.html" target="_top" xlink:title=" ">
<polygon fill="none" stroke="black" points="87.32,-56.5 87.32,-75.5 152.32,-75.5 152.32,-56.5 87.32,-56.5"/>
<text text-anchor="middle" x="119.82" y="-63.5" font-family="Helvetica,sans-Serif" font-size="10.00">types.hpp</text>
</a>
</g>
</g>
<!-- Node1&#45;&gt;Node5 -->
<g id="edge16" class="edge">
<title>Node1&#45;&gt;Node5</title>
<path fill="none" stroke="midnightblue" d="M282.22,-233.61C201.63,-233.52 43.67,-228.08 8.82,-188 -1.7,-175.9 -5.87,-140 14.82,-112 29.54,-92.08 54.88,-80.89 76.98,-74.65"/>
<polygon fill="midnightblue" stroke="midnightblue" points="78.04,-77.99 86.86,-72.11 76.3,-71.21 78.04,-77.99"/>
</g>
<!-- Node8 -->
<g id="node8" class="node">
<title>Node8</title>
<g id="a_node8"><a xlink:title=" ">
<polygon fill="none" stroke="#bfbfbf" points="292.32,-0.5 292.32,-19.5 339.32,-19.5 339.32,-0.5 292.32,-0.5"/>
<text text-anchor="middle" x="315.82" y="-7.5" font-family="Helvetica,sans-Serif" font-size="10.00">vector</text>
</a>
</g>
</g>
<!-- Node1&#45;&gt;Node8 -->
<g id="edge17" class="edge">
<title>Node1&#45;&gt;Node8</title>
<path fill="none" stroke="midnightblue" d="M337.91,-224.43C361.84,-198.01 428.47,-115.99 393.82,-56 384.15,-39.25 365.6,-28.18 349.03,-21.21"/>
<polygon fill="midnightblue" stroke="midnightblue" points="350.16,-17.9 339.57,-17.57 347.65,-24.43 350.16,-17.9"/>
</g>
<!-- Node9 -->
<g id="node9" class="node">
<title>Node9</title>
<g id="a_node9"><a xlink:title=" ">
<polygon fill="none" stroke="#bfbfbf" points="232.82,-56.5 232.82,-75.5 296.82,-75.5 296.82,-56.5 232.82,-56.5"/>
<text text-anchor="middle" x="264.82" y="-63.5" font-family="Helvetica,sans-Serif" font-size="10.00">algorithm</text>
</a>
</g>
</g>
<!-- Node1&#45;&gt;Node9 -->
<g id="edge19" class="edge">
<title>Node1&#45;&gt;Node9</title>
<path fill="none" stroke="midnightblue" d="M330.15,-224.23C330.56,-203.48 329.47,-150.26 309.82,-112 303.87,-100.41 293.85,-89.95 284.78,-82.04"/>
<polygon fill="midnightblue" stroke="midnightblue" points="286.8,-79.17 276.85,-75.53 282.36,-84.58 286.8,-79.17"/>
</g>
<!-- Node10 -->
<g id="node10" class="node">
<title>Node10</title>
<g id="a_node10"><a xlink:title=" ">
<polygon fill="none" stroke="#bfbfbf" points="315.32,-56.5 315.32,-75.5 384.32,-75.5 384.32,-56.5 315.32,-56.5"/>
<text text-anchor="middle" x="349.82" y="-63.5" font-family="Helvetica,sans-Serif" font-size="10.00">type_traits</text>
</a>
</g>
</g>
<!-- Node1&#45;&gt;Node10 -->
<g id="edge18" class="edge">
<title>Node1&#45;&gt;Node10</title>
<path fill="none" stroke="midnightblue" d="M333.28,-224.2C336.63,-215.25 341.53,-200.89 343.82,-188 350.17,-152.23 350.68,-109.64 350.34,-85.72"/>
<polygon fill="midnightblue" stroke="midnightblue" points="353.84,-85.52 350.13,-75.59 346.84,-85.66 353.84,-85.52"/>
</g>
<!-- Node12 -->
<g id="node12" class="node">
<title>Node12</title>
<g id="a_node12"><a xlink:href="exceptions_8hpp.html" target="_top" xlink:title=" ">
<polygon fill="none" stroke="black" points="18.32,-168.5 18.32,-187.5 109.32,-187.5 109.32,-168.5 18.32,-168.5"/>
<text text-anchor="middle" x="63.82" y="-175.5" font-family="Helvetica,sans-Serif" font-size="10.00">exceptions.hpp</text>
</a>
</g>
</g>
<!-- Node1&#45;&gt;Node12 -->
<g id="edge13" class="edge">
<title>Node1&#45;&gt;Node12</title>
<path fill="none" stroke="midnightblue" d="M287.67,-224.44C241.07,-214.98 165.97,-199.74 115.77,-189.55"/>
<polygon fill="midnightblue" stroke="midnightblue" points="116.27,-186.08 105.77,-187.52 114.87,-192.94 116.27,-186.08"/>
</g>
<!-- Node14 -->
<g id="node14" class="node">
<title>Node14</title>
<g id="a_node14"><a xlink:title=" ">
<polygon fill="none" stroke="#bfbfbf" points="441.32,-168.5 441.32,-187.5 486.32,-187.5 486.32,-168.5 441.32,-168.5"/>
<text text-anchor="middle" x="463.82" y="-175.5" font-family="Helvetica,sans-Serif" font-size="10.00">utility</text>
</a>
</g>
</g>
<!-- Node1&#45;&gt;Node14 -->
<g id="edge20" class="edge">
<title>Node1&#45;&gt;Node14</title>
<path fill="none" stroke="midnightblue" d="M351.05,-224.44C373.2,-215.52 408.14,-201.44 433.25,-191.32"/>
<polygon fill="midnightblue" stroke="midnightblue" points="434.72,-194.5 442.69,-187.52 432.1,-188.01 434.72,-194.5"/>
</g>
<!-- Node15 -->
<g id="node15" class="node">
<title>Node15</title>
<g id="a_node15"><a xlink:title=" ">
<polygon fill="none" stroke="#bfbfbf" points="504.82,-168.5 504.82,-187.5 562.82,-187.5 562.82,-168.5 504.82,-168.5"/>
<text text-anchor="middle" x="533.82" y="-175.5" font-family="Helvetica,sans-Serif" font-size="10.00">memory</text>
</a>
</g>
</g>
<!-- Node1&#45;&gt;Node15 -->
<g id="edge21" class="edge">
<title>Node1&#45;&gt;Node15</title>
<path fill="none" stroke="midnightblue" d="M362.14,-224.44C398.14,-214.92 456.3,-199.52 494.8,-189.33"/>
<polygon fill="midnightblue" stroke="midnightblue" points="495.85,-192.67 504.62,-186.73 494.06,-185.9 495.85,-192.67"/>
</g>
<!-- Node2&#45;&gt;Node3 -->
<g id="edge2" class="edge">
<title>Node2&#45;&gt;Node3</title>
<path fill="none" stroke="midnightblue" d="M224.82,-168.32C233.01,-160.42 245.32,-148.55 255.29,-138.94"/>
<polygon fill="midnightblue" stroke="midnightblue" points="257.89,-141.29 262.66,-131.83 253.03,-136.26 257.89,-141.29"/>
</g>
<!-- Node2&#45;&gt;Node5 -->
<g id="edge10" class="edge">
<title>Node2&#45;&gt;Node5</title>
<path fill="none" stroke="midnightblue" d="M214.76,-168.09C212.78,-154.64 207.37,-128.92 193.82,-112 182.71,-98.14 166.1,-87.49 151.43,-80.04"/>
<polygon fill="midnightblue" stroke="midnightblue" points="152.68,-76.75 142.14,-75.6 149.66,-83.07 152.68,-76.75"/>
</g>
<!-- Node11 -->
<g id="node11" class="node">
<title>Node11</title>
<g id="a_node11"><a xlink:href="enums_8hpp.html" target="_top" xlink:title=" ">
<polygon fill="none" stroke="black" points="114.32,-112.5 114.32,-131.5 185.32,-131.5 185.32,-112.5 114.32,-112.5"/>
<text text-anchor="middle" x="149.82" y="-119.5" font-family="Helvetica,sans-Serif" font-size="10.00">enums.hpp</text>
</a>
</g>
</g>
<!-- Node2&#45;&gt;Node11 -->
<g id="edge11" class="edge">
<title>Node2&#45;&gt;Node11</title>
<path fill="none" stroke="midnightblue" d="M205.21,-168.32C195.36,-160.26 180.47,-148.08 168.6,-138.37"/>
<polygon fill="midnightblue" stroke="midnightblue" points="170.57,-135.46 160.62,-131.83 166.14,-140.88 170.57,-135.46"/>
</g>
<!-- Node4 -->
<g id="node4" class="node">
<title>Node4</title>
<g id="a_node4"><a xlink:title=" ">
<polygon fill="none" stroke="#bfbfbf" points="170.82,-56.5 170.82,-75.5 214.82,-75.5 214.82,-56.5 170.82,-56.5"/>
<text text-anchor="middle" x="192.82" y="-63.5" font-family="Helvetica,sans-Serif" font-size="10.00">regex</text>
</a>
</g>
</g>
<!-- Node3&#45;&gt;Node4 -->
<g id="edge3" class="edge">
<title>Node3&#45;&gt;Node4</title>
<path fill="none" stroke="midnightblue" d="M259.13,-112.32C246.92,-103.98 228.24,-91.21 213.82,-81.35"/>
<polygon fill="midnightblue" stroke="midnightblue" points="215.71,-78.41 205.48,-75.65 211.76,-84.19 215.71,-78.41"/>
</g>
<!-- Node3&#45;&gt;Node5 -->
<g id="edge4" class="edge">
<title>Node3&#45;&gt;Node5</title>
<path fill="none" stroke="midnightblue" d="M247.73,-112.44C222.27,-103.4 181.92,-89.06 153.36,-78.92"/>
<polygon fill="midnightblue" stroke="midnightblue" points="154.39,-75.57 143.79,-75.52 152.04,-82.16 154.39,-75.57"/>
</g>
<!-- Node3&#45;&gt;Node9 -->
<g id="edge8" class="edge">
<title>Node3&#45;&gt;Node9</title>
<path fill="none" stroke="midnightblue" d="M270.66,-112.08C269.74,-104.93 268.4,-94.64 267.24,-85.69"/>
<polygon fill="midnightblue" stroke="midnightblue" points="270.71,-85.22 265.95,-75.75 263.77,-86.12 270.71,-85.22"/>
</g>
<!-- Node3&#45;&gt;Node10 -->
<g id="edge9" class="edge">
<title>Node3&#45;&gt;Node10</title>
<path fill="none" stroke="midnightblue" d="M284.35,-112.32C296.4,-103.98 314.85,-91.21 329.09,-81.35"/>
<polygon fill="midnightblue" stroke="midnightblue" points="331.09,-84.22 337.32,-75.65 327.1,-78.47 331.09,-84.22"/>
</g>
<!-- Node6 -->
<g id="node6" class="node">
<title>Node6</title>
<g id="a_node6"><a xlink:title=" ">
<polygon fill="none" stroke="#bfbfbf" points="132.82,-0.5 132.82,-19.5 176.82,-19.5 176.82,-0.5 132.82,-0.5"/>
<text text-anchor="middle" x="154.82" y="-7.5" font-family="Helvetica,sans-Serif" font-size="10.00">string</text>
</a>
</g>
</g>
<!-- Node5&#45;&gt;Node6 -->
<g id="edge5" class="edge">
<title>Node5&#45;&gt;Node6</title>
<path fill="none" stroke="midnightblue" d="M125.6,-56.08C130.49,-48.53 137.65,-37.49 143.65,-28.23"/>
<polygon fill="midnightblue" stroke="midnightblue" points="146.64,-30.05 149.15,-19.75 140.77,-26.24 146.64,-30.05"/>
</g>
<!-- Node7 -->
<g id="node7" class="node">
<title>Node7</title>
<g id="a_node7"><a xlink:title=" ">
<polygon fill="none" stroke="#bfbfbf" points="54.82,-0.5 54.82,-19.5 114.82,-19.5 114.82,-0.5 54.82,-0.5"/>
<text text-anchor="middle" x="84.82" y="-7.5" font-family="Helvetica,sans-Serif" font-size="10.00">iostream</text>
</a>
</g>
</g>
<!-- Node5&#45;&gt;Node7 -->
<g id="edge6" class="edge">
<title>Node5&#45;&gt;Node7</title>
<path fill="none" stroke="midnightblue" d="M114.04,-56.08C109.15,-48.53 101.99,-37.49 95.99,-28.23"/>
<polygon fill="midnightblue" stroke="midnightblue" points="98.87,-26.24 90.49,-19.75 92.99,-30.05 98.87,-26.24"/>
</g>
<!-- Node5&#45;&gt;Node8 -->
<g id="edge7" class="edge">
<title>Node5&#45;&gt;Node8</title>
<path fill="none" stroke="midnightblue" d="M150.88,-56.44C186.79,-46.55 245.68,-30.32 282.52,-20.17"/>
<polygon fill="midnightblue" stroke="midnightblue" points="283.58,-23.51 292.29,-17.48 281.72,-16.76 283.58,-23.51"/>
</g>
<!-- Node12&#45;&gt;Node5 -->
<g id="edge15" class="edge">
<title>Node12&#45;&gt;Node5</title>
<path fill="none" stroke="midnightblue" d="M51.18,-168.39C34.54,-155.96 8.84,-132.25 21.82,-112 34.06,-92.9 56.67,-81.8 77.09,-75.41"/>
<polygon fill="midnightblue" stroke="midnightblue" points="78.22,-78.73 86.88,-72.63 76.31,-71.99 78.22,-78.73"/>
</g>
<!-- Node13 -->
<g id="node13" class="node">
<title>Node13</title>
<g id="a_node13"><a xlink:title=" ">
<polygon fill="none" stroke="#bfbfbf" points="31.32,-112.5 31.32,-131.5 96.32,-131.5 96.32,-112.5 31.32,-112.5"/>
<text text-anchor="middle" x="63.82" y="-119.5" font-family="Helvetica,sans-Serif" font-size="10.00">stdexcept</text>
</a>
</g>
</g>
<!-- Node12&#45;&gt;Node13 -->
<g id="edge14" class="edge">
<title>Node12&#45;&gt;Node13</title>
<path fill="none" stroke="midnightblue" d="M63.82,-168.08C63.82,-161.01 63.82,-150.86 63.82,-141.99"/>
<polygon fill="midnightblue" stroke="midnightblue" points="67.32,-141.75 63.82,-131.75 60.32,-141.75 67.32,-141.75"/>
</g>
</g>
</svg>
        <g id="navigator" transform="translate(0 0)" fill="#404254">
                <rect fill="#f2f5e9" fill-opacity="0.5" stroke="#606060" stroke-width=".5" x="0" y="0" width="60" height="60"/>
                <use id="zoomplus" xlink:href="#zoomPlus" x="17" y="9" onmousedown="handleZoom(evt,'in')"/>
                <use id="zoomminus" xlink:href="#zoomMin" x="42" y="9" onmousedown="handleZoom(evt,'out')"/>
                <use id="reset" xlink:href="#resetDef" x="30" y="36" onmousedown="handleReset()"/>
                <g id="arrowUp" xlink:href="#dirArrow" transform="translate(30 24)" onmousedown="handlePan(0,-1)">
                  <use xlink:href="#rim" fill="#404040">
                        <set attributeName="fill" to="#808080" begin="arrowUp.mouseover" end="arrowUp.mouseout"/>
                  </use>
                  <path fill="none" stroke="white" stroke-width="1.5" d="M0,-3.0v7 M-2.5,-0.5L0,-3.0L2.5,-0.5"/>
                </g>
                <g id="arrowRight" xlink:href="#dirArrow" transform="rotate(90) translate(36 -43)" onmousedown="handlePan(1,0)">
                  <use xlink:href="#rim" fill="#404040">
                        <set attributeName="fill" to="#808080" begin="arrowRight.mouseover" end="arrowRight.mouseout"/>
                  </use>
                  <path fill="none" stroke="white" stroke-width="1.5" d="M0,-3.0v7 M-2.5,-0.5L0,-3.0L2.5,-0.5"/>
                </g>
                <g id="arrowDown" xlink:href="#dirArrow" transform="rotate(180) translate(-30 -48)" onmousedown="handlePan(0,1)">
                  <use xlink:href="#rim" fill="#404040">
                        <set attributeName="fill" to="#808080" begin="arrowDown.mouseover" end="arrowDown.mouseout"/>
                  </use>
                  <path fill="none" stroke="white" stroke-width="1.5" d="M0,-3.0v7 M-2.5,-0.5L0,-3.0L2.5,-0.5"/>
                </g>
                <g id="arrowLeft" xlink:href="#dirArrow" transform="rotate(270) translate(-36 17)" onmousedown="handlePan(-1,0)">
                  <use xlink:href="#rim" fill="#404040">
                        <set attributeName="fill" to="#808080" begin="arrowLeft.mouseover" end="arrowLeft.mouseout"/>
                  </use>
                  <path fill="none" stroke="white" stroke-width="1.5" d="M0,-3.0v7 M-2.5,-0.5L0,-3.0L2.5,-0.5"/>
                </g>
        </g>
        <svg viewBox="0 0 15 15" width="100%" height="30px" preserveAspectRatio="xMaxYMin meet">
         <g id="arrow_out" transform="scale(0.3 0.3)">
          <a xlink:href="group__iface_8hpp__incl_org.svg" target="_base">
           <rect id="button" ry="5" rx="5" y="6" x="6" height="38" width="38"
                fill="#f2f5e9" fill-opacity="0.5" stroke="#606060" stroke-width="1.0"/>
           <path id="arrow"
             d="M 11.500037,31.436501 C 11.940474,20.09759 22.043105,11.32322 32.158766,21.979434 L 37.068811,17.246167 C 37.068811,17.246167 37.088388,32 37.088388,32 L 22.160133,31.978069 C 22.160133,31.978069 26.997745,27.140456 26.997745,27.140456 C 18.528582,18.264221 13.291696,25.230495 11.500037,31.436501 z"
             style="fill:#404040;"/>
          </a>
         </g>
        </svg>
</svg>
