<?xml version="1.0" encoding="UTF-8" standalone="no"?>
<!DOCTYPE svg PUBLIC "-//W3C//DTD SVG 1.1//EN"
 "http://www.w3.org/Graphics/SVG/1.1/DTD/svg11.dtd">
<!-- Generated by graphviz version 14.1.2 (0)
 -->
<!-- Title: group_iface.hpp Pages: 1 -->
<svg width="547pt" height="252pt"
 viewBox="0.00 0.00 547.00 252.00" xmlns="http://www.w3.org/2000/svg" xmlns:xlink="http://www.w3.org/1999/xlink">
<g id="graph0" class="graph" transform="scale(1 1) rotate(0) translate(4 248)">
<title>group_iface.hpp</title>
<!-- Node1 -->
<g id="Node000001" class="node">
<title>Node1</title>
<g id="a_Node000001"><a xlink:title=" ">
<polygon fill="#999999" stroke="#666666" points="368.99,-244 283.99,-244 283.99,-224 368.99,-224 368.99,-244"/>
<text xml:space="preserve" text-anchor="middle" x="326.49" y="-230.5" font-family="Helvetica,sans-Serif" font-size="10.00">group_iface.hpp</text>
</a>
</g>
</g>
<!-- Node2 -->
<g id="Node000002" class="node">
<title>Node2</title>
<g id="a_Node000002"><a xlink:href="arg__iface_8hpp.html" target="_top" xlink:title=" ">
<polygon fill="white" stroke="#666666" points="256.74,-188 182.24,-188 182.24,-168 256.74,-168 256.74,-188"/>
<text xml:space="preserve" text-anchor="middle" x="219.49" y="-174.5" font-family="Helvetica,sans-Serif" font-size="10.00">arg_iface.hpp</text>
</a>
</g>
</g>
<!-- Node1&#45;&gt;Node2 -->
<g id="edge1_Node000001_Node000002" class="edge">
<title>Node1&#45;&gt;Node2</title>
<g id="a_edge1_Node000001_Node000002"><a xlink:title=" ">
<path fill="none" stroke="#63b8ff" d="M307.85,-223.59C291.46,-215.32 267.33,-203.14 248.43,-193.6"/>
<polygon fill="#63b8ff" stroke="#63b8ff" points="250.13,-190.54 239.63,-189.16 246.98,-196.79 250.13,-190.54"/>
</a>
</g>
</g>
<!-- Node4 -->
<g id="Node000004" class="node">
<title>Node4</title>
<g id="a_Node000004"><a xlink:href="types_8hpp.html" target="_top" xlink:title=" ">
<polygon fill="white" stroke="#666666" points="220.87,-76 162.12,-76 162.12,-56 220.87,-56 220.87,-76"/>
<text xml:space="preserve" text-anchor="middle" x="191.49" y="-62.5" font-family="Helvetica,sans-Serif" font-size="10.00">types.hpp</text>
</a>
</g>
</g>
<!-- Node1&#45;&gt;Node4 -->
<g id="edge14_Node000001_Node000004" class="edge">
<title>Node1&#45;&gt;Node4</title>
<g id="a_edge14_Node000001_Node000004"><a xlink:title=" ">
<path fill="none" stroke="#63b8ff" d="M283.49,-229.81C215.7,-224.16 87.63,-210.78 48.49,-188 20.9,-171.94 14.09,-162.12 3.49,-132 0.54,-123.62 -2.01,-118.98 3.49,-112 21.44,-89.25 100.69,-76.72 150.39,-70.97"/>
<polygon fill="#63b8ff" stroke="#63b8ff" points="150.67,-74.46 160.23,-69.88 149.9,-67.5 150.67,-74.46"/>
</a>
</g>
</g>
<!-- Node7 -->
<g id="Node000007" class="node">
<title>Node7</title>
<g id="a_Node000007"><a xlink:title=" ">
<polygon fill="#e0e0e0" stroke="#999999" points="364.99,-20 321.99,-20 321.99,0 364.99,0 364.99,-20"/>
<text xml:space="preserve" text-anchor="middle" x="343.49" y="-6.5" font-family="Helvetica,sans-Serif" font-size="10.00">vector</text>
</a>
</g>
</g>
<!-- Node1&#45;&gt;Node7 -->
<g id="edge20_Node000001_Node000007" class="edge">
<title>Node1&#45;&gt;Node7</title>
<g id="a_edge20_Node000001_Node000007"><a xlink:title=" ">
<path fill="none" stroke="#63b8ff" d="M333.92,-223.52C340.46,-214.75 349.8,-201.13 355.49,-188 375.88,-140.92 377.22,-126.93 383.49,-76 384.58,-67.18 386.65,-64.31 383.49,-56 379.4,-45.24 371.42,-35.4 363.66,-27.69"/>
<polygon fill="#63b8ff" stroke="#63b8ff" points="366.37,-25.43 356.63,-21.24 361.63,-30.58 366.37,-25.43"/>
</a>
</g>
</g>
<!-- Node8 -->
<g id="Node000008" class="node">
<title>Node8</title>
<g id="a_Node000008"><a xlink:href="utils_8hpp.html" target="_top" xlink:title=" ">
<polygon fill="white" stroke="#666666" points="298.87,-132 246.12,-132 246.12,-112 298.87,-112 298.87,-132"/>
<text xml:space="preserve" text-anchor="middle" x="272.49" y="-118.5" font-family="Helvetica,sans-Serif" font-size="10.00">utils.hpp</text>
</a>
</g>
</g>
<!-- Node1&#45;&gt;Node8 -->
<g id="edge15_Node000001_Node000008" class="edge">
<title>Node1&#45;&gt;Node8</title>
<g id="a_edge15_Node000001_Node000008"><a xlink:title=" ">
<path fill="none" stroke="#63b8ff" d="M321.89,-223.62C313.12,-205.76 293.86,-166.53 282.15,-142.67"/>
<polygon fill="#63b8ff" stroke="#63b8ff" points="285.3,-141.15 277.75,-133.71 279.01,-144.23 285.3,-141.15"/>
</a>
</g>
</g>
<!-- Node9 -->
<g id="Node000009" class="node">
<title>Node9</title>
<g id="a_Node000009"><a xlink:title=" ">
<polygon fill="#e0e0e0" stroke="#999999" points="294.37,-76 238.62,-76 238.62,-56 294.37,-56 294.37,-76"/>
<text xml:space="preserve" text-anchor="middle" x="266.49" y="-62.5" font-family="Helvetica,sans-Serif" font-size="10.00">algorithm</text>
</a>
</g>
</g>
<!-- Node1&#45;&gt;Node9 -->
<g id="edge16_Node000001_Node000009" class="edge">
<title>Node1&#45;&gt;Node9</title>
<g id="a_edge16_Node000001_Node000009"><a xlink:title=" ">
<path fill="none" stroke="#63b8ff" d="M326.8,-223.67C327.14,-202.63 325.89,-150.34 307.49,-112 302.45,-101.5 294.16,-91.71 286.35,-83.95"/>
<polygon fill="#63b8ff" stroke="#63b8ff" points="289.04,-81.68 279.34,-77.44 284.28,-86.81 289.04,-81.68"/>
</a>
</g>
</g>
<!-- Node10 -->
<g id="Node000010" class="node">
<title>Node10</title>
<g id="a_Node000010"><a xlink:title=" ">
<polygon fill="#e0e0e0" stroke="#999999" points="374.37,-76 312.62,-76 312.62,-56 374.37,-56 374.37,-76"/>
<text xml:space="preserve" text-anchor="middle" x="343.49" y="-62.5" font-family="Helvetica,sans-Serif" font-size="10.00">type_traits</text>
</a>
</g>
</g>
<!-- Node1&#45;&gt;Node10 -->
<g id="edge18_Node000001_Node000010" class="edge">
<title>Node1&#45;&gt;Node10</title>
<g id="a_edge18_Node000001_Node000010"><a xlink:title=" ">
<path fill="none" stroke="#63b8ff" d="M330.28,-223.53C333.67,-214.55 338.42,-200.59 340.49,-188 346.22,-153.2 345.73,-112.02 344.71,-87.79"/>
<polygon fill="#63b8ff" stroke="#63b8ff" points="348.21,-87.82 344.22,-78.01 341.22,-88.17 348.21,-87.82"/>
</a>
</g>
</g>
<!-- Node11 -->
<g id="Node000011" class="node">
<title>Node11</title>
<g id="a_Node000011"><a xlink:href="exceptions_8hpp.html" target="_top" xlink:title=" ">
<polygon fill="white" stroke="#666666" points="139.49,-188 57.49,-188 57.49,-168 139.49,-168 139.49,-188"/>
<text xml:space="preserve" text-anchor="middle" x="98.49" y="-174.5" font-family="Helvetica,sans-Serif" font-size="10.00">exceptions.hpp</text>
</a>
</g>
</g>
<!-- Node1&#45;&gt;Node11 -->
<g id="edge11_Node000001_Node000011" class="edge">
<title>Node1&#45;&gt;Node11</title>
<g id="a_edge11_Node000001_Node000011"><a xlink:title=" ">
<path fill="none" stroke="#63b8ff" d="M286.52,-223.53C248.38,-214.5 190.77,-200.85 149.37,-191.05"/>
<polygon fill="#63b8ff" stroke="#63b8ff" points="150.43,-187.7 139.89,-188.81 148.82,-194.52 150.43,-187.7"/>
</a>
</g>
</g>
<!-- Node13 -->
<g id="Node000013" class="node">
<title>Node13</title>
<g id="a_Node000013"><a xlink:title=" ">
<polygon fill="#e0e0e0" stroke="#999999" points="482.12,-188 430.87,-188 430.87,-168 482.12,-168 482.12,-188"/>
<text xml:space="preserve" text-anchor="middle" x="456.49" y="-174.5" font-family="Helvetica,sans-Serif" font-size="10.00">memory</text>
</a>
</g>
</g>
<!-- Node1&#45;&gt;Node13 -->
<g id="edge17_Node000001_Node000013" class="edge">
<title>Node1&#45;&gt;Node13</title>
<g id="a_edge17_Node000001_Node000013"><a xlink:title=" ">
<path fill="none" stroke="#63b8ff" d="M349.13,-223.59C369.61,-215.09 400.01,-202.46 423.24,-192.81"/>
<polygon fill="#63b8ff" stroke="#63b8ff" points="424.38,-196.13 432.27,-189.06 421.69,-189.66 424.38,-196.13"/>
</a>
</g>
</g>
<!-- Node14 -->
<g id="Node000014" class="node">
<title>Node14</title>
<g id="a_Node000014"><a xlink:title=" ">
<polygon fill="#e0e0e0" stroke="#999999" points="539.12,-188 499.87,-188 499.87,-168 539.12,-168 539.12,-188"/>
<text xml:space="preserve" text-anchor="middle" x="519.49" y="-174.5" font-family="Helvetica,sans-Serif" font-size="10.00">utility</text>
</a>
</g>
</g>
<!-- Node1&#45;&gt;Node14 -->
<g id="edge19_Node000001_Node000014" class="edge">
<title>Node1&#45;&gt;Node14</title>
<g id="a_edge19_Node000001_Node000014"><a xlink:title=" ">
<path fill="none" stroke="#63b8ff" d="M363,-223.55C394.16,-215.36 440.43,-202.96 488.67,-188.75"/>
<polygon fill="#63b8ff" stroke="#63b8ff" points="489.6,-192.13 498.19,-185.93 487.61,-185.42 489.6,-192.13"/>
</a>
</g>
</g>
<!-- Node3 -->
<g id="Node000003" class="node">
<title>Node3</title>
<g id="a_Node000003"><a xlink:href="enums_8hpp.html" target="_top" xlink:title=" ">
<polygon fill="white" stroke="#666666" points="190.49,-132 126.49,-132 126.49,-112 190.49,-112 190.49,-132"/>
<text xml:space="preserve" text-anchor="middle" x="158.49" y="-118.5" font-family="Helvetica,sans-Serif" font-size="10.00">enums.hpp</text>
</a>
</g>
</g>
<!-- Node2&#45;&gt;Node3 -->
<g id="edge2_Node000002_Node000003" class="edge">
<title>Node2&#45;&gt;Node3</title>
<g id="a_edge2_Node000002_Node000003"><a xlink:title=" ">
<path fill="none" stroke="#63b8ff" d="M208.87,-167.59C200.21,-159.93 187.76,-148.91 177.41,-139.75"/>
<polygon fill="#63b8ff" stroke="#63b8ff" points="179.94,-137.31 170.13,-133.3 175.3,-142.55 179.94,-137.31"/>
</a>
</g>
</g>
<!-- Node2&#45;&gt;Node4 -->
<g id="edge3_Node000002_Node000004" class="edge">
<title>Node2&#45;&gt;Node4</title>
<g id="a_edge3_Node000002_Node000004"><a xlink:title=" ">
<path fill="none" stroke="#63b8ff" d="M217.1,-167.62C212.6,-149.92 202.75,-111.24 196.66,-87.32"/>
<polygon fill="#63b8ff" stroke="#63b8ff" points="200.1,-86.65 194.25,-77.82 193.32,-88.38 200.1,-86.65"/>
</a>
</g>
</g>
<!-- Node2&#45;&gt;Node8 -->
<g id="edge7_Node000002_Node000008" class="edge">
<title>Node2&#45;&gt;Node8</title>
<g id="a_edge7_Node000002_Node000008"><a xlink:title=" ">
<path fill="none" stroke="#63b8ff" d="M228.72,-167.59C236.09,-160.08 246.62,-149.35 255.51,-140.3"/>
<polygon fill="#63b8ff" stroke="#63b8ff" points="257.8,-142.97 262.3,-133.38 252.8,-138.06 257.8,-142.97"/>
</a>
</g>
</g>
<!-- Node5 -->
<g id="Node000005" class="node">
<title>Node5</title>
<g id="a_Node000005"><a xlink:title=" ">
<polygon fill="#e0e0e0" stroke="#999999" points="186.24,-20 132.74,-20 132.74,0 186.24,0 186.24,-20"/>
<text xml:space="preserve" text-anchor="middle" x="159.49" y="-6.5" font-family="Helvetica,sans-Serif" font-size="10.00">iostream</text>
</a>
</g>
</g>
<!-- Node4&#45;&gt;Node5 -->
<g id="edge4_Node000004_Node000005" class="edge">
<title>Node4&#45;&gt;Node5</title>
<g id="a_edge4_Node000004_Node000005"><a xlink:title=" ">
<path fill="none" stroke="#63b8ff" d="M185.92,-55.59C181.74,-48.55 175.89,-38.67 170.75,-30"/>
<polygon fill="#63b8ff" stroke="#63b8ff" points="173.88,-28.42 165.77,-21.6 167.86,-31.99 173.88,-28.42"/>
</a>
</g>
</g>
<!-- Node6 -->
<g id="Node000006" class="node">
<title>Node6</title>
<g id="a_Node000006"><a xlink:title=" ">
<polygon fill="#e0e0e0" stroke="#999999" points="244.49,-20 204.49,-20 204.49,0 244.49,0 244.49,-20"/>
<text xml:space="preserve" text-anchor="middle" x="224.49" y="-6.5" font-family="Helvetica,sans-Serif" font-size="10.00">string</text>
</a>
</g>
</g>
<!-- Node4&#45;&gt;Node6 -->
<g id="edge5_Node000004_Node000006" class="edge">
<title>Node4&#45;&gt;Node6</title>
<g id="a_edge5_Node000004_Node000006"><a xlink:title=" ">
<path fill="none" stroke="#63b8ff" d="M197.24,-55.59C201.54,-48.55 207.58,-38.67 212.88,-30"/>
<polygon fill="#63b8ff" stroke="#63b8ff" points="215.79,-31.95 218.02,-21.59 209.82,-28.3 215.79,-31.95"/>
</a>
</g>
</g>
<!-- Node4&#45;&gt;Node7 -->
<g id="edge6_Node000004_Node000007" class="edge">
<title>Node4&#45;&gt;Node7</title>
<g id="a_edge6_Node000004_Node000007"><a xlink:title=" ">
<path fill="none" stroke="#63b8ff" d="M217.97,-55.59C243.83,-46.4 283.25,-32.4 311,-22.54"/>
<polygon fill="#63b8ff" stroke="#63b8ff" points="312.07,-25.88 320.32,-19.23 309.72,-19.28 312.07,-25.88"/>
</a>
</g>
</g>
<!-- Node8&#45;&gt;Node4 -->
<g id="edge8_Node000008_Node000004" class="edge">
<title>Node8&#45;&gt;Node4</title>
<g id="a_edge8_Node000008_Node000004"><a xlink:title=" ">
<path fill="none" stroke="#63b8ff" d="M258.38,-111.59C246.49,-103.67 229.23,-92.16 215.21,-82.82"/>
<polygon fill="#63b8ff" stroke="#63b8ff" points="217.23,-79.95 206.97,-77.32 213.35,-85.78 217.23,-79.95"/>
</a>
</g>
</g>
<!-- Node8&#45;&gt;Node9 -->
<g id="edge9_Node000008_Node000009" class="edge">
<title>Node8&#45;&gt;Node9</title>
<g id="a_edge9_Node000008_Node000009"><a xlink:title=" ">
<path fill="none" stroke="#63b8ff" d="M271.45,-111.59C270.71,-105.01 269.71,-95.96 268.79,-87.73"/>
<polygon fill="#63b8ff" stroke="#63b8ff" points="272.27,-87.35 267.69,-77.8 265.32,-88.13 272.27,-87.35"/>
</a>
</g>
</g>
<!-- Node8&#45;&gt;Node10 -->
<g id="edge10_Node000008_Node000010" class="edge">
<title>Node8&#45;&gt;Node10</title>
<g id="a_edge10_Node000008_Node000010"><a xlink:title=" ">
<path fill="none" stroke="#63b8ff" d="M284.86,-111.59C295.14,-103.77 310.01,-92.46 322.2,-83.19"/>
<polygon fill="#63b8ff" stroke="#63b8ff" points="324.22,-86.05 330.06,-77.21 319.98,-80.48 324.22,-86.05"/>
</a>
</g>
</g>
<!-- Node11&#45;&gt;Node4 -->
<g id="edge13_Node000011_Node000004" class="edge">
<title>Node11&#45;&gt;Node4</title>
<g id="a_edge13_Node000011_Node000004"><a xlink:title=" ">
<path fill="none" stroke="#63b8ff" d="M99.11,-167.65C100.45,-154.1 104.61,-128.79 117.49,-112 127.56,-98.88 142.63,-88.73 156.55,-81.42"/>
<polygon fill="#63b8ff" stroke="#63b8ff" points="158.06,-84.57 165.51,-77.04 154.99,-78.28 158.06,-84.57"/>
</a>
</g>
</g>
<!-- Node12 -->
<g id="Node000012" class="node">
<title>Node12</title>
<g id="a_Node000012"><a xlink:title=" ">
<polygon fill="#e0e0e0" stroke="#999999" points="70.87,-132 12.12,-132 12.12,-112 70.87,-112 70.87,-132"/>
<text xml:space="preserve" text-anchor="middle" x="41.49" y="-118.5" font-family="Helvetica,sans-Serif" font-size="10.00">stdexcept</text>
</a>
</g>
</g>
<!-- Node11&#45;&gt;Node12 -->
<g id="edge12_Node000011_Node000012" class="edge">
<title>Node11&#45;&gt;Node12</title>
<g id="a_edge12_Node000011_Node000012"><a xlink:title=" ">
<path fill="none" stroke="#63b8ff" d="M88.56,-167.59C80.55,-160.01 69.08,-149.13 59.46,-140.02"/>
<polygon fill="#63b8ff" stroke="#63b8ff" points="62.07,-137.68 52.4,-133.34 57.26,-142.76 62.07,-137.68"/>
</a>
</g>
</g>
</g>
</svg>
