<?xml version="1.0" encoding="UTF-8" standalone="no"?>
<!DOCTYPE svg PUBLIC "-//W3C//DTD SVG 1.1//EN"
 "http://www.w3.org/Graphics/SVG/1.1/DTD/svg11.dtd">
<!-- Generated by graphviz version 2.40.1 (20161225.0304)
 -->
<!-- Title: groups.hpp Pages: 1 -->
<svg width="498pt" height="308pt"
 viewBox="0.00 0.00 497.86 308.00" xmlns="http://www.w3.org/2000/svg" xmlns:xlink="http://www.w3.org/1999/xlink">
<g id="graph0" class="graph" transform="scale(1 1) rotate(0) translate(4 304)">
<title>groups.hpp</title>
<!-- Node0 -->
<g id="node1" class="node">
<title>Node0</title>
<polygon fill="#bfbfbf" stroke="#000000" points="233.2721,-280.5 233.2721,-299.5 298.2721,-299.5 298.2721,-280.5 233.2721,-280.5"/>
<text text-anchor="middle" x="265.7721" y="-287.5" font-family="Helvetica,sans-Serif" font-size="10.00" fill="#000000">groups.hpp</text>
</g>
<!-- Node1 -->
<g id="node2" class="node">
<title>Node1</title>
<g id="a_node2"><a xlink:href="group__iface_8hpp.html" target="_top" xlink:title="group_iface.hpp">
<polygon fill="none" stroke="#000000" points="222.7721,-224.5 222.7721,-243.5 308.7721,-243.5 308.7721,-224.5 222.7721,-224.5"/>
<text text-anchor="middle" x="265.7721" y="-231.5" font-family="Helvetica,sans-Serif" font-size="10.00" fill="#000000">group_iface.hpp</text>
</a>
</g>
</g>
<!-- Node0&#45;&gt;Node1 -->
<g id="edge1" class="edge">
<title>Node0&#45;&gt;Node1</title>
<path fill="none" stroke="#191970" d="M265.7721,-280.2455C265.7721,-272.9382 265.7721,-262.6944 265.7721,-253.7046"/>
<polygon fill="#191970" stroke="#191970" points="269.2722,-253.6426 265.7721,-243.6427 262.2722,-253.6427 269.2722,-253.6426"/>
</g>
<!-- Node5 -->
<g id="node6" class="node">
<title>Node5</title>
<g id="a_node6"><a xlink:href="types_8hpp.html" target="_top" xlink:title="types.hpp">
<polygon fill="none" stroke="#000000" points="118.2721,-56.5 118.2721,-75.5 177.2721,-75.5 177.2721,-56.5 118.2721,-56.5"/>
<text text-anchor="middle" x="147.7721" y="-63.5" font-family="Helvetica,sans-Serif" font-size="10.00" fill="#000000">types.hpp</text>
</a>
</g>
</g>
<!-- Node0&#45;&gt;Node5 -->
<g id="edge23" class="edge">
<title>Node0&#45;&gt;Node5</title>
<path fill="none" stroke="#191970" d="M232.9333,-282.0582C168.9557,-265.85 31.5207,-227.1722 4.7721,-188 -9.129,-167.6425 10.859,-125.2815 23.7721,-112 46.126,-89.0082 80.9941,-77.4121 108.0696,-71.6207"/>
<polygon fill="#191970" stroke="#191970" points="108.8806,-75.0285 118.0226,-69.6736 107.5367,-68.1587 108.8806,-75.0285"/>
</g>
<!-- Node9 -->
<g id="node10" class="node">
<title>Node9</title>
<polygon fill="none" stroke="#bfbfbf" points="421.7721,-56.5 421.7721,-75.5 477.7721,-75.5 477.7721,-56.5 421.7721,-56.5"/>
<text text-anchor="middle" x="449.7721" y="-63.5" font-family="Helvetica,sans-Serif" font-size="10.00" fill="#000000">algorithm</text>
</g>
<!-- Node0&#45;&gt;Node9 -->
<g id="edge24" class="edge">
<title>Node0&#45;&gt;Node9</title>
<path fill="none" stroke="#191970" d="M286.0174,-280.3952C317.5203,-264.6633 378.7996,-230.8242 418.7721,-188 438.3321,-167.0445 443.4145,-159.7055 450.7721,-132 453.0536,-123.4089 450.8687,-120.8884 450.7721,-112 450.6778,-103.3235 450.4835,-93.7282 450.291,-85.5559"/>
<polygon fill="#191970" stroke="#191970" points="453.7888,-85.4229 450.0392,-75.5138 446.791,-85.5984 453.7888,-85.4229"/>
</g>
<!-- Node2 -->
<g id="node3" class="node">
<title>Node2</title>
<g id="a_node3"><a xlink:href="arg__iface_8hpp.html" target="_top" xlink:title="arg_iface.hpp">
<polygon fill="none" stroke="#000000" points="294.2721,-168.5 294.2721,-187.5 369.2721,-187.5 369.2721,-168.5 294.2721,-168.5"/>
<text text-anchor="middle" x="331.7721" y="-175.5" font-family="Helvetica,sans-Serif" font-size="10.00" fill="#000000">arg_iface.hpp</text>
</a>
</g>
</g>
<!-- Node1&#45;&gt;Node2 -->
<g id="edge2" class="edge">
<title>Node1&#45;&gt;Node2</title>
<path fill="none" stroke="#191970" d="M277.2684,-224.2455C287.0163,-215.9746 301.198,-203.9416 312.6518,-194.2232"/>
<polygon fill="#191970" stroke="#191970" points="315.0468,-196.7813 320.4075,-187.6427 310.5179,-191.4437 315.0468,-196.7813"/>
</g>
<!-- Node3 -->
<g id="node4" class="node">
<title>Node3</title>
<g id="a_node4"><a xlink:href="utils_8hpp.html" target="_top" xlink:title="utils.hpp">
<polygon fill="none" stroke="#000000" points="362.2721,-112.5 362.2721,-131.5 415.2721,-131.5 415.2721,-112.5 362.2721,-112.5"/>
<text text-anchor="middle" x="388.7721" y="-119.5" font-family="Helvetica,sans-Serif" font-size="10.00" fill="#000000">utils.hpp</text>
</a>
</g>
</g>
<!-- Node1&#45;&gt;Node3 -->
<g id="edge13" class="edge">
<title>Node1&#45;&gt;Node3</title>
<path fill="none" stroke="#191970" d="M308.8443,-227.1874C333.0799,-221.0648 361.797,-209.5462 378.7721,-188 388.9586,-175.0705 390.9201,-156.1721 390.6476,-141.9079"/>
<polygon fill="#191970" stroke="#191970" points="394.1273,-141.4493 390.0647,-131.6644 387.1386,-141.8471 394.1273,-141.4493"/>
</g>
<!-- Node1&#45;&gt;Node5 -->
<g id="edge17" class="edge">
<title>Node1&#45;&gt;Node5</title>
<path fill="none" stroke="#191970" d="M222.591,-232.4406C158.3682,-229.1113 42.4667,-218.8762 16.7721,-188 -19.5704,-144.3287 62.7964,-100.8153 112.8622,-79.5046"/>
<polygon fill="#191970" stroke="#191970" points="114.5062,-82.6118 122.3999,-75.545 111.8222,-76.1468 114.5062,-82.6118"/>
</g>
<!-- Node8 -->
<g id="node9" class="node">
<title>Node8</title>
<polygon fill="none" stroke="#bfbfbf" points="349.7721,-.5 349.7721,-19.5 393.7721,-19.5 393.7721,-.5 349.7721,-.5"/>
<text text-anchor="middle" x="371.7721" y="-7.5" font-family="Helvetica,sans-Serif" font-size="10.00" fill="#000000">vector</text>
</g>
<!-- Node1&#45;&gt;Node8 -->
<g id="edge18" class="edge">
<title>Node1&#45;&gt;Node8</title>
<path fill="none" stroke="#191970" d="M308.8418,-229.4928C341.795,-224.1818 386.8554,-212.6991 418.7721,-188 464.8265,-152.3602 471.0806,-132.0802 486.7721,-76 489.1672,-67.4399 491.7554,-63.3606 486.7721,-56 468.4668,-28.9625 431.418,-17.8155 404.3008,-13.2207"/>
<polygon fill="#191970" stroke="#191970" points="404.4977,-9.712 394.094,-11.7154 403.4763,-16.6371 404.4977,-9.712"/>
</g>
<!-- Node1&#45;&gt;Node9 -->
<g id="edge20" class="edge">
<title>Node1&#45;&gt;Node9</title>
<path fill="none" stroke="#191970" d="M308.928,-227.4416C336.7442,-221.3033 372.1788,-209.6756 396.7721,-188 427.5446,-160.8783 441.1297,-112.6594 446.5637,-85.6769"/>
<polygon fill="#191970" stroke="#191970" points="450.062,-86.0034 448.4198,-75.5366 443.1764,-84.743 450.062,-86.0034"/>
</g>
<!-- Node10 -->
<g id="node11" class="node">
<title>Node10</title>
<polygon fill="none" stroke="#bfbfbf" points="247.7721,-56.5 247.7721,-75.5 309.7721,-75.5 309.7721,-56.5 247.7721,-56.5"/>
<text text-anchor="middle" x="278.7721" y="-63.5" font-family="Helvetica,sans-Serif" font-size="10.00" fill="#000000">type_traits</text>
</g>
<!-- Node1&#45;&gt;Node10 -->
<g id="edge19" class="edge">
<title>Node1&#45;&gt;Node10</title>
<path fill="none" stroke="#191970" d="M265.7382,-224.4774C265.7579,-203.8921 266.3073,-153.7346 270.7721,-112 271.6969,-103.3557 273.2509,-93.8806 274.7446,-85.7882"/>
<polygon fill="#191970" stroke="#191970" points="278.2102,-86.3014 276.6794,-75.8178 271.3384,-84.9679 278.2102,-86.3014"/>
</g>
<!-- Node12 -->
<g id="node13" class="node">
<title>Node12</title>
<g id="a_node13"><a xlink:href="exceptions_8hpp.html" target="_top" xlink:title="exceptions.hpp">
<polygon fill="none" stroke="#000000" points="26.2721,-168.5 26.2721,-187.5 109.2721,-187.5 109.2721,-168.5 26.2721,-168.5"/>
<text text-anchor="middle" x="67.7721" y="-175.5" font-family="Helvetica,sans-Serif" font-size="10.00" fill="#000000">exceptions.hpp</text>
</a>
</g>
</g>
<!-- Node1&#45;&gt;Node12 -->
<g id="edge14" class="edge">
<title>Node1&#45;&gt;Node12</title>
<path fill="none" stroke="#191970" d="M231.7347,-224.3733C198.3827,-214.9404 147.4193,-200.5265 111.1719,-190.2747"/>
<polygon fill="#191970" stroke="#191970" points="111.9404,-186.8548 101.3653,-187.5011 110.0353,-193.5906 111.9404,-186.8548"/>
</g>
<!-- Node14 -->
<g id="node15" class="node">
<title>Node14</title>
<polygon fill="none" stroke="#bfbfbf" points="127.7721,-168.5 127.7721,-187.5 167.7721,-187.5 167.7721,-168.5 127.7721,-168.5"/>
<text text-anchor="middle" x="147.7721" y="-175.5" font-family="Helvetica,sans-Serif" font-size="10.00" fill="#000000">utility</text>
</g>
<!-- Node1&#45;&gt;Node14 -->
<g id="edge21" class="edge">
<title>Node1&#45;&gt;Node14</title>
<path fill="none" stroke="#191970" d="M245.4871,-224.3733C226.63,-215.4241 198.3261,-201.9917 177.0266,-191.8835"/>
<polygon fill="#191970" stroke="#191970" points="178.3272,-188.6266 167.7923,-187.5011 175.3259,-194.9506 178.3272,-188.6266"/>
</g>
<!-- Node15 -->
<g id="node16" class="node">
<title>Node15</title>
<polygon fill="none" stroke="#bfbfbf" points="185.7721,-168.5 185.7721,-187.5 237.7721,-187.5 237.7721,-168.5 185.7721,-168.5"/>
<text text-anchor="middle" x="211.7721" y="-175.5" font-family="Helvetica,sans-Serif" font-size="10.00" fill="#000000">memory</text>
</g>
<!-- Node1&#45;&gt;Node15 -->
<g id="edge22" class="edge">
<title>Node1&#45;&gt;Node15</title>
<path fill="none" stroke="#191970" d="M256.366,-224.2455C248.6228,-216.2155 237.4601,-204.6394 228.2403,-195.0781"/>
<polygon fill="#191970" stroke="#191970" points="230.5312,-192.4117 221.0704,-187.6427 225.4923,-197.2706 230.5312,-192.4117"/>
</g>
<!-- Node2&#45;&gt;Node3 -->
<g id="edge3" class="edge">
<title>Node2&#45;&gt;Node3</title>
<path fill="none" stroke="#191970" d="M341.7007,-168.2455C349.9559,-160.1352 361.893,-148.4075 371.6803,-138.7919"/>
<polygon fill="#191970" stroke="#191970" points="374.2767,-141.1476 378.9572,-131.6427 369.3709,-136.1542 374.2767,-141.1476"/>
</g>
<!-- Node2&#45;&gt;Node5 -->
<g id="edge11" class="edge">
<title>Node2&#45;&gt;Node5</title>
<path fill="none" stroke="#191970" d="M316.0843,-168.4509C284.0374,-148.9441 210.8467,-104.3932 172.3999,-80.9909"/>
<polygon fill="#191970" stroke="#191970" points="173.7819,-77.7347 163.4201,-75.5249 170.1423,-83.7141 173.7819,-77.7347"/>
</g>
<!-- Node11 -->
<g id="node12" class="node">
<title>Node11</title>
<g id="a_node12"><a xlink:href="enums_8hpp.html" target="_top" xlink:title="enums.hpp">
<polygon fill="none" stroke="#000000" points="279.2721,-112.5 279.2721,-131.5 344.2721,-131.5 344.2721,-112.5 279.2721,-112.5"/>
<text text-anchor="middle" x="311.7721" y="-119.5" font-family="Helvetica,sans-Serif" font-size="10.00" fill="#000000">enums.hpp</text>
</a>
</g>
</g>
<!-- Node2&#45;&gt;Node11 -->
<g id="edge12" class="edge">
<title>Node2&#45;&gt;Node11</title>
<path fill="none" stroke="#191970" d="M328.2883,-168.2455C325.6212,-160.7776 321.8587,-150.2427 318.5984,-141.1137"/>
<polygon fill="#191970" stroke="#191970" points="321.8754,-139.8829 315.2159,-131.6427 315.2832,-142.2373 321.8754,-139.8829"/>
</g>
<!-- Node4 -->
<g id="node5" class="node">
<title>Node4</title>
<polygon fill="none" stroke="#bfbfbf" points="362.2721,-56.5 362.2721,-75.5 403.2721,-75.5 403.2721,-56.5 362.2721,-56.5"/>
<text text-anchor="middle" x="382.7721" y="-63.5" font-family="Helvetica,sans-Serif" font-size="10.00" fill="#000000">regex</text>
</g>
<!-- Node3&#45;&gt;Node4 -->
<g id="edge4" class="edge">
<title>Node3&#45;&gt;Node4</title>
<path fill="none" stroke="#191970" d="M387.7269,-112.2455C386.944,-104.9382 385.8465,-94.6944 384.8833,-85.7046"/>
<polygon fill="#191970" stroke="#191970" points="388.3507,-85.2129 383.8052,-75.6427 381.3905,-85.9587 388.3507,-85.2129"/>
</g>
<!-- Node3&#45;&gt;Node5 -->
<g id="edge5" class="edge">
<title>Node3&#45;&gt;Node5</title>
<path fill="none" stroke="#191970" d="M362.0628,-114.1945C359.2693,-113.4303 356.4669,-112.6852 353.7721,-112 296.3134,-97.3897 229.2028,-82.8736 187.5896,-74.1682"/>
<polygon fill="#191970" stroke="#191970" points="188.0844,-70.6962 177.5808,-72.0836 186.657,-77.5492 188.0844,-70.6962"/>
</g>
<!-- Node3&#45;&gt;Node9 -->
<g id="edge9" class="edge">
<title>Node3&#45;&gt;Node9</title>
<path fill="none" stroke="#191970" d="M399.3975,-112.2455C408.3194,-104.0549 421.2601,-92.1749 431.7913,-82.5069"/>
<polygon fill="#191970" stroke="#191970" points="434.2688,-84.9837 439.2684,-75.6427 429.5349,-79.8271 434.2688,-84.9837"/>
</g>
<!-- Node3&#45;&gt;Node10 -->
<g id="edge10" class="edge">
<title>Node3&#45;&gt;Node10</title>
<path fill="none" stroke="#191970" d="M369.6115,-112.2455C352.261,-103.4125 326.482,-90.2887 306.8138,-80.2758"/>
<polygon fill="#191970" stroke="#191970" points="308.2126,-77.0605 297.713,-75.6427 305.0368,-83.2986 308.2126,-77.0605"/>
</g>
<!-- Node6 -->
<g id="node7" class="node">
<title>Node6</title>
<polygon fill="none" stroke="#bfbfbf" points="94.2721,-.5 94.2721,-19.5 135.2721,-19.5 135.2721,-.5 94.2721,-.5"/>
<text text-anchor="middle" x="114.7721" y="-7.5" font-family="Helvetica,sans-Serif" font-size="10.00" fill="#000000">string</text>
</g>
<!-- Node5&#45;&gt;Node6 -->
<g id="edge6" class="edge">
<title>Node5&#45;&gt;Node6</title>
<path fill="none" stroke="#191970" d="M142.0239,-56.2455C137.5285,-48.617 131.1472,-37.7881 125.6896,-28.5267"/>
<polygon fill="#191970" stroke="#191970" points="128.5467,-26.4811 120.4544,-19.6427 122.5159,-30.035 128.5467,-26.4811"/>
</g>
<!-- Node7 -->
<g id="node8" class="node">
<title>Node7</title>
<polygon fill="none" stroke="#bfbfbf" points="153.7721,-.5 153.7721,-19.5 207.7721,-19.5 207.7721,-.5 153.7721,-.5"/>
<text text-anchor="middle" x="180.7721" y="-7.5" font-family="Helvetica,sans-Serif" font-size="10.00" fill="#000000">iostream</text>
</g>
<!-- Node5&#45;&gt;Node7 -->
<g id="edge7" class="edge">
<title>Node5&#45;&gt;Node7</title>
<path fill="none" stroke="#191970" d="M153.5202,-56.2455C158.0156,-48.617 164.3969,-37.7881 169.8545,-28.5267"/>
<polygon fill="#191970" stroke="#191970" points="173.0282,-30.035 175.0898,-19.6427 166.9974,-26.4811 173.0282,-30.035"/>
</g>
<!-- Node5&#45;&gt;Node8 -->
<g id="edge8" class="edge">
<title>Node5&#45;&gt;Node8</title>
<path fill="none" stroke="#191970" d="M177.5175,-58.5636C219.7149,-48.0143 296.63,-28.7855 339.9392,-17.9582"/>
<polygon fill="#191970" stroke="#191970" points="340.8197,-21.3459 349.6722,-15.525 339.1219,-14.5549 340.8197,-21.3459"/>
</g>
<!-- Node12&#45;&gt;Node5 -->
<g id="edge16" class="edge">
<title>Node12&#45;&gt;Node5</title>
<path fill="none" stroke="#191970" d="M68.6391,-168.2227C70.257,-154.5646 74.7445,-129.4872 86.7721,-112 95.4573,-99.3724 108.7292,-88.7727 120.6781,-80.9428"/>
<polygon fill="#191970" stroke="#191970" points="122.7987,-83.7465 129.4597,-75.5074 119.1146,-77.7944 122.7987,-83.7465"/>
</g>
<!-- Node13 -->
<g id="node14" class="node">
<title>Node13</title>
<polygon fill="none" stroke="#bfbfbf" points="96.2721,-112.5 96.2721,-131.5 155.2721,-131.5 155.2721,-112.5 96.2721,-112.5"/>
<text text-anchor="middle" x="125.7721" y="-119.5" font-family="Helvetica,sans-Serif" font-size="10.00" fill="#000000">stdexcept</text>
</g>
<!-- Node12&#45;&gt;Node13 -->
<g id="edge15" class="edge">
<title>Node12&#45;&gt;Node13</title>
<path fill="none" stroke="#191970" d="M77.8749,-168.2455C86.2749,-160.1352 98.4214,-148.4075 108.3804,-138.7919"/>
<polygon fill="#191970" stroke="#191970" points="111.0221,-141.1066 115.785,-131.6427 106.1599,-136.0707 111.0221,-141.1066"/>
</g>
</g>
</svg>
