<?xml version="1.0" encoding="UTF-8" standalone="no"?>
<!DOCTYPE svg PUBLIC "-//W3C//DTD SVG 1.1//EN"
 "http://www.w3.org/Graphics/SVG/1.1/DTD/svg11.dtd">
<!-- Generated by graphviz version 2.38.0 (20140413.2041)
 -->
<!-- Title: groups.hpp Pages: 1 -->
<svg width="491pt" height="308pt"
 viewBox="0.00 0.00 490.55 308.00" xmlns="http://www.w3.org/2000/svg" xmlns:xlink="http://www.w3.org/1999/xlink">
<g id="graph0" class="graph" transform="scale(1 1) rotate(0) translate(4 304)">
<title>groups.hpp</title>
<!-- Node1 -->
<g id="node1" class="node"><title>Node1</title>
<polygon fill="#bfbfbf" stroke="black" points="229.19,-280.5 229.19,-299.5 292.19,-299.5 292.19,-280.5 229.19,-280.5"/>
<text text-anchor="middle" x="260.69" y="-287.5" font-family="FreeSans" font-size="10.00">groups.hpp</text>
</g>
<!-- Node2 -->
<g id="node2" class="node"><title>Node2</title>
<g id="a_node2"><a xlink:href="group__iface_8hpp.html" target="_top" xlink:title="group_iface.hpp">
<polygon fill="none" stroke="black" points="218.19,-224.5 218.19,-243.5 303.19,-243.5 303.19,-224.5 218.19,-224.5"/>
<text text-anchor="middle" x="260.69" y="-231.5" font-family="FreeSans" font-size="10.00">group_iface.hpp</text>
</a>
</g>
</g>
<!-- Node1&#45;&gt;Node2 -->
<g id="edge1" class="edge"><title>Node1&#45;&gt;Node2</title>
<path fill="none" stroke="midnightblue" d="M260.69,-280.083C260.69,-273.006 260.69,-262.861 260.69,-253.986"/>
<polygon fill="midnightblue" stroke="midnightblue" points="264.19,-253.751 260.69,-243.751 257.19,-253.751 264.19,-253.751"/>
</g>
<!-- Node6 -->
<g id="node6" class="node"><title>Node6</title>
<g id="a_node6"><a xlink:href="types_8hpp.html" target="_top" xlink:title="types.hpp">
<polygon fill="none" stroke="black" points="99.1898,-56.5 99.1898,-75.5 156.19,-75.5 156.19,-56.5 99.1898,-56.5"/>
<text text-anchor="middle" x="127.69" y="-63.5" font-family="FreeSans" font-size="10.00">types.hpp</text>
</a>
</g>
</g>
<!-- Node1&#45;&gt;Node6 -->
<g id="edge23" class="edge"><title>Node1&#45;&gt;Node6</title>
<path fill="none" stroke="midnightblue" d="M229.045,-287.326C172.651,-282.434 55.8949,-263.248 4.68978,-188 -8.7541,-168.244 9.87023,-126.083 22.6898,-112 40.0556,-92.922 66.8829,-81.6135 89.0731,-75.1045"/>
<polygon fill="midnightblue" stroke="midnightblue" points="90.1568,-78.437 98.8916,-72.4409 88.324,-71.6812 90.1568,-78.437"/>
</g>
<!-- Node10 -->
<g id="node10" class="node"><title>Node10</title>
<polygon fill="none" stroke="#bfbfbf" points="414.69,-56.5 414.69,-75.5 470.69,-75.5 470.69,-56.5 414.69,-56.5"/>
<text text-anchor="middle" x="442.69" y="-63.5" font-family="FreeSans" font-size="10.00">algorithm</text>
</g>
<!-- Node1&#45;&gt;Node10 -->
<g id="edge24" class="edge"><title>Node1&#45;&gt;Node10</title>
<path fill="none" stroke="midnightblue" d="M279.235,-280.466C310.265,-265.445 373.274,-231.693 413.69,-188 433.007,-167.116 437.575,-159.544 444.69,-132 446.913,-123.394 444.887,-120.887 444.69,-112 444.499,-103.391 444.102,-93.8632 443.712,-85.799"/>
<polygon fill="midnightblue" stroke="midnightblue" points="447.197,-85.4294 443.187,-75.623 440.207,-85.79 447.197,-85.4294"/>
</g>
<!-- Node3 -->
<g id="node3" class="node"><title>Node3</title>
<g id="a_node3"><a xlink:href="arg__iface_8hpp.html" target="_top" xlink:title="arg_iface.hpp">
<polygon fill="none" stroke="black" points="288.69,-168.5 288.69,-187.5 362.69,-187.5 362.69,-168.5 288.69,-168.5"/>
<text text-anchor="middle" x="325.69" y="-175.5" font-family="FreeSans" font-size="10.00">arg_iface.hpp</text>
</a>
</g>
</g>
<!-- Node2&#45;&gt;Node3 -->
<g id="edge2" class="edge"><title>Node2&#45;&gt;Node3</title>
<path fill="none" stroke="midnightblue" d="M271.133,-224.324C280.836,-216.263 295.505,-204.077 307.19,-194.369"/>
<polygon fill="midnightblue" stroke="midnightblue" points="309.601,-196.916 315.056,-187.834 305.128,-191.532 309.601,-196.916"/>
</g>
<!-- Node4 -->
<g id="node4" class="node"><title>Node4</title>
<g id="a_node4"><a xlink:href="utils_8hpp.html" target="_top" xlink:title="utils.hpp">
<polygon fill="none" stroke="black" points="356.69,-112.5 356.69,-131.5 408.69,-131.5 408.69,-112.5 356.69,-112.5"/>
<text text-anchor="middle" x="382.69" y="-119.5" font-family="FreeSans" font-size="10.00">utils.hpp</text>
</a>
</g>
</g>
<!-- Node2&#45;&gt;Node4 -->
<g id="edge13" class="edge"><title>Node2&#45;&gt;Node4</title>
<path fill="none" stroke="midnightblue" d="M303.414,-226.135C327.056,-220.09 354.958,-208.834 371.69,-188 382.095,-175.044 384.236,-155.877 384.14,-141.711"/>
<polygon fill="midnightblue" stroke="midnightblue" points="387.633,-141.473 383.698,-131.636 380.639,-141.78 387.633,-141.473"/>
</g>
<!-- Node2&#45;&gt;Node6 -->
<g id="edge17" class="edge"><title>Node2&#45;&gt;Node6</title>
<path fill="none" stroke="midnightblue" d="M218.118,-231.472C155.134,-228.216 41.8372,-218.209 16.6898,-188 -17.222,-147.262 56.6845,-101.869 99.6782,-80.0745"/>
<polygon fill="midnightblue" stroke="midnightblue" points="101.428,-83.1141 108.843,-75.5466 98.3268,-76.8383 101.428,-83.1141"/>
</g>
<!-- Node9 -->
<g id="node9" class="node"><title>Node9</title>
<polygon fill="none" stroke="#bfbfbf" points="375.19,-0.5 375.19,-19.5 418.19,-19.5 418.19,-0.5 375.19,-0.5"/>
<text text-anchor="middle" x="396.69" y="-7.5" font-family="FreeSans" font-size="10.00">vector</text>
</g>
<!-- Node2&#45;&gt;Node9 -->
<g id="edge18" class="edge"><title>Node2&#45;&gt;Node9</title>
<path fill="none" stroke="midnightblue" d="M303.501,-228.981C336.528,-223.995 381.809,-212.854 413.69,-188 459.257,-152.476 464.487,-131.742 479.69,-76 482.029,-67.4243 484.237,-63.6378 479.69,-56 468.531,-37.2564 446.543,-25.8395 428.002,-19.1971"/>
<polygon fill="midnightblue" stroke="midnightblue" points="429.014,-15.8458 418.421,-16.0636 426.838,-22.4989 429.014,-15.8458"/>
</g>
<!-- Node2&#45;&gt;Node10 -->
<g id="edge20" class="edge"><title>Node2&#45;&gt;Node10</title>
<path fill="none" stroke="midnightblue" d="M303.307,-226.908C330.997,-221.031 366.34,-209.677 390.69,-188 421.323,-160.729 434.558,-112.269 439.736,-85.7023"/>
<polygon fill="midnightblue" stroke="midnightblue" points="443.195,-86.2391 441.489,-75.7826 436.302,-85.0208 443.195,-86.2391"/>
</g>
<!-- Node11 -->
<g id="node11" class="node"><title>Node11</title>
<polygon fill="none" stroke="#bfbfbf" points="246.19,-56.5 246.19,-75.5 307.19,-75.5 307.19,-56.5 246.19,-56.5"/>
<text text-anchor="middle" x="276.69" y="-63.5" font-family="FreeSans" font-size="10.00">type_traits</text>
</g>
<!-- Node2&#45;&gt;Node11 -->
<g id="edge19" class="edge"><title>Node2&#45;&gt;Node11</title>
<path fill="none" stroke="midnightblue" d="M260.463,-224.439C260.064,-204.573 259.771,-153.843 265.69,-112 266.944,-103.131 269.189,-93.4616 271.325,-85.367"/>
<polygon fill="midnightblue" stroke="midnightblue" points="274.754,-86.1006 274.068,-75.528 268.011,-84.2212 274.754,-86.1006"/>
</g>
<!-- Node13 -->
<g id="node13" class="node"><title>Node13</title>
<g id="a_node13"><a xlink:href="exceptions_8hpp.html" target="_top" xlink:title="exceptions.hpp">
<polygon fill="none" stroke="black" points="25.6898,-168.5 25.6898,-187.5 105.69,-187.5 105.69,-168.5 25.6898,-168.5"/>
<text text-anchor="middle" x="65.6898" y="-175.5" font-family="FreeSans" font-size="10.00">exceptions.hpp</text>
</a>
</g>
</g>
<!-- Node2&#45;&gt;Node13 -->
<g id="edge14" class="edge"><title>Node2&#45;&gt;Node13</title>
<path fill="none" stroke="midnightblue" d="M229.791,-224.444C196.416,-215.201 143.096,-200.436 106.341,-190.257"/>
<polygon fill="midnightblue" stroke="midnightblue" points="107.015,-186.812 96.4436,-187.516 105.147,-193.558 107.015,-186.812"/>
</g>
<!-- Node15 -->
<g id="node15" class="node"><title>Node15</title>
<polygon fill="none" stroke="#bfbfbf" points="124.19,-168.5 124.19,-187.5 163.19,-187.5 163.19,-168.5 124.19,-168.5"/>
<text text-anchor="middle" x="143.69" y="-175.5" font-family="FreeSans" font-size="10.00">utility</text>
</g>
<!-- Node2&#45;&gt;Node15 -->
<g id="edge21" class="edge"><title>Node2&#45;&gt;Node15</title>
<path fill="none" stroke="midnightblue" d="M242.151,-224.444C223.067,-215.636 193.115,-201.812 171.254,-191.722"/>
<polygon fill="midnightblue" stroke="midnightblue" points="172.688,-188.529 162.142,-187.516 169.755,-194.885 172.688,-188.529"/>
</g>
<!-- Node16 -->
<g id="node16" class="node"><title>Node16</title>
<polygon fill="none" stroke="#bfbfbf" points="181.19,-168.5 181.19,-187.5 232.19,-187.5 232.19,-168.5 181.19,-168.5"/>
<text text-anchor="middle" x="206.69" y="-175.5" font-family="FreeSans" font-size="10.00">memory</text>
</g>
<!-- Node2&#45;&gt;Node16 -->
<g id="edge22" class="edge"><title>Node2&#45;&gt;Node16</title>
<path fill="none" stroke="midnightblue" d="M251.773,-224.083C243.909,-216.22 232.259,-204.569 222.771,-195.081"/>
<polygon fill="midnightblue" stroke="midnightblue" points="224.987,-192.347 215.441,-187.751 220.037,-197.297 224.987,-192.347"/>
</g>
<!-- Node3&#45;&gt;Node4 -->
<g id="edge3" class="edge"><title>Node3&#45;&gt;Node4</title>
<path fill="none" stroke="midnightblue" d="M334.848,-168.324C343.191,-160.42 355.722,-148.548 365.867,-138.938"/>
<polygon fill="midnightblue" stroke="midnightblue" points="368.513,-141.252 373.365,-131.834 363.698,-136.171 368.513,-141.252"/>
</g>
<!-- Node3&#45;&gt;Node6 -->
<g id="edge11" class="edge"><title>Node3&#45;&gt;Node6</title>
<path fill="none" stroke="midnightblue" d="M310.153,-168.368C275.815,-149.292 193.25,-103.422 152,-80.5054"/>
<polygon fill="midnightblue" stroke="midnightblue" points="153.596,-77.3883 143.154,-75.5914 150.196,-83.5075 153.596,-77.3883"/>
</g>
<!-- Node12 -->
<g id="node12" class="node"><title>Node12</title>
<g id="a_node12"><a xlink:href="enums_8hpp.html" target="_top" xlink:title="enums.hpp">
<polygon fill="none" stroke="black" points="275.19,-112.5 275.19,-131.5 338.19,-131.5 338.19,-112.5 275.19,-112.5"/>
<text text-anchor="middle" x="306.69" y="-119.5" font-family="FreeSans" font-size="10.00">enums.hpp</text>
</a>
</g>
</g>
<!-- Node3&#45;&gt;Node12 -->
<g id="edge12" class="edge"><title>Node3&#45;&gt;Node12</title>
<path fill="none" stroke="midnightblue" d="M322.552,-168.083C320.007,-160.849 316.334,-150.409 313.163,-141.397"/>
<polygon fill="midnightblue" stroke="midnightblue" points="316.39,-140.023 309.769,-131.751 309.786,-142.346 316.39,-140.023"/>
</g>
<!-- Node5 -->
<g id="node5" class="node"><title>Node5</title>
<polygon fill="none" stroke="#bfbfbf" points="356.69,-56.5 356.69,-75.5 396.69,-75.5 396.69,-56.5 356.69,-56.5"/>
<text text-anchor="middle" x="376.69" y="-63.5" font-family="FreeSans" font-size="10.00">regex</text>
</g>
<!-- Node4&#45;&gt;Node5 -->
<g id="edge4" class="edge"><title>Node4&#45;&gt;Node5</title>
<path fill="none" stroke="midnightblue" d="M381.699,-112.083C380.904,-104.927 379.76,-94.6353 378.767,-85.6911"/>
<polygon fill="midnightblue" stroke="midnightblue" points="382.245,-85.3034 377.662,-75.7511 375.288,-86.0765 382.245,-85.3034"/>
</g>
<!-- Node4&#45;&gt;Node6 -->
<g id="edge5" class="edge"><title>Node4&#45;&gt;Node6</title>
<path fill="none" stroke="midnightblue" d="M356.374,-114.285C353.118,-113.494 349.831,-112.715 346.69,-112 283.796,-97.6834 210.275,-82.9918 166.425,-74.4446"/>
<polygon fill="midnightblue" stroke="midnightblue" points="166.955,-70.9824 156.471,-72.5108 165.62,-77.8539 166.955,-70.9824"/>
</g>
<!-- Node4&#45;&gt;Node10 -->
<g id="edge9" class="edge"><title>Node4&#45;&gt;Node10</title>
<path fill="none" stroke="midnightblue" d="M392.33,-112.324C401.199,-104.341 414.564,-92.3128 425.298,-82.6529"/>
<polygon fill="midnightblue" stroke="midnightblue" points="427.783,-85.1251 432.874,-75.8339 423.1,-79.922 427.783,-85.1251"/>
</g>
<!-- Node4&#45;&gt;Node11 -->
<g id="edge10" class="edge"><title>Node4&#45;&gt;Node11</title>
<path fill="none" stroke="midnightblue" d="M365.659,-112.324C348.66,-103.664 322.314,-90.2424 302.697,-80.249"/>
<polygon fill="midnightblue" stroke="midnightblue" points="304.177,-77.0752 293.678,-75.6545 301,-83.3125 304.177,-77.0752"/>
</g>
<!-- Node7 -->
<g id="node7" class="node"><title>Node7</title>
<polygon fill="none" stroke="#bfbfbf" points="75.6898,-0.5 75.6898,-19.5 115.69,-19.5 115.69,-0.5 75.6898,-0.5"/>
<text text-anchor="middle" x="95.6898" y="-7.5" font-family="FreeSans" font-size="10.00">string</text>
</g>
<!-- Node6&#45;&gt;Node7 -->
<g id="edge6" class="edge"><title>Node6&#45;&gt;Node7</title>
<path fill="none" stroke="midnightblue" d="M122.406,-56.083C117.979,-48.6127 111.526,-37.7244 106.072,-28.5199"/>
<polygon fill="midnightblue" stroke="midnightblue" points="108.985,-26.5697 100.876,-19.7511 102.963,-30.1383 108.985,-26.5697"/>
</g>
<!-- Node8 -->
<g id="node8" class="node"><title>Node8</title>
<polygon fill="none" stroke="#bfbfbf" points="134.19,-0.5 134.19,-19.5 187.19,-19.5 187.19,-0.5 134.19,-0.5"/>
<text text-anchor="middle" x="160.69" y="-7.5" font-family="FreeSans" font-size="10.00">iostream</text>
</g>
<!-- Node6&#45;&gt;Node8 -->
<g id="edge7" class="edge"><title>Node6&#45;&gt;Node8</title>
<path fill="none" stroke="midnightblue" d="M133.139,-56.083C137.704,-48.6127 144.358,-37.7244 149.983,-28.5199"/>
<polygon fill="midnightblue" stroke="midnightblue" points="153.114,-30.109 155.342,-19.7511 147.141,-26.4588 153.114,-30.109"/>
</g>
<!-- Node6&#45;&gt;Node9 -->
<g id="edge8" class="edge"><title>Node6&#45;&gt;Node9</title>
<path fill="none" stroke="midnightblue" d="M156.223,-59.2722C206.929,-49.0933 312.355,-27.9297 365.144,-17.3326"/>
<polygon fill="midnightblue" stroke="midnightblue" points="365.853,-20.7603 374.968,-15.3605 364.475,-13.8972 365.853,-20.7603"/>
</g>
<!-- Node13&#45;&gt;Node6 -->
<g id="edge16" class="edge"><title>Node13&#45;&gt;Node6</title>
<path fill="none" stroke="midnightblue" d="M66.8531,-168.492C68.9021,-155.567 73.9922,-130.532 84.6898,-112 91.0763,-100.937 100.734,-90.4948 109.28,-82.4598"/>
<polygon fill="midnightblue" stroke="midnightblue" points="111.878,-84.8319 116.99,-75.552 107.206,-79.6184 111.878,-84.8319"/>
</g>
<!-- Node14 -->
<g id="node14" class="node"><title>Node14</title>
<polygon fill="none" stroke="#bfbfbf" points="93.6898,-112.5 93.6898,-131.5 151.69,-131.5 151.69,-112.5 93.6898,-112.5"/>
<text text-anchor="middle" x="122.69" y="-119.5" font-family="FreeSans" font-size="10.00">stdexcept</text>
</g>
<!-- Node13&#45;&gt;Node14 -->
<g id="edge15" class="edge"><title>Node13&#45;&gt;Node14</title>
<path fill="none" stroke="midnightblue" d="M74.8478,-168.324C83.1913,-160.42 95.7222,-148.548 105.867,-138.938"/>
<polygon fill="midnightblue" stroke="midnightblue" points="108.513,-141.252 113.365,-131.834 103.698,-136.171 108.513,-141.252"/>
</g>
</g>
</svg>
