<?xml version="1.0" encoding="UTF-8" standalone="no"?>
<!DOCTYPE svg PUBLIC "-//W3C//DTD SVG 1.1//EN"
 "http://www.w3.org/Graphics/SVG/1.1/DTD/svg11.dtd">
<!-- Generated by graphviz version 2.43.0 (0)
 -->
<!-- Title: group_iface.hpp Pages: 1 -->
<svg width="271pt" height="247pt"
 viewBox="0.00 0.00 271.00 247.00" xmlns="http://www.w3.org/2000/svg" xmlns:xlink="http://www.w3.org/1999/xlink">
<g id="graph0" class="graph" transform="scale(1 1) rotate(0) translate(4 243)">
<title>group_iface.hpp</title>
<!-- Node1 -->
<g id="Node000001" class="node">
<title>Node1</title>
<g id="a_Node000001"><a xlink:title=" ">
<polygon fill="#999999" stroke="#666666" points="263,-239 168,-239 168,-220 263,-220 263,-239"/>
<text text-anchor="middle" x="215.5" y="-227" font-family="Helvetica,sans-Serif" font-size="10.00">group_iface.hpp</text>
</a>
</g>
</g>
<!-- Node2 -->
<g id="Node000002" class="node">
<title>Node2</title>
<g id="a_Node000002"><a xlink:href="command_8hpp.html" target="_top" xlink:title=" ">
<polygon fill="white" stroke="#666666" points="161.5,-184 75.5,-184 75.5,-165 161.5,-165 161.5,-184"/>
<text text-anchor="middle" x="118.5" y="-172" font-family="Helvetica,sans-Serif" font-size="10.00">command.hpp</text>
</a>
</g>
</g>
<!-- Node1&#45;&gt;Node2 -->
<g id="edge1_Node000001_Node000002" class="edge">
<title>Node1&#45;&gt;Node2</title>
<g id="a_edge1_Node000001_Node000002"><a xlink:title=" ">
<path fill="none" stroke="#63b8ff" d="M190.73,-214.97C173,-205.28 149.65,-192.52 134.37,-184.17"/>
<polygon fill="#63b8ff" stroke="#63b8ff" points="189.46,-218.26 199.92,-219.98 192.82,-212.12 189.46,-218.26"/>
</a>
</g>
</g>
<!-- Node6 -->
<g id="Node000006" class="node">
<title>Node6</title>
<g id="a_Node000006"><a xlink:href="help__printer_8hpp.html" target="_top" xlink:title=" ">
<polygon fill="white" stroke="#666666" points="184,-19 89,-19 89,0 184,0 184,-19"/>
<text text-anchor="middle" x="136.5" y="-7" font-family="Helvetica,sans-Serif" font-size="10.00">help_printer.hpp</text>
</a>
</g>
</g>
<!-- Node1&#45;&gt;Node6 -->
<g id="edge15_Node000001_Node000006" class="edge">
<title>Node1&#45;&gt;Node6</title>
<g id="a_edge15_Node000001_Node000006"><a xlink:title=" ">
<path fill="none" stroke="#63b8ff" d="M237.02,-213.45C246.08,-205.8 255.64,-195.64 260.5,-184 263.75,-176.21 262.5,-173.2 260.5,-165 247.46,-111.5 240.27,-95.98 203.5,-55 189.51,-39.41 168.91,-26.81 154.25,-19.05"/>
<polygon fill="#63b8ff" stroke="#63b8ff" points="234.7,-210.83 228.99,-219.75 239.02,-216.33 234.7,-210.83"/>
</a>
</g>
</g>
<!-- Node8 -->
<g id="Node000008" class="node">
<title>Node8</title>
<g id="a_Node000008"><a xlink:href="groups_8hpp.html" target="_top" xlink:title=" ">
<polygon fill="white" stroke="#666666" points="251,-184 180,-184 180,-165 251,-165 251,-184"/>
<text text-anchor="middle" x="215.5" y="-172" font-family="Helvetica,sans-Serif" font-size="10.00">groups.hpp</text>
</a>
</g>
</g>
<!-- Node1&#45;&gt;Node8 -->
<g id="edge12_Node000001_Node000008" class="edge">
<title>Node1&#45;&gt;Node8</title>
<g id="a_edge12_Node000001_Node000008"><a xlink:title=" ">
<path fill="none" stroke="#63b8ff" d="M215.5,-209.66C215.5,-200.93 215.5,-190.99 215.5,-184.09"/>
<polygon fill="#63b8ff" stroke="#63b8ff" points="212,-209.75 215.5,-219.75 219,-209.75 212,-209.75"/>
</a>
</g>
</g>
<!-- Node3 -->
<g id="Node000003" class="node">
<title>Node3</title>
<g id="a_Node000003"><a xlink:href="api_8hpp.html" target="_top" xlink:title=" ">
<polygon fill="white" stroke="#666666" points="207,-129 154,-129 154,-110 207,-110 207,-129"/>
<text text-anchor="middle" x="180.5" y="-117" font-family="Helvetica,sans-Serif" font-size="10.00">api.hpp</text>
</a>
</g>
</g>
<!-- Node2&#45;&gt;Node3 -->
<g id="edge2_Node000002_Node000003" class="edge">
<title>Node2&#45;&gt;Node3</title>
<g id="a_edge2_Node000002_Node000003"><a xlink:title=" ">
<path fill="none" stroke="#63b8ff" d="M130.94,-157.52C140.94,-148.18 154.68,-136.75 165.32,-129.09"/>
<polygon fill="#63b8ff" stroke="#63b8ff" points="128.26,-155.25 123.57,-164.75 133.16,-160.24 128.26,-155.25"/>
</a>
</g>
</g>
<!-- Node4 -->
<g id="Node000004" class="node">
<title>Node4</title>
<g id="a_Node000004"><a xlink:href="cmd__line_8hpp.html" target="_top" xlink:title=" ">
<polygon fill="white" stroke="#666666" points="97.5,-74 15.5,-74 15.5,-55 97.5,-55 97.5,-74"/>
<text text-anchor="middle" x="56.5" y="-62" font-family="Helvetica,sans-Serif" font-size="10.00">cmd_line.hpp</text>
</a>
</g>
</g>
<!-- Node2&#45;&gt;Node4 -->
<g id="edge8_Node000002_Node000004" class="edge">
<title>Node2&#45;&gt;Node4</title>
<g id="a_edge8_Node000002_Node000004"><a xlink:title=" ">
<path fill="none" stroke="#63b8ff" d="M108.31,-155.76C94.84,-132.28 71.61,-91.81 61.47,-74.16"/>
<polygon fill="#63b8ff" stroke="#63b8ff" points="105.41,-157.73 113.43,-164.66 111.48,-154.25 105.41,-157.73"/>
</a>
</g>
</g>
<!-- Node2&#45;&gt;Node6 -->
<g id="edge11_Node000002_Node000006" class="edge">
<title>Node2&#45;&gt;Node6</title>
<g id="a_edge11_Node000002_Node000006"><a xlink:title=" ">
<path fill="none" stroke="#63b8ff" d="M120.61,-154.37C124.52,-119.03 132.71,-44.79 135.53,-19.31"/>
<polygon fill="#63b8ff" stroke="#63b8ff" points="117.09,-154.41 119.47,-164.74 124.04,-155.18 117.09,-154.41"/>
</a>
</g>
</g>
<!-- Node7 -->
<g id="Node000007" class="node">
<title>Node7</title>
<g id="a_Node000007"><a xlink:href="help_8hpp.html" target="_top" xlink:title=" ">
<polygon fill="white" stroke="#666666" points="59,-129 0,-129 0,-110 59,-110 59,-129"/>
<text text-anchor="middle" x="29.5" y="-117" font-family="Helvetica,sans-Serif" font-size="10.00">help.hpp</text>
</a>
</g>
</g>
<!-- Node2&#45;&gt;Node7 -->
<g id="edge9_Node000002_Node000007" class="edge">
<title>Node2&#45;&gt;Node7</title>
<g id="a_edge9_Node000002_Node000007"><a xlink:title=" ">
<path fill="none" stroke="#63b8ff" d="M95.32,-159.7C79.11,-150.04 57.95,-137.44 44.06,-129.17"/>
<polygon fill="#63b8ff" stroke="#63b8ff" points="93.82,-162.88 104.2,-164.98 97.4,-156.86 93.82,-162.88"/>
</a>
</g>
</g>
<!-- Node3&#45;&gt;Node2 -->
<g id="edge7_Node000003_Node000002" class="edge">
<title>Node3&#45;&gt;Node2</title>
<g id="a_edge7_Node000003_Node000002"><a xlink:title=" ">
<path fill="none" stroke="#63b8ff" d="M168.12,-136.42C158.08,-145.81 144.26,-157.3 133.58,-164.98"/>
<polygon fill="#63b8ff" stroke="#63b8ff" points="170.82,-138.67 175.51,-129.17 165.92,-133.68 170.82,-138.67"/>
</a>
</g>
</g>
<!-- Node3&#45;&gt;Node4 -->
<g id="edge3_Node000003_Node000004" class="edge">
<title>Node3&#45;&gt;Node4</title>
<g id="a_edge3_Node000003_Node000004"><a xlink:title=" ">
<path fill="none" stroke="#63b8ff" d="M151.32,-106.03C128.39,-96.23 97.05,-82.83 76.79,-74.17"/>
<polygon fill="#63b8ff" stroke="#63b8ff" points="150.01,-109.27 160.58,-109.98 152.76,-102.84 150.01,-109.27"/>
</a>
</g>
</g>
<!-- Node5 -->
<g id="Node000005" class="node">
<title>Node5</title>
<g id="a_Node000005"><a xlink:href="all_8hpp.html" target="_top" xlink:title=" ">
<polygon fill="white" stroke="#666666" points="70.5,-19 20.5,-19 20.5,0 70.5,0 70.5,-19"/>
<text text-anchor="middle" x="45.5" y="-7" font-family="Helvetica,sans-Serif" font-size="10.00">all.hpp</text>
</a>
</g>
</g>
<!-- Node4&#45;&gt;Node5 -->
<g id="edge4_Node000004_Node000005" class="edge">
<title>Node4&#45;&gt;Node5</title>
<g id="a_edge4_Node000004_Node000005"><a xlink:title=" ">
<path fill="none" stroke="#63b8ff" d="M52.65,-44.95C50.82,-36.15 48.73,-26.06 47.28,-19.09"/>
<polygon fill="#63b8ff" stroke="#63b8ff" points="49.22,-45.67 54.68,-54.75 56.08,-44.25 49.22,-45.67"/>
</a>
</g>
</g>
<!-- Node4&#45;&gt;Node6 -->
<g id="edge5_Node000004_Node000006" class="edge">
<title>Node4&#45;&gt;Node6</title>
<g id="a_edge5_Node000004_Node000006"><a xlink:title=" ">
<path fill="none" stroke="#63b8ff" d="M72.47,-48.88C85.76,-39.34 104.38,-27.21 118.26,-19.17"/>
<polygon fill="#63b8ff" stroke="#63b8ff" points="70.18,-46.21 64.24,-54.98 74.35,-51.83 70.18,-46.21"/>
</a>
</g>
</g>
<!-- Node6&#45;&gt;Node4 -->
<g id="edge6_Node000006_Node000004" class="edge">
<title>Node6&#45;&gt;Node4</title>
<g id="a_edge6_Node000006_Node000004"><a xlink:title=" ">
<path fill="none" stroke="#63b8ff" d="M120.28,-25.31C106.92,-34.88 88.29,-47 74.47,-54.98"/>
<polygon fill="#63b8ff" stroke="#63b8ff" points="122.61,-27.94 128.56,-19.17 118.44,-22.31 122.61,-27.94"/>
</a>
</g>
</g>
<!-- Node7&#45;&gt;Node4 -->
<g id="edge10_Node000007_Node000004" class="edge">
<title>Node7&#45;&gt;Node4</title>
<g id="a_edge10_Node000007_Node000004"><a xlink:title=" ">
<path fill="none" stroke="#63b8ff" d="M38.51,-100.82C43.09,-91.82 48.45,-81.29 52.12,-74.09"/>
<polygon fill="#63b8ff" stroke="#63b8ff" points="35.38,-99.25 33.96,-109.75 41.62,-102.43 35.38,-99.25"/>
</a>
</g>
</g>
<!-- Node8&#45;&gt;Node3 -->
<g id="edge13_Node000008_Node000003" class="edge">
<title>Node8&#45;&gt;Node3</title>
<g id="a_edge13_Node000008_Node000003"><a xlink:title=" ">
<path fill="none" stroke="#63b8ff" d="M204.2,-156.39C198.18,-147.27 191.03,-136.45 186.17,-129.09"/>
<polygon fill="#63b8ff" stroke="#63b8ff" points="201.29,-158.33 209.72,-164.75 207.13,-154.47 201.29,-158.33"/>
</a>
</g>
</g>
<!-- Node8&#45;&gt;Node6 -->
<g id="edge14_Node000008_Node000006" class="edge">
<title>Node8&#45;&gt;Node6</title>
<g id="a_edge14_Node000008_Node000006"><a xlink:title=" ">
<path fill="none" stroke="#63b8ff" d="M219.12,-154.95C220.86,-141.99 221.6,-124.48 216.5,-110 202.51,-70.28 165.22,-34.71 146.92,-19.01"/>
<polygon fill="#63b8ff" stroke="#63b8ff" points="215.64,-154.55 217.46,-164.98 222.54,-155.69 215.64,-154.55"/>
</a>
</g>
</g>
</g>
</svg>
