<?xml version="1.0" encoding="UTF-8" standalone="no"?>
<!DOCTYPE svg PUBLIC "-//W3C//DTD SVG 1.1//EN"
 "http://www.w3.org/Graphics/SVG/1.1/DTD/svg11.dtd">
<!-- Generated by graphviz version 2.38.0 (20140413.2041)
 -->
<!-- Title: group_iface.hpp Pages: 1 -->
<svg width="529pt" height="252pt"
 viewBox="0.00 0.00 529.22 252.00" xmlns="http://www.w3.org/2000/svg" xmlns:xlink="http://www.w3.org/1999/xlink">
<g id="graph0" class="graph" transform="scale(1 1) rotate(0) translate(4 248)">
<title>group_iface.hpp</title>
<!-- Node1 -->
<g id="node1" class="node"><title>Node1</title>
<polygon fill="#bfbfbf" stroke="black" points="263.223,-224.5 263.223,-243.5 348.223,-243.5 348.223,-224.5 263.223,-224.5"/>
<text text-anchor="middle" x="305.723" y="-231.5" font-family="FreeSans" font-size="10.00">group_iface.hpp</text>
</g>
<!-- Node2 -->
<g id="node2" class="node"><title>Node2</title>
<g id="a_node2"><a xlink:href="arg__iface_8hpp.html" target="_top" xlink:title="arg_iface.hpp">
<polygon fill="none" stroke="black" points="161.723,-168.5 161.723,-187.5 235.723,-187.5 235.723,-168.5 161.723,-168.5"/>
<text text-anchor="middle" x="198.723" y="-175.5" font-family="FreeSans" font-size="10.00">arg_iface.hpp</text>
</a>
</g>
</g>
<!-- Node1&#45;&gt;Node2 -->
<g id="edge1" class="edge"><title>Node1&#45;&gt;Node2</title>
<path fill="none" stroke="midnightblue" d="M288.531,-224.324C271.372,-215.664 244.777,-202.242 224.975,-192.249"/>
<polygon fill="midnightblue" stroke="midnightblue" points="226.376,-189.035 215.871,-187.655 223.222,-195.285 226.376,-189.035"/>
</g>
<!-- Node3 -->
<g id="node3" class="node"><title>Node3</title>
<g id="a_node3"><a xlink:href="utils_8hpp.html" target="_top" xlink:title="utils.hpp">
<polygon fill="none" stroke="black" points="225.723,-112.5 225.723,-131.5 277.723,-131.5 277.723,-112.5 225.723,-112.5"/>
<text text-anchor="middle" x="251.723" y="-119.5" font-family="FreeSans" font-size="10.00">utils.hpp</text>
</a>
</g>
</g>
<!-- Node1&#45;&gt;Node3 -->
<g id="edge12" class="edge"><title>Node1&#45;&gt;Node3</title>
<path fill="none" stroke="midnightblue" d="M301.485,-224.368C292.653,-206.376 272.12,-164.55 260.376,-140.627"/>
<polygon fill="midnightblue" stroke="midnightblue" points="263.489,-139.026 255.94,-131.591 257.205,-142.11 263.489,-139.026"/>
</g>
<!-- Node5 -->
<g id="node5" class="node"><title>Node5</title>
<g id="a_node5"><a xlink:href="types_8hpp.html" target="_top" xlink:title="types.hpp">
<polygon fill="none" stroke="black" points="87.2227,-56.5 87.2227,-75.5 144.223,-75.5 144.223,-56.5 87.2227,-56.5"/>
<text text-anchor="middle" x="115.723" y="-63.5" font-family="FreeSans" font-size="10.00">types.hpp</text>
</a>
</g>
</g>
<!-- Node1&#45;&gt;Node5 -->
<g id="edge16" class="edge"><title>Node1&#45;&gt;Node5</title>
<path fill="none" stroke="midnightblue" d="M262.97,-233.033C188.98,-232.08 41.8668,-225.4 9.72273,-188 0.0947065,-176.798 -7.33778,-141.922 13.7227,-112 28.3104,-91.2745 54.6618,-79.9777 76.9258,-73.8865"/>
<polygon fill="midnightblue" stroke="midnightblue" points="77.945,-77.2399 86.8106,-71.439 76.2625,-70.4451 77.945,-77.2399"/>
</g>
<!-- Node8 -->
<g id="node8" class="node"><title>Node8</title>
<polygon fill="none" stroke="#bfbfbf" points="275.223,-0.5 275.223,-19.5 318.223,-19.5 318.223,-0.5 275.223,-0.5"/>
<text text-anchor="middle" x="296.723" y="-7.5" font-family="FreeSans" font-size="10.00">vector</text>
</g>
<!-- Node1&#45;&gt;Node8 -->
<g id="edge17" class="edge"><title>Node1&#45;&gt;Node8</title>
<path fill="none" stroke="midnightblue" d="M313.334,-224.471C335.838,-198.176 398.486,-116.483 365.723,-56 357.564,-40.9393 341.938,-30.1214 327.616,-22.8726"/>
<polygon fill="midnightblue" stroke="midnightblue" points="329.027,-19.6689 318.485,-18.6159 326.069,-26.0134 329.027,-19.6689"/>
</g>
<!-- Node9 -->
<g id="node9" class="node"><title>Node9</title>
<polygon fill="none" stroke="#bfbfbf" points="220.723,-56.5 220.723,-75.5 276.723,-75.5 276.723,-56.5 220.723,-56.5"/>
<text text-anchor="middle" x="248.723" y="-63.5" font-family="FreeSans" font-size="10.00">algorithm</text>
</g>
<!-- Node1&#45;&gt;Node9 -->
<g id="edge19" class="edge"><title>Node1&#45;&gt;Node9</title>
<path fill="none" stroke="midnightblue" d="M305.926,-224.335C306.082,-203.82 304.571,-151.07 286.723,-112 281.752,-101.118 273.387,-90.7833 265.769,-82.7687"/>
<polygon fill="midnightblue" stroke="midnightblue" points="268.112,-80.1628 258.554,-75.5931 263.176,-85.1263 268.112,-80.1628"/>
</g>
<!-- Node10 -->
<g id="node10" class="node"><title>Node10</title>
<polygon fill="none" stroke="#bfbfbf" points="295.223,-56.5 295.223,-75.5 356.223,-75.5 356.223,-56.5 295.223,-56.5"/>
<text text-anchor="middle" x="325.723" y="-63.5" font-family="FreeSans" font-size="10.00">type_traits</text>
</g>
<!-- Node1&#45;&gt;Node10 -->
<g id="edge18" class="edge"><title>Node1&#45;&gt;Node10</title>
<path fill="none" stroke="midnightblue" d="M309.188,-224.2C312.539,-215.245 317.436,-200.89 319.723,-188 326.069,-152.228 326.583,-109.641 326.246,-85.7221"/>
<polygon fill="midnightblue" stroke="midnightblue" points="329.742,-85.5159 326.033,-75.5914 322.744,-85.6625 329.742,-85.5159"/>
</g>
<!-- Node12 -->
<g id="node12" class="node"><title>Node12</title>
<g id="a_node12"><a xlink:href="exceptions_8hpp.html" target="_top" xlink:title="exceptions.hpp">
<polygon fill="none" stroke="black" points="18.7227,-168.5 18.7227,-187.5 98.7227,-187.5 98.7227,-168.5 18.7227,-168.5"/>
<text text-anchor="middle" x="58.7227" y="-175.5" font-family="FreeSans" font-size="10.00">exceptions.hpp</text>
</a>
</g>
</g>
<!-- Node1&#45;&gt;Node12 -->
<g id="edge13" class="edge"><title>Node1&#45;&gt;Node12</title>
<path fill="none" stroke="midnightblue" d="M266.585,-224.444C223.496,-215.023 154.164,-199.866 107.552,-189.675"/>
<polygon fill="midnightblue" stroke="midnightblue" points="108.194,-186.233 97.6775,-187.516 106.699,-193.072 108.194,-186.233"/>
</g>
<!-- Node14 -->
<g id="node14" class="node"><title>Node14</title>
<polygon fill="none" stroke="#bfbfbf" points="413.223,-168.5 413.223,-187.5 452.223,-187.5 452.223,-168.5 413.223,-168.5"/>
<text text-anchor="middle" x="432.723" y="-175.5" font-family="FreeSans" font-size="10.00">utility</text>
</g>
<!-- Node1&#45;&gt;Node14 -->
<g id="edge20" class="edge"><title>Node1&#45;&gt;Node14</title>
<path fill="none" stroke="midnightblue" d="M325.846,-224.444C346.87,-215.504 380.045,-201.398 403.858,-191.273"/>
<polygon fill="midnightblue" stroke="midnightblue" points="405.278,-194.473 413.111,-187.339 402.538,-188.031 405.278,-194.473"/>
</g>
<!-- Node15 -->
<g id="node15" class="node"><title>Node15</title>
<polygon fill="none" stroke="#bfbfbf" points="470.223,-168.5 470.223,-187.5 521.223,-187.5 521.223,-168.5 470.223,-168.5"/>
<text text-anchor="middle" x="495.723" y="-175.5" font-family="FreeSans" font-size="10.00">memory</text>
</g>
<!-- Node1&#45;&gt;Node15 -->
<g id="edge21" class="edge"><title>Node1&#45;&gt;Node15</title>
<path fill="none" stroke="midnightblue" d="M335.829,-224.444C369.543,-214.862 424.144,-199.344 459.993,-189.155"/>
<polygon fill="midnightblue" stroke="midnightblue" points="461.361,-192.405 470.023,-186.304 459.447,-185.671 461.361,-192.405"/>
</g>
<!-- Node2&#45;&gt;Node3 -->
<g id="edge2" class="edge"><title>Node2&#45;&gt;Node3</title>
<path fill="none" stroke="midnightblue" d="M207.475,-168.083C215.192,-160.22 226.627,-148.569 235.939,-139.081"/>
<polygon fill="midnightblue" stroke="midnightblue" points="238.627,-141.34 243.134,-131.751 233.631,-136.436 238.627,-141.34"/>
</g>
<!-- Node2&#45;&gt;Node5 -->
<g id="edge10" class="edge"><title>Node2&#45;&gt;Node5</title>
<path fill="none" stroke="midnightblue" d="M197.651,-168.225C195.665,-154.952 190.399,-129.469 177.723,-112 168.357,-99.0932 154.164,-88.4053 141.72,-80.6891"/>
<polygon fill="midnightblue" stroke="midnightblue" points="143.458,-77.6507 133.062,-75.6064 139.914,-83.6874 143.458,-77.6507"/>
</g>
<!-- Node11 -->
<g id="node11" class="node"><title>Node11</title>
<g id="a_node11"><a xlink:href="enums_8hpp.html" target="_top" xlink:title="enums.hpp">
<polygon fill="none" stroke="black" points="106.223,-112.5 106.223,-131.5 169.223,-131.5 169.223,-112.5 106.223,-112.5"/>
<text text-anchor="middle" x="137.723" y="-119.5" font-family="FreeSans" font-size="10.00">enums.hpp</text>
</a>
</g>
</g>
<!-- Node2&#45;&gt;Node11 -->
<g id="edge11" class="edge"><title>Node2&#45;&gt;Node11</title>
<path fill="none" stroke="midnightblue" d="M188.922,-168.324C179.905,-160.341 166.317,-148.313 155.405,-138.653"/>
<polygon fill="midnightblue" stroke="midnightblue" points="157.509,-135.842 147.702,-131.834 152.869,-141.083 157.509,-135.842"/>
</g>
<!-- Node4 -->
<g id="node4" class="node"><title>Node4</title>
<polygon fill="none" stroke="#bfbfbf" points="162.723,-56.5 162.723,-75.5 202.723,-75.5 202.723,-56.5 162.723,-56.5"/>
<text text-anchor="middle" x="182.723" y="-63.5" font-family="FreeSans" font-size="10.00">regex</text>
</g>
<!-- Node3&#45;&gt;Node4 -->
<g id="edge3" class="edge"><title>Node3&#45;&gt;Node4</title>
<path fill="none" stroke="midnightblue" d="M240.637,-112.324C230.237,-104.185 214.462,-91.8395 202.001,-82.0874"/>
<polygon fill="midnightblue" stroke="midnightblue" points="204.043,-79.2407 194.01,-75.8339 199.728,-84.7533 204.043,-79.2407"/>
</g>
<!-- Node3&#45;&gt;Node5 -->
<g id="edge4" class="edge"><title>Node3&#45;&gt;Node5</title>
<path fill="none" stroke="midnightblue" d="M230.173,-112.444C207.692,-103.517 172.235,-89.4387 146.743,-79.3168"/>
<polygon fill="midnightblue" stroke="midnightblue" points="147.757,-75.9539 137.172,-75.5164 145.174,-82.4598 147.757,-75.9539"/>
</g>
<!-- Node3&#45;&gt;Node9 -->
<g id="edge8" class="edge"><title>Node3&#45;&gt;Node9</title>
<path fill="none" stroke="midnightblue" d="M251.227,-112.083C250.834,-105.006 250.271,-94.8611 249.778,-85.9865"/>
<polygon fill="midnightblue" stroke="midnightblue" points="253.258,-85.5415 249.209,-75.7511 246.269,-85.9299 253.258,-85.5415"/>
</g>
<!-- Node3&#45;&gt;Node10 -->
<g id="edge9" class="edge"><title>Node3&#45;&gt;Node10</title>
<path fill="none" stroke="midnightblue" d="M263.612,-112.324C274.873,-104.107 292.009,-91.6017 305.432,-81.8069"/>
<polygon fill="midnightblue" stroke="midnightblue" points="307.602,-84.5559 313.617,-75.8339 303.476,-78.9014 307.602,-84.5559"/>
</g>
<!-- Node6 -->
<g id="node6" class="node"><title>Node6</title>
<polygon fill="none" stroke="#bfbfbf" points="128.723,-0.5 128.723,-19.5 168.723,-19.5 168.723,-0.5 128.723,-0.5"/>
<text text-anchor="middle" x="148.723" y="-7.5" font-family="FreeSans" font-size="10.00">string</text>
</g>
<!-- Node5&#45;&gt;Node6 -->
<g id="edge5" class="edge"><title>Node5&#45;&gt;Node6</title>
<path fill="none" stroke="midnightblue" d="M121.172,-56.083C125.737,-48.6127 132.391,-37.7244 138.016,-28.5199"/>
<polygon fill="midnightblue" stroke="midnightblue" points="141.147,-30.109 143.375,-19.7511 135.174,-26.4588 141.147,-30.109"/>
</g>
<!-- Node7 -->
<g id="node7" class="node"><title>Node7</title>
<polygon fill="none" stroke="#bfbfbf" points="57.2227,-0.5 57.2227,-19.5 110.223,-19.5 110.223,-0.5 57.2227,-0.5"/>
<text text-anchor="middle" x="83.7227" y="-7.5" font-family="FreeSans" font-size="10.00">iostream</text>
</g>
<!-- Node5&#45;&gt;Node7 -->
<g id="edge6" class="edge"><title>Node5&#45;&gt;Node7</title>
<path fill="none" stroke="midnightblue" d="M110.439,-56.083C106.012,-48.6127 99.5594,-37.7244 94.1049,-28.5199"/>
<polygon fill="midnightblue" stroke="midnightblue" points="97.0177,-26.5697 88.9086,-19.7511 90.9956,-30.1383 97.0177,-26.5697"/>
</g>
<!-- Node5&#45;&gt;Node8 -->
<g id="edge7" class="edge"><title>Node5&#45;&gt;Node8</title>
<path fill="none" stroke="midnightblue" d="M144.403,-56.4435C177.285,-46.6333 231.025,-30.6004 265.096,-20.4355"/>
<polygon fill="midnightblue" stroke="midnightblue" points="266.412,-23.6955 274.994,-17.4826 264.411,-16.9877 266.412,-23.6955"/>
</g>
<!-- Node12&#45;&gt;Node5 -->
<g id="edge15" class="edge"><title>Node12&#45;&gt;Node5</title>
<path fill="none" stroke="midnightblue" d="M47.3371,-168.472C32.0387,-155.94 8.14062,-131.882 20.7227,-112 33.1351,-92.386 56.6633,-81.1539 77.1983,-74.8164"/>
<polygon fill="midnightblue" stroke="midnightblue" points="78.2882,-78.146 86.9768,-72.0832 76.4037,-71.4044 78.2882,-78.146"/>
</g>
<!-- Node13 -->
<g id="node13" class="node"><title>Node13</title>
<polygon fill="none" stroke="#bfbfbf" points="29.7227,-112.5 29.7227,-131.5 87.7227,-131.5 87.7227,-112.5 29.7227,-112.5"/>
<text text-anchor="middle" x="58.7227" y="-119.5" font-family="FreeSans" font-size="10.00">stdexcept</text>
</g>
<!-- Node12&#45;&gt;Node13 -->
<g id="edge14" class="edge"><title>Node12&#45;&gt;Node13</title>
<path fill="none" stroke="midnightblue" d="M58.7227,-168.083C58.7227,-161.006 58.7227,-150.861 58.7227,-141.986"/>
<polygon fill="midnightblue" stroke="midnightblue" points="62.2228,-141.751 58.7227,-131.751 55.2228,-141.751 62.2228,-141.751"/>
</g>
</g>
</svg>
