<?xml version="1.0" encoding="UTF-8" standalone="no"?>
<!DOCTYPE svg PUBLIC "-//W3C//DTD SVG 1.1//EN"
 "http://www.w3.org/Graphics/SVG/1.1/DTD/svg11.dtd">
<!-- Generated by graphviz version 2.38.0 (20140413.2041)
 -->
<!-- Title: groups.hpp Pages: 1 -->
<svg width="193pt" height="196pt"
 viewBox="0.00 0.00 192.50 196.00" xmlns="http://www.w3.org/2000/svg" xmlns:xlink="http://www.w3.org/1999/xlink">
<g id="graph0" class="graph" transform="scale(1 1) rotate(0) translate(4 192)">
<title>groups.hpp</title>
<!-- Node1 -->
<g id="node1" class="node"><title>Node1</title>
<polygon fill="#bfbfbf" stroke="black" points="52.5,-168.5 52.5,-187.5 117.5,-187.5 117.5,-168.5 52.5,-168.5"/>
<text text-anchor="middle" x="85" y="-175.5" font-family="Helvetica,sans-Serif" font-size="10.00">groups.hpp</text>
</g>
<!-- Node2 -->
<g id="node2" class="node"><title>Node2</title>
<g id="a_node2"><a xlink:href="api_8hpp.html" target="_top" xlink:title="api.hpp">
<polygon fill="none" stroke="black" points="104,-112.5 104,-131.5 152,-131.5 152,-112.5 104,-112.5"/>
<text text-anchor="middle" x="128" y="-119.5" font-family="Helvetica,sans-Serif" font-size="10.00">api.hpp</text>
</a>
</g>
</g>
<!-- Node1&#45;&gt;Node2 -->
<g id="edge1" class="edge"><title>Node1&#45;&gt;Node2</title>
<path fill="none" stroke="midnightblue" d="M98.4224,-160.144C105.914,-150.736 114.937,-139.405 121.032,-131.751"/>
<polygon fill="midnightblue" stroke="midnightblue" points="95.5919,-158.08 92.1006,-168.083 101.068,-162.44 95.5919,-158.08"/>
</g>
<!-- Node6 -->
<g id="node6" class="node"><title>Node6</title>
<g id="a_node6"><a xlink:href="help__printer_8hpp.html" target="_top" xlink:title="help_printer.hpp">
<polygon fill="none" stroke="black" points="0,-112.5 0,-131.5 86,-131.5 86,-112.5 0,-112.5"/>
<text text-anchor="middle" x="43" y="-119.5" font-family="Helvetica,sans-Serif" font-size="10.00">help_printer.hpp</text>
</a>
</g>
</g>
<!-- Node1&#45;&gt;Node6 -->
<g id="edge6" class="edge"><title>Node1&#45;&gt;Node6</title>
<path fill="none" stroke="midnightblue" d="M71.8898,-160.144C64.5722,-150.736 55.7591,-139.405 49.8064,-131.751"/>
<polygon fill="midnightblue" stroke="midnightblue" points="69.1624,-162.338 78.0646,-168.083 74.6878,-158.041 69.1624,-162.338"/>
</g>
<!-- Node3 -->
<g id="node3" class="node"><title>Node3</title>
<g id="a_node3"><a xlink:href="cmd__line_8hpp.html" target="_top" xlink:title="cmd_line.hpp">
<polygon fill="none" stroke="black" points="16,-56.5 16,-75.5 90,-75.5 90,-56.5 16,-56.5"/>
<text text-anchor="middle" x="53" y="-63.5" font-family="Helvetica,sans-Serif" font-size="10.00">cmd_line.hpp</text>
</a>
</g>
</g>
<!-- Node2&#45;&gt;Node3 -->
<g id="edge2" class="edge"><title>Node2&#45;&gt;Node3</title>
<path fill="none" stroke="midnightblue" d="M107.695,-106.38C94.1394,-96.6204 76.7579,-84.1057 65.2693,-75.8339"/>
<polygon fill="midnightblue" stroke="midnightblue" points="105.79,-109.321 115.95,-112.324 109.88,-103.641 105.79,-109.321"/>
</g>
<!-- Node4 -->
<g id="node4" class="node"><title>Node4</title>
<g id="a_node4"><a xlink:href="all_8hpp.html" target="_top" xlink:title="all.hpp">
<polygon fill="none" stroke="black" points="8.5,-0.5 8.5,-19.5 53.5,-19.5 53.5,-0.5 8.5,-0.5"/>
<text text-anchor="middle" x="31" y="-7.5" font-family="Helvetica,sans-Serif" font-size="10.00">all.hpp</text>
</a>
</g>
</g>
<!-- Node3&#45;&gt;Node4 -->
<g id="edge3" class="edge"><title>Node3&#45;&gt;Node4</title>
<path fill="none" stroke="midnightblue" d="M45.5402,-46.6897C41.8326,-37.589 37.5243,-27.0141 34.5653,-19.7511"/>
<polygon fill="midnightblue" stroke="midnightblue" points="42.3528,-48.1426 49.3671,-56.083 48.8354,-45.5015 42.3528,-48.1426"/>
</g>
<!-- Node5 -->
<g id="node5" class="node"><title>Node5</title>
<g id="a_node5"><a xlink:href="arg__as__command_8hpp.html" target="_top" xlink:title="arg_as_command.hpp">
<polygon fill="none" stroke="black" points="71.5,-0.5 71.5,-19.5 184.5,-19.5 184.5,-0.5 71.5,-0.5"/>
<text text-anchor="middle" x="128" y="-7.5" font-family="Helvetica,sans-Serif" font-size="10.00">arg_as_command.hpp</text>
</a>
</g>
</g>
<!-- Node3&#45;&gt;Node5 -->
<g id="edge4" class="edge"><title>Node3&#45;&gt;Node5</title>
<path fill="none" stroke="midnightblue" d="M73.3051,-50.3804C86.8606,-40.6204 104.242,-28.1057 115.731,-19.8339"/>
<polygon fill="midnightblue" stroke="midnightblue" points="71.1203,-47.6405 65.05,-56.324 75.2105,-53.3213 71.1203,-47.6405"/>
</g>
<!-- Node5&#45;&gt;Node2 -->
<g id="edge5" class="edge"><title>Node5&#45;&gt;Node2</title>
<path fill="none" stroke="midnightblue" d="M128,-29.5974C128,-53.6664 128,-94.617 128,-112.368"/>
<polygon fill="midnightblue" stroke="midnightblue" points="131.5,-29.5914 128,-19.5914 124.5,-29.5915 131.5,-29.5914"/>
</g>
<!-- Node6&#45;&gt;Node3 -->
<g id="edge7" class="edge"><title>Node6&#45;&gt;Node3</title>
<path fill="none" stroke="midnightblue" d="M46.4999,-102.101C48.16,-93.1357 50.0633,-82.8579 51.3794,-75.7511"/>
<polygon fill="midnightblue" stroke="midnightblue" points="43.0308,-101.613 44.6513,-112.083 49.9138,-102.888 43.0308,-101.613"/>
</g>
</g>
</svg>
