<?xml version="1.0" encoding="UTF-8" standalone="no"?>
<!DOCTYPE svg PUBLIC "-//W3C//DTD SVG 1.1//EN"
 "http://www.w3.org/Graphics/SVG/1.1/DTD/svg11.dtd">
<!-- Generated by graphviz version 2.43.0 (0)
 -->
<!-- Title: group_iface.hpp Pages: 1 -->
<svg width="271pt" height="252pt"
 viewBox="0.00 0.00 271.00 252.00" xmlns="http://www.w3.org/2000/svg" xmlns:xlink="http://www.w3.org/1999/xlink">
<g id="graph0" class="graph" transform="scale(1 1) rotate(0) translate(4 248)">
<title>group_iface.hpp</title>
<!-- Node1 -->
<g id="node1" class="node">
<title>Node1</title>
<g id="a_node1"><a xlink:title=" ">
<polygon fill="#bfbfbf" stroke="black" points="168,-224.5 168,-243.5 263,-243.5 263,-224.5 168,-224.5"/>
<text text-anchor="middle" x="215.5" y="-231.5" font-family="Helvetica,sans-Serif" font-size="10.00">group_iface.hpp</text>
</a>
</g>
</g>
<!-- Node2 -->
<g id="node2" class="node">
<title>Node2</title>
<g id="a_node2"><a xlink:href="command_8hpp.html" target="_top" xlink:title=" ">
<polygon fill="none" stroke="black" points="75.5,-168.5 75.5,-187.5 161.5,-187.5 161.5,-168.5 75.5,-168.5"/>
<text text-anchor="middle" x="118.5" y="-175.5" font-family="Helvetica,sans-Serif" font-size="10.00">command.hpp</text>
</a>
</g>
</g>
<!-- Node1&#45;&gt;Node2 -->
<g id="edge1" class="edge">
<title>Node1&#45;&gt;Node2</title>
<path fill="none" stroke="midnightblue" d="M191.16,-219.45C173.26,-209.48 149.45,-196.23 134.05,-187.65"/>
<polygon fill="midnightblue" stroke="midnightblue" points="189.48,-222.52 199.92,-224.32 192.88,-216.4 189.48,-222.52"/>
</g>
<!-- Node6 -->
<g id="node6" class="node">
<title>Node6</title>
<g id="a_node6"><a xlink:href="help__printer_8hpp.html" target="_top" xlink:title=" ">
<polygon fill="none" stroke="black" points="89,-0.5 89,-19.5 184,-19.5 184,-0.5 89,-0.5"/>
<text text-anchor="middle" x="136.5" y="-7.5" font-family="Helvetica,sans-Serif" font-size="10.00">help_printer.hpp</text>
</a>
</g>
</g>
<!-- Node1&#45;&gt;Node6 -->
<g id="edge15" class="edge">
<title>Node1&#45;&gt;Node6</title>
<path fill="none" stroke="midnightblue" d="M236.67,-218.04C245.83,-210.26 255.58,-199.88 260.5,-188 263.9,-179.79 262.57,-176.64 260.5,-168 247.47,-113.69 240.54,-97.8 203.5,-56 189.47,-40.16 168.68,-27.35 153.99,-19.51"/>
<polygon fill="midnightblue" stroke="midnightblue" points="234.25,-215.49 228.56,-224.44 238.58,-220.99 234.25,-215.49"/>
</g>
<!-- Node8 -->
<g id="node8" class="node">
<title>Node8</title>
<g id="a_node8"><a xlink:href="groups_8hpp.html" target="_top" xlink:title=" ">
<polygon fill="none" stroke="black" points="180,-168.5 180,-187.5 251,-187.5 251,-168.5 180,-168.5"/>
<text text-anchor="middle" x="215.5" y="-175.5" font-family="Helvetica,sans-Serif" font-size="10.00">groups.hpp</text>
</a>
</g>
</g>
<!-- Node1&#45;&gt;Node8 -->
<g id="edge12" class="edge">
<title>Node1&#45;&gt;Node8</title>
<path fill="none" stroke="midnightblue" d="M215.5,-213.8C215.5,-204.91 215.5,-194.78 215.5,-187.75"/>
<polygon fill="midnightblue" stroke="midnightblue" points="212,-214.08 215.5,-224.08 219,-214.08 212,-214.08"/>
</g>
<!-- Node3 -->
<g id="node3" class="node">
<title>Node3</title>
<g id="a_node3"><a xlink:href="api_8hpp.html" target="_top" xlink:title=" ">
<polygon fill="none" stroke="black" points="154,-112.5 154,-131.5 207,-131.5 207,-112.5 154,-112.5"/>
<text text-anchor="middle" x="180.5" y="-119.5" font-family="Helvetica,sans-Serif" font-size="10.00">api.hpp</text>
</a>
</g>
</g>
<!-- Node2&#45;&gt;Node3 -->
<g id="edge2" class="edge">
<title>Node2&#45;&gt;Node3</title>
<path fill="none" stroke="midnightblue" d="M130.64,-161C140.67,-151.43 154.57,-139.64 165.32,-131.75"/>
<polygon fill="midnightblue" stroke="midnightblue" points="128.16,-158.53 123.57,-168.08 133.11,-163.48 128.16,-158.53"/>
</g>
<!-- Node4 -->
<g id="node4" class="node">
<title>Node4</title>
<g id="a_node4"><a xlink:href="cmd__line_8hpp.html" target="_top" xlink:title=" ">
<polygon fill="none" stroke="black" points="15.5,-56.5 15.5,-75.5 97.5,-75.5 97.5,-56.5 15.5,-56.5"/>
<text text-anchor="middle" x="56.5" y="-63.5" font-family="Helvetica,sans-Serif" font-size="10.00">cmd_line.hpp</text>
</a>
</g>
</g>
<!-- Node2&#45;&gt;Node4 -->
<g id="edge8" class="edge">
<title>Node2&#45;&gt;Node4</title>
<path fill="none" stroke="midnightblue" d="M108.72,-159.64C95.25,-135.74 71.51,-93.63 61.34,-75.59"/>
<polygon fill="midnightblue" stroke="midnightblue" points="105.68,-161.38 113.63,-168.37 111.77,-157.94 105.68,-161.38"/>
</g>
<!-- Node2&#45;&gt;Node6 -->
<g id="edge11" class="edge">
<title>Node2&#45;&gt;Node6</title>
<path fill="none" stroke="midnightblue" d="M120.57,-157.93C124.47,-121.92 132.79,-45.23 135.57,-19.57"/>
<polygon fill="midnightblue" stroke="midnightblue" points="117.07,-157.76 119.47,-168.08 124.03,-158.51 117.07,-157.76"/>
</g>
<!-- Node7 -->
<g id="node7" class="node">
<title>Node7</title>
<g id="a_node7"><a xlink:href="help_8hpp.html" target="_top" xlink:title=" ">
<polygon fill="none" stroke="black" points="0,-112.5 0,-131.5 59,-131.5 59,-112.5 0,-112.5"/>
<text text-anchor="middle" x="29.5" y="-119.5" font-family="Helvetica,sans-Serif" font-size="10.00">help.hpp</text>
</a>
</g>
</g>
<!-- Node2&#45;&gt;Node7 -->
<g id="edge9" class="edge">
<title>Node2&#45;&gt;Node7</title>
<path fill="none" stroke="midnightblue" d="M95.26,-162.9C78.94,-153 57.63,-140.07 43.76,-131.65"/>
<polygon fill="midnightblue" stroke="midnightblue" points="93.84,-166.13 104.2,-168.32 97.47,-160.14 93.84,-166.13"/>
</g>
<!-- Node3&#45;&gt;Node2 -->
<g id="edge7" class="edge">
<title>Node3&#45;&gt;Node2</title>
<path fill="none" stroke="midnightblue" d="M168.42,-138.94C158.36,-148.55 144.36,-160.42 133.58,-168.32"/>
<polygon fill="midnightblue" stroke="midnightblue" points="170.92,-141.39 175.51,-131.83 165.97,-136.44 170.92,-141.39"/>
</g>
<!-- Node3&#45;&gt;Node4 -->
<g id="edge3" class="edge">
<title>Node3&#45;&gt;Node4</title>
<path fill="none" stroke="midnightblue" d="M151.49,-108.37C128.27,-98.26 96.34,-84.35 76.06,-75.52"/>
<polygon fill="midnightblue" stroke="midnightblue" points="150.29,-111.66 160.85,-112.44 153.08,-105.24 150.29,-111.66"/>
</g>
<!-- Node5 -->
<g id="node5" class="node">
<title>Node5</title>
<g id="a_node5"><a xlink:href="all_8hpp.html" target="_top" xlink:title=" ">
<polygon fill="none" stroke="black" points="20.5,-0.5 20.5,-19.5 70.5,-19.5 70.5,-0.5 20.5,-0.5"/>
<text text-anchor="middle" x="45.5" y="-7.5" font-family="Helvetica,sans-Serif" font-size="10.00">all.hpp</text>
</a>
</g>
</g>
<!-- Node4&#45;&gt;Node5 -->
<g id="edge4" class="edge">
<title>Node4&#45;&gt;Node5</title>
<path fill="none" stroke="midnightblue" d="M52.65,-46.1C50.82,-37.14 48.73,-26.86 47.28,-19.75"/>
<polygon fill="midnightblue" stroke="midnightblue" points="49.26,-46.98 54.68,-56.08 56.12,-45.59 49.26,-46.98"/>
</g>
<!-- Node4&#45;&gt;Node6 -->
<g id="edge5" class="edge">
<title>Node4&#45;&gt;Node6</title>
<path fill="none" stroke="midnightblue" d="M72.52,-50.06C85.91,-40.28 104.67,-27.83 118.57,-19.65"/>
<polygon fill="midnightblue" stroke="midnightblue" points="70.1,-47.5 64.24,-56.32 74.33,-53.08 70.1,-47.5"/>
</g>
<!-- Node6&#45;&gt;Node4 -->
<g id="edge6" class="edge">
<title>Node6&#45;&gt;Node4</title>
<path fill="none" stroke="midnightblue" d="M120.28,-26.09C106.92,-35.84 88.29,-48.18 74.47,-56.32"/>
<polygon fill="midnightblue" stroke="midnightblue" points="122.69,-28.65 128.56,-19.83 118.47,-23.07 122.69,-28.65"/>
</g>
<!-- Node7&#45;&gt;Node4 -->
<g id="edge10" class="edge">
<title>Node7&#45;&gt;Node4</title>
<path fill="none" stroke="midnightblue" d="M38.51,-102.98C43.09,-93.82 48.45,-83.09 52.12,-75.75"/>
<polygon fill="midnightblue" stroke="midnightblue" points="35.3,-101.57 33.96,-112.08 41.56,-104.7 35.3,-101.57"/>
</g>
<!-- Node8&#45;&gt;Node3 -->
<g id="edge13" class="edge">
<title>Node8&#45;&gt;Node3</title>
<path fill="none" stroke="midnightblue" d="M204.2,-159.57C198.18,-150.27 191.03,-139.25 186.17,-131.75"/>
<polygon fill="midnightblue" stroke="midnightblue" points="201.34,-161.6 209.72,-168.08 207.22,-157.79 201.34,-161.6"/>
</g>
<!-- Node8&#45;&gt;Node6 -->
<g id="edge14" class="edge">
<title>Node8&#45;&gt;Node6</title>
<path fill="none" stroke="midnightblue" d="M219.16,-158.03C220.92,-144.76 221.66,-126.84 216.5,-112 202.53,-71.86 165.23,-35.67 146.92,-19.67"/>
<polygon fill="midnightblue" stroke="midnightblue" points="215.64,-157.85 217.48,-168.29 222.55,-158.99 215.64,-157.85"/>
</g>
</g>
</svg>
