<?xml version="1.0" encoding="UTF-8" standalone="no"?>
<!DOCTYPE svg PUBLIC "-//W3C//DTD SVG 1.1//EN"
 "http://www.w3.org/Graphics/SVG/1.1/DTD/svg11.dtd">
<!-- Generated by graphviz version 14.1.2 (0)
 -->
<!-- Title: groups.hpp Pages: 1 -->
<svg width="161pt" height="308pt"
 viewBox="0.00 0.00 161.00 308.00" xmlns="http://www.w3.org/2000/svg" xmlns:xlink="http://www.w3.org/1999/xlink">

<svg id="main" version="1.1" xmlns="http://www.w3.org/2000/svg" xmlns:xlink="http://www.w3.org/1999/xlink" xml:space="preserve">

<style type="text/css"><![CDATA[
.node, .edge {opacity: 0.7;}
.node.selected, .edge.selected {opacity: 1;}
.edge:hover path { stroke: red; }
.edge:hover polygon { stroke: red; fill: red; }
]]></style>
<script type="application/ecmascript" xlink:href="svg.min.js"/>
<svg id="graph" class="graph">
<g id="graph0" class="graph" transform="scale(1 1) rotate(0) translate(4 304)">
<title>groups.hpp</title>
<!-- Node1 -->
<g id="Node000001" class="node">
<title>Node1</title>
<g id="a_Node000001"><a xlink:title=" ">
<polygon fill="#999999" stroke="#666666" points="134.88,-300 70.88,-300 70.88,-280 134.88,-280 134.88,-300"/>
<text xml:space="preserve" text-anchor="middle" x="102.88" y="-286.5" font-family="Helvetica,sans-Serif" font-size="10.00">groups.hpp</text>
</a>
</g>
</g>
<!-- Node2 -->
<g id="Node000002" class="node">
<title>Node2</title>
<g id="a_Node000002"><a xlink:href="api_8hpp.html" target="_top" xlink:title=" ">
<polygon fill="white" stroke="#666666" points="80.62,-244 33.12,-244 33.12,-224 80.62,-224 80.62,-244"/>
<text xml:space="preserve" text-anchor="middle" x="56.88" y="-230.5" font-family="Helvetica,sans-Serif" font-size="10.00">api.hpp</text>
</a>
</g>
</g>
<!-- Node1&#45;&gt;Node2 -->
<g id="edge1_Node000001_Node000002" class="edge">
<title>Node1&#45;&gt;Node2</title>
<g id="a_edge1_Node000001_Node000002"><a xlink:title=" ">
<path fill="none" stroke="#63b8ff" d="M87.54,-271C79.92,-262.06 71.04,-251.62 64.8,-244.3"/>
<polygon fill="#63b8ff" stroke="#63b8ff" points="84.73,-273.1 93.88,-278.44 90.06,-268.56 84.73,-273.1"/>
</a>
</g>
</g>
<!-- Node5 -->
<g id="Node000005" class="node">
<title>Node5</title>
<g id="a_Node000005"><a xlink:href="help__printer_8hpp.html" target="_top" xlink:title=" ">
<polygon fill="white" stroke="#666666" points="153.38,-20 68.38,-20 68.38,0 153.38,0 153.38,-20"/>
<text xml:space="preserve" text-anchor="middle" x="110.88" y="-6.5" font-family="Helvetica,sans-Serif" font-size="10.00">help_printer.hpp</text>
</a>
</g>
</g>
<!-- Node1&#45;&gt;Node5 -->
<g id="edge12_Node000001_Node000005" class="edge">
<title>Node1&#45;&gt;Node5</title>
<g id="a_edge12_Node000001_Node000005"><a xlink:title=" ">
<path fill="none" stroke="#63b8ff" d="M116.15,-270.17C129.74,-249.02 148.88,-213.18 148.88,-179 148.88,-179 148.88,-179 148.88,-121 148.88,-81.8 127.05,-38.84 116.48,-20.33"/>
<polygon fill="#63b8ff" stroke="#63b8ff" points="113.37,-268.04 110.7,-278.29 119.18,-271.94 113.37,-268.04"/>
</a>
</g>
</g>
<!-- Node3 -->
<g id="Node000003" class="node">
<title>Node3</title>
<g id="a_Node000003"><a xlink:href="cmd__line_8hpp.html" target="_top" xlink:title=" ">
<polygon fill="white" stroke="#666666" points="73.75,-76 0,-76 0,-56 73.75,-56 73.75,-76"/>
<text xml:space="preserve" text-anchor="middle" x="36.88" y="-62.5" font-family="Helvetica,sans-Serif" font-size="10.00">cmd_line.hpp</text>
</a>
</g>
</g>
<!-- Node2&#45;&gt;Node3 -->
<g id="edge2_Node000002_Node000003" class="edge">
<title>Node2&#45;&gt;Node3</title>
<g id="a_edge2_Node000002_Node000003"><a xlink:title=" ">
<path fill="none" stroke="#63b8ff" d="M32.59,-216.93C23.35,-209.37 13.85,-199.48 8.88,-188 -8.18,-148.63 18.2,-97.35 30.79,-76.47"/>
<polygon fill="#63b8ff" stroke="#63b8ff" points="30.27,-219.57 40.37,-222.78 34.48,-213.97 30.27,-219.57"/>
</a>
</g>
</g>
<!-- Node6 -->
<g id="Node000006" class="node">
<title>Node6</title>
<g id="a_Node000006"><a xlink:href="command_8hpp.html" target="_top" xlink:title=" ">
<polygon fill="white" stroke="#666666" points="95.62,-188 18.12,-188 18.12,-168 95.62,-168 95.62,-188"/>
<text xml:space="preserve" text-anchor="middle" x="56.88" y="-174.5" font-family="Helvetica,sans-Serif" font-size="10.00">command.hpp</text>
</a>
</g>
</g>
<!-- Node2&#45;&gt;Node6 -->
<g id="edge6_Node000002_Node000006" class="edge">
<title>Node2&#45;&gt;Node6</title>
<g id="a_edge6_Node000002_Node000006"><a xlink:title=" ">
<path fill="none" stroke="#63b8ff" d="M50.3,-212.43C49.84,-204.11 50.29,-194.93 51.63,-188.3"/>
<polygon fill="#63b8ff" stroke="#63b8ff" points="46.79,-212.57 51.43,-222.09 53.74,-211.75 46.79,-212.57"/>
</a>
</g>
</g>
<!-- Node4 -->
<g id="Node000004" class="node">
<title>Node4</title>
<g id="a_Node000004"><a xlink:href="all_8hpp.html" target="_top" xlink:title=" ">
<polygon fill="white" stroke="#666666" points="50.12,-20 5.62,-20 5.62,0 50.12,0 50.12,-20"/>
<text xml:space="preserve" text-anchor="middle" x="27.88" y="-6.5" font-family="Helvetica,sans-Serif" font-size="10.00">all.hpp</text>
</a>
</g>
</g>
<!-- Node3&#45;&gt;Node4 -->
<g id="edge3_Node000003_Node000004" class="edge">
<title>Node3&#45;&gt;Node4</title>
<g id="a_edge3_Node000003_Node000004"><a xlink:title=" ">
<path fill="none" stroke="#63b8ff" d="M33.45,-44.43C32.06,-36.11 30.53,-26.93 29.42,-20.3"/>
<polygon fill="#63b8ff" stroke="#63b8ff" points="29.96,-44.81 35.06,-54.1 36.87,-43.66 29.96,-44.81"/>
</a>
</g>
</g>
<!-- Node3&#45;&gt;Node5 -->
<g id="edge4_Node000003_Node000005" class="edge">
<title>Node3&#45;&gt;Node5</title>
<g id="a_edge4_Node000003_Node000005"><a xlink:title=" ">
<path fill="none" stroke="#63b8ff" d="M53.28,-48.45C64.98,-39.28 80.49,-28.2 92.6,-20.48"/>
<polygon fill="#63b8ff" stroke="#63b8ff" points="51.22,-45.61 45.67,-54.64 55.64,-51.04 51.22,-45.61"/>
</a>
</g>
</g>
<!-- Node5&#45;&gt;Node3 -->
<g id="edge5_Node000005_Node000003" class="edge">
<title>Node5&#45;&gt;Node3</title>
<g id="a_edge5_Node000005_Node000003"><a xlink:title=" ">
<path fill="none" stroke="#63b8ff" d="M94.58,-27.47C82.83,-36.69 67.19,-47.85 55.03,-55.59"/>
<polygon fill="#63b8ff" stroke="#63b8ff" points="96.66,-30.28 102.2,-21.25 92.24,-24.86 96.66,-30.28"/>
</a>
</g>
</g>
<!-- Node6&#45;&gt;Node2 -->
<g id="edge7_Node000006_Node000002" class="edge">
<title>Node6&#45;&gt;Node2</title>
<g id="a_edge7_Node000006_Node000002"><a xlink:title=" ">
<path fill="none" stroke="#63b8ff" d="M63.46,-199.73C63.9,-207.96 63.46,-217.01 62.14,-223.59"/>
<polygon fill="#63b8ff" stroke="#63b8ff" points="66.94,-199.33 62.3,-189.8 59.98,-200.14 66.94,-199.33"/>
</a>
</g>
</g>
<!-- Node6&#45;&gt;Node3 -->
<g id="edge8_Node000006_Node000003" class="edge">
<title>Node6&#45;&gt;Node3</title>
<g id="a_edge8_Node000006_Node000003"><a xlink:title=" ">
<path fill="none" stroke="#63b8ff" d="M38.8,-159.42C32.12,-151.71 25.35,-142.12 21.88,-132 15.26,-112.72 24.83,-89.23 31.46,-76.43"/>
<polygon fill="#63b8ff" stroke="#63b8ff" points="36.23,-161.8 45.62,-166.7 41.33,-157.01 36.23,-161.8"/>
</a>
</g>
</g>
<!-- Node6&#45;&gt;Node5 -->
<g id="edge11_Node000006_Node000005" class="edge">
<title>Node6&#45;&gt;Node5</title>
<g id="a_edge11_Node000006_Node000005"><a xlink:title=" ">
<path fill="none" stroke="#63b8ff" d="M74.18,-159.12C80.73,-151.36 87.63,-141.82 91.88,-132 108.76,-92.97 110.86,-41.07 110.97,-20.23"/>
<polygon fill="#63b8ff" stroke="#63b8ff" points="71.65,-156.69 67.57,-166.46 76.86,-161.37 71.65,-156.69"/>
</a>
</g>
</g>
<!-- Node7 -->
<g id="Node000007" class="node">
<title>Node7</title>
<g id="a_Node000007"><a xlink:href="help_8hpp.html" target="_top" xlink:title=" ">
<polygon fill="white" stroke="#666666" points="83.25,-132 30.5,-132 30.5,-112 83.25,-112 83.25,-132"/>
<text xml:space="preserve" text-anchor="middle" x="56.88" y="-118.5" font-family="Helvetica,sans-Serif" font-size="10.00">help.hpp</text>
</a>
</g>
</g>
<!-- Node6&#45;&gt;Node7 -->
<g id="edge9_Node000006_Node000007" class="edge">
<title>Node6&#45;&gt;Node7</title>
<g id="a_edge9_Node000006_Node000007"><a xlink:title=" ">
<path fill="none" stroke="#63b8ff" d="M56.88,-156.13C56.88,-147.9 56.88,-138.85 56.88,-132.3"/>
<polygon fill="#63b8ff" stroke="#63b8ff" points="53.38,-156.08 56.88,-166.08 60.38,-156.08 53.38,-156.08"/>
</a>
</g>
</g>
<!-- Node7&#45;&gt;Node3 -->
<g id="edge10_Node000007_Node000003" class="edge">
<title>Node7&#45;&gt;Node3</title>
<g id="a_edge10_Node000007_Node000003"><a xlink:title=" ">
<path fill="none" stroke="#63b8ff" d="M49.47,-101C46.33,-92.54 42.83,-83.08 40.32,-76.3"/>
<polygon fill="#63b8ff" stroke="#63b8ff" points="46.11,-102.01 52.87,-110.17 52.67,-99.58 46.11,-102.01"/>
</a>
</g>
</g>
</g>
</svg>
</svg>

<style type='text/css'>
<![CDATA[
[data-mouse-over-selected='false'] { opacity: 0.7; }
[data-mouse-over-selected='true']  { opacity: 1.0; }
]]>
</style>
<script type="application/ecmascript"><![CDATA[
document.addEventListener('DOMContentLoaded', (event) => {
  highlightEdges();
  highlightAdjacentNodes();
});
]]></script>
</svg>
