<?xml version="1.0" encoding="UTF-8" standalone="no"?>
<!DOCTYPE svg PUBLIC "-//W3C//DTD SVG 1.1//EN"
 "http://www.w3.org/Graphics/SVG/1.1/DTD/svg11.dtd">
<!-- Generated by graphviz version 14.1.2 (0)
 -->
<!-- Title: group_iface.hpp Pages: 1 -->
<svg width="254pt" height="252pt"
 viewBox="0.00 0.00 254.00 252.00" xmlns="http://www.w3.org/2000/svg" xmlns:xlink="http://www.w3.org/1999/xlink">

<svg id="main" version="1.1" xmlns="http://www.w3.org/2000/svg" xmlns:xlink="http://www.w3.org/1999/xlink" xml:space="preserve">

<style type="text/css"><![CDATA[
.node, .edge {opacity: 0.7;}
.node.selected, .edge.selected {opacity: 1;}
.edge:hover path { stroke: red; }
.edge:hover polygon { stroke: red; fill: red; }
]]></style>
<script type="application/ecmascript" xlink:href="svg.min.js"/>
<svg id="graph" class="graph">
<g id="graph0" class="graph" transform="scale(1 1) rotate(0) translate(4 248)">
<title>group_iface.hpp</title>
<!-- Node1 -->
<g id="Node000001" class="node">
<title>Node1</title>
<g id="a_Node000001"><a xlink:title=" ">
<polygon fill="#999999" stroke="#666666" points="245.88,-244 160.88,-244 160.88,-224 245.88,-224 245.88,-244"/>
<text xml:space="preserve" text-anchor="middle" x="203.38" y="-230.5" font-family="Helvetica,sans-Serif" font-size="10.00">group_iface.hpp</text>
</a>
</g>
</g>
<!-- Node2 -->
<g id="Node000002" class="node">
<title>Node2</title>
<g id="a_Node000002"><a xlink:href="command_8hpp.html" target="_top" xlink:title=" ">
<polygon fill="white" stroke="#666666" points="153.12,-188 75.62,-188 75.62,-168 153.12,-168 153.12,-188"/>
<text xml:space="preserve" text-anchor="middle" x="114.38" y="-174.5" font-family="Helvetica,sans-Serif" font-size="10.00">command.hpp</text>
</a>
</g>
</g>
<!-- Node1&#45;&gt;Node2 -->
<g id="edge1_Node000001_Node000002" class="edge">
<title>Node1&#45;&gt;Node2</title>
<g id="a_edge1_Node000001_Node000002"><a xlink:title=" ">
<path fill="none" stroke="#63b8ff" d="M178.34,-217.81C162.82,-208.39 143.35,-196.58 130,-188.48"/>
<polygon fill="#63b8ff" stroke="#63b8ff" points="176.21,-220.61 186.58,-222.81 179.84,-214.63 176.21,-220.61"/>
</a>
</g>
</g>
<!-- Node6 -->
<g id="Node000006" class="node">
<title>Node6</title>
<g id="a_Node000006"><a xlink:href="help__printer_8hpp.html" target="_top" xlink:title=" ">
<polygon fill="white" stroke="#666666" points="169.88,-20 84.88,-20 84.88,0 169.88,0 169.88,-20"/>
<text xml:space="preserve" text-anchor="middle" x="127.38" y="-6.5" font-family="Helvetica,sans-Serif" font-size="10.00">help_printer.hpp</text>
</a>
</g>
</g>
<!-- Node1&#45;&gt;Node6 -->
<g id="edge15_Node000001_Node000006" class="edge">
<title>Node1&#45;&gt;Node6</title>
<g id="a_edge15_Node000001_Node000006"><a xlink:title=" ">
<path fill="none" stroke="#63b8ff" d="M224.61,-215.84C232.38,-208.23 240.27,-198.6 244.38,-188 247.58,-179.71 246.23,-176.69 244.38,-168 232.94,-114.32 228.03,-97.72 192.38,-56 179.35,-40.77 160.04,-28.27 145.85,-20.35"/>
<polygon fill="#63b8ff" stroke="#63b8ff" points="222.3,-213.21 217.22,-222.51 226.99,-218.41 222.3,-213.21"/>
</a>
</g>
</g>
<!-- Node8 -->
<g id="Node000008" class="node">
<title>Node8</title>
<g id="a_Node000008"><a xlink:href="groups_8hpp.html" target="_top" xlink:title=" ">
<polygon fill="white" stroke="#666666" points="235.38,-188 171.38,-188 171.38,-168 235.38,-168 235.38,-188"/>
<text xml:space="preserve" text-anchor="middle" x="203.38" y="-174.5" font-family="Helvetica,sans-Serif" font-size="10.00">groups.hpp</text>
</a>
</g>
</g>
<!-- Node1&#45;&gt;Node8 -->
<g id="edge12_Node000001_Node000008" class="edge">
<title>Node1&#45;&gt;Node8</title>
<g id="a_edge12_Node000001_Node000008"><a xlink:title=" ">
<path fill="none" stroke="#63b8ff" d="M203.38,-212.13C203.38,-203.9 203.38,-194.85 203.38,-188.3"/>
<polygon fill="#63b8ff" stroke="#63b8ff" points="199.88,-212.08 203.38,-222.08 206.88,-212.08 199.88,-212.08"/>
</a>
</g>
</g>
<!-- Node3 -->
<g id="Node000003" class="node">
<title>Node3</title>
<g id="a_Node000003"><a xlink:href="api_8hpp.html" target="_top" xlink:title=" ">
<polygon fill="white" stroke="#666666" points="194.12,-132 146.62,-132 146.62,-112 194.12,-112 194.12,-132"/>
<text xml:space="preserve" text-anchor="middle" x="170.38" y="-118.5" font-family="Helvetica,sans-Serif" font-size="10.00">api.hpp</text>
</a>
</g>
</g>
<!-- Node2&#45;&gt;Node3 -->
<g id="edge2_Node000002_Node000003" class="edge">
<title>Node2&#45;&gt;Node3</title>
<g id="a_edge2_Node000002_Node000003"><a xlink:title=" ">
<path fill="none" stroke="#63b8ff" d="M126.36,-159.29C134.96,-150.28 146.31,-139.7 155.49,-132.3"/>
<polygon fill="#63b8ff" stroke="#63b8ff" points="123.98,-156.7 119.88,-166.47 129.18,-161.39 123.98,-156.7"/>
</a>
</g>
</g>
<!-- Node4 -->
<g id="Node000004" class="node">
<title>Node4</title>
<g id="a_Node000004"><a xlink:href="cmd__line_8hpp.html" target="_top" xlink:title=" ">
<polygon fill="white" stroke="#666666" points="90.25,-76 16.5,-76 16.5,-56 90.25,-56 90.25,-76"/>
<text xml:space="preserve" text-anchor="middle" x="53.38" y="-62.5" font-family="Helvetica,sans-Serif" font-size="10.00">cmd_line.hpp</text>
</a>
</g>
</g>
<!-- Node2&#45;&gt;Node4 -->
<g id="edge8_Node000002_Node000004" class="edge">
<title>Node2&#45;&gt;Node4</title>
<g id="a_edge8_Node000002_Node000004"><a xlink:title=" ">
<path fill="none" stroke="#63b8ff" d="M103.63,-157.62C90.41,-133.78 68.5,-94.28 58.56,-76.35"/>
<polygon fill="#63b8ff" stroke="#63b8ff" points="100.53,-159.25 108.44,-166.3 106.65,-155.86 100.53,-159.25"/>
</a>
</g>
</g>
<!-- Node2&#45;&gt;Node6 -->
<g id="edge11_Node000002_Node000006" class="edge">
<title>Node2&#45;&gt;Node6</title>
<g id="a_edge11_Node000002_Node000006"><a xlink:title=" ">
<path fill="none" stroke="#63b8ff" d="M115.98,-156.5C118.82,-120.27 124.61,-46.31 126.65,-20.3"/>
<polygon fill="#63b8ff" stroke="#63b8ff" points="112.52,-155.85 115.23,-166.09 119.5,-156.39 112.52,-155.85"/>
</a>
</g>
</g>
<!-- Node7 -->
<g id="Node000007" class="node">
<title>Node7</title>
<g id="a_Node000007"><a xlink:href="help_8hpp.html" target="_top" xlink:title=" ">
<polygon fill="white" stroke="#666666" points="52.75,-132 0,-132 0,-112 52.75,-112 52.75,-132"/>
<text xml:space="preserve" text-anchor="middle" x="26.38" y="-118.5" font-family="Helvetica,sans-Serif" font-size="10.00">help.hpp</text>
</a>
</g>
</g>
<!-- Node2&#45;&gt;Node7 -->
<g id="edge9_Node000002_Node000007" class="edge">
<title>Node2&#45;&gt;Node7</title>
<g id="a_edge9_Node000002_Node000007"><a xlink:title=" ">
<path fill="none" stroke="#63b8ff" d="M89.62,-161.81C74.27,-152.39 55.03,-140.58 41.82,-132.48"/>
<polygon fill="#63b8ff" stroke="#63b8ff" points="87.4,-164.56 97.76,-166.8 91.06,-158.59 87.4,-164.56"/>
</a>
</g>
</g>
<!-- Node3&#45;&gt;Node2 -->
<g id="edge7_Node000003_Node000002" class="edge">
<title>Node3&#45;&gt;Node2</title>
<g id="a_edge7_Node000003_Node000002"><a xlink:title=" ">
<path fill="none" stroke="#63b8ff" d="M158.51,-140.58C149.94,-149.58 138.59,-160.16 129.4,-167.59"/>
<polygon fill="#63b8ff" stroke="#63b8ff" points="160.87,-143.19 164.96,-133.42 155.67,-138.51 160.87,-143.19"/>
</a>
</g>
</g>
<!-- Node3&#45;&gt;Node4 -->
<g id="edge3_Node000003_Node000004" class="edge">
<title>Node3&#45;&gt;Node4</title>
<g id="a_edge3_Node000003_Node000004"><a xlink:title=" ">
<path fill="none" stroke="#63b8ff" d="M139.78,-106.88C119.02,-97.3 92.14,-84.89 73.91,-76.48"/>
<polygon fill="#63b8ff" stroke="#63b8ff" points="138.07,-109.95 148.62,-110.96 141.01,-103.59 138.07,-109.95"/>
</a>
</g>
</g>
<!-- Node5 -->
<g id="Node000005" class="node">
<title>Node5</title>
<g id="a_Node000005"><a xlink:href="all_8hpp.html" target="_top" xlink:title=" ">
<polygon fill="white" stroke="#666666" points="66.62,-20 22.12,-20 22.12,0 66.62,0 66.62,-20"/>
<text xml:space="preserve" text-anchor="middle" x="44.38" y="-6.5" font-family="Helvetica,sans-Serif" font-size="10.00">all.hpp</text>
</a>
</g>
</g>
<!-- Node4&#45;&gt;Node5 -->
<g id="edge4_Node000004_Node000005" class="edge">
<title>Node4&#45;&gt;Node5</title>
<g id="a_edge4_Node000004_Node000005"><a xlink:title=" ">
<path fill="none" stroke="#63b8ff" d="M49.95,-44.43C48.56,-36.11 47.03,-26.93 45.92,-20.3"/>
<polygon fill="#63b8ff" stroke="#63b8ff" points="46.46,-44.81 51.56,-54.1 53.37,-43.66 46.46,-44.81"/>
</a>
</g>
</g>
<!-- Node4&#45;&gt;Node6 -->
<g id="edge5_Node000004_Node000006" class="edge">
<title>Node4&#45;&gt;Node6</title>
<g id="a_edge5_Node000004_Node000006"><a xlink:title=" ">
<path fill="none" stroke="#63b8ff" d="M69.78,-48.45C81.48,-39.28 96.99,-28.2 109.1,-20.48"/>
<polygon fill="#63b8ff" stroke="#63b8ff" points="67.72,-45.61 62.17,-54.64 72.14,-51.04 67.72,-45.61"/>
</a>
</g>
</g>
<!-- Node6&#45;&gt;Node4 -->
<g id="edge6_Node000006_Node000004" class="edge">
<title>Node6&#45;&gt;Node4</title>
<g id="a_edge6_Node000006_Node000004"><a xlink:title=" ">
<path fill="none" stroke="#63b8ff" d="M111.08,-27.47C99.33,-36.69 83.69,-47.85 71.53,-55.59"/>
<polygon fill="#63b8ff" stroke="#63b8ff" points="113.16,-30.28 118.7,-21.25 108.74,-24.86 113.16,-30.28"/>
</a>
</g>
</g>
<!-- Node7&#45;&gt;Node4 -->
<g id="edge10_Node000007_Node000004" class="edge">
<title>Node7&#45;&gt;Node4</title>
<g id="a_edge10_Node000007_Node000004"><a xlink:title=" ">
<path fill="none" stroke="#63b8ff" d="M36.09,-101.58C40.39,-92.97 45.26,-83.24 48.73,-76.3"/>
<polygon fill="#63b8ff" stroke="#63b8ff" points="33.1,-99.73 31.75,-110.24 39.36,-102.86 33.1,-99.73"/>
</a>
</g>
</g>
<!-- Node8&#45;&gt;Node3 -->
<g id="edge13_Node000008_Node000003" class="edge">
<title>Node8&#45;&gt;Node3</title>
<g id="a_edge13_Node000008_Node000003"><a xlink:title=" ">
<path fill="none" stroke="#63b8ff" d="M191.68,-157.87C186.38,-149.19 180.35,-139.32 176.06,-132.3"/>
<polygon fill="#63b8ff" stroke="#63b8ff" points="188.64,-159.59 196.84,-166.3 194.61,-155.94 188.64,-159.59"/>
</a>
</g>
</g>
<!-- Node8&#45;&gt;Node6 -->
<g id="edge14_Node000008_Node000006" class="edge">
<title>Node8&#45;&gt;Node6</title>
<g id="a_edge14_Node000008_Node000006"><a xlink:title=" ">
<path fill="none" stroke="#63b8ff" d="M206.61,-156.82C207.94,-143.71 208.2,-126.44 203.38,-112 190.3,-72.87 155.44,-36.74 137.85,-20.31"/>
<polygon fill="#63b8ff" stroke="#63b8ff" points="203.19,-156.01 205.35,-166.38 210.13,-156.93 203.19,-156.01"/>
</a>
</g>
</g>
</g>
</svg>
</svg>

<style type='text/css'>
<![CDATA[
[data-mouse-over-selected='false'] { opacity: 0.7; }
[data-mouse-over-selected='true']  { opacity: 1.0; }
]]>
</style>
<script type="application/ecmascript"><![CDATA[
document.addEventListener('DOMContentLoaded', (event) => {
  highlightEdges();
  highlightAdjacentNodes();
});
]]></script>
</svg>
