<?xml version="1.0" encoding="UTF-8" standalone="no"?>
<!DOCTYPE svg PUBLIC "-//W3C//DTD SVG 1.1//EN"
 "http://www.w3.org/Graphics/SVG/1.1/DTD/svg11.dtd">
<!-- Generated by graphviz version 2.40.1 (20161225.0304)
 -->
<!-- Title: groups.hpp Pages: 1 -->
<svg width="193pt" height="196pt"
 viewBox="0.00 0.00 192.50 196.00" xmlns="http://www.w3.org/2000/svg" xmlns:xlink="http://www.w3.org/1999/xlink">
<g id="graph0" class="graph" transform="scale(1 1) rotate(0) translate(4 192)">
<title>groups.hpp</title>
<!-- Node16 -->
<g id="node1" class="node">
<title>Node16</title>
<polygon fill="#bfbfbf" stroke="#000000" points="52.5,-168.5 52.5,-187.5 117.5,-187.5 117.5,-168.5 52.5,-168.5"/>
<text text-anchor="middle" x="85" y="-175.5" font-family="Helvetica,sans-Serif" font-size="10.00" fill="#000000">groups.hpp</text>
</g>
<!-- Node17 -->
<g id="node2" class="node">
<title>Node17</title>
<g id="a_node2"><a xlink:href="api_8hpp.html" target="_top" xlink:title="api.hpp">
<polygon fill="none" stroke="#000000" points="104,-112.5 104,-131.5 152,-131.5 152,-112.5 104,-112.5"/>
<text text-anchor="middle" x="128" y="-119.5" font-family="Helvetica,sans-Serif" font-size="10.00" fill="#000000">api.hpp</text>
</a>
</g>
</g>
<!-- Node16&#45;&gt;Node17 -->
<g id="edge1" class="edge">
<title>Node16&#45;&gt;Node17</title>
<path fill="none" stroke="#191970" d="M98.6592,-160.2112C105.9263,-150.7472 114.5781,-139.4797 120.5958,-131.6427"/>
<polygon fill="#191970" stroke="#191970" points="95.8043,-158.1824 92.49,-168.2455 101.3564,-162.4456 95.8043,-158.1824"/>
</g>
<!-- Node21 -->
<g id="node6" class="node">
<title>Node21</title>
<g id="a_node6"><a xlink:href="help__printer_8hpp.html" target="_top" xlink:title="help_printer.hpp">
<polygon fill="none" stroke="#000000" points="0,-112.5 0,-131.5 86,-131.5 86,-112.5 0,-112.5"/>
<text text-anchor="middle" x="43" y="-119.5" font-family="Helvetica,sans-Serif" font-size="10.00" fill="#000000">help_printer.hpp</text>
</a>
</g>
</g>
<!-- Node16&#45;&gt;Node21 -->
<g id="edge6" class="edge">
<title>Node16&#45;&gt;Node21</title>
<path fill="none" stroke="#191970" d="M71.6584,-160.2112C64.5604,-150.7472 56.1097,-139.4797 50.232,-131.6427"/>
<polygon fill="#191970" stroke="#191970" points="68.8841,-162.3455 77.6842,-168.2455 74.4841,-158.1455 68.8841,-162.3455"/>
</g>
<!-- Node18 -->
<g id="node3" class="node">
<title>Node18</title>
<g id="a_node3"><a xlink:href="cmd__line_8hpp.html" target="_top" xlink:title="cmd_line.hpp">
<polygon fill="none" stroke="#000000" points="16,-56.5 16,-75.5 90,-75.5 90,-56.5 16,-56.5"/>
<text text-anchor="middle" x="53" y="-63.5" font-family="Helvetica,sans-Serif" font-size="10.00" fill="#000000">cmd_line.hpp</text>
</a>
</g>
</g>
<!-- Node17&#45;&gt;Node18 -->
<g id="edge2" class="edge">
<title>Node17&#45;&gt;Node18</title>
<path fill="none" stroke="#191970" d="M106.8523,-106.2097C93.6799,-96.3743 77.16,-84.0394 65.9143,-75.6427"/>
<polygon fill="#191970" stroke="#191970" points="104.8291,-109.0671 114.936,-112.2455 109.0172,-103.4581 104.8291,-109.0671"/>
</g>
<!-- Node19 -->
<g id="node4" class="node">
<title>Node19</title>
<g id="a_node4"><a xlink:href="all_8hpp.html" target="_top" xlink:title="all.hpp">
<polygon fill="none" stroke="#000000" points="8.5,-.5 8.5,-19.5 53.5,-19.5 53.5,-.5 8.5,-.5"/>
<text text-anchor="middle" x="31" y="-7.5" font-family="Helvetica,sans-Serif" font-size="10.00" fill="#000000">all.hpp</text>
</a>
</g>
</g>
<!-- Node18&#45;&gt;Node19 -->
<g id="edge3" class="edge">
<title>Node18&#45;&gt;Node19</title>
<path fill="none" stroke="#191970" d="M45.4372,-46.7493C41.8454,-37.6064 37.7099,-27.0798 34.7882,-19.6427"/>
<polygon fill="#191970" stroke="#191970" points="42.2537,-48.2178 49.1679,-56.2455 48.7689,-45.6582 42.2537,-48.2178"/>
</g>
<!-- Node20 -->
<g id="node5" class="node">
<title>Node20</title>
<g id="a_node5"><a xlink:href="arg__as__command_8hpp.html" target="_top" xlink:title="arg_as_command.hpp">
<polygon fill="none" stroke="#000000" points="71.5,-.5 71.5,-19.5 184.5,-19.5 184.5,-.5 71.5,-.5"/>
<text text-anchor="middle" x="128" y="-7.5" font-family="Helvetica,sans-Serif" font-size="10.00" fill="#000000">arg_as_command.hpp</text>
</a>
</g>
</g>
<!-- Node18&#45;&gt;Node20 -->
<g id="edge4" class="edge">
<title>Node18&#45;&gt;Node20</title>
<path fill="none" stroke="#191970" d="M74.1477,-50.2097C87.3201,-40.3743 103.84,-28.0394 115.0857,-19.6427"/>
<polygon fill="#191970" stroke="#191970" points="71.9828,-47.4581 66.064,-56.2455 76.1709,-53.0671 71.9828,-47.4581"/>
</g>
<!-- Node20&#45;&gt;Node17 -->
<g id="edge5" class="edge">
<title>Node20&#45;&gt;Node17</title>
<path fill="none" stroke="#191970" d="M128,-29.6976C128,-53.9553 128,-94.184 128,-112.4509"/>
<polygon fill="#191970" stroke="#191970" points="131.5001,-29.5249 128,-19.5249 124.5001,-29.5249 131.5001,-29.5249"/>
</g>
<!-- Node21&#45;&gt;Node18 -->
<g id="edge7" class="edge">
<title>Node21&#45;&gt;Node18</title>
<path fill="none" stroke="#191970" d="M46.5433,-102.1575C48.1509,-93.155 49.9786,-82.9199 51.2781,-75.6427"/>
<polygon fill="#191970" stroke="#191970" points="43.0544,-101.786 44.7419,-112.2455 49.9454,-103.0166 43.0544,-101.786"/>
</g>
</g>
</svg>
