<?xml version="1.0" encoding="UTF-8" standalone="no"?>
<!DOCTYPE svg PUBLIC "-//W3C//DTD SVG 1.1//EN"
 "http://www.w3.org/Graphics/SVG/1.1/DTD/svg11.dtd">
<!-- Generated by graphviz version 14.1.2 (0)
 -->
<!-- Title: groups.hpp Pages: 1 -->
<!--zoomable 308 -->

<svg id="main" version="1.1" xmlns="http://www.w3.org/2000/svg" xmlns:xlink="http://www.w3.org/1999/xlink" xml:space="preserve" onload="init(evt)">

<style type="text/css"><![CDATA[
.node, .edge {opacity: 0.7;}
.node.selected, .edge.selected {opacity: 1;}
.edge:hover path { stroke: red; }
.edge:hover polygon { stroke: red; fill: red; }
]]></style>

<defs>
  <circle id="rim" cx="0" cy="0" r="7"/>
  <circle id="rim2" cx="0" cy="0" r="3.5"/>
  <g id="zoomPlus">
    <use xlink:href="#rim" fill="#404040"><set attributeName="fill" to="#808080" begin="zoomplus.mouseover" end="zoomplus.mouseout"/></use>
    <path d="M-4,0h8M0,-4v8" fill="none" stroke="white" stroke-width="1.5" pointer-events="none"/>
  </g>
  <g id="zoomMin">
    <use xlink:href="#rim" fill="#404040"><set attributeName="fill" to="#808080" begin="zoomminus.mouseover" end="zoomminus.mouseout"/></use>
    <path d="M-4,0h8" fill="none" stroke="white" stroke-width="1.5" pointer-events="none"/>
  </g>
  <g id="arrowUp" transform="translate(30 24)">
    <use xlink:href="#rim"/>
    <path pointer-events="none" fill="none" stroke="white" stroke-width="1.5" d="M0,-3.0v7 M-2.5,-0.5L0,-3.0L2.5,-0.5"/>
  </g>
  <g id="arrowRight" transform="rotate(90) translate(36 -43)">
    <use xlink:href="#rim"/>
    <path pointer-events="none" fill="none" stroke="white" stroke-width="1.5" d="M0,-3.0v7 M-2.5,-0.5L0,-3.0L2.5,-0.5"/>
  </g>
  <g id="arrowDown" transform="rotate(180) translate(-30 -48)">
    <use xlink:href="#rim"/>
    <path pointer-events="none" fill="none" stroke="white" stroke-width="1.5" d="M0,-3.0v7 M-2.5,-0.5L0,-3.0L2.5,-0.5"/>
  </g>
  <g id="arrowLeft" transform="rotate(270) translate(-36 17)">
    <use xlink:href="#rim"/>
    <path pointer-events="none" fill="none" stroke="white" stroke-width="1.5" d="M0,-3.0v7 M-2.5,-0.5L0,-3.0L2.5,-0.5"/>
  </g>
  <g id="resetDef">
    <use xlink:href="#rim2" fill="#404040"><set attributeName="fill" to="#808080" begin="reset.mouseover" end="reset.mouseout"/></use>
  </g>
</defs>
<script type="application/ecmascript">
var viewWidth = 547;
var viewHeight = 308;
var sectionId = 'dynsection-0';
</script>
<script type="application/ecmascript" xlink:href="svg.min.js"/>
<svg id="graph" class="graph">
<g id="viewport">
<title>groups.hpp</title>
<!-- Node1 -->
<g id="Node000001" class="node">
<title>Node1</title>
<g id="a_Node000001"><a xlink:title=" ">
<polygon fill="#999999" stroke="#666666" points="339.9,-300 275.9,-300 275.9,-280 339.9,-280 339.9,-300"/>
<text xml:space="preserve" text-anchor="middle" x="307.9" y="-286.5" font-family="Helvetica,sans-Serif" font-size="10.00">groups.hpp</text>
</a>
</g>
</g>
<!-- Node2 -->
<g id="Node000002" class="node">
<title>Node2</title>
<g id="a_Node000002"><a xlink:href="group__iface_8hpp.html" target="_top" xlink:title=" ">
<polygon fill="white" stroke="#666666" points="350.4,-244 265.4,-244 265.4,-224 350.4,-224 350.4,-244"/>
<text xml:space="preserve" text-anchor="middle" x="307.9" y="-230.5" font-family="Helvetica,sans-Serif" font-size="10.00">group_iface.hpp</text>
</a>
</g>
</g>
<!-- Node1&#45;&gt;Node2 -->
<g id="edge1_Node000001_Node000002" class="edge">
<title>Node1&#45;&gt;Node2</title>
<g id="a_edge1_Node000001_Node000002"><a xlink:title=" ">
<path fill="none" stroke="#63b8ff" d="M307.9,-279.59C307.9,-273.01 307.9,-263.96 307.9,-255.73"/>
<polygon fill="#63b8ff" stroke="#63b8ff" points="311.4,-255.81 307.9,-245.81 304.4,-255.81 311.4,-255.81"/>
</a>
</g>
</g>
<!-- Node5 -->
<g id="Node000005" class="node">
<title>Node5</title>
<g id="a_Node000005"><a xlink:href="types_8hpp.html" target="_top" xlink:title=" ">
<polygon fill="white" stroke="#666666" points="155.27,-76 96.52,-76 96.52,-56 155.27,-56 155.27,-76"/>
<text xml:space="preserve" text-anchor="middle" x="125.9" y="-62.5" font-family="Helvetica,sans-Serif" font-size="10.00">types.hpp</text>
</a>
</g>
</g>
<!-- Node1&#45;&gt;Node5 -->
<g id="edge22_Node000001_Node000005" class="edge">
<title>Node1&#45;&gt;Node5</title>
<g id="a_edge22_Node000001_Node000005"><a xlink:title=" ">
<path fill="none" stroke="#63b8ff" d="M275.49,-287.01C216.74,-281.61 92.58,-261.62 25.9,-188 2.84,-162.54 -7.42,-140.4 11.9,-112 28.14,-88.12 59.2,-76.92 84.8,-71.66"/>
<polygon fill="#63b8ff" stroke="#63b8ff" points="85.39,-75.11 94.62,-69.9 84.16,-68.21 85.39,-75.11"/>
</a>
</g>
</g>
<!-- Node10 -->
<g id="Node000010" class="node">
<title>Node10</title>
<g id="a_Node000010"><a xlink:title=" ">
<polygon fill="#e0e0e0" stroke="#999999" points="538.77,-76 483.02,-76 483.02,-56 538.77,-56 538.77,-76"/>
<text xml:space="preserve" text-anchor="middle" x="510.9" y="-62.5" font-family="Helvetica,sans-Serif" font-size="10.00">algorithm</text>
</a>
</g>
</g>
<!-- Node1&#45;&gt;Node10 -->
<g id="edge23_Node000001_Node000010" class="edge">
<title>Node1&#45;&gt;Node10</title>
<g id="a_edge23_Node000001_Node000010"><a xlink:title=" ">
<path fill="none" stroke="#63b8ff" d="M340.13,-281.63C385.11,-269.69 466.3,-241.82 511.9,-188 534.27,-161.59 535.44,-145.99 528.9,-112 527.25,-103.44 523.99,-94.44 520.69,-86.76"/>
<polygon fill="#63b8ff" stroke="#63b8ff" points="523.88,-85.31 516.49,-77.71 517.53,-88.25 523.88,-85.31"/>
</a>
</g>
</g>
<!-- Node3 -->
<g id="Node000003" class="node">
<title>Node3</title>
<g id="a_Node000003"><a xlink:href="arg__iface_8hpp.html" target="_top" xlink:title=" ">
<polygon fill="white" stroke="#666666" points="280.15,-188 205.65,-188 205.65,-168 280.15,-168 280.15,-188"/>
<text xml:space="preserve" text-anchor="middle" x="242.9" y="-174.5" font-family="Helvetica,sans-Serif" font-size="10.00">arg_iface.hpp</text>
</a>
</g>
</g>
<!-- Node2&#45;&gt;Node3 -->
<g id="edge2_Node000002_Node000003" class="edge">
<title>Node2&#45;&gt;Node3</title>
<g id="a_edge2_Node000002_Node000003"><a xlink:title=" ">
<path fill="none" stroke="#63b8ff" d="M296.58,-223.59C287.26,-215.85 273.82,-204.69 262.72,-195.47"/>
<polygon fill="#63b8ff" stroke="#63b8ff" points="265.18,-192.96 255.26,-189.27 260.71,-198.35 265.18,-192.96"/>
</a>
</g>
</g>
<!-- Node2&#45;&gt;Node5 -->
<g id="edge15_Node000002_Node000005" class="edge">
<title>Node2&#45;&gt;Node5</title>
<g id="a_edge15_Node000002_Node000005"><a xlink:title=" ">
<path fill="none" stroke="#63b8ff" d="M267.5,-223.55C244.79,-216.65 217.04,-205.4 196.9,-188 164.46,-159.97 143.06,-113.27 132.86,-86.83"/>
<polygon fill="#63b8ff" stroke="#63b8ff" points="136.22,-85.85 129.48,-77.67 129.66,-88.27 136.22,-85.85"/>
</a>
</g>
</g>
<!-- Node8 -->
<g id="Node000008" class="node">
<title>Node8</title>
<g id="a_Node000008"><a xlink:title=" ">
<polygon fill="#e0e0e0" stroke="#999999" points="47.4,-20 4.4,-20 4.4,0 47.4,0 47.4,-20"/>
<text xml:space="preserve" text-anchor="middle" x="25.9" y="-6.5" font-family="Helvetica,sans-Serif" font-size="10.00">vector</text>
</a>
</g>
</g>
<!-- Node2&#45;&gt;Node8 -->
<g id="edge21_Node000002_Node000008" class="edge">
<title>Node2&#45;&gt;Node8</title>
<g id="a_edge21_Node000002_Node000008"><a xlink:title=" ">
<path fill="none" stroke="#63b8ff" d="M264.93,-231.78C194.79,-228.9 60.07,-219.33 25.9,-188 -17.84,-147.9 4.41,-67.59 17.98,-30.54"/>
<polygon fill="#63b8ff" stroke="#63b8ff" points="21.11,-32.14 21.44,-21.55 14.58,-29.63 21.11,-32.14"/>
</a>
</g>
</g>
<!-- Node9 -->
<g id="Node000009" class="node">
<title>Node9</title>
<g id="a_Node000009"><a xlink:href="utils_8hpp.html" target="_top" xlink:title=" ">
<polygon fill="white" stroke="#666666" points="345.27,-132 292.52,-132 292.52,-112 345.27,-112 345.27,-132"/>
<text xml:space="preserve" text-anchor="middle" x="318.9" y="-118.5" font-family="Helvetica,sans-Serif" font-size="10.00">utils.hpp</text>
</a>
</g>
</g>
<!-- Node2&#45;&gt;Node9 -->
<g id="edge16_Node000002_Node000009" class="edge">
<title>Node2&#45;&gt;Node9</title>
<g id="a_edge16_Node000002_Node000009"><a xlink:title=" ">
<path fill="none" stroke="#63b8ff" d="M308.84,-223.62C310.6,-206.01 314.44,-167.59 316.83,-143.65"/>
<polygon fill="#63b8ff" stroke="#63b8ff" points="320.3,-144.16 317.81,-133.86 313.34,-143.46 320.3,-144.16"/>
</a>
</g>
</g>
<!-- Node2&#45;&gt;Node10 -->
<g id="edge17_Node000002_Node000010" class="edge">
<title>Node2&#45;&gt;Node10</title>
<g id="a_edge17_Node000002_Node000010"><a xlink:title=" ">
<path fill="none" stroke="#63b8ff" d="M350.69,-228.03C398.93,-221.52 473.09,-208.46 491.9,-188 517,-160.69 516.72,-114.41 513.99,-87.7"/>
<polygon fill="#63b8ff" stroke="#63b8ff" points="517.46,-87.31 512.74,-77.83 510.52,-88.19 517.46,-87.31"/>
</a>
</g>
</g>
<!-- Node11 -->
<g id="Node000011" class="node">
<title>Node11</title>
<g id="a_Node000011"><a xlink:title=" ">
<polygon fill="#e0e0e0" stroke="#999999" points="376.77,-76 315.02,-76 315.02,-56 376.77,-56 376.77,-76"/>
<text xml:space="preserve" text-anchor="middle" x="345.9" y="-62.5" font-family="Helvetica,sans-Serif" font-size="10.00">type_traits</text>
</a>
</g>
</g>
<!-- Node2&#45;&gt;Node11 -->
<g id="edge19_Node000002_Node000011" class="edge">
<title>Node2&#45;&gt;Node11</title>
<g id="a_edge19_Node000002_Node000011"><a xlink:title=" ">
<path fill="none" stroke="#63b8ff" d="M313.78,-223.73C324.33,-206.49 346.1,-167.96 353.9,-132 357.12,-117.18 354.81,-100.16 351.86,-87.25"/>
<polygon fill="#63b8ff" stroke="#63b8ff" points="355.31,-86.59 349.38,-77.81 348.54,-88.37 355.31,-86.59"/>
</a>
</g>
</g>
<!-- Node12 -->
<g id="Node000012" class="node">
<title>Node12</title>
<g id="a_Node000012"><a xlink:href="exceptions_8hpp.html" target="_top" xlink:title=" ">
<polygon fill="white" stroke="#666666" points="116.9,-188 34.9,-188 34.9,-168 116.9,-168 116.9,-188"/>
<text xml:space="preserve" text-anchor="middle" x="75.9" y="-174.5" font-family="Helvetica,sans-Serif" font-size="10.00">exceptions.hpp</text>
</a>
</g>
</g>
<!-- Node2&#45;&gt;Node12 -->
<g id="edge12_Node000002_Node000012" class="edge">
<title>Node2&#45;&gt;Node12</title>
<g id="a_edge12_Node000002_Node000012"><a xlink:title=" ">
<path fill="none" stroke="#63b8ff" d="M267.22,-223.53C228.42,-214.5 169.79,-200.85 127.67,-191.05"/>
<polygon fill="#63b8ff" stroke="#63b8ff" points="128.54,-187.66 118,-188.8 126.95,-194.48 128.54,-187.66"/>
</a>
</g>
</g>
<!-- Node14 -->
<g id="Node000014" class="node">
<title>Node14</title>
<g id="a_Node000014"><a xlink:title=" ">
<polygon fill="#e0e0e0" stroke="#999999" points="425.52,-188 374.27,-188 374.27,-168 425.52,-168 425.52,-188"/>
<text xml:space="preserve" text-anchor="middle" x="399.9" y="-174.5" font-family="Helvetica,sans-Serif" font-size="10.00">memory</text>
</a>
</g>
</g>
<!-- Node2&#45;&gt;Node14 -->
<g id="edge18_Node000002_Node000014" class="edge">
<title>Node2&#45;&gt;Node14</title>
<g id="a_edge18_Node000002_Node000014"><a xlink:title=" ">
<path fill="none" stroke="#63b8ff" d="M323.92,-223.59C337.69,-215.51 357.8,-203.71 373.88,-194.27"/>
<polygon fill="#63b8ff" stroke="#63b8ff" points="375.59,-197.33 382.44,-189.25 372.05,-191.29 375.59,-197.33"/>
</a>
</g>
</g>
<!-- Node15 -->
<g id="Node000015" class="node">
<title>Node15</title>
<g id="a_Node000015"><a xlink:title=" ">
<polygon fill="#e0e0e0" stroke="#999999" points="482.52,-188 443.27,-188 443.27,-168 482.52,-168 482.52,-188"/>
<text xml:space="preserve" text-anchor="middle" x="462.9" y="-174.5" font-family="Helvetica,sans-Serif" font-size="10.00">utility</text>
</a>
</g>
</g>
<!-- Node2&#45;&gt;Node15 -->
<g id="edge20_Node000002_Node000015" class="edge">
<title>Node2&#45;&gt;Node15</title>
<g id="a_edge20_Node000002_Node000015"><a xlink:title=" ">
<path fill="none" stroke="#63b8ff" d="M334.9,-223.59C362.16,-214.1 404.18,-199.46 432.57,-189.57"/>
<polygon fill="#63b8ff" stroke="#63b8ff" points="433.37,-192.99 441.66,-186.4 431.07,-186.38 433.37,-192.99"/>
</a>
</g>
</g>
<!-- Node4 -->
<g id="Node000004" class="node">
<title>Node4</title>
<g id="a_Node000004"><a xlink:href="enums_8hpp.html" target="_top" xlink:title=" ">
<polygon fill="white" stroke="#666666" points="274.9,-132 210.9,-132 210.9,-112 274.9,-112 274.9,-132"/>
<text xml:space="preserve" text-anchor="middle" x="242.9" y="-118.5" font-family="Helvetica,sans-Serif" font-size="10.00">enums.hpp</text>
</a>
</g>
</g>
<!-- Node3&#45;&gt;Node4 -->
<g id="edge3_Node000003_Node000004" class="edge">
<title>Node3&#45;&gt;Node4</title>
<g id="a_edge3_Node000003_Node000004"><a xlink:title=" ">
<path fill="none" stroke="#63b8ff" d="M242.9,-167.59C242.9,-161.01 242.9,-151.96 242.9,-143.73"/>
<polygon fill="#63b8ff" stroke="#63b8ff" points="246.4,-143.81 242.9,-133.81 239.4,-143.81 246.4,-143.81"/>
</a>
</g>
</g>
<!-- Node3&#45;&gt;Node5 -->
<g id="edge4_Node000003_Node000005" class="edge">
<title>Node3&#45;&gt;Node5</title>
<g id="a_edge4_Node000003_Node000005"><a xlink:title=" ">
<path fill="none" stroke="#63b8ff" d="M232.92,-167.62C213.24,-149.11 169.13,-107.65 144.12,-84.13"/>
<polygon fill="#63b8ff" stroke="#63b8ff" points="146.64,-81.69 136.95,-77.39 141.84,-86.79 146.64,-81.69"/>
</a>
</g>
</g>
<!-- Node3&#45;&gt;Node9 -->
<g id="edge8_Node000003_Node000009" class="edge">
<title>Node3&#45;&gt;Node9</title>
<g id="a_edge8_Node000003_Node000009"><a xlink:title=" ">
<path fill="none" stroke="#63b8ff" d="M256.14,-167.59C267.19,-159.74 283.18,-148.38 296.26,-139.09"/>
<polygon fill="#63b8ff" stroke="#63b8ff" points="298.2,-142 304.32,-133.36 294.15,-136.3 298.2,-142"/>
</a>
</g>
</g>
<!-- Node6 -->
<g id="Node000006" class="node">
<title>Node6</title>
<g id="a_Node000006"><a xlink:title=" ">
<polygon fill="#e0e0e0" stroke="#999999" points="204.65,-20 151.15,-20 151.15,0 204.65,0 204.65,-20"/>
<text xml:space="preserve" text-anchor="middle" x="177.9" y="-6.5" font-family="Helvetica,sans-Serif" font-size="10.00">iostream</text>
</a>
</g>
</g>
<!-- Node5&#45;&gt;Node6 -->
<g id="edge5_Node000005_Node000006" class="edge">
<title>Node5&#45;&gt;Node6</title>
<g id="a_edge5_Node000005_Node000006"><a xlink:title=" ">
<path fill="none" stroke="#63b8ff" d="M134.96,-55.59C142.12,-48.16 152.31,-37.58 160.97,-28.58"/>
<polygon fill="#63b8ff" stroke="#63b8ff" points="163.48,-31.02 167.9,-21.39 158.44,-26.16 163.48,-31.02"/>
</a>
</g>
</g>
<!-- Node7 -->
<g id="Node000007" class="node">
<title>Node7</title>
<g id="a_Node000007"><a xlink:title=" ">
<polygon fill="#e0e0e0" stroke="#999999" points="132.9,-20 92.9,-20 92.9,0 132.9,0 132.9,-20"/>
<text xml:space="preserve" text-anchor="middle" x="112.9" y="-6.5" font-family="Helvetica,sans-Serif" font-size="10.00">string</text>
</a>
</g>
</g>
<!-- Node5&#45;&gt;Node7 -->
<g id="edge6_Node000005_Node000007" class="edge">
<title>Node5&#45;&gt;Node7</title>
<g id="a_edge6_Node000005_Node000007"><a xlink:title=" ">
<path fill="none" stroke="#63b8ff" d="M123.64,-55.59C122.03,-48.93 119.82,-39.75 117.82,-31.44"/>
<polygon fill="#63b8ff" stroke="#63b8ff" points="121.24,-30.67 115.49,-21.77 114.43,-32.31 121.24,-30.67"/>
</a>
</g>
</g>
<!-- Node5&#45;&gt;Node8 -->
<g id="edge7_Node000005_Node000008" class="edge">
<title>Node5&#45;&gt;Node8</title>
<g id="a_edge7_Node000005_Node000008"><a xlink:title=" ">
<path fill="none" stroke="#63b8ff" d="M108.48,-55.59C93.23,-47.36 70.82,-35.26 53.19,-25.74"/>
<polygon fill="#63b8ff" stroke="#63b8ff" points="55.25,-22.87 44.79,-21.2 51.92,-29.03 55.25,-22.87"/>
</a>
</g>
</g>
<!-- Node9&#45;&gt;Node5 -->
<g id="edge9_Node000009_Node000005" class="edge">
<title>Node9&#45;&gt;Node5</title>
<g id="a_edge9_Node000009_Node000005"><a xlink:title=" ">
<path fill="none" stroke="#63b8ff" d="M292.06,-113.49C259.45,-104.37 204.09,-88.88 166.31,-78.31"/>
<polygon fill="#63b8ff" stroke="#63b8ff" points="167.7,-75.06 157.13,-75.74 165.82,-81.8 167.7,-75.06"/>
</a>
</g>
</g>
<!-- Node9&#45;&gt;Node10 -->
<g id="edge10_Node000009_Node000010" class="edge">
<title>Node9&#45;&gt;Node10</title>
<g id="a_edge10_Node000009_Node000010"><a xlink:title=" ">
<path fill="none" stroke="#63b8ff" d="M345.6,-113.49C378.28,-104.3 433.91,-88.65 471.51,-78.08"/>
<polygon fill="#63b8ff" stroke="#63b8ff" points="472.42,-81.46 481.1,-75.38 470.53,-74.72 472.42,-81.46"/>
</a>
</g>
</g>
<!-- Node9&#45;&gt;Node11 -->
<g id="edge11_Node000009_Node000011" class="edge">
<title>Node9&#45;&gt;Node11</title>
<g id="a_edge11_Node000009_Node000011"><a xlink:title=" ">
<path fill="none" stroke="#63b8ff" d="M323.6,-111.59C327.05,-104.7 331.85,-95.1 336.11,-86.57"/>
<polygon fill="#63b8ff" stroke="#63b8ff" points="339.23,-88.16 340.57,-77.65 332.97,-85.03 339.23,-88.16"/>
</a>
</g>
</g>
<!-- Node12&#45;&gt;Node5 -->
<g id="edge14_Node000012_Node000005" class="edge">
<title>Node12&#45;&gt;Node5</title>
<g id="a_edge14_Node000012_Node000005"><a xlink:title=" ">
<path fill="none" stroke="#63b8ff" d="M80.16,-167.62C88.28,-149.76 106.11,-110.53 116.96,-86.67"/>
<polygon fill="#63b8ff" stroke="#63b8ff" points="120.07,-88.28 121.02,-77.73 113.7,-85.39 120.07,-88.28"/>
</a>
</g>
</g>
<!-- Node13 -->
<g id="Node000013" class="node">
<title>Node13</title>
<g id="a_Node000013"><a xlink:title=" ">
<polygon fill="#e0e0e0" stroke="#999999" points="79.27,-132 20.52,-132 20.52,-112 79.27,-112 79.27,-132"/>
<text xml:space="preserve" text-anchor="middle" x="49.9" y="-118.5" font-family="Helvetica,sans-Serif" font-size="10.00">stdexcept</text>
</a>
</g>
</g>
<!-- Node12&#45;&gt;Node13 -->
<g id="edge13_Node000012_Node000013" class="edge">
<title>Node12&#45;&gt;Node13</title>
<g id="a_edge13_Node000012_Node000013"><a xlink:title=" ">
<path fill="none" stroke="#63b8ff" d="M71.37,-167.59C68.05,-160.7 63.43,-151.1 59.32,-142.57"/>
<polygon fill="#63b8ff" stroke="#63b8ff" points="62.52,-141.15 55.03,-133.66 56.22,-144.19 62.52,-141.15"/>
</a>
</g>
</g>
</g>
</svg>

<g id="navigator" transform="translate(0 0)" fill="#404254">
  <rect fill="#f2f5e9" fill-opacity="0.5" stroke="#606060" stroke-width=".5" x="0" y="0" width="60" height="60"/>
  <use id="zoomplus" xlink:href="#zoomPlus" x="17" y="9" onmousedown="handleZoom(evt,'in')"/>
  <use id="zoomminus" xlink:href="#zoomMin" x="42" y="9" onmousedown="handleZoom(evt,'out')"/>
  <use id="reset" xlink:href="#resetDef" x="30" y="36" onmousedown="handleReset()"/>
   <use id="arrowup" xlink:href="#arrowUp" x="0" y="0" onmousedown="handlePan(0,-1)"/>
  <use id="arrowright" xlink:href="#arrowRight" x="0" y="0" onmousedown="handlePan(1,0)"/>
  <use id="arrowdown" xlink:href="#arrowDown" x="0" y="0" onmousedown="handlePan(0,1)"/>
  <use id="arrowleft" xlink:href="#arrowLeft" x="0" y="0" onmousedown="handlePan(-1,0)"/>
</g>
<svg viewBox="0 0 15 15" width="100%" height="30px" preserveAspectRatio="xMaxYMin meet">
 <g id="arrow_out" transform="scale(0.3 0.3)">
  <a xlink:href="groups_8hpp__incl_org.svg" target="_base">
   <rect id="button" ry="5" rx="5" y="6" x="6" height="38" width="38"
        fill="#f2f5e9" fill-opacity="0.5" stroke="#606060" stroke-width="1.0"/>
   <path id="arrow"
     d="M 11.500037,31.436501 C 11.940474,20.09759 22.043105,11.32322 32.158766,21.979434 L 37.068811,17.246167 C 37.068811,17.246167 37.088388,32 37.088388,32 L 22.160133,31.978069 C 22.160133,31.978069 26.997745,27.140456 26.997745,27.140456 C 18.528582,18.264221 13.291696,25.230495 11.500037,31.436501 z"
     style="fill:#404040;"/>
  </a>
 </g>
</svg>

<style type='text/css'>
<![CDATA[
[data-mouse-over-selected='false'] { opacity: 0.7; }
[data-mouse-over-selected='true']  { opacity: 1.0; }
]]>
</style>
<script type="application/ecmascript"><![CDATA[
document.addEventListener('DOMContentLoaded', (event) => {
  highlightEdges();
  highlightAdjacentNodes();
});
]]></script>
</svg>
