<?xml version="1.0" encoding="UTF-8" standalone="no"?>
<!DOCTYPE svg PUBLIC "-//W3C//DTD SVG 1.1//EN"
 "http://www.w3.org/Graphics/SVG/1.1/DTD/svg11.dtd">
<!-- Generated by graphviz version 2.43.0 (0)
 -->
<!-- Title: help.hpp Pages: 1 -->
<!--zoomable 476 -->
<svg id="main" version="1.1" xmlns="http://www.w3.org/2000/svg" xmlns:xlink="http://www.w3.org/1999/xlink" xml:space="preserve" onload="init(evt)">
<style type="text/css"><![CDATA[
.edge:hover path { stroke: red; }
.edge:hover polygon { stroke: red; fill: red; }
]]></style>
<script type="text/javascript"><![CDATA[
var edges = document.getElementsByTagName('g');
if (edges && edges.length) {
  for (var i=0;i<edges.length;i++) {
    if (edges[i].id.substr(0,4)=='edge') {
      edges[i].setAttribute('class','edge');
    }
  }
}
]]></script>
        <defs>
                <circle id="rim" cx="0" cy="0" r="7"/>
                <circle id="rim2" cx="0" cy="0" r="3.5"/>
                <g id="zoomPlus">
                        <use xlink:href="#rim" fill="#404040">
                                <set attributeName="fill" to="#808080" begin="zoomplus.mouseover" end="zoomplus.mouseout"/>
                        </use>
                        <path d="M-4,0h8M0,-4v8" fill="none" stroke="white" stroke-width="1.5" pointer-events="none"/>
                </g>
                <g id="zoomMin">
                        <use xlink:href="#rim" fill="#404040">
                                <set attributeName="fill" to="#808080" begin="zoomminus.mouseover" end="zoomminus.mouseout"/>
                        </use>
                        <path d="M-4,0h8" fill="none" stroke="white" stroke-width="1.5" pointer-events="none"/>
                </g>
                <g id="dirArrow">
                        <path fill="none" stroke="white" stroke-width="1.5" d="M0,-3.0v7 M-2.5,-0.5L0,-3.0L2.5,-0.5"/>
                </g>
               <g id="resetDef">
                       <use xlink:href="#rim2" fill="#404040">
                               <set attributeName="fill" to="#808080" begin="reset.mouseover" end="reset.mouseout"/>
                       </use>
               </g>
        </defs>

<script type="text/javascript">
var viewWidth = 1416;
var viewHeight = 476;
var sectionId = 'dynsection-0';
</script>
<script xlink:href="svgpan.js"/>
<svg id="graph" class="graph">
<g id="viewport">
<title>help.hpp</title>
<!-- Node1 -->
<g id="node1" class="node">
<title>Node1</title>
<g id="a_node1"><a xlink:title=" ">
<polygon fill="#bfbfbf" stroke="black" points="489.5,-448.5 489.5,-467.5 548.5,-467.5 548.5,-448.5 489.5,-448.5"/>
<text text-anchor="middle" x="519" y="-455.5" font-family="Helvetica,sans-Serif" font-size="10.00">help.hpp</text>
</a>
</g>
</g>
<!-- Node2 -->
<g id="node2" class="node">
<title>Node2</title>
<g id="a_node2"><a xlink:href="arg_8hpp.html" target="_top" xlink:title=" ">
<polygon fill="none" stroke="black" points="446.5,-224.5 446.5,-243.5 499.5,-243.5 499.5,-224.5 446.5,-224.5"/>
<text text-anchor="middle" x="473" y="-231.5" font-family="Helvetica,sans-Serif" font-size="10.00">arg.hpp</text>
</a>
</g>
</g>
<!-- Node1&#45;&gt;Node2 -->
<g id="edge1" class="edge">
<title>Node1&#45;&gt;Node2</title>
<path fill="none" stroke="midnightblue" d="M521.16,-448.13C523.9,-435.58 527.96,-411.95 525,-392 517.26,-339.87 493.89,-281.78 481.28,-253.08"/>
<polygon fill="midnightblue" stroke="midnightblue" points="484.31,-251.29 477.03,-243.59 477.92,-254.15 484.31,-251.29"/>
</g>
<!-- Node4 -->
<g id="node4" class="node">
<title>Node4</title>
<g id="a_node4"><a xlink:href="utils_8hpp.html" target="_top" xlink:title=" ">
<polygon fill="none" stroke="black" points="893.5,-112.5 893.5,-131.5 952.5,-131.5 952.5,-112.5 893.5,-112.5"/>
<text text-anchor="middle" x="923" y="-119.5" font-family="Helvetica,sans-Serif" font-size="10.00">utils.hpp</text>
</a>
</g>
</g>
<!-- Node1&#45;&gt;Node4 -->
<g id="edge31" class="edge">
<title>Node1&#45;&gt;Node4</title>
<path fill="none" stroke="midnightblue" d="M548.72,-455.74C686.23,-449.55 1254,-419.58 1254,-347 1254,-347 1254,-347 1254,-233 1254,-189.56 1220.12,-186.9 1181,-168 1109.57,-133.49 1015.66,-125.12 963.09,-123.28"/>
<polygon fill="midnightblue" stroke="midnightblue" points="962.94,-119.78 952.84,-122.99 962.74,-126.78 962.94,-119.78"/>
</g>
<!-- Node6 -->
<g id="node6" class="node">
<title>Node6</title>
<g id="a_node6"><a xlink:href="types_8hpp.html" target="_top" xlink:title=" ">
<polygon fill="none" stroke="black" points="461.5,-56.5 461.5,-75.5 526.5,-75.5 526.5,-56.5 461.5,-56.5"/>
<text text-anchor="middle" x="494" y="-63.5" font-family="Helvetica,sans-Serif" font-size="10.00">types.hpp</text>
</a>
</g>
</g>
<!-- Node1&#45;&gt;Node6 -->
<g id="edge33" class="edge">
<title>Node1&#45;&gt;Node6</title>
<path fill="none" stroke="midnightblue" d="M489.23,-457.09C378.95,-456.63 0,-447.74 0,-347 0,-347 0,-347 0,-177 0,-131.87 36.36,-129.38 78,-112 229.1,-48.94 284.79,-99.48 450.99,-75.93"/>
<polygon fill="midnightblue" stroke="midnightblue" points="451.68,-79.37 461.05,-74.44 450.65,-72.44 451.68,-79.37"/>
</g>
<!-- Node13 -->
<g id="node13" class="node">
<title>Node13</title>
<g id="a_node13"><a xlink:href="context_8hpp.html" target="_top" xlink:title=" ">
<polygon fill="none" stroke="black" points="180,-168.5 180,-187.5 254,-187.5 254,-168.5 180,-168.5"/>
<text text-anchor="middle" x="217" y="-175.5" font-family="Helvetica,sans-Serif" font-size="10.00">context.hpp</text>
</a>
</g>
</g>
<!-- Node1&#45;&gt;Node13 -->
<g id="edge30" class="edge">
<title>Node1&#45;&gt;Node13</title>
<path fill="none" stroke="midnightblue" d="M494.96,-448.37C474.44,-440.45 444.58,-427.6 421,-412 329.74,-351.61 300.42,-335.89 241,-244 231.71,-229.64 225.34,-211.18 221.51,-197.6"/>
<polygon fill="midnightblue" stroke="midnightblue" points="224.79,-196.33 218.88,-187.55 218.02,-198.11 224.79,-196.33"/>
</g>
<!-- Node15 -->
<g id="node15" class="node">
<title>Node15</title>
<g id="a_node15"><a xlink:href="exceptions_8hpp.html" target="_top" xlink:title=" ">
<polygon fill="none" stroke="black" points="370.5,-112.5 370.5,-131.5 461.5,-131.5 461.5,-112.5 370.5,-112.5"/>
<text text-anchor="middle" x="416" y="-119.5" font-family="Helvetica,sans-Serif" font-size="10.00">exceptions.hpp</text>
</a>
</g>
</g>
<!-- Node1&#45;&gt;Node15 -->
<g id="edge32" class="edge">
<title>Node1&#45;&gt;Node15</title>
<path fill="none" stroke="midnightblue" d="M489.25,-456.02C389.92,-451.97 76,-432.39 76,-347 76,-347 76,-347 76,-289 76,-224.78 101.33,-203.28 155,-168 157.15,-166.58 284.53,-145.04 360.51,-132.29"/>
<polygon fill="midnightblue" stroke="midnightblue" points="361.14,-135.73 370.42,-130.62 359.98,-128.83 361.14,-135.73"/>
</g>
<!-- Node18 -->
<g id="node18" class="node">
<title>Node18</title>
<g id="a_node18"><a xlink:href="help__printer__iface_8hpp.html" target="_top" xlink:title=" ">
<polygon fill="none" stroke="black" points="1282.5,-336.5 1282.5,-355.5 1407.5,-355.5 1407.5,-336.5 1282.5,-336.5"/>
<text text-anchor="middle" x="1345" y="-343.5" font-family="Helvetica,sans-Serif" font-size="10.00">help_printer_iface.hpp</text>
</a>
</g>
</g>
<!-- Node1&#45;&gt;Node18 -->
<g id="edge28" class="edge">
<title>Node1&#45;&gt;Node18</title>
<path fill="none" stroke="midnightblue" d="M548.88,-456.32C679.94,-453.16 1200.42,-439.04 1268,-412 1293.77,-401.69 1317.16,-379.2 1331.24,-363.58"/>
<polygon fill="midnightblue" stroke="midnightblue" points="1334.14,-365.58 1338.05,-355.74 1328.85,-360.99 1334.14,-365.58"/>
</g>
<!-- Node19 -->
<g id="node19" class="node">
<title>Node19</title>
<g id="a_node19"><a xlink:href="command_8hpp.html" target="_top" xlink:title=" ">
<polygon fill="none" stroke="black" points="430,-392.5 430,-411.5 516,-411.5 516,-392.5 430,-392.5"/>
<text text-anchor="middle" x="473" y="-399.5" font-family="Helvetica,sans-Serif" font-size="10.00">command.hpp</text>
</a>
</g>
</g>
<!-- Node1&#45;&gt;Node19 -->
<g id="edge34" class="edge">
<title>Node1&#45;&gt;Node19</title>
<path fill="none" stroke="midnightblue" d="M511.4,-448.08C504.77,-440.3 494.98,-428.8 486.94,-419.37"/>
<polygon fill="midnightblue" stroke="midnightblue" points="489.6,-417.09 480.45,-411.75 484.27,-421.63 489.6,-417.09"/>
</g>
<!-- Node24 -->
<g id="node24" class="node">
<title>Node24</title>
<g id="a_node24"><a xlink:title=" ">
<polygon fill="none" stroke="#bfbfbf" points="1092,-168.5 1092,-187.5 1150,-187.5 1150,-168.5 1092,-168.5"/>
<text text-anchor="middle" x="1121" y="-175.5" font-family="Helvetica,sans-Serif" font-size="10.00">memory</text>
</a>
</g>
</g>
<!-- Node1&#45;&gt;Node24 -->
<g id="edge66" class="edge">
<title>Node1&#45;&gt;Node24</title>
<path fill="none" stroke="midnightblue" d="M548.53,-457.59C664.58,-459.11 1083,-456.99 1083,-347 1083,-347 1083,-347 1083,-289 1083,-254.81 1099.6,-217.76 1110.86,-196.57"/>
<polygon fill="midnightblue" stroke="midnightblue" points="1113.95,-198.22 1115.72,-187.77 1107.82,-194.83 1113.95,-198.22"/>
</g>
<!-- Node3 -->
<g id="node3" class="node">
<title>Node3</title>
<g id="a_node3"><a xlink:href="arg__iface_8hpp.html" target="_top" xlink:title=" ">
<polygon fill="none" stroke="black" points="724.5,-168.5 724.5,-187.5 807.5,-187.5 807.5,-168.5 724.5,-168.5"/>
<text text-anchor="middle" x="766" y="-175.5" font-family="Helvetica,sans-Serif" font-size="10.00">arg_iface.hpp</text>
</a>
</g>
</g>
<!-- Node2&#45;&gt;Node3 -->
<g id="edge2" class="edge">
<title>Node2&#45;&gt;Node3</title>
<path fill="none" stroke="midnightblue" d="M499.52,-228.11C547.96,-219.19 651.53,-200.1 714.33,-188.52"/>
<polygon fill="midnightblue" stroke="midnightblue" points="715.22,-191.92 724.42,-186.66 713.95,-185.03 715.22,-191.92"/>
</g>
<!-- Node2&#45;&gt;Node4 -->
<g id="edge13" class="edge">
<title>Node2&#45;&gt;Node4</title>
<path fill="none" stroke="midnightblue" d="M499.67,-233.2C558.53,-232.85 703.25,-227.65 816,-188 849.4,-176.25 883.62,-153.14 904.09,-137.88"/>
<polygon fill="midnightblue" stroke="midnightblue" points="906.39,-140.52 912.23,-131.68 902.15,-134.96 906.39,-140.52"/>
</g>
<!-- Node2&#45;&gt;Node6 -->
<g id="edge26" class="edge">
<title>Node2&#45;&gt;Node6</title>
<path fill="none" stroke="midnightblue" d="M474.13,-224.08C477.43,-197.95 487.14,-121.21 491.65,-85.58"/>
<polygon fill="midnightblue" stroke="midnightblue" points="495.13,-85.93 492.92,-75.57 488.19,-85.05 495.13,-85.93"/>
</g>
<!-- Node10 -->
<g id="node10" class="node">
<title>Node10</title>
<g id="a_node10"><a xlink:title=" ">
<polygon fill="none" stroke="#bfbfbf" points="884,-56.5 884,-75.5 948,-75.5 948,-56.5 884,-56.5"/>
<text text-anchor="middle" x="916" y="-63.5" font-family="Helvetica,sans-Serif" font-size="10.00">algorithm</text>
</a>
</g>
</g>
<!-- Node2&#45;&gt;Node10 -->
<g id="edge27" class="edge">
<title>Node2&#45;&gt;Node10</title>
<path fill="none" stroke="midnightblue" d="M497.89,-224.39C523.54,-215.46 564.66,-201.02 600,-188 704.78,-149.38 828.18,-101.4 884.78,-79.25"/>
<polygon fill="midnightblue" stroke="midnightblue" points="886.2,-82.46 894.23,-75.55 883.65,-75.94 886.2,-82.46"/>
</g>
<!-- Node2&#45;&gt;Node13 -->
<g id="edge14" class="edge">
<title>Node2&#45;&gt;Node13</title>
<path fill="none" stroke="midnightblue" d="M446.09,-227.32C402.91,-218.22 317.61,-200.22 264.15,-188.95"/>
<polygon fill="midnightblue" stroke="midnightblue" points="264.74,-185.49 254.24,-186.85 263.3,-192.34 264.74,-185.49"/>
</g>
<!-- Node2&#45;&gt;Node15 -->
<g id="edge18" class="edge">
<title>Node2&#45;&gt;Node15</title>
<path fill="none" stroke="midnightblue" d="M468.53,-224.37C459.2,-206.38 437.53,-164.55 425.13,-140.63"/>
<polygon fill="midnightblue" stroke="midnightblue" points="428.16,-138.86 420.45,-131.59 421.95,-142.08 428.16,-138.86"/>
</g>
<!-- Node17 -->
<g id="node17" class="node">
<title>Node17</title>
<g id="a_node17"><a xlink:href="value__utils_8hpp.html" target="_top" xlink:title=" ">
<polygon fill="none" stroke="black" points="500.5,-168.5 500.5,-187.5 591.5,-187.5 591.5,-168.5 500.5,-168.5"/>
<text text-anchor="middle" x="546" y="-175.5" font-family="Helvetica,sans-Serif" font-size="10.00">value_utils.hpp</text>
</a>
</g>
</g>
<!-- Node2&#45;&gt;Node17 -->
<g id="edge21" class="edge">
<title>Node2&#45;&gt;Node17</title>
<path fill="none" stroke="midnightblue" d="M484.73,-224.32C495.84,-216.11 512.74,-203.6 525.98,-193.81"/>
<polygon fill="midnightblue" stroke="midnightblue" points="528.1,-196.59 534.06,-187.83 523.94,-190.97 528.1,-196.59"/>
</g>
<!-- Node3&#45;&gt;Node4 -->
<g id="edge3" class="edge">
<title>Node3&#45;&gt;Node4</title>
<path fill="none" stroke="midnightblue" d="M790.88,-168.44C817.29,-159.36 859.22,-144.94 888.74,-134.78"/>
<polygon fill="midnightblue" stroke="midnightblue" points="889.92,-138.08 898.24,-131.52 887.64,-131.46 889.92,-138.08"/>
</g>
<!-- Node3&#45;&gt;Node6 -->
<g id="edge11" class="edge">
<title>Node3&#45;&gt;Node6</title>
<path fill="none" stroke="midnightblue" d="M761.34,-168.23C753.3,-153.99 735.4,-126.04 712,-112 657.47,-79.27 582.97,-70.03 536.7,-67.6"/>
<polygon fill="midnightblue" stroke="midnightblue" points="536.86,-64.1 526.71,-67.15 536.55,-71.09 536.86,-64.1"/>
</g>
<!-- Node12 -->
<g id="node12" class="node">
<title>Node12</title>
<g id="a_node12"><a xlink:href="enums_8hpp.html" target="_top" xlink:title=" ">
<polygon fill="none" stroke="black" points="632.5,-112.5 632.5,-131.5 703.5,-131.5 703.5,-112.5 632.5,-112.5"/>
<text text-anchor="middle" x="668" y="-119.5" font-family="Helvetica,sans-Serif" font-size="10.00">enums.hpp</text>
</a>
</g>
</g>
<!-- Node3&#45;&gt;Node12 -->
<g id="edge12" class="edge">
<title>Node3&#45;&gt;Node12</title>
<path fill="none" stroke="midnightblue" d="M750.25,-168.32C734.68,-159.74 710.62,-146.49 692.54,-136.52"/>
<polygon fill="midnightblue" stroke="midnightblue" points="694.15,-133.42 683.71,-131.65 690.78,-139.55 694.15,-133.42"/>
</g>
<!-- Node5 -->
<g id="node5" class="node">
<title>Node5</title>
<g id="a_node5"><a xlink:title=" ">
<polygon fill="none" stroke="#bfbfbf" points="822,-56.5 822,-75.5 866,-75.5 866,-56.5 822,-56.5"/>
<text text-anchor="middle" x="844" y="-63.5" font-family="Helvetica,sans-Serif" font-size="10.00">regex</text>
</a>
</g>
</g>
<!-- Node4&#45;&gt;Node5 -->
<g id="edge4" class="edge">
<title>Node4&#45;&gt;Node5</title>
<path fill="none" stroke="midnightblue" d="M910.31,-112.32C898.1,-103.98 879.42,-91.21 865,-81.35"/>
<polygon fill="midnightblue" stroke="midnightblue" points="866.89,-78.41 856.66,-75.65 862.94,-84.19 866.89,-78.41"/>
</g>
<!-- Node4&#45;&gt;Node6 -->
<g id="edge5" class="edge">
<title>Node4&#45;&gt;Node6</title>
<path fill="none" stroke="midnightblue" d="M893.24,-114.55C888.49,-113.63 883.62,-112.74 879,-112 755.44,-92.18 608.25,-77.41 536.95,-70.81"/>
<polygon fill="midnightblue" stroke="midnightblue" points="536.86,-67.29 526.58,-69.86 536.22,-74.26 536.86,-67.29"/>
</g>
<!-- Node4&#45;&gt;Node10 -->
<g id="edge9" class="edge">
<title>Node4&#45;&gt;Node10</title>
<path fill="none" stroke="midnightblue" d="M921.84,-112.08C920.92,-104.93 919.58,-94.64 918.42,-85.69"/>
<polygon fill="midnightblue" stroke="midnightblue" points="921.89,-85.22 917.13,-75.75 914.95,-86.12 921.89,-85.22"/>
</g>
<!-- Node11 -->
<g id="node11" class="node">
<title>Node11</title>
<g id="a_node11"><a xlink:title=" ">
<polygon fill="none" stroke="#bfbfbf" points="966.5,-56.5 966.5,-75.5 1035.5,-75.5 1035.5,-56.5 966.5,-56.5"/>
<text text-anchor="middle" x="1001" y="-63.5" font-family="Helvetica,sans-Serif" font-size="10.00">type_traits</text>
</a>
</g>
</g>
<!-- Node4&#45;&gt;Node11 -->
<g id="edge10" class="edge">
<title>Node4&#45;&gt;Node11</title>
<path fill="none" stroke="midnightblue" d="M935.53,-112.32C947.59,-103.98 966.03,-91.21 980.27,-81.35"/>
<polygon fill="midnightblue" stroke="midnightblue" points="982.27,-84.22 988.5,-75.65 978.28,-78.47 982.27,-84.22"/>
</g>
<!-- Node7 -->
<g id="node7" class="node">
<title>Node7</title>
<g id="a_node7"><a xlink:title=" ">
<polygon fill="none" stroke="#bfbfbf" points="507,-0.5 507,-19.5 551,-19.5 551,-0.5 507,-0.5"/>
<text text-anchor="middle" x="529" y="-7.5" font-family="Helvetica,sans-Serif" font-size="10.00">string</text>
</a>
</g>
</g>
<!-- Node6&#45;&gt;Node7 -->
<g id="edge6" class="edge">
<title>Node6&#45;&gt;Node7</title>
<path fill="none" stroke="midnightblue" d="M499.78,-56.08C504.67,-48.53 511.83,-37.49 517.83,-28.23"/>
<polygon fill="midnightblue" stroke="midnightblue" points="520.83,-30.05 523.33,-19.75 514.95,-26.24 520.83,-30.05"/>
</g>
<!-- Node8 -->
<g id="node8" class="node">
<title>Node8</title>
<g id="a_node8"><a xlink:title=" ">
<polygon fill="none" stroke="#bfbfbf" points="429,-0.5 429,-19.5 489,-19.5 489,-0.5 429,-0.5"/>
<text text-anchor="middle" x="459" y="-7.5" font-family="Helvetica,sans-Serif" font-size="10.00">iostream</text>
</a>
</g>
</g>
<!-- Node6&#45;&gt;Node8 -->
<g id="edge7" class="edge">
<title>Node6&#45;&gt;Node8</title>
<path fill="none" stroke="midnightblue" d="M488.22,-56.08C483.33,-48.53 476.17,-37.49 470.17,-28.23"/>
<polygon fill="midnightblue" stroke="midnightblue" points="473.05,-26.24 464.67,-19.75 467.17,-30.05 473.05,-26.24"/>
</g>
<!-- Node9 -->
<g id="node9" class="node">
<title>Node9</title>
<g id="a_node9"><a xlink:title=" ">
<polygon fill="none" stroke="#bfbfbf" points="822.5,-0.5 822.5,-19.5 869.5,-19.5 869.5,-0.5 822.5,-0.5"/>
<text text-anchor="middle" x="846" y="-7.5" font-family="Helvetica,sans-Serif" font-size="10.00">vector</text>
</a>
</g>
</g>
<!-- Node6&#45;&gt;Node9 -->
<g id="edge8" class="edge">
<title>Node6&#45;&gt;Node9</title>
<path fill="none" stroke="midnightblue" d="M526.8,-59.97C593.55,-49.73 744.56,-26.56 812.17,-16.19"/>
<polygon fill="midnightblue" stroke="midnightblue" points="812.92,-19.62 822.27,-14.64 811.86,-12.7 812.92,-19.62"/>
</g>
<!-- Node13&#45;&gt;Node4 -->
<g id="edge16" class="edge">
<title>Node13&#45;&gt;Node4</title>
<path fill="none" stroke="midnightblue" d="M254.46,-174.13C375.92,-164.84 758.22,-135.6 883.1,-126.05"/>
<polygon fill="midnightblue" stroke="midnightblue" points="883.65,-129.52 893.35,-125.27 883.11,-122.54 883.65,-129.52"/>
</g>
<!-- Node13&#45;&gt;Node6 -->
<g id="edge17" class="edge">
<title>Node13&#45;&gt;Node6</title>
<path fill="none" stroke="midnightblue" d="M220.85,-168.2C227.59,-153.92 242.93,-125.91 265,-112 333.94,-68.54 366.6,-91.04 451.41,-75.96"/>
<polygon fill="midnightblue" stroke="midnightblue" points="452.29,-79.36 461.45,-74.04 450.98,-72.48 452.29,-79.36"/>
</g>
<!-- Node14 -->
<g id="node14" class="node">
<title>Node14</title>
<g id="a_node14"><a xlink:title=" ">
<polygon fill="none" stroke="#bfbfbf" points="307.5,-112.5 307.5,-131.5 352.5,-131.5 352.5,-112.5 307.5,-112.5"/>
<text text-anchor="middle" x="330" y="-119.5" font-family="Helvetica,sans-Serif" font-size="10.00">utility</text>
</a>
</g>
</g>
<!-- Node13&#45;&gt;Node14 -->
<g id="edge15" class="edge">
<title>Node13&#45;&gt;Node14</title>
<path fill="none" stroke="midnightblue" d="M234.91,-168.44C253.25,-159.68 282.01,-145.94 303.09,-135.86"/>
<polygon fill="midnightblue" stroke="midnightblue" points="304.67,-138.99 312.18,-131.52 301.65,-132.67 304.67,-138.99"/>
</g>
<!-- Node15&#45;&gt;Node6 -->
<g id="edge20" class="edge">
<title>Node15&#45;&gt;Node6</title>
<path fill="none" stroke="midnightblue" d="M428.53,-112.32C440.59,-103.98 459.03,-91.21 473.27,-81.35"/>
<polygon fill="midnightblue" stroke="midnightblue" points="475.27,-84.22 481.5,-75.65 471.28,-78.47 475.27,-84.22"/>
</g>
<!-- Node16 -->
<g id="node16" class="node">
<title>Node16</title>
<g id="a_node16"><a xlink:title=" ">
<polygon fill="none" stroke="#bfbfbf" points="378.5,-56.5 378.5,-75.5 443.5,-75.5 443.5,-56.5 378.5,-56.5"/>
<text text-anchor="middle" x="411" y="-63.5" font-family="Helvetica,sans-Serif" font-size="10.00">stdexcept</text>
</a>
</g>
</g>
<!-- Node15&#45;&gt;Node16 -->
<g id="edge19" class="edge">
<title>Node15&#45;&gt;Node16</title>
<path fill="none" stroke="midnightblue" d="M415.17,-112.08C414.52,-105.01 413.58,-94.86 412.76,-85.99"/>
<polygon fill="midnightblue" stroke="midnightblue" points="416.22,-85.39 411.81,-75.75 409.25,-86.03 416.22,-85.39"/>
</g>
<!-- Node17&#45;&gt;Node4 -->
<g id="edge22" class="edge">
<title>Node17&#45;&gt;Node4</title>
<path fill="none" stroke="midnightblue" d="M591.85,-170.43C666.32,-159.77 812.34,-138.85 882.92,-128.74"/>
<polygon fill="midnightblue" stroke="midnightblue" points="883.77,-132.16 893.17,-127.27 882.78,-125.23 883.77,-132.16"/>
</g>
<!-- Node17&#45;&gt;Node6 -->
<g id="edge24" class="edge">
<title>Node17&#45;&gt;Node6</title>
<path fill="none" stroke="midnightblue" d="M541.92,-168.37C533.45,-150.46 513.82,-108.92 502.48,-84.95"/>
<polygon fill="midnightblue" stroke="midnightblue" points="505.5,-83.14 498.06,-75.59 499.17,-86.13 505.5,-83.14"/>
</g>
<!-- Node17&#45;&gt;Node10 -->
<g id="edge25" class="edge">
<title>Node17&#45;&gt;Node10</title>
<path fill="none" stroke="midnightblue" d="M553.46,-168.06C566.11,-153.59 593.31,-125.31 623,-112 723.31,-67.02 761.5,-94.48 873.8,-76.03"/>
<polygon fill="midnightblue" stroke="midnightblue" points="874.56,-79.46 883.82,-74.3 873.37,-72.56 874.56,-79.46"/>
</g>
<!-- Node17&#45;&gt;Node15 -->
<g id="edge23" class="edge">
<title>Node17&#45;&gt;Node15</title>
<path fill="none" stroke="midnightblue" d="M525.4,-168.44C504.01,-159.56 470.32,-145.56 445.98,-135.45"/>
<polygon fill="midnightblue" stroke="midnightblue" points="447.08,-132.12 436.5,-131.52 444.39,-138.58 447.08,-132.12"/>
</g>
<!-- Node18&#45;&gt;Node4 -->
<g id="edge29" class="edge">
<title>Node18&#45;&gt;Node4</title>
<path fill="none" stroke="midnightblue" d="M1344.14,-336.17C1340.75,-306.72 1325.57,-211.32 1268,-168 1220.65,-132.37 1043.25,-124.92 962.94,-123.39"/>
<polygon fill="midnightblue" stroke="midnightblue" points="962.79,-119.88 952.73,-123.21 962.67,-126.88 962.79,-119.88"/>
</g>
<!-- Node19&#45;&gt;Node4 -->
<g id="edge61" class="edge">
<title>Node19&#45;&gt;Node4</title>
<path fill="none" stroke="midnightblue" d="M516.04,-398.85C669.11,-390.66 1178,-358.36 1178,-291 1178,-291 1178,-291 1178,-233 1178,-202.9 1181.28,-188.24 1159,-168 1130.75,-142.34 1022.28,-130.37 962.72,-125.63"/>
<polygon fill="midnightblue" stroke="midnightblue" points="962.79,-122.12 952.55,-124.85 962.26,-129.1 962.79,-122.12"/>
</g>
<!-- Node19&#45;&gt;Node6 -->
<g id="edge65" class="edge">
<title>Node19&#45;&gt;Node6</title>
<path fill="none" stroke="midnightblue" d="M429.7,-394C319.67,-375.01 38,-318.26 38,-235 38,-235 38,-235 38,-177 38,-92.46 354.85,-88.98 451.57,-75.75"/>
<polygon fill="midnightblue" stroke="midnightblue" points="452.14,-79.2 461.49,-74.22 451.07,-72.28 452.14,-79.2"/>
</g>
<!-- Node19&#45;&gt;Node12 -->
<g id="edge64" class="edge">
<title>Node19&#45;&gt;Node12</title>
<path fill="none" stroke="midnightblue" d="M442.91,-392.5C349.39,-364.72 75.64,-272.38 171,-168 186.12,-151.45 501.75,-132.24 622.01,-125.5"/>
<polygon fill="midnightblue" stroke="midnightblue" points="622.56,-128.97 632.35,-124.92 622.17,-121.98 622.56,-128.97"/>
</g>
<!-- Node19&#45;&gt;Node13 -->
<g id="edge62" class="edge">
<title>Node19&#45;&gt;Node13</title>
<path fill="none" stroke="midnightblue" d="M458.05,-392.39C421.42,-370.81 325.49,-311.28 261,-244 247.19,-229.59 234.78,-210.4 226.69,-196.61"/>
<polygon fill="midnightblue" stroke="midnightblue" points="229.59,-194.63 221.6,-187.67 223.51,-198.09 229.59,-194.63"/>
</g>
<!-- Node19&#45;&gt;Node17 -->
<g id="edge63" class="edge">
<title>Node19&#45;&gt;Node17</title>
<path fill="none" stroke="midnightblue" d="M481.56,-392.5C489.61,-383.99 501.39,-370.17 508,-356 533.19,-301.98 541.91,-230.86 544.74,-197.62"/>
<polygon fill="midnightblue" stroke="midnightblue" points="548.24,-197.78 545.51,-187.54 541.26,-197.24 548.24,-197.78"/>
</g>
<!-- Node20 -->
<g id="node20" class="node">
<title>Node20</title>
<g id="a_node20"><a xlink:href="api_8hpp.html" target="_top" xlink:title=" ">
<polygon fill="none" stroke="black" points="446.5,-336.5 446.5,-355.5 499.5,-355.5 499.5,-336.5 446.5,-336.5"/>
<text text-anchor="middle" x="473" y="-343.5" font-family="Helvetica,sans-Serif" font-size="10.00">api.hpp</text>
</a>
</g>
</g>
<!-- Node19&#45;&gt;Node20 -->
<g id="edge35" class="edge">
<title>Node19&#45;&gt;Node20</title>
<path fill="none" stroke="midnightblue" d="M467.83,-392.08C466.32,-384.93 465.89,-374.64 466.54,-365.69"/>
<polygon fill="midnightblue" stroke="midnightblue" points="470.02,-366.13 467.87,-355.75 463.08,-365.2 470.02,-366.13"/>
</g>
<!-- Node23 -->
<g id="node23" class="node">
<title>Node23</title>
<g id="a_node23"><a xlink:href="group__iface_8hpp.html" target="_top" xlink:title=" ">
<polygon fill="none" stroke="black" points="921.5,-224.5 921.5,-243.5 1016.5,-243.5 1016.5,-224.5 921.5,-224.5"/>
<text text-anchor="middle" x="969" y="-231.5" font-family="Helvetica,sans-Serif" font-size="10.00">group_iface.hpp</text>
</a>
</g>
</g>
<!-- Node19&#45;&gt;Node23 -->
<g id="edge60" class="edge">
<title>Node19&#45;&gt;Node23</title>
<path fill="none" stroke="midnightblue" d="M502.67,-392.39C559.93,-375.63 689.49,-337.04 797,-300 846.86,-282.82 903.99,-260.75 938.25,-247.25"/>
<polygon fill="midnightblue" stroke="midnightblue" points="939.68,-250.45 947.7,-243.52 937.11,-243.94 939.68,-250.45"/>
</g>
<!-- Node20&#45;&gt;Node2 -->
<g id="edge37" class="edge">
<title>Node20&#45;&gt;Node2</title>
<path fill="none" stroke="midnightblue" d="M473,-336.37C473,-318.62 473,-277.67 473,-253.6"/>
<polygon fill="midnightblue" stroke="midnightblue" points="476.5,-253.59 473,-243.59 469.5,-253.59 476.5,-253.59"/>
</g>
<!-- Node20&#45;&gt;Node6 -->
<g id="edge36" class="edge">
<title>Node20&#45;&gt;Node6</title>
<path fill="none" stroke="midnightblue" d="M446.47,-341.71C363.1,-330.11 115.14,-285.28 171,-168 226.13,-52.26 318.31,-98.36 451.4,-75.93"/>
<polygon fill="midnightblue" stroke="midnightblue" points="452.25,-79.33 461.47,-74.11 451.01,-72.45 452.25,-79.33"/>
</g>
<!-- Node20&#45;&gt;Node19 -->
<g id="edge59" class="edge">
<title>Node20&#45;&gt;Node19</title>
<path fill="none" stroke="midnightblue" d="M478.13,-355.75C479.66,-362.86 480.1,-373.14 479.47,-382.1"/>
<polygon fill="midnightblue" stroke="midnightblue" points="475.99,-381.71 478.17,-392.08 482.93,-382.62 475.99,-381.71"/>
</g>
<!-- Node21 -->
<g id="node21" class="node">
<title>Node21</title>
<g id="a_node21"><a xlink:href="multi__arg_8hpp.html" target="_top" xlink:title=" ">
<polygon fill="none" stroke="black" points="350,-280.5 350,-299.5 434,-299.5 434,-280.5 350,-280.5"/>
<text text-anchor="middle" x="392" y="-287.5" font-family="Helvetica,sans-Serif" font-size="10.00">multi_arg.hpp</text>
</a>
</g>
</g>
<!-- Node20&#45;&gt;Node21 -->
<g id="edge38" class="edge">
<title>Node20&#45;&gt;Node21</title>
<path fill="none" stroke="midnightblue" d="M459.99,-336.32C447.47,-327.98 428.32,-315.21 413.53,-305.35"/>
<polygon fill="midnightblue" stroke="midnightblue" points="415.24,-302.29 404.98,-299.65 411.36,-308.11 415.24,-302.29"/>
</g>
<!-- Node22 -->
<g id="node22" class="node">
<title>Node22</title>
<g id="a_node22"><a xlink:href="groups_8hpp.html" target="_top" xlink:title=" ">
<polygon fill="none" stroke="black" points="717.5,-280.5 717.5,-299.5 788.5,-299.5 788.5,-280.5 717.5,-280.5"/>
<text text-anchor="middle" x="753" y="-287.5" font-family="Helvetica,sans-Serif" font-size="10.00">groups.hpp</text>
</a>
</g>
</g>
<!-- Node20&#45;&gt;Node22 -->
<g id="edge46" class="edge">
<title>Node20&#45;&gt;Node22</title>
<path fill="none" stroke="midnightblue" d="M499.59,-339.87C547.37,-330.66 648.24,-311.2 707.29,-299.82"/>
<polygon fill="midnightblue" stroke="midnightblue" points="708.3,-303.19 717.45,-297.86 706.97,-296.31 708.3,-303.19"/>
</g>
<!-- Node21&#45;&gt;Node2 -->
<g id="edge39" class="edge">
<title>Node21&#45;&gt;Node2</title>
<path fill="none" stroke="midnightblue" d="M405.01,-280.32C417.53,-271.98 436.68,-259.21 451.47,-249.35"/>
<polygon fill="midnightblue" stroke="midnightblue" points="453.64,-252.11 460.02,-243.65 449.76,-246.29 453.64,-252.11"/>
</g>
<!-- Node21&#45;&gt;Node4 -->
<g id="edge43" class="edge">
<title>Node21&#45;&gt;Node4</title>
<path fill="none" stroke="midnightblue" d="M434.31,-286.89C518.25,-281.21 709.9,-260.65 851,-188 874.28,-176.01 895.84,-154.61 909.18,-139.65"/>
<polygon fill="midnightblue" stroke="midnightblue" points="912.16,-141.56 916.04,-131.71 906.86,-136.99 912.16,-141.56"/>
</g>
<!-- Node21&#45;&gt;Node6 -->
<g id="edge44" class="edge">
<title>Node21&#45;&gt;Node6</title>
<path fill="none" stroke="midnightblue" d="M380.55,-280.22C346.67,-253.22 252.05,-169.7 298,-112 299.22,-110.47 394.31,-89.14 451.58,-76.4"/>
<polygon fill="midnightblue" stroke="midnightblue" points="452.45,-79.79 461.45,-74.2 450.93,-72.96 452.45,-79.79"/>
</g>
<!-- Node21&#45;&gt;Node13 -->
<g id="edge40" class="edge">
<title>Node21&#45;&gt;Node13</title>
<path fill="none" stroke="midnightblue" d="M367,-280.48C345.65,-272.62 314.58,-259.81 290,-244 268.05,-229.88 246.12,-209.26 232.11,-195.05"/>
<polygon fill="midnightblue" stroke="midnightblue" points="234.31,-192.29 224.84,-187.52 229.27,-197.15 234.31,-192.29"/>
</g>
<!-- Node21&#45;&gt;Node14 -->
<g id="edge45" class="edge">
<title>Node21&#45;&gt;Node14</title>
<path fill="none" stroke="midnightblue" d="M388.67,-280.08C378.87,-253.83 350,-176.55 336.77,-141.12"/>
<polygon fill="midnightblue" stroke="midnightblue" points="339.98,-139.71 333.2,-131.57 333.42,-142.16 339.98,-139.71"/>
</g>
<!-- Node21&#45;&gt;Node15 -->
<g id="edge41" class="edge">
<title>Node21&#45;&gt;Node15</title>
<path fill="none" stroke="midnightblue" d="M393.29,-280.08C397.07,-253.95 408.16,-177.21 413.31,-141.58"/>
<polygon fill="midnightblue" stroke="midnightblue" points="416.79,-141.97 414.76,-131.57 409.87,-140.96 416.79,-141.97"/>
</g>
<!-- Node21&#45;&gt;Node17 -->
<g id="edge42" class="edge">
<title>Node21&#45;&gt;Node17</title>
<path fill="none" stroke="midnightblue" d="M396.01,-280.23C402.69,-266.49 417.34,-239.85 437,-224 455.99,-208.69 480.91,-197.89 502.13,-190.71"/>
<polygon fill="midnightblue" stroke="midnightblue" points="503.45,-193.96 511.89,-187.57 501.3,-187.3 503.45,-193.96"/>
</g>
<!-- Node22&#45;&gt;Node6 -->
<g id="edge57" class="edge">
<title>Node22&#45;&gt;Node6</title>
<path fill="none" stroke="midnightblue" d="M742.85,-280.3C703.68,-246.73 562.11,-125.38 511.85,-82.3"/>
<polygon fill="midnightblue" stroke="midnightblue" points="513.95,-79.49 504.08,-75.64 509.4,-84.81 513.95,-79.49"/>
</g>
<!-- Node22&#45;&gt;Node10 -->
<g id="edge58" class="edge">
<title>Node22&#45;&gt;Node10</title>
<path fill="none" stroke="midnightblue" d="M788.67,-286.07C879.91,-277.72 1117.53,-250.27 1159,-188 1163.93,-180.6 1163.93,-175.39 1159,-168 1135.71,-133.1 1020.75,-96.29 957.65,-78.27"/>
<polygon fill="midnightblue" stroke="midnightblue" points="958.57,-74.89 947.99,-75.55 956.67,-81.63 958.57,-74.89"/>
</g>
<!-- Node22&#45;&gt;Node23 -->
<g id="edge47" class="edge">
<title>Node22&#45;&gt;Node23</title>
<path fill="none" stroke="midnightblue" d="M787.23,-280.44C824.51,-271.12 884.27,-256.18 925.01,-246"/>
<polygon fill="midnightblue" stroke="midnightblue" points="926.08,-249.34 934.93,-243.52 924.38,-242.55 926.08,-249.34"/>
</g>
<!-- Node23&#45;&gt;Node3 -->
<g id="edge48" class="edge">
<title>Node23&#45;&gt;Node3</title>
<path fill="none" stroke="midnightblue" d="M936.83,-224.44C901.94,-215.16 846.11,-200.31 807.83,-190.13"/>
<polygon fill="midnightblue" stroke="midnightblue" points="808.58,-186.7 798.02,-187.52 806.78,-193.47 808.58,-186.7"/>
</g>
<!-- Node23&#45;&gt;Node4 -->
<g id="edge49" class="edge">
<title>Node23&#45;&gt;Node4</title>
<path fill="none" stroke="midnightblue" d="M965.39,-224.37C957.9,-206.46 940.53,-164.92 930.51,-140.95"/>
<polygon fill="midnightblue" stroke="midnightblue" points="933.68,-139.47 926.59,-131.59 927.22,-142.17 933.68,-139.47"/>
</g>
<!-- Node23&#45;&gt;Node6 -->
<g id="edge51" class="edge">
<title>Node23&#45;&gt;Node6</title>
<path fill="none" stroke="midnightblue" d="M956.09,-224.44C922.01,-202.24 826.16,-142.44 738,-112 669.77,-88.44 586.31,-76.44 536.8,-70.97"/>
<polygon fill="midnightblue" stroke="midnightblue" points="537.08,-67.48 526.76,-69.89 536.34,-74.44 537.08,-67.48"/>
</g>
<!-- Node23&#45;&gt;Node9 -->
<g id="edge52" class="edge">
<title>Node23&#45;&gt;Node9</title>
<path fill="none" stroke="midnightblue" d="M982.62,-224.34C994.1,-216.32 1010.04,-203.33 1019,-188 1049.12,-136.45 1081.25,-102.67 1044,-56 1023.83,-30.73 930.89,-18.57 879.83,-13.71"/>
<polygon fill="midnightblue" stroke="midnightblue" points="879.89,-10.2 869.61,-12.78 879.26,-17.17 879.89,-10.2"/>
</g>
<!-- Node23&#45;&gt;Node10 -->
<g id="edge54" class="edge">
<title>Node23&#45;&gt;Node10</title>
<path fill="none" stroke="midnightblue" d="M970.43,-224.29C973.39,-203.68 978.56,-150.73 961,-112 955.69,-100.29 945.91,-89.93 936.82,-82.11"/>
<polygon fill="midnightblue" stroke="midnightblue" points="938.8,-79.21 928.81,-75.67 934.42,-84.67 938.8,-79.21"/>
</g>
<!-- Node23&#45;&gt;Node11 -->
<g id="edge53" class="edge">
<title>Node23&#45;&gt;Node11</title>
<path fill="none" stroke="midnightblue" d="M978.02,-224.34C986.07,-215.93 997.3,-202.36 1002,-188 1013.34,-153.36 1008.85,-110.09 1004.78,-85.8"/>
<polygon fill="midnightblue" stroke="midnightblue" points="1008.19,-85 1002.94,-75.8 1001.3,-86.27 1008.19,-85"/>
</g>
<!-- Node23&#45;&gt;Node14 -->
<g id="edge55" class="edge">
<title>Node23&#45;&gt;Node14</title>
<path fill="none" stroke="midnightblue" d="M921.44,-233.05C834.64,-232.14 645.28,-225.56 491,-188 441.58,-175.97 387.36,-151.56 356.14,-136.31"/>
<polygon fill="midnightblue" stroke="midnightblue" points="357.36,-133.01 346.85,-131.71 354.26,-139.29 357.36,-133.01"/>
</g>
<!-- Node23&#45;&gt;Node15 -->
<g id="edge50" class="edge">
<title>Node23&#45;&gt;Node15</title>
<path fill="none" stroke="midnightblue" d="M921.15,-225.09C870.01,-216.5 786.62,-202.12 715,-188 625.76,-170.4 522.14,-147.27 463.3,-133.87"/>
<polygon fill="midnightblue" stroke="midnightblue" points="463.72,-130.38 453.19,-131.57 462.17,-137.21 463.72,-130.38"/>
</g>
<!-- Node23&#45;&gt;Node24 -->
<g id="edge56" class="edge">
<title>Node23&#45;&gt;Node24</title>
<path fill="none" stroke="midnightblue" d="M993.08,-224.44C1018.54,-215.4 1058.89,-201.06 1087.46,-190.92"/>
<polygon fill="midnightblue" stroke="midnightblue" points="1088.78,-194.16 1097.03,-187.52 1086.43,-187.57 1088.78,-194.16"/>
</g>
</g>
</svg>
        <g id="navigator" transform="translate(0 0)" fill="#404254">
                <rect fill="#f2f5e9" fill-opacity="0.5" stroke="#606060" stroke-width=".5" x="0" y="0" width="60" height="60"/>
                <use id="zoomplus" xlink:href="#zoomPlus" x="17" y="9" onmousedown="handleZoom(evt,'in')"/>
                <use id="zoomminus" xlink:href="#zoomMin" x="42" y="9" onmousedown="handleZoom(evt,'out')"/>
                <use id="reset" xlink:href="#resetDef" x="30" y="36" onmousedown="handleReset()"/>
                <g id="arrowUp" xlink:href="#dirArrow" transform="translate(30 24)" onmousedown="handlePan(0,-1)">
                  <use xlink:href="#rim" fill="#404040">
                        <set attributeName="fill" to="#808080" begin="arrowUp.mouseover" end="arrowUp.mouseout"/>
                  </use>
                  <path fill="none" stroke="white" stroke-width="1.5" d="M0,-3.0v7 M-2.5,-0.5L0,-3.0L2.5,-0.5"/>
                </g>
                <g id="arrowRight" xlink:href="#dirArrow" transform="rotate(90) translate(36 -43)" onmousedown="handlePan(1,0)">
                  <use xlink:href="#rim" fill="#404040">
                        <set attributeName="fill" to="#808080" begin="arrowRight.mouseover" end="arrowRight.mouseout"/>
                  </use>
                  <path fill="none" stroke="white" stroke-width="1.5" d="M0,-3.0v7 M-2.5,-0.5L0,-3.0L2.5,-0.5"/>
                </g>
                <g id="arrowDown" xlink:href="#dirArrow" transform="rotate(180) translate(-30 -48)" onmousedown="handlePan(0,1)">
                  <use xlink:href="#rim" fill="#404040">
                        <set attributeName="fill" to="#808080" begin="arrowDown.mouseover" end="arrowDown.mouseout"/>
                  </use>
                  <path fill="none" stroke="white" stroke-width="1.5" d="M0,-3.0v7 M-2.5,-0.5L0,-3.0L2.5,-0.5"/>
                </g>
                <g id="arrowLeft" xlink:href="#dirArrow" transform="rotate(270) translate(-36 17)" onmousedown="handlePan(-1,0)">
                  <use xlink:href="#rim" fill="#404040">
                        <set attributeName="fill" to="#808080" begin="arrowLeft.mouseover" end="arrowLeft.mouseout"/>
                  </use>
                  <path fill="none" stroke="white" stroke-width="1.5" d="M0,-3.0v7 M-2.5,-0.5L0,-3.0L2.5,-0.5"/>
                </g>
        </g>
        <svg viewBox="0 0 15 15" width="100%" height="30px" preserveAspectRatio="xMaxYMin meet">
         <g id="arrow_out" transform="scale(0.3 0.3)">
          <a xlink:href="help_8hpp__incl_org.svg" target="_base">
           <rect id="button" ry="5" rx="5" y="6" x="6" height="38" width="38"
                fill="#f2f5e9" fill-opacity="0.5" stroke="#606060" stroke-width="1.0"/>
           <path id="arrow"
             d="M 11.500037,31.436501 C 11.940474,20.09759 22.043105,11.32322 32.158766,21.979434 L 37.068811,17.246167 C 37.068811,17.246167 37.088388,32 37.088388,32 L 22.160133,31.978069 C 22.160133,31.978069 26.997745,27.140456 26.997745,27.140456 C 18.528582,18.264221 13.291696,25.230495 11.500037,31.436501 z"
             style="fill:#404040;"/>
          </a>
         </g>
        </svg>
</svg>
