<?xml version="1.0" encoding="UTF-8" standalone="no"?>
<!DOCTYPE svg PUBLIC "-//W3C//DTD SVG 1.1//EN"
 "http://www.w3.org/Graphics/SVG/1.1/DTD/svg11.dtd">
<!-- Generated by graphviz version 14.1.2 (0)
 -->
<!-- Title: help_printer.hpp Pages: 1 -->
<svg width="1734pt" height="588pt"
 viewBox="0.00 0.00 1734.00 588.00" xmlns="http://www.w3.org/2000/svg" xmlns:xlink="http://www.w3.org/1999/xlink">
<g id="graph0" class="graph" transform="scale(1 1) rotate(0) translate(4 584)">
<title>help_printer.hpp</title>
<!-- Node1 -->
<g id="Node000001" class="node">
<title>Node1</title>
<g id="a_Node000001"><a xlink:title=" ">
<polygon fill="#999999" stroke="#666666" points="1340.5,-580 1255.5,-580 1255.5,-560 1340.5,-560 1340.5,-580"/>
<text xml:space="preserve" text-anchor="middle" x="1298" y="-566.5" font-family="Helvetica,sans-Serif" font-size="10.00">help_printer.hpp</text>
</a>
</g>
</g>
<!-- Node2 -->
<g id="Node000002" class="node">
<title>Node2</title>
<g id="a_Node000002"><a xlink:title=" ">
<polygon fill="#e0e0e0" stroke="#999999" points="875.88,-76 820.12,-76 820.12,-56 875.88,-56 875.88,-76"/>
<text xml:space="preserve" text-anchor="middle" x="848" y="-62.5" font-family="Helvetica,sans-Serif" font-size="10.00">algorithm</text>
</a>
</g>
</g>
<!-- Node1&#45;&gt;Node2 -->
<g id="edge1_Node000001_Node000002" class="edge">
<title>Node1&#45;&gt;Node2</title>
<g id="a_edge1_Node000001_Node000002"><a xlink:title=" ">
<path fill="none" stroke="#63b8ff" d="M1340.91,-562.67C1424.71,-549.08 1602,-513.86 1602,-459 1602,-459 1602,-459 1602,-177 1602,-43.61 1440.73,-132.96 1309,-112 1228,-99.11 983.37,-78.19 887.32,-70.22"/>
<polygon fill="#63b8ff" stroke="#63b8ff" points="887.86,-66.75 877.61,-69.42 887.29,-73.73 887.86,-66.75"/>
</a>
</g>
</g>
<!-- Node3 -->
<g id="Node000003" class="node">
<title>Node3</title>
<g id="a_Node000003"><a xlink:title=" ">
<polygon fill="#e0e0e0" stroke="#999999" points="1726,-524 1668,-524 1668,-504 1726,-504 1726,-524"/>
<text xml:space="preserve" text-anchor="middle" x="1697" y="-510.5" font-family="Helvetica,sans-Serif" font-size="10.00">functional</text>
</a>
</g>
</g>
<!-- Node1&#45;&gt;Node3 -->
<g id="edge2_Node000001_Node000003" class="edge">
<title>Node1&#45;&gt;Node3</title>
<g id="a_edge2_Node000001_Node000003"><a xlink:title=" ">
<path fill="none" stroke="#63b8ff" d="M1340.91,-564.71C1407.96,-557.74 1541.56,-542.84 1654,-524 1654.99,-523.83 1655.99,-523.66 1656.99,-523.48"/>
<polygon fill="#63b8ff" stroke="#63b8ff" points="1657.25,-527 1666.43,-521.7 1655.95,-520.12 1657.25,-527"/>
</a>
</g>
</g>
<!-- Node4 -->
<g id="Node000004" class="node">
<title>Node4</title>
<g id="a_Node000004"><a xlink:title=" ">
<polygon fill="#e0e0e0" stroke="#999999" points="1436.5,-20 1393.5,-20 1393.5,0 1436.5,0 1436.5,-20"/>
<text xml:space="preserve" text-anchor="middle" x="1415" y="-6.5" font-family="Helvetica,sans-Serif" font-size="10.00">vector</text>
</a>
</g>
</g>
<!-- Node1&#45;&gt;Node4 -->
<g id="edge3_Node000001_Node000004" class="edge">
<title>Node1&#45;&gt;Node4</title>
<g id="a_edge3_Node000001_Node000004"><a xlink:title=" ">
<path fill="none" stroke="#63b8ff" d="M1340.92,-567.04C1392.23,-563.42 1479.85,-553.14 1549,-524 1594.8,-504.7 1640,-508.7 1640,-459 1640,-459 1640,-459 1640,-121 1640,-36.65 1510.79,-16.97 1448.2,-12.39"/>
<polygon fill="#63b8ff" stroke="#63b8ff" points="1448.7,-8.91 1438.49,-11.77 1448.25,-15.9 1448.7,-8.91"/>
</a>
</g>
</g>
<!-- Node5 -->
<g id="Node000005" class="node">
<title>Node5</title>
<g id="a_Node000005"><a xlink:href="cmd__line_8hpp.html" target="_top" xlink:title=" ">
<polygon fill="white" stroke="#666666" points="1231.88,-524 1158.12,-524 1158.12,-504 1231.88,-504 1231.88,-524"/>
<text xml:space="preserve" text-anchor="middle" x="1195" y="-510.5" font-family="Helvetica,sans-Serif" font-size="10.00">cmd_line.hpp</text>
</a>
</g>
</g>
<!-- Node1&#45;&gt;Node5 -->
<g id="edge4_Node000001_Node000005" class="edge">
<title>Node1&#45;&gt;Node5</title>
<g id="a_edge4_Node000001_Node000005"><a xlink:title=" ">
<path fill="none" stroke="#63b8ff" d="M1274.79,-559.59C1257.6,-551.44 1234.51,-539.48 1217.5,-530"/>
<polygon fill="#63b8ff" stroke="#63b8ff" points="1219.54,-527.14 1209.11,-525.23 1216.07,-533.22 1219.54,-527.14"/>
</a>
</g>
</g>
<!-- Node10 -->
<g id="Node000010" class="node">
<title>Node10</title>
<g id="a_Node000010"><a xlink:href="types_8hpp.html" target="_top" xlink:title=" ">
<polygon fill="white" stroke="#666666" points="422.38,-76 363.62,-76 363.62,-56 422.38,-56 422.38,-76"/>
<text xml:space="preserve" text-anchor="middle" x="393" y="-62.5" font-family="Helvetica,sans-Serif" font-size="10.00">types.hpp</text>
</a>
</g>
</g>
<!-- Node1&#45;&gt;Node10 -->
<g id="edge85_Node000001_Node000010" class="edge">
<title>Node1&#45;&gt;Node10</title>
<g id="a_edge85_Node000001_Node000010"><a xlink:title=" ">
<path fill="none" stroke="#63b8ff" d="M1255.18,-567.67C1030.72,-560.39 0,-523.49 0,-459 0,-459 0,-459 0,-177 0,-104.5 251.14,-77.62 351.9,-69.75"/>
<polygon fill="#63b8ff" stroke="#63b8ff" points="351.92,-73.26 361.63,-69.02 351.39,-66.28 351.92,-73.26"/>
</a>
</g>
</g>
<!-- Node13 -->
<g id="Node000013" class="node">
<title>Node13</title>
<g id="a_Node000013"><a xlink:href="utils_8hpp.html" target="_top" xlink:title=" ">
<polygon fill="white" stroke="#666666" points="874.38,-132 821.62,-132 821.62,-112 874.38,-112 874.38,-132"/>
<text xml:space="preserve" text-anchor="middle" x="848" y="-118.5" font-family="Helvetica,sans-Serif" font-size="10.00">utils.hpp</text>
</a>
</g>
</g>
<!-- Node1&#45;&gt;Node13 -->
<g id="edge86_Node000001_Node000013" class="edge">
<title>Node1&#45;&gt;Node13</title>
<g id="a_edge86_Node000001_Node000013"><a xlink:title=" ">
<path fill="none" stroke="#63b8ff" d="M1320.52,-559.55C1353.75,-543.91 1412,-509.33 1412,-459 1412,-459 1412,-459 1412,-233 1412,-194.58 1389.26,-185.39 1355,-168 1313.47,-146.92 996.51,-130.04 885.92,-124.74"/>
<polygon fill="#63b8ff" stroke="#63b8ff" points="886.35,-121.26 876.19,-124.28 886.01,-128.25 886.35,-121.26"/>
</a>
</g>
</g>
<!-- Node17 -->
<g id="Node000017" class="node">
<title>Node17</title>
<g id="a_Node000017"><a xlink:href="exceptions_8hpp.html" target="_top" xlink:title=" ">
<polygon fill="white" stroke="#666666" points="1236,-132 1154,-132 1154,-112 1236,-112 1236,-132"/>
<text xml:space="preserve" text-anchor="middle" x="1195" y="-118.5" font-family="Helvetica,sans-Serif" font-size="10.00">exceptions.hpp</text>
</a>
</g>
</g>
<!-- Node1&#45;&gt;Node17 -->
<g id="edge81_Node000001_Node000017" class="edge">
<title>Node1&#45;&gt;Node17</title>
<g id="a_edge81_Node000001_Node000017"><a xlink:title=" ">
<path fill="none" stroke="#63b8ff" d="M1340.64,-563.4C1396.66,-553.37 1488,-526.65 1488,-459 1488,-459 1488,-459 1488,-233 1488,-182.22 1331.81,-146.95 1247.51,-131.62"/>
<polygon fill="#63b8ff" stroke="#63b8ff" points="1248.31,-128.2 1237.85,-129.89 1247.08,-135.1 1248.31,-128.2"/>
</a>
</g>
</g>
<!-- Node20 -->
<g id="Node000020" class="node">
<title>Node20</title>
<g id="a_Node000020"><a xlink:href="command_8hpp.html" target="_top" xlink:title=" ">
<polygon fill="white" stroke="#666666" points="456.75,-412 379.25,-412 379.25,-392 456.75,-392 456.75,-412"/>
<text xml:space="preserve" text-anchor="middle" x="418" y="-398.5" font-family="Helvetica,sans-Serif" font-size="10.00">command.hpp</text>
</a>
</g>
</g>
<!-- Node1&#45;&gt;Node20 -->
<g id="edge80_Node000001_Node000020" class="edge">
<title>Node1&#45;&gt;Node20</title>
<g id="a_edge80_Node000001_Node000020"><a xlink:title=" ">
<path fill="none" stroke="#63b8ff" d="M1255.17,-562.21C1158.68,-546.78 917.03,-507.35 716,-468 628.37,-450.85 526.88,-428.09 467.82,-414.55"/>
<polygon fill="#63b8ff" stroke="#63b8ff" points="468.94,-411.22 458.41,-412.39 467.38,-418.04 468.94,-411.22"/>
</a>
</g>
</g>
<!-- Node21 -->
<g id="Node000021" class="node">
<title>Node21</title>
<g id="a_Node000021"><a xlink:href="group__iface_8hpp.html" target="_top" xlink:title=" ">
<polygon fill="white" stroke="#666666" points="1098.5,-244 1013.5,-244 1013.5,-224 1098.5,-224 1098.5,-244"/>
<text xml:space="preserve" text-anchor="middle" x="1056" y="-230.5" font-family="Helvetica,sans-Serif" font-size="10.00">group_iface.hpp</text>
</a>
</g>
</g>
<!-- Node1&#45;&gt;Node21 -->
<g id="edge82_Node000001_Node000021" class="edge">
<title>Node1&#45;&gt;Node21</title>
<g id="a_edge82_Node000001_Node000021"><a xlink:title=" ">
<path fill="none" stroke="#63b8ff" d="M1293.5,-559.55C1287.3,-546.72 1275.56,-523.2 1264,-504 1202.68,-402.19 1109.17,-294.15 1072.02,-252.64"/>
<polygon fill="#63b8ff" stroke="#63b8ff" points="1074.71,-250.4 1065.42,-245.31 1069.51,-255.08 1074.71,-250.4"/>
</a>
</g>
</g>
<!-- Node23 -->
<g id="Node000023" class="node">
<title>Node23</title>
<g id="a_Node000023"><a xlink:href="groups_8hpp.html" target="_top" xlink:title=" ">
<polygon fill="white" stroke="#666666" points="320,-300 256,-300 256,-280 320,-280 320,-300"/>
<text xml:space="preserve" text-anchor="middle" x="288" y="-286.5" font-family="Helvetica,sans-Serif" font-size="10.00">groups.hpp</text>
</a>
</g>
</g>
<!-- Node1&#45;&gt;Node23 -->
<g id="edge83_Node000001_Node000023" class="edge">
<title>Node1&#45;&gt;Node23</title>
<g id="a_edge83_Node000001_Node000023"><a xlink:title=" ">
<path fill="none" stroke="#63b8ff" d="M1255.22,-565.19C1183.01,-558.51 1032.43,-543.52 906,-524 650.41,-484.54 570.26,-519.39 335,-412 298.12,-395.17 280.81,-392.42 263,-356 255.55,-340.77 263.77,-322.72 272.72,-309.51"/>
<polygon fill="#63b8ff" stroke="#63b8ff" points="275.38,-311.8 278.56,-301.69 269.77,-307.61 275.38,-311.8"/>
</a>
</g>
</g>
<!-- Node26 -->
<g id="Node000026" class="node">
<title>Node26</title>
<g id="a_Node000026"><a xlink:href="help__printer__iface_8hpp.html" target="_top" xlink:title=" ">
<polygon fill="white" stroke="#666666" points="1177.62,-412 1066.38,-412 1066.38,-392 1177.62,-392 1177.62,-412"/>
<text xml:space="preserve" text-anchor="middle" x="1122" y="-398.5" font-family="Helvetica,sans-Serif" font-size="10.00">help_printer_iface.hpp</text>
</a>
</g>
</g>
<!-- Node1&#45;&gt;Node26 -->
<g id="edge84_Node000001_Node000026" class="edge">
<title>Node1&#45;&gt;Node26</title>
<g id="a_edge84_Node000001_Node000026"><a xlink:title=" ">
<path fill="none" stroke="#63b8ff" d="M1290.65,-559.79C1280.16,-546.84 1260.04,-522.74 1241,-504 1208.6,-472.12 1167.57,-438.66 1143.13,-419.37"/>
<polygon fill="#63b8ff" stroke="#63b8ff" points="1145.55,-416.82 1135.52,-413.41 1141.24,-422.33 1145.55,-416.82"/>
</a>
</g>
</g>
<!-- Node5&#45;&gt;Node1 -->
<g id="edge79_Node000005_Node000001" class="edge">
<title>Node5&#45;&gt;Node1</title>
<g id="a_edge79_Node000005_Node000001"><a xlink:title=" ">
<path fill="none" stroke="#63b8ff" d="M1218.36,-524.48C1235.59,-532.66 1258.67,-544.62 1275.65,-554.08"/>
<polygon fill="#63b8ff" stroke="#63b8ff" points="1273.59,-556.93 1284.01,-558.84 1277.06,-550.85 1273.59,-556.93"/>
</a>
</g>
</g>
<!-- Node5&#45;&gt;Node2 -->
<g id="edge76_Node000005_Node000002" class="edge">
<title>Node5&#45;&gt;Node2</title>
<g id="a_edge76_Node000005_Node000002"><a xlink:title=" ">
<path fill="none" stroke="#63b8ff" d="M1232.09,-507.21C1284.52,-496.67 1374,-469.02 1374,-403 1374,-403 1374,-403 1374,-289 1374,-234.96 1416.35,-212.71 1386,-168 1348.13,-112.21 1310.41,-128.39 1245,-112 1177.85,-95.18 974.05,-77.23 887.52,-70.14"/>
<polygon fill="#63b8ff" stroke="#63b8ff" points="887.88,-66.66 877.63,-69.33 887.31,-73.63 887.88,-66.66"/>
</a>
</g>
</g>
<!-- Node5&#45;&gt;Node4 -->
<g id="edge78_Node000005_Node000004" class="edge">
<title>Node5&#45;&gt;Node4</title>
<g id="a_edge78_Node000005_Node000004"><a xlink:title=" ">
<path fill="none" stroke="#63b8ff" d="M1232.19,-510.43C1267.78,-506.33 1321.45,-495.68 1359,-468 1454.07,-397.92 1468.9,-357.38 1502,-244 1525.99,-161.85 1460.68,-67.24 1429.97,-28.7"/>
<polygon fill="#63b8ff" stroke="#63b8ff" points="1432.98,-26.86 1423.94,-21.33 1427.56,-31.29 1432.98,-26.86"/>
</a>
</g>
</g>
<!-- Node6 -->
<g id="Node000006" class="node">
<title>Node6</title>
<g id="a_Node000006"><a xlink:href="api_8hpp.html" target="_top" xlink:title=" ">
<polygon fill="white" stroke="#666666" points="319.75,-356 272.25,-356 272.25,-336 319.75,-336 319.75,-356"/>
<text xml:space="preserve" text-anchor="middle" x="296" y="-342.5" font-family="Helvetica,sans-Serif" font-size="10.00">api.hpp</text>
</a>
</g>
</g>
<!-- Node5&#45;&gt;Node6 -->
<g id="edge5_Node000005_Node000006" class="edge">
<title>Node5&#45;&gt;Node6</title>
<g id="a_edge5_Node000005_Node000006"><a xlink:title=" ">
<path fill="none" stroke="#63b8ff" d="M1157.72,-511.52C1016.22,-505.45 513.08,-479.46 370,-412 346.43,-400.89 324.7,-379.98 310.97,-364.87"/>
<polygon fill="#63b8ff" stroke="#63b8ff" points="313.73,-362.7 304.51,-357.49 308.47,-367.32 313.73,-362.7"/>
</a>
</g>
</g>
<!-- Node5&#45;&gt;Node13 -->
<g id="edge75_Node000005_Node000013" class="edge">
<title>Node5&#45;&gt;Node13</title>
<g id="a_edge75_Node000005_Node000013"><a xlink:title=" ">
<path fill="none" stroke="#63b8ff" d="M1178.76,-503.62C1151.49,-487.36 1095.69,-451.82 1057,-412 965.25,-317.57 970.86,-271.12 889,-168 881.55,-158.62 872.66,-148.72 865.07,-140.61"/>
<polygon fill="#63b8ff" stroke="#63b8ff" points="867.66,-138.25 858.23,-133.42 862.59,-143.08 867.66,-138.25"/>
</a>
</g>
</g>
<!-- Node15 -->
<g id="Node000015" class="node">
<title>Node15</title>
<g id="a_Node000015"><a xlink:href="context_8hpp.html" target="_top" xlink:title=" ">
<polygon fill="white" stroke="#666666" points="361.5,-188 294.5,-188 294.5,-168 361.5,-168 361.5,-188"/>
<text xml:space="preserve" text-anchor="middle" x="328" y="-174.5" font-family="Helvetica,sans-Serif" font-size="10.00">context.hpp</text>
</a>
</g>
</g>
<!-- Node5&#45;&gt;Node15 -->
<g id="edge63_Node000005_Node000015" class="edge">
<title>Node5&#45;&gt;Node15</title>
<g id="a_edge63_Node000005_Node000015"><a xlink:title=" ">
<path fill="none" stroke="#63b8ff" d="M1157.65,-511.83C1032.71,-507.74 630.16,-492.9 503,-468 425.76,-452.88 405.98,-446.01 335,-412 293.53,-392.13 272.49,-394.92 248,-356 229.94,-327.29 234.95,-313.38 241,-280 245.74,-253.85 245.59,-244.91 262,-224 271.66,-211.69 285.63,-201.49 298.23,-193.93"/>
<polygon fill="#63b8ff" stroke="#63b8ff" points="299.63,-197.16 306.61,-189.19 296.19,-191.07 299.63,-197.16"/>
</a>
</g>
</g>
<!-- Node5&#45;&gt;Node17 -->
<g id="edge64_Node000005_Node000017" class="edge">
<title>Node5&#45;&gt;Node17</title>
<g id="a_edge64_Node000005_Node000017"><a xlink:title=" ">
<path fill="none" stroke="#63b8ff" d="M1207.03,-503.68C1217.33,-495.22 1232.03,-481.98 1242,-468 1261.89,-440.11 1363.66,-221.46 1371,-188 1372.9,-179.32 1376.45,-175.02 1371,-168 1355.89,-148.54 1293.65,-136.07 1247.45,-129.31"/>
<polygon fill="#63b8ff" stroke="#63b8ff" points="1247.98,-125.85 1237.59,-127.92 1247,-132.78 1247.98,-125.85"/>
</a>
</g>
</g>
<!-- Node5&#45;&gt;Node20 -->
<g id="edge62_Node000005_Node000020" class="edge">
<title>Node5&#45;&gt;Node20</title>
<g id="a_edge62_Node000005_Node000020"><a xlink:title=" ">
<path fill="none" stroke="#63b8ff" d="M1157.81,-508.37C1094.68,-500.46 962.54,-483.67 851,-468 712.35,-448.53 549.06,-423.43 468.37,-410.88"/>
<polygon fill="#63b8ff" stroke="#63b8ff" points="468.99,-407.43 458.57,-409.35 467.91,-414.35 468.99,-407.43"/>
</a>
</g>
</g>
<!-- Node22 -->
<g id="Node000022" class="node">
<title>Node22</title>
<g id="a_Node000022"><a xlink:title=" ">
<polygon fill="#e0e0e0" stroke="#999999" points="1345.62,-188 1294.38,-188 1294.38,-168 1345.62,-168 1345.62,-188"/>
<text xml:space="preserve" text-anchor="middle" x="1320" y="-174.5" font-family="Helvetica,sans-Serif" font-size="10.00">memory</text>
</a>
</g>
</g>
<!-- Node5&#45;&gt;Node22 -->
<g id="edge77_Node000005_Node000022" class="edge">
<title>Node5&#45;&gt;Node22</title>
<g id="a_edge77_Node000005_Node000022"><a xlink:title=" ">
<path fill="none" stroke="#63b8ff" d="M1201.47,-503.77C1217.91,-479.39 1260,-410.76 1260,-347 1260,-347 1260,-347 1260,-289 1260,-252.78 1285.38,-217.14 1303.13,-196.65"/>
<polygon fill="#63b8ff" stroke="#63b8ff" points="1305.5,-199.25 1309.61,-189.48 1300.31,-194.55 1305.5,-199.25"/>
</a>
</g>
</g>
<!-- Node25 -->
<g id="Node000025" class="node">
<title>Node25</title>
<g id="a_Node000025"><a xlink:href="help_8hpp.html" target="_top" xlink:title=" ">
<polygon fill="white" stroke="#666666" points="912.38,-468 859.62,-468 859.62,-448 912.38,-448 912.38,-468"/>
<text xml:space="preserve" text-anchor="middle" x="886" y="-454.5" font-family="Helvetica,sans-Serif" font-size="10.00">help.hpp</text>
</a>
</g>
</g>
<!-- Node5&#45;&gt;Node25 -->
<g id="edge65_Node000005_Node000025" class="edge">
<title>Node5&#45;&gt;Node25</title>
<g id="a_edge65_Node000005_Node000025"><a xlink:title=" ">
<path fill="none" stroke="#63b8ff" d="M1157.73,-506.49C1098.44,-496.12 983.27,-476 923.71,-465.59"/>
<polygon fill="#63b8ff" stroke="#63b8ff" points="924.51,-462.18 914.06,-463.9 923.31,-469.07 924.51,-462.18"/>
</a>
</g>
</g>
<!-- Node7 -->
<g id="Node000007" class="node">
<title>Node7</title>
<g id="a_Node000007"><a xlink:href="arg_8hpp.html" target="_top" xlink:title=" ">
<polygon fill="white" stroke="#666666" points="623.12,-244 574.88,-244 574.88,-224 623.12,-224 623.12,-244"/>
<text xml:space="preserve" text-anchor="middle" x="599" y="-230.5" font-family="Helvetica,sans-Serif" font-size="10.00">arg.hpp</text>
</a>
</g>
</g>
<!-- Node6&#45;&gt;Node7 -->
<g id="edge6_Node000006_Node000007" class="edge">
<title>Node6&#45;&gt;Node7</title>
<g id="a_edge6_Node000006_Node000007"><a xlink:title=" ">
<path fill="none" stroke="#63b8ff" d="M320.03,-343.36C377.13,-339.07 519.05,-326.03 558,-300 574.11,-289.24 585.13,-269.78 591.66,-254.94"/>
<polygon fill="#63b8ff" stroke="#63b8ff" points="594.89,-256.28 595.37,-245.7 588.4,-253.67 594.89,-256.28"/>
</a>
</g>
</g>
<!-- Node6&#45;&gt;Node10 -->
<g id="edge61_Node000006_Node000010" class="edge">
<title>Node6&#45;&gt;Node10</title>
<g id="a_edge61_Node000006_Node000010"><a xlink:title=" ">
<path fill="none" stroke="#63b8ff" d="M283.32,-335.73C262.3,-319.62 220.55,-284.3 200,-244 173.34,-191.72 156.17,-154.15 197,-112 218.13,-90.19 301.04,-77.24 352.02,-71.18"/>
<polygon fill="#63b8ff" stroke="#63b8ff" points="352.26,-74.68 361.8,-70.06 351.47,-67.72 352.26,-74.68"/>
</a>
</g>
</g>
<!-- Node6&#45;&gt;Node20 -->
<g id="edge32_Node000006_Node000020" class="edge">
<title>Node6&#45;&gt;Node20</title>
<g id="a_edge32_Node000006_Node000020"><a xlink:title=" ">
<path fill="none" stroke="#63b8ff" d="M320.06,-355.41C340.79,-363.76 370.39,-376.72 391.71,-386.69"/>
<polygon fill="#63b8ff" stroke="#63b8ff" points="390.12,-389.81 400.65,-390.94 393.12,-383.49 390.12,-389.81"/>
</a>
</g>
</g>
<!-- Node6&#45;&gt;Node23 -->
<g id="edge49_Node000006_Node000023" class="edge">
<title>Node6&#45;&gt;Node23</title>
<g id="a_edge49_Node000006_Node000023"><a xlink:title=" ">
<path fill="none" stroke="#63b8ff" d="M294.61,-335.59C293.62,-328.93 292.26,-319.75 291.03,-311.44"/>
<polygon fill="#63b8ff" stroke="#63b8ff" points="294.53,-311.17 289.6,-301.8 287.6,-312.2 294.53,-311.17"/>
</a>
</g>
</g>
<!-- Node24 -->
<g id="Node000024" class="node">
<title>Node24</title>
<g id="a_Node000024"><a xlink:href="multi__arg_8hpp.html" target="_top" xlink:title=" ">
<polygon fill="white" stroke="#666666" points="549.25,-300 474.75,-300 474.75,-280 549.25,-280 549.25,-300"/>
<text xml:space="preserve" text-anchor="middle" x="512" y="-286.5" font-family="Helvetica,sans-Serif" font-size="10.00">multi_arg.hpp</text>
</a>
</g>
</g>
<!-- Node6&#45;&gt;Node24 -->
<g id="edge53_Node000006_Node000024" class="edge">
<title>Node6&#45;&gt;Node24</title>
<g id="a_edge53_Node000006_Node000024"><a xlink:title=" ">
<path fill="none" stroke="#63b8ff" d="M319.94,-339.01C354.47,-330.38 419,-314.25 463.67,-303.08"/>
<polygon fill="#63b8ff" stroke="#63b8ff" points="464.25,-306.54 473.11,-300.72 462.56,-299.75 464.25,-306.54"/>
</a>
</g>
</g>
<!-- Node7&#45;&gt;Node2 -->
<g id="edge31_Node000007_Node000002" class="edge">
<title>Node7&#45;&gt;Node2</title>
<g id="a_edge31_Node000007_Node000002"><a xlink:title=" ">
<path fill="none" stroke="#63b8ff" d="M586.56,-223.64C570.91,-210.73 547.63,-186.88 561,-168 617.9,-87.65 744.1,-70.76 808.51,-67.52"/>
<polygon fill="#63b8ff" stroke="#63b8ff" points="808.43,-71.03 818.28,-67.12 808.14,-64.03 808.43,-71.03"/>
</a>
</g>
</g>
<!-- Node8 -->
<g id="Node000008" class="node">
<title>Node8</title>
<g id="a_Node000008"><a xlink:href="arg__iface_8hpp.html" target="_top" xlink:title=" ">
<polygon fill="white" stroke="#666666" points="644.25,-188 569.75,-188 569.75,-168 644.25,-168 644.25,-188"/>
<text xml:space="preserve" text-anchor="middle" x="607" y="-174.5" font-family="Helvetica,sans-Serif" font-size="10.00">arg_iface.hpp</text>
</a>
</g>
</g>
<!-- Node7&#45;&gt;Node8 -->
<g id="edge7_Node000007_Node000008" class="edge">
<title>Node7&#45;&gt;Node8</title>
<g id="a_edge7_Node000007_Node000008"><a xlink:title=" ">
<path fill="none" stroke="#63b8ff" d="M600.39,-223.59C601.38,-216.93 602.74,-207.75 603.97,-199.44"/>
<polygon fill="#63b8ff" stroke="#63b8ff" points="607.4,-200.2 605.4,-189.8 600.47,-199.17 607.4,-200.2"/>
</a>
</g>
</g>
<!-- Node7&#45;&gt;Node10 -->
<g id="edge24_Node000007_Node000010" class="edge">
<title>Node7&#45;&gt;Node10</title>
<g id="a_edge24_Node000007_Node000010"><a xlink:title=" ">
<path fill="none" stroke="#63b8ff" d="M574.49,-228.88C549.97,-223.53 512.72,-211.88 490,-188 465.3,-162.03 485.27,-140.09 463,-112 452.91,-99.28 438.2,-89.06 424.86,-81.59"/>
<polygon fill="#63b8ff" stroke="#63b8ff" points="426.84,-78.68 416.36,-77.13 423.59,-84.88 426.84,-78.68"/>
</a>
</g>
</g>
<!-- Node7&#45;&gt;Node13 -->
<g id="edge25_Node000007_Node000013" class="edge">
<title>Node7&#45;&gt;Node13</title>
<g id="a_edge25_Node000007_Node000013"><a xlink:title=" ">
<path fill="none" stroke="#63b8ff" d="M609.57,-223.7C625.95,-209.75 658.91,-183.39 691,-168 729.77,-149.41 777.69,-137.06 810.32,-130.07"/>
<polygon fill="#63b8ff" stroke="#63b8ff" points="810.62,-133.58 819.7,-128.13 809.2,-126.73 810.62,-133.58"/>
</a>
</g>
</g>
<!-- Node7&#45;&gt;Node15 -->
<g id="edge17_Node000007_Node000015" class="edge">
<title>Node7&#45;&gt;Node15</title>
<g id="a_edge17_Node000007_Node000015"><a xlink:title=" ">
<path fill="none" stroke="#63b8ff" d="M574.47,-228.11C528.91,-219.03 430.61,-199.45 372.87,-187.94"/>
<polygon fill="#63b8ff" stroke="#63b8ff" points="373.86,-184.57 363.37,-186.05 372.5,-191.44 373.86,-184.57"/>
</a>
</g>
</g>
<!-- Node7&#45;&gt;Node17 -->
<g id="edge21_Node000007_Node000017" class="edge">
<title>Node7&#45;&gt;Node17</title>
<g id="a_edge21_Node000007_Node000017"><a xlink:title=" ">
<path fill="none" stroke="#63b8ff" d="M623.48,-228.48C712.26,-212.1 1018.68,-155.54 1142.49,-132.69"/>
<polygon fill="#63b8ff" stroke="#63b8ff" points="1142.85,-136.18 1152.05,-130.93 1141.58,-129.3 1142.85,-136.18"/>
</a>
</g>
</g>
<!-- Node19 -->
<g id="Node000019" class="node">
<title>Node19</title>
<g id="a_Node000019"><a xlink:href="value__utils_8hpp.html" target="_top" xlink:title=" ">
<polygon fill="white" stroke="#666666" points="781.62,-188 700.38,-188 700.38,-168 781.62,-168 781.62,-188"/>
<text xml:space="preserve" text-anchor="middle" x="741" y="-174.5" font-family="Helvetica,sans-Serif" font-size="10.00">value_utils.hpp</text>
</a>
</g>
</g>
<!-- Node7&#45;&gt;Node19 -->
<g id="edge26_Node000007_Node000019" class="edge">
<title>Node7&#45;&gt;Node19</title>
<g id="a_edge26_Node000007_Node000019"><a xlink:title=" ">
<path fill="none" stroke="#63b8ff" d="M623.41,-223.72C646.07,-215.1 680.06,-202.18 705.67,-192.43"/>
<polygon fill="#63b8ff" stroke="#63b8ff" points="706.92,-195.71 715.02,-188.88 704.43,-189.16 706.92,-195.71"/>
</a>
</g>
</g>
<!-- Node9 -->
<g id="Node000009" class="node">
<title>Node9</title>
<g id="a_Node000009"><a xlink:href="enums_8hpp.html" target="_top" xlink:title=" ">
<polygon fill="white" stroke="#666666" points="454,-132 390,-132 390,-112 454,-112 454,-132"/>
<text xml:space="preserve" text-anchor="middle" x="422" y="-118.5" font-family="Helvetica,sans-Serif" font-size="10.00">enums.hpp</text>
</a>
</g>
</g>
<!-- Node8&#45;&gt;Node9 -->
<g id="edge8_Node000008_Node000009" class="edge">
<title>Node8&#45;&gt;Node9</title>
<g id="a_edge8_Node000008_Node000009"><a xlink:title=" ">
<path fill="none" stroke="#63b8ff" d="M574.78,-167.59C544.45,-158.74 498.83,-145.43 465.33,-135.65"/>
<polygon fill="#63b8ff" stroke="#63b8ff" points="466.51,-132.35 455.93,-132.9 464.55,-139.07 466.51,-132.35"/>
</a>
</g>
</g>
<!-- Node8&#45;&gt;Node10 -->
<g id="edge9_Node000008_Node000010" class="edge">
<title>Node8&#45;&gt;Node10</title>
<g id="a_edge9_Node000008_Node000010"><a xlink:title=" ">
<path fill="none" stroke="#63b8ff" d="M592.23,-167.6C571.25,-154.41 531.43,-130.03 496,-112 473.55,-100.57 447.55,-89.23 427.29,-80.79"/>
<polygon fill="#63b8ff" stroke="#63b8ff" points="428.66,-77.57 418.08,-76.99 425.99,-84.04 428.66,-77.57"/>
</a>
</g>
</g>
<!-- Node8&#45;&gt;Node13 -->
<g id="edge13_Node000008_Node000013" class="edge">
<title>Node8&#45;&gt;Node13</title>
<g id="a_edge13_Node000008_Node000013"><a xlink:title=" ">
<path fill="none" stroke="#63b8ff" d="M644.66,-168.56C689.84,-158.44 765.14,-141.57 810.33,-131.44"/>
<polygon fill="#63b8ff" stroke="#63b8ff" points="810.93,-134.89 819.93,-129.29 809.4,-128.06 810.93,-134.89"/>
</a>
</g>
</g>
<!-- Node10&#45;&gt;Node4 -->
<g id="edge12_Node000010_Node000004" class="edge">
<title>Node10&#45;&gt;Node4</title>
<g id="a_edge12_Node000010_Node000004"><a xlink:title=" ">
<path fill="none" stroke="#63b8ff" d="M422.76,-63.43C570.83,-55.6 1227.25,-20.92 1382.16,-12.74"/>
<polygon fill="#63b8ff" stroke="#63b8ff" points="1381.92,-16.25 1391.72,-12.23 1381.55,-9.26 1381.92,-16.25"/>
</a>
</g>
</g>
<!-- Node11 -->
<g id="Node000011" class="node">
<title>Node11</title>
<g id="a_Node000011"><a xlink:title=" ">
<polygon fill="#e0e0e0" stroke="#999999" points="387.75,-20 334.25,-20 334.25,0 387.75,0 387.75,-20"/>
<text xml:space="preserve" text-anchor="middle" x="361" y="-6.5" font-family="Helvetica,sans-Serif" font-size="10.00">iostream</text>
</a>
</g>
</g>
<!-- Node10&#45;&gt;Node11 -->
<g id="edge10_Node000010_Node000011" class="edge">
<title>Node10&#45;&gt;Node11</title>
<g id="a_edge10_Node000010_Node000011"><a xlink:title=" ">
<path fill="none" stroke="#63b8ff" d="M387.43,-55.59C383.25,-48.55 377.4,-38.67 372.26,-30"/>
<polygon fill="#63b8ff" stroke="#63b8ff" points="375.39,-28.42 367.28,-21.6 369.37,-31.99 375.39,-28.42"/>
</a>
</g>
</g>
<!-- Node12 -->
<g id="Node000012" class="node">
<title>Node12</title>
<g id="a_Node000012"><a xlink:title=" ">
<polygon fill="#e0e0e0" stroke="#999999" points="446,-20 406,-20 406,0 446,0 446,-20"/>
<text xml:space="preserve" text-anchor="middle" x="426" y="-6.5" font-family="Helvetica,sans-Serif" font-size="10.00">string</text>
</a>
</g>
</g>
<!-- Node10&#45;&gt;Node12 -->
<g id="edge11_Node000010_Node000012" class="edge">
<title>Node10&#45;&gt;Node12</title>
<g id="a_edge11_Node000010_Node000012"><a xlink:title=" ">
<path fill="none" stroke="#63b8ff" d="M398.75,-55.59C403.05,-48.55 409.09,-38.67 414.39,-30"/>
<polygon fill="#63b8ff" stroke="#63b8ff" points="417.3,-31.95 419.53,-21.59 411.33,-28.3 417.3,-31.95"/>
</a>
</g>
</g>
<!-- Node13&#45;&gt;Node2 -->
<g id="edge15_Node000013_Node000002" class="edge">
<title>Node13&#45;&gt;Node2</title>
<g id="a_edge15_Node000013_Node000002"><a xlink:title=" ">
<path fill="none" stroke="#63b8ff" d="M848,-111.59C848,-105.01 848,-95.96 848,-87.73"/>
<polygon fill="#63b8ff" stroke="#63b8ff" points="851.5,-87.81 848,-77.81 844.5,-87.81 851.5,-87.81"/>
</a>
</g>
</g>
<!-- Node13&#45;&gt;Node10 -->
<g id="edge14_Node000013_Node000010" class="edge">
<title>Node13&#45;&gt;Node10</title>
<g id="a_edge14_Node000013_Node000010"><a xlink:title=" ">
<path fill="none" stroke="#63b8ff" d="M821.24,-117.82C744.86,-108.76 525.51,-82.73 433.94,-71.86"/>
<polygon fill="#63b8ff" stroke="#63b8ff" points="434.5,-68.4 424.15,-70.7 433.67,-75.35 434.5,-68.4"/>
</a>
</g>
</g>
<!-- Node14 -->
<g id="Node000014" class="node">
<title>Node14</title>
<g id="a_Node000014"><a xlink:title=" ">
<polygon fill="#e0e0e0" stroke="#999999" points="1050.88,-76 989.12,-76 989.12,-56 1050.88,-56 1050.88,-76"/>
<text xml:space="preserve" text-anchor="middle" x="1020" y="-62.5" font-family="Helvetica,sans-Serif" font-size="10.00">type_traits</text>
</a>
</g>
</g>
<!-- Node13&#45;&gt;Node14 -->
<g id="edge16_Node000013_Node000014" class="edge">
<title>Node13&#45;&gt;Node14</title>
<g id="a_edge16_Node000013_Node000014"><a xlink:title=" ">
<path fill="none" stroke="#63b8ff" d="M874.88,-112.56C902.77,-103.81 946.74,-90 978.98,-79.88"/>
<polygon fill="#63b8ff" stroke="#63b8ff" points="979.91,-83.26 988.4,-76.92 977.81,-76.58 979.91,-83.26"/>
</a>
</g>
</g>
<!-- Node15&#45;&gt;Node10 -->
<g id="edge19_Node000015_Node000010" class="edge">
<title>Node15&#45;&gt;Node10</title>
<g id="a_edge19_Node000015_Node000010"><a xlink:title=" ">
<path fill="none" stroke="#63b8ff" d="M324.36,-167.94C319.68,-154.75 313.24,-129.88 323,-112 330.32,-98.59 343.53,-88.58 356.53,-81.45"/>
<polygon fill="#63b8ff" stroke="#63b8ff" points="358.04,-84.61 365.43,-77.02 354.91,-78.35 358.04,-84.61"/>
</a>
</g>
</g>
<!-- Node15&#45;&gt;Node13 -->
<g id="edge20_Node000015_Node000013" class="edge">
<title>Node15&#45;&gt;Node13</title>
<g id="a_edge20_Node000015_Node000013"><a xlink:title=" ">
<path fill="none" stroke="#63b8ff" d="M361.72,-173.5C454.4,-163.87 712.59,-137.06 810.08,-126.94"/>
<polygon fill="#63b8ff" stroke="#63b8ff" points="810.33,-130.43 819.91,-125.92 809.6,-123.47 810.33,-130.43"/>
</a>
</g>
</g>
<!-- Node16 -->
<g id="Node000016" class="node">
<title>Node16</title>
<g id="a_Node000016"><a xlink:title=" ">
<polygon fill="#e0e0e0" stroke="#999999" points="371.62,-132 332.38,-132 332.38,-112 371.62,-112 371.62,-132"/>
<text xml:space="preserve" text-anchor="middle" x="352" y="-118.5" font-family="Helvetica,sans-Serif" font-size="10.00">utility</text>
</a>
</g>
</g>
<!-- Node15&#45;&gt;Node16 -->
<g id="edge18_Node000015_Node000016" class="edge">
<title>Node15&#45;&gt;Node16</title>
<g id="a_edge18_Node000015_Node000016"><a xlink:title=" ">
<path fill="none" stroke="#63b8ff" d="M332.18,-167.59C335.24,-160.7 339.51,-151.1 343.3,-142.57"/>
<polygon fill="#63b8ff" stroke="#63b8ff" points="346.39,-144.24 347.25,-133.68 339.99,-141.4 346.39,-144.24"/>
</a>
</g>
</g>
<!-- Node17&#45;&gt;Node10 -->
<g id="edge23_Node000017_Node000010" class="edge">
<title>Node17&#45;&gt;Node10</title>
<g id="a_edge23_Node000017_Node000010"><a xlink:title=" ">
<path fill="none" stroke="#63b8ff" d="M1153.57,-118.21C1015.34,-108.9 571,-78.98 433.76,-69.74"/>
<polygon fill="#63b8ff" stroke="#63b8ff" points="434.28,-66.27 424.07,-69.09 433.81,-73.26 434.28,-66.27"/>
</a>
</g>
</g>
<!-- Node18 -->
<g id="Node000018" class="node">
<title>Node18</title>
<g id="a_Node000018"><a xlink:title=" ">
<polygon fill="#e0e0e0" stroke="#999999" points="1224.38,-76 1165.62,-76 1165.62,-56 1224.38,-56 1224.38,-76"/>
<text xml:space="preserve" text-anchor="middle" x="1195" y="-62.5" font-family="Helvetica,sans-Serif" font-size="10.00">stdexcept</text>
</a>
</g>
</g>
<!-- Node17&#45;&gt;Node18 -->
<g id="edge22_Node000017_Node000018" class="edge">
<title>Node17&#45;&gt;Node18</title>
<g id="a_edge22_Node000017_Node000018"><a xlink:title=" ">
<path fill="none" stroke="#63b8ff" d="M1195,-111.59C1195,-105.01 1195,-95.96 1195,-87.73"/>
<polygon fill="#63b8ff" stroke="#63b8ff" points="1198.5,-87.81 1195,-77.81 1191.5,-87.81 1198.5,-87.81"/>
</a>
</g>
</g>
<!-- Node19&#45;&gt;Node2 -->
<g id="edge30_Node000019_Node000002" class="edge">
<title>Node19&#45;&gt;Node2</title>
<g id="a_edge30_Node000019_Node000002"><a xlink:title=" ">
<path fill="none" stroke="#63b8ff" d="M750.12,-167.62C768.05,-149.19 808.11,-108.01 831.03,-84.44"/>
<polygon fill="#63b8ff" stroke="#63b8ff" points="833.38,-87.05 837.84,-77.44 828.36,-82.17 833.38,-87.05"/>
</a>
</g>
</g>
<!-- Node19&#45;&gt;Node10 -->
<g id="edge28_Node000019_Node000010" class="edge">
<title>Node19&#45;&gt;Node10</title>
<g id="a_edge28_Node000019_Node000010"><a xlink:title=" ">
<path fill="none" stroke="#63b8ff" d="M711.03,-167.53C648.43,-147.74 503.78,-102.02 433.2,-79.71"/>
<polygon fill="#63b8ff" stroke="#63b8ff" points="434.56,-76.47 423.97,-76.79 432.45,-83.14 434.56,-76.47"/>
</a>
</g>
</g>
<!-- Node19&#45;&gt;Node13 -->
<g id="edge29_Node000019_Node000013" class="edge">
<title>Node19&#45;&gt;Node13</title>
<g id="a_edge29_Node000019_Node000013"><a xlink:title=" ">
<path fill="none" stroke="#63b8ff" d="M759.64,-167.59C776.03,-159.32 800.16,-147.14 819.06,-137.6"/>
<polygon fill="#63b8ff" stroke="#63b8ff" points="820.51,-140.79 827.87,-133.16 817.36,-134.54 820.51,-140.79"/>
</a>
</g>
</g>
<!-- Node19&#45;&gt;Node17 -->
<g id="edge27_Node000019_Node000017" class="edge">
<title>Node19&#45;&gt;Node17</title>
<g id="a_edge27_Node000019_Node000017"><a xlink:title=" ">
<path fill="none" stroke="#63b8ff" d="M782.09,-172.11C864.77,-162.28 1051.12,-140.11 1142.49,-129.25"/>
<polygon fill="#63b8ff" stroke="#63b8ff" points="1142.66,-132.75 1152.17,-128.09 1141.83,-125.8 1142.66,-132.75"/>
</a>
</g>
</g>
<!-- Node20&#45;&gt;Node6 -->
<g id="edge33_Node000020_Node000006" class="edge">
<title>Node20&#45;&gt;Node6</title>
<g id="a_edge33_Node000020_Node000006"><a xlink:title=" ">
<path fill="none" stroke="#63b8ff" d="M391.48,-391.59C370.95,-383.24 342.84,-370.92 322.35,-361.34"/>
<polygon fill="#63b8ff" stroke="#63b8ff" points="324.04,-358.26 313.5,-357.13 321.03,-364.58 324.04,-358.26"/>
</a>
</g>
</g>
<!-- Node20&#45;&gt;Node9 -->
<g id="edge35_Node000020_Node000009" class="edge">
<title>Node20&#45;&gt;Node9</title>
<g id="a_edge35_Node000020_Node000009"><a xlink:title=" ">
<path fill="none" stroke="#63b8ff" d="M418.13,-391.75C418.7,-352.51 420.9,-199.23 421.71,-143.45"/>
<polygon fill="#63b8ff" stroke="#63b8ff" points="425.2,-143.85 421.84,-133.8 418.2,-143.75 425.2,-143.85"/>
</a>
</g>
</g>
<!-- Node20&#45;&gt;Node10 -->
<g id="edge46_Node000020_Node000010" class="edge">
<title>Node20&#45;&gt;Node10</title>
<g id="a_edge46_Node000020_Node000010"><a xlink:title=" ">
<path fill="none" stroke="#63b8ff" d="M379.06,-396.7C345.79,-391.47 297.92,-380.14 263,-356 192.62,-307.34 181.56,-272.63 169,-188 164.01,-154.35 154.52,-136.61 178,-112 201.47,-87.4 296.56,-75.24 352.11,-70.12"/>
<polygon fill="#63b8ff" stroke="#63b8ff" points="352.16,-73.63 361.81,-69.27 351.54,-66.66 352.16,-73.63"/>
</a>
</g>
</g>
<!-- Node20&#45;&gt;Node13 -->
<g id="edge47_Node000020_Node000013" class="edge">
<title>Node20&#45;&gt;Node13</title>
<g id="a_edge47_Node000020_Node000013"><a xlink:title=" ">
<path fill="none" stroke="#63b8ff" d="M456.92,-399.34C562.77,-393.78 848,-371.33 848,-291 848,-291 848,-291 848,-233 848,-201.87 848,-165.78 848,-143.68"/>
<polygon fill="#63b8ff" stroke="#63b8ff" points="851.5,-143.93 848,-133.93 844.5,-143.93 851.5,-143.93"/>
</a>
</g>
</g>
<!-- Node20&#45;&gt;Node15 -->
<g id="edge34_Node000020_Node000015" class="edge">
<title>Node20&#45;&gt;Node15</title>
<g id="a_edge34_Node000020_Node000015"><a xlink:title=" ">
<path fill="none" stroke="#63b8ff" d="M414.25,-391.74C400.78,-358.53 354.7,-244.87 335.99,-198.72"/>
<polygon fill="#63b8ff" stroke="#63b8ff" points="339.34,-197.65 332.34,-189.7 332.85,-200.28 339.34,-197.65"/>
</a>
</g>
</g>
<!-- Node20&#45;&gt;Node19 -->
<g id="edge48_Node000020_Node000019" class="edge">
<title>Node20&#45;&gt;Node19</title>
<g id="a_edge48_Node000020_Node000019"><a xlink:title=" ">
<path fill="none" stroke="#63b8ff" d="M434.74,-391.6C475.42,-368.5 582.13,-306.25 664,-244 684.53,-228.39 706.94,-209.21 722.27,-195.74"/>
<polygon fill="#63b8ff" stroke="#63b8ff" points="724.51,-198.43 729.68,-189.18 719.87,-193.19 724.51,-198.43"/>
</a>
</g>
</g>
<!-- Node20&#45;&gt;Node21 -->
<g id="edge36_Node000020_Node000021" class="edge">
<title>Node20&#45;&gt;Node21</title>
<g id="a_edge36_Node000020_Node000021"><a xlink:title=" ">
<path fill="none" stroke="#63b8ff" d="M456.95,-399.32C550.84,-394.89 787.4,-381.5 862,-356 932.08,-332.05 1003.06,-278.73 1036.4,-251.58"/>
<polygon fill="#63b8ff" stroke="#63b8ff" points="1038.49,-254.39 1043.97,-245.32 1034.03,-249 1038.49,-254.39"/>
</a>
</g>
</g>
<!-- Node21&#45;&gt;Node2 -->
<g id="edge41_Node000021_Node000002" class="edge">
<title>Node21&#45;&gt;Node2</title>
<g id="a_edge41_Node000021_Node000002"><a xlink:title=" ">
<path fill="none" stroke="#63b8ff" d="M1059.06,-223.81C1065.81,-201.67 1079.27,-144.82 1052,-112 1031.37,-87.17 940.77,-75.11 887.5,-70.07"/>
<polygon fill="#63b8ff" stroke="#63b8ff" points="887.88,-66.59 877.61,-69.18 887.25,-73.56 887.88,-66.59"/>
</a>
</g>
</g>
<!-- Node21&#45;&gt;Node4 -->
<g id="edge45_Node000021_Node000004" class="edge">
<title>Node21&#45;&gt;Node4</title>
<g id="a_edge45_Node000021_Node000004"><a xlink:title=" ">
<path fill="none" stroke="#63b8ff" d="M1094.07,-223.51C1120.98,-215.97 1157.38,-204.01 1187,-188 1273.16,-141.43 1360.65,-62.81 1397.22,-28.21"/>
<polygon fill="#63b8ff" stroke="#63b8ff" points="1399.48,-30.89 1404.3,-21.46 1394.65,-25.83 1399.48,-30.89"/>
</a>
</g>
</g>
<!-- Node21&#45;&gt;Node8 -->
<g id="edge37_Node000021_Node000008" class="edge">
<title>Node21&#45;&gt;Node8</title>
<g id="a_edge37_Node000021_Node000008"><a xlink:title=" ">
<path fill="none" stroke="#63b8ff" d="M1013.35,-227.87C929.66,-217.81 744.37,-195.52 655.88,-184.88"/>
<polygon fill="#63b8ff" stroke="#63b8ff" points="656.42,-181.42 646.07,-183.7 655.58,-188.37 656.42,-181.42"/>
</a>
</g>
</g>
<!-- Node21&#45;&gt;Node10 -->
<g id="edge39_Node000021_Node000010" class="edge">
<title>Node21&#45;&gt;Node10</title>
<g id="a_edge39_Node000021_Node000010"><a xlink:title=" ">
<path fill="none" stroke="#63b8ff" d="M1050.67,-223.91C1042.25,-210.23 1024.7,-184.22 1004,-168 957.36,-131.45 940.23,-127.38 883,-112 798.58,-89.32 536,-74.14 434.05,-68.97"/>
<polygon fill="#63b8ff" stroke="#63b8ff" points="434.39,-65.48 424.23,-68.48 434.04,-72.47 434.39,-65.48"/>
</a>
</g>
</g>
<!-- Node21&#45;&gt;Node13 -->
<g id="edge40_Node000021_Node000013" class="edge">
<title>Node21&#45;&gt;Node13</title>
<g id="a_edge40_Node000021_Node000013"><a xlink:title=" ">
<path fill="none" stroke="#63b8ff" d="M1046.94,-223.83C1032.87,-210.05 1004.42,-183.91 976,-168 947.35,-151.97 911.96,-140.05 885.65,-132.53"/>
<polygon fill="#63b8ff" stroke="#63b8ff" points="886.65,-129.17 876.08,-129.88 884.79,-135.92 886.65,-129.17"/>
</a>
</g>
</g>
<!-- Node21&#45;&gt;Node14 -->
<g id="edge43_Node000021_Node000014" class="edge">
<title>Node21&#45;&gt;Node14</title>
<g id="a_edge43_Node000021_Node000014"><a xlink:title=" ">
<path fill="none" stroke="#63b8ff" d="M1065.93,-223.74C1074.17,-215.33 1085.27,-202.11 1090,-188 1100.74,-155.97 1106.19,-141.65 1090,-112 1082.68,-98.59 1069.47,-88.58 1056.47,-81.45"/>
<polygon fill="#63b8ff" stroke="#63b8ff" points="1058.09,-78.35 1047.57,-77.02 1054.96,-84.61 1058.09,-78.35"/>
</a>
</g>
</g>
<!-- Node21&#45;&gt;Node16 -->
<g id="edge44_Node000021_Node000016" class="edge">
<title>Node21&#45;&gt;Node16</title>
<g id="a_edge44_Node000021_Node000016"><a xlink:title=" ">
<path fill="none" stroke="#63b8ff" d="M1013.19,-232.14C926.86,-229.73 726.04,-220.79 561,-188 496.24,-175.14 423.11,-149.79 382.8,-134.83"/>
<polygon fill="#63b8ff" stroke="#63b8ff" points="384.11,-131.59 373.52,-131.35 381.65,-138.14 384.11,-131.59"/>
</a>
</g>
</g>
<!-- Node21&#45;&gt;Node17 -->
<g id="edge38_Node000021_Node000017" class="edge">
<title>Node21&#45;&gt;Node17</title>
<g id="a_edge38_Node000021_Node000017"><a xlink:title=" ">
<path fill="none" stroke="#63b8ff" d="M1098.92,-223.65C1121.24,-216.92 1147.63,-205.81 1166,-188 1178.49,-175.89 1186.01,-157.45 1190.25,-143.3"/>
<polygon fill="#63b8ff" stroke="#63b8ff" points="1193.62,-144.26 1192.79,-133.69 1186.85,-142.47 1193.62,-144.26"/>
</a>
</g>
</g>
<!-- Node21&#45;&gt;Node22 -->
<g id="edge42_Node000021_Node000022" class="edge">
<title>Node21&#45;&gt;Node22</title>
<g id="a_edge42_Node000021_Node000022"><a xlink:title=" ">
<path fill="none" stroke="#63b8ff" d="M1098.59,-224.75C1143.69,-215.94 1216.96,-201.42 1280,-188 1281.01,-187.79 1282.02,-187.57 1283.05,-187.35"/>
<polygon fill="#63b8ff" stroke="#63b8ff" points="1283.7,-190.79 1292.72,-185.22 1282.2,-183.95 1283.7,-190.79"/>
</a>
</g>
</g>
<!-- Node23&#45;&gt;Node2 -->
<g id="edge52_Node000023_Node000002" class="edge">
<title>Node23&#45;&gt;Node2</title>
<g id="a_edge52_Node000023_Node000002"><a xlink:title=" ">
<path fill="none" stroke="#63b8ff" d="M286.04,-279.92C279.91,-248.81 264.84,-146.57 323,-112 364.44,-87.37 693.58,-72.79 808.54,-68.41"/>
<polygon fill="#63b8ff" stroke="#63b8ff" points="808.54,-71.91 818.41,-68.04 808.28,-64.92 808.54,-71.91"/>
</a>
</g>
</g>
<!-- Node23&#45;&gt;Node10 -->
<g id="edge51_Node000023_Node000010" class="edge">
<title>Node23&#45;&gt;Node10</title>
<g id="a_edge51_Node000023_Node000010"><a xlink:title=" ">
<path fill="none" stroke="#63b8ff" d="M259.21,-279.57C242.81,-272.55 223.65,-261.17 214,-244 185.25,-192.86 177.93,-158.27 214,-112 230.79,-90.46 304.57,-77.66 352.01,-71.5"/>
<polygon fill="#63b8ff" stroke="#63b8ff" points="352.17,-75.01 361.66,-70.3 351.31,-68.06 352.17,-75.01"/>
</a>
</g>
</g>
<!-- Node23&#45;&gt;Node21 -->
<g id="edge50_Node000023_Node000021" class="edge">
<title>Node23&#45;&gt;Node21</title>
<g id="a_edge50_Node000023_Node000021"><a xlink:title=" ">
<path fill="none" stroke="#63b8ff" d="M320.02,-286.75C438.58,-278.41 853.38,-249.25 1002.28,-238.78"/>
<polygon fill="#63b8ff" stroke="#63b8ff" points="1002.13,-242.3 1011.86,-238.1 1001.64,-235.31 1002.13,-242.3"/>
</a>
</g>
</g>
<!-- Node24&#45;&gt;Node7 -->
<g id="edge54_Node000024_Node000007" class="edge">
<title>Node24&#45;&gt;Node7</title>
<g id="a_edge54_Node000024_Node000007"><a xlink:title=" ">
<path fill="none" stroke="#63b8ff" d="M527.15,-279.59C540.05,-271.59 558.83,-259.93 573.96,-250.54"/>
<polygon fill="#63b8ff" stroke="#63b8ff" points="575.79,-253.53 582.44,-245.28 572.1,-247.58 575.79,-253.53"/>
</a>
</g>
</g>
<!-- Node24&#45;&gt;Node10 -->
<g id="edge57_Node000024_Node000010" class="edge">
<title>Node24&#45;&gt;Node10</title>
<g id="a_edge57_Node000024_Node000010"><a xlink:title=" ">
<path fill="none" stroke="#63b8ff" d="M474.44,-284.87C421.49,-276.79 326.79,-253.48 286,-188 270.2,-162.64 305.86,-120.59 314,-112 326.35,-98.97 343.32,-88.63 358.37,-81.17"/>
<polygon fill="#63b8ff" stroke="#63b8ff" points="359.46,-84.52 367.03,-77.11 356.49,-78.18 359.46,-84.52"/>
</a>
</g>
</g>
<!-- Node24&#45;&gt;Node13 -->
<g id="edge58_Node000024_Node000013" class="edge">
<title>Node24&#45;&gt;Node13</title>
<g id="a_edge58_Node000024_Node000013"><a xlink:title=" ">
<path fill="none" stroke="#63b8ff" d="M549.51,-282.47C606.29,-271.12 715.41,-243.47 791,-188 808.72,-175 824.82,-155.6 835.36,-141.38"/>
<polygon fill="#63b8ff" stroke="#63b8ff" points="838.14,-143.5 841.11,-133.33 832.44,-139.43 838.14,-143.5"/>
</a>
</g>
</g>
<!-- Node24&#45;&gt;Node15 -->
<g id="edge55_Node000024_Node000015" class="edge">
<title>Node24&#45;&gt;Node15</title>
<g id="a_edge55_Node000024_Node000015"><a xlink:title=" ">
<path fill="none" stroke="#63b8ff" d="M496.31,-279.62C464.4,-260.54 391.69,-217.08 353.12,-194.02"/>
<polygon fill="#63b8ff" stroke="#63b8ff" points="355.33,-191.26 344.95,-189.13 351.73,-197.27 355.33,-191.26"/>
</a>
</g>
</g>
<!-- Node24&#45;&gt;Node16 -->
<g id="edge60_Node000024_Node000016" class="edge">
<title>Node24&#45;&gt;Node16</title>
<g id="a_edge60_Node000024_Node000016"><a xlink:title=" ">
<path fill="none" stroke="#63b8ff" d="M502.94,-279.6C476.98,-252.66 402.04,-174.92 368.53,-140.15"/>
<polygon fill="#63b8ff" stroke="#63b8ff" points="371.47,-138.16 362.01,-133.39 366.43,-143.02 371.47,-138.16"/>
</a>
</g>
</g>
<!-- Node24&#45;&gt;Node17 -->
<g id="edge56_Node000024_Node000017" class="edge">
<title>Node24&#45;&gt;Node17</title>
<g id="a_edge56_Node000024_Node000017"><a xlink:title=" ">
<path fill="none" stroke="#63b8ff" d="M549.6,-288.77C663.7,-287.68 1004.53,-281.3 1108,-244 1148.49,-229.4 1164.94,-224.95 1187,-188 1194.95,-174.68 1196.7,-157.1 1196.6,-143.58"/>
<polygon fill="#63b8ff" stroke="#63b8ff" points="1200.1,-143.48 1196.15,-133.65 1193.11,-143.8 1200.1,-143.48"/>
</a>
</g>
</g>
<!-- Node24&#45;&gt;Node19 -->
<g id="edge59_Node000024_Node000019" class="edge">
<title>Node24&#45;&gt;Node19</title>
<g id="a_edge59_Node000024_Node000019"><a xlink:title=" ">
<path fill="none" stroke="#63b8ff" d="M541.71,-279.52C566.37,-271.25 602.12,-258.37 632,-244 662.54,-229.31 695.74,-208.81 717.37,-194.78"/>
<polygon fill="#63b8ff" stroke="#63b8ff" points="719.29,-197.71 725.73,-189.29 715.45,-191.85 719.29,-197.71"/>
</a>
</g>
</g>
<!-- Node25&#45;&gt;Node7 -->
<g id="edge66_Node000025_Node000007" class="edge">
<title>Node25&#45;&gt;Node7</title>
<g id="a_edge66_Node000025_Node000007"><a xlink:title=" ">
<path fill="none" stroke="#63b8ff" d="M874.03,-447.74C830,-413.68 676.6,-295.03 620.1,-251.32"/>
<polygon fill="#63b8ff" stroke="#63b8ff" points="622.27,-248.57 612.21,-245.22 617.98,-254.11 622.27,-248.57"/>
</a>
</g>
</g>
<!-- Node25&#45;&gt;Node10 -->
<g id="edge72_Node000025_Node000010" class="edge">
<title>Node25&#45;&gt;Node10</title>
<g id="a_edge72_Node000025_Node000010"><a xlink:title=" ">
<path fill="none" stroke="#63b8ff" d="M859.24,-457.43C758.5,-458.65 402.73,-459.45 302,-412 168.72,-349.22 67.27,-225.66 161,-112 184.74,-83.22 291.85,-72.62 351.88,-68.89"/>
<polygon fill="#63b8ff" stroke="#63b8ff" points="351.93,-72.4 361.71,-68.32 351.53,-65.41 351.93,-72.4"/>
</a>
</g>
</g>
<!-- Node25&#45;&gt;Node13 -->
<g id="edge73_Node000025_Node000013" class="edge">
<title>Node25&#45;&gt;Node13</title>
<g id="a_edge73_Node000025_Node000013"><a xlink:title=" ">
<path fill="none" stroke="#63b8ff" d="M886,-447.58C886,-428.57 886,-384.24 886,-347 886,-347 886,-347 886,-233 886,-199.77 870.32,-163.85 859.1,-142.4"/>
<polygon fill="#63b8ff" stroke="#63b8ff" points="862.2,-140.76 854.33,-133.66 856.06,-144.12 862.2,-140.76"/>
</a>
</g>
</g>
<!-- Node25&#45;&gt;Node15 -->
<g id="edge68_Node000025_Node000015" class="edge">
<title>Node25&#45;&gt;Node15</title>
<g id="a_edge68_Node000025_Node000015"><a xlink:title=" ">
<path fill="none" stroke="#63b8ff" d="M859.29,-456.06C767.18,-452.59 463.32,-439.3 370,-412 318.48,-396.93 296.89,-397.62 263,-356 246.65,-335.93 250.59,-325.63 247,-300 245.77,-291.2 244.05,-288.39 247,-280 259.09,-245.61 288.36,-214.26 308.2,-195.9"/>
<polygon fill="#63b8ff" stroke="#63b8ff" points="310.32,-198.7 315.43,-189.42 305.65,-193.49 310.32,-198.7"/>
</a>
</g>
</g>
<!-- Node25&#45;&gt;Node17 -->
<g id="edge69_Node000025_Node000017" class="edge">
<title>Node25&#45;&gt;Node17</title>
<g id="a_edge69_Node000025_Node000017"><a xlink:title=" ">
<path fill="none" stroke="#63b8ff" d="M904.92,-447.57C989.34,-405.32 1328.65,-233.49 1355,-188 1380.31,-144.31 1303.09,-129.97 1247.27,-125.28"/>
<polygon fill="#63b8ff" stroke="#63b8ff" points="1247.83,-121.81 1237.59,-124.55 1247.3,-128.79 1247.83,-121.81"/>
</a>
</g>
</g>
<!-- Node25&#45;&gt;Node20 -->
<g id="edge67_Node000025_Node000020" class="edge">
<title>Node25&#45;&gt;Node20</title>
<g id="a_edge67_Node000025_Node000020"><a xlink:title=" ">
<path fill="none" stroke="#63b8ff" d="M859.16,-453.9C783.4,-445.16 567.03,-420.2 468.26,-408.8"/>
<polygon fill="#63b8ff" stroke="#63b8ff" points="468.94,-405.35 458.6,-407.68 468.14,-412.31 468.94,-405.35"/>
</a>
</g>
</g>
<!-- Node25&#45;&gt;Node22 -->
<g id="edge74_Node000025_Node000022" class="edge">
<title>Node25&#45;&gt;Node22</title>
<g id="a_edge74_Node000025_Node000022"><a xlink:title=" ">
<path fill="none" stroke="#63b8ff" d="M895.07,-447.68C916.27,-426.22 971.28,-372.36 1024,-336 1114.23,-273.77 1232.01,-218.09 1287.89,-193.03"/>
<polygon fill="#63b8ff" stroke="#63b8ff" points="1289.12,-196.31 1296.83,-189.05 1286.27,-189.92 1289.12,-196.31"/>
</a>
</g>
</g>
<!-- Node25&#45;&gt;Node26 -->
<g id="edge70_Node000025_Node000026" class="edge">
<title>Node25&#45;&gt;Node26</title>
<g id="a_edge70_Node000025_Node000026"><a xlink:title=" ">
<path fill="none" stroke="#63b8ff" d="M912.61,-450.91C950.64,-442.21 1021.28,-426.05 1069.92,-414.92"/>
<polygon fill="#63b8ff" stroke="#63b8ff" points="1070.42,-418.39 1079.39,-412.75 1068.86,-411.57 1070.42,-418.39"/>
</a>
</g>
</g>
<!-- Node26&#45;&gt;Node13 -->
<g id="edge71_Node000026_Node000013" class="edge">
<title>Node26&#45;&gt;Node13</title>
<g id="a_edge71_Node000026_Node000013"><a xlink:title=" ">
<path fill="none" stroke="#63b8ff" d="M1114.94,-391.57C1083.92,-350.21 960.34,-186.18 938,-168 921.95,-154.94 901.49,-144.34 884.14,-136.71"/>
<polygon fill="#63b8ff" stroke="#63b8ff" points="885.77,-133.6 875.19,-132.94 883.05,-140.05 885.77,-133.6"/>
</a>
</g>
</g>
</g>
</svg>
