<?xml version="1.0" encoding="UTF-8" standalone="no"?>
<!DOCTYPE svg PUBLIC "-//W3C//DTD SVG 1.1//EN"
 "http://www.w3.org/Graphics/SVG/1.1/DTD/svg11.dtd">
<!-- Generated by graphviz version 2.40.1 (20161225.0304)
 -->
<!-- Title: help_printer.hpp Pages: 1 -->
<svg width="1044pt" height="364pt"
 viewBox="0.00 0.00 1044.00 364.00" xmlns="http://www.w3.org/2000/svg" xmlns:xlink="http://www.w3.org/1999/xlink">
<g id="graph0" class="graph" transform="scale(1 1) rotate(0) translate(4 360)">
<title>help_printer.hpp</title>
<!-- Node0 -->
<g id="node1" class="node">
<title>Node0</title>
<polygon fill="#bfbfbf" stroke="#000000" points="411,-336.5 411,-355.5 497,-355.5 497,-336.5 411,-336.5"/>
<text text-anchor="middle" x="454" y="-343.5" font-family="Helvetica,sans-Serif" font-size="10.00" fill="#000000">help_printer.hpp</text>
</g>
<!-- Node1 -->
<g id="node2" class="node">
<title>Node1</title>
<polygon fill="none" stroke="#bfbfbf" points="92,-.5 92,-19.5 136,-19.5 136,-.5 92,-.5"/>
<text text-anchor="middle" x="114" y="-7.5" font-family="Helvetica,sans-Serif" font-size="10.00" fill="#000000">vector</text>
</g>
<!-- Node0&#45;&gt;Node1 -->
<g id="edge1" class="edge">
<title>Node0&#45;&gt;Node1</title>
<path fill="none" stroke="#191970" d="M410.7679,-344.9138C320.9652,-342.0303 117.555,-332.0583 57,-300 22.7456,-281.8655 0,-272.7585 0,-234 0,-234 0,-234 0,-122 0,-75.4628 48.9383,-41.828 82.6864,-24.1659"/>
<polygon fill="#191970" stroke="#191970" points="84.3862,-27.2289 91.749,-19.6105 81.2424,-20.9746 84.3862,-27.2289"/>
</g>
<!-- Node2 -->
<g id="node3" class="node">
<title>Node2</title>
<polygon fill="none" stroke="#bfbfbf" points="142,-56.5 142,-75.5 198,-75.5 198,-56.5 142,-56.5"/>
<text text-anchor="middle" x="170" y="-63.5" font-family="Helvetica,sans-Serif" font-size="10.00" fill="#000000">algorithm</text>
</g>
<!-- Node0&#45;&gt;Node2 -->
<g id="edge2" class="edge">
<title>Node0&#45;&gt;Node2</title>
<path fill="none" stroke="#191970" d="M410.8361,-344.4244C327.2726,-340.7428 146.88,-329.5327 93,-300 59.5165,-281.647 38,-272.1834 38,-234 38,-234 38,-234 38,-178 38,-128.2672 93.1527,-96.032 132.1575,-79.4533"/>
<polygon fill="#191970" stroke="#191970" points="133.7411,-82.5876 141.6827,-75.5746 131.1011,-76.1045 133.7411,-82.5876"/>
</g>
<!-- Node3 -->
<g id="node4" class="node">
<title>Node3</title>
<polygon fill="none" stroke="#bfbfbf" points="102.5,-280.5 102.5,-299.5 161.5,-299.5 161.5,-280.5 102.5,-280.5"/>
<text text-anchor="middle" x="132" y="-287.5" font-family="Helvetica,sans-Serif" font-size="10.00" fill="#000000">functional</text>
</g>
<!-- Node0&#45;&gt;Node3 -->
<g id="edge3" class="edge">
<title>Node0&#45;&gt;Node3</title>
<path fill="none" stroke="#191970" d="M410.9955,-339.6961C356.244,-331.4842 258.8086,-316.2462 176,-300 174.5587,-299.7172 173.0924,-299.4222 171.6127,-299.1183"/>
<polygon fill="#191970" stroke="#191970" points="172.2813,-295.6823 161.7711,-297.0183 170.8205,-302.5282 172.2813,-295.6823"/>
</g>
<!-- Node4 -->
<g id="node5" class="node">
<title>Node4</title>
<g id="a_node5"><a xlink:href="utils_8hpp.html" target="_top" xlink:title="utils.hpp">
<polygon fill="none" stroke="#000000" points="595.5,-112.5 595.5,-131.5 648.5,-131.5 648.5,-112.5 595.5,-112.5"/>
<text text-anchor="middle" x="622" y="-119.5" font-family="Helvetica,sans-Serif" font-size="10.00" fill="#000000">utils.hpp</text>
</a>
</g>
</g>
<!-- Node0&#45;&gt;Node4 -->
<g id="edge4" class="edge">
<title>Node0&#45;&gt;Node4</title>
<path fill="none" stroke="#191970" d="M497.0716,-343.0288C599.7078,-334.9435 853.8251,-308.6622 903,-244 933.7439,-203.5734 883.762,-244.2273 741,-188 724.6879,-181.5754 722.2673,-176.6179 707,-168 687.8227,-157.175 665.9683,-145.3593 649.222,-136.4137"/>
<polygon fill="#191970" stroke="#191970" points="650.4826,-133.1196 640.0112,-131.5075 647.1918,-139.2978 650.4826,-133.1196"/>
</g>
<!-- Node6 -->
<g id="node7" class="node">
<title>Node6</title>
<g id="a_node7"><a xlink:href="types_8hpp.html" target="_top" xlink:title="types.hpp">
<polygon fill="none" stroke="#000000" points="688.5,-56.5 688.5,-75.5 747.5,-75.5 747.5,-56.5 688.5,-56.5"/>
<text text-anchor="middle" x="718" y="-63.5" font-family="Helvetica,sans-Serif" font-size="10.00" fill="#000000">types.hpp</text>
</a>
</g>
</g>
<!-- Node0&#45;&gt;Node6 -->
<g id="edge46" class="edge">
<title>Node0&#45;&gt;Node6</title>
<path fill="none" stroke="#191970" d="M497.2691,-342.2625C632.149,-330.0381 1036,-288.8562 1036,-234 1036,-234 1036,-234 1036,-178 1036,-141.4662 1018.1313,-131.1195 987,-112 949.3296,-88.8645 823.6407,-75.0153 758.2724,-69.2074"/>
<polygon fill="#191970" stroke="#191970" points="758.2066,-65.6886 747.9417,-68.3119 757.6021,-72.6625 758.2066,-65.6886"/>
</g>
<!-- Node10 -->
<g id="node11" class="node">
<title>Node10</title>
<g id="a_node11"><a xlink:href="exceptions_8hpp.html" target="_top" xlink:title="exceptions.hpp">
<polygon fill="none" stroke="#000000" points="186.5,-112.5 186.5,-131.5 269.5,-131.5 269.5,-112.5 186.5,-112.5"/>
<text text-anchor="middle" x="228" y="-119.5" font-family="Helvetica,sans-Serif" font-size="10.00" fill="#000000">exceptions.hpp</text>
</a>
</g>
</g>
<!-- Node0&#45;&gt;Node10 -->
<g id="edge12" class="edge">
<title>Node0&#45;&gt;Node10</title>
<path fill="none" stroke="#191970" d="M427.1803,-336.3917C377.8351,-317.0863 273.7952,-268.4226 231,-188 223.507,-173.9188 223.2693,-155.6605 224.6157,-141.9183"/>
<polygon fill="#191970" stroke="#191970" points="228.1354,-142.0041 225.9947,-131.6278 221.1974,-141.0743 228.1354,-142.0041"/>
</g>
<!-- Node12 -->
<g id="node13" class="node">
<title>Node12</title>
<g id="a_node13"><a xlink:href="group__iface_8hpp.html" target="_top" xlink:title="group_iface.hpp">
<polygon fill="none" stroke="#000000" points="412,-224.5 412,-243.5 498,-243.5 498,-224.5 412,-224.5"/>
<text text-anchor="middle" x="455" y="-231.5" font-family="Helvetica,sans-Serif" font-size="10.00" fill="#000000">group_iface.hpp</text>
</a>
</g>
</g>
<!-- Node0&#45;&gt;Node12 -->
<g id="edge15" class="edge">
<title>Node0&#45;&gt;Node12</title>
<path fill="none" stroke="#191970" d="M457.0375,-336.2499C459.7435,-327.0202 463.5001,-312.7215 465,-300 466.8447,-284.3544 463.9106,-266.7148 460.7527,-253.6104"/>
<polygon fill="#191970" stroke="#191970" points="464.0998,-252.5774 458.1475,-243.8126 457.3348,-254.3763 464.0998,-252.5774"/>
</g>
<!-- Node17 -->
<g id="node18" class="node">
<title>Node17</title>
<g id="a_node18"><a xlink:href="groups_8hpp.html" target="_top" xlink:title="groups.hpp">
<polygon fill="none" stroke="#000000" points="391.5,-280.5 391.5,-299.5 456.5,-299.5 456.5,-280.5 391.5,-280.5"/>
<text text-anchor="middle" x="424" y="-287.5" font-family="Helvetica,sans-Serif" font-size="10.00" fill="#000000">groups.hpp</text>
</a>
</g>
</g>
<!-- Node0&#45;&gt;Node17 -->
<g id="edge28" class="edge">
<title>Node0&#45;&gt;Node17</title>
<path fill="none" stroke="#191970" d="M448.7744,-336.2455C444.6877,-328.617 438.8865,-317.7881 433.925,-308.5267"/>
<polygon fill="#191970" stroke="#191970" points="436.9732,-306.8047 429.1657,-299.6427 430.8028,-310.1103 436.9732,-306.8047"/>
</g>
<!-- Node18 -->
<g id="node19" class="node">
<title>Node18</title>
<g id="a_node19"><a xlink:href="command_8hpp.html" target="_top" xlink:title="command.hpp">
<polygon fill="none" stroke="#000000" points="569,-280.5 569,-299.5 647,-299.5 647,-280.5 569,-280.5"/>
<text text-anchor="middle" x="608" y="-287.5" font-family="Helvetica,sans-Serif" font-size="10.00" fill="#000000">command.hpp</text>
</a>
</g>
</g>
<!-- Node0&#45;&gt;Node18 -->
<g id="edge32" class="edge">
<title>Node0&#45;&gt;Node18</title>
<path fill="none" stroke="#191970" d="M480.4735,-336.3733C505.8597,-327.1419 544.3645,-313.1402 572.422,-302.9375"/>
<polygon fill="#191970" stroke="#191970" points="573.6701,-306.2079 581.8719,-299.5011 571.2778,-299.6293 573.6701,-306.2079"/>
</g>
<!-- Node21 -->
<g id="node22" class="node">
<title>Node21</title>
<g id="a_node22"><a xlink:href="help__printer__iface_8hpp.html" target="_top" xlink:title="help_printer_iface.hpp">
<polygon fill="none" stroke="#000000" points="782,-224.5 782,-243.5 894,-243.5 894,-224.5 782,-224.5"/>
<text text-anchor="middle" x="838" y="-231.5" font-family="Helvetica,sans-Serif" font-size="10.00" fill="#000000">help_printer_iface.hpp</text>
</a>
</g>
</g>
<!-- Node0&#45;&gt;Node21 -->
<g id="edge47" class="edge">
<title>Node0&#45;&gt;Node21</title>
<path fill="none" stroke="#191970" d="M497.3506,-337.7489C538.5285,-329.5311 601.996,-315.8744 656,-300 708.908,-284.4477 768.7575,-261.7199 804.9175,-247.4028"/>
<polygon fill="#191970" stroke="#191970" points="806.4679,-250.5527 814.4628,-243.6006 803.8775,-244.0496 806.4679,-250.5527"/>
</g>
<!-- Node4&#45;&gt;Node2 -->
<g id="edge10" class="edge">
<title>Node4&#45;&gt;Node2</title>
<path fill="none" stroke="#191970" d="M595.085,-120.4531C530.1135,-116.4153 359.4839,-104.0002 208.1193,-75.9638"/>
<polygon fill="#191970" stroke="#191970" points="208.6529,-72.5029 198.1783,-74.0944 207.3592,-79.3823 208.6529,-72.5029"/>
</g>
<!-- Node5 -->
<g id="node6" class="node">
<title>Node5</title>
<polygon fill="none" stroke="#bfbfbf" points="601.5,-56.5 601.5,-75.5 642.5,-75.5 642.5,-56.5 601.5,-56.5"/>
<text text-anchor="middle" x="622" y="-63.5" font-family="Helvetica,sans-Serif" font-size="10.00" fill="#000000">regex</text>
</g>
<!-- Node4&#45;&gt;Node5 -->
<g id="edge5" class="edge">
<title>Node4&#45;&gt;Node5</title>
<path fill="none" stroke="#191970" d="M622,-112.2455C622,-104.9382 622,-94.6944 622,-85.7046"/>
<polygon fill="#191970" stroke="#191970" points="625.5001,-85.6426 622,-75.6427 618.5001,-85.6427 625.5001,-85.6426"/>
</g>
<!-- Node4&#45;&gt;Node6 -->
<g id="edge6" class="edge">
<title>Node4&#45;&gt;Node6</title>
<path fill="none" stroke="#191970" d="M638.7219,-112.2455C653.5889,-103.5731 675.5466,-90.7645 692.5858,-80.825"/>
<polygon fill="#191970" stroke="#191970" points="694.5955,-83.7047 701.4697,-75.6427 691.0683,-77.6582 694.5955,-83.7047"/>
</g>
<!-- Node9 -->
<g id="node10" class="node">
<title>Node9</title>
<polygon fill="none" stroke="#bfbfbf" points="456,-56.5 456,-75.5 518,-75.5 518,-56.5 456,-56.5"/>
<text text-anchor="middle" x="487" y="-63.5" font-family="Helvetica,sans-Serif" font-size="10.00" fill="#000000">type_traits</text>
</g>
<!-- Node4&#45;&gt;Node9 -->
<g id="edge11" class="edge">
<title>Node4&#45;&gt;Node9</title>
<path fill="none" stroke="#191970" d="M598.7927,-112.3733C576.8301,-103.2629 543.6668,-89.5062 519.1599,-79.3404"/>
<polygon fill="#191970" stroke="#191970" points="520.4824,-76.0999 509.9045,-75.5011 517.8003,-82.5657 520.4824,-76.0999"/>
</g>
<!-- Node6&#45;&gt;Node1 -->
<g id="edge9" class="edge">
<title>Node6&#45;&gt;Node1</title>
<path fill="none" stroke="#191970" d="M688.3691,-61.1689C676.7398,-59.38 663.2647,-57.4391 651,-56 460.0295,-33.5914 229.6365,-17.5184 146.1596,-12.0484"/>
<polygon fill="#191970" stroke="#191970" points="146.2512,-8.547 136.0451,-11.3905 145.7968,-15.5323 146.2512,-8.547"/>
</g>
<!-- Node7 -->
<g id="node8" class="node">
<title>Node7</title>
<polygon fill="none" stroke="#bfbfbf" points="664.5,-.5 664.5,-19.5 705.5,-19.5 705.5,-.5 664.5,-.5"/>
<text text-anchor="middle" x="685" y="-7.5" font-family="Helvetica,sans-Serif" font-size="10.00" fill="#000000">string</text>
</g>
<!-- Node6&#45;&gt;Node7 -->
<g id="edge7" class="edge">
<title>Node6&#45;&gt;Node7</title>
<path fill="none" stroke="#191970" d="M712.2518,-56.2455C707.7565,-48.617 701.3752,-37.7881 695.9175,-28.5267"/>
<polygon fill="#191970" stroke="#191970" points="698.7747,-26.4811 690.6823,-19.6427 692.7439,-30.035 698.7747,-26.4811"/>
</g>
<!-- Node8 -->
<g id="node9" class="node">
<title>Node8</title>
<polygon fill="none" stroke="#bfbfbf" points="724,-.5 724,-19.5 778,-19.5 778,-.5 724,-.5"/>
<text text-anchor="middle" x="751" y="-7.5" font-family="Helvetica,sans-Serif" font-size="10.00" fill="#000000">iostream</text>
</g>
<!-- Node6&#45;&gt;Node8 -->
<g id="edge8" class="edge">
<title>Node6&#45;&gt;Node8</title>
<path fill="none" stroke="#191970" d="M723.7482,-56.2455C728.2435,-48.617 734.6248,-37.7881 740.0825,-28.5267"/>
<polygon fill="#191970" stroke="#191970" points="743.2561,-30.035 745.3177,-19.6427 737.2253,-26.4811 743.2561,-30.035"/>
</g>
<!-- Node10&#45;&gt;Node6 -->
<g id="edge14" class="edge">
<title>Node10&#45;&gt;Node6</title>
<path fill="none" stroke="#191970" d="M269.7928,-118.0124C345.7822,-110.6379 511.6155,-93.9734 651,-76 659.8985,-74.8526 669.4435,-73.5009 678.4594,-72.1687"/>
<polygon fill="#191970" stroke="#191970" points="678.981,-75.6297 688.3511,-70.6848 677.9425,-68.7072 678.981,-75.6297"/>
</g>
<!-- Node11 -->
<g id="node12" class="node">
<title>Node11</title>
<polygon fill="none" stroke="#bfbfbf" points="216.5,-56.5 216.5,-75.5 275.5,-75.5 275.5,-56.5 216.5,-56.5"/>
<text text-anchor="middle" x="246" y="-63.5" font-family="Helvetica,sans-Serif" font-size="10.00" fill="#000000">stdexcept</text>
</g>
<!-- Node10&#45;&gt;Node11 -->
<g id="edge13" class="edge">
<title>Node10&#45;&gt;Node11</title>
<path fill="none" stroke="#191970" d="M231.1354,-112.2455C233.51,-104.8579 236.8493,-94.4689 239.7615,-85.4087"/>
<polygon fill="#191970" stroke="#191970" points="243.1725,-86.234 242.9006,-75.6427 236.5083,-84.0919 243.1725,-86.234"/>
</g>
<!-- Node12&#45;&gt;Node1 -->
<g id="edge23" class="edge">
<title>Node12&#45;&gt;Node1</title>
<path fill="none" stroke="#191970" d="M411.8014,-230.7174C347.6038,-225.1138 230.9328,-211.9212 197,-188 143.2051,-150.0769 123.3456,-68.1405 116.8305,-30.1269"/>
<polygon fill="#191970" stroke="#191970" points="120.2237,-29.1728 115.2142,-19.837 113.3085,-30.2591 120.2237,-29.1728"/>
</g>
<!-- Node12&#45;&gt;Node2 -->
<g id="edge25" class="edge">
<title>Node12&#45;&gt;Node2</title>
<path fill="none" stroke="#191970" d="M411.5358,-228.1972C355.4693,-220.1815 261.5212,-204.7953 231,-188 200.7081,-171.3309 191.6156,-163.3343 177,-132 170.3026,-117.6416 168.7803,-99.6671 168.806,-86.1033"/>
<polygon fill="#191970" stroke="#191970" points="172.3099,-86.0239 169.112,-75.9232 165.313,-85.8135 172.3099,-86.0239"/>
</g>
<!-- Node12&#45;&gt;Node4 -->
<g id="edge20" class="edge">
<title>Node12&#45;&gt;Node4</title>
<path fill="none" stroke="#191970" d="M464.6758,-224.1835C478.5229,-210.4789 505.1798,-185.3466 531,-168 549.5974,-155.5059 572.0481,-144.1224 589.9966,-135.8052"/>
<polygon fill="#191970" stroke="#191970" points="591.7932,-138.8334 599.4518,-131.5124 588.8993,-132.4596 591.7932,-138.8334"/>
</g>
<!-- Node12&#45;&gt;Node6 -->
<g id="edge22" class="edge">
<title>Node12&#45;&gt;Node6</title>
<path fill="none" stroke="#191970" d="M460.2494,-224.184C467.9094,-210.4798 483.1925,-185.3481 501,-168 551.836,-118.4756 631.2059,-89.6758 678.5567,-75.9618"/>
<polygon fill="#191970" stroke="#191970" points="679.7588,-79.2596 688.4388,-73.1844 677.8647,-72.5207 679.7588,-79.2596"/>
</g>
<!-- Node12&#45;&gt;Node9 -->
<g id="edge24" class="edge">
<title>Node12&#45;&gt;Node9</title>
<path fill="none" stroke="#191970" d="M453.831,-224.2518C451.6458,-203.2281 448.1641,-152.2693 460,-112 462.9218,-102.0592 468.4474,-92.0206 473.7425,-83.8688"/>
<polygon fill="#191970" stroke="#191970" points="476.6693,-85.7899 479.4719,-75.5725 470.9093,-81.8121 476.6693,-85.7899"/>
</g>
<!-- Node12&#45;&gt;Node10 -->
<g id="edge21" class="edge">
<title>Node12&#45;&gt;Node10</title>
<path fill="none" stroke="#191970" d="M411.8679,-229.6449C358.1155,-223.3625 270.4531,-210.028 247,-188 234.395,-176.1609 229.974,-156.5532 228.5098,-141.779"/>
<polygon fill="#191970" stroke="#191970" points="231.9928,-141.3958 227.8798,-131.6319 225.0063,-141.8296 231.9928,-141.3958"/>
</g>
<!-- Node13 -->
<g id="node14" class="node">
<title>Node13</title>
<g id="a_node14"><a xlink:href="arg__iface_8hpp.html" target="_top" xlink:title="arg_iface.hpp">
<polygon fill="none" stroke="#000000" points="750.5,-168.5 750.5,-187.5 825.5,-187.5 825.5,-168.5 750.5,-168.5"/>
<text text-anchor="middle" x="788" y="-175.5" font-family="Helvetica,sans-Serif" font-size="10.00" fill="#000000">arg_iface.hpp</text>
</a>
</g>
</g>
<!-- Node12&#45;&gt;Node13 -->
<g id="edge16" class="edge">
<title>Node12&#45;&gt;Node13</title>
<path fill="none" stroke="#191970" d="M498.1925,-226.7364C560.5832,-216.2443 675.5273,-196.9143 740.3285,-186.0168"/>
<polygon fill="#191970" stroke="#191970" points="741.0014,-189.4529 750.2825,-184.3429 739.8405,-182.5498 741.0014,-189.4529"/>
</g>
<!-- Node15 -->
<g id="node16" class="node">
<title>Node15</title>
<polygon fill="none" stroke="#bfbfbf" points="540,-168.5 540,-187.5 580,-187.5 580,-168.5 540,-168.5"/>
<text text-anchor="middle" x="560" y="-175.5" font-family="Helvetica,sans-Serif" font-size="10.00" fill="#000000">utility</text>
</g>
<!-- Node12&#45;&gt;Node15 -->
<g id="edge26" class="edge">
<title>Node12&#45;&gt;Node15</title>
<path fill="none" stroke="#191970" d="M473.2896,-224.2455C489.7762,-215.4527 514.2352,-202.4079 532.9765,-192.4125"/>
<polygon fill="#191970" stroke="#191970" points="534.7435,-195.4368 541.92,-187.6427 531.4494,-189.2604 534.7435,-195.4368"/>
</g>
<!-- Node16 -->
<g id="node17" class="node">
<title>Node16</title>
<polygon fill="none" stroke="#bfbfbf" points="356,-168.5 356,-187.5 408,-187.5 408,-168.5 356,-168.5"/>
<text text-anchor="middle" x="382" y="-175.5" font-family="Helvetica,sans-Serif" font-size="10.00" fill="#000000">memory</text>
</g>
<!-- Node12&#45;&gt;Node16 -->
<g id="edge27" class="edge">
<title>Node12&#45;&gt;Node16</title>
<path fill="none" stroke="#191970" d="M442.2844,-224.2455C431.398,-215.8943 415.5117,-203.7076 402.78,-193.9408"/>
<polygon fill="#191970" stroke="#191970" points="404.6346,-190.9523 394.5699,-187.6427 400.3739,-196.5063 404.6346,-190.9523"/>
</g>
<!-- Node13&#45;&gt;Node4 -->
<g id="edge17" class="edge">
<title>Node13&#45;&gt;Node4</title>
<path fill="none" stroke="#191970" d="M759.4636,-168.3733C731.4801,-158.933 688.7086,-144.5041 658.3149,-134.2508"/>
<polygon fill="#191970" stroke="#191970" points="659.1154,-130.8271 648.5212,-130.9469 656.8778,-137.4599 659.1154,-130.8271"/>
</g>
<!-- Node13&#45;&gt;Node6 -->
<g id="edge18" class="edge">
<title>Node13&#45;&gt;Node6</title>
<path fill="none" stroke="#191970" d="M782.0318,-168.4509C770.3567,-149.7707 744.3274,-108.1238 729.2976,-84.0761"/>
<polygon fill="#191970" stroke="#191970" points="732.2211,-82.1499 723.9531,-75.5249 726.2851,-85.8599 732.2211,-82.1499"/>
</g>
<!-- Node14 -->
<g id="node15" class="node">
<title>Node14</title>
<g id="a_node15"><a xlink:href="enums_8hpp.html" target="_top" xlink:title="enums.hpp">
<polygon fill="none" stroke="#000000" points="897.5,-112.5 897.5,-131.5 962.5,-131.5 962.5,-112.5 897.5,-112.5"/>
<text text-anchor="middle" x="930" y="-119.5" font-family="Helvetica,sans-Serif" font-size="10.00" fill="#000000">enums.hpp</text>
</a>
</g>
</g>
<!-- Node13&#45;&gt;Node14 -->
<g id="edge19" class="edge">
<title>Node13&#45;&gt;Node14</title>
<path fill="none" stroke="#191970" d="M812.4107,-168.3733C835.6142,-159.2226 870.7038,-145.3844 896.5142,-135.2057"/>
<polygon fill="#191970" stroke="#191970" points="897.8892,-138.4258 905.9079,-131.5011 895.3211,-131.9139 897.8892,-138.4258"/>
</g>
<!-- Node17&#45;&gt;Node2 -->
<g id="edge31" class="edge">
<title>Node17&#45;&gt;Node2</title>
<path fill="none" stroke="#191970" d="M391.2938,-282.498C343.4867,-270.0845 254.027,-241.195 197,-188 176.3529,-168.7404 173.8734,-159.386 167,-132 164.8361,-123.3785 166.7106,-120.8842 167,-112 167.283,-103.3113 167.866,-93.714 168.4434,-85.5436"/>
<polygon fill="#191970" stroke="#191970" points="171.9384,-85.7404 169.1987,-75.5059 164.9582,-85.2151 171.9384,-85.7404"/>
</g>
<!-- Node17&#45;&gt;Node6 -->
<g id="edge30" class="edge">
<title>Node17&#45;&gt;Node6</title>
<path fill="none" stroke="#191970" d="M456.5811,-287.2251C510.6385,-282.088 621.9363,-269.2433 713,-244 729.0456,-239.5521 842.6822,-201.7995 852,-188 867.0844,-165.6603 840.6161,-123.6529 829,-112 809.7571,-92.6962 781.2405,-81.1143 757.9299,-74.4006"/>
<polygon fill="#191970" stroke="#191970" points="758.5355,-70.9394 747.9702,-71.7306 756.7229,-77.7007 758.5355,-70.9394"/>
</g>
<!-- Node17&#45;&gt;Node12 -->
<g id="edge29" class="edge">
<title>Node17&#45;&gt;Node12</title>
<path fill="none" stroke="#191970" d="M429.3998,-280.2455C433.6227,-272.617 439.6173,-261.7881 444.7441,-252.5267"/>
<polygon fill="#191970" stroke="#191970" points="447.881,-254.0867 449.6621,-243.6427 441.7568,-250.6965 447.881,-254.0867"/>
</g>
<!-- Node18&#45;&gt;Node4 -->
<g id="edge34" class="edge">
<title>Node18&#45;&gt;Node4</title>
<path fill="none" stroke="#191970" d="M608.7928,-280.4862C611.0059,-253.9293 617.2862,-178.5651 620.3195,-142.1655"/>
<polygon fill="#191970" stroke="#191970" points="623.8384,-142.084 621.181,-131.8279 616.8626,-141.5027 623.8384,-142.084"/>
</g>
<!-- Node18&#45;&gt;Node6 -->
<g id="edge45" class="edge">
<title>Node18&#45;&gt;Node6</title>
<path fill="none" stroke="#191970" d="M647.1238,-288.9785C721.8741,-286.2889 881.3605,-276.768 924,-244 966.9412,-211.0001 961.111,-185.0506 972,-132 973.7873,-123.2926 977.6979,-118.8225 972,-112 945.1963,-79.9061 822.5021,-70.159 757.9589,-67.2329"/>
<polygon fill="#191970" stroke="#191970" points="757.8845,-63.7268 747.7467,-66.805 757.5914,-70.7207 757.8845,-63.7268"/>
</g>
<!-- Node18&#45;&gt;Node12 -->
<g id="edge33" class="edge">
<title>Node18&#45;&gt;Node12</title>
<path fill="none" stroke="#191970" d="M581.6984,-280.3733C556.5872,-271.1822 518.5562,-257.2624 490.7128,-247.0713"/>
<polygon fill="#191970" stroke="#191970" points="491.5522,-243.6516 480.9584,-243.5011 489.1462,-250.2251 491.5522,-243.6516"/>
</g>
<!-- Node18&#45;&gt;Node14 -->
<g id="edge44" class="edge">
<title>Node18&#45;&gt;Node14</title>
<path fill="none" stroke="#191970" d="M647.012,-289.2074C718.538,-286.9272 866.6739,-278.1028 903,-244 931.0926,-217.6268 933.1997,-169.1178 931.8568,-141.8874"/>
<polygon fill="#191970" stroke="#191970" points="935.3295,-141.376 931.1357,-131.6466 928.3468,-141.8678 935.3295,-141.376"/>
</g>
<!-- Node19 -->
<g id="node20" class="node">
<title>Node19</title>
<g id="a_node20"><a xlink:href="context_8hpp.html" target="_top" xlink:title="context.hpp">
<polygon fill="none" stroke="#000000" points="636,-224.5 636,-243.5 704,-243.5 704,-224.5 636,-224.5"/>
<text text-anchor="middle" x="670" y="-231.5" font-family="Helvetica,sans-Serif" font-size="10.00" fill="#000000">context.hpp</text>
</a>
</g>
</g>
<!-- Node18&#45;&gt;Node19 -->
<g id="edge35" class="edge">
<title>Node18&#45;&gt;Node19</title>
<path fill="none" stroke="#191970" d="M618.7996,-280.2455C627.8678,-272.0549 641.0206,-260.1749 651.7245,-250.5069"/>
<polygon fill="#191970" stroke="#191970" points="654.2491,-252.9429 659.3242,-243.6427 649.5571,-247.7482 654.2491,-252.9429"/>
</g>
<!-- Node20 -->
<g id="node21" class="node">
<title>Node20</title>
<g id="a_node21"><a xlink:href="value__utils_8hpp.html" target="_top" xlink:title="value_utils.hpp">
<polygon fill="none" stroke="#000000" points="256,-168.5 256,-187.5 338,-187.5 338,-168.5 256,-168.5"/>
<text text-anchor="middle" x="297" y="-175.5" font-family="Helvetica,sans-Serif" font-size="10.00" fill="#000000">value_utils.hpp</text>
</a>
</g>
</g>
<!-- Node18&#45;&gt;Node20 -->
<g id="edge39" class="edge">
<title>Node18&#45;&gt;Node20</title>
<path fill="none" stroke="#191970" d="M568.6631,-285.178C526.5001,-279.1014 458.1856,-266.6081 403,-244 371.1965,-230.971 338.1309,-208.7669 317.5637,-193.7489"/>
<polygon fill="#191970" stroke="#191970" points="319.4127,-190.7623 309.2987,-187.6068 315.2374,-196.3808 319.4127,-190.7623"/>
</g>
<!-- Node19&#45;&gt;Node4 -->
<g id="edge37" class="edge">
<title>Node19&#45;&gt;Node4</title>
<path fill="none" stroke="#191970" d="M665.9075,-224.4509C657.9726,-205.936 640.3682,-164.8591 630.0223,-140.7187"/>
<polygon fill="#191970" stroke="#191970" points="633.2384,-139.3376 626.0821,-131.5249 626.8043,-142.0951 633.2384,-139.3376"/>
</g>
<!-- Node19&#45;&gt;Node6 -->
<g id="edge38" class="edge">
<title>Node19&#45;&gt;Node6</title>
<path fill="none" stroke="#191970" d="M704.171,-229.2914C747.4709,-222.5439 818.3685,-208.6192 834,-188 866.1588,-145.58 793.8401,-101.7662 749.4303,-80.0143"/>
<polygon fill="#191970" stroke="#191970" points="750.6903,-76.7376 740.1576,-75.5917 747.6768,-83.0558 750.6903,-76.7376"/>
</g>
<!-- Node19&#45;&gt;Node15 -->
<g id="edge36" class="edge">
<title>Node19&#45;&gt;Node15</title>
<path fill="none" stroke="#191970" d="M650.8395,-224.2455C633.4889,-215.4125 607.7099,-202.2887 588.0417,-192.2758"/>
<polygon fill="#191970" stroke="#191970" points="589.4405,-189.0605 578.941,-187.6427 586.2647,-195.2986 589.4405,-189.0605"/>
</g>
<!-- Node20&#45;&gt;Node2 -->
<g id="edge43" class="edge">
<title>Node20&#45;&gt;Node2</title>
<path fill="none" stroke="#191970" d="M296.7304,-168.2536C295.8365,-154.1744 292.2201,-128.0759 278,-112 268.1989,-100.9198 234.7835,-87.6138 207.6878,-78.1694"/>
<polygon fill="#191970" stroke="#191970" points="208.6411,-74.7966 198.0466,-74.8759 206.3782,-81.4207 208.6411,-74.7966"/>
</g>
<!-- Node20&#45;&gt;Node4 -->
<g id="edge40" class="edge">
<title>Node20&#45;&gt;Node4</title>
<path fill="none" stroke="#191970" d="M338.1809,-169.6565C341.1633,-169.0852 344.1267,-168.5275 347,-168 432.2529,-152.3485 532.7866,-136.0869 585.5146,-127.7261"/>
<polygon fill="#191970" stroke="#191970" points="586.0737,-131.1813 595.4041,-126.1618 584.98,-124.2672 586.0737,-131.1813"/>
</g>
<!-- Node20&#45;&gt;Node6 -->
<g id="edge42" class="edge">
<title>Node20&#45;&gt;Node6</title>
<path fill="none" stroke="#191970" d="M317.1011,-168.265C347.4047,-153.9593 406.901,-127.3025 460,-112 500.2947,-100.3875 616.3303,-81.6479 678.1382,-72.0661"/>
<polygon fill="#191970" stroke="#191970" points="678.9465,-75.4829 688.2955,-70.4983 677.8786,-68.5648 678.9465,-75.4829"/>
</g>
<!-- Node20&#45;&gt;Node10 -->
<g id="edge41" class="edge">
<title>Node20&#45;&gt;Node10</title>
<path fill="none" stroke="#191970" d="M284.9811,-168.2455C274.7902,-159.9746 259.9638,-147.9416 247.9893,-138.2232"/>
<polygon fill="#191970" stroke="#191970" points="249.8514,-135.2268 239.8812,-131.6427 245.4402,-140.662 249.8514,-135.2268"/>
</g>
<!-- Node21&#45;&gt;Node4 -->
<g id="edge48" class="edge">
<title>Node21&#45;&gt;Node4</title>
<path fill="none" stroke="#191970" d="M801.6785,-224.4895C774.8665,-216.6853 737.9827,-204.276 708,-188 682.6463,-174.2369 656.8223,-153.2937 640.1806,-138.7029"/>
<polygon fill="#191970" stroke="#191970" points="642.1561,-135.7745 632.3662,-131.7235 637.4931,-140.9953 642.1561,-135.7745"/>
</g>
</g>
</svg>
