<?xml version="1.0" encoding="UTF-8" standalone="no"?>
<!DOCTYPE svg PUBLIC "-//W3C//DTD SVG 1.1//EN"
 "http://www.w3.org/Graphics/SVG/1.1/DTD/svg11.dtd">
<!-- Generated by graphviz version 14.1.2 (0)
 -->
<!-- Title: help.hpp Pages: 1 -->
<svg width="1309pt" height="476pt"
 viewBox="0.00 0.00 1309.00 476.00" xmlns="http://www.w3.org/2000/svg" xmlns:xlink="http://www.w3.org/1999/xlink">
<g id="graph0" class="graph" transform="scale(1 1) rotate(0) translate(4 472)">
<title>help.hpp</title>
<!-- Node1 -->
<g id="Node000001" class="node">
<title>Node1</title>
<g id="a_Node000001"><a xlink:title=" ">
<polygon fill="#999999" stroke="#666666" points="720.38,-468 667.62,-468 667.62,-448 720.38,-448 720.38,-468"/>
<text xml:space="preserve" text-anchor="middle" x="694" y="-454.5" font-family="Helvetica,sans-Serif" font-size="10.00">help.hpp</text>
</a>
</g>
</g>
<!-- Node2 -->
<g id="Node000002" class="node">
<title>Node2</title>
<g id="a_Node000002"><a xlink:href="arg_8hpp.html" target="_top" xlink:title=" ">
<polygon fill="white" stroke="#666666" points="439.12,-244 390.88,-244 390.88,-224 439.12,-224 439.12,-244"/>
<text xml:space="preserve" text-anchor="middle" x="415" y="-230.5" font-family="Helvetica,sans-Serif" font-size="10.00">arg.hpp</text>
</a>
</g>
</g>
<!-- Node1&#45;&gt;Node2 -->
<g id="edge1_Node000001_Node000002" class="edge">
<title>Node1&#45;&gt;Node2</title>
<g id="a_edge1_Node000001_Node000002"><a xlink:title=" ">
<path fill="none" stroke="#63b8ff" d="M667.35,-449.27C613.42,-432.13 491.5,-385.55 433,-300 423.89,-286.68 419.37,-268.86 417.14,-255.25"/>
<polygon fill="#63b8ff" stroke="#63b8ff" points="420.66,-255.14 415.87,-245.69 413.72,-256.06 420.66,-255.14"/>
</a>
</g>
</g>
<!-- Node5 -->
<g id="Node000005" class="node">
<title>Node5</title>
<g id="a_Node000005"><a xlink:href="types_8hpp.html" target="_top" xlink:title=" ">
<polygon fill="white" stroke="#666666" points="357.38,-76 298.62,-76 298.62,-56 357.38,-56 357.38,-76"/>
<text xml:space="preserve" text-anchor="middle" x="328" y="-62.5" font-family="Helvetica,sans-Serif" font-size="10.00">types.hpp</text>
</a>
</g>
</g>
<!-- Node1&#45;&gt;Node5 -->
<g id="edge63_Node000001_Node000005" class="edge">
<title>Node1&#45;&gt;Node5</title>
<g id="a_edge63_Node000001_Node000005"><a xlink:title=" ">
<path fill="none" stroke="#63b8ff" d="M667.22,-455.64C539.68,-448.81 0,-415.85 0,-347 0,-347 0,-347 0,-177 0,-108.8 74.61,-134.46 139,-112 189,-94.56 248.76,-81.59 287.5,-74.16"/>
<polygon fill="#63b8ff" stroke="#63b8ff" points="287.66,-77.69 296.84,-72.4 286.37,-70.81 287.66,-77.69"/>
</a>
</g>
</g>
<!-- Node9 -->
<g id="Node000009" class="node">
<title>Node9</title>
<g id="a_Node000009"><a xlink:href="utils_8hpp.html" target="_top" xlink:title=" ">
<polygon fill="white" stroke="#666666" points="928.38,-132 875.62,-132 875.62,-112 928.38,-112 928.38,-132"/>
<text xml:space="preserve" text-anchor="middle" x="902" y="-118.5" font-family="Helvetica,sans-Serif" font-size="10.00">utils.hpp</text>
</a>
</g>
</g>
<!-- Node1&#45;&gt;Node9 -->
<g id="edge64_Node000001_Node000009" class="edge">
<title>Node1&#45;&gt;Node9</title>
<g id="a_edge64_Node000001_Node000009"><a xlink:title=" ">
<path fill="none" stroke="#63b8ff" d="M720.72,-451.84C805.64,-433.81 1069.33,-364.83 1165,-188 1169.23,-180.18 1170.73,-174.79 1165,-168 1136.67,-134.41 1005.92,-125.89 940.09,-123.73"/>
<polygon fill="#63b8ff" stroke="#63b8ff" points="940.2,-120.24 930.11,-123.44 940,-127.23 940.2,-120.24"/>
</a>
</g>
</g>
<!-- Node12 -->
<g id="Node000012" class="node">
<title>Node12</title>
<g id="a_Node000012"><a xlink:href="context_8hpp.html" target="_top" xlink:title=" ">
<polygon fill="white" stroke="#666666" points="613.5,-188 546.5,-188 546.5,-168 613.5,-168 613.5,-188"/>
<text xml:space="preserve" text-anchor="middle" x="580" y="-174.5" font-family="Helvetica,sans-Serif" font-size="10.00">context.hpp</text>
</a>
</g>
</g>
<!-- Node1&#45;&gt;Node12 -->
<g id="edge59_Node000001_Node000012" class="edge">
<title>Node1&#45;&gt;Node12</title>
<g id="a_edge59_Node000001_Node000012"><a xlink:title=" ">
<path fill="none" stroke="#63b8ff" d="M702.75,-447.53C718.5,-429.45 750,-388.14 750,-347 750,-347 750,-347 750,-289 750,-256.89 663.43,-214.59 613.84,-193"/>
<polygon fill="#63b8ff" stroke="#63b8ff" points="615.24,-189.79 604.67,-189.06 612.48,-196.22 615.24,-189.79"/>
</a>
</g>
</g>
<!-- Node14 -->
<g id="Node000014" class="node">
<title>Node14</title>
<g id="a_Node000014"><a xlink:href="exceptions_8hpp.html" target="_top" xlink:title=" ">
<polygon fill="white" stroke="#666666" points="262,-132 180,-132 180,-112 262,-112 262,-132"/>
<text xml:space="preserve" text-anchor="middle" x="221" y="-118.5" font-family="Helvetica,sans-Serif" font-size="10.00">exceptions.hpp</text>
</a>
</g>
</g>
<!-- Node1&#45;&gt;Node14 -->
<g id="edge60_Node000001_Node000014" class="edge">
<title>Node1&#45;&gt;Node14</title>
<g id="a_edge60_Node000001_Node000014"><a xlink:title=" ">
<path fill="none" stroke="#63b8ff" d="M667.16,-454.88C551.94,-445.42 105,-404.99 105,-347 105,-347 105,-347 105,-289 105,-223.76 165.94,-165.88 199.48,-138.97"/>
<polygon fill="#63b8ff" stroke="#63b8ff" points="201.21,-142.06 206.95,-133.15 196.91,-136.54 201.21,-142.06"/>
</a>
</g>
</g>
<!-- Node17 -->
<g id="Node000017" class="node">
<title>Node17</title>
<g id="a_Node000017"><a xlink:href="command_8hpp.html" target="_top" xlink:title=" ">
<polygon fill="white" stroke="#666666" points="673.75,-412 596.25,-412 596.25,-392 673.75,-392 673.75,-412"/>
<text xml:space="preserve" text-anchor="middle" x="635" y="-398.5" font-family="Helvetica,sans-Serif" font-size="10.00">command.hpp</text>
</a>
</g>
</g>
<!-- Node1&#45;&gt;Node17 -->
<g id="edge27_Node000001_Node000017" class="edge">
<title>Node1&#45;&gt;Node17</title>
<g id="a_edge27_Node000001_Node000017"><a xlink:title=" ">
<path fill="none" stroke="#63b8ff" d="M683.72,-447.59C675.43,-440.01 663.55,-429.13 653.6,-420.02"/>
<polygon fill="#63b8ff" stroke="#63b8ff" points="656.02,-417.49 646.28,-413.32 651.29,-422.65 656.02,-417.49"/>
</a>
</g>
</g>
<!-- Node21 -->
<g id="Node000021" class="node">
<title>Node21</title>
<g id="a_Node000021"><a xlink:title=" ">
<polygon fill="#e0e0e0" stroke="#999999" points="1155.62,-188 1104.38,-188 1104.38,-168 1155.62,-168 1155.62,-188"/>
<text xml:space="preserve" text-anchor="middle" x="1130" y="-174.5" font-family="Helvetica,sans-Serif" font-size="10.00">memory</text>
</a>
</g>
</g>
<!-- Node1&#45;&gt;Node21 -->
<g id="edge65_Node000001_Node000021" class="edge">
<title>Node1&#45;&gt;Node21</title>
<g id="a_edge65_Node000001_Node000021"><a xlink:title=" ">
<path fill="none" stroke="#63b8ff" d="M720.67,-455.82C809.31,-451.67 1090.26,-436.68 1122,-412 1146.31,-393.1 1146,-377.8 1146,-347 1146,-347 1146,-347 1146,-289 1146,-257.54 1139.51,-221.55 1134.8,-199.55"/>
<polygon fill="#63b8ff" stroke="#63b8ff" points="1138.22,-198.82 1132.62,-189.83 1131.39,-200.35 1138.22,-198.82"/>
</a>
</g>
</g>
<!-- Node23 -->
<g id="Node000023" class="node">
<title>Node23</title>
<g id="a_Node000023"><a xlink:href="help__printer__iface_8hpp.html" target="_top" xlink:title=" ">
<polygon fill="white" stroke="#666666" points="1300.62,-356 1189.38,-356 1189.38,-336 1300.62,-336 1300.62,-356"/>
<text xml:space="preserve" text-anchor="middle" x="1245" y="-342.5" font-family="Helvetica,sans-Serif" font-size="10.00">help_printer_iface.hpp</text>
</a>
</g>
</g>
<!-- Node1&#45;&gt;Node23 -->
<g id="edge61_Node000001_Node000023" class="edge">
<title>Node1&#45;&gt;Node23</title>
<g id="a_edge61_Node000001_Node000023"><a xlink:title=" ">
<path fill="none" stroke="#63b8ff" d="M720.67,-456.34C807.17,-453.91 1078.97,-443.86 1160,-412 1187.13,-401.33 1212.94,-379.32 1228.86,-363.88"/>
<polygon fill="#63b8ff" stroke="#63b8ff" points="1230.97,-366.71 1235.55,-357.16 1226.01,-361.77 1230.97,-366.71"/>
</a>
</g>
</g>
<!-- Node3 -->
<g id="Node000003" class="node">
<title>Node3</title>
<g id="a_Node000003"><a xlink:href="arg__iface_8hpp.html" target="_top" xlink:title=" ">
<polygon fill="white" stroke="#666666" points="782.25,-188 707.75,-188 707.75,-168 782.25,-168 782.25,-188"/>
<text xml:space="preserve" text-anchor="middle" x="745" y="-174.5" font-family="Helvetica,sans-Serif" font-size="10.00">arg_iface.hpp</text>
</a>
</g>
</g>
<!-- Node2&#45;&gt;Node3 -->
<g id="edge2_Node000002_Node000003" class="edge">
<title>Node2&#45;&gt;Node3</title>
<g id="a_edge2_Node000002_Node000003"><a xlink:title=" ">
<path fill="none" stroke="#63b8ff" d="M439.53,-228.99C493.84,-220.1 625.04,-198.63 696.55,-186.93"/>
<polygon fill="#63b8ff" stroke="#63b8ff" points="696.7,-190.45 706,-185.38 695.57,-183.54 696.7,-190.45"/>
</a>
</g>
</g>
<!-- Node2&#45;&gt;Node5 -->
<g id="edge19_Node000002_Node000005" class="edge">
<title>Node2&#45;&gt;Node5</title>
<g id="a_edge19_Node000002_Node000005"><a xlink:title=" ">
<path fill="none" stroke="#63b8ff" d="M390.65,-227.8C369.96,-221.96 341.53,-210.23 328,-188 309.14,-157 315.73,-112.75 322.01,-87.24"/>
<polygon fill="#63b8ff" stroke="#63b8ff" points="325.33,-88.39 324.56,-77.82 318.57,-86.56 325.33,-88.39"/>
</a>
</g>
</g>
<!-- Node2&#45;&gt;Node9 -->
<g id="edge20_Node000002_Node000009" class="edge">
<title>Node2&#45;&gt;Node9</title>
<g id="a_edge20_Node000002_Node000009"><a xlink:title=" ">
<path fill="none" stroke="#63b8ff" d="M428.66,-223.63C450.61,-209.08 495.6,-181.33 538,-168 652.89,-131.88 796.71,-124.57 864,-123.21"/>
<polygon fill="#63b8ff" stroke="#63b8ff" points="863.81,-126.72 873.75,-123.05 863.7,-119.72 863.81,-126.72"/>
</a>
</g>
</g>
<!-- Node10 -->
<g id="Node000010" class="node">
<title>Node10</title>
<g id="a_Node000010"><a xlink:title=" ">
<polygon fill="#e0e0e0" stroke="#999999" points="929.88,-76 874.12,-76 874.12,-56 929.88,-56 929.88,-76"/>
<text xml:space="preserve" text-anchor="middle" x="902" y="-62.5" font-family="Helvetica,sans-Serif" font-size="10.00">algorithm</text>
</a>
</g>
</g>
<!-- Node2&#45;&gt;Node10 -->
<g id="edge26_Node000002_Node000010" class="edge">
<title>Node2&#45;&gt;Node10</title>
<g id="a_edge26_Node000002_Node000010"><a xlink:title=" ">
<path fill="none" stroke="#63b8ff" d="M397.22,-223.59C376.54,-211.38 346.93,-189.13 361,-168 396.78,-114.27 432.51,-128.16 495,-112 626.7,-77.95 788.91,-69.66 862.44,-67.65"/>
<polygon fill="#63b8ff" stroke="#63b8ff" points="862.45,-71.15 872.36,-67.4 862.27,-64.15 862.45,-71.15"/>
</a>
</g>
</g>
<!-- Node2&#45;&gt;Node12 -->
<g id="edge12_Node000002_Node000012" class="edge">
<title>Node2&#45;&gt;Node12</title>
<g id="a_edge12_Node000002_Node000012"><a xlink:title=" ">
<path fill="none" stroke="#63b8ff" d="M439.35,-225.03C465.97,-216.32 509.03,-202.23 540.5,-191.93"/>
<polygon fill="#63b8ff" stroke="#63b8ff" points="541.25,-195.36 549.67,-188.93 539.07,-188.71 541.25,-195.36"/>
</a>
</g>
</g>
<!-- Node2&#45;&gt;Node14 -->
<g id="edge16_Node000002_Node000014" class="edge">
<title>Node2&#45;&gt;Node14</title>
<g id="a_edge16_Node000002_Node000014"><a xlink:title=" ">
<path fill="none" stroke="#63b8ff" d="M390.56,-232.4C355.92,-230.31 292.27,-221.76 252,-188 238.38,-176.58 230.32,-157.79 225.85,-143.35"/>
<polygon fill="#63b8ff" stroke="#63b8ff" points="229.3,-142.68 223.3,-133.95 222.55,-144.52 229.3,-142.68"/>
</a>
</g>
</g>
<!-- Node16 -->
<g id="Node000016" class="node">
<title>Node16</title>
<g id="a_Node000016"><a xlink:href="value__utils_8hpp.html" target="_top" xlink:title=" ">
<polygon fill="white" stroke="#666666" points="451.62,-188 370.38,-188 370.38,-168 451.62,-168 451.62,-188"/>
<text xml:space="preserve" text-anchor="middle" x="411" y="-174.5" font-family="Helvetica,sans-Serif" font-size="10.00">value_utils.hpp</text>
</a>
</g>
</g>
<!-- Node2&#45;&gt;Node16 -->
<g id="edge21_Node000002_Node000016" class="edge">
<title>Node2&#45;&gt;Node16</title>
<g id="a_edge21_Node000002_Node000016"><a xlink:title=" ">
<path fill="none" stroke="#63b8ff" d="M414.3,-223.59C413.82,-217.01 413.15,-207.96 412.54,-199.73"/>
<polygon fill="#63b8ff" stroke="#63b8ff" points="416.03,-199.52 411.8,-189.81 409.05,-200.04 416.03,-199.52"/>
</a>
</g>
</g>
<!-- Node4 -->
<g id="Node000004" class="node">
<title>Node4</title>
<g id="a_Node000004"><a xlink:href="enums_8hpp.html" target="_top" xlink:title=" ">
<polygon fill="white" stroke="#666666" points="691,-132 627,-132 627,-112 691,-112 691,-132"/>
<text xml:space="preserve" text-anchor="middle" x="659" y="-118.5" font-family="Helvetica,sans-Serif" font-size="10.00">enums.hpp</text>
</a>
</g>
</g>
<!-- Node3&#45;&gt;Node4 -->
<g id="edge3_Node000003_Node000004" class="edge">
<title>Node3&#45;&gt;Node4</title>
<g id="a_edge3_Node000003_Node000004"><a xlink:title=" ">
<path fill="none" stroke="#63b8ff" d="M730.02,-167.59C717.27,-159.59 698.71,-147.93 683.76,-138.54"/>
<polygon fill="#63b8ff" stroke="#63b8ff" points="685.71,-135.64 675.38,-133.28 681.99,-141.57 685.71,-135.64"/>
</a>
</g>
</g>
<!-- Node3&#45;&gt;Node5 -->
<g id="edge4_Node000003_Node000005" class="edge">
<title>Node3&#45;&gt;Node5</title>
<g id="a_edge4_Node000003_Node000005"><a xlink:title=" ">
<path fill="none" stroke="#63b8ff" d="M741.46,-167.56C735.41,-152.92 721.62,-125.05 700,-112 645.06,-78.86 453.91,-70.07 369.09,-67.79"/>
<polygon fill="#63b8ff" stroke="#63b8ff" points="369.21,-64.29 359.13,-67.54 369.04,-71.29 369.21,-64.29"/>
</a>
</g>
</g>
<!-- Node3&#45;&gt;Node9 -->
<g id="edge8_Node000003_Node000009" class="edge">
<title>Node3&#45;&gt;Node9</title>
<g id="a_edge8_Node000003_Node000009"><a xlink:title=" ">
<path fill="none" stroke="#63b8ff" d="M772.35,-167.59C797.86,-158.82 836.15,-145.65 864.51,-135.89"/>
<polygon fill="#63b8ff" stroke="#63b8ff" points="865.48,-139.26 873.8,-132.7 863.2,-132.64 865.48,-139.26"/>
</a>
</g>
</g>
<!-- Node6 -->
<g id="Node000006" class="node">
<title>Node6</title>
<g id="a_Node000006"><a xlink:title=" ">
<polygon fill="#e0e0e0" stroke="#999999" points="386.75,-20 333.25,-20 333.25,0 386.75,0 386.75,-20"/>
<text xml:space="preserve" text-anchor="middle" x="360" y="-6.5" font-family="Helvetica,sans-Serif" font-size="10.00">iostream</text>
</a>
</g>
</g>
<!-- Node5&#45;&gt;Node6 -->
<g id="edge5_Node000005_Node000006" class="edge">
<title>Node5&#45;&gt;Node6</title>
<g id="a_edge5_Node000005_Node000006"><a xlink:title=" ">
<path fill="none" stroke="#63b8ff" d="M333.57,-55.59C337.75,-48.55 343.6,-38.67 348.74,-30"/>
<polygon fill="#63b8ff" stroke="#63b8ff" points="351.63,-31.99 353.72,-21.6 345.61,-28.42 351.63,-31.99"/>
</a>
</g>
</g>
<!-- Node7 -->
<g id="Node000007" class="node">
<title>Node7</title>
<g id="a_Node000007"><a xlink:title=" ">
<polygon fill="#e0e0e0" stroke="#999999" points="315,-20 275,-20 275,0 315,0 315,-20"/>
<text xml:space="preserve" text-anchor="middle" x="295" y="-6.5" font-family="Helvetica,sans-Serif" font-size="10.00">string</text>
</a>
</g>
</g>
<!-- Node5&#45;&gt;Node7 -->
<g id="edge6_Node000005_Node000007" class="edge">
<title>Node5&#45;&gt;Node7</title>
<g id="a_edge6_Node000005_Node000007"><a xlink:title=" ">
<path fill="none" stroke="#63b8ff" d="M322.25,-55.59C317.95,-48.55 311.91,-38.67 306.61,-30"/>
<polygon fill="#63b8ff" stroke="#63b8ff" points="309.67,-28.3 301.47,-21.59 303.7,-31.95 309.67,-28.3"/>
</a>
</g>
</g>
<!-- Node8 -->
<g id="Node000008" class="node">
<title>Node8</title>
<g id="a_Node000008"><a xlink:title=" ">
<polygon fill="#e0e0e0" stroke="#999999" points="788.5,-20 745.5,-20 745.5,0 788.5,0 788.5,-20"/>
<text xml:space="preserve" text-anchor="middle" x="767" y="-6.5" font-family="Helvetica,sans-Serif" font-size="10.00">vector</text>
</a>
</g>
</g>
<!-- Node5&#45;&gt;Node8 -->
<g id="edge7_Node000005_Node000008" class="edge">
<title>Node5&#45;&gt;Node8</title>
<g id="a_edge7_Node000005_Node000008"><a xlink:title=" ">
<path fill="none" stroke="#63b8ff" d="M357.83,-61.33C436.83,-51.61 651.07,-25.26 733.79,-15.08"/>
<polygon fill="#63b8ff" stroke="#63b8ff" points="734.01,-18.58 743.51,-13.89 733.15,-11.64 734.01,-18.58"/>
</a>
</g>
</g>
<!-- Node9&#45;&gt;Node5 -->
<g id="edge9_Node000009_Node000005" class="edge">
<title>Node9&#45;&gt;Node5</title>
<g id="a_edge9_Node000009_Node000005"><a xlink:title=" ">
<path fill="none" stroke="#63b8ff" d="M875.42,-114.48C870.96,-113.55 866.36,-112.67 862,-112 679.39,-83.9 458.76,-72.32 368.98,-68.53"/>
<polygon fill="#63b8ff" stroke="#63b8ff" points="369.34,-65.05 359.2,-68.13 369.05,-72.04 369.34,-65.05"/>
</a>
</g>
</g>
<!-- Node9&#45;&gt;Node10 -->
<g id="edge10_Node000009_Node000010" class="edge">
<title>Node9&#45;&gt;Node10</title>
<g id="a_edge10_Node000009_Node000010"><a xlink:title=" ">
<path fill="none" stroke="#63b8ff" d="M902,-111.59C902,-105.01 902,-95.96 902,-87.73"/>
<polygon fill="#63b8ff" stroke="#63b8ff" points="905.5,-87.81 902,-77.81 898.5,-87.81 905.5,-87.81"/>
</a>
</g>
</g>
<!-- Node11 -->
<g id="Node000011" class="node">
<title>Node11</title>
<g id="a_Node000011"><a xlink:title=" ">
<polygon fill="#e0e0e0" stroke="#999999" points="1028.88,-76 967.12,-76 967.12,-56 1028.88,-56 1028.88,-76"/>
<text xml:space="preserve" text-anchor="middle" x="998" y="-62.5" font-family="Helvetica,sans-Serif" font-size="10.00">type_traits</text>
</a>
</g>
</g>
<!-- Node9&#45;&gt;Node11 -->
<g id="edge11_Node000009_Node000011" class="edge">
<title>Node9&#45;&gt;Node11</title>
<g id="a_edge11_Node000009_Node000011"><a xlink:title=" ">
<path fill="none" stroke="#63b8ff" d="M918.72,-111.59C933.22,-103.44 954.47,-91.48 971.32,-82"/>
<polygon fill="#63b8ff" stroke="#63b8ff" points="972.83,-85.17 979.83,-77.22 969.4,-79.07 972.83,-85.17"/>
</a>
</g>
</g>
<!-- Node12&#45;&gt;Node5 -->
<g id="edge14_Node000012_Node000005" class="edge">
<title>Node12&#45;&gt;Node5</title>
<g id="a_edge14_Node000012_Node000005"><a xlink:title=" ">
<path fill="none" stroke="#63b8ff" d="M558.51,-167.62C514.07,-148.22 411.83,-103.59 359.74,-80.86"/>
<polygon fill="#63b8ff" stroke="#63b8ff" points="361.38,-77.75 350.82,-76.96 358.58,-84.17 361.38,-77.75"/>
</a>
</g>
</g>
<!-- Node12&#45;&gt;Node9 -->
<g id="edge15_Node000012_Node000009" class="edge">
<title>Node12&#45;&gt;Node9</title>
<g id="a_edge15_Node000012_Node000009"><a xlink:title=" ">
<path fill="none" stroke="#63b8ff" d="M613.85,-171.32C674.5,-161.15 801.25,-139.9 864.47,-129.29"/>
<polygon fill="#63b8ff" stroke="#63b8ff" points="864.73,-132.8 874.01,-127.69 863.57,-125.9 864.73,-132.8"/>
</a>
</g>
</g>
<!-- Node13 -->
<g id="Node000013" class="node">
<title>Node13</title>
<g id="a_Node000013"><a xlink:title=" ">
<polygon fill="#e0e0e0" stroke="#999999" points="599.62,-132 560.38,-132 560.38,-112 599.62,-112 599.62,-132"/>
<text xml:space="preserve" text-anchor="middle" x="580" y="-118.5" font-family="Helvetica,sans-Serif" font-size="10.00">utility</text>
</a>
</g>
</g>
<!-- Node12&#45;&gt;Node13 -->
<g id="edge13_Node000012_Node000013" class="edge">
<title>Node12&#45;&gt;Node13</title>
<g id="a_edge13_Node000012_Node000013"><a xlink:title=" ">
<path fill="none" stroke="#63b8ff" d="M580,-167.59C580,-161.01 580,-151.96 580,-143.73"/>
<polygon fill="#63b8ff" stroke="#63b8ff" points="583.5,-143.81 580,-133.81 576.5,-143.81 583.5,-143.81"/>
</a>
</g>
</g>
<!-- Node14&#45;&gt;Node5 -->
<g id="edge18_Node000014_Node000005" class="edge">
<title>Node14&#45;&gt;Node5</title>
<g id="a_edge18_Node000014_Node000005"><a xlink:title=" ">
<path fill="none" stroke="#63b8ff" d="M239.64,-111.59C256.03,-103.32 280.16,-91.14 299.06,-81.6"/>
<polygon fill="#63b8ff" stroke="#63b8ff" points="300.51,-84.79 307.87,-77.16 297.36,-78.54 300.51,-84.79"/>
</a>
</g>
</g>
<!-- Node15 -->
<g id="Node000015" class="node">
<title>Node15</title>
<g id="a_Node000015"><a xlink:title=" ">
<polygon fill="#e0e0e0" stroke="#999999" points="250.38,-76 191.62,-76 191.62,-56 250.38,-56 250.38,-76"/>
<text xml:space="preserve" text-anchor="middle" x="221" y="-62.5" font-family="Helvetica,sans-Serif" font-size="10.00">stdexcept</text>
</a>
</g>
</g>
<!-- Node14&#45;&gt;Node15 -->
<g id="edge17_Node000014_Node000015" class="edge">
<title>Node14&#45;&gt;Node15</title>
<g id="a_edge17_Node000014_Node000015"><a xlink:title=" ">
<path fill="none" stroke="#63b8ff" d="M221,-111.59C221,-105.01 221,-95.96 221,-87.73"/>
<polygon fill="#63b8ff" stroke="#63b8ff" points="224.5,-87.81 221,-77.81 217.5,-87.81 224.5,-87.81"/>
</a>
</g>
</g>
<!-- Node16&#45;&gt;Node5 -->
<g id="edge23_Node000016_Node000005" class="edge">
<title>Node16&#45;&gt;Node5</title>
<g id="a_edge23_Node000016_Node000005"><a xlink:title=" ">
<path fill="none" stroke="#63b8ff" d="M403.92,-167.62C390.2,-149.44 359.76,-109.09 341.87,-85.38"/>
<polygon fill="#63b8ff" stroke="#63b8ff" points="344.79,-83.44 335.97,-77.56 339.2,-87.65 344.79,-83.44"/>
</a>
</g>
</g>
<!-- Node16&#45;&gt;Node9 -->
<g id="edge24_Node000016_Node000009" class="edge">
<title>Node16&#45;&gt;Node9</title>
<g id="a_edge24_Node000016_Node000009"><a xlink:title=" ">
<path fill="none" stroke="#63b8ff" d="M452.11,-170C456.79,-169.28 461.49,-168.6 466,-168 612.6,-148.46 787.9,-132.65 863.83,-126.17"/>
<polygon fill="#63b8ff" stroke="#63b8ff" points="863.97,-129.67 873.64,-125.34 863.38,-122.7 863.97,-129.67"/>
</a>
</g>
</g>
<!-- Node16&#45;&gt;Node10 -->
<g id="edge25_Node000016_Node000010" class="edge">
<title>Node16&#45;&gt;Node10</title>
<g id="a_edge25_Node000016_Node000010"><a xlink:title=" ">
<path fill="none" stroke="#63b8ff" d="M426.75,-167.71C452.03,-153.27 503.63,-125.68 551,-112 660.74,-80.31 796.22,-70.92 862.17,-68.15"/>
<polygon fill="#63b8ff" stroke="#63b8ff" points="862.28,-71.65 872.14,-67.76 862.01,-64.65 862.28,-71.65"/>
</a>
</g>
</g>
<!-- Node16&#45;&gt;Node14 -->
<g id="edge22_Node000016_Node000014" class="edge">
<title>Node16&#45;&gt;Node14</title>
<g id="a_edge22_Node000016_Node000014"><a xlink:title=" ">
<path fill="none" stroke="#63b8ff" d="M377.9,-167.59C346.63,-158.71 299.5,-145.31 265.05,-135.52"/>
<polygon fill="#63b8ff" stroke="#63b8ff" points="266.39,-132.26 255.81,-132.89 264.47,-138.99 266.39,-132.26"/>
</a>
</g>
</g>
<!-- Node17&#45;&gt;Node4 -->
<g id="edge54_Node000017_Node000004" class="edge">
<title>Node17&#45;&gt;Node4</title>
<g id="a_edge54_Node000017_Node000004"><a xlink:title=" ">
<path fill="none" stroke="#63b8ff" d="M599.58,-391.57C573.42,-383.88 537.4,-371.72 508,-356 414.46,-305.99 291.6,-248.21 361,-168 397.44,-125.89 554.03,-140.93 609,-132 611.15,-131.65 613.36,-131.28 615.59,-130.91"/>
<polygon fill="#63b8ff" stroke="#63b8ff" points="616.01,-134.39 625.26,-129.23 614.81,-127.49 616.01,-134.39"/>
</a>
</g>
</g>
<!-- Node17&#45;&gt;Node5 -->
<g id="edge56_Node000017_Node000005" class="edge">
<title>Node17&#45;&gt;Node5</title>
<g id="a_edge56_Node000017_Node000005"><a xlink:title=" ">
<path fill="none" stroke="#63b8ff" d="M595.84,-398.77C497.76,-390.72 243.83,-353.98 166,-188 151.42,-156.9 130.94,-139.13 152,-112 160.37,-101.22 237.91,-84.44 287.24,-74.71"/>
<polygon fill="#63b8ff" stroke="#63b8ff" points="287.88,-78.15 297.02,-72.8 286.53,-71.28 287.88,-78.15"/>
</a>
</g>
</g>
<!-- Node17&#45;&gt;Node9 -->
<g id="edge57_Node000017_Node000009" class="edge">
<title>Node17&#45;&gt;Node9</title>
<g id="a_edge57_Node000017_Node000009"><a xlink:title=" ">
<path fill="none" stroke="#63b8ff" d="M674.12,-396.24C760.92,-384.59 962,-351.12 962,-291 962,-291 962,-291 962,-233 962,-196.78 936.62,-161.14 918.87,-140.65"/>
<polygon fill="#63b8ff" stroke="#63b8ff" points="921.69,-138.55 912.39,-133.48 916.5,-143.25 921.69,-138.55"/>
</a>
</g>
</g>
<!-- Node17&#45;&gt;Node12 -->
<g id="edge53_Node000017_Node000012" class="edge">
<title>Node17&#45;&gt;Node12</title>
<g id="a_edge53_Node000017_Node000012"><a xlink:title=" ">
<path fill="none" stroke="#63b8ff" d="M639.02,-391.82C650.38,-364.35 679.98,-281.19 649,-224 641.8,-210.7 628.77,-200.71 615.97,-193.57"/>
<polygon fill="#63b8ff" stroke="#63b8ff" points="617.71,-190.53 607.21,-189.12 614.54,-196.77 617.71,-190.53"/>
</a>
</g>
</g>
<!-- Node17&#45;&gt;Node16 -->
<g id="edge58_Node000017_Node000016" class="edge">
<title>Node17&#45;&gt;Node16</title>
<g id="a_edge58_Node000017_Node000016"><a xlink:title=" ">
<path fill="none" stroke="#63b8ff" d="M629.46,-391.81C616.42,-370.63 582.09,-317.33 545,-280 510.62,-245.4 463.89,-212.85 435.67,-194.48"/>
<polygon fill="#63b8ff" stroke="#63b8ff" points="437.75,-191.65 427.44,-189.19 433.96,-197.54 437.75,-191.65"/>
</a>
</g>
</g>
<!-- Node18 -->
<g id="Node000018" class="node">
<title>Node18</title>
<g id="a_Node000018"><a xlink:href="api_8hpp.html" target="_top" xlink:title=" ">
<polygon fill="white" stroke="#666666" points="564.75,-356 517.25,-356 517.25,-336 564.75,-336 564.75,-356"/>
<text xml:space="preserve" text-anchor="middle" x="541" y="-342.5" font-family="Helvetica,sans-Serif" font-size="10.00">api.hpp</text>
</a>
</g>
</g>
<!-- Node17&#45;&gt;Node18 -->
<g id="edge28_Node000017_Node000018" class="edge">
<title>Node17&#45;&gt;Node18</title>
<g id="a_edge28_Node000017_Node000018"><a xlink:title=" ">
<path fill="none" stroke="#63b8ff" d="M613.36,-391.59C597.82,-383.59 577.23,-371.93 561.88,-362.54"/>
<polygon fill="#63b8ff" stroke="#63b8ff" points="563.83,-359.64 553.5,-357.28 560.11,-365.57 563.83,-359.64"/>
</a>
</g>
</g>
<!-- Node20 -->
<g id="Node000020" class="node">
<title>Node20</title>
<g id="a_Node000020"><a xlink:href="group__iface_8hpp.html" target="_top" xlink:title=" ">
<polygon fill="white" stroke="#666666" points="923.5,-244 838.5,-244 838.5,-224 923.5,-224 923.5,-244"/>
<text xml:space="preserve" text-anchor="middle" x="881" y="-230.5" font-family="Helvetica,sans-Serif" font-size="10.00">group_iface.hpp</text>
</a>
</g>
</g>
<!-- Node17&#45;&gt;Node20 -->
<g id="edge55_Node000017_Node000020" class="edge">
<title>Node17&#45;&gt;Node20</title>
<g id="a_edge55_Node000017_Node000020"><a xlink:title=" ">
<path fill="none" stroke="#63b8ff" d="M674.11,-391.59C721.47,-378.39 801.07,-350.18 851,-300 863.34,-287.6 871.18,-269.18 875.74,-255.12"/>
<polygon fill="#63b8ff" stroke="#63b8ff" points="879.08,-256.17 878.51,-245.59 872.35,-254.21 879.08,-256.17"/>
</a>
</g>
</g>
<!-- Node18&#45;&gt;Node2 -->
<g id="edge29_Node000018_Node000002" class="edge">
<title>Node18&#45;&gt;Node2</title>
<g id="a_edge29_Node000018_Node000002"><a xlink:title=" ">
<path fill="none" stroke="#63b8ff" d="M517.08,-337.04C497.98,-329.76 471.46,-317.44 453,-300 439.49,-287.23 429.27,-268.6 422.84,-254.55"/>
<polygon fill="#63b8ff" stroke="#63b8ff" points="426.1,-253.27 418.95,-245.45 419.67,-256.02 426.1,-253.27"/>
</a>
</g>
</g>
<!-- Node18&#45;&gt;Node5 -->
<g id="edge52_Node000018_Node000005" class="edge">
<title>Node18&#45;&gt;Node5</title>
<g id="a_edge52_Node000018_Node000005"><a xlink:title=" ">
<path fill="none" stroke="#63b8ff" d="M516.95,-343.5C448.78,-337.76 254.63,-310.82 183,-188 165.46,-157.92 142.89,-139.69 164,-112 178.87,-92.5 243.52,-79.35 287.07,-72.53"/>
<polygon fill="#63b8ff" stroke="#63b8ff" points="287.33,-76.03 296.69,-71.08 286.28,-69.11 287.33,-76.03"/>
</a>
</g>
</g>
<!-- Node18&#45;&gt;Node17 -->
<g id="edge30_Node000018_Node000017" class="edge">
<title>Node18&#45;&gt;Node17</title>
<g id="a_edge30_Node000018_Node000017"><a xlink:title=" ">
<path fill="none" stroke="#63b8ff" d="M562.78,-356.48C578.35,-364.51 598.94,-376.17 614.26,-385.54"/>
<polygon fill="#63b8ff" stroke="#63b8ff" points="612.28,-388.43 622.61,-390.79 616.01,-382.51 612.28,-388.43"/>
</a>
</g>
</g>
<!-- Node19 -->
<g id="Node000019" class="node">
<title>Node19</title>
<g id="a_Node000019"><a xlink:href="groups_8hpp.html" target="_top" xlink:title=" ">
<polygon fill="white" stroke="#666666" points="842,-300 778,-300 778,-280 842,-280 842,-300"/>
<text xml:space="preserve" text-anchor="middle" x="810" y="-286.5" font-family="Helvetica,sans-Serif" font-size="10.00">groups.hpp</text>
</a>
</g>
</g>
<!-- Node18&#45;&gt;Node19 -->
<g id="edge31_Node000018_Node000019" class="edge">
<title>Node18&#45;&gt;Node19</title>
<g id="a_edge31_Node000018_Node000019"><a xlink:title=" ">
<path fill="none" stroke="#63b8ff" d="M564.87,-340.21C610.1,-331.13 708.89,-311.3 766.29,-299.77"/>
<polygon fill="#63b8ff" stroke="#63b8ff" points="766.94,-303.21 776.05,-297.81 765.56,-296.35 766.94,-303.21"/>
</a>
</g>
</g>
<!-- Node22 -->
<g id="Node000022" class="node">
<title>Node22</title>
<g id="a_Node000022"><a xlink:href="multi__arg_8hpp.html" target="_top" xlink:title=" ">
<polygon fill="white" stroke="#666666" points="536.25,-300 461.75,-300 461.75,-280 536.25,-280 536.25,-300"/>
<text xml:space="preserve" text-anchor="middle" x="499" y="-286.5" font-family="Helvetica,sans-Serif" font-size="10.00">multi_arg.hpp</text>
</a>
</g>
</g>
<!-- Node18&#45;&gt;Node22 -->
<g id="edge44_Node000018_Node000022" class="edge">
<title>Node18&#45;&gt;Node22</title>
<g id="a_edge44_Node000018_Node000022"><a xlink:title=" ">
<path fill="none" stroke="#63b8ff" d="M533.68,-335.59C528.02,-328.32 520.01,-318.02 513.11,-309.15"/>
<polygon fill="#63b8ff" stroke="#63b8ff" points="516.06,-307.24 507.16,-301.49 510.54,-311.54 516.06,-307.24"/>
</a>
</g>
</g>
<!-- Node19&#45;&gt;Node5 -->
<g id="edge42_Node000019_Node000005" class="edge">
<title>Node19&#45;&gt;Node5</title>
<g id="a_edge42_Node000019_Node000005"><a xlink:title=" ">
<path fill="none" stroke="#63b8ff" d="M810.66,-279.79C811.76,-258.57 812.06,-205.19 791,-168 771.88,-134.23 759.67,-127.28 724,-112 660.84,-84.95 457.31,-72.78 369.25,-68.69"/>
<polygon fill="#63b8ff" stroke="#63b8ff" points="369.52,-65.2 359.37,-68.25 369.2,-72.19 369.52,-65.2"/>
</a>
</g>
</g>
<!-- Node19&#45;&gt;Node10 -->
<g id="edge43_Node000019_Node000010" class="edge">
<title>Node19&#45;&gt;Node10</title>
<g id="a_edge43_Node000019_Node000010"><a xlink:title=" ">
<path fill="none" stroke="#63b8ff" d="M842.23,-284.77C922.08,-273.57 1125.47,-240.35 1165,-188 1170.36,-180.91 1170.03,-175.33 1165,-168 1138.81,-129.89 1007.86,-92.98 941.17,-76.29"/>
<polygon fill="#63b8ff" stroke="#63b8ff" points="942.29,-72.96 931.74,-73.96 940.61,-79.76 942.29,-72.96"/>
</a>
</g>
</g>
<!-- Node19&#45;&gt;Node20 -->
<g id="edge32_Node000019_Node000020" class="edge">
<title>Node19&#45;&gt;Node20</title>
<g id="a_edge32_Node000019_Node000020"><a xlink:title=" ">
<path fill="none" stroke="#63b8ff" d="M822.37,-279.59C832.65,-271.77 847.52,-260.46 859.71,-251.19"/>
<polygon fill="#63b8ff" stroke="#63b8ff" points="861.73,-254.05 867.57,-245.21 857.49,-248.48 861.73,-254.05"/>
</a>
</g>
</g>
<!-- Node20&#45;&gt;Node3 -->
<g id="edge33_Node000020_Node000003" class="edge">
<title>Node20&#45;&gt;Node3</title>
<g id="a_edge33_Node000020_Node000003"><a xlink:title=" ">
<path fill="none" stroke="#63b8ff" d="M857.31,-223.59C835.8,-215.05 803.8,-202.35 779.46,-192.68"/>
<polygon fill="#63b8ff" stroke="#63b8ff" points="780.87,-189.48 770.28,-189.04 778.28,-195.98 780.87,-189.48"/>
</a>
</g>
</g>
<!-- Node20&#45;&gt;Node5 -->
<g id="edge35_Node000020_Node000005" class="edge">
<title>Node20&#45;&gt;Node5</title>
<g id="a_edge35_Node000020_Node000005"><a xlink:title=" ">
<path fill="none" stroke="#63b8ff" d="M879.76,-223.76C876.09,-200.46 863,-139.29 824,-112 787.09,-86.17 481.56,-72.57 369.23,-68.41"/>
<polygon fill="#63b8ff" stroke="#63b8ff" points="369.38,-64.91 359.25,-68.05 369.12,-71.91 369.38,-64.91"/>
</a>
</g>
</g>
<!-- Node20&#45;&gt;Node8 -->
<g id="edge41_Node000020_Node000008" class="edge">
<title>Node20&#45;&gt;Node8</title>
<g id="a_edge41_Node000020_Node000008"><a xlink:title=" ">
<path fill="none" stroke="#63b8ff" d="M901.32,-223.54C955.07,-197.29 1093.24,-121.17 1038,-56 1007.81,-20.38 865.25,-12.92 799.89,-11.39"/>
<polygon fill="#63b8ff" stroke="#63b8ff" points="800.21,-7.89 790.14,-11.19 800.07,-14.89 800.21,-7.89"/>
</a>
</g>
</g>
<!-- Node20&#45;&gt;Node9 -->
<g id="edge36_Node000020_Node000009" class="edge">
<title>Node20&#45;&gt;Node9</title>
<g id="a_edge36_Node000020_Node000009"><a xlink:title=" ">
<path fill="none" stroke="#63b8ff" d="M886.14,-223.68C890.74,-214.81 897.18,-200.92 900,-188 903.18,-173.44 903.61,-156.61 903.29,-143.73"/>
<polygon fill="#63b8ff" stroke="#63b8ff" points="906.79,-143.73 902.85,-133.9 899.8,-144.05 906.79,-143.73"/>
</a>
</g>
</g>
<!-- Node20&#45;&gt;Node10 -->
<g id="edge37_Node000020_Node000010" class="edge">
<title>Node20&#45;&gt;Node10</title>
<g id="a_edge37_Node000020_Node000010"><a xlink:title=" ">
<path fill="none" stroke="#63b8ff" d="M889.38,-223.53C896.82,-214.77 907.63,-201.16 915,-188 928.07,-164.67 932.02,-158.27 937,-132 938.65,-123.27 939.88,-120.41 937,-112 933.53,-101.88 926.75,-92.29 920.08,-84.58"/>
<polygon fill="#63b8ff" stroke="#63b8ff" points="922.65,-82.2 913.25,-77.3 917.54,-86.99 922.65,-82.2"/>
</a>
</g>
</g>
<!-- Node20&#45;&gt;Node11 -->
<g id="edge39_Node000020_Node000011" class="edge">
<title>Node20&#45;&gt;Node11</title>
<g id="a_edge39_Node000020_Node000011"><a xlink:title=" ">
<path fill="none" stroke="#63b8ff" d="M894.9,-223.5C906.41,-215.14 922.66,-202.12 934,-188 959.82,-155.85 980.04,-111.69 990.39,-86.58"/>
<polygon fill="#63b8ff" stroke="#63b8ff" points="993.52,-88.19 993.99,-77.6 987.02,-85.58 993.52,-88.19"/>
</a>
</g>
</g>
<!-- Node20&#45;&gt;Node13 -->
<g id="edge40_Node000020_Node000013" class="edge">
<title>Node20&#45;&gt;Node13</title>
<g id="a_edge40_Node000020_Node000013"><a xlink:title=" ">
<path fill="none" stroke="#63b8ff" d="M838.12,-225.64C800.62,-218.44 745.11,-205.94 699,-188 680.54,-180.81 634.9,-154.98 605.81,-138.12"/>
<polygon fill="#63b8ff" stroke="#63b8ff" points="607.64,-135.13 597.23,-133.13 604.12,-141.18 607.64,-135.13"/>
</a>
</g>
</g>
<!-- Node20&#45;&gt;Node14 -->
<g id="edge34_Node000020_Node000014" class="edge">
<title>Node20&#45;&gt;Node14</title>
<g id="a_edge34_Node000020_Node000014"><a xlink:title=" ">
<path fill="none" stroke="#63b8ff" d="M838.13,-228.69C792.15,-223.08 717.58,-211.15 657,-188 640.62,-181.74 639.63,-173.54 623,-168 559.51,-146.85 367.72,-132.25 273.87,-126.17"/>
<polygon fill="#63b8ff" stroke="#63b8ff" points="274.1,-122.68 263.9,-125.53 273.66,-129.66 274.1,-122.68"/>
</a>
</g>
</g>
<!-- Node20&#45;&gt;Node21 -->
<g id="edge38_Node000020_Node000021" class="edge">
<title>Node20&#45;&gt;Node21</title>
<g id="a_edge38_Node000020_Node000021"><a xlink:title=" ">
<path fill="none" stroke="#63b8ff" d="M923.85,-223.89C966.12,-214.88 1032.55,-200.65 1090,-188 1091,-187.78 1092.02,-187.55 1093.05,-187.33"/>
<polygon fill="#63b8ff" stroke="#63b8ff" points="1093.71,-190.77 1102.71,-185.17 1092.19,-183.93 1093.71,-190.77"/>
</a>
</g>
</g>
<!-- Node22&#45;&gt;Node2 -->
<g id="edge45_Node000022_Node000002" class="edge">
<title>Node22&#45;&gt;Node2</title>
<g id="a_edge45_Node000022_Node000002"><a xlink:title=" ">
<path fill="none" stroke="#63b8ff" d="M484.37,-279.59C471.92,-271.59 453.78,-259.93 439.18,-250.54"/>
<polygon fill="#63b8ff" stroke="#63b8ff" points="441.32,-247.76 431.02,-245.3 437.54,-253.65 441.32,-247.76"/>
</a>
</g>
</g>
<!-- Node22&#45;&gt;Node5 -->
<g id="edge48_Node000022_Node000005" class="edge">
<title>Node22&#45;&gt;Node5</title>
<g id="a_edge48_Node000022_Node000005"><a xlink:title=" ">
<path fill="none" stroke="#63b8ff" d="M461.63,-289.01C413.7,-287.46 329.44,-279.36 268,-244 210.92,-211.16 193.85,-193.76 171,-132 167.92,-123.66 165.65,-119.1 171,-112 185,-93.42 245.55,-80.17 287.22,-73.05"/>
<polygon fill="#63b8ff" stroke="#63b8ff" points="287.63,-76.53 296.93,-71.46 286.49,-69.63 287.63,-76.53"/>
</a>
</g>
</g>
<!-- Node22&#45;&gt;Node9 -->
<g id="edge49_Node000022_Node000009" class="edge">
<title>Node22&#45;&gt;Node9</title>
<g id="a_edge49_Node000022_Node000009"><a xlink:title=" ">
<path fill="none" stroke="#63b8ff" d="M533.12,-279.58C588.51,-263.76 700.85,-229.49 791,-188 822.52,-173.49 856.67,-152.65 878.65,-138.5"/>
<polygon fill="#63b8ff" stroke="#63b8ff" points="880.38,-141.56 886.85,-133.17 876.56,-135.69 880.38,-141.56"/>
</a>
</g>
</g>
<!-- Node22&#45;&gt;Node12 -->
<g id="edge46_Node000022_Node000012" class="edge">
<title>Node22&#45;&gt;Node12</title>
<g id="a_edge46_Node000022_Node000012"><a xlink:title=" ">
<path fill="none" stroke="#63b8ff" d="M505.91,-279.62C519.3,-261.44 549,-221.09 566.46,-197.38"/>
<polygon fill="#63b8ff" stroke="#63b8ff" points="569.1,-199.7 572.21,-189.57 563.47,-195.55 569.1,-199.7"/>
</a>
</g>
</g>
<!-- Node22&#45;&gt;Node13 -->
<g id="edge51_Node000022_Node000013" class="edge">
<title>Node22&#45;&gt;Node13</title>
<g id="a_edge51_Node000022_Node000013"><a xlink:title=" ">
<path fill="none" stroke="#63b8ff" d="M500.57,-279.63C504.41,-258.5 515.63,-206.06 538,-168 544.04,-157.72 552.8,-147.84 560.76,-139.98"/>
<polygon fill="#63b8ff" stroke="#63b8ff" points="562.92,-142.75 567.81,-133.35 558.13,-137.65 562.92,-142.75"/>
</a>
</g>
</g>
<!-- Node22&#45;&gt;Node14 -->
<g id="edge47_Node000022_Node000014" class="edge">
<title>Node22&#45;&gt;Node14</title>
<g id="a_edge47_Node000022_Node000014"><a xlink:title=" ">
<path fill="none" stroke="#63b8ff" d="M461.27,-286.24C402.52,-279.79 289.93,-258.42 232,-188 221.87,-175.68 219.51,-157.52 219.46,-143.52"/>
<polygon fill="#63b8ff" stroke="#63b8ff" points="222.95,-143.76 219.85,-133.63 215.96,-143.49 222.95,-143.76"/>
</a>
</g>
</g>
<!-- Node22&#45;&gt;Node16 -->
<g id="edge50_Node000022_Node000016" class="edge">
<title>Node22&#45;&gt;Node16</title>
<g id="a_edge50_Node000022_Node000016"><a xlink:title=" ">
<path fill="none" stroke="#63b8ff" d="M491.8,-279.69C481.99,-267.02 463.81,-243.68 448,-224 440.81,-215.05 432.71,-205.18 425.94,-196.97"/>
<polygon fill="#63b8ff" stroke="#63b8ff" points="428.76,-194.89 419.68,-189.42 423.37,-199.36 428.76,-194.89"/>
</a>
</g>
</g>
<!-- Node23&#45;&gt;Node9 -->
<g id="edge62_Node000023_Node000009" class="edge">
<title>Node23&#45;&gt;Node9</title>
<g id="a_edge62_Node000023_Node000009"><a xlink:title=" ">
<path fill="none" stroke="#63b8ff" d="M1248.08,-335.78C1257.14,-306.73 1280.38,-216.23 1236,-168 1196.86,-125.46 1019.14,-121.78 940.1,-122.32"/>
<polygon fill="#63b8ff" stroke="#63b8ff" points="940.22,-118.81 930.25,-122.41 940.28,-125.81 940.22,-118.81"/>
</a>
</g>
</g>
</g>
</svg>
