<?xml version="1.0" encoding="UTF-8" standalone="no"?>
<!DOCTYPE svg PUBLIC "-//W3C//DTD SVG 1.1//EN"
 "http://www.w3.org/Graphics/SVG/1.1/DTD/svg11.dtd">
<!-- Generated by graphviz version 2.43.0 (0)
 -->
<!-- Title: help_printer_iface.hpp Pages: 1 -->
<svg width="187pt" height="196pt"
 viewBox="0.00 0.00 186.50 196.00" xmlns="http://www.w3.org/2000/svg" xmlns:xlink="http://www.w3.org/1999/xlink">
<g id="graph0" class="graph" transform="scale(1 1) rotate(0) translate(4 192)">
<title>help_printer_iface.hpp</title>
<!-- Node1 -->
<g id="node1" class="node">
<title>Node1</title>
<g id="a_node1"><a xlink:title=" ">
<polygon fill="#bfbfbf" stroke="black" points="53.5,-168.5 53.5,-187.5 178.5,-187.5 178.5,-168.5 53.5,-168.5"/>
<text text-anchor="middle" x="116" y="-175.5" font-family="Helvetica,sans-Serif" font-size="10.00">help_printer_iface.hpp</text>
</a>
</g>
</g>
<!-- Node2 -->
<g id="node2" class="node">
<title>Node2</title>
<g id="a_node2"><a xlink:href="help_8hpp.html" target="_top" xlink:title=" ">
<polygon fill="none" stroke="black" points="57.5,-112.5 57.5,-131.5 116.5,-131.5 116.5,-112.5 57.5,-112.5"/>
<text text-anchor="middle" x="87" y="-119.5" font-family="Helvetica,sans-Serif" font-size="10.00">help.hpp</text>
</a>
</g>
</g>
<!-- Node1&#45;&gt;Node2 -->
<g id="edge1" class="edge">
<title>Node1&#45;&gt;Node2</title>
<path fill="none" stroke="midnightblue" d="M106.32,-158.98C101.4,-149.82 95.64,-139.09 91.7,-131.75"/>
<polygon fill="midnightblue" stroke="midnightblue" points="103.4,-160.93 111.21,-168.08 109.56,-157.62 103.4,-160.93"/>
</g>
<!-- Node5 -->
<g id="node5" class="node">
<title>Node5</title>
<g id="a_node5"><a xlink:href="help__printer_8hpp.html" target="_top" xlink:title=" ">
<polygon fill="none" stroke="black" points="68.5,-0.5 68.5,-19.5 163.5,-19.5 163.5,-0.5 68.5,-0.5"/>
<text text-anchor="middle" x="116" y="-7.5" font-family="Helvetica,sans-Serif" font-size="10.00">help_printer.hpp</text>
</a>
</g>
</g>
<!-- Node1&#45;&gt;Node5 -->
<g id="edge6" class="edge">
<title>Node1&#45;&gt;Node5</title>
<path fill="none" stroke="midnightblue" d="M121.5,-158.7C127.9,-134.95 136.88,-92.26 131,-56 128.89,-42.99 123.56,-28.67 119.86,-19.75"/>
<polygon fill="midnightblue" stroke="midnightblue" points="118.09,-157.88 118.72,-168.46 124.83,-159.8 118.09,-157.88"/>
</g>
<!-- Node3 -->
<g id="node3" class="node">
<title>Node3</title>
<g id="a_node3"><a xlink:href="cmd__line_8hpp.html" target="_top" xlink:title=" ">
<polygon fill="none" stroke="black" points="40,-56.5 40,-75.5 122,-75.5 122,-56.5 40,-56.5"/>
<text text-anchor="middle" x="81" y="-63.5" font-family="Helvetica,sans-Serif" font-size="10.00">cmd_line.hpp</text>
</a>
</g>
</g>
<!-- Node2&#45;&gt;Node3 -->
<g id="edge2" class="edge">
<title>Node2&#45;&gt;Node3</title>
<path fill="none" stroke="midnightblue" d="M84.9,-102.1C83.9,-93.14 82.76,-82.86 81.97,-75.75"/>
<polygon fill="midnightblue" stroke="midnightblue" points="81.43,-102.53 86.01,-112.08 88.38,-101.76 81.43,-102.53"/>
</g>
<!-- Node4 -->
<g id="node4" class="node">
<title>Node4</title>
<g id="a_node4"><a xlink:href="all_8hpp.html" target="_top" xlink:title=" ">
<polygon fill="none" stroke="black" points="0,-0.5 0,-19.5 50,-19.5 50,-0.5 0,-0.5"/>
<text text-anchor="middle" x="25" y="-7.5" font-family="Helvetica,sans-Serif" font-size="10.00">all.hpp</text>
</a>
</g>
</g>
<!-- Node3&#45;&gt;Node4 -->
<g id="edge3" class="edge">
<title>Node3&#45;&gt;Node4</title>
<path fill="none" stroke="midnightblue" d="M64.67,-49.25C54.74,-39.67 42.41,-27.79 34.16,-19.83"/>
<polygon fill="midnightblue" stroke="midnightblue" points="62.37,-51.9 72,-56.32 67.23,-46.86 62.37,-51.9"/>
</g>
<!-- Node3&#45;&gt;Node5 -->
<g id="edge4" class="edge">
<title>Node3&#45;&gt;Node5</title>
<path fill="none" stroke="midnightblue" d="M86.27,-46.98C91.49,-37.82 98.86,-27.09 105.2,-19.75"/>
<polygon fill="midnightblue" stroke="midnightblue" points="83.05,-45.59 81.61,-56.08 89.29,-48.78 83.05,-45.59"/>
</g>
<!-- Node5&#45;&gt;Node3 -->
<g id="edge5" class="edge">
<title>Node5&#45;&gt;Node3</title>
<path fill="none" stroke="midnightblue" d="M110.85,-28.81C105.66,-37.95 98.3,-48.69 91.95,-56.08"/>
<polygon fill="midnightblue" stroke="midnightblue" points="114.04,-30.25 115.46,-19.75 107.8,-27.07 114.04,-30.25"/>
</g>
</g>
</svg>
