<?xml version="1.0" encoding="UTF-8" standalone="no"?>
<!DOCTYPE svg PUBLIC "-//W3C//DTD SVG 1.1//EN"
 "http://www.w3.org/Graphics/SVG/1.1/DTD/svg11.dtd">
<!-- Generated by graphviz version 2.38.0 (20140413.2041)
 -->
<!-- Title: help_printer_iface.hpp Pages: 1 -->
<svg width="215pt" height="252pt"
 viewBox="0.00 0.00 214.50 252.00" xmlns="http://www.w3.org/2000/svg" xmlns:xlink="http://www.w3.org/1999/xlink">
<g id="graph0" class="graph" transform="scale(1 1) rotate(0) translate(4 248)">
<title>help_printer_iface.hpp</title>
<!-- Node1 -->
<g id="node1" class="node"><title>Node1</title>
<polygon fill="#bfbfbf" stroke="black" points="63.5,-224.5 63.5,-243.5 175.5,-243.5 175.5,-224.5 63.5,-224.5"/>
<text text-anchor="middle" x="119.5" y="-231.5" font-family="Helvetica,sans-Serif" font-size="10.00">help_printer_iface.hpp</text>
</g>
<!-- Node2 -->
<g id="node2" class="node"><title>Node2</title>
<g id="a_node2"><a xlink:href="help_8hpp.html" target="_top" xlink:title="help.hpp">
<polygon fill="none" stroke="black" points="49,-168.5 49,-187.5 102,-187.5 102,-168.5 49,-168.5"/>
<text text-anchor="middle" x="75.5" y="-175.5" font-family="Helvetica,sans-Serif" font-size="10.00">help.hpp</text>
</a>
</g>
</g>
<!-- Node1&#45;&gt;Node2 -->
<g id="edge1" class="edge"><title>Node1&#45;&gt;Node2</title>
<path fill="none" stroke="midnightblue" d="M105.765,-216.144C98.0995,-206.736 88.8667,-195.405 82.6305,-187.751"/>
<polygon fill="midnightblue" stroke="midnightblue" points="103.204,-218.541 112.234,-224.083 108.631,-214.12 103.204,-218.541"/>
</g>
<!-- Node7 -->
<g id="node7" class="node"><title>Node7</title>
<g id="a_node7"><a xlink:href="help__printer_8hpp.html" target="_top" xlink:title="help_printer.hpp">
<polygon fill="none" stroke="black" points="120.5,-168.5 120.5,-187.5 206.5,-187.5 206.5,-168.5 120.5,-168.5"/>
<text text-anchor="middle" x="163.5" y="-175.5" font-family="Helvetica,sans-Serif" font-size="10.00">help_printer.hpp</text>
</a>
</g>
</g>
<!-- Node1&#45;&gt;Node7 -->
<g id="edge7" class="edge"><title>Node1&#45;&gt;Node7</title>
<path fill="none" stroke="midnightblue" d="M133.235,-216.144C140.901,-206.736 150.133,-195.405 156.369,-187.751"/>
<polygon fill="midnightblue" stroke="midnightblue" points="130.369,-214.12 126.766,-224.083 135.796,-218.541 130.369,-214.12"/>
</g>
<!-- Node3 -->
<g id="node3" class="node"><title>Node3</title>
<g id="a_node3"><a xlink:href="cmd__line_8hpp.html" target="_top" xlink:title="cmd_line.hpp">
<polygon fill="none" stroke="black" points="82.5,-112.5 82.5,-131.5 156.5,-131.5 156.5,-112.5 82.5,-112.5"/>
<text text-anchor="middle" x="119.5" y="-119.5" font-family="Helvetica,sans-Serif" font-size="10.00">cmd_line.hpp</text>
</a>
</g>
</g>
<!-- Node2&#45;&gt;Node3 -->
<g id="edge2" class="edge"><title>Node2&#45;&gt;Node3</title>
<path fill="none" stroke="midnightblue" d="M89.2345,-160.144C96.9005,-150.736 106.133,-139.405 112.369,-131.751"/>
<polygon fill="midnightblue" stroke="midnightblue" points="86.3691,-158.12 82.7657,-168.083 91.7958,-162.541 86.3691,-158.12"/>
</g>
<!-- Node4 -->
<g id="node4" class="node"><title>Node4</title>
<g id="a_node4"><a xlink:href="all_8hpp.html" target="_top" xlink:title="all.hpp">
<polygon fill="none" stroke="black" points="0,-56.5 0,-75.5 45,-75.5 45,-56.5 0,-56.5"/>
<text text-anchor="middle" x="22.5" y="-63.5" font-family="Helvetica,sans-Serif" font-size="10.00">all.hpp</text>
</a>
</g>
</g>
<!-- Node3&#45;&gt;Node4 -->
<g id="edge3" class="edge"><title>Node3&#45;&gt;Node4</title>
<path fill="none" stroke="midnightblue" d="M95.1648,-107.453C77.2574,-97.4835 53.4463,-84.2279 38.0461,-75.6545"/>
<polygon fill="midnightblue" stroke="midnightblue" points="93.4755,-110.518 103.915,-112.324 96.8804,-104.402 93.4755,-110.518"/>
</g>
<!-- Node5 -->
<g id="node5" class="node"><title>Node5</title>
<g id="a_node5"><a xlink:href="arg__as__command_8hpp.html" target="_top" xlink:title="arg_as_command.hpp">
<polygon fill="none" stroke="black" points="63,-56.5 63,-75.5 176,-75.5 176,-56.5 63,-56.5"/>
<text text-anchor="middle" x="119.5" y="-63.5" font-family="Helvetica,sans-Serif" font-size="10.00">arg_as_command.hpp</text>
</a>
</g>
</g>
<!-- Node3&#45;&gt;Node5 -->
<g id="edge4" class="edge"><title>Node3&#45;&gt;Node5</title>
<path fill="none" stroke="midnightblue" d="M119.5,-101.805C119.5,-92.9102 119.5,-82.7798 119.5,-75.7511"/>
<polygon fill="midnightblue" stroke="midnightblue" points="116,-102.083 119.5,-112.083 123,-102.083 116,-102.083"/>
</g>
<!-- Node6 -->
<g id="node6" class="node"><title>Node6</title>
<g id="a_node6"><a xlink:href="api_8hpp.html" target="_top" xlink:title="api.hpp">
<polygon fill="none" stroke="black" points="137.5,-0.5 137.5,-19.5 185.5,-19.5 185.5,-0.5 137.5,-0.5"/>
<text text-anchor="middle" x="161.5" y="-7.5" font-family="Helvetica,sans-Serif" font-size="10.00">api.hpp</text>
</a>
</g>
</g>
<!-- Node5&#45;&gt;Node6 -->
<g id="edge5" class="edge"><title>Node5&#45;&gt;Node6</title>
<path fill="none" stroke="midnightblue" d="M132.61,-48.144C139.928,-38.7357 148.741,-27.4046 154.694,-19.7511"/>
<polygon fill="midnightblue" stroke="midnightblue" points="129.812,-46.0406 126.435,-56.083 135.338,-50.3383 129.812,-46.0406"/>
</g>
<!-- Node6&#45;&gt;Node3 -->
<g id="edge6" class="edge"><title>Node6&#45;&gt;Node3</title>
<path fill="none" stroke="midnightblue" d="M175.037,-28.0462C183.96,-41.4898 192.625,-60.493 184.5,-76 175.455,-93.2636 156.445,-105.221 141.308,-112.447"/>
<polygon fill="midnightblue" stroke="midnightblue" points="177.721,-25.7855 169.022,-19.7385 172.052,-29.8909 177.721,-25.7855"/>
</g>
<!-- Node7&#45;&gt;Node3 -->
<g id="edge8" class="edge"><title>Node7&#45;&gt;Node3</title>
<path fill="none" stroke="midnightblue" d="M149.765,-160.144C142.099,-150.736 132.867,-139.405 126.631,-131.751"/>
<polygon fill="midnightblue" stroke="midnightblue" points="147.204,-162.541 156.234,-168.083 152.631,-158.12 147.204,-162.541"/>
</g>
</g>
</svg>
