<?xml version="1.0" encoding="UTF-8" standalone="no"?>
<!DOCTYPE svg PUBLIC "-//W3C//DTD SVG 1.1//EN"
 "http://www.w3.org/Graphics/SVG/1.1/DTD/svg11.dtd">
<!-- Generated by graphviz version 2.38.0 (20140413.2041)
 -->
<!-- Title: help.hpp Pages: 1 -->
<svg width="658pt" height="308pt"
 viewBox="0.00 0.00 658.00 308.00" xmlns="http://www.w3.org/2000/svg" xmlns:xlink="http://www.w3.org/1999/xlink">
<g id="graph0" class="graph" transform="scale(1 1) rotate(0) translate(4 304)">
<title>help.hpp</title>
<!-- Node1 -->
<g id="node1" class="node"><title>Node1</title>
<polygon fill="#bfbfbf" stroke="black" points="237.5,-280.5 237.5,-299.5 290.5,-299.5 290.5,-280.5 237.5,-280.5"/>
<text text-anchor="middle" x="264" y="-287.5" font-family="Helvetica,sans-Serif" font-size="10.00">help.hpp</text>
</g>
<!-- Node2 -->
<g id="node2" class="node"><title>Node2</title>
<g id="a_node2"><a xlink:href="arg_8hpp.html" target="_top" xlink:title="arg.hpp">
<polygon fill="none" stroke="black" points="239.5,-224.5 239.5,-243.5 288.5,-243.5 288.5,-224.5 239.5,-224.5"/>
<text text-anchor="middle" x="264" y="-231.5" font-family="Helvetica,sans-Serif" font-size="10.00">arg.hpp</text>
</a>
</g>
</g>
<!-- Node1&#45;&gt;Node2 -->
<g id="edge1" class="edge"><title>Node1&#45;&gt;Node2</title>
<path fill="none" stroke="midnightblue" d="M264,-280.083C264,-273.006 264,-262.861 264,-253.986"/>
<polygon fill="midnightblue" stroke="midnightblue" points="267.5,-253.751 264,-243.751 260.5,-253.751 267.5,-253.751"/>
</g>
<!-- Node4 -->
<g id="node4" class="node"><title>Node4</title>
<g id="a_node4"><a xlink:href="utils_8hpp.html" target="_top" xlink:title="utils.hpp">
<polygon fill="none" stroke="black" points="74.5,-112.5 74.5,-131.5 127.5,-131.5 127.5,-112.5 74.5,-112.5"/>
<text text-anchor="middle" x="101" y="-119.5" font-family="Helvetica,sans-Serif" font-size="10.00">utils.hpp</text>
</a>
</g>
</g>
<!-- Node1&#45;&gt;Node4 -->
<g id="edge31" class="edge"><title>Node1&#45;&gt;Node4</title>
<path fill="none" stroke="midnightblue" d="M237.313,-287.998C181.451,-285.282 55.2026,-275.696 29,-244 0.365136,-209.362 49.995,-162.068 80.2438,-138.161"/>
<polygon fill="midnightblue" stroke="midnightblue" points="82.7345,-140.662 88.5411,-131.8 78.4755,-135.107 82.7345,-140.662"/>
</g>
<!-- Node6 -->
<g id="node6" class="node"><title>Node6</title>
<g id="a_node6"><a xlink:href="types_8hpp.html" target="_top" xlink:title="types.hpp">
<polygon fill="none" stroke="black" points="362.5,-56.5 362.5,-75.5 421.5,-75.5 421.5,-56.5 362.5,-56.5"/>
<text text-anchor="middle" x="392" y="-63.5" font-family="Helvetica,sans-Serif" font-size="10.00">types.hpp</text>
</a>
</g>
</g>
<!-- Node1&#45;&gt;Node6 -->
<g id="edge33" class="edge"><title>Node1&#45;&gt;Node6</title>
<path fill="none" stroke="midnightblue" d="M290.819,-285.035C353.019,-274.141 505.277,-237.22 551,-132 554.543,-123.848 556.362,-119.09 551,-112 536.612,-92.975 473.828,-79.6789 431.592,-72.6964"/>
<polygon fill="midnightblue" stroke="midnightblue" points="432.029,-69.222 421.602,-71.0983 430.923,-76.1341 432.029,-69.222"/>
</g>
<!-- Node13 -->
<g id="node13" class="node"><title>Node13</title>
<g id="a_node13"><a xlink:href="context_8hpp.html" target="_top" xlink:title="context.hpp">
<polygon fill="none" stroke="black" points="64,-168.5 64,-187.5 132,-187.5 132,-168.5 64,-168.5"/>
<text text-anchor="middle" x="98" y="-175.5" font-family="Helvetica,sans-Serif" font-size="10.00">context.hpp</text>
</a>
</g>
</g>
<!-- Node1&#45;&gt;Node13 -->
<g id="edge30" class="edge"><title>Node1&#45;&gt;Node13</title>
<path fill="none" stroke="midnightblue" d="M250.974,-280.368C222.489,-261.492 154.417,-216.385 119.484,-193.237"/>
<polygon fill="midnightblue" stroke="midnightblue" points="121.235,-190.198 110.965,-187.591 117.368,-196.033 121.235,-190.198"/>
</g>
<!-- Node15 -->
<g id="node15" class="node"><title>Node15</title>
<g id="a_node15"><a xlink:href="exceptions_8hpp.html" target="_top" xlink:title="exceptions.hpp">
<polygon fill="none" stroke="black" points="458.5,-112.5 458.5,-131.5 541.5,-131.5 541.5,-112.5 458.5,-112.5"/>
<text text-anchor="middle" x="500" y="-119.5" font-family="Helvetica,sans-Serif" font-size="10.00">exceptions.hpp</text>
</a>
</g>
</g>
<!-- Node1&#45;&gt;Node15 -->
<g id="edge32" class="edge"><title>Node1&#45;&gt;Node15</title>
<path fill="none" stroke="midnightblue" d="M290.517,-282.265C333.401,-270.142 418.37,-240.855 470,-188 482.734,-174.964 490.723,-155.538 495.224,-141.318"/>
<polygon fill="midnightblue" stroke="midnightblue" points="498.604,-142.229 498.008,-131.651 491.877,-140.292 498.604,-142.229"/>
</g>
<!-- Node18 -->
<g id="node18" class="node"><title>Node18</title>
<g id="a_node18"><a xlink:href="help__printer__iface_8hpp.html" target="_top" xlink:title="help_printer_iface.hpp">
<polygon fill="none" stroke="black" points="38,-224.5 38,-243.5 150,-243.5 150,-224.5 38,-224.5"/>
<text text-anchor="middle" x="94" y="-231.5" font-family="Helvetica,sans-Serif" font-size="10.00">help_printer_iface.hpp</text>
</a>
</g>
</g>
<!-- Node1&#45;&gt;Node18 -->
<g id="edge28" class="edge"><title>Node1&#45;&gt;Node18</title>
<path fill="none" stroke="midnightblue" d="M237.438,-280.562C208.788,-271.462 162.97,-256.908 130.847,-246.704"/>
<polygon fill="midnightblue" stroke="midnightblue" points="131.527,-243.248 120.937,-243.556 129.408,-249.92 131.527,-243.248"/>
</g>
<!-- Node19 -->
<g id="node19" class="node"><title>Node19</title>
<polygon fill="none" stroke="#bfbfbf" points="598,-224.5 598,-243.5 650,-243.5 650,-224.5 598,-224.5"/>
<text text-anchor="middle" x="624" y="-231.5" font-family="Helvetica,sans-Serif" font-size="10.00">memory</text>
</g>
<!-- Node1&#45;&gt;Node19 -->
<g id="edge34" class="edge"><title>Node1&#45;&gt;Node19</title>
<path fill="none" stroke="midnightblue" d="M290.668,-285.996C345.715,-279.632 475.826,-263.741 584,-244 585.26,-243.77 586.541,-243.528 587.834,-243.276"/>
<polygon fill="midnightblue" stroke="midnightblue" points="588.728,-246.666 597.813,-241.214 587.311,-239.81 588.728,-246.666"/>
</g>
<!-- Node3 -->
<g id="node3" class="node"><title>Node3</title>
<g id="a_node3"><a xlink:href="arg__iface_8hpp.html" target="_top" xlink:title="arg_iface.hpp">
<polygon fill="none" stroke="black" points="226.5,-168.5 226.5,-187.5 301.5,-187.5 301.5,-168.5 226.5,-168.5"/>
<text text-anchor="middle" x="264" y="-175.5" font-family="Helvetica,sans-Serif" font-size="10.00">arg_iface.hpp</text>
</a>
</g>
</g>
<!-- Node2&#45;&gt;Node3 -->
<g id="edge2" class="edge"><title>Node2&#45;&gt;Node3</title>
<path fill="none" stroke="midnightblue" d="M264,-224.083C264,-217.006 264,-206.861 264,-197.986"/>
<polygon fill="midnightblue" stroke="midnightblue" points="267.5,-197.751 264,-187.751 260.5,-197.751 267.5,-197.751"/>
</g>
<!-- Node2&#45;&gt;Node4 -->
<g id="edge13" class="edge"><title>Node2&#45;&gt;Node4</title>
<path fill="none" stroke="midnightblue" d="M247.013,-224.409C230.509,-215.84 204.944,-201.974 184,-188 160.404,-172.256 134.957,-151.752 118.549,-138.021"/>
<polygon fill="midnightblue" stroke="midnightblue" points="120.749,-135.297 110.85,-131.519 116.232,-140.645 120.749,-135.297"/>
</g>
<!-- Node2&#45;&gt;Node6 -->
<g id="edge26" class="edge"><title>Node2&#45;&gt;Node6</title>
<path fill="none" stroke="midnightblue" d="M288.756,-233.65C322.715,-233.031 382.748,-226.195 411,-188 433.774,-157.212 415.102,-109.859 402.027,-84.485"/>
<polygon fill="midnightblue" stroke="midnightblue" points="405.07,-82.7543 397.226,-75.6323 398.917,-86.0914 405.07,-82.7543"/>
</g>
<!-- Node10 -->
<g id="node10" class="node"><title>Node10</title>
<polygon fill="none" stroke="#bfbfbf" points="140,-56.5 140,-75.5 196,-75.5 196,-56.5 140,-56.5"/>
<text text-anchor="middle" x="168" y="-63.5" font-family="Helvetica,sans-Serif" font-size="10.00">algorithm</text>
</g>
<!-- Node2&#45;&gt;Node10 -->
<g id="edge27" class="edge"><title>Node2&#45;&gt;Node10</title>
<path fill="none" stroke="midnightblue" d="M252.616,-224.442C242.181,-216.105 226.892,-202.585 217,-188 194.606,-154.98 179.84,-110.156 172.801,-85.3758"/>
<polygon fill="midnightblue" stroke="midnightblue" points="176.119,-84.2415 170.11,-75.5153 169.366,-86.0839 176.119,-84.2415"/>
</g>
<!-- Node2&#45;&gt;Node13 -->
<g id="edge14" class="edge"><title>Node2&#45;&gt;Node13</title>
<path fill="none" stroke="midnightblue" d="M239.148,-224.916C211.318,-215.862 165.96,-201.107 134.193,-190.773"/>
<polygon fill="midnightblue" stroke="midnightblue" points="134.988,-187.352 124.396,-187.587 132.822,-194.008 134.988,-187.352"/>
</g>
<!-- Node2&#45;&gt;Node15 -->
<g id="edge18" class="edge"><title>Node2&#45;&gt;Node15</title>
<path fill="none" stroke="midnightblue" d="M288.516,-231.552C324.937,-228.419 394.366,-218.589 444,-188 463.348,-176.076 479.525,-155.276 489.439,-140.416"/>
<polygon fill="midnightblue" stroke="midnightblue" points="492.595,-141.975 495.019,-131.662 486.692,-138.213 492.595,-141.975"/>
</g>
<!-- Node17 -->
<g id="node17" class="node"><title>Node17</title>
<g id="a_node17"><a xlink:href="value__utils_8hpp.html" target="_top" xlink:title="value_utils.hpp">
<polygon fill="none" stroke="black" points="320,-168.5 320,-187.5 402,-187.5 402,-168.5 320,-168.5"/>
<text text-anchor="middle" x="361" y="-175.5" font-family="Helvetica,sans-Serif" font-size="10.00">value_utils.hpp</text>
</a>
</g>
</g>
<!-- Node2&#45;&gt;Node17 -->
<g id="edge21" class="edge"><title>Node2&#45;&gt;Node17</title>
<path fill="none" stroke="midnightblue" d="M279.585,-224.324C294.999,-215.743 318.812,-202.486 336.71,-192.522"/>
<polygon fill="midnightblue" stroke="midnightblue" points="338.419,-195.577 345.454,-187.655 335.014,-189.461 338.419,-195.577"/>
</g>
<!-- Node3&#45;&gt;Node4 -->
<g id="edge3" class="edge"><title>Node3&#45;&gt;Node4</title>
<path fill="none" stroke="midnightblue" d="M238.172,-168.444C210.751,-159.359 167.223,-144.939 136.568,-134.783"/>
<polygon fill="midnightblue" stroke="midnightblue" points="137.3,-131.339 126.707,-131.516 135.099,-137.984 137.3,-131.339"/>
</g>
<!-- Node3&#45;&gt;Node6 -->
<g id="edge11" class="edge"><title>Node3&#45;&gt;Node6</title>
<path fill="none" stroke="midnightblue" d="M274.044,-168.368C295.728,-149.733 347.162,-105.532 374.39,-82.1338"/>
<polygon fill="midnightblue" stroke="midnightblue" points="376.7,-84.7636 382.003,-75.5914 372.137,-79.4546 376.7,-84.7636"/>
</g>
<!-- Node12 -->
<g id="node12" class="node"><title>Node12</title>
<g id="a_node12"><a xlink:href="enums_8hpp.html" target="_top" xlink:title="enums.hpp">
<polygon fill="none" stroke="black" points="222.5,-112.5 222.5,-131.5 287.5,-131.5 287.5,-112.5 222.5,-112.5"/>
<text text-anchor="middle" x="255" y="-119.5" font-family="Helvetica,sans-Serif" font-size="10.00">enums.hpp</text>
</a>
</g>
</g>
<!-- Node3&#45;&gt;Node12 -->
<g id="edge12" class="edge"><title>Node3&#45;&gt;Node12</title>
<path fill="none" stroke="midnightblue" d="M262.514,-168.083C261.321,-160.927 259.606,-150.635 258.115,-141.691"/>
<polygon fill="midnightblue" stroke="midnightblue" points="261.555,-141.04 256.459,-131.751 254.65,-142.19 261.555,-141.04"/>
</g>
<!-- Node5 -->
<g id="node5" class="node"><title>Node5</title>
<polygon fill="none" stroke="#bfbfbf" points="80.5,-56.5 80.5,-75.5 121.5,-75.5 121.5,-56.5 80.5,-56.5"/>
<text text-anchor="middle" x="101" y="-63.5" font-family="Helvetica,sans-Serif" font-size="10.00">regex</text>
</g>
<!-- Node4&#45;&gt;Node5 -->
<g id="edge4" class="edge"><title>Node4&#45;&gt;Node5</title>
<path fill="none" stroke="midnightblue" d="M101,-112.083C101,-105.006 101,-94.8611 101,-85.9865"/>
<polygon fill="midnightblue" stroke="midnightblue" points="104.5,-85.751 101,-75.7511 97.5001,-85.7511 104.5,-85.751"/>
</g>
<!-- Node4&#45;&gt;Node6 -->
<g id="edge5" class="edge"><title>Node4&#45;&gt;Node6</title>
<path fill="none" stroke="midnightblue" d="M127.596,-116.065C178.925,-106.54 291.892,-85.5767 352.208,-74.3841"/>
<polygon fill="midnightblue" stroke="midnightblue" points="352.932,-77.8096 362.125,-72.5438 351.655,-70.9271 352.932,-77.8096"/>
</g>
<!-- Node4&#45;&gt;Node10 -->
<g id="edge9" class="edge"><title>Node4&#45;&gt;Node10</title>
<path fill="none" stroke="midnightblue" d="M111.765,-112.324C121.766,-104.263 136.887,-92.0765 148.93,-82.3695"/>
<polygon fill="midnightblue" stroke="midnightblue" points="151.45,-84.8343 157.039,-75.8339 147.057,-79.3841 151.45,-84.8343"/>
</g>
<!-- Node11 -->
<g id="node11" class="node"><title>Node11</title>
<polygon fill="none" stroke="#bfbfbf" points="0,-56.5 0,-75.5 62,-75.5 62,-56.5 0,-56.5"/>
<text text-anchor="middle" x="31" y="-63.5" font-family="Helvetica,sans-Serif" font-size="10.00">type_traits</text>
</g>
<!-- Node4&#45;&gt;Node11 -->
<g id="edge10" class="edge"><title>Node4&#45;&gt;Node11</title>
<path fill="none" stroke="midnightblue" d="M89.7533,-112.324C79.2026,-104.185 63.1993,-91.8395 50.5578,-82.0874"/>
<polygon fill="midnightblue" stroke="midnightblue" points="52.507,-79.1707 42.4513,-75.8339 48.2314,-84.7132 52.507,-79.1707"/>
</g>
<!-- Node7 -->
<g id="node7" class="node"><title>Node7</title>
<polygon fill="none" stroke="#bfbfbf" points="305.5,-0.5 305.5,-19.5 346.5,-19.5 346.5,-0.5 305.5,-0.5"/>
<text text-anchor="middle" x="326" y="-7.5" font-family="Helvetica,sans-Serif" font-size="10.00">string</text>
</g>
<!-- Node6&#45;&gt;Node7 -->
<g id="edge6" class="edge"><title>Node6&#45;&gt;Node7</title>
<path fill="none" stroke="midnightblue" d="M381.396,-56.324C371.544,-48.2631 356.649,-36.0765 344.785,-26.3695"/>
<polygon fill="midnightblue" stroke="midnightblue" points="346.753,-23.4575 336.797,-19.8339 342.32,-28.8752 346.753,-23.4575"/>
</g>
<!-- Node8 -->
<g id="node8" class="node"><title>Node8</title>
<polygon fill="none" stroke="#bfbfbf" points="365,-0.5 365,-19.5 419,-19.5 419,-0.5 365,-0.5"/>
<text text-anchor="middle" x="392" y="-7.5" font-family="Helvetica,sans-Serif" font-size="10.00">iostream</text>
</g>
<!-- Node6&#45;&gt;Node8 -->
<g id="edge7" class="edge"><title>Node6&#45;&gt;Node8</title>
<path fill="none" stroke="midnightblue" d="M392,-56.083C392,-49.0059 392,-38.8611 392,-29.9865"/>
<polygon fill="midnightblue" stroke="midnightblue" points="395.5,-29.751 392,-19.7511 388.5,-29.7511 395.5,-29.751"/>
</g>
<!-- Node9 -->
<g id="node9" class="node"><title>Node9</title>
<polygon fill="none" stroke="#bfbfbf" points="437,-0.5 437,-19.5 481,-19.5 481,-0.5 437,-0.5"/>
<text text-anchor="middle" x="459" y="-7.5" font-family="Helvetica,sans-Serif" font-size="10.00">vector</text>
</g>
<!-- Node6&#45;&gt;Node9 -->
<g id="edge8" class="edge"><title>Node6&#45;&gt;Node9</title>
<path fill="none" stroke="midnightblue" d="M402.765,-56.324C412.766,-48.2631 427.887,-36.0765 439.93,-26.3695"/>
<polygon fill="midnightblue" stroke="midnightblue" points="442.45,-28.8343 448.039,-19.8339 438.057,-23.3841 442.45,-28.8343"/>
</g>
<!-- Node13&#45;&gt;Node4 -->
<g id="edge16" class="edge"><title>Node13&#45;&gt;Node4</title>
<path fill="none" stroke="midnightblue" d="M98.4954,-168.083C98.8886,-161.006 99.4522,-150.861 99.9452,-141.986"/>
<polygon fill="midnightblue" stroke="midnightblue" points="103.454,-141.93 100.514,-131.751 96.4644,-141.542 103.454,-141.93"/>
</g>
<!-- Node13&#45;&gt;Node6 -->
<g id="edge17" class="edge"><title>Node13&#45;&gt;Node6</title>
<path fill="none" stroke="midnightblue" d="M110.54,-168.409C131.091,-154.682 173.605,-127.752 213,-112 259.37,-93.4594 315.621,-80.8155 352.538,-73.7601"/>
<polygon fill="midnightblue" stroke="midnightblue" points="353.224,-77.1925 362.413,-71.9181 351.941,-70.3112 353.224,-77.1925"/>
</g>
<!-- Node14 -->
<g id="node14" class="node"><title>Node14</title>
<polygon fill="none" stroke="#bfbfbf" points="16,-112.5 16,-131.5 56,-131.5 56,-112.5 16,-112.5"/>
<text text-anchor="middle" x="36" y="-119.5" font-family="Helvetica,sans-Serif" font-size="10.00">utility</text>
</g>
<!-- Node13&#45;&gt;Node14 -->
<g id="edge15" class="edge"><title>Node13&#45;&gt;Node14</title>
<path fill="none" stroke="midnightblue" d="M88.0386,-168.324C78.8734,-160.341 65.0628,-148.313 53.9718,-138.653"/>
<polygon fill="midnightblue" stroke="midnightblue" points="55.9822,-135.762 46.1426,-131.834 51.3847,-141.041 55.9822,-135.762"/>
</g>
<!-- Node15&#45;&gt;Node6 -->
<g id="edge20" class="edge"><title>Node15&#45;&gt;Node6</title>
<path fill="none" stroke="midnightblue" d="M482.648,-112.324C465.328,-103.664 438.485,-90.2424 418.498,-80.249"/>
<polygon fill="midnightblue" stroke="midnightblue" points="419.819,-76.9962 409.309,-75.6545 416.688,-83.2572 419.819,-76.9962"/>
</g>
<!-- Node16 -->
<g id="node16" class="node"><title>Node16</title>
<polygon fill="none" stroke="#bfbfbf" points="470.5,-56.5 470.5,-75.5 529.5,-75.5 529.5,-56.5 470.5,-56.5"/>
<text text-anchor="middle" x="500" y="-63.5" font-family="Helvetica,sans-Serif" font-size="10.00">stdexcept</text>
</g>
<!-- Node15&#45;&gt;Node16 -->
<g id="edge19" class="edge"><title>Node15&#45;&gt;Node16</title>
<path fill="none" stroke="midnightblue" d="M500,-112.083C500,-105.006 500,-94.8611 500,-85.9865"/>
<polygon fill="midnightblue" stroke="midnightblue" points="503.5,-85.751 500,-75.7511 496.5,-85.7511 503.5,-85.751"/>
</g>
<!-- Node17&#45;&gt;Node4 -->
<g id="edge22" class="edge"><title>Node17&#45;&gt;Node4</title>
<path fill="none" stroke="midnightblue" d="M319.802,-168.444C269.643,-158.026 185.699,-140.591 137.679,-130.618"/>
<polygon fill="midnightblue" stroke="midnightblue" points="138.219,-127.156 127.716,-128.549 136.796,-134.009 138.219,-127.156"/>
</g>
<!-- Node17&#45;&gt;Node6 -->
<g id="edge24" class="edge"><title>Node17&#45;&gt;Node6</title>
<path fill="none" stroke="midnightblue" d="M363.433,-168.368C368.458,-150.537 380.08,-109.295 386.851,-85.2717"/>
<polygon fill="midnightblue" stroke="midnightblue" points="390.235,-86.1659 389.579,-75.5914 383.497,-84.2671 390.235,-86.1659"/>
</g>
<!-- Node17&#45;&gt;Node10 -->
<g id="edge25" class="edge"><title>Node17&#45;&gt;Node10</title>
<path fill="none" stroke="midnightblue" d="M354.365,-168.179C343.558,-154.377 320.852,-127.641 296,-112 268.07,-94.4216 232.373,-82.6057 205.777,-75.5099"/>
<polygon fill="midnightblue" stroke="midnightblue" points="206.62,-72.113 196.064,-73.0193 204.881,-78.8936 206.62,-72.113"/>
</g>
<!-- Node17&#45;&gt;Node15 -->
<g id="edge23" class="edge"><title>Node17&#45;&gt;Node15</title>
<path fill="none" stroke="midnightblue" d="M383.025,-168.444C406.104,-159.478 442.562,-145.314 468.641,-135.183"/>
<polygon fill="midnightblue" stroke="midnightblue" points="470.024,-138.4 478.078,-131.516 467.489,-131.875 470.024,-138.4"/>
</g>
<!-- Node18&#45;&gt;Node4 -->
<g id="edge29" class="edge"><title>Node18&#45;&gt;Node4</title>
<path fill="none" stroke="midnightblue" d="M82.3234,-224.179C67.8204,-212.066 46.0189,-189.35 55,-168 60.0258,-156.053 69.9437,-145.692 79.2875,-137.934"/>
<polygon fill="midnightblue" stroke="midnightblue" points="81.4392,-140.694 87.2135,-131.811 77.16,-135.155 81.4392,-140.694"/>
</g>
</g>
</svg>
