<?xml version="1.0" encoding="UTF-8" standalone="no"?>
<!DOCTYPE svg PUBLIC "-//W3C//DTD SVG 1.1//EN"
 "http://www.w3.org/Graphics/SVG/1.1/DTD/svg11.dtd">
<!-- Generated by graphviz version 2.40.1 (20161225.0304)
 -->
<!-- Title: help_printer_iface.hpp Pages: 1 -->
<svg width="215pt" height="252pt"
 viewBox="0.00 0.00 214.50 252.00" xmlns="http://www.w3.org/2000/svg" xmlns:xlink="http://www.w3.org/1999/xlink">
<g id="graph0" class="graph" transform="scale(1 1) rotate(0) translate(4 248)">
<title>help_printer_iface.hpp</title>
<!-- Node9 -->
<g id="node1" class="node">
<title>Node9</title>
<polygon fill="#bfbfbf" stroke="#000000" points="63.5,-224.5 63.5,-243.5 175.5,-243.5 175.5,-224.5 63.5,-224.5"/>
<text text-anchor="middle" x="119.5" y="-231.5" font-family="Helvetica,sans-Serif" font-size="10.00" fill="#000000">help_printer_iface.hpp</text>
</g>
<!-- Node10 -->
<g id="node2" class="node">
<title>Node10</title>
<g id="a_node2"><a xlink:href="help_8hpp.html" target="_top" xlink:title="help.hpp">
<polygon fill="none" stroke="#000000" points="49,-168.5 49,-187.5 102,-187.5 102,-168.5 49,-168.5"/>
<text text-anchor="middle" x="75.5" y="-175.5" font-family="Helvetica,sans-Serif" font-size="10.00" fill="#000000">help.hpp</text>
</a>
</g>
</g>
<!-- Node9&#45;&gt;Node10 -->
<g id="edge1" class="edge">
<title>Node9&#45;&gt;Node10</title>
<path fill="none" stroke="#191970" d="M105.5231,-216.2112C98.0871,-206.7472 89.234,-195.4797 83.0764,-187.6427"/>
<polygon fill="#191970" stroke="#191970" points="102.9054,-218.5447 111.8358,-224.2455 108.4097,-214.22 102.9054,-218.5447"/>
</g>
<!-- Node15 -->
<g id="node7" class="node">
<title>Node15</title>
<g id="a_node7"><a xlink:href="help__printer_8hpp.html" target="_top" xlink:title="help_printer.hpp">
<polygon fill="none" stroke="#000000" points="120.5,-168.5 120.5,-187.5 206.5,-187.5 206.5,-168.5 120.5,-168.5"/>
<text text-anchor="middle" x="163.5" y="-175.5" font-family="Helvetica,sans-Serif" font-size="10.00" fill="#000000">help_printer.hpp</text>
</a>
</g>
</g>
<!-- Node9&#45;&gt;Node15 -->
<g id="edge7" class="edge">
<title>Node9&#45;&gt;Node15</title>
<path fill="none" stroke="#191970" d="M133.4769,-216.2112C140.9129,-206.7472 149.766,-195.4797 155.9236,-187.6427"/>
<polygon fill="#191970" stroke="#191970" points="130.5903,-214.22 127.1642,-224.2455 136.0946,-218.5447 130.5903,-214.22"/>
</g>
<!-- Node11 -->
<g id="node3" class="node">
<title>Node11</title>
<g id="a_node3"><a xlink:href="cmd__line_8hpp.html" target="_top" xlink:title="cmd_line.hpp">
<polygon fill="none" stroke="#000000" points="82.5,-112.5 82.5,-131.5 156.5,-131.5 156.5,-112.5 82.5,-112.5"/>
<text text-anchor="middle" x="119.5" y="-119.5" font-family="Helvetica,sans-Serif" font-size="10.00" fill="#000000">cmd_line.hpp</text>
</a>
</g>
</g>
<!-- Node10&#45;&gt;Node11 -->
<g id="edge2" class="edge">
<title>Node10&#45;&gt;Node11</title>
<path fill="none" stroke="#191970" d="M89.4769,-160.2112C96.9129,-150.7472 105.766,-139.4797 111.9236,-131.6427"/>
<polygon fill="#191970" stroke="#191970" points="86.5903,-158.22 83.1642,-168.2455 92.0946,-162.5447 86.5903,-158.22"/>
</g>
<!-- Node12 -->
<g id="node4" class="node">
<title>Node12</title>
<g id="a_node4"><a xlink:href="all_8hpp.html" target="_top" xlink:title="all.hpp">
<polygon fill="none" stroke="#000000" points="0,-56.5 0,-75.5 45,-75.5 45,-56.5 0,-56.5"/>
<text text-anchor="middle" x="22.5" y="-63.5" font-family="Helvetica,sans-Serif" font-size="10.00" fill="#000000">all.hpp</text>
</a>
</g>
</g>
<!-- Node11&#45;&gt;Node12 -->
<g id="edge3" class="edge">
<title>Node11&#45;&gt;Node12</title>
<path fill="none" stroke="#191970" d="M93.5984,-107.0465C76.3391,-97.0824 54.1624,-84.2794 39.2025,-75.6427"/>
<polygon fill="#191970" stroke="#191970" points="92.1936,-110.2768 102.6039,-112.2455 95.6935,-104.2146 92.1936,-110.2768"/>
</g>
<!-- Node13 -->
<g id="node5" class="node">
<title>Node13</title>
<g id="a_node5"><a xlink:href="arg__as__command_8hpp.html" target="_top" xlink:title="arg_as_command.hpp">
<polygon fill="none" stroke="#000000" points="63,-56.5 63,-75.5 176,-75.5 176,-56.5 63,-56.5"/>
<text text-anchor="middle" x="119.5" y="-63.5" font-family="Helvetica,sans-Serif" font-size="10.00" fill="#000000">arg_as_command.hpp</text>
</a>
</g>
</g>
<!-- Node11&#45;&gt;Node13 -->
<g id="edge4" class="edge">
<title>Node11&#45;&gt;Node13</title>
<path fill="none" stroke="#191970" d="M119.5,-102.1575C119.5,-93.155 119.5,-82.9199 119.5,-75.6427"/>
<polygon fill="#191970" stroke="#191970" points="116.0001,-102.2455 119.5,-112.2455 123.0001,-102.2456 116.0001,-102.2455"/>
</g>
<!-- Node14 -->
<g id="node6" class="node">
<title>Node14</title>
<g id="a_node6"><a xlink:href="api_8hpp.html" target="_top" xlink:title="api.hpp">
<polygon fill="none" stroke="#000000" points="137.5,-.5 137.5,-19.5 185.5,-19.5 185.5,-.5 137.5,-.5"/>
<text text-anchor="middle" x="161.5" y="-7.5" font-family="Helvetica,sans-Serif" font-size="10.00" fill="#000000">api.hpp</text>
</a>
</g>
</g>
<!-- Node13&#45;&gt;Node14 -->
<g id="edge5" class="edge">
<title>Node13&#45;&gt;Node14</title>
<path fill="none" stroke="#191970" d="M132.8416,-48.2112C139.9396,-38.7472 148.3903,-27.4797 154.268,-19.6427"/>
<polygon fill="#191970" stroke="#191970" points="130.0159,-46.1455 126.8158,-56.2455 135.6159,-50.3455 130.0159,-46.1455"/>
</g>
<!-- Node14&#45;&gt;Node11 -->
<g id="edge6" class="edge">
<title>Node14&#45;&gt;Node11</title>
<path fill="none" stroke="#191970" d="M175.6485,-28.2176C184.3626,-41.8009 192.4737,-60.5887 184.5,-76 175.7331,-92.9445 157.5298,-104.9878 142.6112,-112.4901"/>
<polygon fill="#191970" stroke="#191970" points="178.3175,-25.9276 169.7096,-19.7507 172.5867,-29.9474 178.3175,-25.9276"/>
</g>
<!-- Node15&#45;&gt;Node11 -->
<g id="edge8" class="edge">
<title>Node15&#45;&gt;Node11</title>
<path fill="none" stroke="#191970" d="M149.5231,-160.2112C142.0871,-150.7472 133.234,-139.4797 127.0764,-131.6427"/>
<polygon fill="#191970" stroke="#191970" points="146.9054,-162.5447 155.8358,-168.2455 152.4097,-158.22 146.9054,-162.5447"/>
</g>
</g>
</svg>
