<?xml version="1.0" encoding="UTF-8" standalone="no"?>
<!DOCTYPE svg PUBLIC "-//W3C//DTD SVG 1.1//EN"
 "http://www.w3.org/Graphics/SVG/1.1/DTD/svg11.dtd">
<!-- Generated by graphviz version 2.38.0 (20140413.2041)
 -->
<!-- Title: help_printer_iface.hpp Pages: 1 -->
<svg width="281pt" height="196pt"
 viewBox="0.00 0.00 280.50 196.00" xmlns="http://www.w3.org/2000/svg" xmlns:xlink="http://www.w3.org/1999/xlink">
<g id="graph0" class="graph" transform="scale(1 1) rotate(0) translate(4 192)">
<title>help_printer_iface.hpp</title>
<!-- Node1 -->
<g id="node1" class="node"><title>Node1</title>
<polygon fill="#bfbfbf" stroke="black" points="70.5,-168.5 70.5,-187.5 182.5,-187.5 182.5,-168.5 70.5,-168.5"/>
<text text-anchor="middle" x="126.5" y="-175.5" font-family="Helvetica,sans-Serif" font-size="10.00">help_printer_iface.hpp</text>
</g>
<!-- Node2 -->
<g id="node2" class="node"><title>Node2</title>
<g id="a_node2"><a xlink:href="utils_8hpp.html" target="_top" xlink:title="utils.hpp">
<polygon fill="none" stroke="black" points="100,-112.5 100,-131.5 153,-131.5 153,-112.5 100,-112.5"/>
<text text-anchor="middle" x="126.5" y="-119.5" font-family="Helvetica,sans-Serif" font-size="10.00">utils.hpp</text>
</a>
</g>
</g>
<!-- Node1&#45;&gt;Node2 -->
<g id="edge1" class="edge"><title>Node1&#45;&gt;Node2</title>
<path fill="none" stroke="midnightblue" d="M126.5,-168.083C126.5,-161.006 126.5,-150.861 126.5,-141.986"/>
<polygon fill="midnightblue" stroke="midnightblue" points="130,-141.751 126.5,-131.751 123,-141.751 130,-141.751"/>
</g>
<!-- Node3 -->
<g id="node3" class="node"><title>Node3</title>
<polygon fill="none" stroke="#bfbfbf" points="0,-56.5 0,-75.5 41,-75.5 41,-56.5 0,-56.5"/>
<text text-anchor="middle" x="20.5" y="-63.5" font-family="Helvetica,sans-Serif" font-size="10.00">regex</text>
</g>
<!-- Node2&#45;&gt;Node3 -->
<g id="edge2" class="edge"><title>Node2&#45;&gt;Node3</title>
<path fill="none" stroke="midnightblue" d="M109.469,-112.324C92.4702,-103.664 66.1239,-90.2424 46.5074,-80.249"/>
<polygon fill="midnightblue" stroke="midnightblue" points="47.9876,-77.0752 37.4885,-75.6545 44.8101,-83.3125 47.9876,-77.0752"/>
</g>
<!-- Node4 -->
<g id="node4" class="node"><title>Node4</title>
<g id="a_node4"><a xlink:href="types_8hpp.html" target="_top" xlink:title="types.hpp">
<polygon fill="none" stroke="black" points="59,-56.5 59,-75.5 118,-75.5 118,-56.5 59,-56.5"/>
<text text-anchor="middle" x="88.5" y="-63.5" font-family="Helvetica,sans-Serif" font-size="10.00">types.hpp</text>
</a>
</g>
</g>
<!-- Node2&#45;&gt;Node4 -->
<g id="edge3" class="edge"><title>Node2&#45;&gt;Node4</title>
<path fill="none" stroke="midnightblue" d="M120.225,-112.083C114.858,-104.455 106.982,-93.2645 100.421,-83.9408"/>
<polygon fill="midnightblue" stroke="midnightblue" points="103.275,-81.9149 94.6582,-75.7511 97.5508,-85.9434 103.275,-81.9149"/>
</g>
<!-- Node8 -->
<g id="node8" class="node"><title>Node8</title>
<polygon fill="none" stroke="#bfbfbf" points="136.5,-56.5 136.5,-75.5 192.5,-75.5 192.5,-56.5 136.5,-56.5"/>
<text text-anchor="middle" x="164.5" y="-63.5" font-family="Helvetica,sans-Serif" font-size="10.00">algorithm</text>
</g>
<!-- Node2&#45;&gt;Node8 -->
<g id="edge7" class="edge"><title>Node2&#45;&gt;Node8</title>
<path fill="none" stroke="midnightblue" d="M132.775,-112.083C138.142,-104.455 146.018,-93.2645 152.579,-83.9408"/>
<polygon fill="midnightblue" stroke="midnightblue" points="155.449,-85.9434 158.342,-75.7511 149.725,-81.9149 155.449,-85.9434"/>
</g>
<!-- Node9 -->
<g id="node9" class="node"><title>Node9</title>
<polygon fill="none" stroke="#bfbfbf" points="210.5,-56.5 210.5,-75.5 272.5,-75.5 272.5,-56.5 210.5,-56.5"/>
<text text-anchor="middle" x="241.5" y="-63.5" font-family="Helvetica,sans-Serif" font-size="10.00">type_traits</text>
</g>
<!-- Node2&#45;&gt;Node9 -->
<g id="edge8" class="edge"><title>Node2&#45;&gt;Node9</title>
<path fill="none" stroke="midnightblue" d="M144.722,-112.444C163.396,-103.675 192.656,-89.9355 214.117,-79.8579"/>
<polygon fill="midnightblue" stroke="midnightblue" points="215.799,-82.935 223.363,-75.5164 212.824,-76.5988 215.799,-82.935"/>
</g>
<!-- Node5 -->
<g id="node5" class="node"><title>Node5</title>
<polygon fill="none" stroke="#bfbfbf" points="2,-0.5 2,-19.5 43,-19.5 43,-0.5 2,-0.5"/>
<text text-anchor="middle" x="22.5" y="-7.5" font-family="Helvetica,sans-Serif" font-size="10.00">string</text>
</g>
<!-- Node4&#45;&gt;Node5 -->
<g id="edge4" class="edge"><title>Node4&#45;&gt;Node5</title>
<path fill="none" stroke="midnightblue" d="M77.896,-56.324C68.0438,-48.2631 53.1491,-36.0765 41.2849,-26.3695"/>
<polygon fill="midnightblue" stroke="midnightblue" points="43.2529,-23.4575 33.297,-19.8339 38.8202,-28.8752 43.2529,-23.4575"/>
</g>
<!-- Node6 -->
<g id="node6" class="node"><title>Node6</title>
<polygon fill="none" stroke="#bfbfbf" points="61.5,-0.5 61.5,-19.5 115.5,-19.5 115.5,-0.5 61.5,-0.5"/>
<text text-anchor="middle" x="88.5" y="-7.5" font-family="Helvetica,sans-Serif" font-size="10.00">iostream</text>
</g>
<!-- Node4&#45;&gt;Node6 -->
<g id="edge5" class="edge"><title>Node4&#45;&gt;Node6</title>
<path fill="none" stroke="midnightblue" d="M88.5,-56.083C88.5,-49.0059 88.5,-38.8611 88.5,-29.9865"/>
<polygon fill="midnightblue" stroke="midnightblue" points="92.0001,-29.751 88.5,-19.7511 85.0001,-29.7511 92.0001,-29.751"/>
</g>
<!-- Node7 -->
<g id="node7" class="node"><title>Node7</title>
<polygon fill="none" stroke="#bfbfbf" points="133.5,-0.5 133.5,-19.5 177.5,-19.5 177.5,-0.5 133.5,-0.5"/>
<text text-anchor="middle" x="155.5" y="-7.5" font-family="Helvetica,sans-Serif" font-size="10.00">vector</text>
</g>
<!-- Node4&#45;&gt;Node7 -->
<g id="edge6" class="edge"><title>Node4&#45;&gt;Node7</title>
<path fill="none" stroke="midnightblue" d="M99.2647,-56.324C109.266,-48.2631 124.387,-36.0765 136.43,-26.3695"/>
<polygon fill="midnightblue" stroke="midnightblue" points="138.95,-28.8343 144.539,-19.8339 134.557,-23.3841 138.95,-28.8343"/>
</g>
</g>
</svg>
