<?xml version="1.0" encoding="UTF-8" standalone="no"?>
<!DOCTYPE svg PUBLIC "-//W3C//DTD SVG 1.1//EN"
 "http://www.w3.org/Graphics/SVG/1.1/DTD/svg11.dtd">
<!-- Generated by graphviz version 2.40.1 (20161225.0304)
 -->
<!-- Title: help.hpp Pages: 1 -->
<!--zoomable 308 -->
<svg id="main" version="1.1" xmlns="http://www.w3.org/2000/svg" xmlns:xlink="http://www.w3.org/1999/xlink" xml:space="preserve" onload="init(evt)">
<style type="text/css"><![CDATA[
.edge:hover path { stroke: red; }
.edge:hover polygon { stroke: red; fill: red; }
]]></style>
<script type="text/javascript"><![CDATA[
var edges = document.getElementsByTagName('g');
if (edges && edges.length) {
  for (var i=0;i<edges.length;i++) {
    if (edges[i].id.substr(0,4)=='edge') {
      edges[i].setAttribute('class','edge');
    }
  }
}
]]></script>
        <defs>
                <circle id="rim" cx="0" cy="0" r="7"/>
                <circle id="rim2" cx="0" cy="0" r="3.5"/>
                <g id="zoomPlus">
                        <use xlink:href="#rim" fill="#404040">
                                <set attributeName="fill" to="#808080" begin="zoomplus.mouseover" end="zoomplus.mouseout"/>
                        </use>
                        <path d="M-4,0h8M0,-4v8" fill="none" stroke="white" stroke-width="1.5" pointer-events="none"/>
                </g>
                <g id="zoomMin">
                        <use xlink:href="#rim" fill="#404040">
                                <set attributeName="fill" to="#808080" begin="zoomminus.mouseover" end="zoomminus.mouseout"/>
                        </use>
                        <path d="M-4,0h8" fill="none" stroke="white" stroke-width="1.5" pointer-events="none"/>
                </g>
                <g id="dirArrow">
                        <path fill="none" stroke="white" stroke-width="1.5" d="M0,-3.0v7 M-2.5,-0.5L0,-3.0L2.5,-0.5"/>
                </g>
               <g id="resetDef">
                       <use xlink:href="#rim2" fill="#404040">
                               <set attributeName="fill" to="#808080" begin="reset.mouseover" end="reset.mouseout"/>
                       </use>
               </g>
        </defs>

<script type="text/javascript">
var viewWidth = 658;
var viewHeight = 308;
var sectionId = 'dynsection-0';
</script>
<script xlink:href="svgpan.js"/>
<svg id="graph" class="graph">
<g id="viewport">
<title>help.hpp</title>
<!-- Node0 -->
<g id="node1" class="node">
<title>Node0</title>
<polygon fill="#bfbfbf" stroke="#000000" points="237.5,-280.5 237.5,-299.5 290.5,-299.5 290.5,-280.5 237.5,-280.5"/>
<text text-anchor="middle" x="264" y="-287.5" font-family="Helvetica,sans-Serif" font-size="10.00" fill="#000000">help.hpp</text>
</g>
<!-- Node1 -->
<g id="node2" class="node">
<title>Node1</title>
<g id="a_node2"><a xlink:href="arg_8hpp.html" target="_top" xlink:title="arg.hpp">
<polygon fill="none" stroke="#000000" points="239.5,-224.5 239.5,-243.5 288.5,-243.5 288.5,-224.5 239.5,-224.5"/>
<text text-anchor="middle" x="264" y="-231.5" font-family="Helvetica,sans-Serif" font-size="10.00" fill="#000000">arg.hpp</text>
</a>
</g>
</g>
<!-- Node0&#45;&gt;Node1 -->
<g id="edge1" class="edge">
<title>Node0&#45;&gt;Node1</title>
<path fill="none" stroke="#191970" d="M264,-280.2455C264,-272.9382 264,-262.6944 264,-253.7046"/>
<polygon fill="#191970" stroke="#191970" points="267.5001,-253.6426 264,-243.6427 260.5001,-253.6427 267.5001,-253.6426"/>
</g>
<!-- Node3 -->
<g id="node4" class="node">
<title>Node3</title>
<g id="a_node4"><a xlink:href="utils_8hpp.html" target="_top" xlink:title="utils.hpp">
<polygon fill="none" stroke="#000000" points="74.5,-112.5 74.5,-131.5 127.5,-131.5 127.5,-112.5 74.5,-112.5"/>
<text text-anchor="middle" x="101" y="-119.5" font-family="Helvetica,sans-Serif" font-size="10.00" fill="#000000">utils.hpp</text>
</a>
</g>
</g>
<!-- Node0&#45;&gt;Node3 -->
<g id="edge31" class="edge">
<title>Node0&#45;&gt;Node3</title>
<path fill="none" stroke="#191970" d="M237.306,-288.8794C181.4313,-285.9155 55.1583,-275.7751 29,-244 .4241,-209.2882 49.3777,-161.9381 79.7039,-137.7014"/>
<polygon fill="#191970" stroke="#191970" points="81.9297,-140.4044 87.6835,-131.5081 77.6377,-134.8745 81.9297,-140.4044"/>
</g>
<!-- Node5 -->
<g id="node6" class="node">
<title>Node5</title>
<g id="a_node6"><a xlink:href="types_8hpp.html" target="_top" xlink:title="types.hpp">
<polygon fill="none" stroke="#000000" points="362.5,-56.5 362.5,-75.5 421.5,-75.5 421.5,-56.5 362.5,-56.5"/>
<text text-anchor="middle" x="392" y="-63.5" font-family="Helvetica,sans-Serif" font-size="10.00" fill="#000000">types.hpp</text>
</a>
</g>
</g>
<!-- Node0&#45;&gt;Node5 -->
<g id="edge33" class="edge">
<title>Node0&#45;&gt;Node5</title>
<path fill="none" stroke="#191970" d="M290.7523,-285.9159C352.8073,-274.7487 504.7756,-237.1847 551,-132 554.5762,-123.8622 556.3411,-119.1053 551,-112 536.6437,-92.9016 473.8502,-79.2054 431.6033,-71.9516"/>
<polygon fill="#191970" stroke="#191970" points="432.0498,-68.4779 421.611,-70.2893 430.901,-75.383 432.0498,-68.4779"/>
</g>
<!-- Node12 -->
<g id="node13" class="node">
<title>Node12</title>
<g id="a_node13"><a xlink:href="context_8hpp.html" target="_top" xlink:title="context.hpp">
<polygon fill="none" stroke="#000000" points="64,-168.5 64,-187.5 132,-187.5 132,-168.5 64,-168.5"/>
<text text-anchor="middle" x="98" y="-175.5" font-family="Helvetica,sans-Serif" font-size="10.00" fill="#000000">context.hpp</text>
</a>
</g>
</g>
<!-- Node0&#45;&gt;Node12 -->
<g id="edge30" class="edge">
<title>Node0&#45;&gt;Node12</title>
<path fill="none" stroke="#191970" d="M249.8469,-280.4509C221.0575,-261.0268 155.4632,-216.7703 120.6612,-193.2895"/>
<polygon fill="#191970" stroke="#191970" points="122.3645,-190.2166 112.1172,-187.5249 118.4493,-196.0193 122.3645,-190.2166"/>
</g>
<!-- Node14 -->
<g id="node15" class="node">
<title>Node14</title>
<g id="a_node15"><a xlink:href="exceptions_8hpp.html" target="_top" xlink:title="exceptions.hpp">
<polygon fill="none" stroke="#000000" points="458.5,-112.5 458.5,-131.5 541.5,-131.5 541.5,-112.5 458.5,-112.5"/>
<text text-anchor="middle" x="500" y="-119.5" font-family="Helvetica,sans-Serif" font-size="10.00" fill="#000000">exceptions.hpp</text>
</a>
</g>
</g>
<!-- Node0&#45;&gt;Node14 -->
<g id="edge32" class="edge">
<title>Node0&#45;&gt;Node14</title>
<path fill="none" stroke="#191970" d="M290.6953,-282.9492C333.4251,-270.4364 417.5885,-240.5858 469,-188 481.694,-175.016 489.8952,-155.862 494.653,-141.5283"/>
<polygon fill="#191970" stroke="#191970" points="498.0842,-142.2742 497.6376,-131.6888 491.3855,-140.2423 498.0842,-142.2742"/>
</g>
<!-- Node17 -->
<g id="node18" class="node">
<title>Node17</title>
<g id="a_node18"><a xlink:href="help__printer__iface_8hpp.html" target="_top" xlink:title="help_printer_iface.hpp">
<polygon fill="none" stroke="#000000" points="38,-224.5 38,-243.5 150,-243.5 150,-224.5 38,-224.5"/>
<text text-anchor="middle" x="94" y="-231.5" font-family="Helvetica,sans-Serif" font-size="10.00" fill="#000000">help_printer_iface.hpp</text>
</a>
</g>
</g>
<!-- Node0&#45;&gt;Node17 -->
<g id="edge28" class="edge">
<title>Node0&#45;&gt;Node17</title>
<path fill="none" stroke="#191970" d="M237.4375,-281.25C209.256,-271.9667 164.4639,-257.2116 132.4329,-246.6603"/>
<polygon fill="#191970" stroke="#191970" points="133.5275,-243.3359 122.9345,-243.5314 131.3373,-249.9844 133.5275,-243.3359"/>
</g>
<!-- Node18 -->
<g id="node19" class="node">
<title>Node18</title>
<polygon fill="none" stroke="#bfbfbf" points="598,-224.5 598,-243.5 650,-243.5 650,-224.5 598,-224.5"/>
<text text-anchor="middle" x="624" y="-231.5" font-family="Helvetica,sans-Serif" font-size="10.00" fill="#000000">memory</text>
</g>
<!-- Node0&#45;&gt;Node18 -->
<g id="edge34" class="edge">
<title>Node0&#45;&gt;Node18</title>
<path fill="none" stroke="#191970" d="M290.7055,-287.0966C345.8216,-280.8993 476.0528,-265.1945 584,-244 585.2643,-243.7518 586.5486,-243.489 587.8438,-243.215"/>
<polygon fill="#191970" stroke="#191970" points="588.8582,-246.5739 597.836,-240.9481 587.3094,-239.7473 588.8582,-246.5739"/>
</g>
<!-- Node2 -->
<g id="node3" class="node">
<title>Node2</title>
<g id="a_node3"><a xlink:href="arg__iface_8hpp.html" target="_top" xlink:title="arg_iface.hpp">
<polygon fill="none" stroke="#000000" points="226.5,-168.5 226.5,-187.5 301.5,-187.5 301.5,-168.5 226.5,-168.5"/>
<text text-anchor="middle" x="264" y="-175.5" font-family="Helvetica,sans-Serif" font-size="10.00" fill="#000000">arg_iface.hpp</text>
</a>
</g>
</g>
<!-- Node1&#45;&gt;Node2 -->
<g id="edge2" class="edge">
<title>Node1&#45;&gt;Node2</title>
<path fill="none" stroke="#191970" d="M264,-224.2455C264,-216.9382 264,-206.6944 264,-197.7046"/>
<polygon fill="#191970" stroke="#191970" points="267.5001,-197.6426 264,-187.6427 260.5001,-197.6427 267.5001,-197.6426"/>
</g>
<!-- Node1&#45;&gt;Node3 -->
<g id="edge13" class="edge">
<title>Node1&#45;&gt;Node3</title>
<path fill="none" stroke="#191970" d="M245.4161,-224.3429C228.8905,-215.5165 204.275,-201.7763 184,-188 160.9183,-172.3167 136.0715,-152.067 119.6419,-138.1568"/>
<polygon fill="#191970" stroke="#191970" points="121.7481,-135.3528 111.8715,-131.5183 117.2012,-140.675 121.7481,-135.3528"/>
</g>
<!-- Node1&#45;&gt;Node5 -->
<g id="edge26" class="edge">
<title>Node1&#45;&gt;Node5</title>
<path fill="none" stroke="#191970" d="M288.5769,-229.8914C326.4862,-222.9968 396.3917,-207.8782 411,-188 433.5247,-157.3496 415.6951,-110.5746 402.6319,-84.7544"/>
<polygon fill="#191970" stroke="#191970" points="405.5801,-82.8444 397.7873,-75.6664 399.4029,-86.1374 405.5801,-82.8444"/>
</g>
<!-- Node9 -->
<g id="node10" class="node">
<title>Node9</title>
<polygon fill="none" stroke="#bfbfbf" points="140,-56.5 140,-75.5 196,-75.5 196,-56.5 140,-56.5"/>
<text text-anchor="middle" x="168" y="-63.5" font-family="Helvetica,sans-Serif" font-size="10.00" fill="#000000">algorithm</text>
</g>
<!-- Node1&#45;&gt;Node9 -->
<g id="edge27" class="edge">
<title>Node1&#45;&gt;Node9</title>
<path fill="none" stroke="#191970" d="M252.1019,-224.469C241.9443,-215.8288 227.5107,-202.2916 218,-188 196.0168,-154.9662 180.8791,-110.7302 173.3959,-85.6095"/>
<polygon fill="#191970" stroke="#191970" points="176.7058,-84.4551 170.5792,-75.8113 169.9783,-86.3891 176.7058,-84.4551"/>
</g>
<!-- Node1&#45;&gt;Node12 -->
<g id="edge14" class="edge">
<title>Node1&#45;&gt;Node12</title>
<path fill="none" stroke="#191970" d="M239.1481,-225.6162C211.8892,-216.4205 167.8144,-201.5519 136.1658,-190.8752"/>
<polygon fill="#191970" stroke="#191970" points="136.9582,-187.4488 126.364,-187.5686 134.7206,-194.0815 136.9582,-187.4488"/>
</g>
<!-- Node1&#45;&gt;Node14 -->
<g id="edge18" class="edge">
<title>Node1&#45;&gt;Node14</title>
<path fill="none" stroke="#191970" d="M288.5493,-232.4371C325.0132,-229.1275 394.4965,-218.9461 444,-188 463.205,-175.9944 479.207,-155.2483 489.1208,-140.215"/>
<polygon fill="#191970" stroke="#191970" points="492.1034,-142.0467 494.4809,-131.722 486.1838,-138.3106 492.1034,-142.0467"/>
</g>
<!-- Node16 -->
<g id="node17" class="node">
<title>Node16</title>
<g id="a_node17"><a xlink:href="value__utils_8hpp.html" target="_top" xlink:title="value_utils.hpp">
<polygon fill="none" stroke="#000000" points="320,-168.5 320,-187.5 402,-187.5 402,-168.5 320,-168.5"/>
<text text-anchor="middle" x="361" y="-175.5" font-family="Helvetica,sans-Serif" font-size="10.00" fill="#000000">value_utils.hpp</text>
</a>
</g>
</g>
<!-- Node1&#45;&gt;Node16 -->
<g id="edge21" class="edge">
<title>Node1&#45;&gt;Node16</title>
<path fill="none" stroke="#191970" d="M280.8961,-224.2455C295.918,-215.5731 318.1043,-202.7645 335.321,-192.825"/>
<polygon fill="#191970" stroke="#191970" points="337.3871,-195.6737 344.2975,-187.6427 333.8872,-189.6114 337.3871,-195.6737"/>
</g>
<!-- Node2&#45;&gt;Node3 -->
<g id="edge3" class="edge">
<title>Node2&#45;&gt;Node3</title>
<path fill="none" stroke="#191970" d="M235.9793,-168.3733C208.6651,-158.9892 167.0025,-144.6757 137.1928,-134.4343"/>
<polygon fill="#191970" stroke="#191970" points="138.1704,-131.0694 127.5757,-131.1303 135.8959,-137.6896 138.1704,-131.0694"/>
</g>
<!-- Node2&#45;&gt;Node5 -->
<g id="edge11" class="edge">
<title>Node2&#45;&gt;Node5</title>
<path fill="none" stroke="#191970" d="M274.9132,-168.4509C296.8289,-149.2747 346.4043,-105.8962 373.4871,-82.1988"/>
<polygon fill="#191970" stroke="#191970" points="375.8934,-84.744 381.1144,-75.5249 371.2838,-79.4759 375.8934,-84.744"/>
</g>
<!-- Node11 -->
<g id="node12" class="node">
<title>Node11</title>
<g id="a_node12"><a xlink:href="enums_8hpp.html" target="_top" xlink:title="enums.hpp">
<polygon fill="none" stroke="#000000" points="222.5,-112.5 222.5,-131.5 287.5,-131.5 287.5,-112.5 222.5,-112.5"/>
<text text-anchor="middle" x="255" y="-119.5" font-family="Helvetica,sans-Serif" font-size="10.00" fill="#000000">enums.hpp</text>
</a>
</g>
</g>
<!-- Node2&#45;&gt;Node11 -->
<g id="edge12" class="edge">
<title>Node2&#45;&gt;Node11</title>
<path fill="none" stroke="#191970" d="M262.4323,-168.2455C261.2579,-160.9382 259.6116,-150.6944 258.1668,-141.7046"/>
<polygon fill="#191970" stroke="#191970" points="261.5922,-140.9606 256.5497,-131.6427 254.6809,-142.0714 261.5922,-140.9606"/>
</g>
<!-- Node4 -->
<g id="node5" class="node">
<title>Node4</title>
<polygon fill="none" stroke="#bfbfbf" points="80.5,-56.5 80.5,-75.5 121.5,-75.5 121.5,-56.5 80.5,-56.5"/>
<text text-anchor="middle" x="101" y="-63.5" font-family="Helvetica,sans-Serif" font-size="10.00" fill="#000000">regex</text>
</g>
<!-- Node3&#45;&gt;Node4 -->
<g id="edge4" class="edge">
<title>Node3&#45;&gt;Node4</title>
<path fill="none" stroke="#191970" d="M101,-112.2455C101,-104.9382 101,-94.6944 101,-85.7046"/>
<polygon fill="#191970" stroke="#191970" points="104.5001,-85.6426 101,-75.6427 97.5001,-85.6427 104.5001,-85.6426"/>
</g>
<!-- Node3&#45;&gt;Node5 -->
<g id="edge5" class="edge">
<title>Node3&#45;&gt;Node5</title>
<path fill="none" stroke="#191970" d="M127.5957,-116.8819C178.9248,-107.0042 291.8921,-85.2647 352.208,-73.6576"/>
<polygon fill="#191970" stroke="#191970" points="352.9669,-77.0758 362.1253,-71.7491 351.6441,-70.2019 352.9669,-77.0758"/>
</g>
<!-- Node3&#45;&gt;Node9 -->
<g id="edge9" class="edge">
<title>Node3&#45;&gt;Node9</title>
<path fill="none" stroke="#191970" d="M112.6705,-112.2455C122.5661,-103.9746 136.9627,-91.9416 148.5901,-82.2232"/>
<polygon fill="#191970" stroke="#191970" points="151.035,-84.7413 156.4632,-75.6427 146.5458,-79.3703 151.035,-84.7413"/>
</g>
<!-- Node10 -->
<g id="node11" class="node">
<title>Node10</title>
<polygon fill="none" stroke="#bfbfbf" points="0,-56.5 0,-75.5 62,-75.5 62,-56.5 0,-56.5"/>
<text text-anchor="middle" x="31" y="-63.5" font-family="Helvetica,sans-Serif" font-size="10.00" fill="#000000">type_traits</text>
</g>
<!-- Node3&#45;&gt;Node10 -->
<g id="edge10" class="edge">
<title>Node3&#45;&gt;Node10</title>
<path fill="none" stroke="#191970" d="M88.8069,-112.2455C78.3679,-103.8943 63.1345,-91.7076 50.926,-81.9408"/>
<polygon fill="#191970" stroke="#191970" points="53.0485,-79.1566 43.0533,-75.6427 48.6756,-84.6227 53.0485,-79.1566"/>
</g>
<!-- Node6 -->
<g id="node7" class="node">
<title>Node6</title>
<polygon fill="none" stroke="#bfbfbf" points="305.5,-.5 305.5,-19.5 346.5,-19.5 346.5,-.5 305.5,-.5"/>
<text text-anchor="middle" x="326" y="-7.5" font-family="Helvetica,sans-Serif" font-size="10.00" fill="#000000">string</text>
</g>
<!-- Node5&#45;&gt;Node6 -->
<g id="edge6" class="edge">
<title>Node5&#45;&gt;Node6</title>
<path fill="none" stroke="#191970" d="M380.5037,-56.2455C370.7558,-47.9746 356.5741,-35.9416 345.1202,-26.2232"/>
<polygon fill="#191970" stroke="#191970" points="347.2541,-23.4437 337.3646,-19.6427 342.7253,-28.7813 347.2541,-23.4437"/>
</g>
<!-- Node7 -->
<g id="node8" class="node">
<title>Node7</title>
<polygon fill="none" stroke="#bfbfbf" points="365,-.5 365,-19.5 419,-19.5 419,-.5 365,-.5"/>
<text text-anchor="middle" x="392" y="-7.5" font-family="Helvetica,sans-Serif" font-size="10.00" fill="#000000">iostream</text>
</g>
<!-- Node5&#45;&gt;Node7 -->
<g id="edge7" class="edge">
<title>Node5&#45;&gt;Node7</title>
<path fill="none" stroke="#191970" d="M392,-56.2455C392,-48.9382 392,-38.6944 392,-29.7046"/>
<polygon fill="#191970" stroke="#191970" points="395.5001,-29.6426 392,-19.6427 388.5001,-29.6427 395.5001,-29.6426"/>
</g>
<!-- Node8 -->
<g id="node9" class="node">
<title>Node8</title>
<polygon fill="none" stroke="#bfbfbf" points="437,-.5 437,-19.5 481,-19.5 481,-.5 437,-.5"/>
<text text-anchor="middle" x="459" y="-7.5" font-family="Helvetica,sans-Serif" font-size="10.00" fill="#000000">vector</text>
</g>
<!-- Node5&#45;&gt;Node8 -->
<g id="edge8" class="edge">
<title>Node5&#45;&gt;Node8</title>
<path fill="none" stroke="#191970" d="M403.6705,-56.2455C413.5661,-47.9746 427.9627,-35.9416 439.5901,-26.2232"/>
<polygon fill="#191970" stroke="#191970" points="442.035,-28.7413 447.4632,-19.6427 437.5458,-23.3703 442.035,-28.7413"/>
</g>
<!-- Node12&#45;&gt;Node3 -->
<g id="edge16" class="edge">
<title>Node12&#45;&gt;Node3</title>
<path fill="none" stroke="#191970" d="M98.5226,-168.2455C98.914,-160.9382 99.4628,-150.6944 99.9444,-141.7046"/>
<polygon fill="#191970" stroke="#191970" points="103.4434,-141.8156 100.4834,-131.6427 96.4534,-141.4411 103.4434,-141.8156"/>
</g>
<!-- Node12&#45;&gt;Node5 -->
<g id="edge17" class="edge">
<title>Node12&#45;&gt;Node5</title>
<path fill="none" stroke="#191970" d="M112.0273,-168.3813C133.2387,-154.2237 175.1329,-127.7539 214,-112 259.9653,-93.369 315.712,-80.4075 352.43,-73.0972"/>
<polygon fill="#191970" stroke="#191970" points="353.1103,-76.5306 362.2578,-71.1852 351.7734,-69.6594 353.1103,-76.5306"/>
</g>
<!-- Node13 -->
<g id="node14" class="node">
<title>Node13</title>
<polygon fill="none" stroke="#bfbfbf" points="16,-112.5 16,-131.5 56,-131.5 56,-112.5 16,-112.5"/>
<text text-anchor="middle" x="36" y="-119.5" font-family="Helvetica,sans-Serif" font-size="10.00" fill="#000000">utility</text>
</g>
<!-- Node12&#45;&gt;Node13 -->
<g id="edge15" class="edge">
<title>Node12&#45;&gt;Node13</title>
<path fill="none" stroke="#191970" d="M87.2004,-168.2455C78.1322,-160.0549 64.9794,-148.1749 54.2755,-138.5069"/>
<polygon fill="#191970" stroke="#191970" points="56.4429,-135.7482 46.6758,-131.6427 51.7509,-140.9429 56.4429,-135.7482"/>
</g>
<!-- Node14&#45;&gt;Node5 -->
<g id="edge20" class="edge">
<title>Node14&#45;&gt;Node5</title>
<path fill="none" stroke="#191970" d="M481.1878,-112.2455C464.1527,-103.4125 438.8425,-90.2887 419.5319,-80.2758"/>
<polygon fill="#191970" stroke="#191970" points="421.0853,-77.1388 410.5966,-75.6427 417.863,-83.353 421.0853,-77.1388"/>
</g>
<!-- Node15 -->
<g id="node16" class="node">
<title>Node15</title>
<polygon fill="none" stroke="#bfbfbf" points="470.5,-56.5 470.5,-75.5 529.5,-75.5 529.5,-56.5 470.5,-56.5"/>
<text text-anchor="middle" x="500" y="-63.5" font-family="Helvetica,sans-Serif" font-size="10.00" fill="#000000">stdexcept</text>
</g>
<!-- Node14&#45;&gt;Node15 -->
<g id="edge19" class="edge">
<title>Node14&#45;&gt;Node15</title>
<path fill="none" stroke="#191970" d="M500,-112.2455C500,-104.9382 500,-94.6944 500,-85.7046"/>
<polygon fill="#191970" stroke="#191970" points="503.5001,-85.6426 500,-75.6427 496.5001,-85.6427 503.5001,-85.6426"/>
</g>
<!-- Node16&#45;&gt;Node3 -->
<g id="edge22" class="edge">
<title>Node16&#45;&gt;Node3</title>
<path fill="none" stroke="#191970" d="M319.8022,-169.1266C269.6434,-158.3232 185.6994,-140.2429 137.679,-129.9001"/>
<polygon fill="#191970" stroke="#191970" points="138.2291,-126.4384 127.7163,-127.7543 136.7551,-133.2815 138.2291,-126.4384"/>
</g>
<!-- Node16&#45;&gt;Node5 -->
<g id="edge24" class="edge">
<title>Node16&#45;&gt;Node5</title>
<path fill="none" stroke="#191970" d="M363.643,-168.4509C368.722,-150.1013 379.9347,-109.5908 386.6388,-85.3693"/>
<polygon fill="#191970" stroke="#191970" points="390.0692,-86.0962 389.3636,-75.5249 383.3228,-84.2289 390.0692,-86.0962"/>
</g>
<!-- Node16&#45;&gt;Node9 -->
<g id="edge25" class="edge">
<title>Node16&#45;&gt;Node9</title>
<path fill="none" stroke="#191970" d="M353.8157,-168.1129C342.9867,-153.8583 321.1618,-127.5435 297,-112 268.8957,-93.9202 232.7689,-81.8276 205.8991,-74.5974"/>
<polygon fill="#191970" stroke="#191970" points="206.648,-71.176 196.0903,-72.0621 204.8962,-77.9533 206.648,-71.176"/>
</g>
<!-- Node16&#45;&gt;Node14 -->
<g id="edge23" class="edge">
<title>Node16&#45;&gt;Node14</title>
<path fill="none" stroke="#191970" d="M384.895,-168.3733C407.5082,-159.2629 441.6542,-145.5062 466.8873,-135.3404"/>
<polygon fill="#191970" stroke="#191970" points="468.4493,-138.4845 476.4169,-131.5011 465.8334,-131.9917 468.4493,-138.4845"/>
</g>
<!-- Node17&#45;&gt;Node3 -->
<g id="edge29" class="edge">
<title>Node17&#45;&gt;Node3</title>
<path fill="none" stroke="#191970" d="M81.5809,-224.3937C67.0969,-211.9347 46.1887,-189.2724 55,-168 59.8312,-156.3363 69.2137,-146.0881 78.2518,-138.243"/>
<polygon fill="#191970" stroke="#191970" points="80.7266,-140.7436 86.3148,-131.7423 76.333,-135.2942 80.7266,-140.7436"/>
</g>
</g>
</svg>
        <g id="navigator" transform="translate(0 0)" fill="#404254">
                <rect fill="#f2f5e9" fill-opacity="0.5" stroke="#606060" stroke-width=".5" x="0" y="0" width="60" height="60"/>
                <use id="zoomplus" xlink:href="#zoomPlus" x="17" y="9" onmousedown="handleZoom(evt,'in')"/>
                <use id="zoomminus" xlink:href="#zoomMin" x="42" y="9" onmousedown="handleZoom(evt,'out')"/>
                <use id="reset" xlink:href="#resetDef" x="30" y="36" onmousedown="handleReset()"/>
                <g id="arrowUp" xlink:href="#dirArrow" transform="translate(30 24)" onmousedown="handlePan(0,-1)">
                  <use xlink:href="#rim" fill="#404040">
                        <set attributeName="fill" to="#808080" begin="arrowUp.mouseover" end="arrowUp.mouseout"/>
                  </use>
                  <path fill="none" stroke="white" stroke-width="1.5" d="M0,-3.0v7 M-2.5,-0.5L0,-3.0L2.5,-0.5"/>
                </g>
                <g id="arrowRight" xlink:href="#dirArrow" transform="rotate(90) translate(36 -43)" onmousedown="handlePan(1,0)">
                  <use xlink:href="#rim" fill="#404040">
                        <set attributeName="fill" to="#808080" begin="arrowRight.mouseover" end="arrowRight.mouseout"/>
                  </use>
                  <path fill="none" stroke="white" stroke-width="1.5" d="M0,-3.0v7 M-2.5,-0.5L0,-3.0L2.5,-0.5"/>
                </g>
                <g id="arrowDown" xlink:href="#dirArrow" transform="rotate(180) translate(-30 -48)" onmousedown="handlePan(0,1)">
                  <use xlink:href="#rim" fill="#404040">
                        <set attributeName="fill" to="#808080" begin="arrowDown.mouseover" end="arrowDown.mouseout"/>
                  </use>
                  <path fill="none" stroke="white" stroke-width="1.5" d="M0,-3.0v7 M-2.5,-0.5L0,-3.0L2.5,-0.5"/>
                </g>
                <g id="arrowLeft" xlink:href="#dirArrow" transform="rotate(270) translate(-36 17)" onmousedown="handlePan(-1,0)">
                  <use xlink:href="#rim" fill="#404040">
                        <set attributeName="fill" to="#808080" begin="arrowLeft.mouseover" end="arrowLeft.mouseout"/>
                  </use>
                  <path fill="none" stroke="white" stroke-width="1.5" d="M0,-3.0v7 M-2.5,-0.5L0,-3.0L2.5,-0.5"/>
                </g>
        </g>
        <svg viewBox="0 0 15 15" width="100%" height="30px" preserveAspectRatio="xMaxYMin meet">
         <g id="arrow_out" transform="scale(0.3 0.3)">
          <a xlink:href="help_8hpp__incl_org.svg" target="_base">
           <rect id="button" ry="5" rx="5" y="6" x="6" height="38" width="38"
                fill="#f2f5e9" fill-opacity="0.5" stroke="#606060" stroke-width="1.0"/>
           <path id="arrow"
             d="M 11.500037,31.436501 C 11.940474,20.09759 22.043105,11.32322 32.158766,21.979434 L 37.068811,17.246167 C 37.068811,17.246167 37.088388,32 37.088388,32 L 22.160133,31.978069 C 22.160133,31.978069 26.997745,27.140456 26.997745,27.140456 C 18.528582,18.264221 13.291696,25.230495 11.500037,31.436501 z"
             style="fill:#404040;"/>
          </a>
         </g>
        </svg>
</svg>
