<?xml version="1.0" encoding="UTF-8" standalone="no"?>
<!DOCTYPE svg PUBLIC "-//W3C//DTD SVG 1.1//EN"
 "http://www.w3.org/Graphics/SVG/1.1/DTD/svg11.dtd">
<!-- Generated by graphviz version 2.40.1 (20161225.0304)
 -->
<!-- Title: help.hpp Pages: 1 -->
<svg width="197pt" height="196pt"
 viewBox="0.00 0.00 196.91 196.00" xmlns="http://www.w3.org/2000/svg" xmlns:xlink="http://www.w3.org/1999/xlink">
<g id="graph0" class="graph" transform="scale(1 1) rotate(0) translate(4 192)">
<title>help.hpp</title>
<!-- Node19 -->
<g id="node1" class="node">
<title>Node19</title>
<polygon fill="#bfbfbf" stroke="#000000" points="93,-168.5 93,-187.5 146,-187.5 146,-168.5 93,-168.5"/>
<text text-anchor="middle" x="119.5" y="-175.5" font-family="Helvetica,sans-Serif" font-size="10.00" fill="#000000">help.hpp</text>
</g>
<!-- Node20 -->
<g id="node2" class="node">
<title>Node20</title>
<g id="a_node2"><a xlink:href="cmd__line_8hpp.html" target="_top" xlink:title="cmd_line.hpp">
<polygon fill="none" stroke="#000000" points="82.5,-112.5 82.5,-131.5 156.5,-131.5 156.5,-112.5 82.5,-112.5"/>
<text text-anchor="middle" x="119.5" y="-119.5" font-family="Helvetica,sans-Serif" font-size="10.00" fill="#000000">cmd_line.hpp</text>
</a>
</g>
</g>
<!-- Node19&#45;&gt;Node20 -->
<g id="edge1" class="edge">
<title>Node19&#45;&gt;Node20</title>
<path fill="none" stroke="#191970" d="M119.5,-158.1575C119.5,-149.155 119.5,-138.9199 119.5,-131.6427"/>
<polygon fill="#191970" stroke="#191970" points="116.0001,-158.2455 119.5,-168.2455 123.0001,-158.2456 116.0001,-158.2455"/>
</g>
<!-- Node21 -->
<g id="node3" class="node">
<title>Node21</title>
<g id="a_node3"><a xlink:href="all_8hpp.html" target="_top" xlink:title="all.hpp">
<polygon fill="none" stroke="#000000" points="0,-56.5 0,-75.5 45,-75.5 45,-56.5 0,-56.5"/>
<text text-anchor="middle" x="22.5" y="-63.5" font-family="Helvetica,sans-Serif" font-size="10.00" fill="#000000">all.hpp</text>
</a>
</g>
</g>
<!-- Node20&#45;&gt;Node21 -->
<g id="edge2" class="edge">
<title>Node20&#45;&gt;Node21</title>
<path fill="none" stroke="#191970" d="M93.5984,-107.0465C76.3391,-97.0824 54.1624,-84.2794 39.2025,-75.6427"/>
<polygon fill="#191970" stroke="#191970" points="92.1936,-110.2768 102.6039,-112.2455 95.6935,-104.2146 92.1936,-110.2768"/>
</g>
<!-- Node22 -->
<g id="node4" class="node">
<title>Node22</title>
<g id="a_node4"><a xlink:href="arg__as__command_8hpp.html" target="_top" xlink:title="arg_as_command.hpp">
<polygon fill="none" stroke="#000000" points="63,-56.5 63,-75.5 176,-75.5 176,-56.5 63,-56.5"/>
<text text-anchor="middle" x="119.5" y="-63.5" font-family="Helvetica,sans-Serif" font-size="10.00" fill="#000000">arg_as_command.hpp</text>
</a>
</g>
</g>
<!-- Node20&#45;&gt;Node22 -->
<g id="edge3" class="edge">
<title>Node20&#45;&gt;Node22</title>
<path fill="none" stroke="#191970" d="M119.5,-102.1575C119.5,-93.155 119.5,-82.9199 119.5,-75.6427"/>
<polygon fill="#191970" stroke="#191970" points="116.0001,-102.2455 119.5,-112.2455 123.0001,-102.2456 116.0001,-102.2455"/>
</g>
<!-- Node23 -->
<g id="node5" class="node">
<title>Node23</title>
<g id="a_node5"><a xlink:href="api_8hpp.html" target="_top" xlink:title="api.hpp">
<polygon fill="none" stroke="#000000" points="137.5,-.5 137.5,-19.5 185.5,-19.5 185.5,-.5 137.5,-.5"/>
<text text-anchor="middle" x="161.5" y="-7.5" font-family="Helvetica,sans-Serif" font-size="10.00" fill="#000000">api.hpp</text>
</a>
</g>
</g>
<!-- Node22&#45;&gt;Node23 -->
<g id="edge4" class="edge">
<title>Node22&#45;&gt;Node23</title>
<path fill="none" stroke="#191970" d="M132.8416,-48.2112C139.9396,-38.7472 148.3903,-27.4797 154.268,-19.6427"/>
<polygon fill="#191970" stroke="#191970" points="130.0159,-46.1455 126.8158,-56.2455 135.6159,-50.3455 130.0159,-46.1455"/>
</g>
<!-- Node23&#45;&gt;Node20 -->
<g id="edge5" class="edge">
<title>Node23&#45;&gt;Node20</title>
<path fill="none" stroke="#191970" d="M176.1159,-28.1912C185.1334,-41.7611 193.5675,-60.5436 185.5,-76 176.6462,-92.9629 158.3669,-104.9442 143.2859,-112.4178"/>
<polygon fill="#191970" stroke="#191970" points="178.6831,-25.7698 169.9753,-19.7344 173.0187,-29.8827 178.6831,-25.7698"/>
</g>
</g>
</svg>
