<?xml version="1.0" encoding="UTF-8" standalone="no"?>
<!DOCTYPE svg PUBLIC "-//W3C//DTD SVG 1.1//EN"
 "http://www.w3.org/Graphics/SVG/1.1/DTD/svg11.dtd">
<!-- Generated by graphviz version 2.38.0 (20140413.2041)
 -->
<!-- Title: help_printer.hpp Pages: 1 -->
<svg width="1044pt" height="364pt"
 viewBox="0.00 0.00 1044.00 364.00" xmlns="http://www.w3.org/2000/svg" xmlns:xlink="http://www.w3.org/1999/xlink">
<g id="graph0" class="graph" transform="scale(1 1) rotate(0) translate(4 360)">
<title>help_printer.hpp</title>
<!-- Node1 -->
<g id="node1" class="node"><title>Node1</title>
<polygon fill="#bfbfbf" stroke="black" points="411,-336.5 411,-355.5 497,-355.5 497,-336.5 411,-336.5"/>
<text text-anchor="middle" x="454" y="-343.5" font-family="Helvetica,sans-Serif" font-size="10.00">help_printer.hpp</text>
</g>
<!-- Node2 -->
<g id="node2" class="node"><title>Node2</title>
<polygon fill="none" stroke="#bfbfbf" points="92,-0.5 92,-19.5 136,-19.5 136,-0.5 92,-0.5"/>
<text text-anchor="middle" x="114" y="-7.5" font-family="Helvetica,sans-Serif" font-size="10.00">vector</text>
</g>
<!-- Node1&#45;&gt;Node2 -->
<g id="edge1" class="edge"><title>Node1&#45;&gt;Node2</title>
<path fill="none" stroke="midnightblue" d="M410.66,-344.05C320.633,-341.446 116.713,-332.081 56,-300 22.2857,-282.185 0,-273.132 0,-235 0,-235 0,-235 0,-121 0,-74.1149 50.5515,-40.8944 84.3292,-23.9302"/>
<polygon fill="midnightblue" stroke="midnightblue" points="85.8676,-27.0742 93.3555,-19.5787 82.8277,-20.7687 85.8676,-27.0742"/>
</g>
<!-- Node3 -->
<g id="node3" class="node"><title>Node3</title>
<polygon fill="none" stroke="#bfbfbf" points="142,-56.5 142,-75.5 198,-75.5 198,-56.5 142,-56.5"/>
<text text-anchor="middle" x="170" y="-63.5" font-family="Helvetica,sans-Serif" font-size="10.00">algorithm</text>
</g>
<!-- Node1&#45;&gt;Node3 -->
<g id="edge2" class="edge"><title>Node1&#45;&gt;Node3</title>
<path fill="none" stroke="midnightblue" d="M410.859,-343.52C327.336,-340.028 147.012,-329.246 93,-300 59.7223,-281.981 38,-272.843 38,-235 38,-235 38,-235 38,-177 38,-126.812 95.0117,-95.081 134.099,-79.2238"/>
<polygon fill="midnightblue" stroke="midnightblue" points="135.55,-82.4151 143.605,-75.5327 133.016,-75.8898 135.55,-82.4151"/>
</g>
<!-- Node4 -->
<g id="node4" class="node"><title>Node4</title>
<polygon fill="none" stroke="#bfbfbf" points="102.5,-280.5 102.5,-299.5 161.5,-299.5 161.5,-280.5 102.5,-280.5"/>
<text text-anchor="middle" x="132" y="-287.5" font-family="Helvetica,sans-Serif" font-size="10.00">functional</text>
</g>
<!-- Node1&#45;&gt;Node4 -->
<g id="edge3" class="edge"><title>Node1&#45;&gt;Node4</title>
<path fill="none" stroke="midnightblue" d="M410.567,-338.537C355.778,-330.255 258.719,-315.148 176,-300 174.562,-299.737 173.099,-299.464 171.621,-299.184"/>
<polygon fill="midnightblue" stroke="midnightblue" points="172.275,-295.745 161.79,-297.267 170.935,-302.616 172.275,-295.745"/>
</g>
<!-- Node5 -->
<g id="node5" class="node"><title>Node5</title>
<g id="a_node5"><a xlink:href="utils_8hpp.html" target="_top" xlink:title="utils.hpp">
<polygon fill="none" stroke="black" points="600.5,-112.5 600.5,-131.5 653.5,-131.5 653.5,-112.5 600.5,-112.5"/>
<text text-anchor="middle" x="627" y="-119.5" font-family="Helvetica,sans-Serif" font-size="10.00">utils.hpp</text>
</a>
</g>
</g>
<!-- Node1&#45;&gt;Node5 -->
<g id="edge4" class="edge"><title>Node1&#45;&gt;Node5</title>
<path fill="none" stroke="midnightblue" d="M497.075,-342.135C599.718,-334.3 853.849,-308.631 903,-244 933.668,-203.674 883.129,-245.06 741,-188 725.085,-181.611 722.832,-176.61 708,-168 689.276,-157.13 667.852,-145.252 651.742,-136.43"/>
<polygon fill="midnightblue" stroke="midnightblue" points="653.385,-133.34 642.931,-131.62 650.031,-139.484 653.385,-133.34"/>
</g>
<!-- Node7 -->
<g id="node7" class="node"><title>Node7</title>
<g id="a_node7"><a xlink:href="types_8hpp.html" target="_top" xlink:title="types.hpp">
<polygon fill="none" stroke="black" points="683.5,-56.5 683.5,-75.5 742.5,-75.5 742.5,-56.5 683.5,-56.5"/>
<text text-anchor="middle" x="713" y="-63.5" font-family="Helvetica,sans-Serif" font-size="10.00">types.hpp</text>
</a>
</g>
</g>
<!-- Node1&#45;&gt;Node7 -->
<g id="edge46" class="edge"><title>Node1&#45;&gt;Node7</title>
<path fill="none" stroke="midnightblue" d="M497.269,-341.408C632.149,-329.639 1036,-289.822 1036,-235 1036,-235 1036,-235 1036,-177 1036,-140.822 1017.96,-130.718 987,-112 948.234,-88.5612 818.705,-75.2835 752.577,-69.8804"/>
<polygon fill="midnightblue" stroke="midnightblue" points="752.778,-66.3854 742.532,-69.0805 752.222,-73.3633 752.778,-66.3854"/>
</g>
<!-- Node11 -->
<g id="node11" class="node"><title>Node11</title>
<g id="a_node11"><a xlink:href="exceptions_8hpp.html" target="_top" xlink:title="exceptions.hpp">
<polygon fill="none" stroke="black" points="186.5,-112.5 186.5,-131.5 269.5,-131.5 269.5,-112.5 186.5,-112.5"/>
<text text-anchor="middle" x="228" y="-119.5" font-family="Helvetica,sans-Serif" font-size="10.00">exceptions.hpp</text>
</a>
</g>
</g>
<!-- Node1&#45;&gt;Node11 -->
<g id="edge12" class="edge"><title>Node1&#45;&gt;Node11</title>
<path fill="none" stroke="midnightblue" d="M429.442,-336.387C381.071,-317.93 274.401,-269.492 231,-188 223.45,-173.823 223.361,-155.342 224.775,-141.712"/>
<polygon fill="midnightblue" stroke="midnightblue" points="228.269,-141.992 226.184,-131.605 221.336,-141.025 228.269,-141.992"/>
</g>
<!-- Node13 -->
<g id="node13" class="node"><title>Node13</title>
<g id="a_node13"><a xlink:href="group__iface_8hpp.html" target="_top" xlink:title="group_iface.hpp">
<polygon fill="none" stroke="black" points="412,-224.5 412,-243.5 498,-243.5 498,-224.5 412,-224.5"/>
<text text-anchor="middle" x="455" y="-231.5" font-family="Helvetica,sans-Serif" font-size="10.00">group_iface.hpp</text>
</a>
</g>
</g>
<!-- Node1&#45;&gt;Node13 -->
<g id="edge15" class="edge"><title>Node1&#45;&gt;Node13</title>
<path fill="none" stroke="midnightblue" d="M456.73,-336.486C459.451,-327.52 463.442,-312.935 465,-300 466.88,-284.394 463.846,-266.775 460.639,-253.821"/>
<polygon fill="midnightblue" stroke="midnightblue" points="463.914,-252.526 457.896,-243.806 457.162,-254.376 463.914,-252.526"/>
</g>
<!-- Node18 -->
<g id="node18" class="node"><title>Node18</title>
<g id="a_node18"><a xlink:href="groups_8hpp.html" target="_top" xlink:title="groups.hpp">
<polygon fill="none" stroke="black" points="391.5,-280.5 391.5,-299.5 456.5,-299.5 456.5,-280.5 391.5,-280.5"/>
<text text-anchor="middle" x="424" y="-287.5" font-family="Helvetica,sans-Serif" font-size="10.00">groups.hpp</text>
</a>
</g>
</g>
<!-- Node1&#45;&gt;Node18 -->
<g id="edge28" class="edge"><title>Node1&#45;&gt;Node18</title>
<path fill="none" stroke="midnightblue" d="M449.046,-336.083C444.896,-328.613 438.847,-317.724 433.733,-308.52"/>
<polygon fill="midnightblue" stroke="midnightblue" points="436.778,-306.793 428.862,-299.751 430.659,-310.192 436.778,-306.793"/>
</g>
<!-- Node19 -->
<g id="node19" class="node"><title>Node19</title>
<g id="a_node19"><a xlink:href="command_8hpp.html" target="_top" xlink:title="command.hpp">
<polygon fill="none" stroke="black" points="569,-280.5 569,-299.5 647,-299.5 647,-280.5 569,-280.5"/>
<text text-anchor="middle" x="608" y="-287.5" font-family="Helvetica,sans-Serif" font-size="10.00">command.hpp</text>
</a>
</g>
</g>
<!-- Node1&#45;&gt;Node19 -->
<g id="edge32" class="edge"><title>Node1&#45;&gt;Node19</title>
<path fill="none" stroke="midnightblue" d="M478.402,-336.444C504.197,-327.399 545.077,-313.064 574.018,-302.916"/>
<polygon fill="midnightblue" stroke="midnightblue" points="575.434,-306.128 583.712,-299.516 573.118,-299.523 575.434,-306.128"/>
</g>
<!-- Node22 -->
<g id="node22" class="node"><title>Node22</title>
<g id="a_node22"><a xlink:href="help__printer__iface_8hpp.html" target="_top" xlink:title="help_printer_iface.hpp">
<polygon fill="none" stroke="black" points="782,-224.5 782,-243.5 894,-243.5 894,-224.5 782,-224.5"/>
<text text-anchor="middle" x="838" y="-231.5" font-family="Helvetica,sans-Serif" font-size="10.00">help_printer_iface.hpp</text>
</a>
</g>
</g>
<!-- Node1&#45;&gt;Node22 -->
<g id="edge47" class="edge"><title>Node1&#45;&gt;Node22</title>
<path fill="none" stroke="midnightblue" d="M497.342,-336.96C538.514,-328.943 601.978,-315.599 656,-300 710.068,-284.388 771.415,-261.33 807.292,-247.286"/>
<polygon fill="midnightblue" stroke="midnightblue" points="808.687,-250.498 816.709,-243.577 806.122,-243.985 808.687,-250.498"/>
</g>
<!-- Node5&#45;&gt;Node3 -->
<g id="edge10" class="edge"><title>Node5&#45;&gt;Node3</title>
<path fill="none" stroke="midnightblue" d="M600.295,-119.366C535.009,-115.111 362.025,-102.272 208.298,-76.0145"/>
<polygon fill="midnightblue" stroke="midnightblue" points="208.652,-72.5238 198.201,-74.2656 207.457,-79.4211 208.652,-72.5238"/>
</g>
<!-- Node6 -->
<g id="node6" class="node"><title>Node6</title>
<polygon fill="none" stroke="#bfbfbf" points="606.5,-56.5 606.5,-75.5 647.5,-75.5 647.5,-56.5 606.5,-56.5"/>
<text text-anchor="middle" x="627" y="-63.5" font-family="Helvetica,sans-Serif" font-size="10.00">regex</text>
</g>
<!-- Node5&#45;&gt;Node6 -->
<g id="edge5" class="edge"><title>Node5&#45;&gt;Node6</title>
<path fill="none" stroke="midnightblue" d="M627,-112.083C627,-105.006 627,-94.8611 627,-85.9865"/>
<polygon fill="midnightblue" stroke="midnightblue" points="630.5,-85.751 627,-75.7511 623.5,-85.7511 630.5,-85.751"/>
</g>
<!-- Node5&#45;&gt;Node7 -->
<g id="edge6" class="edge"><title>Node5&#45;&gt;Node7</title>
<path fill="none" stroke="midnightblue" d="M640.817,-112.324C654.233,-103.9 674.824,-90.9709 690.586,-81.0741"/>
<polygon fill="midnightblue" stroke="midnightblue" points="692.609,-83.9364 699.217,-75.6545 688.887,-78.0081 692.609,-83.9364"/>
</g>
<!-- Node10 -->
<g id="node10" class="node"><title>Node10</title>
<polygon fill="none" stroke="#bfbfbf" points="465,-56.5 465,-75.5 527,-75.5 527,-56.5 465,-56.5"/>
<text text-anchor="middle" x="496" y="-63.5" font-family="Helvetica,sans-Serif" font-size="10.00">type_traits</text>
</g>
<!-- Node5&#45;&gt;Node10 -->
<g id="edge11" class="edge"><title>Node5&#45;&gt;Node10</title>
<path fill="none" stroke="midnightblue" d="M606.243,-112.444C584.684,-103.557 550.737,-89.5632 526.206,-79.4514"/>
<polygon fill="midnightblue" stroke="midnightblue" points="527.239,-76.0917 516.66,-75.5164 524.572,-82.5634 527.239,-76.0917"/>
</g>
<!-- Node7&#45;&gt;Node2 -->
<g id="edge9" class="edge"><title>Node7&#45;&gt;Node2</title>
<path fill="none" stroke="midnightblue" d="M683.474,-59.9134C674.655,-58.5089 664.952,-57.0769 656,-56 463.136,-32.7996 230.214,-17.826 146.178,-12.8402"/>
<polygon fill="midnightblue" stroke="midnightblue" points="146.189,-9.33491 136.001,-12.2423 145.779,-16.3229 146.189,-9.33491"/>
</g>
<!-- Node8 -->
<g id="node8" class="node"><title>Node8</title>
<polygon fill="none" stroke="#bfbfbf" points="659.5,-0.5 659.5,-19.5 700.5,-19.5 700.5,-0.5 659.5,-0.5"/>
<text text-anchor="middle" x="680" y="-7.5" font-family="Helvetica,sans-Serif" font-size="10.00">string</text>
</g>
<!-- Node7&#45;&gt;Node8 -->
<g id="edge7" class="edge"><title>Node7&#45;&gt;Node8</title>
<path fill="none" stroke="midnightblue" d="M707.551,-56.083C702.986,-48.6127 696.332,-37.7244 690.707,-28.5199"/>
<polygon fill="midnightblue" stroke="midnightblue" points="693.549,-26.4588 685.348,-19.7511 687.576,-30.109 693.549,-26.4588"/>
</g>
<!-- Node9 -->
<g id="node9" class="node"><title>Node9</title>
<polygon fill="none" stroke="#bfbfbf" points="719,-0.5 719,-19.5 773,-19.5 773,-0.5 719,-0.5"/>
<text text-anchor="middle" x="746" y="-7.5" font-family="Helvetica,sans-Serif" font-size="10.00">iostream</text>
</g>
<!-- Node7&#45;&gt;Node9 -->
<g id="edge8" class="edge"><title>Node7&#45;&gt;Node9</title>
<path fill="none" stroke="midnightblue" d="M718.449,-56.083C723.014,-48.6127 729.668,-37.7244 735.293,-28.5199"/>
<polygon fill="midnightblue" stroke="midnightblue" points="738.424,-30.109 740.652,-19.7511 732.451,-26.4588 738.424,-30.109"/>
</g>
<!-- Node11&#45;&gt;Node7 -->
<g id="edge14" class="edge"><title>Node11&#45;&gt;Node7</title>
<path fill="none" stroke="midnightblue" d="M269.702,-117.339C346.343,-110.451 514.696,-94.5712 656,-76 661.587,-75.2657 667.471,-74.4195 673.252,-73.5462"/>
<polygon fill="midnightblue" stroke="midnightblue" points="674.113,-76.9545 683.458,-71.963 673.04,-70.0372 674.113,-76.9545"/>
</g>
<!-- Node12 -->
<g id="node12" class="node"><title>Node12</title>
<polygon fill="none" stroke="#bfbfbf" points="216.5,-56.5 216.5,-75.5 275.5,-75.5 275.5,-56.5 216.5,-56.5"/>
<text text-anchor="middle" x="246" y="-63.5" font-family="Helvetica,sans-Serif" font-size="10.00">stdexcept</text>
</g>
<!-- Node11&#45;&gt;Node12 -->
<g id="edge13" class="edge"><title>Node11&#45;&gt;Node12</title>
<path fill="none" stroke="midnightblue" d="M230.972,-112.083C233.384,-104.849 236.864,-94.4087 239.868,-85.3968"/>
<polygon fill="midnightblue" stroke="midnightblue" points="243.241,-86.3447 243.083,-75.7511 236.6,-84.1311 243.241,-86.3447"/>
</g>
<!-- Node13&#45;&gt;Node2 -->
<g id="edge23" class="edge"><title>Node13&#45;&gt;Node2</title>
<path fill="none" stroke="midnightblue" d="M411.807,-229.898C347.617,-224.56 230.955,-211.842 197,-188 142.627,-149.822 122.878,-66.54 116.593,-29.4534"/>
<polygon fill="midnightblue" stroke="midnightblue" points="120.045,-28.8724 115.052,-19.528 113.128,-29.9467 120.045,-28.8724"/>
</g>
<!-- Node13&#45;&gt;Node3 -->
<g id="edge25" class="edge"><title>Node13&#45;&gt;Node3</title>
<path fill="none" stroke="midnightblue" d="M411.972,-231.899C364.868,-229.039 288.408,-219.43 231,-188 200.672,-171.396 191.641,-163.323 177,-132 170.241,-117.541 168.796,-99.3532 168.866,-85.8965"/>
<polygon fill="midnightblue" stroke="midnightblue" points="172.364,-86.0018 169.197,-75.8913 165.368,-85.7698 172.364,-86.0018"/>
</g>
<!-- Node13&#45;&gt;Node5 -->
<g id="edge20" class="edge"><title>Node13&#45;&gt;Node5</title>
<path fill="none" stroke="midnightblue" d="M463.724,-224.14C477.236,-210.756 504.447,-185.13 531,-168 551.152,-154.999 575.658,-143.576 594.866,-135.492"/>
<polygon fill="midnightblue" stroke="midnightblue" points="596.461,-138.62 604.377,-131.578 593.797,-132.147 596.461,-138.62"/>
</g>
<!-- Node13&#45;&gt;Node7 -->
<g id="edge22" class="edge"><title>Node13&#45;&gt;Node7</title>
<path fill="none" stroke="midnightblue" d="M459.719,-224.172C467.164,-210.83 482.689,-185.257 501,-168 551.169,-120.72 627.555,-91.8336 673.637,-77.67"/>
<polygon fill="midnightblue" stroke="midnightblue" points="674.691,-81.0079 683.269,-74.7886 672.685,-74.3015 674.691,-81.0079"/>
</g>
<!-- Node13&#45;&gt;Node10 -->
<g id="edge24" class="edge"><title>Node13&#45;&gt;Node10</title>
<path fill="none" stroke="midnightblue" d="M453.587,-224.429C450.608,-204.118 445.118,-151.777 460,-112 464.102,-101.037 471.974,-90.6949 479.313,-82.6967"/>
<polygon fill="midnightblue" stroke="midnightblue" points="481.821,-85.1378 486.316,-75.5434 476.819,-80.2411 481.821,-85.1378"/>
</g>
<!-- Node13&#45;&gt;Node11 -->
<g id="edge21" class="edge"><title>Node13&#45;&gt;Node11</title>
<path fill="none" stroke="midnightblue" d="M411.89,-228.849C358.161,-222.821 270.525,-209.904 247,-188 234.372,-176.242 229.978,-156.601 228.528,-141.982"/>
<polygon fill="midnightblue" stroke="midnightblue" points="231.996,-141.348 227.895,-131.579 225.009,-141.774 231.996,-141.348"/>
</g>
<!-- Node14 -->
<g id="node14" class="node"><title>Node14</title>
<g id="a_node14"><a xlink:href="arg__iface_8hpp.html" target="_top" xlink:title="arg_iface.hpp">
<polygon fill="none" stroke="black" points="750.5,-168.5 750.5,-187.5 825.5,-187.5 825.5,-168.5 750.5,-168.5"/>
<text text-anchor="middle" x="788" y="-175.5" font-family="Helvetica,sans-Serif" font-size="10.00">arg_iface.hpp</text>
</a>
</g>
</g>
<!-- Node13&#45;&gt;Node14 -->
<g id="edge16" class="edge"><title>Node13&#45;&gt;Node14</title>
<path fill="none" stroke="midnightblue" d="M498.193,-225.996C560.583,-215.878 675.527,-197.239 740.329,-186.731"/>
<polygon fill="midnightblue" stroke="midnightblue" points="740.972,-190.172 750.282,-185.116 739.851,-183.262 740.972,-190.172"/>
</g>
<!-- Node16 -->
<g id="node16" class="node"><title>Node16</title>
<polygon fill="none" stroke="#bfbfbf" points="540,-168.5 540,-187.5 580,-187.5 580,-168.5 540,-168.5"/>
<text text-anchor="middle" x="560" y="-175.5" font-family="Helvetica,sans-Serif" font-size="10.00">utility</text>
</g>
<!-- Node13&#45;&gt;Node16 -->
<g id="edge26" class="edge"><title>Node13&#45;&gt;Node16</title>
<path fill="none" stroke="midnightblue" d="M471.87,-224.324C488.709,-215.664 514.807,-202.242 534.238,-192.249"/>
<polygon fill="midnightblue" stroke="midnightblue" points="535.88,-195.341 543.172,-187.655 532.678,-189.116 535.88,-195.341"/>
</g>
<!-- Node17 -->
<g id="node17" class="node"><title>Node17</title>
<polygon fill="none" stroke="#bfbfbf" points="356,-168.5 356,-187.5 408,-187.5 408,-168.5 356,-168.5"/>
<text text-anchor="middle" x="382" y="-175.5" font-family="Helvetica,sans-Serif" font-size="10.00">memory</text>
</g>
<!-- Node13&#45;&gt;Node17 -->
<g id="edge27" class="edge"><title>Node13&#45;&gt;Node17</title>
<path fill="none" stroke="midnightblue" d="M443.271,-224.324C432.163,-216.107 415.258,-203.602 402.017,-193.807"/>
<polygon fill="midnightblue" stroke="midnightblue" points="404.063,-190.967 393.942,-187.834 399.9,-196.595 404.063,-190.967"/>
</g>
<!-- Node14&#45;&gt;Node5 -->
<g id="edge17" class="edge"><title>Node14&#45;&gt;Node5</title>
<path fill="none" stroke="midnightblue" d="M762.489,-168.444C735.404,-159.359 692.41,-144.939 662.131,-134.783"/>
<polygon fill="midnightblue" stroke="midnightblue" points="662.986,-131.378 652.392,-131.516 660.76,-138.015 662.986,-131.378"/>
</g>
<!-- Node14&#45;&gt;Node7 -->
<g id="edge18" class="edge"><title>Node14&#45;&gt;Node7</title>
<path fill="none" stroke="midnightblue" d="M782.115,-168.368C769.738,-150.215 740.819,-107.802 724.584,-83.9902"/>
<polygon fill="midnightblue" stroke="midnightblue" points="727.383,-81.882 718.858,-75.5914 721.599,-85.8254 727.383,-81.882"/>
</g>
<!-- Node15 -->
<g id="node15" class="node"><title>Node15</title>
<g id="a_node15"><a xlink:href="enums_8hpp.html" target="_top" xlink:title="enums.hpp">
<polygon fill="none" stroke="black" points="897.5,-112.5 897.5,-131.5 962.5,-131.5 962.5,-112.5 897.5,-112.5"/>
<text text-anchor="middle" x="930" y="-119.5" font-family="Helvetica,sans-Serif" font-size="10.00">enums.hpp</text>
</a>
</g>
</g>
<!-- Node14&#45;&gt;Node15 -->
<g id="edge19" class="edge"><title>Node14&#45;&gt;Node15</title>
<path fill="none" stroke="midnightblue" d="M810.5,-168.444C834.077,-159.478 871.322,-145.314 897.964,-135.183"/>
<polygon fill="midnightblue" stroke="midnightblue" points="899.502,-138.342 907.605,-131.516 897.014,-131.8 899.502,-138.342"/>
</g>
<!-- Node18&#45;&gt;Node3 -->
<g id="edge31" class="edge"><title>Node18&#45;&gt;Node3</title>
<path fill="none" stroke="midnightblue" d="M391.198,-281.761C343.27,-269.709 253.659,-241.4 197,-188 176.603,-168.776 174.633,-159.232 168,-132 165.896,-123.364 167.803,-120.887 168,-112 168.191,-103.391 168.588,-93.8632 168.978,-85.799"/>
<polygon fill="midnightblue" stroke="midnightblue" points="172.483,-85.79 169.503,-75.623 165.492,-85.4294 172.483,-85.79"/>
</g>
<!-- Node18&#45;&gt;Node7 -->
<g id="edge30" class="edge"><title>Node18&#45;&gt;Node7</title>
<path fill="none" stroke="midnightblue" d="M456.582,-286.371C510.642,-281.469 621.942,-269.076 713,-244 729.053,-239.579 842.682,-201.799 852,-188 867.448,-165.122 839.557,-123.194 828,-112 807.518,-92.1615 777.278,-80.7903 752.948,-74.4431"/>
<polygon fill="midnightblue" stroke="midnightblue" points="753.471,-70.9687 742.928,-72.0204 751.825,-77.7726 753.471,-70.9687"/>
</g>
<!-- Node18&#45;&gt;Node13 -->
<g id="edge29" class="edge"><title>Node18&#45;&gt;Node13</title>
<path fill="none" stroke="midnightblue" d="M429.119,-280.083C433.408,-272.613 439.658,-261.724 444.942,-252.52"/>
<polygon fill="midnightblue" stroke="midnightblue" points="448.033,-254.166 449.976,-243.751 441.962,-250.681 448.033,-254.166"/>
</g>
<!-- Node19&#45;&gt;Node5 -->
<g id="edge34" class="edge"><title>Node19&#45;&gt;Node5</title>
<path fill="none" stroke="midnightblue" d="M609.022,-280.075C612.012,-253.945 620.795,-177.211 624.874,-141.577"/>
<polygon fill="midnightblue" stroke="midnightblue" points="628.359,-141.901 626.019,-131.568 621.405,-141.105 628.359,-141.901"/>
</g>
<!-- Node19&#45;&gt;Node7 -->
<g id="edge45" class="edge"><title>Node19&#45;&gt;Node7</title>
<path fill="none" stroke="midnightblue" d="M647.285,-288.185C722.338,-285.877 882.439,-277.103 925,-244 967.477,-210.962 960.581,-184.794 971,-132 972.721,-123.279 976.72,-118.804 971,-112 943.631,-79.4441 818.475,-70.4388 753.074,-67.9496"/>
<polygon fill="midnightblue" stroke="midnightblue" points="752.849,-64.4399 742.734,-67.5916 752.607,-71.4357 752.849,-64.4399"/>
</g>
<!-- Node19&#45;&gt;Node13 -->
<g id="edge33" class="edge"><title>Node19&#45;&gt;Node13</title>
<path fill="none" stroke="midnightblue" d="M583.757,-280.444C558.129,-271.399 517.515,-257.064 488.762,-246.916"/>
<polygon fill="midnightblue" stroke="midnightblue" points="489.725,-243.544 479.13,-243.516 487.395,-250.145 489.725,-243.544"/>
</g>
<!-- Node19&#45;&gt;Node15 -->
<g id="edge44" class="edge"><title>Node19&#45;&gt;Node15</title>
<path fill="none" stroke="midnightblue" d="M647.279,-288.334C718.889,-286.287 866.654,-277.949 903,-244 931.352,-217.518 933.164,-168.341 931.754,-141.557"/>
<polygon fill="midnightblue" stroke="midnightblue" points="935.245,-141.297 931.021,-131.581 928.263,-141.81 935.245,-141.297"/>
</g>
<!-- Node20 -->
<g id="node20" class="node"><title>Node20</title>
<g id="a_node20"><a xlink:href="context_8hpp.html" target="_top" xlink:title="context.hpp">
<polygon fill="none" stroke="black" points="636,-224.5 636,-243.5 704,-243.5 704,-224.5 636,-224.5"/>
<text text-anchor="middle" x="670" y="-231.5" font-family="Helvetica,sans-Serif" font-size="10.00">context.hpp</text>
</a>
</g>
</g>
<!-- Node19&#45;&gt;Node20 -->
<g id="edge35" class="edge"><title>Node19&#45;&gt;Node20</title>
<path fill="none" stroke="midnightblue" d="M617.961,-280.324C627.127,-272.341 640.937,-260.313 652.028,-250.653"/>
<polygon fill="midnightblue" stroke="midnightblue" points="654.615,-253.041 659.857,-243.834 650.018,-247.762 654.615,-253.041"/>
</g>
<!-- Node21 -->
<g id="node21" class="node"><title>Node21</title>
<g id="a_node21"><a xlink:href="value__utils_8hpp.html" target="_top" xlink:title="value_utils.hpp">
<polygon fill="none" stroke="black" points="256,-168.5 256,-187.5 338,-187.5 338,-168.5 256,-168.5"/>
<text text-anchor="middle" x="297" y="-175.5" font-family="Helvetica,sans-Serif" font-size="10.00">value_utils.hpp</text>
</a>
</g>
</g>
<!-- Node19&#45;&gt;Node21 -->
<g id="edge39" class="edge"><title>Node19&#45;&gt;Node21</title>
<path fill="none" stroke="midnightblue" d="M568.691,-284.342C526.552,-278.448 458.257,-266.268 403,-244 370.559,-230.927 336.722,-208.365 316.251,-193.562"/>
<polygon fill="midnightblue" stroke="midnightblue" points="318.217,-190.663 308.089,-187.556 314.069,-196.302 318.217,-190.663"/>
</g>
<!-- Node20&#45;&gt;Node5 -->
<g id="edge37" class="edge"><title>Node20&#45;&gt;Node5</title>
<path fill="none" stroke="midnightblue" d="M666.626,-224.368C659.624,-206.456 643.388,-164.923 634.016,-140.948"/>
<polygon fill="midnightblue" stroke="midnightblue" points="637.259,-139.631 630.358,-131.591 630.74,-142.179 637.259,-139.631"/>
</g>
<!-- Node20&#45;&gt;Node7 -->
<g id="edge38" class="edge"><title>Node20&#45;&gt;Node7</title>
<path fill="none" stroke="midnightblue" d="M704.161,-228.505C747.45,-222.028 818.335,-208.543 834,-188 867.3,-144.332 789.421,-100.638 743.56,-79.7246"/>
<polygon fill="midnightblue" stroke="midnightblue" points="744.871,-76.4773 734.311,-75.6158 742.029,-82.8744 744.871,-76.4773"/>
</g>
<!-- Node20&#45;&gt;Node16 -->
<g id="edge36" class="edge"><title>Node20&#45;&gt;Node16</title>
<path fill="none" stroke="midnightblue" d="M652.327,-224.324C634.606,-215.625 607.097,-202.12 586.712,-192.113"/>
<polygon fill="midnightblue" stroke="midnightblue" points="588.149,-188.919 577.63,-187.655 585.064,-195.203 588.149,-188.919"/>
</g>
<!-- Node21&#45;&gt;Node3 -->
<g id="edge43" class="edge"><title>Node21&#45;&gt;Node3</title>
<path fill="none" stroke="midnightblue" d="M296.761,-168.292C295.932,-154.645 292.429,-128.117 278,-112 268.135,-100.981 234.549,-87.938 207.42,-78.7385"/>
<polygon fill="midnightblue" stroke="midnightblue" points="208.366,-75.3649 197.773,-75.5339 206.16,-82.0079 208.366,-75.3649"/>
</g>
<!-- Node21&#45;&gt;Node5 -->
<g id="edge40" class="edge"><title>Node21&#45;&gt;Node5</title>
<path fill="none" stroke="midnightblue" d="M338.19,-169.523C341.17,-169.001 344.131,-168.489 347,-168 434.137,-153.157 536.764,-137.001 590.3,-128.674"/>
<polygon fill="midnightblue" stroke="midnightblue" points="590.99,-132.109 600.334,-127.115 589.915,-125.192 590.99,-132.109"/>
</g>
<!-- Node21&#45;&gt;Node7 -->
<g id="edge42" class="edge"><title>Node21&#45;&gt;Node7</title>
<path fill="none" stroke="midnightblue" d="M315.152,-168.34C344.811,-154.517 405.798,-127.453 460,-112 480.159,-106.253 607.083,-84.6896 673.141,-73.6312"/>
<polygon fill="midnightblue" stroke="midnightblue" points="673.909,-77.0515 683.195,-71.9506 672.755,-70.1473 673.909,-77.0515"/>
</g>
<!-- Node21&#45;&gt;Node11 -->
<g id="edge41" class="edge"><title>Node21&#45;&gt;Node11</title>
<path fill="none" stroke="midnightblue" d="M285.914,-168.324C275.514,-160.185 259.739,-147.839 247.278,-138.087"/>
<polygon fill="midnightblue" stroke="midnightblue" points="249.32,-135.241 239.288,-131.834 245.006,-140.753 249.32,-135.241"/>
</g>
<!-- Node22&#45;&gt;Node5 -->
<g id="edge48" class="edge"><title>Node22&#45;&gt;Node5</title>
<path fill="none" stroke="midnightblue" d="M803.248,-224.478C776.253,-217.044 738.417,-204.805 708,-188 683.498,-174.463 658.925,-153.44 643.377,-138.988"/>
<polygon fill="midnightblue" stroke="midnightblue" points="645.389,-136.072 635.727,-131.725 640.569,-141.149 645.389,-136.072"/>
</g>
</g>
</svg>
