<?xml version="1.0" encoding="UTF-8" standalone="no"?>
<!DOCTYPE svg PUBLIC "-//W3C//DTD SVG 1.1//EN"
 "http://www.w3.org/Graphics/SVG/1.1/DTD/svg11.dtd">
<!-- Generated by graphviz version 2.38.0 (20140413.2041)
 -->
<!-- Title: help_printer_iface.hpp Pages: 1 -->
<svg width="212pt" height="252pt"
 viewBox="0.00 0.00 211.50 252.00" xmlns="http://www.w3.org/2000/svg" xmlns:xlink="http://www.w3.org/1999/xlink">
<g id="graph0" class="graph" transform="scale(1 1) rotate(0) translate(4 248)">
<title>help_printer_iface.hpp</title>
<!-- Node1 -->
<g id="node1" class="node"><title>Node1</title>
<polygon fill="#bfbfbf" stroke="black" points="61.5,-224.5 61.5,-243.5 172.5,-243.5 172.5,-224.5 61.5,-224.5"/>
<text text-anchor="middle" x="117" y="-231.5" font-family="FreeSans" font-size="10.00">help_printer_iface.hpp</text>
</g>
<!-- Node2 -->
<g id="node2" class="node"><title>Node2</title>
<g id="a_node2"><a xlink:href="help_8hpp.html" target="_top" xlink:title="help.hpp">
<polygon fill="none" stroke="black" points="47.5,-168.5 47.5,-187.5 100.5,-187.5 100.5,-168.5 47.5,-168.5"/>
<text text-anchor="middle" x="74" y="-175.5" font-family="FreeSans" font-size="10.00">help.hpp</text>
</a>
</g>
</g>
<!-- Node1&#45;&gt;Node2 -->
<g id="edge1" class="edge"><title>Node1&#45;&gt;Node2</title>
<path fill="none" stroke="midnightblue" d="M103.578,-216.144C96.0858,-206.736 87.0629,-195.405 80.9685,-187.751"/>
<polygon fill="midnightblue" stroke="midnightblue" points="100.932,-218.44 109.899,-224.083 106.408,-214.08 100.932,-218.44"/>
</g>
<!-- Node7 -->
<g id="node7" class="node"><title>Node7</title>
<g id="a_node7"><a xlink:href="help__printer_8hpp.html" target="_top" xlink:title="help_printer.hpp">
<polygon fill="none" stroke="black" points="118.5,-168.5 118.5,-187.5 203.5,-187.5 203.5,-168.5 118.5,-168.5"/>
<text text-anchor="middle" x="161" y="-175.5" font-family="FreeSans" font-size="10.00">help_printer.hpp</text>
</a>
</g>
</g>
<!-- Node1&#45;&gt;Node7 -->
<g id="edge7" class="edge"><title>Node1&#45;&gt;Node7</title>
<path fill="none" stroke="midnightblue" d="M130.735,-216.144C138.401,-206.736 147.633,-195.405 153.869,-187.751"/>
<polygon fill="midnightblue" stroke="midnightblue" points="127.869,-214.12 124.266,-224.083 133.296,-218.541 127.869,-214.12"/>
</g>
<!-- Node3 -->
<g id="node3" class="node"><title>Node3</title>
<g id="a_node3"><a xlink:href="cmd__line_8hpp.html" target="_top" xlink:title="cmd_line.hpp">
<polygon fill="none" stroke="black" points="80,-112.5 80,-131.5 154,-131.5 154,-112.5 80,-112.5"/>
<text text-anchor="middle" x="117" y="-119.5" font-family="FreeSans" font-size="10.00">cmd_line.hpp</text>
</a>
</g>
</g>
<!-- Node2&#45;&gt;Node3 -->
<g id="edge2" class="edge"><title>Node2&#45;&gt;Node3</title>
<path fill="none" stroke="midnightblue" d="M87.4224,-160.144C94.9142,-150.736 103.937,-139.405 110.032,-131.751"/>
<polygon fill="midnightblue" stroke="midnightblue" points="84.5919,-158.08 81.1006,-168.083 90.0679,-162.44 84.5919,-158.08"/>
</g>
<!-- Node4 -->
<g id="node4" class="node"><title>Node4</title>
<g id="a_node4"><a xlink:href="all_8hpp.html" target="_top" xlink:title="all.hpp">
<polygon fill="none" stroke="black" points="0,-56.5 0,-75.5 44,-75.5 44,-56.5 0,-56.5"/>
<text text-anchor="middle" x="22" y="-63.5" font-family="FreeSans" font-size="10.00">all.hpp</text>
</a>
</g>
</g>
<!-- Node3&#45;&gt;Node4 -->
<g id="edge3" class="edge"><title>Node3&#45;&gt;Node4</title>
<path fill="none" stroke="midnightblue" d="M92.6824,-107.177C75.2012,-97.2407 52.1699,-84.1492 37.2255,-75.6545"/>
<polygon fill="midnightblue" stroke="midnightblue" points="91.3133,-110.425 101.737,-112.324 94.7725,-104.339 91.3133,-110.425"/>
</g>
<!-- Node5 -->
<g id="node5" class="node"><title>Node5</title>
<g id="a_node5"><a xlink:href="arg__as__command_8hpp.html" target="_top" xlink:title="arg_as_command.hpp">
<polygon fill="none" stroke="black" points="61.5,-56.5 61.5,-75.5 172.5,-75.5 172.5,-56.5 61.5,-56.5"/>
<text text-anchor="middle" x="117" y="-63.5" font-family="FreeSans" font-size="10.00">arg_as_command.hpp</text>
</a>
</g>
</g>
<!-- Node3&#45;&gt;Node5 -->
<g id="edge4" class="edge"><title>Node3&#45;&gt;Node5</title>
<path fill="none" stroke="midnightblue" d="M117,-101.805C117,-92.9102 117,-82.7798 117,-75.7511"/>
<polygon fill="midnightblue" stroke="midnightblue" points="113.5,-102.083 117,-112.083 120.5,-102.083 113.5,-102.083"/>
</g>
<!-- Node6 -->
<g id="node6" class="node"><title>Node6</title>
<g id="a_node6"><a xlink:href="api_8hpp.html" target="_top" xlink:title="api.hpp">
<polygon fill="none" stroke="black" points="135.5,-0.5 135.5,-19.5 182.5,-19.5 182.5,-0.5 135.5,-0.5"/>
<text text-anchor="middle" x="159" y="-7.5" font-family="FreeSans" font-size="10.00">api.hpp</text>
</a>
</g>
</g>
<!-- Node5&#45;&gt;Node6 -->
<g id="edge5" class="edge"><title>Node5&#45;&gt;Node6</title>
<path fill="none" stroke="midnightblue" d="M130.11,-48.144C137.428,-38.7357 146.241,-27.4046 152.194,-19.7511"/>
<polygon fill="midnightblue" stroke="midnightblue" points="127.312,-46.0406 123.935,-56.083 132.838,-50.3383 127.312,-46.0406"/>
</g>
<!-- Node6&#45;&gt;Node3 -->
<g id="edge6" class="edge"><title>Node6&#45;&gt;Node3</title>
<path fill="none" stroke="midnightblue" d="M172.091,-28.0706C180.705,-41.5278 189.03,-60.5372 181,-76 172.111,-93.117 153.392,-105.09 138.483,-112.36"/>
<polygon fill="midnightblue" stroke="midnightblue" points="174.876,-25.9451 166.279,-19.7529 169.138,-29.9547 174.876,-25.9451"/>
</g>
<!-- Node7&#45;&gt;Node3 -->
<g id="edge8" class="edge"><title>Node7&#45;&gt;Node3</title>
<path fill="none" stroke="midnightblue" d="M147.265,-160.144C139.599,-150.736 130.367,-139.405 124.131,-131.751"/>
<polygon fill="midnightblue" stroke="midnightblue" points="144.704,-162.541 153.734,-168.083 150.131,-158.12 144.704,-162.541"/>
</g>
</g>
</svg>
