<?xml version="1.0" encoding="UTF-8" standalone="no"?>
<!DOCTYPE svg PUBLIC "-//W3C//DTD SVG 1.1//EN"
 "http://www.w3.org/Graphics/SVG/1.1/DTD/svg11.dtd">
<!-- Generated by graphviz version 2.43.0 (0)
 -->
<!-- Title: help.hpp Pages: 1 -->
<!--zoomable 476 -->
<svg id="main" version="1.1" xmlns="http://www.w3.org/2000/svg" xmlns:xlink="http://www.w3.org/1999/xlink" xml:space="preserve" onload="init(evt)">
<style type="text/css"><![CDATA[
.edge:hover path { stroke: red; }
.edge:hover polygon { stroke: red; fill: red; }
]]></style>
<script type="text/javascript"><![CDATA[
var edges = document.getElementsByTagName('g');
if (edges && edges.length) {
  for (var i=0;i<edges.length;i++) {
    if (edges[i].id.substr(0,4)=='edge') {
      edges[i].setAttribute('class','edge');
    }
  }
}
]]></script>
        <defs>
                <circle id="rim" cx="0" cy="0" r="7"/>
                <circle id="rim2" cx="0" cy="0" r="3.5"/>
                <g id="zoomPlus">
                        <use xlink:href="#rim" fill="#404040">
                                <set attributeName="fill" to="#808080" begin="zoomplus.mouseover" end="zoomplus.mouseout"/>
                        </use>
                        <path d="M-4,0h8M0,-4v8" fill="none" stroke="white" stroke-width="1.5" pointer-events="none"/>
                </g>
                <g id="zoomMin">
                        <use xlink:href="#rim" fill="#404040">
                                <set attributeName="fill" to="#808080" begin="zoomminus.mouseover" end="zoomminus.mouseout"/>
                        </use>
                        <path d="M-4,0h8" fill="none" stroke="white" stroke-width="1.5" pointer-events="none"/>
                </g>
                <g id="dirArrow">
                        <path fill="none" stroke="white" stroke-width="1.5" d="M0,-3.0v7 M-2.5,-0.5L0,-3.0L2.5,-0.5"/>
                </g>
               <g id="resetDef">
                       <use xlink:href="#rim2" fill="#404040">
                               <set attributeName="fill" to="#808080" begin="reset.mouseover" end="reset.mouseout"/>
                       </use>
               </g>
        </defs>

<script type="text/javascript">
var viewWidth = 1377;
var viewHeight = 476;
var sectionId = 'dynsection-0';
</script>
<script xlink:href="svgpan.js"/>
<svg id="graph" class="graph">
<g id="viewport">
<title>help.hpp</title>
<!-- Node1 -->
<g id="node1" class="node">
<title>Node1</title>
<g id="a_node1"><a xlink:title=" ">
<polygon fill="#bfbfbf" stroke="black" points="545.5,-448.5 545.5,-467.5 604.5,-467.5 604.5,-448.5 545.5,-448.5"/>
<text text-anchor="middle" x="575" y="-455.5" font-family="Helvetica,sans-Serif" font-size="10.00">help.hpp</text>
</a>
</g>
</g>
<!-- Node2 -->
<g id="node2" class="node">
<title>Node2</title>
<g id="a_node2"><a xlink:href="arg_8hpp.html" target="_top" xlink:title=" ">
<polygon fill="none" stroke="black" points="483.5,-224.5 483.5,-243.5 536.5,-243.5 536.5,-224.5 483.5,-224.5"/>
<text text-anchor="middle" x="510" y="-231.5" font-family="Helvetica,sans-Serif" font-size="10.00">arg.hpp</text>
</a>
</g>
</g>
<!-- Node1&#45;&gt;Node2 -->
<g id="edge1" class="edge">
<title>Node1&#45;&gt;Node2</title>
<path fill="none" stroke="midnightblue" d="M573.5,-448.11C571.33,-435.53 566.99,-411.87 562,-392 549.16,-340.88 528,-282.36 517.05,-253.32"/>
<polygon fill="midnightblue" stroke="midnightblue" points="520.22,-251.82 513.39,-243.72 513.68,-254.31 520.22,-251.82"/>
</g>
<!-- Node4 -->
<g id="node4" class="node">
<title>Node4</title>
<g id="a_node4"><a xlink:href="utils_8hpp.html" target="_top" xlink:title=" ">
<polygon fill="none" stroke="black" points="843.5,-112.5 843.5,-131.5 902.5,-131.5 902.5,-112.5 843.5,-112.5"/>
<text text-anchor="middle" x="873" y="-119.5" font-family="Helvetica,sans-Serif" font-size="10.00">utils.hpp</text>
</a>
</g>
</g>
<!-- Node1&#45;&gt;Node4 -->
<g id="edge30" class="edge">
<title>Node1&#45;&gt;Node4</title>
<path fill="none" stroke="midnightblue" d="M604.54,-457.51C681.63,-458.16 894.71,-455.53 1065,-412 1135.39,-394.01 1215,-419.66 1215,-347 1215,-347 1215,-347 1215,-233 1215,-202.9 1218.78,-187.67 1196,-168 1154.36,-132.03 989.77,-124.74 912.92,-123.32"/>
<polygon fill="midnightblue" stroke="midnightblue" points="912.74,-119.81 902.68,-123.15 912.62,-126.81 912.74,-119.81"/>
</g>
<!-- Node5 -->
<g id="node5" class="node">
<title>Node5</title>
<g id="a_node5"><a xlink:href="types_8hpp.html" target="_top" xlink:title=" ">
<polygon fill="none" stroke="black" points="459.5,-56.5 459.5,-75.5 524.5,-75.5 524.5,-56.5 459.5,-56.5"/>
<text text-anchor="middle" x="492" y="-63.5" font-family="Helvetica,sans-Serif" font-size="10.00">types.hpp</text>
</a>
</g>
</g>
<!-- Node1&#45;&gt;Node5 -->
<g id="edge32" class="edge">
<title>Node1&#45;&gt;Node5</title>
<path fill="none" stroke="midnightblue" d="M545.3,-454.51C427.55,-444.24 0,-403.09 0,-347 0,-347 0,-347 0,-177 0,-133.56 33.28,-129.6 73,-112 139.66,-82.45 356.51,-71.64 449.28,-68.3"/>
<polygon fill="midnightblue" stroke="midnightblue" points="449.56,-71.79 459.43,-67.94 449.32,-64.79 449.56,-71.79"/>
</g>
<!-- Node12 -->
<g id="node12" class="node">
<title>Node12</title>
<g id="a_node12"><a xlink:href="context_8hpp.html" target="_top" xlink:title=" ">
<polygon fill="none" stroke="black" points="218,-168.5 218,-187.5 292,-187.5 292,-168.5 218,-168.5"/>
<text text-anchor="middle" x="255" y="-175.5" font-family="Helvetica,sans-Serif" font-size="10.00">context.hpp</text>
</a>
</g>
</g>
<!-- Node1&#45;&gt;Node12 -->
<g id="edge29" class="edge">
<title>Node1&#45;&gt;Node12</title>
<path fill="none" stroke="midnightblue" d="M545.47,-455.52C463.18,-451.11 235.87,-436.77 214,-412 158.51,-349.16 217.56,-238.42 243.79,-196.1"/>
<polygon fill="midnightblue" stroke="midnightblue" points="246.84,-197.83 249.25,-187.51 240.93,-194.07 246.84,-197.83"/>
</g>
<!-- Node14 -->
<g id="node14" class="node">
<title>Node14</title>
<g id="a_node14"><a xlink:href="exceptions_8hpp.html" target="_top" xlink:title=" ">
<polygon fill="none" stroke="black" points="558.5,-112.5 558.5,-131.5 649.5,-131.5 649.5,-112.5 558.5,-112.5"/>
<text text-anchor="middle" x="604" y="-119.5" font-family="Helvetica,sans-Serif" font-size="10.00">exceptions.hpp</text>
</a>
</g>
</g>
<!-- Node1&#45;&gt;Node14 -->
<g id="edge31" class="edge">
<title>Node1&#45;&gt;Node14</title>
<path fill="none" stroke="midnightblue" d="M545.43,-448.49C439.52,-416.66 91.47,-299.68 209,-168 220.16,-155.49 441.88,-136.05 548.14,-127.41"/>
<polygon fill="midnightblue" stroke="midnightblue" points="548.67,-130.87 558.36,-126.58 548.11,-123.9 548.67,-130.87"/>
</g>
<!-- Node17 -->
<g id="node17" class="node">
<title>Node17</title>
<g id="a_node17"><a xlink:href="help__printer__iface_8hpp.html" target="_top" xlink:title=" ">
<polygon fill="none" stroke="black" points="1243.5,-336.5 1243.5,-355.5 1368.5,-355.5 1368.5,-336.5 1243.5,-336.5"/>
<text text-anchor="middle" x="1306" y="-343.5" font-family="Helvetica,sans-Serif" font-size="10.00">help_printer_iface.hpp</text>
</a>
</g>
</g>
<!-- Node1&#45;&gt;Node17 -->
<g id="edge27" class="edge">
<title>Node1&#45;&gt;Node17</title>
<path fill="none" stroke="midnightblue" d="M604.8,-457.38C717,-458.46 1113.5,-458.79 1229,-412 1254.72,-401.58 1278.13,-379.12 1292.22,-363.54"/>
<polygon fill="midnightblue" stroke="midnightblue" points="1295.11,-365.55 1299.04,-355.71 1289.83,-360.95 1295.11,-365.55"/>
</g>
<!-- Node18 -->
<g id="node18" class="node">
<title>Node18</title>
<g id="a_node18"><a xlink:href="command_8hpp.html" target="_top" xlink:title=" ">
<polygon fill="none" stroke="black" points="467,-392.5 467,-411.5 553,-411.5 553,-392.5 467,-392.5"/>
<text text-anchor="middle" x="510" y="-399.5" font-family="Helvetica,sans-Serif" font-size="10.00">command.hpp</text>
</a>
</g>
</g>
<!-- Node1&#45;&gt;Node18 -->
<g id="edge33" class="edge">
<title>Node1&#45;&gt;Node18</title>
<path fill="none" stroke="midnightblue" d="M564.56,-448.32C554.85,-440.26 540.18,-428.08 528.5,-418.37"/>
<polygon fill="midnightblue" stroke="midnightblue" points="530.56,-415.53 520.63,-411.83 526.09,-420.92 530.56,-415.53"/>
</g>
<!-- Node23 -->
<g id="node23" class="node">
<title>Node23</title>
<g id="a_node23"><a xlink:title=" ">
<polygon fill="none" stroke="#bfbfbf" points="1129,-168.5 1129,-187.5 1187,-187.5 1187,-168.5 1129,-168.5"/>
<text text-anchor="middle" x="1158" y="-175.5" font-family="Helvetica,sans-Serif" font-size="10.00">memory</text>
</a>
</g>
</g>
<!-- Node1&#45;&gt;Node23 -->
<g id="edge65" class="edge">
<title>Node1&#45;&gt;Node23</title>
<path fill="none" stroke="midnightblue" d="M604.79,-457.17C716.06,-457.03 1101,-449.16 1101,-347 1101,-347 1101,-347 1101,-289 1101,-252.3 1126.32,-215.66 1143.21,-195.3"/>
<polygon fill="midnightblue" stroke="midnightblue" points="1145.95,-197.48 1149.83,-187.62 1140.65,-192.9 1145.95,-197.48"/>
</g>
<!-- Node3 -->
<g id="node3" class="node">
<title>Node3</title>
<g id="a_node3"><a xlink:href="arg__iface_8hpp.html" target="_top" xlink:title=" ">
<polygon fill="none" stroke="black" points="576.5,-168.5 576.5,-187.5 659.5,-187.5 659.5,-168.5 576.5,-168.5"/>
<text text-anchor="middle" x="618" y="-175.5" font-family="Helvetica,sans-Serif" font-size="10.00">arg_iface.hpp</text>
</a>
</g>
</g>
<!-- Node2&#45;&gt;Node3 -->
<g id="edge2" class="edge">
<title>Node2&#45;&gt;Node3</title>
<path fill="none" stroke="midnightblue" d="M527.35,-224.32C544.67,-215.66 571.52,-202.24 591.5,-192.25"/>
<polygon fill="midnightblue" stroke="midnightblue" points="593.31,-195.26 600.69,-187.65 590.18,-189 593.31,-195.26"/>
</g>
<!-- Node2&#45;&gt;Node4 -->
<g id="edge12" class="edge">
<title>Node2&#45;&gt;Node4</title>
<path fill="none" stroke="midnightblue" d="M536.78,-232.23C586.05,-230.01 693.66,-221.39 777,-188 807.03,-175.97 837.18,-153.43 855.48,-138.31"/>
<polygon fill="midnightblue" stroke="midnightblue" points="858.08,-140.7 863.45,-131.57 853.56,-135.36 858.08,-140.7"/>
</g>
<!-- Node2&#45;&gt;Node5 -->
<g id="edge25" class="edge">
<title>Node2&#45;&gt;Node5</title>
<path fill="none" stroke="midnightblue" d="M509.03,-224.08C506.2,-197.95 497.88,-121.21 494.01,-85.58"/>
<polygon fill="midnightblue" stroke="midnightblue" points="497.49,-85.13 492.93,-75.57 490.53,-85.89 497.49,-85.13"/>
</g>
<!-- Node9 -->
<g id="node9" class="node">
<title>Node9</title>
<g id="a_node9"><a xlink:title=" ">
<polygon fill="none" stroke="#bfbfbf" points="841,-56.5 841,-75.5 905,-75.5 905,-56.5 841,-56.5"/>
<text text-anchor="middle" x="873" y="-63.5" font-family="Helvetica,sans-Serif" font-size="10.00">algorithm</text>
</a>
</g>
</g>
<!-- Node2&#45;&gt;Node9 -->
<g id="edge26" class="edge">
<title>Node2&#45;&gt;Node9</title>
<path fill="none" stroke="midnightblue" d="M515.53,-224.09C524.6,-210.16 543.97,-183.25 567,-168 589.88,-152.85 757.41,-101.6 834.44,-78.48"/>
<polygon fill="midnightblue" stroke="midnightblue" points="835.68,-81.77 844.25,-75.54 833.67,-75.06 835.68,-81.77"/>
</g>
<!-- Node2&#45;&gt;Node12 -->
<g id="edge13" class="edge">
<title>Node2&#45;&gt;Node12</title>
<path fill="none" stroke="midnightblue" d="M483.19,-227.32C440.19,-218.22 355.22,-200.22 301.97,-188.95"/>
<polygon fill="midnightblue" stroke="midnightblue" points="302.6,-185.5 292.09,-186.85 301.15,-192.35 302.6,-185.5"/>
</g>
<!-- Node2&#45;&gt;Node14 -->
<g id="edge17" class="edge">
<title>Node2&#45;&gt;Node14</title>
<path fill="none" stroke="midnightblue" d="M511.42,-224.13C513.94,-210.72 520.29,-185.07 534,-168 544.8,-154.55 560.76,-143.85 574.72,-136.27"/>
<polygon fill="midnightblue" stroke="midnightblue" points="576.67,-139.2 583.97,-131.52 573.47,-132.97 576.67,-139.2"/>
</g>
<!-- Node16 -->
<g id="node16" class="node">
<title>Node16</title>
<g id="a_node16"><a xlink:href="value__utils_8hpp.html" target="_top" xlink:title=" ">
<polygon fill="none" stroke="black" points="677.5,-168.5 677.5,-187.5 768.5,-187.5 768.5,-168.5 677.5,-168.5"/>
<text text-anchor="middle" x="723" y="-175.5" font-family="Helvetica,sans-Serif" font-size="10.00">value_utils.hpp</text>
</a>
</g>
</g>
<!-- Node2&#45;&gt;Node16 -->
<g id="edge20" class="edge">
<title>Node2&#45;&gt;Node16</title>
<path fill="none" stroke="midnightblue" d="M536.55,-226.27C572.37,-217.19 636.64,-200.89 679.56,-190.01"/>
<polygon fill="midnightblue" stroke="midnightblue" points="680.61,-193.36 689.45,-187.51 678.89,-186.57 680.61,-193.36"/>
</g>
<!-- Node3&#45;&gt;Node4 -->
<g id="edge3" class="edge">
<title>Node3&#45;&gt;Node4</title>
<path fill="none" stroke="midnightblue" d="M658.41,-168.44C706.29,-158.3 785.57,-141.51 833.2,-131.43"/>
<polygon fill="midnightblue" stroke="midnightblue" points="834.08,-134.82 843.14,-129.32 832.63,-127.97 834.08,-134.82"/>
</g>
<!-- Node3&#45;&gt;Node5 -->
<g id="edge10" class="edge">
<title>Node3&#45;&gt;Node5</title>
<path fill="none" stroke="midnightblue" d="M602.36,-168.46C587.79,-160.13 565.86,-146.62 549,-132 532.07,-117.32 515.5,-97.65 504.63,-83.81"/>
<polygon fill="midnightblue" stroke="midnightblue" points="507.23,-81.46 498.36,-75.67 501.69,-85.73 507.23,-81.46"/>
</g>
<!-- Node11 -->
<g id="node11" class="node">
<title>Node11</title>
<g id="a_node11"><a xlink:href="enums_8hpp.html" target="_top" xlink:title=" ">
<polygon fill="none" stroke="black" points="392.5,-112.5 392.5,-131.5 463.5,-131.5 463.5,-112.5 392.5,-112.5"/>
<text text-anchor="middle" x="428" y="-119.5" font-family="Helvetica,sans-Serif" font-size="10.00">enums.hpp</text>
</a>
</g>
</g>
<!-- Node3&#45;&gt;Node11 -->
<g id="edge11" class="edge">
<title>Node3&#45;&gt;Node11</title>
<path fill="none" stroke="midnightblue" d="M587.89,-168.44C555.37,-159.2 503.42,-144.44 467.61,-134.26"/>
<polygon fill="midnightblue" stroke="midnightblue" points="468.54,-130.88 457.97,-131.52 466.63,-137.62 468.54,-130.88"/>
</g>
<!-- Node4&#45;&gt;Node5 -->
<g id="edge4" class="edge">
<title>Node4&#45;&gt;Node5</title>
<path fill="none" stroke="midnightblue" d="M843.42,-116.81C776.32,-107.3 612.37,-84.06 534.46,-73.02"/>
<polygon fill="midnightblue" stroke="midnightblue" points="534.9,-69.54 524.5,-71.61 533.91,-76.48 534.9,-69.54"/>
</g>
<!-- Node4&#45;&gt;Node9 -->
<g id="edge8" class="edge">
<title>Node4&#45;&gt;Node9</title>
<path fill="none" stroke="midnightblue" d="M873,-112.08C873,-105.01 873,-94.86 873,-85.99"/>
<polygon fill="midnightblue" stroke="midnightblue" points="876.5,-85.75 873,-75.75 869.5,-85.75 876.5,-85.75"/>
</g>
<!-- Node10 -->
<g id="node10" class="node">
<title>Node10</title>
<g id="a_node10"><a xlink:title=" ">
<polygon fill="none" stroke="#bfbfbf" points="976.5,-56.5 976.5,-75.5 1045.5,-75.5 1045.5,-56.5 976.5,-56.5"/>
<text text-anchor="middle" x="1011" y="-63.5" font-family="Helvetica,sans-Serif" font-size="10.00">type_traits</text>
</a>
</g>
</g>
<!-- Node4&#45;&gt;Node10 -->
<g id="edge9" class="edge">
<title>Node4&#45;&gt;Node10</title>
<path fill="none" stroke="midnightblue" d="M894.87,-112.44C917.78,-103.48 953.98,-89.31 979.87,-79.18"/>
<polygon fill="midnightblue" stroke="midnightblue" points="981.2,-82.42 989.24,-75.52 978.65,-75.9 981.2,-82.42"/>
</g>
<!-- Node6 -->
<g id="node6" class="node">
<title>Node6</title>
<g id="a_node6"><a xlink:title=" ">
<polygon fill="none" stroke="#bfbfbf" points="505,-0.5 505,-19.5 549,-19.5 549,-0.5 505,-0.5"/>
<text text-anchor="middle" x="527" y="-7.5" font-family="Helvetica,sans-Serif" font-size="10.00">string</text>
</a>
</g>
</g>
<!-- Node5&#45;&gt;Node6 -->
<g id="edge5" class="edge">
<title>Node5&#45;&gt;Node6</title>
<path fill="none" stroke="midnightblue" d="M497.78,-56.08C502.67,-48.53 509.83,-37.49 515.83,-28.23"/>
<polygon fill="midnightblue" stroke="midnightblue" points="518.83,-30.05 521.33,-19.75 512.95,-26.24 518.83,-30.05"/>
</g>
<!-- Node7 -->
<g id="node7" class="node">
<title>Node7</title>
<g id="a_node7"><a xlink:title=" ">
<polygon fill="none" stroke="#bfbfbf" points="427,-0.5 427,-19.5 487,-19.5 487,-0.5 427,-0.5"/>
<text text-anchor="middle" x="457" y="-7.5" font-family="Helvetica,sans-Serif" font-size="10.00">iostream</text>
</a>
</g>
</g>
<!-- Node5&#45;&gt;Node7 -->
<g id="edge6" class="edge">
<title>Node5&#45;&gt;Node7</title>
<path fill="none" stroke="midnightblue" d="M486.22,-56.08C481.33,-48.53 474.17,-37.49 468.17,-28.23"/>
<polygon fill="midnightblue" stroke="midnightblue" points="471.05,-26.24 462.67,-19.75 465.17,-30.05 471.05,-26.24"/>
</g>
<!-- Node8 -->
<g id="node8" class="node">
<title>Node8</title>
<g id="a_node8"><a xlink:title=" ">
<polygon fill="none" stroke="#bfbfbf" points="837.5,-0.5 837.5,-19.5 884.5,-19.5 884.5,-0.5 837.5,-0.5"/>
<text text-anchor="middle" x="861" y="-7.5" font-family="Helvetica,sans-Serif" font-size="10.00">vector</text>
</a>
</g>
</g>
<!-- Node5&#45;&gt;Node8 -->
<g id="edge7" class="edge">
<title>Node5&#45;&gt;Node8</title>
<path fill="none" stroke="midnightblue" d="M524.75,-60.21C594.37,-50.02 756.51,-26.29 827.12,-15.96"/>
<polygon fill="midnightblue" stroke="midnightblue" points="827.86,-19.39 837.25,-14.48 826.85,-12.46 827.86,-19.39"/>
</g>
<!-- Node12&#45;&gt;Node4 -->
<g id="edge15" class="edge">
<title>Node12&#45;&gt;Node4</title>
<path fill="none" stroke="midnightblue" d="M292.27,-173.74C401.48,-164.2 720.15,-136.36 832.9,-126.5"/>
<polygon fill="midnightblue" stroke="midnightblue" points="833.5,-129.97 843.15,-125.61 832.89,-122.99 833.5,-129.97"/>
</g>
<!-- Node12&#45;&gt;Node5 -->
<g id="edge16" class="edge">
<title>Node12&#45;&gt;Node5</title>
<path fill="none" stroke="midnightblue" d="M255.89,-168.35C257.82,-154.28 263.71,-126.57 281,-112 306.02,-90.91 395.19,-77.65 449.28,-71.35"/>
<polygon fill="midnightblue" stroke="midnightblue" points="449.73,-74.82 459.27,-70.22 448.94,-67.87 449.73,-74.82"/>
</g>
<!-- Node13 -->
<g id="node13" class="node">
<title>Node13</title>
<g id="a_node13"><a xlink:title=" ">
<polygon fill="none" stroke="#bfbfbf" points="290.5,-112.5 290.5,-131.5 335.5,-131.5 335.5,-112.5 290.5,-112.5"/>
<text text-anchor="middle" x="313" y="-119.5" font-family="Helvetica,sans-Serif" font-size="10.00">utility</text>
</a>
</g>
</g>
<!-- Node12&#45;&gt;Node13 -->
<g id="edge14" class="edge">
<title>Node12&#45;&gt;Node13</title>
<path fill="none" stroke="midnightblue" d="M264.32,-168.32C272.89,-160.34 285.81,-148.31 296.19,-138.65"/>
<polygon fill="midnightblue" stroke="midnightblue" points="298.58,-141.21 303.51,-131.83 293.81,-136.09 298.58,-141.21"/>
</g>
<!-- Node14&#45;&gt;Node5 -->
<g id="edge19" class="edge">
<title>Node14&#45;&gt;Node5</title>
<path fill="none" stroke="midnightblue" d="M586.01,-112.32C567.96,-103.62 539.95,-90.12 519.2,-80.11"/>
<polygon fill="midnightblue" stroke="midnightblue" points="520.48,-76.84 509.95,-75.65 517.44,-83.15 520.48,-76.84"/>
</g>
<!-- Node15 -->
<g id="node15" class="node">
<title>Node15</title>
<g id="a_node15"><a xlink:title=" ">
<polygon fill="none" stroke="#bfbfbf" points="571.5,-56.5 571.5,-75.5 636.5,-75.5 636.5,-56.5 571.5,-56.5"/>
<text text-anchor="middle" x="604" y="-63.5" font-family="Helvetica,sans-Serif" font-size="10.00">stdexcept</text>
</a>
</g>
</g>
<!-- Node14&#45;&gt;Node15 -->
<g id="edge18" class="edge">
<title>Node14&#45;&gt;Node15</title>
<path fill="none" stroke="midnightblue" d="M604,-112.08C604,-105.01 604,-94.86 604,-85.99"/>
<polygon fill="midnightblue" stroke="midnightblue" points="607.5,-85.75 604,-75.75 600.5,-85.75 607.5,-85.75"/>
</g>
<!-- Node16&#45;&gt;Node4 -->
<g id="edge21" class="edge">
<title>Node16&#45;&gt;Node4</title>
<path fill="none" stroke="midnightblue" d="M746.77,-168.44C771.89,-159.4 811.71,-145.06 839.9,-134.92"/>
<polygon fill="midnightblue" stroke="midnightblue" points="841.12,-138.2 849.34,-131.52 838.75,-131.61 841.12,-138.2"/>
</g>
<!-- Node16&#45;&gt;Node5 -->
<g id="edge23" class="edge">
<title>Node16&#45;&gt;Node5</title>
<path fill="none" stroke="midnightblue" d="M716.84,-168.42C706.36,-154.45 683.69,-126.88 658,-112 619.55,-89.73 569.71,-78.14 534.71,-72.35"/>
<polygon fill="midnightblue" stroke="midnightblue" points="535.23,-68.88 524.81,-70.79 534.15,-75.8 535.23,-68.88"/>
</g>
<!-- Node16&#45;&gt;Node9 -->
<g id="edge24" class="edge">
<title>Node16&#45;&gt;Node9</title>
<path fill="none" stroke="midnightblue" d="M734.77,-168.37C760.4,-149.57 821.5,-104.77 853.18,-81.53"/>
<polygon fill="midnightblue" stroke="midnightblue" points="855.29,-84.33 861.28,-75.59 851.15,-78.68 855.29,-84.33"/>
</g>
<!-- Node16&#45;&gt;Node14 -->
<g id="edge22" class="edge">
<title>Node16&#45;&gt;Node14</title>
<path fill="none" stroke="midnightblue" d="M704.14,-168.44C684.73,-159.64 654.27,-145.81 632.04,-135.72"/>
<polygon fill="midnightblue" stroke="midnightblue" points="633.32,-132.46 622.77,-131.52 630.43,-138.84 633.32,-132.46"/>
</g>
<!-- Node17&#45;&gt;Node4 -->
<g id="edge28" class="edge">
<title>Node17&#45;&gt;Node4</title>
<path fill="none" stroke="midnightblue" d="M1305.14,-336.16C1301.78,-306.68 1286.66,-211.21 1229,-168 1179.81,-131.14 994.9,-124.37 912.75,-123.2"/>
<polygon fill="midnightblue" stroke="midnightblue" points="912.6,-119.7 902.56,-123.08 912.52,-126.7 912.6,-119.7"/>
</g>
<!-- Node18&#45;&gt;Node4 -->
<g id="edge60" class="edge">
<title>Node18&#45;&gt;Node4</title>
<path fill="none" stroke="midnightblue" d="M553.02,-400.93C676.8,-399.58 1025,-387.23 1025,-291 1025,-291 1025,-291 1025,-233 1025,-177.43 957.5,-147.07 912.46,-133"/>
<polygon fill="midnightblue" stroke="midnightblue" points="913.25,-129.59 902.67,-130.09 911.25,-136.3 913.25,-129.59"/>
</g>
<!-- Node18&#45;&gt;Node5 -->
<g id="edge64" class="edge">
<title>Node18&#45;&gt;Node5</title>
<path fill="none" stroke="midnightblue" d="M466.86,-400.09C350.34,-396.47 38,-378.61 38,-291 38,-291 38,-291 38,-177 38,-92.85 336.33,-72.85 449.32,-68.29"/>
<polygon fill="midnightblue" stroke="midnightblue" points="449.49,-71.78 459.35,-67.9 449.22,-64.79 449.49,-71.78"/>
</g>
<!-- Node18&#45;&gt;Node11 -->
<g id="edge63" class="edge">
<title>Node18&#45;&gt;Node11</title>
<path fill="none" stroke="midnightblue" d="M466.78,-395.55C391.92,-383.5 240.02,-346.98 176,-244 158.17,-215.31 154.32,-193.9 176,-168 189.11,-152.34 313.31,-135.97 382.32,-127.98"/>
<polygon fill="midnightblue" stroke="midnightblue" points="382.95,-131.43 392.48,-126.82 382.15,-124.48 382.95,-131.43"/>
</g>
<!-- Node18&#45;&gt;Node12 -->
<g id="edge61" class="edge">
<title>Node18&#45;&gt;Node12</title>
<path fill="none" stroke="midnightblue" d="M493.8,-392.35C455.66,-371.32 358.94,-314.1 299,-244 286.17,-229 273.77,-210.16 265.43,-196.64"/>
<polygon fill="midnightblue" stroke="midnightblue" points="268.29,-194.6 260.12,-187.86 262.3,-198.22 268.29,-194.6"/>
</g>
<!-- Node18&#45;&gt;Node16 -->
<g id="edge62" class="edge">
<title>Node18&#45;&gt;Node16</title>
<path fill="none" stroke="midnightblue" d="M518.35,-392.3C550.35,-358.94 665.51,-238.92 707.52,-195.13"/>
<polygon fill="midnightblue" stroke="midnightblue" points="710.08,-197.52 714.48,-187.88 705.03,-192.68 710.08,-197.52"/>
</g>
<!-- Node19 -->
<g id="node19" class="node">
<title>Node19</title>
<g id="a_node19"><a xlink:href="api_8hpp.html" target="_top" xlink:title=" ">
<polygon fill="none" stroke="black" points="483.5,-336.5 483.5,-355.5 536.5,-355.5 536.5,-336.5 483.5,-336.5"/>
<text text-anchor="middle" x="510" y="-343.5" font-family="Helvetica,sans-Serif" font-size="10.00">api.hpp</text>
</a>
</g>
</g>
<!-- Node18&#45;&gt;Node19 -->
<g id="edge34" class="edge">
<title>Node18&#45;&gt;Node19</title>
<path fill="none" stroke="midnightblue" d="M504.83,-392.08C503.32,-384.93 502.89,-374.64 503.54,-365.69"/>
<polygon fill="midnightblue" stroke="midnightblue" points="507.02,-366.13 504.87,-355.75 500.08,-365.2 507.02,-366.13"/>
</g>
<!-- Node22 -->
<g id="node22" class="node">
<title>Node22</title>
<g id="a_node22"><a xlink:href="group__iface_8hpp.html" target="_top" xlink:title=" ">
<polygon fill="none" stroke="black" points="901.5,-224.5 901.5,-243.5 996.5,-243.5 996.5,-224.5 901.5,-224.5"/>
<text text-anchor="middle" x="949" y="-231.5" font-family="Helvetica,sans-Serif" font-size="10.00">group_iface.hpp</text>
</a>
</g>
</g>
<!-- Node18&#45;&gt;Node22 -->
<g id="edge59" class="edge">
<title>Node18&#45;&gt;Node22</title>
<path fill="none" stroke="midnightblue" d="M547.79,-392.48C610.07,-377.78 737.47,-344.83 839,-300 871.67,-285.58 906.76,-263.59 928.3,-249.25"/>
<polygon fill="midnightblue" stroke="midnightblue" points="930.31,-252.11 936.65,-243.62 926.4,-246.31 930.31,-252.11"/>
</g>
<!-- Node19&#45;&gt;Node2 -->
<g id="edge36" class="edge">
<title>Node19&#45;&gt;Node2</title>
<path fill="none" stroke="midnightblue" d="M510,-336.37C510,-318.62 510,-277.67 510,-253.6"/>
<polygon fill="midnightblue" stroke="midnightblue" points="513.5,-253.59 510,-243.59 506.5,-253.59 513.5,-253.59"/>
</g>
<!-- Node19&#45;&gt;Node5 -->
<g id="edge35" class="edge">
<title>Node19&#45;&gt;Node5</title>
<path fill="none" stroke="midnightblue" d="M483.16,-343.98C425.4,-340.26 288.76,-323.11 217,-244 199.61,-224.83 204.59,-213.63 201,-188 196.01,-152.35 200.09,-133.45 229,-112 263.17,-86.65 383.69,-74.51 449.07,-69.68"/>
<polygon fill="midnightblue" stroke="midnightblue" points="449.34,-73.17 459.06,-68.96 448.84,-66.18 449.34,-73.17"/>
</g>
<!-- Node19&#45;&gt;Node18 -->
<g id="edge58" class="edge">
<title>Node19&#45;&gt;Node18</title>
<path fill="none" stroke="midnightblue" d="M515.13,-355.75C516.66,-362.86 517.1,-373.14 516.47,-382.1"/>
<polygon fill="midnightblue" stroke="midnightblue" points="512.99,-381.71 515.17,-392.08 519.93,-382.62 512.99,-381.71"/>
</g>
<!-- Node20 -->
<g id="node20" class="node">
<title>Node20</title>
<g id="a_node20"><a xlink:href="multi__arg_8hpp.html" target="_top" xlink:title=" ">
<polygon fill="none" stroke="black" points="368,-280.5 368,-299.5 452,-299.5 452,-280.5 368,-280.5"/>
<text text-anchor="middle" x="410" y="-287.5" font-family="Helvetica,sans-Serif" font-size="10.00">multi_arg.hpp</text>
</a>
</g>
</g>
<!-- Node19&#45;&gt;Node20 -->
<g id="edge37" class="edge">
<title>Node19&#45;&gt;Node20</title>
<path fill="none" stroke="midnightblue" d="M493.93,-336.32C478.04,-327.74 453.49,-314.49 435.04,-304.52"/>
<polygon fill="midnightblue" stroke="midnightblue" points="436.49,-301.33 426.03,-299.65 433.16,-307.49 436.49,-301.33"/>
</g>
<!-- Node21 -->
<g id="node21" class="node">
<title>Node21</title>
<g id="a_node21"><a xlink:href="groups_8hpp.html" target="_top" xlink:title=" ">
<polygon fill="none" stroke="black" points="759.5,-280.5 759.5,-299.5 830.5,-299.5 830.5,-280.5 759.5,-280.5"/>
<text text-anchor="middle" x="795" y="-287.5" font-family="Helvetica,sans-Serif" font-size="10.00">groups.hpp</text>
</a>
</g>
</g>
<!-- Node19&#45;&gt;Node21 -->
<g id="edge45" class="edge">
<title>Node19&#45;&gt;Node21</title>
<path fill="none" stroke="midnightblue" d="M536.56,-339.97C585.15,-330.76 688.91,-311.1 749.13,-299.69"/>
<polygon fill="midnightblue" stroke="midnightblue" points="749.95,-303.1 759.13,-297.8 748.65,-296.22 749.95,-303.1"/>
</g>
<!-- Node20&#45;&gt;Node2 -->
<g id="edge38" class="edge">
<title>Node20&#45;&gt;Node2</title>
<path fill="none" stroke="midnightblue" d="M426.07,-280.32C441.96,-271.74 466.51,-258.49 484.96,-248.52"/>
<polygon fill="midnightblue" stroke="midnightblue" points="486.84,-251.49 493.97,-243.65 483.51,-245.33 486.84,-251.49"/>
</g>
<!-- Node20&#45;&gt;Node4 -->
<g id="edge42" class="edge">
<title>Node20&#45;&gt;Node4</title>
<path fill="none" stroke="midnightblue" d="M452.26,-285.93C528.49,-278.81 692.03,-256.2 810,-188 830.96,-175.88 849.5,-154.82 860.95,-139.96"/>
<polygon fill="midnightblue" stroke="midnightblue" points="863.97,-141.76 867.12,-131.64 858.35,-137.59 863.97,-141.76"/>
</g>
<!-- Node20&#45;&gt;Node5 -->
<g id="edge43" class="edge">
<title>Node20&#45;&gt;Node5</title>
<path fill="none" stroke="midnightblue" d="M367.85,-282.76C300.88,-270.64 180.49,-238.63 209,-168 221.94,-135.94 232.64,-128.54 263,-112 322.17,-79.77 401.1,-70.42 449.15,-67.83"/>
<polygon fill="midnightblue" stroke="midnightblue" points="449.38,-71.32 459.21,-67.36 449.06,-64.33 449.38,-71.32"/>
</g>
<!-- Node20&#45;&gt;Node12 -->
<g id="edge39" class="edge">
<title>Node20&#45;&gt;Node12</title>
<path fill="none" stroke="midnightblue" d="M391.71,-280.45C374.62,-272.12 348.7,-258.61 328,-244 306.91,-229.11 285.1,-208.96 270.88,-195.06"/>
<polygon fill="midnightblue" stroke="midnightblue" points="273.01,-192.25 263.45,-187.69 268.08,-197.22 273.01,-192.25"/>
</g>
<!-- Node20&#45;&gt;Node13 -->
<g id="edge44" class="edge">
<title>Node20&#45;&gt;Node13</title>
<path fill="none" stroke="midnightblue" d="M399.47,-280.23C389.79,-271.75 375.53,-258.13 366,-244 343.43,-210.55 326.85,-165.92 318.68,-141.28"/>
<polygon fill="midnightblue" stroke="midnightblue" points="322.02,-140.2 315.62,-131.75 315.35,-142.35 322.02,-140.2"/>
</g>
<!-- Node20&#45;&gt;Node14 -->
<g id="edge40" class="edge">
<title>Node20&#45;&gt;Node14</title>
<path fill="none" stroke="midnightblue" d="M416.03,-280.44C431.3,-259.24 473.51,-203.46 519,-168 535.73,-154.96 556.79,-143.77 573.77,-135.82"/>
<polygon fill="midnightblue" stroke="midnightblue" points="575.57,-138.84 583.22,-131.52 572.67,-132.47 575.57,-138.84"/>
</g>
<!-- Node20&#45;&gt;Node16 -->
<g id="edge41" class="edge">
<title>Node20&#45;&gt;Node16</title>
<path fill="none" stroke="midnightblue" d="M438.49,-280.46C466.03,-271.98 508.78,-258.22 545,-244 564.99,-236.15 569.01,-231.87 589,-224 620.89,-211.44 657.86,-199.19 684.89,-190.65"/>
<polygon fill="midnightblue" stroke="midnightblue" points="686.23,-193.9 694.72,-187.57 684.13,-187.22 686.23,-193.9"/>
</g>
<!-- Node21&#45;&gt;Node5 -->
<g id="edge56" class="edge">
<title>Node21&#45;&gt;Node5</title>
<path fill="none" stroke="midnightblue" d="M759.4,-287.27C686.34,-283.21 522.27,-271.25 474,-244 411.95,-208.97 343.38,-171.22 383,-112 397.79,-89.89 425.65,-78.63 449.5,-72.9"/>
<polygon fill="midnightblue" stroke="midnightblue" points="450.38,-76.3 459.42,-70.77 448.91,-69.45 450.38,-76.3"/>
</g>
<!-- Node21&#45;&gt;Node9 -->
<g id="edge57" class="edge">
<title>Node21&#45;&gt;Node9</title>
<path fill="none" stroke="midnightblue" d="M830.82,-285.62C920.72,-276.31 1151.84,-246.97 1196,-188 1232.24,-139.62 1010.42,-92.29 915.04,-74.45"/>
<polygon fill="midnightblue" stroke="midnightblue" points="915.61,-70.99 905.14,-72.61 914.34,-77.88 915.61,-70.99"/>
</g>
<!-- Node21&#45;&gt;Node22 -->
<g id="edge46" class="edge">
<title>Node21&#45;&gt;Node22</title>
<path fill="none" stroke="midnightblue" d="M819.4,-280.44C845.2,-271.4 886.08,-257.06 915.02,-246.92"/>
<polygon fill="midnightblue" stroke="midnightblue" points="916.43,-250.13 924.71,-243.52 914.12,-243.52 916.43,-250.13"/>
</g>
<!-- Node22&#45;&gt;Node3 -->
<g id="edge47" class="edge">
<title>Node22&#45;&gt;Node3</title>
<path fill="none" stroke="midnightblue" d="M901.22,-225.64C847.35,-217.27 756.86,-203.02 669.78,-188.28"/>
<polygon fill="midnightblue" stroke="midnightblue" points="670.18,-184.8 659.73,-186.57 669,-191.7 670.18,-184.8"/>
</g>
<!-- Node22&#45;&gt;Node4 -->
<g id="edge48" class="edge">
<title>Node22&#45;&gt;Node4</title>
<path fill="none" stroke="midnightblue" d="M947.27,-224.36C944.34,-211.26 937.46,-186 925,-168 916.82,-156.19 904.85,-145.54 894.45,-137.57"/>
<polygon fill="midnightblue" stroke="midnightblue" points="896.34,-134.62 886.2,-131.54 892.21,-140.27 896.34,-134.62"/>
</g>
<!-- Node22&#45;&gt;Node5 -->
<g id="edge50" class="edge">
<title>Node22&#45;&gt;Node5</title>
<path fill="none" stroke="midnightblue" d="M932.9,-224.4C908.66,-211.58 861.26,-186.92 820,-168 760.96,-140.92 746.84,-131.89 685,-112 634.19,-95.66 574.08,-82.6 534.61,-74.84"/>
<polygon fill="midnightblue" stroke="midnightblue" points="535.02,-71.36 524.54,-72.89 533.69,-78.23 535.02,-71.36"/>
</g>
<!-- Node22&#45;&gt;Node8 -->
<g id="edge51" class="edge">
<title>Node22&#45;&gt;Node8</title>
<path fill="none" stroke="midnightblue" d="M969.91,-224.35C985.53,-216.89 1006.3,-204.66 1019,-188 1055.79,-139.73 1091.73,-103.54 1054,-56 1034.48,-31.41 944.69,-19.01 894.75,-13.92"/>
<polygon fill="midnightblue" stroke="midnightblue" points="895.03,-10.43 884.74,-12.94 894.35,-17.39 895.03,-10.43"/>
</g>
<!-- Node22&#45;&gt;Node9 -->
<g id="edge53" class="edge">
<title>Node22&#45;&gt;Node9</title>
<path fill="none" stroke="midnightblue" d="M949.76,-224.35C950.59,-211.67 951.08,-187.42 945,-168 934.29,-133.81 907.09,-101.4 889.36,-82.9"/>
<polygon fill="midnightblue" stroke="midnightblue" points="891.71,-80.3 882.19,-75.64 886.72,-85.21 891.71,-80.3"/>
</g>
<!-- Node22&#45;&gt;Node10 -->
<g id="edge52" class="edge">
<title>Node22&#45;&gt;Node10</title>
<path fill="none" stroke="midnightblue" d="M964.19,-224.46C976.43,-216.67 992.89,-203.97 1001,-188 1017.73,-155.07 1016.24,-110.52 1013.64,-85.69"/>
<polygon fill="midnightblue" stroke="midnightblue" points="1017.08,-85 1012.38,-75.51 1010.13,-85.86 1017.08,-85"/>
</g>
<!-- Node22&#45;&gt;Node13 -->
<g id="edge54" class="edge">
<title>Node22&#45;&gt;Node13</title>
<path fill="none" stroke="midnightblue" d="M901.35,-229.44C828.76,-223.56 686.32,-210.19 567,-188 486.33,-173 393.32,-146.89 345.35,-132.76"/>
<polygon fill="midnightblue" stroke="midnightblue" points="346.12,-129.34 335.54,-129.85 344.13,-136.05 346.12,-129.34"/>
</g>
<!-- Node22&#45;&gt;Node14 -->
<g id="edge49" class="edge">
<title>Node22&#45;&gt;Node14</title>
<path fill="none" stroke="midnightblue" d="M928.6,-224.48C896.64,-211.31 832.67,-185.7 777,-168 735.01,-154.65 686.38,-142.26 651.39,-133.88"/>
<polygon fill="midnightblue" stroke="midnightblue" points="651.99,-130.43 641.45,-131.52 650.37,-137.24 651.99,-130.43"/>
</g>
<!-- Node22&#45;&gt;Node23 -->
<g id="edge55" class="edge">
<title>Node22&#45;&gt;Node23</title>
<path fill="none" stroke="midnightblue" d="M982.12,-224.44C1019.28,-214.84 1079.52,-199.28 1118.95,-189.09"/>
<polygon fill="midnightblue" stroke="midnightblue" points="1119.94,-192.45 1128.75,-186.56 1118.19,-185.67 1119.94,-192.45"/>
</g>
</g>
</svg>
        <g id="navigator" transform="translate(0 0)" fill="#404254">
                <rect fill="#f2f5e9" fill-opacity="0.5" stroke="#606060" stroke-width=".5" x="0" y="0" width="60" height="60"/>
                <use id="zoomplus" xlink:href="#zoomPlus" x="17" y="9" onmousedown="handleZoom(evt,'in')"/>
                <use id="zoomminus" xlink:href="#zoomMin" x="42" y="9" onmousedown="handleZoom(evt,'out')"/>
                <use id="reset" xlink:href="#resetDef" x="30" y="36" onmousedown="handleReset()"/>
                <g id="arrowUp" xlink:href="#dirArrow" transform="translate(30 24)" onmousedown="handlePan(0,-1)">
                  <use xlink:href="#rim" fill="#404040">
                        <set attributeName="fill" to="#808080" begin="arrowUp.mouseover" end="arrowUp.mouseout"/>
                  </use>
                  <path fill="none" stroke="white" stroke-width="1.5" d="M0,-3.0v7 M-2.5,-0.5L0,-3.0L2.5,-0.5"/>
                </g>
                <g id="arrowRight" xlink:href="#dirArrow" transform="rotate(90) translate(36 -43)" onmousedown="handlePan(1,0)">
                  <use xlink:href="#rim" fill="#404040">
                        <set attributeName="fill" to="#808080" begin="arrowRight.mouseover" end="arrowRight.mouseout"/>
                  </use>
                  <path fill="none" stroke="white" stroke-width="1.5" d="M0,-3.0v7 M-2.5,-0.5L0,-3.0L2.5,-0.5"/>
                </g>
                <g id="arrowDown" xlink:href="#dirArrow" transform="rotate(180) translate(-30 -48)" onmousedown="handlePan(0,1)">
                  <use xlink:href="#rim" fill="#404040">
                        <set attributeName="fill" to="#808080" begin="arrowDown.mouseover" end="arrowDown.mouseout"/>
                  </use>
                  <path fill="none" stroke="white" stroke-width="1.5" d="M0,-3.0v7 M-2.5,-0.5L0,-3.0L2.5,-0.5"/>
                </g>
                <g id="arrowLeft" xlink:href="#dirArrow" transform="rotate(270) translate(-36 17)" onmousedown="handlePan(-1,0)">
                  <use xlink:href="#rim" fill="#404040">
                        <set attributeName="fill" to="#808080" begin="arrowLeft.mouseover" end="arrowLeft.mouseout"/>
                  </use>
                  <path fill="none" stroke="white" stroke-width="1.5" d="M0,-3.0v7 M-2.5,-0.5L0,-3.0L2.5,-0.5"/>
                </g>
        </g>
        <svg viewBox="0 0 15 15" width="100%" height="30px" preserveAspectRatio="xMaxYMin meet">
         <g id="arrow_out" transform="scale(0.3 0.3)">
          <a xlink:href="help_8hpp__incl_org.svg" target="_base">
           <rect id="button" ry="5" rx="5" y="6" x="6" height="38" width="38"
                fill="#f2f5e9" fill-opacity="0.5" stroke="#606060" stroke-width="1.0"/>
           <path id="arrow"
             d="M 11.500037,31.436501 C 11.940474,20.09759 22.043105,11.32322 32.158766,21.979434 L 37.068811,17.246167 C 37.068811,17.246167 37.088388,32 37.088388,32 L 22.160133,31.978069 C 22.160133,31.978069 26.997745,27.140456 26.997745,27.140456 C 18.528582,18.264221 13.291696,25.230495 11.500037,31.436501 z"
             style="fill:#404040;"/>
          </a>
         </g>
        </svg>
</svg>
