<?xml version="1.0" encoding="UTF-8" standalone="no"?>
<!DOCTYPE svg PUBLIC "-//W3C//DTD SVG 1.1//EN"
 "http://www.w3.org/Graphics/SVG/1.1/DTD/svg11.dtd">
<!-- Generated by graphviz version 2.43.0 (0)
 -->
<!-- Title: help_printer.hpp Pages: 1 -->
<svg width="1736pt" height="588pt"
 viewBox="0.00 0.00 1735.50 588.00" xmlns="http://www.w3.org/2000/svg" xmlns:xlink="http://www.w3.org/1999/xlink">
<g id="graph0" class="graph" transform="scale(1 1) rotate(0) translate(4 584)">
<title>help_printer.hpp</title>
<!-- Node1 -->
<g id="node1" class="node">
<title>Node1</title>
<g id="a_node1"><a xlink:title=" ">
<polygon fill="#bfbfbf" stroke="black" points="517.5,-560.5 517.5,-579.5 612.5,-579.5 612.5,-560.5 517.5,-560.5"/>
<text text-anchor="middle" x="565" y="-567.5" font-family="Helvetica,sans-Serif" font-size="10.00">help_printer.hpp</text>
</a>
</g>
</g>
<!-- Node2 -->
<g id="node2" class="node">
<title>Node2</title>
<g id="a_node2"><a xlink:title=" ">
<polygon fill="none" stroke="#bfbfbf" points="90.5,-0.5 90.5,-19.5 137.5,-19.5 137.5,-0.5 90.5,-0.5"/>
<text text-anchor="middle" x="114" y="-7.5" font-family="Helvetica,sans-Serif" font-size="10.00">vector</text>
</a>
</g>
</g>
<!-- Node1&#45;&gt;Node2 -->
<g id="edge1" class="edge">
<title>Node1&#45;&gt;Node2</title>
<path fill="none" stroke="midnightblue" d="M517.32,-569.78C381.1,-570.75 0,-564.05 0,-459 0,-459 0,-459 0,-121 0,-74.11 50.55,-40.89 84.33,-23.93"/>
<polygon fill="midnightblue" stroke="midnightblue" points="85.87,-27.07 93.36,-19.58 82.83,-20.77 85.87,-27.07"/>
</g>
<!-- Node3 -->
<g id="node3" class="node">
<title>Node3</title>
<g id="a_node3"><a xlink:title=" ">
<polygon fill="none" stroke="#bfbfbf" points="310,-56.5 310,-75.5 374,-75.5 374,-56.5 310,-56.5"/>
<text text-anchor="middle" x="342" y="-63.5" font-family="Helvetica,sans-Serif" font-size="10.00">algorithm</text>
</a>
</g>
</g>
<!-- Node1&#45;&gt;Node3 -->
<g id="edge2" class="edge">
<title>Node1&#45;&gt;Node3</title>
<path fill="none" stroke="midnightblue" d="M517.3,-569.11C387.58,-568.13 38,-556.44 38,-459 38,-459 38,-459 38,-233 38,-115.21 215.97,-80.49 299.57,-70.68"/>
<polygon fill="midnightblue" stroke="midnightblue" points="300.2,-74.13 309.75,-69.55 299.43,-67.17 300.2,-74.13"/>
</g>
<!-- Node4 -->
<g id="node4" class="node">
<title>Node4</title>
<g id="a_node4"><a xlink:title=" ">
<polygon fill="none" stroke="#bfbfbf" points="1662.5,-504.5 1662.5,-523.5 1727.5,-523.5 1727.5,-504.5 1662.5,-504.5"/>
<text text-anchor="middle" x="1695" y="-511.5" font-family="Helvetica,sans-Serif" font-size="10.00">functional</text>
</a>
</g>
</g>
<!-- Node1&#45;&gt;Node4 -->
<g id="edge3" class="edge">
<title>Node1&#45;&gt;Node4</title>
<path fill="none" stroke="midnightblue" d="M612.7,-569.52C764.51,-570.65 1249.83,-570.14 1648,-524 1649.47,-523.83 1650.96,-523.64 1652.47,-523.43"/>
<polygon fill="midnightblue" stroke="midnightblue" points="1653.14,-526.87 1662.48,-521.87 1652.06,-519.95 1653.14,-526.87"/>
</g>
<!-- Node5 -->
<g id="node5" class="node">
<title>Node5</title>
<g id="a_node5"><a xlink:href="utils_8hpp.html" target="_top" xlink:title=" ">
<polygon fill="none" stroke="black" points="484.5,-112.5 484.5,-131.5 543.5,-131.5 543.5,-112.5 484.5,-112.5"/>
<text text-anchor="middle" x="514" y="-119.5" font-family="Helvetica,sans-Serif" font-size="10.00">utils.hpp</text>
</a>
</g>
</g>
<!-- Node1&#45;&gt;Node5 -->
<g id="edge4" class="edge">
<title>Node1&#45;&gt;Node5</title>
<path fill="none" stroke="midnightblue" d="M517.39,-566.44C441.09,-561.63 295.49,-549.36 251,-524 195.52,-492.37 182.2,-472.24 161,-412 126.26,-313.31 0.71,-374.15 279,-168 309.39,-145.49 415.42,-132.24 474.12,-126.46"/>
<polygon fill="midnightblue" stroke="midnightblue" points="474.54,-129.94 484.16,-125.5 473.87,-122.97 474.54,-129.94"/>
</g>
<!-- Node6 -->
<g id="node6" class="node">
<title>Node6</title>
<g id="a_node6"><a xlink:href="types_8hpp.html" target="_top" xlink:title=" ">
<polygon fill="none" stroke="black" points="1063.5,-56.5 1063.5,-75.5 1128.5,-75.5 1128.5,-56.5 1063.5,-56.5"/>
<text text-anchor="middle" x="1096" y="-63.5" font-family="Helvetica,sans-Serif" font-size="10.00">types.hpp</text>
</a>
</g>
</g>
<!-- Node1&#45;&gt;Node6 -->
<g id="edge65" class="edge">
<title>Node1&#45;&gt;Node6</title>
<path fill="none" stroke="midnightblue" d="M612.68,-569.2C778.42,-569.52 1328.66,-567.21 1499,-524 1563.55,-507.63 1634,-525.59 1634,-459 1634,-459 1634,-459 1634,-177 1634,-76.16 1266.6,-66.86 1139.02,-66.68"/>
<polygon fill="midnightblue" stroke="midnightblue" points="1138.84,-63.18 1128.84,-66.68 1138.85,-70.18 1138.84,-63.18"/>
</g>
<!-- Node10 -->
<g id="node10" class="node">
<title>Node10</title>
<g id="a_node10"><a xlink:href="exceptions_8hpp.html" target="_top" xlink:title=" ">
<polygon fill="none" stroke="black" points="1390.5,-112.5 1390.5,-131.5 1481.5,-131.5 1481.5,-112.5 1390.5,-112.5"/>
<text text-anchor="middle" x="1436" y="-119.5" font-family="Helvetica,sans-Serif" font-size="10.00">exceptions.hpp</text>
</a>
</g>
</g>
<!-- Node1&#45;&gt;Node10 -->
<g id="edge11" class="edge">
<title>Node1&#45;&gt;Node10</title>
<path fill="none" stroke="midnightblue" d="M612.66,-568.99C815.43,-568.32 1596,-559.24 1596,-459 1596,-459 1596,-459 1596,-233 1596,-178.24 1531.58,-148.68 1484.49,-134.4"/>
<polygon fill="midnightblue" stroke="midnightblue" points="1485.31,-130.99 1474.73,-131.57 1483.37,-137.71 1485.31,-130.99"/>
</g>
<!-- Node12 -->
<g id="node12" class="node">
<title>Node12</title>
<g id="a_node12"><a xlink:href="group__iface_8hpp.html" target="_top" xlink:title=" ">
<polygon fill="none" stroke="black" points="491.5,-224.5 491.5,-243.5 586.5,-243.5 586.5,-224.5 491.5,-224.5"/>
<text text-anchor="middle" x="539" y="-231.5" font-family="Helvetica,sans-Serif" font-size="10.00">group_iface.hpp</text>
</a>
</g>
</g>
<!-- Node1&#45;&gt;Node12 -->
<g id="edge14" class="edge">
<title>Node1&#45;&gt;Node12</title>
<path fill="none" stroke="midnightblue" d="M545.09,-560.41C530.78,-553.04 512.54,-540.92 504,-524 491.8,-499.84 524.52,-313.79 535.53,-253.67"/>
<polygon fill="midnightblue" stroke="midnightblue" points="539,-254.16 537.37,-243.69 532.11,-252.89 539,-254.16"/>
</g>
<!-- Node17 -->
<g id="node17" class="node">
<title>Node17</title>
<g id="a_node17"><a xlink:href="groups_8hpp.html" target="_top" xlink:title=" ">
<polygon fill="none" stroke="black" points="446.5,-280.5 446.5,-299.5 517.5,-299.5 517.5,-280.5 446.5,-280.5"/>
<text text-anchor="middle" x="482" y="-287.5" font-family="Helvetica,sans-Serif" font-size="10.00">groups.hpp</text>
</a>
</g>
</g>
<!-- Node1&#45;&gt;Node17 -->
<g id="edge27" class="edge">
<title>Node1&#45;&gt;Node17</title>
<path fill="none" stroke="midnightblue" d="M554.67,-560.5C535.2,-543.44 495,-502.91 495,-459 495,-459 495,-459 495,-401 495,-368.58 489.36,-331.15 485.51,-309.37"/>
<polygon fill="midnightblue" stroke="midnightblue" points="488.95,-308.72 483.7,-299.52 482.07,-309.99 488.95,-308.72"/>
</g>
<!-- Node18 -->
<g id="node18" class="node">
<title>Node18</title>
<g id="a_node18"><a xlink:href="command_8hpp.html" target="_top" xlink:title=" ">
<polygon fill="none" stroke="black" points="928,-392.5 928,-411.5 1014,-411.5 1014,-392.5 928,-392.5"/>
<text text-anchor="middle" x="971" y="-399.5" font-family="Helvetica,sans-Serif" font-size="10.00">command.hpp</text>
</a>
</g>
</g>
<!-- Node1&#45;&gt;Node18 -->
<g id="edge31" class="edge">
<title>Node1&#45;&gt;Node18</title>
<path fill="none" stroke="midnightblue" d="M585.97,-560.42C652.93,-533.05 861.79,-447.65 940.54,-415.45"/>
<polygon fill="midnightblue" stroke="midnightblue" points="941.98,-418.65 949.91,-411.62 939.33,-412.17 941.98,-418.65"/>
</g>
<!-- Node24 -->
<g id="node24" class="node">
<title>Node24</title>
<g id="a_node24"><a xlink:href="help__printer__iface_8hpp.html" target="_top" xlink:title=" ">
<polygon fill="none" stroke="black" points="203.5,-392.5 203.5,-411.5 328.5,-411.5 328.5,-392.5 203.5,-392.5"/>
<text text-anchor="middle" x="266" y="-399.5" font-family="Helvetica,sans-Serif" font-size="10.00">help_printer_iface.hpp</text>
</a>
</g>
</g>
<!-- Node1&#45;&gt;Node24 -->
<g id="edge66" class="edge">
<title>Node1&#45;&gt;Node24</title>
<path fill="none" stroke="midnightblue" d="M517.49,-568.99C441.75,-567.86 298.89,-560.76 267,-524 242.31,-495.54 251.73,-447.55 259.58,-421.38"/>
<polygon fill="midnightblue" stroke="midnightblue" points="262.99,-422.21 262.74,-411.62 256.33,-420.05 262.99,-422.21"/>
</g>
<!-- Node25 -->
<g id="node25" class="node">
<title>Node25</title>
<g id="a_node25"><a xlink:href="cmd__line_8hpp.html" target="_top" xlink:title=" ">
<polygon fill="none" stroke="black" points="581,-504.5 581,-523.5 663,-523.5 663,-504.5 581,-504.5"/>
<text text-anchor="middle" x="622" y="-511.5" font-family="Helvetica,sans-Serif" font-size="10.00">cmd_line.hpp</text>
</a>
</g>
</g>
<!-- Node1&#45;&gt;Node25 -->
<g id="edge68" class="edge">
<title>Node1&#45;&gt;Node25</title>
<path fill="none" stroke="midnightblue" d="M569.25,-560.08C576.09,-551.98 588.55,-539.87 599.78,-530.23"/>
<polygon fill="midnightblue" stroke="midnightblue" points="602.15,-532.82 607.63,-523.75 597.69,-527.42 602.15,-532.82"/>
</g>
<!-- Node5&#45;&gt;Node3 -->
<g id="edge9" class="edge">
<title>Node5&#45;&gt;Node3</title>
<path fill="none" stroke="midnightblue" d="M486.75,-112.44C457.56,-103.28 411.08,-88.69 378.69,-78.52"/>
<polygon fill="midnightblue" stroke="midnightblue" points="379.72,-75.17 369.13,-75.52 377.62,-81.85 379.72,-75.17"/>
</g>
<!-- Node5&#45;&gt;Node6 -->
<g id="edge5" class="edge">
<title>Node5&#45;&gt;Node6</title>
<path fill="none" stroke="midnightblue" d="M543.74,-114.42C548.49,-113.51 553.37,-112.66 558,-112 741.17,-85.7 961.81,-73.2 1053.17,-68.86"/>
<polygon fill="midnightblue" stroke="midnightblue" points="1053.58,-72.34 1063.4,-68.38 1053.25,-65.35 1053.58,-72.34"/>
</g>
<!-- Node9 -->
<g id="node9" class="node">
<title>Node9</title>
<g id="a_node9"><a xlink:title=" ">
<polygon fill="none" stroke="#bfbfbf" points="450.5,-56.5 450.5,-75.5 519.5,-75.5 519.5,-56.5 450.5,-56.5"/>
<text text-anchor="middle" x="485" y="-63.5" font-family="Helvetica,sans-Serif" font-size="10.00">type_traits</text>
</a>
</g>
</g>
<!-- Node5&#45;&gt;Node9 -->
<g id="edge10" class="edge">
<title>Node5&#45;&gt;Node9</title>
<path fill="none" stroke="midnightblue" d="M509.21,-112.08C505.24,-104.69 499.47,-93.95 494.57,-84.81"/>
<polygon fill="midnightblue" stroke="midnightblue" points="497.51,-82.91 489.7,-75.75 491.35,-86.22 497.51,-82.91"/>
</g>
<!-- Node6&#45;&gt;Node2 -->
<g id="edge8" class="edge">
<title>Node6&#45;&gt;Node2</title>
<path fill="none" stroke="midnightblue" d="M1063.33,-63.2C914.15,-55 298.56,-21.15 147.56,-12.85"/>
<polygon fill="midnightblue" stroke="midnightblue" points="147.68,-9.35 137.5,-12.29 147.29,-16.34 147.68,-9.35"/>
</g>
<!-- Node7 -->
<g id="node7" class="node">
<title>Node7</title>
<g id="a_node7"><a xlink:title=" ">
<polygon fill="none" stroke="#bfbfbf" points="1109,-0.5 1109,-19.5 1153,-19.5 1153,-0.5 1109,-0.5"/>
<text text-anchor="middle" x="1131" y="-7.5" font-family="Helvetica,sans-Serif" font-size="10.00">string</text>
</a>
</g>
</g>
<!-- Node6&#45;&gt;Node7 -->
<g id="edge6" class="edge">
<title>Node6&#45;&gt;Node7</title>
<path fill="none" stroke="midnightblue" d="M1101.78,-56.08C1106.67,-48.53 1113.83,-37.49 1119.83,-28.23"/>
<polygon fill="midnightblue" stroke="midnightblue" points="1122.83,-30.05 1125.33,-19.75 1116.95,-26.24 1122.83,-30.05"/>
</g>
<!-- Node8 -->
<g id="node8" class="node">
<title>Node8</title>
<g id="a_node8"><a xlink:title=" ">
<polygon fill="none" stroke="#bfbfbf" points="1031,-0.5 1031,-19.5 1091,-19.5 1091,-0.5 1031,-0.5"/>
<text text-anchor="middle" x="1061" y="-7.5" font-family="Helvetica,sans-Serif" font-size="10.00">iostream</text>
</a>
</g>
</g>
<!-- Node6&#45;&gt;Node8 -->
<g id="edge7" class="edge">
<title>Node6&#45;&gt;Node8</title>
<path fill="none" stroke="midnightblue" d="M1090.22,-56.08C1085.33,-48.53 1078.17,-37.49 1072.17,-28.23"/>
<polygon fill="midnightblue" stroke="midnightblue" points="1075.05,-26.24 1066.67,-19.75 1069.17,-30.05 1075.05,-26.24"/>
</g>
<!-- Node10&#45;&gt;Node6 -->
<g id="edge13" class="edge">
<title>Node10&#45;&gt;Node6</title>
<path fill="none" stroke="midnightblue" d="M1390.5,-113.77C1324.51,-103.29 1203.11,-84.01 1138.72,-73.78"/>
<polygon fill="midnightblue" stroke="midnightblue" points="1138.94,-70.28 1128.51,-72.16 1137.84,-77.19 1138.94,-70.28"/>
</g>
<!-- Node11 -->
<g id="node11" class="node">
<title>Node11</title>
<g id="a_node11"><a xlink:title=" ">
<polygon fill="none" stroke="#bfbfbf" points="1403.5,-56.5 1403.5,-75.5 1468.5,-75.5 1468.5,-56.5 1403.5,-56.5"/>
<text text-anchor="middle" x="1436" y="-63.5" font-family="Helvetica,sans-Serif" font-size="10.00">stdexcept</text>
</a>
</g>
</g>
<!-- Node10&#45;&gt;Node11 -->
<g id="edge12" class="edge">
<title>Node10&#45;&gt;Node11</title>
<path fill="none" stroke="midnightblue" d="M1436,-112.08C1436,-105.01 1436,-94.86 1436,-85.99"/>
<polygon fill="midnightblue" stroke="midnightblue" points="1439.5,-85.75 1436,-75.75 1432.5,-85.75 1439.5,-85.75"/>
</g>
<!-- Node12&#45;&gt;Node2 -->
<g id="edge22" class="edge">
<title>Node12&#45;&gt;Node2</title>
<path fill="none" stroke="midnightblue" d="M522.6,-224.43C457.79,-190.58 219.22,-65.96 139.86,-24.51"/>
<polygon fill="midnightblue" stroke="midnightblue" points="141.06,-21.19 130.58,-19.66 137.82,-27.39 141.06,-21.19"/>
</g>
<!-- Node12&#45;&gt;Node3 -->
<g id="edge24" class="edge">
<title>Node12&#45;&gt;Node3</title>
<path fill="none" stroke="midnightblue" d="M528.69,-224.31C496.9,-197.53 400.19,-116.03 359.91,-82.09"/>
<polygon fill="midnightblue" stroke="midnightblue" points="362.11,-79.37 352.21,-75.61 357.6,-84.73 362.11,-79.37"/>
</g>
<!-- Node12&#45;&gt;Node5 -->
<g id="edge19" class="edge">
<title>Node12&#45;&gt;Node5</title>
<path fill="none" stroke="midnightblue" d="M533.79,-224.4C528.75,-215.6 521.4,-201.37 518,-188 514.12,-172.75 513.28,-154.86 513.32,-141.71"/>
<polygon fill="midnightblue" stroke="midnightblue" points="516.82,-141.64 513.52,-131.57 509.82,-141.5 516.82,-141.64"/>
</g>
<!-- Node12&#45;&gt;Node6 -->
<g id="edge21" class="edge">
<title>Node12&#45;&gt;Node6</title>
<path fill="none" stroke="midnightblue" d="M537.84,-224.08C536.58,-210.15 536.38,-183.24 551,-168 620.29,-95.79 936.79,-74.24 1053.02,-68.7"/>
<polygon fill="midnightblue" stroke="midnightblue" points="1053.48,-72.19 1063.31,-68.23 1053.16,-65.19 1053.48,-72.19"/>
</g>
<!-- Node12&#45;&gt;Node9 -->
<g id="edge23" class="edge">
<title>Node12&#45;&gt;Node9</title>
<path fill="none" stroke="midnightblue" d="M531.16,-224.38C516.78,-207.92 486.69,-170.21 476,-132 471.68,-116.57 474.82,-98.48 478.53,-85.31"/>
<polygon fill="midnightblue" stroke="midnightblue" points="481.94,-86.15 481.63,-75.56 475.27,-84.03 481.94,-86.15"/>
</g>
<!-- Node12&#45;&gt;Node10 -->
<g id="edge20" class="edge">
<title>Node12&#45;&gt;Node10</title>
<path fill="none" stroke="midnightblue" d="M586.53,-231.06C684.09,-226.68 913.84,-214.28 1105,-188 1132.28,-184.25 1298.09,-150.93 1384.19,-133.51"/>
<polygon fill="midnightblue" stroke="midnightblue" points="1384.92,-136.94 1394.03,-131.52 1383.53,-130.08 1384.92,-136.94"/>
</g>
<!-- Node13 -->
<g id="node13" class="node">
<title>Node13</title>
<g id="a_node13"><a xlink:href="arg__iface_8hpp.html" target="_top" xlink:title=" ">
<polygon fill="none" stroke="black" points="750.5,-168.5 750.5,-187.5 833.5,-187.5 833.5,-168.5 750.5,-168.5"/>
<text text-anchor="middle" x="792" y="-175.5" font-family="Helvetica,sans-Serif" font-size="10.00">arg_iface.hpp</text>
</a>
</g>
</g>
<!-- Node12&#45;&gt;Node13 -->
<g id="edge15" class="edge">
<title>Node12&#45;&gt;Node13</title>
<path fill="none" stroke="midnightblue" d="M579.09,-224.44C623.32,-215 694.54,-199.8 742.28,-189.61"/>
<polygon fill="midnightblue" stroke="midnightblue" points="743.05,-193.03 752.1,-187.52 741.59,-186.18 743.05,-193.03"/>
</g>
<!-- Node15 -->
<g id="node15" class="node">
<title>Node15</title>
<g id="a_node15"><a xlink:title=" ">
<polygon fill="none" stroke="#bfbfbf" points="1266.5,-112.5 1266.5,-131.5 1311.5,-131.5 1311.5,-112.5 1266.5,-112.5"/>
<text text-anchor="middle" x="1289" y="-119.5" font-family="Helvetica,sans-Serif" font-size="10.00">utility</text>
</a>
</g>
</g>
<!-- Node12&#45;&gt;Node15 -->
<g id="edge25" class="edge">
<title>Node12&#45;&gt;Node15</title>
<path fill="none" stroke="midnightblue" d="M586.77,-225.99C727.4,-205.37 1137.47,-145.22 1256.35,-127.79"/>
<polygon fill="midnightblue" stroke="midnightblue" points="1256.91,-131.24 1266.3,-126.33 1255.9,-124.32 1256.91,-131.24"/>
</g>
<!-- Node16 -->
<g id="node16" class="node">
<title>Node16</title>
<g id="a_node16"><a xlink:title=" ">
<polygon fill="none" stroke="#bfbfbf" points="560,-168.5 560,-187.5 618,-187.5 618,-168.5 560,-168.5"/>
<text text-anchor="middle" x="589" y="-175.5" font-family="Helvetica,sans-Serif" font-size="10.00">memory</text>
</a>
</g>
</g>
<!-- Node12&#45;&gt;Node16 -->
<g id="edge26" class="edge">
<title>Node12&#45;&gt;Node16</title>
<path fill="none" stroke="midnightblue" d="M547.26,-224.08C554.46,-216.3 565.11,-204.8 573.85,-195.37"/>
<polygon fill="midnightblue" stroke="midnightblue" points="576.67,-197.47 580.9,-187.75 571.53,-192.71 576.67,-197.47"/>
</g>
<!-- Node13&#45;&gt;Node5 -->
<g id="edge16" class="edge">
<title>Node13&#45;&gt;Node5</title>
<path fill="none" stroke="midnightblue" d="M750.38,-168.92C697.13,-158.57 605.56,-140.78 553.4,-130.65"/>
<polygon fill="midnightblue" stroke="midnightblue" points="554,-127.2 543.52,-128.73 552.66,-134.08 554,-127.2"/>
</g>
<!-- Node13&#45;&gt;Node6 -->
<g id="edge17" class="edge">
<title>Node13&#45;&gt;Node6</title>
<path fill="none" stroke="midnightblue" d="M792.38,-168.28C793.5,-154.11 797.9,-126.25 815,-112 850.38,-82.52 983.25,-72.11 1052.86,-68.63"/>
<polygon fill="midnightblue" stroke="midnightblue" points="1053.23,-72.12 1063.06,-68.15 1052.9,-65.13 1053.23,-72.12"/>
</g>
<!-- Node14 -->
<g id="node14" class="node">
<title>Node14</title>
<g id="a_node14"><a xlink:href="enums_8hpp.html" target="_top" xlink:title=" ">
<polygon fill="none" stroke="black" points="823.5,-112.5 823.5,-131.5 894.5,-131.5 894.5,-112.5 823.5,-112.5"/>
<text text-anchor="middle" x="859" y="-119.5" font-family="Helvetica,sans-Serif" font-size="10.00">enums.hpp</text>
</a>
</g>
</g>
<!-- Node13&#45;&gt;Node14 -->
<g id="edge18" class="edge">
<title>Node13&#45;&gt;Node14</title>
<path fill="none" stroke="midnightblue" d="M802.76,-168.32C812.77,-160.26 827.89,-148.08 839.93,-138.37"/>
<polygon fill="midnightblue" stroke="midnightblue" points="842.45,-140.83 848.04,-131.83 838.06,-135.38 842.45,-140.83"/>
</g>
<!-- Node17&#45;&gt;Node3 -->
<g id="edge30" class="edge">
<title>Node17&#45;&gt;Node3</title>
<path fill="none" stroke="midnightblue" d="M446.34,-281.91C400.84,-270.75 323.97,-244.26 290,-188 272.54,-159.09 275.96,-142.72 290,-112 295.78,-99.36 307.05,-88.91 317.63,-81.27"/>
<polygon fill="midnightblue" stroke="midnightblue" points="319.85,-84 326.22,-75.53 315.96,-78.18 319.85,-84"/>
</g>
<!-- Node17&#45;&gt;Node6 -->
<g id="edge29" class="edge">
<title>Node17&#45;&gt;Node6</title>
<path fill="none" stroke="midnightblue" d="M477.95,-280.16C465.49,-251.5 431.19,-160.18 476,-112 515.18,-69.87 919.21,-66.7 1053.14,-66.82"/>
<polygon fill="midnightblue" stroke="midnightblue" points="1053.41,-70.32 1063.41,-66.84 1053.42,-63.32 1053.41,-70.32"/>
</g>
<!-- Node17&#45;&gt;Node12 -->
<g id="edge28" class="edge">
<title>Node17&#45;&gt;Node12</title>
<path fill="none" stroke="midnightblue" d="M491.16,-280.32C499.5,-272.42 512.03,-260.55 522.18,-250.94"/>
<polygon fill="midnightblue" stroke="midnightblue" points="524.82,-253.25 529.68,-243.83 520.01,-248.17 524.82,-253.25"/>
</g>
<!-- Node18&#45;&gt;Node5 -->
<g id="edge60" class="edge">
<title>Node18&#45;&gt;Node5</title>
<path fill="none" stroke="midnightblue" d="M958.67,-392.41C901.42,-352.59 662.85,-186.99 627,-168 602.13,-154.83 572.53,-143.17 549.86,-135.03"/>
<polygon fill="midnightblue" stroke="midnightblue" points="550.89,-131.68 540.29,-131.65 548.56,-138.28 550.89,-131.68"/>
</g>
<!-- Node18&#45;&gt;Node6 -->
<g id="edge64" class="edge">
<title>Node18&#45;&gt;Node6</title>
<path fill="none" stroke="midnightblue" d="M1014.04,-396.75C1125.2,-383.03 1418.27,-328.62 1491,-132 1494.08,-123.66 1496.92,-118.63 1491,-112 1467.83,-86.04 1236.07,-73.06 1138.72,-68.71"/>
<polygon fill="midnightblue" stroke="midnightblue" points="1138.77,-65.21 1128.63,-68.27 1138.46,-72.21 1138.77,-65.21"/>
</g>
<!-- Node18&#45;&gt;Node12 -->
<g id="edge59" class="edge">
<title>Node18&#45;&gt;Node12</title>
<path fill="none" stroke="midnightblue" d="M927.94,-395.56C884.56,-389.22 816.18,-376.86 760,-356 682.5,-327.23 598.99,-274.99 560.57,-249.62"/>
<polygon fill="midnightblue" stroke="midnightblue" points="562.07,-246.41 551.81,-243.78 558.19,-252.24 562.07,-246.41"/>
</g>
<!-- Node18&#45;&gt;Node14 -->
<g id="edge63" class="edge">
<title>Node18&#45;&gt;Node14</title>
<path fill="none" stroke="midnightblue" d="M967.53,-392.38C951.91,-353.62 888.06,-195.13 866.3,-141.13"/>
<polygon fill="midnightblue" stroke="midnightblue" points="869.42,-139.49 862.43,-131.52 862.92,-142.11 869.42,-139.49"/>
</g>
<!-- Node19 -->
<g id="node19" class="node">
<title>Node19</title>
<g id="a_node19"><a xlink:href="api_8hpp.html" target="_top" xlink:title=" ">
<polygon fill="none" stroke="black" points="1023.5,-336.5 1023.5,-355.5 1076.5,-355.5 1076.5,-336.5 1023.5,-336.5"/>
<text text-anchor="middle" x="1050" y="-343.5" font-family="Helvetica,sans-Serif" font-size="10.00">api.hpp</text>
</a>
</g>
</g>
<!-- Node18&#45;&gt;Node19 -->
<g id="edge32" class="edge">
<title>Node18&#45;&gt;Node19</title>
<path fill="none" stroke="midnightblue" d="M978.58,-392.32C989.08,-383.9 1007.69,-370.97 1023.4,-361.07"/>
<polygon fill="midnightblue" stroke="midnightblue" points="1025.54,-363.87 1032.23,-355.65 1021.88,-357.9 1025.54,-363.87"/>
</g>
<!-- Node21 -->
<g id="node21" class="node">
<title>Node21</title>
<g id="a_node21"><a xlink:href="context_8hpp.html" target="_top" xlink:title=" ">
<polygon fill="none" stroke="black" points="1342,-168.5 1342,-187.5 1416,-187.5 1416,-168.5 1342,-168.5"/>
<text text-anchor="middle" x="1379" y="-175.5" font-family="Helvetica,sans-Serif" font-size="10.00">context.hpp</text>
</a>
</g>
</g>
<!-- Node18&#45;&gt;Node21 -->
<g id="edge61" class="edge">
<title>Node18&#45;&gt;Node21</title>
<path fill="none" stroke="midnightblue" d="M1005.74,-392.47C1077,-374.55 1236.92,-331.97 1283,-300 1323.05,-272.21 1354.63,-222.88 1369.57,-196.61"/>
<polygon fill="midnightblue" stroke="midnightblue" points="1372.69,-198.21 1374.47,-187.76 1366.56,-194.82 1372.69,-198.21"/>
</g>
<!-- Node22 -->
<g id="node22" class="node">
<title>Node22</title>
<g id="a_node22"><a xlink:href="value__utils_8hpp.html" target="_top" xlink:title=" ">
<polygon fill="none" stroke="black" points="1004.5,-168.5 1004.5,-187.5 1095.5,-187.5 1095.5,-168.5 1004.5,-168.5"/>
<text text-anchor="middle" x="1050" y="-175.5" font-family="Helvetica,sans-Serif" font-size="10.00">value_utils.hpp</text>
</a>
</g>
</g>
<!-- Node18&#45;&gt;Node22 -->
<g id="edge62" class="edge">
<title>Node18&#45;&gt;Node22</title>
<path fill="none" stroke="midnightblue" d="M971.85,-392.46C974.74,-366.14 985.66,-284.38 1015,-224 1020.07,-213.56 1027.84,-203.24 1034.77,-195.13"/>
<polygon fill="midnightblue" stroke="midnightblue" points="1037.49,-197.34 1041.54,-187.55 1032.27,-192.67 1037.49,-197.34"/>
</g>
<!-- Node19&#45;&gt;Node6 -->
<g id="edge33" class="edge">
<title>Node19&#45;&gt;Node6</title>
<path fill="none" stroke="midnightblue" d="M1070.02,-336.44C1102.24,-321.17 1162,-285.97 1162,-235 1162,-235 1162,-235 1162,-177 1162,-138.86 1132.46,-102.52 1112.91,-82.64"/>
<polygon fill="midnightblue" stroke="midnightblue" points="1115.33,-80.12 1105.74,-75.63 1110.44,-85.12 1115.33,-80.12"/>
</g>
<!-- Node19&#45;&gt;Node17 -->
<g id="edge57" class="edge">
<title>Node19&#45;&gt;Node17</title>
<path fill="none" stroke="midnightblue" d="M1023.37,-342.47C933.61,-333.93 641.49,-306.16 527.83,-295.36"/>
<polygon fill="midnightblue" stroke="midnightblue" points="528.01,-291.86 517.72,-294.4 527.35,-298.83 528.01,-291.86"/>
</g>
<!-- Node19&#45;&gt;Node18 -->
<g id="edge58" class="edge">
<title>Node19&#45;&gt;Node18</title>
<path fill="none" stroke="midnightblue" d="M1042.23,-355.83C1031.69,-364.26 1013.2,-377.1 997.58,-386.94"/>
<polygon fill="midnightblue" stroke="midnightblue" points="995.5,-384.11 988.81,-392.32 999.16,-390.07 995.5,-384.11"/>
</g>
<!-- Node20 -->
<g id="node20" class="node">
<title>Node20</title>
<g id="a_node20"><a xlink:href="arg_8hpp.html" target="_top" xlink:title=" ">
<polygon fill="none" stroke="black" points="1023.5,-224.5 1023.5,-243.5 1076.5,-243.5 1076.5,-224.5 1023.5,-224.5"/>
<text text-anchor="middle" x="1050" y="-231.5" font-family="Helvetica,sans-Serif" font-size="10.00">arg.hpp</text>
</a>
</g>
</g>
<!-- Node19&#45;&gt;Node20 -->
<g id="edge34" class="edge">
<title>Node19&#45;&gt;Node20</title>
<path fill="none" stroke="midnightblue" d="M1050,-336.37C1050,-318.62 1050,-277.67 1050,-253.6"/>
<polygon fill="midnightblue" stroke="midnightblue" points="1053.5,-253.59 1050,-243.59 1046.5,-253.59 1053.5,-253.59"/>
</g>
<!-- Node23 -->
<g id="node23" class="node">
<title>Node23</title>
<g id="a_node23"><a xlink:href="multi__arg_8hpp.html" target="_top" xlink:title=" ">
<polygon fill="none" stroke="black" points="1190,-280.5 1190,-299.5 1274,-299.5 1274,-280.5 1190,-280.5"/>
<text text-anchor="middle" x="1232" y="-287.5" font-family="Helvetica,sans-Serif" font-size="10.00">multi_arg.hpp</text>
</a>
</g>
</g>
<!-- Node19&#45;&gt;Node23 -->
<g id="edge49" class="edge">
<title>Node19&#45;&gt;Node23</title>
<path fill="none" stroke="midnightblue" d="M1076.85,-337.03C1107.63,-327.9 1158.33,-312.86 1193.35,-302.47"/>
<polygon fill="midnightblue" stroke="midnightblue" points="1194.64,-305.74 1203.23,-299.54 1192.65,-299.03 1194.64,-305.74"/>
</g>
<!-- Node20&#45;&gt;Node3 -->
<g id="edge48" class="edge">
<title>Node20&#45;&gt;Node3</title>
<path fill="none" stroke="midnightblue" d="M1039.58,-224.33C1006.36,-196.69 905.02,-112.41 904,-112 808.56,-73.34 544.62,-84.62 442,-76 423.12,-74.42 402.25,-72.55 384.48,-70.94"/>
<polygon fill="midnightblue" stroke="midnightblue" points="384.69,-67.44 374.42,-70.02 384.06,-74.41 384.69,-67.44"/>
</g>
<!-- Node20&#45;&gt;Node5 -->
<g id="edge36" class="edge">
<title>Node20&#45;&gt;Node5</title>
<path fill="none" stroke="midnightblue" d="M1023.09,-231.61C968.89,-228.27 843.1,-217.71 742,-188 721.39,-181.94 718.3,-175.03 698,-168 649.43,-151.19 591.57,-138.13 553.88,-130.51"/>
<polygon fill="midnightblue" stroke="midnightblue" points="554.3,-127.02 543.81,-128.5 552.93,-133.89 554.3,-127.02"/>
</g>
<!-- Node20&#45;&gt;Node6 -->
<g id="edge47" class="edge">
<title>Node20&#45;&gt;Node6</title>
<path fill="none" stroke="midnightblue" d="M1067.2,-224.39C1080.25,-216.79 1097.23,-204.39 1105,-188 1120.87,-154.5 1110.67,-109.89 1102.74,-85.27"/>
<polygon fill="midnightblue" stroke="midnightblue" points="1106.03,-84.06 1099.46,-75.75 1099.41,-86.34 1106.03,-84.06"/>
</g>
<!-- Node20&#45;&gt;Node10 -->
<g id="edge41" class="edge">
<title>Node20&#45;&gt;Node10</title>
<path fill="none" stroke="midnightblue" d="M1076.74,-225.81C1109.24,-217.04 1165.71,-201.69 1214,-188 1278.52,-169.7 1353.33,-147.62 1397.55,-134.47"/>
<polygon fill="midnightblue" stroke="midnightblue" points="1398.72,-137.78 1407.31,-131.57 1396.72,-131.07 1398.72,-137.78"/>
</g>
<!-- Node20&#45;&gt;Node13 -->
<g id="edge35" class="edge">
<title>Node20&#45;&gt;Node13</title>
<path fill="none" stroke="midnightblue" d="M1023.36,-227.42C980.91,-218.54 897.17,-201.01 842.94,-189.66"/>
<polygon fill="midnightblue" stroke="midnightblue" points="843.34,-186.17 832.84,-187.55 841.91,-193.02 843.34,-186.17"/>
</g>
<!-- Node20&#45;&gt;Node21 -->
<g id="edge37" class="edge">
<title>Node20&#45;&gt;Node21</title>
<path fill="none" stroke="midnightblue" d="M1076.86,-228.78C1126.49,-220.96 1235.92,-203.58 1328,-188 1329.27,-187.78 1330.56,-187.57 1331.86,-187.34"/>
<polygon fill="midnightblue" stroke="midnightblue" points="1332.7,-190.75 1341.96,-185.6 1331.51,-183.85 1332.7,-190.75"/>
</g>
<!-- Node20&#45;&gt;Node22 -->
<g id="edge42" class="edge">
<title>Node20&#45;&gt;Node22</title>
<path fill="none" stroke="midnightblue" d="M1050,-224.08C1050,-217.01 1050,-206.86 1050,-197.99"/>
<polygon fill="midnightblue" stroke="midnightblue" points="1053.5,-197.75 1050,-187.75 1046.5,-197.75 1053.5,-197.75"/>
</g>
<!-- Node21&#45;&gt;Node5 -->
<g id="edge39" class="edge">
<title>Node21&#45;&gt;Node5</title>
<path fill="none" stroke="midnightblue" d="M1341.83,-174.68C1200.81,-165.88 699.47,-134.58 553.9,-125.49"/>
<polygon fill="midnightblue" stroke="midnightblue" points="553.85,-121.98 543.65,-124.85 553.41,-128.97 553.85,-121.98"/>
</g>
<!-- Node21&#45;&gt;Node6 -->
<g id="edge40" class="edge">
<title>Node21&#45;&gt;Node6</title>
<path fill="none" stroke="midnightblue" d="M1373.84,-168.21C1364.97,-153.95 1345.41,-125.97 1321,-112 1263.79,-79.25 1186.52,-70.04 1139.04,-67.62"/>
<polygon fill="midnightblue" stroke="midnightblue" points="1138.94,-64.11 1128.8,-67.18 1138.64,-71.1 1138.94,-64.11"/>
</g>
<!-- Node21&#45;&gt;Node15 -->
<g id="edge38" class="edge">
<title>Node21&#45;&gt;Node15</title>
<path fill="none" stroke="midnightblue" d="M1364.54,-168.32C1350.5,-159.9 1328.95,-146.97 1312.46,-137.07"/>
<polygon fill="midnightblue" stroke="midnightblue" points="1313.8,-133.8 1303.42,-131.65 1310.2,-139.8 1313.8,-133.8"/>
</g>
<!-- Node22&#45;&gt;Node3 -->
<g id="edge46" class="edge">
<title>Node22&#45;&gt;Node3</title>
<path fill="none" stroke="midnightblue" d="M1041.42,-168.29C1026.33,-153.61 993.35,-124.34 959,-112 850.61,-73.06 556.8,-85.16 442,-76 423.12,-74.49 402.25,-72.64 384.48,-71.01"/>
<polygon fill="midnightblue" stroke="midnightblue" points="384.69,-67.52 374.41,-70.08 384.05,-74.49 384.69,-67.52"/>
</g>
<!-- Node22&#45;&gt;Node5 -->
<g id="edge43" class="edge">
<title>Node22&#45;&gt;Node5</title>
<path fill="none" stroke="midnightblue" d="M1004.3,-172.4C900.98,-161.99 650.84,-136.79 553.59,-126.99"/>
<polygon fill="midnightblue" stroke="midnightblue" points="553.89,-123.5 543.59,-125.98 553.19,-130.47 553.89,-123.5"/>
</g>
<!-- Node22&#45;&gt;Node6 -->
<g id="edge45" class="edge">
<title>Node22&#45;&gt;Node6</title>
<path fill="none" stroke="midnightblue" d="M1053.61,-168.37C1061.1,-150.46 1078.47,-108.92 1088.49,-84.95"/>
<polygon fill="midnightblue" stroke="midnightblue" points="1091.78,-86.17 1092.41,-75.59 1085.32,-83.47 1091.78,-86.17"/>
</g>
<!-- Node22&#45;&gt;Node10 -->
<g id="edge44" class="edge">
<title>Node22&#45;&gt;Node10</title>
<path fill="none" stroke="midnightblue" d="M1095.8,-170.59C1166.89,-160.65 1303.61,-141.52 1380.31,-130.79"/>
<polygon fill="midnightblue" stroke="midnightblue" points="1380.85,-134.25 1390.26,-129.4 1379.88,-127.32 1380.85,-134.25"/>
</g>
<!-- Node23&#45;&gt;Node5 -->
<g id="edge54" class="edge">
<title>Node23&#45;&gt;Node5</title>
<path fill="none" stroke="midnightblue" d="M1189.7,-285.31C1097.93,-276.37 874.61,-249.62 698,-188 679.98,-181.71 677.64,-175.29 660,-168 624.91,-153.51 583.42,-141.15 553.66,-133.08"/>
<polygon fill="midnightblue" stroke="midnightblue" points="554.21,-129.6 543.65,-130.4 552.41,-136.37 554.21,-129.6"/>
</g>
<!-- Node23&#45;&gt;Node6 -->
<g id="edge55" class="edge">
<title>Node23&#45;&gt;Node6</title>
<path fill="none" stroke="midnightblue" d="M1231.46,-280.21C1229.31,-252.43 1219.3,-165.28 1176,-112 1164.27,-97.56 1146.59,-86.93 1130.84,-79.64"/>
<polygon fill="midnightblue" stroke="midnightblue" points="1131.92,-76.29 1121.35,-75.53 1129.13,-82.72 1131.92,-76.29"/>
</g>
<!-- Node23&#45;&gt;Node10 -->
<g id="edge52" class="edge">
<title>Node23&#45;&gt;Node10</title>
<path fill="none" stroke="midnightblue" d="M1268.74,-280.4C1313.22,-267.97 1386.89,-240.48 1425,-188 1434.56,-174.83 1436.9,-156.24 1437.08,-142.31"/>
<polygon fill="midnightblue" stroke="midnightblue" points="1440.57,-141.85 1436.84,-131.93 1433.57,-142.01 1440.57,-141.85"/>
</g>
<!-- Node23&#45;&gt;Node15 -->
<g id="edge56" class="edge">
<title>Node23&#45;&gt;Node15</title>
<path fill="none" stroke="midnightblue" d="M1235.06,-280.08C1244.08,-253.83 1270.61,-176.55 1282.78,-141.12"/>
<polygon fill="midnightblue" stroke="midnightblue" points="1286.12,-142.16 1286.06,-131.57 1279.5,-139.89 1286.12,-142.16"/>
</g>
<!-- Node23&#45;&gt;Node20 -->
<g id="edge50" class="edge">
<title>Node23&#45;&gt;Node20</title>
<path fill="none" stroke="midnightblue" d="M1203.16,-280.44C1171.51,-271.05 1120.63,-255.95 1086.28,-245.77"/>
<polygon fill="midnightblue" stroke="midnightblue" points="1087.21,-242.39 1076.63,-242.9 1085.22,-249.1 1087.21,-242.39"/>
</g>
<!-- Node23&#45;&gt;Node21 -->
<g id="edge51" class="edge">
<title>Node23&#45;&gt;Node21</title>
<path fill="none" stroke="midnightblue" d="M1242.77,-280.45C1258.66,-267.89 1289.37,-243.81 1316,-224 1329.89,-213.67 1345.74,-202.35 1358.07,-193.65"/>
<polygon fill="midnightblue" stroke="midnightblue" points="1360.18,-196.44 1366.35,-187.82 1356.15,-190.72 1360.18,-196.44"/>
</g>
<!-- Node23&#45;&gt;Node22 -->
<g id="edge53" class="edge">
<title>Node23&#45;&gt;Node22</title>
<path fill="none" stroke="midnightblue" d="M1217.72,-280.37C1186.35,-261.41 1111.22,-216 1073.07,-192.94"/>
<polygon fill="midnightblue" stroke="midnightblue" points="1074.58,-189.77 1064.21,-187.59 1070.96,-195.76 1074.58,-189.77"/>
</g>
<!-- Node24&#45;&gt;Node5 -->
<g id="edge67" class="edge">
<title>Node24&#45;&gt;Node5</title>
<path fill="none" stroke="midnightblue" d="M266,-392.44C266,-373.94 266,-328.81 266,-291 266,-291 266,-291 266,-233 266,-143.17 403.63,-126.14 473.83,-123.29"/>
<polygon fill="midnightblue" stroke="midnightblue" points="474.2,-126.78 484.09,-122.95 473.98,-119.78 474.2,-126.78"/>
</g>
<!-- Node25&#45;&gt;Node1 -->
<g id="edge86" class="edge">
<title>Node25&#45;&gt;Node1</title>
<path fill="none" stroke="midnightblue" d="M617.82,-523.83C610.99,-531.95 598.44,-544.15 587.16,-553.82"/>
<polygon fill="midnightblue" stroke="midnightblue" points="584.76,-551.26 579.27,-560.32 589.22,-556.66 584.76,-551.26"/>
</g>
<!-- Node25&#45;&gt;Node2 -->
<g id="edge83" class="edge">
<title>Node25&#45;&gt;Node2</title>
<path fill="none" stroke="midnightblue" d="M580.98,-510.74C497.2,-505.68 309.33,-491.98 250,-468 211.76,-452.54 197.86,-446.98 176,-412 96.22,-284.32 106.44,-90.33 111.99,-29.75"/>
<polygon fill="midnightblue" stroke="midnightblue" points="115.47,-30.05 112.98,-19.75 108.51,-29.36 115.47,-30.05"/>
</g>
<!-- Node25&#45;&gt;Node3 -->
<g id="edge84" class="edge">
<title>Node25&#45;&gt;Node3</title>
<path fill="none" stroke="midnightblue" d="M580.84,-509.6C483.36,-500.62 242.97,-472.64 195,-412 181.72,-395.21 112.35,-342.53 278,-112 287.44,-98.86 301.95,-88.21 314.76,-80.57"/>
<polygon fill="midnightblue" stroke="midnightblue" points="316.7,-83.5 323.7,-75.55 313.27,-77.4 316.7,-83.5"/>
</g>
<!-- Node25&#45;&gt;Node5 -->
<g id="edge70" class="edge">
<title>Node25&#45;&gt;Node5</title>
<path fill="none" stroke="midnightblue" d="M607.82,-504.49C567.81,-479.41 455.02,-401.2 426,-300 409.49,-242.44 415.12,-214.38 453,-168 463.08,-155.65 477.28,-144.92 489.44,-137.03"/>
<polygon fill="midnightblue" stroke="midnightblue" points="491.59,-139.82 498.24,-131.58 487.9,-133.87 491.59,-139.82"/>
</g>
<!-- Node25&#45;&gt;Node10 -->
<g id="edge72" class="edge">
<title>Node25&#45;&gt;Node10</title>
<path fill="none" stroke="midnightblue" d="M663.12,-512.56C843.77,-510.07 1558,-494.47 1558,-403 1558,-403 1558,-403 1558,-289 1558,-221.74 1492.16,-163.72 1457.22,-137.66"/>
<polygon fill="midnightblue" stroke="midnightblue" points="1459.2,-134.78 1449.06,-131.73 1455.09,-140.44 1459.2,-134.78"/>
</g>
<!-- Node25&#45;&gt;Node16 -->
<g id="edge85" class="edge">
<title>Node25&#45;&gt;Node16</title>
<path fill="none" stroke="midnightblue" d="M622,-504.44C622,-485.94 622,-440.81 622,-403 622,-403 622,-403 622,-289 622,-255.25 607.57,-218.03 597.79,-196.69"/>
<polygon fill="midnightblue" stroke="midnightblue" points="600.91,-195.1 593.45,-187.58 594.59,-198.11 600.91,-195.1"/>
</g>
<!-- Node25&#45;&gt;Node18 -->
<g id="edge73" class="edge">
<title>Node25&#45;&gt;Node18</title>
<path fill="none" stroke="midnightblue" d="M649.1,-504.46C711.07,-484.93 863.25,-436.96 933.87,-414.7"/>
<polygon fill="midnightblue" stroke="midnightblue" points="935.2,-417.95 943.68,-411.61 933.09,-411.28 935.2,-417.95"/>
</g>
<!-- Node25&#45;&gt;Node19 -->
<g id="edge69" class="edge">
<title>Node25&#45;&gt;Node19</title>
<path fill="none" stroke="midnightblue" d="M663.06,-507.44C754.04,-494.38 968.82,-459.24 1023,-412 1036.65,-400.1 1043.55,-380.19 1046.93,-365.53"/>
<polygon fill="midnightblue" stroke="midnightblue" points="1050.4,-366.06 1048.89,-355.57 1043.53,-364.71 1050.4,-366.06"/>
</g>
<!-- Node25&#45;&gt;Node21 -->
<g id="edge71" class="edge">
<title>Node25&#45;&gt;Node21</title>
<path fill="none" stroke="midnightblue" d="M663.05,-511.61C824.36,-505.62 1406,-478.77 1406,-403 1406,-403 1406,-403 1406,-289 1406,-255.86 1394.3,-218.68 1386.3,-197.14"/>
<polygon fill="midnightblue" stroke="midnightblue" points="1389.51,-195.73 1382.64,-187.66 1382.98,-198.25 1389.51,-195.73"/>
</g>
<!-- Node26 -->
<g id="node26" class="node">
<title>Node26</title>
<g id="a_node26"><a xlink:href="help_8hpp.html" target="_top" xlink:title=" ">
<polygon fill="none" stroke="black" points="668.5,-448.5 668.5,-467.5 727.5,-467.5 727.5,-448.5 668.5,-448.5"/>
<text text-anchor="middle" x="698" y="-455.5" font-family="Helvetica,sans-Serif" font-size="10.00">help.hpp</text>
</a>
</g>
</g>
<!-- Node25&#45;&gt;Node26 -->
<g id="edge74" class="edge">
<title>Node25&#45;&gt;Node26</title>
<path fill="none" stroke="midnightblue" d="M634.21,-504.32C645.78,-496.11 663.38,-483.6 677.16,-473.81"/>
<polygon fill="midnightblue" stroke="midnightblue" points="679.44,-476.48 685.57,-467.83 675.39,-470.77 679.44,-476.48"/>
</g>
<!-- Node26&#45;&gt;Node5 -->
<g id="edge78" class="edge">
<title>Node26&#45;&gt;Node5</title>
<path fill="none" stroke="midnightblue" d="M668.48,-449.51C611.66,-433.31 488.28,-389.09 438,-300 406.03,-243.35 466.52,-170.6 497.42,-138.92"/>
<polygon fill="midnightblue" stroke="midnightblue" points="499.96,-141.33 504.57,-131.79 495.02,-136.38 499.96,-141.33"/>
</g>
<!-- Node26&#45;&gt;Node6 -->
<g id="edge80" class="edge">
<title>Node26&#45;&gt;Node6</title>
<path fill="none" stroke="midnightblue" d="M706.68,-448.49C757.15,-399.04 1012.81,-148.52 1079.87,-82.8"/>
<polygon fill="midnightblue" stroke="midnightblue" points="1082.4,-85.23 1087.09,-75.73 1077.5,-80.23 1082.4,-85.23"/>
</g>
<!-- Node26&#45;&gt;Node10 -->
<g id="edge79" class="edge">
<title>Node26&#45;&gt;Node10</title>
<path fill="none" stroke="midnightblue" d="M727.78,-457.17C870.98,-457.22 1482,-448.22 1482,-291 1482,-291 1482,-291 1482,-233 1482,-197.82 1461.72,-160.86 1448.09,-140"/>
<polygon fill="midnightblue" stroke="midnightblue" points="1450.91,-137.92 1442.4,-131.61 1445.12,-141.85 1450.91,-137.92"/>
</g>
<!-- Node26&#45;&gt;Node16 -->
<g id="edge82" class="edge">
<title>Node26&#45;&gt;Node16</title>
<path fill="none" stroke="midnightblue" d="M692.72,-448.23C682.27,-430.04 660,-386.6 660,-347 660,-347 660,-347 660,-289 660,-258.2 652.89,-249.75 636,-224 628.62,-212.75 617.93,-202.23 608.62,-194.19"/>
<polygon fill="midnightblue" stroke="midnightblue" points="610.83,-191.48 600.89,-187.81 606.37,-196.88 610.83,-191.48"/>
</g>
<!-- Node26&#45;&gt;Node18 -->
<g id="edge81" class="edge">
<title>Node26&#45;&gt;Node18</title>
<path fill="none" stroke="midnightblue" d="M727.74,-451.12C773.36,-442.09 861.31,-424.7 918.02,-413.48"/>
<polygon fill="midnightblue" stroke="midnightblue" points="918.75,-416.9 927.88,-411.53 917.39,-410.04 918.75,-416.9"/>
</g>
<!-- Node26&#45;&gt;Node20 -->
<g id="edge75" class="edge">
<title>Node26&#45;&gt;Node20</title>
<path fill="none" stroke="midnightblue" d="M711.8,-448.3C765.58,-414.38 961.43,-290.86 1027.82,-248.99"/>
<polygon fill="midnightblue" stroke="midnightblue" points="1029.71,-251.94 1036.3,-243.64 1025.97,-246.02 1029.71,-251.94"/>
</g>
<!-- Node26&#45;&gt;Node21 -->
<g id="edge77" class="edge">
<title>Node26&#45;&gt;Node21</title>
<path fill="none" stroke="midnightblue" d="M727.53,-457.19C822.19,-456.34 1122.66,-441.97 1308,-300 1333.57,-280.41 1337.79,-271.83 1354,-244 1362.56,-229.31 1369.26,-211.14 1373.56,-197.75"/>
<polygon fill="midnightblue" stroke="midnightblue" points="1377.02,-198.4 1376.59,-187.81 1370.33,-196.35 1377.02,-198.4"/>
</g>
<!-- Node26&#45;&gt;Node24 -->
<g id="edge76" class="edge">
<title>Node26&#45;&gt;Node24</title>
<path fill="none" stroke="midnightblue" d="M668.31,-453.29C601.01,-444.88 435.27,-424.16 338.82,-412.1"/>
<polygon fill="midnightblue" stroke="midnightblue" points="339.21,-408.62 328.85,-410.86 338.34,-415.57 339.21,-408.62"/>
</g>
</g>
</svg>
