<?xml version="1.0" encoding="UTF-8" standalone="no"?>
<!DOCTYPE svg PUBLIC "-//W3C//DTD SVG 1.1//EN"
 "http://www.w3.org/Graphics/SVG/1.1/DTD/svg11.dtd">
<!-- Generated by graphviz version 2.38.0 (20140413.2041)
 -->
<!-- Title: help.hpp Pages: 1 -->
<!--zoomable 308 -->
<svg id="main" version="1.1" xmlns="http://www.w3.org/2000/svg" xmlns:xlink="http://www.w3.org/1999/xlink" xml:space="preserve" onload="init(evt)">
<style type="text/css"><![CDATA[
.edge:hover path { stroke: red; }
.edge:hover polygon { stroke: red; fill: red; }
]]></style>
<script type="text/javascript"><![CDATA[
var edges = document.getElementsByTagName('g');
if (edges && edges.length) {
  for (var i=0;i<edges.length;i++) {
    if (edges[i].id.substr(0,4)=='edge') {
      edges[i].setAttribute('class','edge');
    }
  }
}
]]></script>
        <defs>
                <circle id="rim" cx="0" cy="0" r="7"/>
                <circle id="rim2" cx="0" cy="0" r="3.5"/>
                <g id="zoomPlus">
                        <use xlink:href="#rim" fill="#404040">
                                <set attributeName="fill" to="#808080" begin="zoomplus.mouseover" end="zoomplus.mouseout"/>
                        </use>
                        <path d="M-4,0h8M0,-4v8" fill="none" stroke="white" stroke-width="1.5" pointer-events="none"/>
                </g>
                <g id="zoomMin">
                        <use xlink:href="#rim" fill="#404040">
                                <set attributeName="fill" to="#808080" begin="zoomminus.mouseover" end="zoomminus.mouseout"/>
                        </use>
                        <path d="M-4,0h8" fill="none" stroke="white" stroke-width="1.5" pointer-events="none"/>
                </g>
                <g id="dirArrow">
                        <path fill="none" stroke="white" stroke-width="1.5" d="M0,-3.0v7 M-2.5,-0.5L0,-3.0L2.5,-0.5"/>
                </g>
               <g id="resetDef">
                       <use xlink:href="#rim2" fill="#404040">
                               <set attributeName="fill" to="#808080" begin="reset.mouseover" end="reset.mouseout"/>
                       </use>
               </g>
        </defs>

<script type="text/javascript">
var viewWidth = 649;
var viewHeight = 308;
var sectionId = 'dynsection-0';
</script>
<script xlink:href="svgpan.js"/>
<svg id="graph" class="graph">
<g id="viewport">
<title>help.hpp</title>
<!-- Node1 -->
<g id="node1" class="node"><title>Node1</title>
<polygon fill="#bfbfbf" stroke="black" points="236,-280.5 236,-299.5 289,-299.5 289,-280.5 236,-280.5"/>
<text text-anchor="middle" x="262.5" y="-287.5" font-family="FreeSans" font-size="10.00">help.hpp</text>
</g>
<!-- Node2 -->
<g id="node2" class="node"><title>Node2</title>
<g id="a_node2"><a xlink:href="arg_8hpp.html" target="_top" xlink:title="arg.hpp">
<polygon fill="none" stroke="black" points="238.5,-224.5 238.5,-243.5 286.5,-243.5 286.5,-224.5 238.5,-224.5"/>
<text text-anchor="middle" x="262.5" y="-231.5" font-family="FreeSans" font-size="10.00">arg.hpp</text>
</a>
</g>
</g>
<!-- Node1&#45;&gt;Node2 -->
<g id="edge1" class="edge"><title>Node1&#45;&gt;Node2</title>
<path fill="none" stroke="midnightblue" d="M262.5,-280.083C262.5,-273.006 262.5,-262.861 262.5,-253.986"/>
<polygon fill="midnightblue" stroke="midnightblue" points="266,-253.751 262.5,-243.751 259,-253.751 266,-253.751"/>
</g>
<!-- Node4 -->
<g id="node4" class="node"><title>Node4</title>
<g id="a_node4"><a xlink:href="utils_8hpp.html" target="_top" xlink:title="utils.hpp">
<polygon fill="none" stroke="black" points="73.5,-112.5 73.5,-131.5 125.5,-131.5 125.5,-112.5 73.5,-112.5"/>
<text text-anchor="middle" x="99.5" y="-119.5" font-family="FreeSans" font-size="10.00">utils.hpp</text>
</a>
</g>
</g>
<!-- Node1&#45;&gt;Node4 -->
<g id="edge31" class="edge"><title>Node1&#45;&gt;Node4</title>
<path fill="none" stroke="midnightblue" d="M235.616,-287.94C180.015,-285.124 55.397,-275.377 29.5,-244 0.957639,-209.418 50.0769,-161.726 79.6244,-137.861"/>
<polygon fill="midnightblue" stroke="midnightblue" points="81.9966,-140.449 87.7089,-131.526 77.6789,-134.939 81.9966,-140.449"/>
</g>
<!-- Node6 -->
<g id="node6" class="node"><title>Node6</title>
<g id="a_node6"><a xlink:href="types_8hpp.html" target="_top" xlink:title="types.hpp">
<polygon fill="none" stroke="black" points="359,-56.5 359,-75.5 416,-75.5 416,-56.5 359,-56.5"/>
<text text-anchor="middle" x="387.5" y="-63.5" font-family="FreeSans" font-size="10.00">types.hpp</text>
</a>
</g>
</g>
<!-- Node1&#45;&gt;Node6 -->
<g id="edge33" class="edge"><title>Node1&#45;&gt;Node6</title>
<path fill="none" stroke="midnightblue" d="M289.324,-284.789C350.731,-273.443 499.525,-235.75 542.5,-132 545.902,-123.788 547.838,-119.108 542.5,-112 528.501,-93.3582 467.214,-79.9383 426.028,-72.828"/>
<polygon fill="midnightblue" stroke="midnightblue" points="426.471,-69.3536 416.031,-71.1569 425.317,-76.2578 426.471,-69.3536"/>
</g>
<!-- Node13 -->
<g id="node13" class="node"><title>Node13</title>
<g id="a_node13"><a xlink:href="context_8hpp.html" target="_top" xlink:title="context.hpp">
<polygon fill="none" stroke="black" points="65.5,-168.5 65.5,-187.5 131.5,-187.5 131.5,-168.5 65.5,-168.5"/>
<text text-anchor="middle" x="98.5" y="-175.5" font-family="FreeSans" font-size="10.00">context.hpp</text>
</a>
</g>
</g>
<!-- Node1&#45;&gt;Node13 -->
<g id="edge30" class="edge"><title>Node1&#45;&gt;Node13</title>
<path fill="none" stroke="midnightblue" d="M249.631,-280.368C221.489,-261.492 154.238,-216.385 119.726,-193.237"/>
<polygon fill="midnightblue" stroke="midnightblue" points="121.564,-190.255 111.309,-187.591 117.664,-196.069 121.564,-190.255"/>
</g>
<!-- Node15 -->
<g id="node15" class="node"><title>Node15</title>
<g id="a_node15"><a xlink:href="exceptions_8hpp.html" target="_top" xlink:title="exceptions.hpp">
<polygon fill="none" stroke="black" points="453.5,-112.5 453.5,-131.5 533.5,-131.5 533.5,-112.5 453.5,-112.5"/>
<text text-anchor="middle" x="493.5" y="-119.5" font-family="FreeSans" font-size="10.00">exceptions.hpp</text>
</a>
</g>
</g>
<!-- Node1&#45;&gt;Node15 -->
<g id="edge32" class="edge"><title>Node1&#45;&gt;Node15</title>
<path fill="none" stroke="midnightblue" d="M289.131,-282.207C331.719,-270.082 415.439,-240.889 465.5,-188 477.763,-175.044 485.123,-155.877 489.196,-141.711"/>
<polygon fill="midnightblue" stroke="midnightblue" points="492.686,-142.193 491.789,-131.636 485.907,-140.448 492.686,-142.193"/>
</g>
<!-- Node18 -->
<g id="node18" class="node"><title>Node18</title>
<g id="a_node18"><a xlink:href="help__printer__iface_8hpp.html" target="_top" xlink:title="help_printer_iface.hpp">
<polygon fill="none" stroke="black" points="39,-224.5 39,-243.5 150,-243.5 150,-224.5 39,-224.5"/>
<text text-anchor="middle" x="94.5" y="-231.5" font-family="FreeSans" font-size="10.00">help_printer_iface.hpp</text>
</a>
</g>
</g>
<!-- Node1&#45;&gt;Node18 -->
<g id="edge28" class="edge"><title>Node1&#45;&gt;Node18</title>
<path fill="none" stroke="midnightblue" d="M235.88,-280.444C207.494,-271.32 162.363,-256.813 130.747,-246.651"/>
<polygon fill="midnightblue" stroke="midnightblue" points="131.587,-243.244 120.996,-243.516 129.445,-249.909 131.587,-243.244"/>
</g>
<!-- Node19 -->
<g id="node19" class="node"><title>Node19</title>
<polygon fill="none" stroke="#bfbfbf" points="590,-224.5 590,-243.5 641,-243.5 641,-224.5 590,-224.5"/>
<text text-anchor="middle" x="615.5" y="-231.5" font-family="FreeSans" font-size="10.00">memory</text>
</g>
<!-- Node1&#45;&gt;Node19 -->
<g id="edge34" class="edge"><title>Node1&#45;&gt;Node19</title>
<path fill="none" stroke="midnightblue" d="M289.412,-285.854C343.718,-279.346 470.216,-263.382 575.5,-244 576.944,-243.734 578.415,-243.453 579.899,-243.16"/>
<polygon fill="midnightblue" stroke="midnightblue" points="580.665,-246.576 589.74,-241.108 579.236,-239.723 580.665,-246.576"/>
</g>
<!-- Node3 -->
<g id="node3" class="node"><title>Node3</title>
<g id="a_node3"><a xlink:href="arg__iface_8hpp.html" target="_top" xlink:title="arg_iface.hpp">
<polygon fill="none" stroke="black" points="225.5,-168.5 225.5,-187.5 299.5,-187.5 299.5,-168.5 225.5,-168.5"/>
<text text-anchor="middle" x="262.5" y="-175.5" font-family="FreeSans" font-size="10.00">arg_iface.hpp</text>
</a>
</g>
</g>
<!-- Node2&#45;&gt;Node3 -->
<g id="edge2" class="edge"><title>Node2&#45;&gt;Node3</title>
<path fill="none" stroke="midnightblue" d="M262.5,-224.083C262.5,-217.006 262.5,-206.861 262.5,-197.986"/>
<polygon fill="midnightblue" stroke="midnightblue" points="266,-197.751 262.5,-187.751 259,-197.751 266,-197.751"/>
</g>
<!-- Node2&#45;&gt;Node4 -->
<g id="edge13" class="edge"><title>Node2&#45;&gt;Node4</title>
<path fill="none" stroke="midnightblue" d="M245.754,-224.349C229.478,-215.736 204.248,-201.837 183.5,-188 159.855,-172.231 134.232,-151.887 117.584,-138.195"/>
<polygon fill="midnightblue" stroke="midnightblue" points="119.686,-135.391 109.755,-131.7 115.217,-140.778 119.686,-135.391"/>
</g>
<!-- Node2&#45;&gt;Node6 -->
<g id="edge26" class="edge"><title>Node2&#45;&gt;Node6</title>
<path fill="none" stroke="midnightblue" d="M286.767,-233.474C320.053,-232.646 378.884,-225.563 406.5,-188 429.184,-157.145 410.549,-109.82 397.504,-84.4676"/>
<polygon fill="midnightblue" stroke="midnightblue" points="400.554,-82.7496 392.714,-75.623 394.398,-86.0831 400.554,-82.7496"/>
</g>
<!-- Node10 -->
<g id="node10" class="node"><title>Node10</title>
<polygon fill="none" stroke="#bfbfbf" points="137.5,-56.5 137.5,-75.5 193.5,-75.5 193.5,-56.5 137.5,-56.5"/>
<text text-anchor="middle" x="165.5" y="-63.5" font-family="FreeSans" font-size="10.00">algorithm</text>
</g>
<!-- Node2&#45;&gt;Node10 -->
<g id="edge27" class="edge"><title>Node2&#45;&gt;Node10</title>
<path fill="none" stroke="midnightblue" d="M251.416,-224.36C241.243,-215.966 226.307,-202.407 216.5,-188 194.03,-154.988 178.432,-110.5 170.822,-85.6973"/>
<polygon fill="midnightblue" stroke="midnightblue" points="174.086,-84.394 167.892,-75.7989 167.374,-86.381 174.086,-84.394"/>
</g>
<!-- Node2&#45;&gt;Node13 -->
<g id="edge14" class="edge"><title>Node2&#45;&gt;Node13</title>
<path fill="none" stroke="midnightblue" d="M238.301,-225.032C210.805,-215.978 165.666,-201.116 134.141,-190.736"/>
<polygon fill="midnightblue" stroke="midnightblue" points="135.017,-187.339 124.424,-187.536 132.828,-193.988 135.017,-187.339"/>
</g>
<!-- Node2&#45;&gt;Node15 -->
<g id="edge18" class="edge"><title>Node2&#45;&gt;Node15</title>
<path fill="none" stroke="midnightblue" d="M286.68,-231.566C322.587,-228.45 390.977,-218.643 439.5,-188 458.427,-176.048 473.975,-155.253 483.448,-140.402"/>
<polygon fill="midnightblue" stroke="midnightblue" points="486.563,-142.016 488.771,-131.654 480.583,-138.378 486.563,-142.016"/>
</g>
<!-- Node17 -->
<g id="node17" class="node"><title>Node17</title>
<g id="a_node17"><a xlink:href="value__utils_8hpp.html" target="_top" xlink:title="value_utils.hpp">
<polygon fill="none" stroke="black" points="317.5,-168.5 317.5,-187.5 397.5,-187.5 397.5,-168.5 317.5,-168.5"/>
<text text-anchor="middle" x="357.5" y="-175.5" font-family="FreeSans" font-size="10.00">value_utils.hpp</text>
</a>
</g>
</g>
<!-- Node2&#45;&gt;Node17 -->
<g id="edge21" class="edge"><title>Node2&#45;&gt;Node17</title>
<path fill="none" stroke="midnightblue" d="M277.763,-224.324C292.721,-215.822 315.755,-202.729 333.227,-192.797"/>
<polygon fill="midnightblue" stroke="midnightblue" points="335.31,-195.639 342.274,-187.655 331.851,-189.553 335.31,-195.639"/>
</g>
<!-- Node3&#45;&gt;Node4 -->
<g id="edge3" class="edge"><title>Node3&#45;&gt;Node4</title>
<path fill="none" stroke="midnightblue" d="M236.672,-168.444C209.251,-159.359 165.723,-144.939 135.068,-134.783"/>
<polygon fill="midnightblue" stroke="midnightblue" points="135.8,-131.339 125.207,-131.516 133.599,-137.984 135.8,-131.339"/>
</g>
<!-- Node3&#45;&gt;Node6 -->
<g id="edge11" class="edge"><title>Node3&#45;&gt;Node6</title>
<path fill="none" stroke="midnightblue" d="M272.309,-168.368C293.393,-149.814 343.281,-105.913 369.957,-82.4376"/>
<polygon fill="midnightblue" stroke="midnightblue" points="372.542,-84.8252 377.737,-75.5914 367.918,-79.5702 372.542,-84.8252"/>
</g>
<!-- Node12 -->
<g id="node12" class="node"><title>Node12</title>
<g id="a_node12"><a xlink:href="enums_8hpp.html" target="_top" xlink:title="enums.hpp">
<polygon fill="none" stroke="black" points="220,-112.5 220,-131.5 283,-131.5 283,-112.5 220,-112.5"/>
<text text-anchor="middle" x="251.5" y="-119.5" font-family="FreeSans" font-size="10.00">enums.hpp</text>
</a>
</g>
</g>
<!-- Node3&#45;&gt;Node12 -->
<g id="edge12" class="edge"><title>Node3&#45;&gt;Node12</title>
<path fill="none" stroke="midnightblue" d="M260.684,-168.083C259.226,-160.927 257.129,-150.635 255.307,-141.691"/>
<polygon fill="midnightblue" stroke="midnightblue" points="258.708,-140.851 253.283,-131.751 251.849,-142.248 258.708,-140.851"/>
</g>
<!-- Node5 -->
<g id="node5" class="node"><title>Node5</title>
<polygon fill="none" stroke="#bfbfbf" points="79.5,-56.5 79.5,-75.5 119.5,-75.5 119.5,-56.5 79.5,-56.5"/>
<text text-anchor="middle" x="99.5" y="-63.5" font-family="FreeSans" font-size="10.00">regex</text>
</g>
<!-- Node4&#45;&gt;Node5 -->
<g id="edge4" class="edge"><title>Node4&#45;&gt;Node5</title>
<path fill="none" stroke="midnightblue" d="M99.5,-112.083C99.5,-105.006 99.5,-94.8611 99.5,-85.9865"/>
<polygon fill="midnightblue" stroke="midnightblue" points="103,-85.751 99.5,-75.7511 96.0001,-85.7511 103,-85.751"/>
</g>
<!-- Node4&#45;&gt;Node6 -->
<g id="edge5" class="edge"><title>Node4&#45;&gt;Node6</title>
<path fill="none" stroke="midnightblue" d="M125.566,-116.113C176.378,-106.585 288.91,-85.4857 348.586,-74.2965"/>
<polygon fill="midnightblue" stroke="midnightblue" points="349.555,-77.6759 358.738,-72.3928 348.264,-70.7957 349.555,-77.6759"/>
</g>
<!-- Node4&#45;&gt;Node10 -->
<g id="edge9" class="edge"><title>Node4&#45;&gt;Node10</title>
<path fill="none" stroke="midnightblue" d="M110.104,-112.324C119.956,-104.263 134.851,-92.0765 146.715,-82.3695"/>
<polygon fill="midnightblue" stroke="midnightblue" points="149.18,-84.8752 154.703,-75.8339 144.747,-79.4575 149.18,-84.8752"/>
</g>
<!-- Node11 -->
<g id="node11" class="node"><title>Node11</title>
<polygon fill="none" stroke="#bfbfbf" points="0,-56.5 0,-75.5 61,-75.5 61,-56.5 0,-56.5"/>
<text text-anchor="middle" x="30.5" y="-63.5" font-family="FreeSans" font-size="10.00">type_traits</text>
</g>
<!-- Node4&#45;&gt;Node11 -->
<g id="edge10" class="edge"><title>Node4&#45;&gt;Node11</title>
<path fill="none" stroke="midnightblue" d="M88.414,-112.324C78.014,-104.185 62.2394,-91.8395 49.7784,-82.0874"/>
<polygon fill="midnightblue" stroke="midnightblue" points="51.8199,-79.2407 41.7878,-75.8339 47.5057,-84.7533 51.8199,-79.2407"/>
</g>
<!-- Node7 -->
<g id="node7" class="node"><title>Node7</title>
<polygon fill="none" stroke="#bfbfbf" points="302.5,-0.5 302.5,-19.5 342.5,-19.5 342.5,-0.5 302.5,-0.5"/>
<text text-anchor="middle" x="322.5" y="-7.5" font-family="FreeSans" font-size="10.00">string</text>
</g>
<!-- Node6&#45;&gt;Node7 -->
<g id="edge6" class="edge"><title>Node6&#45;&gt;Node7</title>
<path fill="none" stroke="midnightblue" d="M377.057,-56.324C367.354,-48.2631 352.685,-36.0765 341,-26.3695"/>
<polygon fill="midnightblue" stroke="midnightblue" points="343.062,-23.532 333.133,-19.8339 338.589,-28.9163 343.062,-23.532"/>
</g>
<!-- Node8 -->
<g id="node8" class="node"><title>Node8</title>
<polygon fill="none" stroke="#bfbfbf" points="361,-0.5 361,-19.5 414,-19.5 414,-0.5 361,-0.5"/>
<text text-anchor="middle" x="387.5" y="-7.5" font-family="FreeSans" font-size="10.00">iostream</text>
</g>
<!-- Node6&#45;&gt;Node8 -->
<g id="edge7" class="edge"><title>Node6&#45;&gt;Node8</title>
<path fill="none" stroke="midnightblue" d="M387.5,-56.083C387.5,-49.0059 387.5,-38.8611 387.5,-29.9865"/>
<polygon fill="midnightblue" stroke="midnightblue" points="391,-29.751 387.5,-19.7511 384,-29.7511 391,-29.751"/>
</g>
<!-- Node9 -->
<g id="node9" class="node"><title>Node9</title>
<polygon fill="none" stroke="#bfbfbf" points="432,-0.5 432,-19.5 475,-19.5 475,-0.5 432,-0.5"/>
<text text-anchor="middle" x="453.5" y="-7.5" font-family="FreeSans" font-size="10.00">vector</text>
</g>
<!-- Node6&#45;&gt;Node9 -->
<g id="edge8" class="edge"><title>Node6&#45;&gt;Node9</title>
<path fill="none" stroke="midnightblue" d="M398.104,-56.324C407.956,-48.2631 422.851,-36.0765 434.715,-26.3695"/>
<polygon fill="midnightblue" stroke="midnightblue" points="437.18,-28.8752 442.703,-19.8339 432.747,-23.4575 437.18,-28.8752"/>
</g>
<!-- Node13&#45;&gt;Node4 -->
<g id="edge16" class="edge"><title>Node13&#45;&gt;Node4</title>
<path fill="none" stroke="midnightblue" d="M98.6651,-168.083C98.7962,-161.006 98.9841,-150.861 99.1484,-141.986"/>
<polygon fill="midnightblue" stroke="midnightblue" points="102.652,-141.814 99.3379,-131.751 95.6533,-141.685 102.652,-141.814"/>
</g>
<!-- Node13&#45;&gt;Node6 -->
<g id="edge17" class="edge"><title>Node13&#45;&gt;Node6</title>
<path fill="none" stroke="midnightblue" d="M110.68,-168.4C130.65,-154.661 171.991,-127.713 210.5,-112 256.324,-93.3026 312.071,-80.6762 348.605,-73.6686"/>
<polygon fill="midnightblue" stroke="midnightblue" points="349.647,-77.0346 358.834,-71.7572 348.361,-70.1536 349.647,-77.0346"/>
</g>
<!-- Node14 -->
<g id="node14" class="node"><title>Node14</title>
<polygon fill="none" stroke="#bfbfbf" points="16,-112.5 16,-131.5 55,-131.5 55,-112.5 16,-112.5"/>
<text text-anchor="middle" x="35.5" y="-119.5" font-family="FreeSans" font-size="10.00">utility</text>
</g>
<!-- Node13&#45;&gt;Node14 -->
<g id="edge15" class="edge"><title>Node13&#45;&gt;Node14</title>
<path fill="none" stroke="midnightblue" d="M88.378,-168.324C78.9736,-160.263 64.7559,-148.077 53.431,-138.369"/>
<polygon fill="midnightblue" stroke="midnightblue" points="55.6766,-135.684 45.8062,-131.834 51.121,-140.999 55.6766,-135.684"/>
</g>
<!-- Node15&#45;&gt;Node6 -->
<g id="edge20" class="edge"><title>Node15&#45;&gt;Node6</title>
<path fill="none" stroke="midnightblue" d="M476.469,-112.324C459.47,-103.664 433.124,-90.2424 413.507,-80.249"/>
<polygon fill="midnightblue" stroke="midnightblue" points="414.988,-77.0752 404.488,-75.6545 411.81,-83.3125 414.988,-77.0752"/>
</g>
<!-- Node16 -->
<g id="node16" class="node"><title>Node16</title>
<polygon fill="none" stroke="#bfbfbf" points="464.5,-56.5 464.5,-75.5 522.5,-75.5 522.5,-56.5 464.5,-56.5"/>
<text text-anchor="middle" x="493.5" y="-63.5" font-family="FreeSans" font-size="10.00">stdexcept</text>
</g>
<!-- Node15&#45;&gt;Node16 -->
<g id="edge19" class="edge"><title>Node15&#45;&gt;Node16</title>
<path fill="none" stroke="midnightblue" d="M493.5,-112.083C493.5,-105.006 493.5,-94.8611 493.5,-85.9865"/>
<polygon fill="midnightblue" stroke="midnightblue" points="497,-85.751 493.5,-75.7511 490,-85.7511 497,-85.751"/>
</g>
<!-- Node17&#45;&gt;Node4 -->
<g id="edge22" class="edge"><title>Node17&#45;&gt;Node4</title>
<path fill="none" stroke="midnightblue" d="M317.471,-168.622C267.758,-158.217 183.677,-140.618 135.774,-130.592"/>
<polygon fill="midnightblue" stroke="midnightblue" points="136.346,-127.136 125.841,-128.513 134.912,-133.988 136.346,-127.136"/>
</g>
<!-- Node17&#45;&gt;Node6 -->
<g id="edge24" class="edge"><title>Node17&#45;&gt;Node6</title>
<path fill="none" stroke="midnightblue" d="M359.854,-168.368C364.717,-150.537 375.965,-109.295 382.517,-85.2717"/>
<polygon fill="midnightblue" stroke="midnightblue" points="385.902,-86.16 385.157,-75.5914 379.149,-84.3181 385.902,-86.16"/>
</g>
<!-- Node17&#45;&gt;Node10 -->
<g id="edge25" class="edge"><title>Node17&#45;&gt;Node10</title>
<path fill="none" stroke="midnightblue" d="M350.723,-168.2C339.695,-154.426 316.565,-127.728 291.5,-112 264.23,-94.8879 229.554,-83.1144 203.486,-75.9149"/>
<polygon fill="midnightblue" stroke="midnightblue" points="204.161,-72.4728 193.597,-73.2878 202.363,-79.2381 204.161,-72.4728"/>
</g>
<!-- Node17&#45;&gt;Node15 -->
<g id="edge23" class="edge"><title>Node17&#45;&gt;Node15</title>
<path fill="none" stroke="midnightblue" d="M379.05,-168.444C401.531,-159.517 436.988,-145.439 462.48,-135.317"/>
<polygon fill="midnightblue" stroke="midnightblue" points="464.049,-138.46 472.051,-131.516 461.465,-131.954 464.049,-138.46"/>
</g>
<!-- Node18&#45;&gt;Node4 -->
<g id="edge29" class="edge"><title>Node18&#45;&gt;Node4</title>
<path fill="none" stroke="midnightblue" d="M83.1781,-224.18C69.1097,-212.069 47.938,-189.354 56.5,-168 61.18,-156.328 70.4911,-145.969 79.2556,-138.141"/>
<polygon fill="midnightblue" stroke="midnightblue" points="81.5518,-140.783 87.0025,-131.698 77.0759,-135.401 81.5518,-140.783"/>
</g>
</g>
</svg>
        <g id="navigator" transform="translate(0 0)" fill="#404254">
                <rect fill="#f2f5e9" fill-opacity="0.5" stroke="#606060" stroke-width=".5" x="0" y="0" width="60" height="60"/>
                <use id="zoomplus" xlink:href="#zoomPlus" x="17" y="9" onmousedown="handleZoom(evt,'in')"/>
                <use id="zoomminus" xlink:href="#zoomMin" x="42" y="9" onmousedown="handleZoom(evt,'out')"/>
                <use id="reset" xlink:href="#resetDef" x="30" y="36" onmousedown="handleReset()"/>
                <g id="arrowUp" xlink:href="#dirArrow" transform="translate(30 24)" onmousedown="handlePan(0,-1)">
                  <use xlink:href="#rim" fill="#404040">
                        <set attributeName="fill" to="#808080" begin="arrowUp.mouseover" end="arrowUp.mouseout"/>
                  </use>
                  <path fill="none" stroke="white" stroke-width="1.5" d="M0,-3.0v7 M-2.5,-0.5L0,-3.0L2.5,-0.5"/>
                </g>
                <g id="arrowRight" xlink:href="#dirArrow" transform="rotate(90) translate(36 -43)" onmousedown="handlePan(1,0)">
                  <use xlink:href="#rim" fill="#404040">
                        <set attributeName="fill" to="#808080" begin="arrowRight.mouseover" end="arrowRight.mouseout"/>
                  </use>
                  <path fill="none" stroke="white" stroke-width="1.5" d="M0,-3.0v7 M-2.5,-0.5L0,-3.0L2.5,-0.5"/>
                </g>
                <g id="arrowDown" xlink:href="#dirArrow" transform="rotate(180) translate(-30 -48)" onmousedown="handlePan(0,1)">
                  <use xlink:href="#rim" fill="#404040">
                        <set attributeName="fill" to="#808080" begin="arrowDown.mouseover" end="arrowDown.mouseout"/>
                  </use>
                  <path fill="none" stroke="white" stroke-width="1.5" d="M0,-3.0v7 M-2.5,-0.5L0,-3.0L2.5,-0.5"/>
                </g>
                <g id="arrowLeft" xlink:href="#dirArrow" transform="rotate(270) translate(-36 17)" onmousedown="handlePan(-1,0)">
                  <use xlink:href="#rim" fill="#404040">
                        <set attributeName="fill" to="#808080" begin="arrowLeft.mouseover" end="arrowLeft.mouseout"/>
                  </use>
                  <path fill="none" stroke="white" stroke-width="1.5" d="M0,-3.0v7 M-2.5,-0.5L0,-3.0L2.5,-0.5"/>
                </g>
        </g>
        <svg viewBox="0 0 15 15" width="100%" height="30px" preserveAspectRatio="xMaxYMin meet">
         <g id="arrow_out" transform="scale(0.3 0.3)">
          <a xlink:href="help_8hpp__incl_org.svg" target="_base">
           <rect id="button" ry="5" rx="5" y="6" x="6" height="38" width="38"
                fill="#f2f5e9" fill-opacity="0.5" stroke="#606060" stroke-width="1.0"/>
           <path id="arrow"
             d="M 11.500037,31.436501 C 11.940474,20.09759 22.043105,11.32322 32.158766,21.979434 L 37.068811,17.246167 C 37.068811,17.246167 37.088388,32 37.088388,32 L 22.160133,31.978069 C 22.160133,31.978069 26.997745,27.140456 26.997745,27.140456 C 18.528582,18.264221 13.291696,25.230495 11.500037,31.436501 z"
             style="fill:#404040;"/>
          </a>
         </g>
        </svg>
</svg>
