<?xml version="1.0" encoding="UTF-8" standalone="no"?>
<!DOCTYPE svg PUBLIC "-//W3C//DTD SVG 1.1//EN"
 "http://www.w3.org/Graphics/SVG/1.1/DTD/svg11.dtd">
<!-- Generated by graphviz version 2.38.0 (20140413.2041)
 -->
<!-- Title: help_printer.hpp Pages: 1 -->
<svg width="193pt" height="196pt"
 viewBox="0.00 0.00 193.39 196.00" xmlns="http://www.w3.org/2000/svg" xmlns:xlink="http://www.w3.org/1999/xlink">
<g id="graph0" class="graph" transform="scale(1 1) rotate(0) translate(4 192)">
<title>help_printer.hpp</title>
<!-- Node1 -->
<g id="node1" class="node"><title>Node1</title>
<polygon fill="#bfbfbf" stroke="black" points="74.5,-168.5 74.5,-187.5 159.5,-187.5 159.5,-168.5 74.5,-168.5"/>
<text text-anchor="middle" x="117" y="-175.5" font-family="FreeSans" font-size="10.00">help_printer.hpp</text>
</g>
<!-- Node2 -->
<g id="node2" class="node"><title>Node2</title>
<g id="a_node2"><a xlink:href="cmd__line_8hpp.html" target="_top" xlink:title="cmd_line.hpp">
<polygon fill="none" stroke="black" points="80,-112.5 80,-131.5 154,-131.5 154,-112.5 80,-112.5"/>
<text text-anchor="middle" x="117" y="-119.5" font-family="FreeSans" font-size="10.00">cmd_line.hpp</text>
</a>
</g>
</g>
<!-- Node1&#45;&gt;Node2 -->
<g id="edge1" class="edge"><title>Node1&#45;&gt;Node2</title>
<path fill="none" stroke="midnightblue" d="M117,-157.805C117,-148.91 117,-138.78 117,-131.751"/>
<polygon fill="midnightblue" stroke="midnightblue" points="113.5,-158.083 117,-168.083 120.5,-158.083 113.5,-158.083"/>
</g>
<!-- Node3 -->
<g id="node3" class="node"><title>Node3</title>
<g id="a_node3"><a xlink:href="all_8hpp.html" target="_top" xlink:title="all.hpp">
<polygon fill="none" stroke="black" points="0,-56.5 0,-75.5 44,-75.5 44,-56.5 0,-56.5"/>
<text text-anchor="middle" x="22" y="-63.5" font-family="FreeSans" font-size="10.00">all.hpp</text>
</a>
</g>
</g>
<!-- Node2&#45;&gt;Node3 -->
<g id="edge2" class="edge"><title>Node2&#45;&gt;Node3</title>
<path fill="none" stroke="midnightblue" d="M92.6824,-107.177C75.2012,-97.2407 52.1699,-84.1492 37.2255,-75.6545"/>
<polygon fill="midnightblue" stroke="midnightblue" points="91.3133,-110.425 101.737,-112.324 94.7725,-104.339 91.3133,-110.425"/>
</g>
<!-- Node4 -->
<g id="node4" class="node"><title>Node4</title>
<g id="a_node4"><a xlink:href="arg__as__command_8hpp.html" target="_top" xlink:title="arg_as_command.hpp">
<polygon fill="none" stroke="black" points="61.5,-56.5 61.5,-75.5 172.5,-75.5 172.5,-56.5 61.5,-56.5"/>
<text text-anchor="middle" x="117" y="-63.5" font-family="FreeSans" font-size="10.00">arg_as_command.hpp</text>
</a>
</g>
</g>
<!-- Node2&#45;&gt;Node4 -->
<g id="edge3" class="edge"><title>Node2&#45;&gt;Node4</title>
<path fill="none" stroke="midnightblue" d="M117,-101.805C117,-92.9102 117,-82.7798 117,-75.7511"/>
<polygon fill="midnightblue" stroke="midnightblue" points="113.5,-102.083 117,-112.083 120.5,-102.083 113.5,-102.083"/>
</g>
<!-- Node5 -->
<g id="node5" class="node"><title>Node5</title>
<g id="a_node5"><a xlink:href="api_8hpp.html" target="_top" xlink:title="api.hpp">
<polygon fill="none" stroke="black" points="135.5,-0.5 135.5,-19.5 182.5,-19.5 182.5,-0.5 135.5,-0.5"/>
<text text-anchor="middle" x="159" y="-7.5" font-family="FreeSans" font-size="10.00">api.hpp</text>
</a>
</g>
</g>
<!-- Node4&#45;&gt;Node5 -->
<g id="edge4" class="edge"><title>Node4&#45;&gt;Node5</title>
<path fill="none" stroke="midnightblue" d="M130.11,-48.144C137.428,-38.7357 146.241,-27.4046 152.194,-19.7511"/>
<polygon fill="midnightblue" stroke="midnightblue" points="127.312,-46.0406 123.935,-56.083 132.838,-50.3383 127.312,-46.0406"/>
</g>
<!-- Node5&#45;&gt;Node2 -->
<g id="edge5" class="edge"><title>Node5&#45;&gt;Node2</title>
<path fill="none" stroke="midnightblue" d="M172.537,-28.0462C181.46,-41.4898 190.125,-60.493 182,-76 172.955,-93.2636 153.945,-105.221 138.808,-112.447"/>
<polygon fill="midnightblue" stroke="midnightblue" points="175.221,-25.7855 166.522,-19.7385 169.552,-29.8909 175.221,-25.7855"/>
</g>
</g>
</svg>
