<?xml version="1.0" encoding="UTF-8" standalone="no"?>
<!DOCTYPE svg PUBLIC "-//W3C//DTD SVG 1.1//EN"
 "http://www.w3.org/Graphics/SVG/1.1/DTD/svg11.dtd">
<!-- Generated by graphviz version 14.1.2 (0)
 -->
<!-- Title: help.hpp Pages: 1 -->
<svg width="156pt" height="140pt"
 viewBox="0.00 0.00 156.00 140.00" xmlns="http://www.w3.org/2000/svg" xmlns:xlink="http://www.w3.org/1999/xlink">
<g id="graph0" class="graph" transform="scale(1 1) rotate(0) translate(4 136)">
<title>help.hpp</title>
<!-- Node1 -->
<g id="Node000001" class="node">
<title>Node1</title>
<g id="a_Node000001"><a xlink:title=" ">
<polygon fill="#999999" stroke="#666666" points="131.62,-132 78.88,-132 78.88,-112 131.62,-112 131.62,-132"/>
<text xml:space="preserve" text-anchor="middle" x="105.25" y="-118.5" font-family="Helvetica,sans-Serif" font-size="10.00">help.hpp</text>
</a>
</g>
</g>
<!-- Node2 -->
<g id="Node000002" class="node">
<title>Node2</title>
<g id="a_Node000002"><a xlink:href="cmd__line_8hpp.html" target="_top" xlink:title=" ">
<polygon fill="white" stroke="#666666" points="142.12,-76 68.38,-76 68.38,-56 142.12,-56 142.12,-76"/>
<text xml:space="preserve" text-anchor="middle" x="105.25" y="-62.5" font-family="Helvetica,sans-Serif" font-size="10.00">cmd_line.hpp</text>
</a>
</g>
</g>
<!-- Node1&#45;&gt;Node2 -->
<g id="edge1_Node000001_Node000002" class="edge">
<title>Node1&#45;&gt;Node2</title>
<g id="a_edge1_Node000001_Node000002"><a xlink:title=" ">
<path fill="none" stroke="#63b8ff" d="M105.25,-100.13C105.25,-91.9 105.25,-82.85 105.25,-76.3"/>
<polygon fill="#63b8ff" stroke="#63b8ff" points="101.75,-100.08 105.25,-110.08 108.75,-100.08 101.75,-100.08"/>
</a>
</g>
</g>
<!-- Node3 -->
<g id="Node000003" class="node">
<title>Node3</title>
<g id="a_Node000003"><a xlink:href="all_8hpp.html" target="_top" xlink:title=" ">
<polygon fill="white" stroke="#666666" points="44.5,-20 0,-20 0,0 44.5,0 44.5,-20"/>
<text xml:space="preserve" text-anchor="middle" x="22.25" y="-6.5" font-family="Helvetica,sans-Serif" font-size="10.00">all.hpp</text>
</a>
</g>
</g>
<!-- Node2&#45;&gt;Node3 -->
<g id="edge2_Node000002_Node000003" class="edge">
<title>Node2&#45;&gt;Node3</title>
<g id="a_edge2_Node000002_Node000003"><a xlink:title=" ">
<path fill="none" stroke="#63b8ff" d="M81.49,-49.54C67.08,-40.17 49.16,-28.51 36.82,-20.48"/>
<polygon fill="#63b8ff" stroke="#63b8ff" points="79.23,-52.25 89.52,-54.77 83.05,-46.38 79.23,-52.25"/>
</a>
</g>
</g>
<!-- Node4 -->
<g id="Node000004" class="node">
<title>Node4</title>
<g id="a_Node000004"><a xlink:href="help__printer_8hpp.html" target="_top" xlink:title=" ">
<polygon fill="white" stroke="#666666" points="147.75,-20 62.75,-20 62.75,0 147.75,0 147.75,-20"/>
<text xml:space="preserve" text-anchor="middle" x="105.25" y="-6.5" font-family="Helvetica,sans-Serif" font-size="10.00">help_printer.hpp</text>
</a>
</g>
</g>
<!-- Node2&#45;&gt;Node4 -->
<g id="edge3_Node000002_Node000004" class="edge">
<title>Node2&#45;&gt;Node4</title>
<g id="a_edge3_Node000002_Node000004"><a xlink:title=" ">
<path fill="none" stroke="#63b8ff" d="M98.67,-44.43C98.22,-36.11 98.66,-26.93 100,-20.3"/>
<polygon fill="#63b8ff" stroke="#63b8ff" points="95.17,-44.57 99.81,-54.09 102.12,-43.75 95.17,-44.57"/>
</a>
</g>
</g>
<!-- Node4&#45;&gt;Node2 -->
<g id="edge4_Node000004_Node000002" class="edge">
<title>Node4&#45;&gt;Node2</title>
<g id="a_edge4_Node000004_Node000002"><a xlink:title=" ">
<path fill="none" stroke="#63b8ff" d="M111.84,-31.73C112.27,-39.96 111.83,-49.01 110.52,-55.59"/>
<polygon fill="#63b8ff" stroke="#63b8ff" points="115.31,-31.33 110.67,-21.8 108.36,-32.14 115.31,-31.33"/>
</a>
</g>
</g>
</g>
</svg>
