<?xml version="1.0" encoding="UTF-8" standalone="no"?>
<!DOCTYPE svg PUBLIC "-//W3C//DTD SVG 1.1//EN"
 "http://www.w3.org/Graphics/SVG/1.1/DTD/svg11.dtd">
<!-- Generated by graphviz version 2.38.0 (20140413.2041)
 -->
<!-- Title: help_printer.hpp Pages: 1 -->
<svg width="1040pt" height="364pt"
 viewBox="0.00 0.00 1040.00 364.00" xmlns="http://www.w3.org/2000/svg" xmlns:xlink="http://www.w3.org/1999/xlink">
<g id="graph0" class="graph" transform="scale(1 1) rotate(0) translate(4 360)">
<title>help_printer.hpp</title>
<!-- Node1 -->
<g id="node1" class="node"><title>Node1</title>
<polygon fill="#bfbfbf" stroke="black" points="410.5,-336.5 410.5,-355.5 495.5,-355.5 495.5,-336.5 410.5,-336.5"/>
<text text-anchor="middle" x="453" y="-343.5" font-family="FreeSans" font-size="10.00">help_printer.hpp</text>
</g>
<!-- Node2 -->
<g id="node2" class="node"><title>Node2</title>
<polygon fill="none" stroke="#bfbfbf" points="92.5,-0.5 92.5,-19.5 135.5,-19.5 135.5,-0.5 92.5,-0.5"/>
<text text-anchor="middle" x="114" y="-7.5" font-family="FreeSans" font-size="10.00">vector</text>
</g>
<!-- Node1&#45;&gt;Node2 -->
<g id="edge1" class="edge"><title>Node1&#45;&gt;Node2</title>
<path fill="none" stroke="midnightblue" d="M410.448,-344.059C320.998,-341.461 116.712,-332.091 56,-300 22.2882,-282.18 0,-273.132 0,-235 0,-235 0,-235 0,-121 0,-74.1149 50.5515,-40.8944 84.3292,-23.9302"/>
<polygon fill="midnightblue" stroke="midnightblue" points="85.8676,-27.0742 93.3555,-19.5787 82.8277,-20.7687 85.8676,-27.0742"/>
</g>
<!-- Node3 -->
<g id="node3" class="node"><title>Node3</title>
<polygon fill="none" stroke="#bfbfbf" points="142,-56.5 142,-75.5 198,-75.5 198,-56.5 142,-56.5"/>
<text text-anchor="middle" x="170" y="-63.5" font-family="FreeSans" font-size="10.00">algorithm</text>
</g>
<!-- Node1&#45;&gt;Node3 -->
<g id="edge2" class="edge"><title>Node1&#45;&gt;Node3</title>
<path fill="none" stroke="midnightblue" d="M410.299,-343.522C327.148,-340.022 146.929,-329.213 93,-300 59.7253,-281.975 38,-272.843 38,-235 38,-235 38,-235 38,-177 38,-126.812 95.0117,-95.081 134.099,-79.2238"/>
<polygon fill="midnightblue" stroke="midnightblue" points="135.55,-82.4151 143.605,-75.5327 133.016,-75.8898 135.55,-82.4151"/>
</g>
<!-- Node4 -->
<g id="node4" class="node"><title>Node4</title>
<polygon fill="none" stroke="#bfbfbf" points="102.5,-280.5 102.5,-299.5 161.5,-299.5 161.5,-280.5 102.5,-280.5"/>
<text text-anchor="middle" x="132" y="-287.5" font-family="FreeSans" font-size="10.00">functional</text>
</g>
<!-- Node1&#45;&gt;Node4 -->
<g id="edge3" class="edge"><title>Node1&#45;&gt;Node4</title>
<path fill="none" stroke="midnightblue" d="M410.199,-338.6C355.696,-330.323 258.664,-315.162 176,-300 174.562,-299.736 173.099,-299.463 171.621,-299.183"/>
<polygon fill="midnightblue" stroke="midnightblue" points="172.275,-295.744 161.79,-297.264 170.935,-302.615 172.275,-295.744"/>
</g>
<!-- Node5 -->
<g id="node5" class="node"><title>Node5</title>
<g id="a_node5"><a xlink:href="utils_8hpp.html" target="_top" xlink:title="utils.hpp">
<polygon fill="none" stroke="black" points="599,-112.5 599,-131.5 651,-131.5 651,-112.5 599,-112.5"/>
<text text-anchor="middle" x="625" y="-119.5" font-family="FreeSans" font-size="10.00">utils.hpp</text>
</a>
</g>
</g>
<!-- Node1&#45;&gt;Node5 -->
<g id="edge4" class="edge"><title>Node1&#45;&gt;Node5</title>
<path fill="none" stroke="midnightblue" d="M495.699,-342.073C597.445,-334.1 849.348,-308.146 898,-244 928.171,-204.221 874.596,-242.751 739,-188 723.097,-181.579 720.832,-176.61 706,-168 687.276,-157.13 665.852,-145.252 649.742,-136.43"/>
<polygon fill="midnightblue" stroke="midnightblue" points="651.385,-133.34 640.931,-131.62 648.031,-139.484 651.385,-133.34"/>
</g>
<!-- Node7 -->
<g id="node7" class="node"><title>Node7</title>
<g id="a_node7"><a xlink:href="types_8hpp.html" target="_top" xlink:title="types.hpp">
<polygon fill="none" stroke="black" points="681.5,-56.5 681.5,-75.5 738.5,-75.5 738.5,-56.5 681.5,-56.5"/>
<text text-anchor="middle" x="710" y="-63.5" font-family="FreeSans" font-size="10.00">types.hpp</text>
</a>
</g>
</g>
<!-- Node1&#45;&gt;Node7 -->
<g id="edge46" class="edge"><title>Node1&#45;&gt;Node7</title>
<path fill="none" stroke="midnightblue" d="M495.575,-341.427C629.288,-329.641 1032,-289.613 1032,-235 1032,-235 1032,-235 1032,-177 1032,-140.553 1013.27,-130.724 982,-112 943.392,-88.8821 814.758,-75.4473 749.174,-69.943"/>
<polygon fill="midnightblue" stroke="midnightblue" points="749.086,-66.4242 738.834,-69.0972 748.515,-73.4009 749.086,-66.4242"/>
</g>
<!-- Node11 -->
<g id="node11" class="node"><title>Node11</title>
<g id="a_node11"><a xlink:href="exceptions_8hpp.html" target="_top" xlink:title="exceptions.hpp">
<polygon fill="none" stroke="black" points="188,-112.5 188,-131.5 268,-131.5 268,-112.5 188,-112.5"/>
<text text-anchor="middle" x="228" y="-119.5" font-family="FreeSans" font-size="10.00">exceptions.hpp</text>
</a>
</g>
</g>
<!-- Node1&#45;&gt;Node11 -->
<g id="edge12" class="edge"><title>Node1&#45;&gt;Node11</title>
<path fill="none" stroke="midnightblue" d="M428.932,-336.487C380.974,-318.062 274.381,-269.456 231,-188 223.45,-173.823 223.361,-155.342 224.775,-141.712"/>
<polygon fill="midnightblue" stroke="midnightblue" points="228.269,-141.992 226.184,-131.605 221.336,-141.025 228.269,-141.992"/>
</g>
<!-- Node13 -->
<g id="node13" class="node"><title>Node13</title>
<g id="a_node13"><a xlink:href="group__iface_8hpp.html" target="_top" xlink:title="group_iface.hpp">
<polygon fill="none" stroke="black" points="410.5,-224.5 410.5,-243.5 495.5,-243.5 495.5,-224.5 410.5,-224.5"/>
<text text-anchor="middle" x="453" y="-231.5" font-family="FreeSans" font-size="10.00">group_iface.hpp</text>
</a>
</g>
</g>
<!-- Node1&#45;&gt;Node13 -->
<g id="edge15" class="edge"><title>Node1&#45;&gt;Node13</title>
<path fill="none" stroke="midnightblue" d="M455.482,-336.467C457.957,-327.485 461.585,-312.888 463,-300 464.715,-284.375 461.693,-266.757 458.534,-253.809"/>
<polygon fill="midnightblue" stroke="midnightblue" points="461.818,-252.545 455.837,-243.799 455.059,-254.366 461.818,-252.545"/>
</g>
<!-- Node18 -->
<g id="node18" class="node"><title>Node18</title>
<g id="a_node18"><a xlink:href="groups_8hpp.html" target="_top" xlink:title="groups.hpp">
<polygon fill="none" stroke="black" points="391.5,-280.5 391.5,-299.5 454.5,-299.5 454.5,-280.5 391.5,-280.5"/>
<text text-anchor="middle" x="423" y="-287.5" font-family="FreeSans" font-size="10.00">groups.hpp</text>
</a>
</g>
</g>
<!-- Node1&#45;&gt;Node18 -->
<g id="edge28" class="edge"><title>Node1&#45;&gt;Node18</title>
<path fill="none" stroke="midnightblue" d="M448.046,-336.083C443.896,-328.613 437.847,-317.724 432.733,-308.52"/>
<polygon fill="midnightblue" stroke="midnightblue" points="435.778,-306.793 427.862,-299.751 429.659,-310.192 435.778,-306.793"/>
</g>
<!-- Node19 -->
<g id="node19" class="node"><title>Node19</title>
<g id="a_node19"><a xlink:href="command_8hpp.html" target="_top" xlink:title="command.hpp">
<polygon fill="none" stroke="black" points="567.5,-280.5 567.5,-299.5 644.5,-299.5 644.5,-280.5 567.5,-280.5"/>
<text text-anchor="middle" x="606" y="-287.5" font-family="FreeSans" font-size="10.00">command.hpp</text>
</a>
</g>
</g>
<!-- Node1&#45;&gt;Node19 -->
<g id="edge32" class="edge"><title>Node1&#45;&gt;Node19</title>
<path fill="none" stroke="midnightblue" d="M477.243,-336.444C502.871,-327.399 543.485,-313.064 572.238,-302.916"/>
<polygon fill="midnightblue" stroke="midnightblue" points="573.605,-306.145 581.87,-299.516 571.275,-299.544 573.605,-306.145"/>
</g>
<!-- Node22 -->
<g id="node22" class="node"><title>Node22</title>
<g id="a_node22"><a xlink:href="help__printer__iface_8hpp.html" target="_top" xlink:title="help_printer_iface.hpp">
<polygon fill="none" stroke="black" points="778.5,-224.5 778.5,-243.5 889.5,-243.5 889.5,-224.5 778.5,-224.5"/>
<text text-anchor="middle" x="834" y="-231.5" font-family="FreeSans" font-size="10.00">help_printer_iface.hpp</text>
</a>
</g>
</g>
<!-- Node1&#45;&gt;Node22 -->
<g id="edge47" class="edge"><title>Node1&#45;&gt;Node22</title>
<path fill="none" stroke="midnightblue" d="M495.525,-337.017C536.28,-328.995 599.347,-315.605 653,-300 706.774,-284.36 767.783,-261.311 803.462,-247.276"/>
<polygon fill="midnightblue" stroke="midnightblue" points="804.816,-250.504 812.827,-243.57 802.241,-243.995 804.816,-250.504"/>
</g>
<!-- Node5&#45;&gt;Node3 -->
<g id="edge10" class="edge"><title>Node5&#45;&gt;Node3</title>
<path fill="none" stroke="midnightblue" d="M598.908,-119.387C534.314,-115.142 361.669,-102.253 208.276,-76.0119"/>
<polygon fill="midnightblue" stroke="midnightblue" points="208.653,-72.525 198.201,-74.2641 207.456,-79.422 208.653,-72.525"/>
</g>
<!-- Node6 -->
<g id="node6" class="node"><title>Node6</title>
<polygon fill="none" stroke="#bfbfbf" points="605,-56.5 605,-75.5 645,-75.5 645,-56.5 605,-56.5"/>
<text text-anchor="middle" x="625" y="-63.5" font-family="FreeSans" font-size="10.00">regex</text>
</g>
<!-- Node5&#45;&gt;Node6 -->
<g id="edge5" class="edge"><title>Node5&#45;&gt;Node6</title>
<path fill="none" stroke="midnightblue" d="M625,-112.083C625,-105.006 625,-94.8611 625,-85.9865"/>
<polygon fill="midnightblue" stroke="midnightblue" points="628.5,-85.751 625,-75.7511 621.5,-85.7511 628.5,-85.751"/>
</g>
<!-- Node5&#45;&gt;Node7 -->
<g id="edge6" class="edge"><title>Node5&#45;&gt;Node7</title>
<path fill="none" stroke="midnightblue" d="M638.657,-112.324C651.916,-103.9 672.268,-90.9709 687.846,-81.0741"/>
<polygon fill="midnightblue" stroke="midnightblue" points="689.813,-83.9711 696.377,-75.6545 686.06,-78.0626 689.813,-83.9711"/>
</g>
<!-- Node10 -->
<g id="node10" class="node"><title>Node10</title>
<polygon fill="none" stroke="#bfbfbf" points="464.5,-56.5 464.5,-75.5 525.5,-75.5 525.5,-56.5 464.5,-56.5"/>
<text text-anchor="middle" x="495" y="-63.5" font-family="FreeSans" font-size="10.00">type_traits</text>
</g>
<!-- Node5&#45;&gt;Node10 -->
<g id="edge11" class="edge"><title>Node5&#45;&gt;Node10</title>
<path fill="none" stroke="midnightblue" d="M604.401,-112.444C583.007,-103.557 549.319,-89.5632 524.976,-79.4514"/>
<polygon fill="midnightblue" stroke="midnightblue" points="526.08,-76.1203 515.503,-75.5164 523.395,-82.5848 526.08,-76.1203"/>
</g>
<!-- Node7&#45;&gt;Node2 -->
<g id="edge9" class="edge"><title>Node7&#45;&gt;Node2</title>
<path fill="none" stroke="midnightblue" d="M681.283,-59.9539C672.542,-58.5343 662.895,-57.0838 654,-56 461.655,-32.5639 229.257,-17.7096 145.771,-12.7989"/>
<polygon fill="midnightblue" stroke="midnightblue" points="145.853,-9.29786 135.667,-12.2106 145.446,-16.286 145.853,-9.29786"/>
</g>
<!-- Node8 -->
<g id="node8" class="node"><title>Node8</title>
<polygon fill="none" stroke="#bfbfbf" points="657,-0.5 657,-19.5 697,-19.5 697,-0.5 657,-0.5"/>
<text text-anchor="middle" x="677" y="-7.5" font-family="FreeSans" font-size="10.00">string</text>
</g>
<!-- Node7&#45;&gt;Node8 -->
<g id="edge7" class="edge"><title>Node7&#45;&gt;Node8</title>
<path fill="none" stroke="midnightblue" d="M704.551,-56.083C699.986,-48.6127 693.332,-37.7244 687.707,-28.5199"/>
<polygon fill="midnightblue" stroke="midnightblue" points="690.549,-26.4588 682.348,-19.7511 684.576,-30.109 690.549,-26.4588"/>
</g>
<!-- Node9 -->
<g id="node9" class="node"><title>Node9</title>
<polygon fill="none" stroke="#bfbfbf" points="715.5,-0.5 715.5,-19.5 768.5,-19.5 768.5,-0.5 715.5,-0.5"/>
<text text-anchor="middle" x="742" y="-7.5" font-family="FreeSans" font-size="10.00">iostream</text>
</g>
<!-- Node7&#45;&gt;Node9 -->
<g id="edge8" class="edge"><title>Node7&#45;&gt;Node9</title>
<path fill="none" stroke="midnightblue" d="M715.284,-56.083C719.711,-48.6127 726.163,-37.7244 731.618,-28.5199"/>
<polygon fill="midnightblue" stroke="midnightblue" points="734.727,-30.1383 736.814,-19.7511 728.705,-26.5697 734.727,-30.1383"/>
</g>
<!-- Node11&#45;&gt;Node7 -->
<g id="edge14" class="edge"><title>Node11&#45;&gt;Node7</title>
<path fill="none" stroke="midnightblue" d="M268.023,-117.5C343.604,-110.73 512.458,-94.8357 654,-76 659.552,-75.2612 665.4,-74.4065 671.14,-73.5238"/>
<polygon fill="midnightblue" stroke="midnightblue" points="671.936,-76.9416 681.267,-71.9237 670.844,-70.0273 671.936,-76.9416"/>
</g>
<!-- Node12 -->
<g id="node12" class="node"><title>Node12</title>
<polygon fill="none" stroke="#bfbfbf" points="216,-56.5 216,-75.5 274,-75.5 274,-56.5 216,-56.5"/>
<text text-anchor="middle" x="245" y="-63.5" font-family="FreeSans" font-size="10.00">stdexcept</text>
</g>
<!-- Node11&#45;&gt;Node12 -->
<g id="edge13" class="edge"><title>Node11&#45;&gt;Node12</title>
<path fill="none" stroke="midnightblue" d="M230.807,-112.083C233.085,-104.849 236.371,-94.4087 239.208,-85.3968"/>
<polygon fill="midnightblue" stroke="midnightblue" points="242.581,-86.3406 242.245,-75.7511 235.904,-84.2385 242.581,-86.3406"/>
</g>
<!-- Node13&#45;&gt;Node2 -->
<g id="edge23" class="edge"><title>Node13&#45;&gt;Node2</title>
<path fill="none" stroke="midnightblue" d="M410.252,-229.742C347.048,-224.216 232.524,-211.272 199,-188 144.184,-149.947 123.5,-66.5989 116.8,-29.4742"/>
<polygon fill="midnightblue" stroke="midnightblue" points="120.24,-28.8283 115.147,-19.5381 113.335,-29.9769 120.24,-28.8283"/>
</g>
<!-- Node13&#45;&gt;Node3 -->
<g id="edge25" class="edge"><title>Node13&#45;&gt;Node3</title>
<path fill="none" stroke="midnightblue" d="M410.241,-232.018C363.456,-229.262 287.592,-219.745 231,-188 201.378,-171.384 193.558,-162.686 179,-132 172.133,-117.526 170.095,-99.3398 169.652,-85.8874"/>
<polygon fill="midnightblue" stroke="midnightblue" points="173.152,-85.8624 169.585,-75.8862 166.152,-85.9096 173.152,-85.8624"/>
</g>
<!-- Node13&#45;&gt;Node5 -->
<g id="edge20" class="edge"><title>Node13&#45;&gt;Node5</title>
<path fill="none" stroke="midnightblue" d="M461.724,-224.14C475.236,-210.756 502.447,-185.13 529,-168 549.152,-154.999 573.658,-143.576 592.866,-135.492"/>
<polygon fill="midnightblue" stroke="midnightblue" points="594.461,-138.62 602.377,-131.578 591.797,-132.147 594.461,-138.62"/>
</g>
<!-- Node13&#45;&gt;Node7 -->
<g id="edge22" class="edge"><title>Node13&#45;&gt;Node7</title>
<path fill="none" stroke="midnightblue" d="M457.708,-224.161C465.14,-210.803 480.647,-185.211 499,-168 549.263,-120.865 625.584,-91.844 671.344,-77.6306"/>
<polygon fill="midnightblue" stroke="midnightblue" points="672.618,-80.902 681.178,-74.6583 670.593,-74.2013 672.618,-80.902"/>
</g>
<!-- Node13&#45;&gt;Node10 -->
<g id="edge24" class="edge"><title>Node13&#45;&gt;Node10</title>
<path fill="none" stroke="midnightblue" d="M451.551,-224.416C448.496,-204.076 442.851,-151.677 458,-112 462.167,-101.086 470.105,-90.8607 477.564,-82.9235"/>
<polygon fill="midnightblue" stroke="midnightblue" points="480.091,-85.3461 484.705,-75.8086 475.151,-80.3872 480.091,-85.3461"/>
</g>
<!-- Node13&#45;&gt;Node11 -->
<g id="edge21" class="edge"><title>Node13&#45;&gt;Node11</title>
<path fill="none" stroke="midnightblue" d="M410.301,-228.794C357.085,-222.707 270.287,-209.726 247,-188 234.383,-176.229 229.988,-156.591 228.534,-141.975"/>
<polygon fill="midnightblue" stroke="midnightblue" points="232.002,-141.343 227.898,-131.576 225.016,-141.771 232.002,-141.343"/>
</g>
<!-- Node14 -->
<g id="node14" class="node"><title>Node14</title>
<g id="a_node14"><a xlink:href="arg__iface_8hpp.html" target="_top" xlink:title="arg_iface.hpp">
<polygon fill="none" stroke="black" points="748,-168.5 748,-187.5 822,-187.5 822,-168.5 748,-168.5"/>
<text text-anchor="middle" x="785" y="-175.5" font-family="FreeSans" font-size="10.00">arg_iface.hpp</text>
</a>
</g>
</g>
<!-- Node13&#45;&gt;Node14 -->
<g id="edge16" class="edge"><title>Node13&#45;&gt;Node14</title>
<path fill="none" stroke="midnightblue" d="M495.724,-226.051C557.897,-215.938 672.926,-197.229 737.623,-186.706"/>
<polygon fill="midnightblue" stroke="midnightblue" points="738.25,-190.15 747.558,-185.09 737.126,-183.241 738.25,-190.15"/>
</g>
<!-- Node16 -->
<g id="node16" class="node"><title>Node16</title>
<polygon fill="none" stroke="#bfbfbf" points="538.5,-168.5 538.5,-187.5 577.5,-187.5 577.5,-168.5 538.5,-168.5"/>
<text text-anchor="middle" x="558" y="-175.5" font-family="FreeSans" font-size="10.00">utility</text>
</g>
<!-- Node13&#45;&gt;Node16 -->
<g id="edge26" class="edge"><title>Node13&#45;&gt;Node16</title>
<path fill="none" stroke="midnightblue" d="M469.87,-224.324C486.709,-215.664 512.807,-202.242 532.238,-192.249"/>
<polygon fill="midnightblue" stroke="midnightblue" points="533.88,-195.341 541.172,-187.655 530.678,-189.116 533.88,-195.341"/>
</g>
<!-- Node17 -->
<g id="node17" class="node"><title>Node17</title>
<polygon fill="none" stroke="#bfbfbf" points="354.5,-168.5 354.5,-187.5 405.5,-187.5 405.5,-168.5 354.5,-168.5"/>
<text text-anchor="middle" x="380" y="-175.5" font-family="FreeSans" font-size="10.00">memory</text>
</g>
<!-- Node13&#45;&gt;Node17 -->
<g id="edge27" class="edge"><title>Node13&#45;&gt;Node17</title>
<path fill="none" stroke="midnightblue" d="M441.271,-224.324C430.163,-216.107 413.258,-203.602 400.017,-193.807"/>
<polygon fill="midnightblue" stroke="midnightblue" points="402.063,-190.967 391.942,-187.834 397.9,-196.595 402.063,-190.967"/>
</g>
<!-- Node14&#45;&gt;Node5 -->
<g id="edge17" class="edge"><title>Node14&#45;&gt;Node5</title>
<path fill="none" stroke="midnightblue" d="M759.648,-168.444C732.731,-159.359 690.004,-144.939 659.913,-134.783"/>
<polygon fill="midnightblue" stroke="midnightblue" points="660.828,-131.398 650.234,-131.516 658.59,-138.031 660.828,-131.398"/>
</g>
<!-- Node14&#45;&gt;Node7 -->
<g id="edge18" class="edge"><title>Node14&#45;&gt;Node7</title>
<path fill="none" stroke="midnightblue" d="M779.115,-168.368C766.738,-150.215 737.819,-107.802 721.584,-83.9902"/>
<polygon fill="midnightblue" stroke="midnightblue" points="724.383,-81.882 715.858,-75.5914 718.599,-85.8254 724.383,-81.882"/>
</g>
<!-- Node15 -->
<g id="node15" class="node"><title>Node15</title>
<g id="a_node15"><a xlink:href="enums_8hpp.html" target="_top" xlink:title="enums.hpp">
<polygon fill="none" stroke="black" points="894.5,-112.5 894.5,-131.5 957.5,-131.5 957.5,-112.5 894.5,-112.5"/>
<text text-anchor="middle" x="926" y="-119.5" font-family="FreeSans" font-size="10.00">enums.hpp</text>
</a>
</g>
</g>
<!-- Node14&#45;&gt;Node15 -->
<g id="edge19" class="edge"><title>Node14&#45;&gt;Node15</title>
<path fill="none" stroke="midnightblue" d="M807.342,-168.444C830.753,-159.478 867.736,-145.314 894.19,-135.183"/>
<polygon fill="midnightblue" stroke="midnightblue" points="895.676,-138.361 903.763,-131.516 893.172,-131.824 895.676,-138.361"/>
</g>
<!-- Node18&#45;&gt;Node3 -->
<g id="edge31" class="edge"><title>Node18&#45;&gt;Node3</title>
<path fill="none" stroke="midnightblue" d="M391.117,-281.644C344.039,-269.371 255.428,-240.704 199,-188 178.365,-168.727 175.873,-159.386 169,-132 166.836,-123.379 168.901,-120.888 169,-112 169.096,-103.396 169.294,-93.8686 169.489,-85.8037"/>
<polygon fill="midnightblue" stroke="midnightblue" points="172.992,-85.7128 169.751,-75.6259 165.995,-85.5323 172.992,-85.7128"/>
</g>
<!-- Node18&#45;&gt;Node7 -->
<g id="edge30" class="edge"><title>Node18&#45;&gt;Node7</title>
<path fill="none" stroke="midnightblue" d="M454.807,-286.345C508.132,-281.375 618.612,-268.849 709,-244 717.077,-241.779 844.304,-194.937 849,-188 864.473,-165.146 836.633,-123.268 825,-112 804.156,-91.8107 773.206,-80.3909 748.663,-74.1111"/>
<polygon fill="midnightblue" stroke="midnightblue" points="749.465,-70.7043 738.927,-71.7987 747.847,-77.5148 749.465,-70.7043"/>
</g>
<!-- Node18&#45;&gt;Node13 -->
<g id="edge29" class="edge"><title>Node18&#45;&gt;Node13</title>
<path fill="none" stroke="midnightblue" d="M427.954,-280.083C432.104,-272.613 438.153,-261.724 443.267,-252.52"/>
<polygon fill="midnightblue" stroke="midnightblue" points="446.341,-254.192 448.138,-243.751 440.222,-250.793 446.341,-254.192"/>
</g>
<!-- Node19&#45;&gt;Node5 -->
<g id="edge34" class="edge"><title>Node19&#45;&gt;Node5</title>
<path fill="none" stroke="midnightblue" d="M607.022,-280.075C610.012,-253.945 618.795,-177.211 622.874,-141.577"/>
<polygon fill="midnightblue" stroke="midnightblue" points="626.359,-141.901 624.019,-131.568 619.405,-141.105 626.359,-141.901"/>
</g>
<!-- Node19&#45;&gt;Node7 -->
<g id="edge45" class="edge"><title>Node19&#45;&gt;Node7</title>
<path fill="none" stroke="midnightblue" d="M644.629,-288.145C718.854,-285.765 877.802,-276.867 920,-244 962.455,-210.934 955.581,-184.794 966,-132 967.721,-123.279 971.715,-118.808 966,-112 938.721,-79.5073 813.405,-70.4693 748.785,-67.9606"/>
<polygon fill="midnightblue" stroke="midnightblue" points="748.703,-64.4555 738.585,-67.5994 748.455,-71.4512 748.703,-64.4555"/>
</g>
<!-- Node19&#45;&gt;Node13 -->
<g id="edge33" class="edge"><title>Node19&#45;&gt;Node13</title>
<path fill="none" stroke="midnightblue" d="M581.757,-280.444C556.129,-271.399 515.515,-257.064 486.762,-246.916"/>
<polygon fill="midnightblue" stroke="midnightblue" points="487.725,-243.544 477.13,-243.516 485.395,-250.145 487.725,-243.544"/>
</g>
<!-- Node19&#45;&gt;Node15 -->
<g id="edge44" class="edge"><title>Node19&#45;&gt;Node15</title>
<path fill="none" stroke="midnightblue" d="M644.582,-288.258C715.323,-286.084 861.862,-277.542 898,-244 926.486,-217.56 928.739,-168.366 927.579,-141.568"/>
<polygon fill="midnightblue" stroke="midnightblue" points="931.071,-141.342 926.939,-131.586 924.086,-141.79 931.071,-141.342"/>
</g>
<!-- Node20 -->
<g id="node20" class="node"><title>Node20</title>
<g id="a_node20"><a xlink:href="context_8hpp.html" target="_top" xlink:title="context.hpp">
<polygon fill="none" stroke="black" points="634,-224.5 634,-243.5 700,-243.5 700,-224.5 634,-224.5"/>
<text text-anchor="middle" x="667" y="-231.5" font-family="FreeSans" font-size="10.00">context.hpp</text>
</a>
</g>
</g>
<!-- Node19&#45;&gt;Node20 -->
<g id="edge35" class="edge"><title>Node19&#45;&gt;Node20</title>
<path fill="none" stroke="midnightblue" d="M615.801,-280.324C624.818,-272.341 638.406,-260.313 649.318,-250.653"/>
<polygon fill="midnightblue" stroke="midnightblue" points="651.853,-253.083 657.021,-243.834 647.213,-247.842 651.853,-253.083"/>
</g>
<!-- Node21 -->
<g id="node21" class="node"><title>Node21</title>
<g id="a_node21"><a xlink:href="value__utils_8hpp.html" target="_top" xlink:title="value_utils.hpp">
<polygon fill="none" stroke="black" points="256,-168.5 256,-187.5 336,-187.5 336,-168.5 256,-168.5"/>
<text text-anchor="middle" x="296" y="-175.5" font-family="FreeSans" font-size="10.00">value_utils.hpp</text>
</a>
</g>
</g>
<!-- Node19&#45;&gt;Node21 -->
<g id="edge39" class="edge"><title>Node19&#45;&gt;Node21</title>
<path fill="none" stroke="midnightblue" d="M567.443,-284.495C525.354,-278.68 456.548,-266.522 401,-244 368.809,-230.948 335.306,-208.38 315.046,-193.57"/>
<polygon fill="midnightblue" stroke="midnightblue" points="317.082,-190.722 306.969,-187.561 312.903,-196.338 317.082,-190.722"/>
</g>
<!-- Node20&#45;&gt;Node5 -->
<g id="edge37" class="edge"><title>Node20&#45;&gt;Node5</title>
<path fill="none" stroke="midnightblue" d="M663.704,-224.368C656.865,-206.456 641.007,-164.923 631.853,-140.948"/>
<polygon fill="midnightblue" stroke="midnightblue" points="635.117,-139.685 628.28,-131.591 628.578,-142.182 635.117,-139.685"/>
</g>
<!-- Node20&#45;&gt;Node7 -->
<g id="edge38" class="edge"><title>Node20&#45;&gt;Node7</title>
<path fill="none" stroke="midnightblue" d="M700.054,-228.67C743.23,-222.259 815.201,-208.719 831,-188 864.3,-144.332 786.421,-100.638 740.56,-79.7246"/>
<polygon fill="midnightblue" stroke="midnightblue" points="741.871,-76.4773 731.311,-75.6158 739.029,-82.8744 741.871,-76.4773"/>
</g>
<!-- Node20&#45;&gt;Node16 -->
<g id="edge36" class="edge"><title>Node20&#45;&gt;Node16</title>
<path fill="none" stroke="midnightblue" d="M649.487,-224.324C631.928,-215.625 604.669,-202.12 584.469,-192.113"/>
<polygon fill="midnightblue" stroke="midnightblue" points="585.984,-188.958 575.469,-187.655 582.876,-195.23 585.984,-188.958"/>
</g>
<!-- Node21&#45;&gt;Node3 -->
<g id="edge43" class="edge"><title>Node21&#45;&gt;Node3</title>
<path fill="none" stroke="midnightblue" d="M295.754,-168.298C294.917,-154.659 291.403,-128.141 277,-112 267.231,-101.052 233.956,-87.999 207.076,-78.7779"/>
<polygon fill="midnightblue" stroke="midnightblue" points="208.112,-75.4337 197.518,-75.565 205.881,-82.0688 208.112,-75.4337"/>
</g>
<!-- Node21&#45;&gt;Node5 -->
<g id="edge40" class="edge"><title>Node21&#45;&gt;Node5</title>
<path fill="none" stroke="midnightblue" d="M336.098,-169.56C339.109,-169.024 342.102,-168.499 345,-168 432.338,-152.963 535.285,-136.824 588.712,-128.567"/>
<polygon fill="midnightblue" stroke="midnightblue" points="589.368,-132.008 598.718,-127.024 588.301,-125.09 589.368,-132.008"/>
</g>
<!-- Node21&#45;&gt;Node7 -->
<g id="edge42" class="edge"><title>Node21&#45;&gt;Node7</title>
<path fill="none" stroke="midnightblue" d="M314.035,-168.339C343.505,-154.513 404.107,-127.447 458,-112 478.175,-106.217 605.779,-84.4681 671.29,-73.4631"/>
<polygon fill="midnightblue" stroke="midnightblue" points="671.962,-76.8994 681.245,-71.7932 670.804,-69.9959 671.962,-76.8994"/>
</g>
<!-- Node21&#45;&gt;Node11 -->
<g id="edge41" class="edge"><title>Node21&#45;&gt;Node11</title>
<path fill="none" stroke="midnightblue" d="M285.075,-168.324C274.825,-160.185 259.279,-147.839 246.999,-138.087"/>
<polygon fill="midnightblue" stroke="midnightblue" points="249.132,-135.312 239.124,-131.834 244.779,-140.794 249.132,-135.312"/>
</g>
<!-- Node22&#45;&gt;Node5 -->
<g id="edge48" class="edge"><title>Node22&#45;&gt;Node5</title>
<path fill="none" stroke="midnightblue" d="M800.062,-224.467C773.468,-216.991 736.062,-204.703 706,-188 681.531,-174.404 656.95,-153.393 641.393,-138.961"/>
<polygon fill="midnightblue" stroke="midnightblue" points="643.403,-136.044 633.736,-131.709 638.589,-141.127 643.403,-136.044"/>
</g>
</g>
</svg>
