<?xml version="1.0" encoding="UTF-8" standalone="no"?>
<!DOCTYPE svg PUBLIC "-//W3C//DTD SVG 1.1//EN"
 "http://www.w3.org/Graphics/SVG/1.1/DTD/svg11.dtd">
<!-- Generated by graphviz version 2.43.0 (0)
 -->
<!-- Title: help_printer.hpp Pages: 1 -->
<!--zoomable 577 -->
<svg id="main" version="1.1" xmlns="http://www.w3.org/2000/svg" xmlns:xlink="http://www.w3.org/1999/xlink" xml:space="preserve" onload="init(evt)">
<style type="text/css"><![CDATA[
.edge:hover path { stroke: red; }
.edge:hover polygon { stroke: red; fill: red; }
]]></style>
<script type="text/javascript"><![CDATA[
var edges = document.getElementsByTagName('g');
if (edges && edges.length) {
  for (var i=0;i<edges.length;i++) {
    if (edges[i].id.substr(0,4)=='edge') {
      edges[i].setAttribute('class','edge');
    }
  }
}
]]></script>
        <defs>
                <circle id="rim" cx="0" cy="0" r="7"/>
                <circle id="rim2" cx="0" cy="0" r="3.5"/>
                <g id="zoomPlus">
                        <use xlink:href="#rim" fill="#404040">
                                <set attributeName="fill" to="#808080" begin="zoomplus.mouseover" end="zoomplus.mouseout"/>
                        </use>
                        <path d="M-4,0h8M0,-4v8" fill="none" stroke="white" stroke-width="1.5" pointer-events="none"/>
                </g>
                <g id="zoomMin">
                        <use xlink:href="#rim" fill="#404040">
                                <set attributeName="fill" to="#808080" begin="zoomminus.mouseover" end="zoomminus.mouseout"/>
                        </use>
                        <path d="M-4,0h8" fill="none" stroke="white" stroke-width="1.5" pointer-events="none"/>
                </g>
                <g id="dirArrow">
                        <path fill="none" stroke="white" stroke-width="1.5" d="M0,-3.0v7 M-2.5,-0.5L0,-3.0L2.5,-0.5"/>
                </g>
               <g id="resetDef">
                       <use xlink:href="#rim2" fill="#404040">
                               <set attributeName="fill" to="#808080" begin="reset.mouseover" end="reset.mouseout"/>
                       </use>
               </g>
        </defs>

<script type="text/javascript">
var viewWidth = 1736;
var viewHeight = 577;
var sectionId = 'dynsection-0';
</script>
<script xlink:href="svgpan.js"/>
<svg id="graph" class="graph">
<g id="viewport">
<title>help_printer.hpp</title>
<!-- Node1 -->
<g id="node1" class="node">
<title>Node1</title>
<g id="a_node1"><a xlink:title=" ">
<polygon fill="#bfbfbf" stroke="black" points="612.5,-569 517.5,-569 517.5,-550 612.5,-550 612.5,-569"/>
<text text-anchor="middle" x="565" y="-557" font-family="Helvetica,sans-Serif" font-size="10.00">help_printer.hpp</text>
</a>
</g>
</g>
<!-- Node2 -->
<g id="node2" class="node">
<title>Node2</title>
<g id="a_node2"><a xlink:title=" ">
<polygon fill="none" stroke="#bfbfbf" points="137.5,-19 90.5,-19 90.5,0 137.5,0 137.5,-19"/>
<text text-anchor="middle" x="114" y="-7" font-family="Helvetica,sans-Serif" font-size="10.00">vector</text>
</a>
</g>
</g>
<!-- Node1&#45;&gt;Node2 -->
<g id="edge1" class="edge">
<title>Node1&#45;&gt;Node2</title>
<path fill="none" stroke="midnightblue" d="M517.38,-557.99C409.64,-556.25 150.38,-548.48 71,-514 32.17,-497.13 0,-492.83 0,-450.5 0,-450.5 0,-450.5 0,-118.5 0,-72.47 49.58,-40.18 83.35,-23.53"/>
<polygon fill="midnightblue" stroke="midnightblue" points="85.28,-26.49 92.82,-19.05 82.29,-20.16 85.28,-26.49"/>
</g>
<!-- Node3 -->
<g id="node3" class="node">
<title>Node3</title>
<g id="a_node3"><a xlink:title=" ">
<polygon fill="none" stroke="#bfbfbf" points="374,-74 310,-74 310,-55 374,-55 374,-74"/>
<text text-anchor="middle" x="342" y="-62" font-family="Helvetica,sans-Serif" font-size="10.00">algorithm</text>
</a>
</g>
</g>
<!-- Node1&#45;&gt;Node3 -->
<g id="edge2" class="edge">
<title>Node1&#45;&gt;Node3</title>
<path fill="none" stroke="midnightblue" d="M517.3,-558.78C387.58,-558.27 38,-547.86 38,-450.5 38,-450.5 38,-450.5 38,-228.5 38,-111.2 215.97,-77.98 299.57,-68.84"/>
<polygon fill="midnightblue" stroke="midnightblue" points="300.16,-72.3 309.75,-67.79 299.45,-65.33 300.16,-72.3"/>
</g>
<!-- Node4 -->
<g id="node4" class="node">
<title>Node4</title>
<g id="a_node4"><a xlink:title=" ">
<polygon fill="none" stroke="#bfbfbf" points="1727.5,-514 1662.5,-514 1662.5,-495 1727.5,-495 1727.5,-514"/>
<text text-anchor="middle" x="1695" y="-502" font-family="Helvetica,sans-Serif" font-size="10.00">functional</text>
</a>
</g>
</g>
<!-- Node1&#45;&gt;Node4 -->
<g id="edge3" class="edge">
<title>Node1&#45;&gt;Node4</title>
<path fill="none" stroke="midnightblue" d="M612.68,-558.88C764.43,-559.59 1249.6,-558 1648,-514 1649.47,-513.84 1650.96,-513.66 1652.46,-513.46"/>
<polygon fill="midnightblue" stroke="midnightblue" points="1653.09,-516.91 1662.47,-511.98 1652.06,-509.98 1653.09,-516.91"/>
</g>
<!-- Node5 -->
<g id="node5" class="node">
<title>Node5</title>
<g id="a_node5"><a xlink:href="utils_8hpp.html" target="_top" xlink:title=" ">
<polygon fill="none" stroke="black" points="543.5,-129 484.5,-129 484.5,-110 543.5,-110 543.5,-129"/>
<text text-anchor="middle" x="514" y="-117" font-family="Helvetica,sans-Serif" font-size="10.00">utils.hpp</text>
</a>
</g>
</g>
<!-- Node1&#45;&gt;Node5 -->
<g id="edge4" class="edge">
<title>Node1&#45;&gt;Node5</title>
<path fill="none" stroke="midnightblue" d="M517.27,-555.91C441.2,-551.1 296.48,-538.9 252,-514 196.64,-483 182.49,-463.7 161,-404 126.14,-307.17 -17.74,-382.64 279,-165 309.48,-142.64 415.47,-129.58 474.15,-123.9"/>
<polygon fill="midnightblue" stroke="midnightblue" points="474.55,-127.37 484.18,-122.95 473.9,-120.41 474.55,-127.37"/>
</g>
<!-- Node6 -->
<g id="node6" class="node">
<title>Node6</title>
<g id="a_node6"><a xlink:href="types_8hpp.html" target="_top" xlink:title=" ">
<polygon fill="none" stroke="black" points="1128.5,-74 1063.5,-74 1063.5,-55 1128.5,-55 1128.5,-74"/>
<text text-anchor="middle" x="1096" y="-62" font-family="Helvetica,sans-Serif" font-size="10.00">types.hpp</text>
</a>
</g>
</g>
<!-- Node1&#45;&gt;Node6 -->
<g id="edge65" class="edge">
<title>Node1&#45;&gt;Node6</title>
<path fill="none" stroke="midnightblue" d="M612.7,-558.91C779.82,-559.94 1337.99,-559.79 1510,-514 1569.83,-498.07 1634,-512.42 1634,-450.5 1634,-450.5 1634,-450.5 1634,-173.5 1634,-72.73 1266.6,-64.76 1139.02,-65.02"/>
<polygon fill="midnightblue" stroke="midnightblue" points="1138.83,-61.52 1128.84,-65.06 1138.86,-68.52 1138.83,-61.52"/>
</g>
<!-- Node10 -->
<g id="node10" class="node">
<title>Node10</title>
<g id="a_node10"><a xlink:href="exceptions_8hpp.html" target="_top" xlink:title=" ">
<polygon fill="none" stroke="black" points="1481.5,-129 1390.5,-129 1390.5,-110 1481.5,-110 1481.5,-129"/>
<text text-anchor="middle" x="1436" y="-117" font-family="Helvetica,sans-Serif" font-size="10.00">exceptions.hpp</text>
</a>
</g>
</g>
<!-- Node1&#45;&gt;Node10 -->
<g id="edge11" class="edge">
<title>Node1&#45;&gt;Node10</title>
<path fill="none" stroke="midnightblue" d="M612.66,-558.58C815.43,-558.3 1596,-550.72 1596,-450.5 1596,-450.5 1596,-450.5 1596,-228.5 1596,-174.53 1532.68,-145.72 1485.71,-131.78"/>
<polygon fill="midnightblue" stroke="midnightblue" points="1486.54,-128.37 1475.96,-129.02 1484.63,-135.11 1486.54,-128.37"/>
</g>
<!-- Node12 -->
<g id="node12" class="node">
<title>Node12</title>
<g id="a_node12"><a xlink:href="group__iface_8hpp.html" target="_top" xlink:title=" ">
<polygon fill="none" stroke="black" points="586.5,-239 491.5,-239 491.5,-220 586.5,-220 586.5,-239"/>
<text text-anchor="middle" x="539" y="-227" font-family="Helvetica,sans-Serif" font-size="10.00">group_iface.hpp</text>
</a>
</g>
</g>
<!-- Node1&#45;&gt;Node12 -->
<g id="edge14" class="edge">
<title>Node1&#45;&gt;Node12</title>
<path fill="none" stroke="midnightblue" d="M544.8,-549.91C530.53,-542.64 512.49,-530.71 504,-514 491.99,-490.38 524.44,-308.56 535.47,-249.19"/>
<polygon fill="midnightblue" stroke="midnightblue" points="538.98,-249.5 537.38,-239.03 532.09,-248.21 538.98,-249.5"/>
</g>
<!-- Node17 -->
<g id="node17" class="node">
<title>Node17</title>
<g id="a_node17"><a xlink:href="groups_8hpp.html" target="_top" xlink:title=" ">
<polygon fill="none" stroke="black" points="517.5,-294 446.5,-294 446.5,-275 517.5,-275 517.5,-294"/>
<text text-anchor="middle" x="482" y="-282" font-family="Helvetica,sans-Serif" font-size="10.00">groups.hpp</text>
</a>
</g>
</g>
<!-- Node1&#45;&gt;Node17 -->
<g id="edge27" class="edge">
<title>Node1&#45;&gt;Node17</title>
<path fill="none" stroke="midnightblue" d="M554.37,-549.93C534.79,-533.11 495,-493.62 495,-450.5 495,-450.5 495,-450.5 495,-393.5 495,-361.96 489.47,-325.62 485.62,-304.15"/>
<polygon fill="midnightblue" stroke="midnightblue" points="489.03,-303.33 483.75,-294.14 482.15,-304.61 489.03,-303.33"/>
</g>
<!-- Node18 -->
<g id="node18" class="node">
<title>Node18</title>
<g id="a_node18"><a xlink:href="command_8hpp.html" target="_top" xlink:title=" ">
<polygon fill="none" stroke="black" points="1014,-404 928,-404 928,-385 1014,-385 1014,-404"/>
<text text-anchor="middle" x="971" y="-392" font-family="Helvetica,sans-Serif" font-size="10.00">command.hpp</text>
</a>
</g>
</g>
<!-- Node1&#45;&gt;Node18 -->
<g id="edge31" class="edge">
<title>Node1&#45;&gt;Node18</title>
<path fill="none" stroke="midnightblue" d="M586.26,-549.97C653.38,-523.02 861.04,-439.65 940.05,-407.92"/>
<polygon fill="midnightblue" stroke="midnightblue" points="941.49,-411.12 949.46,-404.15 938.88,-404.62 941.49,-411.12"/>
</g>
<!-- Node24 -->
<g id="node24" class="node">
<title>Node24</title>
<g id="a_node24"><a xlink:href="help__printer__iface_8hpp.html" target="_top" xlink:title=" ">
<polygon fill="none" stroke="black" points="328.5,-404 203.5,-404 203.5,-385 328.5,-385 328.5,-404"/>
<text text-anchor="middle" x="266" y="-392" font-family="Helvetica,sans-Serif" font-size="10.00">help_printer_iface.hpp</text>
</a>
</g>
</g>
<!-- Node1&#45;&gt;Node24 -->
<g id="edge66" class="edge">
<title>Node1&#45;&gt;Node24</title>
<path fill="none" stroke="midnightblue" d="M517.19,-558.57C441.38,-557.55 298.87,-550.67 267,-514 242.91,-486.28 251.93,-439.61 259.6,-413.88"/>
<polygon fill="midnightblue" stroke="midnightblue" points="262.96,-414.85 262.7,-404.26 256.3,-412.7 262.96,-414.85"/>
</g>
<!-- Node25 -->
<g id="node25" class="node">
<title>Node25</title>
<g id="a_node25"><a xlink:href="cmd__line_8hpp.html" target="_top" xlink:title=" ">
<polygon fill="none" stroke="black" points="663,-514 581,-514 581,-495 663,-495 663,-514"/>
<text text-anchor="middle" x="622" y="-502" font-family="Helvetica,sans-Serif" font-size="10.00">cmd_line.hpp</text>
</a>
</g>
</g>
<!-- Node1&#45;&gt;Node25 -->
<g id="edge68" class="edge">
<title>Node1&#45;&gt;Node25</title>
<path fill="none" stroke="midnightblue" d="M569.25,-549.75C576.09,-541.8 588.55,-529.91 599.78,-520.45"/>
<polygon fill="midnightblue" stroke="midnightblue" points="602.06,-523.1 607.63,-514.09 597.66,-517.66 602.06,-523.1"/>
</g>
<!-- Node5&#45;&gt;Node3 -->
<g id="edge9" class="edge">
<title>Node5&#45;&gt;Node3</title>
<path fill="none" stroke="midnightblue" d="M486.37,-109.98C457.49,-101.09 411.99,-87.07 379.8,-77.15"/>
<polygon fill="midnightblue" stroke="midnightblue" points="380.44,-73.68 369.85,-74.08 378.38,-80.37 380.44,-73.68"/>
</g>
<!-- Node5&#45;&gt;Node6 -->
<g id="edge5" class="edge">
<title>Node5&#45;&gt;Node6</title>
<path fill="none" stroke="midnightblue" d="M543.75,-112.3C548.5,-111.44 553.38,-110.64 558,-110 741.31,-84.79 961.87,-72 1053.19,-67.46"/>
<polygon fill="midnightblue" stroke="midnightblue" points="1053.6,-70.95 1063.42,-66.96 1053.26,-63.96 1053.6,-70.95"/>
</g>
<!-- Node9 -->
<g id="node9" class="node">
<title>Node9</title>
<g id="a_node9"><a xlink:title=" ">
<polygon fill="none" stroke="#bfbfbf" points="519.5,-74 450.5,-74 450.5,-55 519.5,-55 519.5,-74"/>
<text text-anchor="middle" x="485" y="-62" font-family="Helvetica,sans-Serif" font-size="10.00">type_traits</text>
</a>
</g>
</g>
<!-- Node5&#45;&gt;Node9 -->
<g id="edge10" class="edge">
<title>Node5&#45;&gt;Node9</title>
<path fill="none" stroke="midnightblue" d="M509.21,-109.75C505.24,-102.49 499.47,-91.95 494.57,-82.98"/>
<polygon fill="midnightblue" stroke="midnightblue" points="497.57,-81.18 489.7,-74.09 491.43,-84.54 497.57,-81.18"/>
</g>
<!-- Node6&#45;&gt;Node2 -->
<g id="edge8" class="edge">
<title>Node6&#45;&gt;Node2</title>
<path fill="none" stroke="midnightblue" d="M1063.33,-61.74C914.15,-53.69 298.56,-20.46 147.56,-12.31"/>
<polygon fill="midnightblue" stroke="midnightblue" points="147.68,-8.81 137.5,-11.77 147.3,-15.8 147.68,-8.81"/>
</g>
<!-- Node7 -->
<g id="node7" class="node">
<title>Node7</title>
<g id="a_node7"><a xlink:title=" ">
<polygon fill="none" stroke="#bfbfbf" points="1153,-19 1109,-19 1109,0 1153,0 1153,-19"/>
<text text-anchor="middle" x="1131" y="-7" font-family="Helvetica,sans-Serif" font-size="10.00">string</text>
</a>
</g>
</g>
<!-- Node6&#45;&gt;Node7 -->
<g id="edge6" class="edge">
<title>Node6&#45;&gt;Node7</title>
<path fill="none" stroke="midnightblue" d="M1101.78,-54.75C1106.62,-47.42 1113.68,-36.73 1119.64,-27.7"/>
<polygon fill="midnightblue" stroke="midnightblue" points="1122.74,-29.36 1125.33,-19.09 1116.9,-25.5 1122.74,-29.36"/>
</g>
<!-- Node8 -->
<g id="node8" class="node">
<title>Node8</title>
<g id="a_node8"><a xlink:title=" ">
<polygon fill="none" stroke="#bfbfbf" points="1091,-19 1031,-19 1031,0 1091,0 1091,-19"/>
<text text-anchor="middle" x="1061" y="-7" font-family="Helvetica,sans-Serif" font-size="10.00">iostream</text>
</a>
</g>
</g>
<!-- Node6&#45;&gt;Node8 -->
<g id="edge7" class="edge">
<title>Node6&#45;&gt;Node8</title>
<path fill="none" stroke="midnightblue" d="M1090.22,-54.75C1085.38,-47.42 1078.32,-36.73 1072.36,-27.7"/>
<polygon fill="midnightblue" stroke="midnightblue" points="1075.1,-25.5 1066.67,-19.09 1069.26,-29.36 1075.1,-25.5"/>
</g>
<!-- Node10&#45;&gt;Node6 -->
<g id="edge13" class="edge">
<title>Node10&#45;&gt;Node6</title>
<path fill="none" stroke="midnightblue" d="M1390.5,-111.41C1324.51,-101.12 1203.11,-82.2 1138.72,-72.16"/>
<polygon fill="midnightblue" stroke="midnightblue" points="1138.93,-68.65 1128.51,-70.57 1137.85,-75.57 1138.93,-68.65"/>
</g>
<!-- Node11 -->
<g id="node11" class="node">
<title>Node11</title>
<g id="a_node11"><a xlink:title=" ">
<polygon fill="none" stroke="#bfbfbf" points="1468.5,-74 1403.5,-74 1403.5,-55 1468.5,-55 1468.5,-74"/>
<text text-anchor="middle" x="1436" y="-62" font-family="Helvetica,sans-Serif" font-size="10.00">stdexcept</text>
</a>
</g>
</g>
<!-- Node10&#45;&gt;Node11 -->
<g id="edge12" class="edge">
<title>Node10&#45;&gt;Node11</title>
<path fill="none" stroke="midnightblue" d="M1436,-109.75C1436,-102.8 1436,-92.85 1436,-84.13"/>
<polygon fill="midnightblue" stroke="midnightblue" points="1439.5,-84.09 1436,-74.09 1432.5,-84.09 1439.5,-84.09"/>
</g>
<!-- Node12&#45;&gt;Node2 -->
<g id="edge22" class="edge">
<title>Node12&#45;&gt;Node2</title>
<path fill="none" stroke="midnightblue" d="M522.34,-219.95C457.29,-186.59 220.08,-64.91 140.35,-24.01"/>
<polygon fill="midnightblue" stroke="midnightblue" points="141.5,-20.67 131.01,-19.22 138.31,-26.9 141.5,-20.67"/>
</g>
<!-- Node12&#45;&gt;Node3 -->
<g id="edge24" class="edge">
<title>Node12&#45;&gt;Node3</title>
<path fill="none" stroke="midnightblue" d="M528.69,-219.97C497.05,-193.79 401.09,-114.39 360.47,-80.79"/>
<polygon fill="midnightblue" stroke="midnightblue" points="362.63,-78.02 352.69,-74.34 358.16,-83.42 362.63,-78.02"/>
</g>
<!-- Node12&#45;&gt;Node5 -->
<g id="edge19" class="edge">
<title>Node12&#45;&gt;Node5</title>
<path fill="none" stroke="midnightblue" d="M533.6,-219.68C528.58,-210.96 521.36,-197.07 518,-184 514.25,-169.42 513.36,-152.37 513.34,-139.61"/>
<polygon fill="midnightblue" stroke="midnightblue" points="516.85,-139.35 513.52,-129.29 509.85,-139.23 516.85,-139.35"/>
</g>
<!-- Node12&#45;&gt;Node6 -->
<g id="edge21" class="edge">
<title>Node12&#45;&gt;Node6</title>
<path fill="none" stroke="midnightblue" d="M537.91,-219.78C536.73,-206.15 536.65,-179.84 551,-165 620.55,-93.1 936.88,-72.35 1053.05,-67.1"/>
<polygon fill="midnightblue" stroke="midnightblue" points="1053.49,-70.58 1063.33,-66.65 1053.19,-63.59 1053.49,-70.58"/>
</g>
<!-- Node12&#45;&gt;Node9 -->
<g id="edge23" class="edge">
<title>Node12&#45;&gt;Node9</title>
<path fill="none" stroke="midnightblue" d="M530.94,-219.78C516.49,-203.46 486.67,-166.56 476,-129 471.77,-114.11 474.79,-96.66 478.43,-83.82"/>
<polygon fill="midnightblue" stroke="midnightblue" points="481.77,-84.87 481.49,-74.28 475.11,-82.74 481.77,-84.87"/>
</g>
<!-- Node12&#45;&gt;Node10 -->
<g id="edge20" class="edge">
<title>Node12&#45;&gt;Node10</title>
<path fill="none" stroke="midnightblue" d="M586.52,-226.55C684.06,-222.15 913.78,-209.78 1105,-184 1158.28,-176.82 1305.6,-147.23 1384.52,-131.1"/>
<polygon fill="midnightblue" stroke="midnightblue" points="1385.62,-134.45 1394.72,-129.01 1384.22,-127.59 1385.62,-134.45"/>
</g>
<!-- Node13 -->
<g id="node13" class="node">
<title>Node13</title>
<g id="a_node13"><a xlink:href="arg__iface_8hpp.html" target="_top" xlink:title=" ">
<polygon fill="none" stroke="black" points="833.5,-184 750.5,-184 750.5,-165 833.5,-165 833.5,-184"/>
<text text-anchor="middle" x="792" y="-172" font-family="Helvetica,sans-Serif" font-size="10.00">arg_iface.hpp</text>
</a>
</g>
</g>
<!-- Node12&#45;&gt;Node13 -->
<g id="edge15" class="edge">
<title>Node12&#45;&gt;Node13</title>
<path fill="none" stroke="midnightblue" d="M579.65,-219.98C623.5,-210.8 693.42,-196.15 740.95,-186.19"/>
<polygon fill="midnightblue" stroke="midnightblue" points="741.96,-189.56 751.03,-184.08 740.53,-182.71 741.96,-189.56"/>
</g>
<!-- Node15 -->
<g id="node15" class="node">
<title>Node15</title>
<g id="a_node15"><a xlink:title=" ">
<polygon fill="none" stroke="#bfbfbf" points="1311.5,-129 1266.5,-129 1266.5,-110 1311.5,-110 1311.5,-129"/>
<text text-anchor="middle" x="1289" y="-117" font-family="Helvetica,sans-Serif" font-size="10.00">utility</text>
</a>
</g>
</g>
<!-- Node12&#45;&gt;Node15 -->
<g id="edge25" class="edge">
<title>Node12&#45;&gt;Node15</title>
<path fill="none" stroke="midnightblue" d="M586.77,-221.62C727.4,-201.37 1137.47,-142.32 1256.35,-125.2"/>
<polygon fill="midnightblue" stroke="midnightblue" points="1256.9,-128.66 1266.3,-123.77 1255.9,-121.73 1256.9,-128.66"/>
</g>
<!-- Node16 -->
<g id="node16" class="node">
<title>Node16</title>
<g id="a_node16"><a xlink:title=" ">
<polygon fill="none" stroke="#bfbfbf" points="618,-184 560,-184 560,-165 618,-165 618,-184"/>
<text text-anchor="middle" x="589" y="-172" font-family="Helvetica,sans-Serif" font-size="10.00">memory</text>
</a>
</g>
</g>
<!-- Node12&#45;&gt;Node16 -->
<g id="edge26" class="edge">
<title>Node12&#45;&gt;Node16</title>
<path fill="none" stroke="midnightblue" d="M547.26,-219.75C554.46,-212.11 565.11,-200.82 573.85,-191.56"/>
<polygon fill="midnightblue" stroke="midnightblue" points="576.58,-193.76 580.9,-184.09 571.49,-188.96 576.58,-193.76"/>
</g>
<!-- Node13&#45;&gt;Node5 -->
<g id="edge16" class="edge">
<title>Node13&#45;&gt;Node5</title>
<path fill="none" stroke="midnightblue" d="M750.38,-165.57C697.13,-155.41 605.56,-137.96 553.4,-128.01"/>
<polygon fill="midnightblue" stroke="midnightblue" points="553.99,-124.56 543.52,-126.13 552.68,-131.44 553.99,-124.56"/>
</g>
<!-- Node13&#45;&gt;Node6 -->
<g id="edge17" class="edge">
<title>Node13&#45;&gt;Node6</title>
<path fill="none" stroke="midnightblue" d="M792.45,-164.97C793.66,-151.11 798.18,-123.89 815,-110 850.5,-80.69 983.32,-70.47 1052.89,-67.08"/>
<polygon fill="midnightblue" stroke="midnightblue" points="1053.25,-70.57 1063.08,-66.61 1052.93,-63.57 1053.25,-70.57"/>
</g>
<!-- Node14 -->
<g id="node14" class="node">
<title>Node14</title>
<g id="a_node14"><a xlink:href="enums_8hpp.html" target="_top" xlink:title=" ">
<polygon fill="none" stroke="black" points="894.5,-129 823.5,-129 823.5,-110 894.5,-110 894.5,-129"/>
<text text-anchor="middle" x="859" y="-117" font-family="Helvetica,sans-Serif" font-size="10.00">enums.hpp</text>
</a>
</g>
</g>
<!-- Node13&#45;&gt;Node14 -->
<g id="edge18" class="edge">
<title>Node13&#45;&gt;Node14</title>
<path fill="none" stroke="midnightblue" d="M802.76,-164.98C812.77,-157.07 827.89,-145.11 839.93,-135.58"/>
<polygon fill="midnightblue" stroke="midnightblue" points="842.37,-138.12 848.04,-129.17 838.03,-132.63 842.37,-138.12"/>
</g>
<!-- Node17&#45;&gt;Node3 -->
<g id="edge30" class="edge">
<title>Node17&#45;&gt;Node3</title>
<path fill="none" stroke="midnightblue" d="M446.36,-276.69C400.88,-265.87 324.04,-239.98 290,-184 272.91,-155.9 276.25,-139.87 290,-110 295.75,-97.52 306.91,-87.24 317.42,-79.71"/>
<polygon fill="midnightblue" stroke="midnightblue" points="319.57,-82.49 325.97,-74.05 315.7,-76.65 319.57,-82.49"/>
</g>
<!-- Node17&#45;&gt;Node6 -->
<g id="edge29" class="edge">
<title>Node17&#45;&gt;Node6</title>
<path fill="none" stroke="midnightblue" d="M478.02,-274.83C465.77,-246.73 432.06,-157.21 476,-110 515.19,-67.89 919.22,-65.06 1053.14,-65.29"/>
<polygon fill="midnightblue" stroke="midnightblue" points="1053.4,-68.79 1063.41,-65.31 1053.42,-61.79 1053.4,-68.79"/>
</g>
<!-- Node17&#45;&gt;Node12 -->
<g id="edge28" class="edge">
<title>Node17&#45;&gt;Node12</title>
<path fill="none" stroke="midnightblue" d="M491.16,-274.98C499.5,-267.23 512.03,-255.58 522.18,-246.14"/>
<polygon fill="midnightblue" stroke="midnightblue" points="524.74,-248.54 529.68,-239.17 519.97,-243.42 524.74,-248.54"/>
</g>
<!-- Node18&#45;&gt;Node5 -->
<g id="edge60" class="edge">
<title>Node18&#45;&gt;Node5</title>
<path fill="none" stroke="midnightblue" d="M958.28,-384.82C900.33,-345.31 662.68,-183.61 627,-165 602.08,-152.01 572.48,-140.48 549.83,-132.42"/>
<polygon fill="midnightblue" stroke="midnightblue" points="550.86,-129.07 540.27,-129.07 548.55,-135.68 550.86,-129.07"/>
</g>
<!-- Node18&#45;&gt;Node6 -->
<g id="edge64" class="edge">
<title>Node18&#45;&gt;Node6</title>
<path fill="none" stroke="midnightblue" d="M1014.38,-389.53C1125.67,-376.58 1417.74,-324.36 1491,-129 1493.97,-121.09 1496.63,-116.3 1491,-110 1467.82,-84.06 1236.07,-71.37 1138.71,-67.16"/>
<polygon fill="midnightblue" stroke="midnightblue" points="1138.76,-63.66 1128.62,-66.73 1138.47,-70.65 1138.76,-63.66"/>
</g>
<!-- Node18&#45;&gt;Node12 -->
<g id="edge59" class="edge">
<title>Node18&#45;&gt;Node12</title>
<path fill="none" stroke="midnightblue" d="M927.98,-388.09C884.62,-381.79 816.27,-369.54 760,-349 682.71,-320.79 599.1,-269.65 560.62,-244.81"/>
<polygon fill="midnightblue" stroke="midnightblue" points="562.13,-241.62 551.84,-239.09 558.31,-247.48 562.13,-241.62"/>
</g>
<!-- Node18&#45;&gt;Node14 -->
<g id="edge63" class="edge">
<title>Node18&#45;&gt;Node14</title>
<path fill="none" stroke="midnightblue" d="M967.4,-384.73C951.6,-346.22 888.23,-191.74 866.42,-138.58"/>
<polygon fill="midnightblue" stroke="midnightblue" points="869.56,-137.03 862.53,-129.11 863.09,-139.69 869.56,-137.03"/>
</g>
<!-- Node19 -->
<g id="node19" class="node">
<title>Node19</title>
<g id="a_node19"><a xlink:href="api_8hpp.html" target="_top" xlink:title=" ">
<polygon fill="none" stroke="black" points="1076.5,-349 1023.5,-349 1023.5,-330 1076.5,-330 1076.5,-349"/>
<text text-anchor="middle" x="1050" y="-337" font-family="Helvetica,sans-Serif" font-size="10.00">api.hpp</text>
</a>
</g>
</g>
<!-- Node18&#45;&gt;Node19 -->
<g id="edge32" class="edge">
<title>Node18&#45;&gt;Node19</title>
<path fill="none" stroke="midnightblue" d="M978.58,-384.98C989.02,-376.77 1007.47,-364.18 1023.12,-354.49"/>
<polygon fill="midnightblue" stroke="midnightblue" points="1025.18,-357.33 1031.93,-349.17 1021.56,-351.34 1025.18,-357.33"/>
</g>
<!-- Node21 -->
<g id="node21" class="node">
<title>Node21</title>
<g id="a_node21"><a xlink:href="context_8hpp.html" target="_top" xlink:title=" ">
<polygon fill="none" stroke="black" points="1416,-184 1342,-184 1342,-165 1416,-165 1416,-184"/>
<text text-anchor="middle" x="1379" y="-172" font-family="Helvetica,sans-Serif" font-size="10.00">context.hpp</text>
</a>
</g>
</g>
<!-- Node18&#45;&gt;Node21 -->
<g id="edge61" class="edge">
<title>Node18&#45;&gt;Node21</title>
<path fill="none" stroke="midnightblue" d="M1006.25,-384.98C1077.74,-367.27 1236.88,-325.51 1283,-294 1322.57,-266.97 1354.17,-218.94 1369.29,-193.1"/>
<polygon fill="midnightblue" stroke="midnightblue" points="1372.52,-194.51 1374.42,-184.09 1366.43,-191.05 1372.52,-194.51"/>
</g>
<!-- Node22 -->
<g id="node22" class="node">
<title>Node22</title>
<g id="a_node22"><a xlink:href="value__utils_8hpp.html" target="_top" xlink:title=" ">
<polygon fill="none" stroke="black" points="1095.5,-184 1004.5,-184 1004.5,-165 1095.5,-165 1095.5,-184"/>
<text text-anchor="middle" x="1050" y="-172" font-family="Helvetica,sans-Serif" font-size="10.00">value_utils.hpp</text>
</a>
</g>
</g>
<!-- Node18&#45;&gt;Node22 -->
<g id="edge62" class="edge">
<title>Node18&#45;&gt;Node22</title>
<path fill="none" stroke="midnightblue" d="M971.92,-384.75C974.93,-358.55 986.04,-278.83 1015,-220 1020.03,-209.79 1027.66,-199.71 1034.53,-191.74"/>
<polygon fill="midnightblue" stroke="midnightblue" points="1037.16,-194.04 1041.25,-184.27 1031.96,-189.36 1037.16,-194.04"/>
</g>
<!-- Node19&#45;&gt;Node6 -->
<g id="edge33" class="edge">
<title>Node19&#45;&gt;Node6</title>
<path fill="none" stroke="midnightblue" d="M1070.54,-329.96C1102.88,-314.99 1162,-280.74 1162,-230.5 1162,-230.5 1162,-230.5 1162,-173.5 1162,-136.23 1133.02,-100.93 1113.47,-81.36"/>
<polygon fill="midnightblue" stroke="midnightblue" points="1115.66,-78.61 1106.02,-74.2 1110.81,-83.65 1115.66,-78.61"/>
</g>
<!-- Node19&#45;&gt;Node17 -->
<g id="edge57" class="edge">
<title>Node19&#45;&gt;Node17</title>
<path fill="none" stroke="midnightblue" d="M1023.37,-336.01C933.61,-327.64 641.49,-300.38 527.83,-289.78"/>
<polygon fill="midnightblue" stroke="midnightblue" points="528,-286.28 517.72,-288.83 527.35,-293.25 528,-286.28"/>
</g>
<!-- Node19&#45;&gt;Node18 -->
<g id="edge58" class="edge">
<title>Node19&#45;&gt;Node18</title>
<path fill="none" stroke="midnightblue" d="M1042.23,-349.17C1031.69,-357.44 1013.2,-370.04 997.58,-379.7"/>
<polygon fill="midnightblue" stroke="midnightblue" points="995.57,-376.83 988.81,-384.98 999.18,-382.82 995.57,-376.83"/>
</g>
<!-- Node20 -->
<g id="node20" class="node">
<title>Node20</title>
<g id="a_node20"><a xlink:href="arg_8hpp.html" target="_top" xlink:title=" ">
<polygon fill="none" stroke="black" points="1076.5,-239 1023.5,-239 1023.5,-220 1076.5,-220 1076.5,-239"/>
<text text-anchor="middle" x="1050" y="-227" font-family="Helvetica,sans-Serif" font-size="10.00">arg.hpp</text>
</a>
</g>
</g>
<!-- Node19&#45;&gt;Node20 -->
<g id="edge34" class="edge">
<title>Node19&#45;&gt;Node20</title>
<path fill="none" stroke="midnightblue" d="M1050,-329.66C1050,-312.17 1050,-272.8 1050,-249.27"/>
<polygon fill="midnightblue" stroke="midnightblue" points="1053.5,-249.16 1050,-239.16 1046.5,-249.16 1053.5,-249.16"/>
</g>
<!-- Node23 -->
<g id="node23" class="node">
<title>Node23</title>
<g id="a_node23"><a xlink:href="multi__arg_8hpp.html" target="_top" xlink:title=" ">
<polygon fill="none" stroke="black" points="1274,-294 1190,-294 1190,-275 1274,-275 1274,-294"/>
<text text-anchor="middle" x="1232" y="-282" font-family="Helvetica,sans-Serif" font-size="10.00">multi_arg.hpp</text>
</a>
</g>
</g>
<!-- Node19&#45;&gt;Node23 -->
<g id="edge49" class="edge">
<title>Node19&#45;&gt;Node23</title>
<path fill="none" stroke="midnightblue" d="M1076.85,-330.68C1107.45,-321.77 1157.74,-307.13 1192.74,-296.93"/>
<polygon fill="midnightblue" stroke="midnightblue" points="1194,-300.21 1202.62,-294.06 1192.04,-293.49 1194,-300.21"/>
</g>
<!-- Node20&#45;&gt;Node3 -->
<g id="edge48" class="edge">
<title>Node20&#45;&gt;Node3</title>
<path fill="none" stroke="midnightblue" d="M1039.37,-219.73C1006.43,-192.58 908.04,-111.61 904,-110 808.36,-71.82 544.64,-82.36 442,-74 423.13,-72.46 402.26,-70.7 384.49,-69.18"/>
<polygon fill="midnightblue" stroke="midnightblue" points="384.68,-65.68 374.42,-68.31 384.09,-72.66 384.68,-65.68"/>
</g>
<!-- Node20&#45;&gt;Node5 -->
<g id="edge36" class="edge">
<title>Node20&#45;&gt;Node5</title>
<path fill="none" stroke="midnightblue" d="M1023.14,-227.01C969.02,-223.48 843.38,-212.67 742,-184 721.5,-178.2 718.2,-171.75 698,-165 649.28,-148.72 591.46,-135.73 553.81,-128.08"/>
<polygon fill="midnightblue" stroke="midnightblue" points="554.25,-124.6 543.76,-126.07 552.87,-131.46 554.25,-124.6"/>
</g>
<!-- Node20&#45;&gt;Node6 -->
<g id="edge47" class="edge">
<title>Node20&#45;&gt;Node6</title>
<path fill="none" stroke="midnightblue" d="M1067.46,-219.88C1080.47,-212.38 1097.28,-200.18 1105,-184 1120.57,-151.38 1110.62,-107.92 1102.78,-83.72"/>
<polygon fill="midnightblue" stroke="midnightblue" points="1106.02,-82.37 1099.43,-74.07 1099.4,-84.67 1106.02,-82.37"/>
</g>
<!-- Node20&#45;&gt;Node10 -->
<g id="edge41" class="edge">
<title>Node20&#45;&gt;Node10</title>
<path fill="none" stroke="midnightblue" d="M1076.73,-221.37C1109.22,-212.67 1165.69,-197.46 1214,-184 1278.13,-166.13 1352.47,-144.72 1396.8,-131.89"/>
<polygon fill="midnightblue" stroke="midnightblue" points="1397.96,-135.2 1406.59,-129.05 1396.01,-128.47 1397.96,-135.2"/>
</g>
<!-- Node20&#45;&gt;Node13 -->
<g id="edge35" class="edge">
<title>Node20&#45;&gt;Node13</title>
<path fill="none" stroke="midnightblue" d="M1023.36,-223.03C981.15,-214.36 898.12,-197.3 843.87,-186.16"/>
<polygon fill="midnightblue" stroke="midnightblue" points="844.25,-182.66 833.75,-184.08 842.85,-189.52 844.25,-182.66"/>
</g>
<!-- Node20&#45;&gt;Node21 -->
<g id="edge37" class="edge">
<title>Node20&#45;&gt;Node21</title>
<path fill="none" stroke="midnightblue" d="M1076.85,-224.26C1126.46,-216.41 1235.86,-199.05 1328,-184 1329.27,-183.79 1330.56,-183.58 1331.86,-183.37"/>
<polygon fill="midnightblue" stroke="midnightblue" points="1332.66,-186.78 1341.96,-181.7 1331.52,-179.88 1332.66,-186.78"/>
</g>
<!-- Node20&#45;&gt;Node22 -->
<g id="edge42" class="edge">
<title>Node20&#45;&gt;Node22</title>
<path fill="none" stroke="midnightblue" d="M1050,-219.75C1050,-212.8 1050,-202.85 1050,-194.13"/>
<polygon fill="midnightblue" stroke="midnightblue" points="1053.5,-194.09 1050,-184.09 1046.5,-194.09 1053.5,-194.09"/>
</g>
<!-- Node21&#45;&gt;Node5 -->
<g id="edge39" class="edge">
<title>Node21&#45;&gt;Node5</title>
<path fill="none" stroke="midnightblue" d="M1341.83,-171.22C1200.81,-162.58 699.47,-131.86 553.9,-122.94"/>
<polygon fill="midnightblue" stroke="midnightblue" points="553.85,-119.43 543.65,-122.32 553.42,-126.42 553.85,-119.43"/>
</g>
<!-- Node21&#45;&gt;Node6 -->
<g id="edge40" class="edge">
<title>Node21&#45;&gt;Node6</title>
<path fill="none" stroke="midnightblue" d="M1373.79,-164.91C1364.85,-150.97 1345.2,-123.63 1321,-110 1263.59,-77.66 1186.38,-68.54 1138.96,-66.13"/>
<polygon fill="midnightblue" stroke="midnightblue" points="1138.88,-62.62 1128.74,-65.69 1138.58,-69.61 1138.88,-62.62"/>
</g>
<!-- Node21&#45;&gt;Node15 -->
<g id="edge38" class="edge">
<title>Node21&#45;&gt;Node15</title>
<path fill="none" stroke="midnightblue" d="M1364.54,-164.98C1350.58,-156.77 1329.21,-144.18 1312.75,-134.49"/>
<polygon fill="midnightblue" stroke="midnightblue" points="1314.12,-131.23 1303.72,-129.17 1310.56,-137.26 1314.12,-131.23"/>
</g>
<!-- Node22&#45;&gt;Node3 -->
<g id="edge46" class="edge">
<title>Node22&#45;&gt;Node3</title>
<path fill="none" stroke="midnightblue" d="M1041.38,-164.99C1026.22,-150.65 993.15,-122.06 959,-110 850.4,-71.66 556.82,-82.88 442,-74 423.12,-72.54 402.25,-70.79 384.48,-69.26"/>
<polygon fill="midnightblue" stroke="midnightblue" points="384.68,-65.76 374.42,-68.38 384.08,-72.73 384.68,-65.76"/>
</g>
<!-- Node22&#45;&gt;Node5 -->
<g id="edge43" class="edge">
<title>Node22&#45;&gt;Node5</title>
<path fill="none" stroke="midnightblue" d="M1004.3,-168.98C900.98,-158.76 650.84,-134.03 553.59,-124.42"/>
<polygon fill="midnightblue" stroke="midnightblue" points="553.88,-120.93 543.59,-123.43 553.19,-127.89 553.88,-120.93"/>
</g>
<!-- Node22&#45;&gt;Node6 -->
<g id="edge45" class="edge">
<title>Node22&#45;&gt;Node6</title>
<path fill="none" stroke="midnightblue" d="M1053.76,-164.66C1061.28,-147.01 1078.29,-107.09 1088.28,-83.64"/>
<polygon fill="midnightblue" stroke="midnightblue" points="1091.61,-84.73 1092.31,-74.16 1085.17,-81.99 1091.61,-84.73"/>
</g>
<!-- Node22&#45;&gt;Node10 -->
<g id="edge44" class="edge">
<title>Node22&#45;&gt;Node10</title>
<path fill="none" stroke="midnightblue" d="M1095.8,-167.21C1166.89,-157.45 1303.61,-138.68 1380.31,-128.15"/>
<polygon fill="midnightblue" stroke="midnightblue" points="1380.83,-131.61 1390.26,-126.78 1379.88,-124.67 1380.83,-131.61"/>
</g>
<!-- Node23&#45;&gt;Node5 -->
<g id="edge54" class="edge">
<title>Node23&#45;&gt;Node5</title>
<path fill="none" stroke="midnightblue" d="M1189.79,-279.68C1098.21,-270.52 875.23,-243.51 698,-184 680.1,-177.99 677.54,-172 660,-165 624.78,-150.94 583.3,-138.69 553.58,-130.63"/>
<polygon fill="midnightblue" stroke="midnightblue" points="554.15,-127.15 543.58,-127.95 552.34,-133.92 554.15,-127.15"/>
</g>
<!-- Node23&#45;&gt;Node6 -->
<g id="edge55" class="edge">
<title>Node23&#45;&gt;Node6</title>
<path fill="none" stroke="midnightblue" d="M1231.41,-274.87C1229.14,-247.61 1218.79,-162.09 1176,-110 1164.3,-95.76 1146.79,-85.29 1131.13,-78.1"/>
<polygon fill="midnightblue" stroke="midnightblue" points="1132.26,-74.77 1121.69,-74.04 1129.5,-81.21 1132.26,-74.77"/>
</g>
<!-- Node23&#45;&gt;Node10 -->
<g id="edge52" class="edge">
<title>Node23&#45;&gt;Node10</title>
<path fill="none" stroke="midnightblue" d="M1269.48,-274.96C1313.99,-262.75 1386.97,-235.82 1425,-184 1434.41,-171.18 1436.76,-153.01 1436.99,-139.39"/>
<polygon fill="midnightblue" stroke="midnightblue" points="1440.49,-139.17 1436.79,-129.24 1433.49,-139.3 1440.49,-139.17"/>
</g>
<!-- Node23&#45;&gt;Node15 -->
<g id="edge56" class="edge">
<title>Node23&#45;&gt;Node15</title>
<path fill="none" stroke="midnightblue" d="M1235.06,-274.74C1244.03,-249.09 1270.37,-173.78 1282.61,-138.78"/>
<polygon fill="midnightblue" stroke="midnightblue" points="1285.92,-139.9 1285.92,-129.31 1279.32,-137.59 1285.92,-139.9"/>
</g>
<!-- Node23&#45;&gt;Node20 -->
<g id="edge50" class="edge">
<title>Node23&#45;&gt;Node20</title>
<path fill="none" stroke="midnightblue" d="M1202.76,-274.98C1171.02,-265.74 1120.32,-250.98 1086.12,-241.02"/>
<polygon fill="midnightblue" stroke="midnightblue" points="1087.09,-237.65 1076.51,-238.22 1085.13,-244.38 1087.09,-237.65"/>
</g>
<!-- Node23&#45;&gt;Node21 -->
<g id="edge51" class="edge">
<title>Node23&#45;&gt;Node21</title>
<path fill="none" stroke="midnightblue" d="M1243.06,-274.96C1259.04,-262.66 1289.58,-239.31 1316,-220 1329.92,-209.83 1345.77,-198.63 1358.09,-190.01"/>
<polygon fill="midnightblue" stroke="midnightblue" points="1360.16,-192.84 1366.36,-184.25 1356.16,-187.1 1360.16,-192.84"/>
</g>
<!-- Node23&#45;&gt;Node22 -->
<g id="edge53" class="edge">
<title>Node23&#45;&gt;Node22</title>
<path fill="none" stroke="midnightblue" d="M1217.41,-274.84C1185.92,-256.16 1111.33,-211.9 1073.25,-189.3"/>
<polygon fill="midnightblue" stroke="midnightblue" points="1074.79,-186.14 1064.4,-184.05 1071.22,-192.16 1074.79,-186.14"/>
</g>
<!-- Node24&#45;&gt;Node5 -->
<g id="edge67" class="edge">
<title>Node24&#45;&gt;Node5</title>
<path fill="none" stroke="midnightblue" d="M266,-384.82C266,-366.48 266,-322.44 266,-285.5 266,-285.5 266,-285.5 266,-228.5 266,-138.94 403.63,-122.88 473.83,-120.52"/>
<polygon fill="midnightblue" stroke="midnightblue" points="474.18,-124.01 484.09,-120.25 474,-117.01 474.18,-124.01"/>
</g>
<!-- Node25&#45;&gt;Node1 -->
<g id="edge86" class="edge">
<title>Node25&#45;&gt;Node1</title>
<path fill="none" stroke="midnightblue" d="M617.82,-514.17C610.99,-522.13 598.44,-534.11 587.16,-543.6"/>
<polygon fill="midnightblue" stroke="midnightblue" points="584.85,-540.97 579.27,-549.98 589.25,-546.42 584.85,-540.97"/>
</g>
<!-- Node25&#45;&gt;Node2 -->
<g id="edge83" class="edge">
<title>Node25&#45;&gt;Node2</title>
<path fill="none" stroke="midnightblue" d="M580.69,-501.21C496.81,-496.12 309.44,-482.46 250,-459 211.55,-443.83 197.53,-438.66 175,-404 94.64,-280.38 105.84,-89.61 111.82,-29.39"/>
<polygon fill="midnightblue" stroke="midnightblue" points="115.33,-29.46 112.91,-19.14 108.37,-28.71 115.33,-29.46"/>
</g>
<!-- Node25&#45;&gt;Node3 -->
<g id="edge84" class="edge">
<title>Node25&#45;&gt;Node3</title>
<path fill="none" stroke="midnightblue" d="M580.85,-500.25C483.39,-491.62 243.03,-464.51 195,-404 181.87,-387.45 107.71,-344.45 278,-110 287.41,-97.05 301.79,-86.56 314.53,-79.03"/>
<polygon fill="midnightblue" stroke="midnightblue" points="316.4,-82 323.43,-74.08 312.99,-75.89 316.4,-82"/>
</g>
<!-- Node25&#45;&gt;Node5 -->
<g id="edge70" class="edge">
<title>Node25&#45;&gt;Node5</title>
<path fill="none" stroke="midnightblue" d="M607.28,-494.83C566.86,-469.95 455.32,-393.66 427,-294 410.99,-237.65 416.51,-210.01 454,-165 464.05,-152.93 478.03,-142.32 489.96,-134.49"/>
<polygon fill="midnightblue" stroke="midnightblue" points="491.98,-137.35 498.59,-129.07 488.26,-131.42 491.98,-137.35"/>
</g>
<!-- Node25&#45;&gt;Node10 -->
<g id="edge72" class="edge">
<title>Node25&#45;&gt;Node10</title>
<path fill="none" stroke="midnightblue" d="M663.12,-503.14C843.77,-501.04 1558,-486.95 1558,-395.5 1558,-395.5 1558,-395.5 1558,-283.5 1558,-217.03 1492.16,-160.25 1457.22,-134.8"/>
<polygon fill="midnightblue" stroke="midnightblue" points="1459.24,-131.94 1449.06,-129.02 1455.19,-137.66 1459.24,-131.94"/>
</g>
<!-- Node25&#45;&gt;Node16 -->
<g id="edge85" class="edge">
<title>Node25&#45;&gt;Node16</title>
<path fill="none" stroke="midnightblue" d="M622,-494.82C622,-476.48 622,-432.44 622,-395.5 622,-395.5 622,-395.5 622,-283.5 622,-250.63 607.84,-214.49 598.07,-193.46"/>
<polygon fill="midnightblue" stroke="midnightblue" points="601.09,-191.66 593.59,-184.18 594.79,-194.71 601.09,-191.66"/>
</g>
<!-- Node25&#45;&gt;Node18 -->
<g id="edge73" class="edge">
<title>Node25&#45;&gt;Node18</title>
<path fill="none" stroke="midnightblue" d="M649.68,-494.94C711.91,-475.68 862.95,-428.94 933.51,-407.1"/>
<polygon fill="midnightblue" stroke="midnightblue" points="934.8,-410.37 943.32,-404.07 932.73,-403.68 934.8,-410.37"/>
</g>
<!-- Node25&#45;&gt;Node19 -->
<g id="edge69" class="edge">
<title>Node25&#45;&gt;Node19</title>
<path fill="none" stroke="midnightblue" d="M663.03,-498.06C753.93,-485.29 968.57,-450.85 1023,-404 1036.18,-392.65 1043.1,-373.75 1046.61,-359.52"/>
<polygon fill="midnightblue" stroke="midnightblue" points="1050.12,-359.84 1048.76,-349.33 1043.27,-358.39 1050.12,-359.84"/>
</g>
<!-- Node25&#45;&gt;Node21 -->
<g id="edge71" class="edge">
<title>Node25&#45;&gt;Node21</title>
<path fill="none" stroke="midnightblue" d="M663.05,-502.21C824.36,-496.63 1406,-471.24 1406,-395.5 1406,-395.5 1406,-395.5 1406,-283.5 1406,-251.09 1394.42,-214.81 1386.42,-193.63"/>
<polygon fill="midnightblue" stroke="midnightblue" points="1389.67,-192.3 1382.75,-184.27 1383.15,-194.86 1389.67,-192.3"/>
</g>
<!-- Node26 -->
<g id="node26" class="node">
<title>Node26</title>
<g id="a_node26"><a xlink:href="help_8hpp.html" target="_top" xlink:title=" ">
<polygon fill="none" stroke="black" points="727.5,-459 668.5,-459 668.5,-440 727.5,-440 727.5,-459"/>
<text text-anchor="middle" x="698" y="-447" font-family="Helvetica,sans-Serif" font-size="10.00">help.hpp</text>
</a>
</g>
</g>
<!-- Node25&#45;&gt;Node26 -->
<g id="edge74" class="edge">
<title>Node25&#45;&gt;Node26</title>
<path fill="none" stroke="midnightblue" d="M634.21,-494.98C645.78,-486.92 663.38,-474.65 677.16,-465.03"/>
<polygon fill="midnightblue" stroke="midnightblue" points="679.37,-467.76 685.57,-459.17 675.36,-462.02 679.37,-467.76"/>
</g>
<!-- Node26&#45;&gt;Node5 -->
<g id="edge78" class="edge">
<title>Node26&#45;&gt;Node5</title>
<path fill="none" stroke="midnightblue" d="M668.06,-441.16C611.08,-425.39 488.25,-382.31 438,-294 406.5,-238.64 466.17,-167.73 497.09,-136.49"/>
<polygon fill="midnightblue" stroke="midnightblue" points="499.92,-138.61 504.6,-129.11 495.01,-133.62 499.92,-138.61"/>
</g>
<!-- Node26&#45;&gt;Node6 -->
<g id="edge80" class="edge">
<title>Node26&#45;&gt;Node6</title>
<path fill="none" stroke="midnightblue" d="M707.06,-439.78C758.33,-390.45 1012.11,-146.23 1079.53,-81.35"/>
<polygon fill="midnightblue" stroke="midnightblue" points="1082.35,-83.5 1087.13,-74.04 1077.49,-78.45 1082.35,-83.5"/>
</g>
<!-- Node26&#45;&gt;Node10 -->
<g id="edge79" class="edge">
<title>Node26&#45;&gt;Node10</title>
<path fill="none" stroke="midnightblue" d="M727.78,-448.78C870.98,-449.35 1482,-442.59 1482,-285.5 1482,-285.5 1482,-285.5 1482,-228.5 1482,-194.04 1461.93,-157.98 1448.3,-137.47"/>
<polygon fill="midnightblue" stroke="midnightblue" points="1451.15,-135.44 1442.59,-129.2 1445.4,-139.42 1451.15,-135.44"/>
</g>
<!-- Node26&#45;&gt;Node16 -->
<g id="edge82" class="edge">
<title>Node26&#45;&gt;Node16</title>
<path fill="none" stroke="midnightblue" d="M692.72,-439.9C682.27,-422.07 660,-379.46 660,-340.5 660,-340.5 660,-340.5 660,-283.5 660,-253.33 652.71,-245.12 636,-220 628.66,-208.97 618.11,-198.66 608.87,-190.75"/>
<polygon fill="midnightblue" stroke="midnightblue" points="610.83,-187.83 600.87,-184.2 606.39,-193.25 610.83,-187.83"/>
</g>
<!-- Node26&#45;&gt;Node18 -->
<g id="edge81" class="edge">
<title>Node26&#45;&gt;Node18</title>
<path fill="none" stroke="midnightblue" d="M727.74,-442.73C773.36,-433.87 861.31,-416.8 918.02,-405.79"/>
<polygon fill="midnightblue" stroke="midnightblue" points="918.73,-409.21 927.88,-403.87 917.39,-402.34 918.73,-409.21"/>
</g>
<!-- Node26&#45;&gt;Node20 -->
<g id="edge75" class="edge">
<title>Node26&#45;&gt;Node20</title>
<path fill="none" stroke="midnightblue" d="M711.8,-439.95C765.46,-406.72 960.54,-285.9 1027.36,-244.52"/>
<polygon fill="midnightblue" stroke="midnightblue" points="1029.26,-247.46 1035.91,-239.22 1025.57,-241.51 1029.26,-247.46"/>
</g>
<!-- Node26&#45;&gt;Node21 -->
<g id="edge77" class="edge">
<title>Node26&#45;&gt;Node21</title>
<path fill="none" stroke="midnightblue" d="M727.79,-448.74C822.58,-448.04 1121.96,-434.22 1308,-294 1333.45,-274.82 1337.73,-266.4 1354,-239 1362.51,-224.67 1369.21,-206.93 1373.53,-193.84"/>
<polygon fill="midnightblue" stroke="midnightblue" points="1376.92,-194.71 1376.58,-184.12 1370.24,-192.61 1376.92,-194.71"/>
</g>
<!-- Node26&#45;&gt;Node24 -->
<g id="edge76" class="edge">
<title>Node26&#45;&gt;Node24</title>
<path fill="none" stroke="midnightblue" d="M668.31,-444.86C601.01,-436.6 435.27,-416.27 338.82,-404.43"/>
<polygon fill="midnightblue" stroke="midnightblue" points="339.2,-400.95 328.85,-403.21 338.35,-407.9 339.2,-400.95"/>
</g>
</g>
</svg>
        <g id="navigator" transform="translate(0 0)" fill="#404254">
                <rect fill="#f2f5e9" fill-opacity="0.5" stroke="#606060" stroke-width=".5" x="0" y="0" width="60" height="60"/>
                <use id="zoomplus" xlink:href="#zoomPlus" x="17" y="9" onmousedown="handleZoom(evt,'in')"/>
                <use id="zoomminus" xlink:href="#zoomMin" x="42" y="9" onmousedown="handleZoom(evt,'out')"/>
                <use id="reset" xlink:href="#resetDef" x="30" y="36" onmousedown="handleReset()"/>
                <g id="arrowUp" xlink:href="#dirArrow" transform="translate(30 24)" onmousedown="handlePan(0,-1)">
                  <use xlink:href="#rim" fill="#404040">
                        <set attributeName="fill" to="#808080" begin="arrowUp.mouseover" end="arrowUp.mouseout"/>
                  </use>
                  <path fill="none" stroke="white" stroke-width="1.5" d="M0,-3.0v7 M-2.5,-0.5L0,-3.0L2.5,-0.5"/>
                </g>
                <g id="arrowRight" xlink:href="#dirArrow" transform="rotate(90) translate(36 -43)" onmousedown="handlePan(1,0)">
                  <use xlink:href="#rim" fill="#404040">
                        <set attributeName="fill" to="#808080" begin="arrowRight.mouseover" end="arrowRight.mouseout"/>
                  </use>
                  <path fill="none" stroke="white" stroke-width="1.5" d="M0,-3.0v7 M-2.5,-0.5L0,-3.0L2.5,-0.5"/>
                </g>
                <g id="arrowDown" xlink:href="#dirArrow" transform="rotate(180) translate(-30 -48)" onmousedown="handlePan(0,1)">
                  <use xlink:href="#rim" fill="#404040">
                        <set attributeName="fill" to="#808080" begin="arrowDown.mouseover" end="arrowDown.mouseout"/>
                  </use>
                  <path fill="none" stroke="white" stroke-width="1.5" d="M0,-3.0v7 M-2.5,-0.5L0,-3.0L2.5,-0.5"/>
                </g>
                <g id="arrowLeft" xlink:href="#dirArrow" transform="rotate(270) translate(-36 17)" onmousedown="handlePan(-1,0)">
                  <use xlink:href="#rim" fill="#404040">
                        <set attributeName="fill" to="#808080" begin="arrowLeft.mouseover" end="arrowLeft.mouseout"/>
                  </use>
                  <path fill="none" stroke="white" stroke-width="1.5" d="M0,-3.0v7 M-2.5,-0.5L0,-3.0L2.5,-0.5"/>
                </g>
        </g>
        <svg viewBox="0 0 15 15" width="100%" height="30px" preserveAspectRatio="xMaxYMin meet">
         <g id="arrow_out" transform="scale(0.3 0.3)">
          <a xlink:href="help__printer_8hpp__incl_org.svg" target="_base">
           <rect id="button" ry="5" rx="5" y="6" x="6" height="38" width="38"
                fill="#f2f5e9" fill-opacity="0.5" stroke="#606060" stroke-width="1.0"/>
           <path id="arrow"
             d="M 11.500037,31.436501 C 11.940474,20.09759 22.043105,11.32322 32.158766,21.979434 L 37.068811,17.246167 C 37.068811,17.246167 37.088388,32 37.088388,32 L 22.160133,31.978069 C 22.160133,31.978069 26.997745,27.140456 26.997745,27.140456 C 18.528582,18.264221 13.291696,25.230495 11.500037,31.436501 z"
             style="fill:#404040;"/>
          </a>
         </g>
        </svg>
</svg>
