<?xml version="1.0" encoding="UTF-8" standalone="no"?>
<!DOCTYPE svg PUBLIC "-//W3C//DTD SVG 1.1//EN"
 "http://www.w3.org/Graphics/SVG/1.1/DTD/svg11.dtd">
<!-- Generated by graphviz version 2.43.0 (0)
 -->
<!-- Title: help.hpp Pages: 1 -->
<svg width="1377pt" height="467pt"
 viewBox="0.00 0.00 1376.50 467.00" xmlns="http://www.w3.org/2000/svg" xmlns:xlink="http://www.w3.org/1999/xlink">
<g id="graph0" class="graph" transform="scale(1 1) rotate(0) translate(4 463)">
<title>help.hpp</title>
<!-- Node1 -->
<g id="Node000001" class="node">
<title>Node1</title>
<g id="a_Node000001"><a xlink:title=" ">
<polygon fill="#999999" stroke="#666666" points="604.5,-459 545.5,-459 545.5,-440 604.5,-440 604.5,-459"/>
<text text-anchor="middle" x="575" y="-447" font-family="Helvetica,sans-Serif" font-size="10.00">help.hpp</text>
</a>
</g>
</g>
<!-- Node2 -->
<g id="Node000002" class="node">
<title>Node2</title>
<g id="a_Node000002"><a xlink:href="arg_8hpp.html" target="_top" xlink:title=" ">
<polygon fill="white" stroke="#666666" points="536.5,-239 483.5,-239 483.5,-220 536.5,-220 536.5,-239"/>
<text text-anchor="middle" x="510" y="-227" font-family="Helvetica,sans-Serif" font-size="10.00">arg.hpp</text>
</a>
</g>
</g>
<!-- Node1&#45;&gt;Node2 -->
<g id="edge1_Node000001_Node000002" class="edge">
<title>Node1&#45;&gt;Node2</title>
<g id="a_edge1_Node000001_Node000002"><a xlink:title=" ">
<path fill="none" stroke="#63b8ff" d="M573.5,-439.81C571.31,-427.52 566.97,-404.4 562,-385 549.1,-334.68 527.97,-277.09 517.04,-248.53"/>
<polygon fill="#63b8ff" stroke="#63b8ff" points="520.26,-247.14 513.39,-239.08 513.73,-249.67 520.26,-247.14"/>
</a>
</g>
</g>
<!-- Node4 -->
<g id="Node000004" class="node">
<title>Node4</title>
<g id="a_Node000004"><a xlink:href="utils_8hpp.html" target="_top" xlink:title=" ">
<polygon fill="white" stroke="#666666" points="902.5,-129 843.5,-129 843.5,-110 902.5,-110 902.5,-129"/>
<text text-anchor="middle" x="873" y="-117" font-family="Helvetica,sans-Serif" font-size="10.00">utils.hpp</text>
</a>
</g>
</g>
<!-- Node1&#45;&gt;Node4 -->
<g id="edge30_Node000001_Node000004" class="edge">
<title>Node1&#45;&gt;Node4</title>
<g id="a_edge30_Node000001_Node000004"><a xlink:title=" ">
<path fill="none" stroke="#63b8ff" d="M604.52,-448.97C681.56,-449.51 894.52,-446.72 1065,-404 1135.22,-386.4 1215,-412.89 1215,-340.5 1215,-340.5 1215,-340.5 1215,-228.5 1215,-199.04 1218.37,-184.17 1196,-165 1154.23,-129.21 989.71,-122.11 912.9,-120.77"/>
<polygon fill="#63b8ff" stroke="#63b8ff" points="912.71,-117.27 902.66,-120.62 912.61,-124.27 912.71,-117.27"/>
</a>
</g>
</g>
<!-- Node5 -->
<g id="Node000005" class="node">
<title>Node5</title>
<g id="a_Node000005"><a xlink:href="types_8hpp.html" target="_top" xlink:title=" ">
<polygon fill="white" stroke="#666666" points="524.5,-74 459.5,-74 459.5,-55 524.5,-55 524.5,-74"/>
<text text-anchor="middle" x="492" y="-62" font-family="Helvetica,sans-Serif" font-size="10.00">types.hpp</text>
</a>
</g>
</g>
<!-- Node1&#45;&gt;Node5 -->
<g id="edge32_Node000001_Node000005" class="edge">
<title>Node1&#45;&gt;Node5</title>
<g id="a_edge32_Node000001_Node000005"><a xlink:title=" ">
<path fill="none" stroke="#63b8ff" d="M545.3,-446.11C427.55,-436.24 0,-396.56 0,-340.5 0,-340.5 0,-340.5 0,-173.5 0,-130.5 33.58,-127.17 73,-110 139.84,-80.88 356.59,-70.13 449.3,-66.8"/>
<polygon fill="#63b8ff" stroke="#63b8ff" points="449.58,-70.29 459.45,-66.44 449.34,-63.29 449.58,-70.29"/>
</a>
</g>
</g>
<!-- Node12 -->
<g id="Node000012" class="node">
<title>Node12</title>
<g id="a_Node000012"><a xlink:href="context_8hpp.html" target="_top" xlink:title=" ">
<polygon fill="white" stroke="#666666" points="292,-184 218,-184 218,-165 292,-165 292,-184"/>
<text text-anchor="middle" x="255" y="-172" font-family="Helvetica,sans-Serif" font-size="10.00">context.hpp</text>
</a>
</g>
</g>
<!-- Node1&#45;&gt;Node12 -->
<g id="edge29_Node000001_Node000012" class="edge">
<title>Node1&#45;&gt;Node12</title>
<g id="a_edge29_Node000001_Node000012"><a xlink:title=" ">
<path fill="none" stroke="#63b8ff" d="M545.47,-447.07C463.18,-442.77 235.88,-428.75 214,-404 159.75,-342.66 217.44,-234.76 243.55,-192.84"/>
<polygon fill="#63b8ff" stroke="#63b8ff" points="246.58,-194.61 249.01,-184.3 240.68,-190.84 246.58,-194.61"/>
</a>
</g>
</g>
<!-- Node14 -->
<g id="Node000014" class="node">
<title>Node14</title>
<g id="a_Node000014"><a xlink:href="exceptions_8hpp.html" target="_top" xlink:title=" ">
<polygon fill="white" stroke="#666666" points="649.5,-129 558.5,-129 558.5,-110 649.5,-110 649.5,-129"/>
<text text-anchor="middle" x="604" y="-117" font-family="Helvetica,sans-Serif" font-size="10.00">exceptions.hpp</text>
</a>
</g>
</g>
<!-- Node1&#45;&gt;Node14 -->
<g id="edge31_Node000001_Node000014" class="edge">
<title>Node1&#45;&gt;Node14</title>
<g id="a_edge31_Node000001_Node000014"><a xlink:title=" ">
<path fill="none" stroke="#63b8ff" d="M545.48,-440.25C439.75,-409.37 92.24,-295.65 209,-165 220.17,-152.5 441.88,-133.35 548.14,-124.83"/>
<polygon fill="#63b8ff" stroke="#63b8ff" points="548.67,-128.3 558.36,-124.02 548.11,-121.32 548.67,-128.3"/>
</a>
</g>
</g>
<!-- Node17 -->
<g id="Node000017" class="node">
<title>Node17</title>
<g id="a_Node000017"><a xlink:href="help__printer__iface_8hpp.html" target="_top" xlink:title=" ">
<polygon fill="white" stroke="#666666" points="1368.5,-349 1243.5,-349 1243.5,-330 1368.5,-330 1368.5,-349"/>
<text text-anchor="middle" x="1306" y="-337" font-family="Helvetica,sans-Serif" font-size="10.00">help_printer_iface.hpp</text>
</a>
</g>
</g>
<!-- Node1&#45;&gt;Node17 -->
<g id="edge27_Node000001_Node000017" class="edge">
<title>Node1&#45;&gt;Node17</title>
<g id="a_edge27_Node000001_Node000017"><a xlink:title=" ">
<path fill="none" stroke="#63b8ff" d="M604.78,-448.87C716.92,-449.89 1113.22,-450.08 1229,-404 1254.54,-393.84 1277.99,-371.89 1292.14,-356.66"/>
<polygon fill="#63b8ff" stroke="#63b8ff" points="1294.93,-358.79 1298.99,-349.01 1289.71,-354.12 1294.93,-358.79"/>
</a>
</g>
</g>
<!-- Node18 -->
<g id="Node000018" class="node">
<title>Node18</title>
<g id="a_Node000018"><a xlink:href="command_8hpp.html" target="_top" xlink:title=" ">
<polygon fill="white" stroke="#666666" points="553,-404 467,-404 467,-385 553,-385 553,-404"/>
<text text-anchor="middle" x="510" y="-392" font-family="Helvetica,sans-Serif" font-size="10.00">command.hpp</text>
</a>
</g>
</g>
<!-- Node1&#45;&gt;Node18 -->
<g id="edge33_Node000001_Node000018" class="edge">
<title>Node1&#45;&gt;Node18</title>
<g id="a_edge33_Node000001_Node000018"><a xlink:title=" ">
<path fill="none" stroke="#63b8ff" d="M564.56,-439.98C554.85,-432.07 540.18,-420.11 528.5,-410.58"/>
<polygon fill="#63b8ff" stroke="#63b8ff" points="530.6,-407.78 520.63,-404.17 526.17,-413.2 530.6,-407.78"/>
</a>
</g>
</g>
<!-- Node23 -->
<g id="Node000023" class="node">
<title>Node23</title>
<g id="a_Node000023"><a xlink:title=" ">
<polygon fill="#e0e0e0" stroke="#999999" points="1187,-184 1129,-184 1129,-165 1187,-165 1187,-184"/>
<text text-anchor="middle" x="1158" y="-172" font-family="Helvetica,sans-Serif" font-size="10.00">memory</text>
</a>
</g>
</g>
<!-- Node1&#45;&gt;Node23 -->
<g id="edge65_Node000001_Node000023" class="edge">
<title>Node1&#45;&gt;Node23</title>
<g id="a_edge65_Node000001_Node000023"><a xlink:title=" ">
<path fill="none" stroke="#63b8ff" d="M604.79,-448.78C716.06,-449.05 1101,-442.58 1101,-340.5 1101,-340.5 1101,-340.5 1101,-283.5 1101,-247.51 1126.06,-211.76 1142.95,-191.76"/>
<polygon fill="#63b8ff" stroke="#63b8ff" points="1145.62,-194.02 1149.59,-184.2 1140.36,-189.4 1145.62,-194.02"/>
</a>
</g>
</g>
<!-- Node3 -->
<g id="Node000003" class="node">
<title>Node3</title>
<g id="a_Node000003"><a xlink:href="arg__iface_8hpp.html" target="_top" xlink:title=" ">
<polygon fill="white" stroke="#666666" points="659.5,-184 576.5,-184 576.5,-165 659.5,-165 659.5,-184"/>
<text text-anchor="middle" x="618" y="-172" font-family="Helvetica,sans-Serif" font-size="10.00">arg_iface.hpp</text>
</a>
</g>
</g>
<!-- Node2&#45;&gt;Node3 -->
<g id="edge2_Node000002_Node000003" class="edge">
<title>Node2&#45;&gt;Node3</title>
<g id="a_edge2_Node000002_Node000003"><a xlink:title=" ">
<path fill="none" stroke="#63b8ff" d="M527.35,-219.98C544.57,-211.54 571.2,-198.47 591.15,-188.68"/>
<polygon fill="#63b8ff" stroke="#63b8ff" points="592.9,-191.72 600.33,-184.17 589.81,-185.43 592.9,-191.72"/>
</a>
</g>
</g>
<!-- Node2&#45;&gt;Node4 -->
<g id="edge12_Node000002_Node000004" class="edge">
<title>Node2&#45;&gt;Node4</title>
<g id="a_edge12_Node000002_Node000004"><a xlink:title=" ">
<path fill="none" stroke="#63b8ff" d="M536.74,-227.7C585.96,-225.46 693.47,-216.86 777,-184 806.72,-172.31 836.76,-150.46 855.12,-135.7"/>
<polygon fill="#63b8ff" stroke="#63b8ff" points="857.65,-138.15 863.15,-129.1 853.2,-132.74 857.65,-138.15"/>
</a>
</g>
</g>
<!-- Node2&#45;&gt;Node5 -->
<g id="edge25_Node000002_Node000005" class="edge">
<title>Node2&#45;&gt;Node5</title>
<g id="a_edge25_Node000002_Node000005"><a xlink:title=" ">
<path fill="none" stroke="#63b8ff" d="M509.03,-219.74C506.22,-194.31 498.03,-120.08 494.12,-84.69"/>
<polygon fill="#63b8ff" stroke="#63b8ff" points="497.55,-83.86 492.97,-74.31 490.59,-84.63 497.55,-83.86"/>
</a>
</g>
</g>
<!-- Node9 -->
<g id="Node000009" class="node">
<title>Node9</title>
<g id="a_Node000009"><a xlink:title=" ">
<polygon fill="#e0e0e0" stroke="#999999" points="905,-74 841,-74 841,-55 905,-55 905,-74"/>
<text text-anchor="middle" x="873" y="-62" font-family="Helvetica,sans-Serif" font-size="10.00">algorithm</text>
</a>
</g>
</g>
<!-- Node2&#45;&gt;Node9 -->
<g id="edge26_Node000002_Node000009" class="edge">
<title>Node2&#45;&gt;Node9</title>
<g id="a_edge26_Node000002_Node000009"><a xlink:title=" ">
<path fill="none" stroke="#63b8ff" d="M515.57,-219.78C524.7,-206.17 544.15,-179.87 567,-165 589.91,-150.09 756.64,-99.82 833.89,-76.98"/>
<polygon fill="#63b8ff" stroke="#63b8ff" points="835.14,-80.26 843.74,-74.07 833.16,-73.54 835.14,-80.26"/>
</a>
</g>
</g>
<!-- Node2&#45;&gt;Node12 -->
<g id="edge13_Node000002_Node000012" class="edge">
<title>Node2&#45;&gt;Node12</title>
<g id="a_edge13_Node000002_Node000012"><a xlink:title=" ">
<path fill="none" stroke="#63b8ff" d="M483.19,-222.93C440.19,-213.99 355.22,-196.33 301.97,-185.26"/>
<polygon fill="#63b8ff" stroke="#63b8ff" points="302.59,-181.82 292.09,-183.21 301.17,-188.67 302.59,-181.82"/>
</a>
</g>
</g>
<!-- Node2&#45;&gt;Node14 -->
<g id="edge17_Node000002_Node000014" class="edge">
<title>Node2&#45;&gt;Node14</title>
<g id="a_edge17_Node000002_Node000014"><a xlink:title=" ">
<path fill="none" stroke="#63b8ff" d="M511.46,-219.82C514.04,-206.71 520.46,-181.64 534,-165 544.78,-151.75 560.6,-141.22 574.47,-133.74"/>
<polygon fill="#63b8ff" stroke="#63b8ff" points="576.36,-136.71 583.68,-129.05 573.18,-130.47 576.36,-136.71"/>
</a>
</g>
</g>
<!-- Node16 -->
<g id="Node000016" class="node">
<title>Node16</title>
<g id="a_Node000016"><a xlink:href="value__utils_8hpp.html" target="_top" xlink:title=" ">
<polygon fill="white" stroke="#666666" points="768.5,-184 677.5,-184 677.5,-165 768.5,-165 768.5,-184"/>
<text text-anchor="middle" x="723" y="-172" font-family="Helvetica,sans-Serif" font-size="10.00">value_utils.hpp</text>
</a>
</g>
</g>
<!-- Node2&#45;&gt;Node16 -->
<g id="edge20_Node000002_Node000016" class="edge">
<title>Node2&#45;&gt;Node16</title>
<g id="a_edge20_Node000002_Node000016"><a xlink:title=" ">
<path fill="none" stroke="#63b8ff" d="M536.55,-221.89C572.16,-213.03 635.9,-197.17 678.82,-186.49"/>
<polygon fill="#63b8ff" stroke="#63b8ff" points="679.85,-189.84 688.71,-184.03 678.16,-183.05 679.85,-189.84"/>
</a>
</g>
</g>
<!-- Node3&#45;&gt;Node4 -->
<g id="edge3_Node000003_Node000004" class="edge">
<title>Node3&#45;&gt;Node4</title>
<g id="a_edge3_Node000003_Node000004"><a xlink:title=" ">
<path fill="none" stroke="#63b8ff" d="M658.97,-164.98C706.98,-155.01 785.97,-138.59 833.38,-128.73"/>
<polygon fill="#63b8ff" stroke="#63b8ff" points="834.21,-132.14 843.28,-126.68 832.78,-125.28 834.21,-132.14"/>
</a>
</g>
</g>
<!-- Node3&#45;&gt;Node5 -->
<g id="edge10_Node000003_Node000005" class="edge">
<title>Node3&#45;&gt;Node5</title>
<g id="a_edge10_Node000003_Node000005"><a xlink:title=" ">
<path fill="none" stroke="#63b8ff" d="M602.1,-164.88C587.56,-156.62 565.81,-143.34 549,-129 532.36,-114.81 515.95,-95.86 505.04,-82.37"/>
<polygon fill="#63b8ff" stroke="#63b8ff" points="507.68,-80.06 498.72,-74.39 502.19,-84.4 507.68,-80.06"/>
</a>
</g>
</g>
<!-- Node11 -->
<g id="Node000011" class="node">
<title>Node11</title>
<g id="a_Node000011"><a xlink:href="enums_8hpp.html" target="_top" xlink:title=" ">
<polygon fill="white" stroke="#666666" points="463.5,-129 392.5,-129 392.5,-110 463.5,-110 463.5,-129"/>
<text text-anchor="middle" x="428" y="-117" font-family="Helvetica,sans-Serif" font-size="10.00">enums.hpp</text>
</a>
</g>
</g>
<!-- Node3&#45;&gt;Node11 -->
<g id="edge11_Node000003_Node000011" class="edge">
<title>Node3&#45;&gt;Node11</title>
<g id="a_edge11_Node000003_Node000011"><a xlink:title=" ">
<path fill="none" stroke="#63b8ff" d="M587.47,-164.98C555.3,-156.01 504.44,-141.82 468.83,-131.89"/>
<polygon fill="#63b8ff" stroke="#63b8ff" points="469.34,-128.4 458.77,-129.08 467.46,-135.14 469.34,-128.4"/>
</a>
</g>
</g>
<!-- Node4&#45;&gt;Node5 -->
<g id="edge4_Node000004_Node000005" class="edge">
<title>Node4&#45;&gt;Node5</title>
<g id="a_edge4_Node000004_Node000005"><a xlink:title=" ">
<path fill="none" stroke="#63b8ff" d="M843.42,-114.39C776.32,-105.05 612.37,-82.24 534.46,-71.41"/>
<polygon fill="#63b8ff" stroke="#63b8ff" points="534.89,-67.93 524.5,-70.02 533.93,-74.87 534.89,-67.93"/>
</a>
</g>
</g>
<!-- Node4&#45;&gt;Node9 -->
<g id="edge8_Node000004_Node000009" class="edge">
<title>Node4&#45;&gt;Node9</title>
<g id="a_edge8_Node000004_Node000009"><a xlink:title=" ">
<path fill="none" stroke="#63b8ff" d="M873,-109.75C873,-102.8 873,-92.85 873,-84.13"/>
<polygon fill="#63b8ff" stroke="#63b8ff" points="876.5,-84.09 873,-74.09 869.5,-84.09 876.5,-84.09"/>
</a>
</g>
</g>
<!-- Node10 -->
<g id="Node000010" class="node">
<title>Node10</title>
<g id="a_Node000010"><a xlink:title=" ">
<polygon fill="#e0e0e0" stroke="#999999" points="1045.5,-74 976.5,-74 976.5,-55 1045.5,-55 1045.5,-74"/>
<text text-anchor="middle" x="1011" y="-62" font-family="Helvetica,sans-Serif" font-size="10.00">type_traits</text>
</a>
</g>
</g>
<!-- Node4&#45;&gt;Node10 -->
<g id="edge9_Node000004_Node000010" class="edge">
<title>Node4&#45;&gt;Node10</title>
<g id="a_edge9_Node000004_Node000010"><a xlink:title=" ">
<path fill="none" stroke="#63b8ff" d="M895.17,-109.98C917.77,-101.3 953.06,-87.75 978.75,-77.88"/>
<polygon fill="#63b8ff" stroke="#63b8ff" points="980.34,-81.02 988.42,-74.17 977.83,-74.49 980.34,-81.02"/>
</a>
</g>
</g>
<!-- Node6 -->
<g id="Node000006" class="node">
<title>Node6</title>
<g id="a_Node000006"><a xlink:title=" ">
<polygon fill="#e0e0e0" stroke="#999999" points="549,-19 505,-19 505,0 549,0 549,-19"/>
<text text-anchor="middle" x="527" y="-7" font-family="Helvetica,sans-Serif" font-size="10.00">string</text>
</a>
</g>
</g>
<!-- Node5&#45;&gt;Node6 -->
<g id="edge5_Node000005_Node000006" class="edge">
<title>Node5&#45;&gt;Node6</title>
<g id="a_edge5_Node000005_Node000006"><a xlink:title=" ">
<path fill="none" stroke="#63b8ff" d="M497.78,-54.75C502.62,-47.42 509.68,-36.73 515.64,-27.7"/>
<polygon fill="#63b8ff" stroke="#63b8ff" points="518.74,-29.36 521.33,-19.09 512.9,-25.5 518.74,-29.36"/>
</a>
</g>
</g>
<!-- Node7 -->
<g id="Node000007" class="node">
<title>Node7</title>
<g id="a_Node000007"><a xlink:title=" ">
<polygon fill="#e0e0e0" stroke="#999999" points="487,-19 427,-19 427,0 487,0 487,-19"/>
<text text-anchor="middle" x="457" y="-7" font-family="Helvetica,sans-Serif" font-size="10.00">iostream</text>
</a>
</g>
</g>
<!-- Node5&#45;&gt;Node7 -->
<g id="edge6_Node000005_Node000007" class="edge">
<title>Node5&#45;&gt;Node7</title>
<g id="a_edge6_Node000005_Node000007"><a xlink:title=" ">
<path fill="none" stroke="#63b8ff" d="M486.22,-54.75C481.38,-47.42 474.32,-36.73 468.36,-27.7"/>
<polygon fill="#63b8ff" stroke="#63b8ff" points="471.1,-25.5 462.67,-19.09 465.26,-29.36 471.1,-25.5"/>
</a>
</g>
</g>
<!-- Node8 -->
<g id="Node000008" class="node">
<title>Node8</title>
<g id="a_Node000008"><a xlink:title=" ">
<polygon fill="#e0e0e0" stroke="#999999" points="884.5,-19 837.5,-19 837.5,0 884.5,0 884.5,-19"/>
<text text-anchor="middle" x="861" y="-7" font-family="Helvetica,sans-Serif" font-size="10.00">vector</text>
</a>
</g>
</g>
<!-- Node5&#45;&gt;Node8 -->
<g id="edge7_Node000005_Node000008" class="edge">
<title>Node5&#45;&gt;Node8</title>
<g id="a_edge7_Node000005_Node000008"><a xlink:title=" ">
<path fill="none" stroke="#63b8ff" d="M524.75,-58.8C594.37,-48.8 756.51,-25.51 827.12,-15.37"/>
<polygon fill="#63b8ff" stroke="#63b8ff" points="827.85,-18.8 837.25,-13.91 826.85,-11.87 827.85,-18.8"/>
</a>
</g>
</g>
<!-- Node12&#45;&gt;Node4 -->
<g id="edge15_Node000012_Node000004" class="edge">
<title>Node12&#45;&gt;Node4</title>
<g id="a_edge15_Node000012_Node000004"><a xlink:title=" ">
<path fill="none" stroke="#63b8ff" d="M292.27,-170.3C401.48,-160.94 720.15,-133.61 832.9,-123.94"/>
<polygon fill="#63b8ff" stroke="#63b8ff" points="833.49,-127.4 843.15,-123.06 832.89,-120.43 833.49,-127.4"/>
</a>
</g>
</g>
<!-- Node12&#45;&gt;Node5 -->
<g id="edge16_Node000012_Node000005" class="edge">
<title>Node12&#45;&gt;Node5</title>
<g id="a_edge16_Node000012_Node000005"><a xlink:title=" ">
<path fill="none" stroke="#63b8ff" d="M256.02,-164.59C258.1,-150.7 264.17,-124.04 281,-110 306.12,-89.05 395.25,-75.97 449.31,-69.77"/>
<polygon fill="#63b8ff" stroke="#63b8ff" points="449.75,-73.25 459.3,-68.66 448.97,-66.29 449.75,-73.25"/>
</a>
</g>
</g>
<!-- Node13 -->
<g id="Node000013" class="node">
<title>Node13</title>
<g id="a_Node000013"><a xlink:title=" ">
<polygon fill="#e0e0e0" stroke="#999999" points="335.5,-129 290.5,-129 290.5,-110 335.5,-110 335.5,-129"/>
<text text-anchor="middle" x="313" y="-117" font-family="Helvetica,sans-Serif" font-size="10.00">utility</text>
</a>
</g>
</g>
<!-- Node12&#45;&gt;Node13 -->
<g id="edge14_Node000012_Node000013" class="edge">
<title>Node12&#45;&gt;Node13</title>
<g id="a_edge14_Node000012_Node000013"><a xlink:title=" ">
<path fill="none" stroke="#63b8ff" d="M264.32,-164.98C272.81,-157.23 285.56,-145.58 295.88,-136.14"/>
<polygon fill="#63b8ff" stroke="#63b8ff" points="298.49,-138.5 303.51,-129.17 293.77,-133.33 298.49,-138.5"/>
</a>
</g>
</g>
<!-- Node14&#45;&gt;Node5 -->
<g id="edge19_Node000014_Node000005" class="edge">
<title>Node14&#45;&gt;Node5</title>
<g id="a_edge19_Node000014_Node000005"><a xlink:title=" ">
<path fill="none" stroke="#63b8ff" d="M586.01,-109.98C568.07,-101.5 540.28,-88.35 519.57,-78.54"/>
<polygon fill="#63b8ff" stroke="#63b8ff" points="520.86,-75.28 510.32,-74.17 517.86,-81.61 520.86,-75.28"/>
</a>
</g>
</g>
<!-- Node15 -->
<g id="Node000015" class="node">
<title>Node15</title>
<g id="a_Node000015"><a xlink:title=" ">
<polygon fill="#e0e0e0" stroke="#999999" points="636.5,-74 571.5,-74 571.5,-55 636.5,-55 636.5,-74"/>
<text text-anchor="middle" x="604" y="-62" font-family="Helvetica,sans-Serif" font-size="10.00">stdexcept</text>
</a>
</g>
</g>
<!-- Node14&#45;&gt;Node15 -->
<g id="edge18_Node000014_Node000015" class="edge">
<title>Node14&#45;&gt;Node15</title>
<g id="a_edge18_Node000014_Node000015"><a xlink:title=" ">
<path fill="none" stroke="#63b8ff" d="M604,-109.75C604,-102.8 604,-92.85 604,-84.13"/>
<polygon fill="#63b8ff" stroke="#63b8ff" points="607.5,-84.09 604,-74.09 600.5,-84.09 607.5,-84.09"/>
</a>
</g>
</g>
<!-- Node16&#45;&gt;Node4 -->
<g id="edge21_Node000016_Node000004" class="edge">
<title>Node16&#45;&gt;Node4</title>
<g id="a_edge21_Node000016_Node000004"><a xlink:title=" ">
<path fill="none" stroke="#63b8ff" d="M747.1,-164.98C771.88,-156.23 810.7,-142.51 838.69,-132.62"/>
<polygon fill="#63b8ff" stroke="#63b8ff" points="840.2,-135.8 848.46,-129.17 837.87,-129.2 840.2,-135.8"/>
</a>
</g>
</g>
<!-- Node16&#45;&gt;Node5 -->
<g id="edge23_Node000016_Node000005" class="edge">
<title>Node16&#45;&gt;Node5</title>
<g id="a_edge23_Node000016_Node000005"><a xlink:title=" ">
<path fill="none" stroke="#63b8ff" d="M716.45,-164.67C705.77,-150.89 683.22,-124.37 658,-110 619.42,-88.02 569.6,-76.56 534.65,-70.81"/>
<polygon fill="#63b8ff" stroke="#63b8ff" points="535.17,-67.35 524.75,-69.27 534.1,-74.27 535.17,-67.35"/>
</a>
</g>
</g>
<!-- Node16&#45;&gt;Node9 -->
<g id="edge24_Node000016_Node000009" class="edge">
<title>Node16&#45;&gt;Node9</title>
<g id="a_edge24_Node000016_Node000009"><a xlink:title=" ">
<path fill="none" stroke="#63b8ff" d="M735.02,-164.84C760.69,-146.36 821.11,-102.86 852.8,-80.05"/>
<polygon fill="#63b8ff" stroke="#63b8ff" points="854.85,-82.88 860.92,-74.2 850.76,-77.2 854.85,-82.88"/>
</a>
</g>
</g>
<!-- Node16&#45;&gt;Node14 -->
<g id="edge22_Node000016_Node000014" class="edge">
<title>Node16&#45;&gt;Node14</title>
<g id="a_edge22_Node000016_Node000014"><a xlink:title=" ">
<path fill="none" stroke="#63b8ff" d="M703.88,-164.98C684.65,-156.42 654.77,-143.11 632.69,-133.28"/>
<polygon fill="#63b8ff" stroke="#63b8ff" points="634.03,-130.04 623.47,-129.17 631.18,-136.44 634.03,-130.04"/>
</a>
</g>
</g>
<!-- Node17&#45;&gt;Node4 -->
<g id="edge28_Node000017_Node000004" class="edge">
<title>Node17&#45;&gt;Node4</title>
<g id="a_edge28_Node000017_Node000004"><a xlink:title=" ">
<path fill="none" stroke="#63b8ff" d="M1305.08,-329.83C1301.53,-300.91 1285.88,-207.24 1229,-165 1179.66,-128.36 994.83,-121.76 912.73,-120.67"/>
<polygon fill="#63b8ff" stroke="#63b8ff" points="912.58,-117.17 902.54,-120.55 912.5,-124.16 912.58,-117.17"/>
</a>
</g>
</g>
<!-- Node18&#45;&gt;Node4 -->
<g id="edge60_Node000018_Node000004" class="edge">
<title>Node18&#45;&gt;Node4</title>
<g id="a_edge60_Node000018_Node000004"><a xlink:title=" ">
<path fill="none" stroke="#63b8ff" d="M553.02,-393.59C676.8,-392.7 1025,-381.65 1025,-285.5 1025,-285.5 1025,-285.5 1025,-228.5 1025,-173.27 957.5,-143.69 912.46,-130.1"/>
<polygon fill="#63b8ff" stroke="#63b8ff" points="913.25,-126.68 902.67,-127.29 911.31,-133.41 913.25,-126.68"/>
</a>
</g>
</g>
<!-- Node18&#45;&gt;Node5 -->
<g id="edge64_Node000018_Node000005" class="edge">
<title>Node18&#45;&gt;Node5</title>
<g id="a_edge64_Node000018_Node000005"><a xlink:title=" ">
<path fill="none" stroke="#63b8ff" d="M466.86,-392.77C350.34,-389.62 38,-373.03 38,-285.5 38,-285.5 38,-285.5 38,-173.5 38,-89.43 336.33,-70.69 449.32,-66.61"/>
<polygon fill="#63b8ff" stroke="#63b8ff" points="449.47,-70.11 459.35,-66.27 449.24,-63.11 449.47,-70.11"/>
</a>
</g>
</g>
<!-- Node18&#45;&gt;Node11 -->
<g id="edge63_Node000018_Node000011" class="edge">
<title>Node18&#45;&gt;Node11</title>
<g id="a_edge63_Node000018_Node000011"><a xlink:title=" ">
<path fill="none" stroke="#63b8ff" d="M466.83,-388.35C392.06,-376.84 240.29,-341.4 176,-239 158.51,-211.15 154.86,-190.2 176,-165 189.12,-149.36 313.32,-133.24 382.32,-125.39"/>
<polygon fill="#63b8ff" stroke="#63b8ff" points="382.94,-128.84 392.49,-124.25 382.16,-121.88 382.94,-128.84"/>
</a>
</g>
</g>
<!-- Node18&#45;&gt;Node12 -->
<g id="edge61_Node000018_Node000012" class="edge">
<title>Node18&#45;&gt;Node12</title>
<g id="a_edge61_Node000018_Node000012"><a xlink:title=" ">
<path fill="none" stroke="#63b8ff" d="M494.04,-384.93C456.47,-364.12 361.06,-307.56 301,-239 288.01,-224.17 274.99,-205.79 266.14,-192.63"/>
<polygon fill="#63b8ff" stroke="#63b8ff" points="268.92,-190.5 260.49,-184.09 263.09,-194.36 268.92,-190.5"/>
</a>
</g>
</g>
<!-- Node18&#45;&gt;Node16 -->
<g id="edge62_Node000018_Node000016" class="edge">
<title>Node18&#45;&gt;Node16</title>
<g id="a_edge62_Node000018_Node000016"><a xlink:title=" ">
<path fill="none" stroke="#63b8ff" d="M518.35,-384.95C550.29,-352.27 665.03,-234.83 707.26,-191.61"/>
<polygon fill="#63b8ff" stroke="#63b8ff" points="709.99,-193.82 714.48,-184.22 704.98,-188.93 709.99,-193.82"/>
</a>
</g>
</g>
<!-- Node19 -->
<g id="Node000019" class="node">
<title>Node19</title>
<g id="a_Node000019"><a xlink:href="api_8hpp.html" target="_top" xlink:title=" ">
<polygon fill="white" stroke="#666666" points="536.5,-349 483.5,-349 483.5,-330 536.5,-330 536.5,-349"/>
<text text-anchor="middle" x="510" y="-337" font-family="Helvetica,sans-Serif" font-size="10.00">api.hpp</text>
</a>
</g>
</g>
<!-- Node18&#45;&gt;Node19 -->
<g id="edge34_Node000018_Node000019" class="edge">
<title>Node18&#45;&gt;Node19</title>
<g id="a_edge34_Node000018_Node000019"><a xlink:title=" ">
<path fill="none" stroke="#63b8ff" d="M504.83,-384.75C503.34,-377.8 502.9,-367.85 503.52,-359.13"/>
<polygon fill="#63b8ff" stroke="#63b8ff" points="507.01,-359.47 504.87,-349.09 500.07,-358.53 507.01,-359.47"/>
</a>
</g>
</g>
<!-- Node22 -->
<g id="Node000022" class="node">
<title>Node22</title>
<g id="a_Node000022"><a xlink:href="group__iface_8hpp.html" target="_top" xlink:title=" ">
<polygon fill="white" stroke="#666666" points="996.5,-239 901.5,-239 901.5,-220 996.5,-220 996.5,-239"/>
<text text-anchor="middle" x="949" y="-227" font-family="Helvetica,sans-Serif" font-size="10.00">group_iface.hpp</text>
</a>
</g>
</g>
<!-- Node18&#45;&gt;Node22 -->
<g id="edge59_Node000018_Node000022" class="edge">
<title>Node18&#45;&gt;Node22</title>
<g id="a_edge59_Node000018_Node000022"><a xlink:title=" ">
<path fill="none" stroke="#63b8ff" d="M548.25,-384.97C610.65,-370.38 737.56,-337.92 839,-294 871.4,-279.97 906.31,-258.65 927.9,-244.64"/>
<polygon fill="#63b8ff" stroke="#63b8ff" points="929.86,-247.55 936.3,-239.13 926.02,-241.7 929.86,-247.55"/>
</a>
</g>
</g>
<!-- Node19&#45;&gt;Node2 -->
<g id="edge36_Node000019_Node000002" class="edge">
<title>Node19&#45;&gt;Node2</title>
<g id="a_edge36_Node000019_Node000002"><a xlink:title=" ">
<path fill="none" stroke="#63b8ff" d="M510,-329.66C510,-312.17 510,-272.8 510,-249.27"/>
<polygon fill="#63b8ff" stroke="#63b8ff" points="513.5,-249.16 510,-239.16 506.5,-249.16 513.5,-249.16"/>
</a>
</g>
</g>
<!-- Node19&#45;&gt;Node5 -->
<g id="edge35_Node000019_Node000005" class="edge">
<title>Node19&#45;&gt;Node5</title>
<g id="a_edge35_Node000019_Node000005"><a xlink:title=" ">
<path fill="none" stroke="#63b8ff" d="M483.2,-337.59C425.54,-334.13 289.08,-317.59 217,-239 199.79,-220.24 204.59,-209.2 201,-184 196.04,-149.19 200.66,-130.82 229,-110 263.27,-84.82 383.75,-72.86 449.09,-68.12"/>
<polygon fill="#63b8ff" stroke="#63b8ff" points="449.35,-71.61 459.08,-67.42 448.86,-64.63 449.35,-71.61"/>
</a>
</g>
</g>
<!-- Node19&#45;&gt;Node18 -->
<g id="edge58_Node000019_Node000018" class="edge">
<title>Node19&#45;&gt;Node18</title>
<g id="a_edge58_Node000019_Node000018"><a xlink:title=" ">
<path fill="none" stroke="#63b8ff" d="M515.13,-349.09C516.64,-355.99 517.09,-365.93 516.49,-374.66"/>
<polygon fill="#63b8ff" stroke="#63b8ff" points="513,-374.38 515.17,-384.75 519.94,-375.29 513,-374.38"/>
</a>
</g>
</g>
<!-- Node20 -->
<g id="Node000020" class="node">
<title>Node20</title>
<g id="a_Node000020"><a xlink:href="multi__arg_8hpp.html" target="_top" xlink:title=" ">
<polygon fill="white" stroke="#666666" points="452,-294 368,-294 368,-275 452,-275 452,-294"/>
<text text-anchor="middle" x="410" y="-282" font-family="Helvetica,sans-Serif" font-size="10.00">multi_arg.hpp</text>
</a>
</g>
</g>
<!-- Node19&#45;&gt;Node20 -->
<g id="edge37_Node000019_Node000020" class="edge">
<title>Node19&#45;&gt;Node20</title>
<g id="a_edge37_Node000019_Node000020"><a xlink:title=" ">
<path fill="none" stroke="#63b8ff" d="M493.93,-329.98C478.14,-321.61 453.78,-308.7 435.37,-298.95"/>
<polygon fill="#63b8ff" stroke="#63b8ff" points="436.83,-295.76 426.36,-294.17 433.56,-301.95 436.83,-295.76"/>
</a>
</g>
</g>
<!-- Node21 -->
<g id="Node000021" class="node">
<title>Node21</title>
<g id="a_Node000021"><a xlink:href="groups_8hpp.html" target="_top" xlink:title=" ">
<polygon fill="white" stroke="#666666" points="830.5,-294 759.5,-294 759.5,-275 830.5,-275 830.5,-294"/>
<text text-anchor="middle" x="795" y="-282" font-family="Helvetica,sans-Serif" font-size="10.00">groups.hpp</text>
</a>
</g>
</g>
<!-- Node19&#45;&gt;Node21 -->
<g id="edge45_Node000019_Node000021" class="edge">
<title>Node19&#45;&gt;Node21</title>
<g id="a_edge45_Node000019_Node000021"><a xlink:title=" ">
<path fill="none" stroke="#63b8ff" d="M536.56,-333.56C585.15,-324.52 688.91,-305.23 749.13,-294.03"/>
<polygon fill="#63b8ff" stroke="#63b8ff" points="749.94,-297.44 759.13,-292.17 748.66,-290.56 749.94,-297.44"/>
</a>
</g>
</g>
<!-- Node20&#45;&gt;Node2 -->
<g id="edge38_Node000020_Node000002" class="edge">
<title>Node20&#45;&gt;Node2</title>
<g id="a_edge38_Node000020_Node000002"><a xlink:title=" ">
<path fill="none" stroke="#63b8ff" d="M426.07,-274.98C441.86,-266.61 466.22,-253.7 484.63,-243.95"/>
<polygon fill="#63b8ff" stroke="#63b8ff" points="486.44,-246.95 493.64,-239.17 483.17,-240.76 486.44,-246.95"/>
</a>
</g>
</g>
<!-- Node20&#45;&gt;Node4 -->
<g id="edge42_Node000020_Node000004" class="edge">
<title>Node20&#45;&gt;Node4</title>
<g id="a_edge42_Node000020_Node000004"><a xlink:title=" ">
<path fill="none" stroke="#63b8ff" d="M452.18,-280.49C528.27,-273.49 691.62,-251.24 810,-184 830.58,-172.31 848.98,-152.04 860.5,-137.55"/>
<polygon fill="#63b8ff" stroke="#63b8ff" points="863.44,-139.46 866.75,-129.39 857.89,-135.2 863.44,-139.46"/>
</a>
</g>
</g>
<!-- Node20&#45;&gt;Node5 -->
<g id="edge43_Node000020_Node000005" class="edge">
<title>Node20&#45;&gt;Node5</title>
<g id="a_edge43_Node000020_Node000005"><a xlink:title=" ">
<path fill="none" stroke="#63b8ff" d="M367.82,-277.6C300.8,-266.03 180.33,-235.12 209,-165 221.96,-133.29 232.83,-126.22 263,-110 322.32,-78.11 401.21,-68.87 449.21,-66.32"/>
<polygon fill="#63b8ff" stroke="#63b8ff" points="449.42,-69.81 459.25,-65.85 449.1,-62.82 449.42,-69.81"/>
</a>
</g>
</g>
<!-- Node20&#45;&gt;Node12 -->
<g id="edge39_Node000020_Node000012" class="edge">
<title>Node20&#45;&gt;Node12</title>
<g id="a_edge39_Node000020_Node000012"><a xlink:title=" ">
<path fill="none" stroke="#63b8ff" d="M391.41,-274.87C374.34,-266.61 348.63,-253.31 328,-239 307.23,-224.59 285.66,-205.18 271.4,-191.63"/>
<polygon fill="#63b8ff" stroke="#63b8ff" points="273.54,-188.83 263.91,-184.41 268.68,-193.87 273.54,-188.83"/>
</a>
</g>
</g>
<!-- Node20&#45;&gt;Node13 -->
<g id="edge44_Node000020_Node000013" class="edge">
<title>Node20&#45;&gt;Node13</title>
<g id="a_edge44_Node000020_Node000013"><a xlink:title=" ">
<path fill="none" stroke="#63b8ff" d="M399.49,-274.84C389.82,-266.45 375.57,-252.99 366,-239 343.7,-206.42 327.1,-162.94 318.85,-138.74"/>
<polygon fill="#63b8ff" stroke="#63b8ff" points="322.11,-137.47 315.65,-129.08 315.47,-139.67 322.11,-137.47"/>
</a>
</g>
</g>
<!-- Node20&#45;&gt;Node14 -->
<g id="edge40_Node000020_Node000014" class="edge">
<title>Node20&#45;&gt;Node14</title>
<g id="a_edge40_Node000020_Node000014"><a xlink:title=" ">
<path fill="none" stroke="#63b8ff" d="M416.29,-274.81C431.82,-253.82 473.99,-199.55 519,-165 535.68,-152.2 556.57,-141.2 573.47,-133.34"/>
<polygon fill="#63b8ff" stroke="#63b8ff" points="575.23,-136.39 582.9,-129.09 572.35,-130.01 575.23,-136.39"/>
</a>
</g>
</g>
<!-- Node20&#45;&gt;Node16 -->
<g id="edge41_Node000020_Node000016" class="edge">
<title>Node20&#45;&gt;Node16</title>
<g id="a_edge41_Node000020_Node000016"><a xlink:title=" ">
<path fill="none" stroke="#63b8ff" d="M438.44,-274.94C465.94,-266.46 508.67,-252.8 545,-239 564.91,-231.44 569.1,-227.59 589,-220 621.09,-207.77 658.19,-195.6 685.21,-187.08"/>
<polygon fill="#63b8ff" stroke="#63b8ff" points="686.54,-190.33 695.03,-184.01 684.45,-183.65 686.54,-190.33"/>
</a>
</g>
</g>
<!-- Node21&#45;&gt;Node5 -->
<g id="edge56_Node000021_Node000005" class="edge">
<title>Node21&#45;&gt;Node5</title>
<g id="a_edge56_Node000021_Node000005"><a xlink:title=" ">
<path fill="none" stroke="#63b8ff" d="M759.42,-281.8C686.4,-277.79 522.4,-265.99 474,-239 412.72,-204.83 343.87,-168.24 383,-110 397.81,-87.95 425.67,-76.82 449.51,-71.21"/>
<polygon fill="#63b8ff" stroke="#63b8ff" points="450.37,-74.6 459.44,-69.12 448.93,-67.75 450.37,-74.6"/>
</a>
</g>
</g>
<!-- Node21&#45;&gt;Node9 -->
<g id="edge57_Node000021_Node000009" class="edge">
<title>Node21&#45;&gt;Node9</title>
<g id="a_edge57_Node000021_Node000009"><a xlink:title=" ">
<path fill="none" stroke="#63b8ff" d="M830.81,-280.25C920.68,-271.28 1151.73,-242.81 1196,-184 1232.26,-135.82 1010.43,-89.93 915.05,-72.69"/>
<polygon fill="#63b8ff" stroke="#63b8ff" points="915.6,-69.23 905.14,-70.92 914.37,-76.12 915.6,-69.23"/>
</a>
</g>
</g>
<!-- Node21&#45;&gt;Node22 -->
<g id="edge46_Node000021_Node000022" class="edge">
<title>Node21&#45;&gt;Node22</title>
<g id="a_edge46_Node000021_Node000022"><a xlink:title=" ">
<path fill="none" stroke="#63b8ff" d="M819.74,-274.98C845.37,-266.16 885.63,-252.31 914.41,-242.41"/>
<polygon fill="#63b8ff" stroke="#63b8ff" points="915.75,-245.65 924.06,-239.08 913.47,-239.03 915.75,-245.65"/>
</a>
</g>
</g>
<!-- Node22&#45;&gt;Node3 -->
<g id="edge47_Node000022_Node000003" class="edge">
<title>Node22&#45;&gt;Node3</title>
<g id="a_edge47_Node000022_Node000003"><a xlink:title=" ">
<path fill="none" stroke="#63b8ff" d="M901.24,-221.11C847.39,-212.73 756.91,-198.55 669.79,-184.28"/>
<polygon fill="#63b8ff" stroke="#63b8ff" points="670.17,-180.8 659.74,-182.63 669.04,-187.7 670.17,-180.8"/>
</a>
</g>
</g>
<!-- Node22&#45;&gt;Node4 -->
<g id="edge48_Node000022_Node000004" class="edge">
<title>Node22&#45;&gt;Node4</title>
<g id="a_edge48_Node000022_Node000004"><a xlink:title=" ">
<path fill="none" stroke="#63b8ff" d="M947.13,-219.62C944.1,-206.7 937.19,-182.36 925,-165 916.89,-153.45 905.12,-143.04 894.82,-135.2"/>
<polygon fill="#63b8ff" stroke="#63b8ff" points="896.78,-132.3 886.63,-129.25 892.66,-137.96 896.78,-132.3"/>
</a>
</g>
</g>
<!-- Node22&#45;&gt;Node5 -->
<g id="edge50_Node000022_Node000005" class="edge">
<title>Node22&#45;&gt;Node5</title>
<g id="a_edge50_Node000022_Node000005"><a xlink:title=" ">
<path fill="none" stroke="#63b8ff" d="M932.19,-219.96C907.41,-207.45 859.51,-183.62 818,-165 759.64,-138.82 745.93,-129.47 685,-110 634.19,-93.76 574.08,-80.86 534.61,-73.22"/>
<polygon fill="#63b8ff" stroke="#63b8ff" points="535.02,-69.73 524.54,-71.3 533.71,-76.61 535.02,-69.73"/>
</a>
</g>
</g>
<!-- Node22&#45;&gt;Node8 -->
<g id="edge51_Node000022_Node000008" class="edge">
<title>Node22&#45;&gt;Node8</title>
<g id="a_edge51_Node000022_Node000008"><a xlink:title=" ">
<path fill="none" stroke="#63b8ff" d="M969.88,-219.99C985.49,-212.62 1006.26,-200.54 1019,-184 1055.25,-136.93 1090.99,-101.49 1054,-55 1034.46,-30.44 944.68,-18.28 894.75,-13.32"/>
<polygon fill="#63b8ff" stroke="#63b8ff" points="895.02,-9.84 884.74,-12.37 894.36,-16.8 895.02,-9.84"/>
</a>
</g>
</g>
<!-- Node22&#45;&gt;Node9 -->
<g id="edge53_Node000022_Node000009" class="edge">
<title>Node22&#45;&gt;Node9</title>
<g id="a_edge53_Node000022_Node000009"><a xlink:title=" ">
<path fill="none" stroke="#63b8ff" d="M949.56,-219.63C950.07,-207.12 950,-183.75 944,-165 933.29,-131.52 906.72,-99.71 889.29,-81.43"/>
<polygon fill="#63b8ff" stroke="#63b8ff" points="891.52,-78.7 882.02,-74.02 886.53,-83.61 891.52,-78.7"/>
</a>
</g>
</g>
<!-- Node22&#45;&gt;Node10 -->
<g id="edge52_Node000022_Node000010" class="edge">
<title>Node22&#45;&gt;Node10</title>
<g id="a_edge52_Node000022_Node000010"><a xlink:title=" ">
<path fill="none" stroke="#63b8ff" d="M964.67,-219.78C976.85,-212.08 992.98,-199.65 1001,-184 1017.42,-151.96 1016.11,-108.58 1013.61,-84.18"/>
<polygon fill="#63b8ff" stroke="#63b8ff" points="1017.07,-83.65 1012.39,-74.14 1010.12,-84.49 1017.07,-83.65"/>
</a>
</g>
</g>
<!-- Node22&#45;&gt;Node13 -->
<g id="edge54_Node000022_Node000013" class="edge">
<title>Node22&#45;&gt;Node13</title>
<g id="a_edge54_Node000022_Node000013"><a xlink:title=" ">
<path fill="none" stroke="#63b8ff" d="M901.36,-224.94C828.79,-219.07 686.38,-205.78 567,-184 486.39,-169.29 393.35,-143.81 345.37,-130.02"/>
<polygon fill="#63b8ff" stroke="#63b8ff" points="346.13,-126.6 335.55,-127.18 344.19,-133.32 346.13,-126.6"/>
</a>
</g>
</g>
<!-- Node22&#45;&gt;Node14 -->
<g id="edge49_Node000022_Node000014" class="edge">
<title>Node22&#45;&gt;Node14</title>
<g id="a_edge49_Node000022_Node000014"><a xlink:title=" ">
<path fill="none" stroke="#63b8ff" d="M928.05,-219.98C895.9,-207.08 832.3,-182.27 777,-165 735.1,-151.92 686.66,-139.7 651.71,-131.39"/>
<polygon fill="#63b8ff" stroke="#63b8ff" points="652.31,-127.93 641.77,-129.04 650.7,-134.75 652.31,-127.93"/>
</a>
</g>
</g>
<!-- Node22&#45;&gt;Node23 -->
<g id="edge55_Node000022_Node000023" class="edge">
<title>Node22&#45;&gt;Node23</title>
<g id="a_edge55_Node000022_Node000023"><a xlink:title=" ">
<path fill="none" stroke="#63b8ff" d="M982.58,-219.98C1019.84,-210.54 1079.87,-195.31 1119.13,-185.36"/>
<polygon fill="#63b8ff" stroke="#63b8ff" points="1120.05,-188.73 1128.89,-182.88 1118.33,-181.95 1120.05,-188.73"/>
</a>
</g>
</g>
</g>
</svg>
