<?xml version="1.0" encoding="UTF-8" standalone="no"?>
<!DOCTYPE svg PUBLIC "-//W3C//DTD SVG 1.1//EN"
 "http://www.w3.org/Graphics/SVG/1.1/DTD/svg11.dtd">
<!-- Generated by graphviz version 2.43.0 (0)
 -->
<!-- Title: help_printer.hpp Pages: 1 -->
<!--zoomable 588 -->
<svg id="main" version="1.1" xmlns="http://www.w3.org/2000/svg" xmlns:xlink="http://www.w3.org/1999/xlink" xml:space="preserve" onload="init(evt)">
<style type="text/css"><![CDATA[
.edge:hover path { stroke: red; }
.edge:hover polygon { stroke: red; fill: red; }
]]></style>
<script type="text/javascript"><![CDATA[
var edges = document.getElementsByTagName('g');
if (edges && edges.length) {
  for (var i=0;i<edges.length;i++) {
    if (edges[i].id.substr(0,4)=='edge') {
      edges[i].setAttribute('class','edge');
    }
  }
}
]]></script>
        <defs>
                <circle id="rim" cx="0" cy="0" r="7"/>
                <circle id="rim2" cx="0" cy="0" r="3.5"/>
                <g id="zoomPlus">
                        <use xlink:href="#rim" fill="#404040">
                                <set attributeName="fill" to="#808080" begin="zoomplus.mouseover" end="zoomplus.mouseout"/>
                        </use>
                        <path d="M-4,0h8M0,-4v8" fill="none" stroke="white" stroke-width="1.5" pointer-events="none"/>
                </g>
                <g id="zoomMin">
                        <use xlink:href="#rim" fill="#404040">
                                <set attributeName="fill" to="#808080" begin="zoomminus.mouseover" end="zoomminus.mouseout"/>
                        </use>
                        <path d="M-4,0h8" fill="none" stroke="white" stroke-width="1.5" pointer-events="none"/>
                </g>
                <g id="dirArrow">
                        <path fill="none" stroke="white" stroke-width="1.5" d="M0,-3.0v7 M-2.5,-0.5L0,-3.0L2.5,-0.5"/>
                </g>
               <g id="resetDef">
                       <use xlink:href="#rim2" fill="#404040">
                               <set attributeName="fill" to="#808080" begin="reset.mouseover" end="reset.mouseout"/>
                       </use>
               </g>
        </defs>

<script type="text/javascript">
var viewWidth = 1751;
var viewHeight = 588;
var sectionId = 'dynsection-0';
</script>
<script xlink:href="svgpan.js"/>
<svg id="graph" class="graph">
<g id="viewport">
<title>help_printer.hpp</title>
<!-- Node1 -->
<g id="node1" class="node">
<title>Node1</title>
<g id="a_node1"><a xlink:title=" ">
<polygon fill="#bfbfbf" stroke="black" points="404.5,-560.5 404.5,-579.5 499.5,-579.5 499.5,-560.5 404.5,-560.5"/>
<text text-anchor="middle" x="452" y="-567.5" font-family="Helvetica,sans-Serif" font-size="10.00">help_printer.hpp</text>
</a>
</g>
</g>
<!-- Node2 -->
<g id="node2" class="node">
<title>Node2</title>
<g id="a_node2"><a xlink:title=" ">
<polygon fill="none" stroke="#bfbfbf" points="71.5,-0.5 71.5,-19.5 118.5,-19.5 118.5,-0.5 71.5,-0.5"/>
<text text-anchor="middle" x="95" y="-7.5" font-family="Helvetica,sans-Serif" font-size="10.00">vector</text>
</a>
</g>
</g>
<!-- Node1&#45;&gt;Node2 -->
<g id="edge1" class="edge">
<title>Node1&#45;&gt;Node2</title>
<path fill="none" stroke="midnightblue" d="M404.37,-566.63C317.2,-561.75 135.65,-548.87 78,-524 36.56,-506.13 0,-504.13 0,-459 0,-459 0,-459 0,-121 0,-77.74 42.61,-43.09 70.75,-24.91"/>
<polygon fill="midnightblue" stroke="midnightblue" points="72.66,-27.85 79.31,-19.6 68.97,-21.9 72.66,-27.85"/>
</g>
<!-- Node3 -->
<g id="node3" class="node">
<title>Node3</title>
<g id="a_node3"><a xlink:title=" ">
<polygon fill="none" stroke="#bfbfbf" points="287,-56.5 287,-75.5 351,-75.5 351,-56.5 287,-56.5"/>
<text text-anchor="middle" x="319" y="-63.5" font-family="Helvetica,sans-Serif" font-size="10.00">algorithm</text>
</a>
</g>
</g>
<!-- Node1&#45;&gt;Node3 -->
<g id="edge2" class="edge">
<title>Node1&#45;&gt;Node3</title>
<path fill="none" stroke="midnightblue" d="M404.1,-566.38C295.13,-559.11 38,-534.02 38,-459 38,-459 38,-459 38,-289 38,-168.51 199.04,-103.22 277.29,-78.61"/>
<polygon fill="midnightblue" stroke="midnightblue" points="278.78,-81.82 287.31,-75.54 276.73,-75.12 278.78,-81.82"/>
</g>
<!-- Node4 -->
<g id="node4" class="node">
<title>Node4</title>
<g id="a_node4"><a xlink:title=" ">
<polygon fill="none" stroke="#bfbfbf" points="1677.5,-504.5 1677.5,-523.5 1742.5,-523.5 1742.5,-504.5 1677.5,-504.5"/>
<text text-anchor="middle" x="1710" y="-511.5" font-family="Helvetica,sans-Serif" font-size="10.00">functional</text>
</a>
</g>
</g>
<!-- Node1&#45;&gt;Node4 -->
<g id="edge3" class="edge">
<title>Node1&#45;&gt;Node4</title>
<path fill="none" stroke="midnightblue" d="M499.77,-568.2C694.84,-564.76 1431.62,-550.3 1663,-524 1664.47,-523.83 1665.96,-523.65 1667.47,-523.44"/>
<polygon fill="midnightblue" stroke="midnightblue" points="1668.14,-526.88 1677.48,-521.89 1667.06,-519.96 1668.14,-526.88"/>
</g>
<!-- Node5 -->
<g id="node5" class="node">
<title>Node5</title>
<g id="a_node5"><a xlink:href="utils_8hpp.html" target="_top" xlink:title=" ">
<polygon fill="none" stroke="black" points="408.5,-112.5 408.5,-131.5 467.5,-131.5 467.5,-112.5 408.5,-112.5"/>
<text text-anchor="middle" x="438" y="-119.5" font-family="Helvetica,sans-Serif" font-size="10.00">utils.hpp</text>
</a>
</g>
</g>
<!-- Node1&#45;&gt;Node5 -->
<g id="edge4" class="edge">
<title>Node1&#45;&gt;Node5</title>
<path fill="none" stroke="midnightblue" d="M404.46,-561.69C319.87,-547.32 152,-512.12 152,-459 152,-459 152,-459 152,-233 152,-180.81 319.98,-144.01 398.46,-129.66"/>
<polygon fill="midnightblue" stroke="midnightblue" points="399.25,-133.08 408.47,-127.87 398.01,-126.19 399.25,-133.08"/>
</g>
<!-- Node7 -->
<g id="node7" class="node">
<title>Node7</title>
<g id="a_node7"><a xlink:href="types_8hpp.html" target="_top" xlink:title=" ">
<polygon fill="none" stroke="black" points="1109.5,-56.5 1109.5,-75.5 1174.5,-75.5 1174.5,-56.5 1109.5,-56.5"/>
<text text-anchor="middle" x="1142" y="-63.5" font-family="Helvetica,sans-Serif" font-size="10.00">types.hpp</text>
</a>
</g>
</g>
<!-- Node1&#45;&gt;Node7 -->
<g id="edge66" class="edge">
<title>Node1&#45;&gt;Node7</title>
<path fill="none" stroke="midnightblue" d="M499.86,-569.01C633.36,-568.53 1020.98,-563.55 1340,-524 1479.27,-506.74 1649,-599.34 1649,-459 1649,-459 1649,-459 1649,-177 1649,-82.37 1307.42,-68.98 1185.01,-67.21"/>
<polygon fill="midnightblue" stroke="midnightblue" points="1184.92,-63.71 1174.88,-67.09 1184.83,-70.71 1184.92,-63.71"/>
</g>
<!-- Node11 -->
<g id="node11" class="node">
<title>Node11</title>
<g id="a_node11"><a xlink:href="exceptions_8hpp.html" target="_top" xlink:title=" ">
<polygon fill="none" stroke="black" points="1402.5,-112.5 1402.5,-131.5 1493.5,-131.5 1493.5,-112.5 1402.5,-112.5"/>
<text text-anchor="middle" x="1448" y="-119.5" font-family="Helvetica,sans-Serif" font-size="10.00">exceptions.hpp</text>
</a>
</g>
</g>
<!-- Node1&#45;&gt;Node11 -->
<g id="edge12" class="edge">
<title>Node1&#45;&gt;Node11</title>
<path fill="none" stroke="midnightblue" d="M499.59,-567.02C717.69,-557.65 1611,-515.78 1611,-459 1611,-459 1611,-459 1611,-289 1611,-213.24 1523.49,-159.38 1476.71,-136"/>
<polygon fill="midnightblue" stroke="midnightblue" points="1478.19,-132.83 1467.66,-131.6 1475.13,-139.12 1478.19,-132.83"/>
</g>
<!-- Node13 -->
<g id="node13" class="node">
<title>Node13</title>
<g id="a_node13"><a xlink:href="group__iface_8hpp.html" target="_top" xlink:title=" ">
<polygon fill="none" stroke="black" points="384.5,-224.5 384.5,-243.5 479.5,-243.5 479.5,-224.5 384.5,-224.5"/>
<text text-anchor="middle" x="432" y="-231.5" font-family="Helvetica,sans-Serif" font-size="10.00">group_iface.hpp</text>
</a>
</g>
</g>
<!-- Node1&#45;&gt;Node13 -->
<g id="edge15" class="edge">
<title>Node1&#45;&gt;Node13</title>
<path fill="none" stroke="midnightblue" d="M425.99,-560.42C405.8,-552.92 377.83,-540.62 357,-524 332.26,-504.26 324.14,-497.63 313,-468 301.1,-436.36 299.04,-423.98 310,-392 330.79,-331.37 385.6,-276.1 414.14,-250.31"/>
<polygon fill="midnightblue" stroke="midnightblue" points="416.6,-252.81 421.77,-243.56 411.96,-247.56 416.6,-252.81"/>
</g>
<!-- Node18 -->
<g id="node18" class="node">
<title>Node18</title>
<g id="a_node18"><a xlink:href="groups_8hpp.html" target="_top" xlink:title=" ">
<polygon fill="none" stroke="black" points="650.5,-280.5 650.5,-299.5 721.5,-299.5 721.5,-280.5 650.5,-280.5"/>
<text text-anchor="middle" x="686" y="-287.5" font-family="Helvetica,sans-Serif" font-size="10.00">groups.hpp</text>
</a>
</g>
</g>
<!-- Node1&#45;&gt;Node18 -->
<g id="edge28" class="edge">
<title>Node1&#45;&gt;Node18</title>
<path fill="none" stroke="midnightblue" d="M437.04,-560.42C393.95,-534.65 275.62,-455.73 324,-392 362.43,-341.39 551.96,-309.32 640.4,-296.88"/>
<polygon fill="midnightblue" stroke="midnightblue" points="640.99,-300.33 650.41,-295.5 640.03,-293.4 640.99,-300.33"/>
</g>
<!-- Node19 -->
<g id="node19" class="node">
<title>Node19</title>
<g id="a_node19"><a xlink:href="command_8hpp.html" target="_top" xlink:title=" ">
<polygon fill="none" stroke="black" points="914,-392.5 914,-411.5 1000,-411.5 1000,-392.5 914,-392.5"/>
<text text-anchor="middle" x="957" y="-399.5" font-family="Helvetica,sans-Serif" font-size="10.00">command.hpp</text>
</a>
</g>
</g>
<!-- Node1&#45;&gt;Node19 -->
<g id="edge32" class="edge">
<title>Node1&#45;&gt;Node19</title>
<path fill="none" stroke="midnightblue" d="M467.11,-560.36C490.82,-547.04 538.47,-521.23 581,-504 692.14,-458.97 829.81,-427.85 903.87,-412.98"/>
<polygon fill="midnightblue" stroke="midnightblue" points="904.76,-416.37 913.88,-410.99 903.39,-409.51 904.76,-416.37"/>
</g>
<!-- Node25 -->
<g id="node25" class="node">
<title>Node25</title>
<g id="a_node25"><a xlink:href="help__printer__iface_8hpp.html" target="_top" xlink:title=" ">
<polygon fill="none" stroke="black" points="332.5,-392.5 332.5,-411.5 457.5,-411.5 457.5,-392.5 332.5,-392.5"/>
<text text-anchor="middle" x="395" y="-399.5" font-family="Helvetica,sans-Serif" font-size="10.00">help_printer_iface.hpp</text>
</a>
</g>
</g>
<!-- Node1&#45;&gt;Node25 -->
<g id="edge67" class="edge">
<title>Node1&#45;&gt;Node25</title>
<path fill="none" stroke="midnightblue" d="M448.94,-560.08C439.92,-533.83 413.39,-456.55 401.22,-421.12"/>
<polygon fill="midnightblue" stroke="midnightblue" points="404.5,-419.89 397.94,-411.57 397.88,-422.16 404.5,-419.89"/>
</g>
<!-- Node26 -->
<g id="node26" class="node">
<title>Node26</title>
<g id="a_node26"><a xlink:href="cmd__line_8hpp.html" target="_top" xlink:title=" ">
<polygon fill="none" stroke="black" points="590,-504.5 590,-523.5 672,-523.5 672,-504.5 590,-504.5"/>
<text text-anchor="middle" x="631" y="-511.5" font-family="Helvetica,sans-Serif" font-size="10.00">cmd_line.hpp</text>
</a>
</g>
</g>
<!-- Node1&#45;&gt;Node26 -->
<g id="edge69" class="edge">
<title>Node1&#45;&gt;Node26</title>
<path fill="none" stroke="midnightblue" d="M475.27,-560.44C503.76,-551.24 552.24,-536.56 587.63,-526.39"/>
<polygon fill="midnightblue" stroke="midnightblue" points="589.03,-529.63 597.69,-523.52 587.11,-522.89 589.03,-529.63"/>
</g>
<!-- Node5&#45;&gt;Node3 -->
<g id="edge10" class="edge">
<title>Node5&#45;&gt;Node3</title>
<path fill="none" stroke="midnightblue" d="M419.14,-112.44C399.73,-103.64 369.27,-89.81 347.04,-79.72"/>
<polygon fill="midnightblue" stroke="midnightblue" points="348.32,-76.46 337.77,-75.52 345.43,-82.84 348.32,-76.46"/>
</g>
<!-- Node6 -->
<g id="node6" class="node">
<title>Node6</title>
<g id="a_node6"><a xlink:title=" ">
<polygon fill="none" stroke="#bfbfbf" points="457,-56.5 457,-75.5 501,-75.5 501,-56.5 457,-56.5"/>
<text text-anchor="middle" x="479" y="-63.5" font-family="Helvetica,sans-Serif" font-size="10.00">regex</text>
</a>
</g>
</g>
<!-- Node5&#45;&gt;Node6 -->
<g id="edge5" class="edge">
<title>Node5&#45;&gt;Node6</title>
<path fill="none" stroke="midnightblue" d="M444.77,-112.08C450.56,-104.46 459.06,-93.26 466.14,-83.94"/>
<polygon fill="midnightblue" stroke="midnightblue" points="469.1,-85.83 472.36,-75.75 463.52,-81.6 469.1,-85.83"/>
</g>
<!-- Node5&#45;&gt;Node7 -->
<g id="edge6" class="edge">
<title>Node5&#45;&gt;Node7</title>
<path fill="none" stroke="midnightblue" d="M467.73,-114.36C472.48,-113.46 477.36,-112.63 482,-112 713.33,-80.6 993.41,-70.69 1098.97,-67.94"/>
<polygon fill="midnightblue" stroke="midnightblue" points="1099.31,-71.44 1109.22,-67.69 1099.14,-64.44 1099.31,-71.44"/>
</g>
<!-- Node10 -->
<g id="node10" class="node">
<title>Node10</title>
<g id="a_node10"><a xlink:title=" ">
<polygon fill="none" stroke="#bfbfbf" points="369.5,-56.5 369.5,-75.5 438.5,-75.5 438.5,-56.5 369.5,-56.5"/>
<text text-anchor="middle" x="404" y="-63.5" font-family="Helvetica,sans-Serif" font-size="10.00">type_traits</text>
</a>
</g>
</g>
<!-- Node5&#45;&gt;Node10 -->
<g id="edge11" class="edge">
<title>Node5&#45;&gt;Node10</title>
<path fill="none" stroke="midnightblue" d="M432.39,-112.08C427.63,-104.53 420.68,-93.49 414.85,-84.23"/>
<polygon fill="midnightblue" stroke="midnightblue" points="417.8,-82.35 409.51,-75.75 411.88,-86.08 417.8,-82.35"/>
</g>
<!-- Node7&#45;&gt;Node2 -->
<g id="edge9" class="edge">
<title>Node7&#45;&gt;Node2</title>
<path fill="none" stroke="midnightblue" d="M1109.23,-63.31C953.3,-55.27 287.55,-20.93 128.99,-12.75"/>
<polygon fill="midnightblue" stroke="midnightblue" points="129.05,-9.25 118.88,-12.23 128.69,-16.24 129.05,-9.25"/>
</g>
<!-- Node8 -->
<g id="node8" class="node">
<title>Node8</title>
<g id="a_node8"><a xlink:title=" ">
<polygon fill="none" stroke="#bfbfbf" points="1085,-0.5 1085,-19.5 1129,-19.5 1129,-0.5 1085,-0.5"/>
<text text-anchor="middle" x="1107" y="-7.5" font-family="Helvetica,sans-Serif" font-size="10.00">string</text>
</a>
</g>
</g>
<!-- Node7&#45;&gt;Node8 -->
<g id="edge7" class="edge">
<title>Node7&#45;&gt;Node8</title>
<path fill="none" stroke="midnightblue" d="M1136.22,-56.08C1131.33,-48.53 1124.17,-37.49 1118.17,-28.23"/>
<polygon fill="midnightblue" stroke="midnightblue" points="1121.05,-26.24 1112.67,-19.75 1115.17,-30.05 1121.05,-26.24"/>
</g>
<!-- Node9 -->
<g id="node9" class="node">
<title>Node9</title>
<g id="a_node9"><a xlink:title=" ">
<polygon fill="none" stroke="#bfbfbf" points="1147,-0.5 1147,-19.5 1207,-19.5 1207,-0.5 1147,-0.5"/>
<text text-anchor="middle" x="1177" y="-7.5" font-family="Helvetica,sans-Serif" font-size="10.00">iostream</text>
</a>
</g>
</g>
<!-- Node7&#45;&gt;Node9 -->
<g id="edge8" class="edge">
<title>Node7&#45;&gt;Node9</title>
<path fill="none" stroke="midnightblue" d="M1147.78,-56.08C1152.67,-48.53 1159.83,-37.49 1165.83,-28.23"/>
<polygon fill="midnightblue" stroke="midnightblue" points="1168.83,-30.05 1171.33,-19.75 1162.95,-26.24 1168.83,-30.05"/>
</g>
<!-- Node11&#45;&gt;Node7 -->
<g id="edge14" class="edge">
<title>Node11&#45;&gt;Node7</title>
<path fill="none" stroke="midnightblue" d="M1402.19,-112.92C1343.49,-102.56 1242.48,-84.73 1185.11,-74.61"/>
<polygon fill="midnightblue" stroke="midnightblue" points="1185.38,-71.1 1174.93,-72.81 1184.17,-78 1185.38,-71.1"/>
</g>
<!-- Node12 -->
<g id="node12" class="node">
<title>Node12</title>
<g id="a_node12"><a xlink:title=" ">
<polygon fill="none" stroke="#bfbfbf" points="1415.5,-56.5 1415.5,-75.5 1480.5,-75.5 1480.5,-56.5 1415.5,-56.5"/>
<text text-anchor="middle" x="1448" y="-63.5" font-family="Helvetica,sans-Serif" font-size="10.00">stdexcept</text>
</a>
</g>
</g>
<!-- Node11&#45;&gt;Node12 -->
<g id="edge13" class="edge">
<title>Node11&#45;&gt;Node12</title>
<path fill="none" stroke="midnightblue" d="M1448,-112.08C1448,-105.01 1448,-94.86 1448,-85.99"/>
<polygon fill="midnightblue" stroke="midnightblue" points="1451.5,-85.75 1448,-75.75 1444.5,-85.75 1451.5,-85.75"/>
</g>
<!-- Node13&#45;&gt;Node2 -->
<g id="edge23" class="edge">
<title>Node13&#45;&gt;Node2</title>
<path fill="none" stroke="midnightblue" d="M414.84,-224.41C397.83,-215.73 371.18,-201.68 349,-188 258.65,-132.27 156.52,-57.18 114.57,-25.77"/>
<polygon fill="midnightblue" stroke="midnightblue" points="116.43,-22.79 106.34,-19.59 112.23,-28.39 116.43,-22.79"/>
</g>
<!-- Node13&#45;&gt;Node3 -->
<g id="edge25" class="edge">
<title>Node13&#45;&gt;Node3</title>
<path fill="none" stroke="midnightblue" d="M418.41,-224.34C395.45,-208.9 349.38,-174.21 328,-132 320.68,-117.55 318.72,-99.1 318.42,-85.55"/>
<polygon fill="midnightblue" stroke="midnightblue" points="321.92,-85.54 318.47,-75.52 314.92,-85.5 321.92,-85.54"/>
</g>
<!-- Node13&#45;&gt;Node5 -->
<g id="edge20" class="edge">
<title>Node13&#45;&gt;Node5</title>
<path fill="none" stroke="midnightblue" d="M432.47,-224.37C433.44,-206.62 435.67,-165.67 436.99,-141.6"/>
<polygon fill="midnightblue" stroke="midnightblue" points="440.48,-141.77 437.53,-131.59 433.49,-141.39 440.48,-141.77"/>
</g>
<!-- Node13&#45;&gt;Node7 -->
<g id="edge22" class="edge">
<title>Node13&#45;&gt;Node7</title>
<path fill="none" stroke="midnightblue" d="M435.44,-224.18C441.51,-209.88 455.55,-181.84 477,-168 581.04,-100.9 968.95,-75.66 1099.11,-68.98"/>
<polygon fill="midnightblue" stroke="midnightblue" points="1099.65,-72.45 1109.46,-68.46 1099.3,-65.46 1099.65,-72.45"/>
</g>
<!-- Node13&#45;&gt;Node10 -->
<g id="edge24" class="edge">
<title>Node13&#45;&gt;Node10</title>
<path fill="none" stroke="midnightblue" d="M428.24,-224.3C421.02,-207.08 405.45,-167.26 400,-132 398.64,-123.22 399.61,-120.88 400,-112 400.38,-103.37 401.18,-93.84 401.96,-85.78"/>
<polygon fill="midnightblue" stroke="midnightblue" points="405.46,-85.92 403.01,-75.61 398.5,-85.2 405.46,-85.92"/>
</g>
<!-- Node13&#45;&gt;Node11 -->
<g id="edge21" class="edge">
<title>Node13&#45;&gt;Node11</title>
<path fill="none" stroke="midnightblue" d="M447.6,-224.36C479.24,-206.85 548.21,-168.78 551,-168 723.25,-119.89 1176.6,-144.62 1355,-132 1367.01,-131.15 1379.87,-130.04 1392.08,-128.88"/>
<polygon fill="midnightblue" stroke="midnightblue" points="1392.54,-132.36 1402.16,-127.91 1391.87,-125.39 1392.54,-132.36"/>
</g>
<!-- Node14 -->
<g id="node14" class="node">
<title>Node14</title>
<g id="a_node14"><a xlink:href="arg__iface_8hpp.html" target="_top" xlink:title=" ">
<polygon fill="none" stroke="black" points="826.5,-168.5 826.5,-187.5 909.5,-187.5 909.5,-168.5 826.5,-168.5"/>
<text text-anchor="middle" x="868" y="-175.5" font-family="Helvetica,sans-Serif" font-size="10.00">arg_iface.hpp</text>
</a>
</g>
</g>
<!-- Node13&#45;&gt;Node14 -->
<g id="edge16" class="edge">
<title>Node13&#45;&gt;Node14</title>
<path fill="none" stroke="midnightblue" d="M479.91,-227.07C562.6,-216.83 731.41,-195.92 816.51,-185.38"/>
<polygon fill="midnightblue" stroke="midnightblue" points="816.97,-188.85 826.47,-184.14 816.11,-181.9 816.97,-188.85"/>
</g>
<!-- Node16 -->
<g id="node16" class="node">
<title>Node16</title>
<g id="a_node16"><a xlink:title=" ">
<polygon fill="none" stroke="#bfbfbf" points="1300.5,-112.5 1300.5,-131.5 1345.5,-131.5 1345.5,-112.5 1300.5,-112.5"/>
<text text-anchor="middle" x="1323" y="-119.5" font-family="Helvetica,sans-Serif" font-size="10.00">utility</text>
</a>
</g>
</g>
<!-- Node13&#45;&gt;Node16 -->
<g id="edge26" class="edge">
<title>Node13&#45;&gt;Node16</title>
<path fill="none" stroke="midnightblue" d="M439.99,-224.24C454.07,-209.49 484.97,-180.12 518,-168 591.24,-141.14 1147.44,-126.93 1289.86,-123.71"/>
<polygon fill="midnightblue" stroke="midnightblue" points="1290.21,-127.21 1300.13,-123.48 1290.06,-120.21 1290.21,-127.21"/>
</g>
<!-- Node17 -->
<g id="node17" class="node">
<title>Node17</title>
<g id="a_node17"><a xlink:title=" ">
<polygon fill="none" stroke="#bfbfbf" points="560,-168.5 560,-187.5 618,-187.5 618,-168.5 560,-168.5"/>
<text text-anchor="middle" x="589" y="-175.5" font-family="Helvetica,sans-Serif" font-size="10.00">memory</text>
</a>
</g>
</g>
<!-- Node13&#45;&gt;Node17 -->
<g id="edge27" class="edge">
<title>Node13&#45;&gt;Node17</title>
<path fill="none" stroke="midnightblue" d="M456.88,-224.44C483.29,-215.36 525.22,-200.94 554.74,-190.78"/>
<polygon fill="midnightblue" stroke="midnightblue" points="555.92,-194.08 564.24,-187.52 553.64,-187.46 555.92,-194.08"/>
</g>
<!-- Node14&#45;&gt;Node5 -->
<g id="edge17" class="edge">
<title>Node14&#45;&gt;Node5</title>
<path fill="none" stroke="midnightblue" d="M826.38,-171.77C743.58,-161.37 559.18,-138.22 477.85,-128"/>
<polygon fill="midnightblue" stroke="midnightblue" points="477.9,-124.48 467.54,-126.71 477.02,-131.43 477.9,-124.48"/>
</g>
<!-- Node14&#45;&gt;Node7 -->
<g id="edge18" class="edge">
<title>Node14&#45;&gt;Node7</title>
<path fill="none" stroke="midnightblue" d="M868.7,-168.29C870.33,-154.15 875.67,-126.34 893,-112 923.78,-86.53 1036.5,-74.54 1099.2,-69.73"/>
<polygon fill="midnightblue" stroke="midnightblue" points="1099.47,-73.22 1109.19,-68.99 1098.96,-66.24 1099.47,-73.22"/>
</g>
<!-- Node15 -->
<g id="node15" class="node">
<title>Node15</title>
<g id="a_node15"><a xlink:href="enums_8hpp.html" target="_top" xlink:title=" ">
<polygon fill="none" stroke="black" points="901.5,-112.5 901.5,-131.5 972.5,-131.5 972.5,-112.5 901.5,-112.5"/>
<text text-anchor="middle" x="937" y="-119.5" font-family="Helvetica,sans-Serif" font-size="10.00">enums.hpp</text>
</a>
</g>
</g>
<!-- Node14&#45;&gt;Node15 -->
<g id="edge19" class="edge">
<title>Node14&#45;&gt;Node15</title>
<path fill="none" stroke="midnightblue" d="M879.09,-168.32C889.49,-160.18 905.26,-147.84 917.72,-138.09"/>
<polygon fill="midnightblue" stroke="midnightblue" points="919.99,-140.75 925.71,-131.83 915.68,-135.24 919.99,-140.75"/>
</g>
<!-- Node18&#45;&gt;Node3 -->
<g id="edge31" class="edge">
<title>Node18&#45;&gt;Node3</title>
<path fill="none" stroke="midnightblue" d="M683.01,-280.46C674.05,-255.36 646.82,-182.67 627,-168 544.9,-107.23 493.41,-173.35 400,-132 373.89,-120.44 349.08,-98.3 333.96,-83.1"/>
<polygon fill="midnightblue" stroke="midnightblue" points="336.44,-80.64 326.98,-75.88 331.41,-85.5 336.44,-80.64"/>
</g>
<!-- Node18&#45;&gt;Node7 -->
<g id="edge30" class="edge">
<title>Node18&#45;&gt;Node7</title>
<path fill="none" stroke="midnightblue" d="M692.28,-280.13C713.74,-250.57 787.67,-154.86 874,-112 947.25,-75.64 1044.16,-67.89 1099.12,-66.67"/>
<polygon fill="midnightblue" stroke="midnightblue" points="1099.26,-70.17 1109.21,-66.51 1099.15,-63.17 1099.26,-70.17"/>
</g>
<!-- Node18&#45;&gt;Node13 -->
<g id="edge29" class="edge">
<title>Node18&#45;&gt;Node13</title>
<path fill="none" stroke="midnightblue" d="M650.41,-281.43C606.6,-272.12 531.91,-256.24 482.26,-245.69"/>
<polygon fill="midnightblue" stroke="midnightblue" points="482.88,-242.24 472.37,-243.58 481.43,-249.09 482.88,-242.24"/>
</g>
<!-- Node19&#45;&gt;Node5 -->
<g id="edge61" class="edge">
<title>Node19&#45;&gt;Node5</title>
<path fill="none" stroke="midnightblue" d="M913.83,-396.12C790.59,-381.21 441.73,-331.84 376,-244 350.11,-209.4 392.95,-162.41 419.46,-138.44"/>
<polygon fill="midnightblue" stroke="midnightblue" points="421.85,-141 427.07,-131.78 417.24,-135.74 421.85,-141"/>
</g>
<!-- Node19&#45;&gt;Node7 -->
<g id="edge65" class="edge">
<title>Node19&#45;&gt;Node7</title>
<path fill="none" stroke="midnightblue" d="M959.56,-392.25C964.75,-373.74 976,-329.18 976,-291 976,-291 976,-291 976,-233 976,-156.55 1065.12,-103.01 1112.76,-79.85"/>
<polygon fill="midnightblue" stroke="midnightblue" points="1114.43,-82.94 1121.98,-75.5 1111.44,-76.61 1114.43,-82.94"/>
</g>
<!-- Node19&#45;&gt;Node13 -->
<g id="edge60" class="edge">
<title>Node19&#45;&gt;Node13</title>
<path fill="none" stroke="midnightblue" d="M929.88,-392.42C842.49,-364.79 568.17,-278.06 468.59,-246.57"/>
<polygon fill="midnightblue" stroke="midnightblue" points="469.55,-243.2 458.96,-243.52 467.44,-249.88 469.55,-243.2"/>
</g>
<!-- Node19&#45;&gt;Node15 -->
<g id="edge64" class="edge">
<title>Node19&#45;&gt;Node15</title>
<path fill="none" stroke="midnightblue" d="M954.44,-392.25C949.25,-373.74 938,-329.18 938,-291 938,-291 938,-291 938,-233 938,-200.95 937.57,-163.64 937.27,-141.75"/>
<polygon fill="midnightblue" stroke="midnightblue" points="940.77,-141.51 937.13,-131.56 933.77,-141.61 940.77,-141.51"/>
</g>
<!-- Node20 -->
<g id="node20" class="node">
<title>Node20</title>
<g id="a_node20"><a xlink:href="api_8hpp.html" target="_top" xlink:title=" ">
<polygon fill="none" stroke="black" points="1080.5,-336.5 1080.5,-355.5 1133.5,-355.5 1133.5,-336.5 1080.5,-336.5"/>
<text text-anchor="middle" x="1107" y="-343.5" font-family="Helvetica,sans-Serif" font-size="10.00">api.hpp</text>
</a>
</g>
</g>
<!-- Node19&#45;&gt;Node20 -->
<g id="edge33" class="edge">
<title>Node19&#45;&gt;Node20</title>
<path fill="none" stroke="midnightblue" d="M975.68,-392.44C999.47,-383.15 1040.66,-368.26 1070.67,-358.07"/>
<polygon fill="midnightblue" stroke="midnightblue" points="1072.01,-361.32 1080.37,-354.82 1069.78,-354.68 1072.01,-361.32"/>
</g>
<!-- Node22 -->
<g id="node22" class="node">
<title>Node22</title>
<g id="a_node22"><a xlink:href="context_8hpp.html" target="_top" xlink:title=" ">
<polygon fill="none" stroke="black" points="1342,-168.5 1342,-187.5 1416,-187.5 1416,-168.5 1342,-168.5"/>
<text text-anchor="middle" x="1379" y="-175.5" font-family="Helvetica,sans-Serif" font-size="10.00">context.hpp</text>
</a>
</g>
</g>
<!-- Node19&#45;&gt;Node22 -->
<g id="edge62" class="edge">
<title>Node19&#45;&gt;Node22</title>
<path fill="none" stroke="midnightblue" d="M1000.11,-396.5C1065.94,-387.77 1192.94,-363.46 1279,-300 1318.87,-270.6 1352.54,-221.94 1368.71,-196.2"/>
<polygon fill="midnightblue" stroke="midnightblue" points="1371.78,-197.9 1374.03,-187.55 1365.81,-194.23 1371.78,-197.9"/>
</g>
<!-- Node23 -->
<g id="node23" class="node">
<title>Node23</title>
<g id="a_node23"><a xlink:href="value__utils_8hpp.html" target="_top" xlink:title=" ">
<polygon fill="none" stroke="black" points="1042.5,-168.5 1042.5,-187.5 1133.5,-187.5 1133.5,-168.5 1042.5,-168.5"/>
<text text-anchor="middle" x="1088" y="-175.5" font-family="Helvetica,sans-Serif" font-size="10.00">value_utils.hpp</text>
</a>
</g>
</g>
<!-- Node19&#45;&gt;Node23 -->
<g id="edge63" class="edge">
<title>Node19&#45;&gt;Node23</title>
<path fill="none" stroke="midnightblue" d="M963.95,-392.29C970.9,-383.41 981.73,-369.11 990,-356 1025.56,-299.67 1028.08,-281.91 1061,-224 1066.24,-214.78 1072.3,-204.64 1077.35,-196.32"/>
<polygon fill="midnightblue" stroke="midnightblue" points="1080.48,-197.91 1082.7,-187.56 1074.5,-194.27 1080.48,-197.91"/>
</g>
<!-- Node20&#45;&gt;Node7 -->
<g id="edge34" class="edge">
<title>Node20&#45;&gt;Node7</title>
<path fill="none" stroke="midnightblue" d="M1110.73,-336.35C1120.66,-312.96 1147.74,-246.28 1160,-188 1165.14,-163.55 1163.89,-156.96 1165,-132 1165.4,-123.12 1167.08,-120.64 1165,-112 1162.69,-102.42 1157.98,-92.58 1153.42,-84.56"/>
<polygon fill="midnightblue" stroke="midnightblue" points="1156.29,-82.54 1148.1,-75.81 1150.31,-86.17 1156.29,-82.54"/>
</g>
<!-- Node20&#45;&gt;Node18 -->
<g id="edge58" class="edge">
<title>Node20&#45;&gt;Node18</title>
<path fill="none" stroke="midnightblue" d="M1080.35,-341.58C1010.19,-332.58 819.78,-308.16 731.76,-296.87"/>
<polygon fill="midnightblue" stroke="midnightblue" points="732.16,-293.39 721.8,-295.59 731.27,-300.34 732.16,-293.39"/>
</g>
<!-- Node20&#45;&gt;Node19 -->
<g id="edge59" class="edge">
<title>Node20&#45;&gt;Node19</title>
<path fill="none" stroke="midnightblue" d="M1088.42,-355.52C1065.23,-364.59 1025.38,-379 995.55,-389.17"/>
<polygon fill="midnightblue" stroke="midnightblue" points="994.21,-385.93 985.86,-392.44 996.45,-392.56 994.21,-385.93"/>
</g>
<!-- Node21 -->
<g id="node21" class="node">
<title>Node21</title>
<g id="a_node21"><a xlink:href="arg_8hpp.html" target="_top" xlink:title=" ">
<polygon fill="none" stroke="black" points="1069.5,-224.5 1069.5,-243.5 1122.5,-243.5 1122.5,-224.5 1069.5,-224.5"/>
<text text-anchor="middle" x="1096" y="-231.5" font-family="Helvetica,sans-Serif" font-size="10.00">arg.hpp</text>
</a>
</g>
</g>
<!-- Node20&#45;&gt;Node21 -->
<g id="edge35" class="edge">
<title>Node20&#45;&gt;Node21</title>
<path fill="none" stroke="midnightblue" d="M1106.14,-336.37C1104.36,-318.62 1100.27,-277.67 1097.86,-253.6"/>
<polygon fill="midnightblue" stroke="midnightblue" points="1101.34,-253.19 1096.86,-243.59 1094.37,-253.89 1101.34,-253.19"/>
</g>
<!-- Node24 -->
<g id="node24" class="node">
<title>Node24</title>
<g id="a_node24"><a xlink:href="multi__arg_8hpp.html" target="_top" xlink:title=" ">
<polygon fill="none" stroke="black" points="1186,-280.5 1186,-299.5 1270,-299.5 1270,-280.5 1186,-280.5"/>
<text text-anchor="middle" x="1228" y="-287.5" font-family="Helvetica,sans-Serif" font-size="10.00">multi_arg.hpp</text>
</a>
</g>
</g>
<!-- Node20&#45;&gt;Node24 -->
<g id="edge50" class="edge">
<title>Node20&#45;&gt;Node24</title>
<path fill="none" stroke="midnightblue" d="M1126.17,-336.44C1145.91,-327.64 1176.89,-313.81 1199.49,-303.72"/>
<polygon fill="midnightblue" stroke="midnightblue" points="1201.21,-306.79 1208.92,-299.52 1198.36,-300.4 1201.21,-306.79"/>
</g>
<!-- Node21&#45;&gt;Node3 -->
<g id="edge49" class="edge">
<title>Node21&#45;&gt;Node3</title>
<path fill="none" stroke="midnightblue" d="M1081.37,-224.41C1068.07,-216.16 1048.37,-202.78 1034,-188 1005.46,-158.66 1017.63,-132.13 982,-112 921.83,-78 429.49,-85.27 361,-76 360.9,-75.99 360.8,-75.97 360.69,-75.96"/>
<polygon fill="midnightblue" stroke="midnightblue" points="361.45,-72.53 351.01,-74.39 360.33,-79.44 361.45,-72.53"/>
</g>
<!-- Node21&#45;&gt;Node5 -->
<g id="edge37" class="edge">
<title>Node21&#45;&gt;Node5</title>
<path fill="none" stroke="midnightblue" d="M1069.43,-229.41C1019.8,-222.55 909.76,-206.59 818,-188 781.23,-180.55 772.81,-175.25 736,-168 644.18,-149.91 535.19,-135.13 477.85,-127.87"/>
<polygon fill="midnightblue" stroke="midnightblue" points="478.12,-124.37 467.76,-126.6 477.25,-131.32 478.12,-124.37"/>
</g>
<!-- Node21&#45;&gt;Node7 -->
<g id="edge48" class="edge">
<title>Node21&#45;&gt;Node7</title>
<path fill="none" stroke="midnightblue" d="M1110.08,-224.26C1121.35,-216.35 1136.35,-203.58 1143,-188 1157.45,-154.16 1151.66,-109.97 1146.56,-85.45"/>
<polygon fill="midnightblue" stroke="midnightblue" points="1149.97,-84.65 1144.34,-75.67 1143.14,-86.2 1149.97,-84.65"/>
</g>
<!-- Node21&#45;&gt;Node11 -->
<g id="edge42" class="edge">
<title>Node21&#45;&gt;Node11</title>
<path fill="none" stroke="midnightblue" d="M1122.75,-224.64C1184.83,-205.24 1338.86,-157.11 1410.39,-134.75"/>
<polygon fill="midnightblue" stroke="midnightblue" points="1411.82,-137.97 1420.33,-131.65 1409.74,-131.29 1411.82,-137.97"/>
</g>
<!-- Node21&#45;&gt;Node14 -->
<g id="edge36" class="edge">
<title>Node21&#45;&gt;Node14</title>
<path fill="none" stroke="midnightblue" d="M1069.4,-226.7C1031.31,-217.68 960.71,-200.96 914.04,-189.9"/>
<polygon fill="midnightblue" stroke="midnightblue" points="914.71,-186.47 904.17,-187.57 913.09,-193.28 914.71,-186.47"/>
</g>
<!-- Node21&#45;&gt;Node22 -->
<g id="edge38" class="edge">
<title>Node21&#45;&gt;Node22</title>
<path fill="none" stroke="midnightblue" d="M1122.62,-227.92C1170.49,-218.79 1271.67,-199.48 1331.61,-188.04"/>
<polygon fill="midnightblue" stroke="midnightblue" points="1332.42,-191.45 1341.58,-186.14 1331.11,-184.58 1332.42,-191.45"/>
</g>
<!-- Node21&#45;&gt;Node23 -->
<g id="edge43" class="edge">
<title>Node21&#45;&gt;Node23</title>
<path fill="none" stroke="midnightblue" d="M1094.68,-224.08C1093.62,-216.93 1092.09,-206.64 1090.77,-197.69"/>
<polygon fill="midnightblue" stroke="midnightblue" points="1094.22,-197.13 1089.3,-187.75 1087.3,-198.16 1094.22,-197.13"/>
</g>
<!-- Node22&#45;&gt;Node5 -->
<g id="edge40" class="edge">
<title>Node22&#45;&gt;Node5</title>
<path fill="none" stroke="midnightblue" d="M1341.82,-174.87C1191.9,-166.26 632.42,-134.16 477.81,-125.28"/>
<polygon fill="midnightblue" stroke="midnightblue" points="477.99,-121.79 467.8,-124.71 477.59,-128.78 477.99,-121.79"/>
</g>
<!-- Node22&#45;&gt;Node7 -->
<g id="edge41" class="edge">
<title>Node22&#45;&gt;Node7</title>
<path fill="none" stroke="midnightblue" d="M1378.4,-168.36C1376.93,-154.31 1371.93,-126.63 1355,-112 1329.95,-90.35 1239.42,-77.26 1184.77,-71.15"/>
<polygon fill="midnightblue" stroke="midnightblue" points="1185,-67.65 1174.68,-70.05 1184.24,-74.61 1185,-67.65"/>
</g>
<!-- Node22&#45;&gt;Node16 -->
<g id="edge39" class="edge">
<title>Node22&#45;&gt;Node16</title>
<path fill="none" stroke="midnightblue" d="M1370,-168.32C1361.81,-160.42 1349.49,-148.55 1339.53,-138.94"/>
<polygon fill="midnightblue" stroke="midnightblue" points="1341.79,-136.26 1332.16,-131.83 1336.93,-141.29 1341.79,-136.26"/>
</g>
<!-- Node23&#45;&gt;Node3 -->
<g id="edge47" class="edge">
<title>Node23&#45;&gt;Node3</title>
<path fill="none" stroke="midnightblue" d="M1081.76,-168.26C1070.68,-153.52 1045.96,-124.18 1017,-112 882.42,-55.41 505.71,-95.35 361,-76 360.9,-75.99 360.8,-75.97 360.69,-75.96"/>
<polygon fill="midnightblue" stroke="midnightblue" points="361.44,-72.53 351.01,-74.4 360.33,-79.45 361.44,-72.53"/>
</g>
<!-- Node23&#45;&gt;Node5 -->
<g id="edge44" class="edge">
<title>Node23&#45;&gt;Node5</title>
<path fill="none" stroke="midnightblue" d="M1042.29,-173.2C920.96,-163.12 592.21,-135.81 477.85,-126.31"/>
<polygon fill="midnightblue" stroke="midnightblue" points="478.04,-122.81 467.78,-125.47 477.46,-129.79 478.04,-122.81"/>
</g>
<!-- Node23&#45;&gt;Node7 -->
<g id="edge46" class="edge">
<title>Node23&#45;&gt;Node7</title>
<path fill="none" stroke="midnightblue" d="M1092.24,-168.37C1101.07,-150.38 1121.6,-108.55 1133.35,-84.63"/>
<polygon fill="midnightblue" stroke="midnightblue" points="1136.52,-86.11 1137.78,-75.59 1130.23,-83.03 1136.52,-86.11"/>
</g>
<!-- Node23&#45;&gt;Node11 -->
<g id="edge45" class="edge">
<title>Node23&#45;&gt;Node11</title>
<path fill="none" stroke="midnightblue" d="M1133.59,-170.16C1199.51,-160.27 1321.28,-142.01 1392.38,-131.34"/>
<polygon fill="midnightblue" stroke="midnightblue" points="1393.12,-134.77 1402.49,-129.83 1392.08,-127.85 1393.12,-134.77"/>
</g>
<!-- Node24&#45;&gt;Node5 -->
<g id="edge55" class="edge">
<title>Node24&#45;&gt;Node5</title>
<path fill="none" stroke="midnightblue" d="M1185.78,-284.4C1099.32,-274.11 896.72,-245.48 736,-188 718.03,-181.57 716.07,-174.15 698,-168 622.53,-142.33 529.53,-130.76 477.7,-125.99"/>
<polygon fill="midnightblue" stroke="midnightblue" points="477.86,-122.49 467.59,-125.1 477.25,-129.46 477.86,-122.49"/>
</g>
<!-- Node24&#45;&gt;Node7 -->
<g id="edge56" class="edge">
<title>Node24&#45;&gt;Node7</title>
<path fill="none" stroke="midnightblue" d="M1229.83,-280.45C1235.14,-253.39 1248.07,-168.13 1214,-112 1205.28,-97.63 1190.04,-87.14 1175.83,-79.91"/>
<polygon fill="midnightblue" stroke="midnightblue" points="1177.25,-76.71 1166.71,-75.63 1174.27,-83.05 1177.25,-76.71"/>
</g>
<!-- Node24&#45;&gt;Node11 -->
<g id="edge53" class="edge">
<title>Node24&#45;&gt;Node11</title>
<path fill="none" stroke="midnightblue" d="M1261.05,-280.41C1304.56,-267.46 1380.71,-238.88 1425,-188 1436.41,-174.89 1442.28,-155.74 1445.22,-141.62"/>
<polygon fill="midnightblue" stroke="midnightblue" points="1448.7,-142.05 1447,-131.59 1441.8,-140.82 1448.7,-142.05"/>
</g>
<!-- Node24&#45;&gt;Node16 -->
<g id="edge57" class="edge">
<title>Node24&#45;&gt;Node16</title>
<path fill="none" stroke="midnightblue" d="M1233.55,-280.49C1244.69,-263.29 1270.41,-223.01 1290,-188 1298.78,-172.31 1307.97,-154.03 1314.42,-140.85"/>
<polygon fill="midnightblue" stroke="midnightblue" points="1317.73,-142.05 1318.94,-131.53 1311.43,-139 1317.73,-142.05"/>
</g>
<!-- Node24&#45;&gt;Node21 -->
<g id="edge51" class="edge">
<title>Node24&#45;&gt;Node21</title>
<path fill="none" stroke="midnightblue" d="M1207.08,-280.44C1185.26,-271.52 1150.85,-257.44 1126.11,-247.32"/>
<polygon fill="midnightblue" stroke="midnightblue" points="1127.4,-244.06 1116.82,-243.52 1124.75,-250.54 1127.4,-244.06"/>
</g>
<!-- Node24&#45;&gt;Node22 -->
<g id="edge52" class="edge">
<title>Node24&#45;&gt;Node22</title>
<path fill="none" stroke="midnightblue" d="M1239.85,-280.37C1265.65,-261.57 1327.15,-216.77 1359.05,-193.53"/>
<polygon fill="midnightblue" stroke="midnightblue" points="1361.18,-196.31 1367.21,-187.59 1357.06,-190.65 1361.18,-196.31"/>
</g>
<!-- Node24&#45;&gt;Node23 -->
<g id="edge54" class="edge">
<title>Node24&#45;&gt;Node23</title>
<path fill="none" stroke="midnightblue" d="M1217.01,-280.37C1193.19,-261.65 1136.56,-217.15 1106.88,-193.83"/>
<polygon fill="midnightblue" stroke="midnightblue" points="1108.96,-191.02 1098.93,-187.59 1104.64,-196.52 1108.96,-191.02"/>
</g>
<!-- Node25&#45;&gt;Node5 -->
<g id="edge68" class="edge">
<title>Node25&#45;&gt;Node5</title>
<path fill="none" stroke="midnightblue" d="M356.13,-392.46C334.15,-385.83 307.62,-374.55 290,-356 268.79,-333.67 266,-321.8 266,-291 266,-291 266,-291 266,-233 266,-202.2 267.6,-189.13 290,-168 319.35,-140.32 365.23,-129.63 398.12,-125.52"/>
<polygon fill="midnightblue" stroke="midnightblue" points="398.75,-128.97 408.31,-124.41 397.99,-122.01 398.75,-128.97"/>
</g>
<!-- Node26&#45;&gt;Node1 -->
<g id="edge87" class="edge">
<title>Node26&#45;&gt;Node1</title>
<path fill="none" stroke="midnightblue" d="M607.85,-523.52C579.3,-532.74 530.53,-547.51 495.07,-557.7"/>
<polygon fill="midnightblue" stroke="midnightblue" points="494.11,-554.33 485.45,-560.44 496.03,-561.07 494.11,-554.33"/>
</g>
<!-- Node26&#45;&gt;Node2 -->
<g id="edge84" class="edge">
<title>Node26&#45;&gt;Node2</title>
<path fill="none" stroke="midnightblue" d="M589.99,-511.8C520.08,-507.61 377.06,-489.43 291,-412 167.09,-300.51 113.03,-93.25 98.92,-29.89"/>
<polygon fill="midnightblue" stroke="midnightblue" points="102.27,-28.83 96.74,-19.79 95.43,-30.3 102.27,-28.83"/>
</g>
<!-- Node26&#45;&gt;Node3 -->
<g id="edge85" class="edge">
<title>Node26&#45;&gt;Node3</title>
<path fill="none" stroke="midnightblue" d="M598.63,-504.48C529.76,-486.03 371.16,-441.61 324,-412 294.72,-393.61 285.45,-386.93 270,-356 243.54,-303.03 240.14,-282.01 252,-224 262.94,-170.5 292.85,-112.67 308.74,-84.47"/>
<polygon fill="midnightblue" stroke="midnightblue" points="311.79,-86.2 313.73,-75.78 305.72,-82.71 311.79,-86.2"/>
</g>
<!-- Node26&#45;&gt;Node5 -->
<g id="edge71" class="edge">
<title>Node26&#45;&gt;Node5</title>
<path fill="none" stroke="midnightblue" d="M620.09,-504.47C594.08,-484.24 526.18,-432.07 467,-392 396.43,-344.22 304,-376.22 304,-291 304,-291 304,-291 304,-233 304,-182.39 361.8,-150.81 401.48,-135.09"/>
<polygon fill="midnightblue" stroke="midnightblue" points="402.77,-138.35 410.88,-131.53 400.29,-131.8 402.77,-138.35"/>
</g>
<!-- Node26&#45;&gt;Node11 -->
<g id="edge73" class="edge">
<title>Node26&#45;&gt;Node11</title>
<path fill="none" stroke="midnightblue" d="M672.21,-513.14C820.41,-512.85 1324.08,-504.95 1449,-412 1536.24,-347.09 1494.54,-273.19 1467,-168 1464.58,-158.77 1460.62,-148.96 1456.94,-140.87"/>
<polygon fill="midnightblue" stroke="midnightblue" points="1460.03,-139.22 1452.56,-131.7 1453.71,-142.23 1460.03,-139.22"/>
</g>
<!-- Node26&#45;&gt;Node17 -->
<g id="edge86" class="edge">
<title>Node26&#45;&gt;Node17</title>
<path fill="none" stroke="midnightblue" d="M629.92,-504.41C624.38,-460.38 599.15,-259.74 591.32,-197.48"/>
<polygon fill="midnightblue" stroke="midnightblue" points="594.79,-197.02 590.07,-187.54 587.85,-197.89 594.79,-197.02"/>
</g>
<!-- Node26&#45;&gt;Node19 -->
<g id="edge74" class="edge">
<title>Node26&#45;&gt;Node19</title>
<path fill="none" stroke="midnightblue" d="M656.31,-504.46C714.08,-484.97 855.76,-437.16 921.91,-414.84"/>
<polygon fill="midnightblue" stroke="midnightblue" points="923.13,-418.12 931.48,-411.61 920.89,-411.49 923.13,-418.12"/>
</g>
<!-- Node26&#45;&gt;Node20 -->
<g id="edge70" class="edge">
<title>Node26&#45;&gt;Node20</title>
<path fill="none" stroke="midnightblue" d="M672.25,-510.75C755.01,-505.76 938.34,-492.29 996,-468 1032.72,-452.53 1039.45,-441.71 1066,-412 1079.02,-397.43 1090.56,-378.26 1098.06,-364.52"/>
<polygon fill="midnightblue" stroke="midnightblue" points="1101.18,-366.09 1102.76,-355.62 1094.99,-362.82 1101.18,-366.09"/>
</g>
<!-- Node26&#45;&gt;Node22 -->
<g id="edge72" class="edge">
<title>Node26&#45;&gt;Node22</title>
<path fill="none" stroke="midnightblue" d="M672.02,-511.43C814.49,-505.41 1286.39,-480.6 1419,-412 1455.58,-393.08 1480.58,-376.28 1472,-336 1460.64,-282.68 1452.39,-269.26 1422,-224 1414.79,-213.26 1404.92,-202.72 1396.45,-194.55"/>
<polygon fill="midnightblue" stroke="midnightblue" points="1398.6,-191.76 1388.9,-187.5 1393.82,-196.88 1398.6,-191.76"/>
</g>
<!-- Node27 -->
<g id="node27" class="node">
<title>Node27</title>
<g id="a_node27"><a xlink:href="help_8hpp.html" target="_top" xlink:title=" ">
<polygon fill="none" stroke="black" points="927.5,-448.5 927.5,-467.5 986.5,-467.5 986.5,-448.5 927.5,-448.5"/>
<text text-anchor="middle" x="957" y="-455.5" font-family="Helvetica,sans-Serif" font-size="10.00">help.hpp</text>
</a>
</g>
</g>
<!-- Node26&#45;&gt;Node27 -->
<g id="edge75" class="edge">
<title>Node26&#45;&gt;Node27</title>
<path fill="none" stroke="midnightblue" d="M672.29,-506.16C735.29,-495.72 854.66,-475.95 916.93,-465.64"/>
<polygon fill="midnightblue" stroke="midnightblue" points="917.85,-469.03 927.14,-463.95 916.7,-462.13 917.85,-469.03"/>
</g>
<!-- Node27&#45;&gt;Node5 -->
<g id="edge79" class="edge">
<title>Node27&#45;&gt;Node5</title>
<path fill="none" stroke="midnightblue" d="M946.52,-448.17C935.93,-439.2 919.15,-424.83 905,-412 788.31,-306.22 787.32,-241.47 648,-168 593.35,-139.18 521.45,-128.81 477.54,-125.09"/>
<polygon fill="midnightblue" stroke="midnightblue" points="477.78,-121.6 467.54,-124.31 477.24,-128.58 477.78,-121.6"/>
</g>
<!-- Node27&#45;&gt;Node7 -->
<g id="edge81" class="edge">
<title>Node27&#45;&gt;Node7</title>
<path fill="none" stroke="midnightblue" d="M986.76,-455.31C1082.76,-449.71 1380.23,-430.97 1419,-412 1522.4,-361.41 1524.46,-300.46 1549,-188 1557.42,-149.42 1537.58,-131.05 1503,-112 1449.09,-82.3 1268,-71.74 1184.65,-68.39"/>
<polygon fill="midnightblue" stroke="midnightblue" points="1184.63,-64.89 1174.51,-68 1184.36,-71.88 1184.63,-64.89"/>
</g>
<!-- Node27&#45;&gt;Node11 -->
<g id="edge80" class="edge">
<title>Node27&#45;&gt;Node11</title>
<path fill="none" stroke="midnightblue" d="M986.53,-456.88C1094.13,-455.66 1459,-444.36 1459,-347 1459,-347 1459,-347 1459,-289 1459,-235.47 1453.24,-172.45 1450.05,-141.73"/>
<polygon fill="midnightblue" stroke="midnightblue" points="1453.52,-141.2 1448.98,-131.63 1446.55,-141.94 1453.52,-141.2"/>
</g>
<!-- Node27&#45;&gt;Node17 -->
<g id="edge83" class="edge">
<title>Node27&#45;&gt;Node17</title>
<path fill="none" stroke="midnightblue" d="M927.26,-457.02C882.63,-455.77 797.07,-448.34 736,-412 652.08,-362.07 608.52,-243.58 594.32,-197.65"/>
<polygon fill="midnightblue" stroke="midnightblue" points="597.61,-196.43 591.4,-187.84 590.9,-198.43 597.61,-196.43"/>
</g>
<!-- Node27&#45;&gt;Node19 -->
<g id="edge82" class="edge">
<title>Node27&#45;&gt;Node19</title>
<path fill="none" stroke="midnightblue" d="M957,-448.08C957,-441.01 957,-430.86 957,-421.99"/>
<polygon fill="midnightblue" stroke="midnightblue" points="960.5,-421.75 957,-411.75 953.5,-421.75 960.5,-421.75"/>
</g>
<!-- Node27&#45;&gt;Node21 -->
<g id="edge76" class="edge">
<title>Node27&#45;&gt;Node21</title>
<path fill="none" stroke="midnightblue" d="M969.84,-448.19C981.23,-439.88 997.77,-426.56 1009,-412 1049.01,-360.14 1077.81,-286.95 1089.8,-253.27"/>
<polygon fill="midnightblue" stroke="midnightblue" points="1093.12,-254.39 1093.1,-243.8 1086.51,-252.09 1093.12,-254.39"/>
</g>
<!-- Node27&#45;&gt;Node22 -->
<g id="edge78" class="edge">
<title>Node27&#45;&gt;Node22</title>
<path fill="none" stroke="midnightblue" d="M986.73,-456.35C1089.14,-453.33 1421,-436.62 1421,-347 1421,-347 1421,-347 1421,-289 1421,-254.41 1402.65,-217.49 1390.21,-196.43"/>
<polygon fill="midnightblue" stroke="midnightblue" points="1393.06,-194.38 1384.84,-187.69 1387.09,-198.04 1393.06,-194.38"/>
</g>
<!-- Node27&#45;&gt;Node25 -->
<g id="edge77" class="edge">
<title>Node27&#45;&gt;Node25</title>
<path fill="none" stroke="midnightblue" d="M927.18,-454.13C841.43,-445.9 592.37,-421.96 467.77,-409.99"/>
<polygon fill="midnightblue" stroke="midnightblue" points="467.85,-406.48 457.57,-409.01 467.18,-413.45 467.85,-406.48"/>
</g>
</g>
</svg>
        <g id="navigator" transform="translate(0 0)" fill="#404254">
                <rect fill="#f2f5e9" fill-opacity="0.5" stroke="#606060" stroke-width=".5" x="0" y="0" width="60" height="60"/>
                <use id="zoomplus" xlink:href="#zoomPlus" x="17" y="9" onmousedown="handleZoom(evt,'in')"/>
                <use id="zoomminus" xlink:href="#zoomMin" x="42" y="9" onmousedown="handleZoom(evt,'out')"/>
                <use id="reset" xlink:href="#resetDef" x="30" y="36" onmousedown="handleReset()"/>
                <g id="arrowUp" xlink:href="#dirArrow" transform="translate(30 24)" onmousedown="handlePan(0,-1)">
                  <use xlink:href="#rim" fill="#404040">
                        <set attributeName="fill" to="#808080" begin="arrowUp.mouseover" end="arrowUp.mouseout"/>
                  </use>
                  <path fill="none" stroke="white" stroke-width="1.5" d="M0,-3.0v7 M-2.5,-0.5L0,-3.0L2.5,-0.5"/>
                </g>
                <g id="arrowRight" xlink:href="#dirArrow" transform="rotate(90) translate(36 -43)" onmousedown="handlePan(1,0)">
                  <use xlink:href="#rim" fill="#404040">
                        <set attributeName="fill" to="#808080" begin="arrowRight.mouseover" end="arrowRight.mouseout"/>
                  </use>
                  <path fill="none" stroke="white" stroke-width="1.5" d="M0,-3.0v7 M-2.5,-0.5L0,-3.0L2.5,-0.5"/>
                </g>
                <g id="arrowDown" xlink:href="#dirArrow" transform="rotate(180) translate(-30 -48)" onmousedown="handlePan(0,1)">
                  <use xlink:href="#rim" fill="#404040">
                        <set attributeName="fill" to="#808080" begin="arrowDown.mouseover" end="arrowDown.mouseout"/>
                  </use>
                  <path fill="none" stroke="white" stroke-width="1.5" d="M0,-3.0v7 M-2.5,-0.5L0,-3.0L2.5,-0.5"/>
                </g>
                <g id="arrowLeft" xlink:href="#dirArrow" transform="rotate(270) translate(-36 17)" onmousedown="handlePan(-1,0)">
                  <use xlink:href="#rim" fill="#404040">
                        <set attributeName="fill" to="#808080" begin="arrowLeft.mouseover" end="arrowLeft.mouseout"/>
                  </use>
                  <path fill="none" stroke="white" stroke-width="1.5" d="M0,-3.0v7 M-2.5,-0.5L0,-3.0L2.5,-0.5"/>
                </g>
        </g>
        <svg viewBox="0 0 15 15" width="100%" height="30px" preserveAspectRatio="xMaxYMin meet">
         <g id="arrow_out" transform="scale(0.3 0.3)">
          <a xlink:href="help__printer_8hpp__incl_org.svg" target="_base">
           <rect id="button" ry="5" rx="5" y="6" x="6" height="38" width="38"
                fill="#f2f5e9" fill-opacity="0.5" stroke="#606060" stroke-width="1.0"/>
           <path id="arrow"
             d="M 11.500037,31.436501 C 11.940474,20.09759 22.043105,11.32322 32.158766,21.979434 L 37.068811,17.246167 C 37.068811,17.246167 37.088388,32 37.088388,32 L 22.160133,31.978069 C 22.160133,31.978069 26.997745,27.140456 26.997745,27.140456 C 18.528582,18.264221 13.291696,25.230495 11.500037,31.436501 z"
             style="fill:#404040;"/>
          </a>
         </g>
        </svg>
</svg>
