<?xml version="1.0" encoding="UTF-8" standalone="no"?>
<!DOCTYPE svg PUBLIC "-//W3C//DTD SVG 1.1//EN"
 "http://www.w3.org/Graphics/SVG/1.1/DTD/svg11.dtd">
<!-- Generated by graphviz version 2.43.0 (0)
 -->
<!-- Title: Graphical Class Hierarchy Pages: 1 -->
<svg width="430pt" height="38pt"
 viewBox="0.00 0.00 430.00 38.00" xmlns="http://www.w3.org/2000/svg" xmlns:xlink="http://www.w3.org/1999/xlink">
<g id="graph0" class="graph" transform="scale(1 1) rotate(0) translate(4 34)">
<title>Graphical Class Hierarchy</title>
<!-- Node0 -->
<g id="node1" class="node">
<title>Node0</title>
<g id="a_node1"><a xlink:title=" ">
<polygon fill="none" stroke="#bfbfbf" points="89,-24.5 0,-24.5 0,-5.5 89,-5.5 89,-24.5"/>
<text text-anchor="middle" x="44.5" y="-12.5" font-family="Helvetica,sans-Serif" font-size="10.00">std::logic_error</text>
</a>
</g>
</g>
<!-- Node1 -->
<g id="node2" class="node">
<title>Node1</title>
<g id="a_node2"><a xlink:href="class_args_1_1_base_exception.html" target="_top" xlink:title="Base exception of the library.">
<polygon fill="none" stroke="black" points="241,-24.5 125,-24.5 125,-5.5 241,-5.5 241,-24.5"/>
<text text-anchor="middle" x="183" y="-12.5" font-family="Helvetica,sans-Serif" font-size="10.00">Args::BaseException</text>
</a>
</g>
</g>
<!-- Node0&#45;&gt;Node1 -->
<g id="edge1" class="edge">
<title>Node0&#45;&gt;Node1</title>
<path fill="none" stroke="midnightblue" d="M99.17,-15C107.62,-15 116.37,-15 124.89,-15"/>
<polygon fill="midnightblue" stroke="midnightblue" points="99.06,-11.5 89.06,-15 99.06,-18.5 99.06,-11.5"/>
</g>
<!-- Node2 -->
<g id="node3" class="node">
<title>Node2</title>
<g id="a_node3"><a xlink:href="class_args_1_1_help_has_been_printed_exception.html" target="_top" xlink:title="This exception notifies about that help has been printed.">
<polygon fill="none" stroke="black" points="422,-30 277,-30 277,0 422,0 422,-30"/>
<text text-anchor="start" x="285" y="-18" font-family="Helvetica,sans-Serif" font-size="10.00">Args::HelpHasBeenPrinted</text>
<text text-anchor="middle" x="349.5" y="-7" font-family="Helvetica,sans-Serif" font-size="10.00">Exception</text>
</a>
</g>
</g>
<!-- Node1&#45;&gt;Node2 -->
<g id="edge2" class="edge">
<title>Node1&#45;&gt;Node2</title>
<path fill="none" stroke="midnightblue" d="M251.21,-15C259.63,-15 268.26,-15 276.75,-15"/>
<polygon fill="midnightblue" stroke="midnightblue" points="251.07,-11.5 241.07,-15 251.07,-18.5 251.07,-11.5"/>
</g>
</g>
</svg>
