<?xml version="1.0" encoding="UTF-8" standalone="no"?>
<!DOCTYPE svg PUBLIC "-//W3C//DTD SVG 1.1//EN"
 "http://www.w3.org/Graphics/SVG/1.1/DTD/svg11.dtd">
<!-- Generated by graphviz version 2.40.1 (20161225.0304)
 -->
<!-- Title: Graphical Class Hierarchy Pages: 1 -->
<svg width="396pt" height="218pt"
 viewBox="0.00 0.00 396.00 218.00" xmlns="http://www.w3.org/2000/svg" xmlns:xlink="http://www.w3.org/1999/xlink">
<g id="graph0" class="graph" transform="scale(1 1) rotate(0) translate(4 214)">
<title>Graphical Class Hierarchy</title>
<!-- Node0 -->
<g id="node1" class="node">
<title>Node0</title>
<g id="a_node1"><a xlink:href="class_args_1_1_arg_iface.html" target="_top" xlink:title="Interface for arguments. ">
<polygon fill="none" stroke="#000000" points="0,-114.5 0,-133.5 80,-133.5 80,-114.5 0,-114.5"/>
<text text-anchor="middle" x="40" y="-121.5" font-family="Helvetica,sans-Serif" font-size="10.00" fill="#000000">Args::ArgIface</text>
</a>
</g>
</g>
<!-- Node1 -->
<g id="node2" class="node">
<title>Node1</title>
<g id="a_node2"><a xlink:href="class_args_1_1_arg.html" target="_top" xlink:title="Argument with one value that can be present only once in the command line. ">
<polygon fill="none" stroke="#000000" points="144.5,-152.5 144.5,-171.5 202.5,-171.5 202.5,-152.5 144.5,-152.5"/>
<text text-anchor="middle" x="173.5" y="-159.5" font-family="Helvetica,sans-Serif" font-size="10.00" fill="#000000">Args::Arg</text>
</a>
</g>
</g>
<!-- Node0&#45;&gt;Node1 -->
<g id="edge1" class="edge">
<title>Node0&#45;&gt;Node1</title>
<path fill="none" stroke="#191970" d="M83.4854,-136.3779C103.4318,-142.0555 126.5461,-148.6349 144.3575,-153.7048"/>
<polygon fill="#191970" stroke="#191970" points="84.2639,-132.9605 73.6877,-133.589 82.3474,-139.6931 84.2639,-132.9605"/>
</g>
<!-- Node4 -->
<g id="node5" class="node">
<title>Node4</title>
<g id="a_node5"><a xlink:href="class_args_1_1_arg_as_command.html" target="_top" xlink:title="This is argument with name without dashes. ">
<polygon fill="none" stroke="#000000" points="116,-114.5 116,-133.5 231,-133.5 231,-114.5 116,-114.5"/>
<text text-anchor="middle" x="173.5" y="-121.5" font-family="Helvetica,sans-Serif" font-size="10.00" fill="#000000">Args::ArgAsCommand</text>
</a>
</g>
</g>
<!-- Node0&#45;&gt;Node4 -->
<g id="edge4" class="edge">
<title>Node0&#45;&gt;Node4</title>
<path fill="none" stroke="#191970" d="M90.3176,-124C98.6053,-124 107.2533,-124 115.7062,-124"/>
<polygon fill="#191970" stroke="#191970" points="90.0544,-120.5001 80.0544,-124 90.0544,-127.5001 90.0544,-120.5001"/>
</g>
<!-- Node5 -->
<g id="node6" class="node">
<title>Node5</title>
<g id="a_node6"><a xlink:href="class_args_1_1_group_iface.html" target="_top" xlink:title="Interface for the groups. ">
<polygon fill="none" stroke="#000000" points="128,-76.5 128,-95.5 219,-95.5 219,-76.5 128,-76.5"/>
<text text-anchor="middle" x="173.5" y="-83.5" font-family="Helvetica,sans-Serif" font-size="10.00" fill="#000000">Args::GroupIface</text>
</a>
</g>
</g>
<!-- Node0&#45;&gt;Node5 -->
<g id="edge5" class="edge">
<title>Node0&#45;&gt;Node5</title>
<path fill="none" stroke="#191970" d="M83.53,-111.6094C101.8122,-106.4055 122.7492,-100.4459 139.8231,-95.5859"/>
<polygon fill="#191970" stroke="#191970" points="82.3474,-108.3069 73.6877,-114.411 84.2639,-115.0395 82.3474,-108.3069"/>
</g>
<!-- Node2 -->
<g id="node3" class="node">
<title>Node2</title>
<g id="a_node3"><a xlink:href="class_args_1_1_help.html" target="_top" xlink:title="Help argument. ">
<polygon fill="none" stroke="#000000" points="296,-190.5 296,-209.5 359,-209.5 359,-190.5 296,-190.5"/>
<text text-anchor="middle" x="327.5" y="-197.5" font-family="Helvetica,sans-Serif" font-size="10.00" fill="#000000">Args::Help</text>
</a>
</g>
</g>
<!-- Node1&#45;&gt;Node2 -->
<g id="edge2" class="edge">
<title>Node1&#45;&gt;Node2</title>
<path fill="none" stroke="#191970" d="M212.6632,-171.6637C238.458,-178.0286 271.7918,-186.2538 295.8951,-192.2014"/>
<polygon fill="#191970" stroke="#191970" points="213.376,-168.2346 202.8287,-169.237 211.699,-175.0308 213.376,-168.2346"/>
</g>
<!-- Node3 -->
<g id="node4" class="node">
<title>Node3</title>
<g id="a_node4"><a xlink:href="class_args_1_1_multi_arg.html" target="_top" xlink:title="MultiArg is a class that presents argument in the command line taht can be presented more than once o...">
<polygon fill="none" stroke="#000000" points="288,-152.5 288,-171.5 367,-171.5 367,-152.5 288,-152.5"/>
<text text-anchor="middle" x="327.5" y="-159.5" font-family="Helvetica,sans-Serif" font-size="10.00" fill="#000000">Args::MultiArg</text>
</a>
</g>
</g>
<!-- Node1&#45;&gt;Node3 -->
<g id="edge3" class="edge">
<title>Node1&#45;&gt;Node3</title>
<path fill="none" stroke="#191970" d="M212.9262,-162C235.9006,-162 264.7868,-162 287.8068,-162"/>
<polygon fill="#191970" stroke="#191970" points="212.8287,-158.5001 202.8287,-162 212.8287,-165.5001 212.8287,-158.5001"/>
</g>
<!-- Node6 -->
<g id="node7" class="node">
<title>Node6</title>
<g id="a_node7"><a xlink:href="class_args_1_1_all_of_group.html" target="_top" xlink:title="Group of args where all arguments should be defined. ">
<polygon fill="none" stroke="#000000" points="282,-114.5 282,-133.5 373,-133.5 373,-114.5 282,-114.5"/>
<text text-anchor="middle" x="327.5" y="-121.5" font-family="Helvetica,sans-Serif" font-size="10.00" fill="#000000">Args::AllOfGroup</text>
</a>
</g>
</g>
<!-- Node5&#45;&gt;Node6 -->
<g id="edge6" class="edge">
<title>Node5&#45;&gt;Node6</title>
<path fill="none" stroke="#191970" d="M222.2937,-98.04C243.8082,-103.3488 268.7318,-109.4988 288.9187,-114.4799"/>
<polygon fill="#191970" stroke="#191970" points="222.908,-94.5867 212.3607,-95.589 221.231,-101.3828 222.908,-94.5867"/>
</g>
<!-- Node7 -->
<g id="node8" class="node">
<title>Node7</title>
<g id="a_node8"><a xlink:href="class_args_1_1_at_least_one_group.html" target="_top" xlink:title="Group of args where at least one argument should be defined. ">
<polygon fill="none" stroke="#000000" points="267,-76.5 267,-95.5 388,-95.5 388,-76.5 267,-76.5"/>
<text text-anchor="middle" x="327.5" y="-83.5" font-family="Helvetica,sans-Serif" font-size="10.00" fill="#000000">Args::AtLeastOneGroup</text>
</a>
</g>
</g>
<!-- Node5&#45;&gt;Node7 -->
<g id="edge7" class="edge">
<title>Node5&#45;&gt;Node7</title>
<path fill="none" stroke="#191970" d="M229.3027,-86C241.4748,-86 254.4132,-86 266.7664,-86"/>
<polygon fill="#191970" stroke="#191970" points="229.2882,-82.5001 219.2881,-86 229.2881,-89.5001 229.2882,-82.5001"/>
</g>
<!-- Node8 -->
<g id="node9" class="node">
<title>Node8</title>
<g id="a_node9"><a xlink:href="class_args_1_1_command.html" target="_top" xlink:title="Command in the command line interface. ">
<polygon fill="none" stroke="#000000" points="283.5,-38.5 283.5,-57.5 371.5,-57.5 371.5,-38.5 283.5,-38.5"/>
<text text-anchor="middle" x="327.5" y="-45.5" font-family="Helvetica,sans-Serif" font-size="10.00" fill="#000000">Args::Command</text>
</a>
</g>
</g>
<!-- Node5&#45;&gt;Node8 -->
<g id="edge8" class="edge">
<title>Node5&#45;&gt;Node8</title>
<path fill="none" stroke="#191970" d="M222.2937,-73.96C243.8082,-68.6512 268.7318,-62.5012 288.9187,-57.5201"/>
<polygon fill="#191970" stroke="#191970" points="221.231,-70.6172 212.3607,-76.411 222.908,-77.4133 221.231,-70.6172"/>
</g>
<!-- Node9 -->
<g id="node10" class="node">
<title>Node9</title>
<g id="a_node10"><a xlink:href="class_args_1_1_only_one_group.html" target="_top" xlink:title="Group of args where only one argument can be defined. ">
<polygon fill="none" stroke="#000000" points="274,-.5 274,-19.5 381,-19.5 381,-.5 274,-.5"/>
<text text-anchor="middle" x="327.5" y="-7.5" font-family="Helvetica,sans-Serif" font-size="10.00" fill="#000000">Args::OnlyOneGroup</text>
</a>
</g>
</g>
<!-- Node5&#45;&gt;Node9 -->
<g id="edge9" class="edge">
<title>Node5&#45;&gt;Node9</title>
<path fill="none" stroke="#191970" d="M195.1318,-70.7173C213.566,-58.2159 241.1116,-40.7442 267,-29 274.9204,-25.4069 283.7139,-22.2221 292.0873,-19.5357"/>
<polygon fill="#191970" stroke="#191970" points="193.1154,-67.8562 186.8614,-76.4083 197.0835,-73.6229 193.1154,-67.8562"/>
</g>
</g>
</svg>
