<?xml version="1.0" encoding="UTF-8" standalone="no"?>
<!DOCTYPE svg PUBLIC "-//W3C//DTD SVG 1.1//EN"
 "http://www.w3.org/Graphics/SVG/1.1/DTD/svg11.dtd">
<!-- Generated by graphviz version 2.40.1 (20161225.0304)
 -->
<!-- Title: Graphical Class Hierarchy Pages: 1 -->
<svg width="287pt" height="52pt"
 viewBox="0.00 0.00 287.00 51.50" xmlns="http://www.w3.org/2000/svg" xmlns:xlink="http://www.w3.org/1999/xlink">
<g id="graph0" class="graph" transform="scale(1 1) rotate(0) translate(4 47.5)">
<title>Graphical Class Hierarchy</title>
<!-- Node0 -->
<g id="node1" class="node">
<title>Node0</title>
<g id="a_node1"><a xlink:href="class_args_1_1_base_exception.html" target="_top" xlink:title="Base exception of the library. ">
<polygon fill="none" stroke="#000000" points="0,-6 0,-25 109,-25 109,-6 0,-6"/>
<text text-anchor="middle" x="54.5" y="-13" font-family="Helvetica,sans-Serif" font-size="10.00" fill="#000000">Args::BaseException</text>
</a>
</g>
</g>
<!-- Node0&#45;&gt;Node0 -->
<g id="edge1" class="edge">
<title>Node0&#45;&gt;Node0</title>
<path fill="none" stroke="#191970" d="M25.3809,-34.1539C26.5981,-39.4368 36.3044,-43.5 54.5,-43.5 82.2266,-43.5 90.2413,-34.0653 78.5441,-25.2571"/>
<polygon fill="#191970" stroke="#191970" points="28.5412,-35.6775 30.4559,-25.2571 22.4609,-32.2091 28.5412,-35.6775"/>
</g>
<!-- Node1 -->
<g id="node2" class="node">
<title>Node1</title>
<g id="a_node2"><a xlink:href="class_args_1_1_help_has_been_printed_exception.html" target="_top" xlink:title="This exception notifies about that help has been printed. ">
<polygon fill="none" stroke="#000000" points="145,-.5 145,-30.5 279,-30.5 279,-.5 145,-.5"/>
<text text-anchor="start" x="153" y="-18.5" font-family="Helvetica,sans-Serif" font-size="10.00" fill="#000000">Args::HelpHasBeenPrinted</text>
<text text-anchor="middle" x="212" y="-7.5" font-family="Helvetica,sans-Serif" font-size="10.00" fill="#000000">Exception</text>
</a>
</g>
</g>
<!-- Node0&#45;&gt;Node1 -->
<g id="edge2" class="edge">
<title>Node0&#45;&gt;Node1</title>
<path fill="none" stroke="#191970" d="M119.3245,-15.5C127.7833,-15.5 136.4635,-15.5 144.9578,-15.5"/>
<polygon fill="#191970" stroke="#191970" points="119.1439,-12.0001 109.1438,-15.5 119.1438,-19.0001 119.1439,-12.0001"/>
</g>
</g>
</svg>
