<?xml version="1.0" encoding="UTF-8" standalone="no"?>
<!DOCTYPE svg PUBLIC "-//W3C//DTD SVG 1.1//EN"
 "http://www.w3.org/Graphics/SVG/1.1/DTD/svg11.dtd">
<!-- Generated by graphviz version 14.1.2 (0)
 -->
<!-- Title: Graphical Class Hierarchy Pages: 1 -->
<svg width="403pt" height="40pt"
 viewBox="0.00 0.00 403.00 40.00" xmlns="http://www.w3.org/2000/svg" xmlns:xlink="http://www.w3.org/1999/xlink">
<g id="graph0" class="graph" transform="scale(1 1) rotate(0) translate(4 36)">
<title>Graphical Class Hierarchy</title>
<!-- Node0 -->
<g id="Node000000" class="node">
<title>Node0</title>
<g id="a_Node000000"><a xlink:title=" ">
<polygon fill="#e0e0e0" stroke="#999999" points="80.5,-26 0,-26 0,-6 80.5,-6 80.5,-26"/>
<text xml:space="preserve" text-anchor="middle" x="40.25" y="-12.5" font-family="Helvetica,sans-Serif" font-size="10.00">std::logic_error</text>
</a>
</g>
</g>
<!-- Node1 -->
<g id="Node000001" class="node">
<title>Node1</title>
<g id="a_Node000001"><a xlink:href="class_args_1_1_base_exception.html" target="_top" xlink:title="Base exception of the library.">
<polygon fill="white" stroke="#666666" points="224.75,-26 116.5,-26 116.5,-6 224.75,-6 224.75,-26"/>
<text xml:space="preserve" text-anchor="middle" x="170.62" y="-12.5" font-family="Helvetica,sans-Serif" font-size="10.00">Args::BaseException</text>
</a>
</g>
</g>
<!-- Node0&#45;&gt;Node1 -->
<g id="edge11_Node000000_Node000001" class="edge">
<title>Node0&#45;&gt;Node1</title>
<g id="a_edge11_Node000000_Node000001"><a xlink:title=" ">
<path fill="none" stroke="#63b8ff" d="M92.16,-16C100.08,-16 108.28,-16 116.26,-16"/>
<polygon fill="#63b8ff" stroke="#63b8ff" points="92.33,-12.5 82.33,-16 92.33,-19.5 92.33,-12.5"/>
</a>
</g>
</g>
<!-- Node2 -->
<g id="Node000002" class="node">
<title>Node2</title>
<g id="a_Node000002"><a xlink:href="class_args_1_1_help_has_been_printed_exception.html" target="_top" xlink:title="This exception notifies about that help has been printed.">
<polygon fill="white" stroke="#666666" points="394.5,-32 260.75,-32 260.75,0 394.5,0 394.5,-32"/>
<text xml:space="preserve" text-anchor="start" x="268.75" y="-18.5" font-family="Helvetica,sans-Serif" font-size="10.00">Args::HelpHasBeenPrinted</text>
<text xml:space="preserve" text-anchor="middle" x="327.62" y="-6.5" font-family="Helvetica,sans-Serif" font-size="10.00">Exception</text>
</a>
</g>
</g>
<!-- Node1&#45;&gt;Node2 -->
<g id="edge12_Node000001_Node000002" class="edge">
<title>Node1&#45;&gt;Node2</title>
<g id="a_edge12_Node000001_Node000002"><a xlink:title=" ">
<path fill="none" stroke="#63b8ff" d="M236.38,-16C244.29,-16 252.38,-16 260.31,-16"/>
<polygon fill="#63b8ff" stroke="#63b8ff" points="236.48,-12.5 226.48,-16 236.48,-19.5 236.48,-12.5"/>
</a>
</g>
</g>
</g>
</svg>
