<?xml version="1.0" encoding="UTF-8" standalone="no"?>
<!DOCTYPE svg PUBLIC "-//W3C//DTD SVG 1.1//EN"
 "http://www.w3.org/Graphics/SVG/1.1/DTD/svg11.dtd">
<!-- Generated by graphviz version 2.38.0 (20140413.2041)
 -->
<!-- Title: multi_arg.hpp Pages: 1 -->
<!--zoomable 308 -->
<svg id="main" version="1.1" xmlns="http://www.w3.org/2000/svg" xmlns:xlink="http://www.w3.org/1999/xlink" xml:space="preserve" onload="init(evt)">
<style type="text/css"><![CDATA[
.edge:hover path { stroke: red; }
.edge:hover polygon { stroke: red; fill: red; }
]]></style>
<script type="text/javascript"><![CDATA[
var edges = document.getElementsByTagName('g');
if (edges && edges.length) {
  for (var i=0;i<edges.length;i++) {
    if (edges[i].id.substr(0,4)=='edge') {
      edges[i].setAttribute('class','edge');
    }
  }
}
]]></script>
        <defs>
                <circle id="rim" cx="0" cy="0" r="7"/>
                <circle id="rim2" cx="0" cy="0" r="3.5"/>
                <g id="zoomPlus">
                        <use xlink:href="#rim" fill="#404040">
                                <set attributeName="fill" to="#808080" begin="zoomplus.mouseover" end="zoomplus.mouseout"/>
                        </use>
                        <path d="M-4,0h8M0,-4v8" fill="none" stroke="white" stroke-width="1.5" pointer-events="none"/>
                </g>
                <g id="zoomMin">
                        <use xlink:href="#rim" fill="#404040">
                                <set attributeName="fill" to="#808080" begin="zoomminus.mouseover" end="zoomminus.mouseout"/>
                        </use>
                        <path d="M-4,0h8" fill="none" stroke="white" stroke-width="1.5" pointer-events="none"/>
                </g>
                <g id="dirArrow">
                        <path fill="none" stroke="white" stroke-width="1.5" d="M0,-3.0v7 M-2.5,-0.5L0,-3.0L2.5,-0.5"/>
                </g>
               <g id="resetDef">
                       <use xlink:href="#rim2" fill="#404040">
                               <set attributeName="fill" to="#808080" begin="reset.mouseover" end="reset.mouseout"/>
                       </use>
               </g>
        </defs>

<script type="text/javascript">
var viewWidth = 555;
var viewHeight = 308;
var sectionId = 'dynsection-0';
</script>
<script xlink:href="svgpan.js"/>
<svg id="graph" class="graph">
<g id="viewport">
<title>multi_arg.hpp</title>
<!-- Node1 -->
<g id="node1" class="node"><title>Node1</title>
<polygon fill="#bfbfbf" stroke="black" points="241.5,-280.5 241.5,-299.5 316.5,-299.5 316.5,-280.5 241.5,-280.5"/>
<text text-anchor="middle" x="279" y="-287.5" font-family="Helvetica,sans-Serif" font-size="10.00">multi_arg.hpp</text>
</g>
<!-- Node2 -->
<g id="node2" class="node"><title>Node2</title>
<g id="a_node2"><a xlink:href="arg_8hpp.html" target="_top" xlink:title="arg.hpp">
<polygon fill="none" stroke="black" points="254.5,-224.5 254.5,-243.5 303.5,-243.5 303.5,-224.5 254.5,-224.5"/>
<text text-anchor="middle" x="279" y="-231.5" font-family="Helvetica,sans-Serif" font-size="10.00">arg.hpp</text>
</a>
</g>
</g>
<!-- Node1&#45;&gt;Node2 -->
<g id="edge1" class="edge"><title>Node1&#45;&gt;Node2</title>
<path fill="none" stroke="midnightblue" d="M279,-280.083C279,-273.006 279,-262.861 279,-253.986"/>
<polygon fill="midnightblue" stroke="midnightblue" points="282.5,-253.751 279,-243.751 275.5,-253.751 282.5,-253.751"/>
</g>
<!-- Node4 -->
<g id="node4" class="node"><title>Node4</title>
<g id="a_node4"><a xlink:href="utils_8hpp.html" target="_top" xlink:title="utils.hpp">
<polygon fill="none" stroke="black" points="106.5,-112.5 106.5,-131.5 159.5,-131.5 159.5,-112.5 106.5,-112.5"/>
<text text-anchor="middle" x="133" y="-119.5" font-family="Helvetica,sans-Serif" font-size="10.00">utils.hpp</text>
</a>
</g>
</g>
<!-- Node1&#45;&gt;Node4 -->
<g id="edge31" class="edge"><title>Node1&#45;&gt;Node4</title>
<path fill="none" stroke="midnightblue" d="M268.045,-280.385C247.557,-263.922 202.738,-226.219 172,-188 160.17,-173.29 149.353,-154.658 142.128,-141.117"/>
<polygon fill="midnightblue" stroke="midnightblue" points="145.059,-139.167 137.346,-131.904 138.846,-142.392 145.059,-139.167"/>
</g>
<!-- Node6 -->
<g id="node6" class="node"><title>Node6</title>
<g id="a_node6"><a xlink:href="types_8hpp.html" target="_top" xlink:title="types.hpp">
<polygon fill="none" stroke="black" points="318.5,-56.5 318.5,-75.5 377.5,-75.5 377.5,-56.5 318.5,-56.5"/>
<text text-anchor="middle" x="348" y="-63.5" font-family="Helvetica,sans-Serif" font-size="10.00">types.hpp</text>
</a>
</g>
</g>
<!-- Node1&#45;&gt;Node6 -->
<g id="edge32" class="edge"><title>Node1&#45;&gt;Node6</title>
<path fill="none" stroke="midnightblue" d="M316.549,-284.969C352.745,-279.782 408.05,-268.347 450,-244 506.206,-211.379 524.537,-194.003 544,-132 546.662,-123.519 549.538,-118.953 544,-112 524.872,-87.9831 439.51,-75.7262 387.954,-70.4067"/>
<polygon fill="midnightblue" stroke="midnightblue" points="388.109,-66.905 377.813,-69.4045 387.42,-73.8711 388.109,-66.905"/>
</g>
<!-- Node13 -->
<g id="node13" class="node"><title>Node13</title>
<g id="a_node13"><a xlink:href="context_8hpp.html" target="_top" xlink:title="context.hpp">
<polygon fill="none" stroke="black" points="41,-168.5 41,-187.5 109,-187.5 109,-168.5 41,-168.5"/>
<text text-anchor="middle" x="75" y="-175.5" font-family="Helvetica,sans-Serif" font-size="10.00">context.hpp</text>
</a>
</g>
</g>
<!-- Node1&#45;&gt;Node13 -->
<g id="edge28" class="edge"><title>Node1&#45;&gt;Node13</title>
<path fill="none" stroke="midnightblue" d="M241.41,-285.067C207.85,-280.038 158.635,-268.788 123,-244 105.596,-231.894 92.0131,-211.429 83.8045,-196.693"/>
<polygon fill="midnightblue" stroke="midnightblue" points="86.7595,-194.793 78.9994,-187.58 80.5674,-198.058 86.7595,-194.793"/>
</g>
<!-- Node14 -->
<g id="node14" class="node"><title>Node14</title>
<polygon fill="none" stroke="#bfbfbf" points="0,-112.5 0,-131.5 40,-131.5 40,-112.5 0,-112.5"/>
<text text-anchor="middle" x="20" y="-119.5" font-family="Helvetica,sans-Serif" font-size="10.00">utility</text>
</g>
<!-- Node1&#45;&gt;Node14 -->
<g id="edge33" class="edge"><title>Node1&#45;&gt;Node14</title>
<path fill="none" stroke="midnightblue" d="M241.426,-284.62C203.765,-279.104 144.937,-267.368 99,-244 64.4091,-226.403 51.5718,-221.513 32,-188 23.7715,-173.91 20.9816,-155.42 20.1274,-141.764"/>
<polygon fill="midnightblue" stroke="midnightblue" points="23.6209,-141.51 19.7882,-131.633 16.6249,-141.744 23.6209,-141.51"/>
</g>
<!-- Node15 -->
<g id="node15" class="node"><title>Node15</title>
<g id="a_node15"><a xlink:href="exceptions_8hpp.html" target="_top" xlink:title="exceptions.hpp">
<polygon fill="none" stroke="black" points="452.5,-112.5 452.5,-131.5 535.5,-131.5 535.5,-112.5 452.5,-112.5"/>
<text text-anchor="middle" x="494" y="-119.5" font-family="Helvetica,sans-Serif" font-size="10.00">exceptions.hpp</text>
</a>
</g>
</g>
<!-- Node1&#45;&gt;Node15 -->
<g id="edge29" class="edge"><title>Node1&#45;&gt;Node15</title>
<path fill="none" stroke="midnightblue" d="M316.671,-281.985C364.485,-270.945 445.592,-244.641 486,-188 495.483,-174.708 496.844,-155.874 496.211,-141.898"/>
<polygon fill="midnightblue" stroke="midnightblue" points="499.7,-141.611 495.394,-131.931 492.723,-142.184 499.7,-141.611"/>
</g>
<!-- Node17 -->
<g id="node17" class="node"><title>Node17</title>
<g id="a_node17"><a xlink:href="value__utils_8hpp.html" target="_top" xlink:title="value_utils.hpp">
<polygon fill="none" stroke="black" points="373,-168.5 373,-187.5 455,-187.5 455,-168.5 373,-168.5"/>
<text text-anchor="middle" x="414" y="-175.5" font-family="Helvetica,sans-Serif" font-size="10.00">value_utils.hpp</text>
</a>
</g>
</g>
<!-- Node1&#45;&gt;Node17 -->
<g id="edge30" class="edge"><title>Node1&#45;&gt;Node17</title>
<path fill="none" stroke="midnightblue" d="M289.593,-280.368C312.464,-261.733 366.71,-217.532 395.427,-194.134"/>
<polygon fill="midnightblue" stroke="midnightblue" points="397.914,-196.622 403.456,-187.591 393.493,-191.195 397.914,-196.622"/>
</g>
<!-- Node3 -->
<g id="node3" class="node"><title>Node3</title>
<g id="a_node3"><a xlink:href="arg__iface_8hpp.html" target="_top" xlink:title="arg_iface.hpp">
<polygon fill="none" stroke="black" points="241.5,-168.5 241.5,-187.5 316.5,-187.5 316.5,-168.5 241.5,-168.5"/>
<text text-anchor="middle" x="279" y="-175.5" font-family="Helvetica,sans-Serif" font-size="10.00">arg_iface.hpp</text>
</a>
</g>
</g>
<!-- Node2&#45;&gt;Node3 -->
<g id="edge2" class="edge"><title>Node2&#45;&gt;Node3</title>
<path fill="none" stroke="midnightblue" d="M279,-224.083C279,-217.006 279,-206.861 279,-197.986"/>
<polygon fill="midnightblue" stroke="midnightblue" points="282.5,-197.751 279,-187.751 275.5,-197.751 282.5,-197.751"/>
</g>
<!-- Node2&#45;&gt;Node4 -->
<g id="edge13" class="edge"><title>Node2&#45;&gt;Node4</title>
<path fill="none" stroke="midnightblue" d="M260.685,-224.448C243.901,-216.215 218.736,-202.851 199,-188 179.632,-173.426 160.192,-153.482 147.479,-139.544"/>
<polygon fill="midnightblue" stroke="midnightblue" points="149.772,-136.857 140.493,-131.742 144.557,-141.527 149.772,-136.857"/>
</g>
<!-- Node2&#45;&gt;Node6 -->
<g id="edge26" class="edge"><title>Node2&#45;&gt;Node6</title>
<path fill="none" stroke="midnightblue" d="M291.217,-224.483C301.876,-216.368 316.871,-203.163 325,-188 342.618,-155.136 346.906,-110.9 347.85,-86.0335"/>
<polygon fill="midnightblue" stroke="midnightblue" points="351.354,-85.8769 348.086,-75.7987 344.356,-85.7153 351.354,-85.8769"/>
</g>
<!-- Node10 -->
<g id="node10" class="node"><title>Node10</title>
<polygon fill="none" stroke="#bfbfbf" points="172,-56.5 172,-75.5 228,-75.5 228,-56.5 172,-56.5"/>
<text text-anchor="middle" x="200" y="-63.5" font-family="Helvetica,sans-Serif" font-size="10.00">algorithm</text>
</g>
<!-- Node2&#45;&gt;Node10 -->
<g id="edge27" class="edge"><title>Node2&#45;&gt;Node10</title>
<path fill="none" stroke="midnightblue" d="M267.732,-224.361C257.38,-215.967 242.146,-202.409 232,-188 216.307,-165.714 214.101,-158.315 207,-132 202.883,-116.744 201.174,-98.8582 200.471,-85.7142"/>
<polygon fill="midnightblue" stroke="midnightblue" points="203.962,-85.4263 200.077,-75.5696 196.968,-85.6979 203.962,-85.4263"/>
</g>
<!-- Node2&#45;&gt;Node13 -->
<g id="edge14" class="edge"><title>Node2&#45;&gt;Node13</title>
<path fill="none" stroke="midnightblue" d="M254.393,-226.486C220.421,-217.494 158.665,-201.147 117.234,-190.18"/>
<polygon fill="midnightblue" stroke="midnightblue" points="117.99,-186.759 107.427,-187.584 116.199,-193.526 117.99,-186.759"/>
</g>
<!-- Node2&#45;&gt;Node15 -->
<g id="edge18" class="edge"><title>Node2&#45;&gt;Node15</title>
<path fill="none" stroke="midnightblue" d="M303.525,-233.494C342.011,-232.984 417.034,-226.644 464,-188 478.225,-176.295 486.035,-156.355 490.089,-141.639"/>
<polygon fill="midnightblue" stroke="midnightblue" points="493.562,-142.169 492.502,-131.627 486.756,-140.529 493.562,-142.169"/>
</g>
<!-- Node2&#45;&gt;Node17 -->
<g id="edge21" class="edge"><title>Node2&#45;&gt;Node17</title>
<path fill="none" stroke="midnightblue" d="M300.391,-224.444C322.707,-215.517 357.903,-201.439 383.208,-191.317"/>
<polygon fill="midnightblue" stroke="midnightblue" points="384.724,-194.48 392.709,-187.516 382.124,-187.981 384.724,-194.48"/>
</g>
<!-- Node3&#45;&gt;Node4 -->
<g id="edge3" class="edge"><title>Node3&#45;&gt;Node4</title>
<path fill="none" stroke="midnightblue" d="M255.866,-168.444C231.518,-159.438 192.993,-145.189 165.577,-135.049"/>
<polygon fill="midnightblue" stroke="midnightblue" points="166.619,-131.703 156.026,-131.516 164.191,-138.268 166.619,-131.703"/>
</g>
<!-- Node3&#45;&gt;Node6 -->
<g id="edge11" class="edge"><title>Node3&#45;&gt;Node6</title>
<path fill="none" stroke="midnightblue" d="M284.414,-168.368C295.751,-150.296 322.171,-108.176 337.144,-84.3074"/>
<polygon fill="midnightblue" stroke="midnightblue" points="340.262,-85.9226 342.611,-75.5914 334.332,-82.2029 340.262,-85.9226"/>
</g>
<!-- Node12 -->
<g id="node12" class="node"><title>Node12</title>
<g id="a_node12"><a xlink:href="enums_8hpp.html" target="_top" xlink:title="enums.hpp">
<polygon fill="none" stroke="black" points="216.5,-112.5 216.5,-131.5 281.5,-131.5 281.5,-112.5 216.5,-112.5"/>
<text text-anchor="middle" x="249" y="-119.5" font-family="Helvetica,sans-Serif" font-size="10.00">enums.hpp</text>
</a>
</g>
</g>
<!-- Node3&#45;&gt;Node12 -->
<g id="edge12" class="edge"><title>Node3&#45;&gt;Node12</title>
<path fill="none" stroke="midnightblue" d="M274.046,-168.083C269.896,-160.613 263.847,-149.724 258.733,-140.52"/>
<polygon fill="midnightblue" stroke="midnightblue" points="261.778,-138.793 253.862,-131.751 255.659,-142.192 261.778,-138.793"/>
</g>
<!-- Node5 -->
<g id="node5" class="node"><title>Node5</title>
<polygon fill="none" stroke="#bfbfbf" points="112.5,-56.5 112.5,-75.5 153.5,-75.5 153.5,-56.5 112.5,-56.5"/>
<text text-anchor="middle" x="133" y="-63.5" font-family="Helvetica,sans-Serif" font-size="10.00">regex</text>
</g>
<!-- Node4&#45;&gt;Node5 -->
<g id="edge4" class="edge"><title>Node4&#45;&gt;Node5</title>
<path fill="none" stroke="midnightblue" d="M133,-112.083C133,-105.006 133,-94.8611 133,-85.9865"/>
<polygon fill="midnightblue" stroke="midnightblue" points="136.5,-85.751 133,-75.7511 129.5,-85.7511 136.5,-85.751"/>
</g>
<!-- Node4&#45;&gt;Node6 -->
<g id="edge5" class="edge"><title>Node4&#45;&gt;Node6</title>
<path fill="none" stroke="midnightblue" d="M159.795,-114.27C197.208,-104.873 265.353,-87.7578 308.567,-76.904"/>
<polygon fill="midnightblue" stroke="midnightblue" points="309.605,-80.2521 318.451,-74.4215 307.9,-73.463 309.605,-80.2521"/>
</g>
<!-- Node4&#45;&gt;Node10 -->
<g id="edge9" class="edge"><title>Node4&#45;&gt;Node10</title>
<path fill="none" stroke="midnightblue" d="M143.765,-112.324C153.766,-104.263 168.887,-92.0765 180.93,-82.3695"/>
<polygon fill="midnightblue" stroke="midnightblue" points="183.45,-84.8343 189.039,-75.8339 179.057,-79.3841 183.45,-84.8343"/>
</g>
<!-- Node11 -->
<g id="node11" class="node"><title>Node11</title>
<polygon fill="none" stroke="#bfbfbf" points="32,-56.5 32,-75.5 94,-75.5 94,-56.5 32,-56.5"/>
<text text-anchor="middle" x="63" y="-63.5" font-family="Helvetica,sans-Serif" font-size="10.00">type_traits</text>
</g>
<!-- Node4&#45;&gt;Node11 -->
<g id="edge10" class="edge"><title>Node4&#45;&gt;Node11</title>
<path fill="none" stroke="midnightblue" d="M121.753,-112.324C111.203,-104.185 95.1993,-91.8395 82.5578,-82.0874"/>
<polygon fill="midnightblue" stroke="midnightblue" points="84.507,-79.1707 74.4513,-75.8339 80.2314,-84.7132 84.507,-79.1707"/>
</g>
<!-- Node7 -->
<g id="node7" class="node"><title>Node7</title>
<polygon fill="none" stroke="#bfbfbf" points="261.5,-0.5 261.5,-19.5 302.5,-19.5 302.5,-0.5 261.5,-0.5"/>
<text text-anchor="middle" x="282" y="-7.5" font-family="Helvetica,sans-Serif" font-size="10.00">string</text>
</g>
<!-- Node6&#45;&gt;Node7 -->
<g id="edge6" class="edge"><title>Node6&#45;&gt;Node7</title>
<path fill="none" stroke="midnightblue" d="M337.396,-56.324C327.544,-48.2631 312.649,-36.0765 300.785,-26.3695"/>
<polygon fill="midnightblue" stroke="midnightblue" points="302.753,-23.4575 292.797,-19.8339 298.32,-28.8752 302.753,-23.4575"/>
</g>
<!-- Node8 -->
<g id="node8" class="node"><title>Node8</title>
<polygon fill="none" stroke="#bfbfbf" points="321,-0.5 321,-19.5 375,-19.5 375,-0.5 321,-0.5"/>
<text text-anchor="middle" x="348" y="-7.5" font-family="Helvetica,sans-Serif" font-size="10.00">iostream</text>
</g>
<!-- Node6&#45;&gt;Node8 -->
<g id="edge7" class="edge"><title>Node6&#45;&gt;Node8</title>
<path fill="none" stroke="midnightblue" d="M348,-56.083C348,-49.0059 348,-38.8611 348,-29.9865"/>
<polygon fill="midnightblue" stroke="midnightblue" points="351.5,-29.751 348,-19.7511 344.5,-29.7511 351.5,-29.751"/>
</g>
<!-- Node9 -->
<g id="node9" class="node"><title>Node9</title>
<polygon fill="none" stroke="#bfbfbf" points="393,-0.5 393,-19.5 437,-19.5 437,-0.5 393,-0.5"/>
<text text-anchor="middle" x="415" y="-7.5" font-family="Helvetica,sans-Serif" font-size="10.00">vector</text>
</g>
<!-- Node6&#45;&gt;Node9 -->
<g id="edge8" class="edge"><title>Node6&#45;&gt;Node9</title>
<path fill="none" stroke="midnightblue" d="M358.765,-56.324C368.766,-48.2631 383.887,-36.0765 395.93,-26.3695"/>
<polygon fill="midnightblue" stroke="midnightblue" points="398.45,-28.8343 404.039,-19.8339 394.057,-23.3841 398.45,-28.8343"/>
</g>
<!-- Node13&#45;&gt;Node4 -->
<g id="edge16" class="edge"><title>Node13&#45;&gt;Node4</title>
<path fill="none" stroke="midnightblue" d="M84.3187,-168.324C92.8926,-160.341 105.812,-148.313 116.188,-138.653"/>
<polygon fill="midnightblue" stroke="midnightblue" points="118.578,-141.21 123.512,-131.834 113.808,-136.086 118.578,-141.21"/>
</g>
<!-- Node13&#45;&gt;Node6 -->
<g id="edge17" class="edge"><title>Node13&#45;&gt;Node6</title>
<path fill="none" stroke="midnightblue" d="M75.2687,-168.321C76.2035,-154.221 80.2085,-126.46 97,-112 112.802,-98.3922 241.315,-80.4382 308.064,-71.9073"/>
<polygon fill="midnightblue" stroke="midnightblue" points="308.739,-75.3499 318.22,-70.6211 307.859,-68.4053 308.739,-75.3499"/>
</g>
<!-- Node13&#45;&gt;Node14 -->
<g id="edge15" class="edge"><title>Node13&#45;&gt;Node14</title>
<path fill="none" stroke="midnightblue" d="M65.9179,-168.083C57.8287,-160.141 45.8046,-148.335 36.0898,-138.797"/>
<polygon fill="midnightblue" stroke="midnightblue" points="38.5009,-136.26 28.9131,-131.751 33.5967,-141.254 38.5009,-136.26"/>
</g>
<!-- Node15&#45;&gt;Node6 -->
<g id="edge20" class="edge"><title>Node15&#45;&gt;Node6</title>
<path fill="none" stroke="midnightblue" d="M470.866,-112.444C446.518,-103.438 407.993,-89.1891 380.577,-79.049"/>
<polygon fill="midnightblue" stroke="midnightblue" points="381.619,-75.7028 371.026,-75.5164 379.191,-82.2681 381.619,-75.7028"/>
</g>
<!-- Node16 -->
<g id="node16" class="node"><title>Node16</title>
<polygon fill="none" stroke="#bfbfbf" points="464.5,-56.5 464.5,-75.5 523.5,-75.5 523.5,-56.5 464.5,-56.5"/>
<text text-anchor="middle" x="494" y="-63.5" font-family="Helvetica,sans-Serif" font-size="10.00">stdexcept</text>
</g>
<!-- Node15&#45;&gt;Node16 -->
<g id="edge19" class="edge"><title>Node15&#45;&gt;Node16</title>
<path fill="none" stroke="midnightblue" d="M494,-112.083C494,-105.006 494,-94.8611 494,-85.9865"/>
<polygon fill="midnightblue" stroke="midnightblue" points="497.5,-85.751 494,-75.7511 490.5,-85.7511 497.5,-85.751"/>
</g>
<!-- Node17&#45;&gt;Node4 -->
<g id="edge22" class="edge"><title>Node17&#45;&gt;Node4</title>
<path fill="none" stroke="midnightblue" d="M372.839,-169.09C318.103,-158.571 222.183,-140.138 169.763,-130.065"/>
<polygon fill="midnightblue" stroke="midnightblue" points="170.365,-126.617 159.884,-128.166 169.044,-133.491 170.365,-126.617"/>
</g>
<!-- Node17&#45;&gt;Node6 -->
<g id="edge24" class="edge"><title>Node17&#45;&gt;Node6</title>
<path fill="none" stroke="midnightblue" d="M413.851,-168.377C413.266,-155.303 410.708,-130.076 400,-112 392.774,-99.8021 381.063,-89.2379 370.583,-81.4163"/>
<polygon fill="midnightblue" stroke="midnightblue" points="372.387,-78.4063 362.194,-75.5156 368.359,-84.1317 372.387,-78.4063"/>
</g>
<!-- Node17&#45;&gt;Node10 -->
<g id="edge25" class="edge"><title>Node17&#45;&gt;Node10</title>
<path fill="none" stroke="midnightblue" d="M397.999,-168.487C374.426,-155.975 328.943,-131.94 290,-112 268.746,-101.117 244.531,-89.0268 226.576,-80.121"/>
<polygon fill="midnightblue" stroke="midnightblue" points="227.818,-76.8306 217.303,-75.5289 224.711,-83.1034 227.818,-76.8306"/>
</g>
<!-- Node17&#45;&gt;Node15 -->
<g id="edge23" class="edge"><title>Node17&#45;&gt;Node15</title>
<path fill="none" stroke="midnightblue" d="M426.853,-168.324C439.216,-159.979 458.13,-147.212 472.737,-137.352"/>
<polygon fill="midnightblue" stroke="midnightblue" points="474.848,-140.15 481.179,-131.655 470.932,-134.348 474.848,-140.15"/>
</g>
</g>
</svg>
        <g id="navigator" transform="translate(0 0)" fill="#404254">
                <rect fill="#f2f5e9" fill-opacity="0.5" stroke="#606060" stroke-width=".5" x="0" y="0" width="60" height="60"/>
                <use id="zoomplus" xlink:href="#zoomPlus" x="17" y="9" onmousedown="handleZoom(evt,'in')"/>
                <use id="zoomminus" xlink:href="#zoomMin" x="42" y="9" onmousedown="handleZoom(evt,'out')"/>
                <use id="reset" xlink:href="#resetDef" x="30" y="36" onmousedown="handleReset()"/>
                <g id="arrowUp" xlink:href="#dirArrow" transform="translate(30 24)" onmousedown="handlePan(0,-1)">
                  <use xlink:href="#rim" fill="#404040">
                        <set attributeName="fill" to="#808080" begin="arrowUp.mouseover" end="arrowUp.mouseout"/>
                  </use>
                  <path fill="none" stroke="white" stroke-width="1.5" d="M0,-3.0v7 M-2.5,-0.5L0,-3.0L2.5,-0.5"/>
                </g>
                <g id="arrowRight" xlink:href="#dirArrow" transform="rotate(90) translate(36 -43)" onmousedown="handlePan(1,0)">
                  <use xlink:href="#rim" fill="#404040">
                        <set attributeName="fill" to="#808080" begin="arrowRight.mouseover" end="arrowRight.mouseout"/>
                  </use>
                  <path fill="none" stroke="white" stroke-width="1.5" d="M0,-3.0v7 M-2.5,-0.5L0,-3.0L2.5,-0.5"/>
                </g>
                <g id="arrowDown" xlink:href="#dirArrow" transform="rotate(180) translate(-30 -48)" onmousedown="handlePan(0,1)">
                  <use xlink:href="#rim" fill="#404040">
                        <set attributeName="fill" to="#808080" begin="arrowDown.mouseover" end="arrowDown.mouseout"/>
                  </use>
                  <path fill="none" stroke="white" stroke-width="1.5" d="M0,-3.0v7 M-2.5,-0.5L0,-3.0L2.5,-0.5"/>
                </g>
                <g id="arrowLeft" xlink:href="#dirArrow" transform="rotate(270) translate(-36 17)" onmousedown="handlePan(-1,0)">
                  <use xlink:href="#rim" fill="#404040">
                        <set attributeName="fill" to="#808080" begin="arrowLeft.mouseover" end="arrowLeft.mouseout"/>
                  </use>
                  <path fill="none" stroke="white" stroke-width="1.5" d="M0,-3.0v7 M-2.5,-0.5L0,-3.0L2.5,-0.5"/>
                </g>
        </g>
        <svg viewBox="0 0 15 15" width="100%" height="30px" preserveAspectRatio="xMaxYMin meet">
         <g id="arrow_out" transform="scale(0.3 0.3)">
          <a xlink:href="multi__arg_8hpp__incl_org.svg" target="_base">
           <rect id="button" ry="5" rx="5" y="6" x="6" height="38" width="38"
                fill="#f2f5e9" fill-opacity="0.5" stroke="#606060" stroke-width="1.0"/>
           <path id="arrow"
             d="M 11.500037,31.436501 C 11.940474,20.09759 22.043105,11.32322 32.158766,21.979434 L 37.068811,17.246167 C 37.068811,17.246167 37.088388,32 37.088388,32 L 22.160133,31.978069 C 22.160133,31.978069 26.997745,27.140456 26.997745,27.140456 C 18.528582,18.264221 13.291696,25.230495 11.500037,31.436501 z"
             style="fill:#404040;"/>
          </a>
         </g>
        </svg>
</svg>
