<?xml version="1.0" encoding="UTF-8" standalone="no"?>
<!DOCTYPE svg PUBLIC "-//W3C//DTD SVG 1.1//EN"
 "http://www.w3.org/Graphics/SVG/1.1/DTD/svg11.dtd">
<!-- Generated by graphviz version 14.1.2 (0)
 -->
<!-- Title: multi_arg.hpp Pages: 1 -->
<svg width="161pt" height="308pt"
 viewBox="0.00 0.00 161.00 308.00" xmlns="http://www.w3.org/2000/svg" xmlns:xlink="http://www.w3.org/1999/xlink">

<svg id="main" version="1.1" xmlns="http://www.w3.org/2000/svg" xmlns:xlink="http://www.w3.org/1999/xlink" xml:space="preserve">

<style type="text/css"><![CDATA[
.node, .edge {opacity: 0.7;}
.node.selected, .edge.selected {opacity: 1;}
.edge:hover path { stroke: red; }
.edge:hover polygon { stroke: red; fill: red; }
]]></style>
<script type="application/ecmascript" xlink:href="svg.min.js"/>
<svg id="graph" class="graph">
<g id="graph0" class="graph" transform="scale(1 1) rotate(0) translate(4 304)">
<title>multi_arg.hpp</title>
<!-- Node1 -->
<g id="Node000001" class="node">
<title>Node1</title>
<g id="a_Node000001"><a xlink:title=" ">
<polygon fill="#999999" stroke="#666666" points="98.12,-300 23.63,-300 23.63,-280 98.12,-280 98.12,-300"/>
<text xml:space="preserve" text-anchor="middle" x="60.88" y="-286.5" font-family="Helvetica,sans-Serif" font-size="10.00">multi_arg.hpp</text>
</a>
</g>
</g>
<!-- Node2 -->
<g id="Node000002" class="node">
<title>Node2</title>
<g id="a_Node000002"><a xlink:href="api_8hpp.html" target="_top" xlink:title=" ">
<polygon fill="white" stroke="#666666" points="84.62,-244 37.12,-244 37.12,-224 84.62,-224 84.62,-244"/>
<text xml:space="preserve" text-anchor="middle" x="60.88" y="-230.5" font-family="Helvetica,sans-Serif" font-size="10.00">api.hpp</text>
</a>
</g>
</g>
<!-- Node1&#45;&gt;Node2 -->
<g id="edge1_Node000001_Node000002" class="edge">
<title>Node1&#45;&gt;Node2</title>
<g id="a_edge1_Node000001_Node000002"><a xlink:title=" ">
<path fill="none" stroke="#63b8ff" d="M60.88,-268.13C60.88,-259.9 60.88,-250.85 60.88,-244.3"/>
<polygon fill="#63b8ff" stroke="#63b8ff" points="57.38,-268.08 60.88,-278.08 64.38,-268.08 57.38,-268.08"/>
</a>
</g>
</g>
<!-- Node3 -->
<g id="Node000003" class="node">
<title>Node3</title>
<g id="a_Node000003"><a xlink:href="cmd__line_8hpp.html" target="_top" xlink:title=" ">
<polygon fill="white" stroke="#666666" points="73.75,-76 0,-76 0,-56 73.75,-56 73.75,-76"/>
<text xml:space="preserve" text-anchor="middle" x="36.88" y="-62.5" font-family="Helvetica,sans-Serif" font-size="10.00">cmd_line.hpp</text>
</a>
</g>
</g>
<!-- Node2&#45;&gt;Node3 -->
<g id="edge2_Node000002_Node000003" class="edge">
<title>Node2&#45;&gt;Node3</title>
<g id="a_edge2_Node000002_Node000003"><a xlink:title=" ">
<path fill="none" stroke="#63b8ff" d="M36.59,-216.93C27.35,-209.37 17.85,-199.48 12.88,-188 -4.15,-148.7 20.07,-96.95 31.49,-76.19"/>
<polygon fill="#63b8ff" stroke="#63b8ff" points="34.27,-219.57 44.37,-222.78 38.48,-213.97 34.27,-219.57"/>
</a>
</g>
</g>
<!-- Node6 -->
<g id="Node000006" class="node">
<title>Node6</title>
<g id="a_Node000006"><a xlink:href="command_8hpp.html" target="_top" xlink:title=" ">
<polygon fill="white" stroke="#666666" points="99.62,-188 22.12,-188 22.12,-168 99.62,-168 99.62,-188"/>
<text xml:space="preserve" text-anchor="middle" x="60.88" y="-174.5" font-family="Helvetica,sans-Serif" font-size="10.00">command.hpp</text>
</a>
</g>
</g>
<!-- Node2&#45;&gt;Node6 -->
<g id="edge6_Node000002_Node000006" class="edge">
<title>Node2&#45;&gt;Node6</title>
<g id="a_edge6_Node000002_Node000006"><a xlink:title=" ">
<path fill="none" stroke="#63b8ff" d="M54.3,-212.43C53.84,-204.11 54.29,-194.93 55.63,-188.3"/>
<polygon fill="#63b8ff" stroke="#63b8ff" points="50.79,-212.57 55.43,-222.09 57.74,-211.75 50.79,-212.57"/>
</a>
</g>
</g>
<!-- Node4 -->
<g id="Node000004" class="node">
<title>Node4</title>
<g id="a_Node000004"><a xlink:href="all_8hpp.html" target="_top" xlink:title=" ">
<polygon fill="white" stroke="#666666" points="50.12,-20 5.62,-20 5.62,0 50.12,0 50.12,-20"/>
<text xml:space="preserve" text-anchor="middle" x="27.88" y="-6.5" font-family="Helvetica,sans-Serif" font-size="10.00">all.hpp</text>
</a>
</g>
</g>
<!-- Node3&#45;&gt;Node4 -->
<g id="edge3_Node000003_Node000004" class="edge">
<title>Node3&#45;&gt;Node4</title>
<g id="a_edge3_Node000003_Node000004"><a xlink:title=" ">
<path fill="none" stroke="#63b8ff" d="M33.45,-44.43C32.06,-36.11 30.53,-26.93 29.42,-20.3"/>
<polygon fill="#63b8ff" stroke="#63b8ff" points="29.96,-44.81 35.06,-54.1 36.87,-43.66 29.96,-44.81"/>
</a>
</g>
</g>
<!-- Node5 -->
<g id="Node000005" class="node">
<title>Node5</title>
<g id="a_Node000005"><a xlink:href="help__printer_8hpp.html" target="_top" xlink:title=" ">
<polygon fill="white" stroke="#666666" points="153.38,-20 68.38,-20 68.38,0 153.38,0 153.38,-20"/>
<text xml:space="preserve" text-anchor="middle" x="110.88" y="-6.5" font-family="Helvetica,sans-Serif" font-size="10.00">help_printer.hpp</text>
</a>
</g>
</g>
<!-- Node3&#45;&gt;Node5 -->
<g id="edge4_Node000003_Node000005" class="edge">
<title>Node3&#45;&gt;Node5</title>
<g id="a_edge4_Node000003_Node000005"><a xlink:title=" ">
<path fill="none" stroke="#63b8ff" d="M53.28,-48.45C64.98,-39.28 80.49,-28.2 92.6,-20.48"/>
<polygon fill="#63b8ff" stroke="#63b8ff" points="51.22,-45.61 45.67,-54.64 55.64,-51.04 51.22,-45.61"/>
</a>
</g>
</g>
<!-- Node5&#45;&gt;Node3 -->
<g id="edge5_Node000005_Node000003" class="edge">
<title>Node5&#45;&gt;Node3</title>
<g id="a_edge5_Node000005_Node000003"><a xlink:title=" ">
<path fill="none" stroke="#63b8ff" d="M94.58,-27.47C82.83,-36.69 67.19,-47.85 55.03,-55.59"/>
<polygon fill="#63b8ff" stroke="#63b8ff" points="96.66,-30.28 102.2,-21.25 92.24,-24.86 96.66,-30.28"/>
</a>
</g>
</g>
<!-- Node6&#45;&gt;Node2 -->
<g id="edge7_Node000006_Node000002" class="edge">
<title>Node6&#45;&gt;Node2</title>
<g id="a_edge7_Node000006_Node000002"><a xlink:title=" ">
<path fill="none" stroke="#63b8ff" d="M67.46,-199.73C67.9,-207.96 67.46,-217.01 66.14,-223.59"/>
<polygon fill="#63b8ff" stroke="#63b8ff" points="70.94,-199.33 66.3,-189.8 63.98,-200.14 70.94,-199.33"/>
</a>
</g>
</g>
<!-- Node6&#45;&gt;Node3 -->
<g id="edge8_Node000006_Node000003" class="edge">
<title>Node6&#45;&gt;Node3</title>
<g id="a_edge8_Node000006_Node000003"><a xlink:title=" ">
<path fill="none" stroke="#63b8ff" d="M49.35,-157.98C45.25,-150.21 41.09,-140.95 38.88,-132 34.1,-112.71 34.94,-89.22 35.94,-76.42"/>
<polygon fill="#63b8ff" stroke="#63b8ff" points="46.19,-159.51 54.17,-166.48 52.28,-156.05 46.19,-159.51"/>
</a>
</g>
</g>
<!-- Node6&#45;&gt;Node5 -->
<g id="edge11_Node000006_Node000005" class="edge">
<title>Node6&#45;&gt;Node5</title>
<g id="a_edge11_Node000006_Node000005"><a xlink:title=" ">
<path fill="none" stroke="#63b8ff" d="M85.06,-160.89C94.29,-153.32 103.81,-143.44 108.88,-132 125.9,-93.58 117.54,-41.34 113.07,-20.32"/>
<polygon fill="#63b8ff" stroke="#63b8ff" points="83.18,-157.93 77.31,-166.75 87.4,-163.51 83.18,-157.93"/>
</a>
</g>
</g>
<!-- Node7 -->
<g id="Node000007" class="node">
<title>Node7</title>
<g id="a_Node000007"><a xlink:href="help_8hpp.html" target="_top" xlink:title=" ">
<polygon fill="white" stroke="#666666" points="100.25,-132 47.5,-132 47.5,-112 100.25,-112 100.25,-132"/>
<text xml:space="preserve" text-anchor="middle" x="73.88" y="-118.5" font-family="Helvetica,sans-Serif" font-size="10.00">help.hpp</text>
</a>
</g>
</g>
<!-- Node6&#45;&gt;Node7 -->
<g id="edge9_Node000006_Node000007" class="edge">
<title>Node6&#45;&gt;Node7</title>
<g id="a_edge9_Node000006_Node000007"><a xlink:title=" ">
<path fill="none" stroke="#63b8ff" d="M65.83,-156.43C67.83,-148.11 70.04,-138.93 71.64,-132.3"/>
<polygon fill="#63b8ff" stroke="#63b8ff" points="62.43,-155.58 63.49,-166.12 69.24,-157.22 62.43,-155.58"/>
</a>
</g>
</g>
<!-- Node7&#45;&gt;Node3 -->
<g id="edge10_Node000007_Node000003" class="edge">
<title>Node7&#45;&gt;Node3</title>
<g id="a_edge10_Node000007_Node000003"><a xlink:title=" ">
<path fill="none" stroke="#63b8ff" d="M60.96,-102.15C54.97,-93.4 48.11,-83.39 43.25,-76.3"/>
<polygon fill="#63b8ff" stroke="#63b8ff" points="58.03,-104.07 66.57,-110.35 63.81,-100.12 58.03,-104.07"/>
</a>
</g>
</g>
</g>
</svg>
</svg>

<style type='text/css'>
<![CDATA[
[data-mouse-over-selected='false'] { opacity: 0.7; }
[data-mouse-over-selected='true']  { opacity: 1.0; }
]]>
</style>
<script type="application/ecmascript"><![CDATA[
document.addEventListener('DOMContentLoaded', (event) => {
  highlightEdges();
  highlightAdjacentNodes();
});
]]></script>
</svg>
