<?xml version="1.0" encoding="UTF-8" standalone="no"?>
<!DOCTYPE svg PUBLIC "-//W3C//DTD SVG 1.1//EN"
 "http://www.w3.org/Graphics/SVG/1.1/DTD/svg11.dtd">
<!-- Generated by graphviz version 2.40.1 (20161225.0304)
 -->
<!-- Title: multi_arg.hpp Pages: 1 -->
<svg width="555pt" height="308pt"
 viewBox="0.00 0.00 555.47 308.00" xmlns="http://www.w3.org/2000/svg" xmlns:xlink="http://www.w3.org/1999/xlink">
<g id="graph0" class="graph" transform="scale(1 1) rotate(0) translate(4 304)">
<title>multi_arg.hpp</title>
<!-- Node0 -->
<g id="node1" class="node">
<title>Node0</title>
<polygon fill="#bfbfbf" stroke="#000000" points="240.5,-280.5 240.5,-299.5 315.5,-299.5 315.5,-280.5 240.5,-280.5"/>
<text text-anchor="middle" x="278" y="-287.5" font-family="Helvetica,sans-Serif" font-size="10.00" fill="#000000">multi_arg.hpp</text>
</g>
<!-- Node1 -->
<g id="node2" class="node">
<title>Node1</title>
<g id="a_node2"><a xlink:href="arg_8hpp.html" target="_top" xlink:title="arg.hpp">
<polygon fill="none" stroke="#000000" points="253.5,-224.5 253.5,-243.5 302.5,-243.5 302.5,-224.5 253.5,-224.5"/>
<text text-anchor="middle" x="278" y="-231.5" font-family="Helvetica,sans-Serif" font-size="10.00" fill="#000000">arg.hpp</text>
</a>
</g>
</g>
<!-- Node0&#45;&gt;Node1 -->
<g id="edge1" class="edge">
<title>Node0&#45;&gt;Node1</title>
<path fill="none" stroke="#191970" d="M278,-280.2455C278,-272.9382 278,-262.6944 278,-253.7046"/>
<polygon fill="#191970" stroke="#191970" points="281.5001,-253.6426 278,-243.6427 274.5001,-253.6427 281.5001,-253.6426"/>
</g>
<!-- Node3 -->
<g id="node4" class="node">
<title>Node3</title>
<g id="a_node4"><a xlink:href="utils_8hpp.html" target="_top" xlink:title="utils.hpp">
<polygon fill="none" stroke="#000000" points="105.5,-112.5 105.5,-131.5 158.5,-131.5 158.5,-112.5 105.5,-112.5"/>
<text text-anchor="middle" x="132" y="-119.5" font-family="Helvetica,sans-Serif" font-size="10.00" fill="#000000">utils.hpp</text>
</a>
</g>
</g>
<!-- Node0&#45;&gt;Node3 -->
<g id="edge31" class="edge">
<title>Node0&#45;&gt;Node3</title>
<path fill="none" stroke="#191970" d="M266.2148,-280.4423C245.5598,-263.3252 202.1535,-225.6916 172,-188 160.146,-173.1826 149.1656,-154.5602 141.7202,-140.8778"/>
<polygon fill="#191970" stroke="#191970" points="144.7416,-139.1047 136.9616,-131.9129 138.5586,-142.3867 144.7416,-139.1047"/>
</g>
<!-- Node5 -->
<g id="node6" class="node">
<title>Node5</title>
<g id="a_node6"><a xlink:href="types_8hpp.html" target="_top" xlink:title="types.hpp">
<polygon fill="none" stroke="#000000" points="317.5,-56.5 317.5,-75.5 376.5,-75.5 376.5,-56.5 317.5,-56.5"/>
<text text-anchor="middle" x="347" y="-63.5" font-family="Helvetica,sans-Serif" font-size="10.00" fill="#000000">types.hpp</text>
</a>
</g>
</g>
<!-- Node0&#45;&gt;Node5 -->
<g id="edge32" class="edge">
<title>Node0&#45;&gt;Node5</title>
<path fill="none" stroke="#191970" d="M315.7951,-285.5121C351.5799,-279.9701 405.8114,-268.1375 447,-244 503.8143,-210.7055 523.176,-194.472 544,-132 546.8109,-123.5673 549.5248,-118.9634 544,-112 524.752,-87.7398 438.5381,-75.0749 386.7538,-69.5425"/>
<polygon fill="#191970" stroke="#191970" points="386.8792,-66.0371 376.5744,-68.4992 386.1654,-73.0006 386.8792,-66.0371"/>
</g>
<!-- Node12 -->
<g id="node13" class="node">
<title>Node12</title>
<g id="a_node13"><a xlink:href="context_8hpp.html" target="_top" xlink:title="context.hpp">
<polygon fill="none" stroke="#000000" points="40,-168.5 40,-187.5 108,-187.5 108,-168.5 40,-168.5"/>
<text text-anchor="middle" x="74" y="-175.5" font-family="Helvetica,sans-Serif" font-size="10.00" fill="#000000">context.hpp</text>
</a>
</g>
</g>
<!-- Node0&#45;&gt;Node12 -->
<g id="edge28" class="edge">
<title>Node0&#45;&gt;Node12</title>
<path fill="none" stroke="#191970" d="M240.3612,-285.8493C206.7676,-280.6209 157.5321,-269.0661 122,-244 104.88,-231.9227 91.5224,-211.7762 83.2929,-196.9123"/>
<polygon fill="#191970" stroke="#191970" points="86.1717,-194.8649 78.4317,-187.63 79.9706,-198.1125 86.1717,-194.8649"/>
</g>
<!-- Node13 -->
<g id="node14" class="node">
<title>Node13</title>
<polygon fill="none" stroke="#bfbfbf" points="0,-112.5 0,-131.5 40,-131.5 40,-112.5 0,-112.5"/>
<text text-anchor="middle" x="20" y="-119.5" font-family="Helvetica,sans-Serif" font-size="10.00" fill="#000000">utility</text>
</g>
<!-- Node0&#45;&gt;Node13 -->
<g id="edge33" class="edge">
<title>Node0&#45;&gt;Node13</title>
<path fill="none" stroke="#191970" d="M240.4261,-285.3675C202.7645,-279.6082 143.936,-267.5193 98,-244 63.4552,-226.313 50.2793,-221.6821 31,-188 22.9752,-173.9802 20.4229,-155.7166 19.7655,-141.9567"/>
<polygon fill="#191970" stroke="#191970" points="23.2595,-141.5852 19.5805,-131.6497 16.2607,-141.7109 23.2595,-141.5852"/>
</g>
<!-- Node14 -->
<g id="node15" class="node">
<title>Node14</title>
<g id="a_node15"><a xlink:href="exceptions_8hpp.html" target="_top" xlink:title="exceptions.hpp">
<polygon fill="none" stroke="#000000" points="451.5,-112.5 451.5,-131.5 534.5,-131.5 534.5,-112.5 451.5,-112.5"/>
<text text-anchor="middle" x="493" y="-119.5" font-family="Helvetica,sans-Serif" font-size="10.00" fill="#000000">exceptions.hpp</text>
</a>
</g>
</g>
<!-- Node0&#45;&gt;Node14 -->
<g id="edge29" class="edge">
<title>Node0&#45;&gt;Node14</title>
<path fill="none" stroke="#191970" d="M315.8011,-282.5644C363.33,-271.087 443.5842,-244.2207 484,-188 493.5874,-174.6634 495.3067,-155.8097 494.9375,-141.6659"/>
<polygon fill="#191970" stroke="#191970" points="498.4209,-141.2902 494.3039,-131.528 491.4345,-141.7269 498.4209,-141.2902"/>
</g>
<!-- Node16 -->
<g id="node17" class="node">
<title>Node16</title>
<g id="a_node17"><a xlink:href="value__utils_8hpp.html" target="_top" xlink:title="value_utils.hpp">
<polygon fill="none" stroke="#000000" points="372,-168.5 372,-187.5 454,-187.5 454,-168.5 372,-168.5"/>
<text text-anchor="middle" x="413" y="-175.5" font-family="Helvetica,sans-Serif" font-size="10.00" fill="#000000">value_utils.hpp</text>
</a>
</g>
</g>
<!-- Node0&#45;&gt;Node16 -->
<g id="edge30" class="edge">
<title>Node0&#45;&gt;Node16</title>
<path fill="none" stroke="#191970" d="M289.51,-280.4509C312.6242,-261.2747 364.9108,-217.8962 393.4746,-194.1988"/>
<polygon fill="#191970" stroke="#191970" points="396.0576,-196.6036 401.5191,-187.5249 391.5881,-191.2162 396.0576,-196.6036"/>
</g>
<!-- Node2 -->
<g id="node3" class="node">
<title>Node2</title>
<g id="a_node3"><a xlink:href="arg__iface_8hpp.html" target="_top" xlink:title="arg_iface.hpp">
<polygon fill="none" stroke="#000000" points="240.5,-168.5 240.5,-187.5 315.5,-187.5 315.5,-168.5 240.5,-168.5"/>
<text text-anchor="middle" x="278" y="-175.5" font-family="Helvetica,sans-Serif" font-size="10.00" fill="#000000">arg_iface.hpp</text>
</a>
</g>
</g>
<!-- Node1&#45;&gt;Node2 -->
<g id="edge2" class="edge">
<title>Node1&#45;&gt;Node2</title>
<path fill="none" stroke="#191970" d="M278,-224.2455C278,-216.9382 278,-206.6944 278,-197.7046"/>
<polygon fill="#191970" stroke="#191970" points="281.5001,-197.6426 278,-187.6427 274.5001,-197.6427 281.5001,-197.6426"/>
</g>
<!-- Node1&#45;&gt;Node3 -->
<g id="edge13" class="edge">
<title>Node1&#45;&gt;Node3</title>
<path fill="none" stroke="#191970" d="M258.0239,-224.3873C241.2653,-215.8941 217.0786,-202.6128 198,-188 178.8579,-173.3385 159.6707,-153.4234 146.9578,-139.315"/>
<polygon fill="#191970" stroke="#191970" points="149.52,-136.9291 140.2701,-131.7629 144.2794,-141.5698 149.52,-136.9291"/>
</g>
<!-- Node1&#45;&gt;Node5 -->
<g id="edge26" class="edge">
<title>Node1&#45;&gt;Node5</title>
<path fill="none" stroke="#191970" d="M291.8125,-224.319C302.6155,-215.9727 317.088,-202.9311 325,-188 342.3903,-155.182 346.332,-111.1708 347.0542,-85.9702"/>
<polygon fill="#191970" stroke="#191970" points="350.5558,-85.8709 347.1962,-75.8229 343.5565,-85.7729 350.5558,-85.8709"/>
</g>
<!-- Node9 -->
<g id="node10" class="node">
<title>Node9</title>
<polygon fill="none" stroke="#bfbfbf" points="171,-56.5 171,-75.5 227,-75.5 227,-56.5 171,-56.5"/>
<text text-anchor="middle" x="199" y="-63.5" font-family="Helvetica,sans-Serif" font-size="10.00" fill="#000000">algorithm</text>
</g>
<!-- Node1&#45;&gt;Node9 -->
<g id="edge27" class="edge">
<title>Node1&#45;&gt;Node9</title>
<path fill="none" stroke="#191970" d="M266.2107,-224.3953C256.1229,-215.7079 241.7306,-202.1429 232,-188 216.5505,-165.545 214.2768,-158.2671 207,-132 202.8054,-116.8585 200.8096,-99.1584 199.8604,-85.9019"/>
<polygon fill="#191970" stroke="#191970" points="203.3348,-85.3548 199.2666,-75.5722 196.3463,-85.7566 203.3348,-85.3548"/>
</g>
<!-- Node1&#45;&gt;Node12 -->
<g id="edge14" class="edge">
<title>Node1&#45;&gt;Node12</title>
<path fill="none" stroke="#191970" d="M253.3928,-227.2451C219.911,-218.054 159.4392,-201.4539 118.0377,-190.0888"/>
<polygon fill="#191970" stroke="#191970" points="118.7813,-186.6635 108.2115,-187.3914 116.9282,-193.4138 118.7813,-186.6635"/>
</g>
<!-- Node1&#45;&gt;Node14 -->
<g id="edge18" class="edge">
<title>Node1&#45;&gt;Node14</title>
<path fill="none" stroke="#191970" d="M302.6745,-230.5709C347.2033,-223.9534 438.6393,-208.2676 463,-188 477.1703,-176.2106 484.9458,-156.3099 489.0056,-141.4369"/>
<polygon fill="#191970" stroke="#191970" points="492.416,-142.2239 491.3433,-131.6835 485.6088,-140.5923 492.416,-142.2239"/>
</g>
<!-- Node1&#45;&gt;Node16 -->
<g id="edge21" class="edge">
<title>Node1&#45;&gt;Node16</title>
<path fill="none" stroke="#191970" d="M301.2073,-224.3733C323.1699,-215.2629 356.3332,-201.5062 380.8401,-191.3404"/>
<polygon fill="#191970" stroke="#191970" points="382.1997,-194.5657 390.0955,-187.5011 379.5176,-188.0999 382.1997,-194.5657"/>
</g>
<!-- Node2&#45;&gt;Node3 -->
<g id="edge3" class="edge">
<title>Node2&#45;&gt;Node3</title>
<path fill="none" stroke="#191970" d="M252.9017,-168.3733C229.0445,-159.2226 192.9665,-145.3844 166.429,-135.2057"/>
<polygon fill="#191970" stroke="#191970" points="167.361,-131.8145 156.7708,-131.5011 164.8541,-138.3503 167.361,-131.8145"/>
</g>
<!-- Node2&#45;&gt;Node5 -->
<g id="edge11" class="edge">
<title>Node2&#45;&gt;Node5</title>
<path fill="none" stroke="#191970" d="M283.8829,-168.4509C295.3913,-149.7707 321.0488,-108.1238 335.8638,-84.0761"/>
<polygon fill="#191970" stroke="#191970" points="338.8666,-85.8747 341.132,-75.5249 332.9068,-82.203 338.8666,-85.8747"/>
</g>
<!-- Node11 -->
<g id="node12" class="node">
<title>Node11</title>
<g id="a_node12"><a xlink:href="enums_8hpp.html" target="_top" xlink:title="enums.hpp">
<polygon fill="none" stroke="#000000" points="215.5,-112.5 215.5,-131.5 280.5,-131.5 280.5,-112.5 215.5,-112.5"/>
<text text-anchor="middle" x="248" y="-119.5" font-family="Helvetica,sans-Serif" font-size="10.00" fill="#000000">enums.hpp</text>
</a>
</g>
</g>
<!-- Node2&#45;&gt;Node11 -->
<g id="edge12" class="edge">
<title>Node2&#45;&gt;Node11</title>
<path fill="none" stroke="#191970" d="M272.7744,-168.2455C268.6877,-160.617 262.8865,-149.7881 257.925,-140.5267"/>
<polygon fill="#191970" stroke="#191970" points="260.9732,-138.8047 253.1657,-131.6427 254.8028,-142.1103 260.9732,-138.8047"/>
</g>
<!-- Node4 -->
<g id="node5" class="node">
<title>Node4</title>
<polygon fill="none" stroke="#bfbfbf" points="111.5,-56.5 111.5,-75.5 152.5,-75.5 152.5,-56.5 111.5,-56.5"/>
<text text-anchor="middle" x="132" y="-63.5" font-family="Helvetica,sans-Serif" font-size="10.00" fill="#000000">regex</text>
</g>
<!-- Node3&#45;&gt;Node4 -->
<g id="edge4" class="edge">
<title>Node3&#45;&gt;Node4</title>
<path fill="none" stroke="#191970" d="M132,-112.2455C132,-104.9382 132,-94.6944 132,-85.7046"/>
<polygon fill="#191970" stroke="#191970" points="135.5001,-85.6426 132,-75.6427 128.5001,-85.6427 135.5001,-85.6426"/>
</g>
<!-- Node3&#45;&gt;Node5 -->
<g id="edge5" class="edge">
<title>Node3&#45;&gt;Node5</title>
<path fill="none" stroke="#191970" d="M158.7952,-115.0208C196.2076,-105.2762 264.3531,-87.5266 307.5675,-76.2708"/>
<polygon fill="#191970" stroke="#191970" points="308.6565,-79.604 317.4514,-73.6964 306.8921,-72.83 308.6565,-79.604"/>
</g>
<!-- Node3&#45;&gt;Node9 -->
<g id="edge9" class="edge">
<title>Node3&#45;&gt;Node9</title>
<path fill="none" stroke="#191970" d="M143.6705,-112.2455C153.5661,-103.9746 167.9627,-91.9416 179.5901,-82.2232"/>
<polygon fill="#191970" stroke="#191970" points="182.035,-84.7413 187.4632,-75.6427 177.5458,-79.3703 182.035,-84.7413"/>
</g>
<!-- Node10 -->
<g id="node11" class="node">
<title>Node10</title>
<polygon fill="none" stroke="#bfbfbf" points="31,-56.5 31,-75.5 93,-75.5 93,-56.5 31,-56.5"/>
<text text-anchor="middle" x="62" y="-63.5" font-family="Helvetica,sans-Serif" font-size="10.00" fill="#000000">type_traits</text>
</g>
<!-- Node3&#45;&gt;Node10 -->
<g id="edge10" class="edge">
<title>Node3&#45;&gt;Node10</title>
<path fill="none" stroke="#191970" d="M119.8069,-112.2455C109.3679,-103.8943 94.1345,-91.7076 81.926,-81.9408"/>
<polygon fill="#191970" stroke="#191970" points="84.0485,-79.1566 74.0533,-75.6427 79.6756,-84.6227 84.0485,-79.1566"/>
</g>
<!-- Node6 -->
<g id="node7" class="node">
<title>Node6</title>
<polygon fill="none" stroke="#bfbfbf" points="260.5,-.5 260.5,-19.5 301.5,-19.5 301.5,-.5 260.5,-.5"/>
<text text-anchor="middle" x="281" y="-7.5" font-family="Helvetica,sans-Serif" font-size="10.00" fill="#000000">string</text>
</g>
<!-- Node5&#45;&gt;Node6 -->
<g id="edge6" class="edge">
<title>Node5&#45;&gt;Node6</title>
<path fill="none" stroke="#191970" d="M335.5037,-56.2455C325.7558,-47.9746 311.5741,-35.9416 300.1202,-26.2232"/>
<polygon fill="#191970" stroke="#191970" points="302.2541,-23.4437 292.3646,-19.6427 297.7253,-28.7813 302.2541,-23.4437"/>
</g>
<!-- Node7 -->
<g id="node8" class="node">
<title>Node7</title>
<polygon fill="none" stroke="#bfbfbf" points="320,-.5 320,-19.5 374,-19.5 374,-.5 320,-.5"/>
<text text-anchor="middle" x="347" y="-7.5" font-family="Helvetica,sans-Serif" font-size="10.00" fill="#000000">iostream</text>
</g>
<!-- Node5&#45;&gt;Node7 -->
<g id="edge7" class="edge">
<title>Node5&#45;&gt;Node7</title>
<path fill="none" stroke="#191970" d="M347,-56.2455C347,-48.9382 347,-38.6944 347,-29.7046"/>
<polygon fill="#191970" stroke="#191970" points="350.5001,-29.6426 347,-19.6427 343.5001,-29.6427 350.5001,-29.6426"/>
</g>
<!-- Node8 -->
<g id="node9" class="node">
<title>Node8</title>
<polygon fill="none" stroke="#bfbfbf" points="392,-.5 392,-19.5 436,-19.5 436,-.5 392,-.5"/>
<text text-anchor="middle" x="414" y="-7.5" font-family="Helvetica,sans-Serif" font-size="10.00" fill="#000000">vector</text>
</g>
<!-- Node5&#45;&gt;Node8 -->
<g id="edge8" class="edge">
<title>Node5&#45;&gt;Node8</title>
<path fill="none" stroke="#191970" d="M358.6705,-56.2455C368.5661,-47.9746 382.9627,-35.9416 394.5901,-26.2232"/>
<polygon fill="#191970" stroke="#191970" points="397.035,-28.7413 402.4632,-19.6427 392.5458,-23.3703 397.035,-28.7413"/>
</g>
<!-- Node12&#45;&gt;Node3 -->
<g id="edge16" class="edge">
<title>Node12&#45;&gt;Node3</title>
<path fill="none" stroke="#191970" d="M84.1028,-168.2455C92.5028,-160.1352 104.6494,-148.4075 114.6084,-138.7919"/>
<polygon fill="#191970" stroke="#191970" points="117.25,-141.1066 122.0129,-131.6427 112.3878,-136.0707 117.25,-141.1066"/>
</g>
<!-- Node12&#45;&gt;Node5 -->
<g id="edge17" class="edge">
<title>Node12&#45;&gt;Node5</title>
<path fill="none" stroke="#191970" d="M74.4516,-168.247C75.6821,-153.6683 80.2338,-126.3737 97,-112 112.7822,-98.4698 240.7622,-79.9374 307.2318,-71.0958"/>
<polygon fill="#191970" stroke="#191970" points="307.8885,-74.5396 317.3451,-69.7622 306.9733,-67.5997 307.8885,-74.5396"/>
</g>
<!-- Node12&#45;&gt;Node13 -->
<g id="edge15" class="edge">
<title>Node12&#45;&gt;Node13</title>
<path fill="none" stroke="#191970" d="M64.5939,-168.2455C56.8507,-160.2155 45.688,-148.6394 36.4682,-139.0781"/>
<polygon fill="#191970" stroke="#191970" points="38.7591,-136.4117 29.2983,-131.6427 33.7202,-141.2706 38.7591,-136.4117"/>
</g>
<!-- Node14&#45;&gt;Node5 -->
<g id="edge20" class="edge">
<title>Node14&#45;&gt;Node5</title>
<path fill="none" stroke="#191970" d="M467.9017,-112.3733C444.0445,-103.2226 407.9665,-89.3844 381.429,-79.2057"/>
<polygon fill="#191970" stroke="#191970" points="382.361,-75.8145 371.7708,-75.5011 379.8541,-82.3503 382.361,-75.8145"/>
</g>
<!-- Node15 -->
<g id="node16" class="node">
<title>Node15</title>
<polygon fill="none" stroke="#bfbfbf" points="463.5,-56.5 463.5,-75.5 522.5,-75.5 522.5,-56.5 463.5,-56.5"/>
<text text-anchor="middle" x="493" y="-63.5" font-family="Helvetica,sans-Serif" font-size="10.00" fill="#000000">stdexcept</text>
</g>
<!-- Node14&#45;&gt;Node15 -->
<g id="edge19" class="edge">
<title>Node14&#45;&gt;Node15</title>
<path fill="none" stroke="#191970" d="M493,-112.2455C493,-104.9382 493,-94.6944 493,-85.7046"/>
<polygon fill="#191970" stroke="#191970" points="496.5001,-85.6426 493,-75.6427 489.5001,-85.6427 496.5001,-85.6426"/>
</g>
<!-- Node16&#45;&gt;Node3 -->
<g id="edge22" class="edge">
<title>Node16&#45;&gt;Node3</title>
<path fill="none" stroke="#191970" d="M371.8393,-169.7971C317.1029,-158.8888 221.183,-139.7731 168.7631,-129.3265"/>
<polygon fill="#191970" stroke="#191970" points="169.3755,-125.8797 158.8843,-127.3577 168.0073,-132.7447 169.3755,-125.8797"/>
</g>
<!-- Node16&#45;&gt;Node5 -->
<g id="edge24" class="edge">
<title>Node16&#45;&gt;Node5</title>
<path fill="none" stroke="#191970" d="M412.8173,-168.369C412.1671,-154.8847 409.5003,-130.0125 399,-112 392.0762,-100.1226 380.9992,-89.6974 370.8445,-81.7882"/>
<polygon fill="#191970" stroke="#191970" points="372.7733,-78.8621 362.6429,-75.7596 368.6274,-84.5024 372.7733,-78.8621"/>
</g>
<!-- Node16&#45;&gt;Node9 -->
<g id="edge25" class="edge">
<title>Node16&#45;&gt;Node9</title>
<path fill="none" stroke="#191970" d="M395.5543,-168.4655C371.7786,-155.5114 327.8271,-131.7057 290,-112 269.2027,-101.1658 245.5625,-89.2271 227.5903,-80.2279"/>
<polygon fill="#191970" stroke="#191970" points="228.7528,-76.8961 218.243,-75.5564 225.6234,-83.1577 228.7528,-76.8961"/>
</g>
<!-- Node16&#45;&gt;Node14 -->
<g id="edge23" class="edge">
<title>Node16&#45;&gt;Node14</title>
<path fill="none" stroke="#191970" d="M426.9349,-168.2455C439.0947,-159.7337 456.9464,-147.2375 471.0285,-137.3801"/>
<polygon fill="#191970" stroke="#191970" points="473.0395,-140.2447 479.2248,-131.6427 469.0253,-134.51 473.0395,-140.2447"/>
</g>
</g>
</svg>
