<?xml version="1.0" encoding="UTF-8" standalone="no"?>
<!DOCTYPE svg PUBLIC "-//W3C//DTD SVG 1.1//EN"
 "http://www.w3.org/Graphics/SVG/1.1/DTD/svg11.dtd">
<!-- Generated by graphviz version 2.38.0 (20140413.2041)
 -->
<!-- Title: multi_arg.hpp Pages: 1 -->
<svg width="184pt" height="196pt"
 viewBox="0.00 0.00 184.00 196.00" xmlns="http://www.w3.org/2000/svg" xmlns:xlink="http://www.w3.org/1999/xlink">
<g id="graph0" class="graph" transform="scale(1 1) rotate(0) translate(4 192)">
<title>multi_arg.hpp</title>
<!-- Node1 -->
<g id="node1" class="node"><title>Node1</title>
<polygon fill="#bfbfbf" stroke="black" points="49,-168.5 49,-187.5 124,-187.5 124,-168.5 49,-168.5"/>
<text text-anchor="middle" x="86.5" y="-175.5" font-family="Helvetica,sans-Serif" font-size="10.00">multi_arg.hpp</text>
</g>
<!-- Node2 -->
<g id="node2" class="node"><title>Node2</title>
<g id="a_node2"><a xlink:href="api_8hpp.html" target="_top" xlink:title="api.hpp">
<polygon fill="none" stroke="black" points="62.5,-112.5 62.5,-131.5 110.5,-131.5 110.5,-112.5 62.5,-112.5"/>
<text text-anchor="middle" x="86.5" y="-119.5" font-family="Helvetica,sans-Serif" font-size="10.00">api.hpp</text>
</a>
</g>
</g>
<!-- Node1&#45;&gt;Node2 -->
<g id="edge1" class="edge"><title>Node1&#45;&gt;Node2</title>
<path fill="none" stroke="midnightblue" d="M86.5,-157.805C86.5,-148.91 86.5,-138.78 86.5,-131.751"/>
<polygon fill="midnightblue" stroke="midnightblue" points="83.0001,-158.083 86.5,-168.083 90.0001,-158.083 83.0001,-158.083"/>
</g>
<!-- Node3 -->
<g id="node3" class="node"><title>Node3</title>
<g id="a_node3"><a xlink:href="cmd__line_8hpp.html" target="_top" xlink:title="cmd_line.hpp">
<polygon fill="none" stroke="black" points="17.5,-56.5 17.5,-75.5 91.5,-75.5 91.5,-56.5 17.5,-56.5"/>
<text text-anchor="middle" x="54.5" y="-63.5" font-family="Helvetica,sans-Serif" font-size="10.00">cmd_line.hpp</text>
</a>
</g>
</g>
<!-- Node2&#45;&gt;Node3 -->
<g id="edge2" class="edge"><title>Node2&#45;&gt;Node3</title>
<path fill="none" stroke="midnightblue" d="M75.9961,-103.275C70.5269,-94.0454 64.0824,-83.1703 59.6858,-75.7511"/>
<polygon fill="midnightblue" stroke="midnightblue" points="73.1068,-105.264 81.2159,-112.083 79.1288,-101.696 73.1068,-105.264"/>
</g>
<!-- Node4 -->
<g id="node4" class="node"><title>Node4</title>
<g id="a_node4"><a xlink:href="all_8hpp.html" target="_top" xlink:title="all.hpp">
<polygon fill="none" stroke="black" points="0,-0.5 0,-19.5 45,-19.5 45,-0.5 0,-0.5"/>
<text text-anchor="middle" x="22.5" y="-7.5" font-family="Helvetica,sans-Serif" font-size="10.00">all.hpp</text>
</a>
</g>
</g>
<!-- Node3&#45;&gt;Node4 -->
<g id="edge3" class="edge"><title>Node3&#45;&gt;Node4</title>
<path fill="none" stroke="midnightblue" d="M43.9961,-47.2747C38.5269,-38.0454 32.0824,-27.1703 27.6858,-19.7511"/>
<polygon fill="midnightblue" stroke="midnightblue" points="41.1068,-49.2644 49.2159,-56.083 47.1288,-45.6957 41.1068,-49.2644"/>
</g>
<!-- Node5 -->
<g id="node5" class="node"><title>Node5</title>
<g id="a_node5"><a xlink:href="arg__as__command_8hpp.html" target="_top" xlink:title="arg_as_command.hpp">
<polygon fill="none" stroke="black" points="63,-0.5 63,-19.5 176,-19.5 176,-0.5 63,-0.5"/>
<text text-anchor="middle" x="119.5" y="-7.5" font-family="Helvetica,sans-Serif" font-size="10.00">arg_as_command.hpp</text>
</a>
</g>
</g>
<!-- Node3&#45;&gt;Node5 -->
<g id="edge4" class="edge"><title>Node3&#45;&gt;Node5</title>
<path fill="none" stroke="midnightblue" d="M72.7726,-49.8197C84.4178,-40.1452 99.0995,-27.9481 108.867,-19.8339"/>
<polygon fill="midnightblue" stroke="midnightblue" points="70.3987,-47.2416 64.9434,-56.324 74.8719,-52.6259 70.3987,-47.2416"/>
</g>
<!-- Node5&#45;&gt;Node2 -->
<g id="edge5" class="edge"><title>Node5&#45;&gt;Node2</title>
<path fill="none" stroke="midnightblue" d="M114.184,-29.4992C110.421,-42.5199 105.222,-60.3473 100.5,-76 96.6717,-88.6897 92.0823,-103.339 89.2281,-112.387"/>
<polygon fill="midnightblue" stroke="midnightblue" points="117.56,-30.4239 116.967,-19.8457 110.834,-28.4852 117.56,-30.4239"/>
</g>
</g>
</svg>
