<?xml version="1.0" encoding="UTF-8" standalone="no"?>
<!DOCTYPE svg PUBLIC "-//W3C//DTD SVG 1.1//EN"
 "http://www.w3.org/Graphics/SVG/1.1/DTD/svg11.dtd">
<!-- Generated by graphviz version 2.43.0 (0)
 -->
<!-- Title: multi_arg.hpp Pages: 1 -->
<svg width="578pt" height="302pt"
 viewBox="0.00 0.00 578.36 302.00" xmlns="http://www.w3.org/2000/svg" xmlns:xlink="http://www.w3.org/1999/xlink">
<g id="graph0" class="graph" transform="scale(1 1) rotate(0) translate(4 298)">
<title>multi_arg.hpp</title>
<!-- Node1 -->
<g id="Node000001" class="node">
<title>Node1</title>
<g id="a_Node000001"><a xlink:title=" ">
<polygon fill="#999999" stroke="#666666" points="488.07,-294 404.07,-294 404.07,-275 488.07,-275 488.07,-294"/>
<text text-anchor="middle" x="446.07" y="-282" font-family="Helvetica,sans-Serif" font-size="10.00">multi_arg.hpp</text>
</a>
</g>
</g>
<!-- Node2 -->
<g id="Node000002" class="node">
<title>Node2</title>
<g id="a_Node000002"><a xlink:href="arg_8hpp.html" target="_top" xlink:title=" ">
<polygon fill="white" stroke="#666666" points="268.57,-239 215.57,-239 215.57,-220 268.57,-220 268.57,-239"/>
<text text-anchor="middle" x="242.07" y="-227" font-family="Helvetica,sans-Serif" font-size="10.00">arg.hpp</text>
</a>
</g>
</g>
<!-- Node1&#45;&gt;Node2 -->
<g id="edge1_Node000001_Node000002" class="edge">
<title>Node1&#45;&gt;Node2</title>
<g id="a_edge1_Node000001_Node000002"><a xlink:title=" ">
<path fill="none" stroke="#63b8ff" d="M413.29,-274.98C376.38,-265.4 316.57,-249.86 278.3,-239.91"/>
<polygon fill="#63b8ff" stroke="#63b8ff" points="279.15,-236.52 268.59,-237.39 277.39,-243.29 279.15,-236.52"/>
</a>
</g>
</g>
<!-- Node4 -->
<g id="Node000004" class="node">
<title>Node4</title>
<g id="a_Node000004"><a xlink:href="utils_8hpp.html" target="_top" xlink:title=" ">
<polygon fill="white" stroke="#666666" points="204.57,-129 145.57,-129 145.57,-110 204.57,-110 204.57,-129"/>
<text text-anchor="middle" x="175.07" y="-117" font-family="Helvetica,sans-Serif" font-size="10.00">utils.hpp</text>
</a>
</g>
</g>
<!-- Node1&#45;&gt;Node4 -->
<g id="edge30_Node000001_Node000004" class="edge">
<title>Node1&#45;&gt;Node4</title>
<g id="a_edge30_Node000001_Node000004"><a xlink:title=" ">
<path fill="none" stroke="#63b8ff" d="M404.03,-280.97C343.29,-276.46 235.17,-264.95 207.07,-239 179.11,-213.18 174.59,-165.72 174.41,-139.38"/>
<polygon fill="#63b8ff" stroke="#63b8ff" points="177.91,-139.26 174.55,-129.21 170.91,-139.16 177.91,-139.26"/>
</a>
</g>
</g>
<!-- Node5 -->
<g id="Node000005" class="node">
<title>Node5</title>
<g id="a_Node000005"><a xlink:href="types_8hpp.html" target="_top" xlink:title=" ">
<polygon fill="white" stroke="#666666" points="341.57,-74 276.57,-74 276.57,-55 341.57,-55 341.57,-74"/>
<text text-anchor="middle" x="309.07" y="-62" font-family="Helvetica,sans-Serif" font-size="10.00">types.hpp</text>
</a>
</g>
</g>
<!-- Node1&#45;&gt;Node5 -->
<g id="edge31_Node000001_Node000005" class="edge">
<title>Node1&#45;&gt;Node5</title>
<g id="a_edge31_Node000001_Node000005"><a xlink:title=" ">
<path fill="none" stroke="#63b8ff" d="M467.84,-274.95C483.84,-267.63 504.98,-255.63 518.07,-239 554.88,-192.22 592.21,-155.7 554.07,-110 547.61,-102.27 420.63,-82.2 352.09,-71.86"/>
<polygon fill="#63b8ff" stroke="#63b8ff" points="352.43,-68.37 342.02,-70.35 351.39,-75.29 352.43,-68.37"/>
</a>
</g>
</g>
<!-- Node12 -->
<g id="Node000012" class="node">
<title>Node12</title>
<g id="a_Node000012"><a xlink:href="context_8hpp.html" target="_top" xlink:title=" ">
<polygon fill="white" stroke="#666666" points="483.07,-184 409.07,-184 409.07,-165 483.07,-165 483.07,-184"/>
<text text-anchor="middle" x="446.07" y="-172" font-family="Helvetica,sans-Serif" font-size="10.00">context.hpp</text>
</a>
</g>
</g>
<!-- Node1&#45;&gt;Node12 -->
<g id="edge27_Node000001_Node000012" class="edge">
<title>Node1&#45;&gt;Node12</title>
<g id="a_edge27_Node000001_Node000012"><a xlink:title=" ">
<path fill="none" stroke="#63b8ff" d="M446.07,-274.66C446.07,-257.17 446.07,-217.8 446.07,-194.27"/>
<polygon fill="#63b8ff" stroke="#63b8ff" points="449.57,-194.16 446.07,-184.16 442.57,-194.16 449.57,-194.16"/>
</a>
</g>
</g>
<!-- Node13 -->
<g id="Node000013" class="node">
<title>Node13</title>
<g id="a_Node000013"><a xlink:title=" ">
<polygon fill="#e0e0e0" stroke="#999999" points="544.57,-129 499.57,-129 499.57,-110 544.57,-110 544.57,-129"/>
<text text-anchor="middle" x="522.07" y="-117" font-family="Helvetica,sans-Serif" font-size="10.00">utility</text>
</a>
</g>
</g>
<!-- Node1&#45;&gt;Node13 -->
<g id="edge32_Node000001_Node000013" class="edge">
<title>Node1&#45;&gt;Node13</title>
<g id="a_edge32_Node000001_Node000013"><a xlink:title=" ">
<path fill="none" stroke="#63b8ff" d="M461.67,-274.85C474.09,-267.11 490.88,-254.59 500.07,-239 518.6,-207.56 522.09,-163.97 522.44,-139.37"/>
<polygon fill="#63b8ff" stroke="#63b8ff" points="525.94,-139.22 522.41,-129.23 518.94,-139.24 525.94,-139.22"/>
</a>
</g>
</g>
<!-- Node14 -->
<g id="Node000014" class="node">
<title>Node14</title>
<g id="a_Node000014"><a xlink:href="exceptions_8hpp.html" target="_top" xlink:title=" ">
<polygon fill="white" stroke="#666666" points="466.57,-129 375.57,-129 375.57,-110 466.57,-110 466.57,-129"/>
<text text-anchor="middle" x="421.07" y="-117" font-family="Helvetica,sans-Serif" font-size="10.00">exceptions.hpp</text>
</a>
</g>
</g>
<!-- Node1&#45;&gt;Node14 -->
<g id="edge28_Node000001_Node000014" class="edge">
<title>Node1&#45;&gt;Node14</title>
<g id="a_edge28_Node000001_Node000014"><a xlink:title=" ">
<path fill="none" stroke="#63b8ff" d="M454.5,-274.82C472.94,-254.73 513.55,-203.81 492.07,-165 484.23,-150.83 469.78,-140.57 455.96,-133.5"/>
<polygon fill="#63b8ff" stroke="#63b8ff" points="457.12,-130.18 446.58,-129.1 454.15,-136.52 457.12,-130.18"/>
</a>
</g>
</g>
<!-- Node16 -->
<g id="Node000016" class="node">
<title>Node16</title>
<g id="a_Node000016"><a xlink:href="value__utils_8hpp.html" target="_top" xlink:title=" ">
<polygon fill="white" stroke="#666666" points="352.57,-184 261.57,-184 261.57,-165 352.57,-165 352.57,-184"/>
<text text-anchor="middle" x="307.07" y="-172" font-family="Helvetica,sans-Serif" font-size="10.00">value_utils.hpp</text>
</a>
</g>
</g>
<!-- Node1&#45;&gt;Node16 -->
<g id="edge29_Node000001_Node000016" class="edge">
<title>Node1&#45;&gt;Node16</title>
<g id="a_edge29_Node000001_Node000016"><a xlink:title=" ">
<path fill="none" stroke="#63b8ff" d="M434.69,-274.66C410.96,-256.22 355.91,-213.45 326.46,-190.57"/>
<polygon fill="#63b8ff" stroke="#63b8ff" points="328.26,-187.53 318.21,-184.16 323.96,-193.06 328.26,-187.53"/>
</a>
</g>
</g>
<!-- Node3 -->
<g id="Node000003" class="node">
<title>Node3</title>
<g id="a_Node000003"><a xlink:href="arg__iface_8hpp.html" target="_top" xlink:title=" ">
<polygon fill="white" stroke="#666666" points="128.57,-184 45.57,-184 45.57,-165 128.57,-165 128.57,-184"/>
<text text-anchor="middle" x="87.07" y="-172" font-family="Helvetica,sans-Serif" font-size="10.00">arg_iface.hpp</text>
</a>
</g>
</g>
<!-- Node2&#45;&gt;Node3 -->
<g id="edge2_Node000002_Node000003" class="edge">
<title>Node2&#45;&gt;Node3</title>
<g id="a_edge2_Node000002_Node000003"><a xlink:title=" ">
<path fill="none" stroke="#63b8ff" d="M217.17,-219.98C191.37,-211.16 150.85,-197.31 121.89,-187.41"/>
<polygon fill="#63b8ff" stroke="#63b8ff" points="122.76,-184.01 112.17,-184.08 120.5,-190.63 122.76,-184.01"/>
</a>
</g>
</g>
<!-- Node2&#45;&gt;Node4 -->
<g id="edge12_Node000002_Node000004" class="edge">
<title>Node2&#45;&gt;Node4</title>
<g id="a_edge12_Node000002_Node000004"><a xlink:title=" ">
<path fill="none" stroke="#63b8ff" d="M236.59,-219.66C225.49,-201.77 200.2,-161 185.74,-137.69"/>
<polygon fill="#63b8ff" stroke="#63b8ff" points="188.69,-135.81 180.44,-129.16 182.74,-139.5 188.69,-135.81"/>
</a>
</g>
</g>
<!-- Node2&#45;&gt;Node5 -->
<g id="edge25_Node000002_Node000005" class="edge">
<title>Node2&#45;&gt;Node5</title>
<g id="a_edge25_Node000002_Node000005"><a xlink:title=" ">
<path fill="none" stroke="#63b8ff" d="M242.65,-219.63C243.68,-207.13 246.39,-183.76 253.07,-165 264.05,-134.17 284.16,-101.72 297.06,-82.56"/>
<polygon fill="#63b8ff" stroke="#63b8ff" points="300.12,-84.29 302.9,-74.06 294.35,-80.32 300.12,-84.29"/>
</a>
</g>
</g>
<!-- Node9 -->
<g id="Node000009" class="node">
<title>Node9</title>
<g id="a_Node000009"><a xlink:title=" ">
<polygon fill="#e0e0e0" stroke="#999999" points="146.07,-74 82.07,-74 82.07,-55 146.07,-55 146.07,-74"/>
<text text-anchor="middle" x="114.07" y="-62" font-family="Helvetica,sans-Serif" font-size="10.00">algorithm</text>
</a>
</g>
</g>
<!-- Node2&#45;&gt;Node9 -->
<g id="edge26_Node000002_Node000009" class="edge">
<title>Node2&#45;&gt;Node9</title>
<g id="a_edge26_Node000002_Node000009"><a xlink:title=" ">
<path fill="none" stroke="#63b8ff" d="M215.26,-225.51C166.3,-219.61 64.91,-205.15 37.07,-184 8.94,-162.63 -11.49,-139.42 8.07,-110 22.27,-88.64 48.91,-77.52 71.94,-71.73"/>
<polygon fill="#63b8ff" stroke="#63b8ff" points="72.88,-75.1 81.87,-69.49 71.35,-68.27 72.88,-75.1"/>
</a>
</g>
</g>
<!-- Node2&#45;&gt;Node12 -->
<g id="edge13_Node000002_Node000012" class="edge">
<title>Node2&#45;&gt;Node12</title>
<g id="a_edge13_Node000002_Node000012"><a xlink:title=" ">
<path fill="none" stroke="#63b8ff" d="M268.74,-221.57C302.99,-212.67 362.84,-197.12 403.44,-186.57"/>
<polygon fill="#63b8ff" stroke="#63b8ff" points="404.52,-189.91 413.32,-184.01 402.76,-183.14 404.52,-189.91"/>
</a>
</g>
</g>
<!-- Node2&#45;&gt;Node14 -->
<g id="edge17_Node000002_Node000014" class="edge">
<title>Node2&#45;&gt;Node14</title>
<g id="a_edge17_Node000002_Node000014"><a xlink:title=" ">
<path fill="none" stroke="#63b8ff" d="M269.01,-222.37C294.5,-215.72 333.06,-203.37 362.07,-184 380.96,-171.39 398.09,-151.57 408.96,-137.43"/>
<polygon fill="#63b8ff" stroke="#63b8ff" points="412,-139.21 415.16,-129.1 406.38,-135.03 412,-139.21"/>
</a>
</g>
</g>
<!-- Node2&#45;&gt;Node16 -->
<g id="edge20_Node000002_Node000016" class="edge">
<title>Node2&#45;&gt;Node16</title>
<g id="a_edge20_Node000002_Node000016"><a xlink:title=" ">
<path fill="none" stroke="#63b8ff" d="M252.51,-219.98C262.22,-212.07 276.88,-200.11 288.57,-190.58"/>
<polygon fill="#63b8ff" stroke="#63b8ff" points="290.9,-193.2 296.44,-184.17 286.47,-187.78 290.9,-193.2"/>
</a>
</g>
</g>
<!-- Node3&#45;&gt;Node4 -->
<g id="edge3_Node000003_Node000004" class="edge">
<title>Node3&#45;&gt;Node4</title>
<g id="a_edge3_Node000003_Node000004"><a xlink:title=" ">
<path fill="none" stroke="#63b8ff" d="M101.21,-164.98C114.85,-156.77 135.76,-144.18 151.85,-134.49"/>
<polygon fill="#63b8ff" stroke="#63b8ff" points="153.91,-137.33 160.67,-129.17 150.3,-131.33 153.91,-137.33"/>
</a>
</g>
</g>
<!-- Node3&#45;&gt;Node5 -->
<g id="edge10_Node000003_Node000005" class="edge">
<title>Node3&#45;&gt;Node5</title>
<g id="a_edge10_Node000003_Node000005"><a xlink:title=" ">
<path fill="none" stroke="#63b8ff" d="M91.58,-164.61C99.08,-150.74 115.45,-124.12 137.07,-110 158.17,-96.22 222.41,-81.9 266.12,-73.35"/>
<polygon fill="#63b8ff" stroke="#63b8ff" points="267.05,-76.73 276.2,-71.4 265.72,-69.86 267.05,-76.73"/>
</a>
</g>
</g>
<!-- Node11 -->
<g id="Node000011" class="node">
<title>Node11</title>
<g id="a_Node000011"><a xlink:href="enums_8hpp.html" target="_top" xlink:title=" ">
<polygon fill="white" stroke="#666666" points="88.57,-129 17.57,-129 17.57,-110 88.57,-110 88.57,-129"/>
<text text-anchor="middle" x="53.07" y="-117" font-family="Helvetica,sans-Serif" font-size="10.00">enums.hpp</text>
</a>
</g>
</g>
<!-- Node3&#45;&gt;Node11 -->
<g id="edge11_Node000003_Node000011" class="edge">
<title>Node3&#45;&gt;Node11</title>
<g id="a_edge11_Node000003_Node000011"><a xlink:title=" ">
<path fill="none" stroke="#63b8ff" d="M81.46,-164.75C76.75,-157.42 69.9,-146.73 64.1,-137.7"/>
<polygon fill="#63b8ff" stroke="#63b8ff" points="66.92,-135.62 58.58,-129.09 61.03,-139.4 66.92,-135.62"/>
</a>
</g>
</g>
<!-- Node4&#45;&gt;Node5 -->
<g id="edge4_Node000004_Node000005" class="edge">
<title>Node4&#45;&gt;Node5</title>
<g id="a_edge4_Node000004_Node000005"><a xlink:title=" ">
<path fill="none" stroke="#63b8ff" d="M196.6,-109.98C218.54,-101.3 252.81,-87.75 277.76,-77.88"/>
<polygon fill="#63b8ff" stroke="#63b8ff" points="279.14,-81.1 287.15,-74.17 276.56,-74.59 279.14,-81.1"/>
</a>
</g>
</g>
<!-- Node4&#45;&gt;Node9 -->
<g id="edge8_Node000004_Node000009" class="edge">
<title>Node4&#45;&gt;Node9</title>
<g id="a_edge8_Node000004_Node000009"><a xlink:title=" ">
<path fill="none" stroke="#63b8ff" d="M165.27,-109.98C156.25,-102.15 142.66,-90.34 131.75,-80.86"/>
<polygon fill="#63b8ff" stroke="#63b8ff" points="133.89,-78.09 124.05,-74.17 129.3,-83.37 133.89,-78.09"/>
</a>
</g>
</g>
<!-- Node10 -->
<g id="Node000010" class="node">
<title>Node10</title>
<g id="a_Node000010"><a xlink:title=" ">
<polygon fill="#e0e0e0" stroke="#999999" points="233.57,-74 164.57,-74 164.57,-55 233.57,-55 233.57,-74"/>
<text text-anchor="middle" x="199.07" y="-62" font-family="Helvetica,sans-Serif" font-size="10.00">type_traits</text>
</a>
</g>
</g>
<!-- Node4&#45;&gt;Node10 -->
<g id="edge9_Node000004_Node000010" class="edge">
<title>Node4&#45;&gt;Node10</title>
<g id="a_edge9_Node000004_Node000010"><a xlink:title=" ">
<path fill="none" stroke="#63b8ff" d="M179.03,-109.75C182.28,-102.57 186.99,-92.18 191.02,-83.27"/>
<polygon fill="#63b8ff" stroke="#63b8ff" points="194.24,-84.64 195.18,-74.09 187.87,-81.75 194.24,-84.64"/>
</a>
</g>
</g>
<!-- Node6 -->
<g id="Node000006" class="node">
<title>Node6</title>
<g id="a_Node000006"><a xlink:title=" ">
<polygon fill="#e0e0e0" stroke="#999999" points="261.07,-19 217.07,-19 217.07,0 261.07,0 261.07,-19"/>
<text text-anchor="middle" x="239.07" y="-7" font-family="Helvetica,sans-Serif" font-size="10.00">string</text>
</a>
</g>
</g>
<!-- Node5&#45;&gt;Node6 -->
<g id="edge5_Node000005_Node000006" class="edge">
<title>Node5&#45;&gt;Node6</title>
<g id="a_edge5_Node000005_Node000006"><a xlink:title=" ">
<path fill="none" stroke="#63b8ff" d="M297.82,-54.98C287.27,-47 271.27,-34.88 258.63,-25.31"/>
<polygon fill="#63b8ff" stroke="#63b8ff" points="260.61,-22.42 250.52,-19.17 256.38,-28 260.61,-22.42"/>
</a>
</g>
</g>
<!-- Node7 -->
<g id="Node000007" class="node">
<title>Node7</title>
<g id="a_Node000007"><a xlink:title=" ">
<polygon fill="#e0e0e0" stroke="#999999" points="339.07,-19 279.07,-19 279.07,0 339.07,0 339.07,-19"/>
<text text-anchor="middle" x="309.07" y="-7" font-family="Helvetica,sans-Serif" font-size="10.00">iostream</text>
</a>
</g>
</g>
<!-- Node5&#45;&gt;Node7 -->
<g id="edge6_Node000005_Node000007" class="edge">
<title>Node5&#45;&gt;Node7</title>
<g id="a_edge6_Node000005_Node000007"><a xlink:title=" ">
<path fill="none" stroke="#63b8ff" d="M309.07,-54.75C309.07,-47.8 309.07,-37.85 309.07,-29.13"/>
<polygon fill="#63b8ff" stroke="#63b8ff" points="312.57,-29.09 309.07,-19.09 305.57,-29.09 312.57,-29.09"/>
</a>
</g>
</g>
<!-- Node8 -->
<g id="Node000008" class="node">
<title>Node8</title>
<g id="a_Node000008"><a xlink:title=" ">
<polygon fill="#e0e0e0" stroke="#999999" points="404.57,-19 357.57,-19 357.57,0 404.57,0 404.57,-19"/>
<text text-anchor="middle" x="381.07" y="-7" font-family="Helvetica,sans-Serif" font-size="10.00">vector</text>
</a>
</g>
</g>
<!-- Node5&#45;&gt;Node8 -->
<g id="edge7_Node000005_Node000008" class="edge">
<title>Node5&#45;&gt;Node8</title>
<g id="a_edge7_Node000005_Node000008"><a xlink:title=" ">
<path fill="none" stroke="#63b8ff" d="M320.64,-54.98C331.49,-47 347.95,-34.88 360.95,-25.31"/>
<polygon fill="#63b8ff" stroke="#63b8ff" points="363.31,-27.92 369.29,-19.17 359.16,-22.28 363.31,-27.92"/>
</a>
</g>
</g>
<!-- Node12&#45;&gt;Node4 -->
<g id="edge15_Node000012_Node000004" class="edge">
<title>Node12&#45;&gt;Node4</title>
<g id="a_edge15_Node000012_Node000004"><a xlink:title=" ">
<path fill="none" stroke="#63b8ff" d="M408.96,-166.24C357.99,-156.27 266.74,-138.43 214.56,-128.22"/>
<polygon fill="#63b8ff" stroke="#63b8ff" points="215.15,-124.77 204.67,-126.29 213.81,-131.64 215.15,-124.77"/>
</a>
</g>
</g>
<!-- Node12&#45;&gt;Node5 -->
<g id="edge16_Node000012_Node000005" class="edge">
<title>Node12&#45;&gt;Node5</title>
<g id="a_edge16_Node000012_Node000005"><a xlink:title=" ">
<path fill="none" stroke="#63b8ff" d="M427.15,-164.97C410.46,-156.96 385.92,-143.99 367.07,-129 349.62,-115.13 332.8,-95.84 321.81,-82.17"/>
<polygon fill="#63b8ff" stroke="#63b8ff" points="324.41,-79.81 315.48,-74.11 318.9,-84.14 324.41,-79.81"/>
</a>
</g>
</g>
<!-- Node12&#45;&gt;Node13 -->
<g id="edge14_Node000012_Node000013" class="edge">
<title>Node12&#45;&gt;Node13</title>
<g id="a_edge14_Node000012_Node000013"><a xlink:title=" ">
<path fill="none" stroke="#63b8ff" d="M458.28,-164.98C469.85,-156.92 487.44,-144.65 501.23,-135.03"/>
<polygon fill="#63b8ff" stroke="#63b8ff" points="503.44,-137.76 509.64,-129.17 499.43,-132.02 503.44,-137.76"/>
</a>
</g>
</g>
<!-- Node14&#45;&gt;Node5 -->
<g id="edge19_Node000014_Node000005" class="edge">
<title>Node14&#45;&gt;Node5</title>
<g id="a_edge19_Node000014_Node000005"><a xlink:title=" ">
<path fill="none" stroke="#63b8ff" d="M403.07,-109.98C385.14,-101.5 357.35,-88.35 336.64,-78.54"/>
<polygon fill="#63b8ff" stroke="#63b8ff" points="337.93,-75.28 327.39,-74.17 334.93,-81.61 337.93,-75.28"/>
</a>
</g>
</g>
<!-- Node15 -->
<g id="Node000015" class="node">
<title>Node15</title>
<g id="a_Node000015"><a xlink:title=" ">
<polygon fill="#e0e0e0" stroke="#999999" points="453.57,-74 388.57,-74 388.57,-55 453.57,-55 453.57,-74"/>
<text text-anchor="middle" x="421.07" y="-62" font-family="Helvetica,sans-Serif" font-size="10.00">stdexcept</text>
</a>
</g>
</g>
<!-- Node14&#45;&gt;Node15 -->
<g id="edge18_Node000014_Node000015" class="edge">
<title>Node14&#45;&gt;Node15</title>
<g id="a_edge18_Node000014_Node000015"><a xlink:title=" ">
<path fill="none" stroke="#63b8ff" d="M421.07,-109.75C421.07,-102.8 421.07,-92.85 421.07,-84.13"/>
<polygon fill="#63b8ff" stroke="#63b8ff" points="424.57,-84.09 421.07,-74.09 417.57,-84.09 424.57,-84.09"/>
</a>
</g>
</g>
<!-- Node16&#45;&gt;Node4 -->
<g id="edge21_Node000016_Node000004" class="edge">
<title>Node16&#45;&gt;Node4</title>
<g id="a_edge21_Node000016_Node000004"><a xlink:title=" ">
<path fill="none" stroke="#63b8ff" d="M285.86,-164.98C264.34,-156.34 230.79,-142.87 206.24,-133.02"/>
<polygon fill="#63b8ff" stroke="#63b8ff" points="207.25,-129.65 196.66,-129.17 204.64,-136.14 207.25,-129.65"/>
</a>
</g>
</g>
<!-- Node16&#45;&gt;Node5 -->
<g id="edge23_Node000016_Node000005" class="edge">
<title>Node16&#45;&gt;Node5</title>
<g id="a_edge23_Node000016_Node000005"><a xlink:title=" ">
<path fill="none" stroke="#63b8ff" d="M307.23,-164.66C307.56,-147.17 308.29,-107.8 308.72,-84.27"/>
<polygon fill="#63b8ff" stroke="#63b8ff" points="312.22,-84.22 308.91,-74.16 305.22,-84.09 312.22,-84.22"/>
</a>
</g>
</g>
<!-- Node16&#45;&gt;Node9 -->
<g id="edge24_Node000016_Node000009" class="edge">
<title>Node16&#45;&gt;Node9</title>
<g id="a_edge24_Node000016_Node000009"><a xlink:title=" ">
<path fill="none" stroke="#63b8ff" d="M296.04,-165C279.04,-152.12 245.14,-127.34 214.07,-110 191.96,-97.67 165.79,-86.12 145.76,-77.88"/>
<polygon fill="#63b8ff" stroke="#63b8ff" points="147.06,-74.63 136.47,-74.11 144.42,-81.12 147.06,-74.63"/>
</a>
</g>
</g>
<!-- Node16&#45;&gt;Node14 -->
<g id="edge22_Node000016_Node000014" class="edge">
<title>Node16&#45;&gt;Node14</title>
<g id="a_edge22_Node000016_Node000014"><a xlink:title=" ">
<path fill="none" stroke="#63b8ff" d="M325.39,-164.98C343.72,-156.46 372.18,-143.23 393.3,-133.41"/>
<polygon fill="#63b8ff" stroke="#63b8ff" points="394.83,-136.56 402.42,-129.17 391.88,-130.21 394.83,-136.56"/>
</a>
</g>
</g>
</g>
</svg>
