<?xml version="1.0" encoding="UTF-8" standalone="no"?>
<!DOCTYPE svg PUBLIC "-//W3C//DTD SVG 1.1//EN"
 "http://www.w3.org/Graphics/SVG/1.1/DTD/svg11.dtd">
<!-- Generated by graphviz version 2.43.0 (0)
 -->
<!-- Title: multi_arg.hpp Pages: 1 -->
<svg width="177pt" height="302pt"
 viewBox="0.00 0.00 176.50 302.00" xmlns="http://www.w3.org/2000/svg" xmlns:xlink="http://www.w3.org/1999/xlink">
<g id="graph0" class="graph" transform="scale(1 1) rotate(0) translate(4 298)">
<title>multi_arg.hpp</title>
<!-- Node1 -->
<g id="Node000001" class="node">
<title>Node1</title>
<g id="a_Node000001"><a xlink:title=" ">
<polygon fill="#999999" stroke="#666666" points="110,-294 26,-294 26,-275 110,-275 110,-294"/>
<text text-anchor="middle" x="68" y="-282" font-family="Helvetica,sans-Serif" font-size="10.00">multi_arg.hpp</text>
</a>
</g>
</g>
<!-- Node2 -->
<g id="Node000002" class="node">
<title>Node2</title>
<g id="a_Node000002"><a xlink:href="api_8hpp.html" target="_top" xlink:title=" ">
<polygon fill="white" stroke="#666666" points="94.5,-239 41.5,-239 41.5,-220 94.5,-220 94.5,-239"/>
<text text-anchor="middle" x="68" y="-227" font-family="Helvetica,sans-Serif" font-size="10.00">api.hpp</text>
</a>
</g>
</g>
<!-- Node1&#45;&gt;Node2 -->
<g id="edge1_Node000001_Node000002" class="edge">
<title>Node1&#45;&gt;Node2</title>
<g id="a_edge1_Node000001_Node000002"><a xlink:title=" ">
<path fill="none" stroke="#63b8ff" d="M68,-264.66C68,-255.93 68,-245.99 68,-239.09"/>
<polygon fill="#63b8ff" stroke="#63b8ff" points="64.5,-264.75 68,-274.75 71.5,-264.75 64.5,-264.75"/>
</a>
</g>
</g>
<!-- Node3 -->
<g id="Node000003" class="node">
<title>Node3</title>
<g id="a_Node000003"><a xlink:href="cmd__line_8hpp.html" target="_top" xlink:title=" ">
<polygon fill="white" stroke="#666666" points="82,-74 0,-74 0,-55 82,-55 82,-74"/>
<text text-anchor="middle" x="41" y="-62" font-family="Helvetica,sans-Serif" font-size="10.00">cmd_line.hpp</text>
</a>
</g>
</g>
<!-- Node2&#45;&gt;Node3 -->
<g id="edge2_Node000002_Node000003" class="edge">
<title>Node2&#45;&gt;Node3</title>
<g id="a_edge2_Node000002_Node000003"><a xlink:title=" ">
<path fill="none" stroke="#63b8ff" d="M43.42,-214.29C32.91,-206.76 21.75,-196.48 16,-184 -1.67,-145.61 23.82,-94.45 35.59,-74.24"/>
<polygon fill="#63b8ff" stroke="#63b8ff" points="41.7,-217.35 51.97,-219.95 45.57,-211.51 41.7,-217.35"/>
</a>
</g>
</g>
<!-- Node6 -->
<g id="Node000006" class="node">
<title>Node6</title>
<g id="a_Node000006"><a xlink:href="command_8hpp.html" target="_top" xlink:title=" ">
<polygon fill="white" stroke="#666666" points="111,-184 25,-184 25,-165 111,-165 111,-184"/>
<text text-anchor="middle" x="68" y="-172" font-family="Helvetica,sans-Serif" font-size="10.00">command.hpp</text>
</a>
</g>
</g>
<!-- Node2&#45;&gt;Node6 -->
<g id="edge6_Node000002_Node000006" class="edge">
<title>Node2&#45;&gt;Node6</title>
<g id="a_edge6_Node000002_Node000006"><a xlink:title=" ">
<path fill="none" stroke="#63b8ff" d="M61.51,-209.66C60.91,-200.93 61.36,-190.99 62.87,-184.09"/>
<polygon fill="#63b8ff" stroke="#63b8ff" points="58.06,-210.29 62.83,-219.75 65,-209.38 58.06,-210.29"/>
</a>
</g>
</g>
<!-- Node4 -->
<g id="Node000004" class="node">
<title>Node4</title>
<g id="a_Node000004"><a xlink:href="all_8hpp.html" target="_top" xlink:title=" ">
<polygon fill="white" stroke="#666666" points="55,-19 5,-19 5,0 55,0 55,-19"/>
<text text-anchor="middle" x="30" y="-7" font-family="Helvetica,sans-Serif" font-size="10.00">all.hpp</text>
</a>
</g>
</g>
<!-- Node3&#45;&gt;Node4 -->
<g id="edge3_Node000003_Node000004" class="edge">
<title>Node3&#45;&gt;Node4</title>
<g id="a_edge3_Node000003_Node000004"><a xlink:title=" ">
<path fill="none" stroke="#63b8ff" d="M37.15,-44.95C35.32,-36.15 33.23,-26.06 31.78,-19.09"/>
<polygon fill="#63b8ff" stroke="#63b8ff" points="33.72,-45.67 39.18,-54.75 40.58,-44.25 33.72,-45.67"/>
</a>
</g>
</g>
<!-- Node5 -->
<g id="Node000005" class="node">
<title>Node5</title>
<g id="a_Node000005"><a xlink:href="help__printer_8hpp.html" target="_top" xlink:title=" ">
<polygon fill="white" stroke="#666666" points="168.5,-19 73.5,-19 73.5,0 168.5,0 168.5,-19"/>
<text text-anchor="middle" x="121" y="-7" font-family="Helvetica,sans-Serif" font-size="10.00">help_printer.hpp</text>
</a>
</g>
</g>
<!-- Node3&#45;&gt;Node5 -->
<g id="edge4_Node000003_Node000005" class="edge">
<title>Node3&#45;&gt;Node5</title>
<g id="a_edge4_Node000003_Node000005"><a xlink:title=" ">
<path fill="none" stroke="#63b8ff" d="M56.97,-48.88C70.26,-39.34 88.88,-27.21 102.76,-19.17"/>
<polygon fill="#63b8ff" stroke="#63b8ff" points="54.68,-46.21 48.74,-54.98 58.85,-51.83 54.68,-46.21"/>
</a>
</g>
</g>
<!-- Node5&#45;&gt;Node3 -->
<g id="edge5_Node000005_Node000003" class="edge">
<title>Node5&#45;&gt;Node3</title>
<g id="a_edge5_Node000005_Node000003"><a xlink:title=" ">
<path fill="none" stroke="#63b8ff" d="M104.78,-25.31C91.42,-34.88 72.79,-47 58.97,-54.98"/>
<polygon fill="#63b8ff" stroke="#63b8ff" points="107.11,-27.94 113.06,-19.17 102.94,-22.31 107.11,-27.94"/>
</a>
</g>
</g>
<!-- Node6&#45;&gt;Node2 -->
<g id="edge7_Node000006_Node000002" class="edge">
<title>Node6&#45;&gt;Node2</title>
<g id="a_edge7_Node000006_Node000002"><a xlink:title=" ">
<path fill="none" stroke="#63b8ff" d="M74.48,-194.13C75.1,-202.85 74.66,-212.8 73.17,-219.75"/>
<polygon fill="#63b8ff" stroke="#63b8ff" points="77.93,-193.53 73.13,-184.09 70.99,-194.47 77.93,-193.53"/>
</a>
</g>
</g>
<!-- Node6&#45;&gt;Node3 -->
<g id="edge8_Node000006_Node000003" class="edge">
<title>Node6&#45;&gt;Node3</title>
<g id="a_edge8_Node000006_Node000003"><a xlink:title=" ">
<path fill="none" stroke="#63b8ff" d="M55.35,-156.59C50.16,-148.65 44.73,-138.79 42,-129 36.72,-110.1 38.3,-86.78 39.75,-74.33"/>
<polygon fill="#63b8ff" stroke="#63b8ff" points="52.56,-158.72 61.16,-164.92 58.3,-154.71 52.56,-158.72"/>
</a>
</g>
</g>
<!-- Node6&#45;&gt;Node5 -->
<g id="edge11_Node000006_Node000005" class="edge">
<title>Node6&#45;&gt;Node5</title>
<g id="a_edge11_Node000006_Node000005"><a xlink:title=" ">
<path fill="none" stroke="#63b8ff" d="M92.53,-159.27C103.03,-151.74 114.2,-141.46 120,-129 137.54,-91.32 128.02,-39.32 123.23,-19.06"/>
<polygon fill="#63b8ff" stroke="#63b8ff" points="90.39,-156.49 83.99,-164.93 94.26,-162.32 90.39,-156.49"/>
</a>
</g>
</g>
<!-- Node7 -->
<g id="Node000007" class="node">
<title>Node7</title>
<g id="a_Node000007"><a xlink:href="help_8hpp.html" target="_top" xlink:title=" ">
<polygon fill="white" stroke="#666666" points="110.5,-129 51.5,-129 51.5,-110 110.5,-110 110.5,-129"/>
<text text-anchor="middle" x="81" y="-117" font-family="Helvetica,sans-Serif" font-size="10.00">help.hpp</text>
</a>
</g>
</g>
<!-- Node6&#45;&gt;Node7 -->
<g id="edge9_Node000006_Node000007" class="edge">
<title>Node6&#45;&gt;Node7</title>
<g id="a_edge9_Node000006_Node000007"><a xlink:title=" ">
<path fill="none" stroke="#63b8ff" d="M72.55,-154.95C74.71,-146.15 77.18,-136.06 78.89,-129.09"/>
<polygon fill="#63b8ff" stroke="#63b8ff" points="69.13,-154.2 70.15,-164.75 75.93,-155.87 69.13,-154.2"/>
</a>
</g>
</g>
<!-- Node7&#45;&gt;Node3 -->
<g id="edge10_Node000007_Node000003" class="edge">
<title>Node7&#45;&gt;Node3</title>
<g id="a_edge10_Node000007_Node000003"><a xlink:title=" ">
<path fill="none" stroke="#63b8ff" d="M68.3,-101.67C61.37,-92.5 53.09,-81.52 47.48,-74.09"/>
<polygon fill="#63b8ff" stroke="#63b8ff" points="65.58,-103.87 74.39,-109.75 71.16,-99.66 65.58,-103.87"/>
</a>
</g>
</g>
</g>
</svg>
