<?xml version="1.0" encoding="UTF-8" standalone="no"?>
<!DOCTYPE svg PUBLIC "-//W3C//DTD SVG 1.1//EN"
 "http://www.w3.org/Graphics/SVG/1.1/DTD/svg11.dtd">
<!-- Generated by graphviz version 2.38.0 (20140413.2041)
 -->
<!-- Title: multi_arg.hpp Pages: 1 -->
<!--zoomable 308 -->
<svg id="main" version="1.1" xmlns="http://www.w3.org/2000/svg" xmlns:xlink="http://www.w3.org/1999/xlink" xml:space="preserve" onload="init(evt)">
<style type="text/css"><![CDATA[
.edge:hover path { stroke: red; }
.edge:hover polygon { stroke: red; fill: red; }
]]></style>
<script type="text/javascript"><![CDATA[
var edges = document.getElementsByTagName('g');
if (edges && edges.length) {
  for (var i=0;i<edges.length;i++) {
    if (edges[i].id.substr(0,4)=='edge') {
      edges[i].setAttribute('class','edge');
    }
  }
}
]]></script>
        <defs>
                <circle id="rim" cx="0" cy="0" r="7"/>
                <circle id="rim2" cx="0" cy="0" r="3.5"/>
                <g id="zoomPlus">
                        <use xlink:href="#rim" fill="#404040">
                                <set attributeName="fill" to="#808080" begin="zoomplus.mouseover" end="zoomplus.mouseout"/>
                        </use>
                        <path d="M-4,0h8M0,-4v8" fill="none" stroke="white" stroke-width="1.5" pointer-events="none"/>
                </g>
                <g id="zoomMin">
                        <use xlink:href="#rim" fill="#404040">
                                <set attributeName="fill" to="#808080" begin="zoomminus.mouseover" end="zoomminus.mouseout"/>
                        </use>
                        <path d="M-4,0h8" fill="none" stroke="white" stroke-width="1.5" pointer-events="none"/>
                </g>
                <g id="dirArrow">
                        <path fill="none" stroke="white" stroke-width="1.5" d="M0,-3.0v7 M-2.5,-0.5L0,-3.0L2.5,-0.5"/>
                </g>
               <g id="resetDef">
                       <use xlink:href="#rim2" fill="#404040">
                               <set attributeName="fill" to="#808080" begin="reset.mouseover" end="reset.mouseout"/>
                       </use>
               </g>
        </defs>

<script type="text/javascript">
var viewWidth = 549;
var viewHeight = 308;
var sectionId = 'dynsection-0';
</script>
<script xlink:href="svgpan.js"/>
<svg id="graph" class="graph">
<g id="viewport">
<title>multi_arg.hpp</title>
<!-- Node1 -->
<g id="node1" class="node"><title>Node1</title>
<polygon fill="#bfbfbf" stroke="black" points="239.5,-280.5 239.5,-299.5 313.5,-299.5 313.5,-280.5 239.5,-280.5"/>
<text text-anchor="middle" x="276.5" y="-287.5" font-family="FreeSans" font-size="10.00">multi_arg.hpp</text>
</g>
<!-- Node2 -->
<g id="node2" class="node"><title>Node2</title>
<g id="a_node2"><a xlink:href="arg_8hpp.html" target="_top" xlink:title="arg.hpp">
<polygon fill="none" stroke="black" points="252.5,-224.5 252.5,-243.5 300.5,-243.5 300.5,-224.5 252.5,-224.5"/>
<text text-anchor="middle" x="276.5" y="-231.5" font-family="FreeSans" font-size="10.00">arg.hpp</text>
</a>
</g>
</g>
<!-- Node1&#45;&gt;Node2 -->
<g id="edge1" class="edge"><title>Node1&#45;&gt;Node2</title>
<path fill="none" stroke="midnightblue" d="M276.5,-280.083C276.5,-273.006 276.5,-262.861 276.5,-253.986"/>
<polygon fill="midnightblue" stroke="midnightblue" points="280,-253.751 276.5,-243.751 273,-253.751 280,-253.751"/>
</g>
<!-- Node4 -->
<g id="node4" class="node"><title>Node4</title>
<g id="a_node4"><a xlink:href="utils_8hpp.html" target="_top" xlink:title="utils.hpp">
<polygon fill="none" stroke="black" points="106.5,-112.5 106.5,-131.5 158.5,-131.5 158.5,-112.5 106.5,-112.5"/>
<text text-anchor="middle" x="132.5" y="-119.5" font-family="FreeSans" font-size="10.00">utils.hpp</text>
</a>
</g>
</g>
<!-- Node1&#45;&gt;Node4 -->
<g id="edge31" class="edge"><title>Node1&#45;&gt;Node4</title>
<path fill="none" stroke="midnightblue" d="M265.767,-280.341C245.691,-263.806 201.757,-225.986 171.5,-188 159.739,-173.235 148.914,-154.61 141.668,-141.085"/>
<polygon fill="midnightblue" stroke="midnightblue" points="144.597,-139.133 136.869,-131.886 138.391,-142.371 144.597,-139.133"/>
</g>
<!-- Node6 -->
<g id="node6" class="node"><title>Node6</title>
<g id="a_node6"><a xlink:href="types_8hpp.html" target="_top" xlink:title="types.hpp">
<polygon fill="none" stroke="black" points="316,-56.5 316,-75.5 373,-75.5 373,-56.5 316,-56.5"/>
<text text-anchor="middle" x="344.5" y="-63.5" font-family="FreeSans" font-size="10.00">types.hpp</text>
</a>
</g>
</g>
<!-- Node1&#45;&gt;Node6 -->
<g id="edge32" class="edge"><title>Node1&#45;&gt;Node6</title>
<path fill="none" stroke="midnightblue" d="M313.66,-284.962C349.47,-279.77 404.155,-268.331 445.5,-244 501.018,-211.328 518.58,-193.577 537.5,-132 540.111,-123.503 543.026,-118.963 537.5,-112 518.59,-88.1742 433.729,-75.7934 383.043,-70.414"/>
<polygon fill="midnightblue" stroke="midnightblue" points="383.389,-66.9312 373.086,-69.4004 382.68,-73.8952 383.389,-66.9312"/>
</g>
<!-- Node13 -->
<g id="node13" class="node"><title>Node13</title>
<g id="a_node13"><a xlink:href="context_8hpp.html" target="_top" xlink:title="context.hpp">
<polygon fill="none" stroke="black" points="41.5,-168.5 41.5,-187.5 107.5,-187.5 107.5,-168.5 41.5,-168.5"/>
<text text-anchor="middle" x="74.5" y="-175.5" font-family="FreeSans" font-size="10.00">context.hpp</text>
</a>
</g>
</g>
<!-- Node1&#45;&gt;Node13 -->
<g id="edge28" class="edge"><title>Node1&#45;&gt;Node13</title>
<path fill="none" stroke="midnightblue" d="M239.415,-285.145C206.022,-280.159 156.894,-268.93 121.5,-244 104.294,-231.881 91.0237,-211.418 83.0382,-196.687"/>
<polygon fill="midnightblue" stroke="midnightblue" points="86.0454,-194.88 78.3706,-187.576 79.8154,-198.072 86.0454,-194.88"/>
</g>
<!-- Node14 -->
<g id="node14" class="node"><title>Node14</title>
<polygon fill="none" stroke="#bfbfbf" points="0,-112.5 0,-131.5 39,-131.5 39,-112.5 0,-112.5"/>
<text text-anchor="middle" x="19.5" y="-119.5" font-family="FreeSans" font-size="10.00">utility</text>
</g>
<!-- Node1&#45;&gt;Node14 -->
<g id="edge33" class="edge"><title>Node1&#45;&gt;Node14</title>
<path fill="none" stroke="midnightblue" d="M239.412,-284.776C201.917,-279.364 143.148,-267.691 97.5,-244 63.655,-226.435 51.7281,-220.929 32.5,-188 24.2488,-173.869 21.1529,-155.384 20.0311,-141.74"/>
<polygon fill="midnightblue" stroke="midnightblue" points="23.5188,-141.416 19.4833,-131.62 16.529,-141.794 23.5188,-141.416"/>
</g>
<!-- Node15 -->
<g id="node15" class="node"><title>Node15</title>
<g id="a_node15"><a xlink:href="exceptions_8hpp.html" target="_top" xlink:title="exceptions.hpp">
<polygon fill="none" stroke="black" points="448.5,-112.5 448.5,-131.5 528.5,-131.5 528.5,-112.5 448.5,-112.5"/>
<text text-anchor="middle" x="488.5" y="-119.5" font-family="FreeSans" font-size="10.00">exceptions.hpp</text>
</a>
</g>
</g>
<!-- Node1&#45;&gt;Node15 -->
<g id="edge29" class="edge"><title>Node1&#45;&gt;Node15</title>
<path fill="none" stroke="midnightblue" d="M313.64,-281.817C360.777,-270.595 440.727,-244.095 480.5,-188 489.851,-174.812 491.282,-156.222 490.707,-142.299"/>
<polygon fill="midnightblue" stroke="midnightblue" points="494.163,-141.613 489.881,-131.922 487.186,-142.168 494.163,-141.613"/>
</g>
<!-- Node17 -->
<g id="node17" class="node"><title>Node17</title>
<g id="a_node17"><a xlink:href="value__utils_8hpp.html" target="_top" xlink:title="value_utils.hpp">
<polygon fill="none" stroke="black" points="369.5,-168.5 369.5,-187.5 449.5,-187.5 449.5,-168.5 369.5,-168.5"/>
<text text-anchor="middle" x="409.5" y="-175.5" font-family="FreeSans" font-size="10.00">value_utils.hpp</text>
</a>
</g>
</g>
<!-- Node1&#45;&gt;Node17 -->
<g id="edge30" class="edge"><title>Node1&#45;&gt;Node17</title>
<path fill="none" stroke="midnightblue" d="M286.936,-280.368C309.468,-261.733 362.911,-217.532 391.202,-194.134"/>
<polygon fill="midnightblue" stroke="midnightblue" points="393.637,-196.662 399.112,-187.591 389.176,-191.268 393.637,-196.662"/>
</g>
<!-- Node3 -->
<g id="node3" class="node"><title>Node3</title>
<g id="a_node3"><a xlink:href="arg__iface_8hpp.html" target="_top" xlink:title="arg_iface.hpp">
<polygon fill="none" stroke="black" points="239.5,-168.5 239.5,-187.5 313.5,-187.5 313.5,-168.5 239.5,-168.5"/>
<text text-anchor="middle" x="276.5" y="-175.5" font-family="FreeSans" font-size="10.00">arg_iface.hpp</text>
</a>
</g>
</g>
<!-- Node2&#45;&gt;Node3 -->
<g id="edge2" class="edge"><title>Node2&#45;&gt;Node3</title>
<path fill="none" stroke="midnightblue" d="M276.5,-224.083C276.5,-217.006 276.5,-206.861 276.5,-197.986"/>
<polygon fill="midnightblue" stroke="midnightblue" points="280,-197.751 276.5,-187.751 273,-197.751 280,-197.751"/>
</g>
<!-- Node2&#45;&gt;Node4 -->
<g id="edge13" class="edge"><title>Node2&#45;&gt;Node4</title>
<path fill="none" stroke="midnightblue" d="M258.397,-224.442C241.811,-216.204 216.953,-202.837 197.5,-188 178.375,-173.413 159.239,-153.472 146.734,-139.537"/>
<polygon fill="midnightblue" stroke="midnightblue" points="149.101,-136.929 139.865,-131.738 143.848,-141.556 149.101,-136.929"/>
</g>
<!-- Node2&#45;&gt;Node6 -->
<g id="edge26" class="edge"><title>Node2&#45;&gt;Node6</title>
<path fill="none" stroke="midnightblue" d="M288.746,-224.498C299.424,-216.393 314.432,-203.196 322.5,-188 339.961,-155.115 343.842,-110.886 344.542,-86.027"/>
<polygon fill="midnightblue" stroke="midnightblue" points="348.044,-85.8406 344.676,-75.7955 341.045,-85.7486 348.044,-85.8406"/>
</g>
<!-- Node10 -->
<g id="node10" class="node"><title>Node10</title>
<polygon fill="none" stroke="#bfbfbf" points="170.5,-56.5 170.5,-75.5 226.5,-75.5 226.5,-56.5 170.5,-56.5"/>
<text text-anchor="middle" x="198.5" y="-63.5" font-family="FreeSans" font-size="10.00">algorithm</text>
</g>
<!-- Node2&#45;&gt;Node10 -->
<g id="edge27" class="edge"><title>Node2&#45;&gt;Node10</title>
<path fill="none" stroke="midnightblue" d="M265.485,-224.313C255.361,-215.885 240.457,-202.304 230.5,-188 214.927,-165.63 212.601,-158.315 205.5,-132 201.383,-116.744 199.674,-98.8582 198.971,-85.7142"/>
<polygon fill="midnightblue" stroke="midnightblue" points="202.462,-85.4263 198.577,-75.5696 195.468,-85.6979 202.462,-85.4263"/>
</g>
<!-- Node2&#45;&gt;Node13 -->
<g id="edge14" class="edge"><title>Node2&#45;&gt;Node13</title>
<path fill="none" stroke="midnightblue" d="M252.134,-226.486C218.496,-217.494 157.345,-201.147 116.32,-190.18"/>
<polygon fill="midnightblue" stroke="midnightblue" points="117.174,-186.785 106.61,-187.584 115.366,-193.548 117.174,-186.785"/>
</g>
<!-- Node2&#45;&gt;Node15 -->
<g id="edge18" class="edge"><title>Node2&#45;&gt;Node15</title>
<path fill="none" stroke="midnightblue" d="M300.634,-233.374C338.505,-232.701 412.325,-226.14 458.5,-188 472.703,-176.268 480.516,-156.332 484.577,-141.625"/>
<polygon fill="midnightblue" stroke="midnightblue" points="488.048,-142.162 486.995,-131.62 481.244,-140.518 488.048,-142.162"/>
</g>
<!-- Node2&#45;&gt;Node17 -->
<g id="edge21" class="edge"><title>Node2&#45;&gt;Node17</title>
<path fill="none" stroke="midnightblue" d="M297.574,-224.444C319.56,-215.517 354.234,-201.439 379.164,-191.317"/>
<polygon fill="midnightblue" stroke="midnightblue" points="380.576,-194.521 388.524,-187.516 377.942,-188.035 380.576,-194.521"/>
</g>
<!-- Node3&#45;&gt;Node4 -->
<g id="edge3" class="edge"><title>Node3&#45;&gt;Node4</title>
<path fill="none" stroke="midnightblue" d="M253.683,-168.444C229.668,-159.438 191.671,-145.189 164.631,-135.049"/>
<polygon fill="midnightblue" stroke="midnightblue" points="165.803,-131.751 155.21,-131.516 163.345,-138.305 165.803,-131.751"/>
</g>
<!-- Node3&#45;&gt;Node6 -->
<g id="edge11" class="edge"><title>Node3&#45;&gt;Node6</title>
<path fill="none" stroke="midnightblue" d="M281.836,-168.368C293.008,-150.296 319.045,-108.176 333.801,-84.3074"/>
<polygon fill="midnightblue" stroke="midnightblue" points="336.908,-85.9378 339.189,-75.5914 330.954,-82.257 336.908,-85.9378"/>
</g>
<!-- Node12 -->
<g id="node12" class="node"><title>Node12</title>
<g id="a_node12"><a xlink:href="enums_8hpp.html" target="_top" xlink:title="enums.hpp">
<polygon fill="none" stroke="black" points="215,-112.5 215,-131.5 278,-131.5 278,-112.5 215,-112.5"/>
<text text-anchor="middle" x="246.5" y="-119.5" font-family="FreeSans" font-size="10.00">enums.hpp</text>
</a>
</g>
</g>
<!-- Node3&#45;&gt;Node12 -->
<g id="edge12" class="edge"><title>Node3&#45;&gt;Node12</title>
<path fill="none" stroke="midnightblue" d="M271.546,-168.083C267.396,-160.613 261.347,-149.724 256.233,-140.52"/>
<polygon fill="midnightblue" stroke="midnightblue" points="259.278,-138.793 251.362,-131.751 253.159,-142.192 259.278,-138.793"/>
</g>
<!-- Node5 -->
<g id="node5" class="node"><title>Node5</title>
<polygon fill="none" stroke="#bfbfbf" points="112.5,-56.5 112.5,-75.5 152.5,-75.5 152.5,-56.5 112.5,-56.5"/>
<text text-anchor="middle" x="132.5" y="-63.5" font-family="FreeSans" font-size="10.00">regex</text>
</g>
<!-- Node4&#45;&gt;Node5 -->
<g id="edge4" class="edge"><title>Node4&#45;&gt;Node5</title>
<path fill="none" stroke="midnightblue" d="M132.5,-112.083C132.5,-105.006 132.5,-94.8611 132.5,-85.9865"/>
<polygon fill="midnightblue" stroke="midnightblue" points="136,-85.751 132.5,-75.7511 129,-85.7511 136,-85.751"/>
</g>
<!-- Node4&#45;&gt;Node6 -->
<g id="edge5" class="edge"><title>Node4&#45;&gt;Node6</title>
<path fill="none" stroke="midnightblue" d="M158.921,-114.27C195.914,-104.847 263.381,-87.6624 305.973,-76.8134"/>
<polygon fill="midnightblue" stroke="midnightblue" points="306.882,-80.1937 315.709,-74.3336 305.154,-73.4103 306.882,-80.1937"/>
</g>
<!-- Node4&#45;&gt;Node10 -->
<g id="edge9" class="edge"><title>Node4&#45;&gt;Node10</title>
<path fill="none" stroke="midnightblue" d="M143.104,-112.324C152.956,-104.263 167.851,-92.0765 179.715,-82.3695"/>
<polygon fill="midnightblue" stroke="midnightblue" points="182.18,-84.8752 187.703,-75.8339 177.747,-79.4575 182.18,-84.8752"/>
</g>
<!-- Node11 -->
<g id="node11" class="node"><title>Node11</title>
<polygon fill="none" stroke="#bfbfbf" points="33,-56.5 33,-75.5 94,-75.5 94,-56.5 33,-56.5"/>
<text text-anchor="middle" x="63.5" y="-63.5" font-family="FreeSans" font-size="10.00">type_traits</text>
</g>
<!-- Node4&#45;&gt;Node11 -->
<g id="edge10" class="edge"><title>Node4&#45;&gt;Node11</title>
<path fill="none" stroke="midnightblue" d="M121.414,-112.324C111.014,-104.185 95.2394,-91.8395 82.7784,-82.0874"/>
<polygon fill="midnightblue" stroke="midnightblue" points="84.8199,-79.2407 74.7878,-75.8339 80.5057,-84.7533 84.8199,-79.2407"/>
</g>
<!-- Node7 -->
<g id="node7" class="node"><title>Node7</title>
<polygon fill="none" stroke="#bfbfbf" points="259.5,-0.5 259.5,-19.5 299.5,-19.5 299.5,-0.5 259.5,-0.5"/>
<text text-anchor="middle" x="279.5" y="-7.5" font-family="FreeSans" font-size="10.00">string</text>
</g>
<!-- Node6&#45;&gt;Node7 -->
<g id="edge6" class="edge"><title>Node6&#45;&gt;Node7</title>
<path fill="none" stroke="midnightblue" d="M334.057,-56.324C324.354,-48.2631 309.685,-36.0765 298,-26.3695"/>
<polygon fill="midnightblue" stroke="midnightblue" points="300.062,-23.532 290.133,-19.8339 295.589,-28.9163 300.062,-23.532"/>
</g>
<!-- Node8 -->
<g id="node8" class="node"><title>Node8</title>
<polygon fill="none" stroke="#bfbfbf" points="318,-0.5 318,-19.5 371,-19.5 371,-0.5 318,-0.5"/>
<text text-anchor="middle" x="344.5" y="-7.5" font-family="FreeSans" font-size="10.00">iostream</text>
</g>
<!-- Node6&#45;&gt;Node8 -->
<g id="edge7" class="edge"><title>Node6&#45;&gt;Node8</title>
<path fill="none" stroke="midnightblue" d="M344.5,-56.083C344.5,-49.0059 344.5,-38.8611 344.5,-29.9865"/>
<polygon fill="midnightblue" stroke="midnightblue" points="348,-29.751 344.5,-19.7511 341,-29.7511 348,-29.751"/>
</g>
<!-- Node9 -->
<g id="node9" class="node"><title>Node9</title>
<polygon fill="none" stroke="#bfbfbf" points="389,-0.5 389,-19.5 432,-19.5 432,-0.5 389,-0.5"/>
<text text-anchor="middle" x="410.5" y="-7.5" font-family="FreeSans" font-size="10.00">vector</text>
</g>
<!-- Node6&#45;&gt;Node9 -->
<g id="edge8" class="edge"><title>Node6&#45;&gt;Node9</title>
<path fill="none" stroke="midnightblue" d="M355.104,-56.324C364.956,-48.2631 379.851,-36.0765 391.715,-26.3695"/>
<polygon fill="midnightblue" stroke="midnightblue" points="394.18,-28.8752 399.703,-19.8339 389.747,-23.4575 394.18,-28.8752"/>
</g>
<!-- Node13&#45;&gt;Node4 -->
<g id="edge16" class="edge"><title>Node13&#45;&gt;Node4</title>
<path fill="none" stroke="midnightblue" d="M83.8187,-168.324C92.3926,-160.341 105.312,-148.313 115.688,-138.653"/>
<polygon fill="midnightblue" stroke="midnightblue" points="118.078,-141.21 123.012,-131.834 113.308,-136.086 118.078,-141.21"/>
</g>
<!-- Node13&#45;&gt;Node6 -->
<g id="edge17" class="edge"><title>Node13&#45;&gt;Node6</title>
<path fill="none" stroke="midnightblue" d="M74.9165,-168.316C76.0886,-154.208 80.5494,-126.436 97.5,-112 128.32,-85.7516 244.459,-73.9026 305.875,-69.3762"/>
<polygon fill="midnightblue" stroke="midnightblue" points="306.229,-72.86 315.957,-68.6628 305.735,-65.8774 306.229,-72.86"/>
</g>
<!-- Node13&#45;&gt;Node14 -->
<g id="edge15" class="edge"><title>Node13&#45;&gt;Node14</title>
<path fill="none" stroke="midnightblue" d="M65.4179,-168.083C57.3287,-160.141 45.3046,-148.335 35.5898,-138.797"/>
<polygon fill="midnightblue" stroke="midnightblue" points="38.0009,-136.26 28.4131,-131.751 33.0967,-141.254 38.0009,-136.26"/>
</g>
<!-- Node15&#45;&gt;Node6 -->
<g id="edge20" class="edge"><title>Node15&#45;&gt;Node6</title>
<path fill="none" stroke="midnightblue" d="M465.683,-112.444C441.668,-103.438 403.671,-89.1891 376.631,-79.049"/>
<polygon fill="midnightblue" stroke="midnightblue" points="377.803,-75.7506 367.21,-75.5164 375.345,-82.3049 377.803,-75.7506"/>
</g>
<!-- Node16 -->
<g id="node16" class="node"><title>Node16</title>
<polygon fill="none" stroke="#bfbfbf" points="459.5,-56.5 459.5,-75.5 517.5,-75.5 517.5,-56.5 459.5,-56.5"/>
<text text-anchor="middle" x="488.5" y="-63.5" font-family="FreeSans" font-size="10.00">stdexcept</text>
</g>
<!-- Node15&#45;&gt;Node16 -->
<g id="edge19" class="edge"><title>Node15&#45;&gt;Node16</title>
<path fill="none" stroke="midnightblue" d="M488.5,-112.083C488.5,-105.006 488.5,-94.8611 488.5,-85.9865"/>
<polygon fill="midnightblue" stroke="midnightblue" points="492,-85.751 488.5,-75.7511 485,-85.7511 492,-85.751"/>
</g>
<!-- Node17&#45;&gt;Node4 -->
<g id="edge22" class="edge"><title>Node17&#45;&gt;Node4</title>
<path fill="none" stroke="midnightblue" d="M369.222,-169.148C315.317,-158.639 220.513,-140.158 168.744,-130.066"/>
<polygon fill="midnightblue" stroke="midnightblue" points="169.169,-126.583 158.684,-128.105 167.83,-133.453 169.169,-126.583"/>
</g>
<!-- Node17&#45;&gt;Node6 -->
<g id="edge24" class="edge"><title>Node17&#45;&gt;Node6</title>
<path fill="none" stroke="midnightblue" d="M409.512,-168.383C409.165,-155.316 407.042,-130.099 396.5,-112 389.458,-99.9104 377.967,-89.4595 367.575,-81.6804"/>
<polygon fill="midnightblue" stroke="midnightblue" points="369.417,-78.6966 359.227,-75.797 365.385,-84.4185 369.417,-78.6966"/>
</g>
<!-- Node17&#45;&gt;Node10 -->
<g id="edge25" class="edge"><title>Node17&#45;&gt;Node10</title>
<path fill="none" stroke="midnightblue" d="M393.222,-168.308C369.711,-155.775 324.859,-131.942 286.5,-112 265.689,-101.181 242.014,-89.0864 224.466,-80.1627"/>
<polygon fill="midnightblue" stroke="midnightblue" points="225.906,-76.9682 215.405,-75.5596 222.735,-83.2091 225.906,-76.9682"/>
</g>
<!-- Node17&#45;&gt;Node15 -->
<g id="edge23" class="edge"><title>Node17&#45;&gt;Node15</title>
<path fill="none" stroke="midnightblue" d="M422.193,-168.324C434.401,-159.979 453.078,-147.212 467.503,-137.352"/>
<polygon fill="midnightblue" stroke="midnightblue" points="469.558,-140.187 475.839,-131.655 465.608,-134.408 469.558,-140.187"/>
</g>
</g>
</svg>
        <g id="navigator" transform="translate(0 0)" fill="#404254">
                <rect fill="#f2f5e9" fill-opacity="0.5" stroke="#606060" stroke-width=".5" x="0" y="0" width="60" height="60"/>
                <use id="zoomplus" xlink:href="#zoomPlus" x="17" y="9" onmousedown="handleZoom(evt,'in')"/>
                <use id="zoomminus" xlink:href="#zoomMin" x="42" y="9" onmousedown="handleZoom(evt,'out')"/>
                <use id="reset" xlink:href="#resetDef" x="30" y="36" onmousedown="handleReset()"/>
                <g id="arrowUp" xlink:href="#dirArrow" transform="translate(30 24)" onmousedown="handlePan(0,-1)">
                  <use xlink:href="#rim" fill="#404040">
                        <set attributeName="fill" to="#808080" begin="arrowUp.mouseover" end="arrowUp.mouseout"/>
                  </use>
                  <path fill="none" stroke="white" stroke-width="1.5" d="M0,-3.0v7 M-2.5,-0.5L0,-3.0L2.5,-0.5"/>
                </g>
                <g id="arrowRight" xlink:href="#dirArrow" transform="rotate(90) translate(36 -43)" onmousedown="handlePan(1,0)">
                  <use xlink:href="#rim" fill="#404040">
                        <set attributeName="fill" to="#808080" begin="arrowRight.mouseover" end="arrowRight.mouseout"/>
                  </use>
                  <path fill="none" stroke="white" stroke-width="1.5" d="M0,-3.0v7 M-2.5,-0.5L0,-3.0L2.5,-0.5"/>
                </g>
                <g id="arrowDown" xlink:href="#dirArrow" transform="rotate(180) translate(-30 -48)" onmousedown="handlePan(0,1)">
                  <use xlink:href="#rim" fill="#404040">
                        <set attributeName="fill" to="#808080" begin="arrowDown.mouseover" end="arrowDown.mouseout"/>
                  </use>
                  <path fill="none" stroke="white" stroke-width="1.5" d="M0,-3.0v7 M-2.5,-0.5L0,-3.0L2.5,-0.5"/>
                </g>
                <g id="arrowLeft" xlink:href="#dirArrow" transform="rotate(270) translate(-36 17)" onmousedown="handlePan(-1,0)">
                  <use xlink:href="#rim" fill="#404040">
                        <set attributeName="fill" to="#808080" begin="arrowLeft.mouseover" end="arrowLeft.mouseout"/>
                  </use>
                  <path fill="none" stroke="white" stroke-width="1.5" d="M0,-3.0v7 M-2.5,-0.5L0,-3.0L2.5,-0.5"/>
                </g>
        </g>
        <svg viewBox="0 0 15 15" width="100%" height="30px" preserveAspectRatio="xMaxYMin meet">
         <g id="arrow_out" transform="scale(0.3 0.3)">
          <a xlink:href="multi__arg_8hpp__incl_org.svg" target="_base">
           <rect id="button" ry="5" rx="5" y="6" x="6" height="38" width="38"
                fill="#f2f5e9" fill-opacity="0.5" stroke="#606060" stroke-width="1.0"/>
           <path id="arrow"
             d="M 11.500037,31.436501 C 11.940474,20.09759 22.043105,11.32322 32.158766,21.979434 L 37.068811,17.246167 C 37.068811,17.246167 37.088388,32 37.088388,32 L 22.160133,31.978069 C 22.160133,31.978069 26.997745,27.140456 26.997745,27.140456 C 18.528582,18.264221 13.291696,25.230495 11.500037,31.436501 z"
             style="fill:#404040;"/>
          </a>
         </g>
        </svg>
</svg>
