<?xml version="1.0" encoding="UTF-8" standalone="no"?>
<!DOCTYPE svg PUBLIC "-//W3C//DTD SVG 1.1//EN"
 "http://www.w3.org/Graphics/SVG/1.1/DTD/svg11.dtd">
<!-- Generated by graphviz version 2.38.0 (20140413.2041)
 -->
<!-- Title: multi_arg.hpp Pages: 1 -->
<svg width="181pt" height="196pt"
 viewBox="0.00 0.00 180.50 196.00" xmlns="http://www.w3.org/2000/svg" xmlns:xlink="http://www.w3.org/1999/xlink">
<g id="graph0" class="graph" transform="scale(1 1) rotate(0) translate(4 192)">
<title>multi_arg.hpp</title>
<!-- Node1 -->
<g id="node1" class="node"><title>Node1</title>
<polygon fill="#bfbfbf" stroke="black" points="47,-168.5 47,-187.5 121,-187.5 121,-168.5 47,-168.5"/>
<text text-anchor="middle" x="84" y="-175.5" font-family="FreeSans" font-size="10.00">multi_arg.hpp</text>
</g>
<!-- Node2 -->
<g id="node2" class="node"><title>Node2</title>
<g id="a_node2"><a xlink:href="api_8hpp.html" target="_top" xlink:title="api.hpp">
<polygon fill="none" stroke="black" points="60.5,-112.5 60.5,-131.5 107.5,-131.5 107.5,-112.5 60.5,-112.5"/>
<text text-anchor="middle" x="84" y="-119.5" font-family="FreeSans" font-size="10.00">api.hpp</text>
</a>
</g>
</g>
<!-- Node1&#45;&gt;Node2 -->
<g id="edge1" class="edge"><title>Node1&#45;&gt;Node2</title>
<path fill="none" stroke="midnightblue" d="M84,-157.805C84,-148.91 84,-138.78 84,-131.751"/>
<polygon fill="midnightblue" stroke="midnightblue" points="80.5001,-158.083 84,-168.083 87.5001,-158.083 80.5001,-158.083"/>
</g>
<!-- Node3 -->
<g id="node3" class="node"><title>Node3</title>
<g id="a_node3"><a xlink:href="cmd__line_8hpp.html" target="_top" xlink:title="cmd_line.hpp">
<polygon fill="none" stroke="black" points="15,-56.5 15,-75.5 89,-75.5 89,-56.5 15,-56.5"/>
<text text-anchor="middle" x="52" y="-63.5" font-family="FreeSans" font-size="10.00">cmd_line.hpp</text>
</a>
</g>
</g>
<!-- Node2&#45;&gt;Node3 -->
<g id="edge2" class="edge"><title>Node2&#45;&gt;Node3</title>
<path fill="none" stroke="midnightblue" d="M73.4961,-103.275C68.0269,-94.0454 61.5824,-83.1703 57.1858,-75.7511"/>
<polygon fill="midnightblue" stroke="midnightblue" points="70.6068,-105.264 78.7159,-112.083 76.6288,-101.696 70.6068,-105.264"/>
</g>
<!-- Node4 -->
<g id="node4" class="node"><title>Node4</title>
<g id="a_node4"><a xlink:href="all_8hpp.html" target="_top" xlink:title="all.hpp">
<polygon fill="none" stroke="black" points="0,-0.5 0,-19.5 44,-19.5 44,-0.5 0,-0.5"/>
<text text-anchor="middle" x="22" y="-7.5" font-family="FreeSans" font-size="10.00">all.hpp</text>
</a>
</g>
</g>
<!-- Node3&#45;&gt;Node4 -->
<g id="edge3" class="edge"><title>Node3&#45;&gt;Node4</title>
<path fill="none" stroke="midnightblue" d="M42.1526,-47.2747C37.0252,-38.0454 30.9835,-27.1703 26.8617,-19.7511"/>
<polygon fill="midnightblue" stroke="midnightblue" points="39.1301,-49.0412 47.0461,-56.083 45.2492,-45.6416 39.1301,-49.0412"/>
</g>
<!-- Node5 -->
<g id="node5" class="node"><title>Node5</title>
<g id="a_node5"><a xlink:href="arg__as__command_8hpp.html" target="_top" xlink:title="arg_as_command.hpp">
<polygon fill="none" stroke="black" points="61.5,-0.5 61.5,-19.5 172.5,-19.5 172.5,-0.5 61.5,-0.5"/>
<text text-anchor="middle" x="117" y="-7.5" font-family="FreeSans" font-size="10.00">arg_as_command.hpp</text>
</a>
</g>
</g>
<!-- Node3&#45;&gt;Node5 -->
<g id="edge4" class="edge"><title>Node3&#45;&gt;Node5</title>
<path fill="none" stroke="midnightblue" d="M70.2726,-49.8197C81.9178,-40.1452 96.5995,-27.9481 106.367,-19.8339"/>
<polygon fill="midnightblue" stroke="midnightblue" points="67.8987,-47.2416 62.4434,-56.324 72.3719,-52.6259 67.8987,-47.2416"/>
</g>
<!-- Node5&#45;&gt;Node2 -->
<g id="edge5" class="edge"><title>Node5&#45;&gt;Node2</title>
<path fill="none" stroke="midnightblue" d="M111.684,-29.4992C107.921,-42.5199 102.722,-60.3473 98,-76 94.1717,-88.6897 89.5823,-103.339 86.7281,-112.387"/>
<polygon fill="midnightblue" stroke="midnightblue" points="115.06,-30.4239 114.467,-19.8457 108.334,-28.4852 115.06,-30.4239"/>
</g>
</g>
</svg>
