<?xml version="1.0" encoding="UTF-8" standalone="no"?>
<!DOCTYPE svg PUBLIC "-//W3C//DTD SVG 1.1//EN"
 "http://www.w3.org/Graphics/SVG/1.1/DTD/svg11.dtd">
<!-- Generated by graphviz version 2.43.0 (0)
 -->
<!-- Title: multi_arg.hpp Pages: 1 -->
<svg width="579pt" height="308pt"
 viewBox="0.00 0.00 579.11 308.00" xmlns="http://www.w3.org/2000/svg" xmlns:xlink="http://www.w3.org/1999/xlink">
<g id="graph0" class="graph" transform="scale(1 1) rotate(0) translate(4 304)">
<title>multi_arg.hpp</title>
<!-- Node1 -->
<g id="node1" class="node">
<title>Node1</title>
<g id="a_node1"><a xlink:title=" ">
<polygon fill="#bfbfbf" stroke="black" points="404.38,-280.5 404.38,-299.5 488.38,-299.5 488.38,-280.5 404.38,-280.5"/>
<text text-anchor="middle" x="446.38" y="-287.5" font-family="Helvetica,sans-Serif" font-size="10.00">multi_arg.hpp</text>
</a>
</g>
</g>
<!-- Node2 -->
<g id="node2" class="node">
<title>Node2</title>
<g id="a_node2"><a xlink:href="arg_8hpp.html" target="_top" xlink:title=" ">
<polygon fill="none" stroke="black" points="215.88,-224.5 215.88,-243.5 268.88,-243.5 268.88,-224.5 215.88,-224.5"/>
<text text-anchor="middle" x="242.38" y="-231.5" font-family="Helvetica,sans-Serif" font-size="10.00">arg.hpp</text>
</a>
</g>
</g>
<!-- Node1&#45;&gt;Node2 -->
<g id="edge1" class="edge">
<title>Node1&#45;&gt;Node2</title>
<path fill="none" stroke="midnightblue" d="M414.05,-280.44C377.23,-270.7 317.22,-254.81 278.78,-244.64"/>
<polygon fill="midnightblue" stroke="midnightblue" points="279.59,-241.23 269.02,-242.05 277.8,-248 279.59,-241.23"/>
</g>
<!-- Node4 -->
<g id="node4" class="node">
<title>Node4</title>
<g id="a_node4"><a xlink:href="utils_8hpp.html" target="_top" xlink:title=" ">
<polygon fill="none" stroke="black" points="145.88,-112.5 145.88,-131.5 204.88,-131.5 204.88,-112.5 145.88,-112.5"/>
<text text-anchor="middle" x="175.38" y="-119.5" font-family="Helvetica,sans-Serif" font-size="10.00">utils.hpp</text>
</a>
</g>
</g>
<!-- Node1&#45;&gt;Node4 -->
<g id="edge30" class="edge">
<title>Node1&#45;&gt;Node4</title>
<path fill="none" stroke="midnightblue" d="M404.31,-286.4C343.54,-281.78 235.4,-270.06 207.38,-244 178.83,-217.45 174.58,-168.67 174.59,-141.87"/>
<polygon fill="midnightblue" stroke="midnightblue" points="178.1,-141.63 174.81,-131.56 171.1,-141.48 178.1,-141.63"/>
</g>
<!-- Node5 -->
<g id="node5" class="node">
<title>Node5</title>
<g id="a_node5"><a xlink:href="types_8hpp.html" target="_top" xlink:title=" ">
<polygon fill="none" stroke="black" points="276.88,-56.5 276.88,-75.5 341.88,-75.5 341.88,-56.5 276.88,-56.5"/>
<text text-anchor="middle" x="309.38" y="-63.5" font-family="Helvetica,sans-Serif" font-size="10.00">types.hpp</text>
</a>
</g>
</g>
<!-- Node1&#45;&gt;Node5 -->
<g id="edge31" class="edge">
<title>Node1&#45;&gt;Node5</title>
<path fill="none" stroke="midnightblue" d="M467.84,-280.47C483.89,-273.06 505.25,-260.86 518.38,-244 555.74,-196.02 593.3,-158.72 554.38,-112 547.93,-104.26 420.94,-83.93 352.4,-73.45"/>
<polygon fill="midnightblue" stroke="midnightblue" points="352.74,-69.96 342.33,-71.92 351.69,-76.88 352.74,-69.96"/>
</g>
<!-- Node12 -->
<g id="node12" class="node">
<title>Node12</title>
<g id="a_node12"><a xlink:href="context_8hpp.html" target="_top" xlink:title=" ">
<polygon fill="none" stroke="black" points="409.38,-168.5 409.38,-187.5 483.38,-187.5 483.38,-168.5 409.38,-168.5"/>
<text text-anchor="middle" x="446.38" y="-175.5" font-family="Helvetica,sans-Serif" font-size="10.00">context.hpp</text>
</a>
</g>
</g>
<!-- Node1&#45;&gt;Node12 -->
<g id="edge27" class="edge">
<title>Node1&#45;&gt;Node12</title>
<path fill="none" stroke="midnightblue" d="M446.38,-280.37C446.38,-262.62 446.38,-221.67 446.38,-197.6"/>
<polygon fill="midnightblue" stroke="midnightblue" points="449.88,-197.59 446.38,-187.59 442.88,-197.59 449.88,-197.59"/>
</g>
<!-- Node13 -->
<g id="node13" class="node">
<title>Node13</title>
<g id="a_node13"><a xlink:title=" ">
<polygon fill="none" stroke="#bfbfbf" points="499.88,-112.5 499.88,-131.5 544.88,-131.5 544.88,-112.5 499.88,-112.5"/>
<text text-anchor="middle" x="522.38" y="-119.5" font-family="Helvetica,sans-Serif" font-size="10.00">utility</text>
</a>
</g>
</g>
<!-- Node1&#45;&gt;Node13 -->
<g id="edge32" class="edge">
<title>Node1&#45;&gt;Node13</title>
<path fill="none" stroke="midnightblue" d="M461.74,-280.38C474.2,-272.54 491.16,-259.81 500.38,-244 519.23,-211.68 522.58,-166.91 522.82,-141.88"/>
<polygon fill="midnightblue" stroke="midnightblue" points="526.32,-141.57 522.75,-131.6 519.32,-141.62 526.32,-141.57"/>
</g>
<!-- Node14 -->
<g id="node14" class="node">
<title>Node14</title>
<g id="a_node14"><a xlink:href="exceptions_8hpp.html" target="_top" xlink:title=" ">
<polygon fill="none" stroke="black" points="375.88,-112.5 375.88,-131.5 466.88,-131.5 466.88,-112.5 375.88,-112.5"/>
<text text-anchor="middle" x="421.38" y="-119.5" font-family="Helvetica,sans-Serif" font-size="10.00">exceptions.hpp</text>
</a>
</g>
</g>
<!-- Node1&#45;&gt;Node14 -->
<g id="edge28" class="edge">
<title>Node1&#45;&gt;Node14</title>
<path fill="none" stroke="midnightblue" d="M454.58,-280.43C472.97,-260.12 514.26,-207.78 492.38,-168 484.49,-153.66 469.89,-143.25 455.97,-136.08"/>
<polygon fill="midnightblue" stroke="midnightblue" points="457.08,-132.73 446.54,-131.62 454.09,-139.06 457.08,-132.73"/>
</g>
<!-- Node16 -->
<g id="node16" class="node">
<title>Node16</title>
<g id="a_node16"><a xlink:href="value__utils_8hpp.html" target="_top" xlink:title=" ">
<polygon fill="none" stroke="black" points="261.88,-168.5 261.88,-187.5 352.88,-187.5 352.88,-168.5 261.88,-168.5"/>
<text text-anchor="middle" x="307.38" y="-175.5" font-family="Helvetica,sans-Serif" font-size="10.00">value_utils.hpp</text>
</a>
</g>
</g>
<!-- Node1&#45;&gt;Node16 -->
<g id="edge29" class="edge">
<title>Node1&#45;&gt;Node16</title>
<path fill="none" stroke="midnightblue" d="M435.47,-280.37C411.82,-261.65 355.59,-217.15 326.12,-193.83"/>
<polygon fill="midnightblue" stroke="midnightblue" points="328.25,-191.05 318.23,-187.59 323.9,-196.54 328.25,-191.05"/>
</g>
<!-- Node3 -->
<g id="node3" class="node">
<title>Node3</title>
<g id="a_node3"><a xlink:href="arg__iface_8hpp.html" target="_top" xlink:title=" ">
<polygon fill="none" stroke="black" points="45.88,-168.5 45.88,-187.5 128.88,-187.5 128.88,-168.5 45.88,-168.5"/>
<text text-anchor="middle" x="87.38" y="-175.5" font-family="Helvetica,sans-Serif" font-size="10.00">arg_iface.hpp</text>
</a>
</g>
</g>
<!-- Node2&#45;&gt;Node3 -->
<g id="edge2" class="edge">
<title>Node2&#45;&gt;Node3</title>
<path fill="none" stroke="midnightblue" d="M217.82,-224.44C191.85,-215.4 150.71,-201.06 121.58,-190.92"/>
<polygon fill="midnightblue" stroke="midnightblue" points="122.42,-187.5 111.82,-187.52 120.11,-194.11 122.42,-187.5"/>
</g>
<!-- Node2&#45;&gt;Node4 -->
<g id="edge12" class="edge">
<title>Node2&#45;&gt;Node4</title>
<path fill="none" stroke="midnightblue" d="M237.12,-224.37C226.11,-206.3 200.46,-164.18 185.92,-140.31"/>
<polygon fill="midnightblue" stroke="midnightblue" points="188.8,-138.31 180.61,-131.59 182.82,-141.95 188.8,-138.31"/>
</g>
<!-- Node2&#45;&gt;Node5 -->
<g id="edge25" class="edge">
<title>Node2&#45;&gt;Node5</title>
<path fill="none" stroke="midnightblue" d="M242.91,-224.36C243.9,-211.68 246.57,-187.44 253.38,-168 264.37,-136.62 284.63,-103.5 297.53,-84.07"/>
<polygon fill="midnightblue" stroke="midnightblue" points="300.49,-85.95 303.2,-75.7 294.69,-82.02 300.49,-85.95"/>
</g>
<!-- Node9 -->
<g id="node9" class="node">
<title>Node9</title>
<g id="a_node9"><a xlink:title=" ">
<polygon fill="none" stroke="#bfbfbf" points="82.38,-56.5 82.38,-75.5 146.38,-75.5 146.38,-56.5 82.38,-56.5"/>
<text text-anchor="middle" x="114.38" y="-63.5" font-family="Helvetica,sans-Serif" font-size="10.00">algorithm</text>
</a>
</g>
</g>
<!-- Node2&#45;&gt;Node9 -->
<g id="edge26" class="edge">
<title>Node2&#45;&gt;Node9</title>
<path fill="none" stroke="midnightblue" d="M215.55,-229.96C166.57,-223.96 65.13,-209.3 37.38,-188 8.7,-165.99 -11.58,-142.15 8.38,-112 22.55,-90.58 49.2,-79.32 72.23,-73.43"/>
<polygon fill="midnightblue" stroke="midnightblue" points="73.2,-76.8 82.17,-71.15 71.64,-69.97 73.2,-76.8"/>
</g>
<!-- Node2&#45;&gt;Node12 -->
<g id="edge13" class="edge">
<title>Node2&#45;&gt;Node12</title>
<path fill="none" stroke="midnightblue" d="M269.05,-225.94C303.4,-216.85 363.5,-200.94 404.1,-190.19"/>
<polygon fill="midnightblue" stroke="midnightblue" points="405.21,-193.52 413.98,-187.58 403.42,-186.75 405.21,-193.52"/>
</g>
<!-- Node2&#45;&gt;Node14 -->
<g id="edge17" class="edge">
<title>Node2&#45;&gt;Node14</title>
<path fill="none" stroke="midnightblue" d="M268.88,-226.94C294.4,-220.26 333.29,-207.74 362.38,-188 381.59,-174.96 398.84,-154.41 409.65,-139.92"/>
<polygon fill="midnightblue" stroke="midnightblue" points="412.5,-141.95 415.51,-131.8 406.82,-137.86 412.5,-141.95"/>
</g>
<!-- Node2&#45;&gt;Node16 -->
<g id="edge20" class="edge">
<title>Node2&#45;&gt;Node16</title>
<path fill="none" stroke="midnightblue" d="M252.82,-224.32C262.52,-216.26 277.19,-204.08 288.88,-194.37"/>
<polygon fill="midnightblue" stroke="midnightblue" points="291.29,-196.92 296.74,-187.83 286.82,-191.53 291.29,-196.92"/>
</g>
<!-- Node3&#45;&gt;Node4 -->
<g id="edge3" class="edge">
<title>Node3&#45;&gt;Node4</title>
<path fill="none" stroke="midnightblue" d="M101.52,-168.32C115.24,-159.9 136.31,-146.97 152.44,-137.07"/>
<polygon fill="midnightblue" stroke="midnightblue" points="154.58,-139.87 161.27,-131.65 150.92,-133.9 154.58,-139.87"/>
</g>
<!-- Node3&#45;&gt;Node5 -->
<g id="edge10" class="edge">
<title>Node3&#45;&gt;Node5</title>
<path fill="none" stroke="midnightblue" d="M91.6,-168.36C98.91,-154.32 115.31,-126.63 137.38,-112 158.45,-98.02 223.02,-83.5 266.77,-74.86"/>
<polygon fill="midnightblue" stroke="midnightblue" points="267.7,-78.24 276.85,-72.9 266.37,-71.37 267.7,-78.24"/>
</g>
<!-- Node11 -->
<g id="node11" class="node">
<title>Node11</title>
<g id="a_node11"><a xlink:href="enums_8hpp.html" target="_top" xlink:title=" ">
<polygon fill="none" stroke="black" points="17.88,-112.5 17.88,-131.5 88.88,-131.5 88.88,-112.5 17.88,-112.5"/>
<text text-anchor="middle" x="53.38" y="-119.5" font-family="Helvetica,sans-Serif" font-size="10.00">enums.hpp</text>
</a>
</g>
</g>
<!-- Node3&#45;&gt;Node11 -->
<g id="edge11" class="edge">
<title>Node3&#45;&gt;Node11</title>
<path fill="none" stroke="midnightblue" d="M81.76,-168.08C77.01,-160.53 70.06,-149.49 64.23,-140.23"/>
<polygon fill="midnightblue" stroke="midnightblue" points="67.18,-138.35 58.89,-131.75 61.25,-142.08 67.18,-138.35"/>
</g>
<!-- Node4&#45;&gt;Node5 -->
<g id="edge4" class="edge">
<title>Node4&#45;&gt;Node5</title>
<path fill="none" stroke="midnightblue" d="M196.61,-112.44C218.76,-103.52 253.7,-89.44 278.81,-79.32"/>
<polygon fill="midnightblue" stroke="midnightblue" points="280.28,-82.5 288.24,-75.52 277.66,-76.01 280.28,-82.5"/>
</g>
<!-- Node4&#45;&gt;Node9 -->
<g id="edge8" class="edge">
<title>Node4&#45;&gt;Node9</title>
<path fill="none" stroke="midnightblue" d="M165.58,-112.32C156.56,-104.34 142.97,-92.31 132.06,-82.65"/>
<polygon fill="midnightblue" stroke="midnightblue" points="134.16,-79.84 124.36,-75.83 129.52,-85.08 134.16,-79.84"/>
</g>
<!-- Node10 -->
<g id="node10" class="node">
<title>Node10</title>
<g id="a_node10"><a xlink:title=" ">
<polygon fill="none" stroke="#bfbfbf" points="164.88,-56.5 164.88,-75.5 233.88,-75.5 233.88,-56.5 164.88,-56.5"/>
<text text-anchor="middle" x="199.38" y="-63.5" font-family="Helvetica,sans-Serif" font-size="10.00">type_traits</text>
</a>
</g>
</g>
<!-- Node4&#45;&gt;Node10 -->
<g id="edge9" class="edge">
<title>Node4&#45;&gt;Node10</title>
<path fill="none" stroke="midnightblue" d="M179.34,-112.08C182.59,-104.77 187.3,-94.18 191.33,-85.1"/>
<polygon fill="midnightblue" stroke="midnightblue" points="194.62,-86.31 195.49,-75.75 188.23,-83.47 194.62,-86.31"/>
</g>
<!-- Node6 -->
<g id="node6" class="node">
<title>Node6</title>
<g id="a_node6"><a xlink:title=" ">
<polygon fill="none" stroke="#bfbfbf" points="217.38,-0.5 217.38,-19.5 261.38,-19.5 261.38,-0.5 217.38,-0.5"/>
<text text-anchor="middle" x="239.38" y="-7.5" font-family="Helvetica,sans-Serif" font-size="10.00">string</text>
</a>
</g>
</g>
<!-- Node5&#45;&gt;Node6 -->
<g id="edge5" class="edge">
<title>Node5&#45;&gt;Node6</title>
<path fill="none" stroke="midnightblue" d="M298.13,-56.32C287.58,-48.18 271.58,-35.84 258.94,-26.09"/>
<polygon fill="midnightblue" stroke="midnightblue" points="260.88,-23.17 250.83,-19.83 256.61,-28.71 260.88,-23.17"/>
</g>
<!-- Node7 -->
<g id="node7" class="node">
<title>Node7</title>
<g id="a_node7"><a xlink:title=" ">
<polygon fill="none" stroke="#bfbfbf" points="279.38,-0.5 279.38,-19.5 339.38,-19.5 339.38,-0.5 279.38,-0.5"/>
<text text-anchor="middle" x="309.38" y="-7.5" font-family="Helvetica,sans-Serif" font-size="10.00">iostream</text>
</a>
</g>
</g>
<!-- Node5&#45;&gt;Node7 -->
<g id="edge6" class="edge">
<title>Node5&#45;&gt;Node7</title>
<path fill="none" stroke="midnightblue" d="M309.38,-56.08C309.38,-49.01 309.38,-38.86 309.38,-29.99"/>
<polygon fill="midnightblue" stroke="midnightblue" points="312.88,-29.75 309.38,-19.75 305.88,-29.75 312.88,-29.75"/>
</g>
<!-- Node8 -->
<g id="node8" class="node">
<title>Node8</title>
<g id="a_node8"><a xlink:title=" ">
<polygon fill="none" stroke="#bfbfbf" points="357.88,-0.5 357.88,-19.5 404.88,-19.5 404.88,-0.5 357.88,-0.5"/>
<text text-anchor="middle" x="381.38" y="-7.5" font-family="Helvetica,sans-Serif" font-size="10.00">vector</text>
</a>
</g>
</g>
<!-- Node5&#45;&gt;Node8 -->
<g id="edge7" class="edge">
<title>Node5&#45;&gt;Node8</title>
<path fill="none" stroke="midnightblue" d="M320.95,-56.32C331.8,-48.18 348.26,-35.84 361.26,-26.09"/>
<polygon fill="midnightblue" stroke="midnightblue" points="363.7,-28.63 369.6,-19.83 359.5,-23.03 363.7,-28.63"/>
</g>
<!-- Node12&#45;&gt;Node4 -->
<g id="edge15" class="edge">
<title>Node12&#45;&gt;Node4</title>
<path fill="none" stroke="midnightblue" d="M409.26,-169.6C358.3,-159.45 267.05,-141.27 214.87,-130.87"/>
<polygon fill="midnightblue" stroke="midnightblue" points="215.47,-127.42 204.98,-128.9 214.1,-134.28 215.47,-127.42"/>
</g>
<!-- Node12&#45;&gt;Node5 -->
<g id="edge16" class="edge">
<title>Node12&#45;&gt;Node5</title>
<path fill="none" stroke="midnightblue" d="M427.42,-168.38C410.71,-160.29 386.16,-147.19 367.38,-132 349.82,-117.8 333.01,-98.06 322.06,-84.06"/>
<polygon fill="midnightblue" stroke="midnightblue" points="324.6,-81.63 315.75,-75.82 319.04,-85.89 324.6,-81.63"/>
</g>
<!-- Node12&#45;&gt;Node13 -->
<g id="edge14" class="edge">
<title>Node12&#45;&gt;Node13</title>
<path fill="none" stroke="midnightblue" d="M458.59,-168.32C470.15,-160.11 487.75,-147.6 501.54,-137.81"/>
<polygon fill="midnightblue" stroke="midnightblue" points="503.82,-140.48 509.94,-131.83 499.77,-134.77 503.82,-140.48"/>
</g>
<!-- Node14&#45;&gt;Node5 -->
<g id="edge19" class="edge">
<title>Node14&#45;&gt;Node5</title>
<path fill="none" stroke="midnightblue" d="M403.38,-112.32C385.34,-103.62 357.33,-90.12 336.57,-80.11"/>
<polygon fill="midnightblue" stroke="midnightblue" points="337.86,-76.84 327.33,-75.65 334.82,-83.15 337.86,-76.84"/>
</g>
<!-- Node15 -->
<g id="node15" class="node">
<title>Node15</title>
<g id="a_node15"><a xlink:title=" ">
<polygon fill="none" stroke="#bfbfbf" points="388.88,-56.5 388.88,-75.5 453.88,-75.5 453.88,-56.5 388.88,-56.5"/>
<text text-anchor="middle" x="421.38" y="-63.5" font-family="Helvetica,sans-Serif" font-size="10.00">stdexcept</text>
</a>
</g>
</g>
<!-- Node14&#45;&gt;Node15 -->
<g id="edge18" class="edge">
<title>Node14&#45;&gt;Node15</title>
<path fill="none" stroke="midnightblue" d="M421.38,-112.08C421.38,-105.01 421.38,-94.86 421.38,-85.99"/>
<polygon fill="midnightblue" stroke="midnightblue" points="424.88,-85.75 421.38,-75.75 417.88,-85.75 424.88,-85.75"/>
</g>
<!-- Node16&#45;&gt;Node4 -->
<g id="edge21" class="edge">
<title>Node16&#45;&gt;Node4</title>
<path fill="none" stroke="midnightblue" d="M286.46,-168.44C264.64,-159.52 230.23,-145.44 205.49,-135.32"/>
<polygon fill="midnightblue" stroke="midnightblue" points="206.78,-132.06 196.2,-131.52 204.13,-138.54 206.78,-132.06"/>
</g>
<!-- Node16&#45;&gt;Node5 -->
<g id="edge23" class="edge">
<title>Node16&#45;&gt;Node5</title>
<path fill="none" stroke="midnightblue" d="M307.53,-168.37C307.86,-150.62 308.6,-109.67 309.04,-85.6"/>
<polygon fill="midnightblue" stroke="midnightblue" points="312.54,-85.65 309.22,-75.59 305.54,-85.53 312.54,-85.65"/>
</g>
<!-- Node16&#45;&gt;Node9 -->
<g id="edge24" class="edge">
<title>Node16&#45;&gt;Node9</title>
<path fill="none" stroke="midnightblue" d="M296.37,-168.28C279.41,-155.09 245.55,-129.7 214.38,-112 192.18,-99.4 165.81,-87.65 145.72,-79.32"/>
<polygon fill="midnightblue" stroke="midnightblue" points="146.99,-76.06 136.41,-75.52 144.34,-82.54 146.99,-76.06"/>
</g>
<!-- Node16&#45;&gt;Node14 -->
<g id="edge22" class="edge">
<title>Node16&#45;&gt;Node14</title>
<path fill="none" stroke="midnightblue" d="M325.44,-168.44C343.95,-159.68 372.96,-145.94 394.23,-135.86"/>
<polygon fill="midnightblue" stroke="midnightblue" points="395.86,-138.96 403.4,-131.52 392.86,-132.63 395.86,-138.96"/>
</g>
</g>
</svg>
