<?xml version="1.0" encoding="UTF-8" standalone="no"?>
<!DOCTYPE svg PUBLIC "-//W3C//DTD SVG 1.1//EN"
 "http://www.w3.org/Graphics/SVG/1.1/DTD/svg11.dtd">
<!-- Generated by graphviz version 2.43.0 (0)
 -->
<!-- Title: multi_arg.hpp Pages: 1 -->
<!--zoomable 308 -->
<svg id="main" version="1.1" xmlns="http://www.w3.org/2000/svg" xmlns:xlink="http://www.w3.org/1999/xlink" xml:space="preserve" onload="init(evt)">
<style type="text/css"><![CDATA[
.edge:hover path { stroke: red; }
.edge:hover polygon { stroke: red; fill: red; }
]]></style>
<script type="text/javascript"><![CDATA[
var edges = document.getElementsByTagName('g');
if (edges && edges.length) {
  for (var i=0;i<edges.length;i++) {
    if (edges[i].id.substr(0,4)=='edge') {
      edges[i].setAttribute('class','edge');
    }
  }
}
]]></script>
        <defs>
                <circle id="rim" cx="0" cy="0" r="7"/>
                <circle id="rim2" cx="0" cy="0" r="3.5"/>
                <g id="zoomPlus">
                        <use xlink:href="#rim" fill="#404040">
                                <set attributeName="fill" to="#808080" begin="zoomplus.mouseover" end="zoomplus.mouseout"/>
                        </use>
                        <path d="M-4,0h8M0,-4v8" fill="none" stroke="white" stroke-width="1.5" pointer-events="none"/>
                </g>
                <g id="zoomMin">
                        <use xlink:href="#rim" fill="#404040">
                                <set attributeName="fill" to="#808080" begin="zoomminus.mouseover" end="zoomminus.mouseout"/>
                        </use>
                        <path d="M-4,0h8" fill="none" stroke="white" stroke-width="1.5" pointer-events="none"/>
                </g>
                <g id="dirArrow">
                        <path fill="none" stroke="white" stroke-width="1.5" d="M0,-3.0v7 M-2.5,-0.5L0,-3.0L2.5,-0.5"/>
                </g>
               <g id="resetDef">
                       <use xlink:href="#rim2" fill="#404040">
                               <set attributeName="fill" to="#808080" begin="reset.mouseover" end="reset.mouseout"/>
                       </use>
               </g>
        </defs>

<script type="text/javascript">
var viewWidth = 582;
var viewHeight = 308;
var sectionId = 'dynsection-0';
</script>
<script xlink:href="svgpan.js"/>
<svg id="graph" class="graph">
<g id="viewport">
<title>multi_arg.hpp</title>
<!-- Node1 -->
<g id="node1" class="node">
<title>Node1</title>
<g id="a_node1"><a xlink:title=" ">
<polygon fill="#bfbfbf" stroke="black" points="247.5,-280.5 247.5,-299.5 331.5,-299.5 331.5,-280.5 247.5,-280.5"/>
<text text-anchor="middle" x="289.5" y="-287.5" font-family="Helvetica,sans-Serif" font-size="10.00">multi_arg.hpp</text>
</a>
</g>
</g>
<!-- Node2 -->
<g id="node2" class="node">
<title>Node2</title>
<g id="a_node2"><a xlink:href="arg_8hpp.html" target="_top" xlink:title=" ">
<polygon fill="none" stroke="black" points="263,-224.5 263,-243.5 316,-243.5 316,-224.5 263,-224.5"/>
<text text-anchor="middle" x="289.5" y="-231.5" font-family="Helvetica,sans-Serif" font-size="10.00">arg.hpp</text>
</a>
</g>
</g>
<!-- Node1&#45;&gt;Node2 -->
<g id="edge1" class="edge">
<title>Node1&#45;&gt;Node2</title>
<path fill="none" stroke="midnightblue" d="M289.5,-280.08C289.5,-273.01 289.5,-262.86 289.5,-253.99"/>
<polygon fill="midnightblue" stroke="midnightblue" points="293,-253.75 289.5,-243.75 286,-253.75 293,-253.75"/>
</g>
<!-- Node4 -->
<g id="node4" class="node">
<title>Node4</title>
<g id="a_node4"><a xlink:href="utils_8hpp.html" target="_top" xlink:title=" ">
<polygon fill="none" stroke="black" points="112,-112.5 112,-131.5 171,-131.5 171,-112.5 112,-112.5"/>
<text text-anchor="middle" x="141.5" y="-119.5" font-family="Helvetica,sans-Serif" font-size="10.00">utils.hpp</text>
</a>
</g>
</g>
<!-- Node1&#45;&gt;Node4 -->
<g id="edge31" class="edge">
<title>Node1&#45;&gt;Node4</title>
<path fill="none" stroke="midnightblue" d="M277.68,-280.29C256.08,-263.95 209.6,-226.85 178.5,-188 166.73,-173.3 156.42,-154.39 149.7,-140.76"/>
<polygon fill="midnightblue" stroke="midnightblue" points="152.75,-139.04 145.29,-131.53 146.44,-142.06 152.75,-139.04"/>
</g>
<!-- Node6 -->
<g id="node6" class="node">
<title>Node6</title>
<g id="a_node6"><a xlink:href="types_8hpp.html" target="_top" xlink:title=" ">
<polygon fill="none" stroke="black" points="333,-56.5 333,-75.5 398,-75.5 398,-56.5 333,-56.5"/>
<text text-anchor="middle" x="365.5" y="-63.5" font-family="Helvetica,sans-Serif" font-size="10.00">types.hpp</text>
</a>
</g>
</g>
<!-- Node1&#45;&gt;Node6 -->
<g id="edge32" class="edge">
<title>Node1&#45;&gt;Node6</title>
<path fill="none" stroke="midnightblue" d="M331.86,-285.52C370.9,-280.78 429.28,-269.69 473.5,-244 530.44,-210.92 548.98,-194.23 570.5,-132 573.41,-123.6 576.07,-118.93 570.5,-112 550.55,-87.19 462.32,-75.29 408.32,-70.23"/>
<polygon fill="midnightblue" stroke="midnightblue" points="408.61,-66.74 398.34,-69.33 407.98,-73.71 408.61,-66.74"/>
</g>
<!-- Node13 -->
<g id="node13" class="node">
<title>Node13</title>
<g id="a_node13"><a xlink:href="context_8hpp.html" target="_top" xlink:title=" ">
<polygon fill="none" stroke="black" points="41.5,-168.5 41.5,-187.5 115.5,-187.5 115.5,-168.5 41.5,-168.5"/>
<text text-anchor="middle" x="78.5" y="-175.5" font-family="Helvetica,sans-Serif" font-size="10.00">context.hpp</text>
</a>
</g>
</g>
<!-- Node1&#45;&gt;Node13 -->
<g id="edge28" class="edge">
<title>Node1&#45;&gt;Node13</title>
<path fill="none" stroke="midnightblue" d="M247.39,-284.47C213.25,-279.16 165.11,-267.83 129.5,-244 111.31,-231.83 96.69,-211.07 87.84,-196.29"/>
<polygon fill="midnightblue" stroke="midnightblue" points="90.87,-194.55 82.88,-187.59 84.79,-198.01 90.87,-194.55"/>
</g>
<!-- Node14 -->
<g id="node14" class="node">
<title>Node14</title>
<g id="a_node14"><a xlink:title=" ">
<polygon fill="none" stroke="#bfbfbf" points="0,-112.5 0,-131.5 45,-131.5 45,-112.5 0,-112.5"/>
<text text-anchor="middle" x="22.5" y="-119.5" font-family="Helvetica,sans-Serif" font-size="10.00">utility</text>
</a>
</g>
</g>
<!-- Node1&#45;&gt;Node14 -->
<g id="edge33" class="edge">
<title>Node1&#45;&gt;Node14</title>
<path fill="none" stroke="midnightblue" d="M247.49,-284.09C208.61,-278.34 149.96,-266.59 103.5,-244 67.36,-226.42 52.74,-222.72 32.5,-188 24.32,-173.98 22.15,-155.48 21.82,-141.8"/>
<polygon fill="midnightblue" stroke="midnightblue" points="25.32,-141.68 21.9,-131.65 18.33,-141.63 25.32,-141.68"/>
</g>
<!-- Node15 -->
<g id="node15" class="node">
<title>Node15</title>
<g id="a_node15"><a xlink:href="exceptions_8hpp.html" target="_top" xlink:title=" ">
<polygon fill="none" stroke="black" points="470,-112.5 470,-131.5 561,-131.5 561,-112.5 470,-112.5"/>
<text text-anchor="middle" x="515.5" y="-119.5" font-family="Helvetica,sans-Serif" font-size="10.00">exceptions.hpp</text>
</a>
</g>
</g>
<!-- Node1&#45;&gt;Node15 -->
<g id="edge29" class="edge">
<title>Node1&#45;&gt;Node15</title>
<path fill="none" stroke="midnightblue" d="M331.52,-282.57C382.77,-272.31 467.72,-246.99 509.5,-188 518.91,-174.72 519.65,-155.88 518.49,-141.9"/>
<polygon fill="midnightblue" stroke="midnightblue" points="521.95,-141.44 517.27,-131.93 515.01,-142.28 521.95,-141.44"/>
</g>
<!-- Node17 -->
<g id="node17" class="node">
<title>Node17</title>
<g id="a_node17"><a xlink:href="value__utils_8hpp.html" target="_top" xlink:title=" ">
<polygon fill="none" stroke="black" points="388,-168.5 388,-187.5 479,-187.5 479,-168.5 388,-168.5"/>
<text text-anchor="middle" x="433.5" y="-175.5" font-family="Helvetica,sans-Serif" font-size="10.00">value_utils.hpp</text>
</a>
</g>
</g>
<!-- Node1&#45;&gt;Node17 -->
<g id="edge30" class="edge">
<title>Node1&#45;&gt;Node17</title>
<path fill="none" stroke="midnightblue" d="M300.8,-280.37C325.3,-261.65 383.56,-217.15 414.08,-193.83"/>
<polygon fill="midnightblue" stroke="midnightblue" points="416.43,-196.44 422.25,-187.59 412.18,-190.88 416.43,-196.44"/>
</g>
<!-- Node3 -->
<g id="node3" class="node">
<title>Node3</title>
<g id="a_node3"><a xlink:href="arg__iface_8hpp.html" target="_top" xlink:title=" ">
<polygon fill="none" stroke="black" points="248,-168.5 248,-187.5 331,-187.5 331,-168.5 248,-168.5"/>
<text text-anchor="middle" x="289.5" y="-175.5" font-family="Helvetica,sans-Serif" font-size="10.00">arg_iface.hpp</text>
</a>
</g>
</g>
<!-- Node2&#45;&gt;Node3 -->
<g id="edge2" class="edge">
<title>Node2&#45;&gt;Node3</title>
<path fill="none" stroke="midnightblue" d="M289.5,-224.08C289.5,-217.01 289.5,-206.86 289.5,-197.99"/>
<polygon fill="midnightblue" stroke="midnightblue" points="293,-197.75 289.5,-187.75 286,-197.75 293,-197.75"/>
</g>
<!-- Node2&#45;&gt;Node4 -->
<g id="edge13" class="edge">
<title>Node2&#45;&gt;Node4</title>
<path fill="none" stroke="midnightblue" d="M269.49,-224.37C251.81,-216.28 225.77,-203.17 205.5,-188 186.39,-173.7 167.6,-153.71 155.37,-139.68"/>
<polygon fill="midnightblue" stroke="midnightblue" points="157.82,-137.16 148.67,-131.82 152.5,-141.7 157.82,-137.16"/>
</g>
<!-- Node2&#45;&gt;Node6 -->
<g id="edge26" class="edge">
<title>Node2&#45;&gt;Node6</title>
<path fill="none" stroke="midnightblue" d="M303.45,-224.44C315.2,-216.48 331.49,-203.52 340.5,-188 359.37,-155.49 364.12,-110.78 365.24,-85.82"/>
<polygon fill="midnightblue" stroke="midnightblue" points="368.74,-85.67 365.54,-75.57 361.75,-85.46 368.74,-85.67"/>
</g>
<!-- Node10 -->
<g id="node10" class="node">
<title>Node10</title>
<g id="a_node10"><a xlink:title=" ">
<polygon fill="none" stroke="#bfbfbf" points="181.5,-56.5 181.5,-75.5 245.5,-75.5 245.5,-56.5 181.5,-56.5"/>
<text text-anchor="middle" x="213.5" y="-63.5" font-family="Helvetica,sans-Serif" font-size="10.00">algorithm</text>
</a>
</g>
</g>
<!-- Node2&#45;&gt;Node10 -->
<g id="edge27" class="edge">
<title>Node2&#45;&gt;Node10</title>
<path fill="none" stroke="midnightblue" d="M276.78,-224.38C265.57,-216.19 249.51,-202.94 239.5,-188 218.44,-156.58 214.05,-111.16 213.36,-85.84"/>
<polygon fill="midnightblue" stroke="midnightblue" points="216.86,-85.72 213.26,-75.75 209.86,-85.79 216.86,-85.72"/>
</g>
<!-- Node2&#45;&gt;Node13 -->
<g id="edge14" class="edge">
<title>Node2&#45;&gt;Node13</title>
<path fill="none" stroke="midnightblue" d="M262.78,-226.16C227.26,-217.07 164.05,-200.9 121.71,-190.06"/>
<polygon fill="midnightblue" stroke="midnightblue" points="122.51,-186.65 111.95,-187.56 120.77,-193.43 122.51,-186.65"/>
</g>
<!-- Node2&#45;&gt;Node15 -->
<g id="edge18" class="edge">
<title>Node2&#45;&gt;Node15</title>
<path fill="none" stroke="midnightblue" d="M316.09,-230.03C364.07,-224.19 462.55,-209.84 488.5,-188 502.36,-176.34 509.22,-156.39 512.54,-141.66"/>
<polygon fill="midnightblue" stroke="midnightblue" points="516.02,-142.12 514.45,-131.64 509.14,-140.81 516.02,-142.12"/>
</g>
<!-- Node2&#45;&gt;Node17 -->
<g id="edge21" class="edge">
<title>Node2&#45;&gt;Node17</title>
<path fill="none" stroke="midnightblue" d="M312.32,-224.44C336.33,-215.44 374.33,-201.19 401.37,-191.05"/>
<polygon fill="midnightblue" stroke="midnightblue" points="402.66,-194.3 410.79,-187.52 400.2,-187.75 402.66,-194.3"/>
</g>
<!-- Node3&#45;&gt;Node4 -->
<g id="edge3" class="edge">
<title>Node3&#45;&gt;Node4</title>
<path fill="none" stroke="midnightblue" d="M266.05,-168.44C241.37,-159.44 202.31,-145.19 174.52,-135.05"/>
<polygon fill="midnightblue" stroke="midnightblue" points="175.44,-131.66 164.84,-131.52 173.04,-138.23 175.44,-131.66"/>
</g>
<!-- Node3&#45;&gt;Node6 -->
<g id="edge11" class="edge">
<title>Node3&#45;&gt;Node6</title>
<path fill="none" stroke="midnightblue" d="M295.46,-168.37C308.01,-150.22 337.31,-107.8 353.76,-83.99"/>
<polygon fill="midnightblue" stroke="midnightblue" points="356.76,-85.81 359.56,-75.59 351,-81.83 356.76,-85.81"/>
</g>
<!-- Node12 -->
<g id="node12" class="node">
<title>Node12</title>
<g id="a_node12"><a xlink:href="enums_8hpp.html" target="_top" xlink:title=" ">
<polygon fill="none" stroke="black" points="228,-112.5 228,-131.5 299,-131.5 299,-112.5 228,-112.5"/>
<text text-anchor="middle" x="263.5" y="-119.5" font-family="Helvetica,sans-Serif" font-size="10.00">enums.hpp</text>
</a>
</g>
</g>
<!-- Node3&#45;&gt;Node12 -->
<g id="edge12" class="edge">
<title>Node3&#45;&gt;Node12</title>
<path fill="none" stroke="midnightblue" d="M285.21,-168.08C281.65,-160.69 276.48,-149.95 272.08,-140.81"/>
<polygon fill="midnightblue" stroke="midnightblue" points="275.21,-139.24 267.71,-131.75 268.9,-142.28 275.21,-139.24"/>
</g>
<!-- Node5 -->
<g id="node5" class="node">
<title>Node5</title>
<g id="a_node5"><a xlink:title=" ">
<polygon fill="none" stroke="#bfbfbf" points="119.5,-56.5 119.5,-75.5 163.5,-75.5 163.5,-56.5 119.5,-56.5"/>
<text text-anchor="middle" x="141.5" y="-63.5" font-family="Helvetica,sans-Serif" font-size="10.00">regex</text>
</a>
</g>
</g>
<!-- Node4&#45;&gt;Node5 -->
<g id="edge4" class="edge">
<title>Node4&#45;&gt;Node5</title>
<path fill="none" stroke="midnightblue" d="M141.5,-112.08C141.5,-105.01 141.5,-94.86 141.5,-85.99"/>
<polygon fill="midnightblue" stroke="midnightblue" points="145,-85.75 141.5,-75.75 138,-85.75 145,-85.75"/>
</g>
<!-- Node4&#45;&gt;Node6 -->
<g id="edge5" class="edge">
<title>Node4&#45;&gt;Node6</title>
<path fill="none" stroke="midnightblue" d="M171.25,-113.83C210.11,-104.46 278.42,-87.99 322.81,-77.29"/>
<polygon fill="midnightblue" stroke="midnightblue" points="323.82,-80.65 332.72,-74.9 322.18,-73.84 323.82,-80.65"/>
</g>
<!-- Node4&#45;&gt;Node10 -->
<g id="edge9" class="edge">
<title>Node4&#45;&gt;Node10</title>
<path fill="none" stroke="midnightblue" d="M153.07,-112.32C163.92,-104.18 180.38,-91.84 193.38,-82.09"/>
<polygon fill="midnightblue" stroke="midnightblue" points="195.82,-84.63 201.72,-75.83 191.62,-79.03 195.82,-84.63"/>
</g>
<!-- Node11 -->
<g id="node11" class="node">
<title>Node11</title>
<g id="a_node11"><a xlink:title=" ">
<polygon fill="none" stroke="#bfbfbf" points="32,-56.5 32,-75.5 101,-75.5 101,-56.5 32,-56.5"/>
<text text-anchor="middle" x="66.5" y="-63.5" font-family="Helvetica,sans-Serif" font-size="10.00">type_traits</text>
</a>
</g>
</g>
<!-- Node4&#45;&gt;Node11 -->
<g id="edge10" class="edge">
<title>Node4&#45;&gt;Node11</title>
<path fill="none" stroke="midnightblue" d="M129.45,-112.32C118.04,-104.11 100.67,-91.6 87.07,-81.81"/>
<polygon fill="midnightblue" stroke="midnightblue" points="88.93,-78.84 78.77,-75.83 84.84,-84.52 88.93,-78.84"/>
</g>
<!-- Node7 -->
<g id="node7" class="node">
<title>Node7</title>
<g id="a_node7"><a xlink:title=" ">
<polygon fill="none" stroke="#bfbfbf" points="273.5,-0.5 273.5,-19.5 317.5,-19.5 317.5,-0.5 273.5,-0.5"/>
<text text-anchor="middle" x="295.5" y="-7.5" font-family="Helvetica,sans-Serif" font-size="10.00">string</text>
</a>
</g>
</g>
<!-- Node6&#45;&gt;Node7 -->
<g id="edge6" class="edge">
<title>Node6&#45;&gt;Node7</title>
<path fill="none" stroke="midnightblue" d="M354.25,-56.32C343.7,-48.18 327.7,-35.84 315.06,-26.09"/>
<polygon fill="midnightblue" stroke="midnightblue" points="317.01,-23.17 306.95,-19.83 312.73,-28.71 317.01,-23.17"/>
</g>
<!-- Node8 -->
<g id="node8" class="node">
<title>Node8</title>
<g id="a_node8"><a xlink:title=" ">
<polygon fill="none" stroke="#bfbfbf" points="335.5,-0.5 335.5,-19.5 395.5,-19.5 395.5,-0.5 335.5,-0.5"/>
<text text-anchor="middle" x="365.5" y="-7.5" font-family="Helvetica,sans-Serif" font-size="10.00">iostream</text>
</a>
</g>
</g>
<!-- Node6&#45;&gt;Node8 -->
<g id="edge7" class="edge">
<title>Node6&#45;&gt;Node8</title>
<path fill="none" stroke="midnightblue" d="M365.5,-56.08C365.5,-49.01 365.5,-38.86 365.5,-29.99"/>
<polygon fill="midnightblue" stroke="midnightblue" points="369,-29.75 365.5,-19.75 362,-29.75 369,-29.75"/>
</g>
<!-- Node9 -->
<g id="node9" class="node">
<title>Node9</title>
<g id="a_node9"><a xlink:title=" ">
<polygon fill="none" stroke="#bfbfbf" points="414,-0.5 414,-19.5 461,-19.5 461,-0.5 414,-0.5"/>
<text text-anchor="middle" x="437.5" y="-7.5" font-family="Helvetica,sans-Serif" font-size="10.00">vector</text>
</a>
</g>
</g>
<!-- Node6&#45;&gt;Node9 -->
<g id="edge8" class="edge">
<title>Node6&#45;&gt;Node9</title>
<path fill="none" stroke="midnightblue" d="M377.07,-56.32C387.92,-48.18 404.38,-35.84 417.38,-26.09"/>
<polygon fill="midnightblue" stroke="midnightblue" points="419.82,-28.63 425.72,-19.83 415.62,-23.03 419.82,-28.63"/>
</g>
<!-- Node13&#45;&gt;Node4 -->
<g id="edge16" class="edge">
<title>Node13&#45;&gt;Node4</title>
<path fill="none" stroke="midnightblue" d="M88.62,-168.32C98.03,-160.26 112.24,-148.08 123.57,-138.37"/>
<polygon fill="midnightblue" stroke="midnightblue" points="125.88,-141 131.19,-131.83 121.32,-135.68 125.88,-141"/>
</g>
<!-- Node13&#45;&gt;Node6 -->
<g id="edge17" class="edge">
<title>Node13&#45;&gt;Node6</title>
<path fill="none" stroke="midnightblue" d="M79.04,-168.29C80.42,-154.13 85.29,-126.3 102.5,-112 119.19,-98.13 252.35,-80.46 322.54,-71.98"/>
<polygon fill="midnightblue" stroke="midnightblue" points="323.31,-75.41 332.83,-70.75 322.48,-68.46 323.31,-75.41"/>
</g>
<!-- Node13&#45;&gt;Node14 -->
<g id="edge15" class="edge">
<title>Node13&#45;&gt;Node14</title>
<path fill="none" stroke="midnightblue" d="M69.5,-168.32C61.31,-160.42 48.99,-148.55 39.03,-138.94"/>
<polygon fill="midnightblue" stroke="midnightblue" points="41.29,-136.26 31.66,-131.83 36.43,-141.29 41.29,-136.26"/>
</g>
<!-- Node15&#45;&gt;Node6 -->
<g id="edge20" class="edge">
<title>Node15&#45;&gt;Node6</title>
<path fill="none" stroke="midnightblue" d="M491.73,-112.44C466.61,-103.4 426.79,-89.06 398.6,-78.92"/>
<polygon fill="midnightblue" stroke="midnightblue" points="399.75,-75.61 389.16,-75.52 397.38,-82.2 399.75,-75.61"/>
</g>
<!-- Node16 -->
<g id="node16" class="node">
<title>Node16</title>
<g id="a_node16"><a xlink:title=" ">
<polygon fill="none" stroke="#bfbfbf" points="483,-56.5 483,-75.5 548,-75.5 548,-56.5 483,-56.5"/>
<text text-anchor="middle" x="515.5" y="-63.5" font-family="Helvetica,sans-Serif" font-size="10.00">stdexcept</text>
</a>
</g>
</g>
<!-- Node15&#45;&gt;Node16 -->
<g id="edge19" class="edge">
<title>Node15&#45;&gt;Node16</title>
<path fill="none" stroke="midnightblue" d="M515.5,-112.08C515.5,-105.01 515.5,-94.86 515.5,-85.99"/>
<polygon fill="midnightblue" stroke="midnightblue" points="519,-85.75 515.5,-75.75 512,-85.75 519,-85.75"/>
</g>
<!-- Node17&#45;&gt;Node4 -->
<g id="edge22" class="edge">
<title>Node17&#45;&gt;Node4</title>
<path fill="none" stroke="midnightblue" d="M387.88,-168.56C331.07,-158.06 234.96,-140.28 181.1,-130.32"/>
<polygon fill="midnightblue" stroke="midnightblue" points="181.71,-126.88 171.24,-128.5 180.44,-133.76 181.71,-126.88"/>
</g>
<!-- Node17&#45;&gt;Node6 -->
<g id="edge24" class="edge">
<title>Node17&#45;&gt;Node6</title>
<path fill="none" stroke="midnightblue" d="M433.03,-168.37C431.97,-155.28 428.54,-130.04 417.5,-112 410.1,-99.91 398.37,-89.35 387.93,-81.51"/>
<polygon fill="midnightblue" stroke="midnightblue" points="389.76,-78.52 379.58,-75.58 385.71,-84.23 389.76,-78.52"/>
</g>
<!-- Node17&#45;&gt;Node10 -->
<g id="edge25" class="edge">
<title>Node17&#45;&gt;Node10</title>
<path fill="none" stroke="midnightblue" d="M417.42,-168.39C393.71,-155.76 347.93,-131.58 308.5,-112 286.09,-100.87 260.44,-88.76 241.44,-79.9"/>
<polygon fill="midnightblue" stroke="midnightblue" points="242.71,-76.63 232.17,-75.59 239.76,-82.98 242.71,-76.63"/>
</g>
<!-- Node17&#45;&gt;Node15 -->
<g id="edge23" class="edge">
<title>Node17&#45;&gt;Node15</title>
<path fill="none" stroke="midnightblue" d="M446.67,-168.32C459.35,-159.98 478.73,-147.21 493.71,-137.35"/>
<polygon fill="midnightblue" stroke="midnightblue" points="495.93,-140.08 502.36,-131.65 492.08,-134.23 495.93,-140.08"/>
</g>
</g>
</svg>
        <g id="navigator" transform="translate(0 0)" fill="#404254">
                <rect fill="#f2f5e9" fill-opacity="0.5" stroke="#606060" stroke-width=".5" x="0" y="0" width="60" height="60"/>
                <use id="zoomplus" xlink:href="#zoomPlus" x="17" y="9" onmousedown="handleZoom(evt,'in')"/>
                <use id="zoomminus" xlink:href="#zoomMin" x="42" y="9" onmousedown="handleZoom(evt,'out')"/>
                <use id="reset" xlink:href="#resetDef" x="30" y="36" onmousedown="handleReset()"/>
                <g id="arrowUp" xlink:href="#dirArrow" transform="translate(30 24)" onmousedown="handlePan(0,-1)">
                  <use xlink:href="#rim" fill="#404040">
                        <set attributeName="fill" to="#808080" begin="arrowUp.mouseover" end="arrowUp.mouseout"/>
                  </use>
                  <path fill="none" stroke="white" stroke-width="1.5" d="M0,-3.0v7 M-2.5,-0.5L0,-3.0L2.5,-0.5"/>
                </g>
                <g id="arrowRight" xlink:href="#dirArrow" transform="rotate(90) translate(36 -43)" onmousedown="handlePan(1,0)">
                  <use xlink:href="#rim" fill="#404040">
                        <set attributeName="fill" to="#808080" begin="arrowRight.mouseover" end="arrowRight.mouseout"/>
                  </use>
                  <path fill="none" stroke="white" stroke-width="1.5" d="M0,-3.0v7 M-2.5,-0.5L0,-3.0L2.5,-0.5"/>
                </g>
                <g id="arrowDown" xlink:href="#dirArrow" transform="rotate(180) translate(-30 -48)" onmousedown="handlePan(0,1)">
                  <use xlink:href="#rim" fill="#404040">
                        <set attributeName="fill" to="#808080" begin="arrowDown.mouseover" end="arrowDown.mouseout"/>
                  </use>
                  <path fill="none" stroke="white" stroke-width="1.5" d="M0,-3.0v7 M-2.5,-0.5L0,-3.0L2.5,-0.5"/>
                </g>
                <g id="arrowLeft" xlink:href="#dirArrow" transform="rotate(270) translate(-36 17)" onmousedown="handlePan(-1,0)">
                  <use xlink:href="#rim" fill="#404040">
                        <set attributeName="fill" to="#808080" begin="arrowLeft.mouseover" end="arrowLeft.mouseout"/>
                  </use>
                  <path fill="none" stroke="white" stroke-width="1.5" d="M0,-3.0v7 M-2.5,-0.5L0,-3.0L2.5,-0.5"/>
                </g>
        </g>
        <svg viewBox="0 0 15 15" width="100%" height="30px" preserveAspectRatio="xMaxYMin meet">
         <g id="arrow_out" transform="scale(0.3 0.3)">
          <a xlink:href="multi__arg_8hpp__incl_org.svg" target="_base">
           <rect id="button" ry="5" rx="5" y="6" x="6" height="38" width="38"
                fill="#f2f5e9" fill-opacity="0.5" stroke="#606060" stroke-width="1.0"/>
           <path id="arrow"
             d="M 11.500037,31.436501 C 11.940474,20.09759 22.043105,11.32322 32.158766,21.979434 L 37.068811,17.246167 C 37.068811,17.246167 37.088388,32 37.088388,32 L 22.160133,31.978069 C 22.160133,31.978069 26.997745,27.140456 26.997745,27.140456 C 18.528582,18.264221 13.291696,25.230495 11.500037,31.436501 z"
             style="fill:#404040;"/>
          </a>
         </g>
        </svg>
</svg>
