<?xml version="1.0" encoding="UTF-8" standalone="no"?>
<!DOCTYPE svg PUBLIC "-//W3C//DTD SVG 1.1//EN"
 "http://www.w3.org/Graphics/SVG/1.1/DTD/svg11.dtd">
<!-- Generated by graphviz version 2.38.0 (20140413.2041)
 -->
<!-- Title: types.hpp Pages: 1 -->
<svg width="1344pt" height="420pt"
 viewBox="0.00 0.00 1344.00 420.00" xmlns="http://www.w3.org/2000/svg" xmlns:xlink="http://www.w3.org/1999/xlink">
<g id="graph0" class="graph" transform="scale(1 1) rotate(0) translate(4 416)">
<title>types.hpp</title>
<!-- Node1 -->
<g id="node1" class="node"><title>Node1</title>
<polygon fill="#bfbfbf" stroke="black" points="813.5,-392.5 813.5,-411.5 870.5,-411.5 870.5,-392.5 813.5,-392.5"/>
<text text-anchor="middle" x="842" y="-399.5" font-family="FreeSans" font-size="10.00">types.hpp</text>
</g>
<!-- Node2 -->
<g id="node2" class="node"><title>Node2</title>
<g id="a_node2"><a xlink:href="api_8hpp.html" target="_top" xlink:title="api.hpp">
<polygon fill="none" stroke="black" points="976.5,-112.5 976.5,-131.5 1023.5,-131.5 1023.5,-112.5 976.5,-112.5"/>
<text text-anchor="middle" x="1000" y="-119.5" font-family="FreeSans" font-size="10.00">api.hpp</text>
</a>
</g>
</g>
<!-- Node1&#45;&gt;Node2 -->
<g id="edge1" class="edge"><title>Node1&#45;&gt;Node2</title>
<path fill="none" stroke="midnightblue" d="M880.934,-398.216C942.269,-393.136 1057.74,-380.55 1090,-356 1118.53,-334.292 1125.24,-314.887 1117,-280 1101.15,-212.84 1036.87,-153.47 1010.93,-131.766"/>
<polygon fill="midnightblue" stroke="midnightblue" points="880.548,-394.735 870.86,-399.023 881.107,-401.713 880.548,-394.735"/>
</g>
<!-- Node4 -->
<g id="node4" class="node"><title>Node4</title>
<g id="a_node4"><a xlink:href="all_8hpp.html" target="_top" xlink:title="all.hpp">
<polygon fill="none" stroke="black" points="189,-0.5 189,-19.5 233,-19.5 233,-0.5 189,-0.5"/>
<text text-anchor="middle" x="211" y="-7.5" font-family="FreeSans" font-size="10.00">all.hpp</text>
</a>
</g>
</g>
<!-- Node1&#45;&gt;Node4 -->
<g id="edge65" class="edge"><title>Node1&#45;&gt;Node4</title>
<path fill="none" stroke="midnightblue" d="M802.879,-400.322C654.94,-397.543 134.633,-385.728 67,-356 29.0187,-339.306 0,-332.488 0,-291 0,-291 0,-291 0,-121 0,-36.5189 134.645,-16.8157 188.818,-12.3071"/>
<polygon fill="midnightblue" stroke="midnightblue" points="803.21,-403.829 813.273,-400.514 803.34,-396.83 803.21,-403.829"/>
</g>
<!-- Node5 -->
<g id="node5" class="node"><title>Node5</title>
<g id="a_node5"><a xlink:href="arg__as__command_8hpp.html" target="_top" xlink:title="arg_as_command.hpp">
<polygon fill="none" stroke="black" points="1016.5,-0.5 1016.5,-19.5 1127.5,-19.5 1127.5,-0.5 1016.5,-0.5"/>
<text text-anchor="middle" x="1072" y="-7.5" font-family="FreeSans" font-size="10.00">arg_as_command.hpp</text>
</a>
</g>
</g>
<!-- Node1&#45;&gt;Node5 -->
<g id="edge61" class="edge"><title>Node1&#45;&gt;Node5</title>
<path fill="none" stroke="midnightblue" d="M880.953,-400.619C997.586,-398.437 1336,-384.086 1336,-291 1336,-291 1336,-291 1336,-121 1336,-31.5009 1205.12,-13.5012 1127.67,-10.6852"/>
<polygon fill="midnightblue" stroke="midnightblue" points="880.635,-397.124 870.695,-400.79 880.752,-404.123 880.635,-397.124"/>
</g>
<!-- Node6 -->
<g id="node6" class="node"><title>Node6</title>
<g id="a_node6"><a xlink:href="utils_8hpp.html" target="_top" xlink:title="utils.hpp">
<polygon fill="none" stroke="black" points="512,-336.5 512,-355.5 564,-355.5 564,-336.5 512,-336.5"/>
<text text-anchor="middle" x="538" y="-343.5" font-family="FreeSans" font-size="10.00">utils.hpp</text>
</a>
</g>
</g>
<!-- Node1&#45;&gt;Node6 -->
<g id="edge6" class="edge"><title>Node1&#45;&gt;Node6</title>
<path fill="none" stroke="midnightblue" d="M803.491,-394.16C740.678,-383.002 617.802,-361.175 564.131,-351.642"/>
<polygon fill="midnightblue" stroke="midnightblue" points="802.942,-397.617 813.4,-395.92 804.167,-390.725 802.942,-397.617"/>
</g>
<!-- Node7 -->
<g id="node7" class="node"><title>Node7</title>
<g id="a_node7"><a xlink:href="arg__iface_8hpp.html" target="_top" xlink:title="arg_iface.hpp">
<polygon fill="none" stroke="black" points="968,-280.5 968,-299.5 1042,-299.5 1042,-280.5 968,-280.5"/>
<text text-anchor="middle" x="1005" y="-287.5" font-family="FreeSans" font-size="10.00">arg_iface.hpp</text>
</a>
</g>
</g>
<!-- Node1&#45;&gt;Node7 -->
<g id="edge45" class="edge"><title>Node1&#45;&gt;Node7</title>
<path fill="none" stroke="midnightblue" d="M863.609,-386.822C877.002,-378.005 894.541,-366.403 910,-356 939.678,-336.029 974.299,-312.207 992.441,-299.684"/>
<polygon fill="midnightblue" stroke="midnightblue" points="861.509,-384.014 855.076,-392.433 865.354,-389.863 861.509,-384.014"/>
</g>
<!-- Node8 -->
<g id="node8" class="node"><title>Node8</title>
<g id="a_node8"><a xlink:href="arg_8hpp.html" target="_top" xlink:title="arg.hpp">
<polygon fill="none" stroke="black" points="946,-224.5 946,-243.5 994,-243.5 994,-224.5 946,-224.5"/>
<text text-anchor="middle" x="970" y="-231.5" font-family="FreeSans" font-size="10.00">arg.hpp</text>
</a>
</g>
</g>
<!-- Node1&#45;&gt;Node8 -->
<g id="edge57" class="edge"><title>Node1&#45;&gt;Node8</title>
<path fill="none" stroke="midnightblue" d="M880.872,-396.411C933.736,-387.85 1026.46,-364.061 1068,-300 1088.38,-268.566 1029.19,-248.799 994.032,-240.124"/>
<polygon fill="midnightblue" stroke="midnightblue" points="880.221,-392.97 870.858,-397.928 881.269,-399.891 880.221,-392.97"/>
</g>
<!-- Node9 -->
<g id="node9" class="node"><title>Node9</title>
<g id="a_node9"><a xlink:href="multi__arg_8hpp.html" target="_top" xlink:title="multi_arg.hpp">
<polygon fill="none" stroke="black" points="931,-168.5 931,-187.5 1005,-187.5 1005,-168.5 931,-168.5"/>
<text text-anchor="middle" x="968" y="-175.5" font-family="FreeSans" font-size="10.00">multi_arg.hpp</text>
</a>
</g>
</g>
<!-- Node1&#45;&gt;Node9 -->
<g id="edge58" class="edge"><title>Node1&#45;&gt;Node9</title>
<path fill="none" stroke="midnightblue" d="M880.749,-396.85C936.4,-390.284 1035.51,-376.144 1065,-356 1089.43,-339.311 1092.66,-328.389 1101,-300 1117.76,-242.943 1035.93,-203.8 992.956,-187.505"/>
<polygon fill="midnightblue" stroke="midnightblue" points="880.094,-393.403 870.561,-398.025 880.896,-400.357 880.094,-393.403"/>
</g>
<!-- Node10 -->
<g id="node10" class="node"><title>Node10</title>
<g id="a_node10"><a xlink:href="help_8hpp.html" target="_top" xlink:title="help.hpp">
<polygon fill="none" stroke="black" points="394.5,-168.5 394.5,-187.5 447.5,-187.5 447.5,-168.5 394.5,-168.5"/>
<text text-anchor="middle" x="421" y="-175.5" font-family="FreeSans" font-size="10.00">help.hpp</text>
</a>
</g>
</g>
<!-- Node1&#45;&gt;Node10 -->
<g id="edge63" class="edge"><title>Node1&#45;&gt;Node10</title>
<path fill="none" stroke="midnightblue" d="M802.994,-400.1C653.509,-396.466 124.294,-381.812 100,-356 5.35154,-255.438 301.807,-198.182 394.33,-183.07"/>
<polygon fill="midnightblue" stroke="midnightblue" points="803.007,-403.602 813.088,-400.343 803.175,-396.604 803.007,-403.602"/>
</g>
<!-- Node11 -->
<g id="node11" class="node"><title>Node11</title>
<g id="a_node11"><a xlink:href="group__iface_8hpp.html" target="_top" xlink:title="group_iface.hpp">
<polygon fill="none" stroke="black" points="690.5,-224.5 690.5,-243.5 775.5,-243.5 775.5,-224.5 690.5,-224.5"/>
<text text-anchor="middle" x="733" y="-231.5" font-family="FreeSans" font-size="10.00">group_iface.hpp</text>
</a>
</g>
</g>
<!-- Node1&#45;&gt;Node11 -->
<g id="edge59" class="edge"><title>Node1&#45;&gt;Node11</title>
<path fill="none" stroke="midnightblue" d="M811.044,-388.275C778.116,-372.847 727.83,-343.403 706,-300 696.117,-280.35 713.48,-256.198 724.661,-243.589"/>
<polygon fill="midnightblue" stroke="midnightblue" points="809.69,-391.503 820.244,-392.433 812.574,-385.125 809.69,-391.503"/>
</g>
<!-- Node12 -->
<g id="node12" class="node"><title>Node12</title>
<g id="a_node12"><a xlink:href="groups_8hpp.html" target="_top" xlink:title="groups.hpp">
<polygon fill="none" stroke="black" points="849.5,-168.5 849.5,-187.5 912.5,-187.5 912.5,-168.5 849.5,-168.5"/>
<text text-anchor="middle" x="881" y="-175.5" font-family="FreeSans" font-size="10.00">groups.hpp</text>
</a>
</g>
</g>
<!-- Node1&#45;&gt;Node12 -->
<g id="edge60" class="edge"><title>Node1&#45;&gt;Node12</title>
<path fill="none" stroke="midnightblue" d="M881.229,-400.156C941.874,-396.356 1054.58,-378.576 1085,-300 1102.94,-253.661 1047.16,-246.782 1003,-224 972.605,-208.319 935.458,-195.438 910.196,-187.535"/>
<polygon fill="midnightblue" stroke="midnightblue" points="880.7,-396.679 870.898,-400.699 881.068,-403.669 880.7,-396.679"/>
</g>
<!-- Node13 -->
<g id="node13" class="node"><title>Node13</title>
<g id="a_node13"><a xlink:href="help__printer_8hpp.html" target="_top" xlink:title="help_printer.hpp">
<polygon fill="none" stroke="black" points="478.5,-112.5 478.5,-131.5 563.5,-131.5 563.5,-112.5 478.5,-112.5"/>
<text text-anchor="middle" x="521" y="-119.5" font-family="FreeSans" font-size="10.00">help_printer.hpp</text>
</a>
</g>
</g>
<!-- Node1&#45;&gt;Node13 -->
<g id="edge64" class="edge"><title>Node1&#45;&gt;Node13</title>
<path fill="none" stroke="midnightblue" d="M802.992,-400.224C686.24,-397.005 343.406,-380.721 275,-300 236.68,-254.782 217.758,-213.284 256,-168 283.964,-134.887 410.863,-126.136 478.403,-123.826"/>
<polygon fill="midnightblue" stroke="midnightblue" points="803.163,-403.73 813.25,-400.489 803.344,-396.732 803.163,-403.73"/>
</g>
<!-- Node14 -->
<g id="node14" class="node"><title>Node14</title>
<g id="a_node14"><a xlink:href="command_8hpp.html" target="_top" xlink:title="command.hpp">
<polygon fill="none" stroke="black" points="265.5,-168.5 265.5,-187.5 342.5,-187.5 342.5,-168.5 265.5,-168.5"/>
<text text-anchor="middle" x="304" y="-175.5" font-family="FreeSans" font-size="10.00">command.hpp</text>
</a>
</g>
</g>
<!-- Node1&#45;&gt;Node14 -->
<g id="edge62" class="edge"><title>Node1&#45;&gt;Node14</title>
<path fill="none" stroke="midnightblue" d="M803.114,-400.158C651.603,-396.691 107.922,-382.443 83,-356 59.8331,-331.419 67.5803,-310.053 83,-280 117.471,-212.816 211.785,-190.205 265.402,-182.681"/>
<polygon fill="midnightblue" stroke="midnightblue" points="803.256,-403.662 813.333,-400.389 803.415,-396.664 803.256,-403.662"/>
</g>
<!-- Node15 -->
<g id="node15" class="node"><title>Node15</title>
<g id="a_node15"><a xlink:href="context_8hpp.html" target="_top" xlink:title="context.hpp">
<polygon fill="none" stroke="black" points="298,-280.5 298,-299.5 364,-299.5 364,-280.5 298,-280.5"/>
<text text-anchor="middle" x="331" y="-287.5" font-family="FreeSans" font-size="10.00">context.hpp</text>
</a>
</g>
</g>
<!-- Node1&#45;&gt;Node15 -->
<g id="edge46" class="edge"><title>Node1&#45;&gt;Node15</title>
<path fill="none" stroke="midnightblue" d="M803.105,-398.744C739.511,-394.41 609.673,-382.857 503,-356 445.421,-341.503 380.714,-313.759 349.632,-299.67"/>
<polygon fill="midnightblue" stroke="midnightblue" points="803.251,-402.261 813.46,-399.425 803.711,-395.276 803.251,-402.261"/>
</g>
<!-- Node16 -->
<g id="node16" class="node"><title>Node16</title>
<g id="a_node16"><a xlink:href="value__utils_8hpp.html" target="_top" xlink:title="value_utils.hpp">
<polygon fill="none" stroke="black" points="870,-280.5 870,-299.5 950,-299.5 950,-280.5 870,-280.5"/>
<text text-anchor="middle" x="910" y="-287.5" font-family="FreeSans" font-size="10.00">value_utils.hpp</text>
</a>
</g>
</g>
<!-- Node1&#45;&gt;Node16 -->
<g id="edge56" class="edge"><title>Node1&#45;&gt;Node16</title>
<path fill="none" stroke="midnightblue" d="M862.818,-386.182C872.625,-378.237 883.737,-367.684 891,-356 902.296,-337.827 907.134,-312.641 908.987,-299.598"/>
<polygon fill="midnightblue" stroke="midnightblue" points="860.456,-383.583 854.666,-392.456 864.725,-389.131 860.456,-383.583"/>
</g>
<!-- Node18 -->
<g id="node18" class="node"><title>Node18</title>
<g id="a_node18"><a xlink:href="exceptions_8hpp.html" target="_top" xlink:title="exceptions.hpp">
<polygon fill="none" stroke="black" points="802,-336.5 802,-355.5 882,-355.5 882,-336.5 802,-336.5"/>
<text text-anchor="middle" x="842" y="-343.5" font-family="FreeSans" font-size="10.00">exceptions.hpp</text>
</a>
</g>
</g>
<!-- Node1&#45;&gt;Node18 -->
<g id="edge47" class="edge"><title>Node1&#45;&gt;Node18</title>
<path fill="none" stroke="midnightblue" d="M842,-381.805C842,-372.91 842,-362.78 842,-355.751"/>
<polygon fill="midnightblue" stroke="midnightblue" points="838.5,-382.083 842,-392.083 845.5,-382.083 838.5,-382.083"/>
</g>
<!-- Node3 -->
<g id="node3" class="node"><title>Node3</title>
<g id="a_node3"><a xlink:href="cmd__line_8hpp.html" target="_top" xlink:title="cmd_line.hpp">
<polygon fill="none" stroke="black" points="384,-56.5 384,-75.5 458,-75.5 458,-56.5 384,-56.5"/>
<text text-anchor="middle" x="421" y="-63.5" font-family="FreeSans" font-size="10.00">cmd_line.hpp</text>
</a>
</g>
</g>
<!-- Node2&#45;&gt;Node3 -->
<g id="edge2" class="edge"><title>Node2&#45;&gt;Node3</title>
<path fill="none" stroke="midnightblue" d="M966.229,-117.85C864.864,-108.397 563.731,-80.3117 458.112,-70.4612"/>
<polygon fill="midnightblue" stroke="midnightblue" points="965.941,-121.339 976.223,-118.782 966.591,-114.369 965.941,-121.339"/>
</g>
<!-- Node3&#45;&gt;Node4 -->
<g id="edge3" class="edge"><title>Node3&#45;&gt;Node4</title>
<path fill="none" stroke="midnightblue" d="M377.886,-53.9135C333.919,-42.6077 267.441,-25.5134 233.168,-16.7003"/>
<polygon fill="midnightblue" stroke="midnightblue" points="377.168,-57.3428 387.725,-56.4435 378.912,-50.5633 377.168,-57.3428"/>
</g>
<!-- Node3&#45;&gt;Node5 -->
<g id="edge4" class="edge"><title>Node3&#45;&gt;Node5</title>
<path fill="none" stroke="midnightblue" d="M468.462,-61.063C586.017,-51.312 890.264,-26.0749 1016.18,-15.6306"/>
<polygon fill="midnightblue" stroke="midnightblue" points="468.015,-57.588 458.339,-61.9028 468.594,-64.5641 468.015,-57.588"/>
</g>
<!-- Node5&#45;&gt;Node2 -->
<g id="edge5" class="edge"><title>Node5&#45;&gt;Node2</title>
<path fill="none" stroke="midnightblue" d="M1060.88,-27.9902C1045.29,-51.8015 1017.53,-94.2153 1005.65,-112.368"/>
<polygon fill="midnightblue" stroke="midnightblue" points="1063.83,-29.8753 1066.38,-19.5914 1057.97,-26.0416 1063.83,-29.8753"/>
</g>
<!-- Node6&#45;&gt;Node3 -->
<g id="edge38" class="edge"><title>Node6&#45;&gt;Node3</title>
<path fill="none" stroke="midnightblue" d="M501.892,-343.581C437.702,-340.31 307.419,-330.059 275,-300 213.659,-243.125 217.515,-162.767 284,-112 313.349,-89.5896 354.358,-78.0648 383.848,-72.3214"/>
<polygon fill="midnightblue" stroke="midnightblue" points="501.813,-347.081 511.969,-344.064 502.148,-340.089 501.813,-347.081"/>
</g>
<!-- Node6&#45;&gt;Node5 -->
<g id="edge37" class="edge"><title>Node6&#45;&gt;Node5</title>
<path fill="none" stroke="midnightblue" d="M553.357,-328.565C566.347,-314.99 585.716,-295.504 604,-280 636.275,-252.633 645.234,-246.614 681,-224 820.168,-136.01 998.432,-46.9861 1054.39,-19.5621"/>
<polygon fill="midnightblue" stroke="midnightblue" points="550.494,-326.498 546.159,-336.165 555.577,-331.311 550.494,-326.498"/>
</g>
<!-- Node6&#45;&gt;Node7 -->
<g id="edge7" class="edge"><title>Node6&#45;&gt;Node7</title>
<path fill="none" stroke="midnightblue" d="M574.274,-342.19C647.335,-336.294 817.331,-321.389 959,-300 961.897,-299.563 964.888,-299.07 967.891,-298.547"/>
<polygon fill="midnightblue" stroke="midnightblue" points="573.902,-338.708 564.213,-342.994 574.46,-345.686 573.902,-338.708"/>
</g>
<!-- Node6&#45;&gt;Node8 -->
<g id="edge24" class="edge"><title>Node6&#45;&gt;Node8</title>
<path fill="none" stroke="midnightblue" d="M574.185,-339.957C621.816,-332.936 707.949,-318.916 780,-300 842.214,-283.667 913.441,-257.115 948.375,-243.557"/>
<polygon fill="midnightblue" stroke="midnightblue" points="573.453,-336.526 564.061,-341.429 574.461,-343.453 573.453,-336.526"/>
</g>
<!-- Node6&#45;&gt;Node9 -->
<g id="edge35" class="edge"><title>Node6&#45;&gt;Node9</title>
<path fill="none" stroke="midnightblue" d="M569.62,-332.793C652.579,-300.767 874.964,-214.916 945.92,-187.524"/>
<polygon fill="midnightblue" stroke="midnightblue" points="568.282,-329.558 560.213,-336.425 570.803,-336.088 568.282,-329.558"/>
</g>
<!-- Node6&#45;&gt;Node10 -->
<g id="edge43" class="edge"><title>Node6&#45;&gt;Node10</title>
<path fill="none" stroke="midnightblue" d="M505.607,-332.321C471.775,-317.086 420.677,-287.95 399,-244 389.514,-224.768 404.244,-200.446 413.826,-187.7"/>
<polygon fill="midnightblue" stroke="midnightblue" points="504.509,-335.66 515.076,-336.427 507.294,-329.238 504.509,-335.66"/>
</g>
<!-- Node6&#45;&gt;Node11 -->
<g id="edge36" class="edge"><title>Node6&#45;&gt;Node11</title>
<path fill="none" stroke="midnightblue" d="M558.251,-330.685C578.108,-316.928 609.468,-295.936 638,-280 663.174,-265.939 693.461,-252.093 712.961,-243.553"/>
<polygon fill="midnightblue" stroke="midnightblue" points="556.186,-327.859 549.989,-336.453 560.192,-333.599 556.186,-327.859"/>
</g>
<!-- Node6&#45;&gt;Node13 -->
<g id="edge44" class="edge"><title>Node6&#45;&gt;Node13</title>
<path fill="none" stroke="midnightblue" d="M530.945,-326.74C528.19,-318.675 525.368,-308.999 524,-300 522.665,-291.212 523.508,-288.875 524,-280 524.89,-263.926 527.11,-260.074 528,-244 530.339,-201.77 524.69,-151.261 522.154,-131.508"/>
<polygon fill="midnightblue" stroke="midnightblue" points="527.688,-328.024 534.4,-336.222 534.265,-325.628 527.688,-328.024"/>
</g>
<!-- Node6&#45;&gt;Node14 -->
<g id="edge39" class="edge"><title>Node6&#45;&gt;Node14</title>
<path fill="none" stroke="midnightblue" d="M501.578,-343.666C439.461,-340.573 317.017,-330.652 289,-300 259.723,-267.97 286.954,-209.647 298.965,-187.68"/>
<polygon fill="midnightblue" stroke="midnightblue" points="501.571,-347.169 511.722,-344.137 501.895,-340.177 501.571,-347.169"/>
</g>
<!-- Node6&#45;&gt;Node15 -->
<g id="edge25" class="edge"><title>Node6&#45;&gt;Node15</title>
<path fill="none" stroke="midnightblue" d="M501.913,-335.586C462.958,-325.424 401.452,-309.379 363.818,-299.561"/>
<polygon fill="midnightblue" stroke="midnightblue" points="501.224,-339.023 511.783,-338.161 502.991,-332.25 501.224,-339.023"/>
</g>
<!-- Node6&#45;&gt;Node16 -->
<g id="edge31" class="edge"><title>Node6&#45;&gt;Node16</title>
<path fill="none" stroke="midnightblue" d="M574.247,-339.738C644.163,-329.589 797.16,-307.38 869.965,-296.811"/>
<polygon fill="midnightblue" stroke="midnightblue" points="573.552,-336.302 564.158,-341.203 574.557,-343.23 573.552,-336.302"/>
</g>
<!-- Node17 -->
<g id="node17" class="node"><title>Node17</title>
<g id="a_node17"><a xlink:href="help__printer__iface_8hpp.html" target="_top" xlink:title="help_printer_iface.hpp">
<polygon fill="none" stroke="black" points="408.5,-224.5 408.5,-243.5 519.5,-243.5 519.5,-224.5 408.5,-224.5"/>
<text text-anchor="middle" x="464" y="-231.5" font-family="FreeSans" font-size="10.00">help_printer_iface.hpp</text>
</a>
</g>
</g>
<!-- Node6&#45;&gt;Node17 -->
<g id="edge40" class="edge"><title>Node6&#45;&gt;Node17</title>
<path fill="none" stroke="midnightblue" d="M516.008,-330.211C505.671,-322.299 493.91,-311.766 486,-300 473.902,-282.006 467.887,-256.744 465.42,-243.643"/>
<polygon fill="midnightblue" stroke="midnightblue" points="514.097,-333.149 524.24,-336.21 518.22,-327.492 514.097,-333.149"/>
</g>
<!-- Node7&#45;&gt;Node5 -->
<g id="edge23" class="edge"><title>Node7&#45;&gt;Node5</title>
<path fill="none" stroke="midnightblue" d="M1009.61,-270.594C1014.67,-250.36 1023,-216.884 1030,-188 1045.62,-123.544 1063.88,-45.7304 1069.93,-19.8475"/>
<polygon fill="midnightblue" stroke="midnightblue" points="1006.2,-269.81 1007.17,-280.36 1012.99,-271.509 1006.2,-269.81"/>
</g>
<!-- Node7&#45;&gt;Node8 -->
<g id="edge8" class="edge"><title>Node7&#45;&gt;Node8</title>
<path fill="none" stroke="midnightblue" d="M993.7,-271.566C987.678,-262.275 980.531,-251.248 975.672,-243.751"/>
<polygon fill="midnightblue" stroke="midnightblue" points="990.844,-273.595 999.22,-280.083 996.719,-269.788 990.844,-273.595"/>
</g>
<!-- Node7&#45;&gt;Node11 -->
<g id="edge14" class="edge"><title>Node7&#45;&gt;Node11</title>
<path fill="none" stroke="midnightblue" d="M957.9,-279.649C906.554,-269.456 825.117,-253.288 775.611,-243.46"/>
<polygon fill="midnightblue" stroke="midnightblue" points="957.26,-283.09 967.75,-281.605 958.623,-276.224 957.26,-283.09"/>
</g>
<!-- Node8&#45;&gt;Node2 -->
<g id="edge9" class="edge"><title>Node8&#45;&gt;Node2</title>
<path fill="none" stroke="midnightblue" d="M990.705,-217.951C999.671,-210.144 1009.2,-199.775 1014,-188 1021.84,-168.759 1011.74,-144.441 1005.04,-131.697"/>
<polygon fill="midnightblue" stroke="midnightblue" points="988.35,-215.355 982.781,-224.369 992.755,-220.795 988.35,-215.355"/>
</g>
<!-- Node8&#45;&gt;Node9 -->
<g id="edge10" class="edge"><title>Node8&#45;&gt;Node9</title>
<path fill="none" stroke="midnightblue" d="M969.289,-213.805C968.96,-204.91 968.584,-194.78 968.324,-187.751"/>
<polygon fill="midnightblue" stroke="midnightblue" points="965.802,-214.219 969.67,-224.083 972.797,-213.96 965.802,-214.219"/>
</g>
<!-- Node8&#45;&gt;Node10 -->
<g id="edge12" class="edge"><title>Node8&#45;&gt;Node10</title>
<path fill="none" stroke="midnightblue" d="M935.698,-229.626C834.406,-219.663 538.049,-190.513 447.552,-181.612"/>
<polygon fill="midnightblue" stroke="midnightblue" points="935.407,-233.114 945.702,-230.61 936.092,-226.148 935.407,-233.114"/>
</g>
<!-- Node9&#45;&gt;Node2 -->
<g id="edge11" class="edge"><title>Node9&#45;&gt;Node2</title>
<path fill="none" stroke="midnightblue" d="M978.504,-159.275C983.973,-150.045 990.418,-139.17 994.814,-131.751"/>
<polygon fill="midnightblue" stroke="midnightblue" points="975.371,-157.696 973.284,-168.083 981.393,-161.264 975.371,-157.696"/>
</g>
<!-- Node10&#45;&gt;Node3 -->
<g id="edge13" class="edge"><title>Node10&#45;&gt;Node3</title>
<path fill="none" stroke="midnightblue" d="M421,-158.348C421,-134.254 421,-93.3079 421,-75.5914"/>
<polygon fill="midnightblue" stroke="midnightblue" points="417.5,-158.368 421,-168.368 424.5,-158.369 417.5,-158.368"/>
</g>
<!-- Node11&#45;&gt;Node12 -->
<g id="edge15" class="edge"><title>Node11&#45;&gt;Node12</title>
<path fill="none" stroke="midnightblue" d="M766.147,-220.906C793.972,-210.754 833.02,-196.506 857.659,-187.516"/>
<polygon fill="midnightblue" stroke="midnightblue" points="764.646,-217.728 756.451,-224.444 767.045,-224.304 764.646,-217.728"/>
</g>
<!-- Node11&#45;&gt;Node13 -->
<g id="edge22" class="edge"><title>Node11&#45;&gt;Node13</title>
<path fill="none" stroke="midnightblue" d="M707.435,-219.735C663.395,-196.884 574.406,-150.711 537.558,-131.591"/>
<polygon fill="midnightblue" stroke="midnightblue" points="705.876,-222.87 716.365,-224.368 709.1,-216.656 705.876,-222.87"/>
</g>
<!-- Node11&#45;&gt;Node14 -->
<g id="edge19" class="edge"><title>Node11&#45;&gt;Node14</title>
<path fill="none" stroke="midnightblue" d="M680.332,-226.37C592.949,-215.371 419.994,-193.601 342.792,-183.883"/>
<polygon fill="midnightblue" stroke="midnightblue" points="679.939,-229.848 690.297,-227.625 680.813,-222.903 679.939,-229.848"/>
</g>
<!-- Node12&#45;&gt;Node2 -->
<g id="edge16" class="edge"><title>Node12&#45;&gt;Node2</title>
<path fill="none" stroke="midnightblue" d="M909.137,-164.232C931.396,-154.131 961.856,-140.309 981.232,-131.516"/>
<polygon fill="midnightblue" stroke="midnightblue" points="907.516,-161.124 899.856,-168.444 910.409,-167.498 907.516,-161.124"/>
</g>
<!-- Node12&#45;&gt;Node13 -->
<g id="edge17" class="edge"><title>Node12&#45;&gt;Node13</title>
<path fill="none" stroke="midnightblue" d="M839.305,-170.746C770.346,-160.402 633.259,-139.839 563.666,-129.4"/>
<polygon fill="midnightblue" stroke="midnightblue" points="838.959,-174.233 849.368,-172.255 839.998,-167.31 838.959,-174.233"/>
</g>
<!-- Node13&#45;&gt;Node3 -->
<g id="edge18" class="edge"><title>Node13&#45;&gt;Node3</title>
<path fill="none" stroke="midnightblue" d="M495.912,-107.453C477.451,-97.4835 452.903,-84.2279 437.027,-75.6545"/>
<polygon fill="midnightblue" stroke="midnightblue" points="494.471,-110.652 504.933,-112.324 497.797,-104.493 494.471,-110.652"/>
</g>
<!-- Node14&#45;&gt;Node3 -->
<g id="edge20" class="edge"><title>Node14&#45;&gt;Node3</title>
<path fill="none" stroke="midnightblue" d="M320.474,-161.512C345.475,-138.007 392.165,-94.1096 411.862,-75.5914"/>
<polygon fill="midnightblue" stroke="midnightblue" points="318.069,-158.969 313.181,-168.368 322.864,-164.069 318.069,-158.969"/>
</g>
<!-- Node14&#45;&gt;Node13 -->
<g id="edge21" class="edge"><title>Node14&#45;&gt;Node13</title>
<path fill="none" stroke="midnightblue" d="M348.108,-166.024C389.1,-155.823 449.304,-140.841 486.777,-131.516"/>
<polygon fill="midnightblue" stroke="midnightblue" points="347.243,-162.632 338.384,-168.444 348.934,-169.425 347.243,-162.632"/>
</g>
<!-- Node15&#45;&gt;Node3 -->
<g id="edge28" class="edge"><title>Node15&#45;&gt;Node3</title>
<path fill="none" stroke="midnightblue" d="M310.326,-274.362C281.211,-251.859 234.008,-207.247 256,-168 284.732,-116.725 351.287,-88.3552 390.527,-75.5357"/>
<polygon fill="midnightblue" stroke="midnightblue" points="308.231,-277.166 318.335,-280.353 312.424,-271.561 308.231,-277.166"/>
</g>
<!-- Node15&#45;&gt;Node8 -->
<g id="edge26" class="edge"><title>Node15&#45;&gt;Node8</title>
<path fill="none" stroke="midnightblue" d="M374.225,-285.347C497.851,-274.9 850.138,-245.129 945.785,-237.046"/>
<polygon fill="midnightblue" stroke="midnightblue" points="373.68,-281.881 364.01,-286.21 374.269,-288.856 373.68,-281.881"/>
</g>
<!-- Node15&#45;&gt;Node9 -->
<g id="edge27" class="edge"><title>Node15&#45;&gt;Node9</title>
<path fill="none" stroke="midnightblue" d="M374.265,-280.465C440.288,-267.553 570.207,-242.592 681,-224 787.373,-206.15 814.677,-206.146 921,-188 924.194,-187.455 927.506,-186.867 930.825,-186.262"/>
<polygon fill="midnightblue" stroke="midnightblue" points="373.371,-277.073 364.23,-282.431 374.717,-283.943 373.371,-277.073"/>
</g>
<!-- Node15&#45;&gt;Node10 -->
<g id="edge30" class="edge"><title>Node15&#45;&gt;Node10</title>
<path fill="none" stroke="midnightblue" d="M338.362,-271.033C344.515,-257.296 354.175,-238.342 366,-224 378.087,-209.341 395.535,-196.034 407.52,-187.757"/>
<polygon fill="midnightblue" stroke="midnightblue" points="335.088,-269.788 334.363,-280.358 341.521,-272.547 335.088,-269.788"/>
</g>
<!-- Node15&#45;&gt;Node14 -->
<g id="edge29" class="edge"><title>Node15&#45;&gt;Node14</title>
<path fill="none" stroke="midnightblue" d="M311.749,-273.745C303.368,-265.869 294.454,-255.502 290,-244 282.497,-224.624 292.466,-200.36 299.047,-187.662"/>
<polygon fill="midnightblue" stroke="midnightblue" points="309.628,-276.54 319.459,-280.49 314.237,-271.271 309.628,-276.54"/>
</g>
<!-- Node16&#45;&gt;Node8 -->
<g id="edge32" class="edge"><title>Node16&#45;&gt;Node8</title>
<path fill="none" stroke="midnightblue" d="M927.181,-273.537C937.879,-263.909 951.256,-251.869 960.185,-243.834"/>
<polygon fill="midnightblue" stroke="midnightblue" points="924.732,-271.033 919.64,-280.324 929.414,-276.236 924.732,-271.033"/>
</g>
<!-- Node16&#45;&gt;Node9 -->
<g id="edge33" class="edge"><title>Node16&#45;&gt;Node9</title>
<path fill="none" stroke="midnightblue" d="M916.356,-270.886C921.301,-257.581 928.703,-239.244 937,-224 944.257,-210.668 954.552,-196.423 961.253,-187.614"/>
<polygon fill="midnightblue" stroke="midnightblue" points="913.052,-269.729 912.946,-280.323 919.636,-272.108 913.052,-269.729"/>
</g>
<!-- Node16&#45;&gt;Node14 -->
<g id="edge34" class="edge"><title>Node16&#45;&gt;Node14</title>
<path fill="none" stroke="midnightblue" d="M859.456,-287.795C747.695,-284.609 482.862,-274.038 399,-244 363.63,-231.331 328.976,-202.215 313.061,-187.641"/>
<polygon fill="midnightblue" stroke="midnightblue" points="859.689,-291.303 869.782,-288.081 859.883,-284.306 859.689,-291.303"/>
</g>
<!-- Node17&#45;&gt;Node10 -->
<g id="edge41" class="edge"><title>Node17&#45;&gt;Node10</title>
<path fill="none" stroke="midnightblue" d="M450.578,-216.144C443.086,-206.736 434.063,-195.405 427.968,-187.751"/>
<polygon fill="midnightblue" stroke="midnightblue" points="447.932,-218.44 456.899,-224.083 453.408,-214.08 447.932,-218.44"/>
</g>
<!-- Node17&#45;&gt;Node13 -->
<g id="edge42" class="edge"><title>Node17&#45;&gt;Node13</title>
<path fill="none" stroke="midnightblue" d="M473.161,-215.32C485.572,-191.37 507.243,-149.548 516.548,-131.591"/>
<polygon fill="midnightblue" stroke="midnightblue" points="469.966,-213.879 468.473,-224.368 476.181,-217.1 469.966,-213.879"/>
</g>
<!-- Node18&#45;&gt;Node3 -->
<g id="edge53" class="edge"><title>Node18&#45;&gt;Node3</title>
<path fill="none" stroke="midnightblue" d="M838.892,-326.344C836.486,-313.227 832.763,-295.349 828,-280 820.025,-254.303 821.488,-245.263 805,-224 779.508,-191.125 766.686,-187.614 730,-168 638.172,-118.903 518.207,-88.114 458.358,-74.7454"/>
<polygon fill="midnightblue" stroke="midnightblue" points="835.491,-327.214 840.659,-336.462 842.386,-326.009 835.491,-327.214"/>
</g>
<!-- Node18&#45;&gt;Node5 -->
<g id="edge52" class="edge"><title>Node18&#45;&gt;Node5</title>
<path fill="none" stroke="midnightblue" d="M892.13,-340.801C942.59,-335.427 1022.04,-323.799 1087,-300 1188.51,-262.814 1298,-287.103 1298,-179 1298,-179 1298,-179 1298,-121 1298,-45.3991 1194.49,-21.7451 1127.58,-14.3523"/>
<polygon fill="midnightblue" stroke="midnightblue" points="891.72,-337.325 882.128,-341.825 892.432,-344.288 891.72,-337.325"/>
</g>
<!-- Node18&#45;&gt;Node8 -->
<g id="edge48" class="edge"><title>Node18&#45;&gt;Node8</title>
<path fill="none" stroke="midnightblue" d="M892.126,-341.306C947.483,-336.061 1031.41,-324.261 1051,-300 1071.05,-275.172 1024.65,-253.604 994.109,-242.656"/>
<polygon fill="midnightblue" stroke="midnightblue" points="891.787,-337.822 882.143,-342.21 892.419,-344.793 891.787,-337.822"/>
</g>
<!-- Node18&#45;&gt;Node9 -->
<g id="edge50" class="edge"><title>Node18&#45;&gt;Node9</title>
<path fill="none" stroke="midnightblue" d="M892.424,-342.202C952.125,-337.713 1046.23,-326.532 1068,-300 1102.66,-257.758 1021.69,-207.462 984.949,-187.639"/>
<polygon fill="midnightblue" stroke="midnightblue" points="892.154,-338.713 882.429,-342.916 892.653,-345.695 892.154,-338.713"/>
</g>
<!-- Node18&#45;&gt;Node10 -->
<g id="edge54" class="edge"><title>Node18&#45;&gt;Node10</title>
<path fill="none" stroke="midnightblue" d="M804.276,-333.455C776.814,-324.824 738.838,-312.418 706,-300 625.541,-269.573 607.203,-257.563 528,-224 497.941,-211.262 463.077,-196.625 441.527,-187.594"/>
<polygon fill="midnightblue" stroke="midnightblue" points="803.301,-336.817 813.889,-336.457 805.387,-330.135 803.301,-336.817"/>
</g>
<!-- Node18&#45;&gt;Node11 -->
<g id="edge51" class="edge"><title>Node18&#45;&gt;Node11</title>
<path fill="none" stroke="midnightblue" d="M791.81,-341.087C764.001,-336.052 731.585,-324.822 714,-300 701.631,-282.54 716.452,-257.053 726.054,-243.777"/>
<polygon fill="midnightblue" stroke="midnightblue" points="791.386,-344.563 801.811,-342.675 792.484,-337.65 791.386,-344.563"/>
</g>
<!-- Node18&#45;&gt;Node13 -->
<g id="edge55" class="edge"><title>Node18&#45;&gt;Node13</title>
<path fill="none" stroke="midnightblue" d="M835.115,-326.613C823.559,-296.574 799.962,-238.826 784,-224 720.928,-165.415 620.271,-139.646 563.52,-129.262"/>
<polygon fill="midnightblue" stroke="midnightblue" points="831.969,-328.19 838.791,-336.296 838.513,-325.705 831.969,-328.19"/>
</g>
<!-- Node18&#45;&gt;Node16 -->
<g id="edge49" class="edge"><title>Node18&#45;&gt;Node16</title>
<path fill="none" stroke="midnightblue" d="M860.762,-330.101C873,-320.382 888.559,-308.027 898.876,-299.834"/>
<polygon fill="midnightblue" stroke="midnightblue" points="858.58,-327.364 852.925,-336.324 862.933,-332.846 858.58,-327.364"/>
</g>
</g>
</svg>
