<?xml version="1.0" encoding="UTF-8" standalone="no"?>
<!DOCTYPE svg PUBLIC "-//W3C//DTD SVG 1.1//EN"
 "http://www.w3.org/Graphics/SVG/1.1/DTD/svg11.dtd">
<!-- Generated by graphviz version 2.40.1 (20161225.0304)
 -->
<!-- Title: types.hpp Pages: 1 -->
<svg width="184pt" height="84pt"
 viewBox="0.00 0.00 183.50 84.00" xmlns="http://www.w3.org/2000/svg" xmlns:xlink="http://www.w3.org/1999/xlink">
<g id="graph0" class="graph" transform="scale(1 1) rotate(0) translate(4 80)">
<title>types.hpp</title>
<!-- Node0 -->
<g id="node1" class="node">
<title>Node0</title>
<polygon fill="#bfbfbf" stroke="#000000" points="57,-56.5 57,-75.5 116,-75.5 116,-56.5 57,-56.5"/>
<text text-anchor="middle" x="86.5" y="-63.5" font-family="Helvetica,sans-Serif" font-size="10.00" fill="#000000">types.hpp</text>
</g>
<!-- Node1 -->
<g id="node2" class="node">
<title>Node1</title>
<polygon fill="none" stroke="#bfbfbf" points="0,-.5 0,-19.5 41,-19.5 41,-.5 0,-.5"/>
<text text-anchor="middle" x="20.5" y="-7.5" font-family="Helvetica,sans-Serif" font-size="10.00" fill="#000000">string</text>
</g>
<!-- Node0&#45;&gt;Node1 -->
<g id="edge1" class="edge">
<title>Node0&#45;&gt;Node1</title>
<path fill="none" stroke="#191970" d="M75.0037,-56.2455C65.2558,-47.9746 51.0741,-35.9416 39.6202,-26.2232"/>
<polygon fill="#191970" stroke="#191970" points="41.7541,-23.4437 31.8646,-19.6427 37.2253,-28.7813 41.7541,-23.4437"/>
</g>
<!-- Node2 -->
<g id="node3" class="node">
<title>Node2</title>
<polygon fill="none" stroke="#bfbfbf" points="59.5,-.5 59.5,-19.5 113.5,-19.5 113.5,-.5 59.5,-.5"/>
<text text-anchor="middle" x="86.5" y="-7.5" font-family="Helvetica,sans-Serif" font-size="10.00" fill="#000000">iostream</text>
</g>
<!-- Node0&#45;&gt;Node2 -->
<g id="edge2" class="edge">
<title>Node0&#45;&gt;Node2</title>
<path fill="none" stroke="#191970" d="M86.5,-56.2455C86.5,-48.9382 86.5,-38.6944 86.5,-29.7046"/>
<polygon fill="#191970" stroke="#191970" points="90.0001,-29.6426 86.5,-19.6427 83.0001,-29.6427 90.0001,-29.6426"/>
</g>
<!-- Node3 -->
<g id="node4" class="node">
<title>Node3</title>
<polygon fill="none" stroke="#bfbfbf" points="131.5,-.5 131.5,-19.5 175.5,-19.5 175.5,-.5 131.5,-.5"/>
<text text-anchor="middle" x="153.5" y="-7.5" font-family="Helvetica,sans-Serif" font-size="10.00" fill="#000000">vector</text>
</g>
<!-- Node0&#45;&gt;Node3 -->
<g id="edge3" class="edge">
<title>Node0&#45;&gt;Node3</title>
<path fill="none" stroke="#191970" d="M98.1705,-56.2455C108.0661,-47.9746 122.4627,-35.9416 134.0901,-26.2232"/>
<polygon fill="#191970" stroke="#191970" points="136.535,-28.7413 141.9632,-19.6427 132.0458,-23.3703 136.535,-28.7413"/>
</g>
</g>
</svg>
