<?xml version="1.0" encoding="UTF-8" standalone="no"?>
<!DOCTYPE svg PUBLIC "-//W3C//DTD SVG 1.1//EN"
 "http://www.w3.org/Graphics/SVG/1.1/DTD/svg11.dtd">
<!-- Generated by graphviz version 2.43.0 (0)
 -->
<!-- Title: types.hpp Pages: 1 -->
<svg width="1148pt" height="532pt"
 viewBox="0.00 0.00 1148.00 532.00" xmlns="http://www.w3.org/2000/svg" xmlns:xlink="http://www.w3.org/1999/xlink">
<g id="graph0" class="graph" transform="scale(1 1) rotate(0) translate(4 528)">
<title>types.hpp</title>
<!-- Node1 -->
<g id="node1" class="node">
<title>Node1</title>
<g id="a_node1"><a xlink:title=" ">
<polygon fill="#bfbfbf" stroke="black" points="568.5,-504.5 568.5,-523.5 633.5,-523.5 633.5,-504.5 568.5,-504.5"/>
<text text-anchor="middle" x="601" y="-511.5" font-family="Helvetica,sans-Serif" font-size="10.00">types.hpp</text>
</a>
</g>
</g>
<!-- Node2 -->
<g id="node2" class="node">
<title>Node2</title>
<g id="a_node2"><a xlink:href="api_8hpp.html" target="_top" xlink:title=" ">
<polygon fill="none" stroke="black" points="348.5,-224.5 348.5,-243.5 401.5,-243.5 401.5,-224.5 348.5,-224.5"/>
<text text-anchor="middle" x="375" y="-231.5" font-family="Helvetica,sans-Serif" font-size="10.00">api.hpp</text>
</a>
</g>
</g>
<!-- Node1&#45;&gt;Node2 -->
<g id="edge1" class="edge">
<title>Node1&#45;&gt;Node2</title>
<path fill="none" stroke="midnightblue" d="M558.32,-511.83C465.65,-508.75 249.08,-498.42 183,-468 144.73,-450.38 114,-445.13 114,-403 114,-403 114,-403 114,-345 114,-244.2 281.37,-234.3 348.05,-234.36"/>
<polygon fill="midnightblue" stroke="midnightblue" points="558.36,-515.33 568.46,-512.16 558.58,-508.34 558.36,-515.33"/>
</g>
<!-- Node4 -->
<g id="node4" class="node">
<title>Node4</title>
<g id="a_node4"><a xlink:href="all_8hpp.html" target="_top" xlink:title=" ">
<polygon fill="none" stroke="black" points="203,-0.5 203,-19.5 253,-19.5 253,-0.5 203,-0.5"/>
<text text-anchor="middle" x="228" y="-7.5" font-family="Helvetica,sans-Serif" font-size="10.00">all.hpp</text>
</a>
</g>
</g>
<!-- Node1&#45;&gt;Node4 -->
<g id="edge63" class="edge">
<title>Node1&#45;&gt;Node4</title>
<path fill="none" stroke="midnightblue" d="M558.18,-513.73C475.28,-514.08 287.73,-509.69 137,-468 72.04,-450.03 0,-470.39 0,-403 0,-403 0,-403 0,-121 0,-31.78 143.37,-14.89 202.73,-11.72"/>
<polygon fill="midnightblue" stroke="midnightblue" points="558.26,-517.23 568.24,-513.66 558.21,-510.23 558.26,-517.23"/>
</g>
<!-- Node5 -->
<g id="node5" class="node">
<title>Node5</title>
<g id="a_node5"><a xlink:href="help__printer_8hpp.html" target="_top" xlink:title=" ">
<polygon fill="none" stroke="black" points="701.5,-0.5 701.5,-19.5 796.5,-19.5 796.5,-0.5 701.5,-0.5"/>
<text text-anchor="middle" x="749" y="-7.5" font-family="Helvetica,sans-Serif" font-size="10.00">help_printer.hpp</text>
</a>
</g>
</g>
<!-- Node1&#45;&gt;Node5 -->
<g id="edge62" class="edge">
<title>Node1&#45;&gt;Node5</title>
<path fill="none" stroke="midnightblue" d="M643.66,-513.34C771.07,-513.22 1140,-504.14 1140,-403 1140,-403 1140,-403 1140,-121 1140,-50.39 900.76,-22.94 796.55,-14.33"/>
<polygon fill="midnightblue" stroke="midnightblue" points="643.51,-509.84 633.5,-513.33 643.5,-516.84 643.51,-509.84"/>
</g>
<!-- Node6 -->
<g id="node6" class="node">
<title>Node6</title>
<g id="a_node6"><a xlink:href="command_8hpp.html" target="_top" xlink:title=" ">
<polygon fill="none" stroke="black" points="425,-168.5 425,-187.5 511,-187.5 511,-168.5 425,-168.5"/>
<text text-anchor="middle" x="468" y="-175.5" font-family="Helvetica,sans-Serif" font-size="10.00">command.hpp</text>
</a>
</g>
</g>
<!-- Node1&#45;&gt;Node6 -->
<g id="edge60" class="edge">
<title>Node1&#45;&gt;Node6</title>
<path fill="none" stroke="midnightblue" d="M643.76,-509.6C715.38,-503.42 856.16,-488.99 901,-468 934.93,-452.12 948.65,-446.18 964,-412 967.64,-403.89 965.16,-400.81 964,-392 957.02,-338.98 962.37,-312.64 920,-280 855.66,-230.44 611.43,-196.21 511.26,-183.97"/>
<polygon fill="midnightblue" stroke="midnightblue" points="643.38,-506.12 633.72,-510.46 643.98,-513.1 643.38,-506.12"/>
</g>
<!-- Node7 -->
<g id="node7" class="node">
<title>Node7</title>
<g id="a_node7"><a xlink:href="help_8hpp.html" target="_top" xlink:title=" ">
<polygon fill="none" stroke="black" points="552.5,-112.5 552.5,-131.5 611.5,-131.5 611.5,-112.5 552.5,-112.5"/>
<text text-anchor="middle" x="582" y="-119.5" font-family="Helvetica,sans-Serif" font-size="10.00">help.hpp</text>
</a>
</g>
</g>
<!-- Node1&#45;&gt;Node7 -->
<g id="edge61" class="edge">
<title>Node1&#45;&gt;Node7</title>
<path fill="none" stroke="midnightblue" d="M643.92,-512.68C765.25,-510.61 1102,-496.45 1102,-403 1102,-403 1102,-403 1102,-233 1102,-132.07 722.32,-123.31 611.83,-122.9"/>
<polygon fill="midnightblue" stroke="midnightblue" points="643.82,-509.18 633.87,-512.83 643.92,-516.18 643.82,-509.18"/>
</g>
<!-- Node8 -->
<g id="node8" class="node">
<title>Node8</title>
<g id="a_node8"><a xlink:href="utils_8hpp.html" target="_top" xlink:title=" ">
<polygon fill="none" stroke="black" points="609.5,-448.5 609.5,-467.5 668.5,-467.5 668.5,-448.5 609.5,-448.5"/>
<text text-anchor="middle" x="639" y="-455.5" font-family="Helvetica,sans-Serif" font-size="10.00">utils.hpp</text>
</a>
</g>
</g>
<!-- Node1&#45;&gt;Node8 -->
<g id="edge12" class="edge">
<title>Node1&#45;&gt;Node8</title>
<path fill="none" stroke="midnightblue" d="M613.06,-495.86C619.64,-486.5 627.51,-475.33 632.84,-467.75"/>
<polygon fill="midnightblue" stroke="midnightblue" points="610.17,-493.89 607.27,-504.08 615.89,-497.92 610.17,-493.89"/>
</g>
<!-- Node9 -->
<g id="node9" class="node">
<title>Node9</title>
<g id="a_node9"><a xlink:href="arg__iface_8hpp.html" target="_top" xlink:title=" ">
<polygon fill="none" stroke="black" points="838.5,-392.5 838.5,-411.5 921.5,-411.5 921.5,-392.5 838.5,-392.5"/>
<text text-anchor="middle" x="880" y="-399.5" font-family="Helvetica,sans-Serif" font-size="10.00">arg_iface.hpp</text>
</a>
</g>
</g>
<!-- Node1&#45;&gt;Node9 -->
<g id="edge45" class="edge">
<title>Node1&#45;&gt;Node9</title>
<path fill="none" stroke="midnightblue" d="M632.49,-500.59C689.65,-478.05 809.11,-430.95 858.21,-411.59"/>
<polygon fill="midnightblue" stroke="midnightblue" points="630.91,-497.44 622.89,-504.37 633.48,-503.96 630.91,-497.44"/>
</g>
<!-- Node10 -->
<g id="node10" class="node">
<title>Node10</title>
<g id="a_node10"><a xlink:href="arg_8hpp.html" target="_top" xlink:title=" ">
<polygon fill="none" stroke="black" points="538.5,-336.5 538.5,-355.5 591.5,-355.5 591.5,-336.5 538.5,-336.5"/>
<text text-anchor="middle" x="565" y="-343.5" font-family="Helvetica,sans-Serif" font-size="10.00">arg.hpp</text>
</a>
</g>
</g>
<!-- Node1&#45;&gt;Node10 -->
<g id="edge56" class="edge">
<title>Node1&#45;&gt;Node10</title>
<path fill="none" stroke="midnightblue" d="M596.86,-493.93C589.06,-457.92 572.42,-381.23 566.86,-355.57"/>
<polygon fill="midnightblue" stroke="midnightblue" points="593.52,-495.04 599.06,-504.08 600.37,-493.56 593.52,-495.04"/>
</g>
<!-- Node11 -->
<g id="node11" class="node">
<title>Node11</title>
<g id="a_node11"><a xlink:href="multi__arg_8hpp.html" target="_top" xlink:title=" ">
<polygon fill="none" stroke="black" points="280,-280.5 280,-299.5 364,-299.5 364,-280.5 280,-280.5"/>
<text text-anchor="middle" x="322" y="-287.5" font-family="Helvetica,sans-Serif" font-size="10.00">multi_arg.hpp</text>
</a>
</g>
</g>
<!-- Node1&#45;&gt;Node11 -->
<g id="edge57" class="edge">
<title>Node1&#45;&gt;Node11</title>
<path fill="none" stroke="midnightblue" d="M558.13,-511.38C459.23,-507.21 221.72,-494.51 198,-468 144.97,-408.72 264.81,-326.24 307.57,-299.64"/>
<polygon fill="midnightblue" stroke="midnightblue" points="558.24,-514.89 568.37,-511.81 558.53,-507.9 558.24,-514.89"/>
</g>
<!-- Node12 -->
<g id="node12" class="node">
<title>Node12</title>
<g id="a_node12"><a xlink:href="group__iface_8hpp.html" target="_top" xlink:title=" ">
<polygon fill="none" stroke="black" points="800.5,-336.5 800.5,-355.5 895.5,-355.5 895.5,-336.5 800.5,-336.5"/>
<text text-anchor="middle" x="848" y="-343.5" font-family="Helvetica,sans-Serif" font-size="10.00">group_iface.hpp</text>
</a>
</g>
</g>
<!-- Node1&#45;&gt;Node12 -->
<g id="edge58" class="edge">
<title>Node1&#45;&gt;Node12</title>
<path fill="none" stroke="midnightblue" d="M643.59,-506.32C724.59,-492.66 895.84,-458.8 930,-412 948.26,-386.98 905.82,-366.46 875.44,-355.54"/>
<polygon fill="midnightblue" stroke="midnightblue" points="643,-502.87 633.71,-507.97 644.15,-509.78 643,-502.87"/>
</g>
<!-- Node13 -->
<g id="node13" class="node">
<title>Node13</title>
<g id="a_node13"><a xlink:href="groups_8hpp.html" target="_top" xlink:title=" ">
<polygon fill="none" stroke="black" points="840.5,-280.5 840.5,-299.5 911.5,-299.5 911.5,-280.5 840.5,-280.5"/>
<text text-anchor="middle" x="876" y="-287.5" font-family="Helvetica,sans-Serif" font-size="10.00">groups.hpp</text>
</a>
</g>
</g>
<!-- Node1&#45;&gt;Node13 -->
<g id="edge59" class="edge">
<title>Node1&#45;&gt;Node13</title>
<path fill="none" stroke="midnightblue" d="M643.76,-510.89C696.47,-507.11 788.05,-496.66 861,-468 903.45,-451.32 925.26,-452.1 947,-412 970.22,-369.18 913.82,-319.41 888.04,-299.69"/>
<polygon fill="midnightblue" stroke="midnightblue" points="643.49,-507.4 633.75,-511.56 643.96,-514.38 643.49,-507.4"/>
</g>
<!-- Node14 -->
<g id="node14" class="node">
<title>Node14</title>
<g id="a_node14"><a xlink:href="context_8hpp.html" target="_top" xlink:title=" ">
<polygon fill="none" stroke="black" points="404,-392.5 404,-411.5 478,-411.5 478,-392.5 404,-392.5"/>
<text text-anchor="middle" x="441" y="-399.5" font-family="Helvetica,sans-Serif" font-size="10.00">context.hpp</text>
</a>
</g>
</g>
<!-- Node1&#45;&gt;Node14 -->
<g id="edge46" class="edge">
<title>Node1&#45;&gt;Node14</title>
<path fill="none" stroke="midnightblue" d="M578.39,-499.2C564.32,-490.48 545.93,-478.85 530,-468 501.53,-448.61 469.1,-424.35 452.35,-411.66"/>
<polygon fill="midnightblue" stroke="midnightblue" points="576.6,-502.21 586.95,-504.47 580.27,-496.25 576.6,-502.21"/>
</g>
<!-- Node15 -->
<g id="node15" class="node">
<title>Node15</title>
<g id="a_node15"><a xlink:href="value__utils_8hpp.html" target="_top" xlink:title=" ">
<polygon fill="none" stroke="black" points="256.5,-392.5 256.5,-411.5 347.5,-411.5 347.5,-392.5 256.5,-392.5"/>
<text text-anchor="middle" x="302" y="-399.5" font-family="Helvetica,sans-Serif" font-size="10.00">value_utils.hpp</text>
</a>
</g>
</g>
<!-- Node1&#45;&gt;Node15 -->
<g id="edge55" class="edge">
<title>Node1&#45;&gt;Node15</title>
<path fill="none" stroke="midnightblue" d="M568.01,-500.86C507.06,-478.44 378.19,-431.03 325.35,-411.59"/>
<polygon fill="midnightblue" stroke="midnightblue" points="566.94,-504.2 577.54,-504.37 569.36,-497.63 566.94,-504.2"/>
</g>
<!-- Node17 -->
<g id="node17" class="node">
<title>Node17</title>
<g id="a_node17"><a xlink:href="exceptions_8hpp.html" target="_top" xlink:title=" ">
<polygon fill="none" stroke="black" points="207.5,-448.5 207.5,-467.5 298.5,-467.5 298.5,-448.5 207.5,-448.5"/>
<text text-anchor="middle" x="253" y="-455.5" font-family="Helvetica,sans-Serif" font-size="10.00">exceptions.hpp</text>
</a>
</g>
</g>
<!-- Node1&#45;&gt;Node17 -->
<g id="edge47" class="edge">
<title>Node1&#45;&gt;Node17</title>
<path fill="none" stroke="midnightblue" d="M558.21,-506.36C492.27,-496.13 366.38,-476.59 298.72,-466.09"/>
<polygon fill="midnightblue" stroke="midnightblue" points="557.84,-509.84 568.26,-507.92 558.92,-502.93 557.84,-509.84"/>
</g>
<!-- Node3 -->
<g id="node3" class="node">
<title>Node3</title>
<g id="a_node3"><a xlink:href="cmd__line_8hpp.html" target="_top" xlink:title=" ">
<polygon fill="none" stroke="black" points="414,-56.5 414,-75.5 496,-75.5 496,-56.5 414,-56.5"/>
<text text-anchor="middle" x="455" y="-63.5" font-family="Helvetica,sans-Serif" font-size="10.00">cmd_line.hpp</text>
</a>
</g>
</g>
<!-- Node2&#45;&gt;Node3 -->
<g id="edge2" class="edge">
<title>Node2&#45;&gt;Node3</title>
<path fill="none" stroke="midnightblue" d="M383.74,-214.86C400.9,-179.25 438.4,-101.45 450.87,-75.57"/>
<polygon fill="midnightblue" stroke="midnightblue" points="380.49,-213.55 379.3,-224.08 386.8,-216.59 380.49,-213.55"/>
</g>
<!-- Node2&#45;&gt;Node6 -->
<g id="edge6" class="edge">
<title>Node2&#45;&gt;Node6</title>
<path fill="none" stroke="midnightblue" d="M393.27,-218.9C409.1,-209 431.66,-196.07 447.98,-187.65"/>
<polygon fill="midnightblue" stroke="midnightblue" points="391.35,-215.97 384.83,-224.32 395.13,-221.86 391.35,-215.97"/>
</g>
<!-- Node3&#45;&gt;Node4 -->
<g id="edge3" class="edge">
<title>Node3&#45;&gt;Node4</title>
<path fill="none" stroke="midnightblue" d="M409.11,-54.08C362.13,-42.91 290.85,-25.95 253.26,-17.01"/>
<polygon fill="midnightblue" stroke="midnightblue" points="408.49,-57.53 419.03,-56.44 410.11,-50.72 408.49,-57.53"/>
</g>
<!-- Node3&#45;&gt;Node5 -->
<g id="edge4" class="edge">
<title>Node3&#45;&gt;Node5</title>
<path fill="none" stroke="midnightblue" d="M506.08,-54.62C561.1,-44.16 647.79,-28.27 701.43,-18.83"/>
<polygon fill="midnightblue" stroke="midnightblue" points="505.35,-51.19 496.19,-56.5 506.66,-58.07 505.35,-51.19"/>
</g>
<!-- Node5&#45;&gt;Node3 -->
<g id="edge5" class="edge">
<title>Node5&#45;&gt;Node3</title>
<path fill="none" stroke="midnightblue" d="M697.84,-21.4C640.6,-32.27 549.18,-49.02 496.28,-58.27"/>
<polygon fill="midnightblue" stroke="midnightblue" points="698.6,-24.82 707.76,-19.51 697.28,-17.94 698.6,-24.82"/>
</g>
<!-- Node6&#45;&gt;Node2 -->
<g id="edge7" class="edge">
<title>Node6&#45;&gt;Node2</title>
<path fill="none" stroke="midnightblue" d="M449.77,-193.07C433.95,-202.97 411.39,-215.9 395.06,-224.32"/>
<polygon fill="midnightblue" stroke="midnightblue" points="451.68,-196 458.21,-187.65 447.9,-190.12 451.68,-196"/>
</g>
<!-- Node6&#45;&gt;Node3 -->
<g id="edge8" class="edge">
<title>Node6&#45;&gt;Node3</title>
<path fill="none" stroke="midnightblue" d="M465.8,-158.35C462.95,-134.25 458.11,-93.31 456.02,-75.59"/>
<polygon fill="midnightblue" stroke="midnightblue" points="462.33,-158.85 466.98,-168.37 469.28,-158.03 462.33,-158.85"/>
</g>
<!-- Node6&#45;&gt;Node5 -->
<g id="edge11" class="edge">
<title>Node6&#45;&gt;Node5</title>
<path fill="none" stroke="midnightblue" d="M483.82,-161.12C498.36,-147.08 520.94,-126.61 543,-112 605.76,-70.43 688.14,-35.19 726.95,-19.59"/>
<polygon fill="midnightblue" stroke="midnightblue" points="481.31,-158.68 476.62,-168.19 486.21,-163.68 481.31,-158.68"/>
</g>
<!-- Node6&#45;&gt;Node7 -->
<g id="edge9" class="edge">
<title>Node6&#45;&gt;Node7</title>
<path fill="none" stroke="midnightblue" d="M495.24,-164.1C516.54,-154.01 545.54,-140.27 564.02,-131.52"/>
<polygon fill="midnightblue" stroke="midnightblue" points="493.6,-161 486.06,-168.44 496.6,-167.33 493.6,-161"/>
</g>
<!-- Node7&#45;&gt;Node3 -->
<g id="edge10" class="edge">
<title>Node7&#45;&gt;Node3</title>
<path fill="none" stroke="midnightblue" d="M552.61,-108.5C528.8,-98.38 495.89,-84.39 475.03,-75.52"/>
<polygon fill="midnightblue" stroke="midnightblue" points="551.3,-111.75 561.88,-112.44 554.04,-105.31 551.3,-111.75"/>
</g>
<!-- Node8&#45;&gt;Node3 -->
<g id="edge39" class="edge">
<title>Node8&#45;&gt;Node3</title>
<path fill="none" stroke="midnightblue" d="M652.1,-440.17C657.67,-432.1 663.65,-422.02 667,-412 674.93,-388.3 670.89,-380.96 672,-356 676.94,-245.23 702.24,-186.37 620,-112 585.98,-81.23 532.92,-71.21 496.2,-68.1"/>
<polygon fill="midnightblue" stroke="midnightblue" points="649.22,-438.19 646.14,-448.33 654.87,-442.32 649.22,-438.19"/>
</g>
<!-- Node8&#45;&gt;Node5 -->
<g id="edge44" class="edge">
<title>Node8&#45;&gt;Node5</title>
<path fill="none" stroke="midnightblue" d="M679.04,-456.05C749.97,-453.55 893.67,-444.5 930,-412 990.75,-357.66 978,-316.51 978,-235 978,-235 978,-235 978,-121 978,-41.28 863.84,-19.3 796.73,-13.26"/>
<polygon fill="midnightblue" stroke="midnightblue" points="678.6,-452.57 668.72,-456.39 678.82,-459.56 678.6,-452.57"/>
</g>
<!-- Node8&#45;&gt;Node6 -->
<g id="edge38" class="edge">
<title>Node8&#45;&gt;Node6</title>
<path fill="none" stroke="midnightblue" d="M635.32,-438.21C629.98,-413.62 618.64,-369.68 600,-336 564.65,-272.13 501.27,-209.87 477.42,-187.61"/>
<polygon fill="midnightblue" stroke="midnightblue" points="631.96,-439.24 637.41,-448.33 638.81,-437.83 631.96,-439.24"/>
</g>
<!-- Node8&#45;&gt;Node7 -->
<g id="edge43" class="edge">
<title>Node8&#45;&gt;Node7</title>
<path fill="none" stroke="midnightblue" d="M644.22,-438.39C649.84,-416.65 658,-379.51 658,-347 658,-347 658,-347 658,-289 658,-223.39 608.31,-155.35 589.29,-131.71"/>
<polygon fill="midnightblue" stroke="midnightblue" points="640.78,-437.68 641.56,-448.25 647.54,-439.5 640.78,-437.68"/>
</g>
<!-- Node8&#45;&gt;Node9 -->
<g id="edge13" class="edge">
<title>Node8&#45;&gt;Node9</title>
<path fill="none" stroke="midnightblue" d="M678.58,-448.13C723.79,-438 797.26,-421.54 841.86,-411.55"/>
<polygon fill="midnightblue" stroke="midnightblue" points="677.54,-444.78 668.55,-450.38 679.07,-451.61 677.54,-444.78"/>
</g>
<!-- Node8&#45;&gt;Node10 -->
<g id="edge25" class="edge">
<title>Node8&#45;&gt;Node10</title>
<path fill="none" stroke="midnightblue" d="M626.1,-440C619.88,-431.66 612.41,-421.41 606,-412 592.48,-392.15 577.71,-368.08 570.12,-355.54"/>
<polygon fill="midnightblue" stroke="midnightblue" points="623.43,-442.28 632.24,-448.17 629.03,-438.07 623.43,-442.28"/>
</g>
<!-- Node8&#45;&gt;Node11 -->
<g id="edge36" class="edge">
<title>Node8&#45;&gt;Node11</title>
<path fill="none" stroke="midnightblue" d="M599.18,-453.63C538.76,-447.85 427.5,-434.48 395,-412 353.44,-383.25 331.49,-322.42 324.51,-299.75"/>
<polygon fill="midnightblue" stroke="midnightblue" points="599.2,-457.14 609.49,-454.58 599.85,-450.17 599.2,-457.14"/>
</g>
<!-- Node8&#45;&gt;Node12 -->
<g id="edge37" class="edge">
<title>Node8&#45;&gt;Node12</title>
<path fill="none" stroke="midnightblue" d="M678.73,-450.55C709.69,-444.23 752.84,-432.47 786,-412 810.68,-396.76 832.23,-369.35 842.16,-355.5"/>
<polygon fill="midnightblue" stroke="midnightblue" points="677.88,-447.15 668.73,-452.49 679.22,-454.02 677.88,-447.15"/>
</g>
<!-- Node8&#45;&gt;Node14 -->
<g id="edge26" class="edge">
<title>Node8&#45;&gt;Node14</title>
<path fill="none" stroke="midnightblue" d="M599.34,-446.18C562.02,-436 506.87,-420.97 472.48,-411.59"/>
<polygon fill="midnightblue" stroke="midnightblue" points="598.79,-449.66 609.36,-448.92 600.63,-442.91 598.79,-449.66"/>
</g>
<!-- Node8&#45;&gt;Node15 -->
<g id="edge32" class="edge">
<title>Node8&#45;&gt;Node15</title>
<path fill="none" stroke="midnightblue" d="M599.46,-450.66C536.55,-440.58 414,-420.95 347.53,-410.3"/>
<polygon fill="midnightblue" stroke="midnightblue" points="598.96,-454.13 609.39,-452.26 600.07,-447.22 598.96,-454.13"/>
</g>
<!-- Node16 -->
<g id="node16" class="node">
<title>Node16</title>
<g id="a_node16"><a xlink:href="help__printer__iface_8hpp.html" target="_top" xlink:title=" ">
<polygon fill="none" stroke="black" points="686.5,-168.5 686.5,-187.5 811.5,-187.5 811.5,-168.5 686.5,-168.5"/>
<text text-anchor="middle" x="749" y="-175.5" font-family="Helvetica,sans-Serif" font-size="10.00">help_printer_iface.hpp</text>
</a>
</g>
</g>
<!-- Node8&#45;&gt;Node16 -->
<g id="edge40" class="edge">
<title>Node8&#45;&gt;Node16</title>
<path fill="none" stroke="midnightblue" d="M675.5,-444.73C714.87,-428.9 772,-397.27 772,-347 772,-347 772,-347 772,-289 772,-250.56 758.38,-206.14 752.1,-187.71"/>
<polygon fill="midnightblue" stroke="midnightblue" points="673.99,-441.55 665.91,-448.41 676.5,-448.09 673.99,-441.55"/>
</g>
<!-- Node9&#45;&gt;Node10 -->
<g id="edge14" class="edge">
<title>Node9&#45;&gt;Node10</title>
<path fill="none" stroke="midnightblue" d="M828.46,-392.16C760.7,-380.55 644.15,-360.57 591.81,-351.6"/>
<polygon fill="midnightblue" stroke="midnightblue" points="828.05,-395.64 838.5,-393.88 829.23,-388.75 828.05,-395.64"/>
</g>
<!-- Node9&#45;&gt;Node12 -->
<g id="edge19" class="edge">
<title>Node9&#45;&gt;Node12</title>
<path fill="none" stroke="midnightblue" d="M869.5,-383.27C864.03,-374.05 857.58,-363.17 853.19,-355.75"/>
<polygon fill="midnightblue" stroke="midnightblue" points="866.61,-385.26 874.72,-392.08 872.63,-381.7 866.61,-385.26"/>
</g>
<!-- Node10&#45;&gt;Node2 -->
<g id="edge15" class="edge">
<title>Node10&#45;&gt;Node2</title>
<path fill="none" stroke="midnightblue" d="M541.34,-331.3C501.62,-308.3 422.66,-262.59 389.84,-243.59"/>
<polygon fill="midnightblue" stroke="midnightblue" points="539.68,-334.39 550.09,-336.37 543.19,-328.33 539.68,-334.39"/>
</g>
<!-- Node10&#45;&gt;Node7 -->
<g id="edge18" class="edge">
<title>Node10&#45;&gt;Node7</title>
<path fill="none" stroke="midnightblue" d="M566.43,-326.3C569.93,-280.64 578.79,-164.85 581.32,-131.88"/>
<polygon fill="midnightblue" stroke="midnightblue" points="562.94,-326.06 565.67,-336.3 569.92,-326.59 562.94,-326.06"/>
</g>
<!-- Node10&#45;&gt;Node11 -->
<g id="edge16" class="edge">
<title>Node10&#45;&gt;Node11</title>
<path fill="none" stroke="midnightblue" d="M528.09,-336.8C482.88,-326.75 406.63,-309.81 360.64,-299.59"/>
<polygon fill="midnightblue" stroke="midnightblue" points="527.55,-340.26 538.07,-339.01 529.06,-333.43 527.55,-340.26"/>
</g>
<!-- Node11&#45;&gt;Node2 -->
<g id="edge17" class="edge">
<title>Node11&#45;&gt;Node2</title>
<path fill="none" stroke="midnightblue" d="M337.98,-272.72C347.32,-263.2 358.75,-251.56 366.41,-243.75"/>
<polygon fill="midnightblue" stroke="midnightblue" points="335.26,-270.49 330.75,-280.08 340.25,-275.4 335.26,-270.49"/>
</g>
<!-- Node12&#45;&gt;Node5 -->
<g id="edge24" class="edge">
<title>Node12&#45;&gt;Node5</title>
<path fill="none" stroke="midnightblue" d="M839.92,-327.07C836.6,-318.96 833.07,-309.16 831,-300 818.03,-242.58 834.79,-224.98 820,-168 804.52,-108.35 767.98,-43.04 754.3,-19.8"/>
<polygon fill="midnightblue" stroke="midnightblue" points="836.7,-328.45 843.86,-336.26 843.13,-325.69 836.7,-328.45"/>
</g>
<!-- Node12&#45;&gt;Node6 -->
<g id="edge23" class="edge">
<title>Node12&#45;&gt;Node6</title>
<path fill="none" stroke="midnightblue" d="M819.17,-332.41C745.26,-300.12 550.44,-215.01 487.74,-187.62"/>
<polygon fill="midnightblue" stroke="midnightblue" points="817.8,-335.63 828.37,-336.42 820.61,-329.21 817.8,-335.63"/>
</g>
<!-- Node12&#45;&gt;Node13 -->
<g id="edge20" class="edge">
<title>Node12&#45;&gt;Node13</title>
<path fill="none" stroke="midnightblue" d="M857.34,-326.98C862.09,-317.82 867.66,-307.09 871.46,-299.75"/>
<polygon fill="midnightblue" stroke="midnightblue" points="854.12,-325.59 852.62,-336.08 860.33,-328.82 854.12,-325.59"/>
</g>
<!-- Node13&#45;&gt;Node2 -->
<g id="edge21" class="edge">
<title>Node13&#45;&gt;Node2</title>
<path fill="none" stroke="midnightblue" d="M830.34,-284.08C727.99,-273.05 482.82,-246.62 401.62,-237.87"/>
<polygon fill="midnightblue" stroke="midnightblue" points="830.05,-287.57 840.37,-285.16 830.8,-280.61 830.05,-287.57"/>
</g>
<!-- Node13&#45;&gt;Node5 -->
<g id="edge22" class="edge">
<title>Node13&#45;&gt;Node5</title>
<path fill="none" stroke="midnightblue" d="M876.55,-270.25C877.14,-248.36 878,-211.06 878,-179 878,-179 878,-179 878,-121 878,-90.2 875.21,-78.33 854,-56 836.38,-37.45 809.85,-26.17 787.87,-19.54"/>
<polygon fill="midnightblue" stroke="midnightblue" points="873.04,-270.35 876.26,-280.44 880.04,-270.55 873.04,-270.35"/>
</g>
<!-- Node14&#45;&gt;Node3 -->
<g id="edge30" class="edge">
<title>Node14&#45;&gt;Node3</title>
<path fill="none" stroke="midnightblue" d="M432.74,-383.25C421.04,-358.92 398.24,-314.3 373,-280 359.96,-262.27 347.13,-264.45 339,-244 335.72,-235.74 336.22,-232.44 339,-224 360.63,-158.33 421.45,-97.63 445.26,-75.67"/>
<polygon fill="midnightblue" stroke="midnightblue" points="429.61,-384.81 437.05,-392.35 435.93,-381.82 429.61,-384.81"/>
</g>
<!-- Node14&#45;&gt;Node6 -->
<g id="edge29" class="edge">
<title>Node14&#45;&gt;Node6</title>
<path fill="none" stroke="midnightblue" d="M444.06,-382.5C445.35,-374.38 446.83,-364.73 448,-356 456.64,-291.64 464.56,-213.76 467.13,-187.86"/>
<polygon fill="midnightblue" stroke="midnightblue" points="440.6,-381.96 442.45,-392.39 447.51,-383.08 440.6,-381.96"/>
</g>
<!-- Node14&#45;&gt;Node7 -->
<g id="edge31" class="edge">
<title>Node14&#45;&gt;Node7</title>
<path fill="none" stroke="midnightblue" d="M450.06,-383.31C454.3,-375.02 459.42,-365.01 464,-356 508.41,-268.71 561.88,-162.85 577.51,-131.89"/>
<polygon fill="midnightblue" stroke="midnightblue" points="446.86,-381.88 445.42,-392.38 453.09,-385.07 446.86,-381.88"/>
</g>
<!-- Node14&#45;&gt;Node10 -->
<g id="edge27" class="edge">
<title>Node14&#45;&gt;Node10</title>
<path fill="none" stroke="midnightblue" d="M470.01,-388.37C493.23,-378.26 525.16,-364.35 545.44,-355.52"/>
<polygon fill="midnightblue" stroke="midnightblue" points="468.42,-385.24 460.65,-392.44 471.21,-391.66 468.42,-385.24"/>
</g>
<!-- Node14&#45;&gt;Node11 -->
<g id="edge28" class="edge">
<title>Node14&#45;&gt;Node11</title>
<path fill="none" stroke="midnightblue" d="M424.31,-385.08C410.4,-371.85 390.01,-352.59 372,-336 358.08,-323.18 341.76,-308.57 331.64,-299.56"/>
<polygon fill="midnightblue" stroke="midnightblue" points="422.03,-387.74 431.69,-392.1 426.86,-382.67 422.03,-387.74"/>
</g>
<!-- Node15&#45;&gt;Node6 -->
<g id="edge35" class="edge">
<title>Node15&#45;&gt;Node6</title>
<path fill="none" stroke="midnightblue" d="M290.42,-383.68C275.84,-359.54 254.57,-314.82 271,-280 298.72,-221.26 375.7,-196.06 424.81,-185.71"/>
<polygon fill="midnightblue" stroke="midnightblue" points="287.64,-385.83 295.95,-392.41 293.55,-382.09 287.64,-385.83"/>
</g>
<!-- Node15&#45;&gt;Node10 -->
<g id="edge33" class="edge">
<title>Node15&#45;&gt;Node10</title>
<path fill="none" stroke="midnightblue" d="M353.66,-390.39C409.15,-379 495.16,-361.34 538.34,-352.47"/>
<polygon fill="midnightblue" stroke="midnightblue" points="352.76,-387 343.67,-392.44 354.17,-393.86 352.76,-387"/>
</g>
<!-- Node15&#45;&gt;Node11 -->
<g id="edge34" class="edge">
<title>Node15&#45;&gt;Node11</title>
<path fill="none" stroke="midnightblue" d="M305.39,-382.35C309.77,-358.25 317.22,-317.31 320.44,-299.59"/>
<polygon fill="midnightblue" stroke="midnightblue" points="301.91,-381.9 303.57,-392.37 308.8,-383.16 301.91,-381.9"/>
</g>
<!-- Node16&#45;&gt;Node5 -->
<g id="edge42" class="edge">
<title>Node16&#45;&gt;Node5</title>
<path fill="none" stroke="midnightblue" d="M749,-157.93C749,-121.92 749,-45.23 749,-19.57"/>
<polygon fill="midnightblue" stroke="midnightblue" points="745.5,-158.08 749,-168.08 752.5,-158.08 745.5,-158.08"/>
</g>
<!-- Node16&#45;&gt;Node7 -->
<g id="edge41" class="edge">
<title>Node16&#45;&gt;Node7</title>
<path fill="none" stroke="midnightblue" d="M712.83,-165.3C681.36,-155.13 636.51,-140.62 608.34,-131.52"/>
<polygon fill="midnightblue" stroke="midnightblue" points="711.95,-168.7 722.54,-168.44 714.1,-162.04 711.95,-168.7"/>
</g>
<!-- Node17&#45;&gt;Node3 -->
<g id="edge52" class="edge">
<title>Node17&#45;&gt;Node3</title>
<path fill="none" stroke="midnightblue" d="M196.92,-449.75C148,-442.37 81.83,-429.54 62,-412 38.93,-391.6 38,-377.8 38,-347 38,-347 38,-347 38,-233 38,-152.64 308.67,-94.02 413.88,-74.27"/>
<polygon fill="midnightblue" stroke="midnightblue" points="196.67,-453.25 207.08,-451.24 197.69,-446.32 196.67,-453.25"/>
</g>
<!-- Node17&#45;&gt;Node5 -->
<g id="edge54" class="edge">
<title>Node17&#45;&gt;Node5</title>
<path fill="none" stroke="midnightblue" d="M197.62,-446.78C145.7,-433.61 76,-405.12 76,-347 76,-347 76,-347 76,-121 76,-57.55 547.94,-23.23 701.41,-13.75"/>
<polygon fill="midnightblue" stroke="midnightblue" points="196.88,-450.2 207.42,-449.13 198.51,-443.39 196.88,-450.2"/>
</g>
<!-- Node17&#45;&gt;Node7 -->
<g id="edge53" class="edge">
<title>Node17&#45;&gt;Node7</title>
<path fill="none" stroke="midnightblue" d="M246.87,-438.39C244.53,-430.37 242.16,-420.82 241,-412 239.85,-403.19 240.18,-400.85 241,-392 248.25,-314.04 236.23,-276.85 294,-224 369.64,-154.79 495.48,-132.5 552.41,-125.75"/>
<polygon fill="midnightblue" stroke="midnightblue" points="243.6,-439.66 249.91,-448.17 250.29,-437.58 243.6,-439.66"/>
</g>
<!-- Node17&#45;&gt;Node10 -->
<g id="edge48" class="edge">
<title>Node17&#45;&gt;Node10</title>
<path fill="none" stroke="midnightblue" d="M308.72,-454.14C357.72,-449.83 429.93,-439.03 487,-412 516.63,-397.96 544.38,-370.01 557.34,-355.77"/>
<polygon fill="midnightblue" stroke="midnightblue" points="308.31,-450.66 298.63,-454.96 308.88,-457.63 308.31,-450.66"/>
</g>
<!-- Node17&#45;&gt;Node11 -->
<g id="edge50" class="edge">
<title>Node17&#45;&gt;Node11</title>
<path fill="none" stroke="midnightblue" d="M247.39,-438.51C244.3,-425.25 242,-407.13 247,-392 260.1,-352.39 295.4,-315.67 312.48,-299.57"/>
<polygon fill="midnightblue" stroke="midnightblue" points="244.06,-439.59 250.03,-448.34 250.82,-437.77 244.06,-439.59"/>
</g>
<!-- Node17&#45;&gt;Node12 -->
<g id="edge51" class="edge">
<title>Node17&#45;&gt;Node12</title>
<path fill="none" stroke="midnightblue" d="M308.81,-447.9C362.29,-439.09 445.25,-425.16 517,-412 621.26,-392.88 743.55,-368.3 806.26,-355.54"/>
<polygon fill="midnightblue" stroke="midnightblue" points="308.15,-444.47 298.85,-449.54 309.28,-451.37 308.15,-444.47"/>
</g>
<!-- Node17&#45;&gt;Node15 -->
<g id="edge49" class="edge">
<title>Node17&#45;&gt;Node15</title>
<path fill="none" stroke="midnightblue" d="M268.03,-440.43C276.62,-430.97 287.04,-419.48 294.06,-411.75"/>
<polygon fill="midnightblue" stroke="midnightblue" points="265.22,-438.33 261.09,-448.08 270.4,-443.03 265.22,-438.33"/>
</g>
</g>
</svg>
