<?xml version="1.0" encoding="UTF-8" standalone="no"?>
<!DOCTYPE svg PUBLIC "-//W3C//DTD SVG 1.1//EN"
 "http://www.w3.org/Graphics/SVG/1.1/DTD/svg11.dtd">
<!-- Generated by graphviz version 2.43.0 (0)
 -->
<!-- Title: types.hpp Pages: 1 -->
<!--zoomable 522 -->
<svg id="main" version="1.1" xmlns="http://www.w3.org/2000/svg" xmlns:xlink="http://www.w3.org/1999/xlink" xml:space="preserve" onload="init(evt)">
<style type="text/css"><![CDATA[
.edge:hover path { stroke: red; }
.edge:hover polygon { stroke: red; fill: red; }
]]></style>
<script type="text/javascript"><![CDATA[
var edges = document.getElementsByTagName('g');
if (edges && edges.length) {
  for (var i=0;i<edges.length;i++) {
    if (edges[i].id.substr(0,4)=='edge') {
      edges[i].setAttribute('class','edge');
    }
  }
}
]]></script>
        <defs>
                <circle id="rim" cx="0" cy="0" r="7"/>
                <circle id="rim2" cx="0" cy="0" r="3.5"/>
                <g id="zoomPlus">
                        <use xlink:href="#rim" fill="#404040">
                                <set attributeName="fill" to="#808080" begin="zoomplus.mouseover" end="zoomplus.mouseout"/>
                        </use>
                        <path d="M-4,0h8M0,-4v8" fill="none" stroke="white" stroke-width="1.5" pointer-events="none"/>
                </g>
                <g id="zoomMin">
                        <use xlink:href="#rim" fill="#404040">
                                <set attributeName="fill" to="#808080" begin="zoomminus.mouseover" end="zoomminus.mouseout"/>
                        </use>
                        <path d="M-4,0h8" fill="none" stroke="white" stroke-width="1.5" pointer-events="none"/>
                </g>
                <g id="dirArrow">
                        <path fill="none" stroke="white" stroke-width="1.5" d="M0,-3.0v7 M-2.5,-0.5L0,-3.0L2.5,-0.5"/>
                </g>
               <g id="resetDef">
                       <use xlink:href="#rim2" fill="#404040">
                               <set attributeName="fill" to="#808080" begin="reset.mouseover" end="reset.mouseout"/>
                       </use>
               </g>
        </defs>

<script type="text/javascript">
var viewWidth = 1148;
var viewHeight = 522;
var sectionId = 'dynsection-1';
</script>
<script xlink:href="svgpan.js"/>
<svg id="graph" class="graph">
<g id="viewport">
<title>types.hpp</title>
<!-- Node1 -->
<g id="node1" class="node">
<title>Node1</title>
<g id="a_node1"><a xlink:title=" ">
<polygon fill="#bfbfbf" stroke="black" points="557.5,-514 492.5,-514 492.5,-495 557.5,-495 557.5,-514"/>
<text text-anchor="middle" x="525" y="-502" font-family="Helvetica,sans-Serif" font-size="10.00">types.hpp</text>
</a>
</g>
</g>
<!-- Node2 -->
<g id="node2" class="node">
<title>Node2</title>
<g id="a_node2"><a xlink:href="all_8hpp.html" target="_top" xlink:title=" ">
<polygon fill="none" stroke="black" points="299,-19 249,-19 249,0 299,0 299,-19"/>
<text text-anchor="middle" x="274" y="-7" font-family="Helvetica,sans-Serif" font-size="10.00">all.hpp</text>
</a>
</g>
</g>
<!-- Node1&#45;&gt;Node2 -->
<g id="edge1" class="edge">
<title>Node1&#45;&gt;Node2</title>
<path fill="none" stroke="midnightblue" d="M482.16,-503.76C356.88,-503.39 0,-493.7 0,-395.5 0,-395.5 0,-395.5 0,-118.5 0,-65.32 180.88,-27.26 248.71,-14.86"/>
<polygon fill="midnightblue" stroke="midnightblue" points="482.15,-507.26 492.16,-503.77 482.16,-500.26 482.15,-507.26"/>
</g>
<!-- Node3 -->
<g id="node3" class="node">
<title>Node3</title>
<g id="a_node3"><a xlink:href="api_8hpp.html" target="_top" xlink:title=" ">
<polygon fill="none" stroke="black" points="783.5,-239 730.5,-239 730.5,-220 783.5,-220 783.5,-239"/>
<text text-anchor="middle" x="757" y="-227" font-family="Helvetica,sans-Serif" font-size="10.00">api.hpp</text>
</a>
</g>
</g>
<!-- Node1&#45;&gt;Node3 -->
<g id="edge2" class="edge">
<title>Node1&#45;&gt;Node3</title>
<path fill="none" stroke="midnightblue" d="M567.86,-501.32C658.9,-496.28 868.78,-482.46 936,-459 979.19,-443.93 1000.93,-444.07 1023,-404 1079.2,-301.98 861.52,-250.19 783.69,-235.2"/>
<polygon fill="midnightblue" stroke="midnightblue" points="567.41,-497.84 557.62,-501.87 567.79,-504.83 567.41,-497.84"/>
</g>
<!-- Node5 -->
<g id="node5" class="node">
<title>Node5</title>
<g id="a_node5"><a xlink:href="help__printer_8hpp.html" target="_top" xlink:title=" ">
<polygon fill="none" stroke="black" points="830.5,-19 735.5,-19 735.5,0 830.5,0 830.5,-19"/>
<text text-anchor="middle" x="783" y="-7" font-family="Helvetica,sans-Serif" font-size="10.00">help_printer.hpp</text>
</a>
</g>
</g>
<!-- Node1&#45;&gt;Node5 -->
<g id="edge47" class="edge">
<title>Node1&#45;&gt;Node5</title>
<path fill="none" stroke="midnightblue" d="M567.95,-502.33C693.29,-498.6 1052.67,-485.68 1098,-459 1127.16,-441.84 1140,-429.34 1140,-395.5 1140,-395.5 1140,-395.5 1140,-118.5 1140,-54.64 928.06,-25.07 830.78,-14.86"/>
<polygon fill="midnightblue" stroke="midnightblue" points="567.49,-498.84 557.6,-502.63 567.69,-505.83 567.49,-498.84"/>
</g>
<!-- Node6 -->
<g id="node6" class="node">
<title>Node6</title>
<g id="a_node6"><a xlink:href="command_8hpp.html" target="_top" xlink:title=" ">
<polygon fill="none" stroke="black" points="664,-184 578,-184 578,-165 664,-165 664,-184"/>
<text text-anchor="middle" x="621" y="-172" font-family="Helvetica,sans-Serif" font-size="10.00">command.hpp</text>
</a>
</g>
</g>
<!-- Node1&#45;&gt;Node6 -->
<g id="edge26" class="edge">
<title>Node1&#45;&gt;Node6</title>
<path fill="none" stroke="midnightblue" d="M482.27,-500.92C396.3,-495.3 209,-480.69 190,-459 184.44,-452.65 187.2,-447.97 190,-440 248.41,-273.48 480.8,-205.39 577.95,-183.82"/>
<polygon fill="midnightblue" stroke="midnightblue" points="482.27,-504.43 492.48,-501.58 482.72,-497.45 482.27,-504.43"/>
</g>
<!-- Node7 -->
<g id="node7" class="node">
<title>Node7</title>
<g id="a_node7"><a xlink:href="help_8hpp.html" target="_top" xlink:title=" ">
<polygon fill="none" stroke="black" points="512.5,-129 453.5,-129 453.5,-110 512.5,-110 512.5,-129"/>
<text text-anchor="middle" x="483" y="-117" font-family="Helvetica,sans-Serif" font-size="10.00">help.hpp</text>
</a>
</g>
</g>
<!-- Node1&#45;&gt;Node7 -->
<g id="edge46" class="edge">
<title>Node1&#45;&gt;Node7</title>
<path fill="none" stroke="midnightblue" d="M482.16,-501.06C394.57,-495.63 201.54,-481.24 182,-459 93.48,-358.25 143.36,-246.33 250,-165 281.6,-140.9 397.98,-127.85 453.35,-122.88"/>
<polygon fill="midnightblue" stroke="midnightblue" points="482.11,-504.56 492.3,-501.68 482.53,-497.57 482.11,-504.56"/>
</g>
<!-- Node8 -->
<g id="node8" class="node">
<title>Node8</title>
<g id="a_node8"><a xlink:href="arg_8hpp.html" target="_top" xlink:title=" ">
<polygon fill="none" stroke="black" points="587.5,-349 534.5,-349 534.5,-330 587.5,-330 587.5,-349"/>
<text text-anchor="middle" x="561" y="-337" font-family="Helvetica,sans-Serif" font-size="10.00">arg.hpp</text>
</a>
</g>
</g>
<!-- Node1&#45;&gt;Node8 -->
<g id="edge13" class="edge">
<title>Node1&#45;&gt;Node8</title>
<path fill="none" stroke="midnightblue" d="M529.12,-484.83C536.89,-449.67 553.4,-374.9 559.05,-349.31"/>
<polygon fill="midnightblue" stroke="midnightblue" points="525.67,-484.22 526.94,-494.74 532.51,-485.73 525.67,-484.22"/>
</g>
<!-- Node9 -->
<g id="node9" class="node">
<title>Node9</title>
<g id="a_node9"><a xlink:href="multi__arg_8hpp.html" target="_top" xlink:title=" ">
<polygon fill="none" stroke="black" points="539,-294 455,-294 455,-275 539,-275 539,-294"/>
<text text-anchor="middle" x="497" y="-282" font-family="Helvetica,sans-Serif" font-size="10.00">multi_arg.hpp</text>
</a>
</g>
</g>
<!-- Node1&#45;&gt;Node9 -->
<g id="edge48" class="edge">
<title>Node1&#45;&gt;Node9</title>
<path fill="none" stroke="midnightblue" d="M522.6,-484.85C516.82,-439.82 502.27,-326.53 498.12,-294.22"/>
<polygon fill="midnightblue" stroke="midnightblue" points="519.16,-485.48 523.9,-494.95 526.1,-484.59 519.16,-485.48"/>
</g>
<!-- Node10 -->
<g id="node10" class="node">
<title>Node10</title>
<g id="a_node10"><a xlink:href="arg__iface_8hpp.html" target="_top" xlink:title=" ">
<polygon fill="none" stroke="black" points="997.5,-404 914.5,-404 914.5,-385 997.5,-385 997.5,-404"/>
<text text-anchor="middle" x="956" y="-392" font-family="Helvetica,sans-Serif" font-size="10.00">arg_iface.hpp</text>
</a>
</g>
</g>
<!-- Node1&#45;&gt;Node10 -->
<g id="edge18" class="edge">
<title>Node1&#45;&gt;Node10</title>
<path fill="none" stroke="midnightblue" d="M567.84,-496.66C614.09,-488.93 689.76,-475.28 754,-459 819.21,-442.47 894.41,-417.12 932,-404.01"/>
<polygon fill="midnightblue" stroke="midnightblue" points="567.16,-493.22 557.87,-498.31 568.31,-500.13 567.16,-493.22"/>
</g>
<!-- Node11 -->
<g id="node11" class="node">
<title>Node11</title>
<g id="a_node11"><a xlink:href="group__iface_8hpp.html" target="_top" xlink:title=" ">
<polygon fill="none" stroke="black" points="971.5,-349 876.5,-349 876.5,-330 971.5,-330 971.5,-349"/>
<text text-anchor="middle" x="924" y="-337" font-family="Helvetica,sans-Serif" font-size="10.00">group_iface.hpp</text>
</a>
</g>
</g>
<!-- Node1&#45;&gt;Node11 -->
<g id="edge44" class="edge">
<title>Node1&#45;&gt;Node11</title>
<path fill="none" stroke="midnightblue" d="M567.77,-501.53C675.55,-495.57 953.55,-473.6 1007,-404 1025.68,-379.68 983.52,-359.8 952.71,-349.09"/>
<polygon fill="midnightblue" stroke="midnightblue" points="567.38,-498.05 557.58,-502.08 567.75,-505.04 567.38,-498.05"/>
</g>
<!-- Node12 -->
<g id="node12" class="node">
<title>Node12</title>
<g id="a_node12"><a xlink:href="groups_8hpp.html" target="_top" xlink:title=" ">
<polygon fill="none" stroke="black" points="1111.5,-294 1040.5,-294 1040.5,-275 1111.5,-275 1111.5,-294"/>
<text text-anchor="middle" x="1076" y="-282" font-family="Helvetica,sans-Serif" font-size="10.00">groups.hpp</text>
</a>
</g>
</g>
<!-- Node1&#45;&gt;Node12 -->
<g id="edge45" class="edge">
<title>Node1&#45;&gt;Node12</title>
<path fill="none" stroke="midnightblue" d="M567.74,-503.31C691.51,-502.34 1043.61,-496.27 1078,-459 1121.72,-411.62 1090.95,-322.21 1079.67,-294.15"/>
<polygon fill="midnightblue" stroke="midnightblue" points="567.49,-499.82 557.52,-503.39 567.54,-506.82 567.49,-499.82"/>
</g>
<!-- Node13 -->
<g id="node13" class="node">
<title>Node13</title>
<g id="a_node13"><a xlink:href="context_8hpp.html" target="_top" xlink:title=" ">
<polygon fill="none" stroke="black" points="330,-404 256,-404 256,-385 330,-385 330,-404"/>
<text text-anchor="middle" x="293" y="-392" font-family="Helvetica,sans-Serif" font-size="10.00">context.hpp</text>
</a>
</g>
</g>
<!-- Node1&#45;&gt;Node13 -->
<g id="edge27" class="edge">
<title>Node1&#45;&gt;Node13</title>
<path fill="none" stroke="midnightblue" d="M497.22,-490.57C449.18,-468.21 351.88,-422.91 311.36,-404.05"/>
<polygon fill="midnightblue" stroke="midnightblue" points="495.86,-493.8 506.41,-494.84 498.82,-487.45 495.86,-493.8"/>
</g>
<!-- Node14 -->
<g id="node14" class="node">
<title>Node14</title>
<g id="a_node14"><a xlink:href="exceptions_8hpp.html" target="_top" xlink:title=" ">
<polygon fill="none" stroke="black" points="289.5,-459 198.5,-459 198.5,-440 289.5,-440 289.5,-459"/>
<text text-anchor="middle" x="244" y="-447" font-family="Helvetica,sans-Serif" font-size="10.00">exceptions.hpp</text>
</a>
</g>
</g>
<!-- Node1&#45;&gt;Node14 -->
<g id="edge33" class="edge">
<title>Node1&#45;&gt;Node14</title>
<path fill="none" stroke="midnightblue" d="M482.57,-495.5C430.47,-485.67 342.49,-469.08 289.17,-459.02"/>
<polygon fill="midnightblue" stroke="midnightblue" points="482.02,-498.95 492.49,-497.37 483.31,-492.08 482.02,-498.95"/>
</g>
<!-- Node15 -->
<g id="node15" class="node">
<title>Node15</title>
<g id="a_node15"><a xlink:href="value__utils_8hpp.html" target="_top" xlink:title=" ">
<polygon fill="none" stroke="black" points="439.5,-404 348.5,-404 348.5,-385 439.5,-385 439.5,-404"/>
<text text-anchor="middle" x="394" y="-392" font-family="Helvetica,sans-Serif" font-size="10.00">value_utils.hpp</text>
</a>
</g>
</g>
<!-- Node1&#45;&gt;Node15 -->
<g id="edge63" class="edge">
<title>Node1&#45;&gt;Node15</title>
<path fill="none" stroke="midnightblue" d="M506.45,-488.21C478.54,-465.2 426.68,-422.44 404.5,-404.16"/>
<polygon fill="midnightblue" stroke="midnightblue" points="504.34,-491 514.28,-494.66 508.79,-485.6 504.34,-491"/>
</g>
<!-- Node16 -->
<g id="node16" class="node">
<title>Node16</title>
<g id="a_node16"><a xlink:href="utils_8hpp.html" target="_top" xlink:title=" ">
<polygon fill="none" stroke="black" points="744.5,-459 685.5,-459 685.5,-440 744.5,-440 744.5,-459"/>
<text text-anchor="middle" x="715" y="-447" font-family="Helvetica,sans-Serif" font-size="10.00">utils.hpp</text>
</a>
</g>
</g>
<!-- Node1&#45;&gt;Node16 -->
<g id="edge49" class="edge">
<title>Node1&#45;&gt;Node16</title>
<path fill="none" stroke="midnightblue" d="M565.23,-492.28C601.24,-482.23 653.2,-467.74 685.49,-458.73"/>
<polygon fill="midnightblue" stroke="midnightblue" points="564.22,-488.93 555.53,-494.98 566.1,-495.67 564.22,-488.93"/>
</g>
<!-- Node4 -->
<g id="node4" class="node">
<title>Node4</title>
<g id="a_node4"><a xlink:href="cmd__line_8hpp.html" target="_top" xlink:title=" ">
<polygon fill="none" stroke="black" points="591,-74 509,-74 509,-55 591,-55 591,-74"/>
<text text-anchor="middle" x="550" y="-62" font-family="Helvetica,sans-Serif" font-size="10.00">cmd_line.hpp</text>
</a>
</g>
</g>
<!-- Node3&#45;&gt;Node4 -->
<g id="edge3" class="edge">
<title>Node3&#45;&gt;Node4</title>
<path fill="none" stroke="midnightblue" d="M738.07,-213.59C695.73,-180.25 594.49,-100.53 560.98,-74.15"/>
<polygon fill="midnightblue" stroke="midnightblue" points="736.14,-216.53 746.16,-219.97 740.47,-211.03 736.14,-216.53"/>
</g>
<!-- Node3&#45;&gt;Node6 -->
<g id="edge7" class="edge">
<title>Node3&#45;&gt;Node6</title>
<path fill="none" stroke="midnightblue" d="M720.86,-216.65C693.92,-206.75 658.52,-192.87 637.78,-184.03"/>
<polygon fill="midnightblue" stroke="midnightblue" points="719.77,-219.98 730.36,-220.1 722.16,-213.4 719.77,-219.98"/>
</g>
<!-- Node4&#45;&gt;Node2 -->
<g id="edge4" class="edge">
<title>Node4&#45;&gt;Node2</title>
<path fill="none" stroke="midnightblue" d="M499.07,-53.72C439.79,-42.34 344.28,-24 299.16,-15.33"/>
<polygon fill="midnightblue" stroke="midnightblue" points="498.5,-57.17 508.98,-55.62 499.82,-50.3 498.5,-57.17"/>
</g>
<!-- Node4&#45;&gt;Node5 -->
<g id="edge5" class="edge">
<title>Node4&#45;&gt;Node5</title>
<path fill="none" stroke="midnightblue" d="M592.22,-52.63C634.17,-42.7 697.98,-28.22 740.14,-19.08"/>
<polygon fill="midnightblue" stroke="midnightblue" points="591.24,-49.26 582.32,-54.98 592.86,-56.07 591.24,-49.26"/>
</g>
<!-- Node5&#45;&gt;Node4 -->
<g id="edge6" class="edge">
<title>Node5&#45;&gt;Node4</title>
<path fill="none" stroke="midnightblue" d="M740.96,-21.33C698.47,-31.39 633.4,-46.15 591.2,-55.28"/>
<polygon fill="midnightblue" stroke="midnightblue" points="741.8,-24.73 750.72,-19.01 740.18,-17.92 741.8,-24.73"/>
</g>
<!-- Node6&#45;&gt;Node3 -->
<g id="edge8" class="edge">
<title>Node6&#45;&gt;Node3</title>
<path fill="none" stroke="midnightblue" d="M657.89,-187.62C684.75,-197.51 719.73,-211.23 740.26,-219.98"/>
<polygon fill="midnightblue" stroke="midnightblue" points="658.99,-184.3 648.4,-184.17 656.6,-190.88 658.99,-184.3"/>
</g>
<!-- Node6&#45;&gt;Node4 -->
<g id="edge9" class="edge">
<title>Node6&#45;&gt;Node4</title>
<path fill="none" stroke="midnightblue" d="M609.54,-156.07C594.14,-132.64 567.35,-91.89 555.69,-74.16"/>
<polygon fill="midnightblue" stroke="midnightblue" points="606.77,-158.23 615.19,-164.66 612.62,-154.38 606.77,-158.23"/>
</g>
<!-- Node6&#45;&gt;Node5 -->
<g id="edge12" class="edge">
<title>Node6&#45;&gt;Node5</title>
<path fill="none" stroke="midnightblue" d="M636.92,-157.49C670.6,-123.59 748.15,-45.57 774.25,-19.31"/>
<polygon fill="midnightblue" stroke="midnightblue" points="634.28,-155.18 629.71,-164.74 639.24,-160.11 634.28,-155.18"/>
</g>
<!-- Node6&#45;&gt;Node7 -->
<g id="edge10" class="edge">
<title>Node6&#45;&gt;Node7</title>
<path fill="none" stroke="midnightblue" d="M589.21,-161.29C563.63,-151.47 528.33,-137.91 505.58,-129.17"/>
<polygon fill="midnightblue" stroke="midnightblue" points="588.24,-164.67 598.83,-164.98 590.75,-158.13 588.24,-164.67"/>
</g>
<!-- Node7&#45;&gt;Node4 -->
<g id="edge11" class="edge">
<title>Node7&#45;&gt;Node4</title>
<path fill="none" stroke="midnightblue" d="M501.83,-103.6C513.84,-94.11 528.97,-82.13 539.04,-74.17"/>
<polygon fill="midnightblue" stroke="midnightblue" points="499.44,-101.04 493.76,-109.98 503.78,-106.53 499.44,-101.04"/>
</g>
<!-- Node8&#45;&gt;Node3 -->
<g id="edge14" class="edge">
<title>Node8&#45;&gt;Node3</title>
<path fill="none" stroke="midnightblue" d="M585.5,-325C626.42,-302.45 707.54,-257.75 741.49,-239.05"/>
<polygon fill="midnightblue" stroke="midnightblue" points="583.78,-321.95 576.71,-329.84 587.16,-328.08 583.78,-321.95"/>
</g>
<!-- Node8&#45;&gt;Node7 -->
<g id="edge15" class="edge">
<title>Node8&#45;&gt;Node7</title>
<path fill="none" stroke="midnightblue" d="M560.7,-319.57C559.68,-306.17 556.61,-288.3 548,-275 533.12,-252.01 511.99,-262.54 498,-239 476.59,-202.99 479.63,-150.03 481.86,-129.29"/>
<polygon fill="midnightblue" stroke="midnightblue" points="557.22,-320.12 561.16,-329.96 564.21,-319.82 557.22,-320.12"/>
</g>
<!-- Node8&#45;&gt;Node9 -->
<g id="edge16" class="edge">
<title>Node8&#45;&gt;Node9</title>
<path fill="none" stroke="midnightblue" d="M543.01,-323.6C531.54,-314.11 517.09,-302.13 507.47,-294.17"/>
<polygon fill="midnightblue" stroke="midnightblue" points="540.78,-326.3 550.72,-329.98 545.25,-320.91 540.78,-326.3"/>
</g>
<!-- Node9&#45;&gt;Node3 -->
<g id="edge17" class="edge">
<title>Node9&#45;&gt;Node3</title>
<path fill="none" stroke="midnightblue" d="M548.64,-272.97C603.41,-261.81 687.79,-244.61 730.41,-235.92"/>
<polygon fill="midnightblue" stroke="midnightblue" points="547.87,-269.56 538.77,-274.98 549.27,-276.42 547.87,-269.56"/>
</g>
<!-- Node10&#45;&gt;Node8 -->
<g id="edge19" class="edge">
<title>Node10&#45;&gt;Node8</title>
<path fill="none" stroke="midnightblue" d="M904.53,-386.59C819.54,-375.19 652.81,-352.82 587.83,-344.1"/>
<polygon fill="midnightblue" stroke="midnightblue" points="904.1,-390.07 914.47,-387.93 905.03,-383.13 904.1,-390.07"/>
</g>
<!-- Node10&#45;&gt;Node11 -->
<g id="edge20" class="edge">
<title>Node10&#45;&gt;Node11</title>
<path fill="none" stroke="midnightblue" d="M945.5,-376.1C940.03,-367.04 933.58,-356.37 929.19,-349.09"/>
<polygon fill="midnightblue" stroke="midnightblue" points="942.55,-378 950.72,-384.75 948.54,-374.38 942.55,-378"/>
</g>
<!-- Node11&#45;&gt;Node5 -->
<g id="edge25" class="edge">
<title>Node11&#45;&gt;Node5</title>
<path fill="none" stroke="midnightblue" d="M922.33,-319.78C920.55,-298.26 918,-261.86 918,-230.5 918,-230.5 918,-230.5 918,-118.5 918,-87.29 910.51,-76.62 888,-55 869.22,-36.97 842.03,-25.72 820.02,-19.04"/>
<polygon fill="midnightblue" stroke="midnightblue" points="918.85,-320.17 923.19,-329.83 925.82,-319.57 918.85,-320.17"/>
</g>
<!-- Node11&#45;&gt;Node6 -->
<g id="edge21" class="edge">
<title>Node11&#45;&gt;Node6</title>
<path fill="none" stroke="midnightblue" d="M895.73,-325.7C856.23,-307.57 782.56,-272.84 722,-239 689.45,-220.82 652.74,-196.81 633.81,-184.16"/>
<polygon fill="midnightblue" stroke="midnightblue" points="894.46,-328.97 905.01,-329.95 897.37,-322.61 894.46,-328.97"/>
</g>
<!-- Node11&#45;&gt;Node12 -->
<g id="edge22" class="edge">
<title>Node11&#45;&gt;Node12</title>
<path fill="none" stroke="midnightblue" d="M957.93,-326.67C986.27,-316.79 1026.02,-302.93 1051.39,-294.08"/>
<polygon fill="midnightblue" stroke="midnightblue" points="956.71,-323.39 948.42,-329.98 959.02,-330 956.71,-323.39"/>
</g>
<!-- Node12&#45;&gt;Node3 -->
<g id="edge23" class="edge">
<title>Node12&#45;&gt;Node3</title>
<path fill="none" stroke="midnightblue" d="M1030.46,-275.75C1028.95,-275.5 1027.47,-275.25 1026,-275 937.3,-260.12 832.09,-242.82 783.73,-234.88"/>
<polygon fill="midnightblue" stroke="midnightblue" points="1030.05,-279.23 1040.49,-277.44 1031.22,-272.33 1030.05,-279.23"/>
</g>
<!-- Node12&#45;&gt;Node5 -->
<g id="edge24" class="edge">
<title>Node12&#45;&gt;Node5</title>
<path fill="none" stroke="midnightblue" d="M1060.16,-267.38C1042.38,-247.52 1016,-211.91 1016,-175.5 1016,-175.5 1016,-175.5 1016,-118.5 1016,-37.58 898.88,-17.11 830.71,-12.06"/>
<polygon fill="midnightblue" stroke="midnightblue" points="1057.77,-269.95 1067.15,-274.89 1062.89,-265.18 1057.77,-269.95"/>
</g>
<!-- Node13&#45;&gt;Node4 -->
<g id="edge29" class="edge">
<title>Node13&#45;&gt;Node4</title>
<path fill="none" stroke="midnightblue" d="M268.47,-379.3C240.92,-361.31 200,-327.52 200,-285.5 200,-285.5 200,-285.5 200,-173.5 200,-109.51 416.3,-79.39 508.82,-69.43"/>
<polygon fill="midnightblue" stroke="midnightblue" points="266.89,-382.44 277.22,-384.79 270.61,-376.51 266.89,-382.44"/>
</g>
<!-- Node13&#45;&gt;Node6 -->
<g id="edge30" class="edge">
<title>Node13&#45;&gt;Node6</title>
<path fill="none" stroke="midnightblue" d="M307.97,-377.61C331.35,-353.4 378.66,-306.74 425,-275 484.5,-234.24 562.98,-199.43 599.98,-184"/>
<polygon fill="midnightblue" stroke="midnightblue" points="305.38,-375.26 301,-384.91 310.44,-380.1 305.38,-375.26"/>
</g>
<!-- Node13&#45;&gt;Node7 -->
<g id="edge31" class="edge">
<title>Node13&#45;&gt;Node7</title>
<path fill="none" stroke="midnightblue" d="M288.26,-374.91C283.23,-353.49 276,-317.2 276,-285.5 276,-285.5 276,-285.5 276,-228.5 276,-149.46 396.1,-128.17 453.34,-122.51"/>
<polygon fill="midnightblue" stroke="midnightblue" points="284.93,-376.01 290.71,-384.89 291.73,-374.35 284.93,-376.01"/>
</g>
<!-- Node13&#45;&gt;Node8 -->
<g id="edge28" class="edge">
<title>Node13&#45;&gt;Node8</title>
<path fill="none" stroke="midnightblue" d="M340.35,-384.14C396.72,-372.99 488.89,-354.76 534.18,-345.8"/>
<polygon fill="midnightblue" stroke="midnightblue" points="339.4,-380.76 330.26,-386.13 340.75,-387.62 339.4,-380.76"/>
</g>
<!-- Node13&#45;&gt;Node9 -->
<g id="edge32" class="edge">
<title>Node13&#45;&gt;Node9</title>
<path fill="none" stroke="midnightblue" d="M318.23,-380.14C360.74,-357.64 445.45,-312.79 480.86,-294.05"/>
<polygon fill="midnightblue" stroke="midnightblue" points="316.55,-377.07 309.35,-384.84 319.82,-383.26 316.55,-377.07"/>
</g>
<!-- Node14&#45;&gt;Node4 -->
<g id="edge35" class="edge">
<title>Node14&#45;&gt;Node4</title>
<path fill="none" stroke="midnightblue" d="M222.69,-433.79C188.21,-408.06 124,-351.31 124,-285.5 124,-285.5 124,-285.5 124,-173.5 124,-94.63 401.86,-72.71 508.77,-67.2"/>
<polygon fill="midnightblue" stroke="midnightblue" points="221.01,-436.89 231.16,-439.93 225.12,-431.22 221.01,-436.89"/>
</g>
<!-- Node14&#45;&gt;Node5 -->
<g id="edge38" class="edge">
<title>Node14&#45;&gt;Node5</title>
<path fill="none" stroke="midnightblue" d="M206.6,-436.54C149.72,-415.74 48,-367.12 48,-285.5 48,-285.5 48,-285.5 48,-118.5 48,-48.77 572.47,-19.78 735.34,-12.46"/>
<polygon fill="midnightblue" stroke="midnightblue" points="205.74,-439.95 216.33,-439.99 208.08,-433.35 205.74,-439.95"/>
</g>
<!-- Node14&#45;&gt;Node7 -->
<g id="edge37" class="edge">
<title>Node14&#45;&gt;Node7</title>
<path fill="none" stroke="midnightblue" d="M239.34,-429.73C237.61,-421.84 235.85,-412.53 235,-404 234.16,-395.6 234.87,-393.44 235,-385 235.67,-340.76 238,-329.74 238,-285.5 238,-285.5 238,-285.5 238,-228.5 238,-135.3 388.28,-121.84 453.45,-120.39"/>
<polygon fill="midnightblue" stroke="midnightblue" points="235.99,-430.78 241.68,-439.71 242.8,-429.18 235.99,-430.78"/>
</g>
<!-- Node14&#45;&gt;Node8 -->
<g id="edge34" class="edge">
<title>Node14&#45;&gt;Node8</title>
<path fill="none" stroke="midnightblue" d="M299.55,-441.09C341.55,-434.39 400.12,-422.66 449,-404 487.63,-389.25 528.92,-362.66 548.85,-349.04"/>
<polygon fill="midnightblue" stroke="midnightblue" points="298.86,-437.66 289.51,-442.65 299.93,-444.58 298.86,-437.66"/>
</g>
<!-- Node14&#45;&gt;Node9 -->
<g id="edge39" class="edge">
<title>Node14&#45;&gt;Node9</title>
<path fill="none" stroke="midnightblue" d="M239.92,-429.63C238.08,-416.02 238.01,-397.86 247,-385 294.65,-316.86 396.9,-295.37 454.79,-288.6"/>
<polygon fill="midnightblue" stroke="midnightblue" points="236.53,-430.54 241.72,-439.78 243.42,-429.32 236.53,-430.54"/>
</g>
<!-- Node14&#45;&gt;Node11 -->
<g id="edge36" class="edge">
<title>Node14&#45;&gt;Node11</title>
<path fill="none" stroke="midnightblue" d="M299.85,-439.63C430.48,-418.88 754.1,-367.48 876.27,-348.08"/>
<polygon fill="midnightblue" stroke="midnightblue" points="299,-436.22 289.67,-441.25 300.1,-443.13 299,-436.22"/>
</g>
<!-- Node14&#45;&gt;Node15 -->
<g id="edge40" class="edge">
<title>Node14&#45;&gt;Node15</title>
<path fill="none" stroke="midnightblue" d="M277.82,-436.55C305.68,-426.71 344.51,-412.98 369.46,-404.17"/>
<polygon fill="midnightblue" stroke="midnightblue" points="276.36,-433.35 268.1,-439.98 278.69,-439.95 276.36,-433.35"/>
</g>
<!-- Node15&#45;&gt;Node6 -->
<g id="edge42" class="edge">
<title>Node15&#45;&gt;Node6</title>
<path fill="none" stroke="midnightblue" d="M396.92,-374.56C402.01,-348.15 415.11,-300.6 446,-275 500.79,-229.6 550.1,-287.68 602,-239 617.44,-224.51 620.5,-198.05 621,-184.31"/>
<polygon fill="midnightblue" stroke="midnightblue" points="393.41,-374.31 395.15,-384.76 400.3,-375.51 393.41,-374.31"/>
</g>
<!-- Node15&#45;&gt;Node8 -->
<g id="edge41" class="edge">
<title>Node15&#45;&gt;Node8</title>
<path fill="none" stroke="midnightblue" d="M430.49,-381.92C461.79,-371.99 506.14,-357.91 534.24,-348.99"/>
<polygon fill="midnightblue" stroke="midnightblue" points="429.3,-378.62 420.83,-384.98 431.42,-385.3 429.3,-378.62"/>
</g>
<!-- Node15&#45;&gt;Node9 -->
<g id="edge43" class="edge">
<title>Node15&#45;&gt;Node9</title>
<path fill="none" stroke="midnightblue" d="M411.37,-378.24C420.68,-369.84 432.23,-359.11 442,-349 460.04,-330.34 479.59,-306.93 489.82,-294.39"/>
<polygon fill="midnightblue" stroke="midnightblue" points="408.99,-375.67 403.86,-384.93 413.65,-380.89 408.99,-375.67"/>
</g>
<!-- Node16&#45;&gt;Node4 -->
<g id="edge52" class="edge">
<title>Node16&#45;&gt;Node4</title>
<path fill="none" stroke="midnightblue" d="M705.97,-430.75C699.43,-417.97 690.3,-400.35 682,-385 633.25,-294.85 602.75,-280.77 569,-184 555.21,-144.46 551.36,-93.96 550.34,-74.08"/>
<polygon fill="midnightblue" stroke="midnightblue" points="702.94,-432.51 710.61,-439.83 709.18,-429.33 702.94,-432.51"/>
</g>
<!-- Node16&#45;&gt;Node5 -->
<g id="edge57" class="edge">
<title>Node16&#45;&gt;Node5</title>
<path fill="none" stroke="midnightblue" d="M754.03,-437.02C771.54,-430.05 791.12,-419.45 804,-404 824.72,-379.16 843.48,-293.85 855,-184 862.11,-116.21 809.62,-43.47 790.11,-19.04"/>
<polygon fill="midnightblue" stroke="midnightblue" points="752.73,-433.77 744.56,-440.52 755.16,-440.33 752.73,-433.77"/>
</g>
<!-- Node16&#45;&gt;Node6 -->
<g id="edge53" class="edge">
<title>Node16&#45;&gt;Node6</title>
<path fill="none" stroke="midnightblue" d="M730.92,-432.34C737.57,-424.47 744.54,-414.46 748,-404 758.32,-372.77 759.09,-360.96 748,-330 735.53,-295.19 655.89,-211.35 629.49,-184.17"/>
<polygon fill="midnightblue" stroke="midnightblue" points="728.14,-430.2 724.02,-439.96 733.33,-434.9 728.14,-430.2"/>
</g>
<!-- Node16&#45;&gt;Node7 -->
<g id="edge56" class="edge">
<title>Node16&#45;&gt;Node7</title>
<path fill="none" stroke="midnightblue" d="M718.4,-429.98C721.94,-405.76 725.09,-362.58 710,-330 685.32,-276.72 536.74,-161.28 494.31,-129.02"/>
<polygon fill="midnightblue" stroke="midnightblue" points="714.93,-429.51 716.76,-439.94 721.84,-430.65 714.93,-429.51"/>
</g>
<!-- Node16&#45;&gt;Node8 -->
<g id="edge50" class="edge">
<title>Node16&#45;&gt;Node8</title>
<path fill="none" stroke="midnightblue" d="M691.76,-434.69C677.72,-426.16 659.59,-414.81 644,-404 617.17,-385.39 587.03,-361.55 571.51,-349.05"/>
<polygon fill="midnightblue" stroke="midnightblue" points="689.96,-437.69 700.33,-439.85 693.57,-431.69 689.96,-437.69"/>
</g>
<!-- Node16&#45;&gt;Node9 -->
<g id="edge61" class="edge">
<title>Node16&#45;&gt;Node9</title>
<path fill="none" stroke="midnightblue" d="M701.93,-431.9C681.66,-407.06 640.44,-359.92 597,-330 573.84,-314.05 544.03,-301.67 523.01,-294.06"/>
<polygon fill="midnightblue" stroke="midnightblue" points="699.42,-434.37 708.41,-439.98 704.88,-429.99 699.42,-434.37"/>
</g>
<!-- Node16&#45;&gt;Node10 -->
<g id="edge51" class="edge">
<title>Node16&#45;&gt;Node10</title>
<path fill="none" stroke="midnightblue" d="M754.51,-439.81C799.44,-429.93 872.33,-413.9 917.03,-404.07"/>
<polygon fill="midnightblue" stroke="midnightblue" points="753.57,-436.43 744.55,-442 755.07,-443.27 753.57,-436.43"/>
</g>
<!-- Node16&#45;&gt;Node11 -->
<g id="edge55" class="edge">
<title>Node16&#45;&gt;Node11</title>
<path fill="none" stroke="midnightblue" d="M754.67,-442.1C785.59,-435.84 828.72,-424.2 862,-404 886.23,-389.29 907.66,-362.92 917.8,-349.25"/>
<polygon fill="midnightblue" stroke="midnightblue" points="753.84,-438.7 744.68,-444.03 755.16,-445.57 753.84,-438.7"/>
</g>
<!-- Node16&#45;&gt;Node13 -->
<g id="edge54" class="edge">
<title>Node16&#45;&gt;Node13</title>
<path fill="none" stroke="midnightblue" d="M674.9,-444.55C606.18,-437.6 461.55,-422.19 340,-404 336.8,-403.52 333.49,-402.99 330.17,-402.44"/>
<polygon fill="midnightblue" stroke="midnightblue" points="674.96,-448.07 685.26,-445.59 675.66,-441.11 674.96,-448.07"/>
</g>
<!-- Node16&#45;&gt;Node15 -->
<g id="edge62" class="edge">
<title>Node16&#45;&gt;Node15</title>
<path fill="none" stroke="midnightblue" d="M675.2,-441.93C615.4,-432.05 502.67,-413.44 439.63,-403.03"/>
<polygon fill="midnightblue" stroke="midnightblue" points="674.94,-445.43 685.38,-443.61 676.08,-438.53 674.94,-445.43"/>
</g>
<!-- Node17 -->
<g id="node17" class="node">
<title>Node17</title>
<g id="a_node17"><a xlink:href="help__printer__iface_8hpp.html" target="_top" xlink:title=" ">
<polygon fill="none" stroke="black" points="845.5,-184 720.5,-184 720.5,-165 845.5,-165 845.5,-184"/>
<text text-anchor="middle" x="783" y="-172" font-family="Helvetica,sans-Serif" font-size="10.00">help_printer_iface.hpp</text>
</a>
</g>
</g>
<!-- Node16&#45;&gt;Node17 -->
<g id="edge58" class="edge">
<title>Node16&#45;&gt;Node17</title>
<path fill="none" stroke="midnightblue" d="M749.3,-435.49C763.16,-428.39 777.8,-418.1 786,-404 829.47,-329.23 796.73,-216.1 786.05,-184.17"/>
<polygon fill="midnightblue" stroke="midnightblue" points="747.47,-432.49 739.92,-439.91 750.45,-438.82 747.47,-432.49"/>
</g>
<!-- Node17&#45;&gt;Node5 -->
<g id="edge60" class="edge">
<title>Node17&#45;&gt;Node5</title>
<path fill="none" stroke="midnightblue" d="M783,-154.37C783,-119.03 783,-44.79 783,-19.31"/>
<polygon fill="midnightblue" stroke="midnightblue" points="779.5,-154.74 783,-164.74 786.5,-154.74 779.5,-154.74"/>
</g>
<!-- Node17&#45;&gt;Node7 -->
<g id="edge59" class="edge">
<title>Node17&#45;&gt;Node7</title>
<path fill="none" stroke="midnightblue" d="M724.93,-163.24C661.43,-152.02 562.15,-134.48 512.85,-125.77"/>
<polygon fill="midnightblue" stroke="midnightblue" points="724.34,-166.69 734.8,-164.98 725.56,-159.8 724.34,-166.69"/>
</g>
</g>
</svg>
        <g id="navigator" transform="translate(0 0)" fill="#404254">
                <rect fill="#f2f5e9" fill-opacity="0.5" stroke="#606060" stroke-width=".5" x="0" y="0" width="60" height="60"/>
                <use id="zoomplus" xlink:href="#zoomPlus" x="17" y="9" onmousedown="handleZoom(evt,'in')"/>
                <use id="zoomminus" xlink:href="#zoomMin" x="42" y="9" onmousedown="handleZoom(evt,'out')"/>
                <use id="reset" xlink:href="#resetDef" x="30" y="36" onmousedown="handleReset()"/>
                <g id="arrowUp" xlink:href="#dirArrow" transform="translate(30 24)" onmousedown="handlePan(0,-1)">
                  <use xlink:href="#rim" fill="#404040">
                        <set attributeName="fill" to="#808080" begin="arrowUp.mouseover" end="arrowUp.mouseout"/>
                  </use>
                  <path fill="none" stroke="white" stroke-width="1.5" d="M0,-3.0v7 M-2.5,-0.5L0,-3.0L2.5,-0.5"/>
                </g>
                <g id="arrowRight" xlink:href="#dirArrow" transform="rotate(90) translate(36 -43)" onmousedown="handlePan(1,0)">
                  <use xlink:href="#rim" fill="#404040">
                        <set attributeName="fill" to="#808080" begin="arrowRight.mouseover" end="arrowRight.mouseout"/>
                  </use>
                  <path fill="none" stroke="white" stroke-width="1.5" d="M0,-3.0v7 M-2.5,-0.5L0,-3.0L2.5,-0.5"/>
                </g>
                <g id="arrowDown" xlink:href="#dirArrow" transform="rotate(180) translate(-30 -48)" onmousedown="handlePan(0,1)">
                  <use xlink:href="#rim" fill="#404040">
                        <set attributeName="fill" to="#808080" begin="arrowDown.mouseover" end="arrowDown.mouseout"/>
                  </use>
                  <path fill="none" stroke="white" stroke-width="1.5" d="M0,-3.0v7 M-2.5,-0.5L0,-3.0L2.5,-0.5"/>
                </g>
                <g id="arrowLeft" xlink:href="#dirArrow" transform="rotate(270) translate(-36 17)" onmousedown="handlePan(-1,0)">
                  <use xlink:href="#rim" fill="#404040">
                        <set attributeName="fill" to="#808080" begin="arrowLeft.mouseover" end="arrowLeft.mouseout"/>
                  </use>
                  <path fill="none" stroke="white" stroke-width="1.5" d="M0,-3.0v7 M-2.5,-0.5L0,-3.0L2.5,-0.5"/>
                </g>
        </g>
        <svg viewBox="0 0 15 15" width="100%" height="30px" preserveAspectRatio="xMaxYMin meet">
         <g id="arrow_out" transform="scale(0.3 0.3)">
          <a xlink:href="types_8hpp__dep__incl_org.svg" target="_base">
           <rect id="button" ry="5" rx="5" y="6" x="6" height="38" width="38"
                fill="#f2f5e9" fill-opacity="0.5" stroke="#606060" stroke-width="1.0"/>
           <path id="arrow"
             d="M 11.500037,31.436501 C 11.940474,20.09759 22.043105,11.32322 32.158766,21.979434 L 37.068811,17.246167 C 37.068811,17.246167 37.088388,32 37.088388,32 L 22.160133,31.978069 C 22.160133,31.978069 26.997745,27.140456 26.997745,27.140456 C 18.528582,18.264221 13.291696,25.230495 11.500037,31.436501 z"
             style="fill:#404040;"/>
          </a>
         </g>
        </svg>
</svg>
