<?xml version="1.0" encoding="UTF-8" standalone="no"?>
<!DOCTYPE svg PUBLIC "-//W3C//DTD SVG 1.1//EN"
 "http://www.w3.org/Graphics/SVG/1.1/DTD/svg11.dtd">
<!-- Generated by graphviz version 2.43.0 (0)
 -->
<!-- Title: types.hpp Pages: 1 -->
<svg width="1148pt" height="532pt"
 viewBox="0.00 0.00 1148.00 532.00" xmlns="http://www.w3.org/2000/svg" xmlns:xlink="http://www.w3.org/1999/xlink">
<g id="graph0" class="graph" transform="scale(1 1) rotate(0) translate(4 528)">
<title>types.hpp</title>
<!-- Node1 -->
<g id="node1" class="node">
<title>Node1</title>
<g id="a_node1"><a xlink:title=" ">
<polygon fill="#bfbfbf" stroke="black" points="492.5,-504.5 492.5,-523.5 557.5,-523.5 557.5,-504.5 492.5,-504.5"/>
<text text-anchor="middle" x="525" y="-511.5" font-family="Helvetica,sans-Serif" font-size="10.00">types.hpp</text>
</a>
</g>
</g>
<!-- Node2 -->
<g id="node2" class="node">
<title>Node2</title>
<g id="a_node2"><a xlink:href="all_8hpp.html" target="_top" xlink:title=" ">
<polygon fill="none" stroke="black" points="249,-0.5 249,-19.5 299,-19.5 299,-0.5 249,-0.5"/>
<text text-anchor="middle" x="274" y="-7.5" font-family="Helvetica,sans-Serif" font-size="10.00">all.hpp</text>
</a>
</g>
</g>
<!-- Node1&#45;&gt;Node2 -->
<g id="edge1" class="edge">
<title>Node1&#45;&gt;Node2</title>
<path fill="none" stroke="midnightblue" d="M482.16,-513.11C356.88,-512.27 0,-501.28 0,-403 0,-403 0,-403 0,-121 0,-67.69 180.88,-28.39 248.71,-15.53"/>
<polygon fill="midnightblue" stroke="midnightblue" points="482.14,-516.61 492.16,-513.15 482.18,-509.61 482.14,-516.61"/>
</g>
<!-- Node3 -->
<g id="node3" class="node">
<title>Node3</title>
<g id="a_node3"><a xlink:href="api_8hpp.html" target="_top" xlink:title=" ">
<polygon fill="none" stroke="black" points="730.5,-224.5 730.5,-243.5 783.5,-243.5 783.5,-224.5 730.5,-224.5"/>
<text text-anchor="middle" x="757" y="-231.5" font-family="Helvetica,sans-Serif" font-size="10.00">api.hpp</text>
</a>
</g>
</g>
<!-- Node1&#45;&gt;Node3 -->
<g id="edge2" class="edge">
<title>Node1&#45;&gt;Node3</title>
<path fill="none" stroke="midnightblue" d="M567.75,-510.65C658.05,-505.3 865.39,-490.88 932,-468 976.91,-452.57 999.83,-453.46 1023,-412 1080.23,-309.59 861.33,-255.58 783.51,-239.9"/>
<polygon fill="midnightblue" stroke="midnightblue" points="567.37,-507.17 557.59,-511.24 567.77,-514.15 567.37,-507.17"/>
</g>
<!-- Node5 -->
<g id="node5" class="node">
<title>Node5</title>
<g id="a_node5"><a xlink:href="help__printer_8hpp.html" target="_top" xlink:title=" ">
<polygon fill="none" stroke="black" points="735.5,-0.5 735.5,-19.5 830.5,-19.5 830.5,-0.5 735.5,-0.5"/>
<text text-anchor="middle" x="783" y="-7.5" font-family="Helvetica,sans-Serif" font-size="10.00">help_printer.hpp</text>
</a>
</g>
</g>
<!-- Node1&#45;&gt;Node5 -->
<g id="edge47" class="edge">
<title>Node1&#45;&gt;Node5</title>
<path fill="none" stroke="midnightblue" d="M567.96,-511.81C693.34,-508.03 1052.82,-494.94 1098,-468 1127.54,-450.38 1140,-437.39 1140,-403 1140,-403 1140,-403 1140,-121 1140,-57.04 928.06,-26.34 830.78,-15.61"/>
<polygon fill="midnightblue" stroke="midnightblue" points="567.5,-508.32 557.61,-512.12 567.71,-515.32 567.5,-508.32"/>
</g>
<!-- Node6 -->
<g id="node6" class="node">
<title>Node6</title>
<g id="a_node6"><a xlink:href="command_8hpp.html" target="_top" xlink:title=" ">
<polygon fill="none" stroke="black" points="578,-168.5 578,-187.5 664,-187.5 664,-168.5 578,-168.5"/>
<text text-anchor="middle" x="621" y="-175.5" font-family="Helvetica,sans-Serif" font-size="10.00">command.hpp</text>
</a>
</g>
</g>
<!-- Node1&#45;&gt;Node6 -->
<g id="edge26" class="edge">
<title>Node1&#45;&gt;Node6</title>
<path fill="none" stroke="midnightblue" d="M481.91,-513.9C400.18,-514.59 227.44,-510.8 190,-468 184.15,-461.31 187.09,-456.4 190,-448 248.09,-280.03 481.76,-209.83 578.61,-187.55"/>
<polygon fill="midnightblue" stroke="midnightblue" points="482.39,-517.4 492.35,-513.79 482.31,-510.4 482.39,-517.4"/>
</g>
<!-- Node7 -->
<g id="node7" class="node">
<title>Node7</title>
<g id="a_node7"><a xlink:href="help_8hpp.html" target="_top" xlink:title=" ">
<polygon fill="none" stroke="black" points="453.5,-112.5 453.5,-131.5 512.5,-131.5 512.5,-112.5 453.5,-112.5"/>
<text text-anchor="middle" x="483" y="-119.5" font-family="Helvetica,sans-Serif" font-size="10.00">help.hpp</text>
</a>
</g>
</g>
<!-- Node1&#45;&gt;Node7 -->
<g id="edge46" class="edge">
<title>Node1&#45;&gt;Node7</title>
<path fill="none" stroke="midnightblue" d="M482.16,-510.49C394.56,-504.93 201.53,-490.26 182,-468 91.83,-365.23 141.67,-251.41 250,-168 281.5,-143.75 397.94,-130.49 453.34,-125.43"/>
<polygon fill="midnightblue" stroke="midnightblue" points="482.1,-514 492.3,-511.13 482.54,-507.01 482.1,-514"/>
</g>
<!-- Node8 -->
<g id="node8" class="node">
<title>Node8</title>
<g id="a_node8"><a xlink:href="arg_8hpp.html" target="_top" xlink:title=" ">
<polygon fill="none" stroke="black" points="534.5,-336.5 534.5,-355.5 587.5,-355.5 587.5,-336.5 534.5,-336.5"/>
<text text-anchor="middle" x="561" y="-343.5" font-family="Helvetica,sans-Serif" font-size="10.00">arg.hpp</text>
</a>
</g>
</g>
<!-- Node1&#45;&gt;Node8 -->
<g id="edge13" class="edge">
<title>Node1&#45;&gt;Node8</title>
<path fill="none" stroke="midnightblue" d="M529.14,-493.93C536.94,-457.92 553.58,-381.23 559.14,-355.57"/>
<polygon fill="midnightblue" stroke="midnightblue" points="525.63,-493.56 526.94,-504.08 532.48,-495.04 525.63,-493.56"/>
</g>
<!-- Node9 -->
<g id="node9" class="node">
<title>Node9</title>
<g id="a_node9"><a xlink:href="multi__arg_8hpp.html" target="_top" xlink:title=" ">
<polygon fill="none" stroke="black" points="455,-280.5 455,-299.5 539,-299.5 539,-280.5 455,-280.5"/>
<text text-anchor="middle" x="497" y="-287.5" font-family="Helvetica,sans-Serif" font-size="10.00">multi_arg.hpp</text>
</a>
</g>
</g>
<!-- Node1&#45;&gt;Node9 -->
<g id="edge48" class="edge">
<title>Node1&#45;&gt;Node9</title>
<path fill="none" stroke="midnightblue" d="M522.64,-494.3C516.88,-448.64 502.28,-332.85 498.12,-299.88"/>
<polygon fill="midnightblue" stroke="midnightblue" points="519.18,-494.81 523.9,-504.3 526.12,-493.94 519.18,-494.81"/>
</g>
<!-- Node10 -->
<g id="node10" class="node">
<title>Node10</title>
<g id="a_node10"><a xlink:href="arg__iface_8hpp.html" target="_top" xlink:title=" ">
<polygon fill="none" stroke="black" points="914.5,-392.5 914.5,-411.5 997.5,-411.5 997.5,-392.5 914.5,-392.5"/>
<text text-anchor="middle" x="956" y="-399.5" font-family="Helvetica,sans-Serif" font-size="10.00">arg_iface.hpp</text>
</a>
</g>
</g>
<!-- Node1&#45;&gt;Node10 -->
<g id="edge18" class="edge">
<title>Node1&#45;&gt;Node10</title>
<path fill="none" stroke="midnightblue" d="M567.47,-506.19C613.69,-498.42 689.63,-484.62 754,-468 819.63,-451.05 895.27,-424.89 932.63,-411.51"/>
<polygon fill="midnightblue" stroke="midnightblue" points="566.79,-502.75 557.5,-507.85 567.94,-509.66 566.79,-502.75"/>
</g>
<!-- Node11 -->
<g id="node11" class="node">
<title>Node11</title>
<g id="a_node11"><a xlink:href="group__iface_8hpp.html" target="_top" xlink:title=" ">
<polygon fill="none" stroke="black" points="876.5,-336.5 876.5,-355.5 971.5,-355.5 971.5,-336.5 876.5,-336.5"/>
<text text-anchor="middle" x="924" y="-343.5" font-family="Helvetica,sans-Serif" font-size="10.00">group_iface.hpp</text>
</a>
</g>
</g>
<!-- Node1&#45;&gt;Node11 -->
<g id="edge44" class="edge">
<title>Node1&#45;&gt;Node11</title>
<path fill="none" stroke="midnightblue" d="M567.78,-510.9C675.6,-504.6 953.67,-481.76 1007,-412 1026.01,-387.14 982.59,-366.49 951.66,-355.52"/>
<polygon fill="midnightblue" stroke="midnightblue" points="567.38,-507.42 557.59,-511.47 567.77,-514.41 567.38,-507.42"/>
</g>
<!-- Node12 -->
<g id="node12" class="node">
<title>Node12</title>
<g id="a_node12"><a xlink:href="groups_8hpp.html" target="_top" xlink:title=" ">
<polygon fill="none" stroke="black" points="1040.5,-280.5 1040.5,-299.5 1111.5,-299.5 1111.5,-280.5 1040.5,-280.5"/>
<text text-anchor="middle" x="1076" y="-287.5" font-family="Helvetica,sans-Serif" font-size="10.00">groups.hpp</text>
</a>
</g>
</g>
<!-- Node1&#45;&gt;Node12 -->
<g id="edge45" class="edge">
<title>Node1&#45;&gt;Node12</title>
<path fill="none" stroke="midnightblue" d="M567.74,-512.77C691.52,-511.68 1043.62,-505.29 1078,-468 1122.58,-419.65 1091.23,-328.45 1079.74,-299.83"/>
<polygon fill="midnightblue" stroke="midnightblue" points="567.49,-509.28 557.52,-512.86 567.55,-516.28 567.49,-509.28"/>
</g>
<!-- Node13 -->
<g id="node13" class="node">
<title>Node13</title>
<g id="a_node13"><a xlink:href="context_8hpp.html" target="_top" xlink:title=" ">
<polygon fill="none" stroke="black" points="256,-392.5 256,-411.5 330,-411.5 330,-392.5 256,-392.5"/>
<text text-anchor="middle" x="293" y="-399.5" font-family="Helvetica,sans-Serif" font-size="10.00">context.hpp</text>
</a>
</g>
</g>
<!-- Node1&#45;&gt;Node13 -->
<g id="edge27" class="edge">
<title>Node1&#45;&gt;Node13</title>
<path fill="none" stroke="midnightblue" d="M497.63,-500.02C449.65,-477.27 351.61,-430.79 311.12,-411.59"/>
<polygon fill="midnightblue" stroke="midnightblue" points="496.26,-503.25 506.8,-504.37 499.26,-496.92 496.26,-503.25"/>
</g>
<!-- Node14 -->
<g id="node14" class="node">
<title>Node14</title>
<g id="a_node14"><a xlink:href="exceptions_8hpp.html" target="_top" xlink:title=" ">
<polygon fill="none" stroke="black" points="198.5,-448.5 198.5,-467.5 289.5,-467.5 289.5,-448.5 198.5,-448.5"/>
<text text-anchor="middle" x="244" y="-455.5" font-family="Helvetica,sans-Serif" font-size="10.00">exceptions.hpp</text>
</a>
</g>
</g>
<!-- Node1&#45;&gt;Node14 -->
<g id="edge33" class="edge">
<title>Node1&#45;&gt;Node14</title>
<path fill="none" stroke="midnightblue" d="M482.54,-504.84C430.28,-494.8 341.94,-477.82 288.68,-467.59"/>
<polygon fill="midnightblue" stroke="midnightblue" points="482.01,-508.3 492.49,-506.75 483.33,-501.43 482.01,-508.3"/>
</g>
<!-- Node15 -->
<g id="node15" class="node">
<title>Node15</title>
<g id="a_node15"><a xlink:href="value__utils_8hpp.html" target="_top" xlink:title=" ">
<polygon fill="none" stroke="black" points="348.5,-392.5 348.5,-411.5 439.5,-411.5 439.5,-392.5 348.5,-392.5"/>
<text text-anchor="middle" x="394" y="-399.5" font-family="Helvetica,sans-Serif" font-size="10.00">value_utils.hpp</text>
</a>
</g>
</g>
<!-- Node1&#45;&gt;Node15 -->
<g id="edge63" class="edge">
<title>Node1&#45;&gt;Node15</title>
<path fill="none" stroke="midnightblue" d="M506.92,-497.82C479.02,-474.39 426.38,-430.19 404.23,-411.59"/>
<polygon fill="midnightblue" stroke="midnightblue" points="504.81,-500.62 514.72,-504.37 509.31,-495.26 504.81,-500.62"/>
</g>
<!-- Node16 -->
<g id="node16" class="node">
<title>Node16</title>
<g id="a_node16"><a xlink:href="utils_8hpp.html" target="_top" xlink:title=" ">
<polygon fill="none" stroke="black" points="685.5,-448.5 685.5,-467.5 744.5,-467.5 744.5,-448.5 685.5,-448.5"/>
<text text-anchor="middle" x="715" y="-455.5" font-family="Helvetica,sans-Serif" font-size="10.00">utils.hpp</text>
</a>
</g>
</g>
<!-- Node1&#45;&gt;Node16 -->
<g id="edge49" class="edge">
<title>Node1&#45;&gt;Node16</title>
<path fill="none" stroke="midnightblue" d="M564.79,-501.69C600.77,-491.47 652.91,-476.65 685.35,-467.43"/>
<polygon fill="midnightblue" stroke="midnightblue" points="563.77,-498.34 555.11,-504.44 565.68,-505.08 563.77,-498.34"/>
</g>
<!-- Node4 -->
<g id="node4" class="node">
<title>Node4</title>
<g id="a_node4"><a xlink:href="cmd__line_8hpp.html" target="_top" xlink:title=" ">
<polygon fill="none" stroke="black" points="509,-56.5 509,-75.5 591,-75.5 591,-56.5 509,-56.5"/>
<text text-anchor="middle" x="550" y="-63.5" font-family="Helvetica,sans-Serif" font-size="10.00">cmd_line.hpp</text>
</a>
</g>
</g>
<!-- Node3&#45;&gt;Node4 -->
<g id="edge3" class="edge">
<title>Node3&#45;&gt;Node4</title>
<path fill="none" stroke="midnightblue" d="M738.31,-218.01C696.02,-184.1 594.05,-102.32 560.73,-75.61"/>
<polygon fill="midnightblue" stroke="midnightblue" points="736.17,-220.78 746.16,-224.31 740.55,-215.32 736.17,-220.78"/>
</g>
<!-- Node3&#45;&gt;Node6 -->
<g id="edge7" class="edge">
<title>Node3&#45;&gt;Node6</title>
<path fill="none" stroke="midnightblue" d="M720.8,-220.91C693.69,-210.75 658.03,-196.51 637.37,-187.52"/>
<polygon fill="midnightblue" stroke="midnightblue" points="719.77,-224.25 730.36,-224.44 722.2,-217.69 719.77,-224.25"/>
</g>
<!-- Node4&#45;&gt;Node2 -->
<g id="edge4" class="edge">
<title>Node4&#45;&gt;Node2</title>
<path fill="none" stroke="midnightblue" d="M499.07,-55.04C439.79,-43.44 344.28,-24.75 299.16,-15.92"/>
<polygon fill="midnightblue" stroke="midnightblue" points="498.49,-58.49 508.98,-56.97 499.84,-51.62 498.49,-58.49"/>
</g>
<!-- Node4&#45;&gt;Node5 -->
<g id="edge5" class="edge">
<title>Node4&#45;&gt;Node5</title>
<path fill="none" stroke="midnightblue" d="M591.8,-54.02C634.08,-43.82 698.88,-28.84 741.17,-19.52"/>
<polygon fill="midnightblue" stroke="midnightblue" points="590.72,-50.68 581.83,-56.44 592.37,-57.49 590.72,-50.68"/>
</g>
<!-- Node5&#45;&gt;Node4 -->
<g id="edge6" class="edge">
<title>Node5&#45;&gt;Node4</title>
<path fill="none" stroke="midnightblue" d="M741.33,-21.94C698.85,-32.19 633.52,-47.3 591.2,-56.62"/>
<polygon fill="midnightblue" stroke="midnightblue" points="742.19,-25.34 751.09,-19.58 740.54,-18.53 742.19,-25.34"/>
</g>
<!-- Node6&#45;&gt;Node3 -->
<g id="edge8" class="edge">
<title>Node6&#45;&gt;Node3</title>
<path fill="none" stroke="midnightblue" d="M657.08,-191.05C684.16,-201.19 719.83,-215.44 740.54,-224.44"/>
<polygon fill="midnightblue" stroke="midnightblue" points="658.12,-187.7 647.53,-187.52 655.69,-194.27 658.12,-187.7"/>
</g>
<!-- Node6&#45;&gt;Node4 -->
<g id="edge9" class="edge">
<title>Node6&#45;&gt;Node4</title>
<path fill="none" stroke="midnightblue" d="M610,-159.96C594.61,-136.12 567.24,-93.71 555.55,-75.59"/>
<polygon fill="midnightblue" stroke="midnightblue" points="607.07,-161.86 615.43,-168.37 612.95,-158.07 607.07,-161.86"/>
</g>
<!-- Node6&#45;&gt;Node5 -->
<g id="edge12" class="edge">
<title>Node6&#45;&gt;Node5</title>
<path fill="none" stroke="midnightblue" d="M636.95,-160.65C670.83,-125.94 748.94,-45.9 774.64,-19.57"/>
<polygon fill="midnightblue" stroke="midnightblue" points="634.19,-158.47 629.71,-168.08 639.2,-163.36 634.19,-158.47"/>
</g>
<!-- Node6&#45;&gt;Node7 -->
<g id="edge10" class="edge">
<title>Node6&#45;&gt;Node7</title>
<path fill="none" stroke="midnightblue" d="M589.75,-164.77C563.83,-154.63 527.64,-140.47 504.76,-131.52"/>
<polygon fill="midnightblue" stroke="midnightblue" points="588.55,-168.06 599.13,-168.44 591.1,-161.54 588.55,-168.06"/>
</g>
<!-- Node7&#45;&gt;Node4 -->
<g id="edge11" class="edge">
<title>Node7&#45;&gt;Node4</title>
<path fill="none" stroke="midnightblue" d="M501.83,-105.82C513.84,-96.15 528.97,-83.95 539.04,-75.83"/>
<polygon fill="midnightblue" stroke="midnightblue" points="499.35,-103.32 493.76,-112.32 503.75,-108.77 499.35,-103.32"/>
</g>
<!-- Node8&#45;&gt;Node3 -->
<g id="edge14" class="edge">
<title>Node8&#45;&gt;Node3</title>
<path fill="none" stroke="midnightblue" d="M585.15,-331.45C626.04,-308.5 707.77,-262.63 741.69,-243.59"/>
<polygon fill="midnightblue" stroke="midnightblue" points="583.39,-328.42 576.38,-336.37 586.81,-334.53 583.39,-328.42"/>
</g>
<!-- Node8&#45;&gt;Node7 -->
<g id="edge15" class="edge">
<title>Node8&#45;&gt;Node7</title>
<path fill="none" stroke="midnightblue" d="M560.83,-326.04C559.89,-312.28 556.86,-293.76 548,-280 533.18,-256.98 511.96,-267.56 498,-244 476.09,-207.04 479.5,-152.61 481.85,-131.66"/>
<polygon fill="midnightblue" stroke="midnightblue" points="557.34,-326.4 561.21,-336.26 564.34,-326.14 557.34,-326.4"/>
</g>
<!-- Node8&#45;&gt;Node9 -->
<g id="edge16" class="edge">
<title>Node8&#45;&gt;Node9</title>
<path fill="none" stroke="midnightblue" d="M543.01,-329.82C531.54,-320.15 517.09,-307.95 507.47,-299.83"/>
<polygon fill="midnightblue" stroke="midnightblue" points="540.82,-332.55 550.72,-336.32 545.33,-327.2 540.82,-332.55"/>
</g>
<!-- Node9&#45;&gt;Node3 -->
<g id="edge17" class="edge">
<title>Node9&#45;&gt;Node3</title>
<path fill="none" stroke="midnightblue" d="M548.05,-278.4C602.75,-267.04 687.47,-249.44 730.28,-240.55"/>
<polygon fill="midnightblue" stroke="midnightblue" points="547.28,-274.98 538.2,-280.44 548.7,-281.84 547.28,-274.98"/>
</g>
<!-- Node10&#45;&gt;Node8 -->
<g id="edge19" class="edge">
<title>Node10&#45;&gt;Node8</title>
<path fill="none" stroke="midnightblue" d="M904.53,-393.96C819.54,-382.34 652.81,-359.55 587.83,-350.67"/>
<polygon fill="midnightblue" stroke="midnightblue" points="904.09,-397.44 914.47,-395.32 905.04,-390.5 904.09,-397.44"/>
</g>
<!-- Node10&#45;&gt;Node11 -->
<g id="edge20" class="edge">
<title>Node10&#45;&gt;Node11</title>
<path fill="none" stroke="midnightblue" d="M945.5,-383.27C940.03,-374.05 933.58,-363.17 929.19,-355.75"/>
<polygon fill="midnightblue" stroke="midnightblue" points="942.61,-385.26 950.72,-392.08 948.63,-381.7 942.61,-385.26"/>
</g>
<!-- Node11&#45;&gt;Node5 -->
<g id="edge25" class="edge">
<title>Node11&#45;&gt;Node5</title>
<path fill="none" stroke="midnightblue" d="M922.36,-326.27C920.58,-304.39 918,-267.1 918,-235 918,-235 918,-235 918,-121 918,-89.18 910.81,-78.19 888,-56 869.24,-37.74 841.91,-26.35 819.83,-19.6"/>
<polygon fill="midnightblue" stroke="midnightblue" points="918.89,-326.78 923.22,-336.45 925.86,-326.19 918.89,-326.78"/>
</g>
<!-- Node11&#45;&gt;Node6 -->
<g id="edge21" class="edge">
<title>Node11&#45;&gt;Node6</title>
<path fill="none" stroke="midnightblue" d="M896.01,-332.18C856.55,-313.85 782.62,-278.53 722,-244 689.2,-225.32 652.29,-200.56 633.48,-187.66"/>
<polygon fill="midnightblue" stroke="midnightblue" points="894.72,-335.44 905.27,-336.46 897.66,-329.09 894.72,-335.44"/>
</g>
<!-- Node11&#45;&gt;Node12 -->
<g id="edge22" class="edge">
<title>Node11&#45;&gt;Node12</title>
<path fill="none" stroke="midnightblue" d="M957.67,-333.04C986.27,-322.88 1026.61,-308.55 1052.03,-299.52"/>
<polygon fill="midnightblue" stroke="midnightblue" points="956.34,-329.8 948.08,-336.44 958.68,-336.39 956.34,-329.8"/>
</g>
<!-- Node12&#45;&gt;Node3 -->
<g id="edge23" class="edge">
<title>Node12&#45;&gt;Node3</title>
<path fill="none" stroke="midnightblue" d="M1030.38,-280.76C1028.9,-280.51 1027.44,-280.25 1026,-280 937.36,-264.61 832.12,-247.28 783.75,-239.36"/>
<polygon fill="midnightblue" stroke="midnightblue" points="1029.77,-284.21 1040.23,-282.51 1030.99,-277.32 1029.77,-284.21"/>
</g>
<!-- Node12&#45;&gt;Node5 -->
<g id="edge24" class="edge">
<title>Node12&#45;&gt;Node5</title>
<path fill="none" stroke="midnightblue" d="M1060.43,-272.84C1042.65,-252.62 1016,-216.12 1016,-179 1016,-179 1016,-179 1016,-121 1016,-39.81 898.88,-18.45 830.71,-12.9"/>
<polygon fill="midnightblue" stroke="midnightblue" points="1058.07,-275.45 1067.4,-280.47 1063.24,-270.72 1058.07,-275.45"/>
</g>
<!-- Node13&#45;&gt;Node4 -->
<g id="edge29" class="edge">
<title>Node13&#45;&gt;Node4</title>
<path fill="none" stroke="midnightblue" d="M268.91,-386.72C241.35,-368.36 200,-333.69 200,-291 200,-291 200,-291 200,-177 200,-112.91 416.3,-81.6 508.82,-71.15"/>
<polygon fill="midnightblue" stroke="midnightblue" points="267.33,-389.87 277.64,-392.31 271.11,-383.97 267.33,-389.87"/>
</g>
<!-- Node13&#45;&gt;Node6 -->
<g id="edge30" class="edge">
<title>Node13&#45;&gt;Node6</title>
<path fill="none" stroke="midnightblue" d="M307.78,-384.76C330.89,-360.01 377.71,-312.34 424,-280 483.55,-238.4 562.55,-203.17 599.82,-187.59"/>
<polygon fill="midnightblue" stroke="midnightblue" points="305.11,-382.5 300.89,-392.22 310.25,-387.25 305.11,-382.5"/>
</g>
<!-- Node13&#45;&gt;Node7 -->
<g id="edge31" class="edge">
<title>Node13&#45;&gt;Node7</title>
<path fill="none" stroke="midnightblue" d="M288.33,-382.36C283.3,-360.58 276,-323.42 276,-291 276,-291 276,-291 276,-233 276,-153.64 396.1,-131.36 453.34,-125.24"/>
<polygon fill="midnightblue" stroke="midnightblue" points="284.97,-383.33 290.71,-392.23 291.77,-381.69 284.97,-383.33"/>
</g>
<!-- Node13&#45;&gt;Node8 -->
<g id="edge28" class="edge">
<title>Node13&#45;&gt;Node8</title>
<path fill="none" stroke="midnightblue" d="M340.35,-391.46C396.72,-380.1 488.89,-361.53 534.18,-352.4"/>
<polygon fill="midnightblue" stroke="midnightblue" points="339.38,-388.09 330.26,-393.49 340.76,-394.95 339.38,-388.09"/>
</g>
<!-- Node13&#45;&gt;Node9 -->
<g id="edge32" class="edge">
<title>Node13&#45;&gt;Node9</title>
<path fill="none" stroke="midnightblue" d="M317.87,-387.59C360.34,-364.69 445.68,-318.67 481.07,-299.59"/>
<polygon fill="midnightblue" stroke="midnightblue" points="316.15,-384.54 309.01,-392.37 319.47,-390.7 316.15,-384.54"/>
</g>
<!-- Node14&#45;&gt;Node4 -->
<g id="edge35" class="edge">
<title>Node14&#45;&gt;Node4</title>
<path fill="none" stroke="midnightblue" d="M222.69,-441.93C188.21,-415.59 124,-357.59 124,-291 124,-291 124,-291 124,-177 124,-98.04 401.86,-74.87 508.77,-68.88"/>
<polygon fill="midnightblue" stroke="midnightblue" points="221.04,-445.06 231.16,-448.21 225.22,-439.44 221.04,-445.06"/>
</g>
<!-- Node14&#45;&gt;Node5 -->
<g id="edge38" class="edge">
<title>Node14&#45;&gt;Node5</title>
<path fill="none" stroke="midnightblue" d="M207.47,-444.94C150.77,-423.65 48,-373.66 48,-291 48,-291 48,-291 48,-121 48,-51.25 572.47,-20.85 735.34,-13.09"/>
<polygon fill="midnightblue" stroke="midnightblue" points="206.56,-448.33 217.16,-448.47 208.96,-441.76 206.56,-448.33"/>
</g>
<!-- Node14&#45;&gt;Node7 -->
<g id="edge37" class="edge">
<title>Node14&#45;&gt;Node7</title>
<path fill="none" stroke="midnightblue" d="M239.47,-438.6C237.69,-430.49 235.87,-420.83 235,-412 234.12,-403.15 234.87,-400.89 235,-392 235.67,-347.1 238,-335.91 238,-291 238,-291 238,-291 238,-233 238,-139.52 388.28,-124.99 453.45,-123.09"/>
<polygon fill="midnightblue" stroke="midnightblue" points="236.08,-439.51 241.77,-448.45 242.9,-437.92 236.08,-439.51"/>
</g>
<!-- Node14&#45;&gt;Node8 -->
<g id="edge34" class="edge">
<title>Node14&#45;&gt;Node8</title>
<path fill="none" stroke="midnightblue" d="M299.6,-449.57C341.63,-442.83 400.22,-430.98 449,-412 487.97,-396.84 529.44,-369.4 549.2,-355.52"/>
<polygon fill="midnightblue" stroke="midnightblue" points="298.9,-446.14 289.56,-451.14 299.98,-453.05 298.9,-446.14"/>
</g>
<!-- Node14&#45;&gt;Node9 -->
<g id="edge39" class="edge">
<title>Node14&#45;&gt;Node9</title>
<path fill="none" stroke="midnightblue" d="M239.95,-438.17C238.04,-424.23 237.87,-405.41 247,-392 293.9,-323.13 396.45,-301.2 454.58,-294.23"/>
<polygon fill="midnightblue" stroke="midnightblue" points="236.52,-438.87 241.71,-448.11 243.41,-437.65 236.52,-438.87"/>
</g>
<!-- Node14&#45;&gt;Node11 -->
<g id="edge36" class="edge">
<title>Node14&#45;&gt;Node11</title>
<path fill="none" stroke="midnightblue" d="M299.85,-447.96C430.48,-426.83 754.1,-374.48 876.27,-354.72"/>
<polygon fill="midnightblue" stroke="midnightblue" points="298.99,-444.56 289.67,-449.61 300.1,-451.47 298.99,-444.56"/>
</g>
<!-- Node14&#45;&gt;Node15 -->
<g id="edge40" class="edge">
<title>Node14&#45;&gt;Node15</title>
<path fill="none" stroke="midnightblue" d="M277.22,-445.04C305.45,-434.88 345.26,-420.55 370.34,-411.52"/>
<polygon fill="midnightblue" stroke="midnightblue" points="275.99,-441.76 267.77,-448.44 278.36,-448.35 275.99,-441.76"/>
</g>
<!-- Node15&#45;&gt;Node6 -->
<g id="edge42" class="edge">
<title>Node15&#45;&gt;Node6</title>
<path fill="none" stroke="midnightblue" d="M396.66,-382.43C401.5,-355.62 414.37,-306.42 446,-280 500.61,-234.39 550.26,-292.85 602,-244 617.9,-228.99 620.73,-201.48 621.08,-187.55"/>
<polygon fill="midnightblue" stroke="midnightblue" points="393.18,-381.98 395.04,-392.41 400.09,-383.1 393.18,-381.98"/>
</g>
<!-- Node15&#45;&gt;Node8 -->
<g id="edge41" class="edge">
<title>Node15&#45;&gt;Node8</title>
<path fill="none" stroke="midnightblue" d="M430.17,-389.3C461.64,-379.13 506.49,-364.62 534.66,-355.52"/>
<polygon fill="midnightblue" stroke="midnightblue" points="428.9,-386.04 420.46,-392.44 431.05,-392.7 428.9,-386.04"/>
</g>
<!-- Node15&#45;&gt;Node9 -->
<g id="edge43" class="edge">
<title>Node15&#45;&gt;Node9</title>
<path fill="none" stroke="midnightblue" d="M411.4,-385.58C420.72,-377.1 432.26,-366.25 442,-356 460.33,-336.71 480.07,-312.41 490.18,-299.69"/>
<polygon fill="midnightblue" stroke="midnightblue" points="408.97,-383.06 403.88,-392.35 413.65,-388.26 408.97,-383.06"/>
</g>
<!-- Node16&#45;&gt;Node4 -->
<g id="edge52" class="edge">
<title>Node16&#45;&gt;Node4</title>
<path fill="none" stroke="midnightblue" d="M705.99,-438.82C699.45,-425.74 690.33,-407.7 682,-392 633.42,-300.44 602.66,-286.03 569,-188 555.12,-147.58 551.32,-96.04 550.33,-75.76"/>
<polygon fill="midnightblue" stroke="midnightblue" points="703.03,-440.72 710.62,-448.12 709.29,-437.6 703.03,-440.72"/>
</g>
<!-- Node16&#45;&gt;Node5 -->
<g id="edge57" class="edge">
<title>Node16&#45;&gt;Node5</title>
<path fill="none" stroke="midnightblue" d="M754.06,-445.32C771.59,-438.26 791.16,-427.54 804,-412 824.71,-386.93 843.37,-300.89 855,-188 862.11,-119.03 809.62,-44.7 790.11,-19.73"/>
<polygon fill="midnightblue" stroke="midnightblue" points="752.73,-442.08 744.6,-448.87 755.19,-448.63 752.73,-442.08"/>
</g>
<!-- Node16&#45;&gt;Node6 -->
<g id="edge53" class="edge">
<title>Node16&#45;&gt;Node6</title>
<path fill="none" stroke="midnightblue" d="M730.71,-440.88C737.43,-432.88 744.51,-422.66 748,-412 758.51,-379.9 759.27,-367.84 748,-336 735.55,-300.8 655.9,-215.49 629.49,-187.82"/>
<polygon fill="midnightblue" stroke="midnightblue" points="728.1,-438.56 724.02,-448.34 733.3,-443.24 728.1,-438.56"/>
</g>
<!-- Node16&#45;&gt;Node7 -->
<g id="edge56" class="edge">
<title>Node16&#45;&gt;Node7</title>
<path fill="none" stroke="midnightblue" d="M718.45,-438.11C722.05,-413.4 725.26,-369.34 710,-336 685.37,-282.19 536.76,-164.57 494.31,-131.69"/>
<polygon fill="midnightblue" stroke="midnightblue" points="714.95,-437.84 716.79,-448.27 721.86,-438.97 714.95,-437.84"/>
</g>
<!-- Node16&#45;&gt;Node8 -->
<g id="edge50" class="edge">
<title>Node16&#45;&gt;Node8</title>
<path fill="none" stroke="midnightblue" d="M692,-443.23C677.91,-434.59 659.65,-423.05 644,-412 616.94,-392.9 586.65,-368.31 571.23,-355.55"/>
<polygon fill="midnightblue" stroke="midnightblue" points="690.22,-446.24 700.58,-448.44 693.86,-440.26 690.22,-446.24"/>
</g>
<!-- Node16&#45;&gt;Node9 -->
<g id="edge61" class="edge">
<title>Node16&#45;&gt;Node9</title>
<path fill="none" stroke="midnightblue" d="M702.25,-440.39C682.16,-415.11 640.88,-366.69 597,-336 573.91,-319.85 544.1,-307.33 523.05,-299.65"/>
<polygon fill="midnightblue" stroke="midnightblue" points="699.52,-442.58 708.44,-448.3 705.03,-438.27 699.52,-442.58"/>
</g>
<!-- Node16&#45;&gt;Node10 -->
<g id="edge51" class="edge">
<title>Node16&#45;&gt;Node10</title>
<path fill="none" stroke="midnightblue" d="M754.58,-448.13C799.79,-438 873.26,-421.54 917.86,-411.55"/>
<polygon fill="midnightblue" stroke="midnightblue" points="753.54,-444.78 744.55,-450.38 755.07,-451.61 753.54,-444.78"/>
</g>
<!-- Node16&#45;&gt;Node11 -->
<g id="edge55" class="edge">
<title>Node16&#45;&gt;Node11</title>
<path fill="none" stroke="midnightblue" d="M754.73,-450.55C785.69,-444.23 828.84,-432.47 862,-412 886.68,-396.76 908.23,-369.35 918.16,-355.5"/>
<polygon fill="midnightblue" stroke="midnightblue" points="753.88,-447.15 744.73,-452.49 755.22,-454.02 753.88,-447.15"/>
</g>
<!-- Node16&#45;&gt;Node13 -->
<g id="edge54" class="edge">
<title>Node16&#45;&gt;Node13</title>
<path fill="none" stroke="midnightblue" d="M674.88,-453.11C606.13,-446.25 461.47,-430.89 340,-412 336.8,-411.5 333.48,-410.95 330.16,-410.36"/>
<polygon fill="midnightblue" stroke="midnightblue" points="674.95,-456.64 685.25,-454.14 675.64,-449.67 674.95,-456.64"/>
</g>
<!-- Node16&#45;&gt;Node15 -->
<g id="edge62" class="edge">
<title>Node16&#45;&gt;Node15</title>
<path fill="none" stroke="midnightblue" d="M675.2,-450.3C615.4,-440.24 502.67,-421.28 439.63,-410.68"/>
<polygon fill="midnightblue" stroke="midnightblue" points="674.93,-453.81 685.38,-452.02 676.1,-446.91 674.93,-453.81"/>
</g>
<!-- Node17 -->
<g id="node17" class="node">
<title>Node17</title>
<g id="a_node17"><a xlink:href="help__printer__iface_8hpp.html" target="_top" xlink:title=" ">
<polygon fill="none" stroke="black" points="720.5,-168.5 720.5,-187.5 845.5,-187.5 845.5,-168.5 720.5,-168.5"/>
<text text-anchor="middle" x="783" y="-175.5" font-family="Helvetica,sans-Serif" font-size="10.00">help_printer_iface.hpp</text>
</a>
</g>
</g>
<!-- Node16&#45;&gt;Node17 -->
<g id="edge58" class="edge">
<title>Node16&#45;&gt;Node17</title>
<path fill="none" stroke="midnightblue" d="M749.01,-443.92C762.97,-436.71 777.76,-426.27 786,-412 830.11,-335.63 796.92,-220.37 786.09,-187.83"/>
<polygon fill="midnightblue" stroke="midnightblue" points="747.11,-440.95 739.58,-448.4 750.11,-447.27 747.11,-440.95"/>
</g>
<!-- Node17&#45;&gt;Node5 -->
<g id="edge60" class="edge">
<title>Node17&#45;&gt;Node5</title>
<path fill="none" stroke="midnightblue" d="M783,-157.93C783,-121.92 783,-45.23 783,-19.57"/>
<polygon fill="midnightblue" stroke="midnightblue" points="779.5,-158.08 783,-168.08 786.5,-158.08 779.5,-158.08"/>
</g>
<!-- Node17&#45;&gt;Node7 -->
<g id="edge59" class="edge">
<title>Node17&#45;&gt;Node7</title>
<path fill="none" stroke="midnightblue" d="M725.58,-166.67C662,-155.22 561.95,-137.21 512.58,-128.32"/>
<polygon fill="midnightblue" stroke="midnightblue" points="725,-170.12 735.46,-168.44 726.24,-163.23 725,-170.12"/>
</g>
</g>
</svg>
