<?xml version="1.0" encoding="UTF-8" standalone="no"?>
<!DOCTYPE svg PUBLIC "-//W3C//DTD SVG 1.1//EN"
 "http://www.w3.org/Graphics/SVG/1.1/DTD/svg11.dtd">
<!-- Generated by graphviz version 2.38.0 (20140413.2041)
 -->
<!-- Title: types.hpp Pages: 1 -->
<svg width="181pt" height="84pt"
 viewBox="0.00 0.00 180.50 84.00" xmlns="http://www.w3.org/2000/svg" xmlns:xlink="http://www.w3.org/1999/xlink">
<g id="graph0" class="graph" transform="scale(1 1) rotate(0) translate(4 80)">
<title>types.hpp</title>
<!-- Node1 -->
<g id="node1" class="node"><title>Node1</title>
<polygon fill="#bfbfbf" stroke="black" points="56.5,-56.5 56.5,-75.5 113.5,-75.5 113.5,-56.5 56.5,-56.5"/>
<text text-anchor="middle" x="85" y="-63.5" font-family="FreeSans" font-size="10.00">types.hpp</text>
</g>
<!-- Node2 -->
<g id="node2" class="node"><title>Node2</title>
<polygon fill="none" stroke="#bfbfbf" points="0,-0.5 0,-19.5 40,-19.5 40,-0.5 0,-0.5"/>
<text text-anchor="middle" x="20" y="-7.5" font-family="FreeSans" font-size="10.00">string</text>
</g>
<!-- Node1&#45;&gt;Node2 -->
<g id="edge1" class="edge"><title>Node1&#45;&gt;Node2</title>
<path fill="none" stroke="midnightblue" d="M74.5566,-56.324C64.8538,-48.2631 50.1847,-36.0765 38.5003,-26.3695"/>
<polygon fill="midnightblue" stroke="midnightblue" points="40.5619,-23.532 30.6334,-19.8339 36.0887,-28.9163 40.5619,-23.532"/>
</g>
<!-- Node3 -->
<g id="node3" class="node"><title>Node3</title>
<polygon fill="none" stroke="#bfbfbf" points="58.5,-0.5 58.5,-19.5 111.5,-19.5 111.5,-0.5 58.5,-0.5"/>
<text text-anchor="middle" x="85" y="-7.5" font-family="FreeSans" font-size="10.00">iostream</text>
</g>
<!-- Node1&#45;&gt;Node3 -->
<g id="edge2" class="edge"><title>Node1&#45;&gt;Node3</title>
<path fill="none" stroke="midnightblue" d="M85,-56.083C85,-49.0059 85,-38.8611 85,-29.9865"/>
<polygon fill="midnightblue" stroke="midnightblue" points="88.5001,-29.751 85,-19.7511 81.5001,-29.7511 88.5001,-29.751"/>
</g>
<!-- Node4 -->
<g id="node4" class="node"><title>Node4</title>
<polygon fill="none" stroke="#bfbfbf" points="129.5,-0.5 129.5,-19.5 172.5,-19.5 172.5,-0.5 129.5,-0.5"/>
<text text-anchor="middle" x="151" y="-7.5" font-family="FreeSans" font-size="10.00">vector</text>
</g>
<!-- Node1&#45;&gt;Node4 -->
<g id="edge3" class="edge"><title>Node1&#45;&gt;Node4</title>
<path fill="none" stroke="midnightblue" d="M95.604,-56.324C105.456,-48.2631 120.351,-36.0765 132.215,-26.3695"/>
<polygon fill="midnightblue" stroke="midnightblue" points="134.68,-28.8752 140.203,-19.8339 130.247,-23.4575 134.68,-28.8752"/>
</g>
</g>
</svg>
