<?xml version="1.0" encoding="UTF-8" standalone="no"?>
<!DOCTYPE svg PUBLIC "-//W3C//DTD SVG 1.1//EN"
 "http://www.w3.org/Graphics/SVG/1.1/DTD/svg11.dtd">
<!-- Generated by graphviz version 2.38.0 (20140413.2041)
 -->
<!-- Title: types.hpp Pages: 1 -->
<!--zoomable 420 -->
<svg id="main" version="1.1" xmlns="http://www.w3.org/2000/svg" xmlns:xlink="http://www.w3.org/1999/xlink" xml:space="preserve" onload="init(evt)">
<style type="text/css"><![CDATA[
.edge:hover path { stroke: red; }
.edge:hover polygon { stroke: red; fill: red; }
]]></style>
<script type="text/javascript"><![CDATA[
var edges = document.getElementsByTagName('g');
if (edges && edges.length) {
  for (var i=0;i<edges.length;i++) {
    if (edges[i].id.substr(0,4)=='edge') {
      edges[i].setAttribute('class','edge');
    }
  }
}
]]></script>
        <defs>
                <circle id="rim" cx="0" cy="0" r="7"/>
                <circle id="rim2" cx="0" cy="0" r="3.5"/>
                <g id="zoomPlus">
                        <use xlink:href="#rim" fill="#404040">
                                <set attributeName="fill" to="#808080" begin="zoomplus.mouseover" end="zoomplus.mouseout"/>
                        </use>
                        <path d="M-4,0h8M0,-4v8" fill="none" stroke="white" stroke-width="1.5" pointer-events="none"/>
                </g>
                <g id="zoomMin">
                        <use xlink:href="#rim" fill="#404040">
                                <set attributeName="fill" to="#808080" begin="zoomminus.mouseover" end="zoomminus.mouseout"/>
                        </use>
                        <path d="M-4,0h8" fill="none" stroke="white" stroke-width="1.5" pointer-events="none"/>
                </g>
                <g id="dirArrow">
                        <path fill="none" stroke="white" stroke-width="1.5" d="M0,-3.0v7 M-2.5,-0.5L0,-3.0L2.5,-0.5"/>
                </g>
               <g id="resetDef">
                       <use xlink:href="#rim2" fill="#404040">
                               <set attributeName="fill" to="#808080" begin="reset.mouseover" end="reset.mouseout"/>
                       </use>
               </g>
        </defs>

<script type="text/javascript">
var viewWidth = 1348;
var viewHeight = 420;
var sectionId = 'dynsection-1';
</script>
<script xlink:href="svgpan.js"/>
<svg id="graph" class="graph">
<g id="viewport">
<title>types.hpp</title>
<!-- Node1 -->
<g id="node1" class="node"><title>Node1</title>
<polygon fill="#bfbfbf" stroke="black" points="811.5,-392.5 811.5,-411.5 870.5,-411.5 870.5,-392.5 811.5,-392.5"/>
<text text-anchor="middle" x="841" y="-399.5" font-family="Helvetica,sans-Serif" font-size="10.00">types.hpp</text>
</g>
<!-- Node2 -->
<g id="node2" class="node"><title>Node2</title>
<g id="a_node2"><a xlink:href="api_8hpp.html" target="_top" xlink:title="api.hpp">
<polygon fill="none" stroke="black" points="979,-112.5 979,-131.5 1027,-131.5 1027,-112.5 979,-112.5"/>
<text text-anchor="middle" x="1003" y="-119.5" font-family="Helvetica,sans-Serif" font-size="10.00">api.hpp</text>
</a>
</g>
</g>
<!-- Node1&#45;&gt;Node2 -->
<g id="edge1" class="edge"><title>Node1&#45;&gt;Node2</title>
<path fill="none" stroke="midnightblue" d="M881.036,-398.255C943.475,-393.259 1060.29,-380.824 1093,-356 1121.56,-334.332 1128.24,-314.887 1120,-280 1104.15,-212.84 1039.87,-153.47 1013.93,-131.766"/>
<polygon fill="midnightblue" stroke="midnightblue" points="880.473,-394.788 870.773,-399.048 881.013,-401.767 880.473,-394.788"/>
</g>
<!-- Node4 -->
<g id="node4" class="node"><title>Node4</title>
<g id="a_node4"><a xlink:href="all_8hpp.html" target="_top" xlink:title="all.hpp">
<polygon fill="none" stroke="black" points="184.5,-0.5 184.5,-19.5 229.5,-19.5 229.5,-0.5 184.5,-0.5"/>
<text text-anchor="middle" x="207" y="-7.5" font-family="Helvetica,sans-Serif" font-size="10.00">all.hpp</text>
</a>
</g>
</g>
<!-- Node1&#45;&gt;Node4 -->
<g id="edge65" class="edge"><title>Node1&#45;&gt;Node4</title>
<path fill="none" stroke="midnightblue" d="M801.385,-400.31C652.907,-397.504 134.462,-385.656 67,-356 29.0193,-339.304 0,-332.488 0,-291 0,-291 0,-291 0,-121 0,-38.1826 130.803,-17.5228 184.453,-12.5322"/>
<polygon fill="midnightblue" stroke="midnightblue" points="801.361,-403.81 811.424,-400.496 801.491,-396.811 801.361,-403.81"/>
</g>
<!-- Node5 -->
<g id="node5" class="node"><title>Node5</title>
<g id="a_node5"><a xlink:href="arg__as__command_8hpp.html" target="_top" xlink:title="arg_as_command.hpp">
<polygon fill="none" stroke="black" points="1018.5,-0.5 1018.5,-19.5 1131.5,-19.5 1131.5,-0.5 1018.5,-0.5"/>
<text text-anchor="middle" x="1075" y="-7.5" font-family="Helvetica,sans-Serif" font-size="10.00">arg_as_command.hpp</text>
</a>
</g>
</g>
<!-- Node1&#45;&gt;Node5 -->
<g id="edge61" class="edge"><title>Node1&#45;&gt;Node5</title>
<path fill="none" stroke="midnightblue" d="M880.802,-400.691C999.038,-398.711 1340,-384.863 1340,-291 1340,-291 1340,-291 1340,-121 1340,-31.461 1209.35,-13.43 1131.52,-10.6323"/>
<polygon fill="midnightblue" stroke="midnightblue" points="880.668,-397.193 870.72,-400.84 880.771,-404.192 880.668,-397.193"/>
</g>
<!-- Node6 -->
<g id="node6" class="node"><title>Node6</title>
<g id="a_node6"><a xlink:href="utils_8hpp.html" target="_top" xlink:title="utils.hpp">
<polygon fill="none" stroke="black" points="511.5,-336.5 511.5,-355.5 564.5,-355.5 564.5,-336.5 511.5,-336.5"/>
<text text-anchor="middle" x="538" y="-343.5" font-family="Helvetica,sans-Serif" font-size="10.00">utils.hpp</text>
</a>
</g>
</g>
<!-- Node1&#45;&gt;Node6 -->
<g id="edge6" class="edge"><title>Node1&#45;&gt;Node6</title>
<path fill="none" stroke="midnightblue" d="M801.484,-393.958C738.787,-382.784 618.151,-361.284 564.661,-351.751"/>
<polygon fill="midnightblue" stroke="midnightblue" points="800.936,-397.415 811.395,-395.724 802.165,-390.524 800.936,-397.415"/>
</g>
<!-- Node7 -->
<g id="node7" class="node"><title>Node7</title>
<g id="a_node7"><a xlink:href="arg__iface_8hpp.html" target="_top" xlink:title="arg_iface.hpp">
<polygon fill="none" stroke="black" points="970.5,-280.5 970.5,-299.5 1045.5,-299.5 1045.5,-280.5 970.5,-280.5"/>
<text text-anchor="middle" x="1008" y="-287.5" font-family="Helvetica,sans-Serif" font-size="10.00">arg_iface.hpp</text>
</a>
</g>
</g>
<!-- Node1&#45;&gt;Node7 -->
<g id="edge45" class="edge"><title>Node1&#45;&gt;Node7</title>
<path fill="none" stroke="midnightblue" d="M862.898,-386.78C876.477,-377.947 894.272,-366.344 910,-356 940.533,-335.918 976.28,-312.141 995.022,-299.654"/>
<polygon fill="midnightblue" stroke="midnightblue" points="860.724,-384.019 854.248,-392.404 864.539,-389.888 860.724,-384.019"/>
</g>
<!-- Node8 -->
<g id="node8" class="node"><title>Node8</title>
<g id="a_node8"><a xlink:href="arg_8hpp.html" target="_top" xlink:title="arg.hpp">
<polygon fill="none" stroke="black" points="946.5,-224.5 946.5,-243.5 995.5,-243.5 995.5,-224.5 946.5,-224.5"/>
<text text-anchor="middle" x="971" y="-231.5" font-family="Helvetica,sans-Serif" font-size="10.00">arg.hpp</text>
</a>
</g>
</g>
<!-- Node1&#45;&gt;Node8 -->
<g id="edge57" class="edge"><title>Node1&#45;&gt;Node8</title>
<path fill="none" stroke="midnightblue" d="M880.962,-396.572C934.802,-388.221 1028.75,-364.699 1071,-300 1091.78,-268.187 1031.39,-248.584 995.517,-240.032"/>
<polygon fill="midnightblue" stroke="midnightblue" points="880.152,-393.153 870.755,-398.048 881.153,-400.081 880.152,-393.153"/>
</g>
<!-- Node9 -->
<g id="node9" class="node"><title>Node9</title>
<g id="a_node9"><a xlink:href="multi__arg_8hpp.html" target="_top" xlink:title="multi_arg.hpp">
<polygon fill="none" stroke="black" points="932.5,-168.5 932.5,-187.5 1007.5,-187.5 1007.5,-168.5 932.5,-168.5"/>
<text text-anchor="middle" x="970" y="-175.5" font-family="Helvetica,sans-Serif" font-size="10.00">multi_arg.hpp</text>
</a>
</g>
</g>
<!-- Node1&#45;&gt;Node9 -->
<g id="edge58" class="edge"><title>Node1&#45;&gt;Node9</title>
<path fill="none" stroke="midnightblue" d="M880.973,-396.866C937.715,-390.37 1038.06,-376.376 1068,-356 1092.46,-339.352 1095.66,-328.389 1104,-300 1120.78,-242.858 1038.84,-203.884 995.474,-187.587"/>
<polygon fill="midnightblue" stroke="midnightblue" points="880.461,-393.401 870.912,-397.992 881.239,-400.358 880.461,-393.401"/>
</g>
<!-- Node10 -->
<g id="node10" class="node"><title>Node10</title>
<g id="a_node10"><a xlink:href="help_8hpp.html" target="_top" xlink:title="help.hpp">
<polygon fill="none" stroke="black" points="386.5,-168.5 386.5,-187.5 439.5,-187.5 439.5,-168.5 386.5,-168.5"/>
<text text-anchor="middle" x="413" y="-175.5" font-family="Helvetica,sans-Serif" font-size="10.00">help.hpp</text>
</a>
</g>
</g>
<!-- Node1&#45;&gt;Node10 -->
<g id="edge63" class="edge"><title>Node1&#45;&gt;Node10</title>
<path fill="none" stroke="midnightblue" d="M801.045,-400.074C650.416,-396.391 124.206,-381.721 100,-356 7.37299,-257.577 295.278,-199.035 386.329,-183.312"/>
<polygon fill="midnightblue" stroke="midnightblue" points="801.148,-403.577 811.229,-400.32 801.317,-396.579 801.148,-403.577"/>
</g>
<!-- Node11 -->
<g id="node11" class="node"><title>Node11</title>
<g id="a_node11"><a xlink:href="group__iface_8hpp.html" target="_top" xlink:title="group_iface.hpp">
<polygon fill="none" stroke="black" points="690,-224.5 690,-243.5 776,-243.5 776,-224.5 690,-224.5"/>
<text text-anchor="middle" x="733" y="-231.5" font-family="Helvetica,sans-Serif" font-size="10.00">group_iface.hpp</text>
</a>
</g>
</g>
<!-- Node1&#45;&gt;Node11 -->
<g id="edge59" class="edge"><title>Node1&#45;&gt;Node11</title>
<path fill="none" stroke="midnightblue" d="M810.265,-388.211C777.572,-372.729 727.65,-343.236 706,-300 696.152,-280.333 713.501,-256.188 724.67,-243.585"/>
<polygon fill="midnightblue" stroke="midnightblue" points="808.849,-391.412 819.399,-392.387 811.759,-385.046 808.849,-391.412"/>
</g>
<!-- Node12 -->
<g id="node12" class="node"><title>Node12</title>
<g id="a_node12"><a xlink:href="groups_8hpp.html" target="_top" xlink:title="groups.hpp">
<polygon fill="none" stroke="black" points="849.5,-168.5 849.5,-187.5 914.5,-187.5 914.5,-168.5 849.5,-168.5"/>
<text text-anchor="middle" x="882" y="-175.5" font-family="Helvetica,sans-Serif" font-size="10.00">groups.hpp</text>
</a>
</g>
</g>
<!-- Node1&#45;&gt;Node12 -->
<g id="edge60" class="edge"><title>Node1&#45;&gt;Node12</title>
<path fill="none" stroke="midnightblue" d="M881.076,-400.445C942.892,-397.041 1057.56,-379.792 1088,-300 1105.94,-252.96 1048.87,-246.832 1004,-224 973.417,-208.438 936.141,-195.492 910.903,-187.541"/>
<polygon fill="midnightblue" stroke="midnightblue" points="880.736,-396.957 870.905,-400.907 881.053,-403.95 880.736,-396.957"/>
</g>
<!-- Node13 -->
<g id="node13" class="node"><title>Node13</title>
<g id="a_node13"><a xlink:href="help__printer_8hpp.html" target="_top" xlink:title="help_printer.hpp">
<polygon fill="none" stroke="black" points="479,-112.5 479,-131.5 565,-131.5 565,-112.5 479,-112.5"/>
<text text-anchor="middle" x="522" y="-119.5" font-family="Helvetica,sans-Serif" font-size="10.00">help_printer.hpp</text>
</a>
</g>
</g>
<!-- Node1&#45;&gt;Node13 -->
<g id="edge64" class="edge"><title>Node1&#45;&gt;Node13</title>
<path fill="none" stroke="midnightblue" d="M801.413,-400.273C683.862,-397.195 340.807,-381.283 273,-300 235.109,-254.578 217.821,-213.18 256,-168 284.039,-134.819 411.109,-126.097 478.97,-123.809"/>
<polygon fill="midnightblue" stroke="midnightblue" points="801.344,-403.772 811.427,-400.518 801.515,-396.774 801.344,-403.772"/>
</g>
<!-- Node14 -->
<g id="node14" class="node"><title>Node14</title>
<g id="a_node14"><a xlink:href="command_8hpp.html" target="_top" xlink:title="command.hpp">
<polygon fill="none" stroke="black" points="265,-168.5 265,-187.5 343,-187.5 343,-168.5 265,-168.5"/>
<text text-anchor="middle" x="304" y="-175.5" font-family="Helvetica,sans-Serif" font-size="10.00">command.hpp</text>
</a>
</g>
</g>
<!-- Node1&#45;&gt;Node14 -->
<g id="edge62" class="edge"><title>Node1&#45;&gt;Node14</title>
<path fill="none" stroke="midnightblue" d="M801.153,-400.133C648.449,-396.618 107.833,-382.351 83,-356 59.834,-331.418 67.7662,-310.147 83,-280 116.96,-212.793 211.008,-190.204 264.838,-182.687"/>
<polygon fill="midnightblue" stroke="midnightblue" points="801.388,-403.639 811.465,-400.367 801.547,-396.641 801.388,-403.639"/>
</g>
<!-- Node15 -->
<g id="node15" class="node"><title>Node15</title>
<g id="a_node15"><a xlink:href="context_8hpp.html" target="_top" xlink:title="context.hpp">
<polygon fill="none" stroke="black" points="296,-280.5 296,-299.5 364,-299.5 364,-280.5 296,-280.5"/>
<text text-anchor="middle" x="330" y="-287.5" font-family="Helvetica,sans-Serif" font-size="10.00">context.hpp</text>
</a>
</g>
</g>
<!-- Node1&#45;&gt;Node15 -->
<g id="edge46" class="edge"><title>Node1&#45;&gt;Node15</title>
<path fill="none" stroke="midnightblue" d="M801.03,-398.67C737.057,-394.28 608.076,-382.707 502,-356 444.421,-341.503 379.714,-313.759 348.632,-299.67"/>
<polygon fill="midnightblue" stroke="midnightblue" points="800.885,-402.168 811.095,-399.338 801.348,-395.184 800.885,-402.168"/>
</g>
<!-- Node16 -->
<g id="node16" class="node"><title>Node16</title>
<g id="a_node16"><a xlink:href="value__utils_8hpp.html" target="_top" xlink:title="value_utils.hpp">
<polygon fill="none" stroke="black" points="870,-280.5 870,-299.5 952,-299.5 952,-280.5 870,-280.5"/>
<text text-anchor="middle" x="911" y="-287.5" font-family="Helvetica,sans-Serif" font-size="10.00">value_utils.hpp</text>
</a>
</g>
</g>
<!-- Node1&#45;&gt;Node16 -->
<g id="edge56" class="edge"><title>Node1&#45;&gt;Node16</title>
<path fill="none" stroke="midnightblue" d="M861.877,-386.456C871.941,-378.493 883.439,-367.843 891,-356 902.564,-337.888 907.794,-312.676 909.851,-299.614"/>
<polygon fill="midnightblue" stroke="midnightblue" points="859.76,-383.669 853.878,-392.481 863.972,-389.26 859.76,-383.669"/>
</g>
<!-- Node18 -->
<g id="node18" class="node"><title>Node18</title>
<g id="a_node18"><a xlink:href="exceptions_8hpp.html" target="_top" xlink:title="exceptions.hpp">
<polygon fill="none" stroke="black" points="799.5,-336.5 799.5,-355.5 882.5,-355.5 882.5,-336.5 799.5,-336.5"/>
<text text-anchor="middle" x="841" y="-343.5" font-family="Helvetica,sans-Serif" font-size="10.00">exceptions.hpp</text>
</a>
</g>
</g>
<!-- Node1&#45;&gt;Node18 -->
<g id="edge47" class="edge"><title>Node1&#45;&gt;Node18</title>
<path fill="none" stroke="midnightblue" d="M841,-381.805C841,-372.91 841,-362.78 841,-355.751"/>
<polygon fill="midnightblue" stroke="midnightblue" points="837.5,-382.083 841,-392.083 844.5,-382.083 837.5,-382.083"/>
</g>
<!-- Node3 -->
<g id="node3" class="node"><title>Node3</title>
<g id="a_node3"><a xlink:href="cmd__line_8hpp.html" target="_top" xlink:title="cmd_line.hpp">
<polygon fill="none" stroke="black" points="376,-56.5 376,-75.5 450,-75.5 450,-56.5 376,-56.5"/>
<text text-anchor="middle" x="413" y="-63.5" font-family="Helvetica,sans-Serif" font-size="10.00">cmd_line.hpp</text>
</a>
</g>
</g>
<!-- Node2&#45;&gt;Node3 -->
<g id="edge2" class="edge"><title>Node2&#45;&gt;Node3</title>
<path fill="none" stroke="midnightblue" d="M968.562,-117.848C864.991,-108.369 556.927,-80.173 450.028,-70.389"/>
<polygon fill="midnightblue" stroke="midnightblue" points="968.494,-121.356 978.771,-118.782 969.132,-114.385 968.494,-121.356"/>
</g>
<!-- Node3&#45;&gt;Node4 -->
<g id="edge3" class="edge"><title>Node3&#45;&gt;Node4</title>
<path fill="none" stroke="midnightblue" d="M370.518,-53.8639C327.76,-42.6555 263.442,-25.7954 229.625,-16.9308"/>
<polygon fill="midnightblue" stroke="midnightblue" points="369.798,-57.2934 380.359,-56.4435 371.573,-50.5222 369.798,-57.2934"/>
</g>
<!-- Node3&#45;&gt;Node5 -->
<g id="edge4" class="edge"><title>Node3&#45;&gt;Node5</title>
<path fill="none" stroke="midnightblue" d="M460.237,-61.1468C579.099,-51.4511 890.227,-26.0721 1018.48,-15.6103"/>
<polygon fill="midnightblue" stroke="midnightblue" points="459.693,-57.6795 450.011,-61.981 460.262,-64.6563 459.693,-57.6795"/>
</g>
<!-- Node5&#45;&gt;Node2 -->
<g id="edge5" class="edge"><title>Node5&#45;&gt;Node2</title>
<path fill="none" stroke="midnightblue" d="M1063.88,-27.9902C1048.29,-51.8015 1020.53,-94.2153 1008.65,-112.368"/>
<polygon fill="midnightblue" stroke="midnightblue" points="1066.83,-29.8753 1069.38,-19.5914 1060.97,-26.0416 1066.83,-29.8753"/>
</g>
<!-- Node6&#45;&gt;Node3 -->
<g id="edge38" class="edge"><title>Node6&#45;&gt;Node3</title>
<path fill="none" stroke="midnightblue" d="M501.086,-343.65C436.163,-340.503 305.34,-330.459 273,-300 212.105,-242.647 216.512,-164.047 282,-112 309.298,-90.3049 347.699,-78.7495 375.868,-72.8076"/>
<polygon fill="midnightblue" stroke="midnightblue" points="501.139,-347.156 511.288,-344.114 501.457,-340.163 501.139,-347.156"/>
</g>
<!-- Node6&#45;&gt;Node5 -->
<g id="edge37" class="edge"><title>Node6&#45;&gt;Node5</title>
<path fill="none" stroke="midnightblue" d="M553.357,-328.565C566.347,-314.99 585.716,-295.504 604,-280 636.275,-252.633 645.197,-246.556 681,-224 821.133,-135.713 1000.83,-46.8864 1057.25,-19.537"/>
<polygon fill="midnightblue" stroke="midnightblue" points="550.494,-326.498 546.159,-336.165 555.577,-331.311 550.494,-326.498"/>
</g>
<!-- Node6&#45;&gt;Node7 -->
<g id="edge7" class="edge"><title>Node6&#45;&gt;Node7</title>
<path fill="none" stroke="midnightblue" d="M574.979,-342.108C648.67,-336.115 818.965,-321.117 961,-300 964.041,-299.548 967.184,-299.039 970.337,-298.498"/>
<polygon fill="midnightblue" stroke="midnightblue" points="574.509,-338.635 564.823,-342.927 575.072,-345.612 574.509,-338.635"/>
</g>
<!-- Node6&#45;&gt;Node8 -->
<g id="edge24" class="edge"><title>Node6&#45;&gt;Node8</title>
<path fill="none" stroke="midnightblue" d="M574.945,-339.826C622.724,-332.749 708.318,-318.757 780,-300 842.52,-283.64 914.131,-257.1 949.256,-243.55"/>
<polygon fill="midnightblue" stroke="midnightblue" points="574.165,-336.403 564.776,-341.312 575.177,-343.329 574.165,-336.403"/>
</g>
<!-- Node6&#45;&gt;Node9 -->
<g id="edge35" class="edge"><title>Node6&#45;&gt;Node9</title>
<path fill="none" stroke="midnightblue" d="M569.767,-332.793C653.112,-300.767 876.531,-214.916 947.817,-187.524"/>
<polygon fill="midnightblue" stroke="midnightblue" points="568.396,-329.571 560.317,-336.425 570.907,-336.105 568.396,-329.571"/>
</g>
<!-- Node6&#45;&gt;Node10 -->
<g id="edge43" class="edge"><title>Node6&#45;&gt;Node10</title>
<path fill="none" stroke="midnightblue" d="M505.607,-332.321C471.775,-317.086 420.677,-287.95 399,-244 389.809,-225.365 400.464,-200.801 407.601,-187.858"/>
<polygon fill="midnightblue" stroke="midnightblue" points="504.509,-335.66 515.076,-336.427 507.294,-329.238 504.509,-335.66"/>
</g>
<!-- Node6&#45;&gt;Node11 -->
<g id="edge36" class="edge"><title>Node6&#45;&gt;Node11</title>
<path fill="none" stroke="midnightblue" d="M558.251,-330.685C578.108,-316.928 609.468,-295.936 638,-280 663.174,-265.939 693.461,-252.093 712.961,-243.553"/>
<polygon fill="midnightblue" stroke="midnightblue" points="556.186,-327.859 549.989,-336.453 560.192,-333.599 556.186,-327.859"/>
</g>
<!-- Node6&#45;&gt;Node13 -->
<g id="edge44" class="edge"><title>Node6&#45;&gt;Node13</title>
<path fill="none" stroke="midnightblue" d="M530.945,-326.74C528.19,-318.675 525.368,-308.999 524,-300 522.665,-291.212 523.387,-288.868 524,-280 525.114,-263.885 527.886,-260.115 529,-244 531.916,-201.806 525.938,-151.277 523.234,-131.513"/>
<polygon fill="midnightblue" stroke="midnightblue" points="527.688,-328.024 534.4,-336.222 534.265,-325.628 527.688,-328.024"/>
</g>
<!-- Node6&#45;&gt;Node14 -->
<g id="edge39" class="edge"><title>Node6&#45;&gt;Node14</title>
<path fill="none" stroke="midnightblue" d="M501.175,-343.813C438.388,-340.947 314.704,-331.367 287,-300 258.212,-267.405 286.431,-209.422 298.817,-187.613"/>
<polygon fill="midnightblue" stroke="midnightblue" points="501.291,-347.321 511.43,-344.246 501.586,-340.327 501.291,-347.321"/>
</g>
<!-- Node6&#45;&gt;Node15 -->
<g id="edge25" class="edge"><title>Node6&#45;&gt;Node15</title>
<path fill="none" stroke="midnightblue" d="M501.539,-335.534C462.334,-325.356 400.566,-309.32 362.827,-299.522"/>
<polygon fill="midnightblue" stroke="midnightblue" points="500.675,-338.926 511.233,-338.051 502.434,-332.15 500.675,-338.926"/>
</g>
<!-- Node6&#45;&gt;Node16 -->
<g id="edge31" class="edge"><title>Node6&#45;&gt;Node16</title>
<path fill="none" stroke="midnightblue" d="M574.617,-339.699C644.492,-329.583 796.413,-307.589 869.751,-296.972"/>
<polygon fill="midnightblue" stroke="midnightblue" points="573.922,-336.263 564.526,-341.16 574.925,-343.191 573.922,-336.263"/>
</g>
<!-- Node17 -->
<g id="node17" class="node"><title>Node17</title>
<g id="a_node17"><a xlink:href="help__printer__iface_8hpp.html" target="_top" xlink:title="help_printer_iface.hpp">
<polygon fill="none" stroke="black" points="408,-224.5 408,-243.5 520,-243.5 520,-224.5 408,-224.5"/>
<text text-anchor="middle" x="464" y="-231.5" font-family="Helvetica,sans-Serif" font-size="10.00">help_printer_iface.hpp</text>
</a>
</g>
</g>
<!-- Node6&#45;&gt;Node17 -->
<g id="edge40" class="edge"><title>Node6&#45;&gt;Node17</title>
<path fill="none" stroke="midnightblue" d="M516.008,-330.211C505.671,-322.299 493.91,-311.766 486,-300 473.902,-282.006 467.887,-256.744 465.42,-243.643"/>
<polygon fill="midnightblue" stroke="midnightblue" points="514.097,-333.149 524.24,-336.21 518.22,-327.492 514.097,-333.149"/>
</g>
<!-- Node7&#45;&gt;Node5 -->
<g id="edge23" class="edge"><title>Node7&#45;&gt;Node5</title>
<path fill="none" stroke="midnightblue" d="M1035.12,-275.342C1065.94,-257.675 1112,-223.777 1112,-179 1112,-179 1112,-179 1112,-121 1112,-81.3072 1090.09,-37.5645 1079.99,-19.5101"/>
<polygon fill="midnightblue" stroke="midnightblue" points="1033.19,-272.41 1026.12,-280.298 1036.56,-278.543 1033.19,-272.41"/>
</g>
<!-- Node7&#45;&gt;Node8 -->
<g id="edge8" class="edge"><title>Node7&#45;&gt;Node8</title>
<path fill="none" stroke="midnightblue" d="M996.054,-271.566C989.688,-262.275 982.133,-251.248 976.996,-243.751"/>
<polygon fill="midnightblue" stroke="midnightblue" points="993.351,-273.812 1001.89,-280.083 999.125,-269.855 993.351,-273.812"/>
</g>
<!-- Node7&#45;&gt;Node11 -->
<g id="edge14" class="edge"><title>Node7&#45;&gt;Node11</title>
<path fill="none" stroke="midnightblue" d="M960.381,-279.649C908.468,-269.456 826.133,-253.288 776.081,-243.46"/>
<polygon fill="midnightblue" stroke="midnightblue" points="959.852,-283.112 970.339,-281.605 961.201,-276.243 959.852,-283.112"/>
</g>
<!-- Node8&#45;&gt;Node2 -->
<g id="edge9" class="edge"><title>Node8&#45;&gt;Node2</title>
<path fill="none" stroke="midnightblue" d="M992.166,-218.044C1001.33,-210.257 1011.08,-199.879 1016,-188 1023.93,-168.862 1014.28,-144.502 1007.85,-131.725"/>
<polygon fill="midnightblue" stroke="midnightblue" points="989.747,-215.494 984.064,-224.436 994.083,-220.99 989.747,-215.494"/>
</g>
<!-- Node8&#45;&gt;Node9 -->
<g id="edge10" class="edge"><title>Node8&#45;&gt;Node9</title>
<path fill="none" stroke="midnightblue" d="M970.645,-213.805C970.48,-204.91 970.292,-194.78 970.162,-187.751"/>
<polygon fill="midnightblue" stroke="midnightblue" points="967.15,-214.15 970.835,-224.083 974.149,-214.02 967.15,-214.15"/>
</g>
<!-- Node8&#45;&gt;Node10 -->
<g id="edge12" class="edge"><title>Node8&#45;&gt;Node10</title>
<path fill="none" stroke="midnightblue" d="M936.124,-229.625C833.036,-219.649 531.245,-190.443 439.659,-181.58"/>
<polygon fill="midnightblue" stroke="midnightblue" points="936.013,-233.13 946.303,-230.61 936.687,-226.163 936.013,-233.13"/>
</g>
<!-- Node9&#45;&gt;Node2 -->
<g id="edge11" class="edge"><title>Node9&#45;&gt;Node2</title>
<path fill="none" stroke="midnightblue" d="M980.832,-159.275C986.472,-150.045 993.118,-139.17 997.652,-131.751"/>
<polygon fill="midnightblue" stroke="midnightblue" points="977.677,-157.725 975.449,-168.083 983.65,-161.375 977.677,-157.725"/>
</g>
<!-- Node10&#45;&gt;Node3 -->
<g id="edge13" class="edge"><title>Node10&#45;&gt;Node3</title>
<path fill="none" stroke="midnightblue" d="M413,-158.348C413,-134.254 413,-93.3079 413,-75.5914"/>
<polygon fill="midnightblue" stroke="midnightblue" points="409.5,-158.368 413,-168.368 416.5,-158.369 409.5,-158.368"/>
</g>
<!-- Node11&#45;&gt;Node12 -->
<g id="edge15" class="edge"><title>Node11&#45;&gt;Node12</title>
<path fill="none" stroke="midnightblue" d="M766.371,-220.906C794.384,-210.754 833.696,-196.506 858.501,-187.516"/>
<polygon fill="midnightblue" stroke="midnightblue" points="764.819,-217.746 756.609,-224.444 767.204,-224.327 764.819,-217.746"/>
</g>
<!-- Node11&#45;&gt;Node13 -->
<g id="edge22" class="edge"><title>Node11&#45;&gt;Node13</title>
<path fill="none" stroke="midnightblue" d="M707.555,-219.735C663.723,-196.884 575.154,-150.711 538.48,-131.591"/>
<polygon fill="midnightblue" stroke="midnightblue" points="705.958,-222.849 716.443,-224.368 709.194,-216.642 705.958,-222.849"/>
</g>
<!-- Node11&#45;&gt;Node14 -->
<g id="edge19" class="edge"><title>Node11&#45;&gt;Node14</title>
<path fill="none" stroke="midnightblue" d="M679.927,-226.319C592.499,-215.315 420.2,-193.627 343.01,-183.91"/>
<polygon fill="midnightblue" stroke="midnightblue" points="679.543,-229.799 689.902,-227.575 680.417,-222.853 679.543,-229.799"/>
</g>
<!-- Node12&#45;&gt;Node2 -->
<g id="edge16" class="edge"><title>Node12&#45;&gt;Node2</title>
<path fill="none" stroke="midnightblue" d="M910.306,-164.368C932.965,-154.255 964.126,-140.349 983.917,-131.516"/>
<polygon fill="midnightblue" stroke="midnightblue" points="908.878,-161.172 901.173,-168.444 911.731,-167.564 908.878,-161.172"/>
</g>
<!-- Node12&#45;&gt;Node13 -->
<g id="edge17" class="edge"><title>Node12&#45;&gt;Node13</title>
<path fill="none" stroke="midnightblue" d="M839.323,-170.598C770.248,-160.237 634.701,-139.905 565.257,-129.488"/>
<polygon fill="midnightblue" stroke="midnightblue" points="839.009,-174.09 849.417,-172.113 840.047,-167.168 839.009,-174.09"/>
</g>
<!-- Node13&#45;&gt;Node3 -->
<g id="edge18" class="edge"><title>Node13&#45;&gt;Node3</title>
<path fill="none" stroke="midnightblue" d="M495.481,-107.862C475.27,-97.8492 448.013,-84.3458 430.469,-75.6545"/>
<polygon fill="midnightblue" stroke="midnightblue" points="493.973,-111.021 504.487,-112.324 497.08,-104.748 493.973,-111.021"/>
</g>
<!-- Node14&#45;&gt;Node3 -->
<g id="edge20" class="edge"><title>Node14&#45;&gt;Node3</title>
<path fill="none" stroke="midnightblue" d="M319.651,-161.205C343.015,-137.627 386.216,-94.0294 404.487,-75.5914"/>
<polygon fill="midnightblue" stroke="midnightblue" points="317.106,-158.802 312.553,-168.368 322.078,-163.729 317.106,-158.802"/>
</g>
<!-- Node14&#45;&gt;Node13 -->
<g id="edge21" class="edge"><title>Node14&#45;&gt;Node13</title>
<path fill="none" stroke="midnightblue" d="M348.312,-166.024C389.492,-155.823 449.973,-140.841 487.619,-131.516"/>
<polygon fill="midnightblue" stroke="midnightblue" points="347.408,-162.642 338.543,-168.444 349.091,-169.436 347.408,-162.642"/>
</g>
<!-- Node15&#45;&gt;Node3 -->
<g id="edge28" class="edge"><title>Node15&#45;&gt;Node3</title>
<path fill="none" stroke="midnightblue" d="M309.288,-274.096C280.609,-251.533 234.62,-207.177 256,-168 283.481,-117.645 348.014,-88.6392 385.225,-75.5325"/>
<polygon fill="midnightblue" stroke="midnightblue" points="307.46,-277.103 317.539,-280.369 311.697,-271.53 307.46,-277.103"/>
</g>
<!-- Node15&#45;&gt;Node8 -->
<g id="edge26" class="edge"><title>Node15&#45;&gt;Node8</title>
<path fill="none" stroke="midnightblue" d="M374.331,-285.265C499.108,-274.754 850.452,-245.155 946.48,-237.066"/>
<polygon fill="midnightblue" stroke="midnightblue" points="373.681,-281.808 364.01,-286.135 374.269,-288.783 373.681,-281.808"/>
</g>
<!-- Node15&#45;&gt;Node9 -->
<g id="edge27" class="edge"><title>Node15&#45;&gt;Node9</title>
<path fill="none" stroke="midnightblue" d="M374.43,-280.25C440.958,-267.267 570.465,-242.45 681,-224 788.255,-206.097 815.8,-206.229 923,-188 926.03,-187.485 929.167,-186.93 932.315,-186.359"/>
<polygon fill="midnightblue" stroke="midnightblue" points="373.448,-276.875 364.306,-282.229 374.792,-283.745 373.448,-276.875"/>
</g>
<!-- Node15&#45;&gt;Node10 -->
<g id="edge30" class="edge"><title>Node15&#45;&gt;Node10</title>
<path fill="none" stroke="midnightblue" d="M338.21,-270.852C344.767,-257.296 354.707,-238.657 366,-224 376.893,-209.861 392.244,-196.033 402.4,-187.519"/>
<polygon fill="midnightblue" stroke="midnightblue" points="334.96,-269.538 333.888,-280.079 341.299,-272.508 334.96,-269.538"/>
</g>
<!-- Node15&#45;&gt;Node14 -->
<g id="edge29" class="edge"><title>Node15&#45;&gt;Node14</title>
<path fill="none" stroke="midnightblue" d="M311.21,-273.657C303.031,-265.761 294.335,-255.402 290,-244 282.616,-224.578 292.537,-200.333 299.079,-187.65"/>
<polygon fill="midnightblue" stroke="midnightblue" points="308.959,-276.34 318.734,-280.427 313.642,-271.137 308.959,-276.34"/>
</g>
<!-- Node16&#45;&gt;Node8 -->
<g id="edge32" class="edge"><title>Node16&#45;&gt;Node8</title>
<path fill="none" stroke="midnightblue" d="M928.181,-273.537C938.879,-263.909 952.256,-251.869 961.185,-243.834"/>
<polygon fill="midnightblue" stroke="midnightblue" points="925.732,-271.033 920.64,-280.324 930.414,-276.236 925.732,-271.033"/>
</g>
<!-- Node16&#45;&gt;Node9 -->
<g id="edge33" class="edge"><title>Node16&#45;&gt;Node9</title>
<path fill="none" stroke="midnightblue" d="M917.029,-270.399C921.679,-257.084 928.707,-238.945 937,-224 944.522,-210.446 955.532,-196.257 962.732,-187.52"/>
<polygon fill="midnightblue" stroke="midnightblue" points="913.579,-269.679 913.707,-280.273 920.213,-271.911 913.579,-269.679"/>
</g>
<!-- Node16&#45;&gt;Node14 -->
<g id="edge34" class="edge"><title>Node16&#45;&gt;Node14</title>
<path fill="none" stroke="midnightblue" d="M859.881,-287.789C747.627,-284.602 482.909,-274.046 399,-244 363.629,-231.334 328.975,-202.216 313.061,-187.641"/>
<polygon fill="midnightblue" stroke="midnightblue" points="859.845,-291.289 869.938,-288.067 860.038,-284.292 859.845,-291.289"/>
</g>
<!-- Node17&#45;&gt;Node10 -->
<g id="edge41" class="edge"><title>Node17&#45;&gt;Node10</title>
<path fill="none" stroke="midnightblue" d="M448.622,-216.718C439.633,-207.2 428.641,-195.561 421.265,-187.751"/>
<polygon fill="midnightblue" stroke="midnightblue" points="446.168,-219.216 455.578,-224.083 451.257,-214.41 446.168,-219.216"/>
</g>
<!-- Node17&#45;&gt;Node13 -->
<g id="edge42" class="edge"><title>Node17&#45;&gt;Node13</title>
<path fill="none" stroke="midnightblue" d="M473.322,-215.32C485.951,-191.37 508.002,-149.548 517.47,-131.591"/>
<polygon fill="midnightblue" stroke="midnightblue" points="470.119,-213.89 468.551,-224.368 476.311,-217.155 470.119,-213.89"/>
</g>
<!-- Node18&#45;&gt;Node3 -->
<g id="edge53" class="edge"><title>Node18&#45;&gt;Node3</title>
<path fill="none" stroke="midnightblue" d="M838.173,-326.358C835.967,-313.247 832.518,-295.371 828,-280 820.459,-254.345 822.223,-245.257 806,-224 780.762,-190.93 767.666,-187.651 731,-168 636.037,-117.104 511.197,-86.8492 450.025,-74.1088"/>
<polygon fill="midnightblue" stroke="midnightblue" points="834.754,-327.147 839.787,-336.47 841.667,-326.043 834.754,-327.147"/>
</g>
<!-- Node18&#45;&gt;Node5 -->
<g id="edge52" class="edge"><title>Node18&#45;&gt;Node5</title>
<path fill="none" stroke="midnightblue" d="M892.841,-340.798C944.157,-335.452 1024.34,-323.873 1090,-300 1191.96,-262.93 1302,-287.489 1302,-179 1302,-179 1302,-179 1302,-121 1302,-45.457 1198.93,-21.7751 1131.7,-14.3633"/>
<polygon fill="midnightblue" stroke="midnightblue" points="892.262,-337.338 882.66,-341.816 892.958,-344.303 892.262,-337.338"/>
</g>
<!-- Node18&#45;&gt;Node8 -->
<g id="edge48" class="edge"><title>Node18&#45;&gt;Node8</title>
<path fill="none" stroke="midnightblue" d="M893.025,-341.363C949.436,-336.209 1034.11,-324.528 1054,-300 1074.4,-274.836 1026.91,-253.397 995.663,-242.561"/>
<polygon fill="midnightblue" stroke="midnightblue" points="892.5,-337.895 882.842,-342.251 893.108,-344.869 892.5,-337.895"/>
</g>
<!-- Node18&#45;&gt;Node9 -->
<g id="edge50" class="edge"><title>Node18&#45;&gt;Node9</title>
<path fill="none" stroke="midnightblue" d="M892.809,-342.302C953.582,-337.926 1048.88,-326.873 1071,-300 1105.87,-257.644 1024.17,-207.413 987.1,-187.623"/>
<polygon fill="midnightblue" stroke="midnightblue" points="892.368,-338.823 882.63,-342.996 892.845,-345.807 892.368,-338.823"/>
</g>
<!-- Node18&#45;&gt;Node10 -->
<g id="edge54" class="edge"><title>Node18&#45;&gt;Node10</title>
<path fill="none" stroke="midnightblue" d="M803.552,-333.447C776.291,-324.812 738.594,-312.405 706,-300 625.987,-269.548 608.254,-256.376 529,-224 496.805,-210.848 459.224,-196.44 435.766,-187.558"/>
<polygon fill="midnightblue" stroke="midnightblue" points="802.505,-336.787 813.095,-336.451 804.607,-330.11 802.505,-336.787"/>
</g>
<!-- Node18&#45;&gt;Node11 -->
<g id="edge51" class="edge"><title>Node18&#45;&gt;Node11</title>
<path fill="none" stroke="midnightblue" d="M789.114,-340.584C761.997,-335.333 730.997,-324.055 714,-300 701.652,-282.525 716.465,-257.044 726.06,-243.773"/>
<polygon fill="midnightblue" stroke="midnightblue" points="788.834,-344.086 799.28,-342.315 790.009,-337.186 788.834,-344.086"/>
</g>
<!-- Node18&#45;&gt;Node13 -->
<g id="edge55" class="edge"><title>Node18&#45;&gt;Node13</title>
<path fill="none" stroke="midnightblue" d="M834.428,-326.616C823.383,-296.581 800.76,-238.839 785,-224 722.504,-165.157 622.092,-139.526 565.123,-129.225"/>
<polygon fill="midnightblue" stroke="midnightblue" points="831.24,-328.09 837.94,-336.297 837.82,-325.703 831.24,-328.09"/>
</g>
<!-- Node18&#45;&gt;Node16 -->
<g id="edge49" class="edge"><title>Node18&#45;&gt;Node16</title>
<path fill="none" stroke="midnightblue" d="M860.314,-330.101C872.912,-320.382 888.928,-308.027 899.549,-299.834"/>
<polygon fill="midnightblue" stroke="midnightblue" points="858.027,-327.445 852.247,-336.324 862.302,-332.987 858.027,-327.445"/>
</g>
</g>
</svg>
        <g id="navigator" transform="translate(0 0)" fill="#404254">
                <rect fill="#f2f5e9" fill-opacity="0.5" stroke="#606060" stroke-width=".5" x="0" y="0" width="60" height="60"/>
                <use id="zoomplus" xlink:href="#zoomPlus" x="17" y="9" onmousedown="handleZoom(evt,'in')"/>
                <use id="zoomminus" xlink:href="#zoomMin" x="42" y="9" onmousedown="handleZoom(evt,'out')"/>
                <use id="reset" xlink:href="#resetDef" x="30" y="36" onmousedown="handleReset()"/>
                <g id="arrowUp" xlink:href="#dirArrow" transform="translate(30 24)" onmousedown="handlePan(0,-1)">
                  <use xlink:href="#rim" fill="#404040">
                        <set attributeName="fill" to="#808080" begin="arrowUp.mouseover" end="arrowUp.mouseout"/>
                  </use>
                  <path fill="none" stroke="white" stroke-width="1.5" d="M0,-3.0v7 M-2.5,-0.5L0,-3.0L2.5,-0.5"/>
                </g>
                <g id="arrowRight" xlink:href="#dirArrow" transform="rotate(90) translate(36 -43)" onmousedown="handlePan(1,0)">
                  <use xlink:href="#rim" fill="#404040">
                        <set attributeName="fill" to="#808080" begin="arrowRight.mouseover" end="arrowRight.mouseout"/>
                  </use>
                  <path fill="none" stroke="white" stroke-width="1.5" d="M0,-3.0v7 M-2.5,-0.5L0,-3.0L2.5,-0.5"/>
                </g>
                <g id="arrowDown" xlink:href="#dirArrow" transform="rotate(180) translate(-30 -48)" onmousedown="handlePan(0,1)">
                  <use xlink:href="#rim" fill="#404040">
                        <set attributeName="fill" to="#808080" begin="arrowDown.mouseover" end="arrowDown.mouseout"/>
                  </use>
                  <path fill="none" stroke="white" stroke-width="1.5" d="M0,-3.0v7 M-2.5,-0.5L0,-3.0L2.5,-0.5"/>
                </g>
                <g id="arrowLeft" xlink:href="#dirArrow" transform="rotate(270) translate(-36 17)" onmousedown="handlePan(-1,0)">
                  <use xlink:href="#rim" fill="#404040">
                        <set attributeName="fill" to="#808080" begin="arrowLeft.mouseover" end="arrowLeft.mouseout"/>
                  </use>
                  <path fill="none" stroke="white" stroke-width="1.5" d="M0,-3.0v7 M-2.5,-0.5L0,-3.0L2.5,-0.5"/>
                </g>
        </g>
        <svg viewBox="0 0 15 15" width="100%" height="30px" preserveAspectRatio="xMaxYMin meet">
         <g id="arrow_out" transform="scale(0.3 0.3)">
          <a xlink:href="types_8hpp__dep__incl_org.svg" target="_base">
           <rect id="button" ry="5" rx="5" y="6" x="6" height="38" width="38"
                fill="#f2f5e9" fill-opacity="0.5" stroke="#606060" stroke-width="1.0"/>
           <path id="arrow"
             d="M 11.500037,31.436501 C 11.940474,20.09759 22.043105,11.32322 32.158766,21.979434 L 37.068811,17.246167 C 37.068811,17.246167 37.088388,32 37.088388,32 L 22.160133,31.978069 C 22.160133,31.978069 26.997745,27.140456 26.997745,27.140456 C 18.528582,18.264221 13.291696,25.230495 11.500037,31.436501 z"
             style="fill:#404040;"/>
          </a>
         </g>
        </svg>
</svg>
