<?xml version="1.0" encoding="UTF-8" standalone="no"?>
<!DOCTYPE svg PUBLIC "-//W3C//DTD SVG 1.1//EN"
 "http://www.w3.org/Graphics/SVG/1.1/DTD/svg11.dtd">
<!-- Generated by graphviz version 2.40.1 (20161225.0304)
 -->
<!-- Title: types.hpp Pages: 1 -->
<svg width="1348pt" height="420pt"
 viewBox="0.00 0.00 1348.00 420.00" xmlns="http://www.w3.org/2000/svg" xmlns:xlink="http://www.w3.org/1999/xlink">
<g id="graph0" class="graph" transform="scale(1 1) rotate(0) translate(4 416)">
<title>types.hpp</title>
<!-- Node4 -->
<g id="node1" class="node">
<title>Node4</title>
<polygon fill="#bfbfbf" stroke="#000000" points="811.5,-392.5 811.5,-411.5 870.5,-411.5 870.5,-392.5 811.5,-392.5"/>
<text text-anchor="middle" x="841" y="-399.5" font-family="Helvetica,sans-Serif" font-size="10.00" fill="#000000">types.hpp</text>
</g>
<!-- Node5 -->
<g id="node2" class="node">
<title>Node5</title>
<g id="a_node2"><a xlink:href="api_8hpp.html" target="_top" xlink:title="api.hpp">
<polygon fill="none" stroke="#000000" points="968,-112.5 968,-131.5 1016,-131.5 1016,-112.5 968,-112.5"/>
<text text-anchor="middle" x="992" y="-119.5" font-family="Helvetica,sans-Serif" font-size="10.00" fill="#000000">api.hpp</text>
</a>
</g>
</g>
<!-- Node4&#45;&gt;Node5 -->
<g id="edge1" class="edge">
<title>Node4&#45;&gt;Node5</title>
<path fill="none" stroke="#191970" d="M881.042,-399.0842C943.4886,-393.8243 1060.311,-380.9042 1093,-356 1121.5138,-334.2767 1127.9846,-314.9455 1120,-280 1104.3517,-211.5131 1035.6859,-154.0283 1005.884,-131.8249"/>
<polygon fill="#191970" stroke="#191970" points="880.4595,-395.62 870.777,-399.9211 881.0283,-402.5969 880.4595,-395.62"/>
</g>
<!-- Node7 -->
<g id="node4" class="node">
<title>Node7</title>
<g id="a_node4"><a xlink:href="all_8hpp.html" target="_top" xlink:title="all.hpp">
<polygon fill="none" stroke="#000000" points="170.5,-.5 170.5,-19.5 215.5,-19.5 215.5,-.5 170.5,-.5"/>
<text text-anchor="middle" x="193" y="-7.5" font-family="Helvetica,sans-Serif" font-size="10.00" fill="#000000">all.hpp</text>
</a>
</g>
</g>
<!-- Node4&#45;&gt;Node7 -->
<g id="edge65" class="edge">
<title>Node4&#45;&gt;Node7</title>
<path fill="none" stroke="#191970" d="M801.3766,-401.2723C652.8705,-398.3234 134.3344,-385.9583 67,-356 28.8103,-339.0087 0,-331.799 0,-290 0,-290 0,-290 0,-122 0,-43.9385 119.5714,-19.3743 170.4827,-12.4532"/>
<polygon fill="#191970" stroke="#191970" points="801.3518,-404.7724 811.4183,-401.4684 801.4886,-397.7737 801.3518,-404.7724"/>
</g>
<!-- Node8 -->
<g id="node5" class="node">
<title>Node8</title>
<g id="a_node5"><a xlink:href="arg__as__command_8hpp.html" target="_top" xlink:title="arg_as_command.hpp">
<polygon fill="none" stroke="#000000" points="1032.5,-.5 1032.5,-19.5 1145.5,-19.5 1145.5,-.5 1032.5,-.5"/>
<text text-anchor="middle" x="1089" y="-7.5" font-family="Helvetica,sans-Serif" font-size="10.00" fill="#000000">arg_as_command.hpp</text>
</a>
</g>
</g>
<!-- Node4&#45;&gt;Node8 -->
<g id="edge61" class="edge">
<title>Node4&#45;&gt;Node8</title>
<path fill="none" stroke="#191970" d="M880.8017,-397.3028C999.0376,-382.817 1340,-336.9714 1340,-290 1340,-290 1340,-290 1340,-122 1340,-84.9295 1320.2199,-75.9885 1289,-56 1265.5205,-40.9673 1196.0039,-27.1232 1145.5126,-18.6325"/>
<polygon fill="#191970" stroke="#191970" points="880.2251,-393.847 870.7204,-398.5279 881.0696,-400.7959 880.2251,-393.847"/>
</g>
<!-- Node9 -->
<g id="node6" class="node">
<title>Node9</title>
<g id="a_node6"><a xlink:href="utils_8hpp.html" target="_top" xlink:title="utils.hpp">
<polygon fill="none" stroke="#000000" points="511.5,-336.5 511.5,-355.5 564.5,-355.5 564.5,-336.5 511.5,-336.5"/>
<text text-anchor="middle" x="538" y="-343.5" font-family="Helvetica,sans-Serif" font-size="10.00" fill="#000000">utils.hpp</text>
</a>
</g>
</g>
<!-- Node4&#45;&gt;Node9 -->
<g id="edge6" class="edge">
<title>Node4&#45;&gt;Node9</title>
<path fill="none" stroke="#191970" d="M801.4845,-394.6968C738.7867,-383.1091 618.1507,-360.8133 564.6609,-350.9274"/>
<polygon fill="#191970" stroke="#191970" points="800.9258,-398.1527 811.3954,-396.5285 802.1981,-391.2693 800.9258,-398.1527"/>
</g>
<!-- Node10 -->
<g id="node7" class="node">
<title>Node10</title>
<g id="a_node7"><a xlink:href="arg__iface_8hpp.html" target="_top" xlink:title="arg_iface.hpp">
<polygon fill="none" stroke="#000000" points="970.5,-280.5 970.5,-299.5 1045.5,-299.5 1045.5,-280.5 970.5,-280.5"/>
<text text-anchor="middle" x="1008" y="-287.5" font-family="Helvetica,sans-Serif" font-size="10.00" fill="#000000">arg_iface.hpp</text>
</a>
</g>
</g>
<!-- Node4&#45;&gt;Node10 -->
<g id="edge45" class="edge">
<title>Node4&#45;&gt;Node10</title>
<path fill="none" stroke="#191970" d="M864.1558,-386.6019C877.5586,-377.6796 894.743,-366.2231 910,-356 939.8213,-336.0179 974.6667,-312.5132 993.7319,-299.6397"/>
<polygon fill="#191970" stroke="#191970" points="861.9375,-383.8739 855.5513,-392.3278 865.8155,-389.7016 861.9375,-383.8739"/>
</g>
<!-- Node11 -->
<g id="node8" class="node">
<title>Node11</title>
<g id="a_node8"><a xlink:href="arg_8hpp.html" target="_top" xlink:title="arg.hpp">
<polygon fill="none" stroke="#000000" points="946.5,-224.5 946.5,-243.5 995.5,-243.5 995.5,-224.5 946.5,-224.5"/>
<text text-anchor="middle" x="971" y="-231.5" font-family="Helvetica,sans-Serif" font-size="10.00" fill="#000000">arg.hpp</text>
</a>
</g>
</g>
<!-- Node4&#45;&gt;Node11 -->
<g id="edge57" class="edge">
<title>Node4&#45;&gt;Node11</title>
<path fill="none" stroke="#191970" d="M880.9758,-397.3979C934.833,-388.8118 1028.7989,-364.8801 1071,-300 1091.8127,-268.0025 1031.4086,-247.9658 995.5262,-239.1832"/>
<polygon fill="#191970" stroke="#191970" points="880.1418,-393.9834 870.7663,-398.9181 881.1728,-400.9071 880.1418,-393.9834"/>
</g>
<!-- Node12 -->
<g id="node9" class="node">
<title>Node12</title>
<g id="a_node9"><a xlink:href="multi__arg_8hpp.html" target="_top" xlink:title="multi_arg.hpp">
<polygon fill="none" stroke="#000000" points="932.5,-168.5 932.5,-187.5 1007.5,-187.5 1007.5,-168.5 932.5,-168.5"/>
<text text-anchor="middle" x="970" y="-175.5" font-family="Helvetica,sans-Serif" font-size="10.00" fill="#000000">multi_arg.hpp</text>
</a>
</g>
</g>
<!-- Node4&#45;&gt;Node12 -->
<g id="edge58" class="edge">
<title>Node4&#45;&gt;Node12</title>
<path fill="none" stroke="#191970" d="M880.7692,-397.6081C937.2265,-390.7597 1037.0871,-376.1961 1067,-356 1091.7234,-339.3077 1095.4145,-328.5686 1104,-300 1120.9325,-243.6563 1041.6273,-204.5299 997.6468,-187.5315"/>
<polygon fill="#191970" stroke="#191970" points="880.2767,-394.1419 870.7592,-398.7967 881.1021,-401.0931 880.2767,-394.1419"/>
</g>
<!-- Node13 -->
<g id="node10" class="node">
<title>Node13</title>
<g id="a_node10"><a xlink:href="help_8hpp.html" target="_top" xlink:title="help.hpp">
<polygon fill="none" stroke="#000000" points="393.5,-168.5 393.5,-187.5 446.5,-187.5 446.5,-168.5 393.5,-168.5"/>
<text text-anchor="middle" x="420" y="-175.5" font-family="Helvetica,sans-Serif" font-size="10.00" fill="#000000">help.hpp</text>
</a>
</g>
</g>
<!-- Node4&#45;&gt;Node13 -->
<g id="edge63" class="edge">
<title>Node4&#45;&gt;Node13</title>
<path fill="none" stroke="#191970" d="M801.0443,-401.019C650.412,-397.1297 124.191,-381.7393 100,-356 5.524,-255.4772 301.1411,-197.4752 393.4046,-182.1357"/>
<polygon fill="#191970" stroke="#191970" points="801.1426,-404.5226 811.2287,-401.2792 801.3214,-397.5249 801.1426,-404.5226"/>
</g>
<!-- Node14 -->
<g id="node11" class="node">
<title>Node14</title>
<g id="a_node11"><a xlink:href="group__iface_8hpp.html" target="_top" xlink:title="group_iface.hpp">
<polygon fill="none" stroke="#000000" points="690,-224.5 690,-243.5 776,-243.5 776,-224.5 690,-224.5"/>
<text text-anchor="middle" x="733" y="-231.5" font-family="Helvetica,sans-Serif" font-size="10.00" fill="#000000">group_iface.hpp</text>
</a>
</g>
</g>
<!-- Node4&#45;&gt;Node14 -->
<g id="edge59" class="edge">
<title>Node4&#45;&gt;Node14</title>
<path fill="none" stroke="#191970" d="M808.3443,-388.0762C775.6391,-372.1344 727.2074,-342.6035 706,-300 696.2903,-280.4942 712.6931,-256.6135 723.8931,-243.593"/>
<polygon fill="#191970" stroke="#191970" points="806.9901,-391.307 817.5285,-392.3994 809.9714,-384.9736 806.9901,-391.307"/>
</g>
<!-- Node15 -->
<g id="node12" class="node">
<title>Node15</title>
<g id="a_node12"><a xlink:href="groups_8hpp.html" target="_top" xlink:title="groups.hpp">
<polygon fill="none" stroke="#000000" points="849.5,-168.5 849.5,-187.5 914.5,-187.5 914.5,-168.5 849.5,-168.5"/>
<text text-anchor="middle" x="882" y="-175.5" font-family="Helvetica,sans-Serif" font-size="10.00" fill="#000000">groups.hpp</text>
</a>
</g>
</g>
<!-- Node4&#45;&gt;Node15 -->
<g id="edge60" class="edge">
<title>Node4&#45;&gt;Node15</title>
<path fill="none" stroke="#191970" d="M880.8381,-399.7466C922.6015,-395.8413 988.8582,-385.1683 1038,-356 1066.6923,-338.9695 1076.1079,-331.1747 1088,-300 1105.944,-252.9604 1048.7888,-246.9931 1004,-224 974.2971,-208.7515 938.3213,-195.8037 913.1618,-187.5675"/>
<polygon fill="#191970" stroke="#191970" points="880.4415,-396.2676 870.7733,-400.6008 881.0335,-403.2425 880.4415,-396.2676"/>
</g>
<!-- Node16 -->
<g id="node13" class="node">
<title>Node16</title>
<g id="a_node13"><a xlink:href="help__printer_8hpp.html" target="_top" xlink:title="help_printer.hpp">
<polygon fill="none" stroke="#000000" points="459,-112.5 459,-131.5 545,-131.5 545,-112.5 459,-112.5"/>
<text text-anchor="middle" x="502" y="-119.5" font-family="Helvetica,sans-Serif" font-size="10.00" fill="#000000">help_printer.hpp</text>
</a>
</g>
</g>
<!-- Node4&#45;&gt;Node16 -->
<g id="edge64" class="edge">
<title>Node4&#45;&gt;Node16</title>
<path fill="none" stroke="#191970" d="M801.4149,-401.1942C683.8691,-397.8853 340.8275,-381.3078 273,-300 235.1089,-254.5783 218.2128,-213.5081 256,-168 281.2927,-137.5394 395.2511,-127.1357 458.8115,-123.6694"/>
<polygon fill="#191970" stroke="#191970" points="801.3389,-404.6933 811.428,-401.459 801.524,-397.6958 801.3389,-404.6933"/>
</g>
<!-- Node17 -->
<g id="node14" class="node">
<title>Node17</title>
<g id="a_node14"><a xlink:href="command_8hpp.html" target="_top" xlink:title="command.hpp">
<polygon fill="none" stroke="#000000" points="265,-168.5 265,-187.5 343,-187.5 343,-168.5 265,-168.5"/>
<text text-anchor="middle" x="304" y="-175.5" font-family="Helvetica,sans-Serif" font-size="10.00" fill="#000000">command.hpp</text>
</a>
</g>
</g>
<!-- Node4&#45;&gt;Node17 -->
<g id="edge62" class="edge">
<title>Node4&#45;&gt;Node17</title>
<path fill="none" stroke="#191970" d="M801.1525,-401.0793C648.4444,-397.3604 107.8173,-382.369 83,-356 59.8502,-331.4027 67.5803,-310.0528 83,-280 117.434,-212.8887 211.2943,-189.7759 264.968,-181.9325"/>
<polygon fill="#191970" stroke="#191970" points="801.3832,-404.5858 811.4646,-401.3276 801.5518,-397.5878 801.3832,-404.5858"/>
</g>
<!-- Node18 -->
<g id="node15" class="node">
<title>Node18</title>
<g id="a_node15"><a xlink:href="context_8hpp.html" target="_top" xlink:title="context.hpp">
<polygon fill="none" stroke="#000000" points="296,-280.5 296,-299.5 364,-299.5 364,-280.5 296,-280.5"/>
<text text-anchor="middle" x="330" y="-287.5" font-family="Helvetica,sans-Serif" font-size="10.00" fill="#000000">context.hpp</text>
</a>
</g>
</g>
<!-- Node4&#45;&gt;Node18 -->
<g id="edge46" class="edge">
<title>Node4&#45;&gt;Node18</title>
<path fill="none" stroke="#191970" d="M801.0145,-399.5807C737.0201,-395.0412 608.0095,-383.14 502,-356 445.4529,-341.5231 382.1169,-314.145 350.4095,-299.6174"/>
<polygon fill="#191970" stroke="#191970" points="800.8663,-403.0787 811.0825,-400.2718 801.3457,-396.0951 800.8663,-403.0787"/>
</g>
<!-- Node19 -->
<g id="node16" class="node">
<title>Node19</title>
<g id="a_node16"><a xlink:href="value__utils_8hpp.html" target="_top" xlink:title="value_utils.hpp">
<polygon fill="none" stroke="#000000" points="870,-280.5 870,-299.5 952,-299.5 952,-280.5 870,-280.5"/>
<text text-anchor="middle" x="911" y="-287.5" font-family="Helvetica,sans-Serif" font-size="10.00" fill="#000000">value_utils.hpp</text>
</a>
</g>
</g>
<!-- Node4&#45;&gt;Node19 -->
<g id="edge56" class="edge">
<title>Node4&#45;&gt;Node19</title>
<path fill="none" stroke="#191970" d="M863.3663,-385.8519C873.0648,-377.841 883.8206,-367.435 891,-356 902.332,-337.9508 907.5746,-313.0929 909.7174,-299.6208"/>
<polygon fill="#191970" stroke="#191970" points="860.9344,-383.3114 855.2321,-392.2408 865.2583,-388.8164 860.9344,-383.3114"/>
</g>
<!-- Node21 -->
<g id="node18" class="node">
<title>Node21</title>
<g id="a_node18"><a xlink:href="exceptions_8hpp.html" target="_top" xlink:title="exceptions.hpp">
<polygon fill="none" stroke="#000000" points="799.5,-336.5 799.5,-355.5 882.5,-355.5 882.5,-336.5 799.5,-336.5"/>
<text text-anchor="middle" x="841" y="-343.5" font-family="Helvetica,sans-Serif" font-size="10.00" fill="#000000">exceptions.hpp</text>
</a>
</g>
</g>
<!-- Node4&#45;&gt;Node21 -->
<g id="edge47" class="edge">
<title>Node4&#45;&gt;Node21</title>
<path fill="none" stroke="#191970" d="M841,-382.1575C841,-373.155 841,-362.9199 841,-355.6427"/>
<polygon fill="#191970" stroke="#191970" points="837.5001,-382.2455 841,-392.2455 844.5001,-382.2456 837.5001,-382.2455"/>
</g>
<!-- Node6 -->
<g id="node3" class="node">
<title>Node6</title>
<g id="a_node3"><a xlink:href="cmd__line_8hpp.html" target="_top" xlink:title="cmd_line.hpp">
<polygon fill="none" stroke="#000000" points="383,-56.5 383,-75.5 457,-75.5 457,-56.5 383,-56.5"/>
<text text-anchor="middle" x="420" y="-63.5" font-family="Helvetica,sans-Serif" font-size="10.00" fill="#000000">cmd_line.hpp</text>
</a>
</g>
</g>
<!-- Node5&#45;&gt;Node6 -->
<g id="edge2" class="edge">
<title>Node5&#45;&gt;Node6</title>
<path fill="none" stroke="#191970" d="M957.5367,-118.626C856.5337,-108.7376 561.7868,-79.8812 457.278,-69.6496"/>
<polygon fill="#191970" stroke="#191970" points="957.4937,-122.1384 967.7872,-119.6295 958.1759,-115.1717 957.4937,-122.1384"/>
</g>
<!-- Node6&#45;&gt;Node7 -->
<g id="edge3" class="edge">
<title>Node6&#45;&gt;Node7</title>
<path fill="none" stroke="#191970" d="M372.9075,-54.3825C324.8448,-42.5256 252.2752,-24.6229 215.7325,-15.608"/>
<polygon fill="#191970" stroke="#191970" points="372.2225,-57.8183 382.7698,-56.8154 373.8992,-51.0221 372.2225,-57.8183"/>
</g>
<!-- Node6&#45;&gt;Node8 -->
<g id="edge4" class="edge">
<title>Node6&#45;&gt;Node8</title>
<path fill="none" stroke="#191970" d="M467.3875,-62.0333C587.3982,-51.9876 902.9489,-25.5738 1032.3772,-14.7397"/>
<polygon fill="#191970" stroke="#191970" points="467.075,-58.5472 457.4019,-62.8692 467.659,-65.5228 467.075,-58.5472"/>
</g>
<!-- Node8&#45;&gt;Node5 -->
<g id="edge5" class="edge">
<title>Node8&#45;&gt;Node5</title>
<path fill="none" stroke="#191970" d="M1074.166,-27.1279C1053.4789,-51.014 1016.6634,-93.5227 1000.2702,-112.4509"/>
<polygon fill="#191970" stroke="#191970" points="1076.8497,-29.3754 1080.7508,-19.5249 1071.5583,-24.7927 1076.8497,-29.3754"/>
</g>
<!-- Node9&#45;&gt;Node6 -->
<g id="edge38" class="edge">
<title>Node9&#45;&gt;Node6</title>
<path fill="none" stroke="#191970" d="M501.0792,-344.502C436.1451,-341.096 305.3047,-330.5374 273,-300 212.1939,-242.5204 216.9857,-163.414 283,-112 312.1969,-89.2606 353.2293,-77.454 382.7661,-71.5307"/>
<polygon fill="#191970" stroke="#191970" points="501.1221,-348.0083 511.2828,-345.0066 501.4679,-341.0169 501.1221,-348.0083"/>
</g>
<!-- Node9&#45;&gt;Node8 -->
<g id="edge37" class="edge">
<title>Node9&#45;&gt;Node8</title>
<path fill="none" stroke="#191970" d="M553.824,-328.745C566.784,-314.9727 585.8749,-295.4878 604,-280 636.1705,-252.5105 645.0566,-246.3314 681,-224 823.6752,-135.3569 1006.8222,-48.1406 1068.0341,-19.6593"/>
<polygon fill="#191970" stroke="#191970" points="551.2093,-326.417 546.9554,-336.1203 556.3319,-331.1876 551.2093,-326.417"/>
</g>
<!-- Node9&#45;&gt;Node10 -->
<g id="edge7" class="edge">
<title>Node9&#45;&gt;Node10</title>
<path fill="none" stroke="#191970" d="M575.0166,-343.2438C648.7732,-337.4724 819.1794,-322.7386 961,-300 964.0478,-299.5113 967.1963,-298.955 970.3529,-298.3609"/>
<polygon fill="#191970" stroke="#191970" points="574.5509,-339.7693 564.8506,-344.0302 575.0908,-346.7484 574.5509,-339.7693"/>
</g>
<!-- Node9&#45;&gt;Node11 -->
<g id="edge24" class="edge">
<title>Node9&#45;&gt;Node11</title>
<path fill="none" stroke="#191970" d="M574.9542,-340.6822C622.7424,-333.4174 708.3466,-319.0823 780,-300 841.1931,-283.7034 911.0472,-257.5766 946.9277,-243.5834"/>
<polygon fill="#191970" stroke="#191970" points="574.1528,-337.2632 564.7828,-342.2082 575.1914,-344.1857 574.1528,-337.2632"/>
</g>
<!-- Node9&#45;&gt;Node12 -->
<g id="edge35" class="edge">
<title>Node9&#45;&gt;Node12</title>
<path fill="none" stroke="#191970" d="M571.7999,-332.8556C655.7957,-300.1906 872.4839,-215.9229 945.5373,-187.5133"/>
<polygon fill="#191970" stroke="#191970" points="570.5154,-329.5997 562.464,-336.4862 573.0526,-336.1237 570.5154,-329.5997"/>
</g>
<!-- Node9&#45;&gt;Node13 -->
<g id="edge43" class="edge">
<title>Node9&#45;&gt;Node13</title>
<path fill="none" stroke="#191970" d="M503.7081,-332.1408C469.964,-316.4038 420.4717,-287.1757 399,-244 389.5765,-225.051 403.0361,-200.9615 412.3686,-187.7561"/>
<polygon fill="#191970" stroke="#191970" points="502.6427,-335.4991 513.1985,-336.4071 505.5128,-329.1146 502.6427,-335.4991"/>
</g>
<!-- Node9&#45;&gt;Node14 -->
<g id="edge36" class="edge">
<title>Node9&#45;&gt;Node14</title>
<path fill="none" stroke="#191970" d="M559.5745,-330.557C579.4806,-316.6013 610.0899,-295.875 638,-280 662.3706,-266.1383 691.544,-252.4148 711.0744,-243.6156"/>
<polygon fill="#191970" stroke="#191970" points="557.3786,-327.8229 551.2297,-336.4508 561.417,-333.5406 557.3786,-327.8229"/>
</g>
<!-- Node9&#45;&gt;Node16 -->
<g id="edge44" class="edge">
<title>Node9&#45;&gt;Node16</title>
<path fill="none" stroke="#191970" d="M530.7381,-326.7C528.0494,-318.581 525.3327,-308.9561 524,-300 519.0177,-266.5179 533.3676,-257.5679 529,-224 524.4857,-189.3046 511.6779,-149.6024 505.4649,-131.6778"/>
<polygon fill="#191970" stroke="#191970" points="527.5064,-328.0598 534.1376,-336.3228 534.1067,-325.728 527.5064,-328.0598"/>
</g>
<!-- Node9&#45;&gt;Node17 -->
<g id="edge39" class="edge">
<title>Node9&#45;&gt;Node17</title>
<path fill="none" stroke="#191970" d="M501.1661,-344.6589C438.3666,-341.5323 314.6628,-331.4428 287,-300 258.4662,-267.5671 285.5468,-210.3578 298.2411,-187.6657"/>
<polygon fill="#191970" stroke="#191970" points="501.2719,-348.1675 511.4233,-345.1344 501.5962,-341.175 501.2719,-348.1675"/>
</g>
<!-- Node9&#45;&gt;Node18 -->
<g id="edge25" class="edge">
<title>Node9&#45;&gt;Node18</title>
<path fill="none" stroke="#191970" d="M501.4103,-336.1489C462.6923,-325.7249 402.0726,-309.4042 364.2614,-299.2242"/>
<polygon fill="#191970" stroke="#191970" points="500.6674,-339.5735 511.2335,-338.7936 502.4872,-332.8142 500.6674,-339.5735"/>
</g>
<!-- Node9&#45;&gt;Node19 -->
<g id="edge31" class="edge">
<title>Node9&#45;&gt;Node19</title>
<path fill="none" stroke="#191970" d="M574.6169,-340.5026C644.492,-330.0119 796.4127,-307.2035 869.7508,-296.1929"/>
<polygon fill="#191970" stroke="#191970" points="573.8957,-337.0715 564.5262,-342.0175 574.9351,-343.9939 573.8957,-337.0715"/>
</g>
<!-- Node20 -->
<g id="node17" class="node">
<title>Node20</title>
<g id="a_node17"><a xlink:href="help__printer__iface_8hpp.html" target="_top" xlink:title="help_printer_iface.hpp">
<polygon fill="none" stroke="#000000" points="408,-224.5 408,-243.5 520,-243.5 520,-224.5 408,-224.5"/>
<text text-anchor="middle" x="464" y="-231.5" font-family="Helvetica,sans-Serif" font-size="10.00" fill="#000000">help_printer_iface.hpp</text>
</a>
</g>
</g>
<!-- Node9&#45;&gt;Node20 -->
<g id="edge40" class="edge">
<title>Node9&#45;&gt;Node20</title>
<path fill="none" stroke="#191970" d="M515.1741,-330.1615C505.0367,-322.1334 493.6858,-311.6256 486,-300 474.1435,-282.0658 468.1388,-257.163 465.5804,-243.6528"/>
<polygon fill="#191970" stroke="#191970" points="513.2066,-333.0616 523.2969,-336.2921 517.4235,-327.4743 513.2066,-333.0616"/>
</g>
<!-- Node10&#45;&gt;Node8 -->
<g id="edge23" class="edge">
<title>Node10&#45;&gt;Node8</title>
<path fill="none" stroke="#191970" d="M1036.6076,-275.0855C1067.394,-256.7415 1112,-222.4871 1112,-178 1112,-178 1112,-178 1112,-122 1112,-83.4906 1098.7916,-39.0277 1092.3937,-19.7497"/>
<polygon fill="#191970" stroke="#191970" points="1034.5031,-272.2572 1027.5616,-280.2614 1037.9795,-278.333 1034.5031,-272.2572"/>
</g>
<!-- Node10&#45;&gt;Node11 -->
<g id="edge8" class="edge">
<title>Node10&#45;&gt;Node11</title>
<path fill="none" stroke="#191970" d="M995.8624,-271.6296C989.6907,-262.2887 982.4434,-251.3197 977.3711,-243.6427"/>
<polygon fill="#191970" stroke="#191970" points="993.1223,-273.8316 1001.5551,-280.2455 998.9627,-269.9728 993.1223,-273.8316"/>
</g>
<!-- Node10&#45;&gt;Node14 -->
<g id="edge14" class="edge">
<title>Node10&#45;&gt;Node14</title>
<path fill="none" stroke="#191970" d="M960.3818,-279.8877C890.1066,-265.3522 820.1361,-251.3272 776.3127,-242.5971"/>
<polygon fill="#191970" stroke="#191970" points="959.7952,-283.3404 970.2973,-281.9416 961.2151,-276.4859 959.7952,-283.3404"/>
</g>
<!-- Node11&#45;&gt;Node5 -->
<g id="edge9" class="edge">
<title>Node11&#45;&gt;Node5</title>
<path fill="none" stroke="#191970" d="M993.2638,-217.6617C1002.1073,-209.7992 1011.2844,-199.5637 1016,-188 1024.0107,-168.3558 1010.0445,-144.9251 1000.2754,-131.9303"/>
<polygon fill="#191970" stroke="#191970" points="990.8504,-215.1158 985.3737,-224.1853 995.3109,-220.5106 990.8504,-215.1158"/>
</g>
<!-- Node11&#45;&gt;Node12 -->
<g id="edge10" class="edge">
<title>Node11&#45;&gt;Node12</title>
<path fill="none" stroke="#191970" d="M970.6457,-214.1575C970.4849,-205.155 970.3021,-194.9199 970.1722,-187.6427"/>
<polygon fill="#191970" stroke="#191970" points="967.1477,-214.3097 970.8258,-224.2455 974.1466,-214.1846 967.1477,-214.3097"/>
</g>
<!-- Node11&#45;&gt;Node13 -->
<g id="edge12" class="edge">
<title>Node11&#45;&gt;Node13</title>
<path fill="none" stroke="#191970" d="M936.1679,-230.4599C834.1023,-220.0866 537.2313,-189.9146 446.5919,-180.7026"/>
<polygon fill="#191970" stroke="#191970" points="935.9516,-233.9559 946.2542,-231.485 936.6594,-226.9917 935.9516,-233.9559"/>
</g>
<!-- Node12&#45;&gt;Node5 -->
<g id="edge11" class="edge">
<title>Node12&#45;&gt;Node5</title>
<path fill="none" stroke="#191970" d="M977.5628,-158.7493C981.1546,-149.6064 985.2901,-139.0798 988.2118,-131.6427"/>
<polygon fill="#191970" stroke="#191970" points="974.2311,-157.6582 973.8321,-168.2455 980.7463,-160.2178 974.2311,-157.6582"/>
</g>
<!-- Node13&#45;&gt;Node6 -->
<g id="edge13" class="edge">
<title>Node13&#45;&gt;Node6</title>
<path fill="none" stroke="#191970" d="M420,-158.2702C420,-133.9985 420,-93.7725 420,-75.5249"/>
<polygon fill="#191970" stroke="#191970" points="416.5001,-158.4509 420,-168.4509 423.5001,-158.451 416.5001,-158.4509"/>
</g>
<!-- Node14&#45;&gt;Node15 -->
<g id="edge15" class="edge">
<title>Node14&#45;&gt;Node15</title>
<path fill="none" stroke="#191970" d="M768.1512,-220.7888C795.3568,-210.5639 832.3809,-196.6488 856.7202,-187.5011"/>
<polygon fill="#191970" stroke="#191970" points="766.7434,-217.5788 758.614,-224.3733 769.2061,-224.1313 766.7434,-217.5788"/>
</g>
<!-- Node14&#45;&gt;Node16 -->
<g id="edge22" class="edge">
<title>Node14&#45;&gt;Node16</title>
<path fill="none" stroke="#191970" d="M704.1415,-220.008C656.4548,-196.8872 562.4312,-151.3 521.6451,-131.5249"/>
<polygon fill="#191970" stroke="#191970" points="702.7799,-223.2375 713.3051,-224.4509 705.8339,-216.9388 702.7799,-223.2375"/>
</g>
<!-- Node14&#45;&gt;Node17 -->
<g id="edge19" class="edge">
<title>Node14&#45;&gt;Node17</title>
<path fill="none" stroke="#191970" d="M679.9271,-227.0721C592.4987,-215.6595 420.2002,-193.1683 343.0098,-183.0922"/>
<polygon fill="#191970" stroke="#191970" points="679.5327,-230.5502 689.9016,-228.3741 680.4388,-223.6091 679.5327,-230.5502"/>
</g>
<!-- Node15&#45;&gt;Node5 -->
<g id="edge16" class="edge">
<title>Node15&#45;&gt;Node5</title>
<path fill="none" stroke="#191970" d="M910.2914,-163.5971C930.0111,-153.558 955.78,-140.4393 973.059,-131.6427"/>
<polygon fill="#191970" stroke="#191970" points="908.4843,-160.5896 901.1605,-168.2455 911.6601,-166.8277 908.4843,-160.5896"/>
</g>
<!-- Node15&#45;&gt;Node16 -->
<g id="edge17" class="edge">
<title>Node15&#45;&gt;Node16</title>
<path fill="none" stroke="#191970" d="M839.05,-171.6705C765.9739,-160.9014 618.2741,-139.1351 545.0976,-128.3512"/>
<polygon fill="#191970" stroke="#191970" points="838.8691,-175.1816 849.2725,-173.177 839.8897,-168.2564 838.8691,-175.1816"/>
</g>
<!-- Node16&#45;&gt;Node6 -->
<g id="edge18" class="edge">
<title>Node16&#45;&gt;Node6</title>
<path fill="none" stroke="#191970" d="M479.289,-106.49C464.8212,-96.6096 446.532,-84.1194 434.1196,-75.6427"/>
<polygon fill="#191970" stroke="#191970" points="477.4848,-109.4962 487.7167,-112.2455 481.4325,-103.7156 477.4848,-109.4962"/>
</g>
<!-- Node17&#45;&gt;Node6 -->
<g id="edge20" class="edge">
<title>Node17&#45;&gt;Node6</title>
<path fill="none" stroke="#191970" d="M321.127,-161.4635C345.756,-137.6838 390.3805,-94.5982 410.1349,-75.5249"/>
<polygon fill="#191970" stroke="#191970" points="318.653,-158.9871 313.8901,-168.4509 323.5152,-164.0229 318.653,-158.9871"/>
</g>
<!-- Node17&#45;&gt;Node16 -->
<g id="edge21" class="edge">
<title>Node17&#45;&gt;Node16</title>
<path fill="none" stroke="#191970" d="M347.8845,-165.5882C384.2623,-155.2996 435.2121,-140.8895 468.4067,-131.5011"/>
<polygon fill="#191970" stroke="#191970" points="346.7074,-162.2838 338.0374,-168.3733 348.6125,-169.0195 346.7074,-162.2838"/>
</g>
<!-- Node18&#45;&gt;Node6 -->
<g id="edge28" class="edge">
<title>Node18&#45;&gt;Node6</title>
<path fill="none" stroke="#191970" d="M308.2428,-274.1638C279.373,-251.1119 234.4254,-206.8253 256,-168 283.9312,-117.7354 348.0414,-89.0404 387.321,-75.5736"/>
<polygon fill="#191970" stroke="#191970" points="306.1894,-277.0003 316.2428,-280.344 310.4689,-271.4607 306.1894,-277.0003"/>
</g>
<!-- Node18&#45;&gt;Node11 -->
<g id="edge26" class="edge">
<title>Node18&#45;&gt;Node11</title>
<path fill="none" stroke="#191970" d="M374.3312,-286.1271C499.1082,-275.2261 850.4523,-244.5315 946.4799,-236.1422"/>
<polygon fill="#191970" stroke="#191970" points="373.6678,-282.6716 364.0104,-287.0287 374.2771,-289.645 373.6678,-282.6716"/>
</g>
<!-- Node18&#45;&gt;Node12 -->
<g id="edge27" class="edge">
<title>Node18&#45;&gt;Node12</title>
<path fill="none" stroke="#191970" d="M374.4217,-281.0837C440.9392,-267.8604 570.4336,-242.6121 681,-224 788.2305,-205.9495 815.9917,-207.324 923,-188 926.0375,-187.4515 929.1788,-186.8526 932.3305,-186.2294"/>
<polygon fill="#191970" stroke="#191970" points="373.423,-277.7138 364.2994,-283.0999 374.7904,-284.579 373.423,-277.7138"/>
</g>
<!-- Node18&#45;&gt;Node13 -->
<g id="edge30" class="edge">
<title>Node18&#45;&gt;Node13</title>
<path fill="none" stroke="#191970" d="M338.1272,-270.9044C344.5365,-257.077 354.3259,-238.3689 366,-224 377.6486,-209.6625 394.1859,-196.3339 405.8838,-187.7543"/>
<polygon fill="#191970" stroke="#191970" points="334.7808,-269.8154 333.9095,-280.3743 341.1753,-272.6633 334.7808,-269.8154"/>
</g>
<!-- Node18&#45;&gt;Node17 -->
<g id="edge29" class="edge">
<title>Node18&#45;&gt;Node17</title>
<path fill="none" stroke="#191970" d="M309.9994,-273.0348C302.1815,-265.1126 294.1149,-255.0031 290,-244 282.7788,-224.6907 292.1039,-200.7364 298.6373,-187.6506"/>
<polygon fill="#191970" stroke="#191970" points="307.9015,-275.8671 317.5788,-280.18 312.7032,-270.7736 307.9015,-275.8671"/>
</g>
<!-- Node19&#45;&gt;Node11 -->
<g id="edge32" class="edge">
<title>Node19&#45;&gt;Node11</title>
<path fill="none" stroke="#191970" d="M928.8278,-273.3607C939.2078,-263.6727 951.9291,-251.7995 960.6686,-243.6427"/>
<polygon fill="#191970" stroke="#191970" points="926.3737,-270.8636 921.4512,-280.2455 931.1499,-275.981 926.3737,-270.8636"/>
</g>
<!-- Node19&#45;&gt;Node12 -->
<g id="edge33" class="edge">
<title>Node19&#45;&gt;Node12</title>
<path fill="none" stroke="#191970" d="M917.2096,-270.6271C921.8623,-257.166 928.8186,-239.0192 937,-224 944.2405,-210.7081 954.7117,-196.7616 961.9065,-187.7582"/>
<polygon fill="#191970" stroke="#191970" points="913.8376,-269.6751 913.9926,-280.2688 920.4777,-271.8906 913.8376,-269.6751"/>
</g>
<!-- Node19&#45;&gt;Node17 -->
<g id="edge34" class="edge">
<title>Node19&#45;&gt;Node17</title>
<path fill="none" stroke="#191970" d="M859.863,-288.7215C747.573,-285.38 482.786,-274.4319 399,-244 364.2679,-231.385 330.386,-202.8083 314.0749,-187.7319"/>
<polygon fill="#191970" stroke="#191970" points="859.8265,-292.2218 869.9235,-289.0125 860.029,-285.2247 859.8265,-292.2218"/>
</g>
<!-- Node20&#45;&gt;Node13 -->
<g id="edge41" class="edge">
<title>Node20&#45;&gt;Node13</title>
<path fill="none" stroke="#191970" d="M450.0231,-216.2112C442.5871,-206.7472 433.734,-195.4797 427.5764,-187.6427"/>
<polygon fill="#191970" stroke="#191970" points="447.4054,-218.5447 456.3358,-224.2455 452.9097,-214.22 447.4054,-218.5447"/>
</g>
<!-- Node20&#45;&gt;Node16 -->
<g id="edge42" class="edge">
<title>Node20&#45;&gt;Node16</title>
<path fill="none" stroke="#191970" d="M470.4718,-214.9253C478.6815,-190.7284 492.5212,-149.9376 498.7683,-131.5249"/>
<polygon fill="#191970" stroke="#191970" points="467.1385,-213.8566 467.2399,-224.4509 473.7673,-216.1057 467.1385,-213.8566"/>
</g>
<!-- Node21&#45;&gt;Node6 -->
<g id="edge53" class="edge">
<title>Node21&#45;&gt;Node6</title>
<path fill="none" stroke="#191970" d="M839.7648,-326.3118C837.2291,-300.4088 829.5035,-254.5953 806,-224 780.4398,-190.7274 767.2842,-187.2427 730,-168 637.1083,-120.0579 517.0932,-88.2397 457.2998,-74.2061"/>
<polygon fill="#191970" stroke="#191970" points="836.2852,-326.7059 840.5838,-336.3895 843.2622,-326.1388 836.2852,-326.7059"/>
</g>
<!-- Node21&#45;&gt;Node8 -->
<g id="edge52" class="edge">
<title>Node21&#45;&gt;Node8</title>
<path fill="none" stroke="#191970" d="M892.8591,-341.5885C944.1896,-336.0353 1024.3811,-324.1339 1090,-300 1192.0282,-262.4751 1302,-286.7101 1302,-178 1302,-178 1302,-178 1302,-122 1302,-51.1834 1208.6232,-25.0439 1145.5209,-15.4645"/>
<polygon fill="#191970" stroke="#191970" points="892.2594,-338.1319 882.6752,-342.6478 892.9837,-345.0944 892.2594,-338.1319"/>
</g>
<!-- Node21&#45;&gt;Node11 -->
<g id="edge48" class="edge">
<title>Node21&#45;&gt;Node11</title>
<path fill="none" stroke="#191970" d="M893.0376,-342.1094C949.4615,-336.682 1034.1483,-324.5966 1054,-300 1074.4657,-274.6426 1026.9537,-252.7989 995.6809,-241.7321"/>
<polygon fill="#191970" stroke="#191970" points="892.49,-338.645 882.8529,-343.0469 893.1317,-345.6155 892.49,-338.645"/>
</g>
<!-- Node21&#45;&gt;Node12 -->
<g id="edge50" class="edge">
<title>Node21&#45;&gt;Node12</title>
<path fill="none" stroke="#191970" d="M892.822,-343.0672C953.6068,-338.4181 1048.9135,-326.9412 1071,-300 1105.4297,-258.0025 1026.6214,-208.1929 988.8057,-187.6214"/>
<polygon fill="#191970" stroke="#191970" points="892.36,-339.5915 882.64,-343.8073 892.8675,-346.5731 892.36,-339.5915"/>
</g>
<!-- Node21&#45;&gt;Node13 -->
<g id="edge54" class="edge">
<title>Node21&#45;&gt;Node13</title>
<path fill="none" stroke="#191970" d="M800.869,-333.2257C773.8632,-324.4096 737.5605,-312.1319 706,-300 626.0889,-269.282 607.7715,-257.5325 529,-224 499.3291,-211.3693 465.055,-196.9297 442.9835,-187.6505"/>
<polygon fill="#191970" stroke="#191970" points="800.1426,-336.6696 810.7347,-336.4275 802.3035,-330.0115 800.1426,-336.6696"/>
</g>
<!-- Node21&#45;&gt;Node14 -->
<g id="edge51" class="edge">
<title>Node21&#45;&gt;Node14</title>
<path fill="none" stroke="#191970" d="M789.6551,-333.807C758.5588,-325.2672 723.1737,-313.0796 714,-300 701.8128,-282.6237 715.7591,-257.503 725.3891,-243.8082"/>
<polygon fill="#191970" stroke="#191970" points="788.9978,-337.2539 799.5619,-336.448 790.8009,-330.4901 788.9978,-337.2539"/>
</g>
<!-- Node21&#45;&gt;Node16 -->
<g id="edge55" class="edge">
<title>Node21&#45;&gt;Node16</title>
<path fill="none" stroke="#191970" d="M834.3113,-326.9524C823.2846,-296.4835 800.9278,-238.7099 785,-224 716.4193,-160.663 605.636,-136.0458 545.0214,-126.9563"/>
<polygon fill="#191970" stroke="#191970" points="831.0523,-328.2338 837.71,-336.4756 837.6451,-325.8809 831.0523,-328.2338"/>
</g>
<!-- Node21&#45;&gt;Node19 -->
<g id="edge49" class="edge">
<title>Node21&#45;&gt;Node19</title>
<path fill="none" stroke="#191970" d="M861.09,-329.928C873.3253,-320.1397 888.5507,-307.9595 898.9467,-299.6427"/>
<polygon fill="#191970" stroke="#191970" points="858.8153,-327.2655 853.1931,-336.2455 863.1882,-332.7316 858.8153,-327.2655"/>
</g>
</g>
</svg>
