<?xml version="1.0" encoding="UTF-8" standalone="no"?>
<!DOCTYPE svg PUBLIC "-//W3C//DTD SVG 1.1//EN"
 "http://www.w3.org/Graphics/SVG/1.1/DTD/svg11.dtd">
<!-- Generated by graphviz version 14.1.2 (0)
 -->
<!-- Title: types.hpp Pages: 1 -->
<!--zoomable 532 -->

<svg id="main" version="1.1" xmlns="http://www.w3.org/2000/svg" xmlns:xlink="http://www.w3.org/1999/xlink" xml:space="preserve" onload="init(evt)">

<style type="text/css"><![CDATA[
.node, .edge {opacity: 0.7;}
.node.selected, .edge.selected {opacity: 1;}
.edge:hover path { stroke: red; }
.edge:hover polygon { stroke: red; fill: red; }
]]></style>

<defs>
  <circle id="rim" cx="0" cy="0" r="7"/>
  <circle id="rim2" cx="0" cy="0" r="3.5"/>
  <g id="zoomPlus">
    <use xlink:href="#rim" fill="#404040"><set attributeName="fill" to="#808080" begin="zoomplus.mouseover" end="zoomplus.mouseout"/></use>
    <path d="M-4,0h8M0,-4v8" fill="none" stroke="white" stroke-width="1.5" pointer-events="none"/>
  </g>
  <g id="zoomMin">
    <use xlink:href="#rim" fill="#404040"><set attributeName="fill" to="#808080" begin="zoomminus.mouseover" end="zoomminus.mouseout"/></use>
    <path d="M-4,0h8" fill="none" stroke="white" stroke-width="1.5" pointer-events="none"/>
  </g>
  <g id="arrowUp" transform="translate(30 24)">
    <use xlink:href="#rim"/>
    <path pointer-events="none" fill="none" stroke="white" stroke-width="1.5" d="M0,-3.0v7 M-2.5,-0.5L0,-3.0L2.5,-0.5"/>
  </g>
  <g id="arrowRight" transform="rotate(90) translate(36 -43)">
    <use xlink:href="#rim"/>
    <path pointer-events="none" fill="none" stroke="white" stroke-width="1.5" d="M0,-3.0v7 M-2.5,-0.5L0,-3.0L2.5,-0.5"/>
  </g>
  <g id="arrowDown" transform="rotate(180) translate(-30 -48)">
    <use xlink:href="#rim"/>
    <path pointer-events="none" fill="none" stroke="white" stroke-width="1.5" d="M0,-3.0v7 M-2.5,-0.5L0,-3.0L2.5,-0.5"/>
  </g>
  <g id="arrowLeft" transform="rotate(270) translate(-36 17)">
    <use xlink:href="#rim"/>
    <path pointer-events="none" fill="none" stroke="white" stroke-width="1.5" d="M0,-3.0v7 M-2.5,-0.5L0,-3.0L2.5,-0.5"/>
  </g>
  <g id="resetDef">
    <use xlink:href="#rim2" fill="#404040"><set attributeName="fill" to="#808080" begin="reset.mouseover" end="reset.mouseout"/></use>
  </g>
</defs>
<script type="application/ecmascript">
var viewWidth = 1126;
var viewHeight = 532;
var sectionId = 'dynsection-1';
</script>
<script type="application/ecmascript" xlink:href="svg.min.js"/>
<svg id="graph" class="graph">
<g id="viewport">
<title>types.hpp</title>
<!-- Node1 -->
<g id="Node000001" class="node">
<title>Node1</title>
<g id="a_Node000001"><a xlink:title=" ">
<polygon fill="#999999" stroke="#666666" points="542.38,-524 483.62,-524 483.62,-504 542.38,-504 542.38,-524"/>
<text xml:space="preserve" text-anchor="middle" x="513" y="-510.5" font-family="Helvetica,sans-Serif" font-size="10.00">types.hpp</text>
</a>
</g>
</g>
<!-- Node2 -->
<g id="Node000002" class="node">
<title>Node2</title>
<g id="a_Node000002"><a xlink:href="all_8hpp.html" target="_top" xlink:title=" ">
<polygon fill="white" stroke="#666666" points="293.25,-20 248.75,-20 248.75,0 293.25,0 293.25,-20"/>
<text xml:space="preserve" text-anchor="middle" x="271" y="-6.5" font-family="Helvetica,sans-Serif" font-size="10.00">all.hpp</text>
</a>
</g>
</g>
<!-- Node1&#45;&gt;Node2 -->
<g id="edge1_Node000001_Node000002" class="edge">
<title>Node1&#45;&gt;Node2</title>
<g id="a_edge1_Node000001_Node000002"><a xlink:title=" ">
<path fill="none" stroke="#63b8ff" d="M471.81,-512.92C350.02,-511.56 0,-499.31 0,-403 0,-403 0,-403 0,-121 0,-67.56 183.23,-27.63 248.36,-15.12"/>
<polygon fill="#63b8ff" stroke="#63b8ff" points="471.66,-516.41 481.69,-513 471.72,-509.41 471.66,-516.41"/>
</a>
</g>
</g>
<!-- Node3 -->
<g id="Node000003" class="node">
<title>Node3</title>
<g id="a_Node000003"><a xlink:href="api_8hpp.html" target="_top" xlink:title=" ">
<polygon fill="white" stroke="#666666" points="769.75,-244 722.25,-244 722.25,-224 769.75,-224 769.75,-244"/>
<text xml:space="preserve" text-anchor="middle" x="746" y="-230.5" font-family="Helvetica,sans-Serif" font-size="10.00">api.hpp</text>
</a>
</g>
</g>
<!-- Node1&#45;&gt;Node3 -->
<g id="edge2_Node000001_Node000003" class="edge">
<title>Node1&#45;&gt;Node3</title>
<g id="a_edge2_Node000001_Node000003"><a xlink:title=" ">
<path fill="none" stroke="#63b8ff" d="M553.98,-510.7C642.04,-505.38 846.59,-490.92 912,-468 956.11,-452.55 978.41,-452.91 1001,-412 1056.43,-311.64 843.61,-255.84 770.12,-239.86"/>
<polygon fill="#63b8ff" stroke="#63b8ff" points="553.89,-507.2 544.12,-511.29 554.31,-514.19 553.89,-507.2"/>
</a>
</g>
</g>
<!-- Node5 -->
<g id="Node000005" class="node">
<title>Node5</title>
<g id="a_Node000005"><a xlink:href="help__printer_8hpp.html" target="_top" xlink:title=" ">
<polygon fill="white" stroke="#666666" points="802.5,-20 717.5,-20 717.5,0 802.5,0 802.5,-20"/>
<text xml:space="preserve" text-anchor="middle" x="760" y="-6.5" font-family="Helvetica,sans-Serif" font-size="10.00">help_printer.hpp</text>
</a>
</g>
</g>
<!-- Node1&#45;&gt;Node5 -->
<g id="edge47_Node000001_Node000005" class="edge">
<title>Node1&#45;&gt;Node5</title>
<g id="a_edge47_Node000001_Node000005"><a xlink:title=" ">
<path fill="none" stroke="#63b8ff" d="M554.24,-511.83C676.72,-508.05 1032.56,-494.87 1077,-468 1106.23,-450.33 1118,-437.16 1118,-403 1118,-403 1118,-403 1118,-121 1118,-55.74 897.85,-25.19 802.83,-15.04"/>
<polygon fill="#63b8ff" stroke="#63b8ff" points="554.21,-508.33 544.32,-512.13 554.42,-515.32 554.21,-508.33"/>
</a>
</g>
</g>
<!-- Node6 -->
<g id="Node000006" class="node">
<title>Node6</title>
<g id="a_Node000006"><a xlink:href="command_8hpp.html" target="_top" xlink:title=" ">
<polygon fill="white" stroke="#666666" points="647.75,-188 570.25,-188 570.25,-168 647.75,-168 647.75,-188"/>
<text xml:space="preserve" text-anchor="middle" x="609" y="-174.5" font-family="Helvetica,sans-Serif" font-size="10.00">command.hpp</text>
</a>
</g>
</g>
<!-- Node1&#45;&gt;Node6 -->
<g id="edge26_Node000001_Node000006" class="edge">
<title>Node1&#45;&gt;Node6</title>
<g id="a_edge26_Node000001_Node000006"><a xlink:title=" ">
<path fill="none" stroke="#63b8ff" d="M472.18,-513.48C395.17,-513.43 233.03,-508.39 198,-468 192.18,-461.28 195.14,-456.42 198,-448 253.54,-284.48 478.38,-211.34 569.93,-187.91"/>
<polygon fill="#63b8ff" stroke="#63b8ff" points="471.83,-516.98 481.82,-513.46 471.81,-509.98 471.83,-516.98"/>
</a>
</g>
</g>
<!-- Node7 -->
<g id="Node000007" class="node">
<title>Node7</title>
<g id="a_Node000007"><a xlink:href="help_8hpp.html" target="_top" xlink:title=" ">
<polygon fill="white" stroke="#666666" points="503.38,-132 450.62,-132 450.62,-112 503.38,-112 503.38,-132"/>
<text xml:space="preserve" text-anchor="middle" x="477" y="-118.5" font-family="Helvetica,sans-Serif" font-size="10.00">help.hpp</text>
</a>
</g>
</g>
<!-- Node1&#45;&gt;Node7 -->
<g id="edge46_Node000001_Node000007" class="edge">
<title>Node1&#45;&gt;Node7</title>
<g id="a_edge46_Node000001_Node000007"><a xlink:title=" ">
<path fill="none" stroke="#63b8ff" d="M471.97,-513.53C393.69,-513.59 227.55,-508.78 191,-468 100.77,-367.35 133.5,-249.95 241,-168 273.67,-143.09 395.81,-129.87 450.38,-125.1"/>
<polygon fill="#63b8ff" stroke="#63b8ff" points="471.8,-517.03 481.78,-513.5 471.77,-510.03 471.8,-517.03"/>
</a>
</g>
</g>
<!-- Node8 -->
<g id="Node000008" class="node">
<title>Node8</title>
<g id="a_Node000008"><a xlink:href="arg_8hpp.html" target="_top" xlink:title=" ">
<polygon fill="white" stroke="#666666" points="570.12,-356 521.88,-356 521.88,-336 570.12,-336 570.12,-356"/>
<text xml:space="preserve" text-anchor="middle" x="546" y="-342.5" font-family="Helvetica,sans-Serif" font-size="10.00">arg.hpp</text>
</a>
</g>
</g>
<!-- Node1&#45;&gt;Node8 -->
<g id="edge13_Node000001_Node000008" class="edge">
<title>Node1&#45;&gt;Node8</title>
<g id="a_edge13_Node000001_Node000008"><a xlink:title=" ">
<path fill="none" stroke="#63b8ff" d="M517.08,-492.5C524.28,-456.27 538.98,-382.31 544.15,-356.3"/>
<polygon fill="#63b8ff" stroke="#63b8ff" points="513.68,-491.62 515.16,-502.12 520.55,-492.99 513.68,-491.62"/>
</a>
</g>
</g>
<!-- Node9 -->
<g id="Node000009" class="node">
<title>Node9</title>
<g id="a_Node000009"><a xlink:href="multi__arg_8hpp.html" target="_top" xlink:title=" ">
<polygon fill="white" stroke="#666666" points="520.25,-300 445.75,-300 445.75,-280 520.25,-280 520.25,-300"/>
<text xml:space="preserve" text-anchor="middle" x="483" y="-286.5" font-family="Helvetica,sans-Serif" font-size="10.00">multi_arg.hpp</text>
</a>
</g>
</g>
<!-- Node1&#45;&gt;Node9 -->
<g id="edge48_Node000001_Node000009" class="edge">
<title>Node1&#45;&gt;Node9</title>
<g id="a_edge48_Node000001_Node000009"><a xlink:title=" ">
<path fill="none" stroke="#63b8ff" d="M510.22,-492.45C503.92,-445.79 488.72,-333.36 484.26,-300.3"/>
<polygon fill="#63b8ff" stroke="#63b8ff" points="506.74,-492.8 511.55,-502.24 513.68,-491.87 506.74,-492.8"/>
</a>
</g>
</g>
<!-- Node10 -->
<g id="Node000010" class="node">
<title>Node10</title>
<g id="a_Node000010"><a xlink:href="arg__iface_8hpp.html" target="_top" xlink:title=" ">
<polygon fill="white" stroke="#666666" points="976.25,-412 901.75,-412 901.75,-392 976.25,-392 976.25,-412"/>
<text xml:space="preserve" text-anchor="middle" x="939" y="-398.5" font-family="Helvetica,sans-Serif" font-size="10.00">arg_iface.hpp</text>
</a>
</g>
</g>
<!-- Node1&#45;&gt;Node10 -->
<g id="edge18_Node000001_Node000010" class="edge">
<title>Node1&#45;&gt;Node10</title>
<g id="a_edge18_Node000001_Node000010"><a xlink:title=" ">
<path fill="none" stroke="#63b8ff" d="M553.87,-506.29C599.2,-498.51 674.35,-484.6 738,-468 801.7,-451.39 874.89,-426.12 912.95,-412.49"/>
<polygon fill="#63b8ff" stroke="#63b8ff" points="553.5,-502.8 544.22,-507.93 554.67,-509.7 553.5,-502.8"/>
</a>
</g>
</g>
<!-- Node11 -->
<g id="Node000011" class="node">
<title>Node11</title>
<g id="a_Node000011"><a xlink:href="group__iface_8hpp.html" target="_top" xlink:title=" ">
<polygon fill="white" stroke="#666666" points="949.5,-356 864.5,-356 864.5,-336 949.5,-336 949.5,-356"/>
<text xml:space="preserve" text-anchor="middle" x="907" y="-342.5" font-family="Helvetica,sans-Serif" font-size="10.00">group_iface.hpp</text>
</a>
</g>
</g>
<!-- Node1&#45;&gt;Node11 -->
<g id="edge44_Node000001_Node000011" class="edge">
<title>Node1&#45;&gt;Node11</title>
<g id="a_edge44_Node000001_Node000011"><a xlink:title=" ">
<path fill="none" stroke="#63b8ff" d="M553.92,-510.82C658.84,-504.28 932.83,-480.79 985,-412 1002.84,-388.48 963.94,-367.91 934.92,-356.5"/>
<polygon fill="#63b8ff" stroke="#63b8ff" points="553.85,-507.32 544.08,-511.41 554.27,-514.31 553.85,-507.32"/>
</a>
</g>
</g>
<!-- Node12 -->
<g id="Node000012" class="node">
<title>Node12</title>
<g id="a_Node000012"><a xlink:href="groups_8hpp.html" target="_top" xlink:title=" ">
<polygon fill="white" stroke="#666666" points="1090,-300 1026,-300 1026,-280 1090,-280 1090,-300"/>
<text xml:space="preserve" text-anchor="middle" x="1058" y="-286.5" font-family="Helvetica,sans-Serif" font-size="10.00">groups.hpp</text>
</a>
</g>
</g>
<!-- Node1&#45;&gt;Node12 -->
<g id="edge45_Node000001_Node000012" class="edge">
<title>Node1&#45;&gt;Node12</title>
<g id="a_edge45_Node000001_Node000012"><a xlink:title=" ">
<path fill="none" stroke="#63b8ff" d="M553.91,-512.71C674.45,-511.42 1021.96,-504.56 1056,-468 1100.6,-420.09 1072.37,-329.37 1061.62,-300.25"/>
<polygon fill="#63b8ff" stroke="#63b8ff" points="554.12,-509.2 544.16,-512.8 554.19,-516.2 554.12,-509.2"/>
</a>
</g>
</g>
<!-- Node13 -->
<g id="Node000013" class="node">
<title>Node13</title>
<g id="a_Node000013"><a xlink:href="context_8hpp.html" target="_top" xlink:title=" ">
<polygon fill="white" stroke="#666666" points="328.5,-412 261.5,-412 261.5,-392 328.5,-392 328.5,-412"/>
<text xml:space="preserve" text-anchor="middle" x="295" y="-398.5" font-family="Helvetica,sans-Serif" font-size="10.00">context.hpp</text>
</a>
</g>
</g>
<!-- Node1&#45;&gt;Node13 -->
<g id="edge27_Node000001_Node000013" class="edge">
<title>Node1&#45;&gt;Node13</title>
<g id="a_edge27_Node000001_Node000013"><a xlink:title=" ">
<path fill="none" stroke="#63b8ff" d="M484.34,-498.54C438.92,-475.62 351.63,-431.57 313.54,-412.35"/>
<polygon fill="#63b8ff" stroke="#63b8ff" points="482.56,-501.56 493.06,-502.94 485.71,-495.31 482.56,-501.56"/>
</a>
</g>
</g>
<!-- Node14 -->
<g id="Node000014" class="node">
<title>Node14</title>
<g id="a_Node000014"><a xlink:href="exceptions_8hpp.html" target="_top" xlink:title=" ">
<polygon fill="white" stroke="#666666" points="289,-468 207,-468 207,-448 289,-448 289,-468"/>
<text xml:space="preserve" text-anchor="middle" x="248" y="-454.5" font-family="Helvetica,sans-Serif" font-size="10.00">exceptions.hpp</text>
</a>
</g>
</g>
<!-- Node1&#45;&gt;Node14 -->
<g id="edge33_Node000001_Node000014" class="edge">
<title>Node1&#45;&gt;Node14</title>
<g id="a_edge33_Node000001_Node000014"><a xlink:title=" ">
<path fill="none" stroke="#63b8ff" d="M472.1,-504.67C422.37,-494.53 338.95,-477.53 289.12,-467.38"/>
<polygon fill="#63b8ff" stroke="#63b8ff" points="471.39,-508.09 481.89,-506.66 472.79,-501.23 471.39,-508.09"/>
</a>
</g>
</g>
<!-- Node15 -->
<g id="Node000015" class="node">
<title>Node15</title>
<g id="a_Node000015"><a xlink:href="value__utils_8hpp.html" target="_top" xlink:title=" ">
<polygon fill="white" stroke="#666666" points="427.62,-412 346.38,-412 346.38,-392 427.62,-392 427.62,-412"/>
<text xml:space="preserve" text-anchor="middle" x="387" y="-398.5" font-family="Helvetica,sans-Serif" font-size="10.00">value_utils.hpp</text>
</a>
</g>
</g>
<!-- Node1&#45;&gt;Node15 -->
<g id="edge63_Node000001_Node000015" class="edge">
<title>Node1&#45;&gt;Node15</title>
<g id="a_edge63_Node000001_Node000015"><a xlink:title=" ">
<path fill="none" stroke="#63b8ff" d="M493.7,-496.15C466.81,-472.67 418.99,-430.93 397.72,-412.35"/>
<polygon fill="#63b8ff" stroke="#63b8ff" points="491.28,-498.69 501.12,-502.63 495.89,-493.41 491.28,-498.69"/>
</a>
</g>
</g>
<!-- Node16 -->
<g id="Node000016" class="node">
<title>Node16</title>
<g id="a_Node000016"><a xlink:href="utils_8hpp.html" target="_top" xlink:title=" ">
<polygon fill="white" stroke="#666666" points="729.38,-468 676.62,-468 676.62,-448 729.38,-448 729.38,-468"/>
<text xml:space="preserve" text-anchor="middle" x="703" y="-454.5" font-family="Helvetica,sans-Serif" font-size="10.00">utils.hpp</text>
</a>
</g>
</g>
<!-- Node1&#45;&gt;Node16 -->
<g id="edge49_Node000001_Node000016" class="edge">
<title>Node1&#45;&gt;Node16</title>
<g id="a_edge49_Node000001_Node000016"><a xlink:title=" ">
<path fill="none" stroke="#63b8ff" d="M553.61,-501.46C590.67,-490.93 644.37,-475.66 676.28,-466.59"/>
<polygon fill="#63b8ff" stroke="#63b8ff" points="552.81,-498.05 544.14,-504.15 554.72,-504.78 552.81,-498.05"/>
</a>
</g>
</g>
<!-- Node4 -->
<g id="Node000004" class="node">
<title>Node4</title>
<g id="a_Node000004"><a xlink:href="cmd__line_8hpp.html" target="_top" xlink:title=" ">
<polygon fill="white" stroke="#666666" points="578.88,-76 505.12,-76 505.12,-56 578.88,-56 578.88,-76"/>
<text xml:space="preserve" text-anchor="middle" x="542" y="-62.5" font-family="Helvetica,sans-Serif" font-size="10.00">cmd_line.hpp</text>
</a>
</g>
</g>
<!-- Node3&#45;&gt;Node4 -->
<g id="edge3_Node000003_Node000004" class="edge">
<title>Node3&#45;&gt;Node4</title>
<g id="a_edge3_Node000003_Node000004"><a xlink:title=" ">
<path fill="none" stroke="#63b8ff" d="M725.57,-216.37C683.12,-181.83 586.58,-103.27 553.43,-76.3"/>
<polygon fill="#63b8ff" stroke="#63b8ff" points="723.31,-219.05 733.27,-222.64 727.73,-213.62 723.31,-219.05"/>
</a>
</g>
</g>
<!-- Node3&#45;&gt;Node6 -->
<g id="edge7_Node000003_Node000006" class="edge">
<title>Node3&#45;&gt;Node6</title>
<g id="a_edge7_Node000003_Node000006"><a xlink:title=" ">
<path fill="none" stroke="#63b8ff" d="M710.99,-221.43C684.4,-211.57 649.03,-197.58 627.58,-188.4"/>
<polygon fill="#63b8ff" stroke="#63b8ff" points="709.77,-224.71 720.37,-224.86 712.18,-218.14 709.77,-224.71"/>
</a>
</g>
</g>
<!-- Node4&#45;&gt;Node2 -->
<g id="edge4_Node000004_Node000002" class="edge">
<title>Node4&#45;&gt;Node2</title>
<g id="a_edge4_Node000004_Node000002"><a xlink:title=" ">
<path fill="none" stroke="#63b8ff" d="M493.61,-55.36C434.55,-43.59 337.14,-24.18 293.44,-15.47"/>
<polygon fill="#63b8ff" stroke="#63b8ff" points="492.91,-58.79 503.4,-57.31 494.28,-51.92 492.91,-58.79"/>
</a>
</g>
</g>
<!-- Node4&#45;&gt;Node5 -->
<g id="edge5_Node000004_Node000005" class="edge">
<title>Node4&#45;&gt;Node5</title>
<g id="a_edge5_Node000004_Node000005"><a xlink:title=" ">
<path fill="none" stroke="#63b8ff" d="M585.52,-52.79C623.82,-42.94 679.13,-29.28 717.22,-20.3"/>
<polygon fill="#63b8ff" stroke="#63b8ff" points="584.97,-49.32 576.17,-55.21 586.73,-56.1 584.97,-49.32"/>
</a>
</g>
</g>
<!-- Node5&#45;&gt;Node4 -->
<g id="edge6_Node000005_Node000004" class="edge">
<title>Node5&#45;&gt;Node4</title>
<g id="a_edge6_Node000005_Node000004"><a xlink:title=" ">
<path fill="none" stroke="#63b8ff" d="M716.02,-23.32C675.79,-33.67 617.07,-48.15 579.12,-57.03"/>
<polygon fill="#63b8ff" stroke="#63b8ff" points="716.83,-26.73 725.64,-20.84 715.08,-19.95 716.83,-26.73"/>
</a>
</g>
</g>
<!-- Node6&#45;&gt;Node3 -->
<g id="edge8_Node000006_Node000003" class="edge">
<title>Node6&#45;&gt;Node3</title>
<g id="a_edge8_Node000006_Node000003"><a xlink:title=" ">
<path fill="none" stroke="#63b8ff" d="M648.97,-192.42C674.86,-202.12 707.26,-214.97 727.4,-223.59"/>
<polygon fill="#63b8ff" stroke="#63b8ff" points="650.34,-189.2 639.75,-189.01 647.91,-195.76 650.34,-189.2"/>
</a>
</g>
</g>
<!-- Node6&#45;&gt;Node4 -->
<g id="edge9_Node000006_Node000004" class="edge">
<title>Node6&#45;&gt;Node4</title>
<g id="a_edge9_Node000006_Node000004"><a xlink:title=" ">
<path fill="none" stroke="#63b8ff" d="M597.39,-157.95C582.9,-134.14 558.66,-94.36 547.7,-76.35"/>
<polygon fill="#63b8ff" stroke="#63b8ff" points="594.31,-159.61 602.5,-166.33 600.29,-155.97 594.31,-159.61"/>
</a>
</g>
</g>
<!-- Node6&#45;&gt;Node5 -->
<g id="edge12_Node000006_Node000005" class="edge">
<title>Node6&#45;&gt;Node5</title>
<g id="a_edge12_Node000006_Node000005"><a xlink:title=" ">
<path fill="none" stroke="#63b8ff" d="M625.13,-159.27C657.05,-124.18 727.26,-46.99 751.54,-20.3"/>
<polygon fill="#63b8ff" stroke="#63b8ff" points="622.71,-156.73 618.57,-166.48 627.89,-161.44 622.71,-156.73"/>
</a>
</g>
</g>
<!-- Node6&#45;&gt;Node7 -->
<g id="edge10_Node000006_Node000007" class="edge">
<title>Node6&#45;&gt;Node7</title>
<g id="a_edge10_Node000006_Node000007"><a xlink:title=" ">
<path fill="none" stroke="#63b8ff" d="M575.44,-163.27C551.9,-153.64 521.02,-141.01 500.17,-132.48"/>
<polygon fill="#63b8ff" stroke="#63b8ff" points="574.03,-166.47 584.61,-167.02 576.68,-160 574.03,-166.47"/>
</a>
</g>
</g>
<!-- Node7&#45;&gt;Node4 -->
<g id="edge11_Node000007_Node000004" class="edge">
<title>Node7&#45;&gt;Node4</title>
<g id="a_edge11_Node000007_Node000004"><a xlink:title=" ">
<path fill="none" stroke="#63b8ff" d="M496.98,-104.4C508.1,-95.17 521.53,-84.01 530.81,-76.3"/>
<polygon fill="#63b8ff" stroke="#63b8ff" points="494.94,-101.54 489.49,-110.63 499.41,-106.93 494.94,-101.54"/>
</a>
</g>
</g>
<!-- Node8&#45;&gt;Node3 -->
<g id="edge14_Node000008_Node000003" class="edge">
<title>Node8&#45;&gt;Node3</title>
<g id="a_edge14_Node000008_Node000003"><a xlink:title=" ">
<path fill="none" stroke="#63b8ff" d="M573.09,-330.1C614.98,-307.06 694.27,-263.45 728.99,-244.35"/>
<polygon fill="#63b8ff" stroke="#63b8ff" points="571.45,-327.01 564.38,-334.89 574.83,-333.14 571.45,-327.01"/>
</a>
</g>
</g>
<!-- Node8&#45;&gt;Node7 -->
<g id="edge15_Node000008_Node000007" class="edge">
<title>Node8&#45;&gt;Node7</title>
<g id="a_edge15_Node000008_Node000007"><a xlink:title=" ">
<path fill="none" stroke="#63b8ff" d="M543.62,-324.18C541.38,-310.81 537.1,-293.49 529,-280 516.86,-259.77 500.6,-265.07 490,-244 471.01,-206.25 473.76,-153.63 475.87,-132.42"/>
<polygon fill="#63b8ff" stroke="#63b8ff" points="540.15,-324.61 544.99,-334.03 547.08,-323.65 540.15,-324.61"/>
</a>
</g>
</g>
<!-- Node8&#45;&gt;Node9 -->
<g id="edge16_Node000008_Node000009" class="edge">
<title>Node8&#45;&gt;Node9</title>
<g id="a_edge16_Node000008_Node000009"><a xlink:title=" ">
<path fill="none" stroke="#63b8ff" d="M526.31,-328.13C515.6,-318.94 502.75,-307.93 493.85,-300.3"/>
<polygon fill="#63b8ff" stroke="#63b8ff" points="524.01,-330.76 533.88,-334.61 528.56,-325.44 524.01,-330.76"/>
</a>
</g>
</g>
<!-- Node9&#45;&gt;Node3 -->
<g id="edge17_Node000009_Node000003" class="edge">
<title>Node9&#45;&gt;Node3</title>
<g id="a_edge17_Node000009_Node000003"><a xlink:title=" ">
<path fill="none" stroke="#63b8ff" d="M531.85,-278.97C588.39,-267.36 679.21,-248.71 722.1,-239.91"/>
<polygon fill="#63b8ff" stroke="#63b8ff" points="531.26,-275.52 522.16,-280.96 532.66,-282.38 531.26,-275.52"/>
</a>
</g>
</g>
<!-- Node10&#45;&gt;Node8 -->
<g id="edge19_Node000010_Node000008" class="edge">
<title>Node10&#45;&gt;Node8</title>
<g id="a_edge19_Node000010_Node000008"><a xlink:title=" ">
<path fill="none" stroke="#63b8ff" d="M889.93,-394.26C805.05,-382.59 633.8,-359.06 570.36,-350.35"/>
<polygon fill="#63b8ff" stroke="#63b8ff" points="889.43,-397.72 899.82,-395.62 890.39,-390.79 889.43,-397.72"/>
</a>
</g>
</g>
<!-- Node10&#45;&gt;Node11 -->
<g id="edge20_Node000010_Node000011" class="edge">
<title>Node10&#45;&gt;Node11</title>
<g id="a_edge20_Node000010_Node000011"><a xlink:title=" ">
<path fill="none" stroke="#63b8ff" d="M927.66,-381.87C922.52,-373.19 916.67,-363.32 912.51,-356.3"/>
<polygon fill="#63b8ff" stroke="#63b8ff" points="924.55,-383.47 932.65,-390.29 930.57,-379.9 924.55,-383.47"/>
</a>
</g>
</g>
<!-- Node11&#45;&gt;Node5 -->
<g id="edge25_Node000011_Node000005" class="edge">
<title>Node11&#45;&gt;Node5</title>
<g id="a_edge25_Node000011_Node000005"><a xlink:title=" ">
<path fill="none" stroke="#63b8ff" d="M903.4,-324.4C899.87,-302.35 895,-266.31 895,-235 895,-235 895,-235 895,-121 895,-87.76 882.51,-78.46 858,-56 839.51,-39.05 813.52,-27.51 792.96,-20.37"/>
<polygon fill="#63b8ff" stroke="#63b8ff" points="899.93,-324.84 905.03,-334.13 906.83,-323.69 899.93,-324.84"/>
</a>
</g>
</g>
<!-- Node11&#45;&gt;Node6 -->
<g id="edge21_Node000011_Node000006" class="edge">
<title>Node11&#45;&gt;Node6</title>
<g id="a_edge21_Node000011_Node000006"><a xlink:title=" ">
<path fill="none" stroke="#63b8ff" d="M877.78,-330.69C839.47,-311.72 770.4,-276.81 713,-244 680.28,-225.3 643.09,-201.38 623.25,-188.41"/>
<polygon fill="#63b8ff" stroke="#63b8ff" points="875.86,-333.64 886.37,-334.93 878.96,-327.36 875.86,-333.64"/>
</a>
</g>
</g>
<!-- Node11&#45;&gt;Node12 -->
<g id="edge22_Node000011_Node000012" class="edge">
<title>Node11&#45;&gt;Node12</title>
<g id="a_edge22_Node000011_Node000012"><a xlink:title=" ">
<path fill="none" stroke="#63b8ff" d="M943.94,-331.79C971.04,-322.1 1007.21,-309.16 1031.49,-300.48"/>
<polygon fill="#63b8ff" stroke="#63b8ff" points="942.96,-328.42 934.73,-335.08 945.32,-335.01 942.96,-328.42"/>
</a>
</g>
</g>
<!-- Node12&#45;&gt;Node3 -->
<g id="edge23_Node000012_Node000003" class="edge">
<title>Node12&#45;&gt;Node3</title>
<g id="a_edge23_Node000012_Node000003"><a xlink:title=" ">
<path fill="none" stroke="#63b8ff" d="M1014.54,-280.47C1013.69,-280.31 1012.84,-280.15 1012,-280 923.07,-263.78 817.04,-246.44 770.24,-238.89"/>
<polygon fill="#63b8ff" stroke="#63b8ff" points="1013.89,-283.9 1024.36,-282.32 1015.18,-277.03 1013.89,-283.9"/>
</a>
</g>
</g>
<!-- Node12&#45;&gt;Node5 -->
<g id="edge24_Node000012_Node000005" class="edge">
<title>Node12&#45;&gt;Node5</title>
<g id="a_edge24_Node000012_Node000005"><a xlink:title=" ">
<path fill="none" stroke="#63b8ff" d="M1040.56,-271.45C1022.23,-251.05 996,-215.5 996,-179 996,-179 996,-179 996,-121 996,-36.69 870.75,-16.84 802.74,-12.28"/>
<polygon fill="#63b8ff" stroke="#63b8ff" points="1037.88,-273.7 1047.28,-278.6 1042.98,-268.91 1037.88,-273.7"/>
</a>
</g>
</g>
<!-- Node13&#45;&gt;Node4 -->
<g id="edge29_Node000013_Node000004" class="edge">
<title>Node13&#45;&gt;Node4</title>
<g id="a_edge29_Node000013_Node000004"><a xlink:title=" ">
<path fill="none" stroke="#63b8ff" d="M265.31,-386.09C234.26,-368.15 190,-334.88 190,-291 190,-291 190,-291 190,-177 190,-111.61 414.07,-80.54 504.66,-70.65"/>
<polygon fill="#63b8ff" stroke="#63b8ff" points="263.48,-389.08 273.93,-390.85 266.86,-382.95 263.48,-389.08"/>
</a>
</g>
</g>
<!-- Node13&#45;&gt;Node6 -->
<g id="edge30_Node000013_Node000006" class="edge">
<title>Node13&#45;&gt;Node6</title>
<g id="a_edge30_Node000013_Node000006"><a xlink:title=" ">
<path fill="none" stroke="#63b8ff" d="M309.9,-382.97C331.43,-357.7 373.33,-311.36 416,-280 472.38,-238.57 548.06,-204.27 585.71,-188.44"/>
<polygon fill="#63b8ff" stroke="#63b8ff" points="307.42,-380.48 303.67,-390.38 312.78,-384.98 307.42,-380.48"/>
</a>
</g>
</g>
<!-- Node13&#45;&gt;Node7 -->
<g id="edge31_Node000013_Node000007" class="edge">
<title>Node13&#45;&gt;Node7</title>
<g id="a_edge31_Node000013_Node000007"><a xlink:title=" ">
<path fill="none" stroke="#63b8ff" d="M286.41,-381.02C277.86,-359.29 266,-323.33 266,-291 266,-291 266,-291 266,-233 266,-150.79 393.5,-129.92 450.28,-124.7"/>
<polygon fill="#63b8ff" stroke="#63b8ff" points="283.11,-382.19 290.15,-390.11 289.58,-379.53 283.11,-382.19"/>
</a>
</g>
</g>
<!-- Node13&#45;&gt;Node8 -->
<g id="edge28_Node000013_Node000008" class="edge">
<title>Node13&#45;&gt;Node8</title>
<g id="a_edge28_Node000013_Node000008"><a xlink:title=" ">
<path fill="none" stroke="#63b8ff" d="M339.99,-391.32C393.18,-379.88 479.77,-361.25 521.71,-352.23"/>
<polygon fill="#63b8ff" stroke="#63b8ff" points="339.37,-387.87 330.33,-393.4 340.84,-394.72 339.37,-387.87"/>
</a>
</g>
</g>
<!-- Node13&#45;&gt;Node9 -->
<g id="edge32_Node000013_Node000009" class="edge">
<title>Node13&#45;&gt;Node9</title>
<g id="a_edge32_Node000013_Node000009"><a xlink:title=" ">
<path fill="none" stroke="#63b8ff" d="M320.97,-385.81C360.47,-362.69 434.51,-319.37 467.01,-300.35"/>
<polygon fill="#63b8ff" stroke="#63b8ff" points="319.2,-382.79 312.34,-390.86 322.73,-388.83 319.2,-382.79"/>
</a>
</g>
</g>
<!-- Node14&#45;&gt;Node4 -->
<g id="edge35_Node000014_Node000004" class="edge">
<title>Node14&#45;&gt;Node4</title>
<g id="a_edge35_Node000014_Node000004"><a xlink:title=" ">
<path fill="none" stroke="#63b8ff" d="M222.49,-441.38C183.61,-415.4 114,-359.34 114,-291 114,-291 114,-291 114,-177 114,-96.64 400.64,-74.14 504.77,-68.61"/>
<polygon fill="#63b8ff" stroke="#63b8ff" points="220.54,-444.29 230.83,-446.79 224.34,-438.42 220.54,-444.29"/>
</a>
</g>
</g>
<!-- Node14&#45;&gt;Node5 -->
<g id="edge38_Node000014_Node000005" class="edge">
<title>Node14&#45;&gt;Node5</title>
<g id="a_edge38_Node000014_Node000005"><a xlink:title=" ">
<path fill="none" stroke="#63b8ff" d="M204.13,-444.14C142.58,-423.08 38,-374.96 38,-291 38,-291 38,-291 38,-121 38,-51.86 562.17,-20.68 717.26,-12.97"/>
<polygon fill="#63b8ff" stroke="#63b8ff" points="202.69,-447.35 213.29,-447.17 204.89,-440.71 202.69,-447.35"/>
</a>
</g>
</g>
<!-- Node14&#45;&gt;Node7 -->
<g id="edge37_Node000014_Node000007" class="edge">
<title>Node14&#45;&gt;Node7</title>
<g id="a_edge37_Node000014_Node000007"><a xlink:title=" ">
<path fill="none" stroke="#63b8ff" d="M243.95,-436.62C238.1,-405.4 228,-343.81 228,-291 228,-291 228,-291 228,-233 228,-136.59 386.12,-123.98 450.35,-122.84"/>
<polygon fill="#63b8ff" stroke="#63b8ff" points="240.46,-437.05 245.8,-446.2 247.34,-435.72 240.46,-437.05"/>
</a>
</g>
</g>
<!-- Node14&#45;&gt;Node8 -->
<g id="edge34_Node000014_Node000008" class="edge">
<title>Node14&#45;&gt;Node8</title>
<g id="a_edge34_Node000014_Node000008"><a xlink:title=" ">
<path fill="none" stroke="#63b8ff" d="M300.3,-448.96C339,-441.97 392.49,-430.08 437,-412 474.15,-396.91 513.57,-370.42 533.26,-356.37"/>
<polygon fill="#63b8ff" stroke="#63b8ff" points="300.03,-445.46 290.79,-450.63 301.24,-452.35 300.03,-445.46"/>
</a>
</g>
</g>
<!-- Node14&#45;&gt;Node9 -->
<g id="edge39_Node000014_Node000009" class="edge">
<title>Node14&#45;&gt;Node9</title>
<g id="a_edge39_Node000014_Node000009"><a xlink:title=" ">
<path fill="none" stroke="#63b8ff" d="M244.6,-436.48C243.45,-422.75 244.23,-404.9 253,-392 297.02,-327.27 392.39,-303.66 445.45,-295.33"/>
<polygon fill="#63b8ff" stroke="#63b8ff" points="241.1,-436.69 245.84,-446.17 248.05,-435.81 241.1,-436.69"/>
</a>
</g>
</g>
<!-- Node14&#45;&gt;Node11 -->
<g id="edge36_Node000014_Node000011" class="edge">
<title>Node14&#45;&gt;Node11</title>
<g id="a_edge36_Node000014_Node000011"><a xlink:title=" ">
<path fill="none" stroke="#63b8ff" d="M300.78,-448.19C427.7,-427 748.03,-373.54 864.13,-354.16"/>
<polygon fill="#63b8ff" stroke="#63b8ff" points="300.25,-444.73 290.97,-449.83 301.41,-451.63 300.25,-444.73"/>
</a>
</g>
</g>
<!-- Node14&#45;&gt;Node15 -->
<g id="edge40_Node000014_Node000015" class="edge">
<title>Node14&#45;&gt;Node15</title>
<g id="a_edge40_Node000014_Node000015"><a xlink:title=" ">
<path fill="none" stroke="#63b8ff" d="M282.67,-443.53C307.54,-433.87 340.45,-421.08 362.6,-412.48"/>
<polygon fill="#63b8ff" stroke="#63b8ff" points="281.68,-440.16 273.62,-447.05 284.21,-446.69 281.68,-440.16"/>
</a>
</g>
</g>
<!-- Node15&#45;&gt;Node6 -->
<g id="edge42_Node000015_Node000006" class="edge">
<title>Node15&#45;&gt;Node6</title>
<g id="a_edge42_Node000015_Node000006"><a xlink:title=" ">
<path fill="none" stroke="#63b8ff" d="M389.64,-380.56C394.26,-353.4 406.44,-305.85 437,-280 491.65,-233.76 543.34,-294.59 594,-244 608.91,-229.11 610.2,-202.54 609.7,-188.42"/>
<polygon fill="#63b8ff" stroke="#63b8ff" points="386.21,-379.85 388.19,-390.26 393.13,-380.89 386.21,-379.85"/>
</a>
</g>
</g>
<!-- Node15&#45;&gt;Node8 -->
<g id="edge41_Node000015_Node000008" class="edge">
<title>Node15&#45;&gt;Node8</title>
<g id="a_edge41_Node000015_Node000008"><a xlink:title=" ">
<path fill="none" stroke="#63b8ff" d="M425.57,-387.9C455.44,-377.76 495.91,-364.01 521.49,-355.32"/>
<polygon fill="#63b8ff" stroke="#63b8ff" points="424.47,-384.58 416.13,-391.11 426.72,-391.21 424.47,-384.58"/>
</a>
</g>
</g>
<!-- Node15&#45;&gt;Node9 -->
<g id="edge43_Node000015_Node000009" class="edge">
<title>Node15&#45;&gt;Node9</title>
<g id="a_edge43_Node000015_Node000009"><a xlink:title=" ">
<path fill="none" stroke="#63b8ff" d="M405.07,-383.9C413.5,-375.69 423.51,-365.57 432,-356 448.94,-336.9 466.98,-312.93 476.4,-300.1"/>
<polygon fill="#63b8ff" stroke="#63b8ff" points="402.87,-381.16 398.09,-390.62 407.73,-386.21 402.87,-381.16"/>
</a>
</g>
</g>
<!-- Node16&#45;&gt;Node4 -->
<g id="edge52_Node000016_Node000004" class="edge">
<title>Node16&#45;&gt;Node4</title>
<g id="a_edge52_Node000016_Node000004"><a xlink:title=" ">
<path fill="none" stroke="#63b8ff" d="M692.61,-437.73C660.6,-378.35 565.43,-201.33 561,-188 547.66,-147.84 543.58,-97 542.42,-76.35"/>
<polygon fill="#63b8ff" stroke="#63b8ff" points="689.42,-439.2 697.25,-446.34 695.58,-435.88 689.42,-439.2"/>
</a>
</g>
</g>
<!-- Node16&#45;&gt;Node5 -->
<g id="edge57_Node000016_Node000005" class="edge">
<title>Node16&#45;&gt;Node5</title>
<g id="a_edge57_Node000016_Node000005"><a xlink:title=" ">
<path fill="none" stroke="#63b8ff" d="M738.38,-443.16C760.8,-433.75 787.03,-421.37 795,-412 811.86,-392.2 807.19,-381.56 812,-356 827.49,-273.69 841.33,-250.15 825,-168 813.26,-108.97 778.96,-44.32 765.5,-20.5"/>
<polygon fill="#63b8ff" stroke="#63b8ff" points="737.09,-439.9 729.17,-446.94 739.75,-446.38 737.09,-439.9"/>
</a>
</g>
</g>
<!-- Node16&#45;&gt;Node6 -->
<g id="edge53_Node000016_Node000006" class="edge">
<title>Node16&#45;&gt;Node6</title>
<g id="a_edge53_Node000016_Node000006"><a xlink:title=" ">
<path fill="none" stroke="#63b8ff" d="M720.06,-439.25C726.36,-431.52 732.74,-421.95 736,-412 746.51,-379.9 747.27,-367.84 736,-336 723.6,-300.97 644.64,-216.29 617.87,-188.21"/>
<polygon fill="#63b8ff" stroke="#63b8ff" points="717.62,-436.73 713.65,-446.55 722.88,-441.35 717.62,-436.73"/>
</a>
</g>
</g>
<!-- Node16&#45;&gt;Node7 -->
<g id="edge56_Node000016_Node000007" class="edge">
<title>Node16&#45;&gt;Node7</title>
<g id="a_edge56_Node000016_Node000007"><a xlink:title=" ">
<path fill="none" stroke="#63b8ff" d="M706.63,-436.38C710.04,-411.42 712.68,-368.66 698,-336 674.23,-283.15 531.33,-166.35 488.88,-132.42"/>
<polygon fill="#63b8ff" stroke="#63b8ff" points="703.19,-435.75 705.1,-446.17 710.1,-436.84 703.19,-435.75"/>
</a>
</g>
</g>
<!-- Node16&#45;&gt;Node8 -->
<g id="edge50_Node000016_Node000008" class="edge">
<title>Node16&#45;&gt;Node8</title>
<g id="a_edge50_Node000016_Node000008"><a xlink:title=" ">
<path fill="none" stroke="#63b8ff" d="M677.54,-441.57C663.86,-433.1 646.82,-422.27 632,-412 604.77,-393.13 574.08,-369.28 557.74,-356.36"/>
<polygon fill="#63b8ff" stroke="#63b8ff" points="675.6,-444.49 685.96,-446.74 679.27,-438.52 675.6,-444.49"/>
</a>
</g>
</g>
<!-- Node16&#45;&gt;Node9 -->
<g id="edge61_Node000016_Node000009" class="edge">
<title>Node16&#45;&gt;Node9</title>
<g id="a_edge61_Node000016_Node000009"><a xlink:title=" ">
<path fill="none" stroke="#63b8ff" d="M688.15,-439.12C666.31,-413.66 623.29,-366.68 579,-336 557.06,-320.8 529.17,-308.38 509.12,-300.47"/>
<polygon fill="#63b8ff" stroke="#63b8ff" points="685.34,-441.21 694.47,-446.58 690.68,-436.69 685.34,-441.21"/>
</a>
</g>
</g>
<!-- Node16&#45;&gt;Node10 -->
<g id="edge51_Node000016_Node000010" class="edge">
<title>Node16&#45;&gt;Node10</title>
<g id="a_edge51_Node000016_Node000010"><a xlink:title=" ">
<path fill="none" stroke="#63b8ff" d="M740.73,-448.37C784.91,-438.26 857.62,-421.62 901.64,-411.55"/>
<polygon fill="#63b8ff" stroke="#63b8ff" points="740.06,-444.93 731.09,-450.57 741.62,-451.75 740.06,-444.93"/>
</a>
</g>
</g>
<!-- Node16&#45;&gt;Node11 -->
<g id="edge55_Node000016_Node000011" class="edge">
<title>Node16&#45;&gt;Node11</title>
<g id="a_edge55_Node000016_Node000011"><a xlink:title=" ">
<path fill="none" stroke="#63b8ff" d="M741.09,-451.3C772.3,-445.29 816.61,-433.59 850,-412 872.94,-397.17 892.07,-370.57 901.22,-356.44"/>
<polygon fill="#63b8ff" stroke="#63b8ff" points="740.53,-447.85 731.31,-453.07 741.77,-454.73 740.53,-447.85"/>
</a>
</g>
</g>
<!-- Node16&#45;&gt;Node13 -->
<g id="edge54_Node000016_Node000013" class="edge">
<title>Node16&#45;&gt;Node13</title>
<g id="a_edge54_Node000016_Node000013"><a xlink:title=" ">
<path fill="none" stroke="#63b8ff" d="M665.09,-453.46C598.45,-446.99 456.11,-432.04 337,-412 334.35,-411.55 331.62,-411.06 328.88,-410.53"/>
<polygon fill="#63b8ff" stroke="#63b8ff" points="664.45,-456.91 674.74,-454.39 665.12,-449.95 664.45,-456.91"/>
</a>
</g>
</g>
<!-- Node16&#45;&gt;Node15 -->
<g id="edge62_Node000016_Node000015" class="edge">
<title>Node16&#45;&gt;Node15</title>
<g id="a_edge62_Node000016_Node000015"><a xlink:title=" ">
<path fill="none" stroke="#63b8ff" d="M665.15,-450.53C605.37,-440.32 489.56,-420.53 427.92,-409.99"/>
<polygon fill="#63b8ff" stroke="#63b8ff" points="664.39,-453.95 674.84,-452.19 665.57,-447.05 664.39,-453.95"/>
</a>
</g>
</g>
<!-- Node17 -->
<g id="Node000017" class="node">
<title>Node17</title>
<g id="a_Node000017"><a xlink:href="help__printer__iface_8hpp.html" target="_top" xlink:title=" ">
<polygon fill="white" stroke="#666666" points="815.62,-188 704.38,-188 704.38,-168 815.62,-168 815.62,-188"/>
<text xml:space="preserve" text-anchor="middle" x="760" y="-174.5" font-family="Helvetica,sans-Serif" font-size="10.00">help_printer_iface.hpp</text>
</a>
</g>
</g>
<!-- Node16&#45;&gt;Node17 -->
<g id="edge58_Node000016_Node000017" class="edge">
<title>Node16&#45;&gt;Node17</title>
<g id="a_edge58_Node000016_Node000017"><a xlink:title=" ">
<path fill="none" stroke="#63b8ff" d="M735.24,-442.44C748.76,-434.98 763.69,-424.75 774,-412 793.36,-388.05 798,-377.8 798,-347 798,-347 798,-347 798,-289 798,-249.8 776.18,-206.84 765.61,-188.33"/>
<polygon fill="#63b8ff" stroke="#63b8ff" points="733.89,-439.2 726.62,-446.91 737.11,-445.41 733.89,-439.2"/>
</a>
</g>
</g>
<!-- Node17&#45;&gt;Node5 -->
<g id="edge60_Node000017_Node000005" class="edge">
<title>Node17&#45;&gt;Node5</title>
<g id="a_edge60_Node000017_Node000005"><a xlink:title=" ">
<path fill="none" stroke="#63b8ff" d="M760,-156.5C760,-120.27 760,-46.31 760,-20.3"/>
<polygon fill="#63b8ff" stroke="#63b8ff" points="756.5,-156.09 760,-166.09 763.5,-156.09 756.5,-156.09"/>
</a>
</g>
</g>
<!-- Node17&#45;&gt;Node7 -->
<g id="edge59_Node000017_Node000007" class="edge">
<title>Node17&#45;&gt;Node7</title>
<g id="a_edge59_Node000017_Node000007"><a xlink:title=" ">
<path fill="none" stroke="#63b8ff" d="M699.41,-165.44C638.68,-153.85 548,-136.55 503.53,-128.06"/>
<polygon fill="#63b8ff" stroke="#63b8ff" points="698.42,-168.81 708.89,-167.25 699.73,-161.94 698.42,-168.81"/>
</a>
</g>
</g>
</g>
</svg>

<g id="navigator" transform="translate(0 0)" fill="#404254">
  <rect fill="#f2f5e9" fill-opacity="0.5" stroke="#606060" stroke-width=".5" x="0" y="0" width="60" height="60"/>
  <use id="zoomplus" xlink:href="#zoomPlus" x="17" y="9" onmousedown="handleZoom(evt,'in')"/>
  <use id="zoomminus" xlink:href="#zoomMin" x="42" y="9" onmousedown="handleZoom(evt,'out')"/>
  <use id="reset" xlink:href="#resetDef" x="30" y="36" onmousedown="handleReset()"/>
   <use id="arrowup" xlink:href="#arrowUp" x="0" y="0" onmousedown="handlePan(0,-1)"/>
  <use id="arrowright" xlink:href="#arrowRight" x="0" y="0" onmousedown="handlePan(1,0)"/>
  <use id="arrowdown" xlink:href="#arrowDown" x="0" y="0" onmousedown="handlePan(0,1)"/>
  <use id="arrowleft" xlink:href="#arrowLeft" x="0" y="0" onmousedown="handlePan(-1,0)"/>
</g>
<svg viewBox="0 0 15 15" width="100%" height="30px" preserveAspectRatio="xMaxYMin meet">
 <g id="arrow_out" transform="scale(0.3 0.3)">
  <a xlink:href="types_8hpp__dep__incl_org.svg" target="_base">
   <rect id="button" ry="5" rx="5" y="6" x="6" height="38" width="38"
        fill="#f2f5e9" fill-opacity="0.5" stroke="#606060" stroke-width="1.0"/>
   <path id="arrow"
     d="M 11.500037,31.436501 C 11.940474,20.09759 22.043105,11.32322 32.158766,21.979434 L 37.068811,17.246167 C 37.068811,17.246167 37.088388,32 37.088388,32 L 22.160133,31.978069 C 22.160133,31.978069 26.997745,27.140456 26.997745,27.140456 C 18.528582,18.264221 13.291696,25.230495 11.500037,31.436501 z"
     style="fill:#404040;"/>
  </a>
 </g>
</svg>

<style type='text/css'>
<![CDATA[
[data-mouse-over-selected='false'] { opacity: 0.7; }
[data-mouse-over-selected='true']  { opacity: 1.0; }
]]>
</style>
<script type="application/ecmascript"><![CDATA[
document.addEventListener('DOMContentLoaded', (event) => {
  highlightEdges();
  highlightAdjacentNodes();
});
]]></script>
</svg>
