<?xml version="1.0" encoding="UTF-8" standalone="no"?>
<!DOCTYPE svg PUBLIC "-//W3C//DTD SVG 1.1//EN"
 "http://www.w3.org/Graphics/SVG/1.1/DTD/svg11.dtd">
<!-- Generated by graphviz version 2.38.0 (20140413.2041)
 -->
<!-- Title: utils.hpp Pages: 1 -->
<svg width="766pt" height="364pt"
 viewBox="0.00 0.00 766.00 364.00" xmlns="http://www.w3.org/2000/svg" xmlns:xlink="http://www.w3.org/1999/xlink">
<g id="graph0" class="graph" transform="scale(1 1) rotate(0) translate(4 360)">
<title>utils.hpp</title>
<!-- Node1 -->
<g id="node1" class="node"><title>Node1</title>
<polygon fill="#bfbfbf" stroke="black" points="319.5,-336.5 319.5,-355.5 372.5,-355.5 372.5,-336.5 319.5,-336.5"/>
<text text-anchor="middle" x="346" y="-343.5" font-family="Helvetica,sans-Serif" font-size="10.00">utils.hpp</text>
</g>
<!-- Node2 -->
<g id="node2" class="node"><title>Node2</title>
<g id="a_node2"><a xlink:href="arg__iface_8hpp.html" target="_top" xlink:title="arg_iface.hpp">
<polygon fill="none" stroke="black" points="173.5,-280.5 173.5,-299.5 248.5,-299.5 248.5,-280.5 173.5,-280.5"/>
<text text-anchor="middle" x="211" y="-287.5" font-family="Helvetica,sans-Serif" font-size="10.00">arg_iface.hpp</text>
</a>
</g>
</g>
<!-- Node1&#45;&gt;Node2 -->
<g id="edge1" class="edge"><title>Node1&#45;&gt;Node2</title>
<path fill="none" stroke="midnightblue" d="M315.094,-332.638C289.76,-322.504 254.569,-308.427 232.291,-299.516"/>
<polygon fill="midnightblue" stroke="midnightblue" points="314.024,-335.979 324.609,-336.444 316.624,-329.48 314.024,-335.979"/>
</g>
<!-- Node3 -->
<g id="node3" class="node"><title>Node3</title>
<g id="a_node3"><a xlink:href="arg_8hpp.html" target="_top" xlink:title="arg.hpp">
<polygon fill="none" stroke="black" points="180.5,-224.5 180.5,-243.5 229.5,-243.5 229.5,-224.5 180.5,-224.5"/>
<text text-anchor="middle" x="205" y="-231.5" font-family="Helvetica,sans-Serif" font-size="10.00">arg.hpp</text>
</a>
</g>
</g>
<!-- Node1&#45;&gt;Node3 -->
<g id="edge22" class="edge"><title>Node1&#45;&gt;Node3</title>
<path fill="none" stroke="midnightblue" d="M326.923,-330.118C296.995,-306.769 239.955,-262.27 216.013,-243.591"/>
<polygon fill="midnightblue" stroke="midnightblue" points="324.899,-332.977 334.936,-336.368 329.204,-327.458 324.899,-332.977"/>
</g>
<!-- Node5 -->
<g id="node5" class="node"><title>Node5</title>
<g id="a_node5"><a xlink:href="cmd__line_8hpp.html" target="_top" xlink:title="cmd_line.hpp">
<polygon fill="none" stroke="black" points="421,-56.5 421,-75.5 495,-75.5 495,-56.5 421,-56.5"/>
<text text-anchor="middle" x="458" y="-63.5" font-family="Helvetica,sans-Serif" font-size="10.00">cmd_line.hpp</text>
</a>
</g>
</g>
<!-- Node1&#45;&gt;Node5 -->
<g id="edge36" class="edge"><title>Node1&#45;&gt;Node5</title>
<path fill="none" stroke="midnightblue" d="M382.767,-343.048C483.765,-336.692 758,-312.312 758,-235 758,-235 758,-235 758,-177 758,-121.595 575.352,-85.6813 495.087,-72.5737"/>
<polygon fill="midnightblue" stroke="midnightblue" points="382.485,-339.559 372.715,-343.657 382.908,-346.546 382.485,-339.559"/>
</g>
<!-- Node7 -->
<g id="node7" class="node"><title>Node7</title>
<g id="a_node7"><a xlink:href="arg__as__command_8hpp.html" target="_top" xlink:title="arg_as_command.hpp">
<polygon fill="none" stroke="black" points="62.5,-0.5 62.5,-19.5 175.5,-19.5 175.5,-0.5 62.5,-0.5"/>
<text text-anchor="middle" x="119" y="-7.5" font-family="Helvetica,sans-Serif" font-size="10.00">arg_as_command.hpp</text>
</a>
</g>
</g>
<!-- Node1&#45;&gt;Node7 -->
<g id="edge35" class="edge"><title>Node1&#45;&gt;Node7</title>
<path fill="none" stroke="midnightblue" d="M308.856,-342.672C239.873,-337.806 95.0748,-324.891 52,-300 19.9675,-281.49 0,-271.996 0,-235 0,-235 0,-235 0,-121 0,-68.8112 62.482,-34.4989 96.8959,-19.5584"/>
<polygon fill="midnightblue" stroke="midnightblue" points="309.033,-346.192 319.249,-343.384 309.511,-339.208 309.033,-346.192"/>
</g>
<!-- Node8 -->
<g id="node8" class="node"><title>Node8</title>
<g id="a_node8"><a xlink:href="multi__arg_8hpp.html" target="_top" xlink:title="multi_arg.hpp">
<polygon fill="none" stroke="black" points="106.5,-168.5 106.5,-187.5 181.5,-187.5 181.5,-168.5 106.5,-168.5"/>
<text text-anchor="middle" x="144" y="-175.5" font-family="Helvetica,sans-Serif" font-size="10.00">multi_arg.hpp</text>
</a>
</g>
</g>
<!-- Node1&#45;&gt;Node8 -->
<g id="edge33" class="edge"><title>Node1&#45;&gt;Node8</title>
<path fill="none" stroke="midnightblue" d="M308.99,-344.782C239.813,-343.504 95.0768,-336.429 64,-300 30.985,-261.299 99.8814,-208.336 130.416,-187.714"/>
<polygon fill="midnightblue" stroke="midnightblue" points="309.363,-348.288 319.415,-344.941 309.47,-341.289 309.363,-348.288"/>
</g>
<!-- Node9 -->
<g id="node9" class="node"><title>Node9</title>
<g id="a_node9"><a xlink:href="help_8hpp.html" target="_top" xlink:title="help.hpp">
<polygon fill="none" stroke="black" points="469.5,-168.5 469.5,-187.5 522.5,-187.5 522.5,-168.5 469.5,-168.5"/>
<text text-anchor="middle" x="496" y="-175.5" font-family="Helvetica,sans-Serif" font-size="10.00">help.hpp</text>
</a>
</g>
</g>
<!-- Node1&#45;&gt;Node9 -->
<g id="edge41" class="edge"><title>Node1&#45;&gt;Node9</title>
<path fill="none" stroke="midnightblue" d="M382.262,-333.738C400.789,-326.504 422.608,-315.514 438,-300 471.47,-266.263 488.428,-209.458 493.936,-187.773"/>
<polygon fill="midnightblue" stroke="midnightblue" points="380.823,-330.538 372.649,-337.279 383.242,-337.107 380.823,-330.538"/>
</g>
<!-- Node10 -->
<g id="node10" class="node"><title>Node10</title>
<g id="a_node10"><a xlink:href="group__iface_8hpp.html" target="_top" xlink:title="group_iface.hpp">
<polygon fill="none" stroke="black" points="286,-224.5 286,-243.5 372,-243.5 372,-224.5 286,-224.5"/>
<text text-anchor="middle" x="329" y="-231.5" font-family="Helvetica,sans-Serif" font-size="10.00">group_iface.hpp</text>
</a>
</g>
</g>
<!-- Node1&#45;&gt;Node10 -->
<g id="edge34" class="edge"><title>Node1&#45;&gt;Node10</title>
<path fill="none" stroke="midnightblue" d="M340.285,-326.641C337.98,-318.548 335.512,-308.877 334,-300 330.618,-280.14 329.522,-256.473 329.168,-243.894"/>
<polygon fill="midnightblue" stroke="midnightblue" points="337.008,-327.897 343.224,-336.477 343.715,-325.893 337.008,-327.897"/>
</g>
<!-- Node12 -->
<g id="node12" class="node"><title>Node12</title>
<g id="a_node12"><a xlink:href="help__printer_8hpp.html" target="_top" xlink:title="help_printer.hpp">
<polygon fill="none" stroke="black" points="344,-112.5 344,-131.5 430,-131.5 430,-112.5 344,-112.5"/>
<text text-anchor="middle" x="387" y="-119.5" font-family="Helvetica,sans-Serif" font-size="10.00">help_printer.hpp</text>
</a>
</g>
</g>
<!-- Node1&#45;&gt;Node12 -->
<g id="edge42" class="edge"><title>Node1&#45;&gt;Node12</title>
<path fill="none" stroke="midnightblue" d="M382.952,-339.318C460.056,-326.565 633.398,-292.904 663,-244 716.847,-155.043 520.726,-131.28 430.315,-125.101"/>
<polygon fill="midnightblue" stroke="midnightblue" points="382.046,-335.919 372.736,-340.978 383.168,-342.828 382.046,-335.919"/>
</g>
<!-- Node13 -->
<g id="node13" class="node"><title>Node13</title>
<g id="a_node13"><a xlink:href="command_8hpp.html" target="_top" xlink:title="command.hpp">
<polygon fill="none" stroke="black" points="361,-168.5 361,-187.5 439,-187.5 439,-168.5 361,-168.5"/>
<text text-anchor="middle" x="400" y="-175.5" font-family="Helvetica,sans-Serif" font-size="10.00">command.hpp</text>
</a>
</g>
</g>
<!-- Node1&#45;&gt;Node13 -->
<g id="edge37" class="edge"><title>Node1&#45;&gt;Node13</title>
<path fill="none" stroke="midnightblue" d="M381.918,-332.31C396.447,-325.199 411.718,-314.729 420,-300 441.184,-262.325 416.195,-208.315 404.941,-187.567"/>
<polygon fill="midnightblue" stroke="midnightblue" points="380.25,-329.222 372.559,-336.509 383.116,-335.609 380.25,-329.222"/>
</g>
<!-- Node14 -->
<g id="node14" class="node"><title>Node14</title>
<g id="a_node14"><a xlink:href="context_8hpp.html" target="_top" xlink:title="context.hpp">
<polygon fill="none" stroke="black" points="343,-280.5 343,-299.5 411,-299.5 411,-280.5 343,-280.5"/>
<text text-anchor="middle" x="377" y="-287.5" font-family="Helvetica,sans-Serif" font-size="10.00">context.hpp</text>
</a>
</g>
</g>
<!-- Node1&#45;&gt;Node14 -->
<g id="edge23" class="edge"><title>Node1&#45;&gt;Node14</title>
<path fill="none" stroke="midnightblue" d="M356.176,-327.275C361.474,-318.045 367.717,-307.17 371.976,-299.751"/>
<polygon fill="midnightblue" stroke="midnightblue" points="353.062,-325.668 351.119,-336.083 359.133,-329.153 353.062,-325.668"/>
</g>
<!-- Node15 -->
<g id="node15" class="node"><title>Node15</title>
<g id="a_node15"><a xlink:href="value__utils_8hpp.html" target="_top" xlink:title="value_utils.hpp">
<polygon fill="none" stroke="black" points="73,-280.5 73,-299.5 155,-299.5 155,-280.5 73,-280.5"/>
<text text-anchor="middle" x="114" y="-287.5" font-family="Helvetica,sans-Serif" font-size="10.00">value_utils.hpp</text>
</a>
</g>
</g>
<!-- Node1&#45;&gt;Node15 -->
<g id="edge29" class="edge"><title>Node1&#45;&gt;Node15</title>
<path fill="none" stroke="midnightblue" d="M309.526,-336.51C266.107,-326.404 194.025,-309.626 150.565,-299.511"/>
<polygon fill="midnightblue" stroke="midnightblue" points="308.854,-339.947 319.387,-338.806 310.44,-333.13 308.854,-339.947"/>
</g>
<!-- Node16 -->
<g id="node16" class="node"><title>Node16</title>
<g id="a_node16"><a xlink:href="help__printer__iface_8hpp.html" target="_top" xlink:title="help_printer_iface.hpp">
<polygon fill="none" stroke="black" points="542,-224.5 542,-243.5 654,-243.5 654,-224.5 542,-224.5"/>
<text text-anchor="middle" x="598" y="-231.5" font-family="Helvetica,sans-Serif" font-size="10.00">help_printer_iface.hpp</text>
</a>
</g>
</g>
<!-- Node1&#45;&gt;Node16 -->
<g id="edge38" class="edge"><title>Node1&#45;&gt;Node16</title>
<path fill="none" stroke="midnightblue" d="M382.657,-341.415C420.866,-336.462 481.539,-325.104 528,-300 555.138,-285.336 579.794,-257.668 591.248,-243.633"/>
<polygon fill="midnightblue" stroke="midnightblue" points="382.011,-337.968 372.506,-342.648 382.855,-344.917 382.011,-337.968"/>
</g>
<!-- Node2&#45;&gt;Node3 -->
<g id="edge2" class="edge"><title>Node2&#45;&gt;Node3</title>
<path fill="none" stroke="midnightblue" d="M208.9,-270.101C207.904,-261.136 206.762,-250.858 205.972,-243.751"/>
<polygon fill="midnightblue" stroke="midnightblue" points="205.426,-270.531 210.009,-280.083 212.383,-269.758 205.426,-270.531"/>
</g>
<!-- Node2&#45;&gt;Node7 -->
<g id="edge21" class="edge"><title>Node2&#45;&gt;Node7</title>
<path fill="none" stroke="midnightblue" d="M173.878,-276.856C133.915,-261.17 76,-229.693 76,-179 76,-179 76,-179 76,-121 76,-80.8112 101.206,-37.6815 113.021,-19.6721"/>
<polygon fill="midnightblue" stroke="midnightblue" points="172.763,-280.176 183.355,-280.416 175.225,-273.623 172.763,-280.176"/>
</g>
<!-- Node2&#45;&gt;Node10 -->
<g id="edge12" class="edge"><title>Node2&#45;&gt;Node10</title>
<path fill="none" stroke="midnightblue" d="M238.9,-276.232C260.973,-266.131 291.176,-252.309 310.39,-243.516"/>
<polygon fill="midnightblue" stroke="midnightblue" points="237.334,-273.1 229.697,-280.444 240.247,-279.465 237.334,-273.1"/>
</g>
<!-- Node4 -->
<g id="node4" class="node"><title>Node4</title>
<g id="a_node4"><a xlink:href="api_8hpp.html" target="_top" xlink:title="api.hpp">
<polygon fill="none" stroke="black" points="186,-112.5 186,-131.5 234,-131.5 234,-112.5 186,-112.5"/>
<text text-anchor="middle" x="210" y="-119.5" font-family="Helvetica,sans-Serif" font-size="10.00">api.hpp</text>
</a>
</g>
</g>
<!-- Node3&#45;&gt;Node4 -->
<g id="edge3" class="edge"><title>Node3&#45;&gt;Node4</title>
<path fill="none" stroke="midnightblue" d="M205.848,-214.348C206.943,-190.254 208.804,-149.308 209.609,-131.591"/>
<polygon fill="midnightblue" stroke="midnightblue" points="202.35,-214.22 205.392,-224.368 209.343,-214.538 202.35,-214.22"/>
</g>
<!-- Node3&#45;&gt;Node8 -->
<g id="edge8" class="edge"><title>Node3&#45;&gt;Node8</title>
<path fill="none" stroke="midnightblue" d="M187.533,-217.537C176.656,-207.909 163.056,-195.869 153.979,-187.834"/>
<polygon fill="midnightblue" stroke="midnightblue" points="185.392,-220.316 195.199,-224.324 190.032,-215.075 185.392,-220.316"/>
</g>
<!-- Node3&#45;&gt;Node9 -->
<g id="edge10" class="edge"><title>Node3&#45;&gt;Node9</title>
<path fill="none" stroke="midnightblue" d="M239.844,-226.573C287.034,-217.862 373.887,-201.81 448,-188 454.918,-186.711 462.396,-185.312 469.343,-184.009"/>
<polygon fill="midnightblue" stroke="midnightblue" points="239.039,-223.162 229.84,-228.419 240.31,-230.046 239.039,-223.162"/>
</g>
<!-- Node4&#45;&gt;Node5 -->
<g id="edge4" class="edge"><title>Node4&#45;&gt;Node5</title>
<path fill="none" stroke="midnightblue" d="M244.092,-113.577C290.429,-103.487 372.988,-85.5107 420.856,-75.0878"/>
<polygon fill="midnightblue" stroke="midnightblue" points="243.257,-110.176 234.231,-115.724 244.747,-117.016 243.257,-110.176"/>
</g>
<!-- Node6 -->
<g id="node6" class="node"><title>Node6</title>
<g id="a_node6"><a xlink:href="all_8hpp.html" target="_top" xlink:title="all.hpp">
<polygon fill="none" stroke="black" points="435.5,-0.5 435.5,-19.5 480.5,-19.5 480.5,-0.5 435.5,-0.5"/>
<text text-anchor="middle" x="458" y="-7.5" font-family="Helvetica,sans-Serif" font-size="10.00">all.hpp</text>
</a>
</g>
</g>
<!-- Node5&#45;&gt;Node6 -->
<g id="edge5" class="edge"><title>Node5&#45;&gt;Node6</title>
<path fill="none" stroke="midnightblue" d="M458,-45.8045C458,-36.9102 458,-26.7798 458,-19.7511"/>
<polygon fill="midnightblue" stroke="midnightblue" points="454.5,-46.083 458,-56.083 461.5,-46.083 454.5,-46.083"/>
</g>
<!-- Node5&#45;&gt;Node7 -->
<g id="edge6" class="edge"><title>Node5&#45;&gt;Node7</title>
<path fill="none" stroke="midnightblue" d="M410.754,-57.4741C348.15,-47.5017 237.998,-29.9554 172.431,-19.5111"/>
<polygon fill="midnightblue" stroke="midnightblue" points="410.325,-60.9498 420.751,-59.0666 411.426,-54.037 410.325,-60.9498"/>
</g>
<!-- Node7&#45;&gt;Node4 -->
<g id="edge7" class="edge"><title>Node7&#45;&gt;Node4</title>
<path fill="none" stroke="midnightblue" d="M132.536,-27.3624C152.131,-51.0489 187.709,-94.0547 202.859,-112.368"/>
<polygon fill="midnightblue" stroke="midnightblue" points="135.179,-25.0656 126.107,-19.5914 129.785,-29.5276 135.179,-25.0656"/>
</g>
<!-- Node8&#45;&gt;Node4 -->
<g id="edge9" class="edge"><title>Node8&#45;&gt;Node4</title>
<path fill="none" stroke="midnightblue" d="M162.554,-161.82C174.378,-152.145 189.286,-139.948 199.203,-131.834"/>
<polygon fill="midnightblue" stroke="midnightblue" points="160.127,-159.283 154.604,-168.324 164.56,-164.7 160.127,-159.283"/>
</g>
<!-- Node9&#45;&gt;Node5 -->
<g id="edge11" class="edge"><title>Node9&#45;&gt;Node5</title>
<path fill="none" stroke="midnightblue" d="M489.669,-158.674C481.361,-134.625 467.116,-93.3881 460.968,-75.5914"/>
<polygon fill="midnightblue" stroke="midnightblue" points="486.445,-160.059 493.018,-168.368 493.061,-157.774 486.445,-160.059"/>
</g>
<!-- Node11 -->
<g id="node11" class="node"><title>Node11</title>
<g id="a_node11"><a xlink:href="groups_8hpp.html" target="_top" xlink:title="groups.hpp">
<polygon fill="none" stroke="black" points="239.5,-168.5 239.5,-187.5 304.5,-187.5 304.5,-168.5 239.5,-168.5"/>
<text text-anchor="middle" x="272" y="-175.5" font-family="Helvetica,sans-Serif" font-size="10.00">groups.hpp</text>
</a>
</g>
</g>
<!-- Node10&#45;&gt;Node11 -->
<g id="edge13" class="edge"><title>Node10&#45;&gt;Node11</title>
<path fill="none" stroke="midnightblue" d="M312.379,-217.253C302.266,-207.673 289.723,-195.791 281.325,-187.834"/>
<polygon fill="midnightblue" stroke="midnightblue" points="310.175,-219.987 319.842,-224.324 314.99,-214.906 310.175,-219.987"/>
</g>
<!-- Node10&#45;&gt;Node12 -->
<g id="edge20" class="edge"><title>Node10&#45;&gt;Node12</title>
<path fill="none" stroke="midnightblue" d="M333.881,-214.292C337.778,-200.925 343.921,-182.768 352,-168 359.505,-154.281 371.078,-140.355 378.839,-131.703"/>
<polygon fill="midnightblue" stroke="midnightblue" points="330.43,-213.642 331.144,-224.213 337.178,-215.505 330.43,-213.642"/>
</g>
<!-- Node10&#45;&gt;Node13 -->
<g id="edge17" class="edge"><title>Node10&#45;&gt;Node13</title>
<path fill="none" stroke="midnightblue" d="M348.59,-218.101C361.368,-208.382 377.613,-196.027 388.385,-187.834"/>
<polygon fill="midnightblue" stroke="midnightblue" points="346.248,-215.484 340.407,-224.324 350.486,-221.056 346.248,-215.484"/>
</g>
<!-- Node11&#45;&gt;Node4 -->
<g id="edge14" class="edge"><title>Node11&#45;&gt;Node4</title>
<path fill="none" stroke="midnightblue" d="M254.246,-161.537C243.192,-151.909 229.369,-139.869 220.143,-131.834"/>
<polygon fill="midnightblue" stroke="midnightblue" points="252.199,-164.395 262.039,-168.324 256.797,-159.117 252.199,-164.395"/>
</g>
<!-- Node11&#45;&gt;Node12 -->
<g id="edge15" class="edge"><title>Node11&#45;&gt;Node12</title>
<path fill="none" stroke="midnightblue" d="M299.481,-164.096C320.966,-154.007 350.222,-140.27 368.863,-131.516"/>
<polygon fill="midnightblue" stroke="midnightblue" points="297.786,-161.025 290.222,-168.444 300.762,-167.361 297.786,-161.025"/>
</g>
<!-- Node12&#45;&gt;Node5 -->
<g id="edge16" class="edge"><title>Node12&#45;&gt;Node5</title>
<path fill="none" stroke="midnightblue" d="M406.59,-106.101C419.368,-96.3824 435.613,-84.0269 446.385,-75.8339"/>
<polygon fill="midnightblue" stroke="midnightblue" points="404.248,-103.484 398.407,-112.324 408.486,-109.056 404.248,-103.484"/>
</g>
<!-- Node13&#45;&gt;Node5 -->
<g id="edge18" class="edge"><title>Node13&#45;&gt;Node5</title>
<path fill="none" stroke="midnightblue" d="M416.886,-160.999C424.565,-152.932 433.209,-142.619 439,-132 449.132,-113.42 454.409,-88.8334 456.649,-75.8723"/>
<polygon fill="midnightblue" stroke="midnightblue" points="414.245,-158.691 409.669,-168.247 419.205,-163.63 414.245,-158.691"/>
</g>
<!-- Node13&#45;&gt;Node12 -->
<g id="edge19" class="edge"><title>Node13&#45;&gt;Node12</title>
<path fill="none" stroke="midnightblue" d="M395.45,-158.101C393.292,-149.136 390.818,-138.858 389.107,-131.751"/>
<polygon fill="midnightblue" stroke="midnightblue" points="392.11,-159.18 397.853,-168.083 398.915,-157.542 392.11,-159.18"/>
</g>
<!-- Node14&#45;&gt;Node3 -->
<g id="edge24" class="edge"><title>Node14&#45;&gt;Node3</title>
<path fill="none" stroke="midnightblue" d="M339.901,-277.353C306.535,-266.877 258.459,-251.784 229.618,-242.729"/>
<polygon fill="midnightblue" stroke="midnightblue" points="339.157,-280.787 349.746,-280.444 341.254,-274.109 339.157,-280.787"/>
</g>
<!-- Node14&#45;&gt;Node5 -->
<g id="edge26" class="edge"><title>Node14&#45;&gt;Node5</title>
<path fill="none" stroke="midnightblue" d="M421.416,-288.741C493.857,-287.271 632.452,-279.731 663,-244 726.403,-169.841 552.342,-99.6141 484.113,-75.6665"/>
<polygon fill="midnightblue" stroke="midnightblue" points="421.167,-285.245 411.229,-288.917 421.288,-292.244 421.167,-285.245"/>
</g>
<!-- Node14&#45;&gt;Node8 -->
<g id="edge25" class="edge"><title>Node14&#45;&gt;Node8</title>
<path fill="none" stroke="midnightblue" d="M348.095,-276.459C328.027,-267.639 300.737,-255.418 277,-244 259.446,-235.556 255.453,-232.651 238,-224 211.9,-211.064 181.45,-196.6 162.444,-187.647"/>
<polygon fill="midnightblue" stroke="midnightblue" points="346.755,-279.693 357.319,-280.498 349.562,-273.281 346.755,-279.693"/>
</g>
<!-- Node14&#45;&gt;Node9 -->
<g id="edge28" class="edge"><title>Node14&#45;&gt;Node9</title>
<path fill="none" stroke="midnightblue" d="M393.756,-273.512C419.184,-250.007 466.672,-206.11 486.706,-187.591"/>
<polygon fill="midnightblue" stroke="midnightblue" points="391.305,-271.01 386.338,-280.368 396.057,-276.151 391.305,-271.01"/>
</g>
<!-- Node14&#45;&gt;Node13 -->
<g id="edge27" class="edge"><title>Node14&#45;&gt;Node13</title>
<path fill="none" stroke="midnightblue" d="M380.9,-270.348C385.938,-246.254 394.499,-205.308 398.204,-187.591"/>
<polygon fill="midnightblue" stroke="midnightblue" points="377.426,-269.864 378.805,-280.368 384.277,-271.297 377.426,-269.864"/>
</g>
<!-- Node15&#45;&gt;Node3 -->
<g id="edge30" class="edge"><title>Node15&#45;&gt;Node3</title>
<path fill="none" stroke="midnightblue" d="M137.294,-275.177C154.039,-265.241 176.1,-252.149 190.416,-243.655"/>
<polygon fill="midnightblue" stroke="midnightblue" points="135.434,-272.211 128.621,-280.324 139.007,-278.231 135.434,-272.211"/>
</g>
<!-- Node15&#45;&gt;Node8 -->
<g id="edge31" class="edge"><title>Node15&#45;&gt;Node8</title>
<path fill="none" stroke="midnightblue" d="M118.998,-270.674C125.557,-246.625 136.803,-205.388 141.657,-187.591"/>
<polygon fill="midnightblue" stroke="midnightblue" points="115.609,-269.8 116.354,-280.368 122.362,-271.642 115.609,-269.8"/>
</g>
<!-- Node15&#45;&gt;Node13 -->
<g id="edge32" class="edge"><title>Node15&#45;&gt;Node13</title>
<path fill="none" stroke="midnightblue" d="M124.675,-271.341C134.717,-256.323 151.154,-235.428 171,-224 202.776,-205.702 304.095,-190.783 360.733,-183.612"/>
<polygon fill="midnightblue" stroke="midnightblue" points="121.451,-269.889 119.028,-280.203 127.354,-273.65 121.451,-269.889"/>
</g>
<!-- Node16&#45;&gt;Node9 -->
<g id="edge39" class="edge"><title>Node16&#45;&gt;Node9</title>
<path fill="none" stroke="midnightblue" d="M572.669,-219.59C553.81,-209.605 528.616,-196.267 512.347,-187.655"/>
<polygon fill="midnightblue" stroke="midnightblue" points="571.136,-222.738 581.612,-224.324 574.412,-216.552 571.136,-222.738"/>
</g>
<!-- Node16&#45;&gt;Node12 -->
<g id="edge40" class="edge"><title>Node16&#45;&gt;Node12</title>
<path fill="none" stroke="midnightblue" d="M584.737,-216.289C572.291,-201.638 552.424,-180.743 531,-168 499.709,-149.389 459.945,-137.722 430.134,-130.945"/>
<polygon fill="midnightblue" stroke="midnightblue" points="582.102,-218.595 591.164,-224.085 587.503,-214.142 582.102,-218.595"/>
</g>
</g>
</svg>
