<?xml version="1.0" encoding="UTF-8" standalone="no"?>
<!DOCTYPE svg PUBLIC "-//W3C//DTD SVG 1.1//EN"
 "http://www.w3.org/Graphics/SVG/1.1/DTD/svg11.dtd">
<!-- Generated by graphviz version 2.38.0 (20140413.2041)
 -->
<!-- Title: utils.hpp Pages: 1 -->
<svg width="764pt" height="364pt"
 viewBox="0.00 0.00 764.00 364.00" xmlns="http://www.w3.org/2000/svg" xmlns:xlink="http://www.w3.org/1999/xlink">
<g id="graph0" class="graph" transform="scale(1 1) rotate(0) translate(4 360)">
<title>utils.hpp</title>
<!-- Node1 -->
<g id="node1" class="node"><title>Node1</title>
<polygon fill="#bfbfbf" stroke="black" points="318,-336.5 318,-355.5 370,-355.5 370,-336.5 318,-336.5"/>
<text text-anchor="middle" x="344" y="-343.5" font-family="FreeSans" font-size="10.00">utils.hpp</text>
</g>
<!-- Node2 -->
<g id="node2" class="node"><title>Node2</title>
<g id="a_node2"><a xlink:href="arg__iface_8hpp.html" target="_top" xlink:title="arg_iface.hpp">
<polygon fill="none" stroke="black" points="174,-280.5 174,-299.5 248,-299.5 248,-280.5 174,-280.5"/>
<text text-anchor="middle" x="211" y="-287.5" font-family="FreeSans" font-size="10.00">arg_iface.hpp</text>
</a>
</g>
</g>
<!-- Node1&#45;&gt;Node2 -->
<g id="edge1" class="edge"><title>Node1&#45;&gt;Node2</title>
<path fill="none" stroke="midnightblue" d="M313.552,-332.638C288.593,-322.504 253.923,-308.427 231.976,-299.516"/>
<polygon fill="midnightblue" stroke="midnightblue" points="312.344,-335.924 322.926,-336.444 314.977,-329.439 312.344,-335.924"/>
</g>
<!-- Node3 -->
<g id="node3" class="node"><title>Node3</title>
<g id="a_node3"><a xlink:href="arg_8hpp.html" target="_top" xlink:title="arg.hpp">
<polygon fill="none" stroke="black" points="180,-224.5 180,-243.5 228,-243.5 228,-224.5 180,-224.5"/>
<text text-anchor="middle" x="204" y="-231.5" font-family="FreeSans" font-size="10.00">arg.hpp</text>
</a>
</g>
</g>
<!-- Node1&#45;&gt;Node3 -->
<g id="edge22" class="edge"><title>Node1&#45;&gt;Node3</title>
<path fill="none" stroke="midnightblue" d="M325.059,-330.118C295.342,-306.769 238.707,-262.27 214.935,-243.591"/>
<polygon fill="midnightblue" stroke="midnightblue" points="322.989,-332.942 333.014,-336.368 327.314,-327.438 322.989,-332.942"/>
</g>
<!-- Node5 -->
<g id="node5" class="node"><title>Node5</title>
<g id="a_node5"><a xlink:href="cmd__line_8hpp.html" target="_top" xlink:title="cmd_line.hpp">
<polygon fill="none" stroke="black" points="419,-56.5 419,-75.5 493,-75.5 493,-56.5 419,-56.5"/>
<text text-anchor="middle" x="456" y="-63.5" font-family="FreeSans" font-size="10.00">cmd_line.hpp</text>
</a>
</g>
</g>
<!-- Node1&#45;&gt;Node5 -->
<g id="edge36" class="edge"><title>Node1&#45;&gt;Node5</title>
<path fill="none" stroke="midnightblue" d="M380.069,-343.092C480.496,-336.804 756,-312.491 756,-235 756,-235 756,-235 756,-177 756,-121.595 573.352,-85.6813 493.087,-72.5737"/>
<polygon fill="midnightblue" stroke="midnightblue" points="379.856,-339.599 370.085,-343.694 380.277,-346.586 379.856,-339.599"/>
</g>
<!-- Node7 -->
<g id="node7" class="node"><title>Node7</title>
<g id="a_node7"><a xlink:href="arg__as__command_8hpp.html" target="_top" xlink:title="arg_as_command.hpp">
<polygon fill="none" stroke="black" points="63.5,-0.5 63.5,-19.5 174.5,-19.5 174.5,-0.5 63.5,-0.5"/>
<text text-anchor="middle" x="119" y="-7.5" font-family="FreeSans" font-size="10.00">arg_as_command.hpp</text>
</a>
</g>
</g>
<!-- Node1&#45;&gt;Node7 -->
<g id="edge35" class="edge"><title>Node1&#45;&gt;Node7</title>
<path fill="none" stroke="midnightblue" d="M307.546,-342.499C239.835,-337.339 97.661,-323.947 55,-300 22.0005,-281.476 0,-272.843 0,-235 0,-235 0,-235 0,-121 0,-68.8112 62.482,-34.4989 96.8959,-19.5584"/>
<polygon fill="midnightblue" stroke="midnightblue" points="307.515,-346.006 317.747,-343.256 308.034,-339.025 307.515,-346.006"/>
</g>
<!-- Node8 -->
<g id="node8" class="node"><title>Node8</title>
<g id="a_node8"><a xlink:href="multi__arg_8hpp.html" target="_top" xlink:title="multi_arg.hpp">
<polygon fill="none" stroke="black" points="107,-168.5 107,-187.5 181,-187.5 181,-168.5 107,-168.5"/>
<text text-anchor="middle" x="144" y="-175.5" font-family="FreeSans" font-size="10.00">multi_arg.hpp</text>
</a>
</g>
</g>
<!-- Node1&#45;&gt;Node8 -->
<g id="edge33" class="edge"><title>Node1&#45;&gt;Node8</title>
<path fill="none" stroke="midnightblue" d="M307.64,-344.676C239.678,-343.215 97.4893,-335.842 67,-300 34.4104,-261.689 101.193,-208.5 130.817,-187.766"/>
<polygon fill="midnightblue" stroke="midnightblue" points="307.819,-348.179 317.882,-344.863 307.947,-341.181 307.819,-348.179"/>
</g>
<!-- Node9 -->
<g id="node9" class="node"><title>Node9</title>
<g id="a_node9"><a xlink:href="help_8hpp.html" target="_top" xlink:title="help.hpp">
<polygon fill="none" stroke="black" points="467.5,-168.5 467.5,-187.5 520.5,-187.5 520.5,-168.5 467.5,-168.5"/>
<text text-anchor="middle" x="494" y="-175.5" font-family="FreeSans" font-size="10.00">help.hpp</text>
</a>
</g>
</g>
<!-- Node1&#45;&gt;Node9 -->
<g id="edge41" class="edge"><title>Node1&#45;&gt;Node9</title>
<path fill="none" stroke="midnightblue" d="M379.827,-333.613C398.141,-326.344 419.725,-315.36 435,-300 468.619,-266.194 486.123,-209.43 491.847,-187.765"/>
<polygon fill="midnightblue" stroke="midnightblue" points="378.459,-330.388 370.325,-337.176 380.917,-336.942 378.459,-330.388"/>
</g>
<!-- Node10 -->
<g id="node10" class="node"><title>Node10</title>
<g id="a_node10"><a xlink:href="group__iface_8hpp.html" target="_top" xlink:title="group_iface.hpp">
<polygon fill="none" stroke="black" points="284.5,-224.5 284.5,-243.5 369.5,-243.5 369.5,-224.5 284.5,-224.5"/>
<text text-anchor="middle" x="327" y="-231.5" font-family="FreeSans" font-size="10.00">group_iface.hpp</text>
</a>
</g>
</g>
<!-- Node1&#45;&gt;Node10 -->
<g id="edge34" class="edge"><title>Node1&#45;&gt;Node10</title>
<path fill="none" stroke="midnightblue" d="M338.851,-326.6C336.753,-318.499 334.479,-308.834 333,-300 329.669,-280.105 328.069,-256.451 327.404,-243.885"/>
<polygon fill="midnightblue" stroke="midnightblue" points="335.525,-327.709 341.51,-336.452 342.283,-325.885 335.525,-327.709"/>
</g>
<!-- Node12 -->
<g id="node12" class="node"><title>Node12</title>
<g id="a_node12"><a xlink:href="help__printer_8hpp.html" target="_top" xlink:title="help_printer.hpp">
<polygon fill="none" stroke="black" points="342.5,-112.5 342.5,-131.5 427.5,-131.5 427.5,-112.5 342.5,-112.5"/>
<text text-anchor="middle" x="385" y="-119.5" font-family="FreeSans" font-size="10.00">help_printer.hpp</text>
</a>
</g>
</g>
<!-- Node1&#45;&gt;Node12 -->
<g id="edge42" class="edge"><title>Node1&#45;&gt;Node12</title>
<path fill="none" stroke="midnightblue" d="M380.294,-339.397C456.901,-326.69 630.506,-292.939 660,-244 713.579,-155.098 517.687,-131.295 427.798,-125.103"/>
<polygon fill="midnightblue" stroke="midnightblue" points="379.46,-335.986 370.154,-341.05 380.587,-342.895 379.46,-335.986"/>
</g>
<!-- Node13 -->
<g id="node13" class="node"><title>Node13</title>
<g id="a_node13"><a xlink:href="command_8hpp.html" target="_top" xlink:title="command.hpp">
<polygon fill="none" stroke="black" points="359.5,-168.5 359.5,-187.5 436.5,-187.5 436.5,-168.5 359.5,-168.5"/>
<text text-anchor="middle" x="398" y="-175.5" font-family="FreeSans" font-size="10.00">command.hpp</text>
</a>
</g>
</g>
<!-- Node1&#45;&gt;Node13 -->
<g id="edge37" class="edge"><title>Node1&#45;&gt;Node13</title>
<path fill="none" stroke="midnightblue" d="M379.446,-332.196C393.78,-325.064 408.844,-314.609 417,-300 438.042,-262.309 413.766,-208.309 402.812,-187.565"/>
<polygon fill="midnightblue" stroke="midnightblue" points="377.854,-329.076 370.211,-336.414 380.762,-335.443 377.854,-329.076"/>
</g>
<!-- Node14 -->
<g id="node14" class="node"><title>Node14</title>
<g id="a_node14"><a xlink:href="context_8hpp.html" target="_top" xlink:title="context.hpp">
<polygon fill="none" stroke="black" points="342,-280.5 342,-299.5 408,-299.5 408,-280.5 342,-280.5"/>
<text text-anchor="middle" x="375" y="-287.5" font-family="FreeSans" font-size="10.00">context.hpp</text>
</a>
</g>
</g>
<!-- Node1&#45;&gt;Node14 -->
<g id="edge23" class="edge"><title>Node1&#45;&gt;Node14</title>
<path fill="none" stroke="midnightblue" d="M354.176,-327.275C359.474,-318.045 365.717,-307.17 369.976,-299.751"/>
<polygon fill="midnightblue" stroke="midnightblue" points="351.062,-325.668 349.119,-336.083 357.133,-329.153 351.062,-325.668"/>
</g>
<!-- Node15 -->
<g id="node15" class="node"><title>Node15</title>
<g id="a_node15"><a xlink:href="value__utils_8hpp.html" target="_top" xlink:title="value_utils.hpp">
<polygon fill="none" stroke="black" points="76,-280.5 76,-299.5 156,-299.5 156,-280.5 76,-280.5"/>
<text text-anchor="middle" x="116" y="-287.5" font-family="FreeSans" font-size="10.00">value_utils.hpp</text>
</a>
</g>
</g>
<!-- Node1&#45;&gt;Node15 -->
<g id="edge29" class="edge"><title>Node1&#45;&gt;Node15</title>
<path fill="none" stroke="midnightblue" d="M307.885,-336.446C265.185,-326.333 194.555,-309.605 151.935,-299.511"/>
<polygon fill="midnightblue" stroke="midnightblue" points="307.308,-339.907 317.846,-338.806 308.921,-333.095 307.308,-339.907"/>
</g>
<!-- Node16 -->
<g id="node16" class="node"><title>Node16</title>
<g id="a_node16"><a xlink:href="help__printer__iface_8hpp.html" target="_top" xlink:title="help_printer_iface.hpp">
<polygon fill="none" stroke="black" points="540.5,-224.5 540.5,-243.5 651.5,-243.5 651.5,-224.5 540.5,-224.5"/>
<text text-anchor="middle" x="596" y="-231.5" font-family="FreeSans" font-size="10.00">help_printer_iface.hpp</text>
</a>
</g>
</g>
<!-- Node1&#45;&gt;Node16 -->
<g id="edge38" class="edge"><title>Node1&#45;&gt;Node16</title>
<path fill="none" stroke="midnightblue" d="M380.335,-341.457C418.524,-336.526 479.408,-325.175 526,-300 553.138,-285.336 577.794,-257.668 589.248,-243.633"/>
<polygon fill="midnightblue" stroke="midnightblue" points="379.703,-338.008 370.196,-342.683 380.544,-344.957 379.703,-338.008"/>
</g>
<!-- Node2&#45;&gt;Node3 -->
<g id="edge2" class="edge"><title>Node2&#45;&gt;Node3</title>
<path fill="none" stroke="midnightblue" d="M208.55,-270.101C207.388,-261.136 206.056,-250.858 205.134,-243.751"/>
<polygon fill="midnightblue" stroke="midnightblue" points="205.088,-270.616 209.844,-280.083 212.029,-269.716 205.088,-270.616"/>
</g>
<!-- Node2&#45;&gt;Node7 -->
<g id="edge21" class="edge"><title>Node2&#45;&gt;Node7</title>
<path fill="none" stroke="midnightblue" d="M173.878,-276.856C133.915,-261.17 76,-229.693 76,-179 76,-179 76,-179 76,-121 76,-80.8112 101.206,-37.6815 113.021,-19.6721"/>
<polygon fill="midnightblue" stroke="midnightblue" points="172.763,-280.176 183.355,-280.416 175.225,-273.623 172.763,-280.176"/>
</g>
<!-- Node2&#45;&gt;Node10 -->
<g id="edge12" class="edge"><title>Node2&#45;&gt;Node10</title>
<path fill="none" stroke="midnightblue" d="M238.72,-276.096C260.392,-266.007 289.902,-252.27 308.705,-243.516"/>
<polygon fill="midnightblue" stroke="midnightblue" points="236.969,-273.05 229.381,-280.444 239.923,-279.396 236.969,-273.05"/>
</g>
<!-- Node4 -->
<g id="node4" class="node"><title>Node4</title>
<g id="a_node4"><a xlink:href="api_8hpp.html" target="_top" xlink:title="api.hpp">
<polygon fill="none" stroke="black" points="185.5,-112.5 185.5,-131.5 232.5,-131.5 232.5,-112.5 185.5,-112.5"/>
<text text-anchor="middle" x="209" y="-119.5" font-family="FreeSans" font-size="10.00">api.hpp</text>
</a>
</g>
</g>
<!-- Node3&#45;&gt;Node4 -->
<g id="edge3" class="edge"><title>Node3&#45;&gt;Node4</title>
<path fill="none" stroke="midnightblue" d="M204.848,-214.348C205.943,-190.254 207.804,-149.308 208.609,-131.591"/>
<polygon fill="midnightblue" stroke="midnightblue" points="201.35,-214.22 204.392,-224.368 208.343,-214.538 201.35,-214.22"/>
</g>
<!-- Node3&#45;&gt;Node8 -->
<g id="edge8" class="edge"><title>Node3&#45;&gt;Node8</title>
<path fill="none" stroke="midnightblue" d="M186.819,-217.537C176.121,-207.909 162.744,-195.869 153.815,-187.834"/>
<polygon fill="midnightblue" stroke="midnightblue" points="184.586,-220.236 194.36,-224.324 189.268,-215.033 184.586,-220.236"/>
</g>
<!-- Node3&#45;&gt;Node9 -->
<g id="edge10" class="edge"><title>Node3&#45;&gt;Node9</title>
<path fill="none" stroke="midnightblue" d="M238.06,-226.658C296.376,-215.799 414.167,-193.865 467.131,-184.003"/>
<polygon fill="midnightblue" stroke="midnightblue" points="237.417,-223.217 228.226,-228.489 238.698,-230.099 237.417,-223.217"/>
</g>
<!-- Node4&#45;&gt;Node5 -->
<g id="edge4" class="edge"><title>Node4&#45;&gt;Node5</title>
<path fill="none" stroke="midnightblue" d="M242.464,-113.684C288.468,-103.626 370.975,-85.5884 418.844,-75.1232"/>
<polygon fill="midnightblue" stroke="midnightblue" points="241.705,-110.267 232.683,-115.822 243.2,-117.106 241.705,-110.267"/>
</g>
<!-- Node6 -->
<g id="node6" class="node"><title>Node6</title>
<g id="a_node6"><a xlink:href="all_8hpp.html" target="_top" xlink:title="all.hpp">
<polygon fill="none" stroke="black" points="434,-0.5 434,-19.5 478,-19.5 478,-0.5 434,-0.5"/>
<text text-anchor="middle" x="456" y="-7.5" font-family="FreeSans" font-size="10.00">all.hpp</text>
</a>
</g>
</g>
<!-- Node5&#45;&gt;Node6 -->
<g id="edge5" class="edge"><title>Node5&#45;&gt;Node6</title>
<path fill="none" stroke="midnightblue" d="M456,-45.8045C456,-36.9102 456,-26.7798 456,-19.7511"/>
<polygon fill="midnightblue" stroke="midnightblue" points="452.5,-46.083 456,-56.083 459.5,-46.083 452.5,-46.083"/>
</g>
<!-- Node5&#45;&gt;Node7 -->
<g id="edge6" class="edge"><title>Node5&#45;&gt;Node7</title>
<path fill="none" stroke="midnightblue" d="M409.033,-57.4741C346.798,-47.5017 237.296,-29.9554 172.115,-19.5111"/>
<polygon fill="midnightblue" stroke="midnightblue" points="408.543,-60.9402 418.971,-59.0666 409.651,-54.0284 408.543,-60.9402"/>
</g>
<!-- Node7&#45;&gt;Node4 -->
<g id="edge7" class="edge"><title>Node7&#45;&gt;Node4</title>
<path fill="none" stroke="midnightblue" d="M132.387,-27.3624C151.767,-51.0489 186.954,-94.0547 201.938,-112.368"/>
<polygon fill="midnightblue" stroke="midnightblue" points="135.071,-25.1147 126.029,-19.5914 129.653,-29.5474 135.071,-25.1147"/>
</g>
<!-- Node8&#45;&gt;Node4 -->
<g id="edge9" class="edge"><title>Node8&#45;&gt;Node4</title>
<path fill="none" stroke="midnightblue" d="M162.273,-161.82C173.918,-152.145 188.599,-139.948 198.367,-131.834"/>
<polygon fill="midnightblue" stroke="midnightblue" points="159.899,-159.242 154.443,-168.324 164.372,-164.626 159.899,-159.242"/>
</g>
<!-- Node9&#45;&gt;Node5 -->
<g id="edge11" class="edge"><title>Node9&#45;&gt;Node5</title>
<path fill="none" stroke="midnightblue" d="M487.669,-158.674C479.361,-134.625 465.116,-93.3881 458.968,-75.5914"/>
<polygon fill="midnightblue" stroke="midnightblue" points="484.445,-160.059 491.018,-168.368 491.061,-157.774 484.445,-160.059"/>
</g>
<!-- Node11 -->
<g id="node11" class="node"><title>Node11</title>
<g id="a_node11"><a xlink:href="groups_8hpp.html" target="_top" xlink:title="groups.hpp">
<polygon fill="none" stroke="black" points="239.5,-168.5 239.5,-187.5 302.5,-187.5 302.5,-168.5 239.5,-168.5"/>
<text text-anchor="middle" x="271" y="-175.5" font-family="FreeSans" font-size="10.00">groups.hpp</text>
</a>
</g>
</g>
<!-- Node10&#45;&gt;Node11 -->
<g id="edge13" class="edge"><title>Node10&#45;&gt;Node11</title>
<path fill="none" stroke="midnightblue" d="M310.67,-217.253C300.735,-207.673 288.412,-195.791 280.161,-187.834"/>
<polygon fill="midnightblue" stroke="midnightblue" points="308.375,-219.902 318.003,-224.324 313.234,-214.863 308.375,-219.902"/>
</g>
<!-- Node10&#45;&gt;Node12 -->
<g id="edge20" class="edge"><title>Node10&#45;&gt;Node12</title>
<path fill="none" stroke="midnightblue" d="M331.881,-214.292C335.778,-200.925 341.921,-182.768 350,-168 357.505,-154.281 369.078,-140.355 376.839,-131.703"/>
<polygon fill="midnightblue" stroke="midnightblue" points="328.43,-213.642 329.144,-224.213 335.178,-215.505 328.43,-213.642"/>
</g>
<!-- Node10&#45;&gt;Node13 -->
<g id="edge17" class="edge"><title>Node10&#45;&gt;Node13</title>
<path fill="none" stroke="midnightblue" d="M346.59,-218.101C359.368,-208.382 375.613,-196.027 386.385,-187.834"/>
<polygon fill="midnightblue" stroke="midnightblue" points="344.248,-215.484 338.407,-224.324 348.486,-221.056 344.248,-215.484"/>
</g>
<!-- Node11&#45;&gt;Node4 -->
<g id="edge14" class="edge"><title>Node11&#45;&gt;Node4</title>
<path fill="none" stroke="midnightblue" d="M253.246,-161.537C242.192,-151.909 228.369,-139.869 219.143,-131.834"/>
<polygon fill="midnightblue" stroke="midnightblue" points="251.199,-164.395 261.039,-168.324 255.797,-159.117 251.199,-164.395"/>
</g>
<!-- Node11&#45;&gt;Node12 -->
<g id="edge15" class="edge"><title>Node11&#45;&gt;Node12</title>
<path fill="none" stroke="midnightblue" d="M298.242,-164.096C319.54,-154.007 348.542,-140.27 367.021,-131.516"/>
<polygon fill="midnightblue" stroke="midnightblue" points="296.603,-161 289.064,-168.444 299.599,-167.326 296.603,-161"/>
</g>
<!-- Node12&#45;&gt;Node5 -->
<g id="edge16" class="edge"><title>Node12&#45;&gt;Node5</title>
<path fill="none" stroke="midnightblue" d="M404.59,-106.101C417.368,-96.3824 433.613,-84.0269 444.385,-75.8339"/>
<polygon fill="midnightblue" stroke="midnightblue" points="402.248,-103.484 396.407,-112.324 406.486,-109.056 402.248,-103.484"/>
</g>
<!-- Node13&#45;&gt;Node5 -->
<g id="edge18" class="edge"><title>Node13&#45;&gt;Node5</title>
<path fill="none" stroke="midnightblue" d="M414.085,-161.203C421.619,-153.066 430.192,-142.634 436,-132 446.187,-113.348 451.936,-88.7904 454.452,-75.8532"/>
<polygon fill="midnightblue" stroke="midnightblue" points="411.468,-158.875 407.038,-168.499 416.503,-163.738 411.468,-158.875"/>
</g>
<!-- Node13&#45;&gt;Node12 -->
<g id="edge19" class="edge"><title>Node13&#45;&gt;Node12</title>
<path fill="none" stroke="midnightblue" d="M393.45,-158.101C391.292,-149.136 388.818,-138.858 387.107,-131.751"/>
<polygon fill="midnightblue" stroke="midnightblue" points="390.11,-159.18 395.853,-168.083 396.915,-157.542 390.11,-159.18"/>
</g>
<!-- Node14&#45;&gt;Node3 -->
<g id="edge24" class="edge"><title>Node14&#45;&gt;Node3</title>
<path fill="none" stroke="midnightblue" d="M338.087,-277.343C304.811,-266.835 256.838,-251.686 228.204,-242.643"/>
<polygon fill="midnightblue" stroke="midnightblue" points="337.315,-280.77 347.905,-280.444 339.423,-274.095 337.315,-280.77"/>
</g>
<!-- Node14&#45;&gt;Node5 -->
<g id="edge26" class="edge"><title>Node14&#45;&gt;Node5</title>
<path fill="none" stroke="midnightblue" d="M418.164,-288.739C490.041,-287.287 629.411,-279.798 660,-244 723.358,-169.853 549.088,-99.3471 481.509,-75.5142"/>
<polygon fill="midnightblue" stroke="midnightblue" points="418.008,-285.241 408.07,-288.912 418.128,-292.24 418.008,-285.241"/>
</g>
<!-- Node14&#45;&gt;Node8 -->
<g id="edge25" class="edge"><title>Node14&#45;&gt;Node8</title>
<path fill="none" stroke="midnightblue" d="M345.681,-276.375C325.632,-267.603 298.529,-255.473 275,-244 257.845,-235.636 254.037,-232.602 237,-224 211.222,-210.984 181.084,-196.541 162.266,-187.614"/>
<polygon fill="midnightblue" stroke="midnightblue" points="344.344,-279.61 354.91,-280.394 347.139,-273.192 344.344,-279.61"/>
</g>
<!-- Node14&#45;&gt;Node9 -->
<g id="edge28" class="edge"><title>Node14&#45;&gt;Node9</title>
<path fill="none" stroke="midnightblue" d="M391.756,-273.512C417.184,-250.007 464.672,-206.11 484.706,-187.591"/>
<polygon fill="midnightblue" stroke="midnightblue" points="389.305,-271.01 384.338,-280.368 394.057,-276.151 389.305,-271.01"/>
</g>
<!-- Node14&#45;&gt;Node13 -->
<g id="edge27" class="edge"><title>Node14&#45;&gt;Node13</title>
<path fill="none" stroke="midnightblue" d="M378.9,-270.348C383.938,-246.254 392.499,-205.308 396.204,-187.591"/>
<polygon fill="midnightblue" stroke="midnightblue" points="375.426,-269.864 376.805,-280.368 382.277,-271.297 375.426,-269.864"/>
</g>
<!-- Node15&#45;&gt;Node3 -->
<g id="edge30" class="edge"><title>Node15&#45;&gt;Node3</title>
<path fill="none" stroke="midnightblue" d="M138.977,-274.901C155.113,-264.999 176.181,-252.071 189.896,-243.655"/>
<polygon fill="midnightblue" stroke="midnightblue" points="136.831,-272.111 130.139,-280.324 140.493,-278.077 136.831,-272.111"/>
</g>
<!-- Node15&#45;&gt;Node8 -->
<g id="edge31" class="edge"><title>Node15&#45;&gt;Node8</title>
<path fill="none" stroke="midnightblue" d="M120.665,-270.674C126.786,-246.625 137.283,-205.388 141.813,-187.591"/>
<polygon fill="midnightblue" stroke="midnightblue" points="117.272,-269.814 118.197,-280.368 124.056,-271.541 117.272,-269.814"/>
</g>
<!-- Node15&#45;&gt;Node13 -->
<g id="edge32" class="edge"><title>Node15&#45;&gt;Node13</title>
<path fill="none" stroke="midnightblue" d="M126.16,-271.349C135.758,-256.336 151.564,-235.443 171,-224 202.419,-205.501 303.39,-190.614 359.498,-183.515"/>
<polygon fill="midnightblue" stroke="midnightblue" points="122.979,-269.844 120.773,-280.207 128.96,-273.481 122.979,-269.844"/>
</g>
<!-- Node16&#45;&gt;Node9 -->
<g id="edge39" class="edge"><title>Node16&#45;&gt;Node9</title>
<path fill="none" stroke="midnightblue" d="M570.669,-219.59C551.81,-209.605 526.616,-196.267 510.347,-187.655"/>
<polygon fill="midnightblue" stroke="midnightblue" points="569.136,-222.738 579.612,-224.324 572.412,-216.552 569.136,-222.738"/>
</g>
<!-- Node16&#45;&gt;Node12 -->
<g id="edge40" class="edge"><title>Node16&#45;&gt;Node12</title>
<path fill="none" stroke="midnightblue" d="M582.737,-216.289C570.291,-201.638 550.424,-180.743 529,-168 497.597,-149.322 457.659,-137.638 427.812,-130.872"/>
<polygon fill="midnightblue" stroke="midnightblue" points="580.102,-218.595 589.164,-224.085 585.503,-214.142 580.102,-218.595"/>
</g>
</g>
</svg>
