<?xml version="1.0" encoding="UTF-8" standalone="no"?>
<!DOCTYPE svg PUBLIC "-//W3C//DTD SVG 1.1//EN"
 "http://www.w3.org/Graphics/SVG/1.1/DTD/svg11.dtd">
<!-- Generated by graphviz version 2.40.1 (20161225.0304)
 -->
<!-- Title: utils.hpp Pages: 1 -->
<!--zoomable 364 -->
<svg id="main" version="1.1" xmlns="http://www.w3.org/2000/svg" xmlns:xlink="http://www.w3.org/1999/xlink" xml:space="preserve" onload="init(evt)">
<style type="text/css"><![CDATA[
.edge:hover path { stroke: red; }
.edge:hover polygon { stroke: red; fill: red; }
]]></style>
<script type="text/javascript"><![CDATA[
var edges = document.getElementsByTagName('g');
if (edges && edges.length) {
  for (var i=0;i<edges.length;i++) {
    if (edges[i].id.substr(0,4)=='edge') {
      edges[i].setAttribute('class','edge');
    }
  }
}
]]></script>
        <defs>
                <circle id="rim" cx="0" cy="0" r="7"/>
                <circle id="rim2" cx="0" cy="0" r="3.5"/>
                <g id="zoomPlus">
                        <use xlink:href="#rim" fill="#404040">
                                <set attributeName="fill" to="#808080" begin="zoomplus.mouseover" end="zoomplus.mouseout"/>
                        </use>
                        <path d="M-4,0h8M0,-4v8" fill="none" stroke="white" stroke-width="1.5" pointer-events="none"/>
                </g>
                <g id="zoomMin">
                        <use xlink:href="#rim" fill="#404040">
                                <set attributeName="fill" to="#808080" begin="zoomminus.mouseover" end="zoomminus.mouseout"/>
                        </use>
                        <path d="M-4,0h8" fill="none" stroke="white" stroke-width="1.5" pointer-events="none"/>
                </g>
                <g id="dirArrow">
                        <path fill="none" stroke="white" stroke-width="1.5" d="M0,-3.0v7 M-2.5,-0.5L0,-3.0L2.5,-0.5"/>
                </g>
               <g id="resetDef">
                       <use xlink:href="#rim2" fill="#404040">
                               <set attributeName="fill" to="#808080" begin="reset.mouseover" end="reset.mouseout"/>
                       </use>
               </g>
        </defs>

<script type="text/javascript">
var viewWidth = 766;
var viewHeight = 364;
var sectionId = 'dynsection-1';
</script>
<script xlink:href="svgpan.js"/>
<svg id="graph" class="graph">
<g id="viewport">
<title>utils.hpp</title>
<!-- Node8 -->
<g id="node1" class="node">
<title>Node8</title>
<polygon fill="#bfbfbf" stroke="#000000" points="319.5,-336.5 319.5,-355.5 372.5,-355.5 372.5,-336.5 319.5,-336.5"/>
<text text-anchor="middle" x="346" y="-343.5" font-family="Helvetica,sans-Serif" font-size="10.00" fill="#000000">utils.hpp</text>
</g>
<!-- Node9 -->
<g id="node2" class="node">
<title>Node9</title>
<g id="a_node2"><a xlink:href="arg__iface_8hpp.html" target="_top" xlink:title="arg_iface.hpp">
<polygon fill="none" stroke="#000000" points="173.5,-280.5 173.5,-299.5 248.5,-299.5 248.5,-280.5 173.5,-280.5"/>
<text text-anchor="middle" x="211" y="-287.5" font-family="Helvetica,sans-Serif" font-size="10.00" fill="#000000">arg_iface.hpp</text>
</a>
</g>
</g>
<!-- Node8&#45;&gt;Node9 -->
<g id="edge1" class="edge">
<title>Node8&#45;&gt;Node9</title>
<path fill="none" stroke="#191970" d="M313.5009,-332.5189C288.9146,-322.3201 255.7634,-308.5685 233.9045,-299.5011"/>
<polygon fill="#191970" stroke="#191970" points="312.2148,-335.7745 322.7927,-336.3733 314.8969,-329.3087 312.2148,-335.7745"/>
</g>
<!-- Node10 -->
<g id="node3" class="node">
<title>Node10</title>
<g id="a_node3"><a xlink:href="arg_8hpp.html" target="_top" xlink:title="arg.hpp">
<polygon fill="none" stroke="#000000" points="180.5,-224.5 180.5,-243.5 229.5,-243.5 229.5,-224.5 180.5,-224.5"/>
<text text-anchor="middle" x="205" y="-231.5" font-family="Helvetica,sans-Serif" font-size="10.00" fill="#000000">arg.hpp</text>
</a>
</g>
</g>
<!-- Node8&#45;&gt;Node10 -->
<g id="edge22" class="edge">
<title>Node8&#45;&gt;Node10</title>
<path fill="none" stroke="#191970" d="M325.9539,-330.0768C296.1864,-306.4317 241.2109,-262.7633 216.9912,-243.5249"/>
<polygon fill="#191970" stroke="#191970" points="323.9711,-332.9717 333.9784,-336.4509 328.325,-327.4905 323.9711,-332.9717"/>
</g>
<!-- Node12 -->
<g id="node5" class="node">
<title>Node12</title>
<g id="a_node5"><a xlink:href="cmd__line_8hpp.html" target="_top" xlink:title="cmd_line.hpp">
<polygon fill="none" stroke="#000000" points="421,-56.5 421,-75.5 495,-75.5 495,-56.5 421,-56.5"/>
<text text-anchor="middle" x="458" y="-63.5" font-family="Helvetica,sans-Serif" font-size="10.00" fill="#000000">cmd_line.hpp</text>
</a>
</g>
</g>
<!-- Node8&#45;&gt;Node12 -->
<g id="edge36" class="edge">
<title>Node8&#45;&gt;Node12</title>
<path fill="none" stroke="#191970" d="M382.7671,-343.8796C483.7654,-337.0575 758,-311.4068 758,-234 758,-234 758,-234 758,-178 758,-122.4749 575.352,-85.4107 495.0868,-71.8035"/>
<polygon fill="#191970" stroke="#191970" points="382.4662,-340.3917 372.715,-344.5346 382.9215,-347.3769 382.4662,-340.3917"/>
</g>
<!-- Node14 -->
<g id="node7" class="node">
<title>Node14</title>
<g id="a_node7"><a xlink:href="arg__as__command_8hpp.html" target="_top" xlink:title="arg_as_command.hpp">
<polygon fill="none" stroke="#000000" points="53.5,-.5 53.5,-19.5 166.5,-19.5 166.5,-.5 53.5,-.5"/>
<text text-anchor="middle" x="110" y="-7.5" font-family="Helvetica,sans-Serif" font-size="10.00" fill="#000000">arg_as_command.hpp</text>
</a>
</g>
</g>
<!-- Node8&#45;&gt;Node14 -->
<g id="edge35" class="edge">
<title>Node8&#45;&gt;Node14</title>
<path fill="none" stroke="#191970" d="M308.8349,-343.5633C239.8173,-338.4933 94.9624,-325.1348 52,-300 19.7671,-281.1424 0,-271.3439 0,-234 0,-234 0,-234 0,-122 0,-71.716 57.1354,-35.7374 89.0509,-19.5625"/>
<polygon fill="#191970" stroke="#191970" points="309.0094,-347.0846 319.2334,-344.3063 309.5084,-340.1024 309.0094,-347.0846"/>
</g>
<!-- Node15 -->
<g id="node8" class="node">
<title>Node15</title>
<g id="a_node8"><a xlink:href="multi__arg_8hpp.html" target="_top" xlink:title="multi_arg.hpp">
<polygon fill="none" stroke="#000000" points="106.5,-168.5 106.5,-187.5 181.5,-187.5 181.5,-168.5 106.5,-168.5"/>
<text text-anchor="middle" x="144" y="-175.5" font-family="Helvetica,sans-Serif" font-size="10.00" fill="#000000">multi_arg.hpp</text>
</a>
</g>
</g>
<!-- Node8&#45;&gt;Node15 -->
<g id="edge33" class="edge">
<title>Node8&#45;&gt;Node15</title>
<path fill="none" stroke="#191970" d="M309.2356,-342.6415C236.4702,-335.6221 79.7325,-318.5068 64,-300 31.3544,-261.5977 97.8036,-209.1789 129.0126,-187.7399"/>
<polygon fill="#191970" stroke="#191970" points="309.0487,-346.1395 319.3354,-343.6029 309.7121,-339.171 309.0487,-346.1395"/>
</g>
<!-- Node16 -->
<g id="node9" class="node">
<title>Node16</title>
<g id="a_node9"><a xlink:href="help_8hpp.html" target="_top" xlink:title="help.hpp">
<polygon fill="none" stroke="#000000" points="469.5,-168.5 469.5,-187.5 522.5,-187.5 522.5,-168.5 469.5,-168.5"/>
<text text-anchor="middle" x="496" y="-175.5" font-family="Helvetica,sans-Serif" font-size="10.00" fill="#000000">help.hpp</text>
</a>
</g>
</g>
<!-- Node8&#45;&gt;Node16 -->
<g id="edge41" class="edge">
<title>Node8&#45;&gt;Node16</title>
<path fill="none" stroke="#191970" d="M382.2273,-334.0578C400.465,-326.5857 421.8558,-315.4129 437,-300 470.1437,-266.2682 487.6132,-210.2965 493.5898,-187.8031"/>
<polygon fill="#191970" stroke="#191970" points="380.8125,-330.8524 372.7542,-337.731 383.3432,-337.3789 380.8125,-330.8524"/>
</g>
<!-- Node17 -->
<g id="node10" class="node">
<title>Node17</title>
<g id="a_node10"><a xlink:href="group__iface_8hpp.html" target="_top" xlink:title="group_iface.hpp">
<polygon fill="none" stroke="#000000" points="286,-224.5 286,-243.5 372,-243.5 372,-224.5 286,-224.5"/>
<text text-anchor="middle" x="329" y="-231.5" font-family="Helvetica,sans-Serif" font-size="10.00" fill="#000000">group_iface.hpp</text>
</a>
</g>
</g>
<!-- Node8&#45;&gt;Node17 -->
<g id="edge34" class="edge">
<title>Node8&#45;&gt;Node17</title>
<path fill="none" stroke="#191970" d="M340.1059,-326.5745C337.8532,-318.4358 335.474,-308.8302 334,-300 330.708,-280.2782 329.5812,-256.8754 329.1971,-243.9064"/>
<polygon fill="#191970" stroke="#191970" points="336.7619,-327.6098 342.9077,-336.2399 343.4851,-325.6608 336.7619,-327.6098"/>
</g>
<!-- Node19 -->
<g id="node12" class="node">
<title>Node19</title>
<g id="a_node12"><a xlink:href="help__printer_8hpp.html" target="_top" xlink:title="help_printer.hpp">
<polygon fill="none" stroke="#000000" points="344,-112.5 344,-131.5 430,-131.5 430,-112.5 344,-112.5"/>
<text text-anchor="middle" x="387" y="-119.5" font-family="Helvetica,sans-Serif" font-size="10.00" fill="#000000">help_printer.hpp</text>
</a>
</g>
</g>
<!-- Node8&#45;&gt;Node19 -->
<g id="edge42" class="edge">
<title>Node8&#45;&gt;Node19</title>
<path fill="none" stroke="#191970" d="M382.9339,-340.1847C460.0018,-327.1573 633.2774,-292.8924 663,-244 717.1563,-154.9153 520.3398,-130.6094 430.0101,-124.2021"/>
<polygon fill="#191970" stroke="#191970" points="382.0138,-336.7895 372.7228,-341.8813 383.1612,-343.6949 382.0138,-336.7895"/>
</g>
<!-- Node20 -->
<g id="node13" class="node">
<title>Node20</title>
<g id="a_node13"><a xlink:href="command_8hpp.html" target="_top" xlink:title="command.hpp">
<polygon fill="none" stroke="#000000" points="361,-168.5 361,-187.5 439,-187.5 439,-168.5 361,-168.5"/>
<text text-anchor="middle" x="400" y="-175.5" font-family="Helvetica,sans-Serif" font-size="10.00" fill="#000000">command.hpp</text>
</a>
</g>
</g>
<!-- Node8&#45;&gt;Node20 -->
<g id="edge37" class="edge">
<title>Node8&#45;&gt;Node20</title>
<path fill="none" stroke="#191970" d="M381.9397,-332.8412C396.472,-325.537 411.7407,-314.8591 420,-300 440.8551,-262.48 416.9171,-209.1221 405.4462,-187.5734"/>
<polygon fill="#191970" stroke="#191970" points="380.1891,-329.7944 372.5773,-337.164 383.1235,-336.1497 380.1891,-329.7944"/>
</g>
<!-- Node21 -->
<g id="node14" class="node">
<title>Node21</title>
<g id="a_node14"><a xlink:href="context_8hpp.html" target="_top" xlink:title="context.hpp">
<polygon fill="none" stroke="#000000" points="343,-280.5 343,-299.5 411,-299.5 411,-280.5 343,-280.5"/>
<text text-anchor="middle" x="377" y="-287.5" font-family="Helvetica,sans-Serif" font-size="10.00" fill="#000000">context.hpp</text>
</a>
</g>
</g>
<!-- Node8&#45;&gt;Node21 -->
<g id="edge23" class="edge">
<title>Node8&#45;&gt;Node21</title>
<path fill="none" stroke="#191970" d="M356.3312,-327.3372C361.4665,-318.0605 367.4566,-307.2398 371.6621,-299.6427"/>
<polygon fill="#191970" stroke="#191970" points="353.1809,-325.8015 351.3998,-336.2455 359.3051,-329.1917 353.1809,-325.8015"/>
</g>
<!-- Node22 -->
<g id="node15" class="node">
<title>Node22</title>
<g id="a_node15"><a xlink:href="value__utils_8hpp.html" target="_top" xlink:title="value_utils.hpp">
<polygon fill="none" stroke="#000000" points="73,-280.5 73,-299.5 155,-299.5 155,-280.5 73,-280.5"/>
<text text-anchor="middle" x="114" y="-287.5" font-family="Helvetica,sans-Serif" font-size="10.00" fill="#000000">value_utils.hpp</text>
</a>
</g>
</g>
<!-- Node8&#45;&gt;Node22 -->
<g id="edge29" class="edge">
<title>Node8&#45;&gt;Node22</title>
<path fill="none" stroke="#191970" d="M309.4663,-337.1815C266.9818,-326.9266 197.114,-310.062 153.4295,-299.5175"/>
<polygon fill="#191970" stroke="#191970" points="308.8446,-340.6319 319.3867,-339.5761 310.4871,-333.8273 308.8446,-340.6319"/>
</g>
<!-- Node23 -->
<g id="node16" class="node">
<title>Node23</title>
<g id="a_node16"><a xlink:href="help__printer__iface_8hpp.html" target="_top" xlink:title="help_printer_iface.hpp">
<polygon fill="none" stroke="#000000" points="542,-224.5 542,-243.5 654,-243.5 654,-224.5 542,-224.5"/>
<text text-anchor="middle" x="598" y="-231.5" font-family="Helvetica,sans-Serif" font-size="10.00" fill="#000000">help_printer_iface.hpp</text>
</a>
</g>
</g>
<!-- Node8&#45;&gt;Node23 -->
<g id="edge38" class="edge">
<title>Node8&#45;&gt;Node23</title>
<path fill="none" stroke="#191970" d="M382.6979,-342.2436C420.9404,-337.1054 481.6409,-325.4333 528,-300 554.6517,-285.3785 578.7883,-258.1884 590.5153,-243.6909"/>
<polygon fill="#191970" stroke="#191970" points="382.0208,-338.8012 372.5377,-343.5256 382.8972,-345.7461 382.0208,-338.8012"/>
</g>
<!-- Node9&#45;&gt;Node10 -->
<g id="edge2" class="edge">
<title>Node9&#45;&gt;Node10</title>
<path fill="none" stroke="#191970" d="M208.874,-270.1575C207.9095,-261.155 206.8128,-250.9199 206.0331,-243.6427"/>
<polygon fill="#191970" stroke="#191970" points="205.4094,-270.6753 209.9549,-280.2455 212.3695,-269.9296 205.4094,-270.6753"/>
</g>
<!-- Node9&#45;&gt;Node14 -->
<g id="edge21" class="edge">
<title>Node9&#45;&gt;Node14</title>
<path fill="none" stroke="#191970" d="M172.2169,-276.7613C132.3303,-260.3918 76,-228.3592 76,-178 76,-178 76,-178 76,-122 76,-82.5779 95.5255,-38.5856 104.9832,-19.5891"/>
<polygon fill="#191970" stroke="#191970" points="171.1198,-280.0907 181.707,-280.4925 173.6811,-273.5761 171.1198,-280.0907"/>
</g>
<!-- Node9&#45;&gt;Node17 -->
<g id="edge12" class="edge">
<title>Node9&#45;&gt;Node17</title>
<path fill="none" stroke="#191970" d="M240.5547,-275.9741C261.9195,-265.8348 290.2116,-252.408 308.9798,-243.5011"/>
<polygon fill="#191970" stroke="#191970" points="238.8186,-272.9238 231.2849,-280.3733 241.8198,-279.2478 238.8186,-272.9238"/>
</g>
<!-- Node11 -->
<g id="node4" class="node">
<title>Node11</title>
<g id="a_node4"><a xlink:href="api_8hpp.html" target="_top" xlink:title="api.hpp">
<polygon fill="none" stroke="#000000" points="186,-112.5 186,-131.5 234,-131.5 234,-112.5 186,-112.5"/>
<text text-anchor="middle" x="210" y="-119.5" font-family="Helvetica,sans-Serif" font-size="10.00" fill="#000000">api.hpp</text>
</a>
</g>
</g>
<!-- Node10&#45;&gt;Node11 -->
<g id="edge3" class="edge">
<title>Node10&#45;&gt;Node11</title>
<path fill="none" stroke="#191970" d="M205.8808,-214.2702C206.9644,-189.9985 208.7602,-149.7725 209.5748,-131.5249"/>
<polygon fill="#191970" stroke="#191970" points="202.3759,-214.3048 205.4263,-224.4509 209.3689,-214.617 202.3759,-214.3048"/>
</g>
<!-- Node10&#45;&gt;Node15 -->
<g id="edge8" class="edge">
<title>Node10&#45;&gt;Node15</title>
<path fill="none" stroke="#191970" d="M186.8751,-217.3607C176.322,-207.6727 163.3888,-195.7995 154.5036,-187.6427"/>
<polygon fill="#191970" stroke="#191970" points="184.6411,-220.0611 194.3746,-224.2455 189.375,-214.9045 184.6411,-220.0611"/>
</g>
<!-- Node10&#45;&gt;Node16 -->
<g id="edge10" class="edge">
<title>Node10&#45;&gt;Node16</title>
<path fill="none" stroke="#191970" d="M239.5043,-227.6739C286.6467,-218.9838 373.8078,-202.7494 448,-188 454.9296,-186.6224 462.4114,-185.0869 469.359,-183.6407"/>
<polygon fill="#191970" stroke="#191970" points="238.7189,-224.2596 229.5178,-229.5122 239.9862,-231.1439 238.7189,-224.2596"/>
</g>
<!-- Node11&#45;&gt;Node12 -->
<g id="edge4" class="edge">
<title>Node11&#45;&gt;Node12</title>
<path fill="none" stroke="#191970" d="M244.092,-114.3018C290.4288,-103.8387 372.988,-85.1963 420.8562,-74.3873"/>
<polygon fill="#191970" stroke="#191970" points="243.2143,-110.9118 234.2308,-116.5285 244.7562,-117.7399 243.2143,-110.9118"/>
</g>
<!-- Node13 -->
<g id="node6" class="node">
<title>Node13</title>
<g id="a_node6"><a xlink:href="all_8hpp.html" target="_top" xlink:title="all.hpp">
<polygon fill="none" stroke="#000000" points="435.5,-.5 435.5,-19.5 480.5,-19.5 480.5,-.5 435.5,-.5"/>
<text text-anchor="middle" x="458" y="-7.5" font-family="Helvetica,sans-Serif" font-size="10.00" fill="#000000">all.hpp</text>
</a>
</g>
</g>
<!-- Node12&#45;&gt;Node13 -->
<g id="edge5" class="edge">
<title>Node12&#45;&gt;Node13</title>
<path fill="none" stroke="#191970" d="M458,-46.1575C458,-37.155 458,-26.9199 458,-19.6427"/>
<polygon fill="#191970" stroke="#191970" points="454.5001,-46.2455 458,-56.2455 461.5001,-46.2456 454.5001,-46.2455"/>
</g>
<!-- Node12&#45;&gt;Node14 -->
<g id="edge6" class="edge">
<title>Node12&#45;&gt;Node14</title>
<path fill="none" stroke="#191970" d="M410.6303,-58.3773C347.1641,-48.1643 234.6737,-30.0624 166.7535,-19.1327"/>
<polygon fill="#191970" stroke="#191970" points="410.3288,-61.8737 420.7579,-60.007 411.441,-54.9626 410.3288,-61.8737"/>
</g>
<!-- Node14&#45;&gt;Node11 -->
<g id="edge7" class="edge">
<title>Node14&#45;&gt;Node11</title>
<path fill="none" stroke="#191970" d="M125.2928,-27.1279C146.6197,-51.014 184.5738,-93.5227 201.4741,-112.4509"/>
<polygon fill="#191970" stroke="#191970" points="127.7753,-24.6532 118.5044,-19.5249 122.5538,-29.3154 127.7753,-24.6532"/>
</g>
<!-- Node15&#45;&gt;Node11 -->
<g id="edge9" class="edge">
<title>Node15&#45;&gt;Node11</title>
<path fill="none" stroke="#191970" d="M163.2755,-161.645C174.7538,-151.9058 188.9277,-139.8795 198.6354,-131.6427"/>
<polygon fill="#191970" stroke="#191970" points="160.857,-159.1069 155.4963,-168.2455 165.3859,-164.4445 160.857,-159.1069"/>
</g>
<!-- Node16&#45;&gt;Node12 -->
<g id="edge11" class="edge">
<title>Node16&#45;&gt;Node12</title>
<path fill="none" stroke="#191970" d="M489.5282,-158.9253C481.3185,-134.7284 467.4788,-93.9376 461.2317,-75.5249"/>
<polygon fill="#191970" stroke="#191970" points="486.2327,-160.1057 492.7601,-168.4509 492.8615,-157.8566 486.2327,-160.1057"/>
</g>
<!-- Node18 -->
<g id="node11" class="node">
<title>Node18</title>
<g id="a_node11"><a xlink:href="groups_8hpp.html" target="_top" xlink:title="groups.hpp">
<polygon fill="none" stroke="#000000" points="239.5,-168.5 239.5,-187.5 304.5,-187.5 304.5,-168.5 239.5,-168.5"/>
<text text-anchor="middle" x="272" y="-175.5" font-family="Helvetica,sans-Serif" font-size="10.00" fill="#000000">groups.hpp</text>
</a>
</g>
</g>
<!-- Node17&#45;&gt;Node18 -->
<g id="edge13" class="edge">
<title>Node17&#45;&gt;Node18</title>
<path fill="none" stroke="#191970" d="M311.7729,-217.0751C301.9659,-207.4402 290.036,-195.7196 281.8149,-187.6427"/>
<polygon fill="#191970" stroke="#191970" points="309.4851,-219.734 319.0714,-224.2455 314.3909,-214.7406 309.4851,-219.734"/>
</g>
<!-- Node17&#45;&gt;Node19 -->
<g id="edge20" class="edge">
<title>Node17&#45;&gt;Node19</title>
<path fill="none" stroke="#191970" d="M334.0309,-214.5181C337.9355,-201.0071 344.0267,-182.8456 352,-168 359.3121,-154.3855 370.4926,-140.5046 378.2411,-131.6046"/>
<polygon fill="#191970" stroke="#191970" points="330.644,-213.6347 331.3741,-224.2044 337.3947,-215.4864 330.644,-213.6347"/>
</g>
<!-- Node17&#45;&gt;Node20 -->
<g id="edge17" class="edge">
<title>Node17&#45;&gt;Node20</title>
<path fill="none" stroke="#191970" d="M349.377,-217.928C361.7871,-208.1397 377.23,-195.9595 387.7745,-187.6427"/>
<polygon fill="#191970" stroke="#191970" points="347.0514,-215.3046 341.3673,-224.2455 351.3864,-220.8007 347.0514,-215.3046"/>
</g>
<!-- Node18&#45;&gt;Node11 -->
<g id="edge14" class="edge">
<title>Node18&#45;&gt;Node11</title>
<path fill="none" stroke="#191970" d="M253.5779,-161.3607C242.8519,-151.6727 229.7066,-139.7995 220.6758,-131.6427"/>
<polygon fill="#191970" stroke="#191970" points="251.4334,-164.14 261.2004,-168.2455 256.1254,-158.9453 251.4334,-164.14"/>
</g>
<!-- Node18&#45;&gt;Node19 -->
<g id="edge15" class="edge">
<title>Node18&#45;&gt;Node19</title>
<path fill="none" stroke="#191970" d="M300.8033,-163.9741C321.625,-153.8348 349.1978,-140.408 367.4888,-131.5011"/>
<polygon fill="#191970" stroke="#191970" points="299.2276,-160.8484 291.7692,-168.3733 302.2922,-167.1419 299.2276,-160.8484"/>
</g>
<!-- Node19&#45;&gt;Node12 -->
<g id="edge16" class="edge">
<title>Node19&#45;&gt;Node12</title>
<path fill="none" stroke="#191970" d="M407.377,-105.928C419.7871,-96.1397 435.23,-83.9595 445.7745,-75.6427"/>
<polygon fill="#191970" stroke="#191970" points="405.0514,-103.3046 399.3673,-112.2455 409.3864,-108.8007 405.0514,-103.3046"/>
</g>
<!-- Node20&#45;&gt;Node12 -->
<g id="edge18" class="edge">
<title>Node20&#45;&gt;Node12</title>
<path fill="none" stroke="#191970" d="M417.4843,-160.9533C425.0138,-152.7942 433.3641,-142.5215 439,-132 448.9091,-113.5011 454.1736,-89.2429 456.4963,-75.888"/>
<polygon fill="#191970" stroke="#191970" points="414.7835,-158.7118 410.3593,-168.3388 419.8213,-163.572 414.7835,-158.7118"/>
</g>
<!-- Node20&#45;&gt;Node19 -->
<g id="edge19" class="edge">
<title>Node20&#45;&gt;Node19</title>
<path fill="none" stroke="#191970" d="M395.4625,-158.4538C393.3561,-149.3803 390.9464,-138.9998 389.2385,-131.6427"/>
<polygon fill="#191970" stroke="#191970" points="392.0649,-159.2961 397.7356,-168.2455 398.8835,-157.7131 392.0649,-159.2961"/>
</g>
<!-- Node21&#45;&gt;Node10 -->
<g id="edge24" class="edge">
<title>Node21&#45;&gt;Node10</title>
<path fill="none" stroke="#191970" d="M337.5895,-277.1687C304.3892,-266.3593 257.9201,-251.2298 229.7278,-242.0509"/>
<polygon fill="#191970" stroke="#191970" points="336.8399,-280.6054 347.4321,-280.3733 339.007,-273.9493 336.8399,-280.6054"/>
</g>
<!-- Node21&#45;&gt;Node12 -->
<g id="edge26" class="edge">
<title>Node21&#45;&gt;Node12</title>
<path fill="none" stroke="#191970" d="M421.3529,-286.0092C497.7522,-278.6835 647.5221,-262.1662 663,-244 725.7417,-170.3607 556.0989,-100.382 486.3724,-75.5305"/>
<polygon fill="#191970" stroke="#191970" points="420.707,-282.5546 411.0812,-286.9811 421.3664,-289.5235 420.707,-282.5546"/>
</g>
<!-- Node21&#45;&gt;Node15 -->
<g id="edge25" class="edge">
<title>Node21&#45;&gt;Node15</title>
<path fill="none" stroke="#191970" d="M346.232,-276.2566C326.3738,-267.2856 300.0408,-255.201 277,-244 259.4808,-235.4833 255.4159,-232.726 238,-224 212.4971,-211.2222 182.9204,-196.8159 163.8587,-187.5845"/>
<polygon fill="#191970" stroke="#191970" points="344.8624,-279.4783 355.4177,-280.3929 347.7366,-273.0956 344.8624,-279.4783"/>
</g>
<!-- Node21&#45;&gt;Node16 -->
<g id="edge28" class="edge">
<title>Node21&#45;&gt;Node16</title>
<path fill="none" stroke="#191970" d="M394.57,-273.4635C419.8359,-249.6838 465.6144,-206.5982 485.8798,-187.5249"/>
<polygon fill="#191970" stroke="#191970" points="392.0291,-271.0486 387.1459,-280.4509 396.8267,-276.146 392.0291,-271.0486"/>
</g>
<!-- Node21&#45;&gt;Node20 -->
<g id="edge27" class="edge">
<title>Node21&#45;&gt;Node20</title>
<path fill="none" stroke="#191970" d="M380.9842,-270.5987C385.9612,-246.363 394.2798,-205.8551 398.044,-187.5249"/>
<polygon fill="#191970" stroke="#191970" points="377.5442,-269.9513 378.961,-280.4509 384.4011,-271.3594 377.5442,-269.9513"/>
</g>
<!-- Node22&#45;&gt;Node10 -->
<g id="edge30" class="edge">
<title>Node22&#45;&gt;Node10</title>
<path fill="none" stroke="#191970" d="M138.7504,-274.769C154.8758,-264.8456 175.426,-252.1994 189.3307,-243.6427"/>
<polygon fill="#191970" stroke="#191970" points="136.5332,-272.0237 129.851,-280.2455 140.2019,-277.9853 136.5332,-272.0237"/>
</g>
<!-- Node22&#45;&gt;Node15 -->
<g id="edge31" class="edge">
<title>Node22&#45;&gt;Node15</title>
<path fill="none" stroke="#191970" d="M119.1968,-270.5987C125.6885,-246.363 136.5388,-205.8551 141.4487,-187.5249"/>
<polygon fill="#191970" stroke="#191970" points="115.7644,-269.8859 116.5578,-280.4509 122.526,-271.6971 115.7644,-269.8859"/>
</g>
<!-- Node22&#45;&gt;Node20 -->
<g id="edge32" class="edge">
<title>Node22&#45;&gt;Node20</title>
<path fill="none" stroke="#191970" d="M124.9926,-271.53C135.033,-256.3383 151.2925,-235.5029 171,-224 202.6948,-205.5002 304.0467,-190.1652 360.7122,-182.7677"/>
<polygon fill="#191970" stroke="#191970" points="121.9452,-269.8008 119.5694,-280.1258 127.8654,-273.5359 121.9452,-269.8008"/>
</g>
<!-- Node23&#45;&gt;Node16 -->
<g id="edge39" class="edge">
<title>Node23&#45;&gt;Node16</title>
<path fill="none" stroke="#191970" d="M571.266,-219.3225C553.0468,-209.3198 529.4402,-196.3593 513.5634,-187.6427"/>
<polygon fill="#191970" stroke="#191970" points="569.7827,-222.5009 580.233,-224.2455 573.1516,-216.3649 569.7827,-222.5009"/>
</g>
<!-- Node23&#45;&gt;Node19 -->
<g id="edge40" class="edge">
<title>Node23&#45;&gt;Node19</title>
<path fill="none" stroke="#191970" d="M584.6266,-216.5494C572.4032,-201.7033 553.0654,-180.8083 532,-168 500.5203,-148.8596 460.2922,-136.92 430.1978,-130.017"/>
<polygon fill="#191970" stroke="#191970" points="581.9868,-218.8527 590.9608,-224.4847 587.4577,-214.4858 581.9868,-218.8527"/>
</g>
</g>
</svg>
        <g id="navigator" transform="translate(0 0)" fill="#404254">
                <rect fill="#f2f5e9" fill-opacity="0.5" stroke="#606060" stroke-width=".5" x="0" y="0" width="60" height="60"/>
                <use id="zoomplus" xlink:href="#zoomPlus" x="17" y="9" onmousedown="handleZoom(evt,'in')"/>
                <use id="zoomminus" xlink:href="#zoomMin" x="42" y="9" onmousedown="handleZoom(evt,'out')"/>
                <use id="reset" xlink:href="#resetDef" x="30" y="36" onmousedown="handleReset()"/>
                <g id="arrowUp" xlink:href="#dirArrow" transform="translate(30 24)" onmousedown="handlePan(0,-1)">
                  <use xlink:href="#rim" fill="#404040">
                        <set attributeName="fill" to="#808080" begin="arrowUp.mouseover" end="arrowUp.mouseout"/>
                  </use>
                  <path fill="none" stroke="white" stroke-width="1.5" d="M0,-3.0v7 M-2.5,-0.5L0,-3.0L2.5,-0.5"/>
                </g>
                <g id="arrowRight" xlink:href="#dirArrow" transform="rotate(90) translate(36 -43)" onmousedown="handlePan(1,0)">
                  <use xlink:href="#rim" fill="#404040">
                        <set attributeName="fill" to="#808080" begin="arrowRight.mouseover" end="arrowRight.mouseout"/>
                  </use>
                  <path fill="none" stroke="white" stroke-width="1.5" d="M0,-3.0v7 M-2.5,-0.5L0,-3.0L2.5,-0.5"/>
                </g>
                <g id="arrowDown" xlink:href="#dirArrow" transform="rotate(180) translate(-30 -48)" onmousedown="handlePan(0,1)">
                  <use xlink:href="#rim" fill="#404040">
                        <set attributeName="fill" to="#808080" begin="arrowDown.mouseover" end="arrowDown.mouseout"/>
                  </use>
                  <path fill="none" stroke="white" stroke-width="1.5" d="M0,-3.0v7 M-2.5,-0.5L0,-3.0L2.5,-0.5"/>
                </g>
                <g id="arrowLeft" xlink:href="#dirArrow" transform="rotate(270) translate(-36 17)" onmousedown="handlePan(-1,0)">
                  <use xlink:href="#rim" fill="#404040">
                        <set attributeName="fill" to="#808080" begin="arrowLeft.mouseover" end="arrowLeft.mouseout"/>
                  </use>
                  <path fill="none" stroke="white" stroke-width="1.5" d="M0,-3.0v7 M-2.5,-0.5L0,-3.0L2.5,-0.5"/>
                </g>
        </g>
        <svg viewBox="0 0 15 15" width="100%" height="30px" preserveAspectRatio="xMaxYMin meet">
         <g id="arrow_out" transform="scale(0.3 0.3)">
          <a xlink:href="utils_8hpp__dep__incl_org.svg" target="_base">
           <rect id="button" ry="5" rx="5" y="6" x="6" height="38" width="38"
                fill="#f2f5e9" fill-opacity="0.5" stroke="#606060" stroke-width="1.0"/>
           <path id="arrow"
             d="M 11.500037,31.436501 C 11.940474,20.09759 22.043105,11.32322 32.158766,21.979434 L 37.068811,17.246167 C 37.068811,17.246167 37.088388,32 37.088388,32 L 22.160133,31.978069 C 22.160133,31.978069 26.997745,27.140456 26.997745,27.140456 C 18.528582,18.264221 13.291696,25.230495 11.500037,31.436501 z"
             style="fill:#404040;"/>
          </a>
         </g>
        </svg>
</svg>
