<?xml version="1.0" encoding="UTF-8" standalone="no"?>
<!DOCTYPE svg PUBLIC "-//W3C//DTD SVG 1.1//EN"
 "http://www.w3.org/Graphics/SVG/1.1/DTD/svg11.dtd">
<!-- Generated by graphviz version 2.43.0 (0)
 -->
<!-- Title: utils.hpp Pages: 1 -->
<svg width="694pt" height="476pt"
 viewBox="0.00 0.00 694.25 476.00" xmlns="http://www.w3.org/2000/svg" xmlns:xlink="http://www.w3.org/1999/xlink">
<g id="graph0" class="graph" transform="scale(1 1) rotate(0) translate(4 472)">
<title>utils.hpp</title>
<!-- Node1 -->
<g id="node1" class="node">
<title>Node1</title>
<g id="a_node1"><a xlink:title=" ">
<polygon fill="#bfbfbf" stroke="black" points="324.5,-448.5 324.5,-467.5 383.5,-467.5 383.5,-448.5 324.5,-448.5"/>
<text text-anchor="middle" x="354" y="-455.5" font-family="Helvetica,sans-Serif" font-size="10.00">utils.hpp</text>
</a>
</g>
</g>
<!-- Node2 -->
<g id="node2" class="node">
<title>Node2</title>
<g id="a_node2"><a xlink:href="arg_8hpp.html" target="_top" xlink:title=" ">
<polygon fill="none" stroke="black" points="432.5,-336.5 432.5,-355.5 485.5,-355.5 485.5,-336.5 432.5,-336.5"/>
<text text-anchor="middle" x="459" y="-343.5" font-family="Helvetica,sans-Serif" font-size="10.00">arg.hpp</text>
</a>
</g>
</g>
<!-- Node1&#45;&gt;Node2 -->
<g id="edge1" class="edge">
<title>Node1&#45;&gt;Node2</title>
<path fill="none" stroke="midnightblue" d="M393.84,-451.34C436.34,-444.39 499.51,-431.12 514,-412 529.89,-391.03 497.09,-367.79 475.63,-355.58"/>
<polygon fill="midnightblue" stroke="midnightblue" points="393.12,-447.91 383.79,-452.93 394.21,-454.82 393.12,-447.91"/>
</g>
<!-- Node4 -->
<g id="node4" class="node">
<title>Node4</title>
<g id="a_node4"><a xlink:href="cmd__line_8hpp.html" target="_top" xlink:title=" ">
<polygon fill="none" stroke="black" points="309,-56.5 309,-75.5 391,-75.5 391,-56.5 309,-56.5"/>
<text text-anchor="middle" x="350" y="-63.5" font-family="Helvetica,sans-Serif" font-size="10.00">cmd_line.hpp</text>
</a>
</g>
</g>
<!-- Node1&#45;&gt;Node4 -->
<g id="edge24" class="edge">
<title>Node1&#45;&gt;Node4</title>
<path fill="none" stroke="midnightblue" d="M326.63,-443.32C314.7,-435.82 301.89,-425.31 295,-412 268.03,-359.87 283.09,-338.16 291,-280 302.06,-198.63 335.86,-104.46 346.65,-75.75"/>
<polygon fill="midnightblue" stroke="midnightblue" points="325.07,-446.46 335.47,-448.47 328.59,-440.41 325.07,-446.46"/>
</g>
<!-- Node6 -->
<g id="node6" class="node">
<title>Node6</title>
<g id="a_node6"><a xlink:href="help__printer_8hpp.html" target="_top" xlink:title=" ">
<polygon fill="none" stroke="black" points="172.5,-0.5 172.5,-19.5 267.5,-19.5 267.5,-0.5 172.5,-0.5"/>
<text text-anchor="middle" x="220" y="-7.5" font-family="Helvetica,sans-Serif" font-size="10.00">help_printer.hpp</text>
</a>
</g>
</g>
<!-- Node1&#45;&gt;Node6 -->
<g id="edge34" class="edge">
<title>Node1&#45;&gt;Node6</title>
<path fill="none" stroke="midnightblue" d="M314.14,-456.79C259.11,-455.12 157.86,-447.01 80,-412 38.22,-393.21 0,-392.81 0,-347 0,-347 0,-347 0,-121 0,-44.56 107.56,-21.24 172.26,-14.12"/>
<polygon fill="midnightblue" stroke="midnightblue" points="314.1,-460.29 324.18,-457.04 314.27,-453.29 314.1,-460.29"/>
</g>
<!-- Node7 -->
<g id="node7" class="node">
<title>Node7</title>
<g id="a_node7"><a xlink:href="command_8hpp.html" target="_top" xlink:title=" ">
<polygon fill="none" stroke="black" points="378,-168.5 378,-187.5 464,-187.5 464,-168.5 378,-168.5"/>
<text text-anchor="middle" x="421" y="-175.5" font-family="Helvetica,sans-Serif" font-size="10.00">command.hpp</text>
</a>
</g>
</g>
<!-- Node1&#45;&gt;Node7 -->
<g id="edge25" class="edge">
<title>Node1&#45;&gt;Node7</title>
<path fill="none" stroke="midnightblue" d="M393.82,-456.93C465.61,-455.85 612.25,-449.06 644,-412 722.69,-320.16 509.83,-217.42 441.4,-187.56"/>
<polygon fill="midnightblue" stroke="midnightblue" points="393.75,-453.43 383.79,-457.05 393.83,-460.43 393.75,-453.43"/>
</g>
<!-- Node8 -->
<g id="node8" class="node">
<title>Node8</title>
<g id="a_node8"><a xlink:href="help_8hpp.html" target="_top" xlink:title=" ">
<polygon fill="none" stroke="black" points="474.5,-112.5 474.5,-131.5 533.5,-131.5 533.5,-112.5 474.5,-112.5"/>
<text text-anchor="middle" x="504" y="-119.5" font-family="Helvetica,sans-Serif" font-size="10.00">help.hpp</text>
</a>
</g>
</g>
<!-- Node1&#45;&gt;Node8 -->
<g id="edge33" class="edge">
<title>Node1&#45;&gt;Node8</title>
<path fill="none" stroke="midnightblue" d="M393.99,-456.96C468.95,-455.98 626.34,-449.41 663,-412 738.18,-335.29 608.26,-196.42 581,-168 565.24,-151.57 542.19,-139.17 525.42,-131.59"/>
<polygon fill="midnightblue" stroke="midnightblue" points="393.52,-453.46 383.55,-457.06 393.59,-460.46 393.52,-453.46"/>
</g>
<!-- Node9 -->
<g id="node9" class="node">
<title>Node9</title>
<g id="a_node9"><a xlink:href="multi__arg_8hpp.html" target="_top" xlink:title=" ">
<polygon fill="none" stroke="black" points="300,-280.5 300,-299.5 384,-299.5 384,-280.5 300,-280.5"/>
<text text-anchor="middle" x="342" y="-287.5" font-family="Helvetica,sans-Serif" font-size="10.00">multi_arg.hpp</text>
</a>
</g>
</g>
<!-- Node1&#45;&gt;Node9 -->
<g id="edge38" class="edge">
<title>Node1&#45;&gt;Node9</title>
<path fill="none" stroke="midnightblue" d="M329.88,-442.47C319.56,-434.83 308.62,-424.44 303,-412 284.75,-371.56 319.2,-320.03 334.85,-299.76"/>
<polygon fill="midnightblue" stroke="midnightblue" points="328.04,-445.46 338.27,-448.24 332.01,-439.69 328.04,-445.46"/>
</g>
<!-- Node10 -->
<g id="node10" class="node">
<title>Node10</title>
<g id="a_node10"><a xlink:href="arg__iface_8hpp.html" target="_top" xlink:title=" ">
<polygon fill="none" stroke="black" points="312.5,-392.5 312.5,-411.5 395.5,-411.5 395.5,-392.5 312.5,-392.5"/>
<text text-anchor="middle" x="354" y="-399.5" font-family="Helvetica,sans-Serif" font-size="10.00">arg_iface.hpp</text>
</a>
</g>
</g>
<!-- Node1&#45;&gt;Node10 -->
<g id="edge16" class="edge">
<title>Node1&#45;&gt;Node10</title>
<path fill="none" stroke="midnightblue" d="M354,-437.8C354,-428.91 354,-418.78 354,-411.75"/>
<polygon fill="midnightblue" stroke="midnightblue" points="350.5,-438.08 354,-448.08 357.5,-438.08 350.5,-438.08"/>
</g>
<!-- Node11 -->
<g id="node11" class="node">
<title>Node11</title>
<g id="a_node11"><a xlink:href="group__iface_8hpp.html" target="_top" xlink:title=" ">
<polygon fill="none" stroke="black" points="122.5,-336.5 122.5,-355.5 217.5,-355.5 217.5,-336.5 122.5,-336.5"/>
<text text-anchor="middle" x="170" y="-343.5" font-family="Helvetica,sans-Serif" font-size="10.00">group_iface.hpp</text>
</a>
</g>
</g>
<!-- Node1&#45;&gt;Node11 -->
<g id="edge32" class="edge">
<title>Node1&#45;&gt;Node11</title>
<path fill="none" stroke="midnightblue" d="M314.53,-447.4C289.54,-440.17 257.29,-428.61 232,-412 208.02,-396.25 186.48,-369.56 176.26,-355.79"/>
<polygon fill="midnightblue" stroke="midnightblue" points="313.84,-450.84 324.41,-450.15 315.71,-444.1 313.84,-450.84"/>
</g>
<!-- Node13 -->
<g id="node13" class="node">
<title>Node13</title>
<g id="a_node13"><a xlink:href="context_8hpp.html" target="_top" xlink:title=" ">
<polygon fill="none" stroke="black" points="561,-392.5 561,-411.5 635,-411.5 635,-392.5 561,-392.5"/>
<text text-anchor="middle" x="598" y="-399.5" font-family="Helvetica,sans-Serif" font-size="10.00">context.hpp</text>
</a>
</g>
</g>
<!-- Node1&#45;&gt;Node13 -->
<g id="edge26" class="edge">
<title>Node1&#45;&gt;Node13</title>
<path fill="none" stroke="midnightblue" d="M393.87,-448.18C440.05,-437.96 515.55,-421.25 560.64,-411.27"/>
<polygon fill="midnightblue" stroke="midnightblue" points="392.93,-444.8 383.92,-450.38 394.44,-451.63 392.93,-444.8"/>
</g>
<!-- Node14 -->
<g id="node14" class="node">
<title>Node14</title>
<g id="a_node14"><a xlink:href="help__printer__iface_8hpp.html" target="_top" xlink:title=" ">
<polygon fill="none" stroke="black" points="66.5,-168.5 66.5,-187.5 191.5,-187.5 191.5,-168.5 66.5,-168.5"/>
<text text-anchor="middle" x="129" y="-175.5" font-family="Helvetica,sans-Serif" font-size="10.00">help_printer_iface.hpp</text>
</a>
</g>
</g>
<!-- Node1&#45;&gt;Node14 -->
<g id="edge35" class="edge">
<title>Node1&#45;&gt;Node14</title>
<path fill="none" stroke="midnightblue" d="M314.22,-451.7C229.32,-439.27 38,-404.86 38,-347 38,-347 38,-347 38,-289 38,-241.66 88.66,-203.73 114.38,-187.52"/>
<polygon fill="midnightblue" stroke="midnightblue" points="313.88,-455.19 324.27,-453.14 314.87,-448.26 313.88,-455.19"/>
</g>
<!-- Node15 -->
<g id="node15" class="node">
<title>Node15</title>
<g id="a_node15"><a xlink:href="value__utils_8hpp.html" target="_top" xlink:title=" ">
<polygon fill="none" stroke="black" points="413.5,-392.5 413.5,-411.5 504.5,-411.5 504.5,-392.5 413.5,-392.5"/>
<text text-anchor="middle" x="459" y="-399.5" font-family="Helvetica,sans-Serif" font-size="10.00">value_utils.hpp</text>
</a>
</g>
</g>
<!-- Node1&#45;&gt;Node15 -->
<g id="edge39" class="edge">
<title>Node1&#45;&gt;Node15</title>
<path fill="none" stroke="midnightblue" d="M379.81,-443.73C399.25,-433.73 425.35,-420.31 442.17,-411.65"/>
<polygon fill="midnightblue" stroke="midnightblue" points="378.16,-440.64 370.87,-448.32 381.36,-446.86 378.16,-440.64"/>
</g>
<!-- Node3 -->
<g id="node3" class="node">
<title>Node3</title>
<g id="a_node3"><a xlink:href="api_8hpp.html" target="_top" xlink:title=" ">
<polygon fill="none" stroke="black" points="331.5,-224.5 331.5,-243.5 384.5,-243.5 384.5,-224.5 331.5,-224.5"/>
<text text-anchor="middle" x="358" y="-231.5" font-family="Helvetica,sans-Serif" font-size="10.00">api.hpp</text>
</a>
</g>
</g>
<!-- Node2&#45;&gt;Node3 -->
<g id="edge2" class="edge">
<title>Node2&#45;&gt;Node3</title>
<path fill="none" stroke="midnightblue" d="M444.21,-328.9C422.5,-305.25 382.74,-261.95 365.89,-243.59"/>
<polygon fill="midnightblue" stroke="midnightblue" points="441.73,-331.37 451.07,-336.37 446.89,-326.64 441.73,-331.37"/>
</g>
<!-- Node2&#45;&gt;Node8 -->
<g id="edge13" class="edge">
<title>Node2&#45;&gt;Node8</title>
<path fill="none" stroke="midnightblue" d="M462.79,-326.3C472.05,-280.64 495.52,-164.85 502.2,-131.88"/>
<polygon fill="midnightblue" stroke="midnightblue" points="459.32,-325.8 460.76,-336.3 466.18,-327.19 459.32,-325.8"/>
</g>
<!-- Node2&#45;&gt;Node9 -->
<g id="edge14" class="edge">
<title>Node2&#45;&gt;Node9</title>
<path fill="none" stroke="midnightblue" d="M431.34,-332.23C409.45,-322.13 379.5,-308.31 360.45,-299.52"/>
<polygon fill="midnightblue" stroke="midnightblue" points="429.91,-335.43 440.46,-336.44 432.85,-329.08 429.91,-335.43"/>
</g>
<!-- Node3&#45;&gt;Node4 -->
<g id="edge3" class="edge">
<title>Node3&#45;&gt;Node4</title>
<path fill="none" stroke="midnightblue" d="M357.08,-213.93C355.35,-177.92 351.65,-101.23 350.41,-75.57"/>
<polygon fill="midnightblue" stroke="midnightblue" points="353.59,-214.26 357.57,-224.08 360.58,-213.92 353.59,-214.26"/>
</g>
<!-- Node3&#45;&gt;Node7 -->
<g id="edge7" class="edge">
<title>Node3&#45;&gt;Node7</title>
<path fill="none" stroke="midnightblue" d="M370.44,-217C380.64,-207.43 394.76,-195.64 405.66,-187.75"/>
<polygon fill="midnightblue" stroke="midnightblue" points="367.91,-214.58 363.24,-224.08 372.82,-219.57 367.91,-214.58"/>
</g>
<!-- Node5 -->
<g id="node5" class="node">
<title>Node5</title>
<g id="a_node5"><a xlink:href="all_8hpp.html" target="_top" xlink:title=" ">
<polygon fill="none" stroke="black" points="325,-0.5 325,-19.5 375,-19.5 375,-0.5 325,-0.5"/>
<text text-anchor="middle" x="350" y="-7.5" font-family="Helvetica,sans-Serif" font-size="10.00">all.hpp</text>
</a>
</g>
</g>
<!-- Node4&#45;&gt;Node5 -->
<g id="edge4" class="edge">
<title>Node4&#45;&gt;Node5</title>
<path fill="none" stroke="midnightblue" d="M350,-45.8C350,-36.91 350,-26.78 350,-19.75"/>
<polygon fill="midnightblue" stroke="midnightblue" points="346.5,-46.08 350,-56.08 353.5,-46.08 346.5,-46.08"/>
</g>
<!-- Node4&#45;&gt;Node6 -->
<g id="edge5" class="edge">
<title>Node4&#45;&gt;Node6</title>
<path fill="none" stroke="midnightblue" d="M314.81,-52.77C288.87,-42.63 255,-28.47 235.42,-19.52"/>
<polygon fill="midnightblue" stroke="midnightblue" points="313.72,-56.11 324.31,-56.44 316.24,-49.58 313.72,-56.11"/>
</g>
<!-- Node6&#45;&gt;Node4 -->
<g id="edge6" class="edge">
<title>Node6&#45;&gt;Node4</title>
<path fill="none" stroke="midnightblue" d="M255.08,-23.18C280.99,-33.31 314.87,-47.48 334.49,-56.44"/>
<polygon fill="midnightblue" stroke="midnightblue" points="256.17,-19.85 245.58,-19.52 253.65,-26.38 256.17,-19.85"/>
</g>
<!-- Node7&#45;&gt;Node3 -->
<g id="edge8" class="edge">
<title>Node7&#45;&gt;Node3</title>
<path fill="none" stroke="midnightblue" d="M408.62,-194.94C398.39,-204.55 384.17,-216.42 373.24,-224.32"/>
<polygon fill="midnightblue" stroke="midnightblue" points="411.17,-197.34 415.84,-187.83 406.26,-192.35 411.17,-197.34"/>
</g>
<!-- Node7&#45;&gt;Node4 -->
<g id="edge9" class="edge">
<title>Node7&#45;&gt;Node4</title>
<path fill="none" stroke="midnightblue" d="M410,-159.96C394.61,-136.12 367.24,-93.71 355.55,-75.59"/>
<polygon fill="midnightblue" stroke="midnightblue" points="407.07,-161.86 415.43,-168.37 412.95,-158.07 407.07,-161.86"/>
</g>
<!-- Node7&#45;&gt;Node6 -->
<g id="edge12" class="edge">
<title>Node7&#45;&gt;Node6</title>
<path fill="none" stroke="midnightblue" d="M402.6,-161.8C361.37,-127.75 262.7,-46.27 230.42,-19.61"/>
<polygon fill="midnightblue" stroke="midnightblue" points="400.54,-164.64 410.48,-168.31 404.99,-159.24 400.54,-164.64"/>
</g>
<!-- Node7&#45;&gt;Node8 -->
<g id="edge10" class="edge">
<title>Node7&#45;&gt;Node8</title>
<path fill="none" stroke="midnightblue" d="M443.1,-162.62C458.26,-152.76 477.88,-139.99 490.7,-131.65"/>
<polygon fill="midnightblue" stroke="midnightblue" points="440.81,-159.94 434.34,-168.32 444.63,-165.8 440.81,-159.94"/>
</g>
<!-- Node8&#45;&gt;Node4 -->
<g id="edge11" class="edge">
<title>Node8&#45;&gt;Node4</title>
<path fill="none" stroke="midnightblue" d="M469.89,-109.04C440.91,-98.88 400.04,-84.55 374.29,-75.52"/>
<polygon fill="midnightblue" stroke="midnightblue" points="469,-112.44 479.6,-112.44 471.32,-105.83 469,-112.44"/>
</g>
<!-- Node9&#45;&gt;Node3 -->
<g id="edge15" class="edge">
<title>Node9&#45;&gt;Node3</title>
<path fill="none" stroke="midnightblue" d="M347.51,-270.4C350.19,-261.36 353.28,-250.94 355.41,-243.75"/>
<polygon fill="midnightblue" stroke="midnightblue" points="344.13,-269.5 344.64,-280.08 350.84,-271.49 344.13,-269.5"/>
</g>
<!-- Node10&#45;&gt;Node2 -->
<g id="edge17" class="edge">
<title>Node10&#45;&gt;Node2</title>
<path fill="none" stroke="midnightblue" d="M379.81,-387.73C399.25,-377.73 425.35,-364.31 442.17,-355.65"/>
<polygon fill="midnightblue" stroke="midnightblue" points="378.16,-384.64 370.87,-392.32 381.36,-390.86 378.16,-384.64"/>
</g>
<!-- Node10&#45;&gt;Node11 -->
<g id="edge18" class="edge">
<title>Node10&#45;&gt;Node11</title>
<path fill="none" stroke="midnightblue" d="M315.05,-389.57C280.34,-379.38 230.32,-364.7 199.02,-355.52"/>
<polygon fill="midnightblue" stroke="midnightblue" points="314.26,-392.99 324.84,-392.44 316.23,-386.27 314.26,-392.99"/>
</g>
<!-- Node11&#45;&gt;Node6 -->
<g id="edge23" class="edge">
<title>Node11&#45;&gt;Node6</title>
<path fill="none" stroke="midnightblue" d="M148.64,-330.47C108.74,-301.39 29.28,-233.19 57,-168 87.9,-95.32 170.76,-39.99 204.94,-19.56"/>
<polygon fill="midnightblue" stroke="midnightblue" points="146.78,-333.44 156.96,-336.38 150.83,-327.74 146.78,-333.44"/>
</g>
<!-- Node11&#45;&gt;Node7 -->
<g id="edge19" class="edge">
<title>Node11&#45;&gt;Node7</title>
<path fill="none" stroke="midnightblue" d="M186.91,-329.38C214.09,-304.81 269.88,-256.55 323,-224 347.58,-208.93 378.05,-195.71 398.43,-187.56"/>
<polygon fill="midnightblue" stroke="midnightblue" points="184.45,-326.88 179.42,-336.21 189.17,-332.06 184.45,-326.88"/>
</g>
<!-- Node12 -->
<g id="node12" class="node">
<title>Node12</title>
<g id="a_node12"><a xlink:href="groups_8hpp.html" target="_top" xlink:title=" ">
<polygon fill="none" stroke="black" points="134.5,-280.5 134.5,-299.5 205.5,-299.5 205.5,-280.5 134.5,-280.5"/>
<text text-anchor="middle" x="170" y="-287.5" font-family="Helvetica,sans-Serif" font-size="10.00">groups.hpp</text>
</a>
</g>
</g>
<!-- Node11&#45;&gt;Node12 -->
<g id="edge20" class="edge">
<title>Node11&#45;&gt;Node12</title>
<path fill="none" stroke="midnightblue" d="M170,-325.8C170,-316.91 170,-306.78 170,-299.75"/>
<polygon fill="midnightblue" stroke="midnightblue" points="166.5,-326.08 170,-336.08 173.5,-326.08 166.5,-326.08"/>
</g>
<!-- Node12&#45;&gt;Node3 -->
<g id="edge21" class="edge">
<title>Node12&#45;&gt;Node3</title>
<path fill="none" stroke="midnightblue" d="M209.64,-277.61C246.26,-267.1 299.64,-251.76 331.39,-242.64"/>
<polygon fill="midnightblue" stroke="midnightblue" points="208.43,-274.32 199.79,-280.44 210.37,-281.05 208.43,-274.32"/>
</g>
<!-- Node12&#45;&gt;Node6 -->
<g id="edge22" class="edge">
<title>Node12&#45;&gt;Node6</title>
<path fill="none" stroke="midnightblue" d="M176.46,-270.83C183.32,-250.79 194,-217.49 200,-188 213,-124.06 218.16,-45.28 219.57,-19.56"/>
<polygon fill="midnightblue" stroke="midnightblue" points="173.08,-269.89 173.09,-280.48 179.69,-272.19 173.08,-269.89"/>
</g>
<!-- Node13&#45;&gt;Node2 -->
<g id="edge27" class="edge">
<title>Node13&#45;&gt;Node2</title>
<path fill="none" stroke="midnightblue" d="M566.52,-388.77C540.41,-378.63 503.96,-364.47 480.92,-355.52"/>
<polygon fill="midnightblue" stroke="midnightblue" points="565.39,-392.08 575.98,-392.44 567.92,-385.56 565.39,-392.08"/>
</g>
<!-- Node13&#45;&gt;Node4 -->
<g id="edge28" class="edge">
<title>Node13&#45;&gt;Node4</title>
<path fill="none" stroke="midnightblue" d="M610.22,-383.91C629.8,-354.83 666,-293.17 666,-235 666,-235 666,-235 666,-177 666,-119.49 476.97,-85.14 391.31,-72.52"/>
<polygon fill="midnightblue" stroke="midnightblue" points="607.33,-381.95 604.52,-392.17 613.08,-385.93 607.33,-381.95"/>
</g>
<!-- Node13&#45;&gt;Node7 -->
<g id="edge29" class="edge">
<title>Node13&#45;&gt;Node7</title>
<path fill="none" stroke="midnightblue" d="M584.67,-384.28C549.44,-340.1 454.76,-221.34 428.08,-187.88"/>
<polygon fill="midnightblue" stroke="midnightblue" points="582.09,-386.66 591.06,-392.3 587.56,-382.3 582.09,-386.66"/>
</g>
<!-- Node13&#45;&gt;Node8 -->
<g id="edge30" class="edge">
<title>Node13&#45;&gt;Node8</title>
<path fill="none" stroke="midnightblue" d="M595.81,-382.28C593.44,-360.42 590,-323.14 590,-291 590,-291 590,-291 590,-233 590,-186.7 542.13,-148.26 517.82,-131.72"/>
<polygon fill="midnightblue" stroke="midnightblue" points="592.36,-382.91 596.95,-392.46 599.31,-382.13 592.36,-382.91"/>
</g>
<!-- Node13&#45;&gt;Node9 -->
<g id="edge31" class="edge">
<title>Node13&#45;&gt;Node9</title>
<path fill="none" stroke="midnightblue" d="M578.58,-386.43C558.53,-371.96 525.91,-349.97 495,-336 458.16,-319.35 413.58,-307.06 382.07,-299.56"/>
<polygon fill="midnightblue" stroke="midnightblue" points="576.72,-389.4 586.85,-392.49 580.85,-383.76 576.72,-389.4"/>
</g>
<!-- Node14&#45;&gt;Node6 -->
<g id="edge37" class="edge">
<title>Node14&#45;&gt;Node6</title>
<path fill="none" stroke="midnightblue" d="M138.95,-158.86C158.46,-123.25 201.11,-45.45 215.3,-19.57"/>
<polygon fill="midnightblue" stroke="midnightblue" points="135.63,-157.62 133.89,-168.08 141.77,-160.99 135.63,-157.62"/>
</g>
<!-- Node14&#45;&gt;Node8 -->
<g id="edge36" class="edge">
<title>Node14&#45;&gt;Node8</title>
<path fill="none" stroke="midnightblue" d="M198.48,-166.99C281.11,-155.1 415.27,-135.78 474.41,-127.26"/>
<polygon fill="midnightblue" stroke="midnightblue" points="197.82,-163.55 188.42,-168.44 198.82,-170.48 197.82,-163.55"/>
</g>
<!-- Node15&#45;&gt;Node2 -->
<g id="edge40" class="edge">
<title>Node15&#45;&gt;Node2</title>
<path fill="none" stroke="midnightblue" d="M459,-381.8C459,-372.91 459,-362.78 459,-355.75"/>
<polygon fill="midnightblue" stroke="midnightblue" points="455.5,-382.08 459,-392.08 462.5,-382.08 455.5,-382.08"/>
</g>
<!-- Node15&#45;&gt;Node7 -->
<g id="edge41" class="edge">
<title>Node15&#45;&gt;Node7</title>
<path fill="none" stroke="midnightblue" d="M442.43,-385.01C435.33,-377.04 427.81,-366.81 424,-356 402.44,-294.84 414.38,-214.26 419.25,-187.82"/>
<polygon fill="midnightblue" stroke="midnightblue" points="440.07,-387.61 449.5,-392.43 445.13,-382.78 440.07,-387.61"/>
</g>
<!-- Node15&#45;&gt;Node9 -->
<g id="edge42" class="edge">
<title>Node15&#45;&gt;Node9</title>
<path fill="none" stroke="midnightblue" d="M433.54,-387.37C419.79,-379.31 403.02,-368.28 390,-356 371.43,-338.48 355,-313.02 347.06,-299.76"/>
<polygon fill="midnightblue" stroke="midnightblue" points="432.07,-390.56 442.5,-392.46 435.53,-384.48 432.07,-390.56"/>
</g>
</g>
</svg>
