<?xml version="1.0" encoding="UTF-8" standalone="no"?>
<!DOCTYPE svg PUBLIC "-//W3C//DTD SVG 1.1//EN"
 "http://www.w3.org/Graphics/SVG/1.1/DTD/svg11.dtd">
<!-- Generated by graphviz version 14.1.2 (0)
 -->
<!-- Title: utils.hpp Pages: 1 -->
<svg width="645pt" height="476pt"
 viewBox="0.00 0.00 645.00 476.00" xmlns="http://www.w3.org/2000/svg" xmlns:xlink="http://www.w3.org/1999/xlink">
<g id="graph0" class="graph" transform="scale(1 1) rotate(0) translate(4 472)">
<title>utils.hpp</title>
<!-- Node1 -->
<g id="Node000001" class="node">
<title>Node1</title>
<g id="a_Node000001"><a xlink:title=" ">
<polygon fill="#999999" stroke="#666666" points="351.38,-468 298.62,-468 298.62,-448 351.38,-448 351.38,-468"/>
<text xml:space="preserve" text-anchor="middle" x="325" y="-454.5" font-family="Helvetica,sans-Serif" font-size="10.00">utils.hpp</text>
</a>
</g>
</g>
<!-- Node2 -->
<g id="Node000002" class="node">
<title>Node2</title>
<g id="a_Node000002"><a xlink:href="arg_8hpp.html" target="_top" xlink:title=" ">
<polygon fill="white" stroke="#666666" points="445.12,-356 396.88,-356 396.88,-336 445.12,-336 445.12,-356"/>
<text xml:space="preserve" text-anchor="middle" x="421" y="-342.5" font-family="Helvetica,sans-Serif" font-size="10.00">arg.hpp</text>
</a>
</g>
</g>
<!-- Node1&#45;&gt;Node2 -->
<g id="edge1_Node000001_Node000002" class="edge">
<title>Node1&#45;&gt;Node2</title>
<g id="a_edge1_Node000001_Node000002"><a xlink:title=" ">
<path fill="none" stroke="#63b8ff" d="M362.67,-457.04C397.1,-454.81 446.3,-445.46 471,-412 485.8,-391.96 457,-368.94 437.29,-356.38"/>
<polygon fill="#63b8ff" stroke="#63b8ff" points="362.95,-453.52 353.12,-457.47 363.27,-460.51 362.95,-453.52"/>
</a>
</g>
</g>
<!-- Node4 -->
<g id="Node000004" class="node">
<title>Node4</title>
<g id="a_Node000004"><a xlink:href="cmd__line_8hpp.html" target="_top" xlink:title=" ">
<polygon fill="white" stroke="#666666" points="361.88,-76 288.12,-76 288.12,-56 361.88,-56 361.88,-76"/>
<text xml:space="preserve" text-anchor="middle" x="325" y="-62.5" font-family="Helvetica,sans-Serif" font-size="10.00">cmd_line.hpp</text>
</a>
</g>
</g>
<!-- Node1&#45;&gt;Node4 -->
<g id="edge24_Node000001_Node000004" class="edge">
<title>Node1&#45;&gt;Node4</title>
<g id="a_edge24_Node000001_Node000004"><a xlink:title=" ">
<path fill="none" stroke="#63b8ff" d="M297.14,-441.44C286.65,-434 275.85,-424.07 270,-412 244.4,-359.21 260.35,-338.17 268,-280 278.63,-199.16 311.03,-105.39 321.62,-76.17"/>
<polygon fill="#63b8ff" stroke="#63b8ff" points="294.98,-444.21 305.27,-446.73 298.8,-438.34 294.98,-444.21"/>
</a>
</g>
</g>
<!-- Node6 -->
<g id="Node000006" class="node">
<title>Node6</title>
<g id="a_Node000006"><a xlink:href="help__printer_8hpp.html" target="_top" xlink:title=" ">
<polygon fill="white" stroke="#666666" points="248.5,-20 163.5,-20 163.5,0 248.5,0 248.5,-20"/>
<text xml:space="preserve" text-anchor="middle" x="206" y="-6.5" font-family="Helvetica,sans-Serif" font-size="10.00">help_printer.hpp</text>
</a>
</g>
</g>
<!-- Node1&#45;&gt;Node6 -->
<g id="edge34_Node000001_Node000006" class="edge">
<title>Node1&#45;&gt;Node6</title>
<g id="a_edge34_Node000001_Node000006"><a xlink:title=" ">
<path fill="none" stroke="#63b8ff" d="M286.82,-455.6C237.47,-452.55 149.84,-442.84 82,-412 39.66,-392.75 0,-393.51 0,-347 0,-347 0,-347 0,-121 0,-47.72 102.69,-23.08 163.07,-14.93"/>
<polygon fill="#63b8ff" stroke="#63b8ff" points="286.53,-459.09 296.7,-456.14 286.91,-452.1 286.53,-459.09"/>
</a>
</g>
</g>
<!-- Node7 -->
<g id="Node000007" class="node">
<title>Node7</title>
<g id="a_Node000007"><a xlink:href="command_8hpp.html" target="_top" xlink:title=" ">
<polygon fill="white" stroke="#666666" points="430.75,-188 353.25,-188 353.25,-168 430.75,-168 430.75,-188"/>
<text xml:space="preserve" text-anchor="middle" x="392" y="-174.5" font-family="Helvetica,sans-Serif" font-size="10.00">command.hpp</text>
</a>
</g>
</g>
<!-- Node1&#45;&gt;Node7 -->
<g id="edge25_Node000001_Node000007" class="edge">
<title>Node1&#45;&gt;Node7</title>
<g id="a_edge25_Node000001_Node000007"><a xlink:title=" ">
<path fill="none" stroke="#63b8ff" d="M363.17,-456.45C430.43,-454.6 565.73,-446.55 595,-412 669.39,-324.19 476.6,-219.95 412.14,-188.46"/>
<polygon fill="#63b8ff" stroke="#63b8ff" points="363.26,-452.95 353.34,-456.69 363.43,-459.95 363.26,-452.95"/>
</a>
</g>
</g>
<!-- Node8 -->
<g id="Node000008" class="node">
<title>Node8</title>
<g id="a_Node000008"><a xlink:href="help_8hpp.html" target="_top" xlink:title=" ">
<polygon fill="white" stroke="#666666" points="500.38,-132 447.62,-132 447.62,-112 500.38,-112 500.38,-132"/>
<text xml:space="preserve" text-anchor="middle" x="474" y="-118.5" font-family="Helvetica,sans-Serif" font-size="10.00">help.hpp</text>
</a>
</g>
</g>
<!-- Node1&#45;&gt;Node8 -->
<g id="edge33_Node000001_Node000008" class="edge">
<title>Node1&#45;&gt;Node8</title>
<g id="a_edge33_Node000001_Node000008"><a xlink:title=" ">
<path fill="none" stroke="#63b8ff" d="M363.05,-456.63C433.71,-455.08 581.09,-447.55 615,-412 682.9,-340.82 569.99,-199.17 543,-168 529.52,-152.43 509.37,-140.14 494.32,-132.36"/>
<polygon fill="#63b8ff" stroke="#63b8ff" points="363.04,-453.13 353.11,-456.81 363.17,-460.12 363.04,-453.13"/>
</a>
</g>
</g>
<!-- Node9 -->
<g id="Node000009" class="node">
<title>Node9</title>
<g id="a_Node000009"><a xlink:href="multi__arg_8hpp.html" target="_top" xlink:title=" ">
<polygon fill="white" stroke="#666666" points="351.25,-300 276.75,-300 276.75,-280 351.25,-280 351.25,-300"/>
<text xml:space="preserve" text-anchor="middle" x="314" y="-286.5" font-family="Helvetica,sans-Serif" font-size="10.00">multi_arg.hpp</text>
</a>
</g>
</g>
<!-- Node1&#45;&gt;Node9 -->
<g id="edge38_Node000001_Node000009" class="edge">
<title>Node1&#45;&gt;Node9</title>
<g id="a_edge38_Node000001_Node000009"><a xlink:title=" ">
<path fill="none" stroke="#63b8ff" d="M301.43,-440.5C292.66,-432.93 283.69,-423.16 279,-412 262.13,-371.89 292.63,-321.02 307.06,-300.36"/>
<polygon fill="#63b8ff" stroke="#63b8ff" points="299.13,-443.13 309.14,-446.6 303.47,-437.65 299.13,-443.13"/>
</a>
</g>
</g>
<!-- Node10 -->
<g id="Node000010" class="node">
<title>Node10</title>
<g id="a_Node000010"><a xlink:href="arg__iface_8hpp.html" target="_top" xlink:title=" ">
<polygon fill="white" stroke="#666666" points="362.25,-412 287.75,-412 287.75,-392 362.25,-392 362.25,-412"/>
<text xml:space="preserve" text-anchor="middle" x="325" y="-398.5" font-family="Helvetica,sans-Serif" font-size="10.00">arg_iface.hpp</text>
</a>
</g>
</g>
<!-- Node1&#45;&gt;Node10 -->
<g id="edge16_Node000001_Node000010" class="edge">
<title>Node1&#45;&gt;Node10</title>
<g id="a_edge16_Node000001_Node000010"><a xlink:title=" ">
<path fill="none" stroke="#63b8ff" d="M325,-436.13C325,-427.9 325,-418.85 325,-412.3"/>
<polygon fill="#63b8ff" stroke="#63b8ff" points="321.5,-436.08 325,-446.08 328.5,-436.08 321.5,-436.08"/>
</a>
</g>
</g>
<!-- Node11 -->
<g id="Node000011" class="node">
<title>Node11</title>
<g id="a_Node000011"><a xlink:href="group__iface_8hpp.html" target="_top" xlink:title=" ">
<polygon fill="white" stroke="#666666" points="193.5,-356 108.5,-356 108.5,-336 193.5,-336 193.5,-356"/>
<text xml:space="preserve" text-anchor="middle" x="151" y="-342.5" font-family="Helvetica,sans-Serif" font-size="10.00">group_iface.hpp</text>
</a>
</g>
</g>
<!-- Node1&#45;&gt;Node11 -->
<g id="edge32_Node000001_Node000011" class="edge">
<title>Node1&#45;&gt;Node11</title>
<g id="a_edge32_Node000001_Node000011"><a xlink:title=" ">
<path fill="none" stroke="#63b8ff" d="M287.27,-447.56C263.16,-440.35 232.04,-428.77 208,-412 185.59,-396.37 166.24,-370.11 156.92,-356.24"/>
<polygon fill="#63b8ff" stroke="#63b8ff" points="286.1,-450.86 296.68,-450.24 288.02,-444.13 286.1,-450.86"/>
</a>
</g>
</g>
<!-- Node13 -->
<g id="Node000013" class="node">
<title>Node13</title>
<g id="a_Node000013"><a xlink:href="context_8hpp.html" target="_top" xlink:title=" ">
<polygon fill="white" stroke="#666666" points="585.5,-412 518.5,-412 518.5,-392 585.5,-392 585.5,-412"/>
<text xml:space="preserve" text-anchor="middle" x="552" y="-398.5" font-family="Helvetica,sans-Serif" font-size="10.00">context.hpp</text>
</a>
</g>
</g>
<!-- Node1&#45;&gt;Node13 -->
<g id="edge26_Node000001_Node000013" class="edge">
<title>Node1&#45;&gt;Node13</title>
<g id="a_edge26_Node000001_Node000013"><a xlink:title=" ">
<path fill="none" stroke="#63b8ff" d="M362.41,-448.1C405.78,-437.78 476.62,-420.93 518.33,-411.01"/>
<polygon fill="#63b8ff" stroke="#63b8ff" points="361.88,-444.63 352.96,-450.35 363.5,-451.44 361.88,-444.63"/>
</a>
</g>
</g>
<!-- Node14 -->
<g id="Node000014" class="node">
<title>Node14</title>
<g id="a_Node000014"><a xlink:href="help__printer__iface_8hpp.html" target="_top" xlink:title=" ">
<polygon fill="white" stroke="#666666" points="177.62,-188 66.38,-188 66.38,-168 177.62,-168 177.62,-188"/>
<text xml:space="preserve" text-anchor="middle" x="122" y="-174.5" font-family="Helvetica,sans-Serif" font-size="10.00">help_printer_iface.hpp</text>
</a>
</g>
</g>
<!-- Node1&#45;&gt;Node14 -->
<g id="edge35_Node000001_Node000014" class="edge">
<title>Node1&#45;&gt;Node14</title>
<g id="a_edge35_Node000001_Node000014"><a xlink:title=" ">
<path fill="none" stroke="#63b8ff" d="M287.01,-450.67C209,-436.59 38,-399.72 38,-347 38,-347 38,-347 38,-289 38,-243.59 83.78,-205.27 107.75,-188.33"/>
<polygon fill="#63b8ff" stroke="#63b8ff" points="286.31,-454.1 296.77,-452.39 287.53,-447.21 286.31,-454.1"/>
</a>
</g>
</g>
<!-- Node15 -->
<g id="Node000015" class="node">
<title>Node15</title>
<g id="a_Node000015"><a xlink:href="value__utils_8hpp.html" target="_top" xlink:title=" ">
<polygon fill="white" stroke="#666666" points="461.62,-412 380.38,-412 380.38,-392 461.62,-392 461.62,-412"/>
<text xml:space="preserve" text-anchor="middle" x="421" y="-398.5" font-family="Helvetica,sans-Serif" font-size="10.00">value_utils.hpp</text>
</a>
</g>
</g>
<!-- Node1&#45;&gt;Node15 -->
<g id="edge39_Node000001_Node000015" class="edge">
<title>Node1&#45;&gt;Node15</title>
<g id="a_edge39_Node000001_Node000015"><a xlink:title=" ">
<path fill="none" stroke="#63b8ff" d="M351.52,-442.08C368.35,-432.62 389.6,-420.66 404.15,-412.48"/>
<polygon fill="#63b8ff" stroke="#63b8ff" points="350.04,-438.9 343.04,-446.85 353.47,-445 350.04,-438.9"/>
</a>
</g>
</g>
<!-- Node3 -->
<g id="Node000003" class="node">
<title>Node3</title>
<g id="a_Node000003"><a xlink:href="api_8hpp.html" target="_top" xlink:title=" ">
<polygon fill="white" stroke="#666666" points="361.75,-244 314.25,-244 314.25,-224 361.75,-224 361.75,-244"/>
<text xml:space="preserve" text-anchor="middle" x="338" y="-230.5" font-family="Helvetica,sans-Serif" font-size="10.00">api.hpp</text>
</a>
</g>
</g>
<!-- Node2&#45;&gt;Node3 -->
<g id="edge2_Node000002_Node000003" class="edge">
<title>Node2&#45;&gt;Node3</title>
<g id="a_edge2_Node000002_Node000003"><a xlink:title=" ">
<path fill="none" stroke="#63b8ff" d="M407.1,-326.58C389.2,-302.86 358.76,-262.52 345.06,-244.35"/>
<polygon fill="#63b8ff" stroke="#63b8ff" points="404.19,-328.54 413.01,-334.41 409.78,-324.32 404.19,-328.54"/>
</a>
</g>
</g>
<!-- Node2&#45;&gt;Node8 -->
<g id="edge13_Node000002_Node000008" class="edge">
<title>Node2&#45;&gt;Node8</title>
<g id="a_edge13_Node000002_Node000008"><a xlink:title=" ">
<path fill="none" stroke="#63b8ff" d="M425.84,-324.75C436.93,-278.28 463.87,-165.43 471.78,-132.3"/>
<polygon fill="#63b8ff" stroke="#63b8ff" points="422.48,-323.73 423.56,-334.27 429.29,-325.36 422.48,-323.73"/>
</a>
</g>
</g>
<!-- Node2&#45;&gt;Node9 -->
<g id="edge14_Node000002_Node000009" class="edge">
<title>Node2&#45;&gt;Node9</title>
<g id="a_edge14_Node000002_Node000009"><a xlink:title=" ">
<path fill="none" stroke="#63b8ff" d="M392.23,-330.48C373.36,-320.96 349.22,-308.78 332.78,-300.48"/>
<polygon fill="#63b8ff" stroke="#63b8ff" points="390.51,-333.53 401.01,-334.91 393.66,-327.28 390.51,-333.53"/>
</a>
</g>
</g>
<!-- Node3&#45;&gt;Node4 -->
<g id="edge3_Node000003_Node000004" class="edge">
<title>Node3&#45;&gt;Node4</title>
<g id="a_edge3_Node000003_Node000004"><a xlink:title=" ">
<path fill="none" stroke="#63b8ff" d="M336.39,-212.5C333.56,-176.27 327.77,-102.31 325.73,-76.3"/>
<polygon fill="#63b8ff" stroke="#63b8ff" points="332.88,-212.39 337.15,-222.09 339.85,-211.85 332.88,-212.39"/>
</a>
</g>
</g>
<!-- Node3&#45;&gt;Node7 -->
<g id="edge7_Node000003_Node000007" class="edge">
<title>Node3&#45;&gt;Node7</title>
<g id="a_edge7_Node000003_Node000007"><a xlink:title=" ">
<path fill="none" stroke="#63b8ff" d="M349.59,-215C357.83,-206.06 368.65,-195.62 377.46,-188.3"/>
<polygon fill="#63b8ff" stroke="#63b8ff" points="347.04,-212.6 343.13,-222.45 352.33,-217.19 347.04,-212.6"/>
</a>
</g>
</g>
<!-- Node5 -->
<g id="Node000005" class="node">
<title>Node5</title>
<g id="a_Node000005"><a xlink:href="all_8hpp.html" target="_top" xlink:title=" ">
<polygon fill="white" stroke="#666666" points="347.25,-20 302.75,-20 302.75,0 347.25,0 347.25,-20"/>
<text xml:space="preserve" text-anchor="middle" x="325" y="-6.5" font-family="Helvetica,sans-Serif" font-size="10.00">all.hpp</text>
</a>
</g>
</g>
<!-- Node4&#45;&gt;Node5 -->
<g id="edge4_Node000004_Node000005" class="edge">
<title>Node4&#45;&gt;Node5</title>
<g id="a_edge4_Node000004_Node000005"><a xlink:title=" ">
<path fill="none" stroke="#63b8ff" d="M325,-44.13C325,-35.9 325,-26.85 325,-20.3"/>
<polygon fill="#63b8ff" stroke="#63b8ff" points="321.5,-44.08 325,-54.08 328.5,-44.08 321.5,-44.08"/>
</a>
</g>
</g>
<!-- Node4&#45;&gt;Node6 -->
<g id="edge5_Node000004_Node000006" class="edge">
<title>Node4&#45;&gt;Node6</title>
<g id="a_edge5_Node000004_Node000006"><a xlink:title=" ">
<path fill="none" stroke="#63b8ff" d="M288.48,-51.14C266.07,-41.52 238.63,-28.97 221.61,-20.48"/>
<polygon fill="#63b8ff" stroke="#63b8ff" points="287.04,-54.33 297.61,-55 289.76,-47.89 287.04,-54.33"/>
</a>
</g>
</g>
<!-- Node6&#45;&gt;Node4 -->
<g id="edge6_Node000006_Node000004" class="edge">
<title>Node6&#45;&gt;Node4</title>
<g id="a_edge6_Node000006_Node000004"><a xlink:title=" ">
<path fill="none" stroke="#63b8ff" d="M242.72,-24.94C265.16,-34.58 292.58,-47.13 309.54,-55.59"/>
<polygon fill="#63b8ff" stroke="#63b8ff" points="244.14,-21.74 233.57,-21.07 241.41,-28.19 244.14,-21.74"/>
</a>
</g>
</g>
<!-- Node7&#45;&gt;Node3 -->
<g id="edge8_Node000007_Node000003" class="edge">
<title>Node7&#45;&gt;Node3</title>
<g id="a_edge8_Node000007_Node000003"><a xlink:title=" ">
<path fill="none" stroke="#63b8ff" d="M380.53,-196.87C372.32,-205.8 361.5,-216.24 352.67,-223.59"/>
<polygon fill="#63b8ff" stroke="#63b8ff" points="383.06,-199.29 386.96,-189.44 377.76,-194.71 383.06,-199.29"/>
</a>
</g>
</g>
<!-- Node7&#45;&gt;Node4 -->
<g id="edge9_Node000007_Node000004" class="edge">
<title>Node7&#45;&gt;Node4</title>
<g id="a_edge9_Node000007_Node000004"><a xlink:title=" ">
<path fill="none" stroke="#63b8ff" d="M380.39,-157.95C365.9,-134.14 341.66,-94.36 330.7,-76.35"/>
<polygon fill="#63b8ff" stroke="#63b8ff" points="377.31,-159.61 385.5,-166.33 383.29,-155.97 377.31,-159.61"/>
</a>
</g>
</g>
<!-- Node7&#45;&gt;Node6 -->
<g id="edge12_Node000007_Node000006" class="edge">
<title>Node7&#45;&gt;Node6</title>
<g id="a_edge12_Node000007_Node000006"><a xlink:title=" ">
<path fill="none" stroke="#63b8ff" d="M373.13,-160.15C334.29,-125.5 246.58,-47.22 216.42,-20.3"/>
<polygon fill="#63b8ff" stroke="#63b8ff" points="370.55,-162.54 380.34,-166.59 375.21,-157.32 370.55,-162.54"/>
</a>
</g>
</g>
<!-- Node7&#45;&gt;Node8 -->
<g id="edge10_Node000007_Node000008" class="edge">
<title>Node7&#45;&gt;Node8</title>
<g id="a_edge10_Node000007_Node000008"><a xlink:title=" ">
<path fill="none" stroke="#63b8ff" d="M415.89,-161.27C430.05,-151.94 447.53,-140.43 459.61,-132.48"/>
<polygon fill="#63b8ff" stroke="#63b8ff" points="413.97,-158.34 407.55,-166.76 417.82,-164.18 413.97,-158.34"/>
</a>
</g>
</g>
<!-- Node8&#45;&gt;Node4 -->
<g id="edge11_Node000008_Node000004" class="edge">
<title>Node8&#45;&gt;Node4</title>
<g id="a_edge11_Node000008_Node000004"><a xlink:title=" ">
<path fill="none" stroke="#63b8ff" d="M437.55,-107.79C410.81,-98.1 375.11,-85.16 351.16,-76.48"/>
<polygon fill="#63b8ff" stroke="#63b8ff" points="436.03,-110.96 446.62,-111.08 438.41,-104.38 436.03,-110.96"/>
</a>
</g>
</g>
<!-- Node9&#45;&gt;Node3 -->
<g id="edge15_Node000009_Node000003" class="edge">
<title>Node9&#45;&gt;Node3</title>
<g id="a_edge15_Node000009_Node000003"><a xlink:title=" ">
<path fill="none" stroke="#63b8ff" d="M322.76,-269.29C326.55,-260.75 330.82,-251.16 333.87,-244.3"/>
<polygon fill="#63b8ff" stroke="#63b8ff" points="319.66,-267.65 318.8,-278.21 326.05,-270.49 319.66,-267.65"/>
</a>
</g>
</g>
<!-- Node10&#45;&gt;Node2 -->
<g id="edge17_Node000010_Node000002" class="edge">
<title>Node10&#45;&gt;Node2</title>
<g id="a_edge17_Node000010_Node000002"><a xlink:title=" ">
<path fill="none" stroke="#63b8ff" d="M351.52,-386.08C368.35,-376.62 389.6,-364.66 404.15,-356.48"/>
<polygon fill="#63b8ff" stroke="#63b8ff" points="350.04,-382.9 343.04,-390.85 353.47,-389 350.04,-382.9"/>
</a>
</g>
</g>
<!-- Node10&#45;&gt;Node11 -->
<g id="edge18_Node000010_Node000011" class="edge">
<title>Node10&#45;&gt;Node11</title>
<g id="a_edge18_Node000010_Node000011"><a xlink:title=" ">
<path fill="none" stroke="#63b8ff" d="M284.09,-388.31C252.69,-378.56 210.02,-365.32 181.54,-356.48"/>
<polygon fill="#63b8ff" stroke="#63b8ff" points="282.66,-391.52 293.25,-391.15 284.73,-384.84 282.66,-391.52"/>
</a>
</g>
</g>
<!-- Node11&#45;&gt;Node6 -->
<g id="edge23_Node000011_Node000006" class="edge">
<title>Node11&#45;&gt;Node6</title>
<g id="a_edge23_Node000011_Node000006"><a xlink:title=" ">
<path fill="none" stroke="#63b8ff" d="M131.1,-328.47C96.78,-297.83 32.38,-229.7 57,-168 84.85,-98.2 160.13,-41.64 191.73,-20.23"/>
<polygon fill="#63b8ff" stroke="#63b8ff" points="128.51,-330.85 138.35,-334.76 133.09,-325.57 128.51,-330.85"/>
</a>
</g>
</g>
<!-- Node11&#45;&gt;Node7 -->
<g id="edge19_Node000011_Node000007" class="edge">
<title>Node11&#45;&gt;Node7</title>
<g id="a_edge19_Node000011_Node000007"><a xlink:title=" ">
<path fill="none" stroke="#63b8ff" d="M169.77,-328.33C197.94,-303.78 253.36,-257.22 305,-224 326.59,-210.11 352.98,-196.95 371,-188.49"/>
<polygon fill="#63b8ff" stroke="#63b8ff" points="167.65,-325.54 162.45,-334.77 172.27,-330.8 167.65,-325.54"/>
</a>
</g>
</g>
<!-- Node12 -->
<g id="Node000012" class="node">
<title>Node12</title>
<g id="a_Node000012"><a xlink:href="groups_8hpp.html" target="_top" xlink:title=" ">
<polygon fill="white" stroke="#666666" points="183,-300 119,-300 119,-280 183,-280 183,-300"/>
<text xml:space="preserve" text-anchor="middle" x="151" y="-286.5" font-family="Helvetica,sans-Serif" font-size="10.00">groups.hpp</text>
</a>
</g>
</g>
<!-- Node11&#45;&gt;Node12 -->
<g id="edge20_Node000011_Node000012" class="edge">
<title>Node11&#45;&gt;Node12</title>
<g id="a_edge20_Node000011_Node000012"><a xlink:title=" ">
<path fill="none" stroke="#63b8ff" d="M151,-324.13C151,-315.9 151,-306.85 151,-300.3"/>
<polygon fill="#63b8ff" stroke="#63b8ff" points="147.5,-324.08 151,-334.08 154.5,-324.08 147.5,-324.08"/>
</a>
</g>
</g>
<!-- Node12&#45;&gt;Node3 -->
<g id="edge21_Node000012_Node000003" class="edge">
<title>Node12&#45;&gt;Node3</title>
<g id="a_edge21_Node000012_Node000003"><a xlink:title=" ">
<path fill="none" stroke="#63b8ff" d="M194.17,-276.53C231.4,-265.78 283.79,-250.65 313.99,-241.93"/>
<polygon fill="#63b8ff" stroke="#63b8ff" points="193.24,-273.16 184.6,-279.3 195.18,-279.89 193.24,-273.16"/>
</a>
</g>
</g>
<!-- Node12&#45;&gt;Node6 -->
<g id="edge22_Node000012_Node000006" class="edge">
<title>Node12&#45;&gt;Node6</title>
<g id="a_edge22_Node000012_Node000006"><a xlink:title=" ">
<path fill="none" stroke="#63b8ff" d="M159.63,-269.2C168,-249.13 180.37,-216.99 187,-188 201.39,-125.03 204.95,-46.9 205.77,-20.34"/>
<polygon fill="#63b8ff" stroke="#63b8ff" points="156.43,-267.79 155.73,-278.36 162.87,-270.53 156.43,-267.79"/>
</a>
</g>
</g>
<!-- Node13&#45;&gt;Node2 -->
<g id="edge27_Node000013_Node000002" class="edge">
<title>Node13&#45;&gt;Node2</title>
<g id="a_edge27_Node000013_Node000002"><a xlink:title=" ">
<path fill="none" stroke="#63b8ff" d="M518.7,-387.27C495.33,-377.64 464.68,-365.01 444,-356.48"/>
<polygon fill="#63b8ff" stroke="#63b8ff" points="517.2,-390.44 527.78,-391.02 519.87,-383.97 517.2,-390.44"/>
</a>
</g>
</g>
<!-- Node13&#45;&gt;Node4 -->
<g id="edge28_Node000013_Node000004" class="edge">
<title>Node13&#45;&gt;Node4</title>
<g id="a_edge28_Node000013_Node000004"><a xlink:title=" ">
<path fill="none" stroke="#63b8ff" d="M566.29,-382.44C587.54,-352.93 625,-292.73 625,-235 625,-235 625,-235 625,-177 625,-121.6 442.35,-85.68 362.09,-72.57"/>
<polygon fill="#63b8ff" stroke="#63b8ff" points="563.59,-380.21 560.44,-390.33 569.21,-384.38 563.59,-380.21"/>
</a>
</g>
</g>
<!-- Node13&#45;&gt;Node7 -->
<g id="edge29_Node000013_Node000007" class="edge">
<title>Node13&#45;&gt;Node7</title>
<g id="a_edge29_Node000013_Node000007"><a xlink:title=" ">
<path fill="none" stroke="#63b8ff" d="M538.67,-382.5C506,-337.18 422.89,-221.86 398.7,-188.3"/>
<polygon fill="#63b8ff" stroke="#63b8ff" points="535.76,-384.45 544.44,-390.52 541.44,-380.36 535.76,-384.45"/>
</a>
</g>
</g>
<!-- Node13&#45;&gt;Node8 -->
<g id="edge30_Node000013_Node000008" class="edge">
<title>Node13&#45;&gt;Node8</title>
<g id="a_edge30_Node000013_Node000008"><a xlink:title=" ">
<path fill="none" stroke="#63b8ff" d="M551.1,-380.33C550.22,-358.22 549,-322.14 549,-291 549,-291 549,-291 549,-233 549,-189.08 507.69,-149.76 486.38,-132.41"/>
<polygon fill="#63b8ff" stroke="#63b8ff" points="547.59,-380.23 551.51,-390.07 554.59,-379.94 547.59,-380.23"/>
</a>
</g>
</g>
<!-- Node13&#45;&gt;Node9 -->
<g id="edge31_Node000013_Node000009" class="edge">
<title>Node13&#45;&gt;Node9</title>
<g id="a_edge31_Node000013_Node000009"><a xlink:title=" ">
<path fill="none" stroke="#63b8ff" d="M531.27,-384.79C512.09,-370.42 482.36,-349.64 454,-336 420.75,-320.01 380.44,-307.73 351.62,-300.07"/>
<polygon fill="#63b8ff" stroke="#63b8ff" points="528.99,-387.46 539.07,-390.74 533.24,-381.89 528.99,-387.46"/>
</a>
</g>
</g>
<!-- Node14&#45;&gt;Node6 -->
<g id="edge37_Node000014_Node000006" class="edge">
<title>Node14&#45;&gt;Node6</title>
<g id="a_edge37_Node000014_Node000006"><a xlink:title=" ">
<path fill="none" stroke="#63b8ff" d="M131.9,-157.44C150.05,-121.57 188.02,-46.53 201.3,-20.3"/>
<polygon fill="#63b8ff" stroke="#63b8ff" points="128.83,-155.75 127.44,-166.25 135.08,-158.91 128.83,-155.75"/>
</a>
</g>
</g>
<!-- Node14&#45;&gt;Node8 -->
<g id="edge36_Node000014_Node000008" class="edge">
<title>Node14&#45;&gt;Node8</title>
<g id="a_edge36_Node000014_Node000008"><a xlink:title=" ">
<path fill="none" stroke="#63b8ff" d="M188.97,-166.73C267.29,-154.71 393.12,-135.41 447.53,-127.06"/>
<polygon fill="#63b8ff" stroke="#63b8ff" points="188.63,-163.24 179.27,-168.21 189.69,-170.16 188.63,-163.24"/>
</a>
</g>
</g>
<!-- Node15&#45;&gt;Node2 -->
<g id="edge40_Node000015_Node000002" class="edge">
<title>Node15&#45;&gt;Node2</title>
<g id="a_edge40_Node000015_Node000002"><a xlink:title=" ">
<path fill="none" stroke="#63b8ff" d="M421,-380.13C421,-371.9 421,-362.85 421,-356.3"/>
<polygon fill="#63b8ff" stroke="#63b8ff" points="417.5,-380.08 421,-390.08 424.5,-380.08 417.5,-380.08"/>
</a>
</g>
</g>
<!-- Node15&#45;&gt;Node7 -->
<g id="edge41_Node000015_Node000007" class="edge">
<title>Node15&#45;&gt;Node7</title>
<g id="a_edge41_Node000015_Node000007"><a xlink:title=" ">
<path fill="none" stroke="#63b8ff" d="M403.94,-383.25C397.64,-375.52 391.26,-365.95 388,-356 367.92,-294.66 383.47,-214.85 389.71,-188.15"/>
<polygon fill="#63b8ff" stroke="#63b8ff" points="401.12,-385.35 410.35,-390.55 406.38,-380.73 401.12,-385.35"/>
</a>
</g>
</g>
<!-- Node15&#45;&gt;Node9 -->
<g id="edge42_Node000015_Node000009" class="edge">
<title>Node15&#45;&gt;Node9</title>
<g id="a_edge42_Node000015_Node000009"><a xlink:title=" ">
<path fill="none" stroke="#63b8ff" d="M393.65,-385.89C380.97,-378.04 366.25,-367.65 355,-356 338.32,-338.72 324.83,-313.6 318.29,-300.22"/>
<polygon fill="#63b8ff" stroke="#63b8ff" points="391.6,-388.74 401.98,-390.84 395.17,-382.72 391.6,-388.74"/>
</a>
</g>
</g>
</g>
</svg>
