<?xml version="1.0" encoding="UTF-8" standalone="no"?>
<!DOCTYPE svg PUBLIC "-//W3C//DTD SVG 1.1//EN"
 "http://www.w3.org/Graphics/SVG/1.1/DTD/svg11.dtd">
<!-- Generated by graphviz version 2.40.1 (20161225.0304)
 -->
<!-- Title: utils.hpp Pages: 1 -->
<svg width="281pt" height="140pt"
 viewBox="0.00 0.00 280.50 140.00" xmlns="http://www.w3.org/2000/svg" xmlns:xlink="http://www.w3.org/1999/xlink">
<g id="graph0" class="graph" transform="scale(1 1) rotate(0) translate(4 136)">
<title>utils.hpp</title>
<!-- Node0 -->
<g id="node1" class="node">
<title>Node0</title>
<polygon fill="#bfbfbf" stroke="#000000" points="100,-112.5 100,-131.5 153,-131.5 153,-112.5 100,-112.5"/>
<text text-anchor="middle" x="126.5" y="-119.5" font-family="Helvetica,sans-Serif" font-size="10.00" fill="#000000">utils.hpp</text>
</g>
<!-- Node1 -->
<g id="node2" class="node">
<title>Node1</title>
<polygon fill="none" stroke="#bfbfbf" points="0,-56.5 0,-75.5 41,-75.5 41,-56.5 0,-56.5"/>
<text text-anchor="middle" x="20.5" y="-63.5" font-family="Helvetica,sans-Serif" font-size="10.00" fill="#000000">regex</text>
</g>
<!-- Node0&#45;&gt;Node1 -->
<g id="edge1" class="edge">
<title>Node0&#45;&gt;Node1</title>
<path fill="none" stroke="#191970" d="M108.0362,-112.2455C91.3926,-103.4527 66.7007,-90.4079 47.7808,-80.4125"/>
<polygon fill="#191970" stroke="#191970" points="49.2291,-77.2193 38.7522,-75.6427 45.9592,-83.4086 49.2291,-77.2193"/>
</g>
<!-- Node2 -->
<g id="node3" class="node">
<title>Node2</title>
<g id="a_node3"><a xlink:href="types_8hpp.html" target="_top" xlink:title="types.hpp">
<polygon fill="none" stroke="#000000" points="59,-56.5 59,-75.5 118,-75.5 118,-56.5 59,-56.5"/>
<text text-anchor="middle" x="88.5" y="-63.5" font-family="Helvetica,sans-Serif" font-size="10.00" fill="#000000">types.hpp</text>
</a>
</g>
</g>
<!-- Node0&#45;&gt;Node2 -->
<g id="edge2" class="edge">
<title>Node0&#45;&gt;Node2</title>
<path fill="none" stroke="#191970" d="M119.8809,-112.2455C114.5954,-104.4564 107.0459,-93.3308 100.6762,-83.9439"/>
<polygon fill="#191970" stroke="#191970" points="103.5545,-81.9522 95.0432,-75.6427 97.7621,-85.8827 103.5545,-81.9522"/>
</g>
<!-- Node6 -->
<g id="node7" class="node">
<title>Node6</title>
<polygon fill="none" stroke="#bfbfbf" points="136.5,-56.5 136.5,-75.5 192.5,-75.5 192.5,-56.5 136.5,-56.5"/>
<text text-anchor="middle" x="164.5" y="-63.5" font-family="Helvetica,sans-Serif" font-size="10.00" fill="#000000">algorithm</text>
</g>
<!-- Node0&#45;&gt;Node6 -->
<g id="edge6" class="edge">
<title>Node0&#45;&gt;Node6</title>
<path fill="none" stroke="#191970" d="M133.1191,-112.2455C138.4046,-104.4564 145.9541,-93.3308 152.3238,-83.9439"/>
<polygon fill="#191970" stroke="#191970" points="155.2379,-85.8827 157.9568,-75.6427 149.4455,-81.9522 155.2379,-85.8827"/>
</g>
<!-- Node7 -->
<g id="node8" class="node">
<title>Node7</title>
<polygon fill="none" stroke="#bfbfbf" points="210.5,-56.5 210.5,-75.5 272.5,-75.5 272.5,-56.5 210.5,-56.5"/>
<text text-anchor="middle" x="241.5" y="-63.5" font-family="Helvetica,sans-Serif" font-size="10.00" fill="#000000">type_traits</text>
</g>
<!-- Node0&#45;&gt;Node7 -->
<g id="edge7" class="edge">
<title>Node0&#45;&gt;Node7</title>
<path fill="none" stroke="#191970" d="M146.2692,-112.3733C164.6469,-103.4241 192.2312,-89.9917 212.9893,-79.8835"/>
<polygon fill="#191970" stroke="#191970" points="214.5304,-83.026 221.9888,-75.5011 211.4657,-76.7325 214.5304,-83.026"/>
</g>
<!-- Node3 -->
<g id="node4" class="node">
<title>Node3</title>
<polygon fill="none" stroke="#bfbfbf" points="2,-.5 2,-19.5 43,-19.5 43,-.5 2,-.5"/>
<text text-anchor="middle" x="22.5" y="-7.5" font-family="Helvetica,sans-Serif" font-size="10.00" fill="#000000">string</text>
</g>
<!-- Node2&#45;&gt;Node3 -->
<g id="edge3" class="edge">
<title>Node2&#45;&gt;Node3</title>
<path fill="none" stroke="#191970" d="M77.0037,-56.2455C67.2558,-47.9746 53.0741,-35.9416 41.6202,-26.2232"/>
<polygon fill="#191970" stroke="#191970" points="43.7541,-23.4437 33.8646,-19.6427 39.2253,-28.7813 43.7541,-23.4437"/>
</g>
<!-- Node4 -->
<g id="node5" class="node">
<title>Node4</title>
<polygon fill="none" stroke="#bfbfbf" points="61.5,-.5 61.5,-19.5 115.5,-19.5 115.5,-.5 61.5,-.5"/>
<text text-anchor="middle" x="88.5" y="-7.5" font-family="Helvetica,sans-Serif" font-size="10.00" fill="#000000">iostream</text>
</g>
<!-- Node2&#45;&gt;Node4 -->
<g id="edge4" class="edge">
<title>Node2&#45;&gt;Node4</title>
<path fill="none" stroke="#191970" d="M88.5,-56.2455C88.5,-48.9382 88.5,-38.6944 88.5,-29.7046"/>
<polygon fill="#191970" stroke="#191970" points="92.0001,-29.6426 88.5,-19.6427 85.0001,-29.6427 92.0001,-29.6426"/>
</g>
<!-- Node5 -->
<g id="node6" class="node">
<title>Node5</title>
<polygon fill="none" stroke="#bfbfbf" points="133.5,-.5 133.5,-19.5 177.5,-19.5 177.5,-.5 133.5,-.5"/>
<text text-anchor="middle" x="155.5" y="-7.5" font-family="Helvetica,sans-Serif" font-size="10.00" fill="#000000">vector</text>
</g>
<!-- Node2&#45;&gt;Node5 -->
<g id="edge5" class="edge">
<title>Node2&#45;&gt;Node5</title>
<path fill="none" stroke="#191970" d="M100.1705,-56.2455C110.0661,-47.9746 124.4627,-35.9416 136.0901,-26.2232"/>
<polygon fill="#191970" stroke="#191970" points="138.535,-28.7413 143.9632,-19.6427 134.0458,-23.3703 138.535,-28.7413"/>
</g>
</g>
</svg>
