<?xml version="1.0" encoding="UTF-8" standalone="no"?>
<!DOCTYPE svg PUBLIC "-//W3C//DTD SVG 1.1//EN"
 "http://www.w3.org/Graphics/SVG/1.1/DTD/svg11.dtd">
<!-- Generated by graphviz version 2.38.0 (20140413.2041)
 -->
<!-- Title: utils.hpp Pages: 1 -->
<svg width="278pt" height="140pt"
 viewBox="0.00 0.00 277.50 140.00" xmlns="http://www.w3.org/2000/svg" xmlns:xlink="http://www.w3.org/1999/xlink">
<g id="graph0" class="graph" transform="scale(1 1) rotate(0) translate(4 136)">
<title>utils.hpp</title>
<!-- Node1 -->
<g id="node1" class="node"><title>Node1</title>
<polygon fill="#bfbfbf" stroke="black" points="98,-112.5 98,-131.5 150,-131.5 150,-112.5 98,-112.5"/>
<text text-anchor="middle" x="124" y="-119.5" font-family="FreeSans" font-size="10.00">utils.hpp</text>
</g>
<!-- Node2 -->
<g id="node2" class="node"><title>Node2</title>
<polygon fill="none" stroke="#bfbfbf" points="0,-56.5 0,-75.5 40,-75.5 40,-56.5 0,-56.5"/>
<text text-anchor="middle" x="20" y="-63.5" font-family="FreeSans" font-size="10.00">regex</text>
</g>
<!-- Node1&#45;&gt;Node2 -->
<g id="edge1" class="edge"><title>Node1&#45;&gt;Node2</title>
<path fill="none" stroke="midnightblue" d="M107.291,-112.324C90.6881,-103.703 64.9979,-90.3643 45.7795,-80.3855"/>
<polygon fill="midnightblue" stroke="midnightblue" points="47.1558,-77.1565 36.6679,-75.6545 43.93,-83.3689 47.1558,-77.1565"/>
</g>
<!-- Node3 -->
<g id="node3" class="node"><title>Node3</title>
<g id="a_node3"><a xlink:href="types_8hpp.html" target="_top" xlink:title="types.hpp">
<polygon fill="none" stroke="black" points="58.5,-56.5 58.5,-75.5 115.5,-75.5 115.5,-56.5 58.5,-56.5"/>
<text text-anchor="middle" x="87" y="-63.5" font-family="FreeSans" font-size="10.00">types.hpp</text>
</a>
</g>
</g>
<!-- Node1&#45;&gt;Node3 -->
<g id="edge2" class="edge"><title>Node1&#45;&gt;Node3</title>
<path fill="none" stroke="midnightblue" d="M117.89,-112.083C112.718,-104.534 105.154,-93.4948 98.8056,-84.2298"/>
<polygon fill="midnightblue" stroke="midnightblue" points="101.536,-82.0221 92.9961,-75.7511 95.7612,-85.9787 101.536,-82.0221"/>
</g>
<!-- Node7 -->
<g id="node7" class="node"><title>Node7</title>
<polygon fill="none" stroke="#bfbfbf" points="134,-56.5 134,-75.5 190,-75.5 190,-56.5 134,-56.5"/>
<text text-anchor="middle" x="162" y="-63.5" font-family="FreeSans" font-size="10.00">algorithm</text>
</g>
<!-- Node1&#45;&gt;Node7 -->
<g id="edge6" class="edge"><title>Node1&#45;&gt;Node7</title>
<path fill="none" stroke="midnightblue" d="M130.275,-112.083C135.642,-104.455 143.518,-93.2645 150.079,-83.9408"/>
<polygon fill="midnightblue" stroke="midnightblue" points="152.949,-85.9434 155.842,-75.7511 147.225,-81.9149 152.949,-85.9434"/>
</g>
<!-- Node8 -->
<g id="node8" class="node"><title>Node8</title>
<polygon fill="none" stroke="#bfbfbf" points="208.5,-56.5 208.5,-75.5 269.5,-75.5 269.5,-56.5 208.5,-56.5"/>
<text text-anchor="middle" x="239" y="-63.5" font-family="FreeSans" font-size="10.00">type_traits</text>
</g>
<!-- Node1&#45;&gt;Node8 -->
<g id="edge7" class="edge"><title>Node1&#45;&gt;Node8</title>
<path fill="none" stroke="midnightblue" d="M142.222,-112.444C160.896,-103.675 190.156,-89.9355 211.617,-79.8579"/>
<polygon fill="midnightblue" stroke="midnightblue" points="213.299,-82.935 220.863,-75.5164 210.324,-76.5988 213.299,-82.935"/>
</g>
<!-- Node4 -->
<g id="node4" class="node"><title>Node4</title>
<polygon fill="none" stroke="#bfbfbf" points="2,-0.5 2,-19.5 42,-19.5 42,-0.5 2,-0.5"/>
<text text-anchor="middle" x="22" y="-7.5" font-family="FreeSans" font-size="10.00">string</text>
</g>
<!-- Node3&#45;&gt;Node4 -->
<g id="edge3" class="edge"><title>Node3&#45;&gt;Node4</title>
<path fill="none" stroke="midnightblue" d="M76.5566,-56.324C66.8538,-48.2631 52.1847,-36.0765 40.5003,-26.3695"/>
<polygon fill="midnightblue" stroke="midnightblue" points="42.5619,-23.532 32.6334,-19.8339 38.0887,-28.9163 42.5619,-23.532"/>
</g>
<!-- Node5 -->
<g id="node5" class="node"><title>Node5</title>
<polygon fill="none" stroke="#bfbfbf" points="60.5,-0.5 60.5,-19.5 113.5,-19.5 113.5,-0.5 60.5,-0.5"/>
<text text-anchor="middle" x="87" y="-7.5" font-family="FreeSans" font-size="10.00">iostream</text>
</g>
<!-- Node3&#45;&gt;Node5 -->
<g id="edge4" class="edge"><title>Node3&#45;&gt;Node5</title>
<path fill="none" stroke="midnightblue" d="M87,-56.083C87,-49.0059 87,-38.8611 87,-29.9865"/>
<polygon fill="midnightblue" stroke="midnightblue" points="90.5001,-29.751 87,-19.7511 83.5001,-29.7511 90.5001,-29.751"/>
</g>
<!-- Node6 -->
<g id="node6" class="node"><title>Node6</title>
<polygon fill="none" stroke="#bfbfbf" points="131.5,-0.5 131.5,-19.5 174.5,-19.5 174.5,-0.5 131.5,-0.5"/>
<text text-anchor="middle" x="153" y="-7.5" font-family="FreeSans" font-size="10.00">vector</text>
</g>
<!-- Node3&#45;&gt;Node6 -->
<g id="edge5" class="edge"><title>Node3&#45;&gt;Node6</title>
<path fill="none" stroke="midnightblue" d="M97.604,-56.324C107.456,-48.2631 122.351,-36.0765 134.215,-26.3695"/>
<polygon fill="midnightblue" stroke="midnightblue" points="136.68,-28.8752 142.203,-19.8339 132.247,-23.4575 136.68,-28.8752"/>
</g>
</g>
</svg>
