<?xml version="1.0" encoding="UTF-8" standalone="no"?>
<!DOCTYPE svg PUBLIC "-//W3C//DTD SVG 1.1//EN"
 "http://www.w3.org/Graphics/SVG/1.1/DTD/svg11.dtd">
<!-- Generated by graphviz version 14.1.2 (0)
 -->
<!-- Title: value_utils.hpp Pages: 1 -->
<svg width="297pt" height="196pt"
 viewBox="0.00 0.00 297.00 196.00" xmlns="http://www.w3.org/2000/svg" xmlns:xlink="http://www.w3.org/1999/xlink">

<svg id="main" version="1.1" xmlns="http://www.w3.org/2000/svg" xmlns:xlink="http://www.w3.org/1999/xlink" xml:space="preserve">

<style type="text/css"><![CDATA[
.node, .edge {opacity: 0.7;}
.node.selected, .edge.selected {opacity: 1;}
.edge:hover path { stroke: red; }
.edge:hover polygon { stroke: red; fill: red; }
]]></style>
<script type="application/ecmascript" xlink:href="svg.min.js"/>
<svg id="graph" class="graph">
<g id="graph0" class="graph" transform="scale(1 1) rotate(0) translate(4 192)">
<title>value_utils.hpp</title>
<!-- Node1 -->
<g id="Node000001" class="node">
<title>Node1</title>
<g id="a_Node000001"><a xlink:title=" ">
<polygon fill="#999999" stroke="#666666" points="198,-188 116.75,-188 116.75,-168 198,-168 198,-188"/>
<text xml:space="preserve" text-anchor="middle" x="157.38" y="-174.5" font-family="Helvetica,sans-Serif" font-size="10.00">value_utils.hpp</text>
</a>
</g>
</g>
<!-- Node2 -->
<g id="Node000002" class="node">
<title>Node2</title>
<g id="a_Node000002"><a xlink:href="exceptions_8hpp.html" target="_top" xlink:title=" ">
<polygon fill="white" stroke="#666666" points="102.38,-132 20.38,-132 20.38,-112 102.38,-112 102.38,-132"/>
<text xml:space="preserve" text-anchor="middle" x="61.38" y="-118.5" font-family="Helvetica,sans-Serif" font-size="10.00">exceptions.hpp</text>
</a>
</g>
</g>
<!-- Node1&#45;&gt;Node2 -->
<g id="edge1_Node000001_Node000002" class="edge">
<title>Node1&#45;&gt;Node2</title>
<g id="a_edge1_Node000001_Node000002"><a xlink:title=" ">
<path fill="none" stroke="#63b8ff" d="M140.65,-167.59C126.15,-159.44 104.9,-147.48 88.05,-138"/>
<polygon fill="#63b8ff" stroke="#63b8ff" points="89.98,-135.07 79.55,-133.22 86.55,-141.17 89.98,-135.07"/>
</a>
</g>
</g>
<!-- Node4 -->
<g id="Node000004" class="node">
<title>Node4</title>
<g id="a_Node000004"><a xlink:href="types_8hpp.html" target="_top" xlink:title=" ">
<polygon fill="white" stroke="#666666" points="135.75,-76 77,-76 77,-56 135.75,-56 135.75,-76"/>
<text xml:space="preserve" text-anchor="middle" x="106.38" y="-62.5" font-family="Helvetica,sans-Serif" font-size="10.00">types.hpp</text>
</a>
</g>
</g>
<!-- Node1&#45;&gt;Node4 -->
<g id="edge7_Node000001_Node000004" class="edge">
<title>Node1&#45;&gt;Node4</title>
<g id="a_edge7_Node000001_Node000004"><a xlink:title=" ">
<path fill="none" stroke="#63b8ff" d="M153.03,-167.62C144.75,-149.76 126.56,-110.53 115.49,-86.67"/>
<polygon fill="#63b8ff" stroke="#63b8ff" points="118.73,-85.33 111.35,-77.73 112.38,-88.27 118.73,-85.33"/>
</a>
</g>
</g>
<!-- Node8 -->
<g id="Node000008" class="node">
<title>Node8</title>
<g id="a_Node000008"><a xlink:href="utils_8hpp.html" target="_top" xlink:title=" ">
<polygon fill="white" stroke="#666666" points="210.75,-132 158,-132 158,-112 210.75,-112 210.75,-132"/>
<text xml:space="preserve" text-anchor="middle" x="184.38" y="-118.5" font-family="Helvetica,sans-Serif" font-size="10.00">utils.hpp</text>
</a>
</g>
</g>
<!-- Node1&#45;&gt;Node8 -->
<g id="edge8_Node000001_Node000008" class="edge">
<title>Node1&#45;&gt;Node8</title>
<g id="a_edge8_Node000001_Node000008"><a xlink:title=" ">
<path fill="none" stroke="#63b8ff" d="M162.08,-167.59C165.52,-160.7 170.32,-151.1 174.59,-142.57"/>
<polygon fill="#63b8ff" stroke="#63b8ff" points="177.71,-144.16 179.05,-133.65 171.45,-141.03 177.71,-144.16"/>
</a>
</g>
</g>
<!-- Node9 -->
<g id="Node000009" class="node">
<title>Node9</title>
<g id="a_Node000009"><a xlink:title=" ">
<polygon fill="#e0e0e0" stroke="#999999" points="289.25,-76 233.5,-76 233.5,-56 289.25,-56 289.25,-76"/>
<text xml:space="preserve" text-anchor="middle" x="261.38" y="-62.5" font-family="Helvetica,sans-Serif" font-size="10.00">algorithm</text>
</a>
</g>
</g>
<!-- Node1&#45;&gt;Node9 -->
<g id="edge12_Node000001_Node000009" class="edge">
<title>Node1&#45;&gt;Node9</title>
<g id="a_edge12_Node000001_Node000009"><a xlink:title=" ">
<path fill="none" stroke="#63b8ff" d="M173.67,-167.53C186.98,-159.27 205.75,-146.39 219.38,-132 232.5,-118.15 243.99,-99.66 251.62,-85.94"/>
<polygon fill="#63b8ff" stroke="#63b8ff" points="254.51,-87.94 256.15,-77.48 248.34,-84.64 254.51,-87.94"/>
</a>
</g>
</g>
<!-- Node3 -->
<g id="Node000003" class="node">
<title>Node3</title>
<g id="a_Node000003"><a xlink:title=" ">
<polygon fill="#e0e0e0" stroke="#999999" points="58.75,-76 0,-76 0,-56 58.75,-56 58.75,-76"/>
<text xml:space="preserve" text-anchor="middle" x="29.38" y="-62.5" font-family="Helvetica,sans-Serif" font-size="10.00">stdexcept</text>
</a>
</g>
</g>
<!-- Node2&#45;&gt;Node3 -->
<g id="edge2_Node000002_Node000003" class="edge">
<title>Node2&#45;&gt;Node3</title>
<g id="a_edge2_Node000002_Node000003"><a xlink:title=" ">
<path fill="none" stroke="#63b8ff" d="M55.8,-111.59C51.63,-104.55 45.77,-94.67 40.63,-86"/>
<polygon fill="#63b8ff" stroke="#63b8ff" points="43.77,-84.42 35.66,-77.6 37.74,-87.99 43.77,-84.42"/>
</a>
</g>
</g>
<!-- Node2&#45;&gt;Node4 -->
<g id="edge3_Node000002_Node000004" class="edge">
<title>Node2&#45;&gt;Node4</title>
<g id="a_edge3_Node000002_Node000004"><a xlink:title=" ">
<path fill="none" stroke="#63b8ff" d="M69.21,-111.59C75.34,-104.24 84.05,-93.8 91.49,-84.87"/>
<polygon fill="#63b8ff" stroke="#63b8ff" points="93.94,-87.38 97.66,-77.46 88.57,-82.9 93.94,-87.38"/>
</a>
</g>
</g>
<!-- Node5 -->
<g id="Node000005" class="node">
<title>Node5</title>
<g id="a_Node000005"><a xlink:title=" ">
<polygon fill="#e0e0e0" stroke="#999999" points="68.12,-20 14.62,-20 14.62,0 68.12,0 68.12,-20"/>
<text xml:space="preserve" text-anchor="middle" x="41.38" y="-6.5" font-family="Helvetica,sans-Serif" font-size="10.00">iostream</text>
</a>
</g>
</g>
<!-- Node4&#45;&gt;Node5 -->
<g id="edge4_Node000004_Node000005" class="edge">
<title>Node4&#45;&gt;Node5</title>
<g id="a_edge4_Node000004_Node000005"><a xlink:title=" ">
<path fill="none" stroke="#63b8ff" d="M95.05,-55.59C85.73,-47.85 72.3,-36.69 61.2,-27.47"/>
<polygon fill="#63b8ff" stroke="#63b8ff" points="63.66,-24.96 53.73,-21.27 59.19,-30.35 63.66,-24.96"/>
</a>
</g>
</g>
<!-- Node6 -->
<g id="Node000006" class="node">
<title>Node6</title>
<g id="a_Node000006"><a xlink:title=" ">
<polygon fill="#e0e0e0" stroke="#999999" points="126.38,-20 86.38,-20 86.38,0 126.38,0 126.38,-20"/>
<text xml:space="preserve" text-anchor="middle" x="106.38" y="-6.5" font-family="Helvetica,sans-Serif" font-size="10.00">string</text>
</a>
</g>
</g>
<!-- Node4&#45;&gt;Node6 -->
<g id="edge5_Node000004_Node000006" class="edge">
<title>Node4&#45;&gt;Node6</title>
<g id="a_edge5_Node000004_Node000006"><a xlink:title=" ">
<path fill="none" stroke="#63b8ff" d="M106.38,-55.59C106.38,-49.01 106.38,-39.96 106.38,-31.73"/>
<polygon fill="#63b8ff" stroke="#63b8ff" points="109.88,-31.81 106.38,-21.81 102.88,-31.81 109.88,-31.81"/>
</a>
</g>
</g>
<!-- Node7 -->
<g id="Node000007" class="node">
<title>Node7</title>
<g id="a_Node000007"><a xlink:title=" ">
<polygon fill="#e0e0e0" stroke="#999999" points="187.88,-20 144.88,-20 144.88,0 187.88,0 187.88,-20"/>
<text xml:space="preserve" text-anchor="middle" x="166.38" y="-6.5" font-family="Helvetica,sans-Serif" font-size="10.00">vector</text>
</a>
</g>
</g>
<!-- Node4&#45;&gt;Node7 -->
<g id="edge6_Node000004_Node000007" class="edge">
<title>Node4&#45;&gt;Node7</title>
<g id="a_edge6_Node000004_Node000007"><a xlink:title=" ">
<path fill="none" stroke="#63b8ff" d="M116.83,-55.59C125.34,-47.93 137.59,-36.91 147.77,-27.75"/>
<polygon fill="#63b8ff" stroke="#63b8ff" points="149.83,-30.6 154.92,-21.31 145.14,-25.4 149.83,-30.6"/>
</a>
</g>
</g>
<!-- Node8&#45;&gt;Node4 -->
<g id="edge9_Node000008_Node000004" class="edge">
<title>Node8&#45;&gt;Node4</title>
<g id="a_edge9_Node000008_Node000004"><a xlink:title=" ">
<path fill="none" stroke="#63b8ff" d="M170.79,-111.59C159.34,-103.67 142.71,-92.16 129.22,-82.82"/>
<polygon fill="#63b8ff" stroke="#63b8ff" points="131.53,-80.16 121.31,-77.34 127.54,-85.91 131.53,-80.16"/>
</a>
</g>
</g>
<!-- Node8&#45;&gt;Node9 -->
<g id="edge10_Node000008_Node000009" class="edge">
<title>Node8&#45;&gt;Node9</title>
<g id="a_edge10_Node000008_Node000009"><a xlink:title=" ">
<path fill="none" stroke="#63b8ff" d="M197.79,-111.59C208.98,-103.74 225.19,-92.38 238.43,-83.09"/>
<polygon fill="#63b8ff" stroke="#63b8ff" points="240.44,-85.96 246.62,-77.35 236.42,-80.22 240.44,-85.96"/>
</a>
</g>
</g>
<!-- Node10 -->
<g id="Node000010" class="node">
<title>Node10</title>
<g id="a_Node000010"><a xlink:title=" ">
<polygon fill="#e0e0e0" stroke="#999999" points="215.25,-76 153.5,-76 153.5,-56 215.25,-56 215.25,-76"/>
<text xml:space="preserve" text-anchor="middle" x="184.38" y="-62.5" font-family="Helvetica,sans-Serif" font-size="10.00">type_traits</text>
</a>
</g>
</g>
<!-- Node8&#45;&gt;Node10 -->
<g id="edge11_Node000008_Node000010" class="edge">
<title>Node8&#45;&gt;Node10</title>
<g id="a_edge11_Node000008_Node000010"><a xlink:title=" ">
<path fill="none" stroke="#63b8ff" d="M184.38,-111.59C184.38,-105.01 184.38,-95.96 184.38,-87.73"/>
<polygon fill="#63b8ff" stroke="#63b8ff" points="187.88,-87.81 184.38,-77.81 180.88,-87.81 187.88,-87.81"/>
</a>
</g>
</g>
</g>
</svg>
</svg>

<style type='text/css'>
<![CDATA[
[data-mouse-over-selected='false'] { opacity: 0.7; }
[data-mouse-over-selected='true']  { opacity: 1.0; }
]]>
</style>
<script type="application/ecmascript"><![CDATA[
document.addEventListener('DOMContentLoaded', (event) => {
  highlightEdges();
  highlightAdjacentNodes();
});
]]></script>
</svg>
