<?xml version="1.0" encoding="UTF-8" standalone="no"?>
<!DOCTYPE svg PUBLIC "-//W3C//DTD SVG 1.1//EN"
 "http://www.w3.org/Graphics/SVG/1.1/DTD/svg11.dtd">
<!-- Generated by graphviz version 2.43.0 (0)
 -->
<!-- Title: value_utils.hpp Pages: 1 -->
<svg width="220pt" height="420pt"
 viewBox="0.00 0.00 220.00 420.00" xmlns="http://www.w3.org/2000/svg" xmlns:xlink="http://www.w3.org/1999/xlink">
<g id="graph0" class="graph" transform="scale(1 1) rotate(0) translate(4 416)">
<title>value_utils.hpp</title>
<!-- Node1 -->
<g id="node1" class="node">
<title>Node1</title>
<g id="a_node1"><a xlink:title=" ">
<polygon fill="#bfbfbf" stroke="black" points="43,-392.5 43,-411.5 134,-411.5 134,-392.5 43,-392.5"/>
<text text-anchor="middle" x="88.5" y="-399.5" font-family="Helvetica,sans-Serif" font-size="10.00">value_utils.hpp</text>
</a>
</g>
</g>
<!-- Node2 -->
<g id="node2" class="node">
<title>Node2</title>
<g id="a_node2"><a xlink:href="arg_8hpp.html" target="_top" xlink:title=" ">
<polygon fill="none" stroke="black" points="0,-336.5 0,-355.5 53,-355.5 53,-336.5 0,-336.5"/>
<text text-anchor="middle" x="26.5" y="-343.5" font-family="Helvetica,sans-Serif" font-size="10.00">arg.hpp</text>
</a>
</g>
</g>
<!-- Node1&#45;&gt;Node2 -->
<g id="edge1" class="edge">
<title>Node1&#45;&gt;Node2</title>
<path fill="none" stroke="midnightblue" d="M70.75,-385.54C59.69,-375.91 45.87,-363.87 36.64,-355.83"/>
<polygon fill="midnightblue" stroke="midnightblue" points="68.7,-388.4 78.54,-392.32 73.3,-383.12 68.7,-388.4"/>
</g>
<!-- Node7 -->
<g id="node7" class="node">
<title>Node7</title>
<g id="a_node7"><a xlink:href="command_8hpp.html" target="_top" xlink:title=" ">
<polygon fill="none" stroke="black" points="69.5,-168.5 69.5,-187.5 155.5,-187.5 155.5,-168.5 69.5,-168.5"/>
<text text-anchor="middle" x="112.5" y="-175.5" font-family="Helvetica,sans-Serif" font-size="10.00">command.hpp</text>
</a>
</g>
</g>
<!-- Node1&#45;&gt;Node7 -->
<g id="edge16" class="edge">
<title>Node1&#45;&gt;Node7</title>
<path fill="none" stroke="midnightblue" d="M100.21,-384.04C112.78,-364.72 131.95,-331.69 139.5,-300 149.52,-257.91 127.16,-207.32 117.09,-187.53"/>
<polygon fill="midnightblue" stroke="midnightblue" points="97.29,-382.1 94.65,-392.36 103.12,-385.99 97.29,-382.1"/>
</g>
<!-- Node9 -->
<g id="node9" class="node">
<title>Node9</title>
<g id="a_node9"><a xlink:href="multi__arg_8hpp.html" target="_top" xlink:title=" ">
<polygon fill="none" stroke="black" points="46.5,-280.5 46.5,-299.5 130.5,-299.5 130.5,-280.5 46.5,-280.5"/>
<text text-anchor="middle" x="88.5" y="-287.5" font-family="Helvetica,sans-Serif" font-size="10.00">multi_arg.hpp</text>
</a>
</g>
</g>
<!-- Node1&#45;&gt;Node9 -->
<g id="edge17" class="edge">
<title>Node1&#45;&gt;Node9</title>
<path fill="none" stroke="midnightblue" d="M88.5,-382.35C88.5,-358.25 88.5,-317.31 88.5,-299.59"/>
<polygon fill="midnightblue" stroke="midnightblue" points="85,-382.37 88.5,-392.37 92,-382.37 85,-382.37"/>
</g>
<!-- Node3 -->
<g id="node3" class="node">
<title>Node3</title>
<g id="a_node3"><a xlink:href="api_8hpp.html" target="_top" xlink:title=" ">
<polygon fill="none" stroke="black" points="62,-224.5 62,-243.5 115,-243.5 115,-224.5 62,-224.5"/>
<text text-anchor="middle" x="88.5" y="-231.5" font-family="Helvetica,sans-Serif" font-size="10.00">api.hpp</text>
</a>
</g>
</g>
<!-- Node2&#45;&gt;Node3 -->
<g id="edge2" class="edge">
<title>Node2&#45;&gt;Node3</title>
<path fill="none" stroke="midnightblue" d="M26.4,-326.31C27.07,-312.7 29.59,-294.22 37.5,-280 46.11,-264.52 62.14,-251.73 73.94,-243.8"/>
<polygon fill="midnightblue" stroke="midnightblue" points="22.9,-326.34 26.19,-336.41 29.9,-326.48 22.9,-326.34"/>
</g>
<!-- Node8 -->
<g id="node8" class="node">
<title>Node8</title>
<g id="a_node8"><a xlink:href="help_8hpp.html" target="_top" xlink:title=" ">
<polygon fill="none" stroke="black" points="47,-112.5 47,-131.5 106,-131.5 106,-112.5 47,-112.5"/>
<text text-anchor="middle" x="76.5" y="-119.5" font-family="Helvetica,sans-Serif" font-size="10.00">help.hpp</text>
</a>
</g>
</g>
<!-- Node2&#45;&gt;Node8 -->
<g id="edge13" class="edge">
<title>Node2&#45;&gt;Node8</title>
<path fill="none" stroke="midnightblue" d="M25.04,-326.03C24.39,-313 24.22,-295.37 26.5,-280 35.19,-221.43 62.52,-154.93 72.66,-131.62"/>
<polygon fill="midnightblue" stroke="midnightblue" points="21.55,-326.35 25.68,-336.11 28.54,-325.91 21.55,-326.35"/>
</g>
<!-- Node2&#45;&gt;Node9 -->
<g id="edge14" class="edge">
<title>Node2&#45;&gt;Node9</title>
<path fill="none" stroke="midnightblue" d="M44.25,-329.54C55.31,-319.91 69.13,-307.87 78.36,-299.83"/>
<polygon fill="midnightblue" stroke="midnightblue" points="41.7,-327.12 36.46,-336.32 46.3,-332.4 41.7,-327.12"/>
</g>
<!-- Node4 -->
<g id="node4" class="node">
<title>Node4</title>
<g id="a_node4"><a xlink:href="cmd__line_8hpp.html" target="_top" xlink:title=" ">
<polygon fill="none" stroke="black" points="43.5,-56.5 43.5,-75.5 125.5,-75.5 125.5,-56.5 43.5,-56.5"/>
<text text-anchor="middle" x="84.5" y="-63.5" font-family="Helvetica,sans-Serif" font-size="10.00">cmd_line.hpp</text>
</a>
</g>
</g>
<!-- Node3&#45;&gt;Node4 -->
<g id="edge3" class="edge">
<title>Node3&#45;&gt;Node4</title>
<path fill="none" stroke="midnightblue" d="M76.33,-216.14C63.35,-196.91 43.81,-163.96 37.5,-132 35.78,-123.28 34.01,-120.17 37.5,-112 44.15,-96.42 59.15,-83.65 70.42,-75.74"/>
<polygon fill="midnightblue" stroke="midnightblue" points="73.5,-218.21 82.09,-224.42 79.25,-214.21 73.5,-218.21"/>
</g>
<!-- Node3&#45;&gt;Node7 -->
<g id="edge7" class="edge">
<title>Node3&#45;&gt;Node7</title>
<path fill="none" stroke="midnightblue" d="M90.32,-214.4C93.67,-205.36 98.74,-194.94 103.48,-187.75"/>
<polygon fill="midnightblue" stroke="midnightblue" points="86.93,-213.49 87.3,-224.08 93.61,-215.58 86.93,-213.49"/>
</g>
<!-- Node5 -->
<g id="node5" class="node">
<title>Node5</title>
<g id="a_node5"><a xlink:href="all_8hpp.html" target="_top" xlink:title=" ">
<polygon fill="none" stroke="black" points="48.5,-0.5 48.5,-19.5 98.5,-19.5 98.5,-0.5 48.5,-0.5"/>
<text text-anchor="middle" x="73.5" y="-7.5" font-family="Helvetica,sans-Serif" font-size="10.00">all.hpp</text>
</a>
</g>
</g>
<!-- Node4&#45;&gt;Node5 -->
<g id="edge4" class="edge">
<title>Node4&#45;&gt;Node5</title>
<path fill="none" stroke="midnightblue" d="M80.65,-46.1C78.82,-37.14 76.73,-26.86 75.28,-19.75"/>
<polygon fill="midnightblue" stroke="midnightblue" points="77.26,-46.98 82.68,-56.08 84.12,-45.59 77.26,-46.98"/>
</g>
<!-- Node6 -->
<g id="node6" class="node">
<title>Node6</title>
<g id="a_node6"><a xlink:href="help__printer_8hpp.html" target="_top" xlink:title=" ">
<polygon fill="none" stroke="black" points="117,-0.5 117,-19.5 212,-19.5 212,-0.5 117,-0.5"/>
<text text-anchor="middle" x="164.5" y="-7.5" font-family="Helvetica,sans-Serif" font-size="10.00">help_printer.hpp</text>
</a>
</g>
</g>
<!-- Node4&#45;&gt;Node6 -->
<g id="edge5" class="edge">
<title>Node4&#45;&gt;Node6</title>
<path fill="none" stroke="midnightblue" d="M100.52,-50.06C113.91,-40.28 132.67,-27.83 146.57,-19.65"/>
<polygon fill="midnightblue" stroke="midnightblue" points="98.1,-47.5 92.24,-56.32 102.33,-53.08 98.1,-47.5"/>
</g>
<!-- Node6&#45;&gt;Node4 -->
<g id="edge6" class="edge">
<title>Node6&#45;&gt;Node4</title>
<path fill="none" stroke="midnightblue" d="M148.28,-26.09C134.92,-35.84 116.29,-48.18 102.47,-56.32"/>
<polygon fill="midnightblue" stroke="midnightblue" points="150.69,-28.65 156.56,-19.83 146.47,-23.07 150.69,-28.65"/>
</g>
<!-- Node7&#45;&gt;Node3 -->
<g id="edge8" class="edge">
<title>Node7&#45;&gt;Node3</title>
<path fill="none" stroke="midnightblue" d="M110.76,-197.4C107.43,-206.41 102.37,-216.85 97.63,-224.08"/>
<polygon fill="midnightblue" stroke="midnightblue" points="114.13,-198.34 113.74,-187.75 107.44,-196.27 114.13,-198.34"/>
</g>
<!-- Node7&#45;&gt;Node4 -->
<g id="edge9" class="edge">
<title>Node7&#45;&gt;Node4</title>
<path fill="none" stroke="midnightblue" d="M116.72,-158.14C118.88,-144.92 120.17,-127.02 115.5,-112 111.1,-97.87 100.55,-84.25 92.98,-75.77"/>
<polygon fill="midnightblue" stroke="midnightblue" points="113.21,-157.86 114.73,-168.35 120.08,-159.2 113.21,-157.86"/>
</g>
<!-- Node7&#45;&gt;Node6 -->
<g id="edge12" class="edge">
<title>Node7&#45;&gt;Node6</title>
<path fill="none" stroke="midnightblue" d="M120.13,-159.19C123.52,-150.98 127.42,-141.08 130.5,-132 144.6,-90.47 157.52,-39.56 162.42,-19.6"/>
<polygon fill="midnightblue" stroke="midnightblue" points="116.88,-157.9 116.23,-168.48 123.33,-160.61 116.88,-157.9"/>
</g>
<!-- Node7&#45;&gt;Node8 -->
<g id="edge10" class="edge">
<title>Node7&#45;&gt;Node8</title>
<path fill="none" stroke="midnightblue" d="M100.88,-159.57C94.68,-150.27 87.33,-139.25 82.33,-131.75"/>
<polygon fill="midnightblue" stroke="midnightblue" points="98.1,-161.7 106.56,-168.08 103.92,-157.82 98.1,-161.7"/>
</g>
<!-- Node8&#45;&gt;Node4 -->
<g id="edge11" class="edge">
<title>Node8&#45;&gt;Node4</title>
<path fill="none" stroke="midnightblue" d="M79.3,-102.1C80.63,-93.14 82.15,-82.86 83.2,-75.75"/>
<polygon fill="midnightblue" stroke="midnightblue" points="75.82,-101.68 77.82,-112.08 82.75,-102.7 75.82,-101.68"/>
</g>
<!-- Node9&#45;&gt;Node3 -->
<g id="edge15" class="edge">
<title>Node9&#45;&gt;Node3</title>
<path fill="none" stroke="midnightblue" d="M88.5,-269.8C88.5,-260.91 88.5,-250.78 88.5,-243.75"/>
<polygon fill="midnightblue" stroke="midnightblue" points="85,-270.08 88.5,-280.08 92,-270.08 85,-270.08"/>
</g>
</g>
</svg>
