<?xml version="1.0" encoding="UTF-8" standalone="no"?>
<!DOCTYPE svg PUBLIC "-//W3C//DTD SVG 1.1//EN"
 "http://www.w3.org/Graphics/SVG/1.1/DTD/svg11.dtd">
<!-- Generated by graphviz version 2.40.1 (20161225.0304)
 -->
<!-- Title: value_utils.hpp Pages: 1 -->
<svg width="319pt" height="308pt"
 viewBox="0.00 0.00 318.50 308.00" xmlns="http://www.w3.org/2000/svg" xmlns:xlink="http://www.w3.org/1999/xlink">
<g id="graph0" class="graph" transform="scale(1 1) rotate(0) translate(4 304)">
<title>value_utils.hpp</title>
<!-- Node11 -->
<g id="node1" class="node">
<title>Node11</title>
<polygon fill="#bfbfbf" stroke="#000000" points="62.5,-280.5 62.5,-299.5 144.5,-299.5 144.5,-280.5 62.5,-280.5"/>
<text text-anchor="middle" x="103.5" y="-287.5" font-family="Helvetica,sans-Serif" font-size="10.00" fill="#000000">value_utils.hpp</text>
</g>
<!-- Node12 -->
<g id="node2" class="node">
<title>Node12</title>
<g id="a_node2"><a xlink:href="arg_8hpp.html" target="_top" xlink:title="arg.hpp">
<polygon fill="none" stroke="#000000" points="79,-224.5 79,-243.5 128,-243.5 128,-224.5 79,-224.5"/>
<text text-anchor="middle" x="103.5" y="-231.5" font-family="Helvetica,sans-Serif" font-size="10.00" fill="#000000">arg.hpp</text>
</a>
</g>
</g>
<!-- Node11&#45;&gt;Node12 -->
<g id="edge1" class="edge">
<title>Node11&#45;&gt;Node12</title>
<path fill="none" stroke="#191970" d="M103.5,-270.1575C103.5,-261.155 103.5,-250.9199 103.5,-243.6427"/>
<polygon fill="#191970" stroke="#191970" points="100.0001,-270.2455 103.5,-280.2455 107.0001,-270.2456 100.0001,-270.2455"/>
</g>
<!-- Node17 -->
<g id="node7" class="node">
<title>Node17</title>
<g id="a_node7"><a xlink:href="multi__arg_8hpp.html" target="_top" xlink:title="multi_arg.hpp">
<polygon fill="none" stroke="#000000" points="0,-168.5 0,-187.5 75,-187.5 75,-168.5 0,-168.5"/>
<text text-anchor="middle" x="37.5" y="-175.5" font-family="Helvetica,sans-Serif" font-size="10.00" fill="#000000">multi_arg.hpp</text>
</a>
</g>
</g>
<!-- Node11&#45;&gt;Node17 -->
<g id="edge11" class="edge">
<title>Node11&#45;&gt;Node17</title>
<path fill="none" stroke="#191970" d="M89.429,-272.5714C82.9735,-264.1867 75.4507,-253.8383 69.5,-244 57.9007,-224.823 47.1255,-200.8191 41.5237,-187.6894"/>
<polygon fill="#191970" stroke="#191970" points="86.7268,-274.7973 95.6594,-280.4945 92.2293,-270.4703 86.7268,-274.7973"/>
</g>
<!-- Node19 -->
<g id="node9" class="node">
<title>Node19</title>
<g id="a_node9"><a xlink:href="command_8hpp.html" target="_top" xlink:title="command.hpp">
<polygon fill="none" stroke="#000000" points="169.5,-168.5 169.5,-187.5 247.5,-187.5 247.5,-168.5 169.5,-168.5"/>
<text text-anchor="middle" x="208.5" y="-175.5" font-family="Helvetica,sans-Serif" font-size="10.00" fill="#000000">command.hpp</text>
</a>
</g>
</g>
<!-- Node11&#45;&gt;Node19 -->
<g id="edge12" class="edge">
<title>Node11&#45;&gt;Node19</title>
<path fill="none" stroke="#191970" d="M119.2935,-273.1536C141.6457,-249.3113 181.7666,-206.5156 199.5704,-187.5249"/>
<polygon fill="#191970" stroke="#191970" points="116.7383,-270.7617 112.4522,-280.4509 121.8451,-275.5493 116.7383,-270.7617"/>
</g>
<!-- Node13 -->
<g id="node3" class="node">
<title>Node13</title>
<g id="a_node3"><a xlink:href="api_8hpp.html" target="_top" xlink:title="api.hpp">
<polygon fill="none" stroke="#000000" points="48.5,-112.5 48.5,-131.5 96.5,-131.5 96.5,-112.5 48.5,-112.5"/>
<text text-anchor="middle" x="72.5" y="-119.5" font-family="Helvetica,sans-Serif" font-size="10.00" fill="#000000">api.hpp</text>
</a>
</g>
</g>
<!-- Node12&#45;&gt;Node13 -->
<g id="edge2" class="edge">
<title>Node12&#45;&gt;Node13</title>
<path fill="none" stroke="#191970" d="M98.13,-214.5987C91.4219,-190.363 80.2099,-149.8551 75.1364,-131.5249"/>
<polygon fill="#191970" stroke="#191970" points="94.8161,-215.747 100.857,-224.4509 101.5625,-213.8796 94.8161,-215.747"/>
</g>
<!-- Node12&#45;&gt;Node17 -->
<g id="edge7" class="edge">
<title>Node12&#45;&gt;Node17</title>
<path fill="none" stroke="#191970" d="M84.2245,-217.645C72.7462,-207.9058 58.5723,-195.8795 48.8646,-187.6427"/>
<polygon fill="#191970" stroke="#191970" points="82.1141,-220.4445 92.0037,-224.2455 86.643,-215.1069 82.1141,-220.4445"/>
</g>
<!-- Node18 -->
<g id="node8" class="node">
<title>Node18</title>
<g id="a_node8"><a xlink:href="help_8hpp.html" target="_top" xlink:title="help.hpp">
<polygon fill="none" stroke="#000000" points="115,-112.5 115,-131.5 168,-131.5 168,-112.5 115,-112.5"/>
<text text-anchor="middle" x="141.5" y="-119.5" font-family="Helvetica,sans-Serif" font-size="10.00" fill="#000000">help.hpp</text>
</a>
</g>
</g>
<!-- Node12&#45;&gt;Node18 -->
<g id="edge9" class="edge">
<title>Node12&#45;&gt;Node18</title>
<path fill="none" stroke="#191970" d="M109.9718,-214.9253C118.1815,-190.7284 132.0212,-149.9376 138.2683,-131.5249"/>
<polygon fill="#191970" stroke="#191970" points="106.6385,-213.8566 106.7399,-224.4509 113.2673,-216.1057 106.6385,-213.8566"/>
</g>
<!-- Node14 -->
<g id="node4" class="node">
<title>Node14</title>
<g id="a_node4"><a xlink:href="cmd__line_8hpp.html" target="_top" xlink:title="cmd_line.hpp">
<polygon fill="none" stroke="#000000" points="118.5,-56.5 118.5,-75.5 192.5,-75.5 192.5,-56.5 118.5,-56.5"/>
<text text-anchor="middle" x="155.5" y="-63.5" font-family="Helvetica,sans-Serif" font-size="10.00" fill="#000000">cmd_line.hpp</text>
</a>
</g>
</g>
<!-- Node13&#45;&gt;Node14 -->
<g id="edge3" class="edge">
<title>Node13&#45;&gt;Node14</title>
<path fill="none" stroke="#191970" d="M95.488,-106.49C110.1322,-96.6096 128.6444,-84.1194 141.2082,-75.6427"/>
<polygon fill="#191970" stroke="#191970" points="93.2896,-103.7511 86.9575,-112.2455 97.2047,-109.5539 93.2896,-103.7511"/>
</g>
<!-- Node15 -->
<g id="node5" class="node">
<title>Node15</title>
<g id="a_node5"><a xlink:href="all_8hpp.html" target="_top" xlink:title="all.hpp">
<polygon fill="none" stroke="#000000" points="147,-.5 147,-19.5 192,-19.5 192,-.5 147,-.5"/>
<text text-anchor="middle" x="169.5" y="-7.5" font-family="Helvetica,sans-Serif" font-size="10.00" fill="#000000">all.hpp</text>
</a>
</g>
</g>
<!-- Node14&#45;&gt;Node15 -->
<g id="edge4" class="edge">
<title>Node14&#45;&gt;Node15</title>
<path fill="none" stroke="#191970" d="M160.3865,-46.4538C162.6549,-37.3803 165.25,-26.9998 167.0893,-19.6427"/>
<polygon fill="#191970" stroke="#191970" points="156.9685,-45.6952 157.9386,-56.2455 163.7595,-47.393 156.9685,-45.6952"/>
</g>
<!-- Node16 -->
<g id="node6" class="node">
<title>Node16</title>
<g id="a_node6"><a xlink:href="arg__as__command_8hpp.html" target="_top" xlink:title="arg_as_command.hpp">
<polygon fill="none" stroke="#000000" points="16,-.5 16,-19.5 129,-19.5 129,-.5 16,-.5"/>
<text text-anchor="middle" x="72.5" y="-7.5" font-family="Helvetica,sans-Serif" font-size="10.00" fill="#000000">arg_as_command.hpp</text>
</a>
</g>
</g>
<!-- Node14&#45;&gt;Node16 -->
<g id="edge5" class="edge">
<title>Node14&#45;&gt;Node16</title>
<path fill="none" stroke="#191970" d="M132.512,-50.49C117.8678,-40.6096 99.3556,-28.1194 86.7918,-19.6427"/>
<polygon fill="#191970" stroke="#191970" points="130.7953,-53.5539 141.0425,-56.2455 134.7104,-47.7511 130.7953,-53.5539"/>
</g>
<!-- Node16&#45;&gt;Node13 -->
<g id="edge6" class="edge">
<title>Node16&#45;&gt;Node13</title>
<path fill="none" stroke="#191970" d="M72.5,-29.6976C72.5,-53.9553 72.5,-94.184 72.5,-112.4509"/>
<polygon fill="#191970" stroke="#191970" points="76.0001,-29.5249 72.5,-19.5249 69.0001,-29.5249 76.0001,-29.5249"/>
</g>
<!-- Node17&#45;&gt;Node13 -->
<g id="edge8" class="edge">
<title>Node17&#45;&gt;Node13</title>
<path fill="none" stroke="#191970" d="M48.9815,-159.6296C54.8196,-150.2887 61.6752,-139.3197 66.4733,-131.6427"/>
<polygon fill="#191970" stroke="#191970" points="45.9286,-157.9105 43.5965,-168.2455 51.8646,-161.6206 45.9286,-157.9105"/>
</g>
<!-- Node18&#45;&gt;Node14 -->
<g id="edge10" class="edge">
<title>Node18&#45;&gt;Node14</title>
<path fill="none" stroke="#191970" d="M146.3865,-102.4538C148.6549,-93.3803 151.25,-82.9998 153.0893,-75.6427"/>
<polygon fill="#191970" stroke="#191970" points="142.9685,-101.6952 143.9386,-112.2455 149.7595,-103.393 142.9685,-101.6952"/>
</g>
<!-- Node19&#45;&gt;Node14 -->
<g id="edge13" class="edge">
<title>Node19&#45;&gt;Node14</title>
<path fill="none" stroke="#191970" d="M199.4873,-158.7195C193.3202,-145.5491 184.9442,-127.706 177.5,-112 171.5094,-99.3609 164.5332,-84.8009 160.07,-75.5055"/>
<polygon fill="#191970" stroke="#191970" points="196.4915,-160.5756 203.8996,-168.1499 202.8318,-157.609 196.4915,-160.5756"/>
</g>
<!-- Node20 -->
<g id="node10" class="node">
<title>Node20</title>
<g id="a_node10"><a xlink:href="help__printer_8hpp.html" target="_top" xlink:title="help_printer.hpp">
<polygon fill="none" stroke="#000000" points="224.5,-112.5 224.5,-131.5 310.5,-131.5 310.5,-112.5 224.5,-112.5"/>
<text text-anchor="middle" x="267.5" y="-119.5" font-family="Helvetica,sans-Serif" font-size="10.00" fill="#000000">help_printer.hpp</text>
</a>
</g>
</g>
<!-- Node19&#45;&gt;Node20 -->
<g id="edge14" class="edge">
<title>Node19&#45;&gt;Node20</title>
<path fill="none" stroke="#191970" d="M226.0307,-161.3607C236.2377,-151.6727 248.7469,-139.7995 257.3408,-131.6427"/>
<polygon fill="#191970" stroke="#191970" points="223.6206,-158.8227 218.777,-168.2455 228.4396,-163.8998 223.6206,-158.8227"/>
</g>
<!-- Node20&#45;&gt;Node14 -->
<g id="edge15" class="edge">
<title>Node20&#45;&gt;Node14</title>
<path fill="none" stroke="#191970" d="M239.1737,-107.8368C218.9279,-97.7139 192.2358,-84.3679 174.5022,-75.5011"/>
<polygon fill="#191970" stroke="#191970" points="237.737,-111.0316 248.2465,-112.3733 240.8675,-104.7706 237.737,-111.0316"/>
</g>
</g>
</svg>
