<?xml version="1.0" encoding="UTF-8" standalone="no"?>
<!DOCTYPE svg PUBLIC "-//W3C//DTD SVG 1.1//EN"
 "http://www.w3.org/Graphics/SVG/1.1/DTD/svg11.dtd">
<!-- Generated by graphviz version 2.38.0 (20140413.2041)
 -->
<!-- Title: value_utils.hpp Pages: 1 -->
<svg width="317pt" height="308pt"
 viewBox="0.00 0.00 316.50 308.00" xmlns="http://www.w3.org/2000/svg" xmlns:xlink="http://www.w3.org/1999/xlink">
<g id="graph0" class="graph" transform="scale(1 1) rotate(0) translate(4 304)">
<title>value_utils.hpp</title>
<!-- Node1 -->
<g id="node1" class="node"><title>Node1</title>
<polygon fill="#bfbfbf" stroke="black" points="62,-280.5 62,-299.5 142,-299.5 142,-280.5 62,-280.5"/>
<text text-anchor="middle" x="102" y="-287.5" font-family="FreeSans" font-size="10.00">value_utils.hpp</text>
</g>
<!-- Node2 -->
<g id="node2" class="node"><title>Node2</title>
<g id="a_node2"><a xlink:href="arg_8hpp.html" target="_top" xlink:title="arg.hpp">
<polygon fill="none" stroke="black" points="78,-224.5 78,-243.5 126,-243.5 126,-224.5 78,-224.5"/>
<text text-anchor="middle" x="102" y="-231.5" font-family="FreeSans" font-size="10.00">arg.hpp</text>
</a>
</g>
</g>
<!-- Node1&#45;&gt;Node2 -->
<g id="edge1" class="edge"><title>Node1&#45;&gt;Node2</title>
<path fill="none" stroke="midnightblue" d="M102,-269.805C102,-260.91 102,-250.78 102,-243.751"/>
<polygon fill="midnightblue" stroke="midnightblue" points="98.5001,-270.083 102,-280.083 105.5,-270.083 98.5001,-270.083"/>
</g>
<!-- Node7 -->
<g id="node7" class="node"><title>Node7</title>
<g id="a_node7"><a xlink:href="multi__arg_8hpp.html" target="_top" xlink:title="multi_arg.hpp">
<polygon fill="none" stroke="black" points="0,-168.5 0,-187.5 74,-187.5 74,-168.5 0,-168.5"/>
<text text-anchor="middle" x="37" y="-175.5" font-family="FreeSans" font-size="10.00">multi_arg.hpp</text>
</a>
</g>
</g>
<!-- Node1&#45;&gt;Node7 -->
<g id="edge11" class="edge"><title>Node1&#45;&gt;Node7</title>
<path fill="none" stroke="midnightblue" d="M88.6572,-272.285C82.3387,-264.012 74.9025,-253.734 69,-244 57.2605,-224.641 46.2094,-200.37 40.6824,-187.666"/>
<polygon fill="midnightblue" stroke="midnightblue" points="86.0399,-274.62 94.9494,-280.353 91.5599,-270.315 86.0399,-274.62"/>
</g>
<!-- Node9 -->
<g id="node9" class="node"><title>Node9</title>
<g id="a_node9"><a xlink:href="command_8hpp.html" target="_top" xlink:title="command.hpp">
<polygon fill="none" stroke="black" points="168.5,-168.5 168.5,-187.5 245.5,-187.5 245.5,-168.5 168.5,-168.5"/>
<text text-anchor="middle" x="207" y="-175.5" font-family="FreeSans" font-size="10.00">command.hpp</text>
</a>
</g>
</g>
<!-- Node1&#45;&gt;Node9 -->
<g id="edge12" class="edge"><title>Node1&#45;&gt;Node9</title>
<path fill="none" stroke="midnightblue" d="M117.371,-272.897C139.945,-249.249 181.276,-205.949 198.799,-187.591"/>
<polygon fill="midnightblue" stroke="midnightblue" points="114.612,-270.718 110.239,-280.368 119.676,-275.552 114.612,-270.718"/>
</g>
<!-- Node3 -->
<g id="node3" class="node"><title>Node3</title>
<g id="a_node3"><a xlink:href="api_8hpp.html" target="_top" xlink:title="api.hpp">
<polygon fill="none" stroke="black" points="48.5,-112.5 48.5,-131.5 95.5,-131.5 95.5,-112.5 48.5,-112.5"/>
<text text-anchor="middle" x="72" y="-119.5" font-family="FreeSans" font-size="10.00">api.hpp</text>
</a>
</g>
</g>
<!-- Node2&#45;&gt;Node3 -->
<g id="edge2" class="edge"><title>Node2&#45;&gt;Node3</title>
<path fill="none" stroke="midnightblue" d="M97.002,-214.674C90.4431,-190.625 79.1968,-149.388 74.3431,-131.591"/>
<polygon fill="midnightblue" stroke="midnightblue" points="93.638,-215.642 99.646,-224.368 100.391,-213.8 93.638,-215.642"/>
</g>
<!-- Node2&#45;&gt;Node7 -->
<g id="edge7" class="edge"><title>Node2&#45;&gt;Node7</title>
<path fill="none" stroke="midnightblue" d="M83.7274,-217.82C72.0822,-208.145 57.4005,-195.948 47.6334,-187.834"/>
<polygon fill="midnightblue" stroke="midnightblue" points="81.6281,-220.626 91.5566,-224.324 86.1013,-215.242 81.6281,-220.626"/>
</g>
<!-- Node8 -->
<g id="node8" class="node"><title>Node8</title>
<g id="a_node8"><a xlink:href="help_8hpp.html" target="_top" xlink:title="help.hpp">
<polygon fill="none" stroke="black" points="113.5,-112.5 113.5,-131.5 166.5,-131.5 166.5,-112.5 113.5,-112.5"/>
<text text-anchor="middle" x="140" y="-119.5" font-family="FreeSans" font-size="10.00">help.hpp</text>
</a>
</g>
</g>
<!-- Node2&#45;&gt;Node8 -->
<g id="edge9" class="edge"><title>Node2&#45;&gt;Node8</title>
<path fill="none" stroke="midnightblue" d="M108.331,-214.674C116.639,-190.625 130.884,-149.388 137.032,-131.591"/>
<polygon fill="midnightblue" stroke="midnightblue" points="104.939,-213.774 104.982,-224.368 111.555,-216.059 104.939,-213.774"/>
</g>
<!-- Node4 -->
<g id="node4" class="node"><title>Node4</title>
<g id="a_node4"><a xlink:href="cmd__line_8hpp.html" target="_top" xlink:title="cmd_line.hpp">
<polygon fill="none" stroke="black" points="116,-56.5 116,-75.5 190,-75.5 190,-56.5 116,-56.5"/>
<text text-anchor="middle" x="153" y="-63.5" font-family="FreeSans" font-size="10.00">cmd_line.hpp</text>
</a>
</g>
</g>
<!-- Node3&#45;&gt;Node4 -->
<g id="edge3" class="edge"><title>Node3&#45;&gt;Node4</title>
<path fill="none" stroke="midnightblue" d="M93.5668,-106.622C108.364,-96.7574 127.512,-83.9919 140.018,-75.6545"/>
<polygon fill="midnightblue" stroke="midnightblue" points="91.3931,-103.865 85.0141,-112.324 95.276,-109.689 91.3931,-103.865"/>
</g>
<!-- Node5 -->
<g id="node5" class="node"><title>Node5</title>
<g id="a_node5"><a xlink:href="all_8hpp.html" target="_top" xlink:title="all.hpp">
<polygon fill="none" stroke="black" points="145,-0.5 145,-19.5 189,-19.5 189,-0.5 145,-0.5"/>
<text text-anchor="middle" x="167" y="-7.5" font-family="FreeSans" font-size="10.00">all.hpp</text>
</a>
</g>
</g>
<!-- Node4&#45;&gt;Node5 -->
<g id="edge4" class="edge"><title>Node4&#45;&gt;Node5</title>
<path fill="none" stroke="midnightblue" d="M157.823,-46.3956C160.165,-37.362 162.868,-26.936 164.731,-19.7511"/>
<polygon fill="midnightblue" stroke="midnightblue" points="154.434,-45.5246 155.312,-56.083 161.21,-47.2814 154.434,-45.5246"/>
</g>
<!-- Node6 -->
<g id="node6" class="node"><title>Node6</title>
<g id="a_node6"><a xlink:href="arg__as__command_8hpp.html" target="_top" xlink:title="arg_as_command.hpp">
<polygon fill="none" stroke="black" points="16.5,-0.5 16.5,-19.5 127.5,-19.5 127.5,-0.5 16.5,-0.5"/>
<text text-anchor="middle" x="72" y="-7.5" font-family="FreeSans" font-size="10.00">arg_as_command.hpp</text>
</a>
</g>
</g>
<!-- Node4&#45;&gt;Node6 -->
<g id="edge5" class="edge"><title>Node4&#45;&gt;Node6</title>
<path fill="none" stroke="midnightblue" d="M131.433,-50.6221C116.636,-40.7574 97.4878,-27.9919 84.9818,-19.6545"/>
<polygon fill="midnightblue" stroke="midnightblue" points="129.724,-53.6891 139.986,-56.324 133.607,-47.8647 129.724,-53.6891"/>
</g>
<!-- Node6&#45;&gt;Node3 -->
<g id="edge6" class="edge"><title>Node6&#45;&gt;Node3</title>
<path fill="none" stroke="midnightblue" d="M72,-29.5974C72,-53.6664 72,-94.617 72,-112.368"/>
<polygon fill="midnightblue" stroke="midnightblue" points="75.5001,-29.5914 72,-19.5914 68.5001,-29.5915 75.5001,-29.5914"/>
</g>
<!-- Node7&#45;&gt;Node3 -->
<g id="edge8" class="edge"><title>Node7&#45;&gt;Node3</title>
<path fill="none" stroke="midnightblue" d="M48.3001,-159.566C54.3219,-150.275 61.4686,-139.248 66.328,-131.751"/>
<polygon fill="midnightblue" stroke="midnightblue" points="45.2815,-157.788 42.7795,-168.083 51.1556,-161.595 45.2815,-157.788"/>
</g>
<!-- Node8&#45;&gt;Node4 -->
<g id="edge10" class="edge"><title>Node8&#45;&gt;Node4</title>
<path fill="none" stroke="midnightblue" d="M144.55,-102.101C146.708,-93.1357 149.182,-82.8579 150.893,-75.7511"/>
<polygon fill="midnightblue" stroke="midnightblue" points="141.085,-101.542 142.147,-112.083 147.89,-103.18 141.085,-101.542"/>
</g>
<!-- Node9&#45;&gt;Node4 -->
<g id="edge13" class="edge"><title>Node9&#45;&gt;Node4</title>
<path fill="none" stroke="midnightblue" d="M198.321,-159.32C186.563,-135.37 166.033,-93.5484 157.218,-75.5914"/>
<polygon fill="midnightblue" stroke="midnightblue" points="195.214,-160.934 202.763,-168.368 201.498,-157.849 195.214,-160.934"/>
</g>
<!-- Node10 -->
<g id="node10" class="node"><title>Node10</title>
<g id="a_node10"><a xlink:href="help__printer_8hpp.html" target="_top" xlink:title="help_printer.hpp">
<polygon fill="none" stroke="black" points="223.5,-112.5 223.5,-131.5 308.5,-131.5 308.5,-112.5 223.5,-112.5"/>
<text text-anchor="middle" x="266" y="-119.5" font-family="FreeSans" font-size="10.00">help_printer.hpp</text>
</a>
</g>
</g>
<!-- Node9&#45;&gt;Node10 -->
<g id="edge14" class="edge"><title>Node9&#45;&gt;Node10</title>
<path fill="none" stroke="midnightblue" d="M223.895,-161.537C234.415,-151.909 247.569,-139.869 256.348,-131.834"/>
<polygon fill="midnightblue" stroke="midnightblue" points="221.493,-158.99 216.479,-168.324 226.219,-164.154 221.493,-158.99"/>
</g>
<!-- Node10&#45;&gt;Node4 -->
<g id="edge15" class="edge"><title>Node10&#45;&gt;Node4</title>
<path fill="none" stroke="midnightblue" d="M238.997,-108.096C217.886,-98.0073 189.138,-84.2697 170.821,-75.5164"/>
<polygon fill="midnightblue" stroke="midnightblue" points="237.563,-111.29 248.095,-112.444 240.581,-104.974 237.563,-111.29"/>
</g>
</g>
</svg>
