<?xml version="1.0" encoding="UTF-8" standalone="no"?>
<!DOCTYPE svg PUBLIC "-//W3C//DTD SVG 1.1//EN"
 "http://www.w3.org/Graphics/SVG/1.1/DTD/svg11.dtd">
<!-- Generated by graphviz version 2.43.0 (0)
 -->
<!-- Title: value_utils.hpp Pages: 1 -->
<svg width="326pt" height="196pt"
 viewBox="0.00 0.00 325.50 196.00" xmlns="http://www.w3.org/2000/svg" xmlns:xlink="http://www.w3.org/1999/xlink">
<g id="graph0" class="graph" transform="scale(1 1) rotate(0) translate(4 192)">
<title>value_utils.hpp</title>
<!-- Node1 -->
<g id="node1" class="node">
<title>Node1</title>
<g id="a_node1"><a xlink:title=" ">
<polygon fill="#bfbfbf" stroke="black" points="126,-168.5 126,-187.5 217,-187.5 217,-168.5 126,-168.5"/>
<text text-anchor="middle" x="171.5" y="-175.5" font-family="Helvetica,sans-Serif" font-size="10.00">value_utils.hpp</text>
</a>
</g>
</g>
<!-- Node2 -->
<g id="node2" class="node">
<title>Node2</title>
<g id="a_node2"><a xlink:href="utils_8hpp.html" target="_top" xlink:title=" ">
<polygon fill="none" stroke="black" points="171,-112.5 171,-131.5 230,-131.5 230,-112.5 171,-112.5"/>
<text text-anchor="middle" x="200.5" y="-119.5" font-family="Helvetica,sans-Serif" font-size="10.00">utils.hpp</text>
</a>
</g>
</g>
<!-- Node1&#45;&gt;Node2 -->
<g id="edge1" class="edge">
<title>Node1&#45;&gt;Node2</title>
<path fill="none" stroke="midnightblue" d="M176.29,-168.08C180.26,-160.69 186.03,-149.95 190.93,-140.81"/>
<polygon fill="midnightblue" stroke="midnightblue" points="194.15,-142.22 195.8,-131.75 187.99,-138.91 194.15,-142.22"/>
</g>
<!-- Node3 -->
<g id="node3" class="node">
<title>Node3</title>
<g id="a_node3"><a xlink:href="types_8hpp.html" target="_top" xlink:title=" ">
<polygon fill="none" stroke="black" points="83,-56.5 83,-75.5 148,-75.5 148,-56.5 83,-56.5"/>
<text text-anchor="middle" x="115.5" y="-63.5" font-family="Helvetica,sans-Serif" font-size="10.00">types.hpp</text>
</a>
</g>
</g>
<!-- Node1&#45;&gt;Node3 -->
<g id="edge11" class="edge">
<title>Node1&#45;&gt;Node3</title>
<path fill="none" stroke="midnightblue" d="M167.11,-168.37C157.95,-150.38 136.65,-108.55 124.47,-84.63"/>
<polygon fill="midnightblue" stroke="midnightblue" points="127.53,-82.92 119.87,-75.59 121.29,-86.09 127.53,-82.92"/>
</g>
<!-- Node7 -->
<g id="node7" class="node">
<title>Node7</title>
<g id="a_node7"><a xlink:title=" ">
<polygon fill="none" stroke="#bfbfbf" points="253.5,-56.5 253.5,-75.5 317.5,-75.5 317.5,-56.5 253.5,-56.5"/>
<text text-anchor="middle" x="285.5" y="-63.5" font-family="Helvetica,sans-Serif" font-size="10.00">algorithm</text>
</a>
</g>
</g>
<!-- Node1&#45;&gt;Node7 -->
<g id="edge12" class="edge">
<title>Node1&#45;&gt;Node7</title>
<path fill="none" stroke="midnightblue" d="M187.83,-168.49C202.42,-160.38 223.85,-147.17 239.5,-132 254.04,-117.91 267,-98.67 275.43,-84.78"/>
<polygon fill="midnightblue" stroke="midnightblue" points="278.67,-86.16 280.72,-75.76 272.64,-82.61 278.67,-86.16"/>
</g>
<!-- Node9 -->
<g id="node9" class="node">
<title>Node9</title>
<g id="a_node9"><a xlink:href="exceptions_8hpp.html" target="_top" xlink:title=" ">
<polygon fill="none" stroke="black" points="23,-112.5 23,-131.5 114,-131.5 114,-112.5 23,-112.5"/>
<text text-anchor="middle" x="68.5" y="-119.5" font-family="Helvetica,sans-Serif" font-size="10.00">exceptions.hpp</text>
</a>
</g>
</g>
<!-- Node1&#45;&gt;Node9 -->
<g id="edge8" class="edge">
<title>Node1&#45;&gt;Node9</title>
<path fill="none" stroke="midnightblue" d="M154.95,-168.32C138.51,-159.7 113.07,-146.36 94.03,-136.39"/>
<polygon fill="midnightblue" stroke="midnightblue" points="95.49,-133.2 85.01,-131.65 92.24,-139.4 95.49,-133.2"/>
</g>
<!-- Node2&#45;&gt;Node3 -->
<g id="edge2" class="edge">
<title>Node2&#45;&gt;Node3</title>
<path fill="none" stroke="midnightblue" d="M186.84,-112.32C173.58,-103.9 153.23,-90.97 137.65,-81.07"/>
<polygon fill="midnightblue" stroke="midnightblue" points="139.44,-78.06 129.12,-75.65 135.69,-83.97 139.44,-78.06"/>
</g>
<!-- Node2&#45;&gt;Node7 -->
<g id="edge6" class="edge">
<title>Node2&#45;&gt;Node7</title>
<path fill="none" stroke="midnightblue" d="M214.16,-112.32C227.42,-103.9 247.77,-90.97 263.35,-81.07"/>
<polygon fill="midnightblue" stroke="midnightblue" points="265.31,-83.97 271.88,-75.65 261.56,-78.06 265.31,-83.97"/>
</g>
<!-- Node8 -->
<g id="node8" class="node">
<title>Node8</title>
<g id="a_node8"><a xlink:title=" ">
<polygon fill="none" stroke="#bfbfbf" points="166,-56.5 166,-75.5 235,-75.5 235,-56.5 166,-56.5"/>
<text text-anchor="middle" x="200.5" y="-63.5" font-family="Helvetica,sans-Serif" font-size="10.00">type_traits</text>
</a>
</g>
</g>
<!-- Node2&#45;&gt;Node8 -->
<g id="edge7" class="edge">
<title>Node2&#45;&gt;Node8</title>
<path fill="none" stroke="midnightblue" d="M200.5,-112.08C200.5,-105.01 200.5,-94.86 200.5,-85.99"/>
<polygon fill="midnightblue" stroke="midnightblue" points="204,-85.75 200.5,-75.75 197,-85.75 204,-85.75"/>
</g>
<!-- Node4 -->
<g id="node4" class="node">
<title>Node4</title>
<g id="a_node4"><a xlink:title=" ">
<polygon fill="none" stroke="#bfbfbf" points="23.5,-0.5 23.5,-19.5 67.5,-19.5 67.5,-0.5 23.5,-0.5"/>
<text text-anchor="middle" x="45.5" y="-7.5" font-family="Helvetica,sans-Serif" font-size="10.00">string</text>
</a>
</g>
</g>
<!-- Node3&#45;&gt;Node4 -->
<g id="edge3" class="edge">
<title>Node3&#45;&gt;Node4</title>
<path fill="none" stroke="midnightblue" d="M104.25,-56.32C93.7,-48.18 77.7,-35.84 65.06,-26.09"/>
<polygon fill="midnightblue" stroke="midnightblue" points="67.01,-23.17 56.95,-19.83 62.73,-28.71 67.01,-23.17"/>
</g>
<!-- Node5 -->
<g id="node5" class="node">
<title>Node5</title>
<g id="a_node5"><a xlink:title=" ">
<polygon fill="none" stroke="#bfbfbf" points="85.5,-0.5 85.5,-19.5 145.5,-19.5 145.5,-0.5 85.5,-0.5"/>
<text text-anchor="middle" x="115.5" y="-7.5" font-family="Helvetica,sans-Serif" font-size="10.00">iostream</text>
</a>
</g>
</g>
<!-- Node3&#45;&gt;Node5 -->
<g id="edge4" class="edge">
<title>Node3&#45;&gt;Node5</title>
<path fill="none" stroke="midnightblue" d="M115.5,-56.08C115.5,-49.01 115.5,-38.86 115.5,-29.99"/>
<polygon fill="midnightblue" stroke="midnightblue" points="119,-29.75 115.5,-19.75 112,-29.75 119,-29.75"/>
</g>
<!-- Node6 -->
<g id="node6" class="node">
<title>Node6</title>
<g id="a_node6"><a xlink:title=" ">
<polygon fill="none" stroke="#bfbfbf" points="164,-0.5 164,-19.5 211,-19.5 211,-0.5 164,-0.5"/>
<text text-anchor="middle" x="187.5" y="-7.5" font-family="Helvetica,sans-Serif" font-size="10.00">vector</text>
</a>
</g>
</g>
<!-- Node3&#45;&gt;Node6 -->
<g id="edge5" class="edge">
<title>Node3&#45;&gt;Node6</title>
<path fill="none" stroke="midnightblue" d="M127.07,-56.32C137.92,-48.18 154.38,-35.84 167.38,-26.09"/>
<polygon fill="midnightblue" stroke="midnightblue" points="169.82,-28.63 175.72,-19.83 165.62,-23.03 169.82,-28.63"/>
</g>
<!-- Node9&#45;&gt;Node3 -->
<g id="edge10" class="edge">
<title>Node9&#45;&gt;Node3</title>
<path fill="none" stroke="midnightblue" d="M76.26,-112.08C83.04,-104.3 93.04,-92.8 101.26,-83.37"/>
<polygon fill="midnightblue" stroke="midnightblue" points="103.96,-85.59 107.88,-75.75 98.68,-81 103.96,-85.59"/>
</g>
<!-- Node10 -->
<g id="node10" class="node">
<title>Node10</title>
<g id="a_node10"><a xlink:title=" ">
<polygon fill="none" stroke="#bfbfbf" points="0,-56.5 0,-75.5 65,-75.5 65,-56.5 0,-56.5"/>
<text text-anchor="middle" x="32.5" y="-63.5" font-family="Helvetica,sans-Serif" font-size="10.00">stdexcept</text>
</a>
</g>
</g>
<!-- Node9&#45;&gt;Node10 -->
<g id="edge9" class="edge">
<title>Node9&#45;&gt;Node10</title>
<path fill="none" stroke="midnightblue" d="M62.56,-112.08C57.52,-104.53 50.16,-93.49 43.99,-84.23"/>
<polygon fill="midnightblue" stroke="midnightblue" points="46.79,-82.13 38.33,-75.75 40.97,-86.01 46.79,-82.13"/>
</g>
</g>
</svg>
