<?xml version="1.0" encoding="UTF-8" standalone="no"?>
<!DOCTYPE svg PUBLIC "-//W3C//DTD SVG 1.1//EN"
 "http://www.w3.org/Graphics/SVG/1.1/DTD/svg11.dtd">
<!-- Generated by graphviz version 2.43.0 (0)
 -->
<!-- Title: value_utils.hpp Pages: 1 -->
<svg width="220pt" height="412pt"
 viewBox="0.00 0.00 220.00 412.00" xmlns="http://www.w3.org/2000/svg" xmlns:xlink="http://www.w3.org/1999/xlink">

<svg id="main" version="1.1" xmlns="http://www.w3.org/2000/svg" xmlns:xlink="http://www.w3.org/1999/xlink" xml:space="preserve" onload="init(evt)">
<style type="text/css"><![CDATA[
.node, .edge {opacity: 0.7;}
.node.selected, .edge.selected {opacity: 1;}
.edge:hover path { stroke: red; }
.edge:hover polygon { stroke: red; fill: red; }
]]></style>
<script type="application/ecmascript" xlink:href="svg.min.js"/>
<svg id="graph" class="graph">
<g id="graph0" class="graph" transform="scale(1 1) rotate(0) translate(4 408)">
<title>value_utils.hpp</title>
<!-- Node1 -->
<g id="Node000001" class="node">
<title>Node1</title>
<g id="a_Node000001"><a xlink:title=" ">
<polygon fill="#999999" stroke="#666666" points="134,-404 43,-404 43,-385 134,-385 134,-404"/>
<text text-anchor="middle" x="88.5" y="-392" font-family="Helvetica,sans-Serif" font-size="10.00">value_utils.hpp</text>
</a>
</g>
</g>
<!-- Node2 -->
<g id="Node000002" class="node">
<title>Node2</title>
<g id="a_Node000002"><a xlink:href="arg_8hpp.html" target="_top" xlink:title=" ">
<polygon fill="white" stroke="#666666" points="53,-349 0,-349 0,-330 53,-330 53,-349"/>
<text text-anchor="middle" x="26.5" y="-337" font-family="Helvetica,sans-Serif" font-size="10.00">arg.hpp</text>
</a>
</g>
</g>
<!-- Node1&#45;&gt;Node2 -->
<g id="edge1_Node000001_Node000002" class="edge">
<title>Node1&#45;&gt;Node2</title>
<g id="a_edge1_Node000001_Node000002"><a xlink:title=" ">
<path fill="none" stroke="#63b8ff" d="M70.75,-378.32C59.69,-368.87 45.87,-357.06 36.64,-349.17"/>
<polygon fill="#63b8ff" stroke="#63b8ff" points="68.66,-381.15 78.54,-384.98 73.21,-375.83 68.66,-381.15"/>
</a>
</g>
</g>
<!-- Node7 -->
<g id="Node000007" class="node">
<title>Node7</title>
<g id="a_Node000007"><a xlink:href="command_8hpp.html" target="_top" xlink:title=" ">
<polygon fill="white" stroke="#666666" points="155.5,-184 69.5,-184 69.5,-165 155.5,-165 155.5,-184"/>
<text text-anchor="middle" x="112.5" y="-172" font-family="Helvetica,sans-Serif" font-size="10.00">command.hpp</text>
</a>
</g>
</g>
<!-- Node1&#45;&gt;Node7 -->
<g id="edge16_Node000001_Node000007" class="edge">
<title>Node1&#45;&gt;Node7</title>
<g id="a_edge16_Node000001_Node000007"><a xlink:title=" ">
<path fill="none" stroke="#63b8ff" d="M100.57,-376.26C113.14,-357.18 132.02,-324.99 139.5,-294 149.4,-252.98 127.35,-203.73 117.23,-184.14"/>
<polygon fill="#63b8ff" stroke="#63b8ff" points="97.54,-374.5 94.83,-384.75 103.33,-378.43 97.54,-374.5"/>
</a>
</g>
</g>
<!-- Node9 -->
<g id="Node000009" class="node">
<title>Node9</title>
<g id="a_Node000009"><a xlink:href="multi__arg_8hpp.html" target="_top" xlink:title=" ">
<polygon fill="white" stroke="#666666" points="130.5,-294 46.5,-294 46.5,-275 130.5,-275 130.5,-294"/>
<text text-anchor="middle" x="88.5" y="-282" font-family="Helvetica,sans-Serif" font-size="10.00">multi_arg.hpp</text>
</a>
</g>
</g>
<!-- Node1&#45;&gt;Node9 -->
<g id="edge17_Node000001_Node000009" class="edge">
<title>Node1&#45;&gt;Node9</title>
<g id="a_edge17_Node000001_Node000009"><a xlink:title=" ">
<path fill="none" stroke="#63b8ff" d="M88.5,-374.48C88.5,-350.84 88.5,-311.5 88.5,-294.16"/>
<polygon fill="#63b8ff" stroke="#63b8ff" points="85,-374.66 88.5,-384.66 92,-374.66 85,-374.66"/>
</a>
</g>
</g>
<!-- Node3 -->
<g id="Node000003" class="node">
<title>Node3</title>
<g id="a_Node000003"><a xlink:href="api_8hpp.html" target="_top" xlink:title=" ">
<polygon fill="white" stroke="#666666" points="115,-239 62,-239 62,-220 115,-220 115,-239"/>
<text text-anchor="middle" x="88.5" y="-227" font-family="Helvetica,sans-Serif" font-size="10.00">api.hpp</text>
</a>
</g>
</g>
<!-- Node2&#45;&gt;Node3 -->
<g id="edge2_Node000002_Node000003" class="edge">
<title>Node2&#45;&gt;Node3</title>
<g id="a_edge2_Node000002_Node000003"><a xlink:title=" ">
<path fill="none" stroke="#63b8ff" d="M26.51,-319.39C27.28,-306.17 29.86,-288.58 37.5,-275 46.14,-259.64 62.17,-247 73.95,-239.17"/>
<polygon fill="#63b8ff" stroke="#63b8ff" points="23,-319.58 26.22,-329.67 30,-319.78 23,-319.58"/>
</a>
</g>
</g>
<!-- Node8 -->
<g id="Node000008" class="node">
<title>Node8</title>
<g id="a_Node000008"><a xlink:href="help_8hpp.html" target="_top" xlink:title=" ">
<polygon fill="white" stroke="#666666" points="106,-129 47,-129 47,-110 106,-110 106,-129"/>
<text text-anchor="middle" x="76.5" y="-117" font-family="Helvetica,sans-Serif" font-size="10.00">help.hpp</text>
</a>
</g>
</g>
<!-- Node2&#45;&gt;Node8 -->
<g id="edge13_Node000002_Node000008" class="edge">
<title>Node2&#45;&gt;Node8</title>
<g id="a_edge13_Node000002_Node000008"><a xlink:title=" ">
<path fill="none" stroke="#63b8ff" d="M25.03,-319.57C24.4,-306.89 24.26,-289.86 26.5,-275 35.17,-217.57 62.26,-152.53 72.52,-129.31"/>
<polygon fill="#63b8ff" stroke="#63b8ff" points="21.55,-320.06 25.68,-329.81 28.54,-319.61 21.55,-320.06"/>
</a>
</g>
</g>
<!-- Node2&#45;&gt;Node9 -->
<g id="edge14_Node000002_Node000009" class="edge">
<title>Node2&#45;&gt;Node9</title>
<g id="a_edge14_Node000002_Node000009"><a xlink:title=" ">
<path fill="none" stroke="#63b8ff" d="M44.25,-323.32C55.31,-313.87 69.13,-302.06 78.36,-294.17"/>
<polygon fill="#63b8ff" stroke="#63b8ff" points="41.79,-320.83 36.46,-329.98 46.34,-326.15 41.79,-320.83"/>
</a>
</g>
</g>
<!-- Node4 -->
<g id="Node000004" class="node">
<title>Node4</title>
<g id="a_Node000004"><a xlink:href="cmd__line_8hpp.html" target="_top" xlink:title=" ">
<polygon fill="white" stroke="#666666" points="125.5,-74 43.5,-74 43.5,-55 125.5,-55 125.5,-74"/>
<text text-anchor="middle" x="84.5" y="-62" font-family="Helvetica,sans-Serif" font-size="10.00">cmd_line.hpp</text>
</a>
</g>
</g>
<!-- Node3&#45;&gt;Node4 -->
<g id="edge3_Node000003_Node000004" class="edge">
<title>Node3&#45;&gt;Node4</title>
<g id="a_edge3_Node000003_Node000004"><a xlink:title=" ">
<path fill="none" stroke="#63b8ff" d="M76.14,-211.62C63.17,-192.66 43.8,-160.4 37.5,-129 35.84,-120.72 34.16,-117.76 37.5,-110 44.16,-94.52 59.15,-81.9 70.43,-74.11"/>
<polygon fill="#63b8ff" stroke="#63b8ff" points="73.28,-213.65 81.91,-219.8 79,-209.62 73.28,-213.65"/>
</a>
</g>
</g>
<!-- Node3&#45;&gt;Node7 -->
<g id="edge7_Node000003_Node000007" class="edge">
<title>Node3&#45;&gt;Node7</title>
<g id="a_edge7_Node000003_Node000007"><a xlink:title=" ">
<path fill="none" stroke="#63b8ff" d="M90.43,-209.95C93.78,-201.15 98.79,-191.06 103.48,-184.09"/>
<polygon fill="#63b8ff" stroke="#63b8ff" points="87.01,-209.16 87.3,-219.75 93.67,-211.29 87.01,-209.16"/>
</a>
</g>
</g>
<!-- Node5 -->
<g id="Node000005" class="node">
<title>Node5</title>
<g id="a_Node000005"><a xlink:href="all_8hpp.html" target="_top" xlink:title=" ">
<polygon fill="white" stroke="#666666" points="98.5,-19 48.5,-19 48.5,0 98.5,0 98.5,-19"/>
<text text-anchor="middle" x="73.5" y="-7" font-family="Helvetica,sans-Serif" font-size="10.00">all.hpp</text>
</a>
</g>
</g>
<!-- Node4&#45;&gt;Node5 -->
<g id="edge4_Node000004_Node000005" class="edge">
<title>Node4&#45;&gt;Node5</title>
<g id="a_edge4_Node000004_Node000005"><a xlink:title=" ">
<path fill="none" stroke="#63b8ff" d="M80.65,-44.95C78.82,-36.15 76.73,-26.06 75.28,-19.09"/>
<polygon fill="#63b8ff" stroke="#63b8ff" points="77.22,-45.67 82.68,-54.75 84.08,-44.25 77.22,-45.67"/>
</a>
</g>
</g>
<!-- Node6 -->
<g id="Node000006" class="node">
<title>Node6</title>
<g id="a_Node000006"><a xlink:href="help__printer_8hpp.html" target="_top" xlink:title=" ">
<polygon fill="white" stroke="#666666" points="212,-19 117,-19 117,0 212,0 212,-19"/>
<text text-anchor="middle" x="164.5" y="-7" font-family="Helvetica,sans-Serif" font-size="10.00">help_printer.hpp</text>
</a>
</g>
</g>
<!-- Node4&#45;&gt;Node6 -->
<g id="edge5_Node000004_Node000006" class="edge">
<title>Node4&#45;&gt;Node6</title>
<g id="a_edge5_Node000004_Node000006"><a xlink:title=" ">
<path fill="none" stroke="#63b8ff" d="M100.47,-48.88C113.76,-39.34 132.38,-27.21 146.26,-19.17"/>
<polygon fill="#63b8ff" stroke="#63b8ff" points="98.18,-46.21 92.24,-54.98 102.35,-51.83 98.18,-46.21"/>
</a>
</g>
</g>
<!-- Node6&#45;&gt;Node4 -->
<g id="edge6_Node000006_Node000004" class="edge">
<title>Node6&#45;&gt;Node4</title>
<g id="a_edge6_Node000006_Node000004"><a xlink:title=" ">
<path fill="none" stroke="#63b8ff" d="M148.28,-25.31C134.92,-34.88 116.29,-47 102.47,-54.98"/>
<polygon fill="#63b8ff" stroke="#63b8ff" points="150.61,-27.94 156.56,-19.17 146.44,-22.31 150.61,-27.94"/>
</a>
</g>
</g>
<!-- Node7&#45;&gt;Node3 -->
<g id="edge8_Node000007_Node000003" class="edge">
<title>Node7&#45;&gt;Node3</title>
<g id="a_edge8_Node000007_Node000003"><a xlink:title=" ">
<path fill="none" stroke="#63b8ff" d="M110.65,-193.84C107.32,-202.62 102.32,-212.72 97.63,-219.75"/>
<polygon fill="#63b8ff" stroke="#63b8ff" points="114.06,-194.68 113.74,-184.09 107.38,-192.56 114.06,-194.68"/>
</a>
</g>
</g>
<!-- Node7&#45;&gt;Node4 -->
<g id="edge9_Node000007_Node000004" class="edge">
<title>Node7&#45;&gt;Node4</title>
<g id="a_edge9_Node000007_Node000004"><a xlink:title=" ">
<path fill="none" stroke="#63b8ff" d="M116.75,-154.63C118.84,-141.77 120.05,-124.5 115.5,-110 111.1,-95.99 100.55,-82.53 92.98,-74.15"/>
<polygon fill="#63b8ff" stroke="#63b8ff" points="113.28,-154.14 114.8,-164.63 120.15,-155.48 113.28,-154.14"/>
</a>
</g>
</g>
<!-- Node7&#45;&gt;Node6 -->
<g id="edge12_Node000007_Node000006" class="edge">
<title>Node7&#45;&gt;Node6</title>
<g id="a_edge12_Node000007_Node000006"><a xlink:title=" ">
<path fill="none" stroke="#63b8ff" d="M120.36,-155.31C123.68,-147.32 127.48,-137.77 130.5,-129 144.45,-88.53 157.35,-38.97 162.33,-19.22"/>
<polygon fill="#63b8ff" stroke="#63b8ff" points="117.04,-154.17 116.36,-164.74 123.49,-156.9 117.04,-154.17"/>
</a>
</g>
</g>
<!-- Node7&#45;&gt;Node8 -->
<g id="edge10_Node000007_Node000008" class="edge">
<title>Node7&#45;&gt;Node8</title>
<g id="a_edge10_Node000007_Node000008"><a xlink:title=" ">
<path fill="none" stroke="#63b8ff" d="M100.88,-156.39C94.68,-147.27 87.33,-136.45 82.33,-129.09"/>
<polygon fill="#63b8ff" stroke="#63b8ff" points="98.04,-158.44 106.56,-164.75 103.83,-154.51 98.04,-158.44"/>
</a>
</g>
</g>
<!-- Node8&#45;&gt;Node4 -->
<g id="edge11_Node000008_Node000004" class="edge">
<title>Node8&#45;&gt;Node4</title>
<g id="a_edge11_Node000008_Node000004"><a xlink:title=" ">
<path fill="none" stroke="#63b8ff" d="M79.34,-99.66C80.66,-90.93 82.16,-80.99 83.2,-74.09"/>
<polygon fill="#63b8ff" stroke="#63b8ff" points="75.85,-99.34 77.82,-109.75 82.77,-100.38 75.85,-99.34"/>
</a>
</g>
</g>
<!-- Node9&#45;&gt;Node3 -->
<g id="edge15_Node000009_Node000003" class="edge">
<title>Node9&#45;&gt;Node3</title>
<g id="a_edge15_Node000009_Node000003"><a xlink:title=" ">
<path fill="none" stroke="#63b8ff" d="M88.5,-264.66C88.5,-255.93 88.5,-245.99 88.5,-239.09"/>
<polygon fill="#63b8ff" stroke="#63b8ff" points="85,-264.75 88.5,-274.75 92,-264.75 85,-264.75"/>
</a>
</g>
</g>
</g>
</svg>
</svg>

<style type='text/css'>
<![CDATA[
[data-mouse-over-selected='false'] { opacity: 0.7; }
[data-mouse-over-selected='true']  { opacity: 1.0; }
]]>
</style>
<script type="application/ecmascript"><![CDATA[
document.addEventListener('DOMContentLoaded', (event) => {
  highlightEdges();
  highlightAdjacentNodes();
});
]]></script>
</svg>
