<?xml version="1.0" encoding="UTF-8" standalone="no"?>
<!DOCTYPE svg PUBLIC "-//W3C//DTD SVG 1.1//EN"
 "http://www.w3.org/Graphics/SVG/1.1/DTD/svg11.dtd">
<!-- Generated by graphviz version 2.38.0 (20140413.2041)
 -->
<!-- Title: value_utils.hpp Pages: 1 -->
<svg width="353pt" height="196pt"
 viewBox="0.00 0.00 353.00 196.00" xmlns="http://www.w3.org/2000/svg" xmlns:xlink="http://www.w3.org/1999/xlink">
<g id="graph0" class="graph" transform="scale(1 1) rotate(0) translate(4 192)">
<title>value_utils.hpp</title>
<!-- Node1 -->
<g id="node1" class="node"><title>Node1</title>
<polygon fill="#bfbfbf" stroke="black" points="135,-168.5 135,-187.5 215,-187.5 215,-168.5 135,-168.5"/>
<text text-anchor="middle" x="175" y="-175.5" font-family="FreeSans" font-size="10.00">value_utils.hpp</text>
</g>
<!-- Node2 -->
<g id="node2" class="node"><title>Node2</title>
<g id="a_node2"><a xlink:href="utils_8hpp.html" target="_top" xlink:title="utils.hpp">
<polygon fill="none" stroke="black" points="176,-112.5 176,-131.5 228,-131.5 228,-112.5 176,-112.5"/>
<text text-anchor="middle" x="202" y="-119.5" font-family="FreeSans" font-size="10.00">utils.hpp</text>
</a>
</g>
</g>
<!-- Node1&#45;&gt;Node2 -->
<g id="edge1" class="edge"><title>Node1&#45;&gt;Node2</title>
<path fill="none" stroke="midnightblue" d="M179.459,-168.083C183.154,-160.691 188.523,-149.953 193.094,-140.811"/>
<polygon fill="midnightblue" stroke="midnightblue" points="196.283,-142.261 197.624,-131.751 190.022,-139.13 196.283,-142.261"/>
</g>
<!-- Node4 -->
<g id="node4" class="node"><title>Node4</title>
<g id="a_node4"><a xlink:href="types_8hpp.html" target="_top" xlink:title="types.hpp">
<polygon fill="none" stroke="black" points="76.5,-56.5 76.5,-75.5 133.5,-75.5 133.5,-56.5 76.5,-56.5"/>
<text text-anchor="middle" x="105" y="-63.5" font-family="FreeSans" font-size="10.00">types.hpp</text>
</a>
</g>
</g>
<!-- Node1&#45;&gt;Node4 -->
<g id="edge12" class="edge"><title>Node1&#45;&gt;Node4</title>
<path fill="none" stroke="midnightblue" d="M169.507,-168.368C158.006,-150.296 131.203,-108.176 116.014,-84.3074"/>
<polygon fill="midnightblue" stroke="midnightblue" points="118.789,-82.149 110.467,-75.5914 112.883,-85.9071 118.789,-82.149"/>
</g>
<!-- Node8 -->
<g id="node8" class="node"><title>Node8</title>
<polygon fill="none" stroke="#bfbfbf" points="289,-56.5 289,-75.5 345,-75.5 345,-56.5 289,-56.5"/>
<text text-anchor="middle" x="317" y="-63.5" font-family="FreeSans" font-size="10.00">algorithm</text>
</g>
<!-- Node1&#45;&gt;Node8 -->
<g id="edge13" class="edge"><title>Node1&#45;&gt;Node8</title>
<path fill="none" stroke="midnightblue" d="M187.498,-168.231C200.125,-159.301 220.125,-144.964 237,-132 258.553,-115.442 282.689,-95.6533 298.758,-82.2947"/>
<polygon fill="midnightblue" stroke="midnightblue" points="301.351,-84.6897 306.788,-75.5961 296.867,-79.3145 301.351,-84.6897"/>
</g>
<!-- Node10 -->
<g id="node10" class="node"><title>Node10</title>
<g id="a_node10"><a xlink:href="exceptions_8hpp.html" target="_top" xlink:title="exceptions.hpp">
<polygon fill="none" stroke="black" points="40,-112.5 40,-131.5 120,-131.5 120,-112.5 40,-112.5"/>
<text text-anchor="middle" x="80" y="-119.5" font-family="FreeSans" font-size="10.00">exceptions.hpp</text>
</a>
</g>
</g>
<!-- Node1&#45;&gt;Node10 -->
<g id="edge9" class="edge"><title>Node1&#45;&gt;Node10</title>
<path fill="none" stroke="midnightblue" d="M159.737,-168.324C144.779,-159.822 121.745,-146.729 104.273,-136.797"/>
<polygon fill="midnightblue" stroke="midnightblue" points="105.649,-133.553 95.2255,-131.655 102.19,-139.639 105.649,-133.553"/>
</g>
<!-- Node3 -->
<g id="node3" class="node"><title>Node3</title>
<polygon fill="none" stroke="#bfbfbf" points="231,-56.5 231,-75.5 271,-75.5 271,-56.5 231,-56.5"/>
<text text-anchor="middle" x="251" y="-63.5" font-family="FreeSans" font-size="10.00">regex</text>
</g>
<!-- Node2&#45;&gt;Node3 -->
<g id="edge2" class="edge"><title>Node2&#45;&gt;Node3</title>
<path fill="none" stroke="midnightblue" d="M210.091,-112.083C217.155,-104.298 227.588,-92.8015 236.149,-83.3665"/>
<polygon fill="midnightblue" stroke="midnightblue" points="238.931,-85.5087 243.059,-75.7511 233.747,-80.8047 238.931,-85.5087"/>
</g>
<!-- Node2&#45;&gt;Node4 -->
<g id="edge3" class="edge"><title>Node2&#45;&gt;Node4</title>
<path fill="none" stroke="midnightblue" d="M186.415,-112.324C171.001,-103.743 147.188,-90.486 129.29,-80.5224"/>
<polygon fill="midnightblue" stroke="midnightblue" points="130.986,-77.4606 120.546,-75.6545 127.581,-83.5767 130.986,-77.4606"/>
</g>
<!-- Node2&#45;&gt;Node8 -->
<g id="edge7" class="edge"><title>Node2&#45;&gt;Node8</title>
<path fill="none" stroke="midnightblue" d="M220.222,-112.444C238.896,-103.675 268.156,-89.9355 289.617,-79.8579"/>
<polygon fill="midnightblue" stroke="midnightblue" points="291.299,-82.935 298.863,-75.5164 288.324,-76.5988 291.299,-82.935"/>
</g>
<!-- Node9 -->
<g id="node9" class="node"><title>Node9</title>
<polygon fill="none" stroke="#bfbfbf" points="151.5,-56.5 151.5,-75.5 212.5,-75.5 212.5,-56.5 151.5,-56.5"/>
<text text-anchor="middle" x="182" y="-63.5" font-family="FreeSans" font-size="10.00">type_traits</text>
</g>
<!-- Node2&#45;&gt;Node9 -->
<g id="edge8" class="edge"><title>Node2&#45;&gt;Node9</title>
<path fill="none" stroke="midnightblue" d="M198.697,-112.083C196.018,-104.849 192.151,-94.4087 188.814,-85.3968"/>
<polygon fill="midnightblue" stroke="midnightblue" points="191.996,-83.9129 185.241,-75.7511 185.432,-86.3442 191.996,-83.9129"/>
</g>
<!-- Node5 -->
<g id="node5" class="node"><title>Node5</title>
<polygon fill="none" stroke="#bfbfbf" points="20,-0.5 20,-19.5 60,-19.5 60,-0.5 20,-0.5"/>
<text text-anchor="middle" x="40" y="-7.5" font-family="FreeSans" font-size="10.00">string</text>
</g>
<!-- Node4&#45;&gt;Node5 -->
<g id="edge4" class="edge"><title>Node4&#45;&gt;Node5</title>
<path fill="none" stroke="midnightblue" d="M94.5566,-56.324C84.8538,-48.2631 70.1847,-36.0765 58.5003,-26.3695"/>
<polygon fill="midnightblue" stroke="midnightblue" points="60.5619,-23.532 50.6334,-19.8339 56.0887,-28.9163 60.5619,-23.532"/>
</g>
<!-- Node6 -->
<g id="node6" class="node"><title>Node6</title>
<polygon fill="none" stroke="#bfbfbf" points="78.5,-0.5 78.5,-19.5 131.5,-19.5 131.5,-0.5 78.5,-0.5"/>
<text text-anchor="middle" x="105" y="-7.5" font-family="FreeSans" font-size="10.00">iostream</text>
</g>
<!-- Node4&#45;&gt;Node6 -->
<g id="edge5" class="edge"><title>Node4&#45;&gt;Node6</title>
<path fill="none" stroke="midnightblue" d="M105,-56.083C105,-49.0059 105,-38.8611 105,-29.9865"/>
<polygon fill="midnightblue" stroke="midnightblue" points="108.5,-29.751 105,-19.7511 101.5,-29.7511 108.5,-29.751"/>
</g>
<!-- Node7 -->
<g id="node7" class="node"><title>Node7</title>
<polygon fill="none" stroke="#bfbfbf" points="149.5,-0.5 149.5,-19.5 192.5,-19.5 192.5,-0.5 149.5,-0.5"/>
<text text-anchor="middle" x="171" y="-7.5" font-family="FreeSans" font-size="10.00">vector</text>
</g>
<!-- Node4&#45;&gt;Node7 -->
<g id="edge6" class="edge"><title>Node4&#45;&gt;Node7</title>
<path fill="none" stroke="midnightblue" d="M115.604,-56.324C125.456,-48.2631 140.351,-36.0765 152.215,-26.3695"/>
<polygon fill="midnightblue" stroke="midnightblue" points="154.68,-28.8752 160.203,-19.8339 150.247,-23.4575 154.68,-28.8752"/>
</g>
<!-- Node10&#45;&gt;Node4 -->
<g id="edge11" class="edge"><title>Node10&#45;&gt;Node4</title>
<path fill="none" stroke="midnightblue" d="M84.1282,-112.083C87.5139,-104.77 92.416,-94.1814 96.6188,-85.1034"/>
<polygon fill="midnightblue" stroke="midnightblue" points="99.9234,-86.2962 100.949,-75.7511 93.5711,-83.3553 99.9234,-86.2962"/>
</g>
<!-- Node11 -->
<g id="node11" class="node"><title>Node11</title>
<polygon fill="none" stroke="#bfbfbf" points="0,-56.5 0,-75.5 58,-75.5 58,-56.5 0,-56.5"/>
<text text-anchor="middle" x="29" y="-63.5" font-family="FreeSans" font-size="10.00">stdexcept</text>
</g>
<!-- Node10&#45;&gt;Node11 -->
<g id="edge10" class="edge"><title>Node10&#45;&gt;Node11</title>
<path fill="none" stroke="midnightblue" d="M71.5784,-112.083C64.1518,-104.22 53.1483,-92.5688 44.1878,-83.0813"/>
<polygon fill="midnightblue" stroke="midnightblue" points="46.6757,-80.618 37.2649,-75.7511 41.5866,-85.4244 46.6757,-80.618"/>
</g>
</g>
</svg>
