<?xml version="1.0" encoding="UTF-8" standalone="no"?>
<!DOCTYPE svg PUBLIC "-//W3C//DTD SVG 1.1//EN"
 "http://www.w3.org/Graphics/SVG/1.1/DTD/svg11.dtd">
<!-- Generated by graphviz version 2.43.0 (0)
 -->
<!-- Title: value_utils.hpp Pages: 1 -->
<svg width="388pt" height="196pt"
 viewBox="0.00 0.00 387.50 196.00" xmlns="http://www.w3.org/2000/svg" xmlns:xlink="http://www.w3.org/1999/xlink">
<g id="graph0" class="graph" transform="scale(1 1) rotate(0) translate(4 192)">
<title>value_utils.hpp</title>
<!-- Node1 -->
<g id="node1" class="node">
<title>Node1</title>
<g id="a_node1"><a xlink:title=" ">
<polygon fill="#bfbfbf" stroke="black" points="148,-168.5 148,-187.5 239,-187.5 239,-168.5 148,-168.5"/>
<text text-anchor="middle" x="193.5" y="-175.5" font-family="Helvetica,sans-Serif" font-size="10.00">value_utils.hpp</text>
</a>
</g>
</g>
<!-- Node2 -->
<g id="node2" class="node">
<title>Node2</title>
<g id="a_node2"><a xlink:href="utils_8hpp.html" target="_top" xlink:title=" ">
<polygon fill="none" stroke="black" points="193,-112.5 193,-131.5 252,-131.5 252,-112.5 193,-112.5"/>
<text text-anchor="middle" x="222.5" y="-119.5" font-family="Helvetica,sans-Serif" font-size="10.00">utils.hpp</text>
</a>
</g>
</g>
<!-- Node1&#45;&gt;Node2 -->
<g id="edge1" class="edge">
<title>Node1&#45;&gt;Node2</title>
<path fill="none" stroke="midnightblue" d="M198.29,-168.08C202.26,-160.69 208.03,-149.95 212.93,-140.81"/>
<polygon fill="midnightblue" stroke="midnightblue" points="216.15,-142.22 217.8,-131.75 209.99,-138.91 216.15,-142.22"/>
</g>
<!-- Node4 -->
<g id="node4" class="node">
<title>Node4</title>
<g id="a_node4"><a xlink:href="types_8hpp.html" target="_top" xlink:title=" ">
<polygon fill="none" stroke="black" points="83,-56.5 83,-75.5 148,-75.5 148,-56.5 83,-56.5"/>
<text text-anchor="middle" x="115.5" y="-63.5" font-family="Helvetica,sans-Serif" font-size="10.00">types.hpp</text>
</a>
</g>
</g>
<!-- Node1&#45;&gt;Node4 -->
<g id="edge12" class="edge">
<title>Node1&#45;&gt;Node4</title>
<path fill="none" stroke="midnightblue" d="M187.38,-168.37C174.51,-150.22 144.43,-107.8 127.55,-83.99"/>
<polygon fill="midnightblue" stroke="midnightblue" points="130.23,-81.72 121.59,-75.59 124.52,-85.77 130.23,-81.72"/>
</g>
<!-- Node8 -->
<g id="node8" class="node">
<title>Node8</title>
<g id="a_node8"><a xlink:title=" ">
<polygon fill="none" stroke="#bfbfbf" points="315.5,-56.5 315.5,-75.5 379.5,-75.5 379.5,-56.5 315.5,-56.5"/>
<text text-anchor="middle" x="347.5" y="-63.5" font-family="Helvetica,sans-Serif" font-size="10.00">algorithm</text>
</a>
</g>
</g>
<!-- Node1&#45;&gt;Node8 -->
<g id="edge13" class="edge">
<title>Node1&#45;&gt;Node8</title>
<path fill="none" stroke="midnightblue" d="M206.96,-168.45C220.8,-159.57 242.9,-145.17 261.5,-132 284.92,-115.43 311.12,-95.4 328.38,-81.99"/>
<polygon fill="midnightblue" stroke="midnightblue" points="330.8,-84.55 336.53,-75.64 326.49,-79.03 330.8,-84.55"/>
</g>
<!-- Node10 -->
<g id="node10" class="node">
<title>Node10</title>
<g id="a_node10"><a xlink:href="exceptions_8hpp.html" target="_top" xlink:title=" ">
<polygon fill="none" stroke="black" points="45,-112.5 45,-131.5 136,-131.5 136,-112.5 45,-112.5"/>
<text text-anchor="middle" x="90.5" y="-119.5" font-family="Helvetica,sans-Serif" font-size="10.00">exceptions.hpp</text>
</a>
</g>
</g>
<!-- Node1&#45;&gt;Node10 -->
<g id="edge9" class="edge">
<title>Node1&#45;&gt;Node10</title>
<path fill="none" stroke="midnightblue" d="M176.95,-168.32C160.51,-159.7 135.07,-146.36 116.03,-136.39"/>
<polygon fill="midnightblue" stroke="midnightblue" points="117.49,-133.2 107.01,-131.65 114.24,-139.4 117.49,-133.2"/>
</g>
<!-- Node3 -->
<g id="node3" class="node">
<title>Node3</title>
<g id="a_node3"><a xlink:title=" ">
<polygon fill="none" stroke="#bfbfbf" points="253.5,-56.5 253.5,-75.5 297.5,-75.5 297.5,-56.5 253.5,-56.5"/>
<text text-anchor="middle" x="275.5" y="-63.5" font-family="Helvetica,sans-Serif" font-size="10.00">regex</text>
</a>
</g>
</g>
<!-- Node2&#45;&gt;Node3 -->
<g id="edge2" class="edge">
<title>Node2&#45;&gt;Node3</title>
<path fill="none" stroke="midnightblue" d="M231.25,-112.08C238.97,-104.22 250.4,-92.57 259.72,-83.08"/>
<polygon fill="midnightblue" stroke="midnightblue" points="262.4,-85.34 266.91,-75.75 257.41,-80.44 262.4,-85.34"/>
</g>
<!-- Node2&#45;&gt;Node4 -->
<g id="edge3" class="edge">
<title>Node2&#45;&gt;Node4</title>
<path fill="none" stroke="midnightblue" d="M205.31,-112.32C188.15,-103.66 161.55,-90.24 141.75,-80.25"/>
<polygon fill="midnightblue" stroke="midnightblue" points="143.15,-77.04 132.65,-75.65 140,-83.28 143.15,-77.04"/>
</g>
<!-- Node2&#45;&gt;Node8 -->
<g id="edge7" class="edge">
<title>Node2&#45;&gt;Node8</title>
<path fill="none" stroke="midnightblue" d="M242.31,-112.44C262.79,-103.6 294.98,-89.69 318.36,-79.59"/>
<polygon fill="midnightblue" stroke="midnightblue" points="319.99,-82.7 327.79,-75.52 317.22,-76.27 319.99,-82.7"/>
</g>
<!-- Node9 -->
<g id="node9" class="node">
<title>Node9</title>
<g id="a_node9"><a xlink:title=" ">
<polygon fill="none" stroke="#bfbfbf" points="166,-56.5 166,-75.5 235,-75.5 235,-56.5 166,-56.5"/>
<text text-anchor="middle" x="200.5" y="-63.5" font-family="Helvetica,sans-Serif" font-size="10.00">type_traits</text>
</a>
</g>
</g>
<!-- Node2&#45;&gt;Node9 -->
<g id="edge8" class="edge">
<title>Node2&#45;&gt;Node9</title>
<path fill="none" stroke="midnightblue" d="M218.87,-112.08C215.89,-104.77 211.57,-94.18 207.88,-85.1"/>
<polygon fill="midnightblue" stroke="midnightblue" points="211.08,-83.69 204.07,-75.75 204.6,-86.33 211.08,-83.69"/>
</g>
<!-- Node5 -->
<g id="node5" class="node">
<title>Node5</title>
<g id="a_node5"><a xlink:title=" ">
<polygon fill="none" stroke="#bfbfbf" points="23.5,-0.5 23.5,-19.5 67.5,-19.5 67.5,-0.5 23.5,-0.5"/>
<text text-anchor="middle" x="45.5" y="-7.5" font-family="Helvetica,sans-Serif" font-size="10.00">string</text>
</a>
</g>
</g>
<!-- Node4&#45;&gt;Node5 -->
<g id="edge4" class="edge">
<title>Node4&#45;&gt;Node5</title>
<path fill="none" stroke="midnightblue" d="M104.25,-56.32C93.7,-48.18 77.7,-35.84 65.06,-26.09"/>
<polygon fill="midnightblue" stroke="midnightblue" points="67.01,-23.17 56.95,-19.83 62.73,-28.71 67.01,-23.17"/>
</g>
<!-- Node6 -->
<g id="node6" class="node">
<title>Node6</title>
<g id="a_node6"><a xlink:title=" ">
<polygon fill="none" stroke="#bfbfbf" points="85.5,-0.5 85.5,-19.5 145.5,-19.5 145.5,-0.5 85.5,-0.5"/>
<text text-anchor="middle" x="115.5" y="-7.5" font-family="Helvetica,sans-Serif" font-size="10.00">iostream</text>
</a>
</g>
</g>
<!-- Node4&#45;&gt;Node6 -->
<g id="edge5" class="edge">
<title>Node4&#45;&gt;Node6</title>
<path fill="none" stroke="midnightblue" d="M115.5,-56.08C115.5,-49.01 115.5,-38.86 115.5,-29.99"/>
<polygon fill="midnightblue" stroke="midnightblue" points="119,-29.75 115.5,-19.75 112,-29.75 119,-29.75"/>
</g>
<!-- Node7 -->
<g id="node7" class="node">
<title>Node7</title>
<g id="a_node7"><a xlink:title=" ">
<polygon fill="none" stroke="#bfbfbf" points="164,-0.5 164,-19.5 211,-19.5 211,-0.5 164,-0.5"/>
<text text-anchor="middle" x="187.5" y="-7.5" font-family="Helvetica,sans-Serif" font-size="10.00">vector</text>
</a>
</g>
</g>
<!-- Node4&#45;&gt;Node7 -->
<g id="edge6" class="edge">
<title>Node4&#45;&gt;Node7</title>
<path fill="none" stroke="midnightblue" d="M127.07,-56.32C137.92,-48.18 154.38,-35.84 167.38,-26.09"/>
<polygon fill="midnightblue" stroke="midnightblue" points="169.82,-28.63 175.72,-19.83 165.62,-23.03 169.82,-28.63"/>
</g>
<!-- Node10&#45;&gt;Node4 -->
<g id="edge11" class="edge">
<title>Node10&#45;&gt;Node4</title>
<path fill="none" stroke="midnightblue" d="M94.63,-112.08C98.01,-104.77 102.92,-94.18 107.12,-85.1"/>
<polygon fill="midnightblue" stroke="midnightblue" points="110.42,-86.3 111.45,-75.75 104.07,-83.36 110.42,-86.3"/>
</g>
<!-- Node11 -->
<g id="node11" class="node">
<title>Node11</title>
<g id="a_node11"><a xlink:title=" ">
<polygon fill="none" stroke="#bfbfbf" points="0,-56.5 0,-75.5 65,-75.5 65,-56.5 0,-56.5"/>
<text text-anchor="middle" x="32.5" y="-63.5" font-family="Helvetica,sans-Serif" font-size="10.00">stdexcept</text>
</a>
</g>
</g>
<!-- Node10&#45;&gt;Node11 -->
<g id="edge10" class="edge">
<title>Node10&#45;&gt;Node11</title>
<path fill="none" stroke="midnightblue" d="M81.18,-112.32C72.61,-104.34 59.69,-92.31 49.31,-82.65"/>
<polygon fill="midnightblue" stroke="midnightblue" points="51.69,-80.09 41.99,-75.83 46.92,-85.21 51.69,-80.09"/>
</g>
</g>
</svg>
