<?xml version="1.0" encoding="UTF-8" standalone="no"?>
<!DOCTYPE svg PUBLIC "-//W3C//DTD SVG 1.1//EN"
 "http://www.w3.org/Graphics/SVG/1.1/DTD/svg11.dtd">
<!-- Generated by graphviz version 14.1.2 (0)
 -->
<!-- Title: value_utils.hpp Pages: 1 -->
<svg width="205pt" height="420pt"
 viewBox="0.00 0.00 205.00 420.00" xmlns="http://www.w3.org/2000/svg" xmlns:xlink="http://www.w3.org/1999/xlink">

<svg id="main" version="1.1" xmlns="http://www.w3.org/2000/svg" xmlns:xlink="http://www.w3.org/1999/xlink" xml:space="preserve">

<style type="text/css"><![CDATA[
.node, .edge {opacity: 0.7;}
.node.selected, .edge.selected {opacity: 1;}
.edge:hover path { stroke: red; }
.edge:hover polygon { stroke: red; fill: red; }
]]></style>
<script type="application/ecmascript" xlink:href="svg.min.js"/>
<svg id="graph" class="graph">
<g id="graph0" class="graph" transform="scale(1 1) rotate(0) translate(4 416)">
<title>value_utils.hpp</title>
<!-- Node1 -->
<g id="Node000001" class="node">
<title>Node1</title>
<g id="a_Node000001"><a xlink:title=" ">
<polygon fill="#999999" stroke="#666666" points="122.75,-412 41.5,-412 41.5,-392 122.75,-392 122.75,-412"/>
<text xml:space="preserve" text-anchor="middle" x="82.12" y="-398.5" font-family="Helvetica,sans-Serif" font-size="10.00">value_utils.hpp</text>
</a>
</g>
</g>
<!-- Node2 -->
<g id="Node000002" class="node">
<title>Node2</title>
<g id="a_Node000002"><a xlink:href="arg_8hpp.html" target="_top" xlink:title=" ">
<polygon fill="white" stroke="#666666" points="48.25,-356 0,-356 0,-336 48.25,-336 48.25,-356"/>
<text xml:space="preserve" text-anchor="middle" x="24.12" y="-342.5" font-family="Helvetica,sans-Serif" font-size="10.00">arg.hpp</text>
</a>
</g>
</g>
<!-- Node1&#45;&gt;Node2 -->
<g id="edge1_Node000001_Node000002" class="edge">
<title>Node1&#45;&gt;Node2</title>
<g id="a_edge1_Node000001_Node000002"><a xlink:title=" ">
<path fill="none" stroke="#63b8ff" d="M63.7,-383.85C53.9,-374.72 42.23,-363.86 34.11,-356.3"/>
<polygon fill="#63b8ff" stroke="#63b8ff" points="61.21,-386.31 70.91,-390.56 65.98,-381.19 61.21,-386.31"/>
</a>
</g>
</g>
<!-- Node7 -->
<g id="Node000007" class="node">
<title>Node7</title>
<g id="a_Node000007"><a xlink:href="command_8hpp.html" target="_top" xlink:title=" ">
<polygon fill="white" stroke="#666666" points="143.88,-188 66.38,-188 66.38,-168 143.88,-168 143.88,-188"/>
<text xml:space="preserve" text-anchor="middle" x="105.12" y="-174.5" font-family="Helvetica,sans-Serif" font-size="10.00">command.hpp</text>
</a>
</g>
</g>
<!-- Node1&#45;&gt;Node7 -->
<g id="edge16_Node000001_Node000007" class="edge">
<title>Node1&#45;&gt;Node7</title>
<g id="a_edge16_Node000001_Node000007"><a xlink:title=" ">
<path fill="none" stroke="#63b8ff" d="M93.83,-381.9C105.17,-362.21 121.57,-330.2 128.12,-300 137.1,-258.62 118.43,-208.87 109.51,-188.45"/>
<polygon fill="#63b8ff" stroke="#63b8ff" points="90.87,-380.04 88.78,-390.43 96.89,-383.61 90.87,-380.04"/>
</a>
</g>
</g>
<!-- Node9 -->
<g id="Node000009" class="node">
<title>Node9</title>
<g id="a_Node000009"><a xlink:href="multi__arg_8hpp.html" target="_top" xlink:title=" ">
<polygon fill="white" stroke="#666666" points="119.38,-300 44.88,-300 44.88,-280 119.38,-280 119.38,-300"/>
<text xml:space="preserve" text-anchor="middle" x="82.12" y="-286.5" font-family="Helvetica,sans-Serif" font-size="10.00">multi_arg.hpp</text>
</a>
</g>
</g>
<!-- Node1&#45;&gt;Node9 -->
<g id="edge17_Node000001_Node000009" class="edge">
<title>Node1&#45;&gt;Node9</title>
<g id="a_edge17_Node000001_Node000009"><a xlink:title=" ">
<path fill="none" stroke="#63b8ff" d="M82.12,-380.31C82.12,-356.36 82.12,-317.95 82.12,-300.35"/>
<polygon fill="#63b8ff" stroke="#63b8ff" points="78.63,-380.11 82.13,-390.11 85.63,-380.11 78.63,-380.11"/>
</a>
</g>
</g>
<!-- Node3 -->
<g id="Node000003" class="node">
<title>Node3</title>
<g id="a_Node000003"><a xlink:href="api_8hpp.html" target="_top" xlink:title=" ">
<polygon fill="white" stroke="#666666" points="105.88,-244 58.38,-244 58.38,-224 105.88,-224 105.88,-244"/>
<text xml:space="preserve" text-anchor="middle" x="82.12" y="-230.5" font-family="Helvetica,sans-Serif" font-size="10.00">api.hpp</text>
</a>
</g>
</g>
<!-- Node2&#45;&gt;Node3 -->
<g id="edge2_Node000002_Node000003" class="edge">
<title>Node2&#45;&gt;Node3</title>
<g id="a_edge2_Node000002_Node000003"><a xlink:title=" ">
<path fill="none" stroke="#63b8ff" d="M24.75,-324.29C25.91,-310.97 28.85,-293.66 36.12,-280 43.9,-265.41 58.06,-252.65 68.62,-244.48"/>
<polygon fill="#63b8ff" stroke="#63b8ff" points="21.27,-323.9 24.2,-334.08 28.26,-324.3 21.27,-323.9"/>
</a>
</g>
</g>
<!-- Node8 -->
<g id="Node000008" class="node">
<title>Node8</title>
<g id="a_Node000008"><a xlink:href="help_8hpp.html" target="_top" xlink:title=" ">
<polygon fill="white" stroke="#666666" points="97.5,-132 44.75,-132 44.75,-112 97.5,-112 97.5,-132"/>
<text xml:space="preserve" text-anchor="middle" x="71.12" y="-118.5" font-family="Helvetica,sans-Serif" font-size="10.00">help.hpp</text>
</a>
</g>
</g>
<!-- Node2&#45;&gt;Node8 -->
<g id="edge13_Node000002_Node000008" class="edge">
<title>Node2&#45;&gt;Node8</title>
<g id="a_edge13_Node000002_Node000008"><a xlink:title=" ">
<path fill="none" stroke="#63b8ff" d="M23.07,-324.4C22.75,-311.56 22.95,-294.74 25.12,-280 33.64,-222.4 58.02,-156.37 67.39,-132.35"/>
<polygon fill="#63b8ff" stroke="#63b8ff" points="19.56,-324.31 23.45,-334.17 26.56,-324.04 19.56,-324.31"/>
</a>
</g>
</g>
<!-- Node2&#45;&gt;Node9 -->
<g id="edge14_Node000002_Node000009" class="edge">
<title>Node2&#45;&gt;Node9</title>
<g id="a_edge14_Node000002_Node000009"><a xlink:title=" ">
<path fill="none" stroke="#63b8ff" d="M42.55,-327.85C52.35,-318.72 64.02,-307.86 72.14,-300.3"/>
<polygon fill="#63b8ff" stroke="#63b8ff" points="40.27,-325.19 35.34,-334.56 45.04,-330.31 40.27,-325.19"/>
</a>
</g>
</g>
<!-- Node4 -->
<g id="Node000004" class="node">
<title>Node4</title>
<g id="a_Node000004"><a xlink:href="cmd__line_8hpp.html" target="_top" xlink:title=" ">
<polygon fill="white" stroke="#666666" points="117,-76 43.25,-76 43.25,-56 117,-56 117,-76"/>
<text xml:space="preserve" text-anchor="middle" x="80.12" y="-62.5" font-family="Helvetica,sans-Serif" font-size="10.00">cmd_line.hpp</text>
</a>
</g>
</g>
<!-- Node3&#45;&gt;Node4 -->
<g id="edge3_Node000003_Node000004" class="edge">
<title>Node3&#45;&gt;Node4</title>
<g id="a_edge3_Node000003_Node000004"><a xlink:title=" ">
<path fill="none" stroke="#63b8ff" d="M69.96,-213.95C58.28,-194.33 41.64,-162.39 36.12,-132 34.54,-123.25 32.77,-120.23 36.12,-112 42.23,-97.03 55.98,-84.32 66.5,-76.27"/>
<polygon fill="#63b8ff" stroke="#63b8ff" points="66.82,-215.53 75.04,-222.22 72.78,-211.86 66.82,-215.53"/>
</a>
</g>
</g>
<!-- Node3&#45;&gt;Node7 -->
<g id="edge7_Node000003_Node000007" class="edge">
<title>Node3&#45;&gt;Node7</title>
<g id="a_edge7_Node000003_Node000007"><a xlink:title=" ">
<path fill="none" stroke="#63b8ff" d="M84.2,-212.71C87.3,-204.32 91.7,-195.01 95.92,-188.3"/>
<polygon fill="#63b8ff" stroke="#63b8ff" points="80.9,-211.56 81.31,-222.15 87.59,-213.61 80.9,-211.56"/>
</a>
</g>
</g>
<!-- Node5 -->
<g id="Node000005" class="node">
<title>Node5</title>
<g id="a_Node000005"><a xlink:href="all_8hpp.html" target="_top" xlink:title=" ">
<polygon fill="white" stroke="#666666" points="93.38,-20 48.88,-20 48.88,0 93.38,0 93.38,-20"/>
<text xml:space="preserve" text-anchor="middle" x="71.12" y="-6.5" font-family="Helvetica,sans-Serif" font-size="10.00">all.hpp</text>
</a>
</g>
</g>
<!-- Node4&#45;&gt;Node5 -->
<g id="edge4_Node000004_Node000005" class="edge">
<title>Node4&#45;&gt;Node5</title>
<g id="a_edge4_Node000004_Node000005"><a xlink:title=" ">
<path fill="none" stroke="#63b8ff" d="M76.7,-44.43C75.31,-36.11 73.78,-26.93 72.67,-20.3"/>
<polygon fill="#63b8ff" stroke="#63b8ff" points="73.21,-44.81 78.31,-54.1 80.12,-43.66 73.21,-44.81"/>
</a>
</g>
</g>
<!-- Node6 -->
<g id="Node000006" class="node">
<title>Node6</title>
<g id="a_Node000006"><a xlink:href="help__printer_8hpp.html" target="_top" xlink:title=" ">
<polygon fill="white" stroke="#666666" points="196.62,-20 111.62,-20 111.62,0 196.62,0 196.62,-20"/>
<text xml:space="preserve" text-anchor="middle" x="154.12" y="-6.5" font-family="Helvetica,sans-Serif" font-size="10.00">help_printer.hpp</text>
</a>
</g>
</g>
<!-- Node4&#45;&gt;Node6 -->
<g id="edge5_Node000004_Node000006" class="edge">
<title>Node4&#45;&gt;Node6</title>
<g id="a_edge5_Node000004_Node000006"><a xlink:title=" ">
<path fill="none" stroke="#63b8ff" d="M96.53,-48.45C108.23,-39.28 123.74,-28.2 135.85,-20.48"/>
<polygon fill="#63b8ff" stroke="#63b8ff" points="94.47,-45.61 88.92,-54.64 98.89,-51.04 94.47,-45.61"/>
</a>
</g>
</g>
<!-- Node6&#45;&gt;Node4 -->
<g id="edge6_Node000006_Node000004" class="edge">
<title>Node6&#45;&gt;Node4</title>
<g id="a_edge6_Node000006_Node000004"><a xlink:title=" ">
<path fill="none" stroke="#63b8ff" d="M137.83,-27.47C126.08,-36.69 110.44,-47.85 98.28,-55.59"/>
<polygon fill="#63b8ff" stroke="#63b8ff" points="139.91,-30.28 145.45,-21.25 135.49,-24.86 139.91,-30.28"/>
</a>
</g>
</g>
<!-- Node7&#45;&gt;Node3 -->
<g id="edge8_Node000007_Node000003" class="edge">
<title>Node7&#45;&gt;Node3</title>
<g id="a_edge8_Node000007_Node000003"><a xlink:title=" ">
<path fill="none" stroke="#63b8ff" d="M103.1,-199.15C100.02,-207.53 95.62,-216.86 91.4,-223.59"/>
<polygon fill="#63b8ff" stroke="#63b8ff" points="106.39,-200.33 105.97,-189.75 99.7,-198.29 106.39,-200.33"/>
</a>
</g>
</g>
<!-- Node7&#45;&gt;Node4 -->
<g id="edge9_Node000007_Node000004" class="edge">
<title>Node7&#45;&gt;Node4</title>
<g id="a_edge9_Node000007_Node000004"><a xlink:title=" ">
<path fill="none" stroke="#63b8ff" d="M108.32,-156.15C109.6,-143.22 109.98,-126.39 106.12,-112 102.53,-98.58 93.85,-85.02 87.5,-76.35"/>
<polygon fill="#63b8ff" stroke="#63b8ff" points="104.85,-155.68 107.06,-166.04 111.79,-156.57 104.85,-155.68"/>
</a>
</g>
</g>
<!-- Node7&#45;&gt;Node6 -->
<g id="edge12_Node000007_Node000006" class="edge">
<title>Node7&#45;&gt;Node6</title>
<g id="a_edge12_Node000007_Node000006"><a xlink:title=" ">
<path fill="none" stroke="#63b8ff" d="M112.54,-157.15C115.36,-149.36 118.52,-140.3 121.12,-132 134.03,-90.86 146.71,-40.98 151.8,-20.48"/>
<polygon fill="#63b8ff" stroke="#63b8ff" points="109.33,-155.75 109.16,-166.34 115.9,-158.17 109.33,-155.75"/>
</a>
</g>
</g>
<!-- Node7&#45;&gt;Node8 -->
<g id="edge10_Node000007_Node000008" class="edge">
<title>Node7&#45;&gt;Node8</title>
<g id="a_edge10_Node000007_Node000008"><a xlink:title=" ">
<path fill="none" stroke="#63b8ff" d="M93.08,-157.87C87.61,-149.19 81.4,-139.32 76.98,-132.3"/>
<polygon fill="#63b8ff" stroke="#63b8ff" points="90.11,-159.72 98.4,-166.31 96.03,-155.99 90.11,-159.72"/>
</a>
</g>
</g>
<!-- Node8&#45;&gt;Node4 -->
<g id="edge11_Node000008_Node000004" class="edge">
<title>Node8&#45;&gt;Node4</title>
<g id="a_edge11_Node000008_Node000004"><a xlink:title=" ">
<path fill="none" stroke="#63b8ff" d="M74.55,-100.43C75.94,-92.11 77.47,-82.93 78.58,-76.3"/>
<polygon fill="#63b8ff" stroke="#63b8ff" points="71.13,-99.66 72.94,-110.1 78.04,-100.81 71.13,-99.66"/>
</a>
</g>
</g>
<!-- Node9&#45;&gt;Node3 -->
<g id="edge15_Node000009_Node000003" class="edge">
<title>Node9&#45;&gt;Node3</title>
<g id="a_edge15_Node000009_Node000003"><a xlink:title=" ">
<path fill="none" stroke="#63b8ff" d="M82.12,-268.13C82.12,-259.9 82.12,-250.85 82.12,-244.3"/>
<polygon fill="#63b8ff" stroke="#63b8ff" points="78.63,-268.08 82.13,-278.08 85.63,-268.08 78.63,-268.08"/>
</a>
</g>
</g>
</g>
</svg>
</svg>

<style type='text/css'>
<![CDATA[
[data-mouse-over-selected='false'] { opacity: 0.7; }
[data-mouse-over-selected='true']  { opacity: 1.0; }
]]>
</style>
<script type="application/ecmascript"><![CDATA[
document.addEventListener('DOMContentLoaded', (event) => {
  highlightEdges();
  highlightAdjacentNodes();
});
]]></script>
</svg>
