<?xml version="1.0" encoding="UTF-8" standalone="no"?>
<!DOCTYPE svg PUBLIC "-//W3C//DTD SVG 1.1//EN"
 "http://www.w3.org/Graphics/SVG/1.1/DTD/svg11.dtd">
<!-- Generated by graphviz version 2.38.0 (20140413.2041)
 -->
<!-- Title: value_utils.hpp Pages: 1 -->
<svg width="319pt" height="308pt"
 viewBox="0.00 0.00 318.50 308.00" xmlns="http://www.w3.org/2000/svg" xmlns:xlink="http://www.w3.org/1999/xlink">
<g id="graph0" class="graph" transform="scale(1 1) rotate(0) translate(4 304)">
<title>value_utils.hpp</title>
<!-- Node1 -->
<g id="node1" class="node"><title>Node1</title>
<polygon fill="#bfbfbf" stroke="black" points="62.5,-280.5 62.5,-299.5 144.5,-299.5 144.5,-280.5 62.5,-280.5"/>
<text text-anchor="middle" x="103.5" y="-287.5" font-family="Helvetica,sans-Serif" font-size="10.00">value_utils.hpp</text>
</g>
<!-- Node2 -->
<g id="node2" class="node"><title>Node2</title>
<g id="a_node2"><a xlink:href="arg_8hpp.html" target="_top" xlink:title="arg.hpp">
<polygon fill="none" stroke="black" points="79,-224.5 79,-243.5 128,-243.5 128,-224.5 79,-224.5"/>
<text text-anchor="middle" x="103.5" y="-231.5" font-family="Helvetica,sans-Serif" font-size="10.00">arg.hpp</text>
</a>
</g>
</g>
<!-- Node1&#45;&gt;Node2 -->
<g id="edge1" class="edge"><title>Node1&#45;&gt;Node2</title>
<path fill="none" stroke="midnightblue" d="M103.5,-269.805C103.5,-260.91 103.5,-250.78 103.5,-243.751"/>
<polygon fill="midnightblue" stroke="midnightblue" points="100,-270.083 103.5,-280.083 107,-270.083 100,-270.083"/>
</g>
<!-- Node7 -->
<g id="node7" class="node"><title>Node7</title>
<g id="a_node7"><a xlink:href="multi__arg_8hpp.html" target="_top" xlink:title="multi_arg.hpp">
<polygon fill="none" stroke="black" points="0,-168.5 0,-187.5 75,-187.5 75,-168.5 0,-168.5"/>
<text text-anchor="middle" x="37.5" y="-175.5" font-family="Helvetica,sans-Serif" font-size="10.00">multi_arg.hpp</text>
</a>
</g>
</g>
<!-- Node1&#45;&gt;Node7 -->
<g id="edge11" class="edge"><title>Node1&#45;&gt;Node7</title>
<path fill="none" stroke="midnightblue" d="M89.9206,-272.601C83.3567,-264.297 75.6,-253.899 69.5,-244 57.6224,-224.725 46.6274,-200.421 41.1459,-187.688"/>
<polygon fill="midnightblue" stroke="midnightblue" points="87.2036,-274.808 96.2096,-280.389 92.6495,-270.41 87.2036,-274.808"/>
</g>
<!-- Node9 -->
<g id="node9" class="node"><title>Node9</title>
<g id="a_node9"><a xlink:href="command_8hpp.html" target="_top" xlink:title="command.hpp">
<polygon fill="none" stroke="black" points="169.5,-168.5 169.5,-187.5 247.5,-187.5 247.5,-168.5 169.5,-168.5"/>
<text text-anchor="middle" x="208.5" y="-175.5" font-family="Helvetica,sans-Serif" font-size="10.00">command.hpp</text>
</a>
</g>
</g>
<!-- Node1&#45;&gt;Node9 -->
<g id="edge12" class="edge"><title>Node1&#45;&gt;Node9</title>
<path fill="none" stroke="midnightblue" d="M118.871,-272.897C141.445,-249.249 182.776,-205.949 200.299,-187.591"/>
<polygon fill="midnightblue" stroke="midnightblue" points="116.112,-270.718 111.739,-280.368 121.176,-275.552 116.112,-270.718"/>
</g>
<!-- Node3 -->
<g id="node3" class="node"><title>Node3</title>
<g id="a_node3"><a xlink:href="api_8hpp.html" target="_top" xlink:title="api.hpp">
<polygon fill="none" stroke="black" points="48.5,-112.5 48.5,-131.5 96.5,-131.5 96.5,-112.5 48.5,-112.5"/>
<text text-anchor="middle" x="72.5" y="-119.5" font-family="Helvetica,sans-Serif" font-size="10.00">api.hpp</text>
</a>
</g>
</g>
<!-- Node2&#45;&gt;Node3 -->
<g id="edge2" class="edge"><title>Node2&#45;&gt;Node3</title>
<path fill="none" stroke="midnightblue" d="M98.3354,-214.674C91.5579,-190.625 79.9367,-149.388 74.9212,-131.591"/>
<polygon fill="midnightblue" stroke="midnightblue" points="94.9861,-215.693 101.067,-224.368 101.724,-213.794 94.9861,-215.693"/>
</g>
<!-- Node2&#45;&gt;Node7 -->
<g id="edge7" class="edge"><title>Node2&#45;&gt;Node7</title>
<path fill="none" stroke="midnightblue" d="M84.9463,-217.82C73.1219,-208.145 58.2144,-195.948 48.297,-187.834"/>
<polygon fill="midnightblue" stroke="midnightblue" points="82.94,-220.7 92.896,-224.324 87.3727,-215.283 82.94,-220.7"/>
</g>
<!-- Node8 -->
<g id="node8" class="node"><title>Node8</title>
<g id="a_node8"><a xlink:href="help_8hpp.html" target="_top" xlink:title="help.hpp">
<polygon fill="none" stroke="black" points="115,-112.5 115,-131.5 168,-131.5 168,-112.5 115,-112.5"/>
<text text-anchor="middle" x="141.5" y="-119.5" font-family="Helvetica,sans-Serif" font-size="10.00">help.hpp</text>
</a>
</g>
</g>
<!-- Node2&#45;&gt;Node8 -->
<g id="edge9" class="edge"><title>Node2&#45;&gt;Node8</title>
<path fill="none" stroke="midnightblue" d="M109.831,-214.674C118.139,-190.625 132.384,-149.388 138.532,-131.591"/>
<polygon fill="midnightblue" stroke="midnightblue" points="106.439,-213.774 106.482,-224.368 113.055,-216.059 106.439,-213.774"/>
</g>
<!-- Node4 -->
<g id="node4" class="node"><title>Node4</title>
<g id="a_node4"><a xlink:href="cmd__line_8hpp.html" target="_top" xlink:title="cmd_line.hpp">
<polygon fill="none" stroke="black" points="118.5,-56.5 118.5,-75.5 192.5,-75.5 192.5,-56.5 118.5,-56.5"/>
<text text-anchor="middle" x="155.5" y="-63.5" font-family="Helvetica,sans-Serif" font-size="10.00">cmd_line.hpp</text>
</a>
</g>
</g>
<!-- Node3&#45;&gt;Node4 -->
<g id="edge3" class="edge"><title>Node3&#45;&gt;Node4</title>
<path fill="none" stroke="midnightblue" d="M94.5993,-106.622C109.762,-96.7574 129.383,-83.9919 142.198,-75.6545"/>
<polygon fill="midnightblue" stroke="midnightblue" points="92.3088,-103.937 85.8354,-112.324 96.1262,-109.804 92.3088,-103.937"/>
</g>
<!-- Node5 -->
<g id="node5" class="node"><title>Node5</title>
<g id="a_node5"><a xlink:href="all_8hpp.html" target="_top" xlink:title="all.hpp">
<polygon fill="none" stroke="black" points="147,-0.5 147,-19.5 192,-19.5 192,-0.5 147,-0.5"/>
<text text-anchor="middle" x="169.5" y="-7.5" font-family="Helvetica,sans-Serif" font-size="10.00">all.hpp</text>
</a>
</g>
</g>
<!-- Node4&#45;&gt;Node5 -->
<g id="edge4" class="edge"><title>Node4&#45;&gt;Node5</title>
<path fill="none" stroke="midnightblue" d="M160.323,-46.3956C162.665,-37.362 165.368,-26.936 167.231,-19.7511"/>
<polygon fill="midnightblue" stroke="midnightblue" points="156.934,-45.5246 157.812,-56.083 163.71,-47.2814 156.934,-45.5246"/>
</g>
<!-- Node6 -->
<g id="node6" class="node"><title>Node6</title>
<g id="a_node6"><a xlink:href="arg__as__command_8hpp.html" target="_top" xlink:title="arg_as_command.hpp">
<polygon fill="none" stroke="black" points="16,-0.5 16,-19.5 129,-19.5 129,-0.5 16,-0.5"/>
<text text-anchor="middle" x="72.5" y="-7.5" font-family="Helvetica,sans-Serif" font-size="10.00">arg_as_command.hpp</text>
</a>
</g>
</g>
<!-- Node4&#45;&gt;Node6 -->
<g id="edge5" class="edge"><title>Node4&#45;&gt;Node6</title>
<path fill="none" stroke="midnightblue" d="M133.401,-50.6221C118.238,-40.7574 98.6172,-27.9919 85.8023,-19.6545"/>
<polygon fill="midnightblue" stroke="midnightblue" points="131.874,-53.8042 142.165,-56.324 135.691,-47.9367 131.874,-53.8042"/>
</g>
<!-- Node6&#45;&gt;Node3 -->
<g id="edge6" class="edge"><title>Node6&#45;&gt;Node3</title>
<path fill="none" stroke="midnightblue" d="M72.5,-29.5974C72.5,-53.6664 72.5,-94.617 72.5,-112.368"/>
<polygon fill="midnightblue" stroke="midnightblue" points="76.0001,-29.5914 72.5,-19.5914 69.0001,-29.5915 76.0001,-29.5914"/>
</g>
<!-- Node7&#45;&gt;Node3 -->
<g id="edge8" class="edge"><title>Node7&#45;&gt;Node3</title>
<path fill="none" stroke="midnightblue" d="M48.8001,-159.566C54.8219,-150.275 61.9686,-139.248 66.828,-131.751"/>
<polygon fill="midnightblue" stroke="midnightblue" points="45.7815,-157.788 43.2795,-168.083 51.6556,-161.595 45.7815,-157.788"/>
</g>
<!-- Node8&#45;&gt;Node4 -->
<g id="edge10" class="edge"><title>Node8&#45;&gt;Node4</title>
<path fill="none" stroke="midnightblue" d="M146.323,-102.396C148.665,-93.362 151.368,-82.936 153.231,-75.7511"/>
<polygon fill="midnightblue" stroke="midnightblue" points="142.934,-101.525 143.812,-112.083 149.71,-103.281 142.934,-101.525"/>
</g>
<!-- Node9&#45;&gt;Node4 -->
<g id="edge13" class="edge"><title>Node9&#45;&gt;Node4</title>
<path fill="none" stroke="midnightblue" d="M199.981,-159.32C188.442,-135.37 168.292,-93.5484 159.64,-75.5914"/>
<polygon fill="midnightblue" stroke="midnightblue" points="196.847,-160.879 204.341,-168.368 203.154,-157.84 196.847,-160.879"/>
</g>
<!-- Node10 -->
<g id="node10" class="node"><title>Node10</title>
<g id="a_node10"><a xlink:href="help__printer_8hpp.html" target="_top" xlink:title="help_printer.hpp">
<polygon fill="none" stroke="black" points="224.5,-112.5 224.5,-131.5 310.5,-131.5 310.5,-112.5 224.5,-112.5"/>
<text text-anchor="middle" x="267.5" y="-119.5" font-family="Helvetica,sans-Serif" font-size="10.00">help_printer.hpp</text>
</a>
</g>
</g>
<!-- Node9&#45;&gt;Node10 -->
<g id="edge14" class="edge"><title>Node9&#45;&gt;Node10</title>
<path fill="none" stroke="midnightblue" d="M225.395,-161.537C235.915,-151.909 249.069,-139.869 257.848,-131.834"/>
<polygon fill="midnightblue" stroke="midnightblue" points="222.993,-158.99 217.979,-168.324 227.719,-164.154 222.993,-158.99"/>
</g>
<!-- Node10&#45;&gt;Node4 -->
<g id="edge15" class="edge"><title>Node10&#45;&gt;Node4</title>
<path fill="none" stroke="midnightblue" d="M240.251,-107.862C219.484,-97.8492 191.477,-84.3458 173.45,-75.6545"/>
<polygon fill="midnightblue" stroke="midnightblue" points="238.977,-111.134 249.505,-112.324 242.018,-104.828 238.977,-111.134"/>
</g>
</g>
</svg>
