<?xml version="1.0" encoding="UTF-8" standalone="no"?>
<!DOCTYPE svg PUBLIC "-//W3C//DTD SVG 1.1//EN"
 "http://www.w3.org/Graphics/SVG/1.1/DTD/svg11.dtd">
<!-- Generated by graphviz version 2.40.1 (20161225.0304)
 -->
<!-- Title: value_utils.hpp Pages: 1 -->
<svg width="359pt" height="196pt"
 viewBox="0.00 0.00 358.50 196.00" xmlns="http://www.w3.org/2000/svg" xmlns:xlink="http://www.w3.org/1999/xlink">
<g id="graph0" class="graph" transform="scale(1 1) rotate(0) translate(4 192)">
<title>value_utils.hpp</title>
<!-- Node0 -->
<g id="node1" class="node">
<title>Node0</title>
<polygon fill="#bfbfbf" stroke="#000000" points="136.5,-168.5 136.5,-187.5 218.5,-187.5 218.5,-168.5 136.5,-168.5"/>
<text text-anchor="middle" x="177.5" y="-175.5" font-family="Helvetica,sans-Serif" font-size="10.00" fill="#000000">value_utils.hpp</text>
</g>
<!-- Node1 -->
<g id="node2" class="node">
<title>Node1</title>
<g id="a_node2"><a xlink:href="utils_8hpp.html" target="_top" xlink:title="utils.hpp">
<polygon fill="none" stroke="#000000" points="179,-112.5 179,-131.5 232,-131.5 232,-112.5 179,-112.5"/>
<text text-anchor="middle" x="205.5" y="-119.5" font-family="Helvetica,sans-Serif" font-size="10.00" fill="#000000">utils.hpp</text>
</a>
</g>
</g>
<!-- Node0&#45;&gt;Node1 -->
<g id="edge1" class="edge">
<title>Node0&#45;&gt;Node1</title>
<path fill="none" stroke="#191970" d="M182.3772,-168.2455C186.1513,-160.6973 191.4921,-150.0158 196.0901,-140.8197"/>
<polygon fill="#191970" stroke="#191970" points="199.337,-142.1522 200.6787,-131.6427 193.076,-139.0217 199.337,-142.1522"/>
</g>
<!-- Node3 -->
<g id="node4" class="node">
<title>Node3</title>
<g id="a_node4"><a xlink:href="types_8hpp.html" target="_top" xlink:title="types.hpp">
<polygon fill="none" stroke="#000000" points="77,-56.5 77,-75.5 136,-75.5 136,-56.5 77,-56.5"/>
<text text-anchor="middle" x="106.5" y="-63.5" font-family="Helvetica,sans-Serif" font-size="10.00" fill="#000000">types.hpp</text>
</a>
</g>
</g>
<!-- Node0&#45;&gt;Node3 -->
<g id="edge12" class="edge">
<title>Node0&#45;&gt;Node3</title>
<path fill="none" stroke="#191970" d="M171.4466,-168.4509C159.6046,-149.7707 133.2035,-108.1238 117.959,-84.0761"/>
<polygon fill="#191970" stroke="#191970" points="120.8483,-82.0969 112.5381,-75.5249 114.9362,-85.8448 120.8483,-82.0969"/>
</g>
<!-- Node7 -->
<g id="node8" class="node">
<title>Node7</title>
<polygon fill="none" stroke="#bfbfbf" points="294.5,-56.5 294.5,-75.5 350.5,-75.5 350.5,-56.5 294.5,-56.5"/>
<text text-anchor="middle" x="322.5" y="-63.5" font-family="Helvetica,sans-Serif" font-size="10.00" fill="#000000">algorithm</text>
</g>
<!-- Node0&#45;&gt;Node7 -->
<g id="edge13" class="edge">
<title>Node0&#45;&gt;Node7</title>
<path fill="none" stroke="#191970" d="M191.4091,-168.3669C204.4933,-159.2198 224.5515,-144.977 241.5,-132 263.086,-115.4722 287.1598,-95.6753 303.4098,-82.1019"/>
<polygon fill="#191970" stroke="#191970" points="305.7251,-84.7282 311.1398,-75.6215 301.2279,-79.3639 305.7251,-84.7282"/>
</g>
<!-- Node9 -->
<g id="node10" class="node">
<title>Node9</title>
<g id="a_node10"><a xlink:href="exceptions_8hpp.html" target="_top" xlink:title="exceptions.hpp">
<polygon fill="none" stroke="#000000" points="39,-112.5 39,-131.5 122,-131.5 122,-112.5 39,-112.5"/>
<text text-anchor="middle" x="80.5" y="-119.5" font-family="Helvetica,sans-Serif" font-size="10.00" fill="#000000">exceptions.hpp</text>
</a>
</g>
</g>
<!-- Node0&#45;&gt;Node9 -->
<g id="edge9" class="edge">
<title>Node0&#45;&gt;Node9</title>
<path fill="none" stroke="#191970" d="M160.6039,-168.2455C145.582,-159.5731 123.3957,-146.7645 106.179,-136.825"/>
<polygon fill="#191970" stroke="#191970" points="107.6128,-133.6114 97.2025,-131.6427 104.1129,-139.6737 107.6128,-133.6114"/>
</g>
<!-- Node2 -->
<g id="node3" class="node">
<title>Node2</title>
<polygon fill="none" stroke="#bfbfbf" points="235,-56.5 235,-75.5 276,-75.5 276,-56.5 235,-56.5"/>
<text text-anchor="middle" x="255.5" y="-63.5" font-family="Helvetica,sans-Serif" font-size="10.00" fill="#000000">regex</text>
</g>
<!-- Node1&#45;&gt;Node2 -->
<g id="edge2" class="edge">
<title>Node1&#45;&gt;Node2</title>
<path fill="none" stroke="#191970" d="M214.2093,-112.2455C221.3073,-104.2958 231.5084,-92.8706 239.995,-83.3656"/>
<polygon fill="#191970" stroke="#191970" points="242.8411,-85.4331 246.8905,-75.6427 237.6195,-80.771 242.8411,-85.4331"/>
</g>
<!-- Node1&#45;&gt;Node3 -->
<g id="edge3" class="edge">
<title>Node1&#45;&gt;Node3</title>
<path fill="none" stroke="#191970" d="M188.2555,-112.2455C172.9239,-103.5731 150.2801,-90.7645 132.7084,-80.825"/>
<polygon fill="#191970" stroke="#191970" points="133.9741,-77.5198 123.5469,-75.6427 130.5276,-83.6126 133.9741,-77.5198"/>
</g>
<!-- Node1&#45;&gt;Node7 -->
<g id="edge7" class="edge">
<title>Node1&#45;&gt;Node7</title>
<path fill="none" stroke="#191970" d="M225.613,-112.3733C244.3103,-103.4241 272.3744,-89.9917 293.4934,-79.8835"/>
<polygon fill="#191970" stroke="#191970" points="295.1405,-82.9755 302.6494,-75.5011 292.1183,-76.6614 295.1405,-82.9755"/>
</g>
<!-- Node8 -->
<g id="node9" class="node">
<title>Node8</title>
<polygon fill="none" stroke="#bfbfbf" points="154.5,-56.5 154.5,-75.5 216.5,-75.5 216.5,-56.5 154.5,-56.5"/>
<text text-anchor="middle" x="185.5" y="-63.5" font-family="Helvetica,sans-Serif" font-size="10.00" fill="#000000">type_traits</text>
</g>
<!-- Node1&#45;&gt;Node8 -->
<g id="edge8" class="edge">
<title>Node1&#45;&gt;Node8</title>
<path fill="none" stroke="#191970" d="M202.0163,-112.2455C199.3492,-104.7776 195.5867,-94.2427 192.3263,-85.1137"/>
<polygon fill="#191970" stroke="#191970" points="195.6033,-83.8829 188.9438,-75.6427 189.0111,-86.2373 195.6033,-83.8829"/>
</g>
<!-- Node4 -->
<g id="node5" class="node">
<title>Node4</title>
<polygon fill="none" stroke="#bfbfbf" points="20,-.5 20,-19.5 61,-19.5 61,-.5 20,-.5"/>
<text text-anchor="middle" x="40.5" y="-7.5" font-family="Helvetica,sans-Serif" font-size="10.00" fill="#000000">string</text>
</g>
<!-- Node3&#45;&gt;Node4 -->
<g id="edge4" class="edge">
<title>Node3&#45;&gt;Node4</title>
<path fill="none" stroke="#191970" d="M95.0037,-56.2455C85.2558,-47.9746 71.0741,-35.9416 59.6202,-26.2232"/>
<polygon fill="#191970" stroke="#191970" points="61.7541,-23.4437 51.8646,-19.6427 57.2253,-28.7813 61.7541,-23.4437"/>
</g>
<!-- Node5 -->
<g id="node6" class="node">
<title>Node5</title>
<polygon fill="none" stroke="#bfbfbf" points="79.5,-.5 79.5,-19.5 133.5,-19.5 133.5,-.5 79.5,-.5"/>
<text text-anchor="middle" x="106.5" y="-7.5" font-family="Helvetica,sans-Serif" font-size="10.00" fill="#000000">iostream</text>
</g>
<!-- Node3&#45;&gt;Node5 -->
<g id="edge5" class="edge">
<title>Node3&#45;&gt;Node5</title>
<path fill="none" stroke="#191970" d="M106.5,-56.2455C106.5,-48.9382 106.5,-38.6944 106.5,-29.7046"/>
<polygon fill="#191970" stroke="#191970" points="110.0001,-29.6426 106.5,-19.6427 103.0001,-29.6427 110.0001,-29.6426"/>
</g>
<!-- Node6 -->
<g id="node7" class="node">
<title>Node6</title>
<polygon fill="none" stroke="#bfbfbf" points="151.5,-.5 151.5,-19.5 195.5,-19.5 195.5,-.5 151.5,-.5"/>
<text text-anchor="middle" x="173.5" y="-7.5" font-family="Helvetica,sans-Serif" font-size="10.00" fill="#000000">vector</text>
</g>
<!-- Node3&#45;&gt;Node6 -->
<g id="edge6" class="edge">
<title>Node3&#45;&gt;Node6</title>
<path fill="none" stroke="#191970" d="M118.1705,-56.2455C128.0661,-47.9746 142.4627,-35.9416 154.0901,-26.2232"/>
<polygon fill="#191970" stroke="#191970" points="156.535,-28.7413 161.9632,-19.6427 152.0458,-23.3703 156.535,-28.7413"/>
</g>
<!-- Node9&#45;&gt;Node3 -->
<g id="edge11" class="edge">
<title>Node9&#45;&gt;Node3</title>
<path fill="none" stroke="#191970" d="M85.0289,-112.2455C88.5334,-104.6973 93.4927,-94.0158 97.7623,-84.8197"/>
<polygon fill="#191970" stroke="#191970" points="100.9864,-86.1867 102.023,-75.6427 94.6373,-83.2389 100.9864,-86.1867"/>
</g>
<!-- Node10 -->
<g id="node11" class="node">
<title>Node10</title>
<polygon fill="none" stroke="#bfbfbf" points="0,-56.5 0,-75.5 59,-75.5 59,-56.5 0,-56.5"/>
<text text-anchor="middle" x="29.5" y="-63.5" font-family="Helvetica,sans-Serif" font-size="10.00" fill="#000000">stdexcept</text>
</g>
<!-- Node9&#45;&gt;Node10 -->
<g id="edge10" class="edge">
<title>Node9&#45;&gt;Node10</title>
<path fill="none" stroke="#191970" d="M71.6165,-112.2455C64.3034,-104.2155 53.7609,-92.6394 45.0533,-83.0781"/>
<polygon fill="#191970" stroke="#191970" points="47.6028,-80.6795 38.2817,-75.6427 42.4273,-85.3928 47.6028,-80.6795"/>
</g>
</g>
</svg>
