<?xml version="1.0" encoding="UTF-8" standalone="no"?>
<!DOCTYPE svg PUBLIC "-//W3C//DTD SVG 1.1//EN"
 "http://www.w3.org/Graphics/SVG/1.1/DTD/svg11.dtd">
<!-- Generated by graphviz version 2.38.0 (20140413.2041)
 -->
<!-- Title: value_utils.hpp Pages: 1 -->
<svg width="359pt" height="196pt"
 viewBox="0.00 0.00 358.50 196.00" xmlns="http://www.w3.org/2000/svg" xmlns:xlink="http://www.w3.org/1999/xlink">
<g id="graph0" class="graph" transform="scale(1 1) rotate(0) translate(4 192)">
<title>value_utils.hpp</title>
<!-- Node1 -->
<g id="node1" class="node"><title>Node1</title>
<polygon fill="#bfbfbf" stroke="black" points="136.5,-168.5 136.5,-187.5 218.5,-187.5 218.5,-168.5 136.5,-168.5"/>
<text text-anchor="middle" x="177.5" y="-175.5" font-family="Helvetica,sans-Serif" font-size="10.00">value_utils.hpp</text>
</g>
<!-- Node2 -->
<g id="node2" class="node"><title>Node2</title>
<g id="a_node2"><a xlink:href="utils_8hpp.html" target="_top" xlink:title="utils.hpp">
<polygon fill="none" stroke="black" points="179,-112.5 179,-131.5 232,-131.5 232,-112.5 179,-112.5"/>
<text text-anchor="middle" x="205.5" y="-119.5" font-family="Helvetica,sans-Serif" font-size="10.00">utils.hpp</text>
</a>
</g>
</g>
<!-- Node1&#45;&gt;Node2 -->
<g id="edge1" class="edge"><title>Node1&#45;&gt;Node2</title>
<path fill="none" stroke="midnightblue" d="M182.124,-168.083C185.956,-160.691 191.524,-149.953 196.265,-140.811"/>
<polygon fill="midnightblue" stroke="midnightblue" points="199.466,-142.24 200.962,-131.751 193.252,-139.018 199.466,-142.24"/>
</g>
<!-- Node4 -->
<g id="node4" class="node"><title>Node4</title>
<g id="a_node4"><a xlink:href="types_8hpp.html" target="_top" xlink:title="types.hpp">
<polygon fill="none" stroke="black" points="77,-56.5 77,-75.5 136,-75.5 136,-56.5 77,-56.5"/>
<text text-anchor="middle" x="106.5" y="-63.5" font-family="Helvetica,sans-Serif" font-size="10.00">types.hpp</text>
</a>
</g>
</g>
<!-- Node1&#45;&gt;Node4 -->
<g id="edge12" class="edge"><title>Node1&#45;&gt;Node4</title>
<path fill="none" stroke="midnightblue" d="M171.929,-168.368C160.264,-150.296 133.077,-108.176 117.671,-84.3074"/>
<polygon fill="midnightblue" stroke="midnightblue" points="120.409,-82.0952 112.045,-75.5914 114.528,-85.8913 120.409,-82.0952"/>
</g>
<!-- Node8 -->
<g id="node8" class="node"><title>Node8</title>
<polygon fill="none" stroke="#bfbfbf" points="294.5,-56.5 294.5,-75.5 350.5,-75.5 350.5,-56.5 294.5,-56.5"/>
<text text-anchor="middle" x="322.5" y="-63.5" font-family="Helvetica,sans-Serif" font-size="10.00">algorithm</text>
</g>
<!-- Node1&#45;&gt;Node8 -->
<g id="edge13" class="edge"><title>Node1&#45;&gt;Node8</title>
<path fill="none" stroke="midnightblue" d="M190.185,-168.218C203.004,-159.278 223.318,-144.934 240.5,-132 262.747,-115.254 287.751,-95.2583 304.234,-81.9082"/>
<polygon fill="midnightblue" stroke="midnightblue" points="306.463,-84.6072 312.017,-75.5852 302.049,-79.174 306.463,-84.6072"/>
</g>
<!-- Node10 -->
<g id="node10" class="node"><title>Node10</title>
<g id="a_node10"><a xlink:href="exceptions_8hpp.html" target="_top" xlink:title="exceptions.hpp">
<polygon fill="none" stroke="black" points="39,-112.5 39,-131.5 122,-131.5 122,-112.5 39,-112.5"/>
<text text-anchor="middle" x="80.5" y="-119.5" font-family="Helvetica,sans-Serif" font-size="10.00">exceptions.hpp</text>
</a>
</g>
</g>
<!-- Node1&#45;&gt;Node10 -->
<g id="edge9" class="edge"><title>Node1&#45;&gt;Node10</title>
<path fill="none" stroke="midnightblue" d="M161.915,-168.324C146.501,-159.743 122.688,-146.486 104.79,-136.522"/>
<polygon fill="midnightblue" stroke="midnightblue" points="106.486,-133.461 96.0461,-131.655 103.081,-139.577 106.486,-133.461"/>
</g>
<!-- Node3 -->
<g id="node3" class="node"><title>Node3</title>
<polygon fill="none" stroke="#bfbfbf" points="235,-56.5 235,-75.5 276,-75.5 276,-56.5 235,-56.5"/>
<text text-anchor="middle" x="255.5" y="-63.5" font-family="Helvetica,sans-Serif" font-size="10.00">regex</text>
</g>
<!-- Node2&#45;&gt;Node3 -->
<g id="edge2" class="edge"><title>Node2&#45;&gt;Node3</title>
<path fill="none" stroke="midnightblue" d="M213.756,-112.083C220.965,-104.298 231.61,-92.8015 240.346,-83.3665"/>
<polygon fill="midnightblue" stroke="midnightblue" points="243.171,-85.4666 247.397,-75.7511 238.035,-80.7108 243.171,-85.4666"/>
</g>
<!-- Node2&#45;&gt;Node4 -->
<g id="edge3" class="edge"><title>Node2&#45;&gt;Node4</title>
<path fill="none" stroke="midnightblue" d="M189.594,-112.324C173.862,-103.743 149.558,-90.486 131.291,-80.5224"/>
<polygon fill="midnightblue" stroke="midnightblue" points="132.822,-77.3704 122.367,-75.6545 129.47,-83.5157 132.822,-77.3704"/>
</g>
<!-- Node2&#45;&gt;Node8 -->
<g id="edge7" class="edge"><title>Node2&#45;&gt;Node8</title>
<path fill="none" stroke="midnightblue" d="M224.039,-112.444C243.123,-103.636 273.075,-89.8116 294.936,-79.722"/>
<polygon fill="midnightblue" stroke="midnightblue" points="296.435,-82.8849 304.048,-75.5164 293.501,-76.5292 296.435,-82.8849"/>
</g>
<!-- Node9 -->
<g id="node9" class="node"><title>Node9</title>
<polygon fill="none" stroke="#bfbfbf" points="154.5,-56.5 154.5,-75.5 216.5,-75.5 216.5,-56.5 154.5,-56.5"/>
<text text-anchor="middle" x="185.5" y="-63.5" font-family="Helvetica,sans-Serif" font-size="10.00">type_traits</text>
</g>
<!-- Node2&#45;&gt;Node9 -->
<g id="edge8" class="edge"><title>Node2&#45;&gt;Node9</title>
<path fill="none" stroke="midnightblue" d="M202.197,-112.083C199.518,-104.849 195.651,-94.4087 192.314,-85.3968"/>
<polygon fill="midnightblue" stroke="midnightblue" points="195.496,-83.9129 188.741,-75.7511 188.932,-86.3442 195.496,-83.9129"/>
</g>
<!-- Node5 -->
<g id="node5" class="node"><title>Node5</title>
<polygon fill="none" stroke="#bfbfbf" points="20,-0.5 20,-19.5 61,-19.5 61,-0.5 20,-0.5"/>
<text text-anchor="middle" x="40.5" y="-7.5" font-family="Helvetica,sans-Serif" font-size="10.00">string</text>
</g>
<!-- Node4&#45;&gt;Node5 -->
<g id="edge4" class="edge"><title>Node4&#45;&gt;Node5</title>
<path fill="none" stroke="midnightblue" d="M95.896,-56.324C86.0438,-48.2631 71.1491,-36.0765 59.2849,-26.3695"/>
<polygon fill="midnightblue" stroke="midnightblue" points="61.2529,-23.4575 51.297,-19.8339 56.8202,-28.8752 61.2529,-23.4575"/>
</g>
<!-- Node6 -->
<g id="node6" class="node"><title>Node6</title>
<polygon fill="none" stroke="#bfbfbf" points="79.5,-0.5 79.5,-19.5 133.5,-19.5 133.5,-0.5 79.5,-0.5"/>
<text text-anchor="middle" x="106.5" y="-7.5" font-family="Helvetica,sans-Serif" font-size="10.00">iostream</text>
</g>
<!-- Node4&#45;&gt;Node6 -->
<g id="edge5" class="edge"><title>Node4&#45;&gt;Node6</title>
<path fill="none" stroke="midnightblue" d="M106.5,-56.083C106.5,-49.0059 106.5,-38.8611 106.5,-29.9865"/>
<polygon fill="midnightblue" stroke="midnightblue" points="110,-29.751 106.5,-19.7511 103,-29.7511 110,-29.751"/>
</g>
<!-- Node7 -->
<g id="node7" class="node"><title>Node7</title>
<polygon fill="none" stroke="#bfbfbf" points="151.5,-0.5 151.5,-19.5 195.5,-19.5 195.5,-0.5 151.5,-0.5"/>
<text text-anchor="middle" x="173.5" y="-7.5" font-family="Helvetica,sans-Serif" font-size="10.00">vector</text>
</g>
<!-- Node4&#45;&gt;Node7 -->
<g id="edge6" class="edge"><title>Node4&#45;&gt;Node7</title>
<path fill="none" stroke="midnightblue" d="M117.265,-56.324C127.266,-48.2631 142.387,-36.0765 154.43,-26.3695"/>
<polygon fill="midnightblue" stroke="midnightblue" points="156.95,-28.8343 162.539,-19.8339 152.557,-23.3841 156.95,-28.8343"/>
</g>
<!-- Node10&#45;&gt;Node4 -->
<g id="edge11" class="edge"><title>Node10&#45;&gt;Node4</title>
<path fill="none" stroke="midnightblue" d="M84.7934,-112.083C88.3523,-104.691 93.5225,-93.9533 97.9243,-84.8111"/>
<polygon fill="midnightblue" stroke="midnightblue" points="101.102,-86.2795 102.287,-75.7511 94.7948,-83.2427 101.102,-86.2795"/>
</g>
<!-- Node11 -->
<g id="node11" class="node"><title>Node11</title>
<polygon fill="none" stroke="#bfbfbf" points="0,-56.5 0,-75.5 59,-75.5 59,-56.5 0,-56.5"/>
<text text-anchor="middle" x="29.5" y="-63.5" font-family="Helvetica,sans-Serif" font-size="10.00">stdexcept</text>
</g>
<!-- Node10&#45;&gt;Node11 -->
<g id="edge10" class="edge"><title>Node10&#45;&gt;Node11</title>
<path fill="none" stroke="midnightblue" d="M72.0784,-112.083C64.6518,-104.22 53.6483,-92.5688 44.6878,-83.0813"/>
<polygon fill="midnightblue" stroke="midnightblue" points="47.1757,-80.618 37.7649,-75.7511 42.0866,-85.4244 47.1757,-80.618"/>
</g>
</g>
</svg>
